<svg id="Fruit" height="512" viewBox="0 0 992.13 992.13" width="512" xmlns="http://www.w3.org/2000/svg"><g><path d="m121.845 750.03c1.115.638 2.236 1.263 3.361 1.88-6.448 10.98-8.01 21.424-4.635 31.152 2.203 6.357 8.549 17.607 26.273 21.514 1.415.313 2.889.605 4.384.881-4.633 13.569-1.461 23.469 2.392 29.674 3.559 5.729 12.254 15.34 30.518 15.342h.004c3.49 0 7.134-.361 10.836-1.076 2.818-.543 5.595-1.07 8.316-1.529.15 4.109.311 8.357.712 12.686 1.843 19.769 15.269 32.543 34.207 32.543 6.383 0 12.362-1.422 17.636-2.677 3.188-.757 6.396-1.442 9.6-2.129.786-.169 1.572-.335 2.357-.507l.489 1.146c2.965 6.979 6.323 14.889 11.83 22.484 10.655 14.699 23.171 17.785 31.796 17.785 10.767 0 19.184-4.867 24.213-7.775l1.549-.887c3.772-2.109 7.582-4.145 11.414-6.128 1.09-.565 2.12-1.106 3.098-1.62 2.917 3.641 5.764 7.576 8.849 11.889l.397.557c3.986 5.594 12.279 17.231 29.371 18.637 1.073.088 2.127.129 3.161.129 14.481 0 24.015-7.939 29.711-12.684l1.534-1.266c3.795-3.086 7.539-6.237 11.252-9.45 1.065-.921 1.896-1.618 2.544-2.144.552.227 1.216.516 2.004.885 2.394 1.119 5.041 2.66 7.847 4.289 2.855 1.66 5.715 3.307 8.662 4.813 5.416 2.768 10.979 4.168 16.533 4.168 13.599 0 24.626-7.633 32.771-22.686 1.837-3.396 3.631-7.048 5.254-10.452 1.647.481 3.384.985 5.212 1.495 3.674 1.022 7.318 2.142 10.951 3.304.474.151.95.327 1.436.499 3.464 1.238 8.699 3.109 15.3 3.109.314 0 1.026-.014 1.339-.025 13.202-.521 24.784-8.211 30.221-20.057 1.138-2.477 2.203-4.98 3.267-7.484 1.284-3.025 2.497-5.883 3.767-8.438.95-1.914 1.878-3.691 2.797-5.355 2.565.826 5.293 1.861 7.858 2.834l1.452.549 1.215.49c3.277 1.348 8.763 3.604 15.861 3.604 1.734 0 3.479-.137 5.188-.409 7.764-1.229 21.658-6.099 27.5-24.862.826-2.658 1.898-5.504 3.031-8.52.171-.451.34-.9.509-1.352 3.139.615 7.172 1.32 11.597 1.32 12.985 0 24.046-6.285 30.338-17.234 3.088-5.369 4.546-11.467 4.33-18.127-.041-1.24-.154-2.686-.34-4.632.529-.017 1.058-.034 1.586-.052 4.096-.131 8.738-.281 13.55-.818 10.392-1.162 19.354-6.195 25.234-14.172 8.388-11.375 8.484-25.165 7.056-36.34 7.863-1.391 17.313-4.232 25.359-11.234 7.896-6.873 15.995-19.406 9.748-40.07-.946-3.129-2.021-6.096-3.051-8.816.537-.134 1.08-.268 1.63-.4 6.154-1.512 13.131-3.225 20.38-6.906 7.138-3.624 23.089-15.055 17.105-42.873-.876-4.063-2.03-7.891-3.258-11.481.913-.403 1.841-.81 2.776-1.222 2.625-1.148 5.245-2.3 7.835-3.518 23.161-10.883 25.268-28.66 24.459-38.285-.831-9.916-4.899-17.997-8.984-24.48 11.1-7.783 24.5-21.149 19.325-42.357-2.084-8.546-6.646-15.146-11.47-20.328 2.049-1.864 4.077-3.902 6.029-6.168 4.321-5.021 14.441-16.783 11.179-32.699-2.122-10.343-8.735-17.363-16.146-22.458 11.985-17.358 9.365-31.537 6.562-38.689-2.666-6.802-8.343-14.952-20.357-20.485 2.425-4.406 4.844-10.595 4.472-18.257-.362-7.567-3.429-23.223-21.744-30.342 6.26-16.692.51-33.557-14.839-42.087-1.045-.58-2.092-1.104-3.137-1.582 1.614-8.195.989-15.532-1.852-22.145-3.906-9.092-11.539-15.553-21.499-18.194-2.943-.78-6.052-1.176-9.237-1.176-2.672 0-5.206.279-7.515.681-.954-5.04-2.748-10.336-6.104-15.183-4.639-6.701-11.122-11.371-18.513-13.512 12.307-21.709 26.008-41.429 40.979-58.954.813-.953 1.748-1.814 2.661-2.703 2.446-2.38 5.49-5.344 8.3-9.26 6.484-9.028 9.306-20.405 7.946-32.035-3.354-28.709-32.547-60.82-66.594-60.82-7.355 0-14.434 1.533-21.04 4.559-15.804 7.231-23.795 21.578-29.085 31.071l-.743 1.333c-4.634 8.273-9.025 16.665-13.275 24.78-2.378 4.546-4.758 9.092-7.179 13.612-13.749 25.693-30.42 56.844-52.555 80.657-7.876-2.6-16.088-4.488-24.563-5.642-5.177-.704-10.373-1.061-15.445-1.061-16.938 0-33.185 3.918-48.384 11.658-12.492-3.746-26.053-5.644-40.393-5.644-17.864 0-37.549 2.972-58.503 8.831-34.222 9.566-69.293 25.813-104.234 48.287-65.503 42.128-118.046 101.63-147.943 167.544-15.872 34.991-25.643 74.255-30.745 123.568-4.211 40.666-4.069 76.719.436 110.221.844 6.275 1.859 12.504 3.03 18.576-5.346 4.269-11.015 8.809-14.23 11.449-11.13 9.149-16.303 19.393-15.375 30.449.497 5.927 3.404 17.059 17.286 25.019z" fill="#fff"/><g><path d="m133.716 729.307c4.517 2.588 9.149 4.899 13.569 7.666.862.539 3.108 1.963 5.394 3.582 6.236 4.418 6.01 6.529 1.984 11.66-1.464 1.863-2.962 3.705-4.27 5.303-14.195 17.332-5.645 22.141 1.588 23.734 9.293 2.047 23.046 3.352 24.572 3.619 9.462 1.668 6.166 9.754-1.095 24.434-8.155 16.491 4.326 18.7 14.991 16.643 5.368-1.035 10.754-2.044 16.182-2.704 4.183-.509 8.436-.882 12.652-.708 9.164.381 7.041 20.09 8.502 35.801 1.294 13.885 11.422 11.49 22.54 8.848 5.971-1.42 11.996-2.6 17.979-3.966 12.879-2.933 14.917.035 20.592 13.146 3.098 7.156 5.955 14.677 10.564 21.035 9.793 13.51 18.957 6.547 26.572 2.289 3.99-2.23 8.021-4.385 12.08-6.488 17.698-9.163 18.946-11.771 30.466 1.914 4.227 5.019 8.071 10.336 11.887 15.67 3.287 4.595 5.992 8.766 12.301 9.285 7.283.598 12.154-4.302 17.385-8.551 3.606-2.932 7.163-5.924 10.676-8.965 10.332-8.953 15.514-11.764 30.303-4.846 5.976 2.793 11.41 6.48 17.254 9.466 8.203 4.188 13.074-.544 17.443-8.616 3.892-7.189 8.032-16.705 9.725-19.91 4.618-8.735 13.26-4.836 28.151-.684 3.966 1.104 7.903 2.309 11.823 3.564 3.156 1.01 6.486 2.596 9.854 2.463 4.219-.166 7.724-2.379 9.46-6.162 2.525-5.498 4.648-11.143 7.345-16.574 2.45-4.934 5.109-9.775 8.164-14.361 2.612-3.92 3.902-5.947 8.738-5.886 8.521.108 17.169 3.587 25.037 6.558 3.326 1.257 6.437 3.016 10.081 2.438 5.005-.794 7.049-3.914 8.438-8.373 1.555-4.997 3.546-9.854 5.315-14.775.872-2.426 1.731-4.859 2.443-7.338 2.536-8.836 10.884-6.389 19.934-4.729 7.082 1.298 15.467 3.934 19.885-3.756.967-1.681 1.222-3.533 1.16-5.439-.091-2.78-1.415-13.426-1.402-15.992.008-2.299-.488-6.383.718-8.493 2.219-3.89 11.816-4.058 15.585-4.377 7.019-.591 14.111-.37 21.11-1.151 16.073-1.799 11.646-22.693 9.559-33.693-2.341-12.305-4.297-13.654 13.963-15.641 7.193-.782 15.411-1.736 21.103-6.689 4.834-4.209 4.282-9.479 2.566-15.152-2.081-6.891-5.208-13.426-7.149-20.365-2.562-9.151-1.348-9.688 8.499-14.369 9.408-4.475 20.344-4.857 29.661-9.59 6.397-3.248 5.879-10.46 4.568-16.551-1.604-7.449-4.691-14.514-7.238-21.67-1.787-5.021-.372-7.213 5.422-10.605 7.13-4.176 14.901-7.082 22.361-10.587 6.321-2.97 11.462-6.999 10.817-14.679-.651-7.783-6.117-14.832-10.323-21.084-7.628-11.327-8.777-12.063-1.303-17.023 9.594-6.373 25.589-12.662 22.563-25.063-1.891-7.752-9.653-13.441-15.357-18.352-1.27-1.092-2.562-2.18-3.83-3.293-6.048-5.298-6.492-5.839.281-10.901 6.433-4.797 13.327-9.108 18.564-15.189 7.921-9.205 10.513-15.133-7.948-24.179-1.726-.848-5.232-2.415-8.215-4.404-7.896-5.273-5.139-7.8.354-13.67 2.604-2.783 5.197-5.566 7.562-8.56 9.412-11.924 11.385-25.537-14.026-29.519-3.252-.511-10.445-1.017-11.953-4.754-1.113-2.767 1.508-6.992 2.752-9.339 2.08-3.924 4.55-7.629 6.978-11.344 2.028-3.104 4.645-6.193 4.455-10.1-.465-9.705-9.293-10.748-16.962-11.178-1.333-.076-4.313.078-7.448.013-12.532-.266-10.992-5.338-5.521-13.498 2.966-4.426 6.471-8.53 8.857-13.327 2.845-5.718 2.854-11.311-3.261-14.709-5.091-2.83-11.412-3.326-17.035-4.351-6.422-1.168-7.829-.487-3.954-7.571 5.304-9.707 11.363-24.77-.014-27.787-4.398-1.167-9.555.631-13.759 1.765-3.088.833-6.141 1.79-9.216 2.662-9.135 2.59-10.5 2.824-10.481-11.396.006-5.455.314-13.539-2.913-18.198-5.842-8.436-15.908-3.484-21.898 1.569-6.013 5.072-12.05 10.114-18.091 15.146-5.212 4.342-8.551 4.661-5.266-3.188 18.965-45.316 42.661-84.041 69.193-115.099 3.055-3.577 6.992-6.576 9.724-10.383 3.207-4.465 4.256-9.931 3.624-15.333-2.581-22.092-31.243-47.725-53.968-37.321-9.188 4.209-14.224 13.952-18.935 22.367-7.01 12.517-13.465 25.344-20.234 37.992-18.491 34.553-38.475 70.926-68.033 97.37-10.464-5.099-21.822-8.39-33.357-9.959-19.029-2.588-36.996.757-53.709 10.344-4.75 2.728-5.556 2.214-10.044.663-28.651-9.872-60.707-5.889-89.325 2.113-34.637 9.682-67.57 25.965-97.744 45.372-59.008 37.95-110.008 93.157-139.113 157.323-16.767 36.961-24.581 75.974-28.74 116.162-3.595 34.727-4.309 69.922.351 104.582.909 6.766 2.04 13.549 3.418 20.303 2.374 11.578 4.034 9.595-5.77 17.416-6.082 4.85-13.508 10.777-17.353 13.936-8.265 6.789-9.215 11.8-1.384 16.291z" fill="#68182b"/><path d="m622.201 234.199c20.744-21.098 36.69-47.106 51.089-72.656 7.603-13.489 14.765-27.215 21.984-40.91 4.957-9.402 9.698-19.22 15.882-27.9 13.383-18.786 40.698 2.637 45.45 19.701 2.52 9.042-4.459 13.915-10.287 20.824-8.602 10.203-16.176 21.311-23.486 32.457-7.374 11.247-14.649 22.748-21.538 34.503.054-.115.101-.232.154-.348 9.181-19.827 19.487-39.23 29.91-58.436 3.968-7.323 2.804-7.794-2.178-1.043-13.21 17.887-24.063 36.799-33.303 57.124-4.537 9.98-8.843 20.08-12.829 30.292-2.203 5.638-4.424 11.274-6.521 16.954-.73 1.979-1.553 4.011-2.33 6.081-2.551 6.744-1.526 7.672-6.679 6.977-10.213-1.365-20.638-1.014-30.869.914-3.614-4.714-7.763-9.085-12.593-12.934-5.988-4.777-7.46-5.898-1.856-11.6z" fill="#aa8053"/><path d="m532.985 240.018c12.926-5.72 26.761-6.827 40.625-4.585 30.128 4.871 57.608 22.867 65.949 52.216 2.002 7.06 1.842 7.539-3.143 9.904-27.744 13.125-54.291 40.793-55.208 72.119-.256 8.777 1.261 8.546-5.696 11.973-16.068 7.922-27.676 24.563-35.229 40.168-4.648 9.608-8.402 19.788-10.525 30.266-1.25 6.177-2.313 13.057-1.415 19.495-17.853 7.457-32.913 21.058-44.156 36.608-11.63 16.085-19.121 35.632-17.324 55.531-18.268 6.403-32.625 21.075-42.85 37.188-11.397 17.961-18.381 38.881-20.041 60.111-31.796 1.487-53.055 39.576-55.018 68.176-.267 3.908-.086 7.854.568 11.676 1.11 6.495.703 9.287-6.617 10.855-13.07 2.807-26.773 1.537-37.994-6.773-23.605-17.482-29.414-52.172-28.075-79.539 1.419-28.989 10.433-58.871 26.608-68.838 16.947-10.441 45.722-13.486 80.205 2.113 4.729 2.14 4.77 1.479.64-1.881-21.294-17.332-52.872-22.859-80.055-12.383-7.991 3.078-10.594 5.289-11.696-4.395-1.975-17.352.805-35.488 6.369-51.699 6.106-17.795 15.451-33.429 29.383-46.09 20.73-18.835 48.421-25.625 66.757-18.482 16.94 6.597 44.422 28.01 52.337 36.355 2.962 3.117 3.559 2.281 1.579-1.758-5.469-11.142-15.618-19.937-25.35-27.332-7.911-6.013-16.708-10.898-25.885-14.689-5.796-2.394-12.329-4.669-18.895-5.832-9.989-1.775-8.936-7.475-8.502-21.789.531-17.439 3.415-35.196 10.274-51.325 7.329-17.229 19.794-31.437 33.818-43.597 11.817-10.248 25.652-20.037 40.75-25.154 45.111-15.3 66.417 6.458 94.661 30.677 3.505 3.01 3.986 2.718 1.74-1.211-14.039-24.538-42.499-43.246-70.097-42.246-5.684.208-6.771-2.213-3.392-6.917 5.924-8.234 12.446-16.042 19.573-23.264 10.247-10.377 21.912-19.713 35.327-25.652z" fill="#fac135"/><path d="m448.6 697.395c-1.097-4.436-7.623-20.939-26.959-31.395-5.148-2.783-7.104-5.044-6.448-10.752 1.984-17.168 7.824-32.695 17.098-47.725 7.664-12.426 18.041-24.172 31.14-30.906 23.482-12.068 47.596 5.082 51.642 10.531 2.314 3.117 4.672 4.001 2.14-.722-1.885-3.515-7.167-16.392-32.058-21.692-4.899-1.045-8.339-3.91-8.151-9.184.549-15.166 7.493-29.9 16.278-42.053 7.134-9.867 16.28-19.107 26.785-25.881 17.935-11.568 37.397-11.488 59.876 9.504 3.438 3.208 5.095 3.732 2.48-2.224-4.894-11.128-14.754-21.193-35.397-23.912-6.085-.802-8.983-2.32-8.179-9.717.245-2.258.681-4.529 1.173-6.889 1.96-9.409 5.177-18.603 9.36-27.25 18.669-38.592 58.284-51.401 83.405-23.05 2.168 2.445 2.934 1.265 1.734-1.67-4.871-11.924-16.127-21.425-32.689-23.134-7.195-.745-10.396-1.111-10.077-9.865.515-13.957 7.27-27.224 16.954-38.307 17.725-20.284 47.114-31.93 64.428-32.268 6.748-.131 13.352 1.068 19.181 4.427 19.848 11.44 17.604 41.813 14.601 60.964-7.613 48.54-32.219 94.146-57.819 135.376-30.297 48.791-65.851 94.389-104.439 136.877-31.82 35.035-66.005 69.648-104.976 96.8-6.784 4.728-13.766 9.185-21.06 13.089-12.835 6.869-32.101 18.221-46.861 10.797-14.839-7.467-13.757-27.086-9.923-40.644 4.176-14.771 12.901-30.299 25.866-39.05 20.32-13.717 34.352-1.31 45.273 8.189 2.404 2.09 9.11 8.99 12.708 12.827 2.039 2.178 4.342 4.715 2.914-1.091z" fill="#fac135"/><path d="m268.731 700.67c1.236 6.131 3.044 12.324 5.424 18.314 3.149 7.926 2.516 9.532-6.158 6.17-24.817-9.621-44.184-32.604-54.1-57.159-10.96-27.14-14.343-57.882-11.689-86.905 1.896-20.752 7.275-44.072 20.352-60.895 10.652-13.719 27.31-12.99 42.682-7.553 5.617 1.986 6.921.654 1.9-2.987-9.67-7.021-19.268-10.347-28.977-8.722-4.926.822-8.415 1.037-8.324-6.2.142-10.542 3.982-55.498 23.221-86.531 12.093-19.508 28.925-38.234 49.702-48.999 3.453-1.792 27.567-16.826 53.131 10.832 2.581 2.79 3.906 2.131 2.17-1.505-5.732-12.027-12.734-17.988-18.301-20.962-8.752-4.678-9.353-3.951-3.221-12.338 3.081-4.21 6.318-8.31 9.696-12.286 18.983-22.347 42.034-39.662 69.948-49.175 18.484-6.301 38.527-10.075 58.251-9.932 9.493.07 9.81.412 3.875 7.65-4.77 5.814-9.397 11.875-13.571 18.197-3.776 5.71-3.923 6.184-10.96 8.405-11.818 3.723-22.885 10.132-32.867 17.264-13.025 9.304-25.076 20.259-34.993 32.855-18.775 23.851-25.844 54.092-26.193 84.008-.041 3.351-.004 6.708.138 10.061.282 6.7 1.251 6.753-5.541 9.627-8.51 3.605-16.441 9.166-23.518 14.604-11.296 8.68-21.897 18.782-29.189 31.136-14.757 24.996-22.698 54.701-19.424 83.766.573 5.09 1.32 10.342 2.793 15.305-17.653 30.076-23.075 70.096-16.257 103.955z" fill="#fac135"/><path d="m174.48 497.729c17.022-69.633 60.256-131.212 114.664-177.14 25.444-21.479 54.176-39.436 84.224-53.721 29.851-14.195 62.83-25.646 96.193-26.273 11.897-.224 23.68 1.152 34.977 4.725-3.822 3.02-7.491 6.237-11.005 9.623-8.934-1.894-18.494-1.8-27.51-1.325-15.709.827-31.416 3.501-46.482 8.026-34.651 10.404-63.081 31.463-85.479 59.604-3.382 4.251-6.706 8.602-9.822 13.09-5.021 7.234-4.12 6.805-13.281 9.947-25.392 8.72-46.415 28.783-61.553 50.36-19.127 27.267-28.064 59.308-29.825 92.333-.198 3.733-.334 7.501-.342 11.267-.022 8.959.781 8.26-4.976 15.328-7.413 9.096-12.175 21.092-15.569 31.654-7.79 24.262-9.263 50.51-6.603 75.736 4.235 40.183 19.489 81.648 54.518 104.775 10.161 6.707 21.6 11.43 33.573 13.551 5.273.93 7.359 3.018 9.429 5.336 9.112 10.209 20.965 17.438 35.67 18.84 10.869 1.035 21.651-1.258 31.77-5.105 3.354 4.193 7.763 7.58 13.366 9.637 16.846 6.178 35.624-3.203 50.325-10.855 18.154-9.449 34.626-21.762 50.387-34.746 20.359-16.77 39.512-35.006 57.899-53.908 42.889-44.088 82.154-92.157 116.196-143.402 29.81-44.876 58.528-94.508 69.924-147.742 5.042-23.55 8.859-54.464-7.456-74.585-11.503-14.185-30.425-15.96-47.347-12.914-6.541 1.179-8.668 2.639-10.462-4.063-1.026-3.842-2.322-7.578-3.886-11.184-2.544-5.881-1.078-6.848 5.879-7.024 33.463-.862 65.666 18.64 78.129 51.025 8.997 23.377 4.02 51.767-1.129 75.609-11.209 51.891-34.958 100.673-63.093 145.379-31.264 49.676-69.068 95.307-111.479 135.854-40.462 38.685-85.664 73.396-135.886 98.473-40.612 20.277-86.657 35.029-132.55 30.297-15.002-1.547-30.258-5.391-43.853-12.018-7.158-3.488-14.443-8.402-19.61-12.666-18.482-15.25-31.753-35.443-40.987-57.381-14.536-34.539-19.136-67.252-19.346-109.461-.191-38.265 3.312-77.746 12.408-114.956z" fill="#fbf199"/><path d="m147.89 716.373c1.491-1.154 3.869-3.096 6.392-5.174 11.301-9.316 10.375-3.857 13.432 4.672 7.755 21.641 18.864 41.943 34.518 58.992 14.707 16.021 32.534 27.318 53.237 33.787 44.461 13.893 92.812 5.386 135.342-11.062 52.53-20.314 99.996-52.567 142.6-89.041 46.487-39.8 87.881-85.769 122.999-135.872 32.354-46.162 60.133-96.808 76.278-151.033 6.991-23.484 11.704-47.867 12.436-72.402.521-17.328-3.231-33.792-12.403-48.645-6.983-11.311-16.472-21.19-27.559-28.608-5.215-3.489-7.952-5.671.238-12.506 3.514-2.935 7.022-5.875 10.521-8.826 8.398-7.095 7.261 3.431 6.72 13.187-.456 8.232 1.138 17.35 4.925 19.416 4.741 2.586 11.431.175 16.231-1.104 4.935-1.313 9.797-2.989 14.772-4.171 5.137-1.23 4.139-.193 2.019 4.118-4.451 9.026-14.35 21.421-3.376 27.23 4.713 2.493 10.507 2.927 15.666 3.867 6.907 1.257 9.438 2.725 5.942 7.896-1.29 1.913-2.678 3.756-4.018 5.634-2.974 4.167-5.893 8.67-7.071 13.726-1.664 7.134 1.144 13.212 8.121 15.81 6.567 2.448 14.012 1.917 20.895 2.402 4.134.292 4.741.804 1.8 5.301-1.703 2.602-3.415 5.198-5.007 7.87-3.666 6.157-8.314 14.413-5.479 21.728 3.585 9.259 14.293 10.454 22.692 11.924 10.894 1.911 10.431 4.126 7.008 9.407-3.664 5.654-8.904 10.059-13.189 15.207-11.665 14.018 4.272 25.214 16.256 30.831 7.234 3.39 6.299 5.358-.487 11.081-1.656 1.395-3.408 2.678-5.06 3.912-5.764 4.306-21.185 11.924-19.07 21.092 1.736 7.537 29.982 24.293 25.183 30.141-4.102 4.996-11.528 7.949-16.776 11.582-4.682 3.238-10.979 7.594-11.214 13.938-.253 6.879 6.582 14.348 10.159 19.7 2.059 3.081 10.184 12.86 6.732 16.661-1.543 1.699-5.268 2.713-7.331 3.643-3.904 1.755-7.846 3.421-11.717 5.244-6.331 2.98-13.789 6.385-17.978 12.259-3.871 5.427-1.891 10.702.191 16.371 1.926 5.237 4.349 10.673 5.825 16.204 1.716 6.408 3.32 7.586-3.884 9.715-3.801 1.121-7.586 2.359-11.418 3.385-8.993 2.41-18.987 5.99-25.323 13.225-8.564 9.779 2.5 27.665 5.626 37.672 1.72 5.504-.954 6.41-5.08 7.518-6.983 1.881-14.337 1.795-21.465 2.801-5.313.75-11.955 2.227-13.816 8.063-1.573 4.938 1.333 11.898 2.32 16.76 3.972 19.568 5.379 23.176-8.48 23.697-10.76.4-32.356-.748-36.984 12.07-1.501 4.158-1.4 9.252-1.32 13.618.199 10.929 3.976 15.237-5.227 13.554-4.063-.745-8.131-1.502-12.243-1.926-6.372-.656-14.134-.426-18.451 5.053-2.308 2.928-2.646 6.69-3.715 10.156-1.571 5.102-3.579 10.061-5.396 15.078-1.824 5.035-4.864 4.799-16.145 1.153-7.644-2.47-16.702-5.183-24.782-3.356-8.659 1.953-13.203 11.578-17.137 18.688-2.69 4.866-5.103 9.883-7.341 14.975-4.211 9.559-10.523 5.959-28.861 1.484-7.218-1.76-15.252-3.709-22.711-2.553-8.034 1.246-10.015 7.955-13.521 14.459-2.113 3.92-4.256 7.832-6.233 11.829-3.145 6.372-3.351 8.335-11.576 3.733-4.648-2.6-9.412-4.988-14.328-7.049-6.445-2.701-14.076-5.557-21.175-4.149-7.734 1.534-13.859 9.826-19.617 14.742-10.018 8.546-15.493 16.435-24.469 4.104-4.094-5.631-8.298-11.23-12.951-16.414-8.581-9.556-9.568-16.027-31.58-5.361-7.855 3.805-15.61 7.867-23.194 12.189-5.442 3.102-7.553 5.132-12.286-2.67-4.068-6.699-6.798-14.138-9.98-21.273-2.534-5.682-5.442-12.781-10.937-16.271-6.675-4.24-34.187 4.609-39.872 6.004-3.336.818-7.504 1.645-8.038-8.381-.49-9.068.097-19.381-3.369-27.955-3.146-7.783-9.884-9.225-17.633-9.152-9.511.089-19.054 1.905-28.365 3.688-2.817.546-4.217.024-1.594-5.517 4.315-9.131 14.462-30.754-1.615-34.48-7.277-1.688-14.984-2.986-22.546-3.818-4.546-.502-8.543-1.393-3.518-8.371 2.372-3.295 4.11-5.633 5.388-7.359 6.656-9.026 5.033-14.59-2.224-21.285-5.397-4.982-12.548-8.953-13.529-9.609-5.527-3.697-6.564-4.388-.8-8.853z" fill="#b1d045"/><path d="m815.279 475.925c1.651-1.234 3.403-2.518 5.06-3.912 6.786-5.723 7.722-7.691.487-11.081-2.614-1.226-5.409-2.731-8.071-4.459-22.055 16.455-37.807 35.308-47.051 56.544-2.159 4.965-1.195 7.041 1.835 9.998 3.242 3.161 5.92 6.932 3.406 10.301-1.993 2.676-6.169 4.178-8.947 5.816-4.357 2.572-4.824 4.064-5.153 6.85-1.484 12.648-1.09 25.979 1.335 40.027 3.281 19.002 9.878 55.008-34.865 72.315-24.545 9.495-31.93 26.165-30.786 52.657 1.619 37.501-24.212 51.935-58.711 55.467-40.214 4.115-35.651 11.689-65.296 46.338-9.477 11.077-22.561 31.41-36.83 36.149-13.993 4.649-41.557-2.021-55.848-3.149-15.87-1.252-28.216-.902-41.263 1.09-3.079.474-5.708.424-7.651 4.9-1.245 2.867-2.411 5.756-3.746 8.586-.487 1.034-1.96 1.299-2.882.754-2.678-1.582-4.184-4.117-6.305-6.293-2.3-2.364-3.663-2.831-7.653-1.721-25.548 7.107-50.025 17.881-76.369 6.73-18.658-7.898-33.071-20.961-54.077-22.549-13.063-.984-26.222 2.316-38.366 7.75.042 1.367.089 2.721.161 4.045.534 10.025 4.702 9.199 8.038 8.381 5.686-1.395 33.197-10.244 39.872-6.004 5.494 3.49 8.402 10.59 10.937 16.271 3.183 7.136 5.912 14.574 9.98 21.273 4.733 7.802 6.844 5.771 12.286 2.67 7.584-4.322 15.339-8.385 23.194-12.189 22.012-10.666 22.999-4.194 31.58 5.361 4.653 5.184 8.857 10.783 12.951 16.414 8.976 12.33 14.451 4.441 24.469-4.104 5.758-4.916 11.883-13.208 19.617-14.742 7.099-1.407 14.729 1.448 21.175 4.149 4.916 2.061 9.68 4.449 14.328 7.049 8.226 4.602 8.432 2.639 11.576-3.733 1.978-3.997 4.12-7.909 6.233-11.829 3.507-6.504 5.487-13.213 13.521-14.459 7.459-1.156 15.493.793 22.711 2.553 18.338 4.475 24.65 8.074 28.861-1.484 2.238-5.092 4.65-10.108 7.341-14.975 3.934-7.109 8.478-16.734 17.137-18.688 8.08-1.826 17.139.887 24.782 3.356 11.28 3.646 14.32 3.882 16.145-1.153 1.816-5.018 3.824-9.977 5.396-15.078 1.068-3.466 1.407-7.229 3.715-10.156 4.317-5.479 12.079-5.709 18.451-5.053 4.112.424 8.181 1.181 12.243 1.926 9.202 1.684 5.426-2.625 5.227-13.554-.08-4.366-.181-9.46 1.32-13.618 4.628-12.818 26.225-11.67 36.984-12.07 13.859-.521 12.452-4.129 8.48-23.697-.987-4.861-3.894-11.822-2.32-16.76 1.861-5.836 8.504-7.313 13.816-8.063 7.128-1.006 14.481-.92 21.465-2.801 4.126-1.107 6.8-2.014 5.08-7.518-3.126-10.007-14.19-27.893-5.626-37.672 6.336-7.234 16.33-10.814 25.323-13.225 3.832-1.025 7.617-2.264 11.418-3.385 7.204-2.129 5.6-3.307 3.884-9.715-1.477-5.531-3.899-10.967-5.825-16.204-2.082-5.669-4.063-10.944-.191-16.371 4.188-5.874 11.646-9.278 17.978-12.259 3.871-1.823 7.813-3.489 11.717-5.244 2.063-.93 5.788-1.943 7.331-3.643 3.451-3.801-4.674-13.58-6.732-16.661-3.577-5.353-10.412-12.821-10.159-19.7.234-6.344 6.532-10.699 11.214-13.938 5.248-3.633 12.675-6.586 16.776-11.582 4.8-5.848-23.446-22.604-25.183-30.141-2.114-9.163 13.307-16.782 19.07-21.088z" fill="#abab38"/><path d="m219.702 793.598c35.688 29.415 85.254 30.728 128.88 24.416 30.908-4.471 59.925-13.51 87.429-28.321 26.932-14.503 52.672-33.095 76.93-51.661 47.647-36.465 87.515-81.603 126.358-127.01 48.92-57.189 83.086-122.6 101.973-195.552 9.536-36.838 20.611-96.769-14.31-123.147 2.067 2.658 3.994 5.418 5.757 8.273 9.172 14.854 12.924 31.317 12.403 48.645-.731 24.535-5.444 48.918-12.436 72.402-16.146 54.225-43.925 104.871-76.278 151.033-35.118 50.104-76.512 96.072-122.999 135.872-42.604 36.474-90.069 68.727-142.6 89.041-42.53 16.447-90.881 24.954-135.342 11.062-20.703-6.469-38.53-17.766-53.237-33.787-.225-.244-.428-.506-.652-.752 5.005 7.056 10.997 13.613 18.124 19.486z" fill="#d7e338"/><path d="m439.681 733.278c38.971-27.151 73.155-61.765 104.976-96.8 38.589-42.488 74.143-88.086 104.439-136.877 25.601-41.23 50.206-86.836 57.819-135.376 3.003-19.15 5.247-49.523-14.601-60.964-.078-.045-.162-.07-.238-.113 4.626 12.148 4.184 27.177 3.178 39.136-2.324 27.655-11.595 54.248-22.548 79.544-20.55 47.456-47.925 92.057-78.084 133.956-30.847 42.852-65.67 82.994-103.374 119.939-19.152 18.77-39.355 36.537-61.306 51.981-18.848 13.263-41.386 26.761-64.826 24.214 1.733 2.082 3.914 3.871 6.644 5.246 14.761 7.424 34.026-3.928 46.861-10.797 7.294-3.904 14.275-8.361 21.06-13.089z" fill="#ee9e2b"/><path d="m403.972 661.014c1.66-21.23 8.644-42.15 20.041-60.111 10.225-16.113 24.582-30.785 42.85-37.188-1.797-19.899 5.694-39.446 17.324-55.531 11.243-15.55 26.304-29.151 44.156-36.608-.898-6.438.165-13.318 1.415-19.495 2.123-10.479 5.877-20.658 10.525-30.266 7.554-15.606 19.161-32.247 35.229-40.168 6.957-3.427 5.44-3.196 5.696-11.973.9-30.743 26.493-57.93 53.669-71.339-16.591 1.79-31.878 10.686-43.255 23.297-13.777 15.275-19.805 34.166-21.104 53.813-16.48 7.475-28.713 23.396-36.869 39.11-7.114 13.706-14.482 34.752-13.322 52.5-34.053 16.77-64.422 50.846-64.216 89.337-18.931 8.08-34.149 25.548-44.73 42.371-9.441 15.014-17.692 35.938-17.081 55.018-20.448 2.958-39.66 21.963-48.897 38.16-8.051 14.115-11.694 31.107-10.744 47.707-5.973 3.289-12.744 4.629-20.41 3.553-6.511-.916-13.693-3.895-19.511-8.16 2.96 3.682 6.305 7.045 10.174 9.91 11.221 8.311 24.924 9.58 37.994 6.773 7.32-1.568 7.728-4.36 6.617-10.855-.654-3.822-.835-7.768-.568-11.676 1.962-28.603 23.221-66.692 55.017-68.179z" fill="#ee9e2b"/><path d="m274.155 718.984c-2.38-5.99-4.188-12.184-5.424-18.314-6.818-33.859-1.396-73.879 16.256-103.955-1.473-4.963-2.22-10.215-2.793-15.305-3.274-29.064 4.667-58.77 19.424-83.766 7.292-12.354 17.894-22.456 29.189-31.136 7.076-5.438 15.008-10.999 23.518-14.604 6.792-2.874 5.823-2.927 5.541-9.627-.142-3.353-.179-6.71-.138-10.061.35-29.916 7.418-60.157 26.193-84.008 9.917-12.597 21.968-23.552 34.993-32.855 9.982-7.131 21.049-13.541 32.867-17.264 7.037-2.222 7.184-2.695 10.96-8.405 1.034-1.565 2.166-3.066 3.25-4.601-35.771 10.023-69.935 28.61-91.722 59.361-12.031 16.98-18.305 37.657-22.157 57.876-2.322 12.188-3.76 25.899-2.369 38.938-26.105 9.036-47.188 33.827-60.677 56.35-16.535 27.615-23.762 62.066-15.953 93.432-14.277 15.081-19.708 39.602-21.666 58.836-2.737 26.866 4.334 54.875 22.402 75.105.004-1.282-.595-3.231-1.694-5.997z" fill="#ee9e2b"/><path d="m379.163 503.178c-.502.143-.504.875 0 1.016 12.268 3.457 20.878 12.001 31.318 18.633.591.377 1.448-.244 1.21-.928-4.305-12.322-19.541-22.401-32.528-18.721z" fill="#ee9e2b"/><path d="m303.603 670.455c-.781.373-.3 1.402.399 1.473 4.533.459 9.057.576 13.61.732 4.289.146 7.712 1.09 11.902-.138.614-.181.898-1.024.391-1.485-6.663-6.068-18.827-4.135-26.302-.582z" fill="#ee9e2b"/><path d="m339.443 614.168c-.578.283-.399 1.17.173 1.324 10.708 2.922 19.606 9.146 30.015 12.637.755.254 1.121-.697.705-1.209-6.981-8.59-19.127-18.474-30.893-12.752z" fill="#ee9e2b"/><path d="m486.256 607.725c-4.168-1.945-7.734-1.766-12.169-1.422-.654.052-.823.967-.158 1.164 3.353.992 6.571 3.211 9.737 4.688 2.878 1.346 5.507 3.543 8.851 3.363.36-.018.77-.316.725-.723-.429-3.787-3.853-5.609-6.986-7.07z" fill="#ee9e2b"/><path d="m523.41 512.529c-.701.277-.58 1.217.175 1.293 8.115.823 16.341 1.617 24.2 3.867 7.015 2.008 13.465 5.891 20.331 8.411.726.267 1.331-.647.967-1.257-8.923-14.976-30.358-18.368-45.673-12.314z" fill="#ee9e2b"/><path d="m575.468 426.38c-.358.187-.309.831.117.901 8.016 1.331 16.089 1.783 24.063 3.458 8.023 1.687 15.105 6.095 22.706 9.003.589.225 1.273-.467 1.054-1.053-5.983-15.95-34.429-19.412-47.94-12.309z" fill="#ee9e2b"/><path d="m619.423 423.547c-.513-.022-.872.722-.442 1.067.989.792 7.285 9.441 8.88 6.718 1.086-1.851-1.031-4.1-2.209-5.248-1.926-1.873-3.624-2.417-6.229-2.537z" fill="#ee9e2b"/><path d="m524.602 392.298c-6.636-31.928-46.627-66.082-80.231-54.783-.93.313-.74 1.617.229 1.68 33.692 2.199 58.98 28.577 78.077 53.913.707.941 2.177.412 1.925-.81z" fill="#ee9e2b"/><path d="m523.713 361.667c.664.359 1.253-.229 1.16-.893-.903-6.525-7.586-12.765-14.452-11.967-.385.045-.816.492-.513.891 3.664 4.794 8.527 9.096 13.805 11.969z" fill="#ee9e2b"/><path d="m401.419 419.829c-.757.012-.878 1.067-.175 1.294 10.231 3.266 20.677 6 30.817 9.552 10.708 3.751 19.608 10.694 28.906 16.965.679.457 1.676-.302 1.4-1.078-8.179-23.227-39.864-27.059-60.948-26.733z" fill="#ee9e2b"/><path d="m341.14 558.551c-.473.21-.205.912.249.92 16.209.296 31.894 2.016 47.19 7.608.64.232 1.181-.573.856-1.112-9.318-15.416-33.944-13.799-48.295-7.416z" fill="#ee9e2b"/><path d="m305.987 446.411c-10.439-10.211-34.234-10.608-44.764-.247-.593.584-.134 1.543.652 1.573 6.736.27 13.354-1.146 20.114-.971 7.825.204 15.224 2.532 23.064 1.893 1.096-.089 1.808-1.391.934-2.248z" fill="#ee9e2b"/><path d="m234.311 573.408c-.333.203-.156.631.183.675 4.067.509 8.148.808 12.252.704 3.83-.098 6.973.176 10.33-1.85.596-.359.596-1.232 0-1.592-6.368-3.837-16.712-1.628-22.765 2.063z" fill="#ee9e2b"/><path d="m590.917 285.938c-4.665-14.987-22.107-24.871-37.316-23.622-.677.055-1.041.979-.366 1.349 5.64 3.093 11.45 5.994 17.056 9.188 6.681 3.808 12.866 9.318 18.922 14.078.735.578 2.04.08 1.704-.993z" fill="#ee9e2b"/><path d="m666.255 339.675c-2.086-1.769-4.323-3.205-6.751-4.464-4.693-2.431-8.687-2.527-13.753-2.301-.798.035-.917 1.098-.183 1.357 3.696 1.308 7.679 3.857 11.048 5.885 1.69 1.016 3.304 2.116 4.881 3.301 2.104 1.586 4.26 1.72 6.515 2.913.703.37 1.355-.358 1.037-1.037-.905-1.926-1.039-4.166-2.794-5.654z" fill="#ee9e2b"/><path d="m631.412 348.886c-.348.255-.417.782 0 1.024 3.735 2.166 8.049 3.009 12.143 4.351 4.73 1.547 8.335 4.721 13.432 5.152.634.054.934-.604.857-1.125-1.403-9.595-19.158-14.756-26.432-9.402z" fill="#fbe134"/><path d="m607.13 460.525c.405-1.469-1.417-2.647-2.503-3.105-2.298-.971-4.258-.428-6.619-.389-.481.008-.688.677-.249.919 1.847 1.026 3.313 2.345 5.338 3.102.924.343 3.628.948 4.033-.527z" fill="#fbe134"/><path d="m302.157 389.667c-.319.226-.36.691 0 .909 4.286 2.61 9.611 3.322 14.287 5.091 6.074 2.302 10.896 5.897 17.319 7.309.699.154 1.372-.444 1.173-1.173-3.077-11.297-22.822-19.257-32.779-12.136z" fill="#fbe134"/><path d="m390.669 695.445c-.697.199-.8 1.129-.197 1.504 5.118 3.182 10.297 7.508 16.159 9.122 1.74.478 2.911-1.095 2.67-2.673-1.218-8.037-12.237-9.773-18.632-7.953z" fill="#fbe134"/><path d="m612.032 474.677c-5.381-11.322-19.373-16.047-31.104-13.064-.788.2-.848 1.489 0 1.65 11.135 2.123 19.773 9.061 30.21 12.574.715.241 1.168-.584.894-1.16z" fill="#fbe134"/><path d="m464.32 653.755c.874.173 1.458-.497 1.335-1.335-1.596-10.938-15.431-13.662-24.383-11.548-.556.132-.58.86-.148 1.144 3.532 2.318 7.07 4.199 10.762 6.268 4.056 2.271 7.819 4.56 12.434 5.471z" fill="#fbe134"/><path d="m422.358 355.273c-.439.169-.432.716 0 .889 3.683 1.463 7.432 2.08 11.267 2.995 4.08.973 7.781 2.374 12.026 2.298.621-.011 1.028-.691.71-1.238-4.414-7.572-16.696-7.75-24.003-4.944z" fill="#fbe134"/><path d="m334.544 509.547c-.693.273-.589 1.231.175 1.293 4.083.332 8.281 1.214 12.355 1.748 4.598.602 9.018.412 13.623.557.918.027 1.078-1.132.433-1.595-8.525-6.118-17.155-5.716-26.586-2.003z" fill="#fbe134"/><path d="m530.764 291.662c2.224 1.162 4.525 2.275 6.794 3.34 2.017.948 3.588.471 5.688.422.474-.013.953-.504.762-1-1.671-4.34-3.678-5.66-8.012-7.477-4.441-1.864-9.666-3.233-14.517-2.835-.601.05-.913.714-.489 1.181 2.669 2.921 6.323 4.565 9.774 6.369z" fill="#fbe134"/><path d="m536.427 571.413c.716.306 1.763-.198 1.45-1.114-4.184-12.287-19.818-24.664-33.249-22.993-.759.095-1.104 1.015-.398 1.474 5.932 3.846 12.045 7.001 17.517 11.563 4.909 4.091 8.665 8.501 14.68 11.07z" fill="#fbe134"/><path d="m431.21 522.098c.615.288 1.341-.179 1.16-.893-2.549-10.098-12.081-18.084-21.614-21.615-.667-.246-1.23.6-.894 1.16 5.046 8.36 12.416 17.156 21.348 21.348z" fill="#fbe134"/><path d="m493.94 393.115c-5.819-4.533-13.818-10.55-21.608-9.97-.463.035-.866.545-.567.991 3.769 5.624 10.797 9.012 16.161 12.951 7.309 5.362 13.119 12.344 20.45 17.702.699.513 1.519-.327 1.354-1.041-2.126-9.242-8.524-14.977-15.79-20.633z" fill="#fbe134"/><path d="m306.32 690.785c-.448.344-.372 1.191.314 1.165 7.368-.288 16.813 2.884 23.05-2.149.327-.264.321-.898 0-1.164-6.682-5.532-17.14-2.635-23.364 2.148z" fill="#fbe134"/><path d="m222.407 779.525c5.167 4.264 12.452 9.178 19.61 12.666 13.595 6.627 28.851 10.471 43.853 12.018 45.893 4.732 91.938-10.02 132.55-30.297 50.222-25.076 95.424-59.788 135.886-98.473 42.41-40.547 80.215-86.178 111.479-135.854 28.135-44.706 51.884-93.488 63.093-145.379 5.148-23.842 10.126-52.232 1.129-75.609-1.049-2.726-2.285-5.324-3.604-7.862 13.076 46.022-4.57 100.071-23.196 142.658-25.128 57.458-62.375 110.254-102.724 157.969-38.548 45.586-82.544 89.842-131.345 124.449-47.682 33.816-105.618 60.967-164.937 62.07-29.751.556-58.884-8.059-82.004-27.041-22.573-18.535-36.418-45.6-45.225-72.938-10.015-31.09-14.376-63.207-14.824-95.534-.043 3.443-.09 6.889-.074 10.313.21 42.209 4.81 74.922 19.346 109.461 9.234 21.94 22.505 42.133 40.987 57.383z" fill="#f3af79"/><path d="m224.804 706.267c-19.852-23.419-29.489-54.722-32.712-85.304-2.66-25.227-1.188-51.475 6.603-75.736 3.395-10.563 8.156-22.559 15.569-31.654 5.757-7.068 4.953-6.369 4.976-15.328.008-3.765.144-7.533.342-11.267 1.761-33.024 10.698-65.065 29.825-92.333 15.138-21.577 36.161-41.641 61.553-50.36 9.161-3.143 8.26-2.713 13.281-9.947 3.116-4.488 6.44-8.839 9.822-13.09 22.397-28.141 50.827-49.2 85.479-59.604 3.36-1.01 6.763-1.893 10.178-2.717-18.825 3.026-37.476 9.386-53.692 17.912-11.657 6.128-22.882 13.979-32.914 22.497-12.302 10.449-22.47 22.661-35.751 32.041-21.008 14.837-44.223 26.319-62.365 44.916-18.833 19.302-28.46 46.213-34.933 71.868-3.45 13.675-5.659 27.693-7.896 41.608-2.465 15.32-8.59 29.972-13.872 44.474-10.094 27.719-13.399 55.236-10.192 84.612 3.591 32.918 19.336 68.34 46.699 87.412z" fill="#fff7cf"/><path d="m636.651 258.732c10.231-1.927 20.656-2.279 30.869-.914 5.152.695 4.128-.232 6.679-6.977.777-2.069 1.6-4.102 2.33-6.081 2.097-5.679 4.317-11.315 6.521-16.954 3.986-10.213 8.292-20.313 12.829-30.292 6.727-14.795 14.339-28.826 23.063-42.274-15.9 15.24-24.766 35.74-34.306 55.447-6.002 12.397-12.513 24.476-24.056 32.545-6.506 4.55-14.428 6.921-22.238 7.802-3.206.359-6.366-.111-9.472-.979 2.837 2.723 5.437 5.616 7.781 8.677z" fill="#865725"/><path d="m756.606 112.434c-1.187-4.262-3.78-8.795-7.214-12.905.093.323.195.64.282.965 3.149 11.784-2.56 22.025-8.477 31.729-6.505 10.661-13.825 20.602-21.229 30.525-6.446 12.249-12.72 24.595-18.521 37.124-.054.115-.101.232-.154.348 6.889-11.755 14.164-23.256 21.538-34.503 7.311-11.146 14.885-22.254 23.486-32.457 5.83-6.911 12.809-11.784 10.289-20.826z" fill="#865725"/><path d="m711.156 92.733c-6.184 8.68-10.925 18.498-15.882 27.9-7.22 13.695-14.382 27.421-21.984 40.91-12.41 22.02-25.987 44.362-42.776 63.628 22.557-13.971 38.185-36.888 50.989-60.146 8.419-15.289 15.816-31.117 24.055-46.503 7.238-13.521 16.566-23.923 28.805-30.746-8.342-3.771-17.182-3.499-23.207 4.957z" fill="#d4ba89"/><g fill="#68182b"><path d=""/><path d="m426.98 382.487c-1.651-1.329-3.441-2.393-5.375-3.265-1.861-.841-3.815-1.563-5.823-1.966-.991-.2-1.995-.348-3.003-.451-1.121-.113-1.984.033-3.063.23-.487.091-.453.839 0 .952.95.239 1.833.5 2.813.661.914.148 1.816.339 2.711.576 1.92.506 3.8 1.106 5.598 1.958 1.715.81 3.369 1.797 4.949 2.851.781.522 1.564 1.041 2.313 1.612.712.541 1.37 1.265 2.226 1.569.253.091.489-.185.424-.426-.232-.859-.944-1.532-1.534-2.17-.698-.755-1.431-1.486-2.236-2.131z"/><path d="m442.066 375.982c-2.814-1.868-5.774-3.447-8.896-4.733-1.577-.65-3.187-1.234-4.819-1.728-1.246-.379-2.991-1.115-4.186-.321-.141.093-.186.257-.107.405.597 1.152 2.131 1.403 3.263 1.822 1.59.589 3.163 1.193 4.702 1.911 2.945 1.374 5.814 2.968 8.512 4.782 2.692 1.813 5.115 3.906 7.52 6.078 2.469 2.23 4.754 4.674 7.218 6.893.336.3.764-.074.595-.458-2.707-6.219-8.279-10.983-13.802-14.651z"/><path d="m477.934 414.881c-7.313-3.867-13.021-4.894-4.289.483 3.133 1.93 21.506 17.497 35.417 36.486 4.686 6.395 5.337 5.961 2.57-1.576-3.537-9.607-19.382-27.821-33.698-35.393z"/><path d="m544.136 287.036c17.495 10.025 30.328 26.934 34.446 35.511 4.098 8.538 7.043 7.313 3.26-1.732-4.854-11.597-14.464-28.345-36.897-35.935-4.711-1.594-5.192-.364-.809 2.156z"/><path d="m282.593 419.201c25.85-.588 32.115 5.367 46.915 14.929 1.181.763 2.677 1.055 1.115-.74-10.297-11.851-17.151-13.913-22.431-15.438-5.133-1.483-10.493-2.29-15.837-2.267-3.071.012-6.528.144-9.787.769-6.701 1.283-6.42 2.897.025 2.747z"/><path d="m299.413 406.866c1.016.185 8.538.457 14.913 3.324 3.972 1.788 4.301.796 1.281-1.588-5.286-4.175-15.065-3.801-16.118-3.84-3.466-.126-3.489 1.483-.076 2.104z"/><path d="m232.563 681.922c-14.033-40.941-17.81-88.123-14.266-118.824 2.277-19.717.844-21.563-3.148-2.751-7.576 35.676-2.993 86.466 15.575 122.082 2.632 5.057 3.648 4.782 1.839-.507z"/><path d="m342.956 636.717c-6.59-1.447-13.452-2.229-20.203-2.066-2.501.059-10.449.58-14.847 1.672-4.131 1.02-4.021 1.997.039 2.154 4.237.17 31.476.651 68.161 15.994 4.862 2.029 2.373-.168.709-1.789-8.871-8.67-22.06-13.369-33.859-15.965z"/><path d="m335.019 523.367c34.915 2.102 54.728 14.518 63.015 19.441 3.272 1.949 3.97.793 1.724-1.801-13.483-15.58-38.675-23.692-64.926-19.797-6.561.974-6.332 1.763.187 2.157z"/><path d="m392.794 523.881c-5.587-2.932-6.519-1.127-1.228 2.148 1.536.949 11.494 7.158 21.966 19.326 2.004 2.328 2.551 1.713 1.234-1.164-4.659-10.181-12.449-15.296-21.972-20.31z"/><path d="m372.26 313.007c23.412-20.492 52.726-32.083 75.712-36.931 13.076-2.756 12.379-4.772-1.188-3.104-22.783 2.801-53.469 14.662-76.031 38.529-4.685 4.95-3.617 5.988 1.507 1.506z"/><path d="m523.182 255.587c17.754-10.89 44.305-9.361 57.801-8.697 5.648.282 5.004-.025.024-2.024-27.759-11.141-51.359 2.927-58.619 8.692-3.727 2.963-3.079 4.401.794 2.029z"/><path d="m657.847 376.299c.441.331.847-.286.674-.675-2.894-6.502-8.776-10.953-14.832-14.417-5.988-3.429-12.955-5.881-19.899-5.983-.884-.015-1.034 1.269-.205 1.518 6.485 1.946 12.742 4.116 18.593 7.586 5.684 3.371 10.402 8.03 15.669 11.971z"/><path d="m538.587 548.084c4.315 3.121 8.269 6.767 11.71 10.831 2.678 3.159 5.126 6.472 7.736 9.667 1.19 1.459 4.891 6.734 2.462-1.014-3.014-9.609-11.349-17.404-19.446-22.953-4.692-3.215-9.8-5.742-15.174-7.596-2.595-.897-5.265-1.664-7.963-2.17-8.177-1.535-8.668.592-.781 2.832 2.414.683 4.797 1.449 7.127 2.388 5.066 2.042 9.906 4.816 14.329 8.015z"/><path d="m542.688 538.434c4.442 1.751 11 7.279 15.408 11.316.298.273.855.012.716-.416-2.144-6.517-9.783-11.2-15.194-12.758-3.865-1.129-4.635.398-.93 1.858z"/><path d="m469.846 623.609c-3.696-1.869-7.671-3.342-11.769-4.008-5.878-.961-6.878-.004-.835 2.275 13.035 4.914 18.418 9.576 26.86 17.924 2.414 2.395 3.286 2.494 1.778-.936-2.985-6.782-9.625-12.01-16.034-15.255z"/><path d="m629.419 516.188c11.343-14.375 20.907-30.078 29.365-46.318 9.947-19.103 18.507-38.981 25.105-59.491 2.999-9.322 6.045-18.906 7.913-28.596 1.685-8.754.27-8.777-2.53-.286-2.627 7.954-4.89 16.048-7.632 23.963-3.511 10.139-7.341 20.197-11.528 30.077-8.294 19.555-18.046 38.385-28.891 56.642-4.57 7.696-9.271 15.308-13.999 22.905-5.043 8.094-3.801 8.705 2.197 1.104z"/><path d="m606.509 547.034c5.682-5.642 9.021-10.583 10.172-12.548 3.655-6.218 1.771-7.637-2.516-1.923-1.413 1.886-7.457 10.304-9.298 13.142-2.843 4.391-2.077 5.022 1.642 1.329z"/><path d="m754.245 474.165c2.804-.265 5.576-.79 8.328-1.368 2.714-.568 13.145-2.425 15.218-3.678 5.271-3.184 1.411-9.039-1.062-12.729-2.571-3.834-5.568-7.403-8.943-10.554-1.859-1.736-3.802-3.39-5.978-4.712-7.857-4.78-9.326-2.654-2.854 3.701 5.075 4.981 9.314 9.563 12.146 13.372 3.653 4.922 1.199 6.543-7.876 8.224-1.969.364-7.477 1.973-11.829 3.499-7.636 2.69-5.283 5.014 2.85 4.245z"/><path d="m348.013 854.557c2.674-3.211 7.129-13.324 9.648-22.822 1.87-7.043.691-8.119-3.141-1.322-1.438 2.551-6.115 12.002-7.521 14.67-2.367 4.498-2.548 5.936-4.868-.033-.566-1.457-2.434-5.768-4.034-9.096-2.997-6.245-5.474-4.988-4.068 1.42.273 1.262 4.451 13.421 6.084 16.273 2.239 3.912 4.6 4.874 7.9.91z"/><path d="m416.563 862.506c6.428 7.076 8.696 3.267 11.712-3.25 3.096-6.707 5.27-14.176 6.08-21.293 1.29-11.434-1.569-4.89-3.721-.636-2.688 5.312-6.26 13.333-6.854 14.7-2.021 4.69-1.922 5.684-5.788 1.736-4.137-4.223-10.69-10.875-11.299-11.359-6.171-4.939-8.108-3.305-4.014 3.209 4.137 6.578 11.911 14.723 13.884 16.893z"/><path d="m483.828 816.474c-.263-8.819-2.501-25.013-5.002-33.964-2.475-8.855-5.605-9.822-4.955.123.422 6.436 2.151 16.301 3.202 23.188 1.249 8.127.87 7.529-3.962 4.301-2.897-1.934-11.909-7.793-17.381-10.49-7.076-3.49-9.005-4.373-2.354 2.688 2.43 2.574 14.64 11.946 20.897 16.248 5.725 3.922 9.763 4.881 9.555-2.094z"/><path d="m527.032 806.148c2.612 1.396 16.147 7.318 20.234 9.033 9.783 4.102 9.986-1.473 9.432-8.852-.546-7.252-2.222-16.93-4.941-27.77-1.359-5.418-5.432-13.469-5.019-.529.255 7.889.909 16.256 1.35 22.248.504 6.893.154 6.783-6.405 4.434-1.411-.507-9.588-3.34-12.332-4.063-9.762-2.577-11.24.72-2.319 5.499z"/><path d="m590.385 754.721c5.121.051 5.916-1.788 4.217-7.846-.645-2.3-1.409-4.592-2.354-6.883-3.176-7.689-7.08-14.711-11-21.863-3.101-5.656-6.457-6.084-3.824 1.109 2.289 6.259 6.954 18.975 8.194 22.743 1.782 5.444 1.105 4.772-3.159 3.698-2.322-.586-4.648-1.154-6.983-1.691-3.102-.711-6.189-1.383-9.326-1.927-10.291-1.783-13.173.311-4.206 4.032 12.518 5.192 26.398 8.604 28.441 8.628z"/><path d="m640.792 653.279c-1.917-1.564-5.677-2.52-1.726 3.304 3.698 5.448 7.601 10.754 10.694 16.589 1.376 2.598.599 3.131-1.818 3.17-7.519.128-14.973-.244-22.365-1.326-4.429-.645-5.182 1.156-.686 2.855 11.431 4.329 21.557 4.492 24.04 4.449 8.045-.143 10.527-2.496 6.829-9.299-3.589-6.599-11.952-17.277-14.968-19.742z"/><path d="m721.813 620.619c1.772 3.412 4.387 7.912 5.243 9.279 1.287 2.057 2.503 4.148 3.667 6.268 1.809 3.301 1.807 3.641-2.053 4.098-1.462.174-6.446.551-10.778.9-13.705 1.119-14.841 4.918-.804 5.604 4.599.225 10.766.291 15.546-.432 8.88-1.346 8.075-4.573 3.923-11.31-2.516-4.081-6.348-9.392-12.461-16.269-2.838-3.192-4.625-2.634-2.283 1.862z"/><path d="m706.48 578.254c4.908-.086 18.786-1.875 20.759-2.426 5.615-1.566 5.825-2.031 3.291-7.241-1.473-3.03-7.285-9.313-12.197-13.522-6.85-5.879-8.306-4.098-2.752 3.192 7.785 10.22 11.193 12.978-9.932 16.386-6.855 1.107-6.143 3.744.831 3.611zm17.238-8.457c.013-.009.011-.031.024-.037.217-.043.165-.022-.024.037z"/><path d="m766.574 534.85c-1.95 1.246-4.494 2.596-7.082 4.117-6.891 4.055-6.234 4.926-1.3 3.733 17.624-4.261 24.297-5.803 14.298-17.173-1.604-1.822-3.235-3.475-3.949-4.201-6.777-6.887-10.484-5.434-6.548-.922 2.354 2.697 3.687 4.748 5.295 6.789 2.655 3.385 3.828 4.746-.714 7.657z"/><path d="m761.883 407.238c5.048-1.884 12.699-4.979 14.839-6.056 1.851-.93 1.367-3.281 0-4.315-2.642-1.997-3.956-3.306-6.829-4.947-5.529-3.159-14.517-6.744-8.341-.775 1.818 1.761 3.961 3.234 5.952 4.795 2.925 2.298 3.098 2.561-.714 4.871-1.871 1.131-4.058 2.497-5.932 3.707-4.025 2.594-3.376 4.361 1.025 2.72z"/><path d="m653.323 725.655c-4.429-9.665-6.37-11.638-5.258-1.321.078.717.952 7.278 1.59 12.129.738 5.582.485 5.242-4.654 3.828-1.619-.447-9.833-2.016-14.975-2.695-15.458-2.053-2.865 2.355-1.022 3.371 1.158.639 15.384 5.542 17.922 6.293 8.757 2.594 10.624-.459 10.328-5.342-.16-2.613-2.847-13.893-3.931-16.263z"/></g></g></g></svg>