<svg id="Fruit" height="512" viewBox="0 0 992.13 992.13" width="512" xmlns="http://www.w3.org/2000/svg"><g><path d="m863.967 356.812c-5.861-6.294-11.398-12.236-16.52-18.428-17.16-20.74-28.695-45.714-36.828-65.154-20.281-48.47-53.506-75.163-93.545-75.163-3.033 0-6.131.159-9.211.47-5.377.543-10.273 1.411-15.008 2.25-5.844 1.035-10.893 1.93-15.67 2.014l-.479.009c-11.479.201-23.348.409-37.006 4.757-21.057 6.706-37.633 23.176-46.383 33.469 2.143-2.758 4.309-5.535 6.5-8.345 4.023-5.159 8.049-10.319 12.041-15.526l.469-.61c9.369-12.216 26.811-34.952 15.643-61.129-6.004-14.071-18.523-22.472-33.49-22.472-10.361 0-21.279 4.28-29.961 11.749-5.275 4.542-10.637 9.616-16.203 15.347-9.791-3.788-19.74-10.704-30.113-17.911-8.968-6.235-18.243-12.68-28.464-17.908-23.467-12.002-50.748-20.337-83.398-25.478-15.107-2.38-30.504-3.587-45.76-3.587-44.383 0-88.531 10.284-127.668 29.739-70.149 34.871-106.615 97.51-141.88 158.087l-9.485 16.25c-8.012 13.709-15.579 26.662-24.613 37.909l-.521.646c-4.974 6.173-13.298 16.503-10.712 33.634 3.297 21.838 21.563 30.897 39.4 34.657-17.929 34.867-28.923 71.543-32.16 107.799-3.503 39.222 2.939 81.381 17.673 115.669 8.078 18.796 18.139 34.891 30.758 49.21 10.505 11.915 22.568 19.257 33.384 25.636-1.563 14.324-2.458 30.068 1.644 46.676 4.559 18.435 19.646 31.836 37.546 33.348 1.396.117 2.777.172 4.139.172 7.533 0 15.029-1.725 22.857-5.268 4.791-1.561 9.191-3.418 12.912-5.027 17.156 11.164 37.35 17.389 57.219 17.389 3.002 0 5.982-.143 8.93-.424 35.936 49.693 95.736 85.631 166.781 99.662 20.574 4.063 41.781 6.039 64.832 6.039h.01c28.345 0 58.272-2.959 94.177-9.313 4.412-.78 8.816-1.58 13.221-2.381 19.504-3.542 37.926-6.887 56.652-8.559 5.941-.531 11.947-.842 18.303-1.17 16.219-.84 32.988-1.705 50.311-6.383 23.352-6.309 49.701-30.038 58.383-57.708 62.918-28.503 107.67-78.56 129.842-145.479 28.113-84.852 14.459-187.769-35.633-268.591-9.695-15.643-21.5-28.318-32.916-40.573z" fill="#fff"/><g><path d="m876.582 409.966c-13.104-21.14-31.805-37.345-47.537-56.358-17.521-21.179-29.912-45.952-40.457-71.158-13.721-32.788-38.605-64.171-78.322-60.151-11.049 1.117-21.428 4.184-32.66 4.381-10.904.191-20.18.307-30.658 3.644-15.057 4.794-29.227 17.916-38.67 30.177-9.014 11.706-17.176 23.89-26.043 35.622-1.518-10.673-6.318-19.886-14.254-28.397-4.369-4.686-10.871-7.876-16.775-10.071 13.166-18.926 27.668-36.717 41.697-55.015 7.697-10.044 18.91-24.223 13.102-37.84-4.949-11.6-17.803-8.966-25.904-1.995-8.396 7.226-16.256 15.291-23.818 23.735-29.32-3.382-51.89-27.989-77.419-41.047-23.641-12.093-50.135-19.039-76.238-23.148-54.18-8.534-109.959-.472-159.082 23.946-68.225 33.915-102.208 98.149-139.124 161.149-8.916 15.218-17.79 30.879-28.864 44.667-4.259 5.301-7.303 8.701-6.237 15.759 2.569 17.019 37.031 17.422 56.143 16.871-26.629 39.466-44.601 85.014-48.732 131.273-3.061 34.272 2.224 72.458 15.826 104.114 6.784 15.785 15.37 29.955 26.732 42.846 11.688 13.26 26.636 19.609 41.007 29.014-.281 2.328-.575 4.65-.855 6.959-1.882 15.579-3.667 30.963.146 46.402 1.93 7.807 8.086 14.58 16.37 15.279 5.943.502 11.242-1.154 16.303-3.6 5.748-1.746 11.311-4.326 15.92-6.286 3.014-1.282 6.021-2.569 9.039-3.819.109.11.225.222.348.328 19.543 17.059 48.369 25.498 73.533 17.54 33.252 55.235 95.342 89.878 160.313 102.71 49.77 9.83 100.706 5.403 150.231-3.361 23.926-4.233 47.672-9.047 71.908-11.211 21.6-1.93 43.4-1.121 64.51-6.82 19.313-5.217 42.66-29.842 43.639-51.697 156.036-61.619 175.499-254.37 94.882-384.442zm-356.506-180.477c-.41-.682-.822-1.374-1.238-2.08-.738-1.248-1.518-2.439-2.326-3.579 3.516-1.322 7.029-2.215 10.68-2.769-2.368 2.841-4.737 5.655-7.116 8.428z" fill="#68182b"/><path d="m710.855 660.757c5.895 1.418 11.609 6.712 13.85 12.305 1.32 3.293 1.762 7.57-2.174 9.059-8.746 3.309-13.514-4.033-15.439-11.476-.803-3.779-2.153-11.312 3.763-9.888z" fill="#fbf199"/><path d="m757.527 536.155c3.061-4.805 9.133-8.596 14.793-9.26 3.615-.424 7.699.334 8.07 4.586.799 9.127-7.203 11.9-14.844 11.92-2.924-.117-5.77-.469-8.371-1.89-2.413-1.323-.761-3.608.352-5.356z" fill="#fbf199"/><path d="m737.379 435.278c2.662-2.432 7.463-4.587 10.084-1.022 5.656 7.697-.545 14.318-7.332 18.015-2.641 1.29-10.035 4.69-10.432-.396-.486-6.188 3.281-12.582 7.68-16.597z" fill="#fbf199"/><path d="m776.949 619.804c-.758 3.188-4.693 5.8-7.594 6.563-3.895 1.025-8.834-2.085-11.719-4.316-2.229-1.873-6.965-5.613-6.078-9.022.334-1.29 3.246-1.882 4.258-2.177 3.67-1.061 7.637-1.04 11.342-.232 3.981.867 11.008 4.053 9.791 9.184z" fill="#fbf199"/><path d="m799.199 576.081c1.363-2.438 5.557-3.495 7.955-4.25 2.947-.93 6.201-1.135 9.252-.65 4.389.697 9.898 3.061 8.361 8.311-2.543 8.666-11.855 7.61-18.232 4.52-2.33-1.234-9.045-4.874-7.336-7.931z" fill="#fbf199"/><path d="m439.833 723.809c-1.688 5.89-7.373 11.155-13.039 13.147-3.539 1.245-7.469 1.188-8.795-2.834-2.934-8.898 5.047-13.199 12.4-14.771 4.122-.694 11.123-1.438 9.434 4.458z" fill="#fbf199"/><path d="m573.127 562.04c1.781-9.133 11.148-9.213 18.051-6.217 2.121 1.011 9.434 4.612 7.961 7.529-2.533 5.004-12.41 6.469-17.355 5.792-3.602-.493-9.573-2.411-8.657-7.104z" fill="#fbf199"/><path d="m409.413 629.792c-2.969 4.832-8.945 8.818-14.596 9.574-3.539.474-7.789-.129-8.229-4.369-.945-9.1 6.861-12.098 14.557-12.246 2.916.07 5.797.335 8.414 1.711 2.481 1.305 1.018 3.434-.146 5.33z" fill="#fbf199"/><path d="m506.64 765.007c-.697 4.525-3.643 12.096-9.416 10.412-3.133-.912-6.078-4.918-6.383-8.021-.418-4.244 2.053-8.35 4.326-11.7 1.543-2.085 5.055-6.528 8.023-5.784 4.057 1.013 3.887 12.269 3.45 15.093z" fill="#fbf199"/><path d="m618.617 629.608c1.695-1.564 7.016-6.518 9.504-4.154 3.578 3.394 1.361 12.93-.344 16.743-1.379 3.087-5.387 9.25-9.641 7.393-9.575-4.178-4.73-14.726.481-19.982z" fill="#fbf199"/><path d="m467.13 676.569c-3.027 2.148-7.496 4.052-10.453.956-1.816-1.903-2.17-6.175-1.721-8.551.867-4.598 6.436-7.387 10.328-8.866 2.605-.859 10.727-3.662 10.922 1.115.232 5.71-4.627 12.19-9.076 15.346z" fill="#fbf199"/><path d="m644.49 379.36c9.174-.433 11.377 8.032 11.098 15.518-.428 5.323-1.912 12.067-7.889 7.244-4.557-3.68-7.875-9.209-8.324-15.098-.295-3.828.852-7.462 5.115-7.664z" fill="#fbf199"/><path d="m567.479 749.015c-8.584 2.001-12.031-6.084-13.168-12.978-.385-4.392-.814-12.474 5.525-9.507 5.658 2.645 10.002 7.904 11.697 13.852 1.168 4.093.289 7.621-4.054 8.633z" fill="#fbf199"/><g fill="#ff7cc4"><path d="m712.029 739.793c-41.482-19.938-81.859-42.153-121.914-64.796-75.323-42.576-148.872-88.461-224.899-129.762-13.236-7.254-38.311-27.368-52.305-12.137-4.334 4.719-8.174 10.029-11.576 15.733.033.558-.025 1.154-.193 1.786-17.035 63.775-15.648 133.938 23.506 189.712 30.248 43.089 77.271 75.376 129.361 85.17 33.902 6.374 68.896 7.401 103.278 5.12 28.611-1.898 56.613-8.084 85.172-10.158 25.256-1.834 64.939 6.381 86.002-9.426 13.193-9.9 22.006-26.404 36.678-34.129-13.246-17.574-33.629-27.75-53.11-37.113zm-336.005-105.899c.566-14.288 11.098-21.197 24.492-21.658.203-.014.414-.022.629-.016.23-.005.453.004.668.023 10.551.479 23.621 6.41 18.566 19.213-4 10.135-15.668 18.146-26.549 18.524-9.507.332-18.21-5.843-17.806-16.086zm74.737 88.863c-.873 10.765-11.045 21.352-21.168 24.355-9.195 2.727-20.242-.65-22.021-11.301-2.361-14.15 6.061-23.396 19.4-26.478.199-.056.406-.103.627-.14.227-.05.445-.082.664-.105 9.873-1.466 23.554.713 22.498 13.669zm18.828-35.449c-8.904 3.982-19.137 2.77-23.328-7.108-5.957-14.043 2.893-24.94 15.619-30.013.191-.086.391-.164.602-.234.23-.089.455-.156.676-.213 9.156-2.77 23.027-2.087 23.535 10.389.431 10.594-7.391 22.837-17.104 27.179zm46.202 84.361c-3.696 9.826-14.034 19.465-24.858 12.315-5.336-3.523-9.838-8.579-10.484-15.17-.637-6.481 1.789-12.63 5.311-17.957.094-.158.199-.317.316-.476.117-.172.238-.333.363-.484 4.775-6.266 13.867-14.498 22.135-9.022 9.112 6.033 10.815 21.224 7.217 30.794zm53.375-12.328c-14.285 2.194-23.367-8.203-25.166-21.533-.025-.185-.039-.365-.047-.545-.066-.271-.113-.557-.141-.855-.887-9.842 3.479-24.348 16.387-20.88 10.131 2.724 19.814 12.544 21.723 23.052 1.758 9.673-2.186 19.138-12.756 20.761zm68.807 11.933c-14.285 2.195-23.365-8.203-25.166-21.531-.025-.186-.039-.367-.047-.546-.066-.271-.113-.558-.141-.855-.887-9.843 3.479-24.349 16.387-20.88 10.133 2.723 19.814 12.543 21.723 23.052 1.759 9.674-2.184 19.137-12.756 20.76z"/><path d="m849.201 456.699c-28.877-47.272-65.861-89.227-87.004-140.936-6.842-16.735-17.176-36.542-33.951-45.409-16.051-8.487-29.404-2.439-45.637 1.774-11.313 2.938-21.719-.707-32.785-2.402-19.756-3.025-35.053.885-47.541 17.011-5.125 7.387-10.283 14.753-16.049 21.673-32.109 38.534-68.961 70.859-95.14 114.43-29.518 49.124-48.684 104.905-34.268 162.155 78.942 46.035 156.882 93.863 238.608 134.926 19.377 9.735 49.061 20.586 68.115 37.988 110.26-53.993 148.695-198 85.652-301.21zm-268.939-4.503c9.719-11.971 24.066-9.042 34.156.424.158.136.314.282.467.444.164.16.314.323.449.487 5.398 5.949 11.754 17.166 3.887 23.865-8.359 7.121-23.135 5.94-31.998.218-8.694-5.613-14.422-16.249-6.961-25.438zm-23.155 59.149c-7.381 8.262-22.979 7.637-32.076 2.996-9.859-5.029-15.632-16.13-7.986-25.796 9.307-11.766 22.746-9.447 33.418-1.214.158.111.314.232.469.366.174.136.332.278.477.42 6.275 5.626 12.532 15.575 5.698 23.228zm19.934 67.566c-10.473-2.814-17.691-12.004-12.938-22.816 5.984-13.604 19.619-14.733 31.932-9.563.152.061.307.121.457.195.189.082.369.172.535.264 7.553 3.813 17.666 13.372 10.791 22.328-6.73 8.77-20.213 12.428-30.777 9.592zm58.002 71.811c-5.879 8.225-16.363 13.465-25.189 5.93-11.635-9.934-8.707-24.039.867-34.028.139-.156.287-.311.451-.46.16-.161.322-.307.486-.443 6.549-5.838 17.496-11.412 24.467-3.048 6.887 8.264 4.826 23.781-1.082 32.049zm31.076-255.844c-.008.23-.031.45-.063.666-1.057 10.402-7.475 23.645-20.115 17.81-9.754-4.503-17.363-16.486-17.127-27.318.205-9.363 6.475-18.169 16.779-17.176 14.172 1.363 20.84 11.836 20.543 25.387.005.203.001.412-.017.631zm107.188 121.418c9.471-.174 18.205 6.026 17.629 16.293-.795 14.258-11.316 21.098-24.76 21.338-.203.013-.412.016-.629.007-.23 0-.451-.013-.668-.035-10.479-.646-23.623-6.699-18.357-19.433 4.156-10.045 15.874-17.971 26.785-18.17zm-41.43-90.017c7.703-5.756 19.107-6.461 24.68 2.661 7.85 12.848 1.518 25.262-10.535 32.107-.18.111-.371.218-.574.318-.209.113-.416.21-.621.294-8.146 3.772-21.574 6.167-24.898-5.14-3.167-10.777 3.329-23.802 11.948-30.24zm-7.645 266.316c-14.08 2.977-23.521-5.451-27.133-18.529-.063-.195-.121-.403-.166-.619-.057-.225-.1-.444-.131-.66-1.914-9.973.035-23.351 12.979-22.854 10.838.416 21.668 10.408 25.08 20.328 3.159 9.185-.125 20.112-10.629 22.334zm59.942-64.41c-9.092 12.07-22.742 9.766-33.508 1.673-.16-.11-.32-.23-.477-.362-.172-.133-.33-.271-.479-.411-6.381-5.576-12.645-15.415-5.898-23.157 7.121-8.174 22.135-7.752 31.197-3.689 10.337 4.632 16.766 15.851 9.165 25.946zm49.844-43.659c-6.344 13.529-20.105 14.537-32.342 8.793-.152-.065-.305-.137-.457-.217-.168-.083-.326-.17-.477-.26-7.256-4.012-16.777-13.225-10.637-22.077 6.34-9.14 20.814-12.347 31.137-9.281 10.256 3.044 17.832 12.255 12.776 23.042z"/></g><path d="m636.285 760.948c-8.584 2.002-12.031-6.084-13.166-12.977-.385-4.392-.816-12.474 5.523-9.508 5.66 2.646 10.002 7.905 11.699 13.852 1.167 4.094.288 7.622-4.056 8.633z" fill="#fbf199"/><path d="m587.881 459.561c4.615-8.8 14.391-4.064 19.557.95 1.537 1.627 6.648 6.971 4.336 9.46-3.441 3.707-13.105 1.516-16.998-.22-3.612-1.615-9.292-5.624-6.895-10.19z" fill="#fbf199"/><path d="m524.195 496.794c.797-2.839 4.877-5.81 7.646-6.174 4.193-.551 8.508 2.034 11.645 4.523 2.23 1.924 6.84 5.67 5.898 9.113-.334 1.219-3.422 1.826-4.33 2.076-3.602.992-7.504.92-11.119.115-4.242-.944-11.242-4.294-9.74-9.653z" fill="#fbf199"/><path d="m562.299 197.176c7.018-7.986 14.004-16.02 21.422-23.634 11.682-11.99 15.387-1.932 10.359 9.122-5.146 11.315-15.52 21.286-23.188 30.931-10.252 12.897-20.092 26.08-29.422 39.654-6.648-3.83-11.252-8.604-15.473-14.533 12.122-13.828 24.163-27.726 36.302-41.54z" fill="#aa8053"/><path d="m484.763 160.836c6.551 3.698 12.949 7.722 19.189 12.052 14.729 10.217 27.636 19.234 44.269 22.894-3.953 4.637-7.848 9.335-11.721 14.026-9.906.138-18.639 1.848-27.466 5.76-5.762-5.011-12.5-8.367-19.742-10.388-2.068-2.238-3.887-4.78-5.414-7.971-3.795-7.938-5.561-16.854-8.24-25.195-4.897-15.255-2.68-17.834 9.125-11.178z" fill="#b1d045"/><path d="m376.81 130.146c17.943 1.188 35.77 4.114 53.072 8.532 20.234 5.167 34.018 13.24 37.529 22.486 3.271 8.608 4.818 17.867 7.246 26.73 3.273 11.948 4.469 14.581-6.576 14.855-10.398.261-20.916 2.375-30.426 5.578-2.301.074-4.576.16-6.588-.15-7.516-1.158-14.426-4.572-20.354-9.254-10.58-8.359-17.598-20.718-24.512-32.052-4.537-7.439-9.762-16.066-16.004-23.665-8.03-9.785-10.034-14.166 6.613-13.06z" fill="#b1d045"/><path d="m249.696 155.327c11.289-5.79 23.131-10.712 35.494-14.68 38.064-12.219 68.33-10.512 81.357 5.368 8.756 10.672 14.854 23.39 22.121 35.059 6.418 10.302 14.127 19.889 24.451 26.469 2.711 1.729 7.395 3.902 12.555 5.54-2.969 1.339-5.9 2.769-8.811 4.262-16.092-2.575-31.98-4.102-47.695-4.466-15.063-2.694-29.744-5.35-43.289-13.553-10.379-6.286-17.719-16.04-27.658-22.854-12.777-8.758-28.504-12.37-43.936-12.512-11.468-.098-20.692-.365-4.589-8.633z" fill="#b1d045"/><path d="m281.671 246.337c23.666-26.049 68.779-29.494 108.867-25.96 17.066 1.507 14.67 3.312 2.748 10.046-4.854 2.739-9.721 5.426-14.654 7.909-23.479 11.811-49.195 18.905-74.377 26.045-17.447 4.946-35.055 10.066-52.107 16.443 11.164-10.015 19.31-23.24 29.523-34.483z" fill="#b1d045"/><path d="m229.462 290.323c-14.035 6.615-27.436 14.512-39.75 24.375-9.377 7.51-18.405 15.68-26.989 24.413 2.53-6.962 4.048-14.443 5.55-20.729 6.978-29.256 19.121-39.364 37.73-52.032 8.689-5.918 17.768-11.338 27.375-16.118 16.367-8.148 32.811-14.634 49.418-19.527 18.74-5.521 11.918-1.577 2.857 5.531-.529.412-1.053.829-1.568 1.255-9.055 7.438-14.926 17.568-22.051 26.695-12.715 16.289-20.017 20.217-32.572 26.137z" fill="#b1d045"/><path d="m152.414 246.076c58.316-93.871 124.742-84.565 153.279-56.206 7.146 7.103 15.324 13.047 24.182 17.523 11.793 5.963 8.305 6.076-3.582 7.52-27.086 3.287-53.715 10.486-80.043 22.233-1.857.829-3.697 1.673-5.527 2.532-10.684 4.315-21.225 8.053-32.9 10.351-15.811 3.11-32.021 3.604-47.772 7.152-11.562 2.607-15.281 1.202-7.637-11.105z" fill="#b1d045"/><path d="m94.099 344.336c10.029-14.863 19.229-30.323 28.188-45.932 13.132-22.862 25.993-35.563 59.735-39.888 4.721-.604 9.555-1.162 14.414-1.802 15.748-2.071 9.662 1.835-1.139 9.531-9.512 6.776-18.678 14.148-27.59 22.144-23.281 20.891-44.367 48.942-71.963 64.938-12.319 7.14-7.982.4-1.645-8.991z" fill="#b1d045"/><path d="m116.68 373.903c-7.695-.23-15.361-.891-22.888-2.473-5.987-1.255-12.354-3.349.619-10.278 21.099-11.262 37.515-29.343 54.698-46.3 3.839-3.787 7.695-7.531 11.589-11.215 9.882-9.351 8.993-6.895 6.831-.262-2.729 8.378-3.646 17.185-5.794 25.702-2.547 10.104-10.906 22.032-18.286 31.599-8.97 11.639-14.265 13.594-26.769 13.227z" fill="#b1d045"/><path d="m228.403 742.574c3.063-1.089 6.16-2.084 9.314-2.946 8.73-2.383 16.57-.925 25.346-.875.805.004 1.23-.862.881-1.535-6.75-13.012-28.455-5.167-38.479-1.621-8.443 2.986-16.59 6.813-24.84 10.283-7.709 3.244-17.848 7.876-26.117 4.172-13.701-6.139-7.244-37.929-6.321-49.055 1.145-13.809 5.807-42.542-8.729-51.555-.567-.353-1.06.316-.833.832.455 1.035.866 2.078 1.244 3.127.73 6.599 1.896 13.078 1.874 19.777-.008 2.352-.108 4.709-.27 7.068-12.288-7.68-24.138-13.782-34.739-24.723-12.115-12.504-20.327-28.666-26.611-44.713-11.695-29.862-14.594-63.02-12.861-94.802 3.871-71.021 49.697-141.387 101.807-187.224 58.131-51.134 141.316-52.436 207.738-88.025 32.717-17.529 83.785-49.223 112.936-8.036 8.212 11.601 12.022 22.12 24.747 29.665 8.582 5.089 18 6.227 26.043 12.78 5.395 4.394 8.611 10.383 10.266 16.846 3.898 15.226 1.518 16.878-6.816 25.942-14.129 15.359-29.346 29.672-42.879 45.647-49.724 58.716-91.601 135.572-76.64 214.201-24.479-14.188-49.076-28.162-73.934-41.668-29.17-15.98-53.09-30.935-74.947 2.44-29.908 45.659-35.086 107.668-27.758 160.205 2.877 20.633 9.094 39.492 17.971 56.549-19.574 5.09-41.379-.499-57.393-12.756z" fill="#b1d045"/><path d="m743.572 832.729c-18.293 10.172-44.129 8.244-64.26 9.257-23.217 1.171-46.23 5.694-69.035 9.906-55.596 10.267-111.153 15.313-166.948 3.192-48.057-10.439-93.445-34.297-126.266-71.224-41.645-46.851-48.309-115.161-36.895-174.497.289-1.504.594-3.023.912-4.555-3.336 44.089 3.953 87.908 26.414 128.027 25.281 45.156 69.055 78.312 117.232 95.67 60.768 21.896 130.499 14.703 192.937 5.278 32.412-4.894 65.848-.084 97.859-5.494 25.646-4.334 33.709-32.796 54.607-42.286 3.982 16.185-14.074 39.787-26.557 46.726z" fill="#b1d045"/><path d="m913.451 552.126c5.807 82.738-25.164 167.336-96.709 213.36-11.42 7.345-23.775 13.169-36.373 18.184-1.77-6.558-5.01-12.446-9.283-17.782 51.543-26.109 88.43-74.369 108.133-127.992 24.154-65.737 11.365-133.652-24.344-192.11-18.555-30.375-40.865-58.29-59.814-88.424-18.398-29.263-26.104-64.893-51.867-89.039-26.928-25.237-52.018-1.708-82.926-7.136-14.637-2.571-27.381-3.363-38.791-.163 5.473-6 11.844-10.961 18.676-15.402 15.682-10.194 32.043-7.545 49.492-9.042 10.654-.913 20.646-4.256 31.465-4.323 18.033-.113 36.471 16.274 46.436 30.029 9.49 13.103 13.986 30.938 20.783 45.553 22.832 49.105 66.545 81.349 91.322 128.855 18.853 36.146 30.947 74.794 33.8 115.432z" fill="#b1d045"/><path d="m160.049 257.182c15.75-3.549 31.961-4.042 47.772-7.152 11.676-2.298 22.217-6.035 32.9-10.351 1.83-.859 3.67-1.703 5.527-2.532 26.328-11.747 52.957-18.946 80.043-22.233 11.887-1.443 15.375-1.557 3.582-7.52-8.857-4.477-17.035-10.421-24.182-17.523-.611-.611-1.268-1.199-1.916-1.792-2.771 10.778-15.279 19.167-23.973 24.449-14.936 9.075-31.979 16.468-48.525 21.949-14.379 4.765-29.703 6.332-44.451 9.601-12.412 2.75-22.327 8.801-33.11 14.147 1.732-.12 3.836-.48 6.333-1.043z" fill="#abab38"/><path d="m254.675 253.09c-12.164 8.688-21.557 20.74-32.953 30.347-11.57 9.754-25.705 15.302-37.006 25.675-7.973 7.316-14.626 16.474-18.568 26.617 7.554-7.457 15.419-14.506 23.564-21.03 12.314-9.863 25.715-17.76 39.75-24.375 12.555-5.92 19.857-9.849 32.572-26.138 7.125-9.127 12.996-19.257 22.051-26.695.516-.426 1.039-.843 1.568-1.255 1.795-1.409 3.49-2.684 4.928-3.795-12.793 3.798-25.728 13.38-35.906 20.649z" fill="#abab38"/><path d="m443.329 855.085c55.795 12.121 111.353 7.074 166.948-3.192 22.805-4.212 45.818-8.735 69.035-9.906 20.131-1.013 45.967.915 64.26-9.257 1.473-.818 3.025-1.884 4.605-3.126-7.975 3.315-16.65 5.056-25.145 6.067-22.727 2.714-45.652.133-68.434 3.08-25.85 3.347-51.082 8.51-77.152 10.361-25.254 1.791-50.555 3.091-75.88 2.287-50.674-1.613-99.609-14.902-141.949-43.254-20.207-13.531-37.371-30.518-52.287-49.619-8.242-10.557-16.574-21.768-22.914-33.827 6.688 21.62 17.268 41.86 32.646 59.162 32.822 36.927 78.21 60.785 126.267 71.224z" fill="#abab38"/><path d="m390.538 220.377c-.754-.066-1.521-.113-2.279-.173-6.611 5.872-15.023 9.694-23.021 13.337-13.963 6.36-27.992 12.297-42.504 17.301-13.438 4.633-27.578 7.236-40.867 12.146-7.828 2.892-15.303 8.746-21.707 14.993 14.531-5.076 29.363-9.427 44.096-13.604 25.182-7.14 50.898-14.234 74.377-26.045 4.934-2.483 9.801-5.17 14.654-7.909 11.921-6.735 14.317-8.539-2.749-10.046z" fill="#abab38"/><path d="m410.714 198.925c5.928 4.682 12.838 8.096 20.354 9.254 2.012.311 4.287.225 6.588.15 9.51-3.203 20.027-5.317 30.426-5.578 11.045-.274 9.85-2.907 6.576-14.855-.393-1.432-.738-2.882-1.094-4.33-9.695 9.028-22.814 12.212-35.986 13.052-14.584.927-25.939-4.231-35.451-15.142-12.092-13.859-19.115-34.772-36.045-43.698 1.037 1.576 2.434 3.378 4.117 5.431 6.242 7.599 11.467 16.226 16.004 23.665 6.913 11.333 13.931 23.691 24.511 32.051z" fill="#abab38"/><path d="m103.306 372.938c4.435.521 8.898.831 13.374.965 12.504.366 17.799-1.588 26.77-13.227 7.38-9.566 15.739-21.495 18.286-31.599 1.335-5.295 2.226-10.692 3.341-16.036-7.013 15.549-16.129 30.137-28.699 41.854-9.656 9.005-20.977 14.398-33.072 18.043z" fill="#abab38"/><path d="m570.799 292.016c-.33-1.291-.771-2.544-1.232-3.789-8.213 17.466-25.029 32.868-37.377 45.035-20.888 20.58-44.229 38.435-62.987 61.139-15.268 18.478-23.566 40.995-36.064 61.207-6.9 11.165-15.66 20.68-26.848 27.614-14.59 9.04-32.068 10.427-48.766 11.083-26.449 1.043-49.748 2.878-70.422 21.146-18.59 16.429-27.934 41.016-37.375 63.258-22.342 52.627-89.604 67.721-133.51 32.306-10.406-8.394-18.56-18.856-24.829-30.511 2.09 10.34 4.899 20.512 8.735 30.309 6.284 16.047 14.496 32.209 26.611 44.713 10.602 10.94 22.451 17.043 34.739 24.723.161-2.359.262-4.717.27-7.068.022-6.699-1.144-13.179-1.874-19.777-.378-1.049-.789-2.092-1.244-3.127-.227-.516.193-1.023.833-.832 11.805 3.51 18.384 19.48 17.072 42.477-.598 10.408-2.195 18.694-3.568 25.475-2.367 11.729-.643 20.105 3.26 25.328 6.766 9.055 19.219 5.34 24.404 3.158 8.25-3.471 16.396-7.297 24.84-10.283 10.023-3.546 31.729-11.391 38.479 1.621.35.673-.076 1.539-.881 1.535-8.775-.05-16.615-1.508-25.346.875-3.154.862-6.252 1.857-9.314 2.946 16.014 12.257 37.818 17.846 57.393 12.759-8.877-17.057-15.094-35.916-17.971-56.549-7.328-52.537-2.15-114.546 27.758-160.205 21.857-33.375 45.777-18.421 74.947-2.44 24.857 13.506 49.455 27.479 73.934 41.668-14.961-78.629 26.916-155.485 76.64-214.201 13.533-15.976 28.75-30.288 42.879-45.647 8.331-9.068 10.712-10.721 6.814-25.946z" fill="#abab38"/><path d="m369.169 212.879c15.715.364 31.604 1.891 47.695 4.466 2.91-1.493 5.842-2.923 8.811-4.262-5.16-1.638-9.844-3.812-12.555-5.54-3.928-2.503-7.471-5.444-10.715-8.69-2.043 1.207-3.883 2.328-4.707 2.651-7.195 2.824-15.127 3.4-22.775 3.306-17.932-.223-34.346-7.521-48.162-18.481-10.395-8.244-20.096-16.765-32.516-21.867-12.742-5.237-27.873-4.19-41.119-.513.387.004.768.008 1.16.013 15.432.142 31.158 3.754 43.936 12.512 9.939 6.813 17.279 16.567 27.658 22.854 13.545 8.201 28.226 10.857 43.289 13.551z" fill="#abab38"/><path d="m913.451 552.126c-2.854-40.638-14.947-79.286-33.801-115.433-22.381-42.914-60.166-73.414-84.102-115.099 4.328 11.029 10.445 21.495 16.76 31.223 13.629 20.995 30.102 40.127 44.369 60.698 31.264 45.07 49.547 97.058 50.223 152.126.992 80.955-44.748 172.504-125.102 194.34-3.502 2.068-7.061 4.057-10.713 5.906 4.273 5.336 7.514 11.225 9.283 17.782 12.598-5.015 24.953-10.839 36.373-18.184 71.546-46.023 102.517-130.621 96.71-213.359z" fill="#abab38"/><path d="m476.419 174.648c2.262 7.565 4.059 15.448 7.459 22.561 1.527 3.19 3.346 5.732 5.414 7.971 7.242 2.021 13.98 5.377 19.742 10.388 8.827-3.912 17.56-5.622 27.466-5.76 2.008-2.431 4.051-4.842 6.072-7.267-9.396.769-18.805.348-28.425-2.164-14.845-3.882-28.451-13.426-37.728-25.729z" fill="#abab38"/><path d="m113.669 331.244c-5.688 7.426-10.729 15.166-17.108 21.581 27.191-16.07 48.098-43.753 71.146-64.436 8.913-7.995 18.079-15.367 27.59-22.144 2.037-1.452 3.904-2.769 5.492-3.937-24.023 7.302-45.509 20.562-62.742 38.938-8.809 9.398-16.555 19.783-24.378 29.998z" fill="#abab38"/><path d="m232.761 185.183c-11.584 3.494-25.959 11.437-35.521 21.577-10.318 10.944-5.418 10.254 3.691 6.861 12.551-4.673 26.004-4.755 39.752-5.43 10.951-.537 34.551 1.709 32.158-15.843-2.145-15.733-31.209-9.844-40.08-7.165z" fill="#d7e338"/><path d="m327.218 149.531c3.883 2.683 7.438 5.693 10.441 9.828 3.721 5.128 6.273 11.064 9.186 16.661 3.025 5.817 15.088 17.496 21.713 9.347 8.627-10.613.803-22.224-7.537-30.405-8.111-7.959-19.781-13-31.299-13.232-16.004-.328-10.776 2.081-2.504 7.801z" fill="#d7e338"/><path d="m459.997 169.965c-1.002-6.556-7.646-11.858-12.711-15.263-7.713-5.184-17.092-8.252-26.539-9.367-9.279-1.097-14.113-1.08-2.592 8.002 7.537 5.938 13.98 12.889 20.297 20.551 4.434 5.377 11.838 14.98 19.236 9.105 3.477-2.76 2.875-9.321 2.309-13.028z" fill="#d7e338"/><path d="m326.048 232.757c-7.721 4.417-15.588 7.981-23.549 11.573-12.377 5.591-8.305 5.761-.15 5.251 9.883-.623 20.17-3.62 28.857-7.108 2.982-1.199 17.627-6.892 14.146-12.832-3.835-6.549-15.32.838-19.304 3.116z" fill="#d7e338"/><path d="m224.819 260.352c-4.611 1.966-8.883 4.848-12.742 7.958-2.729 2.201-11.783 11.698-7.77 15.81 3.598 3.685 8.932-2.194 11.008-4.935 3.879-5.124 7.035-10.449 11.262-14.987 8.414-9.024 2.41-5.624-1.758-3.846z" fill="#d7e338"/><path d="m205.263 421.78c-21.107-24.751-71.345-.547-71.07 65.193.177 42.498 20.924 46.147 40.515 34.721 30.975-18.07 58.063-67.669 30.555-99.914z" fill="#d7e338"/><path d="m438.497 246.27c-59.498 44.87-106.02 57.054-161.525 77.656-76.658 28.455-81.309 62.156-71.121 79.674 12.207 20.984 43.264 16.256 62.998 5.685 18.766-10.052 33.893-31.249 49.475-50.471 22.406-27.649 41.098-31.539 88.27-45.366 11.916-3.493 24.951-8.398 38.605-15.845 11.881-6.481 21.965-15.6 27.439-26.195 14.633-28.345-10.987-42.598-34.141-25.138z" fill="#d7e338"/><path d="m252.542 427.828c-26.807-5.349-35.713 22.523-11.932 34.114 10.396 5.072 24.789-5.688 27.299-15.793 2.401-9.671-7.021-16.657-15.367-18.321z" fill="#d7e338"/><path d="m804.295 572.744c-2.045.716-4.191 1.72-5.096 3.337-1.709 3.057 5.006 6.697 7.336 7.93 6.377 3.091 15.689 4.146 18.232-4.52.158-.541.199-1.033.215-1.514-2.025 1.697-4.717 2.828-7.955 3.092-5.377.436-11.173-3.668-12.732-8.325z" fill="#f3af79"/><path d="m720.234 676.834c-4.594 2.681-10.371-1.934-12.938-5.464 2.045 7.184 6.773 13.951 15.234 10.75 3.936-1.488 3.494-5.766 2.174-9.059-.088-.223-.217-.438-.316-.658-1.005 1.833-2.38 3.397-4.154 4.431z" fill="#f3af79"/><path d="m402.39 630.585c-2.771 2.019-6.414 3-9.811 2.49-1.629-.246-3.867-1.093-5.607-2.396-.354 1.271-.555 2.661-.383 4.318.439 4.24 4.689 4.843 8.229 4.369 5.65-.756 11.627-4.742 14.596-9.574 1.164-1.896 2.627-4.025.146-5.33-.318-.166-.648-.27-.971-.404-1.707 2.521-3.793 4.779-6.199 6.527z" fill="#f3af79"/><path d="m417.999 734.122c1.326 4.021 5.256 4.079 8.795 2.834 3.957-1.393 7.893-4.395 10.498-8.077-.641.487-1.26.993-1.984 1.411-4.268 2.46-10.363 3.109-14.709.64-1.469-.833-2.293-1.952-2.74-3.192-.626 1.804-.676 3.909.14 6.384z" fill="#f3af79"/><path d="m758.947 534.257c-.521.613-1.002 1.244-1.42 1.898-1.113 1.748-2.766 4.033-.352 5.356 2.602 1.421 5.447 1.772 8.371 1.89 6.982-.018 14.186-2.398 14.777-9.764-2.324 2.014-5.543 3.31-9.242 3.748-4.772.568-9.267-.47-12.134-3.128z" fill="#f3af79"/><path d="m647.699 402.122c5.977 4.823 7.461-1.921 7.889-7.244.029-.842.018-1.695-.02-2.547-5.875 4.19-12.131 2.108-15.775-2.655 1.09 4.871 4.043 9.326 7.906 12.446z" fill="#f3af79"/><path d="m456.677 677.525c2.957 3.096 7.426 1.192 10.453-.956 3.973-2.816 8.242-8.279 8.955-13.482-1.123 2.115-2.496 4.096-4.268 5.838-5.064 4.979-13.504 3.115-16.066-2.023-.357.652-.656 1.33-.795 2.073-.449 2.376-.096 6.647 1.721 8.55z" fill="#f3af79"/><path d="m581.783 569.145c4.945.677 14.822-.788 17.355-5.792.564-1.121-.178-2.344-1.414-3.48-1.477 1.051-3.156 1.96-5.006 2.688-3.42 1.345-7.227 1.804-10.855 1.233-2.566-.402-4.906-1.808-6.77-3.563-.406-.385-.709-.793-.951-1.219-.445.873-.793 1.877-1.016 3.027-.915 4.694 5.056 6.612 8.657 7.106z" fill="#f3af79"/><path d="m555.018 735.751c-.361-.693-.613-1.408-.867-2.123.035.858.098 1.686.16 2.409 1.137 6.894 4.584 14.979 13.168 12.978 4.344-1.012 5.223-4.54 4.055-8.633-.701-2.457-1.873-4.781-3.383-6.867-.002 3.127-.73 6.076-2.533 7.961-3.706 3.865-9.157-2.944-10.6-5.725z" fill="#f3af79"/><path d="m490.841 767.397c.305 3.104 3.25 7.109 6.383 8.021 5.773 1.684 8.719-5.887 9.416-10.412.1-.639.182-1.721.207-3.009-1.277 2.523-3.027 4.677-5.146 5.995-4.896 3.049-8.855-.728-10.313-5.133-.463 1.478-.7 2.997-.547 4.538z" fill="#f3af79"/><path d="m587.881 459.561c-2.396 4.566 3.283 8.575 6.895 10.19 3.893 1.735 13.557 3.927 16.998.22.682-.732.676-1.72.35-2.779-3.465 1.932-8.092.796-11.475-.701-4.008-1.771-8.969-5.817-10.205-10.12-.956.769-1.829 1.791-2.563 3.19z" fill="#f3af79"/><path d="m536.6 501.726c-4.949-.779-9.396-3.08-11.584-6.563-.363.537-.666 1.085-.82 1.632-1.502 5.359 5.498 8.709 9.74 9.654 3.615.805 7.518.877 11.119-.115.908-.25 3.996-.857 4.33-2.076.416-1.519-.273-3.088-1.336-4.543-2.877 1.973-6.758 2.752-11.449 2.011z" fill="#f3af79"/><path d="m751.559 613.027c-.887 3.409 3.85 7.149 6.078 9.022 2.885 2.231 7.824 5.342 11.719 4.316 2.9-.763 6.836-3.375 7.594-6.563.623-2.623-.918-4.729-3.098-6.287-1.791 3.279-4.613 5.817-8.641 5.859-3.355.032-6.051-2.74-7.832-5.258-.766-1.08-1.281-2.184-1.529-3.273-.012.002-.023.002-.033.006-1.012.297-3.924.888-4.258 2.178z" fill="#f3af79"/><path d="m740.131 452.271c5.287-2.88 10.191-7.539 9.439-13.093-1.646 2.467-3.791 4.657-6.316 6.379-4.676 3.183-9.338 3.678-13.199 1.813-.33 1.489-.473 3.003-.355 4.505.396 5.086 7.79 1.686 10.431.396z" fill="#f3af79"/><path d="m618.137 649.59c4.254 1.857 8.262-4.306 9.641-7.393 1.605-3.594 3.605-12.202.846-16.032.455 5.441-.512 11.404-3.453 15.053-3.828 4.748-9.699 1.75-11.027-3.254-.115-.436-.17-.92-.246-1.391-2.103 4.899-1.986 10.301 4.239 13.017z" fill="#f3af79"/><path d="m625.064 747.901c-.879-1.158-1.564-2.453-2.133-3.795-.012 1.365.088 2.738.188 3.865 1.135 6.893 4.582 14.979 13.166 12.977 4.344-1.012 5.223-4.539 4.057-8.633-.289-1.008-.678-1.984-1.111-2.945-.506.744-1.027 1.48-1.676 2.096-4.18 3.967-9.762.031-12.491-3.565z" fill="#f3af79"/><path d="m594.08 182.664c.52-1.14.92-2.26 1.256-3.354-8.506 8.744-19.4 16.235-27.896 24.315-13.348 12.691-22.168 29.725-35.609 42.079 2.768 2.834 5.854 5.362 9.641 7.545 9.33-13.574 19.17-26.757 29.422-39.654 7.667-9.645 18.04-19.616 23.186-30.931z" fill="#865725"/><path d="m796.242 706.79c-26.467 14.698-53.842 18.683-82.832 9.509-27.436-8.681-54.373-22.746-79.703-36.265-43.553-23.24-87.107-49.803-125.892-80.465-22.266-17.604-45.371-40.17-55.41-66.893-1.25 17.201-.018 34.688 4.422 52.318 78.942 46.035 156.882 93.863 238.608 134.926 19.377 9.735 49.061 20.586 68.115 37.988 41.592-20.366 72.947-53.551 92.506-92.512-18.896 14.881-38.839 29.746-59.814 41.394z" fill="#f55091"/><path d="m753.854 764.9c-1.773 4.118-4.02 8.028-7.119 11.562-9.77 11.131-27.145 15.287-40.758 19.271-33.316 9.752-69.859 12.139-104.365 14.227-58.4 3.535-121.31 2.308-177.046-17.412-81.436-28.814-129.35-115.909-131.459-201.26-6.707 51.83.576 104.933 31.541 149.042 30.248 43.089 77.271 75.376 129.361 85.17 33.902 6.374 68.896 7.401 103.278 5.12 28.611-1.898 56.613-8.084 85.172-10.158 25.256-1.834 64.939 6.381 86.002-9.426 13.193-9.9 22.006-26.404 36.678-34.129-3.348-4.441-7.155-8.405-11.285-12.007z" fill="#f55091"/><g fill="#ffbcdf"><path d="m694.572 433.553c3.738-2.565 6.771-7.348 8.197-11.57.174-.519-.389-1.095-.912-.911-4.615 1.61-9.646 6.633-8.494 11.989.108.498.783.784 1.209.492z"/><path d="m726.051 511.728c1.092-.563 1.676-1.792 2.305-2.768.166-.259.059-.639-.207-.787-5.15-2.876-10.791 3.246-12.699 7.695-.115.27.068.588.391.508 2.412-.609 4.436-1.872 6.641-2.973 1.178-.588 2.395-1.072 3.569-1.675z"/><path d="m728.559 518.862c-2.139-.518-4.883.424-6.479 1.934-.268.254-.299.775 0 1.024 2 1.669 5.291 1.442 7.205-.204.944-.807.422-2.474-.726-2.754z"/><path d="m695.553 616.204c-1.342 2.764-1.107 8.113.672 10.621 1.273 1.794 4.906 1.448 4.629-1.254-.176-1.738-.793-3.422-1.523-5.008-.701-1.52-1.209-3.381-2.484-4.527-.37-.33-1.05-.332-1.294.168z"/><path d="m703.166 615.854c-.439-.313-1.021-.213-1.469 0-.023-.037-.049-.074-.072-.111-.213-.031-.479.092-.457.35.039.491-.338.891-.141 1.406.43 1.121.725 2.177 1.375 3.203 1.48 2.334 5.258.053 3.67-2.146-.845-1.168-1.742-1.873-2.906-2.702z"/><path d="m614.273 586.265c.146-.391-.164-.734-.496-.87-2.031-.827-4.787.348-6.717 1.013-2.188.752-4.65 1.588-6.615 2.826-2.717 1.711-.92 5.658 2.125 5.041 2.262-.461 4.535-1.993 6.447-3.223 1.842-1.186 4.446-2.629 5.256-4.787z"/><path d="m618.91 593.767c1.385-1.297 2.182-3.073 2.514-4.929.064-.376-.213-.654-.588-.589-1.855.332-3.633 1.13-4.93 2.514-.686.734-.938 2.363-.148 3.152s2.418.536 3.152-.148z"/><path d="m622.441 511.194c-1.627-.668-3.516-1.524-5.18-.547-1.035.604-1.383 1.729-1.162 2.854.686 3.528 7.531 3.97 10.219 3.244 1.266-.342 1.432-1.771.709-2.681-1.181-1.483-2.869-2.163-4.586-2.87z"/><path d="m626.445 504.096c-.785-.152-1.721.21-1.902 1.08-.619 2.986 2.4 5.136 5.186 4.362.705-.195.957-.969.646-1.588-.844-1.678-1.975-3.471-3.93-3.854z"/><path d="m606.494 409.046c.824 2.497 2.758 4.219 4.752 5.868 1.73 1.43 3.598 3.267 6.031 2.987.447-.052.875-.35.855-.856-.094-2.371-1.82-4.046-3.25-5.768-1.645-1.977-3.447-4.048-6.055-4.566-1.329-.267-2.819.866-2.333 2.335z"/><path d="m711.424 390.935c-.807-.329-1.797.086-2.389.632-2.051 1.888-3.816 4.856-3.146 7.681.039.164.209.296.379.29 2.881-.12 5.328-2.528 6.625-4.997.371-.711.531-1.781 0-2.479-.444-.577-.795-.852-1.469-1.127z"/><path d="m795.184 475.668c.689-1.01.002-2.52-1.139-2.801-3.064-.755-6.842 2.176-8.561 4.56-.127.175 0 .467.205.509 2.956.589 7.661.425 9.495-2.268z"/><path d="m795.088 479.247c-1.811.278-3.658 1.197-4.779 2.662-.365.478.055 1.082.51 1.257 1.734.664 3.678 1.004 5.49.512 2.927-.796 1.63-4.866-1.221-4.431z"/><path d="m756.297 575.733c-1.785-.084-3.365.4-5.049.938-1.156.368-2.814.844-3.635 1.779-.137.152-.143.359 0 .51 1.379 1.496 4.566 1.498 6.453 1.762 2.408.337 5.82-.784 4.367-3.763-.388-.794-1.306-1.187-2.136-1.226z"/><path d="m705.439 564.039c-1.637.44-3.631 1.798-4.479 3.274-.178.313-.076.719.234.901 1.639.963 3.699.562 5.475.292 1.211-.184 3.428-1.658 3.01-3.18-.474-1.717-2.968-1.628-4.24-1.287z"/><path d="m531.438 547.259c-2.646 1.378-.736 5.145 1.938 4.594 1.926-.397 3.822-1.184 5.707-1.756 1.756-.532 3.551-1.304 4.938-2.521.301-.261.244-.861-.131-1.032-3.484-1.592-9.093-1.035-12.452.715z"/><path d="m549.998 541.235c.328-.108.449-.512.201-.769-1.092-1.147-2.484-1.905-3.936-2.501-.535-.219-2.545-.352-2.707.576-.55 3.218 4.507 3.329 6.442 2.694z"/><path d="m550.48 455.591c-1.668-.95-3.447-2.489-5.459-2.405-1.494.064-2.324 1.321-2.078 2.73.373 2.153 2.59 3.152 4.41 3.899 1.74.712 4.145 1.796 6.01 1.074.68-.266.977-.801.861-1.521-.292-1.832-2.255-2.93-3.744-3.777z"/><path d="m557.072 452.962c.508.121.912-.317.811-.811-.539-2.586-2.168-6.646-5.375-6.309-.34.035-.539.193-.666.508-1.272 3.128 2.545 5.965 5.23 6.612z"/><path d="m606.486 350.222c1.225 1.882 2.693 3.161 4.893 3.488.23.035.527-.099.5-.381-.182-1.945-.598-3.602-1.447-5.414-.99-2.114-1.572-4.459-3.314-6.104-1.742-1.644-4.188.024-3.795 2.209.409 2.277 1.925 4.294 3.163 6.202z"/><path d="m617.939 347.959c1.713-2.034 1.547-7.513-2.045-7.513-3.627 0-2.002 6.141-.381 7.513.665.562 1.788.759 2.426 0z"/><path d="m708.725 359.191c1.732-.765 2.77-2.436 3.928-3.858 1.15-1.409 2.365-2.651 2.014-4.575-.125-.677-.834-1.092-1.471-1.118-1.922-.076-3.037 1.612-3.813 3.169-.881 1.77-1.877 3.765-1.699 5.786.048.555.543.817 1.041.596z"/><path d="m718.986 362.147c.898-1.037.061-3.226-1.5-2.577-1.473.61-2.307 1.666-2.822 3.085-.104.286.115.64.404.708 1.391.327 2.918-.063 3.918-1.216z"/><path d="m620.701 428.031c.184-.121.33-.368.242-.594-.814-2.134-3.313-3.436-5.51-3.354-2.07.076-2.924 2.843-1.068 3.934 1.828 1.076 4.512 1.234 6.336.014z"/><path d="m822.725 516.804c1.941-.366 4.158-1.123 4.797-3.211.068-.225-.002-.512-.178-.673-3.082-2.772-10.076.315-11.846 3.474-.111.198-.01.445.205.509 2.102.612 4.889.303 7.022-.099z"/><path d="m825.002 521.212c-2.09.209-3.24 1.127-4.699 2.496-.172.163-.096.502.145.55 1.838.368 3.09 1.35 5.068.759 2.021-.6 1.73-4.03-.514-3.805z"/><path d="m768.602 662.034c-1.596-.998-3.193-2.047-4.754-3.075-.25-.165-.65.111-.531.409 1.33 3.32 3.691 8.145 7.721 8.592 1.408.156 2.275-1.674 1.592-2.772-.933-1.496-2.566-2.243-4.028-3.154z"/><path d="m768.281 656.722c-.285.072-.426.426-.273.676.779 1.288 1.744 2.828 2.816 3.887 1.787 1.76 4.564-1.021 2.75-2.751-1.26-1.197-3.535-2.249-5.293-1.812z"/><path d="m674.805 675.521c1.586-1.774 1.932-5.987.992-8.175-.119-.275-.51-.395-.779-.316-2.814.814-4.467 5.834-2.814 8.156.581.821 1.837 1.192 2.601.335z"/><path d="m680.848 666.12c-1.869.709-1.77 4.529-.971 5.947.52.918 1.605.873 2.342.303 1.129-.871 1.443-2.711.955-4.05-.305-.829-1.078-2.672-2.326-2.2z"/><path d="m575.766 608.931c-1.861-.613-3.67-.041-5.477.592-1.943.679-4.459 1.493-4.453 3.938.002.902.6 1.59 1.426 1.871 2.025.691 3.699-1.18 5.219-2.248 1.482-1.041 2.898-1.997 3.514-3.748.06-.178-.069-.355-.229-.405z"/><path d="m580.746 611.166c-1.85.545-3.273.965-3.912 2.939-.35 1.088.795 2.231 1.883 1.882 1.975-.638 2.395-2.061 2.939-3.91.158-.539-.373-1.069-.91-.911z"/><path d="m635.334 549.015c-2.293.461-2.293 4.156 0 4.617 1.566.316 7.193.304 6.801-2.483-.356-2.512-5.067-2.484-6.801-2.134z"/><path d="m709.85 480.342c-2.836-.309-4.574 2.676-5.658 4.869-.195.395.137 1.061.648.845 2.271-.952 5.195-.631 6.555-3.021.726-1.276-.229-2.55-1.545-2.693z"/><path d="m718.969 554.544c-.252.229-.264.704 0 .93 2.482 2.14 8.334 2.541 10.254-.441.602-.936.107-1.963-.672-2.561-2.414-1.854-7.565.229-9.582 2.072z"/><path d="m832.182 537.341c-1.375.041-2.836.477-4.098 1.023-1.217.527-2.248 1.617-3.432 2.078-.367.144-.336.705.096.711 1.203.015 2.619.896 3.846 1.097 1.564.253 3.35.097 4.73-.693 1.928-1.101 1.125-4.285-1.142-4.216z"/><path d="m786.904 436.179c-1.082-1.452-3.688.274-4.51 1.128-1.725 1.783-3.201 3.663-4.482 5.777-.289.476.184.916.65.846 2.328-.35 4.441-.876 6.426-2.226 1.668-1.134 3.375-3.568 1.916-5.525z"/><path d="m757.873 402.564c2.738-.236 8.449-2.915 6.346-6.381-.793-1.304-2.721-.078-3.461.529-1.436 1.176-2.529 3.797-3.139 5.519-.055.153.09.348.254.333z"/><path d="m570.578 407.705c.68.563 1.49 1.188 2.342 1.456 1.02.318 1.996.193 3.035.364.834.136 1.426-.597 1.059-1.378-.689-1.467-.824-2.681-1.961-3.947-1.186-1.321-2.363-2.777-4.131-3.263-1.404-.385-3.314.751-3.119 2.376.24 1.994 1.254 3.139 2.775 4.392z"/><path d="m504.097 528.716c-2.039.765-2.039 3.377 0 4.143 2.625.984 5.889.432 7.801-1.607.252-.268.252-.662 0-.93-1.913-2.039-5.176-2.593-7.801-1.606z"/><path d="m509.085 685.356c-2.656 2.516-5.643 6.185-6.684 9.768-.857 2.954 3.004 4.121 4.629 1.953 2.182-2.92 3.205-7.745 3.066-11.302-.021-.518-.628-.781-1.011-.419z"/><path d="m517.072 688.739c-.623-.51-1.412-.026-1.293.754.141.904-.295 2.241-.49 3.121-.312 1.389-.429 2.506-.362 3.926.039.859.989 1.525 1.786 1.023 1.707-1.08 2.402-2.4 2.525-4.414.121-1.972-.758-3.253-2.166-4.41z"/><path d="m598.346 714.726c-.352-1.329-.818-2.524-1.441-3.748-.729-1.436-1.625-2.09-2.832-3.049-.344-.271-.842-.026-.742.432.521 2.434.502 4.988 1.102 7.445.618 2.539 4.588 1.455 3.913-1.08z"/><path d="m675.771 747.866c-1.486-.843-3.104-1.302-4.576-2.064-.363-.189-.768.193-.564.563.771 1.405 1.268 2.688 2.301 3.992 1.203 1.519 2.334 2.95 3.949 4.05 1.811 1.236 4.367-1.244 3.061-3.061-1.12-1.558-2.516-2.539-4.171-3.48z"/><path d="m680.908 742.294c-.697-.08-1.408-.137-2.107-.104-.412.021-1.684.019-2.043-.099-.391-.13-.869.301-.709.707.205.523.076.862.217 1.371.164.6.709 1.036 1.094 1.496.877 1.052 2.262 1.369 3.549 1.504 3.134.33 3.073-4.522-.001-4.875z"/><path d="m478.61 727.194c-2.771.21-5.656 3.303-6.184 5.934-.518 2.582 2.586 3.748 4.088 1.725 1.318-1.773 2.721-4.705 2.803-6.951.016-.364-.332-.737-.707-.708z"/><path d="m416.122 678.278c-1.387.106-2.668-.105-4.082.15-1.723.311-3.557.859-5.029 1.81-2.512 1.621-.93 6.163 2.121 5.033 1.725-.638 3-1.629 4.424-2.767 1.277-1.021 1.885-2.246 2.904-3.412.25-.285.111-.849-.338-.814z"/><path d="m452.358 635.16c-.635-.106-1.273-.173-1.906-.284-1.629-.285-3.189-.514-4.824-.205-2.629.494-2.658 4.848 0 5.318 1.725.307 3.148-.014 4.824-.434 1.748-.436 2.578-1.151 3.436-2.602.186-.313.063-.689-.23-.879-.444-.29-.729-.817-1.3-.914z"/><path d="m378.401 587.704c1.045-.166 1.984-.484 2.977-.835.617-.22 1.301-.79 1.906-.921.553-.121.514-.803.139-1.084-.578-.435-.908-.984-1.605-1.357-.916-.49-1.883-.78-2.898-.959-2.121-.375-5.203-.533-6.451 1.588-.563.959-.305 1.982.359 2.789 1.312 1.596 3.814 1.061 5.573.779z"/><path d="m378.161 596.29c.283-.439-.016-.95-.451-1.113-2.68-.988-6.234-.845-7.424 2.107-.297.729.191 1.605.807 1.982 2.65 1.628 5.635-.747 7.068-2.976z"/><path d="m353.636 659.403c-2.52-.131-4.951.208-7.453.531-2.371.307-4.367-.245-5.945 1.816-.484.633-.182 1.52.264 2.055 1.779 2.129 4.875.874 7.125.186 2.43-.746 4.547-2.105 6.291-3.913.245-.257.06-.656-.282-.675z"/><path d="m359.956 665.278c-1.68-.052-3.422.279-5.098.422-1.779.152-3.197.763-3.779 2.542-.199.61.01 1.425.492 1.857 2.883 2.571 7.32-1.121 9.107-3.559.399-.54-.144-1.246-.722-1.262z"/><path d="m383.698 721.122c-.988.344-1.643.385-2.619.896-1.02.537-1.992 1.119-2.949 1.758-1.844 1.225-3.553 2.311-4.248 4.51-.551 1.732 1.441 3.008 2.904 2.232 1.822-.965 2.789-2.768 4.105-4.293.602-.699 1.207-1.4 1.813-2.1.686-.795.957-1.481 1.533-2.303.239-.338-.154-.831-.539-.7z"/><path d="m446.188 762.882c-2.371 1.948-4.975 5.408-5.123 8.551-.096 1.981 2.271 2.551 3.566 1.478 2.332-1.932 3.43-6.282 3.553-9.201.047-1.109-1.265-1.424-1.996-.828z"/><path d="m539.795 771.069c-.209-.074-.395.082-.465.263-.537 1.358-.236 3.203-.328 4.663-.113 1.807-.652 3.855.84 5.209.74.67 1.777.682 2.512 0 2.292-2.123.359-9.127-2.559-10.135z"/><path d="m550.553 769.837c-.121-.247-.535-.247-.654 0-1.182 2.443-2.08 5.658.828 7.357 1.246.729 3.25-.498 2.635-2.025-.747-1.856-1.932-3.539-2.809-5.332z"/><path d="m545.506 678.615c-.592 1.849-.693 3.769-.664 5.702.029 2.041.703 3.351 1.973 4.873.416.502 1.281.207 1.43-.377.902-3.555.52-7.452-1.857-10.431-.265-.328-.773-.106-.882.233z"/><path d="m555.566 686.932c-.324-.422-1.053-.2-.9.38.406 1.572.326 3.236.584 4.834.254 1.592 1.066 2.223 2.166 3.293.412.406 1.098.213 1.264-.332.402-1.321.887-2.473.215-3.809-.854-1.696-2.192-2.885-3.329-4.366z"/><path d="m596.379 765.026c-.537-.518-1.324-.455-1.699-.834-.211-.216-.629 0-.523.303.154.436-.297 1.02-.303 1.576-.008.896.135 1.812.254 2.702.262 1.962.178 4.408 1.199 6.146 1.082 1.84 3.416 1.18 4.123-.538.852-2.067-.33-4.843-1.227-6.716-.453-.946-1.068-1.909-1.824-2.639z"/><path d="m622.666 713.38c-1.008-1.839-1.922-2.637-3.75-3.676-1.77-1.006-3.635-2.041-5.293-3.221-.287-.204-.727.135-.604.465 1.451 3.94 4.033 9.18 9.074 7.832.61-.162.864-.865.573-1.4z"/><path d="m666.129 772.081c-.625-.703-1.848-.145-1.826.757.064 2.845 1.941 7.314 5.41 6.956 1.664-.17 2.885-1.805 1.957-3.412-1.18-2.045-3.961-2.516-5.541-4.301z"/><path d="m697.037 761.479c-.906-.584-1.799-1.279-2.881-1.418-.268-.034-.607.182-.723.416-1.191 2.404 1.303 6.037 3.324 7.262 2.584 1.57 5.764-2.346 3.293-4.269-.958-.744-1.997-1.332-3.013-1.991z"/><path d="m344.591 611.753c2.51-.159 3.191-3.117 1.225-4.53-1.871-1.347-4.854-1.921-6.807-.534-1.088.773-1.531 2.381-.438 3.4 1.596 1.482 3.881 1.799 6.02 1.664z"/><path d="m349.253 571.476c.793.348 1.527.664 2.377.855.611.138 1.287.004 1.867.211.352.126.799-.281.648-.647-.287-.687-.205-1.398-.586-2.079-.414-.744-.904-1.354-1.531-1.936-1.248-1.16-2.602-2.348-4.254-2.839-2.492-.747-4.047 2.388-2.426 4.167 1.048 1.15 2.508 1.656 3.905 2.268z"/><path d="m432.952 604.047c-.703-.229-1.588.019-2.092.554-1.748 1.861-.912 4.23.656 5.895 1.537 1.631 3.531 2.074 5.67 1.895.771-.063 1.307-.835.895-1.559-1.275-2.249-2.471-5.925-5.129-6.785z"/><path d="m507.815 652.418c.467-.028 2.137-.193 2.244-.893.479-3.153-3.916-5.258-6.473-5.21-2.746.049-3.35 3.387-1.314 4.854 1.629 1.171 3.606 1.369 5.543 1.249z"/><path d="m473.276 700.894c-2.539-.832-5.816 1.128-7.586 2.831-1.951 1.88.717 5.524 2.955 3.825 1.811-1.375 4.092-3.113 5.271-5.086.368-.615.009-1.358-.64-1.57z"/><path d="m648.295 599.417c.023-.366-.42-.588-.717-.412-1.615.959-2.705 2.255-3.32 4.077-.58 1.722-1.346 4.185.193 5.611.539.5 1.523.773 2.176.28 2.598-1.968 1.498-6.705 1.668-9.556z"/><path d="m705.504 588.071c-.639-.521-1.699-.404-1.926.508-.658 2.655.174 6.436 2.992 7.393 1.188.402 2.574-.667 2.51-1.911-.111-2.095-1.969-4.68-3.576-5.99z"/><path d="m639.172 470.053c-1.105-.493-2.367.08-2.412 1.385-.074 2.098.695 3.633 1.936 5.331.547.749 2.76 3.287 3.752 2.131 2.228-2.6-.688-7.691-3.276-8.847z"/><path d="m593.916 515.599c-1.553-.978-2.746-1.751-4.449-2.463-1.568-.656-3.752-1.059-5.43-.876-2.043.224-3.566 3.31-1.189 4.386 1.711.773 3.367.859 5.238.779 2.064-.086 3.785-.87 5.754-1.255.279-.056.287-.439.076-.571z"/><path d="m513.728 578.966c-1.99.797-2.32 3.703 0 4.371 1.907.552 4.013.344 5.784-.594 1.809-.959 2.785-1.689 3.744-3.445.137-.251.029-.643-.285-.701-2.971-.554-6.338-.795-9.243.369z"/><path d="m533.676 426.48c.662.255 3.393.942 3.639-.366.502-2.655-2.852-6.074-5.363-6.206-1.611-.086-2.736 1.615-2.35 3.084.496 1.895 2.384 2.841 4.074 3.488z"/><path d="m650.477 313.838c-1.1-.681-2.293-.147-2.992.784-1.141 1.526-.59 3.682-.258 5.424.367 1.941.535 4.059 2.068 5.478.365.338.893.338 1.26 0 1.508-1.398 1.709-3.482 1.898-5.422.219-2.274.137-4.954-1.976-6.264z"/><path d="m667.313 322.504c1.461-1.826 2.512-4.188 2.014-6.528-.363-1.691-2.512-2.006-3.656-.965-1.934 1.761-2.145 4.873-1.039 7.147.448.924 2.014 1.173 2.681.346z"/><path d="m717.488 326.182c1.83-.757 2.98-2.22 4.244-3.692 1.367-1.594 3.061-3.864 2.357-6.039-.363-1.123-1.533-1.911-2.727-1.547-2.291.697-3.025 3.092-3.82 5.146-.689 1.779-1.273 3.813-.803 5.708.074.292.449.55.749.424z"/><path d="m727.963 325.025c-1.662.976-2.111 2.79-2.92 4.367-.385.745.379 1.508 1.125 1.125 1.559-.798 2.871-1.188 4.074-2.538.656-.738 1.074-2.149.281-2.941-.679-.681-1.814-.45-2.56-.013z"/><path d="m752.215 364.137c-2.01-1.179-3.928 1.493-4.676 2.97-1.033 2.037-1.807 3.979-1.854 6.233-.006.304.377.559.645.37 1.867-1.321 3.701-2.631 5.359-4.261 1.206-1.182 2.483-4.167.526-5.312z"/><path d="m785.699 415.733c.971-1.011 2.902-1.399 4.104-2.106 1.551-.913 2.344-1.936 3.232-3.438.18-.307.082-.755-.242-.924-1.828-.958-3.582-.884-5.242.433-.969.769-1.561 1.606-2.012 2.748-.402 1.018-.242 1.921-.471 2.919-.084.358.36.652.631.368z"/><path d="m817.193 479.258c2.027-.644 4.102-1.185 6.158-1.744 2.113-.576 4.883-1.035 5.889-3.224.436-.944.316-2.188-.713-2.724-4.461-2.308-9.906 3.352-12.039 6.774-.287.457.186 1.085.705.918z"/><path d="m814.555 621.961c-.314.187-.492.669-.26.991.92 1.279 2.59 2.197 3.982 2.895 1.77.887 3.539 2.131 5.475 2.602 2.447.597 4.021-2.279 2.387-4.098-2.311-2.569-8.451-4.26-11.584-2.39z"/><path d="m818.43 636.343c-.734.068-1.244.79-.852 1.485 1.188 2.108 3.588 4.663 6.184 3.548.744-.32.885-1.229.779-1.919-.355-2.386-4.09-3.3-6.111-3.114z"/><path d="m755.99 489.477c-1.66.428-3.852 1.279-5.031 2.59-.621.691-1.242 1.38-1.852 2.082-.479.553-.613 1.337-1.074 1.871-.152.18-.012.552.256.44 1.105-.452 3.078-.483 4.25-.58 1.816-.152 3.789-.993 5.355-1.893 2.454-1.413.795-5.206-1.904-4.51z"/><path d="m641.057 440.482c.361.366 1.113.115 1.068-.442-.127-1.524.279-3.458.707-4.935.195-.683.004-1.346-.131-2.016-.166-.811-.928-1.006-1.207-1.668-.211-.511-.764-.708-1.209-.319-.65.572-1.441.609-1.918 1.422-.631 1.075-.604 2.066-.336 3.235.485 2.104 1.557 3.234 3.026 4.723z"/><path d="m674.652 361.249c.484.586 1.25.037 1.32-.548.266-2.185 1.879-3.998 1.598-6.318-.217-1.79-2.566-3.473-4.047-1.677-1.158 1.409-1.592 2.859-1.215 4.706.372 1.831 1.239 2.495 2.344 3.837z"/><path d="m617.848 309.57c.291.166.676.179.963 0 2.336-1.461 2.408-4.694 1.527-7.037-1.291-3.423-6.541-2.127-5.568 1.534.556 2.09 1.062 4.345 3.078 5.503z"/><path d="m488.608 556.18c-2.828.96-1.666 5.388 1.244 4.509 1.797-.545 4.008-1.244 5.521-2.348.732-.532.834-1.588 0-2.102-1.923-1.187-4.718-.755-6.765-.059z"/><path d="m316.757 635.438c-.98.9-.85 2.931.453 3.506 2.158.955 5.561.385 7.438-1.114.186-.146.254-.471.184-.687-1.007-3.065-5.938-3.664-8.075-1.705z"/><path d="m320.401 574.224c.926.14 2.082-.595 1.686-1.688-.854-2.355-2.924-4.658-5.742-3.619-2.139.787-2.648 4.309 0 4.852 1.34.273 2.72.252 4.056.455z"/><path d="m420.13 765.069c-2.691.646-5.559 3.246-4.178 6.166.398.846 1.797 1.253 2.561.671 1.775-1.35 2.172-3.787 2.568-5.886.109-.58-.348-1.095-.951-.951z"/><path d="m563.959 792.022c-.703 1.871-.584 5.464.963 6.91.898.842 2.469.75 3.094-.399 1.035-1.913.014-5.062-.809-6.935-.687-1.56-2.775-.833-3.248.424z"/><path d="m622.783 787.171c-.254-.188-.625.01-.701.283-.619 2.225-.49 5.355 1.357 6.953.891.773 2.598.604 2.859-.755.52-2.703-1.444-4.958-3.515-6.481z"/><path d="m720.986 772.946c-.465.129-2.039.564-1.822 1.369.482 1.799 2.906 3.26 4.693 2.842 1.207-.281 1.656-1.707 1.111-2.727-.689-1.29-2.599-1.866-3.982-1.484z"/><path d="m721.979 756.032c-1.283-.032-2.871.375-3.949.328-.26-.014-.395.283-.283.495.209.401.24.985.494 1.485.387.757 1.209 1.563 1.924 2.008 2.158 1.338 4.619 2.07 6.713.287.914-.777.932-2.553 0-3.326-1.464-1.212-3.058-1.231-4.899-1.277z"/></g><path d="m211.577 720.649c-.205.259-.018.615.322.549 5.203-.989 9.939-2.48 15.313-2.637 5.307-.154 10.83 1.534 16.193 1.76.412.018.676-.563.35-.843-8.936-7.618-24.252-8.854-32.178 1.171z" fill="#68182b"/><path d="m659.561 538.496c1.041 31.993.607 65.716 8.064 97.017.15.629 1.168.499 1.131-.152-.783-13.816-1.324-27.66-1.813-41.51.145-9.162.367-18.355 1.887-27.339 1.625-9.594 5.074-18.778 8.139-27.973 6.816-20.444 12.459-43.113 6.879-64.434-.068-.262-.434-.189-.453.062-1.639 23.41-5.74 44.621-13.527 66.785-1.611 4.585-3.08 9.158-4.322 13.729-.164-4.11-.34-8.221-.533-12.326-1.598-34.15-.719-67.577 2.143-101.613.035-.436-.633-.5-.744-.101-8.824 31.23-7.898 65.717-6.851 97.855z" fill="#68182b"/><path d="m674.836 611.468c-2.738 13.959-1.123 29.232-1.469 43.416-.012.502.691.559.842.113 4.588-13.557 4.287-29.578 1.355-43.529-.074-.36-.658-.365-.728 0z" fill="#68182b"/><path d="m266.702 302.107c-28.219 8.596-53.365 24.284-76.178 42.978-21.556 17.667-43.672 40.95-54.465 67.637-3.731 9.231-2.236 10.063 2.935 1.767 14.773-23.671 31.455-44.691 53.201-63.099 22.475-19.024 48.604-33.934 75.098-46.83 5.476-2.666 5.138-4.197-.591-2.453z" fill="#68182b"/><path d="m277.675 300.555c.939-.175 1.916-.354 2.363-.49 1.566-.479 3.434-.848 4.234-2.438.148-.296.064-.603-.207-.787-1.586-1.084-3.615-.26-5.195.454-.486.22-1.23.878-1.924 1.565-1.703 1.675-1.574 2.125.729 1.696z" fill="#68182b"/><path d="m467.95 519.535c7.979-26.465 16.09-52.101 28.973-76.725 16.037-30.646 38.202-56.603 59.81-83.327.211-.265-.109-.59-.375-.374-45.71 37.695-84.763 100.111-89.571 160.268-.058.686.976.775 1.163.158z" fill="#68182b"/><path d="m799.088 721.2c-.518.483.242 1.218.77.77 19.465-16.59 34.313-35.109 46.514-57.636 11.598-21.409 21.318-46.604 21.453-71.234.002-.273-.426-.341-.484-.065-5.156 24.34-13.32 46.925-25.07 68.901-11.216 20.974-25.71 42.988-43.183 59.264z" fill="#68182b"/><path d="m479.241 818.729c15.693 5.942 33.404 6.163 49.972 6.181 21.264.025 42.824-2.285 63.332-7.843.783-.212.633-1.448-.193-1.421-19.859.646-39.518 3.338-59.369 4.252-18.075.83-35.681-.078-53.671-1.686-.317-.029-.329.42-.071.517z" fill="#68182b"/><path d="m597.969 815.979c.58-.054 1.316.378 1.932.452 1.018.121 2.102.025 3.121-.047 1.789-.123 4.012-.152 5.242-1.656.242-.294.25-.635 0-.93-1.371-1.604-3.855-1.307-5.715-.904-.945.203-1.928.458-2.797.9-.861.436-1.189 1.174-1.941 1.602-.258.146-.163.611.158.583z" fill="#68182b"/></g></g></svg>