<?xml version="1.0" encoding="UTF-8" standalone="no"?>
<!-- Generator: Adobe Illustrator 26.2.1, SVG Export Plug-In . SVG Version: 6.00 Build 0)  -->

<svg
   version="1.1"
   id="Capa_1"
   x="0px"
   y="0px"
   viewBox="0 0 512 512"
   style="enable-background:new 0 0 512 512;"
   xml:space="preserve"
   width="512"
   height="512"
   sodipodi:docname="003-bear.svg"
   inkscape:version="1.4 (1:1.4+202410161351+e7c3feb100)"
   xmlns:inkscape="http://www.inkscape.org/namespaces/inkscape"
   xmlns:sodipodi="http://sodipodi.sourceforge.net/DTD/sodipodi-0.dtd"
   xmlns="http://www.w3.org/2000/svg"
   xmlns:svg="http://www.w3.org/2000/svg"><defs
   id="defs34" /><sodipodi:namedview
   id="namedview34"
   pagecolor="#505050"
   bordercolor="#ffffff"
   borderopacity="1"
   inkscape:showpageshadow="0"
   inkscape:pageopacity="0"
   inkscape:pagecheckerboard="1"
   inkscape:deskcolor="#505050"
   inkscape:zoom="1.5683594"
   inkscape:cx="256"
   inkscape:cy="256"
   inkscape:window-width="1247"
   inkscape:window-height="1011"
   inkscape:window-x="50"
   inkscape:window-y="32"
   inkscape:window-maximized="0"
   inkscape:current-layer="g24" />
<g
   id="g34">
	<path
   style="fill:#FFFFFF;"
   d="M461.242,307.684c-5.916-6.434-15.274-9.82-24.42-11.562c-0.115-4.71-2.244-8.595-4.796-11.58   c-2.433-2.845-5.526-4.592-8.61-5.662c7.084-13.541,8.839-29.428,5.049-47.047c-3.208-14.919-9.073-29.545-17.502-43.68   c11.355-3.097,23.662-8.839,32.514-19.418c9.108-10.886,12.776-24.661,10.902-40.941c-4.843-42.085-39.205-60.924-71.11-60.924   c-11.816,0-22.216,2.735-29.286,7.699c-11.697,8.211-20.985,23.412-27.246,36.23c-7.83-3.529-15.669-6.11-23.901-7.877   c-0.912-2.194-1.862-4.203-2.853-6.033l46.573-36.332c2.992-2.334,4.771-5.893,4.839-9.689c0.069-3.793-1.579-7.416-4.485-9.857   l-29.412-24.71c-2.296-1.928-5.169-2.948-8.091-2.948c-1.211,0-2.43,0.174-3.62,0.532c-4.061,1.222-7.233,4.407-8.438,8.473   l-17.728,59.845c-2.524,0.052-4.952,0.654-7.145,1.781c-1.115-1.107-2.298-2.132-3.546-3.05c0.029-0.063,0.068-0.118,0.095-0.182   l24.041-55.612c1.506-3.484,1.358-7.459-0.401-10.823c-1.759-3.361-4.943-5.75-8.663-6.498l-37.66-7.574   C245.519,0.081,244.689,0,243.864,0c-3.332,0-6.568,1.326-8.955,3.745c-2.977,3.019-4.233,7.336-3.34,11.483l13.619,63.186   c0.084,0.391,0.223,0.758,0.342,1.134c-2.508,1.553-4.612,3.597-6.188,6.058l-9.833-55.426c-0.663-3.738-2.977-6.974-6.298-8.81   c-1.886-1.042-3.983-1.57-6.086-1.57c-1.601,0-3.206,0.305-4.725,0.921l-35.601,14.432c-3.93,1.593-6.793,5.06-7.614,9.22   c-0.822,4.162,0.509,8.454,3.539,11.423l41.498,40.634c-0.667,1.218-1.21,2.509-1.591,3.872c-0.555,1.988-0.788,4.063-0.702,6.221   c-4.532,1.392-8.916,3.038-13.191,4.95c-6.177-12.315-15.234-26.814-26.468-34.701c-7.069-4.964-17.47-7.699-29.286-7.699   c-31.905,0-66.267,18.839-71.111,60.924c-1.861,16.159,1.744,29.856,10.714,40.709c8.691,10.516,20.851,16.288,32.052,19.445   c-7.815,13.525-13.295,27.486-16.349,41.684c-2.378,11.054-2.637,21.447-0.789,31.09c-4.381,0.696-8.01,2.348-10.829,4.935   c-3.829,3.513-5.976,7.437-6.444,11.744c-31.144,1.902-35.373,18.722-35.694,26.196c-0.427,9.942,5.244,24.249,53.28,46.846   c23.27,10.945,50.145,20.534,71.974,25.842c-0.323,2.199-0.589,4.391-0.794,6.569c-1.533,16.21-0.498,33.389,3.255,54.021   l4.498,43.79l-10.05,5.543c-5.023,2.772-7.535,8.593-6.104,14.149c1.431,5.558,6.442,9.441,12.18,9.441h58.584   c5.874,0,10.966-4.065,12.265-9.793l10.674-47.043c0.071,0.002,0.14,0.006,0.21,0.01c2.298,0.104,4.6,0.158,6.841,0.158   c1.425,0,2.837-0.023,4.234-0.068l10.577,44.666c1.343,5.672,6.408,9.678,12.238,9.678h64.913c5.777,0,10.809-3.934,12.204-9.539   c1.395-5.607-1.208-11.441-6.31-14.147l-9.815-5.208l-6.411-64.744c0.495-8.792-0.576-20.597-3.262-35.821   c20.634-2.319,46.385-7.981,69.678-15.496c49.964-16.12,57.248-29.42,58.013-39.205   C467.929,318.78,465.797,312.637,461.242,307.684z"
   id="path1" />
	<g
   id="g33">
		<g
   id="g30">
			<g
   id="g3">
				<path
   style="fill:#CE9174;"
   d="M210.008,313.08c0,0-106.921-50.283-114.078-36.759c-4.589,8.673,3.934,15.103,3.934,15.103      s-41.749-5.908-42.582,13.488c-0.833,19.396,92.917,59.271,136.467,63.728S210.008,313.08,210.008,313.08z"
   id="path2" />
				<path
   style="fill:#2C0B1F;"
   d="M210.007,313.925c-0.117,0-0.236-0.024-0.351-0.077c-0.177-0.08-18.033-8.236-53.69-22.688      c-42.975-17.418-56.057-17.345-59.465-14.217c-3.834,3.519-1.08,7.591,3.229,12.959l0.797,0.997      c3.987,5.029,2.377,18.387,2.306,18.953c-0.057,0.464-0.486,0.798-0.942,0.733c-0.463-0.058-0.791-0.479-0.733-0.942      c0.016-0.132,1.596-13.219-1.954-17.695l-0.79-0.988c-3.72-4.634-8.349-10.401-3.054-15.261      c5.557-5.101,25.587-0.555,61.242,13.895c35.697,14.468,53.582,22.638,53.759,22.719c0.424,0.194,0.61,0.695,0.416,1.119      C210.634,313.742,210.327,313.925,210.007,313.925z"
   id="path3" />
			</g>
			<g
   id="g5">
				<path
   style="fill:#CE9174;"
   d="M310.806,313.3c0,0,106.062-34.997,111.236-21.491c3.318,8.661-5.413,13.724-5.413,13.724      s39.849-0.785,38.419,17.51c-1.43,18.295-93.945,45.026-135.319,44.245C278.355,366.507,310.806,313.3,310.806,313.3z"
   id="path4" />
				<path
   style="fill:#2C0B1F;"
   d="M412.542,323.284c-0.439,0-0.797-0.356-0.799-0.797c-0.001-0.539,0.01-13.258,4.325-17.522      l0.86-0.843c4.655-4.548,7.704-8.055,4.507-11.794c-2.843-3.322-15.109-4.881-57.421,6.562      c-35.111,9.498-52.791,15.114-52.966,15.17c-0.419,0.134-0.868-0.099-1.003-0.519c-0.134-0.42,0.098-0.869,0.519-1.003      c0.175-0.056,17.888-5.683,53.034-15.189c35.104-9.496,54.42-11.477,59.05-6.059c4.416,5.163-0.585,10.048-4.604,13.973      l-0.854,0.837c-3.841,3.796-3.852,16.257-3.851,16.383c0.001,0.44-0.355,0.799-0.797,0.801      C412.544,323.284,412.543,323.284,412.542,323.284z"
   id="path5" />
			</g>
			<g
   id="g9">
				<g
   id="g6">
					<polygon
   style="fill:#CE9174;"
   points="181.324,401.153 190.291,488.432 172.955,497.997 231.54,497.997 247.68,426.859             "
   id="polygon5" />
					<polygon
   style="fill:#CE9174;"
   points="328.085,389.944 337.719,487.237 353.492,495.606 288.579,495.606 271.592,423.87             "
   id="polygon6" />
				</g>
				<g
   id="g7">
					<path
   style="fill:#CE9174;"
   d="M328.376,423.924c-10.747,19.264-81.885,15.853-81.885,15.853s-64.28,1.866-64.877-41.17       c-0.386-28.263,12.529-58.575,23.276-75.161c5.619-8.65,9.904-13.924,9.904-13.924l94.458-2.828c0,0,1.212,3.993,3.073,10.53       C319.666,343.043,336.963,408.569,328.376,423.924z"
   id="path6" />
					<path
   style="fill:#2C0B1F;"
   d="M313.204,310.814c-0.909,1.046-1.854,2.057-2.834,3.013c-8.36,8.154-19.02,13.44-29.893,17.571       c-15.847,5.989-33.316,9.724-49.644,5.304c-9.126-2.472-20.82-9.688-26.684-19.141c5.704-9.381,10.053-15.099,10.053-15.099       l95.882-3.067C310.085,299.394,311.314,303.724,313.204,310.814z"
   id="path7" />
				</g>
				<path
   style="fill:#2C0B1F;"
   d="M261.522,441.33c-1.984,0-4.07-0.046-6.26-0.145c-23.8-1.077-33.465-4.753-33.864-4.908      c-0.435-0.17-0.649-0.659-0.48-1.093c0.169-0.436,0.655-0.652,1.094-0.481c0.096,0.037,9.863,3.733,33.327,4.795      c28.098,1.269,38.877-6.527,38.982-6.606c0.373-0.28,0.903-0.205,1.182,0.168c0.28,0.372,0.207,0.899-0.164,1.181      C294.926,434.552,285.662,441.33,261.522,441.33z"
   id="path8" />
				<path
   style="fill:#2C0B1F;"
   d="M186.251,439.508c-0.396,0-0.75-0.28-0.828-0.685c-4.048-20.916-5.231-38.078-3.726-54.01      c1.848-19.547,8.049-37.12,17.936-50.82c0.272-0.378,0.799-0.466,1.179-0.19c0.378,0.272,0.464,0.801,0.19,1.179      c-9.71,13.457-15.804,30.743-17.623,49.99c-1.49,15.767-0.313,32.776,3.702,53.531c0.089,0.458-0.211,0.9-0.669,0.989      C186.358,439.503,186.305,439.508,186.251,439.508z"
   id="path9" />
			</g>
			<g
   id="g29">
				<g
   id="g26">
					<path
   style="fill:#CE9174;"
   d="M416.35,233.051c-14.668-68.207-85.809-107.811-85.809-107.811       c-25.25-13.863-44.67-14.118-67.223-14.668c-18.152,1.65-41.491,0.805-66.74,14.668c0,0-71.141,39.604-85.809,107.811       c-14.668,68.207,68.207,84.342,111.478,84.342c12.611,0,22.34,0,29.819,0c18.183,0,22.987,0,22.987,0       c7.479,0,15.945-0.63,28.528-1.481C346.236,313.025,431.018,301.258,416.35,233.051z"
   id="path10" />
					<path
   style="fill:#CE9174;"
   d="M231.415,118.822c0,0-12.651-15.402-3.3-20.352c9.351-4.95,24.753,12.101,24.753,12.101       s-9.901-18.702,1.1-22.552c11.001-3.85,20.352,21.452,20.352,21.452s-1.1-18.152,7.151-15.952       c8.251,2.2,13.751,24.202,13.751,24.202L231.415,118.822z"
   id="path11" />
					<g
   id="g14">
						<g
   id="g13">
							<path
   style="fill:#CE9174;"
   d="M141.389,179.878c0,0-62.706,1.1-56.839-49.872c5.867-50.972,63.44-56.473,80.675-44.371         c17.235,12.101,29.703,46.571,29.703,46.571L141.389,179.878z"
   id="path12" />
							<path
   style="fill:#FFE6E5;"
   d="M167.099,120.04c-2.452-3.232-5.266-6.287-8.791-8.295c-3.117-1.775-6.668-2.658-10.221-3.147         c-11.344-1.562-23.494,0.971-32.372,8.202c-8.879,7.231-13.902,19.43-11.27,30.574c1.777,7.525,6.818,14.076,13.229,18.398         c6.411,4.321,14.107,6.515,21.82,7.044c4.797,0.329,9.695,0.027,14.254-1.504c9.419-3.163,21.16-12.03,24.241-21.956         C180.903,139.967,172.454,127.096,167.099,120.04z"
   id="path13" />
						</g>
						<path
   style="fill:#CE9174;"
   d="M180.126,120.982c-4.376-2.003-10.267-2.629-13.384,1.038c-3.11,3.659-1.596,9.25,0.477,13.581        c-3.839-2.684-9.752-2.41-12.723,1.211c-2.971,3.622-1.465,10.181,3.038,11.474c-4.176,2.199-7.83,5.38-10.585,9.212        c-1.166,1.622-2.209,3.507-2.043,5.499c0.333,3.994,5.118,5.969,9.124,6.036c8.908,0.148,17.174-4.649,24.026-10.343        c6.207-5.158,13.414-12.343,15.639-20.398C195.792,130.699,186.311,123.813,180.126,120.982z"
   id="path14" />
					</g>
					<g
   id="g17">
						<g
   id="g16">
							<path
   style="fill:#CE9174;"
   d="M385.227,177.678c0,0,62.707,1.1,56.839-49.872c-5.867-50.972-63.44-56.472-80.675-44.371         c-17.235,12.101-29.703,46.571-29.703,46.571L385.227,177.678z"
   id="path15" />
							<path
   style="fill:#FFE6E5;"
   d="M359.516,117.84c2.452-3.232,5.266-6.287,8.791-8.295c3.117-1.775,6.668-2.658,10.221-3.147         c11.344-1.562,23.494,0.971,32.372,8.202c8.879,7.231,13.902,19.43,11.27,30.575c-1.777,7.525-6.818,14.076-13.229,18.398         c-6.411,4.321-14.107,6.515-21.82,7.044c-4.797,0.329-9.695,0.027-14.254-1.504c-9.419-3.163-21.16-12.03-24.241-21.956         C345.712,137.767,354.161,124.896,359.516,117.84z"
   id="path16" />
						</g>
						<path
   style="fill:#CE9174;"
   d="M346.489,118.782c4.376-2.003,10.267-2.629,13.384,1.038c3.11,3.659,1.596,9.25-0.477,13.581        c3.839-2.684,9.752-2.411,12.723,1.211c2.971,3.622,1.465,10.181-3.038,11.474c4.176,2.199,7.83,5.38,10.585,9.212        c1.166,1.622,2.209,3.507,2.043,5.499c-0.333,3.993-5.118,5.969-9.124,6.036c-8.908,0.148-17.174-4.65-24.026-10.344        c-6.207-5.158-13.414-12.343-15.639-20.398C330.823,128.499,340.304,121.613,346.489,118.782z"
   id="path17" />
					</g>
					<g
   id="g25">
						<g
   id="g24">
							
							
							<g
   id="g23">
								<path
   style="fill:#FFE6E5;"
   d="M233.82,165.156c-13.443,9.041-22.439,24.15-28.278,39.282          c-5.157,13.364-12.622,26.405-13.681,40.962c-0.33,4.531,0.039,9.263,2.186,13.266c2.638,4.919,7.699,8.177,13.028,9.839          c11.913,3.715,25.8,2.302,38.08,1.957c13.406-0.377,26.863-0.899,40.23,0.513c7.099,0.75,14.524,2.002,21.185-0.564          c8.377-3.227,13.919-12.081,14.926-20.752c0.691-5.951-0.209-11.961-1.194-17.87c-1.902-11.418-4.144-22.846-8.224-33.679          c-9.881-26.238-33.432-47.387-63.042-39.813C243.422,159.734,238.366,162.098,233.82,165.156z"
   id="path20" />
								<path
   style="fill:#2C0B1F;"
   d="M227.187,175.697c12.432-4.451,40.292-11.56,66.695,1.591          c2.996,1.492,3.462,4.915,1.07,7.014l-31.397,27.561c-2.29,2.01-6.206,1.938-8.384-0.154l-29.986-28.813          C222.743,180.548,223.737,176.932,227.187,175.697z"
   id="path21" />
								<path
   style="fill:#2C0B1F;"
   d="M248.908,225.667c-0.361,0-0.725-0.02-1.091-0.061c-0.883-0.08-1.82-0.322-2.765-0.717          c-0.044-0.019-0.087-0.04-0.128-0.064l-7.632-4.466c-0.514-0.3-0.687-0.96-0.386-1.474c0.3-0.513,0.961-0.686,1.474-0.386          l7.568,4.429c0.719,0.294,1.419,0.474,2.085,0.534c3.701,0.411,7.097-1.89,8.099-5.473l2.581-9.214          c0.126-0.449,0.526-0.767,0.992-0.786c0.5-0.003,0.893,0.264,1.055,0.701l3.354,9.025c1.287,3.459,4.846,5.462,8.471,4.763          c0.75-0.128,1.512-0.395,2.229-0.779l5.84-4.253c0.481-0.352,1.154-0.245,1.505,0.236c0.35,0.481,0.244,1.155-0.237,1.505          l-5.897,4.296c-0.037,0.027-0.077,0.053-0.117,0.075c-0.955,0.521-1.943,0.871-2.937,1.04          c-4.637,0.893-9.22-1.681-10.875-6.132l-2.201-5.921l-1.688,6.025C257.02,222.819,253.208,225.667,248.908,225.667z"
   id="path22" />
								<path
   style="fill:#2C0B1F;"
   d="M261.24,254.005c-13.472,0.32-13.472-29.187-13.472-29.187l0.17-0.283          c4.051,0.452,8.065-2.073,9.233-6.256l2.581-9.214l3.354,9.025c1.507,4.051,5.69,6.218,9.685,5.445          C272.79,223.537,274.712,253.685,261.24,254.005z"
   id="path23" />
							</g>
						</g>
					</g>
				</g>
				
				<g
   id="g28">
					<path
   style="fill:#2C0B1F;"
   d="M312.487,191.023c-0.687,0-1.375-0.249-1.919-0.752c-1.146-1.061-1.215-2.849-0.154-3.994       c5.732-6.193,13.858-9.885,22.292-10.129c8.408-0.259,16.761,2.971,22.842,8.822c1.125,1.083,1.159,2.872,0.076,3.997       c-1.083,1.124-2.87,1.158-3.996,0.077c-4.919-4.734-11.921-7.444-18.758-7.245c-6.825,0.198-13.669,3.308-18.308,8.319       C314.006,190.718,313.247,191.023,312.487,191.023z"
   id="path27" />
					<path
   style="fill:#2C0B1F;"
   d="M202.85,191.023c-0.761,0-1.519-0.305-2.075-0.906c-4.639-5.011-11.482-8.121-18.308-8.319       c-6.805-0.195-13.838,2.511-18.758,7.245c-1.126,1.082-2.914,1.047-3.996-0.077c-1.083-1.125-1.049-2.914,0.076-3.997       c6.081-5.851,14.389-9.07,22.842-8.822c8.434,0.245,16.56,3.937,22.292,10.129c1.061,1.146,0.991,2.934-0.154,3.994       C204.225,190.774,203.536,191.023,202.85,191.023z"
   id="path28" />
				</g>
			</g>
			<path
   style="fill:#2C0B1F;"
   d="M245.309,320c-12.923,0-25.438-0.487-36.986-1.484c-37.586-3.247-60.515-14.001-73.13-22.45     c-13.748-9.208-18.495-17.559-18.69-17.909c-0.227-0.407-0.08-0.921,0.327-1.148s0.921-0.081,1.148,0.326     c0.187,0.332,19.447,33.361,90.489,39.498c68.688,5.933,183.498-6.399,200.041-38.512c0.215-0.414,0.722-0.576,1.138-0.364     c0.415,0.214,0.578,0.723,0.364,1.138c-7.554,14.662-35.973,26.802-80.022,34.183C303.74,317.674,273.555,320,245.309,320z"
   id="path29" />
		</g>
		<g
   id="g32"
   style="fill:#ff9955">
			<polygon
   style="fill:#ff9955"
   points="227.89,90.604 181.706,45.382 217.306,30.949    "
   id="polygon30" />
			<polygon
   style="fill:#ff9955"
   points="257.663,74.337 244.044,11.151 281.705,18.725    "
   id="polygon31" />
			<polygon
   style="fill:#ff9955"
   points="291.23,86.481 309.589,24.505 339.001,49.216    "
   id="polygon32" />
		</g>
	</g>
</g>















</svg>
