<svg id="Fruit" height="512" viewBox="0 0 992.13 992.13" width="512" xmlns="http://www.w3.org/2000/svg"><g><path d="m78.951 692.816c33.857 86.447 130.111 146.82 234.072 146.822 1.377 0 2.748-.012 4.121-.035 16.732-.273 33.994-2.795 52.42-7.676 40.324 36.695 93.121 59.645 150.254 65.039 8.617.814 17.35 1.229 25.951 1.229 107.826 0 199.912-62.691 234.598-159.709 2.539-7.1 4.754-14.471 6.697-22.293 79.064-35.51 135.377-114.051 144.574-202.891 8.467-81.779-26.236-167.016-88.414-217.149-45.312-36.533-104.204-56.652-165.824-56.652-20.807 0-41.414 2.349-61.242 6.979-17.025 3.976-33.338 9.823-48.744 17.459-6.561-11.435-14.102-21.845-21.15-31.258-9.283-12.391-14.441-29.202-19.9-47.001-2.447-7.982-4.979-16.235-7.969-24.294-2.561-6.905-26.195-67.452-66.814-67.452-10.223 0-19.959 3.941-28.152 11.396-18.359 16.707-13.506 44.198-10.605 60.623.48 2.704 1.021 5.771 1.131 7.112.455 5.481.732 11.021.875 16.581-20.818-14.391-42.656-26.895-64.053-39.142-6.631-3.795-13.221-7.567-19.723-11.366-8.107-4.737-15.969-10.038-24.289-15.649-8.484-5.723-17.258-11.639-26.545-17.075-8.992-5.264-18.58-8.047-27.723-8.047-17.594 0-32.238 10.507-38.225 27.426-10.924 30.879 12.924 60.746 20.764 70.562 14.359 17.979 24.668 35.713 34.475 59.293l4.199 10.129c2.309 5.572 4.639 11.2 7.008 16.854-12.561-1.389-25.631-2.525-38.869-3.161-1.656-.08-3.521-.191-5.553-.313-6.365-.379-14.291-.848-22.764-.848-17.963 0-43.621 1.859-58.957 17.938-7.697 8.071-11.482 18.275-10.664 28.731.889 11.338 7.055 21.923 17.361 29.803 7.67 5.862 15.342 9.162 22.111 12.07 2.74 1.179 5.33 2.292 7.664 3.477 2.816 1.428 5.557 3.304 8.225 5.515-34.223 14.194-64.105 35.609-87.699 63.062-55.112 64.126-67.917 163.792-32.622 253.911z" fill="#fff"/><g><path d="m101.189 684.105c32.91 84.029 128.244 133.051 215.563 131.619 20.211-.332 40.24-4.5 59.438-10.602 37.287 38.354 89.061 62.701 145.875 68.068 102.904 9.719 200.609-44.273 235.814-142.746 3.738-10.453 6.535-21.209 8.695-32.1.691.061 1.451-.049 2.277-.375 77.225-30.662 130.543-105.145 139.031-187.127 7.471-72.154-23.018-150.436-79.65-196.098-56.809-45.802-136.215-61.457-206.645-45.008-23.906 5.582-45.615 15.131-64.811 27.824-6.373-18.55-17.957-34.977-29.629-50.562-16.6-22.16-21.672-51.776-31.145-77.309-5.672-15.287-32.527-68.515-56.502-46.697-11.07 10.073-2.662 37.064-1.748 48.096 1.846 22.226 1.025 44.63-.275 66.973-34.824-32.375-78.348-54.859-118.473-78.305-17.461-10.2-33.506-22.579-50.852-32.733-11.732-6.868-26.264-7.693-31.367 6.731-5.797 16.386 7.477 35.882 16.908 47.692 16.488 20.646 27.67 40.508 37.865 65.029 9.135 21.966 18.055 44 28.053 65.406-26.193-3.914-52.424-7.29-78.912-8.561-17.039-.819-55.301-4.793-68.842 9.406-7.482 7.847-4.135 16.922 3.918 23.079 8.01 6.123 17.129 8.687 26.064 13.216 16.035 8.125 28.209 23.622 38.637 38.292-42.348 10.65-81.467 33.03-110.795 67.155-53.31 62.036-57.322 156.024-28.492 229.637z" fill="#68182b"/><path d="m404.873 445.34c15.799 4.967 29.773 19.002 40.523 30.93 12.389 13.753 21.643 31.408 21.301 50.244-.305 16.945-26.682 18.76-38.814 21.504-30.846 6.953-61.301 14.867-91.938 22.592-25.209 6.359-1.615-28.766 3.178-38.053 9.064-17.563 18.936-34.684 27.65-52.428 8.411-17.126 13.415-42.548 38.1-34.789z" fill="#ff801d"/><path d="m363.496 399.561c-86.855-23.012-192.916.93-241.076 83.092-38.518 65.717-38.439 156.408.439 222.303 47.682 80.816 157.283 116.574 245.396 91.539-25.51-29.326-43.016-65.85-48.896-107.668-2.596-18.467-2.873-37.666-.75-56.383-6.758-6.965-16.584-17.23-13.711-26.893 2.268-7.621 12.68-9.518 20.596-10.389 2.496-7.279 6.723-13.283 15.166-15.076 12.572-2.668 26.869-1.619 41.076.283 18.295-5.006 36.822-8.908 55.326-13.121 10.518-2.396 22.832-7.459 33.871-7.215 16.898.377 18.916 18.656 19.264 32.924 4.85.658 9.695 1.359 14.537 2.119 4.465.75 8.883 1.414 13.268 2-1.604-95.111-62.361-173.104-154.506-197.515zm-220.467 84.794c9.158-13.532 26.82-36.669 45.932-34.737 21.631 2.188 29.932 28.408 38.246 45.022 9.143 17.172 22.453 32.096 33.322 48.166 6.096 9.01 19.961 25.68 16.895 37.871-3.92 15.582-33.82 5.697-43.305 4.529-29.754-3.666-59.424-8-89.275-10.826-47.229-4.472-16.567-68.224-1.815-90.025zm5.405 223.508c-16.004-10.801-26.363-33.992-31.785-51.734-5.115-16.732-12.438-48.514 3.104-62.514 12.906-11.629 32.826-6.156 48.32-3.854 17.207 2.082 34.922.271 52.199.318 12.713.031 33.154-2.012 44.334 5.869 10.346 7.295 2.414 16.578-3.852 23.686-19.66 22.307-40.111 43.891-59.84 66.131-14.978 16.887-28.816 38.071-52.48 22.098zm170.359 13.664c3.012 15.434 13.871 43.094 1.795 57.131-10.893 12.654-28.084 10.219-42.971 7.873-24.355-3.836-48.25-10.637-69.762-22.889-.127-.064-.254-.135-.385-.219-.125-.072-.242-.15-.352-.23-46.666-30.588 3.736-77.98 28.764-104.84 12.707-13.641 26.18-32.879 41.744-43.15 15.758-10.398 21.572.965 24.188 16.244 5.159 30.125 11.129 60.084 16.979 90.08zm-21.377-145.308c-15.34 4.889-24.479-25.477-29.41-34.129-15.203-26.668-33.1-52.616-46.568-80.198-23.332-47.772 52.053-54.005 82.203-53.853 15.207.076 46.852.14 55.957 15.763 11.762 20.185-8.031 47.557-17.842 64.421-9.719 17.479-15.016 37.545-22.723 55.953-3.988 9.533-10.244 28.422-21.617 32.043zm173.5-40.672c-7.482 13.943-27.67 15.467-41.354 18.563-23.543 5.309-47.236 10.125-70.504 16.566-6.678 1.85-36.389 15.074-41.451 3.518-1.967-4.492-.957-8.918.9-13.363 5.158-12.355 11.33-24.328 17.613-36.139 6.938-13.041 14.232-25.908 20.887-39.096 5.635-11.171 9.518-24.44 16.43-34.815 23.764-35.67 70.176 9.46 85.188 32.279 8.572 13.033 20.836 36.569 12.291 52.487z" fill="#fbf199"/><path d="m314.057 776.584c-9.574 11.125-34.939 4.027-46.787 1.744-19.771-3.807-39.123-10.334-56.609-20.359-42.855-27.723 10.545-74.602 32.691-98.369 8.404-9.02 16.996-17.84 25.127-27.109 5.996-6.84 22.072-23.852 26.227-5.414 2.52 11.189 3.908 22.76 5.969 34.053 3.232 17.697 6.754 35.342 10.24 52.992 3.355 16.991 15.659 47.917 3.142 62.462z" fill="#ff801d"/><path d="m397.781 582.744c20.102-4.941 40.404-9.012 60.496-14.039 5.563-1.393 12.365-3.832 17.965-1.377 7.055 3.088 7.799 15.537 7.787 24.816-21.734-2.779-43.557-4.725-65.402-6.654-6.566-.58-13.6-1.631-20.846-2.746z" fill="#ff801d"/><path d="m445.35 320.522c3.703 5.66 8.744 10.64 14.371 14.624 5.996 4.246 13.434 6.338 20.244 8.857 14.404 5.334 19.256 10.52 12.393 22.24-9.855 16.851-17.574 35.153-22.961 54.408-17.596-31.675-23.147-65.473-24.047-100.129z" fill="#b1d045"/><path d="m465.818 435.172c-.664 3.104-1.27 6.23-1.814 9.376-17.881-17.258-39.063-31.646-63.021-42.557-17.58-8.005-20.928-9.999-36.592-32.017 7.242 3.426 15.666 5.2 22.574 6.26 11.439 1.755 22.998 1.74 34.377 4.091 22.279 4.6 25.984 17.371 30.35 27.844 3.809 9.128 8.379 18.019 13.846 26.603.091.139.183.273.28.4z" fill="#b1d045"/><path d="m518.053 252.315c9.379 13.469 19.479 26.572 26.027 41.602 4.021 9.222.619 11.984-6.936 18.447-11.732 10.042-22.27 21.384-31.498 33.783-13.191-36.916-17.025-52.339-3.309-88.208 2.689-7.028 4.928-14.835 5.916-22.731 2.811 5.931 6.015 11.671 9.8 17.107z" fill="#b1d045"/><path d="m460.752 133.13c5.971 4.711 10.838 12.403 14.277 17.587 11.234 16.937 16.311 37.599 22.555 56.706 6.254 19.14 8.904 17.86 6.242 31.885-1.855 9.783-6.094 18.916-9.164 28.33-1.861 5.706-3.367 12-4.254 18.461-3.182-17.935-5.578-36.058-8.154-54.235-4.393-31.019-10.65-64.728-25.402-93.085-4.305-8.274-4.973-12.64 3.9-5.649z" fill="#b1d045"/><path d="m451.354 141.932c14.424 27.934 20.295 61.096 24.809 91.612.607 4.107 1.199 8.211 1.789 12.309-3.23-5.068-7.326-9.782-11.928-14.417-14.379-14.48-16.334-25.041-16.699-41.633-.268-12.152-1.09-24.219-2.779-36.141-.234-1.642-1.512-7.179-1.73-12.59-.533-13.148 3.338-5.334 6.538.86z" fill="#b1d045"/><path d="m449.217 214.332c1.629 3.1 3.502 6.066 5.424 8.855 4.502 6.528 10.92 11.846 16.275 17.652 10.377 11.241 9.533 22.958 11.982 37.976 3.912 23.988 8.863 47.68 17.303 70.804-5.652-5.189-18.234-9.301-21.402-10.459-9.861-3.608-18.059-6.84-25.803-14.387-18.557-18.08-5.676-40.147-3.779-110.441z" fill="#b1d045"/><path d="m436.26 379.449c-21.348-9.69-77.588 1.924-100.047-54.258-2.574-6.43-3.908-11.371 5.916-8.149 5.045 1.653 10.244 2.769 15.088 3.517 11.49 1.773 23.121 2.422 34.521 4.785 20.844 4.319 33.768 22.801 45.408 42.842 7.553 13.007 5.391 14.112-.886 11.263z" fill="#b1d045"/><path d="m357.055 386.853c-16.703-4.012-33.801-6.245-50.91-6.702 4.857-2.628 9.432-5.792 14.332-8.365 14.166-7.45 19.955-2.118 36.029 5.095 1.662 2.335 3.361 4.651 5.1 6.946 4.265 5.634.822 4.318-4.551 3.026z" fill="#b1d045"/><path d="m418.092 235.154c6.467 5.289 12.676 10.845 18.541 16.726-.51 8.09-1.023 16.167-1.438 24.218-1.393 27.078-1.357 54.66 2.705 81.363-11.652-17.784-20.354-23.594-23.75-39.062-3.105-14.146.121-29.497 1.289-43.689.951-11.564.033-24.094-3.232-35.863-1.762-6.365-1.748-9.94 5.885-3.693z" fill="#b1d045"/><path d="m363.658 197.858c33.053 18.961 39.754 22.531 45.898 46.647 3.68 14.449 1.83 29.5.344 44.104-1.168 11.468-1.246 22.936 1.215 33.479-3.498-4.404-6.953-8.825-10.266-13.317-7.494-10.157-15.166-17.597-21.711-26.971-12.086-17.305-12.994-31.469-16.059-60.888-.727-6.975-3.008-13.88-6.293-20.382-4.647-9.197.036-6.592 6.872-2.672z" fill="#b1d045"/><path d="m326.287 176.211c12.318 7.197 20.211 13.895 25.824 23.461 6.496 11.075 7.281 22.703 7.799 35.213.299 7.26 1.209 16.869 3.613 25.873-3.547-3.991-7.211-7.897-11.039-11.694-11.58-11.488-22.438-23.561-32.973-35.89-1.111-1.623-2.184-3.274-3.164-4.983-4.373-7.617-6.215-16.149-7.402-24.75-.984-7.121-2.662-14.181-5.748-20.454 7.678 4.49 15.483 8.781 23.09 13.224z" fill="#b1d045"/><path d="m262.74 135.631c7.299 3.635 13.865 9.876 20.088 14.344 13.678 9.819 16.145 7.999 20.018 22.377 2.174 8.069 2.111 16.561 4.176 24.682.162.638.342 1.277.531 1.917-15.672-18.891-30.973-38.097-47.314-56.498-5.055-5.696-8.352-12.22 2.501-6.822z" fill="#b1d045"/><path d="m285.623 207.949c-8.813-17.312-22.889-29.871-33.189-46.103-1.547-2.438-4.32-9.016-5.5-15.289-1.441-7.701 1.361-8.153 9.465 1.309 28.051 32.748 52.049 69.662 84.014 98.486 2.121 1.913 4.193 3.865 6.227 5.846-3.691-1.106-7.586-1.685-11.557-1.707-10.246-.056-19.209-.969-28.328-6.027-11.454-6.354-8.622-11.937-21.132-36.515z" fill="#b1d045"/><path d="m307.75 258.443c-1.539-3.785-3.076-7.571-4.627-11.353 3.039 2.112 6.285 3.8 9.586 4.925 8.492 2.89 16.807 2.861 25.697 2.933 17.902.143 35.328 27.261 53.967 52.887 4.102 5.638 8.438 11.161 12.828 16.669-9.74-3.937-21.305-5.282-29.998-6.162-11.195-1.132-22.438-1.809-33.283-5.02-15.488-4.585-20.594-21.492-34.17-54.879z" fill="#b1d045"/><path d="m325.086 323.293c5.879 11.935 12.182 23.632 19.129 34.964 3.471 5.658 2.068 7.277-8.625 3.161-9.035-3.484-14.193-5.301-19.037-13.361-3.268-5.435-5.633-11.419-8.418-17.104-1.688-3.445-4.006-7.679-6.939-11.235 7.978 1.136 15.937 2.353 23.89 3.575z" fill="#b1d045"/><path d="m254.701 314.639c36.133 2.313 35.867 1.745 42.342 9.076 3.979 4.509 6.43 10.509 8.926 15.904 1.611 3.488 3.92 9.122 7.08 13.606-13.527-4.648-27.17-8.921-40.707-13.017-7.363-2.226-17.195-1.857-36.109-26.761-.029-.037-.061-.076-.09-.115 6.521.414 12.808.939 18.558 1.307z" fill="#b1d045"/><path d="m183.881 318.062c36.557-15.012 45.475-5.755 54.029 6.189 3.648 5.096 4.098 6.753-2.602 4.931-18.111-4.924-36.516-8.683-55.168-8.812.762-.807 1.973-1.582 3.741-2.308z" fill="#b1d045"/><path d="m194.342 334.194c-1.979-.783-9.297-3.894-13.027-7.489 29.359.483 58.004 10.194 85.971 18.589-3.494.442-6.984 1.121-10.41 1.798-7.611 1.506-15.029 3.254-22.795 3.838-15.589 1.171-16.874-7.668-39.739-16.736z" fill="#b1d045"/><path d="m226.299 354.133c5.572 1.055 11.504.839 17.018-.033 30.828-4.875 36.293-5.254 51.65-.323 6.201 1.989 12.395 4.049 18.563 6.193 9.598 3.347 8.787 6.479 1.168 10.04-17.307 8.088-31.287 8.434-47.314 11.19-10.518 1.81-16.318 2.661-22.596-5.791-5.62-7.556-11.649-14.898-18.489-21.276z" fill="#b1d045"/><path d="m323.717 601.674c-1.061 4.842-1.725 9.854-2.592 14.318-.545 2.811-1.029 5.641-1.461 8.486-4.342-4.629-8.635-10.061-8.969-15.621-.273-4.568 7.041-6.369 13.022-7.183z" fill="#ff801d"/><path d="m138.748 504.707c8.023-16.786 19.145-32.977 34.803-43.403 26.631-17.739 38.811 17.691 48.113 36.347.027.061.059.119.088.18.033.063.066.127.102.186 12.057 22.568 30.301 41.457 43.129 63.637 2.607 4.504 4.846 9.213 6.104 14.277 2.588 10.43-15.678 5.428-20.381 4.906-21.586-2.396-43.104-5.359-64.645-8.137-19.094-2.459-58.16 1.617-60.477-23.475-1.346-14.586 7.131-31.893 13.164-44.518z" fill="#ff801d"/><path d="m238.609 425.061c13.779-5.743 29.656-7.874 44.346-9.524 18.303-2.057 37.26-1.938 55.104 2.928 35.176 9.587 9.768 46.752-1.758 66.57-12.346 22.202-17.885 47.737-29.412 70.403-2.338 4.594-5.047 9.039-8.627 12.77-7.59 7.91-13.902-9.854-16.402-14.369-11.611-20.961-23.789-41.6-35.936-62.254-11.084-18.851-39.151-53.256-7.315-66.524z" fill="#ff801d"/><path d="m184.232 695.262c-22.633 26.246-41.922.529-53.184-20.801-10.041-19.02-16.066-41.627-12.617-63.1 4.023-25.049 30.506-18.039 48.449-15.434.145.02.285.033.422.037.135.029.273.057.418.076 22.434 2.785 45.561-.225 68.127.654 4.654.182 29.18.346 27.572 8.805-1.475 7.777-13.436 16.809-18.539 22.523-7.857 8.801-15.834 17.494-23.809 26.188-12.428 13.554-24.829 27.124-36.839 41.052z" fill="#ff801d"/><path d="m608.764 824.195c-2.938 15.232-29.15 17.781-40.949 18.918-17.623 1.693-35.691.273-53.09-2.68-7.979-1.354-15.832-3.355-23.506-5.906-22.494-7.482-12.676-27.293-5.242-42.135 22.176-44.277 38.43-91.426 57.174-137.189 2.326-5.48 9.736-22.611 17.037-10.6 7.049 11.594 9.025 29.043 12.105 42.117 6.014 25.521 10.984 51.262 17.719 76.613 3.057 11.504 6.721 22.822 10.889 33.969 3.156 8.452 9.673 17.507 7.863 26.893z" fill="#ff801d"/><path d="m365.25 692.9c-9.15-3.941-11.615-17.918-13.074-26.502-3.002-17.654-3.408-48.348 10.609-61.92 4.951-4.795 16.316-.109 22.213.832 9.611 1.535 19.18 3.383 28.76 5.1 21.738 3.895 43.523 6.795 65.619 7.461 1.311.057 17.734.219 13.664 5.121-2.561 3.08-6.402 5.131-9.734 7.252-7.207 4.586-15.053 8.18-22.451 12.449-17.26 9.967-33.684 21.373-50.664 31.805-10.219 6.277-32.223 23.879-44.942 18.402z" fill="#ff801d"/><path d="m444.232 812.195c-13.996 3.213-29.662-11.117-38.674-19.744-9.883-9.461-52.494-59.305-31.205-73.094 9.289-6.016 20.754-9.914 30.533-15.258 12.732-6.959 25.115-14.559 37.377-22.309 22.756-14.383 44.861-29.889 65.998-46.568 4.385-3.297 16.84-13.889 20.389-4.51 1.969 5.197-1.449 11.809-3.566 16.262-5.953 12.525-11.604 25.195-17.217 37.875-11.834 26.742-23.199 53.689-34.676 80.586-5.865 13.751-11.851 42.835-28.959 46.76z" fill="#ff801d"/><path d="m817.953 320.026c-54.303-39.625-127.74-57.42-193.564-40.133-84.387 22.161-138.854 88.757-151.277 174.005 34.787 38 54.852 87.979 55.441 144.439 32.559 3.436 63.668 2.492 97.408-1.299 32.586-3.66 65.301-2.791 97.943-.248 14.736 1.148 35.191-1.186 44.791 12.459 9.838 13.984 4.029 45.652 2.16 61.451-.635 5.359-1.363 10.717-2.215 16.061 73.688-30.527 127.498-107.486 129.447-187.492 1.624-66.581-24.88-138.922-80.134-179.243zm-4.683 96.027c-.047.109-.094.214-.143.316-.1.311-.227.626-.389.94-6.201 12.048-19.691 18.021-32.91 12.262-13.785-6.009-19.758-21.146-15.129-35.094 5.082-15.304 21.209-20.528 34.137-10.616 8.959 6.87 19.443 20.099 14.434 32.192z" fill="#ff801d"/><path d="m773.602 401.658c.65-4.351 2.98-8.962 6.537-11.624 3.977-2.977 10.037.706 13.381 2.921 5.516 3.655 12.035 12.517 9.881 19.504-3.762 6.994-8.949 9.785-17.52 8.113-8.174-1.596-13.447-11.134-12.279-18.914z" fill="#fbf199"/><path d="m706.035 759.813c-12.836 20.713-42.146 50.512-68.371 51.404-8.381.287-10.9-10.449-13.768-16.48-6.395-13.451-11.18-27.664-15.631-41.855-8.889-28.34-14.967-57.531-21.164-86.545-1.285-5.645-2.768-11.234-3.955-16.902-1.285-6.119-5.396-22.588 5.322-14.141 20.627 16.258 39.029 35.406 59.357 52.082 18.504 15.178 38.094 25.795 58.912 37.145 13.986 7.624 5.38 25.479-.702 35.292z" fill="#ff801d"/><path d="m746.082 609.143c-12.398-1.063-24.805-2.15-37.23-2.848-25.078-1.408-50.518-2.359-75.541.449-45.248 5.086-86.445 6.041-131.373-1.512-30.203-4.732-60.613-7.082-91.031-9.904-14.121-1.311-70.264-15.5-75.598 5.465-12.059 47.391-10.533 101.529 11.246 146.105 44.756 91.611 154.754 133.334 251.674 110.748 51.875-12.088 100.586-39.818 128.795-86.406 22.094-36.484 33.488-78.684 34.941-121.254.492-14.425 4.869-39.062-15.883-40.843zm-395.414 75.535c-9.727-21.383-9.777-58.768 3.166-79.035 7.246-11.35 15.998-9.117 28.246-7.16 32.428 5.182 64.346 12.074 97.297 13.068 7.289.322 31.227 3.619 18.133 15.91-7.604 7.133-16.988 11.459-26.016 16.471-12.402 6.885-24.299 14.592-36.236 22.244-12.877 8.252-25.748 16.695-39.289 23.836-7.141 3.764-15.736 9.625-24.121 10.143-10.475.646-17.118-6.544-21.18-15.477zm104.478 129.398c-10.561 8.541-25.563 3.873-35.84-2.641-16.619-10.535-30.48-25.934-40.891-42.541-7.475-11.922-16.939-28.053-14.799-42.824.691-4.783 2.967-9.893 7.549-12.17 12.984-6.451 26.014-12.518 38.592-19.795 32.855-19.006 64.67-40.139 94.459-63.684.105-.082.209-.156.318-.227.1-.092.207-.18.322-.268 5.727-4.242 18.131-13.709 25.758-7.172 5.664 4.857 5.842 13.764 3.1 20.338-13.328 31.955-28.494 63.238-42.098 95.107-7.104 16.65-14.146 33.324-21.34 49.934-3.971 9.176-7.094 19.443-15.13 25.943zm134.182 31.731c-21.301 5.566-43.846 5.012-65.535 2.355-16.326-2-43.676-4.592-52.174-20.994-4.656-8.984.873-21.695 4.859-29.813 6.934-14.123 13.662-28.299 19.82-42.781 14.23-33.469 27.021-67.518 40.807-101.168.055-.133.117-.26.184-.381.037-.123.082-.248.135-.373 3.578-8.381 16.645-30.283 26.389-14.254 8.299 13.65 11.035 31.264 14.574 46.645 3.914 17.021 7.418 34.135 11.393 51.143 4.309 18.439 8.824 36.996 15.465 54.762 3.348 8.959 11.014 20.109 10.236 30.248-1.073 14.029-13.639 21.343-26.153 24.611zm126.791-91.094c-8.281 16.742-21.945 31.232-36.594 42.625-11.063 8.604-25.566 19.643-40.305 20.145-18.436.627-23.666-24.898-28.74-38.561-13.355-35.957-21.477-73.473-29.471-110.906-1.836-8.047-12.387-35.441-2.396-41.438 5.092-3.057 10.428.893 14.324 4.248 13.326 11.477 26.152 23.516 39.383 35.105 15.365 13.463 31.057 26.971 48.449 37.785 10.066 6.26 24.404 9.943 32.947 18.107 9.423 9.007 7.768 22.046 2.403 32.89zm27.658-63.883c-2.92 8.658-8.631 23.965-20.102 24.004-7.453.023-14.285-4.543-20.58-8.072-11.678-6.553-23.025-13.664-34.012-21.326-19.6-13.666-38.428-28.332-57.145-43.174-5.246-4.172-23.559-16.199-11.27-22.945 8.018-4.4 21.643-2.342 30.264-2.688 13.979-.561 27.963-1.199 41.953-1.49 16.119-.332 71.166-6.668 74.924 19.359 2.646 18.32 1.931 38.647-4.032 56.332z" fill="#fbf199"/><path d="m737.682 689.15c-1.766 6.045-4.463 11.816-8.746 16.473-7.092 7.713-20.135-2.91-26.865-6.684-30.576-17.15-58.273-39.428-85.664-61.145-.699-.557-15.908-11.975-10.65-13.445 9.283-2.598 21.221-1.244 30.84-1.629 18.053-.725 36.104-1.471 54.172-1.457 12.084.01 24.357.416 36.158 3.207 13.926 3.293 15.385 11.592 15.906 24.709.534 13.458-1.38 27.077-5.151 39.971z" fill="#ff801d"/><path d="m300.682 190.609c2.287 2.783 4.57 5.57 6.871 8.341-.189-.64-.369-1.279-.531-1.917-2.064-8.121-2.002-16.612-4.176-24.682-3.873-14.378-6.34-12.558-20.018-22.377-.545-.392-1.096-.811-1.646-1.225 6.025 8.004 10.494 16.966 14.35 26.738 1.958 4.973 3.484 10.069 5.15 15.122z" fill="#abab38"/><path d="m272.342 340.209c13.537 4.096 27.18 8.368 40.707 13.017-3.16-4.484-5.469-10.118-7.08-13.606-1.057-2.283-2.127-4.666-3.285-7.007-10.727 3.501-19.893 3.071-31.535-.646-10.389-3.313-20.084-9.548-30.406-12.876 15.999 19.158 24.847 19.078 31.599 21.118z" fill="#abab38"/><path d="m331.23 179.242c10.498 12.83 16.617 27.541 20.023 44.566 1.859 9.291 2.25 19.578 4.768 28.888 2.557 2.647 5.07 5.325 7.502 8.062-2.404-9.004-3.314-18.613-3.613-25.873-.518-12.51-1.303-24.138-7.799-35.213-4.818-8.215-11.341-14.315-20.881-20.43z" fill="#abab38"/><path d="m452.996 324.773c7.744 7.547 15.941 10.778 25.803 14.387 3.168 1.158 15.75 5.27 21.402 10.459-.613-1.68-1.17-3.371-1.748-5.058-2.572-4.209-5.734-8.117-9.605-11.678-11.818-10.866-26.402-16.083-34.016-31.183-10.127-20.082-6.195-43.172-6.635-65.175-3.41 53.05-11.644 72.229 4.799 88.248z" fill="#abab38"/><path d="m448.637 174.438c.334 5.105.576 10.226.688 15.365.365 16.592 2.32 27.152 16.699 41.633 3.705 3.731 7.053 7.522 9.914 11.5.688.79 1.346 1.595 1.941 2.417-.518-3.591-1.037-7.188-1.568-10.79-4.557-8.695-10.746-16.824-15.473-25.048-6.135-10.669-9.541-22.773-12.201-35.077z" fill="#abab38"/><path d="m327.514 295.81c-2.984-2.505-5.549-5.297-7.836-8.267 6.479 14.557 12.166 22.797 22.242 25.779 10.846 3.211 22.088 3.888 33.283 5.02 8.693.88 20.258 2.226 29.998 6.162-3.068-3.849-6.076-7.722-9.029-11.617-9.268-3.402-20.643-3.188-29.867-3.958-13.864-1.154-27.873-3.953-38.791-13.119z" fill="#abab38"/><path d="m404.057 284.061c-.529 8.409-1.182 19.461.518 29.544 2.168 2.834 4.311 5.68 6.541 8.485-2.461-10.544-2.383-22.012-1.215-33.479 1.486-14.604 3.336-29.655-.344-44.104-5.057-19.842-10.523-25.79-30.699-37.832 6.566 7.121 12.977 14.275 17.896 22.89 9.373 16.409 8.445 36.318 7.303 54.496z" fill="#abab38"/><path d="m427.045 315.361c-.252 9.57.236 20.646 2.863 30.875 2.463 3.235 5.137 6.868 7.992 11.225-4.063-26.703-4.098-54.285-2.705-81.363.414-8.051.928-16.128 1.438-24.218-3.193-3.203-6.508-6.293-9.891-9.31 5.135 23.911.965 47.828.303 72.791z" fill="#abab38"/><path d="m267.383 381.2c16.027-2.757 30.008-3.103 47.314-11.19 6.441-3.009 7.988-5.714 2.525-8.499-11.971-.076-22.189 4.906-34.324 8.668-10.586 3.283-21.609 4.044-32.48 1.921-5.262-1.026-9.865-4.13-14.193-7.497 2.98 3.494 5.822 7.123 8.563 10.807 6.276 8.451 12.077 7.6 22.595 5.79z" fill="#abab38"/><path d="m537.145 312.364c7.555-6.463 10.957-9.226 6.936-18.447-5.816-13.347-14.43-25.175-22.854-37.089 3.301 9.448 4.707 19.729 5.43 29.425 1.012 13.648-.564 27.026-4.088 39.975 4.642-4.84 9.472-9.497 14.576-13.864z" fill="#abab38"/><path d="m234.08 350.93c7.766-.584 15.184-2.332 22.795-3.838 3.426-.677 6.916-1.355 10.41-1.798-5.408-1.623-10.848-3.287-16.307-4.933-2.342.142-4.684.36-7.027.685-8.275 1.15-15.863 3.74-24.363 3.326-2.488-.121-4.9-.473-7.281-.934 7.662 4.883 11.8 8.241 21.773 7.492z" fill="#abab38"/><path d="m477.75 155.22c6.293 15.295 10.502 31.189 12.637 48.225 1.574 12.57 1.611 25.208 1.455 37.853-.076 6.065-.08 12.125.082 18.189.119 4.486.986 8.813 1.328 13.216.465-1.699.883-3.449 1.41-5.064 3.07-9.414 7.309-18.547 9.164-28.33 2.662-14.024.012-12.745-6.242-31.885-5.705-17.458-10.492-36.179-19.834-52.204z" fill="#abab38"/><path d="m316.553 348.057c4.844 8.061 10.002 9.877 19.037 13.361 10.693 4.116 12.096 2.497 8.625-3.161-.891-1.454-1.744-2.93-2.613-4.396-15.023-1.604-25.313-11.706-34.217-24.375.252.491.521.999.75 1.467 2.785 5.685 5.15 11.669 8.418 17.104z" fill="#abab38"/><path d="m407.262 405.007c21.383 10.501 40.447 23.813 56.742 39.541.545-3.146 1.15-6.271 1.814-9.376-.098-.127-.189-.261-.281-.4-3.268-5.133-6.178-10.384-8.836-15.72-4.535-2.479-9.184-4.531-13.688-6.017-11.169-3.683-23.845-5.167-35.751-8.028z" fill="#abab38"/><path d="m436.26 379.449c5.672 2.575 7.957 1.889 2.777-7.861-5.727-4.555-12.777-7.783-20.645-9.696-14.465-3.518-29.459-3.89-43.877-7.848-15.336-4.211-27.994-13.45-37.043-25.954 23.219 52.828 77.821 41.842 98.788 51.359z" fill="#abab38"/><path d="m237.91 324.251c-1.352-1.888-2.729-3.692-4.207-5.36-12.707-3.935-28.057-1.882-40.68 2.138 14.252 1.287 28.357 4.366 42.285 8.153 6.7 1.822 6.251.165 2.602-4.931z" fill="#abab38"/><path d="m469.781 380.957c-11.047-6.409-18.223-19.475-22.559-32.88 2.867 24.998 9.277 49.358 22.174 72.575 3.439-12.29 7.93-24.135 13.217-35.518-4.552-.569-8.918-1.906-12.832-4.177z" fill="#abab38"/><path d="m361.605 383.826c-1.738-2.295-3.438-4.611-5.1-6.946-2.768-1.242-5.213-2.419-7.465-3.494-4.488 2.419-9.311 3.143-15.572 3.756-4.949.481-9.801 1.867-14.475 3.688 12.803 1.01 25.541 3.017 38.061 6.022 5.374 1.293 8.817 2.609 4.551-3.026z" fill="#abab38"/><path d="m252.434 161.847c10.301 16.231 24.377 28.791 33.189 46.103 12.51 24.578 9.678 30.161 21.131 36.515 9.119 5.059 18.082 5.972 28.328 6.027 3.971.022 7.865.601 11.557 1.707-1.904-1.857-3.855-3.684-5.84-5.481-3.977-.825-8.273-.87-12.393-1.072-19.455-.948-26.387-18.979-32.902-34.25-5.131-12.035-13.295-21.616-22.361-30.868-4.885-4.986-10.01-9.699-14.639-14.932-5.588-6.316-8.342-13.522-11.813-20.847.061.569.115 1.125.242 1.81 1.18 6.272 3.954 12.85 5.501 15.288z" fill="#abab38"/><path d="m785.881 420.572c8.57 1.672 13.758-1.119 17.52-8.113.896-2.904.246-6.119-1.16-9.161-1.596 2.598-3.686 4.856-6.275 6.463-5.867 3.641-11.943.227-16.18-4.131-2.789-2.867-4.105-6.216-4.34-9.65-.896 1.824-1.559 3.766-1.844 5.679-1.168 7.779 4.105 17.317 12.279 18.913z" fill="#f3af79"/><path d="m598.229 857.646c51.875-12.088 100.586-39.818 128.795-86.406 22.094-36.484 33.488-78.684 34.941-121.254.281-8.27 1.818-19.877-.811-28.627 1.293 23.158-4.738 47.646-10.15 68.988-7.428 29.271-18.328 61.176-35.197 86.381-16.432 24.557-43.348 43.086-69.406 56.045-28.309 14.082-59.262 20.117-90.664 21.533-61.305 2.762-127.082-16.254-170.051-61.59-18.887-19.926-32.357-44.48-41.811-70.096-10.449-28.311-10.773-58.652-13.109-88.385-.189-2.41-.395-4.855-.588-7.311-5.705 40.424-1.486 83.412 16.377 119.973 44.756 91.613 154.754 133.335 251.674 110.749z" fill="#f3af79"/><path d="m368.256 796.494c-4.027-4.631-7.83-9.461-11.443-14.441-12.914 10.387-31.381 13.406-47.445 14.48-24.029 1.604-48.121-3.248-70.697-11.188-47.223-16.605-90.541-48.896-113.752-93.721-21.342-41.217-25.924-88.76-21.588-134.352 2.525-26.549 10.236-51.672 23.127-75.018 5.445-9.863 11.631-19.331 17.988-28.627.613-.898 1.303-1.728 1.949-2.596-9.01 9.388-17.1 19.891-23.975 31.619-38.518 65.717-38.439 156.408.439 222.303 47.682 80.818 157.284 116.576 245.397 91.541z" fill="#f3af79"/><path d="m358.67 564.857c23.012-5.832 46.004-11.607 69.213-16.84 12.133-2.744 38.51-4.559 38.814-21.504.342-18.836-8.912-36.491-21.301-50.244-1.865-2.071-3.863-4.206-5.916-6.346 8.576 17.094 14.324 35.82 6.043 51.135-4.746 8.781-17.041 13.086-25.383 17.432-10.139 5.285-20.516 10.107-30.971 14.729-9.981 4.412-20.233 8.052-30.499 11.638z" fill="#ef6200"/><path d="m728.936 705.623c4.283-4.656 6.98-10.428 8.746-16.473 3.771-12.895 5.686-26.514 5.15-39.971-.043-1.086-.098-2.127-.16-3.146-3.387 5.809-8.004 10.934-14.193 15.215-14.338 9.916-31.703 8.902-47.742 4.574-21.361-5.764-42.598-14.992-62.164-26.311 26.688 21.17 53.727 42.727 83.498 59.428 6.73 3.774 19.773 14.397 26.865 6.684z" fill="#ef6200"/><path d="m321.125 615.992c.047-.232.086-.498.129-.734-2.172-.42-4.236-1.592-6.342-3.746-1.4-1.432-2.561-3.158-3.492-5.021-.471.699-.777 1.467-.725 2.367.334 5.561 4.627 10.992 8.969 15.621.432-2.846.916-5.676 1.461-8.487z" fill="#ef6200"/><path d="m444.232 812.195c17.107-3.926 23.094-33.01 28.959-46.76 1.725-4.039 3.447-8.08 5.17-12.121-10.662 13.789-23.328 26.877-40.27 30.727-36.92 8.391-59.92-42.943-46.549-73.525-5.963 2.699-11.924 5.43-17.189 8.842-21.289 13.789 21.322 63.633 31.205 73.094 9.012 8.626 24.678 22.956 38.674 19.743z" fill="#ef6200"/><path d="m245.924 491.584c12.146 20.654 24.324 41.293 35.936 62.254 2.5 4.516 8.813 22.279 16.402 14.369 3.58-3.73 6.289-8.176 8.627-12.77 5.033-9.895 8.918-20.338 12.734-30.813-2.969 2.873-6.129 5.545-9.691 7.854-13.354 8.65-27.146.334-37.277-8.736-12.918-11.563-21.969-27.195-31.043-41.767-5.441-8.737-11.146-17.331-15.65-26.398 4.306 12.809 14.323 26.419 19.962 36.007z" fill="#ef6200"/><path d="m314.057 776.584c6.256-7.268 6.313-18.627 4.385-30.297-3.615 4.645-7.701 8.922-12.525 12.557-16.645 12.545-40.338 3.924-57.434-3.529-16.082-7.014-30.99-18.488-35.58-36.123-2.631-10.104-.518-20.211 2.984-30.117-19.395 23.08-33.979 50.295-5.227 68.895 17.486 10.025 36.838 16.553 56.609 20.359 11.848 2.282 37.213 9.38 46.788-1.745z" fill="#ef6200"/><path d="m352.176 666.398c1.459 8.584 3.924 22.561 13.074 26.502 12.719 5.477 34.723-12.125 44.941-18.402 10.592-6.508 20.982-13.367 31.479-20.047-13.447 4.725-27.236 8.449-40.9 11.301-13.873 2.893-30.332 2.275-41.109-7.961-4.922-4.674-7.631-11.611-8.957-19.199-.636 10.082.171 20.164 1.472 27.806z" fill="#ef6200"/><path d="m184.232 695.262c12.01-13.928 24.41-27.498 36.84-41.051 3.273-3.57 6.512-7.178 9.777-10.756-14.049 12.887-28.709 24.988-45.646 34.246-10.545 5.764-21.93 11.396-33.664 5.846-8.4-3.973-13.91-13.102-18.223-20.908-7.729-13.992-12.078-28.773-14.564-44.061.041-3.213.148-6.451.256-9.686-.199.813-.432 1.574-.576 2.469-3.449 21.473 2.576 44.08 12.617 63.1 11.262 21.33 30.551 47.047 53.183 20.801z" fill="#ef6200"/><path d="m768.641 686.762c37.615-15.584 70.027-43.281 93.029-77.293-2.377.928-4.799 1.773-7.268 2.518-27.168 8.154-50.141-2.564-72.238-17.555-8.982-6.092-17.779-12.131-28.08-15.746-10.244-3.594-21.518-4.109-32.26-4.055-24.428.131-48.5 5.186-72.992 5.082-54.537-.234-97.998-31.186-119.928-80.447-19.357-43.48-28.434-94.313-18.566-141.256-19.262 27.372-31.988 59.962-37.227 95.889 34.787 38 54.852 87.979 55.441 144.439 32.559 3.436 63.668 2.492 97.408-1.299 32.586-3.66 65.301-2.791 97.943-.248 14.736 1.148 35.191-1.186 44.791 12.459 9.838 13.984 4.029 45.652 2.16 61.451-.633 5.36-1.362 10.717-2.213 16.061z" fill="#ef6200"/><path d="m623.896 794.736c2.867 6.031 5.387 16.768 13.768 16.48 26.225-.893 55.535-30.691 68.371-51.404.604-.973 1.23-2.041 1.857-3.154-5 3.73-10.326 7.059-15.922 9.916-9.482 4.842-19.959 8.793-30.705 9.002-10.867.213-20.996-6.568-28.762-13.432-12.627-11.156-21.172-26.631-28.594-41.527-3.561-7.148-6.75-14.404-9.756-21.725 4.082 18.162 8.545 36.242 14.111 53.988 4.453 14.192 9.238 28.405 15.632 41.856z" fill="#ef6200"/><path d="m134.896 536.83c-2.551-4.404-3.775-9.217-4.125-14.215-3.422 8.83-5.967 18.168-5.188 26.609 2.316 25.092 41.383 21.016 60.477 23.475 21.541 2.777 43.059 5.74 64.645 8.137 4.703.521 22.969 5.523 20.381-4.906-1.133-4.559-3.078-8.816-5.354-12.91-11.283 7.469-24.207 7.682-38.814 6.545-17.07-1.326-34.395-4.807-51.115-8.537-15.776-3.52-32.41-9.518-40.907-24.198z" fill="#ef6200"/><path d="m468.662 580.328c-16.93.438-33.967 2.223-50.754 5.08.234.02.486.061.719.082 21.846 1.93 43.668 3.875 65.402 6.654.004-3.459-.098-7.361-.592-11.055-5.265-.872-10.812-.864-14.775-.761z" fill="#ef6200"/><path d="m485.977 792.393c-7.434 14.842-17.252 34.652 5.242 42.135 7.674 2.551 15.527 4.553 23.506 5.906 17.398 2.953 35.467 4.373 53.09 2.68 11.799-1.137 38.012-3.686 40.949-18.918 1.811-9.387-4.707-18.441-7.863-26.893-1.813-4.846-3.484-9.742-5.098-14.656-1.652 8.494-4.307 16.602-8.471 23.803-12.17 21.049-41.117 19.857-61.439 14.371-25.408-6.861-32.15-24.936-31.477-46.018-2.728 5.904-5.527 11.775-8.439 17.59z" fill="#ef6200"/><g fill="#facb1a"><path d="m771.848 359.04c-.518.568-.953 1.169-1.43 1.768-.807 1.022-.094 2.61 1.316 2.261 1.26-.313 1.902-1.063 2.643-2.076 1.09-1.488-1.309-3.288-2.529-1.953z"/><path d="m779.17 362.716c-.568.37-.486 1.249.189 1.444.902.264 3.977.033 3.525-1.603-.548-1.991-2.837-.407-3.714.159z"/><path d="m671.516 483.08c-1.395.951-2.572 1.777-3.613 3.166-1.5 2.001 1.273 3.882 3.063 3.064 2.137-.979 2.518-3.07 2.434-5.15-.037-.885-1.058-1.641-1.884-1.08z"/><path d="m678.967 489.576c1.549-1.415 1.338-3.631-.209-5.002-.176-.156-.406-.156-.58 0-1.547 1.371-1.76 3.587-.211 5.002.295.27.705.27 1 0z"/><path d="m841.908 500.99c-.318-.457-.945-.369-1.139.15-.193.359-.158.402.102.127-.209.125-.377.291-.5.5-.342.582-.268 1.412-.23 2.053.082 1.395.523 2.564 1.869 3.096.646.256 1.48-.16 1.799-.73.564-1.014.277-1.861-.16-2.855-.452-1.02-1.198-1.563-1.741-2.341z"/><path d="m846.859 498.492c-.182.043-.32.229-.314.412.049 2.342 2 4.166 4.35 3.598 1.061-.254 1.305-1.395.924-2.271-.846-1.95-3.081-2.188-4.96-1.739z"/><path d="m627.65 373.646c-2.266-.656-3.332 2.405-1.533 3.639 1.25.856 3.629 1.839 4.273 2.127.342.154.902.068.969-.393.096-.685.459-1.755-.23-2.74-.906-1.3-1.94-2.186-3.479-2.633z"/><path d="m637.662 368.801c-.5-.998-2.143-.998-2.643 0-1.053 2.098-.01 3.499.924 5.362.15.3.645.3.795 0 .934-1.863 1.977-3.265.924-5.362z"/><path d="m598.697 485.528c-1.211.924-2.971 1.345-4.328 2.036-2.686 1.366-.332 5.122 2.316 3.964 2.344-1.024 3.094-2.898 3.299-5.262.053-.604-.783-1.122-1.287-.738z"/><path d="m607.063 487.462c-.092-.093-.25-.117-.359-.045-1.104.697-1.971 1.516-2.654 2.641-.383.63-.338 2.129.545 2.382 2.364.676 3.981-3.427 2.468-4.978z"/><path d="m754.172 465.463c-1.34.302-1.846 1.999-2.156 3.172-.41 1.553-1.154 3.492-.277 4.965.391.656 1.168.803 1.824.478 1.932-.952 1.719-3.81 1.787-5.661.021-.56-.018-3.218-1.178-2.954z"/><path d="m762.695 469.351c-.443-1.232-1.227-3.1-2.783-3.137-.18-.005-.33.125-.381.29-.451 1.46-.615 2.731.105 4.136.862 1.676 3.702.502 3.059-1.289z"/><path d="m764.068 550.807c-1.502 1.406-2.871 2.912-3.523 4.91-.619 1.896 2.076 3.537 3.41 1.984 1.496-1.74 2.205-3.861 1.939-6.139-.103-.904-1.091-1.443-1.826-.755z"/><path d="m770.965 552.453c-.764 1.193-1.025 2.623-.994 4.025.053 2.42 3.697 2.42 3.752 0 .029-1.402-.23-2.832-.996-4.025-.422-.658-1.34-.658-1.762 0z"/><path d="m856.172 429.89c-1.607.132-3.074.811-4.1 2.092-.564.708-1.408 2.201-.189 2.835 1.717.893 4.311-.652 5.592-1.779 1.168-1.029.279-3.28-1.303-3.148z"/><path d="m861.613 437.375c-1.137.401-2.287.533-3.205 1.352-.273.245-.279.757 0 1 1.273 1.116 2.879 1.032 4.359.389 1.559-.679.438-3.303-1.154-2.741z"/><path d="m702.092 310.286c-.291-.238-.619-.238-.91 0-1.971 1.64-1.422 4.685-.197 6.611 1.34 2.106 4.699.16 3.354-1.96-.958-1.505-.792-3.449-2.247-4.651z"/><path d="m712.201 312.072c-.01-1.314-1.875-2.348-2.816-1.167-.645.811-.975 1.487-1.201 2.508-.102.452-.221 2.389-.496 2.679-.25.263-.006.752.369.631 1.254-.403 1.791.022 2.729-1.133.866-1.067 1.427-2.127 1.415-3.518z"/><path d="m563.328 416.759c.127-1.459.402-2.707.379-4.198-.021-1.586-.072-3.285-.447-4.83-.609-2.516-3.85-1.621-4.141.562-.205 1.532.176 3.343.676 4.797.559 1.619 1.313 2.618 2.215 4.027.396.618 1.256.332 1.318-.358z"/><path d="m568.141 407.068c-.963 1.296-1.498 2.62-.859 4.145.043.103.127.203.252.193 1.691-.138 2.793-1.134 3.74-2.508 1.341-1.956-1.77-3.67-3.133-1.83z"/><path d="m663.973 415.781c1.516-.932 7.973-3.752 5.172-6.552-1.164-1.164-2.828-.086-3.771.762-1.6 1.436-1.742 3.326-2.125 5.232-.083.406.329.801.724.558z"/><path d="m674.129 415.037c-.836.199-1.5.644-2.271 1.001-.35.163-.854 1.109-1.113 1.128-.381.026-.383.569 0 .592.268.017.531.545.76.679.484.284 1.027.301 1.566.253 1.227-.103 1.969-.567 2.699-1.518.837-1.088-.534-2.401-1.641-2.135z"/><path d="m655.693 539.102c-2.426 1.129-4.139 4.648-4.9 7.078-.547 1.74 1.707 2.887 2.941 1.713 1.973-1.873 2.936-5.604 2.873-8.264-.011-.492-.502-.719-.914-.527z"/><path d="m662.27 547.301c1.41-1.35.336-2.982.621-4.707.109-.676-.68-1.008-1.084-.455-1.09 1.479-2.443 3.605-.842 5.162.365.355.937.349 1.305 0z"/><path d="m829.738 554.125c.613-.236 1.025-.797.84-1.477-.557-2.063-2.904-2.131-4.479-2.816-.273-.119-.543.023-.568.328-.1 1.119-.221 1.867.77 2.764.974.879 2.107 1.717 3.437 1.201z"/><path d="m836.545 546.797c1.529-2.732-3.023-2.771-4.57-2.473-.617.117-.859.898-.572 1.4.785 1.357 2.174 1.828 3.688 1.908.573.03 1.179-.341 1.454-.835z"/><path d="m828.406 587.18c-.658 1.631-.871 3.264-.848 5.018.031 2.4 3.691 2.4 3.723 0 .023-1.754-.189-3.387-.848-5.018-.4-.996-1.626-.996-2.027 0z"/><path d="m835.098 587.852c-.17-.049-.332.115-.285.283.42 1.482.229 2.438 1.375 3.701.936 1.031 2.586-.051 2.256-1.313-.524-2-1.628-2.171-3.346-2.671z"/><path d="m609.783 327.118c.307-.921.289-1.841.543-2.778.313-1.154.588-1.831.303-3.032-.34-1.426-2.295-1.932-3.293-.87-1.822 1.938-.947 5.455 1.018 7.058.505.412 1.214.271 1.429-.378z"/><path d="m619.209 325.44c.879-1.465 1.953-3.341 1.637-5.098-.152-.845-.984-1.231-1.736-1.322-1.305-.156-2.676 1.026-2.902 2.33-.277 1.608-.066 2.705.756 4.09.501.845 1.741.837 2.245 0z"/><path d="m567.281 367.126c.602.193 1.197-.318 1.207-.919.027-1.632-.488-3.324-2.021-4.207-1.588-.913-3.514-1.034-4.57.693-.404.662-.305 1.647.281 2.177 1.312 1.189 3.451 1.732 5.103 2.256z"/><path d="m558.633 375.004c1.068.311 2.178.461 3.285.346 1.322-.138 2.172-2.014.742-2.741-1.156-.589-2.256-1.006-3.551-1.115-2.066-.176-2.355 2.965-.476 3.51z"/><path d="m557.857 493.962c-.494.859-.008 1.81.867 2.127 2.828 1.022 5.83-2.549 7.328-4.54.406-.541-.26-1.203-.818-1.063-2.222.553-6.164 1.364-7.377 3.476z"/><path d="m562.875 498.939c-.809 1.627 1.289 3.508 2.627 2.029 1.041-1.152 1.932-2.578 2.348-4.083.051-.174-.057-.357-.229-.404-1.92-.543-3.904.769-4.746 2.458z"/><path d="m715.254 423.233c1.244-1.794 1.053-4.451.82-6.475-.037-.319-.414-.554-.676-.28-1.502 1.578-3.193 3.596-3.275 5.907-.064 1.787 2.236 2.136 3.131.848z"/><path d="m719.611 419.288c-1.402 1.146-1.529 3.735-.768 5.278.393.792 1.703.792 2.096 0 .762-1.543.635-4.133-.768-5.278-.181-.145-.378-.145-.56 0z"/><path d="m623.012 441.618c-1.514-.861-2.986.278-3.172 1.821-.293 2.425 1.078 3.858 3.084 4.846.826.409 2.074.121 2.27-.924.456-2.423.152-4.41-2.182-5.743z"/><path d="m719.609 361.182c-3.178.494-5 5.706-3.109 8.177.248.324.738.489 1.059.136.832-.918 1.277-2.037 2.08-2.96.898-1.037 1.83-1.669 2.332-2.989.578-1.523-1.08-2.562-2.362-2.364z"/><path d="m719.021 523.896c-.42.301-1.088.27-1.588.387-.973.227-2 .857-2.842 1.379-.898.553-2.219 1.855-1.531 3.029.686 1.166 2.436.412 3.248-.092.842-.525 1.5-1.26 2.096-2.037.498-.65.549-1.559 1.016-2.148.213-.268-.066-.754-.399-.518z"/><path d="m795.719 488.297c-1.059.109-1.467 1.374-.543 1.997 1.881 1.266 3.295.755 4.508-.952.184-.259.006-.72-.316-.773-1.36-.225-2.212-.421-3.649-.272z"/><path d="m837.143 395.85c2.785-.124 5.596-1.16 5.508-4.367-.008-.331-.264-.582-.592-.592-2.74-.085-3.578 1.939-5.521 3.498-.589.471-.099 1.491.605 1.461z"/><path d="m835.867 389.463c2.631-.113 4.941-3.834 2.361-5.655-.225-.158-.537-.117-.766 0-1.389.719-2.447 2.553-2.844 4.018-.208.785.4 1.674 1.249 1.637z"/><path d="m773.039 335.102c1.82-1.629 4.057-4.338 2.824-6.811-.359-.724-1.264-.811-1.912-.502-2.301 1.088-2.457 4.784-2.068 7.006.097.548.803.619 1.156.307z"/><path d="m780.148 332.971c-1.256 1.115-1.428 2.084-1.898 3.577-.145.459.33.934.789.79 1.494-.472 2.463-.645 3.576-1.899 1.498-1.687-.781-3.965-2.467-2.468z"/><path d="m663.449 314.018c.268.132.582.072.742-.195 1.063-1.772.715-4.665.293-6.592-.191-.873-1.023-1.34-1.844-1.403-.391-.031-.635.065-.965.262-.793.469-1.023 1.298-.879 2.157.309 1.823.792 4.854 2.653 5.771z"/><path d="m534.008 446.882c.492-.11.627-.763.289-1.1-1.756-1.77-6.178-2.746-7.408.099-.166.385-.098.746.26.991.869.597 1.68.623 2.734.537 1.357-.113 2.791-.228 4.125-.527z"/><path d="m771.404 516.018c-1.189.979-2.16 1.51-3.086 2.805-.922 1.287-1.607 2.795-1.203 4.359.297 1.148 1.631 1.316 2.447.645 1.988-1.637 2.199-4.9 2.887-7.201.194-.647-.594-.981-1.045-.608z"/><path d="m775.73 516.459c.084 1.924-1.119 3.73.094 5.463.488.693 1.391.697 1.875 0 1.33-1.908.051-4.238-1.408-5.695-.195-.198-.574-.061-.561.232z"/><path d="m831.199 461.188c1.797-.413 1.393-3.237-.432-3.194-2.236.054-3.523 1.094-5.242 2.343-.564.411-.434 1.438.383 1.411 1.811-.06 3.496-.148 5.291-.56z"/><path d="m803.969 564.605c-1.813.928-3.639 3.963-3.869 5.914-.113.965 1.121 1.492 1.857 1.066 1.961-1.135 3.475-4.691 2.486-6.857-.082-.175-.32-.201-.474-.123z"/><path d="m610.135 537.596c-1.379 1.254-2.992 3.084-2.924 5.045.029.846.869 1.637 1.75 1.332 2.121-.732 3.242-3.031 4.074-4.982.17-.395 1.244-3.002.211-3.143-1.199-.162-2.283.996-3.111 1.748z"/><path d="m673.732 360.312c-.58.757-.965 1.526-1.352 2.395-.338.755-.479 1.733-.844 2.441-.318.617.332 1.337.969.969.486-.281.961-.249 1.406-.604.852-.683 1.521-1.357 2.184-2.224.855-1.117.977-2.818.041-3.878-.656-.743-2.025.404-2.404.901z"/><path d="m567.406 332.926c.938.967 2.199 1.308 3.148 2.176.549.496 1.258-.006 1.156-.673-.256-1.703-.352-2.834-1.652-4.154-1.701-1.727-4.337.914-2.652 2.651z"/><path d="m534.754 366.672c-1.352-.333-2.211 1.022-1.678 2.187.93 2.038 3.129 2.717 5.201 2.402.584-.089.758-.833.521-1.281-.839-1.595-2.265-2.871-4.044-3.308z"/><path d="m735.082 305.978c.039.084.162.156.256.146 1.961-.228 3.637-1.738 4.66-3.416.365-.595.33-1.342 0-1.936-1.898-3.453-6.039 2.796-4.916 5.206z"/><path d="m876.242 478.263c-.682-1.248-1.598-1.569-2.992-1.542-.805.017-1.605.285-2.363.524-.939.292-1.412 1.214-2.277 1.54-.564.214-.352 1.082.254.922.592-.158 1.148.152 1.725.171.67.022 1.324-.027 1.994-.045 1.365-.035 2.293-.091 3.459-.805.265-.162.349-.494.2-.765z"/><path d="m873.627 531.854c-2.006-.629-3.605-.338-5.297.762-.521.336-.518 1.053 0 1.389 1.369.898 2.623 1.283 4.234 1.701 2.504.653 3.514-3.085 1.063-3.852z"/><path d="m455.129 712.521c.102-.523-.445-1.09-.967-.742-2.27 1.508-5.646 3.891-5.641 6.887.002 1.031 1.146 2.15 2.227 1.695 2.897-1.213 3.828-4.986 4.381-7.84z"/><path d="m461.564 711.963c-1.332 2.107-2.563 4.313-2.008 6.855.07.316.416.471.707.402 3.238-.744 4.059-4.588 2.609-7.258-.282-.515-1.015-.462-1.308.001z"/><path d="m545.82 754.293c-.746 2.58-1.234 5.398-.996 8.094.188 2.121 3.105 2.121 3.291 0 .24-2.695-.248-5.514-.994-8.094-.185-.643-1.115-.643-1.301 0z"/><path d="m550.813 753.611c-.564 1.975-.084 4.795 1.609 6.143.934.746 2.67.389 2.584-1.068-.137-2.289-2.176-3.324-3.109-5.215-.237-.477-.95-.325-1.084.14z"/><path d="m658.334 726.967c-.654-.152-1.457.613-.967 1.258 1.479 1.949 3.367 3.768 5.729 4.551.625.209 1.457-.012 1.896-.502.234-.258.432-.508.502-.859.184-.93-.135-1.658-.895-2.201-1.785-1.275-4.165-1.759-6.265-2.247z"/><path d="m656.406 734.82c-.549-.232-1.496.162-1.186.91.539 1.291.869 2.525 1.703 3.697 1.352 1.898 4.443.195 3.176-1.855-.943-1.533-2.117-2.088-3.693-2.752z"/><path d="m689.654 642.598c-.957.236-6.438 1.594-5.465 3.398 1.213 2.248 5.293 1.232 7.082.436 2.241-1 .61-4.389-1.617-3.834z"/><path d="m684.785 640.314c2.709.32 6.391-1.414 6.176-4.498-.023-.332-.238-.523-.561-.561-2.482-.281-4.691 1.625-6.313 3.373-.63.681-.138 1.587.698 1.686z"/><path d="m496.213 667.002c-.861.752-2.08 1.025-3.055 1.656-2.813 1.818.432 5.895 2.762 3.58 1.59-1.58 1.123-2.834 1.277-4.828.043-.541-.638-.707-.984-.408z"/><path d="m544.715 702.42c-.059-.205-.342-.363-.533-.217-1.584 1.219-3.172 2.57-3.984 4.459-.922 2.148 1.346 3.975 3.201 2.471 2.074-1.68 1.964-4.408 1.316-6.713z"/><path d="m621.98 687.168c-.9-2.063-3.875-3.939-5.904-4.66-.258-.09-.529.193-.447.447.732 2.217 2.006 5.199 4.031 6.535 1.572 1.035 2.938-.914 2.32-2.322z"/><path d="m621.855 708.393c-2.092 1.621-1.73 5.555-.17 7.375 1.027 1.203 3.299.266 3.174-1.314-.154-1.963-.609-4.898-2.246-6.158-.236-.185-.554-.06-.758.097z"/><path d="m396.143 628.746c-1.756.695-2.244 2.508-1.051 3.984 1.047 1.295 2.729 1.387 4.242 1.037.555-.129 2.191-.625 2.18-1.461-.035-2.402-3.176-4.431-5.371-3.56z"/><path d="m414.377 627.533c-.627-1.186-1.314-1.85-2.568-2.316-1.322-.494-2.564.754-2.623 1.996-.061 1.346.506 2.307 1.539 3.139 1.115.9 1.816.512 3.049.654.404.047.85-.402.807-.807-.106-.972.321-1.67-.204-2.666z"/><path d="m384.844 518.066c-2.48-1.455-4.266 1.568-5.129 3.42-.471 1.006-1.033 2.438-1.016 3.563.01.5-.104 1.063.021 1.549.137.529.48 1.17.396 1.727-.053.334.381.455.506.139.279-.703 1.338-1.105 1.83-1.686.805-.943 1.65-1.867 2.395-2.875 1.079-1.467 3.51-4.364.997-5.837z"/><path d="m397.766 523.592c1.33-1.854.898-3.174.461-5.193-.1-.455-.734-.609-1.045-.275-.965 1.039-2.059 1.506-2.883 2.77-.875 1.344-1.346 2.455-1.463 3.992-.02.25.189.494.424.555 1.822.489 3.369-.263 4.506-1.849z"/><path d="m396.922 486.859c3.074-.015 4.436-5.215 3.578-7.595-.734-2.044-3.051-2.201-4.301-.563-.974 1.276-2.252 8.172.723 8.158z"/><path d="m417.086 494.055c-1.824-.723-3.68.032-5.305.941-.828.463-.828 1.738 0 2.201 1.625.91 3.48 1.664 5.305.943 2.01-.794 2.01-3.291 0-4.085z"/><path d="m302.619 462.875c-1.547 1.549-1.746 4.317-2.43 6.317-.342 1.008-1.998 4.994.543 4.903 2.266-.08 2.807-2.804 3.148-4.635.383-2.053.738-4.932-.82-6.586-.115-.122-.324-.116-.441.001z"/><path d="m290.551 461.341c1.65-1.683-.232-5.821-2.383-6.143-1.615-.24-2.982.907-2.613 2.612.238 1.101 3.691 4.859 4.996 3.531z"/><path d="m286.371 499.641c-1.855 2.158.93 4.895 3.098 3.096.941-.779 3.727-3.59 2.592-4.986-1.403-1.727-4.745.792-5.69 1.89z"/><path d="m191.039 507.934c.35.105.648-.127.77-.438 1.492-3.885-2.543-7.205-4.576-10.137-.172-.248-.607-.102-.51.217 1.062 3.459.047 9.055 4.316 10.358z"/><path d="m202.914 501.068c-1.719-.547-3.51-.313-5.229-.643-.633-.125-.963.537-.592 1.016 1.262 1.629 2.645 2.951 4.785 3.381 2.452.494 3.444-2.99 1.036-3.754z"/><path d="m214.025 536.469c-.941 1.189-4.229 10.891-1.055 10.855 4.668-.053 3.652-8.445 1.754-10.855-.154-.194-.544-.194-.699 0z"/><path d="m180.633 637.84c-1.666-.393-3.865-1.262-5.109-2.49-.527-.52-1.434.152-1.033.799 1.949 3.135 4.697 6.15 8.764 6.021.68-.021 1.416-.361 1.736-.996.041-.082.086-.164.127-.246.359-.717.219-1.338-.252-1.947-.94-1.215-2.874-.821-4.233-1.141z"/><path d="m194.537 628.846c-1.193.396-2.221.256-3.418.59-1.613.447-2.709 1.625-4.08 2.449-1.133.684-.623 2.369.656 2.424 2.008.082 3.289.18 5.199-.668 1.402-.623 1.961-2.66 2.471-3.965.188-.477-.369-.983-.828-.83z"/><path d="m282.59 685.65c-.229-1.865-1.096-2.814-1.918-4.373-.168-.316-.629-.152-.645.176-.119 2.881-1.924 5.99-1.082 8.902.424 1.469 2.176 1.484 2.99.391 1.073-1.439.862-3.396.655-5.096z"/><path d="m270.605 690.908c-1.193 1.559-2.988 2.945-3.561 4.914-.645 2.211 2.26 3.107 3.477 1.467 1.186-1.602.955-3.98 1.438-5.809.23-.869-.869-1.203-1.354-.572z"/><path d="m279.643 653.23c-.664-.762-2.088-.762-2.752 0-1.881 2.156-.326 5.365 1.107 7.318.146.199.393.199.539 0 1.434-1.952 2.988-5.161 1.106-7.318z"/><path d="m283.566 720.387c-.324-.285-.969-.123-.928.385.256 3.098 1.408 5.848 2.146 8.865.557 2.266 4.072 1.303 3.492-.963-.846-3.301-2.163-6.024-4.71-8.287z"/><path d="m265.842 722.389c-1.521 1.26-2.715 2.711-3.908 4.293-.58.764-1.215 3.064-.105 3.715.977.574 2.369-.559 2.885-1.289 1.225-1.736 1.723-4.033 2.285-6.047.196-.711-.649-1.092-1.157-.672z"/><path d="m432.027 739.383c-1.111-.125-2.078 1.467-2.715 2.184-1.242 1.404-2.727 2.607-3.662 4.246-1.07 1.875 1.148 4.408 3.084 3.088 2.682-1.826 4.33-5.299 4.121-8.523-.021-.338-.172-.723-.502-.877-.113-.054-.201-.105-.326-.118z"/><path d="m480.227 693.17c-1.135.52-2.59 1.553-3.23 2.637-.271.461.004.965.461 1.137 1.322.496 2.908 0 4.217-.336 1.76-.455 2.221-1.689 3.373-2.857.34-.344.061-.822-.361-.871-1.792-.206-2.726-.503-4.46.29z"/><path d="m534.416 781.426c-2.516.57-6.139 2.475-6.016 5.471.043 1.064.998 1.822 2.051 1.561 2.59-.639 3.979-4.121 4.512-6.484.076-.339-.209-.626-.547-.548z"/><path d="m680.352 739.432c-1.459.855-2.436 3.199-3.029 4.711-.197.498.211 1.172.723 1.273 1.666.33 2.945-.348 4.238-1.361 1.191-.936 2.348-3.4.949-4.688-.708-.652-2.135-.373-2.881.065z"/><path d="m716.506 642.754c-.502-.355-1.217-.271-1.729 0-2.352 1.254-3.064 3.389-4.371 5.492-.221.357.213.762.564.563.984-.564 2.15-.711 3.172-1.217 1.203-.598 2.207-1.404 2.979-2.496.342-.48.295-1.24 0-1.727-.162-.271-.359-.437-.615-.615z"/><path d="m358.512 542.432c-2.156 1.217-.615 4.172 1.594 3.779 1.604-.289 3.219-1.598 4.158-2.873.102-.139.057-.369-.061-.48-1.416-1.327-4.06-1.346-5.691-.426z"/><path d="m319.805 441.939c-.594-.227-1.559.011-1.957.519-.748.95-1.338 1.867-1.797 2.992-.436 1.074-.111 1.801-.25 2.798-.055.379.346.673.66.385.404-.372 1.152-.515 1.635-.876.947-.706 1.773-1.611 2.596-2.454.693-.708.68-1.584.314-2.438-.233-.547-.68-.728-1.201-.926z"/><path d="m177.93 527.396c-.873-.102-1.59.549-2.059 1.182-.08.107-.16.215-.242.324-.504.678-.186 1.576.279 2.152.109.139.223.275.334.414.533.658 1.553.795 2.322.615 2.592-.617 4.857-1.455 7.158-2.762.166-.092.178-.361 0-.451-2.515-1.288-5.033-1.155-7.792-1.474z"/><path d="m155.373 620.602c-1.992-.5-3.557 1.031-3.66 2.898-.029.582.422 1.092.955 1.254 1.139.34 2.57.486 3.648-.244.553-.371 1.682-.461 1.73-1.332.073-1.274-1.614-2.311-2.673-2.576z"/><path d="m162.818 652.977c-1.605.34-2.564 1.699-3.42 2.992-.461.699-1.135 3.01-.127 3.598 1.135.668 2.67-.289 3.496-.994 1.246-1.063 2.09-3.252 1.447-4.805-.245-.598-.73-.934-1.396-.791z"/><path d="m229.887 612.23c-1.602 1.225-4.037 3.045-3.828 5.332.068.771.746 1.123 1.436.824 1.666-.719 3.309-2.051 4.551-3.357 1.341-1.408-.501-4.066-2.159-2.799z"/><path d="m240.76 694.459c-1.346.742-1.271 2.723 0 3.484 1.012.605 2.027.744 3.191.693 1.656-.072 2.344-.486 3.639-1.367.158-.109.254-.291.197-.484-.83-2.873-4.535-3.699-7.027-2.326z"/><path d="m407.172 647.268c-1.635.906-3.428 1.105-4.174 3.09-.389 1.033.816 2.238 1.852 1.85 1.982-.744 2.184-2.537 3.088-4.174.273-.493-.272-1.04-.766-.766z"/><path d="m443.877 632.963c-2.057.205-4.094.479-5.953 1.428-.545.277-.549 1.172 0 1.447 2.037 1.029 4.236 1.18 6.398.428 1.692-.586 1.545-3.502-.445-3.303z"/><path d="m430.273 717.217c1.119-.391 1.689-1.859.729-2.758-1.803-1.688-5.154-2.465-6.939-.336-1.068 1.275-.631 2.973.938 3.551 1.562.574 3.731.08 5.272-.457z"/><path d="m453.537 740.98c-1.307 1.902-1.678 4.26-1.574 6.582.102 2.359 3.559 2.359 3.66 0 .104-2.322-.268-4.68-1.574-6.582-.131-.189-.381-.189-.512 0z"/><path d="m469.516 674.148c-.369.504-.369 1.467 0 1.971 1.65 2.232 5.143 1.879 6.984-.043.51-.533.51-1.352 0-1.885-1.842-1.92-5.334-2.275-6.984-.043z"/><path d="m560.859 721.824c-1.713-.828-4.195-1.826-5.621-.01-.141.174-.217.41-.082.617.883 1.363 2.551 1.73 3.957 2.379 2 .924 3.764-2.009 1.746-2.986z"/><path d="m555.449 682.693c.318.047.578-.074.688-.391.494-1.414.188-2.41-.146-3.842-.318-1.369-.361-2.861-1.539-3.768-.193-.15-.451-.049-.617.08-2.321 1.796-1.476 7.472 1.614 7.921z"/><path d="m638.063 738.1c-1.375 2.076-2.096 6.449-.822 8.652.523.908 1.891.908 2.414 0 1.273-2.203.551-6.576-.822-8.652-.19-.287-.581-.287-.77 0z"/><path d="m650.998 702.982c-.982.037-1.795.242-2.742.506-.699.193-1.361.715-2.088.756-.334.018-.492.395-.266.646 1.541 1.719 3.199 2.711 5.592 1.766.709-.279 1.482-.932 1.375-1.803-.045-.352-.109-.621-.256-.945-.258-.564-1.015-.949-1.615-.926z"/><path d="m645.176 634.604c-.037 3.639 7.951 3.953 7.855 1.916-.133-2.747-7.814-5.784-7.855-1.916z"/></g></g></g></svg>