<svg id="Fruit" height="512" viewBox="0 0 992.13 992.13" width="512" xmlns="http://www.w3.org/2000/svg"><g><path d="m882.219 435.032c-6.051-1.58-12.17-3.119-18.316-4.663-27.574-6.926-56.086-14.088-80.365-26.024-6.063-2.981-10.74-18.093-13.834-28.094-.561-1.816-1.109-3.589-1.658-5.303-6.734-21.046-11.309-42.854-16.104-69.119-.477-2.619-.973-6.498-1.496-10.604-1.883-14.756-4.463-34.966-12.432-51.216-4.633-9.45-15.484-31.58-41.41-31.58-13.09 0-26.967 5.712-46.398 19.099-11.721 8.071-22.348 17.986-32.816 30.776-26.834-29.57-63.297-55.048-102.43-70.923-21.672-8.792-43.917-13.251-66.111-13.251-50.915 0-102.171 23.647-148.229 68.379-33.346 32.391-61.477 71.041-81.885 112.397-2.316.376-4.692.755-7.119 1.144-52.936 8.462-132.931 21.25-151.723 84.857-13.318 45.074 14.304 92.422 23.089 105.861 15.343 23.472 36.99 42.102 64.337 55.369.809.393 1.461.718 1.99.987.334 1.115.674 2.314.855 2.949 3.289 11.615 3.823 25.025 4.391 39.225.189 4.697.377 9.363.658 13.947l.089 1.463c.928 15.434 2.329 38.755 20.849 53.67 14.725 11.86 35.154 17.875 60.716 17.875 21.427 0 43.007-4.246 58.249-8.127 19.783 14.484 42.262 25.119 66.988 31.67 20.108 5.326 41.334 8.029 63.09 8.029 21.051 0 41.77-2.604 61.071-7.613 3.523 9.969 7.465 19.823 11.791 29.471 11.968 26.711 29.922 32.318 42.877 32.318 22.725 0 42.316-17.498 63.057-36.023 2.256-2.016 4.529-4.046 6.816-6.063 12.336-10.866 23.588-20.186 34.406-28.496 4.551-3.493 6.947-5.083 8.201-5.803 1.289.354 3.643 1.156 7.92 2.869 8.863 3.547 17.906 8.908 27.482 14.588 7.473 4.431 15.201 9.014 23.156 12.862 39.525 19.113 71.412 23.126 91.203 23.126h.002c30.977 0 53.49-9.742 61.77-26.726 11.441-23.464 1.404-45.827-5.236-60.626-.832-1.852-1.652-3.678-2.414-5.473l-1.166-2.748c-9.328-21.97-18.975-44.687-27.105-67.236-1.182-3.283-2.502-6.659-3.846-10.088-9.16-23.375-9.166-28.484-4.529-31.969 10.672-8.021 41.738-27.713 62.297-40.744 9.686-6.141 17.338-10.988 20.844-13.338 43.119-28.856 32.422-60.626 25.822-72.947-10.201-19.035-31.117-24.142-43.615-27.195-1.31-.318-2.578-.626-3.779-.939z" fill="#fff"/><g><path d="m773 425.778c-16.98-8.347-22.398-30.976-27.701-47.552-7.518-23.495-12.428-47.877-16.852-72.111-2.346-12.85-3.549-38.606-11.877-55.591-9.537-19.453-18.021-27.3-52.818-3.328-18.771 12.928-33.059 31.362-45.506 50.949-25.904-39.524-69.594-71.323-112.266-88.634-71.027-28.813-136.823-.277-188.721 50.13-33.27 32.315-62.379 72.843-82.26 116.718-47.563 8.709-135.592 15.085-152.203 71.316-8.361 28.297 4.92 62.688 20.174 86.026 13.678 20.921 32.926 36.35 54.773 46.949 11.134 5.402 12.078 7.197 15.397 18.916 5.284 18.656 4.735 39.115 5.909 58.218.775 12.634 1.369 29.369 12.081 37.995 26.407 21.271 79.261 11.051 108.767 2.26.152-.046.299-.098.443-.152 18.943 15.924 41.613 27.865 67.879 34.824 42.227 11.188 92.345 9.695 133.536-6.585 4.762 16.878 10.789 33.497 18.094 49.792 17.053 38.061 44.943 8.703 75.168-17.922 11.506-10.137 23.387-20.1 35.646-29.517 17.141-13.165 21.23-13.5 39.539-6.167 18.229 7.294 35.375 20.002 52.166 28.123 63.777 30.844 114.014 21.988 121.109 7.434 7.561-15.506-2.057-31.899-8.168-46.3-10.01-23.581-20.061-47.106-28.752-71.214-8.369-23.205-24.119-51.314-.26-69.249 16.477-12.385 73.557-47.709 84.207-54.839 13.109-8.772 28.17-22.937 18.055-41.819-5.883-10.978-21.533-13.477-32.375-16.307-34.455-8.998-71.059-16.572-103.184-32.363z" fill="#68182b"/><path d="m876.516 469.112c-16.541-4.318-33.109-8.549-49.537-13.29-25.527-7.372-64.283-13.51-77.816-39.629-21.244-40.999-26.297-87.953-35.182-132.586-1.432-7.195-7.176-43.266-20.27-38.699-19.385 6.759-31.129 37.323-39.49 53.869-16.465 33.23-32.799 67.388-54.234 97.775-17.102 24.243-32.691 38.378-63.316 42.155-56.235 6.937-92.046 12.661-116.966 19.926-14.497 4.227-59.132 14.752-50.444 38.831 5.85 16.22 35.092 28.229 49.451 36.523 29.107 16.82 64.084 27.722 91.234 47.419 12.323 8.94 14.696 19.724 13.979 34.51-2.037 41.797-2.031 83.149 2.461 124.836 1.244 11.544.947 27.726 7.611 38.076 9.576 14.87 24.588-2.276 31.84-8.829 10.889-9.838 21.734-19.758 33.029-29.136 18.285-15.179 38.656-35.131 60.412-44.751 22.201-9.818 33.629-3.771 52.689 9.135 24.133 16.334 49.961 28.203 77.297 38.171 10.803 3.94 26.525 13.21 38.328 11.892 19.578-2.189-3.766-44.029-6.873-51.352-9.32-21.959-18.592-43.953-26.33-66.531-5.898-17.214-15.654-36.944-10.855-55.485 3.957-15.292 25.152-25.264 36.781-33.214 11.148-7.621 48.416-28.75 68.334-44.599 17.994-14.322 16.019-27.666-12.133-35.017zm-32.848 42.389c-20.879 14.945-43.584 27.512-66.166 39.658-19.566 10.521-24.717 17.576-19.139 39.514 3.627 14.271 7.682 28.421 12.762 42.252 5.152 14.033 10.775 27.871 16.342 41.742 3.176 7.91 9.238 17.629 6.766 26.614-3.23 11.749-16.705 12.12-25.963 8.026-17.068-7.551-34.455-14.448-50.646-23.807-11.727-6.782-25.789-19.074-39.129-21.494-22.959-4.164-34.986 9.318-50.688 22.586-14.6 12.336-28.955 26.333-44.654 37.197-8.092 5.602-17.879 11.51-27.299 5.546-13.004-8.233-9.035-35.085-8.73-47.092.713-28.02 2.084-56.307.307-84.31-1.371-21.623-5.289-37.592-25.881-47.617-24.376-11.868-49.35-20.447-75.094-28.609-13.893-4.404-47.734-22.185-21.65-37.212 20.08-11.566 44.92-13.788 67.417-17.305 26.734-4.182 54.748-6.522 80.81-14.053 16.539-4.78 32.244-11.103 38.822-28.326 2.805-7.347 5.738-14.641 8.803-21.884 10.168-24.025 21.143-47.664 33.619-70.58.051-.095.102-.189.154-.284 6.256-10.851 19.695-38.148 36.396-28.117 15.621 9.382 14.098 44.416 17.023 59.905 4.768 25.253 8.727 59.297 24.615 80.41 11.406 15.156 44.201 19.603 61.414 24.286 16.392 4.462 86.432 16.724 49.789 42.954z" fill="#fac135"/><path d="m840.557 500.538c-4.58 4.682-11.584 8.228-17.082 11.691-9.373 5.901-18.762 11.766-28.363 17.289-14.082 8.1-36.738 14.59-46.047 28.658-9.475 14.323-1.426 33.602 2.6 48.482 6.563 24.266 16.271 47.535 25.648 70.807 1.756 4.359 16.047 31.494-9.482 20.201-4.621-2.045-9.26-4.039-13.893-6.049-7.969-3.451-15.836-7.041-23.529-11.074-17.561-9.209-36.506-27.57-57.154-28.084-25.328-.632-38.615 14.621-56.797 29.982-14.543 12.289-29.029 26.738-45.287 36.59-16.074 9.74-13.832-22.719-13.668-30.436.35-16.523.842-33.041 1.053-49.568.404-31.931 5.678-74.064-24.854-94.02-30.028-19.627-66.815-23.741-98.528-38.852-22.904-10.912 12.871-19.916 22.646-22.25 21.54-5.148 43.908-7.598 65.765-11.011 27.543-4.297 74.836-5.803 92.135-32.551 8.258-12.77 12.594-28.857 18.578-42.748 8.83-20.5 18.543-40.621 29.225-60.219 5.736-9.949 18.932-37.037 26.424-14.156 3.414 10.437 4.109 21.904 5.867 32.709 3.975 24.468 9.289 48.91 17.467 72.335 3.986 11.422 8.91 23.482 19.5 30.091 14.443 9.016 32.963 13.117 49.109 17.776 14.326 4.136 28.836 7.6 43.189 11.632 3.159.89 23.165 4.917 15.478 12.775z" fill="#ffe10e"/><path d="m622.561 310.935c.215-.29.4-.599.551-.926 10.908-18.292 22.992-35.744 38.875-48.725-7.613 12.221-13.436 25.401-16.857 32.177-11.115 22.434-22.449 44.737-34.791 66.524-12.203 21.541-25.818 46.131-46.105 61.108-9.346 6.901-23.219 7.553-35.838 8.168 27.658-16.906 48.953-43.665 66.557-71.006 9.502-14.759 18.125-31.336 27.608-47.32z" fill="#fac135"/><path d="m329.12 262.8c51.374-49.897 115.313-69.017 182.744-39.473 33.42 14.643 68.08 40.793 91.115 71.419 8.133 10.805 6.684 17.573-2.934 33.964-10.002 17.048-15.396 22.836-29.328 25.86-34.406 7.471-68.184 17.294-100.809 30.77-19.033 7.862-37.451 17.239-55.151 27.75-15.144 8.993-31.732 19.348-45.226 31.67-9.38 8.563-7.942 9.567 2.318 2.454 14.861-10.313 27.799-18.504 42.74-27.156 19.426-11.248 39.63-20.936 60.404-29.412 29.035-11.846 59.245-20.633 89.834-27.544 13.135-2.973 11.654 4.107 3.145 15.188-35.127 45.74-61.756 52.738-87.398 56.844-27.14 4.348-53.663 11.424-79.972 19.273-24.838 7.411-59.878 31.693-33.352 59.041 16.293 16.797 43.951 28.683 64.316 39.872 13.977 7.68 28.486 14.313 42.848 21.223-36.926 21.64-84.051 30.82-126.049 29.285-20.582-.754-53.938-4.561-71.248-20.408-9.541-8.734-6.293-29.314 8.646-41.652 12.015-9.918 20.475-19.728 30.242-33.737 4.781-6.854 3.799-8.151-2.414-2.271-11.407 10.782-22.922 24.558-35.965 34.663-11.146 8.642-21.438 12.524-32.705 9.12-38.014-11.475-26.811-82.228-20.078-112.3 14.616-65.302 56.86-128.388 104.277-174.443z" fill="#fac135"/><path d="m259.971 578.374c-11.303 8.166-23.147 17.299-36.669 20.834-10.992 2.873.189-14.693 2.336-17.996 4.934-7.593 11.114-14.957 17.986-20.908 3.594.896 7.519 1.381 11.807 1.393.375 6.288 1.982 11.816 4.54 16.677z" fill="#aa8053"/><path d="m112.066 528.383c-15.639-22.196-28.914-59.697-16-85.979 12.642-25.73 50.457-35.968 75.592-42.859 19.217-5.268 38.799-8.226 58.354-11.64-9.027 21.999-15.686 44.714-19.355 67.552-5.019 31.235-6.418 83.157 22.25 100.441-6.816 6.638-17.621 18.809-22.778 30.12-39.392-6.615-74.667-24.426-98.063-57.635z" fill="#fac135"/><path d="m193.382 681.298c-6.771-16.152-4.402-37.903-5.62-55.082-.878-12.416-2.638-24.738-6.796-36.359 8.594 2.717 17.401 4.809 26.275 6.305-.33 4.791 1.267 8.947 5.805 11.797 8.318 5.223 19.104-.23 26.8-4.135.341-.173.681-.348 1.021-.524 9.965 33.898 26.824 63.422 50.262 86.249-26.597 6.995-86.809 17.846-97.747-8.251z" fill="#fac135"/><path d="m374.871 723.492c-64.658-14.384-107.094-63.461-124.621-125.667 5.379-3.434 10.566-7.184 15.755-10.883 15.065 16.623 43.189 23.054 65.067 25.967 47.053 6.266 101.963-3.226 144.309-26.749 11.754-6.532 15.283-2.501 14.434 6.922-3.784 41.739-.76 82.991 9.241 122.888-38.279 15.734-84.469 16.357-124.185 7.522z" fill="#fac135"/><path d="m510.791 719.541c-.012-.798-.234-1.612-.625-2.364-10.94-41.83-13.874-85.248-9.332-129.09 11.336 6.778 13.01 14.699 12.557 27.827-.975 28.181-2.143 56.013-.775 84.242.486 10.028.818 20.54 1.553 31.093-1.198-3.888-2.325-7.791-3.378-11.708z" fill="#fac135"/><path d="m785.852 758.43c-24.811-2.471-50.018-12.301-73.402-24.886-17.135-9.221-34.031-20.925-53.035-25.489 21.262-13.497 35.254-1.829 52.814 10.059 10.371 7.021 21.449 12.917 32.684 18.414 13.553 6.63 27.768 12.524 42.158 17.788 7.488 2.742 7.38 4.967-1.219 4.114z" fill="#fac135"/><g fill="#ee9e2b"><path d="m659.414 708.055c8.732 2.099 17.01 5.731 25.078 9.911 12.098.654 24.031 2.357 35.855 5.34-2.744-1.666-5.457-3.391-8.119-5.192-17.56-11.888-31.552-23.556-52.814-10.059z"/><path d="m480.575 435.135c25.642-4.106 52.271-11.104 87.398-56.844 8.51-11.081 9.99-18.161-3.145-15.188-7.223 1.631-14.422 3.377-21.592 5.234.086.004.17 0 .254.004 22.656 1.304-2.246 27.81-9.52 33.211-17.742 13.179-39.954 20.146-61.104 25.521-32.199 8.185-71.199 13.716-95.525 38.261 7.373-4.92 15.776-8.692 23.262-10.926 26.309-7.849 52.832-14.925 79.972-19.273z"/><path d="m564.232 421.092c18.393-13.578 31.287-35.04 42.629-54.984-7.092 7.93-14.658 15.31-21.887 21.946-10.398 9.546-21.512 17.19-33.34 23.451-7.24 6.615-14.922 12.67-23.24 17.755 12.62-.614 26.493-1.267 35.838-8.168z"/><path d="m380.122 702.987c-23.26-2.197-46.31-7.94-67.317-18.271-12.686-6.241-23.281-14.323-32.652-23.854 22.404 30.963 54.192 53.614 94.719 62.63 39.717 8.835 85.906 8.212 124.184-7.522-1.999-7.977-3.643-16.023-5.084-24.102-16.359 3.639-32.27 8.134-49.119 10.199-21.459 2.631-43.209 2.954-64.731.92z"/><path d="m400.332 582.192c-15.35 8.536-33.751 11.494-51.063 11.91-24.006.573-65.068-4.495-77.168-29.028-1.131 7.352.479 14.193 5.018 18.347 17.311 15.848 50.666 19.654 71.248 20.408 41.998 1.535 89.123-7.646 126.049-29.285-14.189-6.828-28.521-13.393-42.344-20.957-8.76 11.872-18.186 21.068-31.74 28.605z"/><path d="m862.119 495.371c.346-14.483-22.889-21.31-33.258-24.794-26.535-8.917-55.301-10.933-80.332-24.101-16.504-8.685-21.998-29.89-26.436-46.545-7.309-27.436-8.156-56.124-15.225-83.483-2.928-11.332-10.154-26.285-24.166-22.118-17.564 5.225-28.678 31.442-36.045 45.855-6.01 11.758-10.563 23.81-14.229 36.124 6.82-14.875 14.012-29.572 21.846-43.961.051-.095.102-.189.154-.284 6.256-10.851 19.695-38.148 36.396-28.117 15.621 9.382 14.098 44.416 17.023 59.905 4.768 25.253 8.727 59.297 24.615 80.41 11.406 15.156 44.201 19.603 61.414 24.286 16.393 4.461 86.432 16.723 49.789 42.953-20.879 14.945-43.584 27.512-66.166 39.658-19.566 10.521-24.717 17.576-19.139 39.514.391 1.535.809 3.061 1.207 4.594-2.373-32.424 31.43-46.578 55.588-58.675 15.222-7.621 46.466-20.53 46.964-41.221z"/><path d="m504.289 689.985c1.619 9.124 3.526 18.201 5.877 27.191.391.752.613 1.566.625 2.364 1.053 3.917 2.18 7.82 3.377 11.708-.734-10.553-1.066-21.064-1.553-31.093-1.182-24.42-.459-48.554.385-72.861-4.205 20.702-7.768 41.607-8.711 62.691z"/><path d="m112.066 528.383c23.396 33.209 58.671 51.021 98.062 57.636 5.157-11.312 15.962-23.482 22.778-30.12-10.262-6.188-16.622-16.849-20.393-29.373-5.086 11.091-14.781 20.477-25.738 24.126-15.295 5.091-33.076-.015-46.973-6.71-13.867-6.681-26.656-17.091-36.248-29.731 2.644 5.153 5.533 9.942 8.512 14.172z"/><path d="m824.938 742.483c-11.162 3.037-24.314-2.598-34.531-6.612-29.551-11.607-57.297-27.212-85.254-42.144-9.631-5.144-19.457-9.338-30.412-10.399-12.836-1.246-25.016 5.552-35.563 11.968-24.607 14.967-43.91 38.029-65.709 56.57-6.553 5.572-13.219 11.393-20.484 16.002-11.865 7.531-14.844-6.385-16.488-14.639-3.617-18.128-4.611-36.77-5.512-55.193-1.547-31.615 4.557-64.174-.326-95.529-3.221-20.685-21.022-32.095-38.476-40.309-28.962-13.633-59.272-24.469-88.521-37.485-6.784-3.02-13.316-6.472-19.529-10.447 11.201 8.063 25.719 14.603 34.578 19.72 29.107 16.82 64.084 27.722 91.234 47.419 12.323 8.94 14.696 19.724 13.979 34.51-2.037 41.797-2.031 83.149 2.461 124.836 1.244 11.544.947 27.726 7.611 38.076 9.576 14.87 24.588-2.276 31.84-8.829 10.889-9.838 21.734-19.758 33.029-29.136 18.285-15.179 38.656-35.131 60.412-44.751 22.201-9.818 33.629-3.771 52.689 9.135 24.133 16.334 49.961 28.203 77.297 38.171 10.803 3.94 26.525 13.21 38.328 11.892 8.143-.912 8.85-8.684 6.689-17.973-2.487 2.274-5.485 4.099-9.342 5.147z"/><path d="m242.039 666.497c-9.553 15.754-24.879 23.295-41.807 23.364 19.602 14.685 67.854 5.747 90.896-.313-15.876-15.461-28.656-34.057-38.396-54.94-1.176 11.504-5.27 22.943-10.693 31.889z"/><path d="m299.72 504.288c22.83-25.657 43.502-52.169 70.176-74.145 15.111-12.453 31.652-23.11 48.826-32.471 8.865-4.832 18.02-9.147 27.259-13.214 9.503-4.184 20.259-7.08 28.851-13.016.641-.442.453-1.549-.416-1.533-18.874.37-39.674 11.914-56.314 20.174-17.92 8.895-34.859 19.685-50.76 31.803-27.939 21.293-55.002 48.499-69.48 80.965-.512 1.144.895 2.521 1.858 1.437z"/><path d="m481.453 370.115c3.504.117 6.624-.852 9.943-1.863 3.604-1.101 5.974-2.853 9.2-4.667.689-.387.296-1.265-.366-1.349-1.983-.251-4.283-.998-6.307-.665-2.761.453-5.405 1.407-8.024 2.375-1.298.481-7.342 2.656-6.08 5.04.049.09.097.183.146.275.286.543.896.835 1.488.854z"/><path d="m437.208 637.956c-16.082 4.161-32.268 8.197-48.904 9.075-17.159.907-33.596-3.208-50.58-3.628-.535-.013-.703.715-.266.98 14.559 8.846 34.267 9.629 50.846 9.229 17.516-.422 35.025-4.082 49.537-14.152.749-.519.305-1.746-.633-1.504z"/><path d="m151.107 501.78c8.867-14.88 22.486-26.88 33.716-39.886.554-.64-.138-1.621-.917-1.189-16.393 9.094-27.283 23.241-33.82 40.646-.229.608.705.961 1.021.429z"/><path d="m224.011 623.796c-4.708 3.619-5.391 11.475-7.371 16.713-.248.65.705 1.17 1.155.673 3.778-4.19 9.133-10.795 7.426-16.894-.13-.463-.777-.825-1.21-.492z"/><path d="m230.952 624.156c-.909 1.345-1.497 2.624-1.872 4.202-.391 1.647.381 3.427-.076 5.046-.201.714.752 1.045 1.145.481 1.088-1.568 2.326-2.53 3.042-4.395.673-1.746-.113-3.864-1.045-5.335-.291-.453-.9-.433-1.194.001z"/><path d="m459.472 619.726c.455-.627-.294-1.262-.893-1.16-8.653 1.438-16.514 6.485-24.074 10.553-.549.293-.334 1.301.331 1.225 8.821-1.017 18.99-2.865 24.636-10.618z"/><path d="m276.472 444.78c-14.438 18.251-24.674 41.458-23.383 65.135.067 1.262 1.812 1.522 2.198.299 6.911-21.913 11.749-44 22.063-64.757.266-.535-.462-1.204-.878-.677z"/><path d="m244.447 493.536c-2.404 6.8-3.418 13.533-.744 20.481.301.781 1.288.781 1.588 0 2.635-6.844 1.642-13.484.552-20.481-.121-.771-1.181-.603-1.396 0z"/><path d="m361.932 559.494c-6.526-.892-12.942.13-19.405 1.151-9.982 1.58-19.994 1.292-30.053 1.281-.447 0-.551.564-.215.799 12.878 8.947 36.738 5.517 49.9-1.487.676-.36.61-1.632-.227-1.744z"/><path d="m586.5 300.325c-12.25-18.405-40.213-26.021-61.182-22.717-.547.086-.527.975 0 1.078 9.588 1.876 19.234 3.797 28.539 6.829 11.26 3.669 21.012 10.53 31.336 16.116.799.432 1.862-.471 1.307-1.306z"/><path d="m580.91 317.702c.514-.222.486-.938.168-1.292-4.477-4.937-12.568-3.018-18.238-1.996-.635.115-.625 1.146 0 1.271 5.648 1.122 12.375 4.485 18.07 2.017z"/><path d="m205 424.832c-10.354-.177-19.549 4.6-28.402 9.522-8.48 4.716-17.986 10.792-22.551 19.621-.253.487.245.944.721.72 8.737-4.112 16.305-10.616 24.738-15.365 8.436-4.753 17.739-7.644 25.959-12.78.777-.486.464-1.702-.465-1.718z"/><path d="m204.783 420.019c.541-.305.572-1.181 0-1.477-3.336-1.738-7.631-.629-10.444 1.73-.259.218-.095.625.188.716 3.248 1.026 7.306.693 10.256-.969z"/></g><path d="m516.426 248.305c-57.877-20.442-123.847-10.186-170.318 32.354-18.952 17.348-34.765 37.971-48.548 59.571-9.627 15.088-18.072 30.94-25.63 47.156-3.472 7.45-7.073 15.182-10.345 23.077-8.922 21.534-1.992 22.363 13.379 4.39 9.116-10.657 18.762-20.864 28.748-30.883 18.432-18.498 37.461-36.901 58.261-52.736 43.538-33.144 96.792-60.563 151.685-69.947 2.426-.416 32.033-2.65 2.768-12.982z" fill="#fbe134"/><path d="m523.047 294.293c-6.002-3.682-12.463-6.572-19.434-8.409-12.137-3.201-23.542.171-35.213 3.678-17.303 5.198-34.482 9.083-77.043 36.654-11.402 7.387-8.606 8.562 3.486 3.719 21.855-8.752 70.01-25.298 123.799-21.647 20.147 1.369 20.487-4.117 4.405-13.995z" fill="#fbe134"/><path d="m463.095 408.294c-.356.419-.163 1.226.489 1.181 10.801-.765 21.538-6.43 31.796-9.733 10.814-3.485 21.543-6.378 31.875-11.196.908-.424.4-1.753-.482-1.779-11.734-.356-22.282 2.141-33.375 5.784-10.299 3.383-23.081 7.301-30.303 15.743z" fill="#fbe134"/><path d="m304.308 439.889c-11.045 13.716-24.926 31.492-26.604 49.636-.043.469.598.683.898.372 11.743-12.111 19.465-28.694 29.729-42.134 12.561-16.445 27.134-31.233 40.691-46.822.594-.685-.16-1.792-.998-1.292-17.267 10.311-31.187 24.681-43.716 40.24z" fill="#fbe134"/><path d="m365.054 393.182c-7.199.991-13.205 7.113-14.951 14.074-.076.306.224.709.565.567 6.288-2.614 11.784-7.615 15.39-13.335.463-.737-.296-1.403-1.004-1.306z" fill="#fbe134"/><path d="m409.341 678.354c10.093 1.567 21.635 1.359 28.963-6.989.531-.604.221-1.729-.697-1.685-9.81.489-18.744 5.486-28.266 7.342-.65.127-.675 1.227 0 1.332z" fill="#fbe134"/><path d="m338.507 664.003c21.668 7.693 48.075 12.566 70.627 6.402 1.119-.305 1.146-1.994 0-2.283-20.393-5.192-41.593-5.464-61.969-11.061-11.182-3.071-21.902-7.396-32.36-12.369-10.058-4.782-19.071-11.438-29.155-16.133-.637-.296-1.596.375-1.082 1.082 12.443 17.087 34.53 27.471 53.939 34.362z" fill="#fbe134"/><path d="m222.527 671.464c12.883-7.813 26.298-26.683 19.732-42.369-.219-.524-.864-.537-1.078 0-2.85 7.105-4.505 14.357-8.062 21.224-3.527 6.811-8.042 13.208-11.854 19.885-.452.791.459 1.745 1.262 1.26z" fill="#fbe134"/><path d="m164.753 514.665c5.716-8.268 11.236-16.666 16.974-24.92 5.056-7.271 11.299-14.104 14.479-22.459.279-.734-.652-1.314-1.258-.967-16.016 9.194-30.373 29.468-32.281 47.78-.125 1.208 1.518 1.386 2.086.566z" fill="#fbe134"/><path d="m170.105 416.495c3.108-.193 5.885-.084 8.991-.759 3.005-.652 5.591-1.211 8.308-2.676.545-.294.525-.969.182-1.397-2.432-2.999-5.552-2.859-9.076-2.283-3.924.642-6.205 3.441-8.894 5.934-.428.399-.112 1.218.489 1.181z" fill="#fbe134"/><path d="m121.284 467.382c17.911-16.233 34.499-32.165 55.522-44.605.795-.471.221-1.495-.584-1.384-21.98 3.042-49.23 23.739-55.708 45.541-.138.462.441.748.77.448z" fill="#fbe134"/><path d="m251.255 561.45c-1.701 12.777-7.939 23.611-16.307 33.246 8.865-4.414 17.085-10.587 25.022-16.322-2.559-4.861-4.165-10.389-4.54-16.678-1.45-.004-2.804-.136-4.175-.246z" fill="#865725"/><path d="m840.557 500.538c-4.58 4.682-11.584 8.228-17.082 11.691-9.373 5.901-18.762 11.766-28.363 17.289-14.082 8.1-36.738 14.59-46.047 28.658-9.475 14.323-1.426 33.602 2.6 48.482 6.563 24.266 16.271 47.535 25.648 70.807 1.756 4.359 16.047 31.494-9.482 20.201-4.621-2.045-9.26-4.039-13.893-6.049-7.969-3.451-15.836-7.041-23.529-11.074-17.561-9.209-36.506-27.57-57.154-28.084-25.328-.632-38.615 14.621-56.797 29.982-14.543 12.289-29.029 26.738-45.287 36.59-16.074 9.74-13.832-22.719-13.668-30.436.35-16.523.842-33.041 1.053-49.568.404-31.931 5.678-74.064-24.854-94.02-30.028-19.627-66.815-23.741-98.528-38.852-22.904-10.912 12.871-19.916 22.646-22.25 21.54-5.148 43.908-7.598 65.765-11.011 27.543-4.297 74.836-5.803 92.135-32.551 8.258-12.77 12.594-28.857 18.578-42.748 8.83-20.5 18.543-40.621 29.225-60.219 5.736-9.949 18.932-37.037 26.424-14.156 3.414 10.437 4.109 21.904 5.867 32.709 3.975 24.468 9.289 48.91 17.467 72.335 3.986 11.422 8.91 23.482 19.5 30.091 14.443 9.016 32.963 13.117 49.109 17.776 14.326 4.136 28.836 7.6 43.189 11.632 3.159.89 23.165 4.917 15.478 12.775z" fill="#ffe10e"/><path d="m730.408 680.544c7.693 4.033 15.561 7.623 23.529 11.074 4.633 2.01 9.271 4.004 13.893 6.049 25.529 11.293 11.238-15.842 9.482-20.201-9.377-23.271-19.086-46.541-25.648-70.807-1.58-5.844-3.77-12.365-5.289-19-1.254 15.314 3.635 32.811 6.727 45.564 3.072 12.666 7.225 25.487 8.381 38.521 1.682 18.979-37.99-9.766-43.563-13.256-21.57-13.523-43.461-27.971-69.496-18.316-24.396 9.049-41.848 30.631-62.678 45.23-18.383 12.885-15.141-25.367-14.916-34.334.365-14.598 1.459-29.109 2.631-43.658 1.174-14.564 1.896-29.149.398-43.715-.904-8.791-2.674-19.549-8.74-26.439-12.082-13.729-31.938-15.971-49.074-17.949-25.842-2.984-51.179-8.822-77.036-11.418 30.818 13.705 65.863 18.275 94.692 37.119 30.531 19.955 25.258 62.089 24.854 94.02-.211 16.527-.703 33.045-1.053 49.568-.164 7.717-2.406 40.176 13.668 30.436 16.258-9.852 30.744-24.301 45.287-36.59 18.182-15.361 31.469-30.614 56.797-29.982 20.648.514 39.594 18.875 57.154 28.084z" fill="#f7b001"/><path d="m702.621 484.292c-9.395 1.333-17.037 12.313-15.734 21.493.273 1.923 2.988 2.828 4.496 1.829 6.793-4.499 15.213-11.209 15.57-20.021.098-2.446-2.246-3.595-4.332-3.301z" fill="#f7b001"/><path d="m744.898 540.429c-10.172-4.256-22.1-1.813-31.723 2.674-2.695 1.254-1.143 5.086 1.412 5.212 9.861.481 20.973 1.993 30.311-1.921 2.926-1.227 2.928-4.743 0-5.965z" fill="#f7b001"/><path d="m659.074 588.435c-1.6 4.018-2.982 8.093-4.689 12.068-1.566 3.647-2.854 7.338-2.559 11.363.201 2.742 3.443 4.432 5.563 2.303 6.035-6.059 10.088-17.372 7.396-25.734-.953-2.961-4.65-2.664-5.711 0z" fill="#f7b001"/><path d="m624.633 579.94c-7.111 2.756-12.311 8.525-15.869 15.127-1.133 2.102.781 5.518 3.418 4.446 6.842-2.776 13.082-7.599 16.541-14.257 1.32-2.543-.899-6.552-4.09-5.316z" fill="#f7b001"/><path d="m659.791 502.337c-.658-11.154-8.482-18.503-17.563-23.919-2.215-1.321-5.303 1.417-3.691 3.692 5.139 7.261 10 14.759 15.428 21.806 1.697 2.204 6.029 1.88 5.826-1.579z" fill="#f7b001"/><path d="m629.559 512.964c-.984-.638-1.834-1.448-2.84-2.053-1.1-.662-2.395-1.266-3.414-2.008-2.488-1.818-4.791 1.555-3.781 3.781.469 1.038.715 2.135 1.33 3.15.809 1.338 1.764 2.422 2.953 3.426 2.332 1.97 5.586 3.634 8.213 1.086 2.611-2.534-.245-5.941-2.461-7.382z" fill="#f7b001"/><path d="m660.502 490.563c1.121.773 2.479.315 3.43-.442 4.121-3.285 1.68-11.497-3.373-12.566-1.162-.247-2.545.128-3.121 1.271-.906 1.796-.768 3.894-.514 5.842.344 2.662 1.39 4.386 3.578 5.895z" fill="#f7b001"/><path d="m720.906 515.963c5.766.056 13.088-.819 16.832-5.778.998-1.322.211-3.379-1.086-4.143-3.293-1.939-6.852-1.395-10.32-.283-3.5 1.121-5.967 3.158-7.643 6.341-.9 1.713.211 3.844 2.217 3.863z" fill="#f7b001"/><path d="m665.172 551.392c-1.861 1.676-3.58 5.085-4.24 7.485-.699 2.538-1.018 7.043 2.309 7.958 3.342.92 5.492-3.031 6.27-5.593.738-2.425.965-6.101.447-8.587-.464-2.228-3.29-2.613-4.786-1.263z" fill="#f7b001"/><path d="m686.139 555.4c-.467-.632-.912-1.267-1.459-1.833-1.162-1.201-2.633-2.003-4.172-2.596-2.309-.889-4.441 2.687-2.467 4.235.938.734 1.48 1.541 2.109 2.532.709 1.115 1.451 1.592 2.551 2.191 2.498 1.365 4.711-1.284 3.646-3.647.809 1.799-.085-.713-.208-.882z" fill="#f7b001"/><path d="m708.621 503.21c3.346-.354 6.422-2.186 9.375-3.695 3.877-1.98 7.357-4.224 10.941-6.656.479-.325.332-1.147-.307-1.135-7.223.132-17.18 3.742-20.309 10.966-.089.211.009.551.3.52z" fill="#f8f383"/><path d="m666.039 537.97c.1 1.79 1.256 3.428 2.021 5.005.83 1.707 2.041 2.819 3.908 3.243.316.072.549-.096.668-.38 1.455-3.48-2.168-8.329-5.791-8.675-.421-.039-.827.398-.806.807z" fill="#f8f383"/><path d="m601.551 560.35c10.898-.874 22.045-1.391 32.803-3.202.498-.085.59-.873.143-1.084-10.607-5.051-23.021-1.031-33.08 3.795-.233.113-.124.511.134.491z" fill="#f8f383"/><path d="m620.459 549.086c1.555 2.018 5.873 1.456 7.922.673.428-.165.539-.609.256-.963-1.275-1.584-3.23-2.61-5.318-2.096-.538.131-3.821 1.137-2.86 2.386z" fill="#f8f383"/><path d="m685.102 585.809c1.822 5.058 4.178 9.713 5.639 14.956 1.238 4.447 1.508 9.559 5.199 12.725.34.293.773.156.934-.248 2.115-5.287-.617-11.724-2.551-16.732-1.605-4.166-4.393-9.425-8.775-11.146-.251-.101-.534.198-.446.445z" fill="#f8f383"/><path d="m701.668 570.048c2.936 2.033 5.787 4.269 8.576 6.5 2.123 1.699 4.223 4.057 7.154 3.938.365-.015.789-.327.74-.74-.406-3.365-3.637-5.274-6.205-7.059-3.066-2.127-6.318-3.273-9.984-3.682-.603-.067-.691.76-.281 1.043z" fill="#f8f383"/><path d="m710.137 567.874c.531 1.383 6.234 4.369 6.779 1.85.662-3.074-5.186-3.912-6.715-2.09-.055.062-.097.154-.064.24z" fill="#f8f383"/><path d="m617.342 485.168c2.043 3.377 5.258 5.885 8.049 8.623 1.637 1.606 3.168 3.343 4.541 5.179 1.07 1.434 1.783 2.805 3.305 3.781 1.115.72 2.609-.223 2.605-1.496-.012-3.918-4.109-7.199-6.844-9.54-3.318-2.845-7.047-5.673-11.191-7.152-.348-.123-.643.311-.465.605z" fill="#f8f383"/><path d="m632.461 488.379c-.523 2.471 2.277 6.617 4.896 6.554.283-.006.473-.22.494-.494.164-2.25-2.652-6.21-5.059-6.313-.146-.006-.302.109-.331.253z" fill="#f8f383"/><path d="m689.512 486.355c2.391-1.512 3.74-5.481 5.16-7.854 2.068-3.451 3.094-6.952 4.627-10.604.189-.45-.412-.8-.773-.594-3.914 2.226-6.213 4.573-8.232 8.637-1.248 2.514-3.135 7.658-1.322 10.272.118.172.346.265.54.143z" fill="#f8f383"/><path d="m700.195 477.183c2.156-.156 3.857-2.806 4.91-4.453.357-.563-.242-1.446-.912-1.185-1.939.757-5.252 2.875-4.283 5.42.045.118.145.228.285.218z" fill="#f8f383"/><path d="m618.613 603.478c-6.846 5.891-12.535 15.004-13.713 24.011-.072.558.693.619.951.257 5.127-7.199 10.648-15.355 13.918-23.595.278-.703-.687-1.076-1.156-.673z" fill="#f8f383"/><path d="m609.146 605.859c-2.334 1.151-4.816 2.987-5.264 5.7-.053.324.219.764.607.606 2.537-1.012 3.881-3.6 4.996-5.968.107-.224-.108-.45-.339-.338z" fill="#f8f383"/><path d="m664.986 512.94c-1.613 1.764-1.211 4.947-1.16 7.169.063 2.714.104 5.614 2.428 7.389.205.156.537.035.652-.171 1.262-2.238.811-4.76.678-7.218-.121-2.213.195-5.611-1.688-7.169-.261-.212-.656-.275-.91 0z" fill="#f8f383"/><path d="m727.42 500.276c1.645.673 4.008-.783 5.656-1.218 2.521-.662 4.779-1.446 7.004-2.845.375-.239.201-.763-.217-.798-2.637-.216-5.063-.091-7.594.724-1.715.551-4.945 1.336-5.264 3.406-.054.352.089.598.415.731z" fill="#f8f383"/><path d="m586.965 508.104c3.672 1.805 7.387 3.482 11.031 5.343 3.375 1.722 6.285 4.34 10.088 5.005.469.082.754-.328.574-.749-2.957-6.983-14.639-10.059-21.502-10.304-.367-.011-.531.539-.191.705z" fill="#f8f383"/><path d="m602.963 508.329c1.023 1.372 1.838 2.658 3.279 3.66.447.311 1.271.23 1.617-.209 1.805-2.299-3.352-3.623-4.449-4.031-.312-.115-.65.307-.447.58z" fill="#f8f383"/><path d="m783.043 514.26c-16.959-.734-31.486 1.212-47.912 5.809-15.939 4.462-33.736 11.031-46.543 21.744-.424.354.033 1.001.512.88 16.211-4.137 31.631-11.65 47.773-16.305 15.15-4.369 30.965-7.481 46.314-11.061.618-.144.45-1.043-.144-1.067z" fill="#68182b"/><path d="m658.465 568.337c-23.094 17.701-39.867 49.805-43.828 78.293-.111.797.904 1.093 1.205.334 5.305-13.379 11.85-26.627 18.84-39.208 7.424-13.362 17.453-25.112 24.615-38.586.26-.487-.315-1.23-.832-.833z" fill="#68182b"/><path d="m684.213 570.366c-.627-.19-1.01.6-.609 1.045 9.783 10.834 19.561 20.814 27.787 33.043 8.215 12.209 13.842 25.957 22.654 37.752.348.467 1.225.374 1.195-.325-.656-15.094-9.715-28.748-17.982-40.854-7.932-11.615-18.961-26.372-33.045-30.661z" fill="#68182b"/><path d="m649.58 549.532c-7.865-11.972-21.311-17.299-34.393-21.882-16.268-5.702-34.033-8.238-51.201-6.942-.447.033-.58.686-.109.809 15.473 4.027 31.156 6.911 46.406 11.801 13.539 4.344 25.275 12.223 38.459 17.303.61.233 1.178-.571.838-1.089z" fill="#68182b"/><path d="m664.166 428.503c4.555 17.021 8.01 33.695 9.133 51.348 1.078 16.945-.172 34.137-.426 51.099-.012.744 1.045.848 1.26.17 9.875-31.078 9.859-75.111-9.545-102.795-.147-.206-.492-.085-.422.178z" fill="#68182b"/><path d="m649.498 522.465c1.859 3.974 3.379 7.364 5.98 10.873.289.389 1.115.335 1.043-.282-.869-7.389-4.074-17.426-11.52-20.83-.482-.221-1.02.236-.744.742 1.741 3.197 3.692 6.185 5.241 9.497z" fill="#68182b"/><path d="m691.832 526.256c3.617-1.493 6.865-3.995 10.154-6.097 4.303-2.754 8.193-6.449 12.666-8.861.863-.465.242-1.672-.635-1.504-5.111.983-9.879 1.798-13.988 5.28-3.445 2.919-7.121 6.465-8.48 10.897-.049.155.117.352.283.285z" fill="#68182b"/><path d="m710.51 559.522c4.033 1.143 7.334 1.184 11.449.82.57-.049.875-.818.307-1.135-6.336-3.525-16.354-8.016-23.064-2.571-.227.183-.115.644.182.687 3.778.543 7.44 1.158 11.126 2.199z" fill="#68182b"/><path d="m672.922 583.21c-.24-.078-.541.137-.52.397.352 4.527 1.914 9.133 2.354 13.769.451 4.783.465 8.74 2.502 13.184.162.355.775.355.938 0 2.293-5.006 2.332-9.925 1.326-15.33-.723-3.895-2.26-10.598-6.6-12.02z" fill="#68182b"/><path d="m637.869 565.237c.563-.167.602-1.027 0-1.173-5.65-1.388-9.645-.999-15.037 1.306-3.822 1.634-9.207 5.344-9.984 9.734-.035.201.131.448.363.363 3.949-1.426 7.574-3.953 11.563-5.49 4.216-1.622 8.787-3.455 13.095-4.74z" fill="#68182b"/><path d="m251.876 395.633c7.232-11.087 12.705-23.437 19.435-34.859 7.699-13.06 16.131-25.7 25.126-37.897 17.26-23.402 37.522-45.501 59.514-64.557.596-.519-.182-1.501-.84-1.086-24.827 15.672-43.977 36.543-61.416 59.982-9.04 12.152-17.087 25.134-24.426 38.373-6.912 12.467-14.477 25.866-18.083 39.752-.111.426.458.648.69.292z" fill="#68182b"/><path d="m360.375 254.648c1.883-.173 3.578-1.598 5.133-2.579 1.979-1.249 4.035-2.366 5.123-4.521.17-.333-.037-.734-.426-.742-2.48-.056-4.271 1.273-6.244 2.623-1.621 1.108-3.66 2.833-3.914 4.891-.022.166.165.343.328.328z" fill="#68182b"/><path d="m474.119 712.804c-22.83 1.453-45.754 2.444-68.577.198-26.532-2.61-50.706-10.337-75.271-20.183-.302-.121-.564.344-.318.549 18.611 15.516 45.855 22.032 69.334 24.965 24.762 3.092 51.135 4.31 75.015-4.171.697-.247.637-1.409-.183-1.358z" fill="#68182b"/><path d="m325.039 490.37c-.846 1.094-1.586 2.209-2.224 3.365-3.206 5.818-1.347 6.576 3.419 1.674 7.558-7.779 4.472-12.382-1.195-5.039z" fill="#68182b"/></g></g></svg>