<svg id="Fruit" height="512" viewBox="0 0 992.13 992.13" width="512" xmlns="http://www.w3.org/2000/svg"><g><path d="m890.106 441.447c-11.346-19.327-12.938-40.191-5.013-65.66 1.177-3.78 3.088-8.253 5.111-12.987 7.15-16.731 16.943-39.648 6.522-64.105-6.631-15.563-20.812-24.489-38.904-24.489-18.788 0-38.566 9.209-57.143 19.162l-2.053 1.095c-13.77 6.839-28.884 10.027-47.538 10.027-16.764 0-34.106-2.52-52.467-5.186-14.518-2.108-29.531-4.289-44.73-5.223-6.866-.422-13.888-.636-20.874-.636-11.881 0-24.058.617-36.197 1.837-.49.05-.981.099-1.465.146-13.188-17.509-27.341-32.381-43.264-45.459-16.995-13.956-35.248-22.349-52.903-30.466-3.688-1.694-7.393-3.397-11.101-5.162-15.199-7.23-24.371-15.987-28.865-27.558-3.698-9.523-2.895-21.049-1.965-34.39.548-7.864 1.115-15.993.807-24.548-1.275-35.655-20.344-58.693-48.577-58.693-2.744 0-5.574.232-8.415.693-20.185 3.275-35.107 18.001-46.006 28.752l-1.252 1.234c-10.571 10.398-19.652 21.487-28.436 32.212-9.509 11.611-18.492 22.581-28.741 32.01-19.881 18.287-42.168 33.627-65.761 49.867-21.79 14.997-44.319 30.507-65.067 48.706-38.708 33.958-71.109 74.774-93.696 118.036-49.801 95.385-41.761 218.984 20.007 307.565 55.768 79.975 159.649 125.843 285.011 125.843 14.261 0 28.631-.642 42.725-1.909.621-.057 1.22-.088 1.798-.088 3.423 0 6.148.971 16.324 9.838 56.068 48.855 150.295 101.061 246.601 101.066h.021c14.167 0 28.104-1.162 41.428-3.451 41.26-7.098 92.229-29.367 126.829-55.418 58.17-43.801 94.321-116.971 99.184-200.75 2.637-45.416-5.768-94.613-24.981-146.229-8.847-23.761-20.588-47.809-36.954-75.682z" fill="#fff"/><g><path d="m869.511 453.537c-15.855-27.005-16.355-55.496-7.221-84.849 5.881-18.891 21.171-40.203 12.466-60.633-10.038-23.561-52.948 1.188-65.187 7.638-50.544 25.299-104.335 5.47-157.141 2.226-17.713-1.088-35.528-.65-53.218 1.125-13.967 1.405-14.869 1.473-22.819-9.098-11.515-15.31-24.474-29.215-39.455-41.52-17.918-14.714-38.487-22.707-59.108-32.519-18.294-8.703-33.384-21.211-40.867-40.479-8.38-21.577-1.962-44.467-2.763-66.729-.644-17.985-7.814-38.761-29.301-35.278-13.277 2.153-25.311 14.561-34.335 23.438-20.729 20.389-36.247 44.985-57.757 64.771-40.398 37.161-89.977 62.749-131.245 98.949-35.369 31.029-66.495 69.422-88.276 111.137-45.67 87.47-37.893 202.083 18.426 282.849 65.868 94.46 196.525 123.654 305.996 113.808 14.616-1.321 23.336 4.527 35.96 15.53 67.73 59.016 174.377 108.232 268.312 92.084 38.948-6.699 85.773-27.814 116.512-50.96 57.029-42.94 85.664-113.379 89.708-183.056 2.7-46.516-7.376-93.141-23.521-136.512-9.327-25.051-21.653-48.904-35.166-71.922z" fill="#68182b"/><path d="m762.611 512.316c5.214-3.449 11.301-5.637 17.506-6.35 7.764-.891 22.036 4.588 16.818 14.898-3.934 7.775-17.592 9.179-25.066 9.43-4.745-.037-17.386-1.186-18.107-7.857-.473-4.365 5.953-8.205 8.849-10.121z" fill="#fac135"/><path d="m678.449 544.391c-.237-8.561 22.202-5.725 26.445-4.744 5.48 1.266 11.079 4.008 14.335 8.734 2.656 3.854 2.485 10.936-1.579 13.78-7.165 5.011-19.727.056-26.519-3.294-5.203-2.803-12.499-7.84-12.682-14.476z" fill="#fac135"/><path d="m633.466 535.084c-1.313 8.746-21.96 6.376-27.434 5.145-5.112-1.152-10.423-3.637-13.541-7.994-2.575-3.598-2.915-10.706.939-13.631 7-5.312 19.615-1.066 26.621 2.057 4.58 2.241 14.382 7.976 13.415 14.423z" fill="#fac135"/><path d="m666.607 412.374c.991-5.433 3.435-10.618 8.349-13.43 3.521-2.016 9.343-1.757 11.885 1.651 5.291 7.091 2.582 19.004.202 26.625-1.601 4.573-6.78 15.482-13.223 14.214-3.938-.777-5.487-7.32-6.374-10.408-1.736-6.043-1.967-12.485-.839-18.652z" fill="#fac135"/><path d="m703.325 464.436c2.816-2.979 9.086-4.486 12.525-1.8 6.928 5.42 6.426 18.041 5.481 26.101-.936 5.413-3.76 16.475-10.575 16.859-3.968.222-6.798-6.375-8.176-9.109-2.731-5.411-3.912-11.548-4.061-17.556-.13-5.238 1.149-10.628 4.806-14.495z" fill="#fac135"/><path d="m777.914 569.135c5.48 1.267 11.079 4.008 14.335 8.735 2.656 3.853 2.485 10.935-1.579 13.779-7.165 5.011-19.727.056-26.519-3.293-5.204-2.804-12.5-7.841-12.683-14.478-.237-8.56 22.203-5.724 26.446-4.743z" fill="#fac135"/><path d="m647.502 575.663c9.38-3.644 18.739 12.841 21.865 19.146 2.166 4.857 4.832 13.762.938 18.494-4.997 6.074-18.838-6.826-21.923-9.998-6.559-6.743-13.652-22.68-.88-27.642z" fill="#fac135"/><path d="m634.397 455.444c9.544-3.791 17.821 14.006 20.185 20.366 1.757 5.428 3.651 13.93-.397 18.893-5.37 6.584-18.814-8.74-21.62-12.597-5.599-7.697-10.014-21.956 1.832-26.662z" fill="#fac135"/><path d="m748.673 653.418c-2.746-5.258-5.492-12.99-2.283-18.631 4.118-7.24 20.997 7.063 23.856 9.92 6.44 6.434 13.181 22.156.448 26.458-8.91 3.011-18.582-11.76-22.021-17.747z" fill="#fac135"/><path d="m721.511 758.42c-7.995-3.957-7.078-19.518-6.045-26.602.934-5.081 3.81-16.18 10.399-16.906 8.647-.953 11.955 19.324 12.256 24.994.442 8.317-5.182 24.169-16.61 18.514z" fill="#fac135"/><path d="m409.972 778.484c-81.71 6.024-166.396-10.027-234.697-56.605-99.3-67.719-125.26-208.039-77.896-314.501 20.432-45.93 54.827-85.694 91.631-119.349 40.509-37.043 90.059-62.626 131.245-98.949 20.45-18.037 35.425-40.501 53.685-60.532 7.156-7.852 32.742-36.159 44.236-21.092 8.357 10.964 6.942 23.771-1.606 32.195-3.791 3.735-9.267 6.26-14.644 5.521-6.666-.913-9.873-6.742-14.012-11.197-.3-.325-.883-.078-.87.359.44 16.274 19.223 20.563 31.124 13.72 6.426-3.691 4.957-.473 4.587 6.636-.979 18.55-.004 35.767 8.192 53.244 9.989 21.302 32.321 33.24 52.822 42.192 32.684 14.275 58.714 34.271 80.287 61.129 8.888 11.06 3.98 12.108-7.664 14.685-6.479 1.432-12.918 3.029-19.301 4.782-24.967 6.859-49.729 16.942-72.46 30.284-7.11-22.213-15.536-43.931-27.676-63.935-.169-.279-.652-.097-.541.229 7.653 22.382 15.843 44.548 22.213 67.337-16.764 10.438-32.294 22.713-45.816 36.829-30.519 31.86-50.983 66.289-64.296 127.996-7.738 35.854-8.218 73.015.189 110.382 10.924 48.555 36.775 92.41 69.837 129.436 6.693 7.497 5.147 8.195-8.569 9.204z" fill="#7761d3"/><path d="m461.114 796.455c-46.658-39.711-83.44-91.566-100.094-150.861-12.193-43.414-10.323-87.697 1.599-129.703-1.59 59.012 27.729 117.667 62.979 164.791 56.165 75.09 138.41 145.192 225.54 180.967 31.504 12.934 63.06 19.566 93.75 18.029-96.1 30.734-211.849-22-283.774-83.223z" fill="#7761d3"/><path d="m696.291 681.637c-2.839 3.285-9.516 5.239-13.229 2.322-6.915-5.43-5.987-18.721-4.735-26.294 1.045-5.144 4.131-16.007 10.783-16.614 3.706-.337 6.168 5.137 7.506 7.717 2.99 5.77 4.156 12.461 4.177 18.891.015 4.923-1.228 10.191-4.502 13.978z" fill="#fac135"/><path d="m805.749 746.877c-8.847 3.568-19.224-10.124-23.137-16.104-2.854-4.77-6.366-12.321-3.914-17.975 3.479-8.014 19.773 3.526 23.272 6.404 6.908 5.683 17.145 22.284 3.779 27.675z" fill="#fac135"/><path d="m844.206 632.635c2.655 3.852 2.484 10.934-1.58 13.779-7.164 5.01-19.726.055-26.518-3.293-5.204-2.805-12.501-7.842-12.684-14.478-.236-8.562 22.203-5.724 26.446-4.745 5.481 1.268 11.079 4.009 14.336 8.737z" fill="#fac135"/><path d="m886.412 508.662c-11.972-26.214-33.014-51.959-38.578-80.577-4.688-24.113-1.489-46.444 6.935-69.356 4.546-12.364 12.887-25.783 12.033-39.536-1.448-23.361-43.17.985-51.918 5.597-.099.052-.197.101-.296.146-57.301 28.488-116.769 3.349-176.607 3.036-52.407-.274-106.176 9.97-153.047 34.089-26.372 13.572-51.926 31.548-71.753 54.177-41.62 47.499-54.76 122.841-16.215 199.092 46.355 91.7 134.277 172.232 224.448 220.353 42.646 22.758 93.896 43.1 143.066 32.479 38.329-8.275 72.612-30.136 97.777-60.117 70.412-83.897 67.919-203.537 24.155-299.383zm-124.813 311.666c-47.347 12.133-101.06 5.602-142.972-20.273-21.954-13.553-41.898-32.106-51.965-56.338-7.917-19.051-8.09-40.996-31.444-48.434-14.27-4.545-30.39-5.846-43.153-14.387-33.804-22.616-51.597-70.366-61.527-108.193-8.662-32.992-12.206-69.064-1.265-102.029 38.378-115.653 201.981-138.896 300.238-92.935.171.072.346.152.518.242.196.091.379.189.55.292 15.295 8.136 28.308 19.107 37.444 34.022 7.524 12.28 12.624 28.438 22.896 38.757 11.584 11.641 28.906 10.865 42.204 20.021 10.005 6.889 18.777 15.402 25.28 25.739 36.636 58.256 32.886 143.99 14.415 207.77-15.931 55.014-54.221 101.143-111.219 115.746z" fill="#fbf199"/><path d="m577.938 393.666c9.126-3.404 18.74 13.73 21.791 19.755 2.11 4.6 5.29 13.724 1.577 18.37-4.891 6.122-19.761-8.75-22.645-11.983-5.645-6.333-12.594-21.715-.723-26.142z" fill="#fac135"/><path d="m499.044 520.879c4.488-7.474 19.214-7.076 26.475-6.523 5.118.595 16.367 3.326 16.555 10.049.121 4.301-7.578 7.623-10.538 9.129-5.299 2.697-11.278 3.903-17.178 4.054-8.277.211-21.304-6.734-15.314-16.709z" fill="#fac135"/><path d="m528.598 644.578c-7.771 2.68-24.247 1.6-22.005-10.785 1.619-8.928 16.447-12.231 24.15-13.47 5.474-.538 16.48-.784 18.832 5.375 3.087 8.088-15.474 16.984-20.977 18.88z" fill="#fac135"/><path d="m540.442 453.25c8.244-2.638 18.87 6.197 24.236 11.292 4.071 4.17 9.153 10.863 7.712 17.131-1.833 7.98-21.018-.033-24.515-1.786-5.472-2.741-10.758-7.168-13.039-12.981-1.918-4.885.404-11.995 5.606-13.656z" fill="#fac135"/><path d="m577.578 583.424c-5.797 2.804-12.481 3.742-18.844 3.618-4.953-.097-10.118-1.536-13.835-4.901-3.293-2.979-4.849-9.637-1.855-13.275 5.57-6.771 18.94-5.436 26.424-4.025 5.381 1.217 16.122 4.677 16.243 11.662.058 3.392-5.788 5.788-8.133 6.921z" fill="#fac135"/><path d="m605.954 659.469c-7.087 7.447-20.675 13.844-27.547 2.533-5.305-8.73 12.34-19.875 17.938-22.928 5.369-2.645 13.097-5.068 18.677-1.721 6.509 3.907-6.537 19.457-9.068 22.116z" fill="#fac135"/><path d="m870.43 559.841c-4.1-21.343-10.247-43.716-23.605-61.312-13.565-17.867-28.97-22.224-48.871-29.758-13.814-5.231-21.698-19.066-28.114-31.447-11.136-21.499-23.064-38.658-45.125-50.251-66.999-31.578-159.128-27.908-222.611 10.776-33.304 20.294-59.31 51.331-66.466 90.473-9.473 51.807 8.196 110.442 35.704 154.305 11.764 18.756 25.219 32.346 47.174 37.432 14.887 3.45 32.013 6.928 41.915 19.826 9.731 12.67 10.213 28.715 17.184 42.679 6.188 12.397 14.532 23.511 24.957 32.685 49.013 43.133 129.799 54.666 187.566 22.578 79.288-44.043 96.052-155.916 80.292-237.986zm-90.313-64.405c8.354-.494 16.396 1.324 22.326 7.535 4.369 4.574 7.517 13.127 5.239 19.367-5.102 13.972-21.884 17.934-35.278 18.469-.175.014-.353.021-.535.02-.21.006-.413.004-.611-.01-11.543-.258-28.478-5.367-27.986-19.578.537-15.52 23.981-25.042 36.845-25.803zm-37.911 72.91c6.751-14.979 32.3-12.158 44.37-7.396 7.403 2.922 15.95 9.226 17.272 17.721 1.028 6.591.697 14.891-4.787 19.675-11.15 9.731-27.853 5.124-39.82-.699-.136-.06-.27-.126-.405-.198-.147-.073-.287-.149-.423-.232-9.522-5.276-21.584-16.938-16.207-28.871zm-23.336-116.057c13.236 6.251 14.464 24.907 12.866 37.5-.027.212-.064.416-.109.613-.01.255-.033.519-.078.785-1.771 10.688-9.687 27.467-23.26 24.672-15.404-3.174-21.852-27.454-20.108-40.811.982-7.549 3.381-15.456 10.035-19.969 5.85-3.969 14.002-5.931 20.654-2.79zm-75.698 113.813c15.573-6.049 28.857 10.688 35.042 22.898.089.156.171.318.249.494.095.189.177.379.247.567 4.087 9.524 7.574 26.601-3.641 32.88-13.309 7.455-30.394-6.363-37.797-16.63-8.906-12.35-11.656-33.39 5.9-40.209zm-43.708-16.852c-7.557-2.915-15.52-7.691-18.099-15.936-2.078-6.636-1.773-14.83 2.906-20.352 9.89-11.669 28.68-6.854 40.687-1.576.136.057.271.113.409.182.156.07.301.145.442.221 9.536 4.82 22.016 16.023 17.184 27.955-5.975 14.757-31.377 14.192-43.529 9.506zm69.723-10.393c6.751-14.979 32.3-12.158 44.37-7.396 7.403 2.922 15.949 9.226 17.272 17.721 1.028 6.59.697 14.891-4.787 19.675-11.15 9.731-27.854 5.124-39.82-.699-.134-.06-.27-.126-.405-.198-.147-.073-.288-.149-.424-.232-9.524-5.275-21.583-16.937-16.206-28.871zm-12.737-129.283c1.733-7.448 5.662-16.418 13.188-19.724 6.214-2.729 15.045-4.256 21.008.138 12.182 8.975 10.641 26.668 6.681 39.616-.037.139-.078.276-.127.418-.048.148-.099.292-.154.43-3.549 9.769-13.428 25.191-26.024 21.138-15.313-4.929-17.637-28.839-14.572-42.016zm-23.207 35.322c15.685-3.75 26.72 15.573 31.295 27.579.073.173.142.35.201.537.076.208.14.411.191.608 3.172 10.361 3.834 27.139-8.322 31.904-14.268 5.595-30.986-11.97-36.319-23.475-6.481-13.979-4.791-32.911 12.954-37.153zm-59.586-60.833c15.555-5.801 28.757 11.599 34.939 23.597.08.143.156.29.229.446.084.169.16.336.227.502 4.093 9.218 8.283 26.597-2.909 32.773-13.14 7.253-29.749-6.965-37.095-16.84-8.826-11.864-13.383-33.77 4.609-40.478zm-41.109 61.321c13.229-8.142 29.442 2.209 39.224 11.379.119.103.236.214.354.333.13.124.251.249.362.377 7.368 7.718 14.679 20.658 8.24 30.983-8.37 13.425-32.743 5.003-42.343-2.01-7.032-5.136-14.694-12.683-14.683-22.143.009-6.899 2.619-15.089 8.846-18.919zm-44.392 73.846c4.431-14.121 24.462-16.289 36.849-15.443.166.006.337.016.514.037.186.014.366.037.541.066 11.1 1.422 27.909 7.707 26.428 21.626-1.646 15.45-25.128 22.935-38.13 22.602-15.156-.389-31.611-11.638-26.202-28.888zm39.274 136.545c-14.664 2.6-32.238-4.291-31.45-21.891.681-15.205 20.53-21.979 32.793-23.844.23-.035.455-.057.675-.064.232-.055.474-.098.727-.125 10.778-1.177 28.877 1.843 30.005 15.588 1.263 15.427-19.717 28.028-32.75 30.336zm27.584-58.533c-14.393-1.637-30.326-15.824-22.337-31.558 6.924-13.636 26.177-13.448 39.136-11.083.15.023.303.05.457.084.173.033.337.072.497.115 10.439 2.516 26.21 11.027 23.183 24.105-3.646 15.741-27.646 19.847-40.936 18.337zm53.404 73.985c-12.227 9.555-32.493 11.342-39.759-5.416-6.549-15.112 10.265-29.102 21.89-35.563.152-.092.313-.182.481-.266.188-.103.375-.193.562-.271 9.482-4.504 26.208-8.322 32.922 2.654 8.164 13.346-6.099 31.051-16.096 38.862zm54.131 65.902c-4.159 14.615-19.935 28.654-35.229 18.08-12.138-8.39-9.016-27.739-4.778-39.57.045-.141.095-.28.152-.424.054-.148.113-.289.177-.428 3.953-9.432 14.485-24.815 26.85-20.16 15.076 5.675 16.586 29.293 12.828 42.502zm36.323-44.294c-6.043 2.876-13.973 4.696-20.103.864-12.515-7.829-12.753-25.358-10.671-38.383.019-.15.041-.301.071-.453.029-.176.066-.348.109-.512 2.283-10.395 11.013-27.333 24.301-23.443 15.505 4.537 20.271 28.078 18.309 41.877-1.079 7.58-4.588 16.514-12.016 20.05zm49.531 52.925c-1.343 14.318-15.514 30.016-31.022 22.341-13.565-6.714-13.952-25.644-12.139-38.619.017-.154.037-.309.066-.465.028-.188.063-.37.104-.548 2.115-10.506 10.564-27.381 23.927-23.738 15.531 4.232 20.346 27.346 19.064 41.029zm-8.56-86.571c-.093-.146-.182-.297-.266-.457-.103-.177-.191-.354-.271-.53-4.766-9.448-8.796-25.976 2.04-32.956 13.122-8.457 31.223 5.586 39.21 15.33 9.566 11.669 12.309 34.201-5.602 40.252-15.107 5.104-28.297-9.98-35.111-21.639zm82.623 80.186c-.839 7.039-5.813 14.389-12.487 17.082-14.746 5.947-28.804-8.834-36.178-19.945-.097-.133-.189-.273-.28-.424-.108-.166-.205-.332-.294-.498-5.354-9.219-9.641-24.292-.195-32.371 11.54-9.869 31.771 2.789 39.732 11.744 6.059 6.821 10.825 14.979 9.702 24.412zm28.553-86.266c-11.15 9.73-27.855 5.123-39.82-.699-.134-.061-.27-.126-.405-.197-.148-.074-.288-.15-.424-.232-9.523-5.275-21.584-16.938-16.207-28.87 6.751-14.979 32.301-12.159 44.371-7.396 7.402 2.921 15.949 9.226 17.271 17.72 1.028 6.59.697 14.889-4.786 19.674z" fill="#ff5671"/><path d="m652.819 732.499c-1.004 5.407-3.4 10.925-8.146 13.991-3.497 2.259-9.973 2.367-12.691-1.195-5.515-7.224-1.898-19.727.868-27.283 2.133-5.26 7.012-13.51 13.599-13.395 3.404.062 5.037 6.794 5.683 9.066 1.728 6.075 1.835 12.637.687 18.816z" fill="#fac135"/><path d="m578.662 419.808c2.884 3.233 17.754 18.105 22.645 11.983 2.442-3.057 1.889-8.038.632-12.407-10.851 1.88-22.641-7.999-30.196-19.076-1.502 6.418 3.015 15.121 6.919 19.5z" fill="#ee9e2b"/><path d="m590.766 527.754c.292 1.689.87 3.285 1.726 4.48 3.118 4.357 8.429 6.842 13.541 7.994 5.474 1.231 26.121 3.602 27.434-5.145.428-2.852-1.253-5.563-3.655-7.893-9.764 9.319-28.556 8.794-39.046.564z" fill="#ee9e2b"/><path d="m672.011 419.927c-2.419-2.297-4.159-4.873-5.39-7.612-.002.021-.01.039-.014.06-1.128 6.167-.897 12.609.839 18.652.887 3.088 2.436 9.631 6.374 10.408 5.916 1.166 10.76-7.93 12.751-12.967-5.204-.948-10.689-4.865-14.56-8.541z" fill="#ee9e2b"/><path d="m627.725 472.089c1.01 3.687 2.843 7.271 4.84 10.018 2.806 3.856 16.25 19.181 21.62 12.597 2.952-3.62 2.734-9.112 1.725-13.932-10.463 2.986-21.516-.88-28.185-8.683z" fill="#ee9e2b"/><path d="m506.654 633.57c-.014.076-.047.145-.062.223-2.242 12.385 14.234 13.465 22.005 10.785 5.503-1.896 24.064-10.792 20.978-18.88-.305-.796-.762-1.478-1.323-2.071-12.658 7.448-26.228 11.369-41.598 9.943z" fill="#ee9e2b"/><path d="m514.357 537.587c5.899-.15 11.879-1.356 17.178-4.054 2.96-1.506 10.659-4.828 10.538-9.129-.07-2.547-1.732-4.52-4.044-6.021-10.358 9.926-28.785 12.184-40.004 4.729-2.965 8.759 8.691 14.67 16.332 14.475z" fill="#ee9e2b"/><path d="m547.876 479.887c3.497 1.753 22.682 9.767 24.515 1.786.887-3.855-.701-7.868-2.999-11.358-6.317 4.757-14.395 5.77-23.69 1.571-4.046-1.827-8.382-5.046-11.528-8.956-.031 1.384.183 2.75.664 3.976 2.28 5.813 7.566 10.24 13.038 12.981z" fill="#ee9e2b"/><path d="m558.734 587.042c6.362.124 13.047-.814 18.844-3.618 2.345-1.133 8.19-3.529 8.133-6.922-.062-3.525-2.828-6.15-6.246-8.045-9.22 9.857-25.678 11.848-37.986 5.066-.097 3.203 1.281 6.684 3.421 8.617 3.716 3.366 8.881 4.805 13.834 4.902z" fill="#ee9e2b"/><path d="m696.291 681.637c3.116-3.604 4.353-8.545 4.457-13.259-1.497 1.345-3.085 2.577-4.809 3.587-7.442 4.363-14.37-.113-18.416-6.365-.278 6.865.681 14.544 5.539 18.359 3.713 2.917 10.39.963 13.229-2.322z" fill="#ee9e2b"/><path d="m790.67 591.649c4.064-2.845 4.235-9.927 1.579-13.779-.316-.458-.746-.813-1.103-1.234-11.163 8.333-26.071 7.2-39.073.183 1.826 5.184 7.677 9.166 12.078 11.538 6.792 3.348 19.354 8.303 26.519 3.292z" fill="#ee9e2b"/><path d="m770.694 671.165c6.271-2.118 7.807-7.013 6.992-12.198-11.676 2.072-24.414-5.922-32.578-16.191.448 3.787 1.987 7.623 3.564 10.643 3.44 5.986 13.112 20.757 22.022 17.746z" fill="#ee9e2b"/><path d="m753.762 522.438c.722 6.672 13.362 7.82 18.107 7.857 7.475-.251 21.133-1.654 25.066-9.43 1.32-2.607 1.386-4.903.633-6.867-7.939 8.135-24.915 6.253-38.814.963-2.672 2.014-5.301 4.627-4.992 7.477z" fill="#ee9e2b"/><path d="m670.306 613.303c3.297-4.009 1.884-10.986.062-15.986-4.803 2.791-10.246 4.207-16.47 3.096-4.557-.814-8.29-3.077-11.441-6.084 1.547 3.509 3.759 6.748 5.927 8.977 3.084 3.171 16.925 16.071 21.922 9.997z" fill="#ee9e2b"/><path d="m707.421 488.147c-4.832-1.188-7.465-4.77-8.896-9.168.152 5.992 1.333 12.109 4.057 17.507 1.378 2.734 4.208 9.331 8.176 9.109 6.815-.385 9.64-11.446 10.575-16.859.103-.885.197-1.844.279-2.822-4.009 2.575-9.16 3.472-14.191 2.233z" fill="#ee9e2b"/><path d="m717.65 562.161c4.064-2.845 4.235-9.927 1.579-13.78-.288-.416-.683-.736-1.004-1.123-10.356 7.025-26.752 6.373-39.16.1 1.835 5.169 7.673 9.143 12.066 11.51 6.793 3.349 19.354 8.304 26.519 3.293z" fill="#ee9e2b"/><path d="m582.373 649.341c-3.927 4.042-6.428 8.608-3.966 12.661 6.768 11.138 20.034 5.101 27.205-2.197-9.988 4.012-19.004-1.737-23.239-10.464z" fill="#ee9e2b"/><path d="m725.22 747.459c-5.519-1.213-8.465-9.277-9.789-15.375-1.019 7.195-1.822 22.426 6.08 26.336 11.429 5.655 17.053-10.197 16.61-18.514 0-.006-.002-.015-.002-.021-3.594 4.949-8.002 8.652-12.899 7.574z" fill="#ee9e2b"/><path d="m810.739 731.201c-5.148 4.102-12.119 5.515-19.601 3.857-3.869-.858-6.891-2.959-9.353-5.735.277.499.555.997.826 1.45 3.913 5.979 14.29 19.672 23.137 16.104 7.47-3.014 7.563-9.523 4.991-15.676z" fill="#ee9e2b"/><path d="m648.456 737.637c-7.631 4.211-15.064-.473-18.946-7.104-.785 5.387-.517 10.848 2.473 14.762 2.719 3.563 9.194 3.454 12.691 1.195 3.949-2.553 6.208-6.811 7.454-11.28-1.185.895-2.4 1.726-3.672 2.427z" fill="#ee9e2b"/><path d="m844.206 632.635c-.632-.916-1.413-1.695-2.203-2.465-11.468 7.948-26.551 8.53-38.214.76 1.532 5.508 7.731 9.721 12.319 12.191 6.792 3.348 19.354 8.303 26.518 3.293 4.064-2.846 4.235-9.928 1.58-13.779z" fill="#ee9e2b"/><path d="m886.412 508.662c-11.972-26.214-33.014-51.959-38.578-80.577-4.688-24.113-1.489-46.444 6.935-69.356 3.886-10.568 10.498-21.908 11.819-33.569-5.356 17.771-15.584 34.674-21.958 52.216-9.88 27.187-7.181 52.9 4.037 79.073 12.472 29.098 31.464 54.841 43.059 84.391 11.829 30.146 15.737 62.755 16.414 94.922 1.062 50.574-10.482 103.45-38.461 146.069-33.001 50.272-90.785 73.553-149.65 68.564-58.068-4.922-111.748-34.73-158.081-68.303-47.841-34.664-89.722-77.926-123.01-126.703-30.479-44.665-50.8-92.807-48.682-147.691 1.413-36.604 13.22-71.924 33.132-102.136-3.526 3.449-6.967 6.977-10.207 10.676-41.62 47.499-54.76 122.841-16.215 199.092 46.355 91.7 134.277 172.232 224.448 220.353 42.646 22.758 93.896 43.1 143.066 32.479 38.329-8.275 72.612-30.136 97.777-60.117 70.412-83.897 67.919-203.537 24.155-299.383z" fill="#f3af79"/><path d="m744.889 879.678c-30.69 1.537-62.246-5.096-93.75-18.029-.597-.244-1.185-.527-1.779-.777-38.101.076-76.002-10.086-110.544-25.688-34.985-15.797-65.998-38.896-95.41-63.277-14.314-11.867-27.966-24.686-40.176-38.678 16.449 23.402 36.066 44.656 57.885 63.227 71.924 61.222 187.673 113.956 283.774 83.222z" fill="#584ab9"/><path d="m418.541 769.279c-30.998-34.715-55.659-75.435-67.62-120.401-12.253 31.448-36.756 54.38-71.108 62.388-46.409 10.818-95.821-9.646-132.892-36.492-33.69-24.4-52.651-64.541-63.222-103.664-4.645-17.188-7.601-34.807-9.211-52.566.281 79.028 33.841 157.682 100.786 203.336 68.301 46.578 152.987 62.63 234.697 56.605 13.717-1.01 15.263-1.708 8.57-9.206z" fill="#584ab9"/><g fill="#9386f1"><path d="m275.709 439.139c-14.553 11.598-20.362 33.359-25.36 50.556-5.996 20.626-6.396 40.704-2.662 61.694.221 1.236 1.874.766 2.004-.271 2.445-19.5 6.606-39.404 11.609-58.403 4.639-17.609 14.861-34.477 16.937-52.528.166-1.445-1.658-1.742-2.528-1.048z"/><path d="m286.201 258.883c-29.715 15.505-54.353 43.574-75.078 69.517-20.413 25.553-41.24 57.212-42.505 90.988-.048 1.268 1.793 1.768 2.392.648 15.571-29.131 28.736-58.361 48.737-84.982 20.301-27.015 47.335-48.427 67.129-75.496.314-.429-.273-.885-.675-.675z"/><path d="m273.936 254.137c11.791-3.566 20.045-13.818 30.046-20.343 1.316-.857.459-2.752-1.039-2.467-6.96 1.333-11.529 3.267-17.161 7.673-5.031 3.939-9.49 8.724-12.366 14.46-.174.346.108.801.52.677z"/><path d="m397.922 288.648c-.133-.563-.915-.506-1.077 0-3.943 12.251-3.147 25.07-2.195 37.762 1.052 13.985.037 29.312 4.367 42.749.307.95 1.716 1.275 2.226.292 6.245-12.006 4.206-26.298 2.804-39.279-1.496-13.856-2.877-27.96-6.125-41.524z"/><path d="m413.991 316.882c-.521 7.654-2.001 17.607 2.084 24.437.434.725 1.499.725 1.934 0 4.274-7.153 2.384-18.002-.951-25.268-.741-1.613-2.966-.648-3.067.831z"/><path d="m447.935 269.983c-.601-.063-.697.762-.281 1.043 9.267 6.288 16.704 13.42 23.78 22.062 6.658 8.133 12.126 15.834 20.854 21.98.783.549 2.081-.377 1.692-1.303-8.008-19.036-23.639-41.381-46.045-43.782z"/><path d="m495.325 282.585c-.568-.271-1.379.325-.946.946 2.947 4.245 5.94 8.509 8.787 12.824 2.696 4.09 4.762 8.275 8.709 11.349.589.457 1.597.234 1.573-.652-.255-10.114-9.414-20.321-18.123-24.467z"/><path d="m235.097 601.529c-6.786-23.018-6.729-45.508-8.502-69.102-.035-.467-.75-.789-.98-.266-9.24 20.893-5.801 46.872-.632 68.414 5.704 23.769 15.765 46.27 31.541 64.986 1.01 1.199 3.298-.078 2.694-1.568-8.36-20.675-17.805-41.039-24.121-62.464z"/><path d="m266.041 654.913c-.323-.493-1.271-.515-1.384.181-1.152 7.088 1.475 18.896 8.84 21.705.712.271 1.528-.422 1.5-1.142-.138-3.542-1.608-6.12-3.237-9.239-1.988-3.809-3.369-7.898-5.719-11.505z"/><path d="m369.432 371.313c-7.201 15.563-9.318 33.756-13.05 50.387-4.397 19.588-10.003 38.683-13.279 58.518-.173 1.041 1.138 1.695 1.744.734 10.423-16.488 15.339-34.229 19.437-53.161 3.854-17.803 8.571-37.862 6.374-56.146-.068-.571-.92-.999-1.226-.332z"/><path d="m365.059 203.641c-8.372 38.104-20.227 75.248-34.094 111.679-11.239 29.519-24.688 58.131-36.014 87.613-.487 1.271 1.43 1.934 2.106.889 17.343-26.854 29.46-56.846 40.936-86.564 13.948-36.126 26.775-74.468 28.553-113.414.039-.853-1.305-1.038-1.487-.203z"/><path d="m389.452 231.225c.086 1.456 2.283 2.386 3.005.814 5.788-12.621 8.419-33.982 1.813-46.685-.204-.395-.702-.224-.842.109-2.818 6.764-2.46 14.436-3.063 21.642-.669 7.987-1.394 16.106-.913 24.12z"/><path d="m333.955 223.265c9.119-9.876 18.009-19.566 24.091-31.661.34-.675-.37-1.52-1.082-1.082-11.973 7.401-19.971 18.713-24.109 32.104-.191.622.654 1.122 1.1.639z"/><path d="m254.893 446.501c6.528-11.648 14.016-22.81 18.79-35.382.189-.496-.452-.924-.87-.668-12.43 7.614-16.99 21.894-19.483 35.39-.17.915 1.063 1.551 1.563.66z"/><path d="m172.028 465.025c.084-.716-1.043-.989-1.35-.366-19.21 39.04-22.955 88.812-5.973 129.124.512 1.215 2.155.769 1.966-.543-3.151-21.855-4.42-44.396-3.027-66.444 1.312-20.804 5.965-41.131 8.384-61.771z"/><path d="m144.431 529.479c-.126-.387-.583-.504-.881-.232-11.007 10.037-3.073 30.79 1.56 42.05.372.907 1.982.915 1.874-.253-.641-6.898-.992-13.814-1.658-20.713-.666-6.868 1.223-14.278-.895-20.852z"/><path d="m321.496 558.896c-4.097 11.986-4.042 23.733.225 35.658.502 1.402 2.38 1.104 2.521-.342 1.16-11.83-1.149-23.301-1.195-35.106-.004-.92-1.269-1.036-1.551-.21z"/><path d="m141.22 442.208c-11.412 16.159-15.755 39.66-9.865 58.545.344 1.103 1.973.891 2.003-.271.543-19.965 6.249-38.249 9.125-57.741.113-.774-.795-1.197-1.263-.533z"/><path d="m285.473 342.142c-7.859 10.6-14.147 20.508-13.789 34.067.019.664 1.038 1.062 1.349.366 4.949-11.098 8.671-22.657 13.691-33.701.388-.858-.694-1.481-1.251-.732z"/><path d="m184.826 338.126c8.738-11.227 16.744-24.586 22.824-37.43.236-.498-.302-1.273-.854-.854-11.636 8.832-22.575 22.396-24.105 37.399-.104 1.039 1.48 1.727 2.135.885z"/><path d="m433.997 240.701c1.224 2.728 2.289 5.521 3.48 8.269 1.359 3.142 3.192 5.698 5.002 8.547.266.42 1.041.418 1.142-.148 1.389-7.857-4.066-11.92-8.538-17.506-.53-.662-1.38.18-1.086.838z"/><path d="m390.505 367.253c-1.759 2.995-1.736 6.36-1.896 9.743-.171 3.582-.261 6.556.833 9.997.193.613 1.123 1.022 1.594.422 2.21-2.818 2.818-5.556 2.942-9.103.127-3.766.308-7.713-1.654-11.06-.4-.682-1.418-.682-1.819.001z"/><path d="m535.355 308.535c-1.771-2.69-3.931-4.163-6.465-5.961-.92-.65-2.134.619-1.533 1.532.658.998 1.103 2.306 1.576 3.4.532 1.236 1.395 2.402 2.03 3.596.603 1.129 1.324 2.375 2.18 3.332.901 1.012 1.893 1.592 2.839 2.512.848.824 1.96-.037 1.814-1.056-.154-1.09.013-2.014-.301-3.092-.451-1.556-1.253-2.915-2.14-4.263z"/><path d="m379.435 168.736c.002-.458-.578-.876-.991-.567-1.362 1.012-2.485 1.726-3.62 3.059-1.268 1.487-2.251 3.24-3.177 4.947-1.055 1.943-3.62 6.586-.789 8.244 2.698 1.582 4.959-3.783 5.71-5.369 1.661-3.509 2.852-6.442 2.867-10.314z"/><path d="m390.365 173.438c2.03-1.919 2.178-4.64 1.59-7.197-.13-.569-.65-1.079-1.214-1.215-.203-.05-.341-.081-.547-.052-2.147.292-3.497 4.163-4.198 5.922-1.026 2.578 2.618 4.199 4.369 2.542z"/><path d="m412.06 164.35c-.154-.63-1.117-.63-1.271 0-1.25 5.14-2.97 12.576-.047 17.424.309.511 1.058.511 1.366 0 2.922-4.848 1.203-12.285-.048-17.424z"/><path d="m349.517 176.934c-.204.679.633 1.415 1.256.967 7.007-5.046 13.249-14.532 15.779-22.741.103-.338-.321-.708-.63-.483-6.872 5.017-13.947 14.087-16.405 22.257z"/><path d="m269.26 406.763c1.186-1.185 2.193-2.477 3.229-3.791 1.084-1.372 1.331-2.528 1.993-4.048.492-1.125-.495-2.112-1.62-1.621-1.173.51-2.193.528-3.263 1.374-1.571 1.24-3.157 2.432-4.577 3.849-2.439 2.441-4.239 4.825-5.183 8.166-.212.747.508 1.467 1.254 1.255 3.342-.945 5.725-2.745 8.167-5.184z"/><path d="m282.511 585.787c-.041-.563-.878-.926-1.164-.314-6.245 13.236-3.858 33.361 2.96 46.032.414.769 1.58.396 1.595-.433.123-7.379-1.391-14.546-2.232-21.852-.899-7.804-.581-15.62-1.159-23.433z"/><path d="m292.16 624.289c-.364-.586-1.232-.607-1.592 0-2.149 3.625-1.593 7.998-1.35 12.05.257 4.331 1.175 8.335 3.514 12.017.396.623 1.349.522 1.563-.203 1.186-4.034.978-7.68.531-11.813-.428-3.979-.516-8.582-2.666-12.051z"/><path d="m190.8 675.133c.807.568 1.642-.361 1.498-1.152-1.103-6.113-5.104-11.035-8.123-16.34-4.25-7.467-6.595-15.432-8.98-23.609-.202-.688-1.298-.758-1.461 0-1.61 7.578.578 14.547 3.627 21.488 3.07 6.996 7.044 15.13 13.439 19.613z"/><path d="m187.875 678.097c-2.602-2.09-4.624-4.778-7.214-6.88-1.016-.825-2.491-.074-2.201 1.279.803 3.75 3.073 6.598 5.858 9.157 2.138 1.962 5.492 4.382 8.481 2.815.331-.172.499-.612.393-.967-.754-2.526-3.398-3.859-5.317-5.404z"/><path d="m179.374 466.974c2.674-6.372 5.578-13.171 5.654-20.203.013-1.158-1.426-1.379-2.024-.548-4.206 5.836-5.409 13.541-5.052 20.558.043.864 1.115.925 1.422.193z"/><path d="m298.224 329.357c-2.996 3.871-5.206 8.251-6.473 12.967-.167.619.707 1.245 1.156.673 2.994-3.836 5.238-8.222 6.526-12.934.179-.65-.744-1.304-1.209-.706z"/><path d="m378.362 327.65c-2.488 8.104-4.344 17.148-2.39 25.582.136.589 1.045.734 1.322.173 3.902-7.921 2.477-17.169 1.909-25.642-.032-.477-.694-.588-.841-.113z"/><path d="m466.575 312.149c1.679 4.184 2.741 8.561 3.99 12.887 1.156 4.003 1.835 8.187 4.418 11.552.362.469 1.316.574 1.444-.189 1.419-8.499-3.813-18.104-8.59-24.782-.421-.589-1.574-.245-1.262.532z"/><path d="m218.317 297.896c6.36-5.06 13.219-10.813 16.859-18.179.32-.65-.379-1.572-1.082-1.082-6.667 4.648-15.744 9.566-17.371 18.333-.182.982.84 1.529 1.594.928z"/><path d="m151.857 430.483c-1.982 2.52-3.457 4.916-4.476 7.969-1.313 3.927-.872 7.491-1.057 11.478-.042.883 1.235.991 1.486.201.961-3.033 2.666-6.032 3.779-9.055 1.238-3.367 1.542-6.536 1.448-10.104-.013-.542-.782-.993-1.18-.489z"/><path d="m224.118 490.538c4.014-19.197 5.935-38.813 11.618-57.66.181-.601-.738-1.004-1.022-.431-9.09 18.353-14.861 37.128-12.342 57.854.111.916 1.523 1.303 1.746.237z"/><path d="m155.791 347.218c.103-.385-.358-.826-.725-.557-8.527 6.271-14.499 16.137-20.404 24.777-7.725 11.295-14.928 22.867-21.175 35.047-12.383 24.14-18.759 47.947-17.801 75.067.048 1.316 2.149 1.729 2.393.323 4.182-24.191 12.333-48.888 22.984-70.965 5.426-11.247 11.669-22.145 18.085-32.852 5.881-9.814 13.707-19.664 16.643-30.84z"/><path d="m89.82 478.892c-.203-.552-.975-.907-1.43-.377-6.218 7.23-2.065 20.72 2.384 27.759.428.678 1.331.346 1.411-.383.5-4.566.295-8.449-.45-12.991-.756-4.612-.275-9.588-1.915-14.008z"/><path d="m86.427 514.273c-1.409 1.574-.543 4.223.156 5.973.833 2.08 1.563 4.35 3.922 5.04.507.15 1.076-.091 1.338-.543 1.302-2.248.094-5.066-.992-7.185-.484-.944-2.804-5.093-4.424-3.285z"/></g><path d="m809.627 769.869c-50.061 32.422-114.84 32.379-168.452 9.6-12.864-5.467-24.766-12.234-34.886-21.988-12.539-12.088-18.1-28.676-24.638-44.331-8.952-21.425-23.384-32.046-44.931-39.21-11.535-3.834-23.132-7.018-33.861-12.902-10.005-5.488-17.027-16.59-22.815-26.011-12.288-19.999-20.705-42.579-27.724-64.891-11.49-36.533-14.387-73.839-7.625-110.298-4.126 8.936-7.222 18.438-9.059 28.484-9.473 51.807 8.196 110.442 35.704 154.305 11.764 18.756 25.219 32.346 47.174 37.432 14.887 3.45 32.013 6.928 41.915 19.826 9.731 12.67 10.213 28.715 17.184 42.679 6.188 12.397 14.532 23.511 24.957 32.685 49.013 43.133 129.799 54.666 187.566 22.578 29.03-16.125 49.646-41.361 63.387-70.879-11.317 16.573-25.794 31.197-43.896 42.921z" fill="#df3f58"/><path d="m548.729 424.654c.056.681.833.861 1.226.333 1.119-1.506 1.705-2.283 1.595-4.312-.105-1.859-.924-3.414-2.104-4.813-.401-.473-1.246-.687-1.829-.483-1.569.554-1.563 1.975-.813 3.318.544.975.935 2.021 1.193 3.105.206.859.66 1.986.732 2.852z" fill="#ff9780"/><path d="m640.329 424.87c.428-.646 1.103-1.177 1.565-1.82.509-.708.686-1.818.901-2.644.502-1.919.558-3.553-.128-5.397-.127-.346-.563-.627-.917-.372-1.521 1.082-2.051 2.149-2.423 3.986-.189.938-.219 1.919-.268 2.871-.06 1.115.481 2.082.471 3.16-.003.445.572.56.799.216z" fill="#ff9780"/><path d="m768.747 490.252c1.536-1.9 4.64-2.857 6.726-3.999.938-.514 2.664-1.791 1.919-3.064-1.006-1.728-3.856-.298-4.948.483-.967.689-1.761 1.502-2.479 2.443-.875 1.144-1.167 2.421-1.891 3.618-.245.408.363.904.673.519z" fill="#ff9780"/><path d="m517.692 484.129c-.63-.873-.821-1.403-1.726-2.058-.998-.718-2.372-1.045-3.551-1.311-2.482-.555-4.474-.22-6.593 1.066-1.639.993-.911 3.44.953 3.515 1.692.068 3.312.025 5.022-.021.909-.024 1.775.158 2.662.323.685.125 1.341-.002 1.986.103.84.135 1.881-.741 1.247-1.617z" fill="#ff9780"/><path d="m822.269 591.467c4.031-.684 10.723 1.006 13.106-3.232.169-.297.095-.765-.24-.923-4.252-1.995-9.376 1.536-13.195 3.371-.469.226-.116.858.329.784z" fill="#ff9780"/><path d="m510.933 489.651c-.246-.355-.789-.409-1.024 0-.921 1.614-1.162 3.962 1.15 4.564.987.257 1.915.197 2.884-.107.995-.313 1.304-1.071 2.043-1.54.473-.301.316-1.136-.299-1.104-.753.037-2.137-.329-2.99-.49-.396-.073-.727-.454-1.045-.67-.264-.154-.548-.23-.852-.23.517.096.563-.047.133-.423z" fill="#ff9780"/><path d="m833.72 580.949c1.37-.555 3.877-2.032 2.752-3.953-1.121-1.913-3.795-.217-4.988.514-1.666 1.021-3.609 2.08-4.284 4.003-.043.126.049.243.16.284 2.056.752 4.413-.058 6.36-.848z" fill="#ff9780"/><path d="m747.451 683.074c-.825-1.088-2.874-.514-2.376 1.002.854 2.608 2.413 6.086 5.659 5.617.218-.03.473-.285.504-.504.413-2.826-2.264-4.101-3.787-6.115z" fill="#ff9780"/><path d="m738.956 686.445c1.106-.053.969-1.84 1.104-2.518.42-2.107-.37-4.848-1.095-6.809-.387-1.047-1.74-1.049-2.127 0-.731 1.988-.971 4.061-.685 6.152.166 1.195 1.457 3.24 2.803 3.175z" fill="#ff9780"/><path d="m764.719 759.472c.317.208.815.208 1.132 0 2.705-1.781.837-7.784-.71-9.923-.592-.82-1.943-.582-1.962.531-.033 1.838.275 3.689.296 5.539.018 1.594-.2 2.904 1.244 3.853z" fill="#ff9780"/><path d="m811.054 678.895c2.335 1.357 4.328-2.133 2.099-3.589-.985-.644-1.909-1.327-2.973-1.839-1.259-.605-2.272-.773-3.589-1.109-.819-.207-1.51.848-.85 1.459.775.716 1.439 1.807 2.159 2.604.918 1.017 1.973 1.787 3.154 2.474z" fill="#ff9780"/><path d="m808.487 665.662c-2.03-.997-3.999-1.966-6.105-2.799-.874-.344-1.434.891-.864 1.486 2.87 3.006 7.321 7.684 11.904 6.926 1.147-.188 1.365-1.746.656-2.479-1.45-1.496-3.744-2.228-5.591-3.134z" fill="#ff9780"/><path d="m725.324 437.14c-1.508.279-4.688 2.063-5.271 3.832-.062.024-.121.047-.181.072-.396.16-.509.813 0 .921.075-.012.151-.024.228-.037.21.371.626.601 1.05.601 2.174 0 4.36-1.042 5.705-2.76.977-1.246.096-2.934-1.531-2.629z" fill="#ff9780"/><path d="m750.156 482.192c-2.273 2.146-4.592 3.311-6 6.252-1.262 2.635-1.255 4.959-1.316 7.825-.007.311.475.473.612.166.979-2.185 2.731-4.036 4.061-6.029 1.629-2.439 2.185-4.986 3.497-7.555.279-.547-.396-1.09-.854-.659z" fill="#ff9780"/><path d="m721.053 428.62c-2.38-.251-4.073 2.748-5.252 4.451-1.769 2.555-2.542 5.465-3.648 8.302-.215.545.61.826.9.38 1.547-2.371 3.834-4.288 5.708-6.398 1.288-1.45 3.853-3.294 3.592-5.435-.093-.766-.527-1.218-1.3-1.3z" fill="#ff9780"/><path d="m826.716 704.314c1.333 1.035 3.466 1.537 5.068.983.512-.177 1.084-.589 1.174-1.175.017.059.035.115.052.171.432-.257.399-.843 0-1.106-.323-.216-.448-.723-.825-.963-.755-.485-1.438-.611-2.299-.826-1.72-.428-3.724-.547-5.317-1.344-.526-.264-1.158.281-.833.833.909 1.541 1.577 2.342 2.98 3.427z" fill="#ff9780"/><path d="m631.69 409.965c-.766-.398-1.919-.413-2.516.325-1.673 2.065-.387 5.313.268 7.593.45 1.561 1.103 3.015 1.826 4.461.506 1.013 1.366 1.644 1.96 2.551.247.377.907.259.889-.24-.032-.87.325-1.749.368-2.638.076-1.616-.071-3.176-.242-4.782-.222-2.078-.428-6.159-2.553-7.27z" fill="#ff9780"/><path d="m806.887 553.637c-2.454-.049-4.077.94-6.093 2.15-.487.291-.309 1.135.298 1.104 3.917-.201 7.881 1.508 11.752.011.442-.171.612-.675.275-1.045-1.699-1.858-3.815-2.175-6.232-2.22z" fill="#ff9780"/><path d="m837.364 695.447c-2.523-1.205-5.94-1.389-8.047.711-.115.115-.113.305 0 .42 1.66 1.686 4.274 2.041 6.5 2.537 2.127.475 3.691-2.646 1.547-3.668z" fill="#ff9780"/><path d="m538.858 414.332c-1.671-1.149-4.053.377-4.003 2.296.065 2.668 2.096 5.202 3.581 7.302 1.512 2.136 2.97 4.548 5.546 5.445.275.097.567-.107.647-.368.82-2.697-.521-5.379-1.532-7.855-.981-2.406-2.034-5.301-4.239-6.82z" fill="#ff9780"/><path d="m497.651 577.361c0 4.769 12.638 1.193 15.003.461.455-.142.455-.779 0-.921-2.365-.732-15.003-4.307-15.003.46z" fill="#ff9780"/><path d="m648.477 657.207c1.708-.961 2.969-2.107 4.347-3.539 1.032-1.07 1.675-2.145 2.277-3.406.162-.339-.039-.647-.397-.693-.699-.086-.891-.277-1.642-.047-.906.279-1.678.758-2.488 1.232-1.813 1.067-3.098 2.686-4.1 4.449-.731 1.285.719 2.725 2.003 2.004z" fill="#ff9780"/><path d="m649.473 670.743c1.606-1.558 2.571-3.722 3.546-5.7 1.017-2.057 1.954-4.135 2.621-6.328.302-.998-.924-1.535-1.623-.947-1.617 1.364-2.923 3.016-4.176 4.715-1.322 1.796-2.841 3.605-3.726 5.672-.913 2.128 1.494 4.396 3.358 2.588z" fill="#ff9780"/><path d="m714.466 596.402c-1.987.424-3.721.947-5.362 2.23-1.088.85-3.373 2.717-2.396 4.387.683 1.163 2.943-.014 3.637-.506 1.887-1.336 3.419-2.883 5.1-4.432.78-.722-.049-1.876-.979-1.679z" fill="#ff9780"/><path d="m676.048 755.074c1.288-2.246 1.675-5.081 2.29-7.584.656-2.668 1.088-5.195 1.197-7.941.024-.596-.86-.848-1.136-.307-2.201 4.313-5.732 10.05-5.232 15.051.144 1.447 2.059 2.215 2.881.781z" fill="#ff9780"/><path d="m611.166 693.617c.37-.721-.372-1.494-1.103-1.104-1.528.818-2.839 1.638-4.237 2.756-1.311 1.05-3.098 2.305-3.785 3.898-.731 1.691.44 3.396 2.333 3.036 3.573-.678 5.381-5.832 6.792-8.586z" fill="#ff9780"/><path d="m506.233 584.471c-.072.568.363 1.063.781 1.361 1.212.869 2.523.356 3.756-.246 1.675-.818 3.423-1.409 5.152-2.101.809-.325.879-1.415 0-1.716-2.781-.947-9.197-1.167-9.689 2.702z" fill="#ff9780"/><path d="m604.151 476.835c.366-.003.667-.368.556-.729-.673-2.197-.422-4.682-1.231-6.938-.5-1.393-2.372-1.427-2.859 0-1.007 2.948-.334 7.686 3.534 7.667z" fill="#ff9780"/><path d="m658.176 549.109c1.791-3.492 1.91-8.645-.307-12.049-1.23-1.891-3.951-1.08-4.105 1.11-.256 3.651 2.067 7.849 3.786 10.938.128.23.502.243.626.001z" fill="#ff9780"/><path d="m686.939 748.478c.227-1.538.21-3.124-.065-4.661-.13-.712-.348-1.367-.506-2.065-.124-.54-.716-.697-.79-1.242-.045-.331-.621-.331-.666 0-.063.452-.451.587-.673.965-.317.543-.428 1.277-.541 1.886-.314 1.695-.399 3.412-.148 5.118.249 1.683 3.141 1.683 3.389-.001z" fill="#ff9780"/><path d="m567.248 533.668c-.861-.763-1.575-1.326-2.666-1.795-1.573-.678-5.163-1.385-6.273.514-2.142 3.653 8.458 3.168 9.711 4.227.448.381 1.065-.213.65-.649-.647-.68-.682-1.643-1.422-2.297z" fill="#ff9780"/><path d="m604.818 488.714c-1.142-2.714-1.843-7.79-4.786-9.112-1.138-.513-2.171-.079-2.634 1.069-1.538 3.826 3.487 7.477 6.403 8.822.474.218 1.281-.154 1.017-.779z" fill="#ff9780"/><path d="m730.56 672.609c-.186-1.132-1.934-1.039-2.187 0-.584 2.404-1.193 4.901-1.405 7.373-.238 2.814-.03 4.516.948 7.048.198.511.813.487 1.017 0 .887-2.127 1.545-3.735 1.804-6.122.3-2.762.275-5.554-.177-8.299z" fill="#ff9780"/><path d="m720.03 598.879c-2.123 2.848-3.849 7.057-4.272 10.563-.126 1.041 1.339 1.864 2.17 1.245 3.272-2.433 4.347-7.286 4.31-11.208-.013-1.268-1.538-1.499-2.208-.6z" fill="#ff9780"/><path d="m616.175 603.693c-1.261.789-2.604 1.432-3.865 2.264-.514.342-.971.937-.915 1.595.047.55.093.944.541 1.306.681.55 1.436.708 2.237.289 1.829-.955 2.615-2.119 3.668-3.787.65-1.032-.638-2.311-1.666-1.667z" fill="#ff9780"/><path d="m611.524 598.82c-2.948-.16-5.322.344-7.911 1.877-1.998 1.184-3.374 2.615-3.536 4.958-.041.589.514 1.052 1.062 1.063 2.012.041 3.306-.631 4.926-1.826 1.089-.801 2.16-1.646 3.174-2.539.85-.748 1.679-1.672 2.619-2.308.546-.369.334-1.188-.334-1.225z" fill="#ff9780"/><path d="m198.608 628.625c-12.301-36.016-13.738-74.73-8.224-112.161 5.926-40.236 20.049-79.166 37.167-115.891 18.79-40.32 43.329-76.753 65.501-115.119.184-.316-.27-.691-.516-.399-28.971 34.158-52.186 75.196-71.362 115.504-18.074 37.99-31.895 78.195-37.897 119.934-11.448 79.6 14.811 162.309 82.529 209.711.533.375 1.108-.436.677-.878-28.898-29.568-54.348-61.094-67.875-100.701z" fill="#68182b"/><path d="m160.573 370.828c-26.415 35.068-48.012 76.675-53.577 120.688-5.846 46.206-4.598 105.312 25.273 143.839.44.568 1.195-.154.932-.718-21.22-45.313-26.731-95.839-19.563-145.278 6.331-43.663 27.767-79.661 47.335-118.301.135-.269-.223-.465-.4-.23z" fill="#68182b"/><path d="m136.479 641.676c-.21-.248-.721-.059-.675.281.874 6.518 5.229 13.742 11.43 16.49.342.15.758-.172.541-.541-3.294-5.622-7.126-11.26-11.296-16.23z" fill="#68182b"/><path d="m308.828 535.343c5.857-64.009 24.321-125.443 42.502-186.79.111-.374-.432-.502-.571-.156-40.518 100.525-64.446 215.856-38.76 323.166.115.48.928.387.873-.117-5.025-45.346-8.216-90.538-4.044-136.103z" fill="#68182b"/><path d="m314.265 682.051c4.591 26.98 19.46 57.783 44.954 70.561.476.239 1.049-.395.599-.775-22.715-19.15-35.4-42.098-45.015-69.934-.119-.346-.599-.204-.538.148z" fill="#68182b"/><path d="m372.809 754.818c.383-.032.675-.426.455-.791-1.481-2.454-3.898-3.443-6.143-5.109-2.633-1.957-4.656-4.256-6.811-6.699-.112-.129-.343-.027-.337.139.132 3.188 1.938 5.885 4.102 8.119 2.25 2.326 5.404 4.628 8.734 4.341z" fill="#68182b"/><path d="m283.488 740.937c-3.824-2.45-7.374-5.572-11.542-7.415-.405-.182-.928.207-.651.652 2.239 3.633 5.893 6.14 9.347 8.54 3.979 2.763 7.991 5.165 12.716 6.376.403.104.734-.413.415-.715-3.127-2.95-6.681-5.129-10.285-7.438z" fill="#68182b"/><path d="m272.66 495.989c.06-.28-.337-.481-.481-.204-6.859 13.357-8.462 28.908-9.248 43.707-1.038 19.596.796 39.488 6.208 58.359.146.506.971.422.938-.128-2.145-34.782-4.546-67.321 2.583-101.734z" fill="#68182b"/><path d="m220.652 365.442c10.449-20.125 22.606-39.164 35.979-57.473.292-.401-.338-.852-.673-.519-15.536 15.475-30.243 36.295-35.728 57.813-.063.25.299.416.422.179z" fill="#68182b"/><path d="m482.405 429.734c-12.223 7.556-20.043 24.017-25.389 36.812-6.299 15.073-9.398 31.366-10.626 47.594-2.106 27.843 1.596 61.196 16.184 85.604.311.52 1.101.172.963-.406-6.366-26.486-12.498-51.76-11.7-79.289.455-15.766 3.341-31.383 8.318-46.331 2.523-7.577 5.976-14.808 9.6-21.908 3.847-7.532 9.612-14.038 12.942-21.783.078-.181-.093-.416-.292-.293z" fill="#68182b"/><path d="m467.507 610.082c-.814-2.172-1.307-4.141-3.11-5.652-.311-.26-.72-.082-.759.314-.277 2.871.722 5.543 1.759 8.222.969 2.503 2.304 4.423 4.881 5.388.42.156.673-.35.521-.678-1.147-2.481-2.331-5.035-3.292-7.594z" fill="#68182b"/><path d="m839.775 506.967c13.614 31.779 18.273 67.428 22.828 101.463.106.799 1.155.811 1.25 0 2.002-17.154-.588-33.729-3.862-50.582-3.355-17.276-8.063-37.5-19.7-51.279-.263-.311-.649.083-.516.398z" fill="#68182b"/><path d="m760.02 792.684c-14.148 1.108-28.055 3.955-42.22 4.951-18.106 1.273-35.698-1.44-53.521-4.199-.37-.057-.685.48-.279.662 28.28 12.77 68.206 13.163 96.311-.341.508-.245.272-1.118-.291-1.073z" fill="#68182b"/><path d="m772.823 788.971c-2.67-.951-5.296 1.224-7.31 2.723-.492.367-.303 1.033.298 1.105 2.668.32 6.469-.082 7.448-3.059.114-.342-.127-.66-.436-.769z" fill="#68182b"/><path d="m358.098 335.359c18.145-35.788 26.479-76.919 23.146-117.124-.03-.379-.651-.526-.711-.097-2.575 18.519-3.267 37.146-6.766 55.558-3.931 20.681-10.317 41.22-16.482 61.322-.148.477.582.795.813.341z" fill="#68182b"/><path d="m338.053 238.342c.084-.393-.45-.647-.662-.279-13.554 23.533-28.33 46.612-41.259 70.454-.302.558.457 1.201.905.697 9.277-10.429 16.542-22.001 23.739-33.941 6.883-11.42 14.454-23.751 17.277-36.931z" fill="#68182b"/><path d="m418.033 260.687c2.781 7.575 5.085 15.334 7.707 22.962.158.465.87.4.872-.117.037-14.022-6.355-30.46-13.895-42.269-.138-.216-.549-.152-.521.142.663 6.761 3.515 12.954 5.837 19.282z" fill="#68182b"/></g></g></svg>