<svg id="Fruit" height="512" viewBox="0 0 992.13 992.13" width="512" xmlns="http://www.w3.org/2000/svg"><g><path d="m54.187 605.752c-2.503 17.053 4.353 35.189 20.376 53.902 9.423 11.01 21.865 17.32 35.98 18.252.983.064 2.008.099 3.066.099h.002c8.44 0 17.655-2.181 26.262-6.028 34.624 21.168 76.634 31.881 125.142 31.881 15.811 0 32.373-1.169 49.223-3.473 58.68-8.026 116.316-26.068 168.244-52.539 37.489 78.273 97.491 142.454 164.13 174.48 31.17 14.98 65.207 22.9 98.424 22.9 42.012 0 81.129-12.551 113.123-36.297 60.367-44.799 88.814-127.723 78.053-227.504-10.158-94.188-51.178-175.477-121.92-241.604-25.313-23.661-51.338-42.958-77.373-57.364-.332-.716-.873-2.026-1.67-4.371-20.154-59.299-69.85-101.953-139.932-120.097-28.412-7.358-57.744-11.087-87.183-11.087-52.795 0-106.846 11.867-160.65 35.271-82.342 35.817-157.201 93.268-210.79 161.769-58.93 75.326-83.167 161.248-66.658 233.443-6.782 6.195-13.876 14.926-15.849 28.367z" fill="#fff"/><g><path d="m77.817 609.223c-1.861 12.678 7.066 25.764 14.891 34.902 5.56 6.496 12.352 9.484 19.407 9.949 7.3.481 19.111-2.67 28.557-10.287 48.741 35.699 111.838 40.934 170.333 32.934 63.92-8.741 126.953-29.857 182.854-62.234 30.776 76.15 88.454 150.439 163.101 186.314 59.717 28.701 132.504 29.371 186.969-11.051 63.381-47.035 76.471-132.229 68.539-205.764-9.643-89.42-49.029-165.533-114.484-226.717-21.924-20.496-46.879-39.819-73.74-54.53-6.139-3.363-8.846-8.847-11.604-16.968-19.098-56.188-65.805-89.773-123.307-104.662-79.247-20.518-158.333-9.219-232.319 22.964-77.777 33.833-149.209 87.735-201.505 154.583-48.571 62.083-83.893 148.931-58.251 227.659-1.837 1.242-3.6 2.52-5.227 3.816-6.66 5.292-12.898 10.117-14.214 19.092z" fill="#68182b"/><path d="m143.586 624.154c-2.493 5.401-6.974 10.412-12.312 13.986-6.322 4.232-6.714 2.516-8.542-5.051-2.058-8.504-5.801-16.419-11.869-23.432-1.547-1.787-4.048-4.086-6.989-6.227-4.323-3.146-5.593-5.32.379-9.379 10.636-7.214 24.552-12.473 35.091-2.658 8.735 8.135 8.94 22.582 4.242 32.761z" fill="#aa8053"/><path d="m506.369 251.45c-7.691-18.938 18.722-10.856 26.079-4.939 7.469 6.008 13.229 14.142 18.506 22.03 7.166 10.714 13.527 22.667 17.6 35.066 5.246 15.96-13.137 32.648-27.211 16.842-3.924-4.408-6.832-9.935-8.494-14.653-6.504-19.317-18.854-35.579-26.48-54.346z" fill="#aa8053"/><path d="m166.276 361.856c47.705-60.979 112.621-108.634 181.957-142.211 70.785-34.281 143.91-45.82 221.673-31.985 57.232 10.184 107.029 39.635 129.139 92.363 4.219 10.063 2.082 11.213-7.639 7.597-37.74-14.039-78.117-17.305-118.471-1.526-2.227-4.474-4.592-8.752-6.707-12.624-11.689-21.4-30.873-48.754-58.593-44.42-10.65 1.667-14.125 12.027-12.74 21.166 3.096 20.409 21.224 38.854 27.796 58.382.826 2.343 1.994 4.84 3.428 7.36-73.284 70.086-70.804 186.654-40.142 277.322 4.215 12.478 3.219 11.916-7.07 17.541-45.248 24.721-94.6 41.672-145.135 51.656-61.418 12.135-133.066 12.205-185.65-26.047.638-.773 1.279-1.545 1.859-2.345 10.495-14.483 9.279-35.634-2.155-49.054-11.19-13.137-27.38-10.906-41.215-4.145-23.59-76.802 12.66-158.946 59.665-219.03z" fill="#b1d045"/><path d="m100.271 608.76c4.597 2.902 8.11 7.414 11.013 11.897 11.94 18.455 5.401 31.579-9.608 17.62-6.672-6.206-14.81-18.717-13.432-28.11 1.318-8.997 9.657-2.902 12.027-1.407z" fill="#aa8053"/><path d="m860.124 449.844c-53.543-90-170.764-196.494-282.885-154.119 5.252 13.59 5.67 23.867-6.623 34.454-13.596 11.706-28.166 6.807-38.406-5.461-68.192 66.902-66.446 180.11-36.446 264.995 30.597 86.57 96.063 179.647 186.796 210.236 70.574 23.793 151.74 7.469 192.215-59.658 50.722-84.123 33.742-209.105-14.651-290.447zm-66.375 321.365c-75.99 30.961-167.549-17.089-214.775-76.824-59.525-75.291-81.47-174.867-62.246-268.59 10.732-43.99 48.682-81.155 91.596-94.527 50.895-15.861 103.389-1.068 145.949 29.295 69.242 49.399 114.93 132.042 122.609 216.672 6.219 68.507-11.133 164.64-83.133 193.974z" fill="#b1d045"/><path d="m781.88 397.388c68.285 66.954 98.969 170.36 79.209 263.446-8.635 40.672-29.369 79.797-67.646 99.048-41.176 20.71-92.576 7.238-131.758-11.349-94.949-45.039-141.527-159.232-141.514-259.023.002-20.489 2.602-40.875 6.715-60.918 12.467-51.107 61.156-87.011 111.957-93.251 53.558-6.581 106.359 26.083 143.037 62.047z" fill="#fbf199"/><path d="m642.786 276.292c16.537 1.491 32.813 5.447 48.619 11.328 9.721 3.616 11.857 2.466 7.639-7.597-7.986-19.045-19.627-35.009-33.881-48.169-2.293 17.606-9.443 34.498-22.377 44.438z" fill="#abab38"/><path d="m878.562 712.981c-18.506 42.453-53.105 71.456-97.73 83.308-61.592 16.355-121.398-8.76-169.609-46.672-62.99-49.533-102.206-124.418-119.743-201.602-7.637-33.598-10.1-67.905-7.801-102.244 1.584-23.651 5.453-48.005 13.182-70.827-30.688 65.238-24.479 148.604-1.096 214.768 30.597 86.57 96.063 179.647 186.796 210.236 70.574 23.793 151.74 7.469 192.215-59.658 38.523-63.893 37.969-151.34 14.283-225.351 16.251 66.061 17.01 134.94-10.497 198.042z" fill="#abab38"/><path d="m333.771 662.477c50.535-9.984 99.887-26.936 145.135-51.656 10.289-5.625 11.285-5.063 7.07-17.541-5.234-15.477-9.619-31.719-12.975-48.344-8.906 8.719-19.576 15.865-29.492 23.188-12.699 9.379-27.029 16.455-41.418 22.812-30.594 13.513-62.676 25.021-95.629 30.983-30.73 5.561-63.092 7.266-94.264 5.209-18.361-1.212-38.457-4.391-55.146-13.211-.472 7.182-2.773 14.236-7.072 20.169-.58.8-1.222 1.571-1.859 2.345 52.584 38.251 124.233 38.18 185.65 26.046z" fill="#abab38"/><path d="m590.466 329.406c-96.8 42.589-98.374 166.954-71.057 254.247 6.791 21.701 16.01 42.357 27.654 61.426-34.876-66.725-45.604-144.845-30.336-219.284 10.732-43.99 48.682-81.155 91.596-94.527 50.895-15.861 103.389-1.068 145.949 29.295 69.242 49.399 114.93 132.042 122.609 216.672 4.219 46.481-2.439 105.66-29.629 148.084 20.631-25.477 31.299-59.709 35.455-91.461 7.248-55.367-4.967-113.6-28.23-163.851-44.419-95.959-153.935-189.03-264.011-140.601z" fill="#d7e338"/><path d="m213.623 358.384c-32.904 33.936-59.164 74.375-75.77 118.663-1.427 3.81-7.16 19.623-10.256 35.048-9.962 49.624 19.076 30.823 29.62 21.293 10.624-9.602 19.73-20.657 29.093-31.454 20.186-23.272 99.521-121.875 231.072-209.973 28.26-18.924 12.91-39.442-14.494-39.16-54.636.557-138.324 53.04-189.265 105.583z" fill="#d7e338"/><path d="m305.408 556.566c-11.486 2.75-22.852 5.986-34.242 9.082-19.512 5.303-39.748 10.482-60.258 14.53-33.498 6.615-32.708 30.027 4.971 30.338 12.959.104 25.795-.7 38.078-2.153 18.203-2.154 36.748-6.221 54.355-11.336 48.667-14.144 40.192-50.763-2.904-40.461z" fill="#d7e338"/><path d="m213.092 529.063c-8.123 4.21-16.816 9.947-25.395 16.94-21.355 17.426-15.25 28.01 10.26 17.254 8.229-3.468 16.48-6.881 24.844-10.002 31.138-11.63 30.912-45.249-9.709-24.192z" fill="#d7e338"/><path d="m611.989 219.884c-42.031-14.512-61.943 21.608-15.436 36 11.197 3.464 28.4-.574 33.1-12.198 4.575-11.316-8.927-20.789-17.664-23.802z" fill="#d7e338"/><path d="m380.139 568.195c-9.93-6.031-20.938-2.365-23.973 5.324-1.822 4.617-1.25 10.335 3.104 15.514 5.455 6.49 14.596 3.183 19.285-2.334 4.5-5.295 8.718-14.168 1.584-18.504z" fill="#d7e338"/><path d="m710.696 732.299c-93.551-32.215-139.15-137.826-149.801-229.087-6.102-52.292-.678-111.24 31.463-153.487-31.486 16.108-56.949 43.926-65.473 78.867-4.113 20.043-6.713 40.429-6.715 60.918-.014 99.791 46.564 213.984 141.514 259.023 39.182 18.587 90.582 32.059 131.758 11.349 23.668-11.903 40.611-31.411 52.152-54.179-35.433 33.951-86.23 43.354-134.898 26.596z" fill="#f3af79"/><path d="m832.112 555.495c-6.863-25.932-15.35-51.513-27.898-75.72-12.732-24.568-30.207-47.042-52.189-65.646-64.928-54.953-118.35-44.588-106.686 37.323 4.643 32.595 15.686 64.864 29.143 94.441 18.859 41.454 45.273 85.669 85.709 113.323 14.377 9.832 38 21.1 56.205 12.811 15.68-7.14 21.4-23.684 23.49-38.301 3.763-26.337-.989-52.603-7.774-78.231z" fill="#fff7cf"/><path d="m101.675 638.277c15.01 13.959 21.549.835 9.608-17.62-.65-1.006-1.343-2.007-2.061-2.997.396 3.854-.184 7.818-1.831 11.053-1.742 3.414-5.007 5.389-8.61 6.545.975 1.106 1.949 2.138 2.894 3.019z" fill="#865725"/><path d="m112.925 612.367c4.809 6.33 8.008 13.28 9.808 20.723 1.828 7.566 2.22 9.283 8.542 5.051 5.338-3.574 9.818-8.585 12.312-13.986 4.321-9.365 4.403-22.281-2.396-30.631-4.303 12.73-15.868 22.916-28.266 18.843z" fill="#865725"/><path d="m532.849 305.796c1.662 4.718 4.57 10.246 8.494 14.653 9.426 10.585 20.748 6.572 25.648-2.011-6.646 1.302-13.635-.897-20.443-8.396-8.195-9.024-11.361-22.022-16.322-32.899-4.99-10.941-13.609-21.17-24.329-27.147.162.489.258.923.473 1.454 7.625 18.767 19.975 35.029 26.479 54.346z" fill="#865725"/><g fill="#68182b"><path d="m459.871 600.955c-24.705 7.665-48.545 17.934-73.039 26.241-31.652 10.737-63.723 18.57-96.074 26.765-.268.068-.213.5.066.486 32.004-1.551 63.877-11.02 94.248-20.666 25.68-8.156 52.277-17.395 75.268-31.713.574-.357.207-1.322-.469-1.113z"/><path d="m474.074 594.779c-3.969.133-7.498 2.258-10.004 5.184-.129.152-.057.434.176.422 3.891-.2 8.049-1.344 10.213-4.938.168-.281-.049-.678-.385-.668z"/><path d="m426.631 206.769c.627-.267.174-1.265-.457-1.084-44.611 12.866-86.037 33.298-125.488 57.64-23.656 14.596-46.262 30.965-67.545 48.842-22.689 19.062-46.27 40.162-63.333 64.551-.202.288.227.576.465.36 22.399-20.306 42.872-42.235 66.405-61.375 22.041-17.929 45.354-34.224 69.566-49.077 38.152-23.406 79.24-42.365 120.387-59.857z"/><path d="m449.717 198.903c.375-.218.205-.79-.215-.798-5.627-.124-13.141 1.415-17.004 5.893-.123.144-.039.354.152.366 5.725.362 12.225-2.666 17.067-5.461z"/><path d="m518.515 395.882c.096-.239-.264-.354-.391-.165-13.009 19.117-16.579 43.527-18.534 66.112-2.283 26.393-1.057 53.919 6.322 79.458.145.501.984.423.938-.128-4.153-48.866-6.887-98.775 11.665-145.277z"/><path d="m522.017 390.407c2.9-2.497 6.199-6.076 6.598-10.028.037-.36-.432-.596-.717-.411-3.23 2.08-5.969 6.409-6.359 10.242-.026.265.312.339.478.197z"/></g></g></g></svg>