<svg id="Fruit" height="512" viewBox="0 0 992.13 992.13" width="512" xmlns="http://www.w3.org/2000/svg"><g><path d="m424.274 876.028h.012c38.096 0 75.293-4.877 110.567-14.49 47.625-12.984 91.32-35.598 129.867-67.22 7.338-6.022 7.568-6.067 13.475-7.216 92.961-18.023 167.055-66.308 214.271-139.631 31.256-48.537 47.256-108.563 46.271-173.584-1.242-82.074-30.865-163.173-83.414-228.358-55.006-68.233-140.941-114.389-235.766-126.629-14.373-1.855-28.773-2.798-42.803-2.798-93.331 0-176.567 41.699-235.589 117.711-2.645.512-5.193 1.253-7.637 2.222-3.27-2.709-6.709-6.356-10.436-10.301-8.477-8.982-19.027-20.16-34.246-26.104-5.387-2.104-11.242-3.172-17.402-3.172-26.463 0-57.188 20.425-67.092 44.601-10.193 24.879 1.961 50.227 30.967 64.58 8.447 4.18 17.668 6.895 27.402 8.073 7.223.876 14.156 2.683 21.234 5.05-23.861 76.729-17.859 166.327 14.471 240.614-.475-.212-.953-.424-1.43-.636-20.287-9.005-37.15-15.548-53.064-20.588-33.066-10.478-72.197-16.733-104.676-16.733-7.055 0-13.873.29-20.266.859-59.656 5.332-65.779 41.777-65.643 57.198.57 64.382 28.686 128.495 79.162 180.524 71.539 73.733 177.883 116.024 291.765 116.028z" fill="#fff"/><g><path d="m616.5 142.585c-106.632-13.767-199.872 27.547-262.874 114.41-5.803-.572-11.395.253-16.117 4.085-.887.72-1.629 1.551-2.244 2.479-23.084-5.866-33.334-33.181-55.105-41.684-17.955-7.014-46.781 11.338-53.705 28.238-6.418 15.664 6.467 27.691 19.457 34.119 6.199 3.067 12.838 4.943 19.684 5.772 17.408 2.108 32.719 8.349 48.705 14.754-38.783 95.514-23.379 218.281 37.568 299.902-.68.6-1.334 1.232-1.959 1.895-5.404-1.462-10.691-3.248-15.906-5.223-1.279-4.682-4.814-9.061-8.686-11.868-6.203-4.501-17.104-6.074-24.971-2.915-4.334-2.029-8.672-4.043-13.035-5.98-16.43-7.293-33.316-14.18-50.592-19.65-33.879-10.736-79.51-18.076-115.6-14.852-24.467 2.187-44.084 11.133-43.887 33.197.553 62.383 29.604 119.971 72.42 164.105 94.484 97.389 250.244 130.205 378.917 95.127 44.467-12.121 85.664-33.653 121-62.64 10.193-8.364 13.941-10.228 24.078-12.198 81.404-15.783 153.18-58.365 198.738-129.116 30.781-47.798 43.328-103.81 42.473-160.292-1.172-77.451-29.654-153.603-78.127-213.731-54.005-66.992-135.689-107.02-220.232-117.934z" fill="#68182b"/><g><g fill="#ff8e5b"><path d="m665.844 503.073c-3.844 7.489-13.971 5.041-20.223 2.518-3.602-1.66-11.16-4.961-9.678-10.009 1.523-5.193 11.42-6.837 15.611-7.01 7.176-.299 18.661 5.981 14.29 14.501z"/><path d="m680.508 453.705c3.602-1.944 12.17-6.56 14.148-.294 1.934 6.116-2.768 14.204-6.869 18.216-3.922 3.838-11.479 6.321-16.008 2.252-7.828-7.035 3.084-16.793 8.729-20.174z"/><path d="m738.936 533.616c-8.764-1.354-9.33-12.32-8.705-19.131.496-3.797 1.785-12.834 7.479-11.518 5.953 1.377 9.885 9.889 11.098 15.027 1.491 6.327-1.796 16.869-9.872 15.622z"/><path d="m698.176 522.185c-5.973 2.343-15.852 1.275-16.434-6.63-.627-8.511 9.426-11.56 16.154-12.587 4.326-.415 13.582-1.359 13.414 5.021-.16 6.178-8.146 12.237-13.134 14.196z"/><path d="m608.76 422.244c-5.068-1.341-7.787-9.587-8.773-13.811-1.543-6.605 2.336-18.712 10.977-17.13 9.182 1.681 8.27 13.621 6.592 20.199-1.07 3.612-3.445 12.159-8.796 10.742z"/><path d="m595.824 468.893c-6.668-.089-13.279-7.852-15.416-13.381-2.109-5.455-1.457-13.434 4.992-15.322 8.932-2.615 13.359 8.904 14.791 15.359.756 4.258 2.256 13.432-4.367 13.344z"/><path d="m622.654 456.524c-.768-4.246-2.307-13.432 4.314-13.364 6.672.07 13.311 7.796 15.465 13.327 2.119 5.442 1.51 13.434-4.936 15.34-8.923 2.644-13.39-8.844-14.843-15.303z"/><path d="m740.943 462.268c5.852 8.164-4.928 15.865-11.117 18.876-3.789 1.638-13.133 5.353-13.951-1.518-.801-6.722 4.369-14.256 9.58-17.83 4.359-2.99 11.945-4.469 15.488.472z"/></g><path d="m368.366 271.379c25.984 7.547 33.861 12.066 47.664 23.295 21.855 17.78 41.885 37.965 60.678 58.8-5.773 3.147-13.393 1.368-13.738 12.444-.385 12.358 10.703 26.977 17.979 35.972 25.293 31.268 57.851 56.502 90.175 80.075 32.566 23.749 67.146 46.349 104.02 62.864 22.834 10.229 57.082 26.288 80.775 11.25 21.648 17.015 43.379 34.438 63.211 53.659 10.27 9.952 6.342 12.755-3.4 15.464-21.111 5.877-47.082.574-68.336-3.799 2.322-16.925.787-34.295-13.775-39.798-28.051-10.597-67.164-6.138-98.402-.292-100.074-49.99-199.452-124.581-258.417-221.208-12.109-19.841-20.088-41.221-27.258-63.239-2.588-7.94-5.207-16.225-5.467-24.625-.303-9.796 19.561-2.237 24.291-.862z" fill="#fac135"/><path d="m768.902 451.203c-11.506-35.114-36.793-64.498-64.594-87.949-27.936-23.564-60.637-41.357-94.814-54.024-26.23-9.723-59.656-19.053-87.322-10.208-19.79 6.329-31.886 26.938-39.394 45.487-21.385-23.589-44.389-46.203-69.76-65.567-12.793-9.768-15.77-10.926-9.119-24.461 8.582-17.445 17.344-31.309 35.234-42.951 30.367-19.759 71.044-28.941 107.03-29.997 64.051-1.88 129.018 19.905 182.213 54.651 69.793 45.59 118.791 120.965 139.008 201.182 11.447 45.423 7.676 93.367-8.02 137.217-9.869 27.571-21.336 38.866-32.127 28.354-19.805-19.28-41.541-36.744-63.211-53.781 20.902-23.563 13.458-71.762 4.876-97.953z" fill="#fac135"/><path d="m289.646 284.027c-9.734-3.126-19.875-3.233-29.68-5.718-11.027-2.793-30.406-12.292-22.736-26.234 5.611-10.196 21.029-17.612 31.418-21.361 8.906-3.213 19.74 9.34 25.248 14.66 10.686 10.318 21.467 22.911 35.959 27.6-2.391 4.114-4.666 8.306-6.818 12.568-5.925 11.709-10.026 5.989-33.391-1.515z" fill="#aa8053"/><path d="m328.065 299.52c6.465-14.275 8.689-5.665 11.432 1.666 1.416 3.785 2.707 7.018 3.459 9.242 20.092 59.516 59.447 107.957 104.053 151.26 50.494 49.022 109.161 90.458 171.616 122.964-3.273.697-6.385 1.379-9.305 2.021-17.385 3.819-34.457 8.765-51.607 14.136-5.813-8.281-16.697-1.445-22.35 3.57-.094.076-.186.158-.275.246-.098.088-.186.176-.266.266-1.223 1.229-2.375 2.528-3.424 3.889-13.934 3.584-28.032 5.833-42.243 7.151-2.053-1.623-4.264-2.962-6.143-3.925-.076-.041-.154-.082-.238-.121-.084-.043-.17-.08-.254-.115-9.938-4.509-21.379-5.71-28.494 4.037-.418.572-.773 1.146-1.076 1.719-8.373.021-16.768-.152-25.176-.455-.023-.097-.053-.191-.084-.283-2.875-9.699-10.133-20.984-21.922-18.59-8.313 1.689-11.68 8.928-11.357 16.428-3.279-.385-6.555-.807-9.822-1.275.029-.916-.02-1.866-.16-2.854-1.623-11.387-13.725-13.718-23.205-11.107-.076.021-.152.043-.229.066-61.625-81.164-75.326-206.24-32.93-299.936z" fill="#fbf199"/><path d="m550.816 624.854c-2.986 4.799-9.891 8.889-15.283 5.754-8.895-5.168-.59-16.962 4.021-21.516 3.102-2.805 10.244-9.197 13.67-3.555 3.327 5.477.608 14.47-2.408 19.317z" fill="#ff8e5b"/><path d="m488.978 627.695c-2.318 5.145-11.188 6.435-15.93 6.474-6.545.055-17.688-5.972-14.234-14.006 3.576-8.326 14.498-5.713 20.771-2.824 3.057 1.539 11.553 5.568 9.393 10.356z" fill="#ff8e5b"/><path d="m418.409 632.573c-6.426.308-13.047-6.287-15.893-11.299-2.982-5.25-3.197-14.445 3.557-16.705 8.695-2.91 13.768 7.775 15.625 14.238.961 3.974 3.244 13.451-3.289 13.766z" fill="#ff8e5b"/><path d="m362.903 605.48c5.51-2.044 13.422-1.229 15.225 5.241 2.496 8.955-9.16 13.218-15.602 14.561-4.314.708-13.418 2.043-13.244-4.593.178-6.67 8.08-13.151 13.621-15.209z" fill="#ff8e5b"/><path d="m299.987 593.979c5.039-3.775 13.828-3.143 19.219-.777 5.316 2.331 11.158 8.779 7.979 14.811-4.543 8.614-16.039 2.918-21.592-1.07-3.436-2.736-10.908-8.989-5.606-12.964z" fill="#ff8e5b"/><path d="m245.524 574.917c15.92 5.67 31.508 12.413 46.754 19.352-1.967 6.417 4.055 13.346 9.293 17.496.102.08.201.152.307.218.104.095.211.187.334.276 8.803 6.419 21.014 9.934 29.207.629.537-.609.996-1.232 1.383-1.867 3.891 1.324 7.787 2.574 11.699 3.73-.941 2.261-1.5 4.605-1.563 6.924-.291 10.963 13.393 10.926 20.924 9.756.113-.012.227-.031.344-.055.125-.021.246-.048.359-.078 5.766-1.258 12.023-3.979 15.982-8.338 5.607.94 11.273 1.748 17.023 2.426 4.438 7.596 13.279 13.867 21.826 13.459 6.697-.324 9.039-5.367 9.441-10.988 8.047.398 16.164.623 24.299.647 2.557 4.87 7.908 8.863 12.748 10.737 8.941 3.459 22.523.316 28.178-7.709 1.23-1.749 1.748-3.473 1.74-5.135 10.158-1.16 20.21-2.854 30.062-5.174-.471 4.258.602 8.609 3.959 12.725 6.332 7.768 17.738 3.395 23.574-2.365 4.863-4.797 7.813-12.766 7.537-20.189 9.734-2.926 19.408-5.874 29.135-8.613 12.707-3.58 9.152.242 2.455 5.768-2.018 1.664-4.016 3.336-6.002 4.994-18.836 15.729-36.457 30.171-57.758 40.752-.863-6.084-3.547-12.027-8.006-15.082-8.693-5.957-16.319 3.383-20.126 10.445-.043.076-.086.154-.127.238-.045.085-.084.168-.119.252-2.492 5.195-4.039 10.805-3.549 16.018-3.363.863-6.754 1.623-10.172 2.293.307-1.586.357-3.293.096-5.128-1.623-11.388-13.727-13.718-23.207-11.107-8.41 2.315-16.611 11.072-18.063 19.978-2.832-.027-5.668-.109-8.504-.241.986-8.038-.984-17.573-7.365-22.257-8.486-6.229-16.426 3.059-20.418 9.928-.049.074-.094.152-.137.234-.047.084-.09.166-.129.25-1.314 2.531-2.469 5.402-3.223 8.369-5.34-.945-10.648-2.056-15.9-3.328 6.346-4.263 11.395-11.596 11.734-18.748.521-10.955-13.293-11.115-20.783-10.111-.111.01-.225.024-.34.047-.125.019-.244.041-.357.068-10.213 1.997-20.746 8.133-20.279 19.539-3.6-1.336-7.156-2.732-10.658-4.207.303-4.926-1.6-10.287-4.488-13.959-6.061-7.705-18.441-13.373-28.18-9.584-2.342.91-3.908 2.244-4.887 3.838-12.619-7.889-24.768-16.584-36.648-25.42-11.188-8.316-21.92-17.859-33.068-26.753-9.938-7.93-8.71-9.356 3.663-4.95z" fill="#ff801d"/><path d="m522.354 662.388c-.965 6.091-6.965 14.787-14.093 11.548-8.258-3.752-5.295-14.687-2.299-20.851 1.771-3.337 5.964-11.611 10.962-8.859 5.32 2.93 6.226 13.123 5.43 18.162z" fill="#ff8e5b"/><path d="m464.86 678.118c-4.316.707-13.42 2.041-13.244-4.594.176-6.671 8.078-13.152 13.621-15.209 5.51-2.045 13.42-1.23 15.225 5.24 2.496 8.958-9.162 13.219-15.602 14.563z" fill="#ff8e5b"/><path d="m430.519 673.069c-1.182 6.156-7.508 14.396-14.518 10.934-8.109-4.012-4.635-14.963-1.477-20.951 1.936-3.375 6.322-11.301 11.281-8.357 5.208 3.095 5.663 13.432 4.714 18.374z" fill="#ff8e5b"/><path d="m381.181 662.261c-5.578 1.938-14.27.813-15.127-6.264-1.066-8.809 9.313-12.305 16.053-13.562 4.08-.58 14.059-1.681 13.039 5.14-1.002 6.713-7.981 12.606-13.965 14.686z" fill="#ff8e5b"/><path d="m341.315 655.226c-6.496 8.25-16.867-1.486-20.729-7.076-2.078-3.317-7.541-11.871-1.521-14.215 5.984-2.328 14.338 1.586 18.67 5.471 3.961 3.552 7.352 11.031 3.58 15.82z" fill="#ff8e5b"/><path d="m133.774 556.097c14.109.506 29.23 2.59 41.871 4.867 30.461 5.488 44.559 14.592 64.729 30.955 9.83 7.979 19.402 16.326 29.24 23.793 13.502 10.248 27.451 19.826 41.977 28.423.9 2.516 2.137 4.918 3.35 6.891.055.104.121.208.193.313.066.108.141.212.215.309 6.447 9.177 16.723 16.641 27.834 10.224.379-.219.736-.453 1.076-.697 1.127.518 2.258 1.031 3.396 1.529 18.158 7.936 37.617 13.342 57.518 16.424.752 3.758 2.73 7.151 6.51 9.6 8.258 5.35 17.346.736 21.986-6.791 5.07.219 10.143.299 15.207.223 4.523 3.166 12.291 2.891 17.318 2.108.113-.013.227-.03.344-.056.125-.021.248-.047.361-.078 3.598-.783 7.383-2.137 10.686-4.104 7.854-1.039 15.619-2.445 23.25-4.235.867 1.024 1.889 1.995 3.082 2.905 9.722 7.408 20.118-2.885 23.642-11.465.035-.082.066-.166.1-.252 13.355-5.633 26.098-12.961 37.234-21.664 18.461-14.428 35.402-32.697 56.018-44.258 16.357-9.17 48.381-15.303 80.316-14.318 31.967.988 9.758 56.838-6.58 85.14-11.91 20.632-27.307 39.036-44.662 55.286-35.492 33.225-80.295 55.4-126.752 68.664-94.669 27.025-203.073 16.627-287.95-34.412-66.178-39.789-108.855-105.023-122.166-179.707-3.425-19.211-2.054-26.428 20.657-25.617z" fill="#fac135"/><path d="m592.871 801.487c-65.25 35.639-141.999 45.658-215.179 37.297-95.43-10.902-192.957-57.516-249.281-137.254-21.871-30.969-35.324-66.729-39.383-104.086-1.035-9.52-1.963-26.189 7.018-34.594 7.021-6.576 8.287 2.355 8.684 5.438 12.262 95.496 69.99 173.527 157.625 214.723 86.027 40.442 189.402 43.367 279.146 13.817 47.727-15.714 92.17-42.128 126.654-78.876 16.738-17.836 30.533-38.329 41.189-60.314 9.156-18.893 22.666-46.996 14.234-68.103 1.527.364 3.045.765 4.555 1.212 12.885 3.816 8.967 24.783 7.51 34.445-11.518 76.369-77.793 140.807-142.772 176.295z" fill="#fbf199"/><path d="m810.873 689.653c-33.854 29.469-75.002 48.16-118.141 59.035-14.543 3.668-14.355.809-6.738-7.674 2.375-2.645 4.707-5.332 6.996-8.055 20.309-24.156 37.521-50.732 47.012-80.925 1.59-5.058 3.799-12.311 5.535-20.29 33.9 6.844 82.414 15.055 105.572-17.146 24.625-34.233 33.15-81.673 33.424-122.921.623-93.702-55.504-189.219-126.92-247.111-50.785-41.17-114.279-65.701-179.098-72.295-56.18-5.716-129.552 5.934-168.356 50.163-7.592 8.654-12.555 18.871-16.906 29.415-3.377 8.183-5.383 13.962-15.223 11.504-4.025-1.006-8.527-2.602-13.168-3.964 32.814-44.302 74.881-79.25 127.646-97.11 44.278-14.985 92.366-14.8 137.978-6.912 92.975 16.079 174.131 67.877 224.039 148.296 75.78 122.108 67.545 289.191-43.652 385.99z" fill="#fbf199"/><path d="m712.355 417.124c6.164 1.209 14.338 7.578 10.844 14.569-4.043 8.092-14.994 4.55-20.959 1.374-3.381-1.958-11.258-6.368-8.289-11.319 3.123-5.208 13.434-5.602 18.404-4.624z" fill="#ff8e5b"/><path d="m519.898 395.653c-8.924 2.643-13.392-8.845-14.845-15.304-.768-4.246-2.307-13.432 4.314-13.364 6.671.07 13.312 7.795 15.466 13.327 2.118 5.443 1.511 13.435-4.935 15.341z" fill="#ff8e5b"/><path d="m558.547 360.444c1-6.105 7.057-14.721 14.164-11.442 8.236 3.797 5.186 14.731 2.16 20.868-1.799 3.342-6.025 11.56-11.018 8.775-5.302-2.96-6.128-13.175-5.306-18.201z" fill="#ff8e5b"/><path d="m535.014 351.951c-8.764-1.353-9.328-12.321-8.705-19.131.498-3.797 1.785-12.833 7.479-11.517 5.953 1.376 9.887 9.888 11.098 15.026 1.491 6.327-1.794 16.869-9.872 15.622z" fill="#ff8e5b"/><path d="m669.721 407.232c5.84 8.17-4.961 15.857-11.152 18.858-3.797 1.633-13.139 5.326-13.947-1.547-.791-6.722 4.396-14.246 9.613-17.813 4.367-2.982 11.951-4.445 15.486.502z" fill="#ff8e5b"/><path d="m559.781 419.436c-5.883 2.417-15.881 1.598-16.588-6.298-.777-8.627 9.434-11.825 16.158-12.924 4.379-.492 13.348-1.444 13.283 4.78-.062 6.183-7.87 12.395-12.853 14.442z" fill="#ff8e5b"/><path d="m611.352 345.057c3.602-1.944 12.17-6.56 14.148-.294 1.934 6.115-2.768 14.203-6.869 18.216-3.922 3.838-11.479 6.321-16.008 2.252-7.828-7.035 3.084-16.793 8.729-20.174z" fill="#ff8e5b"/><path d="m662.859 346.568c-27-16.231-56.406-29.774-87.359-36.379-11.611-2.477-23.605-4.482-35.531-3.851-21.795 1.15-35.269 16.377-44.024 34.337-5.027 10.326-5.486 16.083-11.814 19.837-5.969 3.534-12.301 3.74-8.031 13.979 5.1 12.218 14.043 22.874 23.035 32.41 25.763 27.333 55.606 50.926 86.329 72.415 28.051 19.621 57.176 38.863 88.283 53.354 29 13.508 81.186 37.854 89.895-10.365 13.643-75.549-39.634-138.981-100.783-175.737zm26.102 71.36c5.951-8.036 19.611-9.018 28.203-5.895 9.701 3.526 17.057 14.341 10.754 23.978-6.543 10.007-19.689 7.314-28.607 2.645-.088-.041-.172-.084-.258-.134-.082-.043-.16-.09-.234-.138-6.842-4.015-16.122-11.996-9.858-20.456zm-13.158-12.718c6.053 11.276-4.404 21.538-13.705 26.167-.107.06-.221.117-.342.168-.115.056-.23.105-.344.146-6.961 2.925-20.301 6.356-22.662-4.315-2.088-9.437 3.998-21.431 12.295-26.101 8.236-4.636 19.639-5.599 24.758 3.935zm-28.846-53.485c11.961-1.866 18.719 9.662 21.031 19.64.033.115.061.234.082.36.025.115.045.227.059.337 1.275 7.547 1.439 21.164-9.529 21.016-9.664-.13-19.865-8.939-22.5-18.033-2.743-9.466-.498-21.549 10.857-23.32zm-39.117-11.928c.1-.068.207-.134.322-.195.111-.066.223-.125.332-.177 6.916-3.653 19.504-7.724 22.803 2.715 2.928 9.263-2.488 21.639-10.26 26.971-7.104 4.875-20.123 7.611-24.926-2.119-5.673-11.491 2.055-21.29 11.729-27.195zm-54.483 15.807c3.564-8.549 14.01-18.823 23.693-11.358 9.545 7.357 8.191 18.698 3.398 28.559-.037.084-.078.168-.123.253-.041.083-.082.161-.129.234-3.834 7.031-11.514 16.365-20.176 10.361-7.821-5.422-10.114-19.769-6.663-28.049zm-33.226 46.373c-11.96 1.902-18.749-9.631-21.089-19.597-.033-.113-.059-.229-.082-.352-.027-.115-.045-.228-.059-.339-1.301-7.551-1.49-21.145 9.48-21.032 9.665.101 19.89 8.892 22.544 17.978 2.77 9.461.557 21.537-10.794 23.342zm14.652-43.709c-12.326-1.904-15.725-14.285-14.82-25.124.004-.104.012-.214.027-.325.01-.101.021-.198.039-.292 1.023-7.479 4.449-19.858 14.602-17.511 9.107 2.106 16.186 13.414 16.723 22.244.584 9.59-4.76 22.833-16.571 21.008zm24.918 67.812c-8.875 1.954-21.693-.304-22.697-11.482-1.127-12.556 10.197-18.862 21.068-20.541.141-.022.279-.035.414-.039.137-.033.279-.058.424-.074 7.303-.814 21.285.195 20.043 11.05-1.082 9.48-9.932 19.035-19.252 21.086zm37.112 49.144c-9.664-.129-19.865-8.939-22.5-18.033-2.74-9.466-.496-21.548 10.857-23.319 11.961-1.866 18.721 9.661 21.031 19.64.033.115.061.234.084.36.023.115.045.226.057.337 1.275 7.546 1.439 21.164-9.529 21.015zm9.521-47.17c-9.393-3.557-13.627-16.877-12.75-25.872 1-10.25 9.568-20.024 20.455-16.523 11.531 3.708 12.104 17.437 9.68 27.232-.02.095-.043.191-.072.29-.023.092-.051.183-.08.27-2.268 7.521-7.596 18.255-17.233 14.603zm10.309 30.501c-.033-.113-.059-.23-.082-.352-.025-.115-.045-.229-.059-.339-1.301-7.553-1.49-21.146 9.48-21.032 9.664.101 19.889 8.892 22.543 17.978 2.77 9.462.557 21.538-10.795 23.342-11.959 1.902-18.748-9.631-21.087-19.597zm55.296 46.458c-5.701 11.111-18.471 10.684-28.598 6.424-.105-.045-.209-.094-.309-.146-.146-.047-.295-.102-.445-.172-6.645-3.071-17.494-10.604-11.793-19.303 5.119-7.808 17.619-11.253 26.346-8.952 9.137 2.408 20.239 11.55 14.799 22.149zm-6.671-29.373c-5.674-11.49 2.055-21.29 11.729-27.195.1-.068.207-.134.322-.195.111-.066.223-.125.332-.177 6.918-3.653 19.504-7.724 22.803 2.715 2.928 9.263-2.488 21.639-10.26 26.971-7.104 4.874-20.124 7.61-24.926-2.119zm52.361 32.349c-1.236 9.456-10.166 18.903-19.541 20.811-8.861 1.801-21.734-.578-22.557-11.783-.926-12.578 10.416-18.73 21.346-20.236.115-.016.23-.023.34-.029.16-.037.326-.066.498-.083 7.267-.694 21.33.496 19.914 11.32zm-7.623-25.532c-2.102-9.436 3.973-21.434 12.26-26.117 8.234-4.651 19.629-5.62 24.764 3.906 6.07 11.264-4.383 21.542-13.672 26.185-.105.06-.221.115-.342.168-.115.056-.23.105-.344.146-6.961 2.938-20.289 6.381-22.666-4.288zm28.699 57.477c-12.326-1.905-15.725-14.286-14.82-25.124.004-.104.012-.213.025-.324.012-.102.023-.197.039-.293 1.025-7.479 4.449-19.857 14.604-17.51 9.107 2.105 16.186 13.413 16.723 22.244.583 9.589-4.76 22.832-16.571 21.007z" fill="#ff801d"/><path d="m647.188 358.044c8.93-2.614 13.359 8.905 14.791 15.359.754 4.258 2.256 13.432-4.367 13.343-6.668-.088-13.279-7.851-15.416-13.38-2.11-5.455-1.458-13.434 4.992-15.322z" fill="#ff8e5b"/></g><path d="m755.918 556.079c-23.693 15.038-57.941-1.021-80.775-11.25-36.873-16.516-71.453-39.115-104.02-62.864-32.324-23.573-64.882-48.807-90.175-80.075-7.275-8.995-18.363-23.614-17.979-35.972.346-11.077 7.965-9.297 13.738-12.444-14.766-16.372-30.336-32.29-46.914-47.007 2.309 3.042 4.549 6.131 6.705 9.262 14.234 20.679 9.869 45.52 19.957 67.583 9.486 20.752 24.805 38.227 40.344 54.674 16.519 17.478 34.679 33.349 53.786 47.927 38.186 29.135 81.172 51.802 126.264 68.18 40.83 14.831 83.881 21.972 123.811 38.726-14.517-12.748-29.631-24.863-44.742-36.74z" fill="#ee9e2b"/><path d="m790.23 514.72c-2.383-26.565-4.271-53.909-14.893-78.744-21.484-50.249-61.963-84.74-108.199-111.674-42.211-24.588-93.361-45.243-142.795-33.938-31.181 7.129-59.517 18.182-90.653 4.231-.947-.423-2.02-.909-3.059-1.378 18.545 15.859 35.822 33.286 52.146 51.292 7.508-18.549 19.604-39.158 39.394-45.487 27.666-8.845 61.092.485 87.322 10.208 34.178 12.667 66.879 30.459 94.814 54.024 27.801 23.451 53.088 52.834 64.594 87.949 8.582 26.191 16.025 74.39-4.875 97.952 15.285 12.019 30.57 24.284 45.223 37.217-3.918-7.969-7.729-15.965-10.439-24.592-4.802-15.291-7.15-31.144-8.58-47.06z" fill="#ee9e2b"/><path d="m587.277 633.403c6.09-7.824 12.383-15.918 19.463-23.063-14.594 10.785-27.785 23.986-41.848 34.977-11.137 8.703-23.879 16.031-37.234 21.664-.033.086-.064.17-.1.252-3.523 8.58-13.92 18.873-23.642 11.465-1.193-.91-2.215-1.881-3.082-2.905-7.631 1.79-15.396 3.196-23.25 4.235-3.303 1.967-7.088 3.32-10.686 4.104-.113.031-.236.058-.361.078-.117.025-.23.043-.344.056-5.027.782-12.795 1.058-17.318-2.108-5.064.076-10.137-.004-15.207-.223-4.641 7.527-13.729 12.141-21.986 6.791-3.779-2.448-5.758-5.842-6.51-9.6-19.9-3.082-39.359-8.488-57.518-16.424-1.139-.498-2.27-1.012-3.396-1.529-.34.244-.697.479-1.076.697-11.111 6.417-21.387-1.047-27.834-10.224-.074-.097-.148-.2-.215-.309-.072-.104-.139-.208-.193-.313-1.213-1.973-2.449-4.375-3.35-6.891-14.525-8.597-28.475-18.175-41.977-28.423-3.934-2.986-7.824-6.132-11.709-9.32 16.186 19.434 31.148 40.156 49.201 57.488 15.066 14.464 30.889 19.824 51.141 23.535 23.25 4.258 41.852 21.824 65.754 22.844 10.098.433 20.25-3.912 29.68-6.88 13.654-4.302 27.148-3.784 41.244-3.655 20.698.193 37.897-8.678 53.146-22.061 14.744-12.938 27.201-28.826 39.207-44.258z" fill="#ee9e2b"/><path d="m714.139 345.929c-.189-.124-.35.17-.174.3 34.307 24.932 61.213 60.486 73.244 101.335.082.278.484.161.428-.119-8.18-41.124-38.879-78.976-73.498-101.516z" fill="#ee9e2b"/><path d="m576.549 511.632c-17.637-11.465-33.404-25.22-50.516-37.341-.275-.195-.549.218-.346.446 13.887 15.462 32.045 28.168 49.238 39.67 17.219 11.517 36.326 23.184 56.824 27.4.619.127 1.102-.803.453-1.084-19.354-8.431-37.917-17.562-55.653-29.091z" fill="#ee9e2b"/><path d="m634.973 541.956c-.193.043-.275.246-.24.426.447 2.306 4.137 3.182 6.066 2.779.211-.044.383-.322.301-.531-.842-2.141-3.952-3.158-6.127-2.674z" fill="#ee9e2b"/><path d="m566.756 282.542c10.094.554 19.996 2.913 29.941 4.561.404.068.746-.533.305-.722-15.867-6.73-36.484-9.272-53.285-4.846-.32.084-.236.541.076.558 7.646.407 15.305.029 22.963.449z" fill="#ee9e2b"/><path d="m603.447 289.998c1.664.625 3.242 1.298 5.031.917.248-.053.342-.409.152-.578-1.16-1.035-2.543-1.485-3.994-1.985-1.588-.549-3.051-1.174-4.736-.804-.178.039-.223.271-.105.393 1.035 1.061 2.287 1.541 3.652 2.057z" fill="#ee9e2b"/><path d="m673.035 320.748c-.24-.07-.352.251-.164.382 7.332 5.073 15.512 9.115 23.145 13.734.252.15.533-.206.316-.407-6.486-6.027-14.728-11.27-23.297-13.709z" fill="#ee9e2b"/><path d="m490.718 441.336c-3.779-3.731-6.875-8.032-10.346-12.033-.111-.129-.346.006-.289.167 3.256 9.106 12.338 17.554 20.566 22.306.273.156.539-.204.328-.426-3.259-3.487-6.863-6.659-10.259-10.014z" fill="#ee9e2b"/><path d="m456.429 710.93c-.248.159-.076.493.191.452 8.643-1.35 17.023-1.949 25.736-2.537.371-.025.461-.543.088-.654-8.224-2.456-18.629-1.897-26.015 2.739z" fill="#ee9e2b"/><path d="m548.504 685.667c-9.355 8.666-20.979 12.539-32.516 17.327-.301.126-.195.575.141.502 12.225-2.726 25.592-6.409 32.822-17.483.184-.282-.217-.559-.447-.346z" fill="#ee9e2b"/><path d="m556.352 682.981c-2.291 2.06-4.385 4.182-5.783 6.955-.131.26.129.521.389.389 2.951-1.493 5.08-3.785 5.994-6.996.101-.357-.341-.58-.6-.348z" fill="#ee9e2b"/><path d="m354.853 694.559c-.326.069-.205.495.072.532 7.82 1.047 14.969 4.482 22.537 6.428.352.092.715-.402.385-.66-6.379-4.967-14.903-8.03-22.994-6.3z" fill="#ee9e2b"/><path d="m380.671 703.044c-.141.035-.178.188-.125.309 1.008 2.266 4.721 3.402 6.934 3.912.283.065.561-.238.391-.508-1.308-2.09-4.597-4.367-7.2-3.713z" fill="#ee9e2b"/><path d="m859.365 574.583c15.695-43.85 19.467-91.793 8.02-137.217-20.217-80.217-69.215-155.592-139.008-201.182-53.195-34.746-118.162-56.531-182.213-54.651-35.986 1.055-76.663 10.237-107.03 29.997-16.082 10.464-24.779 22.748-32.609 37.79 38.066-45.07 112.808-62.932 188.251-52.726 58.834 7.956 102.645 33.647 151.361 66.55 56.625 38.237 93.33 108.654 107.779 160.786 8.838 31.885 22.971 95.614-6.385 174.731 4.094-5.473 8.08-13.588 11.834-24.078z" fill="#fbe134"/><path d="m349.54 296.866c7.17 22.018 15.148 43.397 27.258 63.239 58.965 96.627 158.343 171.218 258.417 221.208 4.639-.868 9.463-1.695 14.385-2.458-24.984-10.671-49.217-23.081-71.783-37.597-39.813-25.609-76.138-56.671-109.813-89.837-33.754-33.247-65.063-69.511-90.871-109.309-12.924-19.93-24.969-41.53-32.533-64.372.921 6.513 2.919 12.927 4.94 19.126z" fill="#fbe134"/><path d="m694.646 671.881c.166-.288.338-.599.506-.894-22.951 27.321-49.311 50.914-80.984 69.213-30.73 17.758-65.146 31.174-99.553 39.848-57.146 14.41-118.433 12.43-176.021 1.834-55.693-10.248-107.52-30.182-148.701-70.018-33.988-32.879-55.494-72.826-73.645-115.119 16.094 68.361 57.34 127.58 119.033 164.674 84.877 51.039 193.281 61.438 287.95 34.412 46.457-13.264 91.26-35.439 126.752-68.664 17.357-16.25 32.753-34.654 44.663-55.286z" fill="#fbe134"/><path d="m815.729 625.202c3.109-.865 5.617-1.742 7.27-2.855-2.385.057-4.76.088-7.119.044-22.707-.417-45.443-4.739-67.648-10.425-.107 3.107-.404 6.279-.838 9.438 21.252 4.372 47.223 9.675 68.335 3.798z" fill="#fbe134"/><path d="m128.411 701.53c56.324 79.738 153.852 126.352 249.281 137.254 73.18 8.361 149.929-1.658 215.179-37.297 64.979-35.488 131.254-99.927 142.771-176.295.213-1.398.475-3.053.729-4.838-4.021 15.09-10.422 29.699-17.373 43.496-12.605 25.029-27.883 48.752-46.516 69.714-37.623 42.337-87.926 70.587-142.445 84.604-56.464 14.52-118.8 21.598-176.413 9.943-55.539-11.235-110.719-29.723-156.564-63.873-32.197-23.983-57.404-57.061-76.814-91.92-17.738-31.858-29.637-67.91-27.93-104.391-4.838 8.934-4.145 21.641-3.287 29.516 4.058 37.359 17.511 73.119 39.382 104.087z" fill="#f3af79"/><path d="m360.995 599.454c.076-.023.152-.046.229-.066 9.48-2.61 21.582-.279 23.205 11.107.141.987.189 1.938.16 2.854 3.268.469 6.543.891 9.822 1.275-.195-4.555.994-8.991 3.799-12.17-6.748-8.09-13.23-16.399-19.355-24.963-46.244-64.674-76.473-150.379-66.797-231.118-20.795 85.573-2.873 184.845 48.937 253.081z" fill="#f3af79"/><path d="m704.203 718.822c-3.619 4.795-7.336 9.526-11.213 14.138-2.289 2.723-4.621 5.41-6.996 8.055-7.617 8.482-7.805 11.342 6.738 7.674 43.139-10.875 84.287-29.566 118.141-59.035 2.221-1.934 4.332-3.941 6.469-5.929-5.988 3.669-12.102 7.126-18.322 10.339-28.235 14.579-62.206 26.346-94.817 24.758z" fill="#f3af79"/><path d="m739.738 217.201c-47.402-30.33-100.686-45.823-156.504-50.444-43.031-3.563-90.075-.36-128.784 20.473-7.303 3.931-13.986 8.668-19.764 14.092 40.621-26.782 97.948-33.718 143.829-29.05 64.818 6.594 128.313 31.125 179.098 72.295 71.416 57.893 127.543 153.409 126.92 247.111-.229 34.329-6.209 72.921-22.391 104.647 4.871-8.627 9.217-17.758 13.174-26.643 11.387-25.566 16.547-53.406 18.207-81.208 3.275-54.904-16.031-111.201-43.035-158.262-26.488-46.158-66.131-84.463-110.75-113.011z" fill="#f3af79"/><path d="m527.697 564.954c-5.951-7.923-16.438-14.302-24.03-20.594-11.262-9.332-22.77-18.362-34.135-27.567-21.807-17.653-42.943-36.165-60.805-57.899-16.615-20.226-30.291-42.78-43.051-65.646-20.949-37.527-33.805-33.047-22.129 10.349 2.385 8.855 5.045 17.568 7.658 26.035 8.119 26.315 17.648 52.199 29.844 76.918 10.803 21.9 23.5 42.467 44.502 55.775 19.047 12.074 42.895 16.371 64.887 19.254 7.948 1.043 50.55 1.067 37.259-16.625z" fill="#fff7cf"/><path d="m323.036 285.541c.199-.397.432-.773.633-1.168-2.609-.551-5.201-1.364-7.73-2.68-9.6-5.002-16.742-11.217-27.348-14.374-9.971-2.968-20.023-2.767-30.178-1.179-7.158 1.119-15.195.545-21.504-2.327 3.992 7.502 15.488 12.579 23.057 14.496 9.805 2.485 19.945 2.592 29.68 5.718 23.365 7.504 27.466 13.224 33.39 1.514z" fill="#865725"/><g fill="#ff564d"><path d="m687.787 471.626c2.83-2.769 5.893-7.475 6.92-12.138-2.504 2.581-5.582 4.657-8.707 6.28-4.5 2.336-10.01 3.417-15.01 2.503-.688-.126-1.313-.311-1.891-.541-.156 2.129.555 4.239 2.68 6.148 4.53 4.07 12.086 1.587 16.008-2.252z"/><path d="m618.631 362.979c2.291-2.242 4.729-5.763 6.133-9.493-3.496 2.892-7.93 4.896-11.984 6.105-7.832 2.339-10.367-.241-11.711-4.326-1.705 3.338-1.848 6.909 1.555 9.966 4.528 4.069 12.085 1.586 16.007-2.252z"/><path d="m527.422 327.07c-.617 2.103-.924 4.305-1.113 5.75-.623 6.811-.059 17.778 8.705 19.131 6.898 1.066 10.291-6.463 10.207-12.627-1.73 1.89-3.766 3.252-6.295 3.571-7.696.966-9.446-8.368-11.504-15.825z"/><path d="m659.266 418.035c-4.244 1.911-9.912 4.235-14.27 1.728-.393 1.598-.559 3.211-.375 4.78.809 6.873 10.15 3.18 13.947 1.547 5.705-2.764 15.291-9.511 12.197-16.947-.137.315-.207.638-.371.946-2.128 4.046-7.203 6.179-11.128 7.946z"/><path d="m730.24 474.492c-4.521 2.539-9.438 2.921-14.049.625-.34 1.508-.494 3.028-.316 4.509.818 6.871 10.162 3.156 13.951 1.518 5.994-2.917 16.246-10.233 11.574-18.109-.299.8-.596 1.599-1.02 2.374-2.224 4.06-6.22 6.882-10.14 9.083z"/><path d="m565.49 410.537c-4.18 2.863-9.889 4.324-14.883 3.446-3.627-.636-5.361-2.851-6.596-5.519-.648 1.35-.979 2.89-.818 4.673.707 7.896 10.705 8.715 16.588 6.298 4.982-2.046 12.791-8.258 12.854-14.442.008-.813-.15-1.489-.42-2.075-1.611 2.859-3.629 5.499-6.725 7.619z"/><path d="m654.563 377.542c-7.334-1.572-10.188-6.866-13.227-12.194-.426 2.67-.082 5.587.859 8.018 2.137 5.529 8.748 13.292 15.416 13.38 5.309.07 5.387-5.784 4.824-10.315-1.863 1.304-4.294 1.878-7.872 1.111z"/><path d="m711.104 509.155c-2.836 3.055-6.459 5.492-11.936 7.139-6.764 2.031-12.143.695-17.424-1.552-.002.27-.023.53-.002.813.582 7.905 10.461 8.973 16.434 6.63 4.674-1.835 11.892-7.272 12.928-13.03z"/><path d="m470.843 671.405c-6.969 4.205-13.348 3.135-18.832-.283-.229.793-.375 1.596-.395 2.402-.176 6.635 8.928 5.301 13.244 4.594 6.439-1.344 18.098-5.605 15.602-14.563-.232-.832-.572-1.564-.99-2.217-1.77 3.887-4.182 7.384-8.629 10.067z"/><path d="m522.188 663.192c-.434.307-.818.652-1.293.928-8.752 5.07-13.284-.545-16.417-7.479-2.195 6.168-3.051 14.188 3.783 17.294 6.821 3.101 12.596-4.727 13.927-10.743z"/><path d="m473.048 634.169c4.742-.039 13.611-1.329 15.93-6.474.566-1.255.389-2.456-.221-3.577-3.232 2.59-6.678 4.803-11.51 5.375-7.361.87-14.461-3.318-18.463-9.242-3.33 7.99 7.744 13.973 14.264 13.918z"/><path d="m558.547 360.444c-.822 5.025.004 15.24 5.307 18.2 4.992 2.785 9.219-5.433 11.018-8.775 1.252-2.541 2.496-5.906 2.955-9.246-1.809 2.641-3.955 5.07-6.789 7.094-7.719 5.513-10.043-2.26-11.986-9.316-.222.698-.398 1.388-.505 2.043z"/><path d="m341.315 655.226c1.803-2.289 1.939-5.189 1.189-7.984-2.316 1.33-4.795 2.301-7.674 2.431-7.18.327-12.826-4.187-18.02-8.929.883 2.826 2.744 5.762 3.775 7.406 3.863 5.589 14.234 15.326 20.73 7.076z"/><path d="m748.391 526.278c-.996.143-2.004.271-3.113.256-10.371-.125-12.26-8.817-14.107-17.162-.502 1.902-.77 3.813-.939 5.113-.625 6.811-.059 17.777 8.705 19.131 4.959.766 8.104-2.918 9.454-7.338z"/><path d="m430.353 673.769c-.588.478-1.215.932-1.914 1.348-5.84 3.477-11.152 2.03-15.891-2.096-.43-.375-.816-.771-1.188-1.182-.91 4.839-.232 9.755 4.641 12.164 6.75 3.334 12.85-4.176 14.352-10.234z"/><path d="m395.146 647.575c.059-.38.068-.728.061-1.061-2.463 3.32-5.967 5.77-9.561 7.807-4.584 2.598-9.965 3.978-15.164 4.543-1.217.132-2.385.033-3.531-.154 2.496 4.592 9.475 5.202 14.23 3.551 5.984-2.08 12.963-7.973 13.965-14.686z"/><path d="m305.593 606.942c5.553 3.988 17.049 9.685 21.592 1.07.984-1.869 1.033-3.767.57-5.58-1.262.469-2.555.893-3.92 1.203-8.854 2.021-16.936-.561-24.9-3.664 1.482 2.751 4.714 5.425 6.658 6.971z"/><path d="m349.622 618.622c-.174.686-.322 1.375-.34 2.067-.174 6.636 8.93 5.301 13.244 4.593 6.074-1.267 16.773-5.134 15.883-13.08-3.172 2.441-6.354 4.927-10.125 6.402-6.799 2.655-12.564 1.754-18.662.018z"/><path d="m402.708 606.916c-3.111 3.72-2.535 10.233-.191 14.358 2.846 5.012 9.467 11.606 15.893 11.299 4.26-.207 4.756-4.298 4.33-8.229-2.885.125-5.928-.395-9.369-2.051-7.136-3.433-8.665-9.463-10.663-15.377z"/><path d="m595.824 468.893c5.379.072 5.391-5.938 4.803-10.491-.549.428-1.094.86-1.697 1.218-3.465 2.057-8.504.695-11.422-1.646-4.371-3.509-6.107-8.042-7.32-12.858-1.254 3.19-1.01 7.212.221 10.396 2.136 5.53 8.747 13.292 15.415 13.381z"/><path d="m505.532 382.221c1.828 6.562 6.249 15.836 14.366 13.432 6.445-1.907 7.053-9.898 4.936-15.341-.408-1.045-1.018-2.172-1.715-3.306-.311 5.282-1.838 9.69-6.699 10.215-5.154.556-8.341-1.742-10.888-5z"/><path d="m708.959 431.189c-7.031-1.084-11.445-4.235-15.457-8.446-1.467 4.54 5.586 8.498 8.738 10.324 5.965 3.176 16.916 6.718 20.959-1.374.646-1.292.889-2.561.824-3.78-4.144 3.428-9.789 4.09-15.064 3.276z"/><path d="m553.621 606.429c-1.068 4.453-2.623 8.697-5.949 12.284-5.252 5.665-10.676 5.569-15.816 3.137-.701 3.396.027 6.638 3.678 8.759 5.393 3.135 12.297-.955 15.283-5.754 2.863-4.604 5.396-12.907 2.804-18.426z"/><path d="m637.498 471.828c3.215-.95 4.975-3.417 5.672-6.323-3.162.786-6.787.286-9.73-.498-6.076-1.617-8.82-7.076-11.377-12.535.146 1.518.391 2.952.592 4.052 1.452 6.459 5.919 17.947 14.843 15.304z"/><path d="m599.986 408.433c.986 4.223 3.705 12.469 8.773 13.811 4.514 1.195 6.896-4.678 8.178-8.72-2.037 1.273-4.416 1.613-7.432.07-6.736-3.451-5.916-11.36-7.041-18.185-2.482 3.782-3.353 9.284-2.478 13.024z"/><path d="m665.844 503.073c1.406-2.742 1.158-5.248-.047-7.38-3.145 2.396-6.699 4.279-11.738 4.651-7.674.569-12.695-2.473-16.904-6.809-.543.617-.986 1.284-1.211 2.046-1.482 5.048 6.076 8.349 9.678 10.009 6.251 2.524 16.378 4.973 20.222-2.517z"/></g><path d="m275.716 607.196c11.631 8.637 23.52 17.125 35.863 24.842.979-1.594 2.545-2.928 4.887-3.838.518-.203 1.068-.274 1.6-.422-14.231-6.14-28.575-12.955-42.35-20.582z" fill="#ef6200"/><path d="m483.624 656.257c1.592 1.805 2.719 4.132 3.139 7.073.262 1.835.211 3.542-.096 5.128 3.418-.67 6.809-1.43 10.172-2.293-.367-3.91.41-8.045 1.875-12.059-5.008.85-10.041 1.551-15.09 2.151z" fill="#ef6200"/><path d="m752.629 531.961c-2.641 5.218-7.248 9.003-13.924 7.973-4.41-.681-7.662-2.72-9.998-5.533-8.941-.827-17.842-3.503-26.484-6.981-1.355.597-2.734 1.097-4.135 1.381-8.861 1.801-21.734-.578-22.557-11.783-.063-.832-.063-1.635-.018-2.412-2.613-1.365-5.16-2.854-7.723-4.305-6.512 5.49-16.326 4.554-24.449 1.137-.105-.045-.209-.094-.309-.146-.146-.047-.295-.102-.445-.172-6.645-3.071-17.494-10.604-11.793-19.303.84-1.279 1.93-2.394 3.115-3.433-2.373-1.701-4.756-3.386-7.102-5.115-6.943-5.122-13.814-10.396-20.615-15.773-1.156 4.379-3.852 7.804-9.381 7.73-9.664-.129-19.865-8.939-22.5-18.033-1.51-5.21-1.494-11.202.705-15.843-5.553-4.938-11.037-9.945-16.4-15.067-8.801 1.547-20.648-.95-21.613-11.684-.291-3.256.266-6.083 1.422-8.526-2.729-2.87-5.852-6.163-9.154-9.791-1.906 2.892-4.879 5.019-9.141 5.696-11.96 1.902-18.749-9.631-21.089-19.597-.033-.113-.059-.229-.082-.352-.027-.115-.045-.228-.059-.339-1.061-6.158-1.377-16.33 4.49-19.814-3.67-6.615-6.52-13.399-7.947-20.117-4.529 9.622-5.221 15.139-11.314 18.755-5.969 3.534-12.301 3.74-8.031 13.979 5.1 12.218 14.043 22.874 23.035 32.41 25.763 27.333 55.606 50.926 86.329 72.415 28.051 19.621 57.176 38.863 88.283 53.354 27.787 12.941 76.832 35.791 88.551-4.731-3.073 1.611-6.296 2.956-9.667 4.02z" fill="#ef6200"/><path d="m553.525 639.418c-8.682 3.213-17.492 6.046-26.42 8.454.789 2.037 1.348 4.219 1.66 6.422 8.768-4.357 16.899-9.393 24.76-14.876z" fill="#ef6200"/><path d="m399.481 654.077c-2.105 4.38-5.613 8.355-9.664 11.078 5.252 1.272 10.561 2.383 15.9 3.328.754-2.967 1.908-5.838 3.223-8.369.039-.084.082-.166.129-.25.043-.082.088-.16.137-.234.674-1.16 1.471-2.389 2.352-3.6-4.039-.555-8.065-1.203-12.077-1.953z" fill="#ef6200"/><path d="m445.493 672.2c.826-5.059 3.861-10.028 7.844-13.836-5.92.105-11.854-.004-17.797-.244 1.578 4.34 2.004 9.313 1.449 13.839 2.836.132 5.672.214 8.504.241z" fill="#ef6200"/><path d="m359.792 655.95c-.182-4.416 1.299-8.035 3.762-10.938-6.152-1.938-12.25-4.025-18.283-6.26 2.508 3.615 4.141 8.457 3.863 12.99 3.502 1.476 7.058 2.872 10.658 4.208z" fill="#ef6200"/></g></g></svg>