<svg id="Fruit" height="512" viewBox="0 0 992.13 992.13" width="512" xmlns="http://www.w3.org/2000/svg"><g><path d="m861.912 378.231c-41.328-83.393-122.078-139.87-210.443-149.153 5.469-5.445 10.869-10.669 16.035-15.633 14.902-14.32 20.988-32.738 16.697-50.531-4.344-18.004-18.926-32.355-39.01-38.395-5.037-1.516-10.23-2.283-15.432-2.283-29.855 0-52.414 24.471-67.758 44.467-22.775-2.88-43.725-15.577-65.752-28.927-15.546-9.421-31.622-19.163-49.499-26.311-27.631-11.048-57.061-16.649-87.477-16.649-15.531 0-31.479 1.475-47.404 4.381-44.274 8.086-86.179 29.566-121.184 62.116-31.779 29.554-54.898 69.844-75.295 105.392-3.57 6.222-7.098 12.372-10.622 18.381-10.136 17.286-6.195 30.745-2.943 37.229 10.274 20.487 35.525 23.293 53.964 25.344 3.043.337 6.189.687 7.863 1.001 10.726 2.012 21.364 4.458 32.496 7.066-48.369 90.732-42.25 200.727-18.056 278.455 31.548 101.336 101.541 187.689 192.038 236.914 25.881 14.078 52.751 22.301 79.865 24.438 2.724.215 5.514.324 8.29.324 17.356 0 32.478-4.084 47.103-8.033 4.43-1.197 8.89-2.406 13.425-3.479 1.277-.303 2.59-.449 4.016-.449 5.781 0 13.041 2.48 20.73 5.107 6.514 2.225 13.896 4.748 21.822 6.26 7.131 1.363 14.604 2.051 22.211 2.051h.002c20.932 0 43.494-5.098 68.979-15.592 90.455-37.24 164.975-111.373 204.447-203.393 43.468-101.329 43.802-213.515.892-300.098z" fill="#fff"/><g><path d="m840.514 388.836c-45.432-91.673-142.276-148.336-243.551-135.394 16.506-20.67 35.641-39.586 53.992-57.218 18.982-18.239 11.395-41.608-12.639-48.834-26.797-8.057-50.318 24.027-64.836 43.893-.35-.064-.721-.099-1.119-.095-51.85.428-88.888-39.32-134.476-57.547-39.104-15.635-80.445-18.486-121.726-10.949-40.919 7.473-78.915 27.939-109.21 56.111-34.334 31.928-58.08 78.298-81.58 118.365-15.293 26.078 27.604 25.189 42.686 28.018 22.004 4.126 43.904 10.061 65.952 14.633-57.487 80.733-61.754 195.242-33.11 287.264 29.021 93.23 94.93 176.408 180.645 223.033 21.885 11.902 45.467 19.646 70.33 21.607 21.691 1.709 40.821-5.74 61.44-10.619 19.873-4.703 37.67 7.098 56.547 10.699 26.236 5.01 53.514-2.24 77.621-12.164 86.393-35.568 154.994-105.413 191.592-190.725 37.116-86.52 44.008-194.187 1.442-280.078zm-303.037-137.673c-16.682-3.771-33.753-5.171-50.666-3.349 20.325-16.98 42.113-30.276 67.053-27.802-6.071 10.053-11.544 20.461-16.387 31.151z" fill="#68182b"/><path d="m631.492 157.138c12.219-1.067 17.646 5.55 18.283 13.535 1.332 16.856-6.779 18.508-18.973 12.202-5.688-2.939-7.76-7.409-10.012-13.019-.164-.407-.662-.405-.828 0-4.594 11.315 9.395 21.067 19.611 22.929-3.262 3.077-6.797 5.978-10 8.956-11.127 10.357-20.791 22.322-30.432 34.03-16.744 20.337-32.684 40.557-43.563 64.498-3.922 8.647-26.676 7.8-23.896-2.19 7.16-25.759 17.873-49.9 31.574-73.034 13.717-23.154 38.099-65.274 68.236-67.907z" fill="#aa8053"/><g fill="#b1d045"><path d="m554.988 200.459c3.592.549 7.246.93 10.967 1.121-2.029 2.855-4.008 5.745-5.934 8.668-33.852-5.819-57.763 11.642-82.362 33.845-15.865 14.314-31.987 27.839-48.97 39.998-10.476 7.498-10.749 5.122-7.833-2.991 1.047-2.915 2.006-5.873 2.936-8.843 18.171-57.983 39.127-71.254 88.953-72.91 14.083-.47 28.157.716 42.243 1.112z"/><path d="m413.353 283.819c-7.527 19.43-20.432 25.458-54.057 38.492-13.144 5.095-26.012 8.454-38.779 10.412-12.277 1.878-10.756.249-4.83-6.71 7.152-8.396 12.574-19.228 17.098-28.46 27.775-56.679 49.342-67.39 102.416-83.078 14.104-4.175 10.23.136 5.609 5.721-7.18 8.672-12.605 19.027-16.224 29.091-4.097 11.402-6.85 23.221-11.233 34.532z"/><path d="m415.023 137.28c16.306 4.928 32.114 11.881 47.296 20.524 17.699 10.077 34.894 21.277 53.001 29.847 11.084 5.247 6.213 4.428-2.575 5.376-32.701 3.534-41.965 2.816-51.206-.442-14.642-5.163-23.245-18.916-31.227-31.243-4.458-6.887-9.997-13.341-16.358-18.776-8.433-7.201-7.358-7.837 1.069-5.286z"/><path d="m281.882 143.611c17.32-6.621 35.488-11.058 53.689-13.354 29.822-3.762 56.957.514 74.271 14.795 11.421 9.423 17.282 22.674 26.467 33.878 5.993 7.313 12.759 13.171 21.092 17.102 8.086 3.813 2.995 4.746-1.649 5.947-36.205 9.377-67.388 23.392-90.826 4.809-11.941-9.466-21.232-22.028-32.016-32.716-12.639-12.529-30.615-21.662-48.918-23.826-7.327-.867-17.015-.933-2.11-6.635z"/><path d="m192.466 211.45c6.732-8.845 13.959-17.312 21.932-25.2 26.18-25.903 54.109-42.169 94.088-23.5 14.84 6.93 25.523 20.249 36.248 32.142 9.166 10.164 20.17 19.864 32.181 25.122 7.96 3.482 8.597 3.55-1.929 7.07-8.918 2.982-17.826 5.924-26.743 8.726-7.81 2.454-42.188 10.536-52.38 10.768-18.08.411-35.581-5.358-51.768-12.914-13.814-6.449-25.742-12.739-41.299-13.609-1.391-.078-2.796-.092-4.209-.043-9.207.313-13.411 1.025-6.121-8.562z"/><path d="m144.79 285.944c26.318-41.853 39.656-67.433 72.774-58.341 15.88 4.359 30.079 14.563 45.895 19.704 7.14 2.32 14.423 3.764 21.753 4.431 8.254.747 5.06 2.567-.282 4.283-18.196 5.846-36.397 11.677-54.642 17.381-25.527 7.983-52.111 13.489-77.709 21.582-13.092 4.133-13.281-.29-7.789-9.04z"/><path d="m165.835 314.089c-7.35-1.378-14.734-2.429-22.144-3.439-10.241-1.396-8.146-3.521 6.738-8.448 26.728-8.833 54.785-14.391 81.54-22.709 14.655-4.556 29.28-9.207 43.895-13.888-7.51 5.776-13.088 14.52-18.679 21.919-8.563 11.332-19.454 22.571-32.152 29.373-14.162 7.586-26.835 3.262-59.198-2.808z"/><path d="m230.501 327.714c-7.539-1.615-9.658-3.038-1.504-7.386 5.971-3.176 11.521-7.056 16.254-10.842 10.849-8.685 18.286-21.532 27.094-32.078 16.067-19.237 40.582-23.789 71.682-33.646 5.426-1.72 10.846-3.462 16.262-5.214 14.724-4.762 5.816.94 2.17 4.108-10.725 9.303-18.186 21.528-24.924 33.985-6.566 12.142-12.252 24.782-19.395 36.601-13.866 22.937-33.897 25.968-87.639 14.472z"/></g><path d="m838.977 639.692c-32.463 98.221-110.305 178.928-207.487 214.95-26.332 9.758-54.104 10.682-80.311.74-16.314-6.189-31.637-7.127-48.419-2.432-26.775 7.494-50.057 10.719-77.786 3.703-29.649-7.5-57.319-25.443-81.935-43.082-137.682-98.657-203.489-328.42-97.694-471.541 18.576 3.371 37.286 5.399 56.282 4.202 46.582-2.939 90.787-24.169 128.915-49.827 10.575-7.117 21.101-16.688 31.862-26.652 9.055-8.388 11.563-9.666 22.41-11.134 16.131-2.193 32.458-1.063 48.415 2.377-4.891 11.908-9.018 24.128-12.34 36.569-11.291-10.153-27.337-18.472-42.265-15.273-.322.068-.366.537-.09.691 6.625 3.692 14.238 5.71 21.061 9.151 6.578 3.318 12.473 7.481 17.71 12.542-27.823-3.713-57.919-10.472-82.108 5.819-.639.43-.25 1.469.532 1.263 16.646-4.351 32.786-5.579 49.879-3.808 17.256 1.79 34.23 5.399 51.584 6.352 16.477.905 31.861-3.211 47.826-6.617 20.338-4.34 41.244-7.181 62.039-7.854.746-.025.936-1.135.178-1.325-17.705-4.418-34.729-3.799-52.621-.689-7.563 1.314-14.943 2.968-22.301 4.476 2.59-2.174 5.164-4.358 7.906-6.156 9.166-6.004 19.82-8.088 29.281-13.168.266-.142.223-.601-.086-.663-9.996-1.985-20.672 2.608-29.52 6.967-3.217 1.584-6.924 3.555-10.393 5.938 5.271-10.351 11.51-20.288 18.404-29.854.281-.008.572-.037.871-.09 100.734-17.871 193.148 37.33 240.693 125.128 40.613 74.989 35.504 170.643 9.508 249.297z" fill="#ff5671"/><path d="m295.862 246.576c10.191-.232 44.57-8.314 52.38-10.768 8.917-2.802 17.825-5.743 26.743-8.726 10.525-3.52 9.889-3.587 1.929-7.07-12.011-5.258-23.015-14.958-32.181-25.122-.031-.035-.063-.07-.095-.105 6.041 11.208 3.577 23.982-8.528 32.187-10.807 7.325-25.29 9.674-38.053 9.968-23.006.528-45.08-8.154-68.045-9.767 4.623 1.996 9.236 4.225 14.082 6.488 16.187 7.557 33.688 13.326 51.768 12.915z" fill="#abab38"/><path d="m413.353 283.819c4.384-11.312 7.137-23.13 11.233-34.532 3.618-10.064 9.044-20.419 16.224-29.091.261-.317.52-.627.773-.934-24.1 6.362-35.01 31.521-45.807 52.072-8.773 16.698-20.106 29.83-35.631 40.711-14.127 9.902-29.873 15.232-45.555 21.37 1.443-.072 3.371-.3 5.926-.691 12.768-1.958 25.636-5.317 38.779-10.412 33.626-13.034 46.53-19.063 54.058-38.493z" fill="#abab38"/><path d="m230.288 273.401c18.244-5.704 36.445-11.536 54.642-17.381 5.342-1.715 8.536-3.536.282-4.283-7.33-.667-14.613-2.11-21.753-4.431-11.437-3.717-22.032-10.061-33.022-14.948 9.809 6.802 19.816 15.888 10.141 26.094-7.057 7.444-19.035 11.182-28.217 15.012-16.544 6.897-33.445 12.71-50.321 18.65 22.643-6.61 45.851-11.709 68.248-18.713z" fill="#abab38"/><path d="m477.659 244.093c18.029-16.272 35.705-29.955 57.179-33.837-7.867.296-15.654 1.339-23.507 3.692-13.947 4.18-26.843 12.017-38.521 20.526-20.576 14.991-32.021 39.407-53.483 53.18.354 1.898 2.917 1.049 9.363-3.564 16.982-12.158 33.104-25.682 48.969-39.997z" fill="#abab38"/><path d="m428.731 159.076c.523.759 1.084 1.498 1.581 2.267 7.981 12.327 16.585 26.08 31.227 31.243 9.241 3.258 18.505 3.976 51.206.442 8.788-.948 13.659-.129 2.575-5.376-3.45-1.633-6.858-3.382-10.25-5.18-14.002 9.041-30.612 12.181-46.586 3.044-11.598-6.636-18.518-19.57-29.753-26.44z" fill="#abab38"/><path d="m457.4 196.033c-8.253-3.894-14.96-9.686-20.911-16.9 1.578 10.308-6.524 19.831-16.795 23.863-11.934 4.684-26.594 5.745-39.002 2.991-14.051-3.121-25.395-17.167-35.984-26.204-5.582-4.762-11.563-8.209-17.961-11.153 2.154 1.738 4.237 3.536 6.162 5.443 10.783 10.688 20.074 23.25 32.016 32.716 23.438 18.583 54.621 4.568 90.826-4.809 4.645-1.202 9.735-2.134 1.649-5.947z" fill="#abab38"/><path d="m318.14 313.242c7.143-11.819 12.828-24.459 19.395-36.601 6.738-12.457 14.199-24.682 24.924-33.985.475-.412 1.039-.866 1.627-1.335-23.289 8.17-40.345 30.749-55.504 48.852-10.837 12.94-22.268 23.71-38.215 30.003-15.213 6-30.76 5.549-46.51 4.83.412 1.123 2.83 1.893 6.645 2.709 53.741 11.495 73.772 8.464 87.638-14.473z" fill="#abab38"/><path d="m165.835 314.089c32.363 6.07 45.036 10.394 59.198 2.808 12.698-6.802 23.589-18.042 32.152-29.373 4.751-6.288 9.507-13.531 15.433-19.115-6.728 3.262-12.828 8.772-18.307 13.407-10.105 8.547-19.348 17.958-30.963 24.531-15.106 8.549-31.797 5.465-48.114 3.392-11.693-1.487-22.546-1.549-33.616.582.629.113 1.306.224 2.073.329 7.41 1.01 14.794 2.061 22.144 3.439z" fill="#abab38"/><path d="m311.571 265.084c-8.426 2.795-15.834 8.96-22.133 14.964-8.606 8.207-13.309 19.858-22.808 26.962-5.86 4.383-10.034 7.469 1.868 4.064 22.18-6.346 33.882-21.731 44.648-41.552 2.718-4.999 1.259-5.382-1.575-4.438z" fill="#d7e338"/><path d="m317.606 179.667c-8.049-14.89-29.653-19.335-44.182-18.023-15.689 1.416-32.787 10.435-44.195 22.462-6.368 6.71-.905 3.34 1.654 2.176 9.2-4.186 19.557-5.905 29.437-5.832 11.979.088 22.988 5.552 34.114 9.466 5.126 1.804 14.372 5.091 19.59 1.483 4.645-3.205 6.44-6.443 3.582-11.732z" fill="#d7e338"/><path d="m216.503 235.97c-6.863-7.576-19.854-1.553-26.584 2.783-8.347 5.381-17.552 16.005-22.77 26.521-1.561 3.141-7.18 11.015 2.544 2.087 9.954-9.141 21.499-16.213 33.921-20.325 2.252-.744 18.869-4.467 12.889-11.066z" fill="#d7e338"/><path d="m411.282 170.022c-2.508-14.617-21.545-23.301-33.664-27.505-13.219-4.587-28.947-5.077-42.676-.973-10.287 3.075-3.114 3.377.874 3.743 18.786 1.724 35.858 7.138 51.321 19.278 5.658 4.443 12.344 11.272 19.711 12.163 3.335.403 4.883-4.087 4.434-6.706z" fill="#d7e338"/><path d="m480.628 176.173c-1.136-5.257-24.7-18.04-37.771-23.319-6.468-2.613-7.039-1.709-1.781 2.66 7.631 6.352 14.429 13.857 22.689 19.421 1.367.921 18.74 9.933 16.863 1.238z" fill="#d7e338"/><path d="m399.314 239.739c-11.382 5.774-21.11 14.763-29.495 24.245-11.797 13.339-17.938 30.297-28.652 44.268-5.427 7.08-3.281 8.144 4.645 4.219 10.35-5.128 19.8-11.519 27.793-20.257 5.236-5.724 9.396-12.613 12.403-19.738 4.468-10.585 9.302-20.051 15.781-29.118 2.931-4.105 5.544-7.688-2.475-3.619z" fill="#d7e338"/><path d="m487.973 207.136c-21.583 4.634-38.462 18.118-47.737 37.823-3.137 6.658-2.018 6.706 2.499 1.364 12.778-15.088 32.497-21.211 46.519-35.133 3.116-3.095 6.373-5.697-1.281-4.054z" fill="#d7e338"/><path d="m237.618 282.075c-16.992 4.869-34.024 9.616-51.025 14.462-6.904 1.964-4.293 2.925-.199 4.229 8.543 2.722 17.539 6.354 26.004 2.987 10.271-4.087 18.07-12.395 27.004-18.955 5.499-3.994 4.804-4.62-1.784-2.723z" fill="#d7e338"/><path d="m621.205 181.163c-1.412 18.488-22.75 32.909-33.83 46.022-13.84 16.384-24.82 35.007-34.074 54.293-3.41 7.104-8.176 15.857-10.512 24.71 5.379-.056 11.016-2.003 12.791-5.92 10.879-23.941 26.818-44.161 43.563-64.498 9.641-11.708 19.305-23.673 30.432-34.03 3.203-2.979 6.738-5.879 10-8.956-6.54-1.19-14.602-5.623-18.37-11.621z" fill="#865725"/><path d="m634.484 296.163c-.049-.023-.07-.089-.133-.066-.025.01-.051.022-.078.033.071.008.141.025.211.033z" fill="#df3f58"/><path d="m334.615 344.448c34.771-6.724 67.89-19.029 103.357-22.365 36.446-3.431 73.106 3.472 109.637 2.884 16.141-.259 32.496-1.681 47.994-6.385 11.684-3.546 21.154-10.904 31.223-17.358-14.053 1.357-28.063 3.53-41.807 6.463-15.965 3.406-31.35 7.522-47.826 6.617-17.354-.953-34.328-4.563-51.584-6.352-17.093-1.771-33.233-.543-49.879 3.808-.782.206-1.171-.833-.532-1.263 20.314-13.681 44.787-11.104 68.586-7.728-11.58-4.648-22.527-11.344-35.305-12.71-8.74-.934-18.336-2.377-27.432-1.526-3.503 2.82-7.002 5.517-10.505 7.874-38.128 25.658-82.333 46.888-128.915 49.827-12.455.786-24.784.167-37.037-1.292 22.6 6.306 47.102 3.938 70.025-.494z" fill="#df3f58"/><path d="m754.023 776.017c-34.361 26.953-73.775 52.184-116.875 60.795-22.193 4.434-41.809.094-62.873-7.168-13.881-4.787-27.244-12.365-41.795-14.935-18.598-3.282-39.016 1.595-57.253 4.806-19.726 3.475-39.596 5.674-59.604 3.641-40.98-4.17-74.929-29.445-103.14-57.775-32.37-32.506-57.305-71.043-75.556-113.02-25.303-58.191-36.865-120.969-41.137-184.171-16.89 128.165 45.569 272.522 147.248 345.382 24.615 17.639 52.285 35.582 81.935 43.082 27.729 7.016 51.011 3.791 77.786-3.703 16.782-4.695 32.104-3.758 48.419 2.432 26.207 9.941 53.979 9.018 80.311-.74 46.14-17.103 87.902-44.29 122.534-78.626z" fill="#df3f58"/><path d="m792.213 428.354c-29.33-83.345-81.955-73.548-124.453-17.391-22.693 29.982-34.789 70.786-39.945 111.102-5.389 42.184-2.369 85.918 12.223 124.782 15.531 41.349 48.654 57.298 74.846 54.196 58.836-6.965 87.748-83.273 93.451-149.014 3.63-41.831-2.622-85.326-16.122-123.675z" fill="#ff9780"/><path d="m654 356.588c-14.43-11.657-37.207-9.213-56.613.57-.014.004-.014-.013-.029-.006-27.764 9.774-42.166 37.932-27.443 60.343 13.439 20.462 55.893 14.838 79.879-5.097 21.175-17.603 19.753-43.254 4.206-55.81z" fill="#ff9780"/><path d="m839.586 477.242c-.664-4.908-2.191-4.692-1.811-.117 4.406 52.946-6.047 107.79-23.92 157.243-9.496 26.277-21.873 51.574-36.451 75.396-7.602 12.422-15.443 25.048-24.166 36.929-9.838 13.396-7.871 14.352 3.32 1.806 28.168-31.581 48.043-68.749 62.992-109.034 19.329-52.101 27.458-107.525 20.036-162.223z" fill="#68182b"/><path d="m836.393 467.648c.867 3.297 2.191 3.205 2.422-.17.059-.839-.063-1.701-.207-2.647-.281-1.852-.83-4.137-2.221-5.476-.119-.113-.311-.062-.357.095-.545 1.787-.176 3.897 0 5.73.083.895.159 1.705.363 2.468z" fill="#68182b"/><path d="m233.575 388.709c-19.034 36.173-24.508 80.789-25.133 120.595-.457 29.155 2.225 58.076 9.957 86.031 2.271 8.203 4.607 7.211 3.201-1.416-4.382-26.799-5.797-54.82-5.795-81.545 0-22.391 2.328-44.625 5.83-66.718 3.07-19.383 9.076-37.652 15.394-56 3.587-10.427 1.771-10.865-3.454-.947z" fill="#68182b"/></g></g></svg>