<svg id="Fruit" height="512" viewBox="0 0 992.13 992.13" width="512" xmlns="http://www.w3.org/2000/svg"><g><path d="m924.547 470.53c-11.035-44.504-32.01-82.568-63.926-116.105-3.823-4.018-7.697-7.945-11.558-11.859-12.729-12.904-24.753-25.094-33.539-39.375-9.628-15.654-8.933-30.523-7.973-51.104.284-6.057.576-12.322.613-19.012.08-15.361-4.643-28.615-13.302-37.32-6.671-6.707-15.403-10.4-24.585-10.4-8.755 0-21.785 3.311-34.162 19.094-7.936 10.121-14.071 21.477-18.494 34.289-4.78-1.965-9.507-3.76-14.04-5.48-4.137-1.57-8.173-3.102-11.974-4.67-30.513-12.605-55.575-27.135-83.803-48.584-1.954-1.482-5.144-4.254-8.523-7.184-18.148-15.754-43.005-37.33-69.029-37.33-7.868 0-15.172 1.941-21.709 5.771-9.205 5.395-15.32 14.002-17.217 24.24-1.854 9.994.552 20.027 4.953 29.494-9.044-9.867-16.406-20.955-21.914-29.844-9.06-14.625-16.676-32.287-23.289-54-.221-.727-.457-1.607-.727-2.594-2.992-10.957-9.219-33.756-30.095-39.098-3.102-.795-6.249-1.197-9.351-1.197-8.679 0-15.831 2.672-21.688 7.09-5.038-4.133-11.377-6.764-19.383-6.764-5.817 0-14.615 1.723-23.497 9.928-11.236 10.377-19.082 23.756-24.097 38.201-7.775-17.273-20.136-35.477-41.183-35.477-8.865 0-21.765 3.566-32.872 20.566-13.463 20.602-13.021 47.916-10.535 74.361 2.24 23.83 9.966 48.496 24.311 77.619 15.775 32.027 37.827 61.139 64.879 85.91-2.129-.025-4.285-.096-6.418-.193-20.099-21.77-49.706-35.83-76.903-35.83-25.515 0-47.445 11.713-61.756 32.98-7.467 11.092-12.017 22.975-15.822 34.166-5.463 16.07-13.969 27.477-25.917 40.668-10.096 11.143-28.754 31.732-31.712 56.43-2.378 1.182-12.105 6.064-12.105 6.064l-4.961 2.449c-15.839 7.773-33.79 16.582-46.748 34.419-6.021 8.291-17.436 30.84 6.569 61.119 8.567 10.807 9.939 16.252 8.162 32.359-2.164 19.609 9.12 34.441 16.02 43.512 6.781 8.916 8.783 21.316 11.1 35.68 1.767 10.965 3.772 23.393 8.351 35.648 6.682 17.881 19.276 30.01 30.388 40.713 6.314 6.082 12.28 11.828 16.055 17.637 14.936 22.99 42.677 47.557 75.751 47.557 10.678 0 21.125-2.656 30.762-7.762 1.826.207 3.717.309 5.677.309 4.18 0 7.965-.465 11.007-.838l1.915-.23c.632-.07 1.244-.104 1.845-.104 4.114 0 8.855 1.592 14.857 3.607 3.518 1.184 7.502 2.521 11.851 3.678 8.557 2.275 17.632 3.383 27.742 3.383 9.579 0 19.049-1.02 28.048-2.346 3.062 5.193 6.176 10.441 9.456 15.736 32.333 52.197 96.056 83.357 170.455 83.357 30.899 0 61.373-5.582 88.132-16.145 0 0 6.34-2.563 6.983-2.814.607.012 5.505.148 5.505.148 2.025.045 4.052.072 6.076.072 11.736 0 22.282-.842 32.236-2.572 27.469-4.77 43.648-26.68 54.354-41.178 4.765-6.451 10.631-12.756 16.841-19.43 13.004-13.977 27.744-29.82 35.657-51.352.008-.02.014-.039.022-.061 54.808-4.377 98.334-32.232 119.319-76.707 20.822-15.584 38.938-39.422 35.145-64.855 12.237-18.604 22.898-42.77 18.038-66.357-1.771-8.596-6.241-19.836-17.131-29.625.037-.844.07-1.693.099-2.545 8.164-3.846 16.54-10.049 21.01-20.201 2.798-6.355 6.063-19.371-3.501-35.158-7.065-11.658-16.31-19.314-24.745-24.554z" fill="#fff"/><g><path d="m903.559 486.295c-.019-.279-.033-.561-.095-.855-9.281-44.1-29.075-81.906-60.142-114.551-17.027-17.889-35.066-33.936-48.139-55.188-16.996-27.631-11.064-52.754-10.901-82.754.117-21.973-14.218-33.088-29.371-13.762-12.976 16.547-18.494 35.418-20.823 55.039-14.986-10.781-35.332-16.846-51.598-23.566-33.167-13.701-60.292-29.725-89.134-51.639-14.201-10.791-51.146-49.803-72.74-37.152-15.518 9.092 2.713 33.623 11.815 45.01-11.404 5.695-20.779 15.027-27.475 26.094-21.681-12.74-37.908-34.283-50.894-55.244-11.463-18.508-19.51-38.859-25.831-59.613-2.006-6.58-5.282-23.313-13.898-25.518-19.775-5.063-25.091 33.893-25.268 46.338-.029 2.109.072 4.238.189 6.365-1.582-6.242-2.859-12.832-3.929-19.951-1.093-7.277-6.41-44.416-22.785-29.289-21.333 19.703-26.744 56.139-21.908 83.34 3.05 17.158 11.703 32.689 22.648 46.67-25.142-21.393-44.146-48.537-55.788-81.264-4.997-14.045-20.072-59.385-39.316-29.934-10.242 15.672-8.389 41.615-6.749 59.064 2.287 24.338 11.245 47.551 21.958 69.301 21.503 43.658 55.836 80.842 96.365 107.408 3.166 5.322 6.366 10.316 9.285 14.797-18.243-2.174-36.994-2.293-57.195-1.881-7.58.154-15.357-.281-23.189-.848-24.351-33.285-80.094-52.822-107.077-12.725-5.887 8.746-9.653 18.609-13.022 28.518-6.699 19.707-17.019 33.77-30.831 49.018-12.702 14.018-30.546 34.746-24.81 55.072-8.802 4.02-17.437 8.457-26.034 12.752-15.744 7.863-32.438 14.919-43.059 29.541-7.93 10.916-1.09 23.352 5.963 32.248 13.295 16.771 15.475 29.059 13.186 49.814-1.127 10.215 5.537 18.871 11.286 26.43 17.042 22.398 13.191 51.668 22.816 77.43 8.217 21.99 31.5 34.311 44.097 53.699 17.799 27.396 52.514 50.436 82.565 26.979.593.291 1.175.602 1.785.865 5.511 2.383 12.342 1.111 18.066.467 13.773-1.549 24.356 4.377 37.358 7.836 19.857 5.279 41.865 1.367 61.875-2.096 5.78 9.578 11.353 19.391 17.535 29.373 45.037 72.699 154.171 87.316 229.511 57.576 13.017-5.143 9.692-4.609 21.815-4.33 11.282.26 22.553-.221 33.673-2.152 17.813-3.094 29.213-18.271 39.229-31.838 16.024-21.695 39.708-38.748 49.291-64.824 1.828-4.98 3.239-10.035 4.482-15.123 50.14.762 98.468-20.82 118.093-69.109 17.04-11.221 38.309-33.492 28.123-53.461 17.064-22.453 36.708-60.553 3.622-79.254-.465-.264-.924-.424-1.376-.543 1.19-10.482 1.434-21.15 1.03-31.885 13.202-2.631 31.076-8.924 21.018-25.527-6.216-10.27-15.271-16.39-25.302-21.168z" fill="#68182b"/><path d="m527.808 170.571c11.922-1.537 27.38 12.623 36.027 19.063 24.798 18.477 48.632 39.279 75.868 54.189 14.002 7.662 29.799 12.783 44.513 18.861 15.285 6.314 36.217 12.545 48.774 24.193-.303 5.244-.457 10.514-.513 15.789-42.809-33.74-102.852-34.479-142.48-72.322-12.899-12.318-21.678-32.684-43.451-28.352-1.304.258-2.585.57-3.853.918-2.199-2.888-22.508-31.359-14.885-32.339z" fill="#ff5671"/><path d="m363.743 315.379c3.698 13.979 2.837 13.055-5.881 5.537-23.178-19.977-42.507-43.641-58.541-70.455-21.157-35.379-40.482-89.963-22.05-130.273 6.755-14.773 22.509 34.178 24.175 38.465 5.737 14.787 13.634 28.566 22.715 41.529 17.513 24.994 63.373 65.225 111.057 77.234 9.528 2.395 9.108.574.409-4.365-29.451-16.727-49.979-37.203-57.205-45.613-10.252-11.93-18.949-25.035-24.643-40.092-5.115-13.525-5.447-28.043-3.185-42.15 1.292-8.051 4.425-16.016 7.589-23.434 8.709-19.984 13.296-18.57 17.099.508 3.004 15.064 3.512 30.861 8.765 45.533 4.246 11.852 29.279 62.336 67.69 73.785 5.009 1.496 5.638-.336 1.37-3.248-37.297-25.457-49.943-61.264-53.25-93.947-.68-6.693-.533-13.465.962-20.006.909-3.982 1.915-7.439 2.954-10.32 5.792-16.086 12.377-14.691 14.642 2.287 1.302 9.768 5.969 24.271 9.538 32.68 14.89 35.082 37.956 73.68 72.147 93.357-.229.521-.476 1.039-.693 1.564-17.554 42.451-3.938 92.107 30.684 112.648-19.695-1.707-39.068-6.465-57.702-14.402-31.551-13.439-52.395-39.438-78.598-60.209-14.016-11.109-24.416-9.299-30.364 8.133-2.599 7.614-2.056 16.293.316 25.254z" fill="#ff5671"/><path d="m174.411 424.731c10.038-11.152 17.092-23.199 22.242-37.252 6.876-18.756 12.946-41.221 34.12-48.045 18.466-5.953 39.846 2.102 55.431 14.756 8.816 7.162.403 6.818-7.859 6.67-20.96-.381-41.057 2.602-57.582 17.996-5.258 4.9-7.485 12.123-9.692 18.693-5.486 16.346-10.33 29.334-22.174 42.344-6.535 7.176-12.483 14.32-17.825 21.826-6.163 8.652-7.681 9.59-16.735 12.447-3.908 1.234-7.764 2.637-11.572 4.168-3.786-19.593 20.259-40.949 31.646-53.603z" fill="#ff5671"/><path d="m225.753 790.246c-34.014 13.219-58.928-42.203-80.635-60.291-32.683-27.238-17.597-70.566-41.771-101.893-14.09-18.258-4.463-35.92-10.527-55.846-4.805-15.789-31.517-30.662-14.966-47.783 10.145-10.496 26.859-16.258 39.69-22.666 9.793-4.894 19.619-9.832 29.78-13.867 10.705-4.246 7.517.955 3.707 11.849-1.357 3.885-2.526 7.822-3.52 11.799-3.585 8.992-6.954 18.125-10.531 26.936-5.725 14.098-13.498 32.721-9.46 48.164.062.238.364.197.444 0 3.003-7.473 4.414-15.736 6.824-23.457.609-1.947 1.275-3.879 1.983-5.801 7.385-20.084 5.809-7.461 6.784 6.555 2.552 36.568 14.577 74.086 28.12 107.951 5.632 14.086 3.429 13.852-7.181 5.107-10.151-8.367-19.271-16.777-25.509-28.568-7.112-13.445-9.295-28.107-13.575-42.447-.107-.357-.58-.258-.615.082-2.357 22.529 8.532 49.018 23.433 65.531 8.179 9.063 18.044 16.504 27.45 24.23 5.013 4.117 8.783 8.838 12.195 13.814 6.383 13.668 14.541 26.422 21.361 39.896 5.174 10.217 11.369 21.627 19.638 30.543 5.136 5.533 3.039 7.771-3.119 10.162z" fill="#ff5671"/><path d="m348.604 790.156c-17.171 2.387-34.131 3.197-51.384-1.391-4.847-1.289-12.18-6.604-18.013-7.066-8.857-.703-17.472 1.061-26.314 1.412-19.109.762-33.245-36.354-40.344-50.26-5.415-10.605-11.94-20.346-16.881-31.197-26.504-58.207-52.271-129.234-36.001-193.486 10.276-40.583 47.236-62.638 59.662-101.73 15.822-49.77 72.172-31.729 112.513-32.346 42.433-.65 77.496.547 116.372 19.633 31.736 15.574 57.091 36.666 74.303 66.439 3.692 6.389 4.98 8.965-4.029 9.152-2.977.061-5.944.191-8.904.396-39.991-62.195-107.233-95.395-181.438-86.93-62.258 7.102-117.343 49.434-141.281 106.902-40.086 96.24-2.898 211.9 80.128 265.037-3.797-1.363-7.569-2.785-11.278-4.361-7.079-3.008-13.37-7.506-20.425-10.457-.476-.199-.702.461-.448.77 9.531 11.701 27.135 18.572 40.879 23.867 9.923 3.824 20.229 7.229 30.733 9.344 13.117 4.51 27.03 7.561 41.618 9.055 7.686.778 9.202 6.008.532 7.217z" fill="#ff5671"/><path d="m307.803 708.24c1.094 20.479 11.619 35.512 25.234 49.746 2.059 2.154 4.013 4.334 5.889 6.537 6.727 7.9 1.095 7.174-7.676 5.424-116.792-23.291-174.629-156.117-138.203-266.785 19.145-58.162 70.983-97.98 130.19-109.083 64.94-12.182 127.68 16.395 167.006 66.561 6.792 8.654 6.816 10.059-2.817 12.117-40.985 10.746-77.959 40.261-102.758 74.031-13.03 17.746-21.91 36.004-27.488 54.982-.591.066-1.193.205-1.809.496-35.731 16.812-49.513 69.623-47.568 105.974z" fill="#d5d5d5"/><path d="m584.46 882.941c-67.534 17.912-150.276.576-192.253-56.25-11.675-15.807-17.431-34.813-29.57-50.494-11.774-15.211-27.567-28.076-37.561-44.49-18.822-30.922-2.001-94.34 28.619-116.193-4.894 23.588-5.068 48.344-1.82 74.705.516 4.189 1.153 8.27 1.91 12.256 2.144 11.256.321 12.164-4.362 1.969-4.819-10.492-6.57-21.416-9.869-32.33-.13-.43-.87-.51-.95 0-3.114 19.791 8.112 41.281 17.803 57.766 5.348 9.098 11.064 18.197 17.105 27.076 9.071 16.588 20.448 32.191 33.579 48.16 7.788 9.469 15.761 18.783 23.596 28.213 4.42 5.316 8.367 13.33 13.489 17.957 15.896 14.363 40.226 16.441 60.588 19.121 26.417 3.479 52.999 5.098 79.533 7.305 9.952.825 9.973 2.626.163 5.229z" fill="#ff5671"/><path d="m871.867 688.447c-17.188 12.432-39.5 23.156-53.558 2.631-7.252-11.738-27.542-46.816-6.636-54.729 20.554-7.783 51.307-7.854 71.294 1.344 28.282 13.022 4.216 39.678-11.1 50.754z" fill="#aa8053"/><path d="m882.774 525.82c-14.683 1.316-28.653 5.771-41.972 11.893-17.038 7.828-48.527 31.283-44.922 53.158.952 5.775 8.973 7.777 13.591 7.943 17.387.625 34.739-4.082 50.144 6.699 1.093.762 2.037-.658 1.621-1.621-3.131-7.277-8.32-11.002-16.4-11.822-6.699-.676-13.117-.512-19.82.025-3.711.363-7.426.439-11.146.23-19.893-.412-4.295-16.777-.562-21.469 18.105-22.766 41.7-29.215 67.102-33.477 13.687-2.299 17.237 1.881 17.377 11.551.111 7.564-.062 15.123-.749 22.719-.759 8.412-1.892 18.693-4.161 30.938-1.892 10.193.124 10.723 4.24.863 2.153-5.168 3.933-10.43 5.385-15.77 2.042-7.494 2.685-14.818 9.429-5.307 8.971 12.654 1.496 30.408-7.504 44.475-5.074 7.934-7.683 7.449-14.023 3.426-23.685-15.043-61.354-11.721-85.4-2.617-27.759 10.508-5.579 52.885 4.217 68.734 14.563 21.268 31.79 19.758 51.386 10.477-16.587 28.521-46.155 43.775-78.345 48.365-16.114 2.295-21.01-.75-18.991-14.846 1.763-12.316 3.241-24.705 5.854-36.926 2.688-12.584 9.079-23.723 13.288-35.77 3.743-10.725.792-23.395-1.948-33.916-5.227-20.066-19.357-39.154-36.118-51.063-13.31-9.459-27.646-17.275-40.267-27.707-10.846-8.969-18.811-21.256-28.499-31.383-6.64-6.941-8.41-13.891-3.548-24.146 14.943-31.49 33.372-60.861 57.422-86.558 6.017-6.432 12.603-12.289 19.268-18.029 13.522-11.65 20.486-14.695 35.937-4.881 13.459 8.551 25.541 18.854 38.483 28 7.14 5.045 8.707 3.789 3.092-2.83-11.365-13.404-26.732-23.48-41.081-33.381-13.605-9.385-24.328-6.273-36.583 3.623-40.753 32.912-68.927 76.467-89.823 123.964-20.644-14.408-46.129-23.337-69.418-29.978-16.057-4.578-33.006-7.99-50.062-9.414-.08-.287-.16-.574-.292-.865-17.776-39.367-47.445-65.154-85.443-84.502-12.611-6.418-24.94-10.963-37.297-14.158-11.189-2.891-20.709-12.914-31.924-35.191-5.564-11.051-21.816-64.744 7.354-41.623 19.946 15.811 35.972 34.883 57.786 48.484 36.063 22.488 80.208 29.014 121.939 24.131 2.729-.32 39.24-5.104 64.732 9.496 4.264 2.441 4.937 1.557 1.635-1.969-17.284-18.484-49.723-18.02-71.898-17.936-55.102.193-77.709-66.125-53.933-113.623 5.21-10.408 13.123-18.625 22.725-24.982 16.824-11.141 29.713-1.607 40.35 11.713 11.953 14.973 26.625 24.99 43.835 33.156 35.326 16.76 73.774 22.988 104.824 46.873 10.283 7.916 8.012 20.549 1.489 31.15-6.372 10.363-13.973 18.619-21.698 25.43-.21.18-.202.432-.08.623.119.191.348.324.592.258 17.513-4.49 31.755-20.945 37.576-37.537 8.623-24.58-1.908-28.268 5.786-66.168 2.226-10.963 6.539-21.621 12.741-32.459 16.676-29.154 13.355 15.295 11.838 25.666-2.265 15.486-.138 29.623 4.602 44.41 10.223 31.916 36.675 54.879 59.371 77.967 24.959 25.385 41.843 55.207 51.94 88.457 4.346 14.318 2.878 14.328-9.059 9.273-7.232-3.061-14.222-6.539-20.352-11.375-10.229-8.08-12.537-6.523-3.717 3.148 18.164 19.93 55.068 21.645 65.776 47.681 3.27 7.96-33.12 9.892-37.692 10.3z" fill="#ff5671"/><path d="m770.307 636.576c-5.28-15.564-13.709-30.652-26.748-41.107-22.3-17.877-45.389-29.48-64.138-51.645-14.456-17.094-31.039-29.922-51.5-39.24-36.066-16.421-79.386-28.025-119.926-24.332-.498.123-1.004.174-1.517.156-5.478.551-10.905 1.361-16.252 2.504-49.208 12.9-94.675 54.962-115.95 100.642-22.665 48.668-19.436 115.6 4.493 163.676 11.271 22.645 28.313 41.645 44.491 60.898 11.291 13.439 26.355 39.645 43.99 44.352 29.92 7.982 61.025 10.406 91.802 12.707 25.915 1.941 52.063 5.637 78.09 5.477 12.771-.078 28.299.586 39.018-7.551 10.774-8.18 17.941-19.613 26.095-30.189 18.507-24.004 40.966-40.807 47.211-72.42 5.225-26.453 5.643-53.533 15.715-78.85 6.265-15.738 10.923-27.988 5.126-45.078zm-20.823 54.553c-1.596 15.889-4.41 31.676-9.304 46.748-6.969 35.764-24.611 68.93-54.011 91.311-69.135 52.629-173.636 31.063-237.792-19.744-69.374-54.939-97.923-144.184-60.689-226.416 23.688-48.475 70.387-89.603 126.148-93.087 89.314-5.578 180.721 57.771 215.189 138.531 8.22 19.258 13.028 40.547 14.271 62.164 1.097-12.047 1.63-24.314.245-36.357-1.452-12.635-6.013-24.303-8.092-36.709-.05-.295.309-.59.549-.32 15.903 17.85 15.716 51.668 13.486 73.879z" fill="#ff5671"/><path d="m723.754 757.582c-32.59 99.779-146.738 106.531-229.197 68.092-89.45-41.695-139.84-144.43-97.772-237.332 18.584-38.033 49.638-68.863 90.183-82.508 50.37-16.953 107.193 4.51 150.186 31.07 74.643 46.119 114.256 136 86.6 220.678z" fill="#d5d5d5"/><path d="m893.226 645.523c-7.523 11.287-19.477 20.041-33.386 25.074-13.282 4.807-29.18 5.748-42.231-.105-5.364-2.406-9.826-6.295-13.854-10.684 3.018 11.939 10.661 24.967 14.555 31.27 14.058 20.525 36.369 9.801 53.558-2.631 12.667-9.162 31.293-28.978 21.358-42.924z" fill="#865725"/><path d="m723.754 757.582c5.63-17.238 8.428-34.688 8.755-51.943-12.418 49.262-44.515 92.322-95.814 108.414-104.115 32.658-221.976-56.969-232.421-161.896-3.791-38.066 6.247-74.084 22.626-107.477-12.115 12.766-22.246 27.557-30.115 43.662-42.067 92.902 8.322 195.637 97.772 237.332 82.459 38.439 196.607 31.687 229.197-68.092z" fill="#bebebe"/><path d="m331.25 769.947c8.771 1.75 14.402 2.477 7.676-5.424-1.876-2.203-3.83-4.383-5.889-6.537-13.615-14.234-24.141-29.268-25.234-49.746-.56-10.447.23-22.258 2.417-34.178-8.707 2.584-18.109 3.246-28.426 1.08-29.65-6.229-52.964-32.586-69.526-56.266-16.185-23.139-25.273-49.779-27.934-77.629-13.861 101.142 43.289 208.034 146.916 228.7z" fill="#bebebe"/><path d="m693.801 673.27c-4.768-28.688-16.925-56.217-34.071-79.598-29.725-40.533-79.566-70.395-130.941-63.434-22.245 3.014-43.92 14.633-58.053 32.107-15.304 18.922-15.337 43.389-8.889 65.801 14.06 48.881 58.229 91.9 102.165 115.117 24.79 13.098 53.224 19.336 80.791 12.486 34.83-8.651 57.602-30.698 48.998-82.479z" fill="#efefef"/><path d="m422.171 429.266c-28.514-12.508-75.375-19.67-121.095-.871-44.572 18.328-82.134 59.633-83.396 109.5-.543 21.396 7.557 42.859 26.997 53.52 20.086 11.018 39.66-2.115 53.839-16.119 19.022-18.789 31.781-42.945 49.691-62.721 19.924-21.998 49.6-40.628 78.688-47.042 26.023-5.743 21.159-24.909-4.724-36.267z" fill="#efefef"/><path d="m574.393 876.924c-23.241-1.838-46.497-3.471-69.629-6.518-20.362-2.68-44.691-4.758-60.588-19.121-5.122-4.627-9.069-12.641-13.489-17.957-7.835-9.43-15.808-18.744-23.596-28.213-13.131-15.969-24.508-31.572-33.579-48.16-6.041-8.879-11.758-17.979-17.105-27.076-4.688-7.975-9.722-17.125-13.331-26.684 1.569 9.217 3.529 18.336 6.854 27.195 4.803 12.797 12.833 24.236 20.672 35.313 9.062 12.803 17.472 25.699 25.245 39.332 7.852 13.77 15.516 27.654 26.255 39.418 18.093 19.818 40.528 30.271 66.945 32.736 15.428 1.438 31.128 1.727 46.604 1.414 12.315-.248 25.946.047 38.742-1.679z" fill="#df3f58"/><path d="m745.13 436.262c9.04-11.393 19.134-22.176 32-29.238 6.354-3.488 16.715-5.52 25.632-4.223-5.892-4.443-11.844-8.814-18.105-12.791-15.45-9.814-22.414-6.77-35.937 4.881-6.665 5.74-13.251 11.598-19.268 18.029-24.05 25.697-42.479 55.068-57.422 86.558-4.862 10.256-3.092 17.205 3.548 24.146 9.688 10.127 17.653 22.414 28.499 31.383 12.62 10.432 26.957 18.248 40.267 27.707 16.761 11.908 30.892 30.996 36.118 51.063.811 3.115 1.619 6.426 2.287 9.811 1.327-5.914 1.94-11.898 1.015-17.646-1.98-12.303-7.247-22.459-14.837-32.223-9.431-12.133-21.596-22.355-32.478-33.139-13.17-13.053-28.838-25.918-34.39-44.268-5.215-17.236 7.222-34.263 17.159-47.085 8.552-11.035 17.234-22.029 25.912-32.965z" fill="#df3f58"/><path d="m348.071 782.939c-14.588-1.494-28.501-4.545-41.618-9.055-10.505-2.115-20.811-5.52-30.733-9.344-2.278-.877-4.679-1.822-7.116-2.801-12.464-2.477-24.486-6.473-35.559-13.902-8.736-5.861-16.997-13.42-24.271-21.971 1.288 2.305 2.565 4.617 3.774 6.984 7.099 13.906 21.234 51.021 40.344 50.26 8.843-.352 17.457-2.115 26.314-1.412 5.833.463 13.166 5.777 18.013 7.066 17.253 4.588 34.213 3.777 51.384 1.391 8.671-1.208 7.155-6.438-.532-7.216z" fill="#df3f58"/><path d="m225.753 790.246c6.158-2.391 8.255-4.629 3.122-10.16-.729-.787-1.359-1.682-2.059-2.506-16.566 3.924-29.581-5.096-41.551-19.348-11.229-13.367-20.839-27.684-34.6-38.701-6.667-5.336-12.366-9.777-16.797-17.295-4.626-7.842-5.879-17.816-9.094-26.281-2.501-6.584-5.219-13.244-8.499-19.572 6.545 25.865 5.249 53.908 28.842 73.572 21.708 18.088 46.622 73.51 80.636 60.291z" fill="#df3f58"/><path d="m686.17 829.188c-69.135 52.629-173.636 31.063-237.792-19.744-42.186-33.408-69.232-79.506-75.615-128.994 2.579 32.238 13.391 63.594 32.757 90.762 30.507 42.803 77.88 74.395 128.887 86.342 12.747 2.986 25.763 4.307 38.831 4.627 15.423.375 31.266 1.336 46.604-.834 26.42-3.734 53.882-13.426 74.228-31.027 20.387-17.635 36.373-41.383 45.508-66.582 6.182-17.053 11.04-35.166 7.039-52.186-1.597 8.928-3.649 17.75-6.435 26.326-6.97 35.763-24.613 68.929-54.012 91.31z" fill="#df3f58"/><path d="m897.778 550.174c-.004-.414.015-.83.008-1.242-.14-9.67-3.69-13.85-17.377-11.551-25.401 4.262-48.996 10.711-67.102 33.477-3.733 4.691-19.331 21.057.562 21.469 3.721.209 7.436.133 11.146-.23 5.704-.457 11.21-.609 16.851-.238-6.582-4.893-9.528-12.869-4.715-21.904 5.091-9.561 17.801-14.615 27.508-17.406 10.865-3.125 22.104-2.182 33.119-2.375z" fill="#df3f58"/><path d="m186.864 489.686c23.938-57.469 79.023-99.801 141.281-106.902 4.572-.521 9.118-.883 13.632-1.09-1.148-.01-2.298-.016-3.448-.018-14.682-.02-29.017.846-43.387 3.984-25.314 5.531-49.537 20.645-69.325 36.982-43.416 35.85-62.176 99.402-58.463 154.164.938 13.848 3.579 29.666 8.971 44.037-9.559-42.835-6.874-88.87 10.739-131.157z" fill="#df3f58"/><path d="m911.946 582.398c-.903 4.588-2.045 9.139-3.271 13.643-1.692 6.211-4.233 12.012-8.526 16.869-6.562 7.426-17.957 4.5-26.192 3.23-15.355-2.367-32.768-.598-47.481 5.754 21.562-3.791 46.517-2.678 63.927 8.381 6.341 4.023 8.949 4.508 14.023-3.426 8.993-14.058 16.464-31.798 7.52-44.451z" fill="#df3f58"/><path d="m860.604 706.869c-19.596 9.281-36.823 10.791-51.386-10.477-4.48-7.25-11.542-20.053-15.24-32.814 1.553 14.461 6.944 29.244 12.71 41.232 2.748 5.713 5.136 11.113 5.531 17.504.567 9.17-7.195 16.172-12.978 22.217-3.271 3.42-6.725 6.617-10.338 9.582 29.576-5.656 56.265-20.699 71.701-47.244z" fill="#df3f58"/><path d="m878.756 476.069c11.937 5.055 13.404 5.045 9.059-9.273-10.098-33.25-26.981-63.072-51.94-88.457-11.227-11.42-23.366-22.814-34.012-35.271 11.464 19.482 30.499 36.672 43.269 52.666 13.041 16.336 43.437 56.049 28.356 77.992 1.736.814 3.494 1.591 5.268 2.343z" fill="#df3f58"/><path d="m403.773 114.067c-1.039 2.881-2.045 6.338-2.954 10.32-1.495 6.541-1.642 13.313-.962 20.006 2.914 28.811 13.11 60.037 41.027 84.471-13.132-18.234-22.392-40.641-28.581-61.764-4.968-16.955-8.997-38.639-6.597-57.67-.649 1.348-1.295 2.869-1.933 4.637z" fill="#df3f58"/><path d="m375.254 204.958c-13.701-24.809-20.017-50.996-19.019-78.482-2.434 6.037-4.618 12.346-5.641 18.721-2.263 14.107-1.931 28.625 3.185 42.15 5.693 15.057 14.391 28.162 24.643 40.092 5.786 6.732 20.114 21.199 40.704 35.285-18.383-15.569-32.482-37.145-43.872-57.766z" fill="#df3f58"/><path d="m171.071 461.719c5.342-7.506 11.29-14.65 17.825-21.826 11.844-13.01 16.688-25.998 22.174-42.344 2.207-6.57 4.435-13.793 9.692-18.693 16.525-15.395 36.622-18.377 57.582-17.996.325.006.65.014.975.02-22.648-5.709-50.348-3.572-66.18 14.588-4.598 5.271-6.915 12.029-9.53 18.389-4.568 11.115-9.408 22.059-15.182 32.605-5.696 10.402-12.771 19.707-20.818 28.385-5.029 5.426-10.108 10.975-12.272 18.182-.084.277-.162.578-.236.891 8.329-2.666 9.999-3.818 15.97-12.201z" fill="#df3f58"/><path d="m732.478 302.667c.056-5.275.21-10.545.513-15.789-12.558-11.648-33.489-17.879-48.774-24.193-5.036-2.08-10.201-4.063-15.374-6.057-24.483-4.395-48.764-7.553-70.245-18.918 39.342 30.705 94.057 33.57 133.88 64.957z" fill="#df3f58"/><path d="m357.862 320.917c8.718 7.518 9.579 8.441 5.881-5.537-2.361-8.924-2.906-17.566-.346-25.156-29.653-10.006-51.401-34.344-67.994-60.24-9.242-14.426-15.441-29.873-20.549-46.158-1.681-5.359-3.108-10.785-4.441-16.236 2.596 29.641 15.349 60.197 28.908 82.873 16.034 26.813 35.364 50.477 58.541 70.454z" fill="#df3f58"/><path d="m424.791 309.272c14.348 12.898 29.139 25.066 47.598 32.93 18.634 7.938 38.007 12.695 57.702 14.402-10.657-6.322-19.303-15.418-25.684-26.199-27.355 3.957-55.399-6.151-79.616-21.133z" fill="#df3f58"/><path d="m164.497 677.004c10.609 8.744 12.813 8.979 7.181-5.107-4.375-10.938-8.545-22.283-12.333-33.828-.396 1.918-.935 3.777-1.868 5.467-3.843 6.953-14.934-3.453-17.812-6.277-3.881-3.807-6.74-8.268-9.371-12.896 2.164 8.232 4.611 16.355 8.694 24.074 6.238 11.79 15.358 20.2 25.509 28.567z" fill="#df3f58"/><path d="m622.746 479.741c-13.487-2.877-26.43-8.305-39.177-13.436-14.997-6.033-27.79-12.035-39.186-23.818-9.161-9.475-17.175-19.875-27.215-28.496-8.917-7.656-19.068-13.756-29.577-18.939-13.58-6.699-28.239-10.84-43-14.67 2.966 1.32 5.942 2.723 8.938 4.246 37.998 19.348 67.667 45.135 85.443 84.502.132.291.212.578.292.865 17.056 1.424 34.005 4.836 50.062 9.414 23.289 6.641 48.774 15.57 69.418 29.978 4.776-10.855 9.954-21.49 15.553-31.855-15.384 7.238-36.186 5.488-51.551 2.209z" fill="#df3f58"/><path d="m442.074 187.368c7.059 14.373 15.659 27.92 25.692 40.395 7.358 9.146 17.094 20.242 28.125 26.395 1.004-3.432 2.127-6.844 3.516-10.201.218-.525.465-1.043.693-1.564-34.191-19.678-57.258-58.275-72.147-93.357-3.569-8.408-8.236-22.912-9.538-32.68-.49-3.666-1.189-6.559-2.028-8.752-.004 10.91 3.005 22.287 5.887 32.252 4.718 16.311 12.33 32.309 19.8 47.512z" fill="#ff9780"/><path d="m200.119 389.917c6.677-16.379 13.175-32.242 28.923-41.875 11.5-7.033 25.95-7.086 39.629-4.754-12.232-5.582-25.697-7.787-37.897-3.854-21.174 6.824-27.244 29.289-34.12 48.045-5.15 14.053-12.204 26.1-22.242 37.252-6.446 7.164-16.945 17.119-24.158 27.961 8.112-9.646 18.311-17.48 27.451-26.33 10.604-10.262 16.916-22.961 22.414-36.445z" fill="#ff9780"/><path d="m542.539 377.446c19.92-3.572 37.938-10.939 57.323-11.723-14.835-1.205-26.946.367-28.475.547-41.731 4.883-85.877-1.643-121.939-24.131-21.814-13.602-37.84-32.674-57.786-48.484-4.598-3.645-8.063-5.373-10.624-5.668 7.142 5.469 12.522 12.918 18.29 19.855 7.973 9.592 17.131 18.336 26.268 26.801 16.272 15.074 34.003 28.107 54.667 36.447 19.693 7.948 41.419 10.098 62.276 6.356z" fill="#ff9780"/><path d="m391.268 815.008c-6.373-11.791-12.301-23.752-19.619-35.006-5.904-9.082-13.403-17.156-20.479-25.313-18.455-21.271-31.336-42.793-28.573-71.902 1.944-20.494 10.69-40.152 21.099-58.145-24.016 26.941-35.269 79.709-18.618 107.064 9.993 16.414 25.786 29.279 37.561 44.49 12.14 15.682 17.896 34.688 29.57 50.494 6.963 9.424 15.131 17.66 24.081 24.934-9.285-11.401-17.838-23.329-25.022-36.616z" fill="#ff9780"/><path d="m103.348 628.063c.455.59.868 1.189 1.296 1.789-.621-2.51-1.096-5.045-1.294-7.623-1.365-17.895 5.927-35.137 2.541-53.117-1.372-7.275-5.241-14.238-9.4-20.236-2.674-3.857-5.227-7.539-7.043-11.912-3.231-7.781 2.886-14.355 8.168-19.111 9.081-8.178 19.58-14.568 29.988-21.062-3.361 1.644-6.716 3.308-10.059 4.978-12.831 6.408-29.546 12.17-39.69 22.666-16.551 17.121 10.161 31.994 14.966 47.783 6.064 19.925-3.563 37.587 10.527 55.845z" fill="#ff9780"/><path d="m516.688 298.069c-5.889-22.512-1.688-54.867 17.698-69.777 11.578-8.904 22.747-7.906 34.055.209 4.457 3.197 8.806 6.018 13.458 8.193-2.382-2.438-4.702-4.971-6.9-7.725-10.637-13.32-23.525-22.854-40.35-11.713-9.602 6.357-17.515 14.574-22.725 24.982-23.776 47.498-1.169 113.816 53.933 113.623 13.058-.049 29.659-.199 44.645 3.434-13.358-6.463-31.141-6.791-44.834-10.705-25.266-7.224-42.341-25.131-48.98-50.521z" fill="#ff9780"/><path d="m719.992 596.297c-7.53-11.041-17.402-20.463-26.608-30.066-10.826-11.295-21.878-21.938-34.008-31.844-9.826-8.029-19.591-16.516-30.229-23.461-12.251-7.998-27.958-12.432-41.698-17.074-21.402-7.23-43.418-10.803-65.979-9.561-45.413 2.506-90.311 24.91-118.009 61.277-15.214 19.973-25.013 42.883-26.537 67.953 2.635-10.219 6.198-20.41 10.765-30.494 23.688-48.475 70.387-89.603 126.148-93.087 89.314-5.578 180.721 57.771 215.189 138.531 8.22 19.258 13.028 40.547 14.271 62.164 1.097-12.047 1.63-24.314.245-36.357-.471-4.105-1.288-8.105-2.224-12.064-.768-2.023-1.512-4.02-2.176-5.977-4.757-14.048-10.774-27.661-19.15-39.94z" fill="#ff9780"/><path d="m752.321 309.999c3.243-24.635-1.261-52.236 5.95-76.322-5.199 9.68-8.956 19.258-10.949 29.078-7.694 37.9 2.837 41.588-5.786 66.168-3.912 11.152-11.642 22.227-21.6 29.662 18.807-8.797 29.654-27.823 32.385-48.586z" fill="#ff9780"/><path d="m785.15 381.799c13.275 9.16 27.38 18.504 38.421 30.461-4.146-7.986-11.173-14.148-17.854-20.139-8.261-7.408-15.829-15.646-25.56-21.168-17.651-10.016-37.986 5.33-49.931 17.684-12.152 12.572-21.361 27.996-30.278 42.922-4.609 7.719-9.057 15.545-13.128 23.561-.728 1.432-1.464 2.904-2.153 4.398 17.118-27.857 37.951-53.139 63.899-74.096 12.256-9.896 22.979-13.007 36.584-3.623z" fill="#ff9780"/><path d="m371.8 110.489c2.065 12.645.2 26.113 2.199 38.785 2.432 15.408 7.041 29.936 14.22 43.779 6.722 12.961 16.102 24.563 27.402 33.779 7.79 6.352 17.731 9.475 27.597 11.428-33.56-15.658-55.248-59.508-59.171-70.457-5.253-14.672-5.761-30.469-8.765-45.533-1.071-5.377-2.211-9.295-3.482-11.781z" fill="#ff9780"/><path d="m324.161 200.182c-9.081-12.963-16.978-26.742-22.715-41.529-1.177-3.031-9.388-28.338-16.488-37.729 6.485 16.422 11.301 33.416 17.521 49.979 6.558 17.465 16.37 33.121 28.441 47.281 22.557 26.453 51.996 43.215 84.644 52.678-40.195-16.363-76.319-49.153-91.403-70.68z" fill="#ff9780"/><path d="m485.134 427.223c11.025 10.396 27.133 26.443 31.128 42.193.742-.023 1.48-.086 2.226-.1 9.01-.188 7.722-2.764 4.029-9.152-17.212-29.773-42.566-50.865-74.303-66.439-21.361-10.486-41.577-15.555-62.49-17.9 17.959 4.465 35.743 11.092 52.53 18.664 17.484 7.886 32.985 19.631 46.88 32.734z" fill="#ff9780"/><path d="m920.464 515.523c-2.88-7-7.687-12.211-13.479-16.521 2.304 5.229 2.992 10.637-.727 15.033-4.546 5.369-15.298 5.818-21.687 6.621-18.299 2.295-36.202 5.471-53.873 10.859-12.286 3.748-24.027 9.42-31.873 19.895-7.129 9.518-6.936 22.658-3.015 33.533 2.098-20.041 29.486-40.105 44.991-47.23 13.318-6.121 27.289-10.576 41.972-11.893 4.573-.408 40.963-2.34 37.691-10.297z" fill="#ff9780"/><g fill="#68182b"><path d="m520.137 295.911c-3.28-15.352-.995-29.025 1.773-44.148.062-.342-.34-.498-.541-.229-9.067 12.15-8.603 30.85-6.835 45.135 1.843 14.893 7.98 31.209 21.378 38.996.761.443 1.744-.461 1.238-1.238-7.784-11.977-14.01-24.471-17.013-38.516z"/><path d="m540.186 337.567c-.361-.08-.711.229-.606.607 1.072 3.873 6.124 6.232 9.954 6.105.313-.012.586-.379.382-.67-2.169-3.095-6.122-5.253-9.73-6.042z"/><path d="m743.18 410.485c-14.137 9.922-25.422 26.453-35.266 40.512-11.096 15.842-19.78 33.191-26.813 51.171-.27.688.777 1.053 1.142.48 9.847-15.433 18.543-31.58 28.55-46.91 10.018-15.342 24.172-28.822 32.749-44.895.115-.218-.132-.522-.362-.358z"/><path d="m752.669 400.788c-2.415.449-3.949 2.061-5.408 4.018-.268.357-1.984 2.65-.87 3.049 1.273.451 2.731-1.004 3.633-1.727 1.681-1.346 2.824-2.678 3.213-4.771.068-.364-.207-.636-.568-.569z"/><path d="m584.557 718.178c-2.298 1.357-4.211 3.322-5.885 5.453-2.882 3.668-1.689 5.053 2.596 4.268 2.659-.488 5.28-1.268 7.547-2.664 5.674-3.499 1.48-10.448-4.258-7.057z"/><path d="m608.174 752.828c-1.52-2.193-3.618-3.961-5.864-5.477-3.864-2.609-5.158-1.32-4.068 2.896.679 2.619 1.646 5.176 3.203 7.336 3.897 5.407 10.527.724 6.729-4.755z"/><path d="m567.669 754.379c-2.244 1.512-4.334 3.273-5.853 5.461-3.803 5.473 2.818 10.17 6.723 4.766 1.563-2.164 2.532-4.729 3.215-7.354 1.175-4.514-.471-5.303-4.085-2.873z"/><path d="m549.699 730.311c-2.339-1.359-4.838-2.471-7.467-2.883-6.586-1.031-7.921 6.975-1.355 8.127 2.631.463 5.36.217 8.021-.316 4.572-.911 4.566-2.739.801-4.928z"/><path d="m642.345 801.93c-3.668-2.885-5.053-1.691-4.269 2.596.489 2.656 1.27 5.277 2.666 7.545 3.496 5.676 10.447 1.48 7.055-4.258-1.358-2.297-3.321-4.209-5.452-5.883z"/><path d="m615.728 821.498c-2.618.68-5.176 1.646-7.335 3.201-5.408 3.9-.725 10.527 4.756 6.73 2.192-1.518 3.959-3.615 5.476-5.861 2.608-3.867 1.319-5.16-2.897-4.07z"/><path d="m611.597 790.924c-1.512-2.242-3.274-4.332-5.461-5.85-5.474-3.805-10.169 2.818-4.766 6.723 2.164 1.563 4.729 2.529 7.354 3.213 4.512 1.176 5.302-.469 2.873-4.086z"/><path d="m630.42 764.135c-.463 2.629-.216 5.359.317 8.018.911 4.574 2.737 4.566 4.928.803 1.36-2.338 2.471-4.838 2.882-7.467 1.033-6.587-6.973-7.921-8.127-1.354z"/><path d="m520.378 799.549c-2.658.49-5.278 1.27-7.545 2.666-5.678 3.496-1.481 10.447 4.258 7.055 2.295-1.357 4.208-3.32 5.883-5.453 2.883-3.667 1.69-5.051-2.596-4.268z"/><path d="m500.203 769.865c-3.9-5.408-10.527-.725-6.73 4.756 1.519 2.193 3.616 3.959 5.862 5.475 3.867 2.611 5.159 1.322 4.068-2.895-.678-2.619-1.645-5.176-3.2-7.336z"/><path d="m533.106 762.844c-1.563 2.162-2.53 4.729-3.214 7.354-1.176 4.512.47 5.303 4.086 2.873 2.242-1.512 4.332-3.275 5.85-5.461 3.806-5.475-2.818-10.171-6.722-4.766z"/><path d="m560.768 791.893c-2.629-.463-5.36-.215-8.018.316-4.575.912-4.566 2.738-.803 4.93 2.337 1.359 4.838 2.471 7.467 2.881 6.587 1.033 7.92-6.973 1.354-8.127z"/><path d="m620.841 705.021c-.489-2.656-1.269-5.277-2.666-7.545-3.496-5.676-10.447-1.48-7.055 4.258 1.357 2.297 3.321 4.209 5.453 5.883 3.667 2.885 5.052 1.692 4.268-2.596z"/><path d="m645.77 678.117c-2.193 1.518-3.96 3.615-5.476 5.861-2.61 3.867-1.321 5.16 2.896 4.07 2.619-.68 5.176-1.646 7.335-3.201 5.408-3.9.724-10.527-4.755-6.73z"/><path d="m637.397 580.1c2.618-.68 5.175-1.646 7.335-3.201 5.407-3.9.724-10.527-4.756-6.73-2.192 1.52-3.959 3.617-5.476 5.863-2.609 3.866-1.319 5.157 2.897 4.068z"/><path d="m657.547 717.75c-2.164-1.563-4.729-2.529-7.354-3.213-4.513-1.176-5.303.469-2.873 4.086 1.512 2.242 3.274 4.332 5.461 5.85 5.474 3.804 10.17-2.819 4.766-6.723z"/><path d="m437.898 727.711c-2.164-1.564-4.729-2.531-7.354-3.213-4.514-1.178-5.303.469-2.874 4.084 1.512 2.242 3.274 4.332 5.461 5.85 5.474 3.806 10.171-2.819 4.767-6.721z"/><path d="m623.778 732.379c-1.359 2.338-2.471 4.838-2.882 7.467-1.032 6.586 6.973 7.92 8.127 1.354.463-2.629.216-5.359-.316-8.018-.911-4.575-2.738-4.567-4.929-.803z"/><path d="m573.249 813.674c-1.359 2.338-2.47 4.838-2.882 7.467-1.032 6.586 6.974 7.92 8.127 1.354.463-2.629.217-5.359-.316-8.018-.911-4.575-2.738-4.567-4.929-.803z"/><path d="m498.722 697.82c-2.295 1.357-4.208 3.322-5.883 5.453-2.884 3.668-1.69 5.053 2.597 4.268 2.657-.488 5.277-1.268 7.544-2.666 5.677-3.496 1.481-10.445-4.258-7.055z"/><path d="m462.915 762.063c-2.296 1.357-4.209 3.322-5.883 5.453-2.884 3.668-1.691 5.053 2.596 4.27 2.657-.49 5.278-1.27 7.545-2.666 5.677-3.499 1.48-10.448-4.258-7.057z"/><path d="m512.409 729.891c.679 2.619 1.646 5.176 3.2 7.334 3.9 5.408 10.527.725 6.73-4.754-1.518-2.193-3.616-3.961-5.862-5.477-3.867-2.609-5.159-1.32-4.068 2.897z"/><path d="m438.592 681.338c-2.339-1.359-4.839-2.471-7.467-2.881-6.587-1.033-7.922 6.973-1.355 8.127 2.631.463 5.36.215 8.02-.316 4.571-.913 4.565-2.739.802-4.93z"/><path d="m405.369 678.023c-3.866-2.611-5.158-1.322-4.068 2.895.679 2.619 1.646 5.176 3.201 7.336 3.899 5.408 10.527.725 6.729-4.756-1.517-2.193-3.615-3.959-5.862-5.475z"/><path d="m481.835 734.021c-2.242 1.512-4.332 3.273-5.851 5.461-3.805 5.473 2.818 10.17 6.723 4.766 1.563-2.164 2.529-4.729 3.213-7.354 1.177-4.513-.47-5.302-4.085-2.873z"/><path d="m463.063 714.881c4.575-.91 4.566-2.738.803-4.928-2.337-1.359-4.838-2.471-7.467-2.883-6.587-1.031-7.919 6.973-1.354 8.127 2.629.463 5.36.217 8.018-.316z"/><path d="m624.574 613.041c-2.296 1.357-4.208 3.322-5.883 5.453-2.884 3.668-1.69 5.053 2.596 4.268 2.658-.488 5.278-1.268 7.545-2.664 5.678-3.498 1.481-10.448-4.258-7.057z"/><path d="m614.969 557.467c2.657-.49 5.277-1.27 7.545-2.666 5.677-3.496 1.48-10.447-4.258-7.055-2.296 1.357-4.209 3.322-5.884 5.453-2.884 3.668-1.69 5.051 2.597 4.268z"/><path d="m642.33 642.215c-3.867-2.609-5.159-1.32-4.068 2.896.679 2.619 1.646 5.176 3.2 7.336 3.9 5.406 10.527.723 6.73-4.756-1.518-2.193-3.616-3.961-5.862-5.476z"/><path d="m601.837 654.703c-3.806 5.473 2.818 10.17 6.722 4.766 1.563-2.164 2.53-4.729 3.213-7.354 1.177-4.514-.469-5.303-4.085-2.873-2.243 1.512-4.333 3.274-5.85 5.461z"/><path d="m664.903 607.338c1.563-2.164 2.529-4.729 3.213-7.354 1.176-4.514-.47-5.303-4.086-2.873-2.241 1.512-4.331 3.273-5.85 5.461-3.805 5.473 2.819 10.17 6.723 4.766z"/><path d="m593.93 612.535c-2.337-1.359-4.838-2.471-7.467-2.881-6.586-1.033-7.919 6.973-1.354 8.127 2.629.463 5.36.215 8.019-.316 4.574-.912 4.566-2.738.802-4.93z"/><path d="m417.055 606.025c-.489-2.658-1.269-5.277-2.665-7.545-3.497-5.678-10.447-1.48-7.056 4.258 1.357 2.295 3.322 4.209 5.453 5.883 3.667 2.885 5.052 1.692 4.268-2.596z"/><path d="m439.404 589.051c2.618-.678 5.175-1.645 7.335-3.199 5.407-3.9.724-10.527-4.756-6.73-2.193 1.518-3.96 3.615-5.476 5.861-2.61 3.867-1.319 5.16 2.897 4.068z"/><path d="m443.534 619.625c1.512 2.242 3.274 4.332 5.461 5.852 5.474 3.805 10.17-2.818 4.767-6.723-2.164-1.564-4.729-2.529-7.354-3.213-4.513-1.178-5.304.469-2.874 4.084z"/><path d="m419.466 637.596c-1.359 2.336-2.471 4.838-2.882 7.467-1.032 6.586 6.973 7.918 8.127 1.354.463-2.629.216-5.361-.316-8.018-.912-4.577-2.739-4.567-4.929-.803z"/><path d="m579.161 546.936c2.657-.49 5.278-1.27 7.545-2.666 5.677-3.496 1.48-10.447-4.258-7.055-2.296 1.357-4.209 3.322-5.883 5.453-2.883 3.666-1.691 5.051 2.596 4.268z"/><path d="m599.336 576.619c3.899 5.408 10.527.725 6.73-4.756-1.519-2.193-3.616-3.959-5.862-5.475-3.867-2.611-5.159-1.32-4.069 2.895.678 2.619 1.645 5.176 3.201 7.336z"/><path d="m566.433 583.643c1.563-2.164 2.53-4.73 3.213-7.355 1.177-4.512-.469-5.303-4.085-2.873-2.242 1.512-4.332 3.275-5.85 5.461-3.806 5.474 2.817 10.169 6.722 4.767z"/><path d="m538.771 554.592c2.629.463 5.36.215 8.019-.316 4.574-.912 4.566-2.738.802-4.93-2.337-1.359-4.838-2.471-7.467-2.881-6.587-1.033-7.92 6.973-1.354 8.127z"/><path d="m698.337 760.684c-3.668-2.885-5.053-1.691-4.269 2.596.489 2.656 1.27 5.277 2.666 7.545 3.496 5.678 10.447 1.48 7.055-4.258-1.357-2.297-3.321-4.21-5.452-5.883z"/><path d="m708.868 703.285c-3.668-2.883-5.052-1.689-4.269 2.596.49 2.658 1.27 5.279 2.666 7.545 3.497 5.678 10.447 1.482 7.056-4.258-1.357-2.295-3.322-4.207-5.453-5.883z"/><path d="m703.58 656.029c3.496 5.678 10.447 1.48 7.055-4.258-1.357-2.295-3.321-4.209-5.453-5.883-3.667-2.883-5.052-1.691-4.268 2.596.489 2.659 1.269 5.28 2.666 7.545z"/><path d="m671.72 780.252c-2.618.68-5.176 1.646-7.335 3.201-5.408 3.9-.725 10.527 4.756 6.73 2.192-1.518 3.959-3.615 5.476-5.861 2.609-3.867 1.32-5.16-2.897-4.07z"/><path d="m667.589 749.678c-1.512-2.242-3.274-4.332-5.461-5.85-5.474-3.805-10.17 2.818-4.766 6.723 2.164 1.563 4.729 2.529 7.354 3.213 4.513 1.175 5.303-.469 2.873-4.086z"/><path d="m692.958 677.217c-1.513-2.242-3.275-4.332-5.462-5.85-5.474-3.807-10.169 2.816-4.766 6.721 2.164 1.564 4.729 2.531 7.354 3.213 4.513 1.178 5.303-.469 2.874-4.084z"/><path d="m686.412 722.889c-.463 2.629-.216 5.361.317 8.018.911 4.574 2.737 4.566 4.928.803 1.36-2.336 2.471-4.838 2.882-7.467 1.033-6.587-6.973-7.921-8.127-1.354z"/><path d="m674.827 634.949c-.462 2.629-.216 5.361.317 8.02.911 4.574 2.737 4.566 4.929.801 1.359-2.336 2.47-4.838 2.882-7.467 1.032-6.586-6.974-7.918-8.128-1.354z"/><path d="m547.247 616.537c-3.667-2.881-5.052-1.688-4.268 2.596.489 2.66 1.269 5.281 2.666 7.549 3.496 5.672 10.447 1.48 7.055-4.258-1.357-2.301-3.321-4.213-5.453-5.887z"/><path d="m518.051 646.041c2.193-1.521 3.96-3.621 5.476-5.867 2.61-3.861 1.321-5.158-2.896-4.068-2.619.68-5.176 1.646-7.335 3.205-5.408 3.896-.725 10.527 4.755 6.73z"/><path d="m506.273 606.404c2.164 1.563 4.729 2.533 7.354 3.217 4.513 1.172 5.303-.473 2.873-4.086-1.512-2.246-3.274-4.336-5.461-5.854-5.474-3.8-10.17 2.819-4.766 6.723z"/><path d="m535.323 578.742c-.463 2.633-.216 5.359.317 8.021.911 4.57 2.737 4.566 4.928.803 1.36-2.342 2.471-4.838 2.882-7.467 1.033-6.585-6.972-7.923-8.127-1.357z"/><path d="m466.354 675.941c-2.657.488-5.277 1.271-7.545 2.666-5.677 3.496-1.48 10.449 4.259 7.055 2.295-1.357 4.208-3.32 5.883-5.451 2.883-3.67 1.69-5.051-2.597-4.27z"/><path d="m446.18 646.26c-3.9-5.41-10.527-.725-6.73 4.756 1.518 2.191 3.616 3.957 5.862 5.475 3.867 2.607 5.158 1.32 4.068-2.896-.679-2.62-1.646-5.177-3.2-7.335z"/><path d="m479.082 639.236c-1.563 2.164-2.529 4.727-3.213 7.352-1.177 4.514.469 5.303 4.085 2.875 2.242-1.514 4.332-3.273 5.851-5.463 3.804-5.471-2.819-10.168-6.723-4.764z"/><path d="m506.744 668.285c-2.629-.461-5.36-.215-8.018.316-4.575.914-4.566 2.74-.803 4.928 2.337 1.363 4.838 2.473 7.467 2.885 6.587 1.033 7.92-6.973 1.354-8.129z"/><path d="m467.062 560.838c3.668 2.885 5.052 1.691 4.269-2.596-.49-2.658-1.27-5.277-2.666-7.545-3.497-5.678-10.447-1.48-7.056 4.258 1.357 2.297 3.322 4.209 5.453 5.883z"/><path d="m501.014 538.068c5.407-3.9.724-10.527-4.756-6.73-2.192 1.518-3.96 3.615-5.476 5.861-2.61 3.867-1.32 5.16 2.896 4.068 2.619-.677 5.176-1.644 7.336-3.199z"/><path d="m497.809 571.844c1.512 2.242 3.274 4.332 5.461 5.85 5.474 3.805 10.17-2.818 4.767-6.723-2.164-1.563-4.729-2.529-7.354-3.213-4.514-1.176-5.303.469-2.874 4.086z"/><path d="m478.985 598.633c.463-2.629.216-5.361-.316-8.018-.911-4.574-2.738-4.566-4.929-.803-1.359 2.336-2.47 4.838-2.882 7.467-1.032 6.586 6.974 7.92 8.127 1.354z"/><path d="m563.261 654.438c-2.884 3.67-1.69 5.053 2.596 4.27 2.658-.488 5.278-1.27 7.545-2.666 5.678-3.496 1.481-10.449-4.258-7.055-2.295 1.357-4.208 3.32-5.883 5.451z"/><path d="m586.899 678.158c-3.867-2.607-5.159-1.32-4.068 2.896.679 2.621 1.646 5.176 3.2 7.334 3.9 5.41 10.527.725 6.73-4.754-1.518-2.193-3.615-3.958-5.862-5.476z"/><path d="m685.555 617.828c3.899 5.41 10.527.725 6.73-4.756-1.519-2.193-3.616-3.957-5.862-5.475-3.867-2.609-5.159-1.322-4.069 2.895.679 2.621 1.646 5.176 3.201 7.336z"/><path d="m546.406 690.648c-3.806 5.471 2.818 10.17 6.722 4.764 1.563-2.164 2.53-4.727 3.213-7.352 1.177-4.514-.469-5.303-4.085-2.875-2.242 1.514-4.332 3.274-5.85 5.463z"/><path d="m547.336 532.172c1.563-2.162 2.53-4.727 3.213-7.352 1.177-4.512-.469-5.303-4.085-2.875-2.242 1.514-4.332 3.275-5.85 5.463-3.805 5.473 2.818 10.17 6.722 4.764z"/><path d="m534.287 661.119c-2.337-1.363-4.838-2.473-7.467-2.885-6.587-1.033-7.92 6.973-1.354 8.129 2.629.461 5.36.215 8.018-.316 4.576-.914 4.567-2.74.803-4.928z"/><path d="m346.792 581.463c-2.339-1.359-4.838-2.471-7.467-2.881-6.587-1.033-7.922 6.973-1.355 8.127 2.631.463 5.36.215 8.02-.316 4.573-.913 4.566-2.739.802-4.93z"/><path d="m301.556 647.283c-.679-2.619-1.646-5.176-3.201-7.334-3.899-5.408-10.527-.725-6.73 4.754 1.519 2.193 3.616 3.961 5.862 5.477 3.867 2.609 5.159 1.32 4.069-2.897z"/><path d="m457.67 453.758c-2.193 1.518-3.96 3.615-5.476 5.861-2.61 3.867-1.321 5.16 2.896 4.07 2.619-.68 5.176-1.646 7.335-3.201 5.408-3.9.724-10.527-4.755-6.73z"/><path d="m244.487 605.139c-4.513-1.176-5.303.469-2.873 4.086 1.512 2.242 3.274 4.332 5.461 5.85 5.474 3.805 10.17-2.818 4.766-6.723-2.164-1.563-4.729-2.53-7.354-3.213z"/><path d="m305.645 572.848c-2.296 1.357-4.208 3.32-5.883 5.451-2.884 3.668-1.69 5.053 2.596 4.27 2.658-.49 5.278-1.27 7.545-2.666 5.677-3.497 1.481-10.448-4.258-7.055z"/><path d="m272.166 641.191c2.657-.49 5.278-1.27 7.545-2.666 5.677-3.498 1.48-10.447-4.258-7.057-2.296 1.359-4.209 3.322-5.883 5.453-2.883 3.669-1.691 5.054 2.596 4.27z"/><path d="m319.188 595.699c-3.867-2.609-5.159-1.32-4.068 2.896.679 2.619 1.646 5.176 3.2 7.336 3.9 5.406 10.527.723 6.73-4.756-1.518-2.193-3.616-3.96-5.862-5.476z"/><path d="m243.712 567.225c2.631.463 5.36.217 8.021-.316 4.572-.91 4.566-2.738.802-4.928-2.339-1.359-4.838-2.471-7.467-2.883-6.587-1.032-7.922 6.972-1.356 8.127z"/><path d="m225.175 564.141c-1.518-2.193-3.616-3.961-5.862-5.477-3.867-2.609-5.159-1.32-4.068 2.896.679 2.619 1.646 5.176 3.2 7.334 3.9 5.409 10.527.725 6.73-4.753z"/><path d="m293.671 606.236c-2.242 1.514-4.332 3.275-5.85 5.463-3.806 5.473 2.818 10.168 6.722 4.766 1.563-2.164 2.53-4.729 3.213-7.354 1.177-4.513-.469-5.302-4.085-2.875z"/><path d="m277.006 595.523c4.574-.912 4.566-2.738.802-4.93-2.336-1.359-4.838-2.471-7.467-2.881-6.586-1.033-7.919 6.973-1.354 8.127 2.629.464 5.362.216 8.019-.316z"/><path d="m432.198 428.387c-2.296 1.357-4.208 3.322-5.883 5.453-2.884 3.668-1.69 5.053 2.596 4.27 2.658-.49 5.278-1.27 7.545-2.666 5.678-3.498 1.482-10.447-4.258-7.057z"/><path d="m407.873 493.178c-2.337-1.359-4.838-2.471-7.467-2.883-6.587-1.031-7.919 6.972-1.354 8.126 2.629.463 5.36.217 8.018-.316 4.576-.912 4.567-2.737.803-4.927z"/><path d="m226.729 489.264c3.668 2.883 5.052 1.689 4.269-2.598-.489-2.656-1.27-5.277-2.666-7.545-3.497-5.676-10.447-1.48-7.055 4.258 1.358 2.297 3.322 4.209 5.452 5.885z"/><path d="m253.347 469.694c2.618-.68 5.176-1.646 7.335-3.201 5.408-3.9.725-10.527-4.756-6.73-2.192 1.518-3.959 3.617-5.476 5.863-2.61 3.867-1.32 5.158 2.897 4.068z"/><path d="m257.478 500.268c1.512 2.242 3.274 4.332 5.461 5.85 5.474 3.805 10.169-2.818 4.766-6.723-2.164-1.563-4.729-2.529-7.354-3.212-4.513-1.177-5.303.468-2.873 4.085z"/><path d="m233.409 518.236c-1.36 2.338-2.471 4.838-2.882 7.467-1.033 6.586 6.973 7.92 8.127 1.354.463-2.629.216-5.359-.317-8.018-.911-4.574-2.737-4.566-4.928-.803z"/><path d="m396.391 417.856c-2.295 1.357-4.208 3.322-5.883 5.453-2.884 3.668-1.69 5.053 2.596 4.268 2.658-.488 5.278-1.268 7.545-2.664 5.677-3.498 1.481-10.448-4.258-7.057z"/><path d="m414.146 447.03c-3.867-2.609-5.159-1.32-4.068 2.896.679 2.619 1.646 5.176 3.2 7.336 3.9 5.406 10.527.723 6.73-4.756-1.517-2.193-3.615-3.961-5.862-5.476z"/><path d="m380.376 464.284c1.563-2.164 2.529-4.729 3.213-7.354 1.176-4.514-.47-5.303-4.085-2.873-2.242 1.512-4.332 3.273-5.851 5.461-3.805 5.473 2.819 10.17 6.723 4.766z"/><path d="m352.714 435.233c2.629.463 5.36.217 8.018-.316 4.575-.91 4.566-2.738.803-4.928-2.337-1.359-4.838-2.471-7.467-2.883-6.588-1.031-7.92 6.973-1.354 8.127z"/><path d="m366.644 503.064c-1.357-2.299-3.322-4.213-5.453-5.887-3.668-2.878-5.052-1.687-4.269 2.596.49 2.662 1.27 5.283 2.666 7.549 3.497 5.674 10.447 1.483 7.056-4.258z"/><path d="m337.47 520.816c2.61-3.863 1.32-5.158-2.896-4.068-2.618.678-5.175 1.645-7.335 3.205-5.407 3.895-.724 10.527 4.756 6.73 2.192-1.523 3.959-3.62 5.475-5.867z"/><path d="m320.216 487.045c2.164 1.564 4.729 2.535 7.354 3.217 4.514 1.174 5.303-.473 2.874-4.084-1.512-2.246-3.274-4.336-5.461-5.854-5.474-3.802-10.17 2.817-4.767 6.721z"/><path d="m349.267 459.383c-.463 2.633-.216 5.361.316 8.023.911 4.57 2.738 4.566 4.929.801 1.359-2.34 2.47-4.838 2.882-7.467 1.032-6.585-6.974-7.921-8.127-1.357z"/><path d="m277.01 566.303c2.296-1.357 4.209-3.318 5.883-5.449 2.884-3.67 1.691-5.053-2.596-4.271-2.657.49-5.278 1.271-7.545 2.666-5.677 3.497-1.481 10.448 4.258 7.054z"/><path d="m253.392 531.656c1.519 2.193 3.616 3.957 5.862 5.477 3.867 2.607 5.159 1.32 4.069-2.896-.679-2.621-1.646-5.176-3.201-7.336-3.899-5.411-10.527-.725-6.73 4.755z"/><path d="m289.813 527.23c-1.177 4.512.469 5.303 4.085 2.875 2.242-1.514 4.332-3.275 5.85-5.463 3.806-5.473-2.817-10.17-6.722-4.764-1.564 2.165-2.531 4.727-3.213 7.352z"/><path d="m312.669 549.244c-4.574.912-4.566 2.738-.802 4.928 2.336 1.361 4.838 2.473 7.467 2.883 6.586 1.033 7.919-6.973 1.354-8.129-2.629-.461-5.361-.213-8.019.318z"/><path d="m281.005 441.481c3.667 2.883 5.052 1.689 4.268-2.596-.489-2.658-1.269-5.279-2.666-7.545-3.496-5.678-10.447-1.482-7.055 4.258 1.357 2.295 3.321 4.207 5.453 5.883z"/><path d="m307.621 421.911c2.619-.68 5.176-1.646 7.335-3.201 5.408-3.9.725-10.527-4.755-6.73-2.193 1.52-3.96 3.617-5.476 5.863-2.61 3.866-1.321 5.157 2.896 4.068z"/><path d="m311.752 452.485c1.512 2.242 3.274 4.332 5.461 5.85 5.474 3.807 10.17-2.818 4.766-6.721-2.163-1.564-4.729-2.531-7.354-3.213-4.513-1.178-5.303.469-2.873 4.084z"/><path d="m292.929 479.274c.463-2.629.216-5.359-.317-8.018-.911-4.574-2.737-4.566-4.928-.803-1.36 2.338-2.471 4.838-2.882 7.467-1.033 6.588 6.972 7.92 8.127 1.354z"/><path d="m380.279 520.5c-2.296 1.357-4.209 3.32-5.883 5.451-2.885 3.668-1.691 5.051 2.596 4.27 2.657-.49 5.278-1.271 7.545-2.666 5.677-3.496 1.481-10.45-4.258-7.055z"/><path d="m364.354 554.291c-2.242 1.514-4.332 3.275-5.851 5.463-3.806 5.473 2.818 10.17 6.723 4.764 1.563-2.164 2.529-4.727 3.213-7.352 1.176-4.512-.469-5.303-4.085-2.875z"/><path d="m361.279 412.815c1.563-2.164 2.529-4.727 3.213-7.352 1.176-4.514-.47-5.303-4.085-2.875-2.242 1.514-4.332 3.273-5.851 5.463-3.805 5.471 2.819 10.17 6.723 4.764z"/><path d="m348.229 541.76c-2.337-1.361-4.838-2.473-7.467-2.883-6.586-1.033-7.919 6.973-1.354 8.129 2.629.461 5.36.213 8.019-.316 4.575-.915 4.567-2.741.802-4.93z"/><path d="m268.564 669.867c-2.193 1.518-3.96 3.615-5.476 5.861-2.61 3.867-1.321 5.16 2.896 4.068 2.619-.678 5.176-1.645 7.335-3.199 5.409-3.9.725-10.527-4.755-6.73z"/><path d="m254.122 691.201c-2.295 1.357-4.208 3.322-5.883 5.453-2.884 3.668-1.69 5.053 2.596 4.268 2.658-.488 5.278-1.268 7.545-2.666 5.678-3.496 1.481-10.447-4.258-7.055z"/><path d="m246.843 647.443c-2.296 1.357-4.209 3.322-5.883 5.453-2.884 3.668-1.691 5.053 2.596 4.27 2.657-.49 5.278-1.27 7.545-2.666 5.676-3.498 1.481-10.447-4.258-7.057z"/><path d="m275.831 720.85c-3.867-2.609-5.158-1.32-4.068 2.896.679 2.619 1.646 5.176 3.2 7.336 3.9 5.406 10.527.723 6.73-4.756-1.517-2.193-3.616-3.961-5.862-5.476z"/><path d="m288.405 689.084c-2.242 1.512-4.332 3.275-5.85 5.463-3.806 5.473 2.817 10.168 6.722 4.766 1.563-2.164 2.53-4.73 3.213-7.354 1.177-4.514-.469-5.303-4.085-2.875z"/><path d="m212.44 629.893c-2.296 1.357-4.209 3.322-5.883 5.453-2.884 3.666-1.691 5.051 2.596 4.268 2.657-.49 5.278-1.27 7.545-2.666 5.677-3.497 1.481-10.448-4.258-7.055z"/><path d="m228.791 666.086c-3.867-2.609-5.159-1.32-4.068 2.896.679 2.619 1.646 5.176 3.2 7.334 3.9 5.408 10.527.725 6.73-4.754-1.518-2.193-3.616-3.96-5.862-5.476z"/><path d="m210.89 538.475c1.563-2.164 2.529-4.729 3.213-7.354 1.177-4.512-.47-5.303-4.085-2.873-2.242 1.512-4.332 3.275-5.851 5.461-3.805 5.475 2.818 10.17 6.723 4.766z"/><path d="m207.902 605.24c2.658-.49 5.278-1.27 7.545-2.666 5.678-3.498 1.481-10.447-4.258-7.057-2.295 1.359-4.208 3.322-5.883 5.453-2.883 3.669-1.69 5.053 2.596 4.27z"/><path d="m298.653 736.189c-.463 2.629-.216 5.359.316 8.018.911 4.574 2.738 4.566 4.929.803 1.359-2.338 2.471-4.838 2.882-7.467 1.033-6.588-6.973-7.92-8.127-1.354z"/><path d="m428.05 472.793c-3.867-2.609-5.159-1.32-4.069 2.896.679 2.619 1.646 5.174 3.201 7.334 3.899 5.41 10.527.725 6.73-4.756-1.518-2.19-3.616-3.956-5.862-5.474z"/><path d="m301.722 227.872c-9.559-17.834-14.713-36.588-22.021-55.258-.121-.309-.629-.295-.615.084.741 18.883 8.882 37.656 16.763 54.574 8.445 18.127 19.387 36.035 33.694 50.096.481.473 1.197-.125.905-.697-8.576-16.848-19.793-32.129-28.726-48.799z"/><path d="m333.701 280.581c-.519-.49-1.443-.162-1.432.592.06 3.596 3.871 6.859 7.026 7.848.429.133.762-.359.558-.725-.783-1.414-1.569-2.529-2.719-3.676-1.258-1.252-2.149-2.832-3.433-4.039z"/></g></g></g></svg>