<svg id="Fruit" height="512" viewBox="0 0 992.13 992.13" width="512" xmlns="http://www.w3.org/2000/svg"><g><path d="m876.051 305.875c-9.271-13.07-20.621-23.305-29.277-30.059-24.295-18.955-57.934-29.826-92.295-29.826-26.635 0-51.098 6.459-70.986 18.494-11.072-33.568-45.053-60.438-75.324-68.389-4.77-1.252-9.77-1.887-14.863-1.887-33.795 0-65.832 27.375-81.918 50.799-7.407 2.646-14.345 5.76-20.769 9.32-7.225-2.385-15.605-3.561-25.254-3.561-7.316 0-14.367.645-20.033 1.16-1.775.162-3.451.316-4.994.434-27.039 2.059-49.352 9.357-66.574 21.754-7.377-1.891-15.443-2.846-24.133-2.846-24.85 0-52.268 8.131-69.852 20.715-10.18 7.285-18.488 15.977-24.5 25.555-1.689-.113-3.379-.172-5.064-.172-45.607 0-80.641 39.648-90.333 81.125-4.656 1.836-9.053 4.359-13.166 7.553-10.782 8.379-18.747 20.906-25.773 31.961-2.567 4.037-4.99 7.852-7.104 10.732-1.638 2.23-3.188 4.496-4.646 6.781-17.107 5.939-35.327 14.891-49.876 32.119-21.715 25.713-16.947 58.443-14.384 76.027 7.517 51.58 36.001 99.951 82.373 139.885 67.594 58.213 172.49 94.373 273.75 94.373h.01c5.955 0 11.939-.127 17.787-.381 52.098-2.254 98.532-23.758 140.948-46.656 8.479-4.578 16.891-9.207 25.283-13.824 44.477-24.473 86.488-47.586 133.754-60.934 9.457-2.67 19.131-5.008 29.371-7.48 37.51-9.057 76.297-18.422 108.871-45.281 34.729-28.633 61.48-71.363 79.514-127 7.256-22.389 11.596-47.625 12.553-72.982 1.215-32.164.51-65.619-22.059-90.145-12.225-13.281-29.361-22.46-51.037-27.364z" fill="#fff"/><g><path d="m861.459 327.423c-7.201-12.977-18.42-24.23-29.377-32.779-40.344-31.475-112.936-35.1-151.027 1.598-5.252-5.48-11.4-10.441-18.186-14.83.012-.355 0-.719-.055-1.1-4.146-27.828-34.387-54.203-60.713-61.117-27.838-7.313-62.867 23.24-75.021 45.818-12.986 3.805-25.081 9.326-35.255 16.838-11.666-10.494-35.781-6.732-49.676-5.676-23.225 1.768-46.99 8.102-63.568 25.193-23.461-12.639-64.801-4.348-84.904 10.037-10.029 7.178-18.084 16.395-22.34 26.961-2.047 5.068-2.453 6.063-7.26 4.758-43.313-11.771-81.506 34.125-82.956 75.574-6.695-.201-13.268 1.166-19.755 6.205-10.888 8.459-19.944 26.615-28.278 37.969-3.073 4.186-5.684 8.395-7.829 12.545-18.202 5.525-35.183 12.811-47.696 27.629-13.747 16.279-11.873 37.436-8.997 57.174 7.357 50.488 36.243 92.438 74.325 125.232 71.905 61.922 181.192 92.285 274.929 88.229 46.828-2.027 90.015-21.883 130.636-43.814 53.619-28.951 104.701-60.01 163.895-76.725 43.973-12.416 92.977-18.059 129.537-48.203 35.682-29.42 57.918-72.527 71.988-115.938 6.73-20.768 10.547-43.746 11.406-66.518 1.182-31.324-.26-56.223-15.764-73.07-11.598-12.597-29.022-19.113-48.059-21.99z" fill="#68182b"/><path d="m688.004 304.119c39.018-38.223 111.408-26.639 148.445 8.074 19.604 18.377 28.668 44.469 15.307 69.105-16.066 29.627-53.98 33.449-83.322 40.123-5.295 1.207-10.635 2.568-15.961 4.107-6.828 1.969-8.891 1.701-10.32-3.572-5.527-20.424-30.35-39.816-46.902-46.568-4.791-1.957-4.656-3.527-1.885-9.604 10.781-23.641 6.805-44.566-5.555-61.512.062-.054.13-.091.193-.153z" fill="#fac135"/><path d="m428.927 395.109c-14.496-3.496-30.41-4.693-45.869-2.926-7.16.818-8.631.926-9.865-5.51-4.381-22.863 16.256-42.211 34.611-52.549 19.957-11.236 45.797-14.68 68.193-14.711 20.316-.027 39.394 7.879 54.073 21.645 15.285 14.332 16.748 35.271 15.859 55.094-.348 7.74-2.471 11.002-7.711 16.516-4.127 4.34-7.879 9.547-11.193 15.715-3.438 6.402-1.842 6.66-8.295 6.15-8.029-.641-16.181-.711-24.282-.557-10.781-23.807-42.252-33.252-65.521-38.867z" fill="#fac135"/><path d="m483.761 521.689c-2.082 8.461-4.324 9.744-12.469 8.02-4.521-.959-9.143-1.65-13.912-1.963-14.891-.98-29.949 1.666-44.896 1.209-17.613-.541-32.908-11.535-48.771-17.971-7.814-3.17-15.639-3.746-23.369-2.768-12.164 1.539-12.77 4.861-18.594-5.545-4.176-7.475-5.096-12.684-2.271-20.803 1.879-5.398 4.072-10.689 6.199-16.092 1.568-3.984 2.496-8.174 3.225-12.418.133-.395.193-.811.207-1.24.922-5.672 1.551-11.418 2.848-16.922 8.127-34.434 59.973-35.072 86.908-31.316 28.074 3.914 62.047 15.77 69.422 45.922 5.488 22.444 1.158 48.792-4.527 71.887z" fill="#fac135"/><path d="m493.563 525.682c6.334-26.385 9.84-54.737 4.166-81.225 22.862-.225 43.624 1.975 63.724 14.719 20.811 13.193 31.754 36.758 33.832 60.545.77 8.773.791 6-4.924 12.156-1.848 1.988-3.545 4.016-5.104 5.74-13.904 15.43-34.391 15.037-53.016 11.09-11.209-2.377-21.734-6.305-32.255-10.135-7.78-2.836-8.503-4.24-6.423-12.89z" fill="#fac135"/><path d="m573.035 454.777c-8.57-7.445-18.098-12.32-28.174-15.469-5.873-1.84-10.084-4.072-5.184-11.686 5.994-9.32 13.822-16.881 24.844-21.512 17.027-7.154 37.516.021 54.084 5.023 30.131 9.096 44.865 30.352 50.17 58.525 1.779 9.438.74 13.188-2.613 21.674-7.066 17.875-13.744 37.059-37.822 32.59-5.121-.949-9.594-1.754-14.135-1.912-6.861-.244-8.008-.025-8.82-6.717-2.877-23.708-13.717-44.325-32.35-60.516z" fill="#fac135"/><path d="m627.268 402.82c-6.262-2.178-12.48-3.996-18.604-5.385 17.914-18.967 46.881-21.947 71.381-16.354 14.543 3.32 45.779 21.893 51.855 41.48 2.299 7.404-2.105 10.68-7.549 13.123-17.484 7.846-33.393 18.48-45.105 33.174-5.494-30.31-20.639-55.146-51.978-66.038z" fill="#fac135"/><path d="m608.99 232.576c16.295 6.971 34.43 23.992 41.232 41.658-8.502-4.221-17.598-7.666-26.9-10.219-22.742-6.24-53.125-7.939-81.404-2.568 15.123-20.131 43.723-38.86 67.072-28.871z" fill="#fac135"/><path d="m613.402 272.541c45.635 8.426 91.498 42.828 69.824 89.832-3.334 7.229-5.799 7.482-12.504 6.572-23.26-3.158-48.16 1.486-65.486 17.012-5.834 5.229-6.748 9.438-12.072 8.918-10.525-1.02-20.57-.404-29.803 2.354-6.449 1.922-7.004 1.217-6.918-4.588.316-21.736-3.189-41.479-18.926-59.029-14.512-16.184-35.909-22.705-57.165-24.189 22.919-41.441 93.046-44.271 133.05-36.882z" fill="#fac135"/><path d="m437.411 287.167c10.623-1.271 36.305-5.65 46.229 1.586-6.035 5.816-11.053 12.568-14.752 20.34-2.914.023-5.809.115-8.652.291-19.002 1.184-44.277 8.248-64.457 20.539-.348-9.498-3.52-16.764-8.627-22.123 13.501-13.166 31.867-18.433 50.259-20.633z" fill="#fac135"/><path d="m281.058 341.474c7.418-17.09 26.408-28.338 43.178-34.088 19.91-6.826 65.518-5.119 60.918 29.027-.043.313-.037.609-.033.906-18.148 14.428-28.814 34.133-20.174 58.447-9.977 2.857-19.418 7.156-27.732 13.162-5.914 4.27-9.842 10.006-12.615 16.371-3.637 8.346-4.225 11.635-9.086 3.82-4.77-7.676-9.447-15.414-13.982-23.24-10.201-17.604-29.64-43.284-20.474-64.405z" fill="#fac135"/><path d="m192.614 410.228c5.727-32.256 35.17-67.467 69.475-56.881 5.1 1.574 5.457 5.143 7.207 12.396 3.279 13.568 12.783 26.932 19.463 38.967 9.059 16.33 18.875 32.234 29.09 47.859-.588 3.488-1.254 6.965-2.326 10.406-.842 2.691-1.791 5.275-2.771 7.816-2.863 7.432-3.682 9.244-9.26.191-6.846-11.119-14.223-21.824-22.57-31.227-18.877-21.26-37.096-18.398-63.521-16.484-5.035.367-9.977-.238-14.84-1.115-8.785-1.578-11.404-3.719-9.947-11.928z" fill="#fac135"/><path d="m152.937 454.203c4.141-5.223 7.764-10.703 11.404-16.291 11.239-17.258 30.662-4.564 46.357-4.244 16.6.34 33.648-5.582 49.643 1.662 16.215 7.348 27.928 32.982 37.061 47.402 3.932 6.209 7.727 12.502 11.441 18.842 6.98 11.908 2.9 15.705-9.977 21.42-13.939 6.189-28.234 11.375-43.078 14.873-22.455 5.289-38.58-1.629-56.039-15.375-15.855-12.479-42.787-8.75-61.141-13.428-26.744-6.816 6.43-44.895 14.329-54.861z" fill="#fac135"/><path d="m912.623 442.175c-.941 6.84-2.059 13.576-3.219 20.104-8.59 48.327-33.703 98.381-70.254 131.331-38.256 34.484-95.002 38.953-142.295 53.063-54.977 16.404-103.814 46.705-153.717 74.102-44.632 24.502-89.968 42.434-141.321 42.771-52.729.346-105.787-12.299-154.885-30.803-54.33-20.475-105.12-52.914-138.983-100.822-16.772-23.727-26.281-50.887-29.842-79.555-1.026-8.258-.893-15.563.288-22.047 1.726-9.449 6.442-3.496 10.546 2.094 6.608 8.996 18.022 15.785 31.652 18.279 28.637 5.244 56.788 4.373 84.479 14.508 23.01 8.42 43.639 15.08 68.164 10.008 28.734-5.943 51.762-23.402 82.107-23.48 25.379-.064 49.725 12.492 73.266 20.428 21.578 7.273 41.693 6.188 63.998 6.865 11.711.355 23.716 1.279 35.132 3.93 11.266 2.611 21.32 12.141 30.758 18.359 38.129 25.131 70.932-11.07 101.33-30.893 40.871-26.652 95.721-.191 133.469-36.305 5.684-5.441 8.795-12.811 11.053-20.162 4.877-15.885 3.994-27.364 20.426-36.827 16.883-9.725 37.475-11.986 54.984-20.777 9.666-4.854 17.639-11.01 23.975-18.174 6.137-6.94 11.731-16.577 8.889 4.003z" fill="#aa8053"/><path d="m909.658 404.576c-7.129 25.881-29.42 42.752-58.508 51.855-13.709 4.287-30.244 7.951-41.271 17.869-14.773 13.289-10.994 28.399-18.861 45.247-19.041 40.781-90.623 22.02-125.273 35.824-16.932 6.748-31.08 20.482-45.775 30.916-22.672 16.098-42.443 15.73-64.918-.031-27.748-19.459-56.804-17.123-89.388-17.432-40.631-.383-75.457-27.719-116.736-27.613-20.822.053-40.34 9.928-59.223 17.492-26.68 10.691-48.965 8.42-75.439-1.268-21.301-7.791-39.977-11.691-62.498-13.322-15.503-1.123-53.238-6.643-59.355-23.289-5.63-15.316 13.331-27.346 27.925-32.657-3.848 15.993 2.759 29.284 27.261 33.491 12.429 2.133 24.976 2.293 37.28 5.307 11.327 2.775 18.757 14.186 29.638 18.33 23.414 8.914 46.479 3.336 69.287-4.898 11.51-4.154 22.709-9.301 33.846-14.346 21.869-9.906 38.789-7.803 59.668 2.691 26.611 13.377 51.166 9.592 80.064 9.535 45.1-.09 94.735 47.711 135.327 6.787 12.256-12.357 24.105-11.002 40.051-9.715 9.066.729 15.531-.424 23.113-5.297 18.027-11.586 20.609-41.866 33.82-57.909 35.105-42.627 97.543-36.037 143.035-58.588 21.793-10.803 36.293-34.133 36.486-58.172.047-5.697-.963-11.223-2.715-16.545 12.166 2.412 22.545 6.623 30.514 13.584 15.399 13.447 18.264 31.765 12.645 52.154z" fill="#fbf199"/><path d="m633.078 516.643c-23.121-.434-23.773-28.432-30.004-44.62-8.885-23.094-34.08-38.492-58.598-32.848.133.043.252.092.385.133 10.076 3.148 19.604 8.023 28.174 15.469 18.633 16.191 29.473 36.809 32.35 60.518.813 6.691 1.959 6.473 8.82 6.717 4.541.158 9.014.963 14.135 1.912 16.373 3.039 24.693-4.867 30.568-15.854-7.084 5.418-15.554 8.766-25.83 8.573z" fill="#ee9e2b"/><path d="m373.192 386.673c1.234 6.436 2.705 6.328 9.865 5.51 15.459-1.768 31.373-.57 45.869 2.926 23.27 5.615 54.74 15.061 65.521 38.867 8.102-.154 16.253-.084 24.282.557 6.453.51 4.857.252 8.295-6.15 3.314-6.168 7.066-11.375 11.193-15.715 5.24-5.514 7.363-8.775 7.711-16.516.346-7.689.322-15.543-.709-23.119.303 4.432.16 8.885-.908 13.469-2.641 11.342-12.799 20.668-22.277 26.549-21.313 13.223-38.974-4.313-56.239-15.166-14.377-9.035-29.969-15.486-47.066-16.223-11.139-.479-22.18 1.148-33.145-1.701-8.299-2.158-9.848-8.814-8.984-15.631-3.382 6.875-4.931 14.388-3.408 22.343z" fill="#ee9e2b"/><path d="m301.53 405.88c4.535 7.826 9.213 15.564 13.982 23.24 4.861 7.814 5.449 4.525 9.086-3.82 2.773-6.365 6.701-12.102 12.615-16.371 8.314-6.006 17.756-10.305 27.732-13.162-7.887-22.188.33-40.523 15.615-54.527-16.445 3.555-23.184 19.814-27.635 35.535-4.215 14.879-16.492 26.898-30.764 32.568-9.162 3.641-16.334.109-22.037-5.834.479.799.961 1.602 1.406 2.371z" fill="#ee9e2b"/><path d="m611.945 246.886c-21.48-2.139-45.344 2.859-64.643 13.711 26.711-4.207 54.709-2.428 76.02 3.418 9.303 2.553 18.398 5.998 26.9 10.219-3.035-7.887-8.338-15.635-14.719-22.43-7.597-2.631-15.608-4.129-23.558-4.918z" fill="#ee9e2b"/><path d="m537.518 333.611c15.736 17.551 19.242 37.293 18.926 59.029-.086 5.805.469 6.51 6.918 4.588 9.232-2.758 19.277-3.373 29.803-2.354 5.324.52 6.238-3.689 12.072-8.918 17.326-15.525 42.227-20.17 65.486-17.012 2.48.338 4.377.508 5.957.232-10.764-8.555-26.09-9.482-39.502-7.262-9.834 1.627-19.178 5.598-27.908 10.273-12.545 6.715-31.619 18.889-42.863 3.521-5.123-7-5.889-16.418-9.441-24.178-4.066-8.877-9.1-16.803-16.035-23.695-11.729-11.658-30.176-16.934-46.979-16.666 16.495 3.032 32.161 9.725 43.566 22.442z" fill="#ee9e2b"/><path d="m322.442 475.669c.084-.035.063-.18-.023-.195-.174-.027-.344-.063-.52-.09-.057.152-.109.305-.168.457.237-.062.477-.07.711-.172z" fill="#ee9e2b"/><path d="m298.866 522.994c12.877-5.715 16.957-9.512 9.977-21.42-3.715-6.34-7.51-12.633-11.441-18.842-.039-.063-.082-.135-.121-.197-.291 13.43-5.221 24.745-17.857 33.42-15.85 10.883-38.564 14.381-57.205 11.643-18.434-2.709-31.9-18.52-50.672-21.471-10.498-1.648-21.906-.313-32.366 3.066 18.338 4.463 44.875.945 60.569 13.299 17.459 13.746 33.584 20.664 56.039 15.375 14.843-3.498 29.138-8.683 43.077-14.873z" fill="#ee9e2b"/><path d="m479.253 505.564c-14.316 17.854-37.305 18.24-57.883 13.32-19.088-4.564-34.771-17.566-53.27-23.807-7.865-2.656-16.262-1.656-24.217-.129-8.457 1.621-16.795 2.827-22.363-5.291-1.314-1.918-2.09-4.119-2.461-6.41-2.244 7.334-1.24 12.391 2.689 19.424 5.824 10.406 6.43 7.084 18.594 5.545 7.73-.979 15.555-.402 23.369 2.768 15.863 6.436 31.158 17.43 48.771 17.971 14.947.457 30.006-2.189 44.896-1.209 4.77.313 9.391 1.004 13.912 1.963 8.145 1.725 10.387.441 12.469-8.02 2.73-11.086 5.115-22.922 6.283-34.717-2.627 6.623-6.227 12.903-10.789 18.592z" fill="#ee9e2b"/><path d="m542.803 361.927c.002.02.018.041.023.064-.008-.021-.015-.044-.023-.064z" fill="#ee9e2b"/><path d="m315.735 462.15c-5.051-7.768-12.316-14.348-17.818-21.598-6.795-8.955-12.904-18.223-22.393-24.602-9.529-6.408-20.717-3.537-30.799-.383-9.078 2.84-18.127 5.82-27.344 7.705h.018c26.426-1.914 44.645-4.775 63.521 16.484 8.348 9.402 15.725 20.107 22.57 31.227 5.578 9.053 6.396 7.24 9.26-.191.98-2.541 1.93-5.125 2.771-7.816.087-.273.134-.551.214-.826z" fill="#ee9e2b"/><path d="m595.285 519.721c-.594-6.795-1.938-13.564-4-20.084-.367 15.209-3.385 30.215-17.381 39.338-14.186 9.252-36.219 7.404-51.623 2.465-21.903-7.021-21.913-26.215-20.103-45.454.686-7.266.268-14.406-1.604-21.111-.203 17.08-3.055 34.327-7.012 50.807-2.08 8.65-1.357 10.055 6.424 12.891 10.521 3.83 21.046 7.758 32.255 10.135 18.625 3.947 39.111 4.34 53.016-11.09 1.559-1.725 3.256-3.752 5.104-5.74 5.715-6.157 5.694-3.384 4.924-12.157z" fill="#ee9e2b"/><path d="m429.386 302.257c-12.047 3.664-25.328 9.82-34.881 18.963.705 2.67 1.158 5.553 1.273 8.703 20.18-12.291 45.455-19.355 64.457-20.539 2.844-.176 5.738-.268 8.652-.291 1.514-3.184 3.303-6.15 5.238-8.998-13.667-5.254-32.013-1.709-44.739 2.162z" fill="#ee9e2b"/><path d="m719.119 438.169c-5.293 2.127-10.656 4.088-16.213 5.689-18.334 5.283-27.734-7.219-38.496-18.969-11.574-12.635-25.061-21.041-41.264-23.387 1.375.443 2.742.836 4.121 1.316 31.34 10.893 46.484 35.729 51.979 66.039 10.529-13.209 24.465-23.117 39.873-30.688z" fill="#ee9e2b"/><path d="m768.434 421.421c28.082-6.389 63.963-10.225 81.082-36.51-3.992 4.088-8.502 7.842-13.75 11.174-19.691 12.506-44.664 16.535-67.367 11.945-25.475-5.15-44-24.391-53.477-47.811-5.795-14.316-7.709-27.395-17.785-37.635 4.012 12.951 3.4 27.469-3.771 43.199-2.771 6.076-2.906 7.646 1.885 9.604 16.553 6.752 41.375 26.145 46.902 46.568 1.43 5.273 3.492 5.541 10.32 3.572 5.326-1.537 10.666-2.899 15.961-4.106z" fill="#ee9e2b"/><path d="m640.49 323.392c-5.479 1.42-10.436 3.082-15.596 5.402-6.678 3-13.783 4.117-20.703 6.311-.576.184-.682.939-.168 1.262 11.992 7.529 29.293-2.379 37.266-11.598.527-.609.033-1.592-.799-1.377z" fill="#ee9e2b"/><path d="m662.438 334.21c-.473-.172-.777.396-.596.773.57 1.172.785 2.551 1.285 3.766.48 1.174 1.025 2.314 1.457 3.51.805 2.217 1.045 4.553 3.016 6.113.314.246.666.264.98 0 2.473-2.117 1.639-5.551.555-8.172-1.399-3.382-3.42-4.804-6.697-5.99z" fill="#ee9e2b"/><path d="m778.672 307.369c-.418-.049-.67.58-.35.844 8.086 6.619 13.879 15.748 19.621 24.305.504.75 1.492.4 1.594-.432 1.471-12.12-9.023-23.34-20.865-24.717z" fill="#ee9e2b"/><path d="m789.449 353.712c-.893.371-1.904.424-2.758.863-1.283.666-2.477 1.42-3.719 2.154-2.348 1.391-4.344 3.588-6.723 4.83-.568.295-.285 1.16.314 1.166 1.262.01 2.369.381 3.631.197 1.66-.242 3.1-.646 4.627-1.334 1.127-.506 2.566-1.328 3.408-2.252 1.238-1.359 1.662-2.428 2.408-4.078.328-.719-.229-1.946-1.188-1.546z" fill="#ee9e2b"/><path d="m620.82 471.71c-.4-.119-.707.332-.52.678 1.834 3.4 3.377 7.482 4.406 11.199 1 3.605 1.414 6.953 3.619 10.096.365.52 1.264.672 1.592 0 3.837-7.816-.765-19.496-9.097-21.973z" fill="#ee9e2b"/><path d="m569.137 499.256c-4.904 6.637-9.908 13.986-13.479 21.406-.328.684.213 1.615 1.041 1.354 8.957-2.814 14.521-13.344 13.48-22.479-.064-.568-.702-.744-1.042-.281z" fill="#ee9e2b"/><path d="m449.847 481.814c-3.396-3.273-7.094-4.799-11.662-5.682-.881-.17-1.373.939-.609 1.445 3.172 2.096 6.027 5.107 8.707 7.799 2.561 2.572 4.268 5.701 7.797 7.057.551.209.984-.318 1.041-.795.495-4.109-2.53-7.181-5.274-9.824z" fill="#ee9e2b"/><path d="m417.995 432.439c.023 3.572.656 6.938.154 10.531-.508 3.633-1.23 7.1-1.602 10.754-.064.656.811 1.129 1.338.768 6.102-4.188 9.223-17.834 2.732-23.139-.987-.807-2.632-.357-2.622 1.086z" fill="#ee9e2b"/><path d="m374.485 463.744c-.553.305-.254 1.061.299 1.105 8.363.701 17.168 3.719 25.512 2.371.857-.141.744-1.225.213-1.625-7.272-5.502-18.133-6.197-26.024-1.851z" fill="#ee9e2b"/><path d="m205.745 495.316c-.404.471-.174 1.316.533 1.291 4.689-.166 9.137-1.852 13.668-2.932 5.391-1.285 10.832-1.172 15.693-3.986.533-.311.486-1.045 0-1.367-8.079-5.303-23.972.06-29.894 6.994z" fill="#ee9e2b"/><path d="m178.371 466.527c-6.883.924-10.439 11.275-5.299 16.193.397.377.938.25 1.242-.162 1.515-2.053 2.11-4.488 2.629-6.957.552-2.619 1.42-5.418 2.285-7.949.171-.5-.295-1.201-.857-1.125z" fill="#ee9e2b"/><path d="m231.747 393.451c-2.221-2.025-4.697-6.129-8.09-5.91-.518.033-.846.381-.889.889-.264 3.088 2.846 6.158 4.754 8.279 1.732 1.926 6.125 6.109 8.85 3.383 1.945-1.946-3.59-5.696-4.625-6.641z" fill="#ee9e2b"/><path d="m314.312 333.75c-6.789 7.17-8.57 19.84-5.584 29.086.188.582 1.15.865 1.443.189 1.738-3.998 2.189-7.846 2.516-12.152.422-5.539 1.789-11.035 2.67-16.516.093-.572-.577-1.104-1.045-.607z" fill="#ee9e2b"/><path d="m350.896 326.705c-2.029-.875-4.828-1.514-6.818-.17-.189.129-.203.344-.066.518 1.332 1.688 3.625 2.447 5.506 3.324 1.727.805 3.402 2.063 5.416 1.754.273-.043.41-.332.434-.572.254-2.556-2.525-4.018-4.472-4.854z" fill="#ee9e2b"/><path d="m439.183 371.451c2.725-5.563 2.971-10.406 2.547-16.561-.332-4.867-.703-10.359-3.957-14.178-.238-.283-.668-.102-.77.201-1.473 4.41-.533 9.375-.492 13.977.053 5.758-.283 10.768 1.229 16.371.167.627 1.134.819 1.443.19z" fill="#ee9e2b"/><path d="m497.017 337.498c-3.291-1.402-7.787-2.566-11.248-1.117-.369.156-.461.6-.109.84 2.684 1.852 6.086 2.834 8.988 4.328 1.547.797 3.047 1.766 4.467 2.764 1.355.951 2.963 1.18 4.332 2.061.512.328 1.188-.213 1.016-.779-1.284-4.265-3.226-6.299-7.446-8.097z" fill="#ee9e2b"/><path d="m611.836 439.558c-6.084-5.996-13.652-9.828-21.887-11.746-.369-.088-.631.449-.268.631 7.084 3.531 13.172 8.996 18.873 14.396 5.303 5.02 8.359 11.59 13.281 16.854.367.396.898.051.953-.395.991-7.873-5.786-14.652-10.952-19.74z" fill="#fbe134"/><path d="m621.096 442.49c-.285-.1-.506.244-.371.482.994 1.781 1.873 3.732 2.564 5.648.65 1.801.646 3.666 2.176 5 .256.221.607.24.861 0 1.857-1.764 1.018-4.279.141-6.338-1.028-2.421-2.981-3.962-5.371-4.792z" fill="#fbe134"/><path d="m706.309 401.822c-.658-.346-1.492.373-1.061 1.059 1.855 2.938 3.152 5.959 4.273 9.238 1 2.932 1.412 5.348 3.377 7.824.193.244.641.162.775-.1 3.302-6.459-1.396-14.879-7.364-18.021z" fill="#fbe134"/><path d="m711.09 429.041c-.848.709-1.957.945-2.764 1.66-.773.689-1.508 1.436-2.223 2.189-1.246 1.318-2.074 2.676-2.973 4.219-.178.307.113.66.447.58 2.092-.504 4.041-.961 5.697-2.498.764-.705 1.896-1.615 2.162-2.678.258-1.027.322-2.096.438-3.146.05-.444-.515-.551-.784-.326z" fill="#fbe134"/><path d="m792.141 344.736c-12.441-2.693-31.191 4.707-39.102 14.473-.473.584-.035 1.373.723 1.236 6.297-1.148 11.549-4.443 17.275-7.129 6.875-3.221 14.322-4.807 21.186-7.949.271-.125.195-.573-.082-.631z" fill="#fbe134"/><path d="m817.82 358.691c-.365-.117-.709.328-.5.652 1.371 2.137 2.516 4.369 3.439 6.736.967 2.482 1.1 5.572 2.641 7.766.873 1.24 2.762 1.119 3.236-.424 1.688-5.466-3.695-13.113-8.816-14.73z" fill="#fbe134"/><path d="m792.414 372.312c-.615.686-1.504 1.195-2.164 1.859-.799.805-1.404 1.889-2.059 2.809-1.35 1.898-2.662 3.572-3.34 5.832-.096.32.164.609.477.625 2.604.125 4.139-1.471 5.529-3.471.787-1.135 1.322-2.438 1.76-3.742.408-1.211.143-2.371.375-3.574.061-.315-.33-.615-.578-.338z" fill="#fbe134"/><path d="m838.346 336.847c-3.248-4.271-11.34-3.525-15.352-.686-.264.188-.283.678.1.754 2.84.566 5.688 1.045 8.537 1.557 2.471.441 4.441.732 6.514-.859.216-.168.402-.502.201-.766z" fill="#fbe134"/><path d="m602.684 321.82c3.51-.188 7.043-.836 10.525-1.316 4.674-.643 8.953-.799 13.455-2.35.445-.154.637-.842.141-1.084-7.379-3.613-18.482-1.924-24.529 3.768-.356.335-.094 1.009.408.982z" fill="#fbe134"/><path d="m519.645 377.626c1.648-4.719-2.564-9.674-5.205-13.158-2.596-3.428-7.229-8.313-11.94-8.152-.256.008-.479.309-.313.545 2.676 3.836 6.065 7.205 8.79 11.061 2.383 3.375 3.869 8.027 7.676 10.107.402.221.845.013.992-.403z" fill="#fbe134"/><path d="m521.945 370.394c.297.584.971.896 1.598.916.441.016.559-.023.938-.252.73-.445 1.043-1.27.85-2.092-.754-3.213-3.084-4.977-6.205-5.434-.484-.07-.824.432-.48.826 1.463 1.683 2.301 4.069 3.299 6.036z" fill="#fbe134"/><path d="m301.071 346.125c-5.703 3.469-10.865 15.15-6.746 21.221.199.295.613.385.879.113 2.313-2.363 2.52-5.586 3.188-8.688.887-4.115 2.506-7.725 4.01-11.625.292-.762-.694-1.408-1.331-1.021z" fill="#fbe134"/><path d="m300.933 366.714c-1.818 2.408-3.014 6.092-.977 8.639.162.199.537.188.699 0 1.889-2.195 1.984-5.695 1.539-8.473-.107-.666-.951-.578-1.261-.166z" fill="#fbe134"/><path d="m339.825 334.574c-.604-.34-1.492.225-1.232.947 1.08 3.014 3.035 5.664 4.498 8.5 1.457 2.824 2.564 5.148 5.217 6.99.277.193.66-.008.748-.305 1.033-3.482-.406-5.938-2.246-8.857-1.733-2.746-4.141-5.67-6.985-7.275z" fill="#fbe134"/><path d="m248.325 364.662c1.439.088 2.605-.871 3.881-1.303.383-.131.629-.688.262-.992-3.08-2.553-5.025-2.998-9.184-2.664-3.695.299-7.203 1.381-9.875 3.992-.279.271-.07.758.314.758 3.193-.01 6.361-.227 9.561-.158 1.68.035 3.363.265 5.041.367z" fill="#fbe134"/><path d="m207.87 391.384c-.07-.344-.49-.379-.717-.189-4.643 3.855-4.756 11.322-2.564 16.434.139.326.709.318.852 0 2.146-4.788 3.48-11.016 2.429-16.245z" fill="#fbe134"/><path d="m204.255 451.433c-8.465 1.193-17.024 9.639-18.512 18.16-.06.344.307.572.578.338 3.057-2.654 5.656-5.803 8.539-8.643 3.127-3.082 6.588-6.104 9.938-8.922.484-.404-.057-1.003-.543-.933z" fill="#fbe134"/><path d="m210.71 451.062c-2.334 1.564-4.949 4.059-5.672 6.857-.104.402.299.938.75.748 2.475-1.035 4.625-2.793 6.967-4.105 2.748-1.539 5.141-2.943 7.279-5.285.232-.252.182-.789-.225-.852-3.593-.545-6.154.662-9.099 2.637z" fill="#fbe134"/><path d="m259.991 472.181c-4.457-.344-8.258 1.359-12.436 2.713-3.889 1.26-7.924 2.418-11.621 4.17-.461.219-.172.811.232.857 7.516.869 18.826-1.201 24.219-6.785.358-.369.083-.918-.394-.955z" fill="#fbe134"/><path d="m268.261 502.189c-4.408 2.352-9.52 4.262-14.146 6.211-3.994 1.684-8.398 2.568-12.205 4.643-.578.316-.395 1.133.174 1.322 4.824 1.617 10.332.057 14.924-1.656 5.48-2.045 8.637-5.137 12.02-9.756.352-.48-.312-1.008-.767-.764z" fill="#fbe134"/><path d="m149.481 491.078c-1.242-.77-2.582-1.408-3.857-2.131-1.153-.65-2.34-1.24-3.484-1.91-.614-.361-1.822-.545-2.289-1.055-.179-.197-.576.008-.467.271.381.928.084 1.941.606 2.934.823 1.564 1.841 2.938 3.211 4.068 2.863 2.361 5.626 2.834 8.975 1.393.346-.15.405-.727.123-.957-.971-.803-1.737-1.945-2.818-2.613z" fill="#fbe134"/><path d="m370.249 450.533c-5.063-.576-10.16-.52-14.547 2.334-.332.217-.18.668.191.705 5.242.535 10.412 1.086 15.59 2.111 4.502.889 8.58 1.164 13.121 1.67.518.057.631-.68.248-.92-4.947-3.113-8.634-5.223-14.603-5.9z" fill="#fbe134"/><path d="m443.595 434.125c-3.609 2.014-7.672 4.904-9.752 8.541-.135.236.086.443.316.412 3.314-.447 6.506-2.334 9.488-3.768 2.102-1.01 4.322-1.715 6.475-2.605 1.303-.539 2.234-1.756 3.318-2.639.279-.229.207-.779-.121-.932-3.746-1.72-6.189-.982-9.724.991z" fill="#fbe134"/><path d="m414.831 469.601c-1.344 4.471-1.309 9.375-2.209 13.959-.895 4.549-4.213 9.568-3.613 14.227.053.414.367.73.813.619 5.266-1.326 6.564-9.118 7.395-13.579.902-4.865 1.467-11.273-1.836-15.373-.163-.201-.485-.072-.55.147z" fill="#fbe134"/><path d="m420.12 490.312c-.57 1.457-.881 2.996-1.234 4.52-.354 1.527-1.035 2.754-.725 4.356.074.389.49.527.83.471 4.074-.668 4.215-7.047 2.037-9.586-.291-.341-.773-.107-.908.239z" fill="#fbe134"/><path d="m454.011 471.734c-.262.121-.305.535-.094.721 2.205 1.941 5.133 3.125 7.457 5.018 2.209 1.795 3.939 3.713 6.918 3.965.426.035.738-.371.756-.756.273-5.919-9.928-11.362-15.037-8.948z" fill="#fbe134"/><path d="m524.387 473.824c-.137-.5-.883-.508-1.016 0-3.002 11.385-2.523 32.87 9.314 39.235.566.303 1.168-.189 1.041-.801-1.354-6.459-4.268-12.355-5.654-18.85-1.388-6.508-1.91-13.16-3.685-19.584z" fill="#fbe134"/><path d="m517.877 504.125c-.266-.059-.477.117-.5.381-.324 3.832 3.678 9.406 7.725 9.096.326-.025.652-.332.523-.688-.732-2.041-1.752-3.316-3.111-4.992-1.223-1.508-2.659-3.363-4.637-3.797z" fill="#fbe134"/><path d="m614.613 291.765c3.473 1.525 6.768 4.105 10.67 3.957.488-.018.828-.457.713-.938-1.893-7.873-16.844-9.572-23.398-8.656-.273.039-.297.455-.076.572 3.874 2.046 8.085 3.303 12.091 5.065z" fill="#fbe134"/><path d="m589.24 319.615c-7.375-.098-14.459-.771-20.461 4.387-.359.311.039.773.416.715 6.949-1.094 13.506-1.871 20.154-4.293.426-.155.376-.801-.109-.809z" fill="#fbe134"/><path d="m607.395 352.66c.141-.324-.012-.791-.439-.766-3.074.182-5.457 1.27-8.332 2.373-3.105 1.191-6.064 2.271-8.938 3.959-.301.178-.145.582.166.613 5.814.563 14.902-.002 17.543-6.179z" fill="#fbe134"/><path d="m610.236 354.621c-.105.238-.055.453.16.609 2.84 2.055 7.359-.846 7.471-4.049.01-.291-.246-.518-.527-.525-2.51-.065-6.035 1.533-7.104 3.965z" fill="#fbe134"/><path d="m466.974 361.906c-.754-.408-1.779.264-1.498 1.152 1.316 4.143 3.176 8.17 4.82 12.193.67 1.633 2.785 7.521 5.668 5.832 2.807-1.646-.486-7.035-1.303-8.9-1.707-3.896-3.797-8.162-7.687-10.277z" fill="#fbe134"/><path d="m420.464 344.892c.328-.4.135-1.029-.432-1.039-7.383-.135-16.547 5.65-19.332 12.715-.113.287.229.605.506.508 3.477-1.229 6.711-3.268 9.865-5.152 3.742-2.233 6.592-3.628 9.393-7.032z" fill="#fbe134"/><path d="m317.409 364.261c-.291-.447-.932-.463-1.221 0-1.186 1.896-1.191 4.295-1.027 6.467.182 2.369.264 4.631 1.807 6.551.279.348.764.158.982-.129 1.477-1.916 1.27-4.133 1.096-6.422-.168-2.195-.412-4.586-1.637-6.467z" fill="#fbe134"/><path d="m239.833 390.31c-.426.029-.73.471-.498.867 1.178 2.002 2.918 3.695 4.533 5.342 1.627 1.658 2.734 3.178 4.994 4.004.25.094.543-.098.607-.342 1.26-4.842-5.077-10.183-9.636-9.871z" fill="#fbe134"/><path d="m196.55 497.369c-.846-.232-1.775-.012-2.609.137-1.574.283-3.896.004-5.1 1.213-.142.141-.144.326-.065.498.709 1.553 2.921 1.828 4.429 2.096 2.594.459 3.822-.006 5.498-1.896.234-.266.229-.723-.117-.904-.689-.363-1.269-.931-2.036-1.144z" fill="#fbe134"/><path d="m174.052 488.066c-.864-1.008-2.697-.467-2.98.787-.504 2.219.263 4.244 1.59 6.033.975 1.314 2.187 1.643 3.643 1.561.331-.018.547-.299.476-.625-.08-.377-.186-2.197-.524-3.131-.615-1.684-1.017-3.236-2.205-4.625z" fill="#fbe134"/><path d="m216.452 375.4c-.092.637.523 1.34 1.186.91 1.666-1.076 3.25-2.232 5.016-3.154 1.586-.83 3.113-1.705 3.75-3.479.098-.275-.064-.58-.295-.723-3.917-2.464-9.126 2.76-9.657 6.446z" fill="#fbe134"/><path d="m334.382 311.611c-4.449.605-11.465 4.338-11.273 9.639.01.307.34.518.619.355 1.938-1.145 3.791-2.418 5.623-3.723 2.313-1.648 4.25-2.947 5.588-5.549.216-.416-.133-.781-.557-.722z" fill="#fbe134"/><path d="m457.942 332.439c3.959-1.107 7.688-1.799 11.209-4.045.383-.242.277-.75-.117-.9-6.314-2.43-17.4.605-21.242 6.383-.18.27.063.574.342.594 3.306.257 6.66-1.151 9.808-2.032z" fill="#fbe134"/><path d="m471.897 330.398c-1.74.16-3.588.699-4.502 2.289-.066.119-.061.307.053.4 1.313 1.064 2.82 1.115 4.449 1.234 2.496.18 4.35-.34 6.459-1.578.373-.221.373-.775 0-.996-2.22-1.3-3.871-1.587-6.459-1.349z" fill="#fbe134"/><path d="m655.256 316.029c-.266.613.273 1.195.898.9 2.211-1.033 3.584-2.197 5.016-4.217 1.121-1.584 2.25-4.371.629-5.99-2.346-2.344-6.018 8.092-6.543 9.307z" fill="#fbe134"/><path d="m821.977 331.947c2.225-.232 4.115-.84 5.934-2.258 1.588-1.24 3.756-3.541 2.59-5.725-.818-1.541-4.023 1.258-4.59 1.828-1.787 1.793-3.264 3.438-4.236 5.76-.075.178.114.414.302.395z" fill="#fbe134"/><path d="m726.275 424.996c-2.643-1.592-7.35-1.814-9.82.254-.252.213-.252.697 0 .91 1.063.893 2.424 1.178 3.748 1.537 1.602.434 3.453.773 5.107.861 1.958.106 2.53-2.621.965-3.562z" fill="#fbe134"/><path d="m657.99 474.005c-.289-.154-.555-.088-.799.104-1.938 1.52-2.053 4.109-2.754 6.303-.76 2.379-1.605 5.135-2.635 7.393-.141.309.088.717.465.605 3.42-1.029 5.457-2.555 6.914-5.998 1.1-2.604 1.819-6.799-1.191-8.407z" fill="#fbe134"/><path d="m544.037 527.381c-.346-1.139-1.668-1.148-2.316-.303-1.547 2.021-2.553 10.023 1.107 10.551 1.785.258 2.129-1.641 1.887-2.996-.426-2.365.017-4.965-.678-7.252z" fill="#fbe134"/><path d="m549.139 528.773c-.646-.178-1.082.404-.992.99.25 1.617.98 3.281 1.676 4.758.762 1.621 3.168.445 2.787-1.176-.45-1.894-1.45-4.019-3.471-4.572z" fill="#fbe134"/><path d="m868.541 347.062c.455 2.729.695 5.504.672 8.322-.193 24.039-14.693 47.369-36.486 58.172-45.492 22.551-107.93 15.961-143.035 58.588-13.211 16.043-15.793 46.323-33.82 57.909-7.582 4.873-14.047 6.025-23.113 5.297-15.945-1.287-27.795-2.643-40.051 9.715-40.592 40.924-90.228-6.877-135.327-6.787-28.898.057-53.453 3.842-80.064-9.535-20.879-10.494-37.799-12.598-59.668-2.691-11.137 5.045-22.336 10.191-33.846 14.346-22.809 8.234-45.873 13.813-69.287 4.898-10.881-4.145-18.311-15.555-29.638-18.33-12.305-3.014-24.852-3.174-37.28-5.307-12.346-2.119-20.139-6.549-24.35-12.465.3.938.64 1.877 1.06 2.813 7.267 16.229 27.205 16.48 42.27 17.828 13.076 1.166 22.014 5.955 32.825 12.877 9.324 5.971 18.955 9.795 29.963 11.227 28.832 3.748 57.643-10.875 83.395-21.594 16.131-6.715 33.535-10.244 50.115-2.768 13.145 5.93 26.266 11.328 40.49 14.07 13.764 2.654 28.068 1.646 41.982 1.252 18.465-.518 35.035 2.227 52.592 7.799 25.55 8.107 57.333 20.549 84.228 11.357 8.939-3.057 15.67-10.988 22.967-16.57 13.895-10.629 28.916-5.199 44.416-8.672 19.781-4.43 28.318-17.113 33.875-35.555 3.195-10.604 6.461-20.831 12.807-30.049 7.193-10.451 20.25-16.281 31.615-20.824 20.881-8.348 43.277-12.42 65.088-17.523 36.646-8.576 86.945-26.076 80.057-73.799-.747-5.155-2.12-9.765-4.452-14.001z" fill="#f3af79"/><path d="m750.83 463.406c-.354.082-.371.664 0 .729 13.51 2.416 26.795 6.865 40.383 8.527.75.092.893-.975.357-1.318-11.449-7.403-27.336-10.973-40.74-7.938z" fill="#f3af79"/><path d="m738.969 496.539c-.676.035-.799.95-.16 1.165 5.533 1.83 11.207 5.201 17.154 5.17.559-.002 1.014-.811.5-1.207-4.824-3.733-11.465-5.449-17.494-5.128z" fill="#f3af79"/><path d="m759.625 503.641c-.246.098-.414.377-.256.629 1.23 1.949 3.85 2.793 5.887 3.471.334.113.727-.188.707-.539-.154-2.934-3.619-4.622-6.338-3.561z" fill="#f3af79"/><path d="m631.268 549.119c-.203.031-.24.311-.117.439 2.779 2.869 7.535 5.115 11.518 4.797.406-.033.754-.475.498-.867-2.394-3.644-7.69-5.023-11.899-4.369z" fill="#f3af79"/><path d="m825.828 433.841c-.373.033-.486.572-.092.68 10.68 2.881 20.084 9.146 30.711 11.805.779.195 1.463-.818.816-1.4-8.042-7.239-20.583-12.003-31.435-11.085z" fill="#f3af79"/><path d="m857.867 437.345c-1.451-.619-3.422-.854-4.734-1.68-.387-.246-.941.258-.652.65 1.029 1.408 1.629 2.564 3.129 3.607 1.553 1.084 2.959 1.52 4.836 1.299.535-.061.951-.586.639-1.115-.815-1.374-1.743-2.134-3.218-2.761z" fill="#f3af79"/><path d="m899.934 396.589c-3.078-2.742-5.316-4.281-9.393-5.217-3.279-.752-7.438-1.303-10.715-.459-.451.115-.441.662-.117.9 5.475 4.078 13.25 4.332 19.586 5.875.609.149 1.154-.644.639-1.099z" fill="#f3af79"/><path d="m449.97 554.52c-1.082-.697-2.275-1.164-3.477-1.621-1.74-.664-4.855-1.467-6.619-.578-.119.061-.135.209-.084.314.863 1.791 3.523 2.951 5.184 3.871 1.098.611 2.336 1.113 3.543 1.463 1.088.316 2.322-.043 3.432.047.428.035.572-.512.326-.785-.788-.877-1.282-2.053-2.305-2.711z" fill="#f3af79"/><path d="m487.368 557.566c-.508-.117-1.07.451-.725.943 1.568 2.232 3.094 4.908 6.033 5.438.92.166 1.779-.553 1.527-1.529-.809-3.16-4.03-4.195-6.835-4.852z" fill="#f3af79"/><path d="m106.616 509.979c-.294-.156-.783.111-.629.482 1.518 3.629 4.574 6.611 7.03 9.627 3.503 4.295 6.556 8.881 10.682 12.615.354.322.856.004.77-.447-.94-4.965-3.853-8.498-7.035-12.268-2.981-3.537-6.707-7.802-10.818-10.009z" fill="#f3af79"/><path d="m126.717 526.416c-.268-.184-.567.117-.508.391.314 1.422.749 2.477 1.396 3.799.792 1.615 1.59 2.328 2.888 3.486.371.33 1.169.148 1.097-.455-.195-1.641-.292-2.783-1.45-4.104-1.088-1.24-2.081-2.195-3.423-3.117z" fill="#f3af79"/><path d="m891.295 520.223c-15.787 20.471-34.859 38.492-56.346 53.609-21.91 15.414-46.33 27.176-71.842 35.248-29.693 9.393-61.207 13.014-91.85 17.959-32.508 5.246-63.889 12.457-94.723 24.154-28.488 10.809-55.617 24.658-83.245 37.416-29.271 13.521-58.072 28.09-89.088 37.299-32.398 9.621-66.15 10.949-99.549 7.02-49.164-5.783-96.801-23.328-136.514-53.068-17.568-13.156-34.213-28.469-50.212-43.48-7.325-6.869-14.473-14.203-20.8-22.133 3.209 6.068 6.794 11.977 10.821 17.674 33.863 47.908 84.653 80.348 138.983 100.822 49.098 18.504 102.156 31.148 154.885 30.803 51.354-.338 96.689-18.27 141.321-42.771 49.902-27.396 98.74-57.697 153.717-74.102 47.293-14.109 104.039-18.578 142.295-53.063 21.842-19.69 39.559-45.503 52.147-73.387z" fill="#865725"/><path d="m319.642 672.064c-4.875-11.826-8.131-24.756-10.33-37.34-.113-.643-1.021-.428-1.066.143-1.16 14.678 2.051 28.15 7.432 41.781 4.404 11.162 10.252 23.996 20.832 30.451.496.303 1.301-.205 1.053-.807-4.914-11.933-12.96-22.196-17.921-34.228z" fill="#865725"/><path d="m328.608 676.016c-.197-.131-.5.039-.484.277.291 4.244 2.08 10.703 6.168 12.744.602.301 1.439-.057 1.41-.811-.105-2.684-1.463-4.883-2.805-7.139-1.138-1.905-2.408-3.823-4.289-5.071z" fill="#865725"/><path d="m422.921 645.885c-6.824-7.836-12.682-16.439-19.141-24.566-.186-.236-.582.02-.494.289 3.01 9.359 8.182 17.721 14.328 25.371 6.539 8.145 13.984 17.764 24.428 20.711.432.121.895-.398.613-.799-5.525-7.848-13.431-13.766-19.734-21.006z" fill="#865725"/><path d="m437.464 649.602c.365-.125.609-.486.5-.883-.365-1.299-1.719-2.063-2.74-2.859-1.543-1.205-3.217-2.256-4.676-3.564-.359-.322-.873.078-.658.508.943 1.883 1.816 3.572 3.277 5.115.982 1.04 2.861 2.173 4.297 1.683z" fill="#865725"/><path d="m224.843 613.719c-.064-.33-.523-.279-.617 0-3.734 11.266-2.795 24.246-1.807 35.891.904 10.701 2.471 23.297 9.895 31.543.5.555 1.654.15 1.561-.646-1.369-11.559-5.426-22.551-6.721-34.23-1.198-10.773-.178-21.927-2.311-32.558z" fill="#865725"/><path d="m232.317 648.734c-.764 4.727-1.459 11.73 2.225 15.445.369.369 1.133.23 1.238-.328.9-4.764-.27-10.9-2.244-15.275-.23-.512-1.129-.396-1.219.158z" fill="#865725"/><path d="m671.27 604.357c-2.723-2.357-6.316-5.969-10.025-6.393-.268-.031-.432.273-.381.5.867 3.805 4.871 7.711 7.529 10.426 3.104 3.17 6.395 6.154 11.107 5.68.576-.059.955-.605.66-1.152-2.117-3.92-5.59-6.199-8.89-9.061z" fill="#865725"/><path d="m683.764 604.375c-.533-1.102-2.066-1.943-3.033-2.615-1.684-1.174-4.123-1.912-6.145-1.826-.879.037-1.613 1.039-1.066 1.857 1.111 1.662 2.607 2.695 4.084 4.023.818.736 1.844 1.365 2.783 1.938.975.594 2.053.322 3.082.615.652.184 1.336-.455 1.123-1.125-.317-1.002-.358-1.892-.828-2.867z" fill="#865725"/><path d="m846.279 491.533c-.137-.4-.818-.359-.775.105 2.186 23.223-9.438 42.782-15.135 64.379-.207.777.783 1.383 1.361.791 15.184-15.593 21.438-44.837 14.549-65.275z" fill="#865725"/><path d="m851.016 523.096c-1.146 3.479-2.666 6.93-2.174 10.67.066.498.564.742.969.4 3.287-2.777 3.35-7.242 2.205-11.07-.151-.504-.84-.485-1 0z" fill="#865725"/><path d="m870.746 472.798c3.682 9.008 1.902 19.924 6.852 28.319.275.465 1.178.457 1.264-.166 1.387-9.997-1.197-20.51-7.303-28.495-.278-.359-1.02-.165-.813.342z" fill="#865725"/><path d="m752.695 570.42c1.615 4.094 2.764 8.256 3.061 12.662.25 3.688.264 7.09 1.617 10.572.236.611 1.072.826 1.445.189 4.42-7.545.553-18.186-5.213-23.953-.363-.359-1.115.003-.91.53z" fill="#865725"/><path d="m503.497 615.342c3.405 16.365.219 33.982 4.724 49.9.188.662 1.145.658 1.334 0 4.613-16.023 1.418-35.287-5.155-50.281-.237-.539-1.01-.137-.903.381z" fill="#865725"/><path d="m514.516 634.68c-.736 2.266-.467 4.645-.332 6.992.135 2.367.24 4.549 1.939 6.324.252.26.727.273.979 0 2.93-3.221 1.08-10.33-1.275-13.49-.37-.492-1.106-.459-1.311.174z" fill="#865725"/><path d="m359.72 591.936c-.066-.479-.729-.297-.775.105-2.135 17.938.477 35.967 4.543 53.453 3.828 16.453 9.602 33.002 20.551 46.119.516.615 1.646-.039 1.361-.793-5.855-15.523-12.346-30.715-16.744-46.752-4.678-17.056-6.563-34.664-8.936-52.132z" fill="#865725"/><path d="m159.708 577.998c.042-.539-.783-.623-.921-.127-6.392 23.148-11.496 55.563 4.704 75.916.646.811 1.713-.096 1.567-.912-4.537-25.273-7.301-49.105-5.35-74.877z" fill="#865725"/><path d="m185.836 610.125c-.232-.609-1.008-.609-1.238 0-3.11 8.209-2.771 21.824 2.149 29.293.292.439 1.104.447 1.218-.16.921-4.873.21-9.666-.132-14.57-.337-4.833-.261-9.991-1.997-14.563z" fill="#865725"/><path d="m191.892 627.146c-.135 1.781-.57 3.561-.76 5.348-.197 1.871.041 2.945 1.318 4.268.26.266.721.268.979 0 2.727-2.824.814-6.883-.895-9.791-.181-.311-.619-.157-.642.175z" fill="#865725"/><path d="m882.119 470.312c1.475 2.033 3.127 3.934 4.592 5.977 1.418 1.982 2.43 4.398 4.785 5.43.328.141.783.055.871-.357.547-2.572-1.045-4.592-2.637-6.443-1.895-2.199-4.123-4.166-6.688-5.529-.55-.297-1.347.338-.923.922z" fill="#d4ba89"/><path d="m121.881 563.973c-6.147 15.928-8.497 39.256.595 54.494.313.523 1.071.277 1.104-.299.508-8.971-.993-17.842-1.154-26.816-.164-9.076.245-18.154.619-27.221.029-.713-.938-.744-1.164-.158z" fill="#d4ba89"/><path d="m721.975 583.396c-.557-.295-1.098.289-.832.834.93 1.902 1.908 3.764 2.771 5.701.701 1.574 3.316.447 2.77-1.168-.807-2.382-2.51-4.197-4.709-5.367z" fill="#d4ba89"/><path d="m805.027 578.412c.295.658 1.143.336 1.354-.176 3.264-7.965-.479-21.76-5.855-28.229-.17-.205-.506-.029-.506.211.002 4.711 1.563 9.385 2.273 14.035.74 4.829.719 9.657 2.734 14.159z" fill="#d4ba89"/><path d="m207.544 644.918c1.748-17.996-.436-37.107-1.916-55.105-.027-.324-.453-.311-.494 0-2.4 17.914-4.295 37.789 1.313 55.254.199.626 1.038.468 1.097-.149z" fill="#d4ba89"/><path d="m212.978 605.746c-.57 2.641-2.66 7.145.111 9.215.16.119.473.119.631 0 2.771-2.07.682-6.574.113-9.215-.092-.426-.766-.426-.855 0z" fill="#d4ba89"/><path d="m716.465 590.254c2.105 4.002 2.633 9.59 5.809 12.861.307.316.807.215 1.033-.135 2.652-4.082-.553-9.527-2.584-13.262-2.906-5.348-7.447-9.779-12.035-13.68-.555-.473-1.24.232-.789.791 3.355 4.159 6.081 8.702 8.566 13.425z" fill="#d4ba89"/><path d="m824.912 526.146c-.07 1.543-.113 3.027.057 4.572.213 1.924 3.211 1.99 3.063 0-.152-2.041-.934-3.408-2.191-4.957-.323-.392-.911-.042-.929.385z" fill="#d4ba89"/><path d="m870.822 521.33c1.506-12.219-6.855-24.456-12.939-34.43-.219-.357-.84-.125-.691.291 3.924 11.165 6.344 24.415 12.832 34.356.249.381.747.197.798-.217z" fill="#d4ba89"/><path d="m547.85 639.508c.285.367.838.184 1.059-.135 5.127-7.463-4.553-20.354-8.715-26.271-.311-.443-1.059-.186-.902.381 1.346 4.896 3.24 9.621 4.68 14.492 1.149 3.886 1.331 8.271 3.878 11.533z" fill="#d4ba89"/><path d="m633.482 605.324c.166 3.105.984 6.049 1.723 9.055.68 2.754.793 6.053 3.07 7.996.307.262.824.266 1.033-.133 1.324-2.527.24-5.078-.688-7.605-1.205-3.287-2.502-6.531-4.311-9.537-.219-.364-.852-.231-.827.224z" fill="#d4ba89"/><path d="m552.289 624.139c.482 2.643-.238 5.967 1.482 8.193.158.203.449.359.697.184 3.309-2.346-.053-6.295-1.578-8.631-.21-.324-.667-.112-.601.254z" fill="#d4ba89"/><path d="m470.437 627.26c.049 2.754.803 5.436 1.354 8.123.65 3.168 1.332 6.107 3.221 8.787.365.518 1.164.342 1.195-.324.248-5.402-1.635-12.664-5.234-16.807-.185-.209-.54-.041-.536.221z" fill="#d4ba89"/><path d="m128.994 587.561c-1.325 4.201-2.133 8.072-.184 12.232.247.527 1.16.406 1.264-.166.736-4.104-.058-7.855-.239-11.953-.021-.486-.692-.58-.841-.113z" fill="#d4ba89"/><path d="m817.084 524.541c.258 2.809.811 5.516 1.438 8.262.609 2.678.512 5.791 2.111 8.104.217.313.699.451.982.129 4.057-4.598-1.52-12.498-3.887-16.668-.16-.286-.677-.179-.644.173z" fill="#d4ba89"/><path d="m281.862 648.266c.939-5.971.361-13.025-2.307-18.529-.121-.252-.564-.266-.682 0-2.592 5.881-.162 12.9 1.971 18.529.165.429.927.568 1.018 0z" fill="#d4ba89"/><path d="m448.45 597.4c4.006 11.6 7.539 23.18 10.324 35.139 2.781 11.945 3.217 24.986 8.182 36.256.227.52 1.146.396 1.232-.16 1.756-11.178-1.215-22.988-3.691-33.883-3.008-13.227-8.047-26.197-15.355-37.643-.223-.347-.838-.13-.692.291z" fill="#d4ba89"/><path d="m278.062 687.889c.26.621 1.281.611 1.26-.172-.436-16.018-4.592-31.75-6.57-47.615-1.99-15.963-1.154-31.611-1.1-47.617.002-.539-.74-.602-.906-.121-5.211 15.266-4.637 31.871-3.258 47.738 1.4 16.086 4.318 32.865 10.574 47.787z" fill="#d4ba89"/><g fill="#68182b"><path d="m783.104 324.363c.576.25 1.32-.482.736-.957-17.311-14.063-43.914-18.561-64.479-8.967-.271.125-.148.623.158.582 21.786-2.875 43.413.619 63.585 9.342z"/><path d="m764.27 339.671c-.328.252-.137.729.281.662 6.816-1.074 13.643-2.006 20.404-3.352.553-.111.449-.854 0-1.016-7.31-2.633-14.574-.997-20.685 3.706z"/><path d="m800.738 398.736c10.631-8.816 12.779-27.162 9.877-39.939-.121-.527-.922-.514-1.049 0-1.629 6.568-2.27 13.344-3.902 19.93-1.635 6.588-4.564 12.721-6.053 19.354-.156.688.614 1.081 1.127.655z"/><path d="m833.229 355.136c3.527 2.764 5.752 7.027 10.029 8.684.453.176.832-.264.873-.666.563-5.605-5.16-9.693-9.146-12.705-4.049-3.057-10.771-5.883-15.863-4.496-.318.088-.336.49-.086.662 4.583 3.148 9.72 5.021 14.193 8.521z"/><path d="m814.039 329.708c.201.359.666.301.879 0 2.563-3.59 1.588-7.635.824-11.734-.656-3.516-1.734-9.182-5.293-10.951-.189-.094-.494-.029-.533.217-.535 3.354 1.266 7.09 1.881 10.381.785 4.191.098 8.293 2.242 12.087z"/><path d="m798.955 370.468c2.332-1.041 3.271-2.652 4.125-4.982.746-2.033 1.51-4.58 1.07-6.746-.094-.463-.723-.715-1.113-.453-1.666 1.123-2.299 3.076-2.955 4.895-.82 2.271-1.506 4.293-1.926 6.674-.086.491.35.811.799.612z"/><path d="m705.521 419.341c-5.047-14.59-29.135-18.518-42.24-15.367-.258.061-.248.439 0 .506 6.9 1.889 13.814 2.957 20.584 5.395 7.398 2.662 13.627 7.412 20.926 10.193.416.16.871-.324.73-.727z"/><path d="m702.689 424.609c.26-.221.174-.672-.107-.828-3.924-2.186-9.912-1.992-13.645.611-.273.193-.295.709.102.783 4.311.821 10.006 2.524 13.65-.566z"/><path d="m631.518 348.892c-9.25 7.916-21.242 15.021-32.541 19.578-.596.238-.369 1.043.264.951 19.746-2.842 49.041-19.477 52.252-41.479.035-.234-.242-.475-.438-.256-6.559 7.282-12.014 14.767-19.537 21.206z"/><path d="m651.928 345.835c2.355-.813 3.371-2.873 4.281-5.063 1.117-2.686 1.938-4.939 1.361-7.783-.084-.416-.656-.537-.934-.246-1.609 1.674-2.303 3.447-3.168 5.617-.916 2.291-2.402 4.332-2.313 6.889.015.376.384.723.773.586z"/><path d="m577.326 302.269c-.297.184-.201.742.191.705 10.711-1.018 20.541-1.068 31.133 1.365 11.445 2.629 20.793 8.545 31.205 13.555.611.295 1.137-.285.879-.879-8.523-19.596-46.629-25.014-63.408-14.746z"/><path d="m644.564 303.115c2.049 3.594 2.824 7.402 5.182 10.797.246.357.797.322.932-.121 1.467-4.9-.76-9.303-3.316-13.541-1.994-3.311-6.201-7.838-10.484-7.129-.424.072-.496.637-.24.908 2.919 3.088 5.745 5.254 7.926 9.086z"/><path d="m669.344 329.093c1.725 1.146 3.828 3.818 6.066 3.301.457-.105.822-.504.947-.947.758-2.689-3.086-4.729-5.047-5.719-1.988-1.006-5.041-2.135-7.131-.871-.262.156-.273.477-.09.697 1.327 1.584 3.556 2.41 5.255 3.539z"/><path d="m673.588 318.265c.26-.182.289-.482.092-.723-2.479-3.033-7.232-1.09-9.59 1.063-.295.27-.057.752.314.76 2.869.054 6.694.642 9.184-1.1z"/><path d="m482.226 367.302c7.957 10.6 11.301 23.043 17.346 34.605.318.611 1.094.244 1.164-.314 3.018-24.363-22.57-55.914-46.342-60.379-.324-.061-.65.35-.352.604 9.91 8.512 20.16 14.799 28.184 25.484z"/><path d="m478.511 345.98c3.957 2.486 7.191 5.375 11.379 7.539.385.197.789-.201.586-.588-3.975-7.514-12.945-15.164-22.043-13.25-.27.059-.303.445-.076.572 3.38 1.924 6.851 3.655 10.154 5.727z"/><path d="m406.62 371.193c2.518-3.695 4.713-7.299 8.117-10.283 3.24-2.844 6.586-5.104 9.508-8.324.418-.461.016-1.447-.672-1.156-7.648 3.221-18.482 9.893-17.475 19.623.03.277.36.382.522.14z"/><path d="m422.653 361.525c2.645-2.195 4.846-5.521 6.34-8.613.254-.525-.258-1.055-.787-.787-3.314 1.666-6.387 5.152-6.705 8.922-.053.646.748.814 1.152.478z"/><path d="m461.628 385.076c.357.607 1.16.285 1.227-.332.975-9.184-3.816-22.734-11.533-28.223-.256-.18-.635.119-.533.41 1.662 4.617 4.063 8.908 5.709 13.551 1.745 4.926 2.456 10.029 5.13 14.594z"/><path d="m423.335 461.478c7.938-3.115 15.162-7.338 23.41-9.914 8.264-2.578 16.83-4.127 25.105-6.682.758-.234.529-1.201-.176-1.295-14.549-1.914-41.068 3.029-48.787 17.311-.148.277.104.715.448.58z"/><path d="m439.997 462.865c-3.695-.156-7.676-.102-11.242.949-.959.283-.957 1.654 0 1.938 6.563 1.938 13.648 1.391 20.277.578.424-.051.75-.691.248-.92-3.254-1.479-5.629-2.393-9.283-2.545z"/><path d="m360.462 430.935c8.063 2.994 16.082 6.191 23.643 10.309 7.691 4.188 13.869 10.514 20.932 15.611.506.365 1.021-.318.787-.787-8.211-16.322-28.174-23.75-45.256-25.908-.471-.059-.493.632-.106.775z"/><path d="m405.851 448.912c.613.824 1.145 1.715 1.777 2.523.791 1.012 1.693 1.488 2.715 2.189.299.205.771-.064.742-.426-.189-2.484-.836-3.941-2.334-5.982-1.307-1.779-3.16-3.578-5.365-4.1-.414-.098-.961.301-.77.77.746 1.824 2.067 3.449 3.235 5.026z"/><path d="m397.782 475.748c-5.143 1.619-9.332 4.541-14.115 7.006-5.57 2.871-10.943 3.85-16.898 5.297-.395.096-.412.609-.107.811 4.896 3.271 12.223.453 17.125-1.391 5.838-2.191 11.652-5.215 14.721-10.777.263-.48-.169-1.12-.726-.946z"/><path d="m404.272 477.98c-2.908.074-4.594 2.449-5.705 4.977-.189.428.113.82.576.748 2.865-.449 5.543-2.18 5.623-5.23.006-.265-.23-.501-.494-.495z"/><path d="m426.739 481.283c-.367-.35-.934.002-.826.482.586 2.605 1.719 4.813 2.877 7.209.758 1.576 1.314 3.24 1.775 4.922.389 1.422.318 2.201 1.41 3.213.508.475 1.25.361 1.627-.209 1.539-2.322-.201-5.57-1.266-7.84-1.386-2.953-3.253-5.533-5.597-7.777z"/><path d="m542.588 516.738c9.287-10.594 11.297-31.764 5.342-44.305-.229-.482-.887-.195-.92.248-.49 6.539-.178 13.066-.422 19.613-.311 8.264-2.598 16.071-4.826 23.961-.129.46.492.862.826.483z"/><path d="m549.994 511.172c-.75 1.494-1.447 3.053-2.307 4.49-.166.279.111.705.447.58 2.166-.814 3.813-1.969 5.057-3.975.574-.928 1.084-2.195 1.084-3.303 0-.92-.756-1.99-1.109-2.814-.158-.373-.76-.252-.842.109-.223.996-.926 1.387-1.225 2.275-.308.905-.675 1.784-1.105 2.638z"/><path d="m572.064 523.664c5.287-3.35 8.121-7.727 10.191-13.451.193-.535-.539-.881-.91-.529-3.428 3.273-7.338 6.342-10.984 9.383-3.906 3.26-9.025 5.09-12.641 8.592-.227.221-.137.68.197.742 4.954.931 10.12-2.184 14.147-4.737z"/><path d="m565.217 529.641c-1.326.475-2.555.809-3.744 1.592-.309.205-.33.652 0 .852 2.016 1.225 6.391 1.363 7.568-1.117.346-.729.064-1.525-.727-1.787-1.148-.38-2 .067-3.097.46z"/><path d="m527.791 522.721c-3.719-1.91-7.604-1.824-11.686-2.586-3.416-.639-7.529-1.951-10.899-.68-.402.152-.695.74-.285 1.074 3.071 2.479 7.673 3.32 11.438 4.26 4.213 1.049 8.016 1.67 11.553-1.137.293-.234.193-.769-.121-.931z"/><path d="m532.373 527.465c-2.879-1.205-5.85.75-8.23 2.287-.252.162-.254.631.09.691 2.902.516 6.959.973 8.455-2.205.158-.336.015-.636-.315-.773z"/><path d="m331.198 374.619c.359.402.949.055.982-.408.49-6.711-2.281-13.238-3.781-19.703-2.07-8.938-2.068-17.561-2.158-26.635-.004-.438-.568-.566-.799-.217-4.213 6.438-3.203 15.348-2.117 22.588 1.219 8.117 2.203 18.015 7.873 24.375z"/><path d="m333.956 347.839c.342.24.861-.08.842-.484-.207-3.986-2.453-7.898-4.459-11.24-.184-.305-.682-.184-.676.184.068 4.074.682 8.997 4.293 11.54z"/><path d="m244.001 384.031c6.092 3.053 11.357 7.93 16.693 12.119.336.264 1.027.037.824-.48-4.594-11.668-24.418-24.285-37-18.625-.326.145-.186.594.09.689 6.567 2.32 13.006 3.096 19.393 6.297z"/><path d="m237.722 373.185c2.088.498 4.311 1.293 6.471 1.025.313-.039.635-.311.508-.666-1.365-3.828-8.6-4.463-11.807-2.904-.268.129-.318.555-.096.748 1.336 1.172 3.246 1.397 4.924 1.797z"/><path d="m182.359 489.308c8.146-6.777 16.077-12.631 25.677-17.203 9.303-4.43 19.479-6.422 28.951-10.406.664-.279.551-1.135-.166-1.227-18.418-2.355-46.943 11.168-55.135 28.316-.213.45.297.835.673.52z"/><path d="m218.917 477.503c-8.121-.332-18.445.797-23.566 8.109-.24.342.152.779.521.678 7.816-2.186 15.459-5.365 23.162-7.916.481-.158.391-.851-.117-.871z"/><path d="m306.017 333.097c1.5-1.305 2.455-2.701 4.223-3.789.445-.271.145-.904-.342-.811-3.662.713-6.51 1.648-9.254 4.221-2.543 2.387-4.465 5.363-4.748 8.846-.031.408.475.514.73.301 2.18-1.793 4.045-3.859 6.057-5.854 1.05-1.041 2.22-1.943 3.334-2.914z"/><path d="m339.192 322.451c4.777-2.078 10.15-1.941 14.785-4.143.373-.178.291-.686 0-.881-5.314-3.607-12.131-.42-15.371 4.438-.263.396.233.738.586.586z"/><path d="m220.29 404.056c.297.164.58-.055.619-.357.414-3.225-1.275-5.73-2.574-8.566-1.27-2.773-1.848-6.266-3.82-8.621-.191-.229-.621-.164-.748.098-1.344 2.717-.172 6.094.834 8.768 1.228 3.27 2.486 6.903 5.689 8.678z"/><path d="m208.386 506.498c-.492 0-.525.646-.109.809 10.891 4.232 31.178 2.275 39.119-7.199.414-.494.193-1.422-.57-1.377-5.85.35-11.35 3.107-16.939 4.709-7.025 2.011-14.197 3.058-21.501 3.058z"/><path d="m223.481 512.404c-.227.096-.227.5 0 .596 3.479 1.484 7.465 2.158 10.506-.5.207-.182.172-.607-.094-.723-3.476-1.515-6.997-.834-10.412.627z"/><path d="m162.969 491.06c.372.076.697-.225.606-.607-.848-3.641-3.25-6.6-4.507-10.113-1.242-3.479-.882-7.998-2.828-11.115-.183-.293-.687-.434-.932-.121-2.54 3.287-.969 8.645.107 12.244 1.165 3.898 3.146 8.829 7.554 9.712z"/><path d="m158.627 492.093c2.178-1.447-4.19-4.088-4.806-4.482-.292-.188-.679.121-.58.445.529 1.758 3.139 5.529 5.386 4.037z"/><path d="m639.736 503.223c.01.348.506.643.76.316 9.57-12.358 6.375-38.686-6.986-47.479-.287-.189-.66.184-.473.473 9.627 14.867 6.256 30.168 6.699 46.69z"/><path d="m645.512 503.877c.045.242.361.416.59.334 3.756-1.375 5.025-6.445 2.959-9.678-.225-.352-.678-.326-.908 0-1.858 2.617-3.212 6.098-2.641 9.344z"/><path d="m727.328 515.025c11.949 3.9 23.293 9.486 35.572 12.258.525.119.969-.533.543-.934-8.801-8.311-19.664-12.127-31.014-15.822-11.514-3.746-24.6-7.451-36.783-7.166-.205.004-.301.295-.109.398 9.742 5.327 21.27 7.835 31.791 11.266z"/><path d="m730.68 505.625c5.4 1.135 10.938 3.184 15.99 5.367.486.213.893-.303.557-.721-5.932-7.453-18.572-11.48-27.777-8.354-.203.066-.275.365-.063.479 3.414 1.823 7.531 2.44 11.293 3.229z"/><path d="m783.088 460.896c4.365 1.898 8.152 3.584 12.961 3.854.434.025.646-.553.35-.844-7.281-7.041-20.521-12.355-30.613-9.75-.281.072-.254.455 0 .539 5.823 1.943 11.661 3.746 17.302 6.201z"/><path d="m867.5 422.324c5.514 1.482 11.248 4.543 17.014 3.959.584-.059.814-.643.455-1.096-6.787-8.52-26.49-9.883-36.324-7.492-.225.055-.217.385 0 .445 6.201 1.713 12.626 2.506 18.855 4.184z"/><path d="m886.764 418.441c.412-.141.502-.584.24-.908-3.309-4.088-9.977-4.623-14.545-2.623-.154.068-.143.328 0 .398 4.139 2.025 9.676 4.729 14.305 3.133z"/><path d="m616.518 558.197c4.127 1.607 8.805 4.674 13.307 3.586.525-.129.582-.736.291-1.102-2.527-3.16-7.135-4.016-10.795-5.41-4.871-1.859-9.699-3.289-14.947-2.928-.344.021-.559.529-.191.705 4.034 1.913 8.178 3.528 12.335 5.149z"/><path d="m624.727 554.482c.908.41 1.826.807 2.746 1.189 1.439.596 2.707.518 4.174.959.416.123.66-.395.398-.688-.971-1.107-1.371-2.004-2.547-2.855-1.018-.734-2.342-1.154-3.496-1.629-2.34-.963-4.467-.975-6.885-1.256-.451-.051-.494.557-.207.768 1.936 1.417 3.59 2.507 5.817 3.512z"/><path d="m459.833 554.943c4.107 2.105 7.428 5.355 11.543 7.418.406.203 1.09-.145.871-.672-3.305-7.857-15.051-12.445-23.039-12.775-.295-.012-.4.41-.148.551 3.513 1.984 7.183 3.637 10.773 5.478z"/><path d="m589.982 576.463c1.492 1.016 2.953 1.982 4.285 3.213.938.863 1.67 1.391 2.945 1.639.367.072.621-.154.666-.508.385-2.953-2.773-4.68-4.9-6.092-3.006-2-6.213-2.945-9.586-4.041-.289-.094-.541.32-.305.523 2.229 1.93 4.452 3.598 6.895 5.266z"/><path d="m711 526.336c-4.16-1.393-8.957-2.789-13.375-2.158-.439.064-.424.674-.113.871 3.32 2.127 7.26 3.412 10.93 4.824 3.711 1.428 7.969 3.875 11.955 2.422.363-.135.66-.598.393-.969-2.292-3.185-6.239-3.803-9.79-4.99z"/><path d="m732.162 533.541c-.719-.682-1.975-.996-2.906-1.229-1.414-.354-3.191-.611-4.537.041-.414.199-.492.754-.293 1.125.639 1.201 2.123 1.885 3.318 2.42.818.367 1.646.652 2.494.947 1.004.35 1.697-.219 2.621-.299.471-.043.891-.557.582-1.018-.529-.79-.564-1.307-1.279-1.987z"/></g></g></g></svg>