<svg id="Fruit" height="512" viewBox="0 0 992.13 992.13" width="512" xmlns="http://www.w3.org/2000/svg"><g><path d="m66.976 724.801c-.061 1.137-.277 2.992-.445 4.436-.303 2.574-.68 5.781-.85 9.396-.799 16.645 7.949 30.008 23.393 35.746.725.27 1.295.504 1.734.699.443 2.004.922 5.162 1.209 7.07 1.375 9.123 7.643 25.129 33.98 31.482 1.836 4.338 4.869 10.951 11.207 17.354 7.311 7.385 16.035 11.129 25.938 11.129 3.992 0 7.387-.594 10.379-1.115.809-.143 1.656-.293 2.553-.428.26-.039.498-.072.719-.104.109.115.223.236.338.357 3.748 3.955 10.721 11.314 21.629 13.041 2.33.369 4.752.557 7.201.557 6.389 0 11.916-1.238 16.354-2.232.969-.219 2.123-.475 3.133-.676 7.762 6.855 17.475 10.461 28.271 10.461 5.215 0 10.564-.799 16.834-2.512 3.164-.863 6.693-1.785 8.531-1.785.4 0 1.332 0 3.951 1.434 8.318 4.559 15.898 5.084 20.877 5.084 1.186 0 2.41-.033 4.088-.082 10.883-.324 19.063-4.152 24.477-6.688 1.615-.756 3.828-1.793 4.229-1.92 0 0 .221.023.703.174 5.223 1.65 10.455 2.484 15.553 2.484 13.355 0 23.721-5.695 31.289-9.854 5.645-3.1 7.52-3.625 9.588-3.625.381 0 .771.02 1.178.051.852.07 1.727.166 2.615.258 2.682.281 6.021.633 9.666.633 5.094 0 9.666-.678 13.979-2.076 9.184-2.98 15.842-7.672 21.146-12.611.439.037.844.074 1.205.117 1.955.232 2.668.559 2.678.559 1.006.713 3.613 4.484 5.521 7.242l.883 1.279c6.934 9.99 16.893 15.721 27.326 15.721.709 0 1.799-.049 2.506-.111 1.953-.176 3.766-.264 5.387-.264 7.557 0 11.881 1.396 24.209 10.139 8.111 5.748 17.436 8.662 27.713 8.662 6.145 0 11.547-.992 16.313-1.863 3.096-.568 6.021-1.104 7.945-1.104.502 0 .742.037.771.037h.002c.033.02.168.092.402.273 10.051 7.793 23.846 16.734 41.422 16.734 9.441 0 19.104-2.535 29.537-7.748 1.182-.592 2.863-1.193 6.391-1.193 3.164 0 6.973.48 11.002.99 5.035.637 10.738 1.357 16.832 1.357 9.912 0 18.658-1.926 26.74-5.891 7.123-3.496 11.941-8.264 15.131-11.42.525-.521 1.168-1.158 1.699-1.656 3.615-.318 7.236-.699 10.857-1.082 6.168-.648 11.992-1.264 17.65-1.537 19.258-.93 31.404-12.4 36.107-34.088.002-.002.006-.002.008-.004 12.543-3.773 35.891-10.797 37.736-43.314.088-1.57.148-3.033.203-4.402.014-.295.025-.604.037-.914 9.555-5.986 15.471-14.377 17.59-24.959 3.113-15.533-6.299-27.115-10.316-32.061l-.865-1.076c-1.396-1.789-1.451-1.859-1.107-8.238.281-5.184.664-12.285-1.08-20.531-3.586-16.955-14.555-29.846-30.877-36.295-9.143-3.613-18.188-10.098-25.471-18.26-5.688-6.375-11.922-12.467-18.678-18.258 3.463-1.727 6.781-3.953 9.98-6.684 11.039-9.426 13.295-23.34 14.787-32.545.23-1.41.422-2.727.678-3.828 1.115-4.84 1.287-5.584 13.277-7.438 9.406-1.451 17.445-6.4 22.633-13.934 8.291-12.037 6.857-26.271 4.977-36.168 2.98-1.531 5.736-3.361 8.262-5.49 6.012.891 11.928 1.65 17.73 2.396l2.256.289c2.881.373 5.816.836 8.77 1.297 7.908 1.238 16.869 2.639 25.846 2.639 30.799 0 45.479-17.232 52.373-31.69 13.311-27.908 15.135-65.561-12.318-82.283-9.873-6.012-21.756-6.592-31.305-7.059-1.707-.084-4.047-.197-4.826-.305-9.658-1.32-19.916-3.227-33.262-6.184-1.26-.279-2.527-.568-3.813-.875-1.16-2.406-2.508-4.684-4.037-6.82.338-.607.672-1.225 1.004-1.857 7.303-13.979 9.412-34.588-22.008-53.398-.229-.139-.475-.285-.732-.439.068-.561.139-1.109.199-1.592 1.158-9.182 3.316-26.273-10.164-40.521-7.336-7.752-16.299-12.77-23.514-16.799-.293-1.75-.572-3.656-.779-5.08-.904-6.207-1.758-12.066-4.004-17.357-5.877-13.836-19.039-23.018-35.354-24.725-.268-.859-.596-2.025-.988-3.596-1.863-7.525-7.73-18.037-18.121-22.881-8.055-3.76-11.939-4.793-20.143-5.131-.426-.641-.98-1.512-1.699-2.689-8.291-13.576-20.281-20.539-35.643-20.703-3.924-6.221-10.227-15-21.563-18.393-3.131-.938-6.482-1.412-9.955-1.412-6.32 0-12.133 1.561-16.955 2.979-6.158-7.383-15.396-18.051-31.303-20.738-2-.338-4.061-.51-6.127-.51-5.859 0-11.326 1.357-16.313 3.303-6.691-7.348-15.891-13.521-28.721-13.521-3.129 0-6.293.41-9.404 1.219-3.291.857-6.297 2-8.984 3.053-6.734-6.688-16.865-14.033-30.875-14.033-8.764 0-16.557 2.502-23.285 5.521-.891-.547-1.725-1.064-2.4-1.486-4.281-2.662-7.371-4.586-10.602-5.926-4.18-1.736-8.631-2.617-13.232-2.617-11.371 0-20.35 5.334-25.777 8.559-2.473 1.469-4.664 3.107-6.588 4.719-.752-.32-1.541-.637-2.371-.941-6.68-2.459-12.861-3.654-18.898-3.654-10.285 0-24.283 3.504-35.242 19.248-.506-.047-1.027-.096-1.559-.145-2.988-.279-6.379-.6-10.084-.6-18.846 0-29.451 9.164-35.027 16.852-.201.275-.381.512-.539.709-1.781-.055-4.283-.34-6.719-.629-2.08-.248-4.133-.375-6.105-.375-11.693 0-21.947 4.383-29.65 12.67-5.168 5.555-7.752 11.916-9.32 17.379-4.973.43-11.174 1.461-17.371 4.764-11.41 6.074-18.816 14.391-22.643 25.418-.773 2.225-1.504 4.463-2.213 6.707-2.334.115-4.438.252-6.107.459-11.131 1.383-28.586 8.15-29.266 36.855-19.059 4.646-29.254 15.436-30.332 32.146-.441 6.801.24 12.934 1.053 18.475-.893.65-1.822 1.367-2.77 2.156-25.695 21.498-14.283 47.754-10.531 56.387 1.039 2.389 3.031 6.975 3.688 9.516l-.453.639c-4.977 6.904-14.238 19.754-10.59 38.029 2.268 11.352 9.953 18.998 15.115 23.574-.197.779-.402 1.58-.586 2.287 0 0-.84 3.178-1.17 4.381-3.49 12.744-10.75 39.258 13.867 56.527 4.434 3.114 9.186 4.768 13.863 6.194-.605 5.008-1.24 11.068-.582 17.707.867 8.74 7.195 37.367 52.158 38.805l1.301.02c.531 0 1.088-.012 1.668-.035.051.131.1.26.146.385 1.305 3.396 2.836 6.523 4.609 9.396-30.412 6.066-74.223 15.43-105.883 39.031-18.887 14.084-49.475 47.607-57.779 73.926-4.803 15.23-1.471 30.631 9.381 43.365.037.042.074.085.107.126z" fill="#fff"/><g><path d="m89.535 739.775c-.287 6.02 2.018 10.047 7.863 12.219 14.693 5.463 16.055 12.139 18.234 26.596 1.188 7.879 11.123 10.805 17.375 12.145 16.393 3.508 11.697 13.875 21.172 23.449 5.834 5.895 10.555 3.947 18.326 2.773 9.08-1.373 13.537-.719 20.215 5.652 2.463 2.35 6.092 7.086 9.766 7.668 13.213 2.088 26.195-9.326 37.791 2.406 6.795 6.879 15.506 6.059 23.98 3.742 11.197-3.059 18.799-4.537 30.252 1.742 4.377 2.398 8.014 2.215 12.779 2.072 14.408-.428 20.965-12.492 37.305-7.334 11.16 3.521 18.488-.215 28.154-5.525 8.055-4.426 14.645-7.229 24.213-6.447 5.416.443 11.596 1.635 16.943-.1 9.053-2.938 13.994-8.854 19.873-15.607 3.949 1.588 9.545 1.74 12.68 2.115 14.324 1.709 18.621 8.721 25.873 19.18 1.605 2.311 4.889 5.723 8.084 5.436 19.709-1.762 29.75 2.988 45.534 14.18 17.408 12.336 35.783-7.48 53.967 6.615 16.01 12.408 27.406 15.615 45.648 6.5 20.43-10.213 41.211 4.953 61.123-4.816 9.154-4.492 12.031-14.324 23.814-15.301 10.283-.854 20.586-2.311 30.895-2.809 20.119-.971 8.123-25.889 24.336-31.227 15.617-5.143 25.783-5.375 26.822-23.676.684-12.086-.623-17.063 10.887-23.889 3.979-2.359 6.471-5.242 7.371-9.727 1.035-5.174-3.818-10.195-6.596-13.754-10.908-13.98-3.713-24.287-6.723-38.518-2.148-10.16-8.361-15.895-16.291-19.027-12.75-5.039-24.803-13.689-34.51-24.57-14.396-16.135-31.951-29.326-51.346-40.105 7.184-7.865 13.984-15.131 26.281-13.656 7.695.924 12.924-.33 18.678-5.242 5.705-4.873 6.168-16.938 7.701-23.58 4.24-18.389 15.598-22.996 32.902-25.668 12.352-1.91 8.652-18.182 6.924-26.268-2.59-12.105-3.273-16.006 9.43-19.881 6.506-1.985 10.648-5.967 13.578-11.643 10.973 2.061 22.047 3.436 32.627 4.799 23.391 3.018 50.094 11.413 62.375-14.35 6.83-14.318 13.154-41.652-3.182-51.604-6.521-3.973-20.531-3.223-26.943-4.098-11.83-1.617-23.539-3.947-35.189-6.529-5.928-1.313-11.795-2.83-17.623-4.488-.818-7.773-4.152-14.736-11.592-18.943-7.219-4.086-5.521-1.807-.92-8.893 2.508-3.861 5.146-7.518 7.283-11.607 7.289-13.953-12.021-19.867-20.313-26.572-13.109-10.604 3.119-29.549-8.57-41.904-6.629-7.004-16.621-11.369-24.727-16.348-5.549-3.406-5.434-23.434-8.209-29.967-2.814-6.629-9.764-9.811-16.477-10.367-14.277-1.18-18.043-9.393-21.063-21.549-.547-2.209-2.76-5.916-5.041-6.98-5.473-2.555-6.186-2.773-12.295-2.953-10.621-.313-14.678-5.625-19.828-14.061-5.643-9.236-11.84-10.131-22.611-8.756-9.543 1.221-12.555-17.363-21.061-19.906-8.596-2.574-23.98 8.01-30.227 2.785-8.293-6.941-13.656-19.352-25.119-21.291-8.273-1.398-18.201 5.908-26.168 10.572-5.496-9.615-12.305-23.662-24.4-20.516-8.846 2.303-20.262 10.283-26.877 2.406-4.746-5.65-10.928-12.615-18.997-12.615-7.811 0-15.689 4.332-22.32 7.916-3.154 1.705-18.801-9.84-23.127-11.635-6.037-2.508-12.738 1.498-17.652 4.418-3.303 1.961-6.189 4.996-8.975 7.602-7.26 6.791-13.395.643-20.43-1.945-13.035-4.797-21.742-1.832-28.441 10.301-8.965 16.234-33.006-3.227-44.793 13.016-8.557 11.789-16.33 11.326-29.412 9.768-6.195-.738-11.338.43-15.441 4.844-3.664 3.939-4.52 10.855-5.816 15.791-3.41 12.992-17.865 6.227-27.139 11.168-5.258 2.799-9.273 6.309-11.305 12.166-1.789 5.156-3.332 10.375-4.936 15.594-2.408 7.855-16.832 6.678-23.004 7.443-12.059 1.498-7.916 17.975-7.617 26.041.547 14.809-29.98 3.592-31.094 20.805-.49 7.598 1.219 14.992 2.201 22.492 1.041 7.963-6.869 10.271-12.424 14.916-10.672 8.928-8.855 17.266-3.953 28.543 5.127 11.793 9.064 21.695 2.217 31.521-4.236 6.078-9.877 12.381-8.055 21.51.988 4.945 6.135 9.158 9.654 12.227 9.094 7.928 7.047 14.717 4.375 25.074-3.234 12.516-8.625 26.092 3.492 34.594 5.563 3.902 23.506 5.082 24.555 13.127 1.201 9.213-2.148 18.635-1.223 27.965 1.418 14.273 17.758 16.928 29.156 17.293 5.518.176 16.035-2.637 19.809 3.355 2.201 3.496 3.35 8.445 4.84 12.328 2.246 5.852 5.32 10.047 10.609 13.311 5.883 3.629 15.789 1.979 22.207 1.67 8.57-.41 14.426 3.957 19.654 9.643 5.115 5.563 1.133 5.674-7.375 6.83-18.404 2.492-36.65 5.658-54.574 9.217-31.365 6.23-71.904 14.652-99.814 35.459-16.936 12.629-43.059 42.248-49.281 61.965-2.082 6.605-1.328 13.52 4.783 20.689 8.952 10.502 5.083 18.203 4.493 30.593z" fill="#68182b"/><path d="m786.166 706.795c-1.67 6.938-1.857 12.146.09 18.973.889 3.105 14.441 20.824 11.869 22.674-4.844 3.48-10.52 5.531-13.713 10.982-2.307 3.939-2.217 8.156-2.277 12.543-.08 5.418.07 10.803-.703 16.189-.518 3.609-14.697 5.92-18.502 6.789-12.65 2.887-15.613 15.711-17.621 26.566-1.588 8.592-37.037 6.492-44.471 8.869-4.426 1.416-8.236 5.16-11.551 8.211-11.293 10.387-21.363 9.014-35.518 6.541-21.887-3.824-43.771 14.531-63.371 2.365-13.969-8.674-20.389-14.164-37.934-10.279-20.678 4.584-35.318-13.268-55.676-16.322-8.717-1.305-13.861 2.971-19.031-5.266-3.094-4.928-7.139-11.371-12.5-14.121-4.727-2.422-8.951-3.568-14.217-4.152-14.254-1.588-14.252-5.318-21.002-16.662-6.34-10.652-23.764-4.426-29.059-17.355-4.955-12.098 3.535-21.572-8.461-31.203-5.334-4.283-25.6-8.375-20.467-20.459 2.658-6.258 5.279-10.463 5.324-17.332.02-3.293-2.568-7.625-4.912-9.781-11.715-10.764-4.504-20.014-.85-32.273 2.344-7.871 1.34-15.088.59-23.219-.838-9.064 3.945-13.672 10.473-16.227 6.15-2.402 6.902-.061 4.393 5.582-10.842 24.404-3.986 54.24 12.082 74.713 54.465 69.387 160.004 97.102 243.821 103.512 40.748 3.115 81.457-4.273 112.061-33.195 23.846-22.537 24.793-52.508 13.037-79.27 12.168 1.777 21.672 7.73 18.096 22.607z" fill="#b1d045"/><path d="m755.174 680.617c.154.346.342.676.566.982 5.063 9.135 8.596 18.953 9.826 29.449 5.754 48.988-55.225 73.367-94.135 75.834-76.17 4.832-163.898-23.182-226.047-65.898-28.008-19.25-54.939-45.48-52.758-81.971 2.531-42.406 50.436-58.082 85.566-60.957 72.44-4.121 149.819 10.4 213.694 45.41 23.671 12.973 49.208 32.446 63.288 57.151z" fill="#fbf199"/><path d="m901.666 442.855c1.893 7.887 1.463 17.846-2.369 25.51-8.357 16.719-21.443 26.34-27.674 3.471-1.594-5.854-.844-12.832.342-18.652 1.361-6.688 5.236-12.455 10.471-16.047 7.46-5.122 16.697-4.809 19.23 5.718z" fill="#aa8053"/><path d="m815.236 418.068c.605.309 1.268.498 1.949.576 9.035 2.688 18.17 5.102 27.455 7.158 11.49 2.547 23.133 4.334 34.799 5.869-7.699 5.182-13.135 14.037-14.354 23.973-1.168 9.551-.934 20.01 5.203 27.877.055.072.135.117.193.188-18.645-.043-66.27-5.02-96.217-20.57-9.518-4.939-10.219-4.17-11.525-14.217 23.783 9.795 48.871 18.689 74.49 21.195.783.076.785-1.014.172-1.26-22.744-9.172-46.371-16.135-69.559-24.199-6.238-2.168-9.557-7.451-14.262-16.496-5.643-10.842-.656-17.369 5.695-26.213.9-1.258 1.846-2.555 2.797-3.875 17.397 7.812 35.057 14.513 53.164 19.994z" fill="#aa8053"/><path d="m275.441 554.617c-13.453.248-23.803.586-29.047-14.02-1.764-4.906-4.078-11.918-9.004-14.615-15.809-8.656-44.684 8.67-41.576-22.102 1.656-16.438 1.656-24.67-14.262-31.118-4.857-1.969-9.775-3.242-14.537-5.527-4.488-2.154-.529-14.451.17-17.703 1.367-6.352 5.801-14.697 5.611-21.197-.445-15.17-24.326-21.359-13.676-36.617 9.039-12.945 9.74-22.834 3.727-36.971-5.766-13.551-9.428-18.844 4.094-28.805 3.037-2.234 7.982-4.025 9.201-8.033 4.359-14.32-10.043-30.449 10.105-34.193 17.344-3.221 20.346-10.492 19.125-27.145-.848-11.555 5.332-7.096 14.799-8.467 6.779-.98 9.717-2.969 13.684-8.344 8.439-11.438 3.057-27.484 24.627-28.418 5.883-.256 12.008-.178 15.854-5.479 3.992-5.502 5.334-11.725 7.057-18.213 2.922-10.99 23.391-2.17 31.846-3.563 4.781-.789 8.469-6.682 11.057-10.17 10.951-14.758 21.17-4.393 34.145-6.211 4.971-.697 9.092-2.605 11.811-7.125 7.512-12.486 13.08-14.945 27.479-8.697 4.857 2.109 10.102 3.65 15.369 2.201 1.893-.52 3.867-1.9 5.213-3.305 11.789-12.291 27.193-9.926 39.721.449 1.75 1.453 4.301 2.227 6.381.824 5.969-4.023 11.291-6.699 18.305-8.9 7.559-2.373 17.53 12.703 22.03 17.105 1.705 1.668 4.309 2.012 6.381.824 6.922-3.965 22.586-12.783 29.816-2.262 3.043 4.43 5.521 9.236 8.566 13.686 1.756 2.572 4.432 3.123 7.203 1.889 6.805-3.025 13.143-6.639 19.656-10.227 7.629-4.205 24.1 17.43 28.951 21.49 1.996 1.67 4.027 1.873 6.381.822 9.42-4.189 19.926-9.506 26.871.295 2.016 2.846 3.895 5.252 6.117 7.938 3.721 4.508 8.385 5.865 13.854 6.541 8.422 1.043 12.805 1.561 16.313 11.123.809 2.203 1.77 4.701 3.488 6.342 5.332 5.09 9.721 6.125 17.156 5.938 15.238-.381 12.762 12.008 19.541 21.502 3.885 5.441 11.49 7.396 17.561 8.762 27.957 6.295 7.732 25.096 22.615 37.063 9.926 7.98 29.016 11.625 27.693 26.313-1.271 14.104-3.975 22.496 7.008 32.762 4.963 4.637 11.025 8.299 16.795 11.814 4.605 2.807-2.99 10.049-5.414 13.6-2.498 3.66-5.471 8.152-5.471 12.787 0 6.801 6.133 8.752 10.973 12.598 3.531 2.803 3.156 3.828-1.035 2.396-12.844-4.387-25.445-9.477-37.832-15.029 2.521-4.313 4.535-8.854 5.164-13.592.969-7.289-.885-5.254-3.955-.801-5.395 7.828-10.639 15.641-16.494 23.242-5.135 6.664-12.354 14.707-9.84 23.92 2.617 9.586 8.51 17.82 11.988 27.094 4.518 12.043-1.719 22.867-6.598 33.744-.256.568.285 1.27.9.9 6.939-4.156 11.225-9.373 13.359-15.264 9.225 5.945 19.496 10.117 30.217 13.195 4.68 1.34 7.488 2.682 1.211 5.594-8.166 3.795-18.221 3.941-19.139 16.239-.504 6.738 2.416 14.32 3.803 20.807 2.852 13.318-10.479 10.105-19.844 14.439-5.428 2.512-13.768 6.342-16.318 12.373-3.332 7.881-5.416 36.205-16.455 36.869-8.059.484-14.832-2.018-22.836.479-7.232 2.256-12.645 11.578-17.648 18.135-47.814-23.885-104.984-34.385-153.75-38.461-17.791-1.486-35.688-1.629-53.506-.613-15.967 1.305-32.26 4.395-46.938 10.459-5.748 2.369-8.832 2.588-14.574 1.793-32.803-4.521-66.348-4.453-99.693-1.607-7.596.646-9.068.42-12.914-4.334-7.81-9.624-15.333-19.464-28.636-19.218z" fill="#b1d045"/><path d="m111.109 666.973c13.172-48.877 91.295-60.145 132.393-67.953 51.203-9.729 105.982-15.818 158.424-10.477 5.889.598 7.93 1.256 3.494 5.186-5.758 5.09-4.07 4.93-10.541 5.76-11.287 1.451-22.875 3.936-29.672 13.887-3.168 4.641-3.408 10.318-3.533 15.697-.229 9.816 2.826 13.82-2.1 24.303-2.582 5.492-5.393 10.447-7.309 16.205-1.695 5.084.791 10.229 3.754 14.111 7.119 9.33 10.289 14.785 5.242 26.666-6.096 14.361 9.363 22.877 20.646 27.695 5.275 2.252-1.301 3.254-5.238 3.838-49.947 7.42-101.588 6.207-151.559.531-39.21-4.453-129.919-16.387-114.001-75.449z" fill="#fbf199"/><path d="m93.025 687.672c3.939-9.66 4.588-3.215 5.434 1.822 6.498 38.574 65.172 53.227 97.602 59.213 59.709 11.016 123.82 12.523 184.109 3.275 6.869-1.055 10.273.268 10.508 5.182.361 7.676.771 15.621 8.199 20.357 5.004 3.189 10.275 4.832 15.963 6.42 3.063.855 5.246 2.652 7.016 4.898 4.045 5.137 3.441 10.326-.949 14.16-6.385 5.576-13.111 8.502-23.945 7.402-10.246-1.041-16.395.506-25.164 5.42-13.76 7.715-21.83 6.238-37.18 3.977-14.391-2.119-23.158 15.648-39.244 6.836-5.697-3.125-11.564-6.346-18.375-4.984-5.424 1.082-10.34 2.752-15.539 4.619-10.486 3.768-18.301-6.891-26.186-11.033-4.422-2.324-10.729-.791-14.99 1.041-17.008 7.314-18.607-6.264-31.875-9.568-6.379-1.588-12.262-.787-18.701.092-12.012 1.637-11.736-10.029-17.16-18.746-2.703-4.352-7.738-5.641-12.371-6.725-15.178-3.547-14.053-12.51-17.371-25.406-1.084-4.213-4.592-7.568-8.557-9.102-13.762-5.311-15.811-8.334-12.309-23.189 1.373-5.822.012-10.689-3.861-15.301-6.829-8.125-7.533-14.574-5.054-20.66z" fill="#b1d045"/><path d="m792.676 481.666c-10.721-3.078-20.992-7.25-30.217-13.195-2.135 5.891-6.42 11.107-13.359 15.264-.615.369-1.156-.332-.9-.9 4.879-10.877 11.115-21.701 6.598-33.744-1.928-5.139-4.586-9.963-7.031-14.869-.303 7.748-1.924 15.139-5.342 22.17-5.35 11.004-12.047 19.41-11.902 32.176.08 6.965 2.219 13.858 2.68 20.805.664 10.01-5.16 18.387-11.895 25.039-15.086 14.904-33.031 11.951-51.539 6.795-11.188-3.115-21.832-3.273-32.711.969-12.988 5.072-22.701 15.221-37.105 16.891-20.441 2.369-36.436-16.387-54.184-23.145-8.869-3.377-17.574-4.664-26.969-2.883-15.053 2.855-26.532 15.844-42.768 13.592-11.215-1.557-19.957-12.475-28.934-18.6-7.951-5.426-17.367-7.186-26.822-6.537-20.389 1.395-38.703 14.605-57.83 20.561-12.059 3.754-24.191 3.361-35.363-2.777-10.994-6.045-17.941-18.105-27.072-26.402-22.525-20.465-52.381-3.725-78.395-9.291-12.963-2.775-11.574-17.02-20.793-23.471-3.293-2.307-7.053-2.955-10.877-2.691 7.406 5.877 7.156 13.688 5.869 26.461-3.107 30.771 25.768 13.445 41.576 22.102 4.926 2.697 7.24 9.709 9.004 14.615 5.244 14.605 15.594 14.268 29.047 14.02 13.303-.246 20.826 9.594 28.633 19.219 3.846 4.754 5.318 4.98 12.914 4.334 33.346-2.846 66.891-2.914 99.693 1.607 5.742.795 8.826.576 14.574-1.793 14.678-6.064 30.971-9.154 46.938-10.459 17.818-1.016 35.715-.873 53.506.613 48.766 4.076 105.936 14.576 153.75 38.461 5.004-6.557 10.416-15.879 17.648-18.135 8.004-2.496 14.777.006 22.836-.479 11.039-.664 13.123-28.988 16.455-36.869 2.551-6.031 10.891-9.861 16.318-12.373 9.365-4.334 22.695-1.121 19.844-14.439-1.387-6.486-4.307-14.068-3.803-20.807.918-12.297 10.973-12.444 19.139-16.239 6.277-2.915 3.468-4.257-1.211-5.596z" fill="#abab38"/><path d="m781.432 788.156c.57-3.963.637-7.926.666-11.898-3.57 2.082-7.727 3.619-12.477 4.611-9.594 2.002-16.348 2.969-23.096 10.611-7.744 8.775-11.59 19.33-25.008 20.238-5.238.354-10.17-.566-15.365.594-4.848 1.08-9.092 4.469-13.043 7.275-4.869 3.459-10.01 8.096-16.191 8.855-6.555.809-14.414-2.969-20.377-5.24-11.154-4.25-20.279-6.893-32.006-3.67-14.311 3.936-24.207 12.193-39.146 3.357-6.588-3.896-9.27-13.355-16.334-16.117-8.99-3.512-19.131-.623-28.125 1.453-9.031 2.086-16.955 2.475-25.254-2.152-6.148-3.428-10.154-9.109-16.648-12.086-3.715-1.703-8.829-1.674-12.797-1.604-11.447.197-19.348-.355-26.09-11.035-5.473-8.668-9.762-14.07-19.916-16.664-7.623-1.949-14.568-4.418-18.598-11.65-2.277-4.088-2.732-9.395-3.846-13.881-1.896-7.635-5.943-13.189-13.523-15.498-8.164-2.484-22.195-.984-20.131-15.418.545-3.82.695-6.955-.385-10.691-1.246-4.316-6.086-9.715-11.121-12.822 2.303 2.199 4.775 6.4 4.756 9.621-.045 6.869-2.666 11.074-5.324 17.332-5.133 12.084 15.133 16.176 20.467 20.459 11.996 9.631 3.506 19.105 8.461 31.203 5.295 12.93 22.719 6.703 29.059 17.355 6.75 11.344 6.748 15.074 21.002 16.662 5.266.584 9.49 1.73 14.217 4.152 5.361 2.75 9.406 9.193 12.5 14.121 5.17 8.236 10.314 3.961 19.031 5.266 20.358 3.055 34.999 20.906 55.676 16.322 17.545-3.885 23.965 1.605 37.934 10.279 19.6 12.166 41.484-6.189 63.371-2.365 14.154 2.473 24.225 3.846 35.518-6.541 3.314-3.051 7.125-6.795 11.551-8.211 7.434-2.377 42.883-.277 44.471-8.869 2.008-10.855 4.971-23.68 17.621-26.566 3.802-.868 17.982-3.178 18.5-6.788z" fill="#abab38"/><path d="m261.458 826.27c5.199-1.867 10.115-3.537 15.539-4.619 6.811-1.361 12.678 1.859 18.375 4.984 16.086 8.813 24.854-8.955 39.244-6.836 15.35 2.262 23.42 3.738 37.18-3.977 8.77-4.914 14.918-6.461 25.164-5.42 10.834 1.1 17.561-1.826 23.945-7.402 4.391-3.834 4.994-9.023.949-14.16-1.045-1.328-2.268-2.467-3.699-3.377-8.322 7.678-20.291 4.77-32.045 6.709-18.346 3.027-30.436 18.967-50.451 15.885-16.033-2.471-27.414-12.107-44.168-7.223-8.438 2.459-15.764 6.768-24.678 7.666-9.984 1.008-19.32-6.051-27.58-10.748-12.807-7.279-24.254-5.002-38.281-4.844-15.131.174-20.094-15.707-33.283-19.93-6.455-2.064-13.48-1.691-20.002-3.605-12.162-3.572-9.391-16.713-13.871-25.621-5.758-11.453-25.926-8.182-32.463-17.389-2.58 12.521.041 15.492 12.914 20.459 3.965 1.533 7.473 4.889 8.557 9.102 3.318 12.896 2.193 21.859 17.371 25.406 4.633 1.084 9.668 2.373 12.371 6.725 5.424 8.717 5.148 20.383 17.16 18.746 6.439-.879 12.322-1.68 18.701-.092 13.268 3.305 14.867 16.883 31.875 9.568 4.262-1.832 10.568-3.365 14.99-1.041 7.886 4.143 15.7 14.801 26.186 11.034z" fill="#abab38"/><path d="m713.605 303.527c-1.543.355-3.033-.988-2.59-2.59.389-1.41.844-2.809 1.314-4.213 1.404-4.227 2.223-6.145-.602-9.402-4.582-5.299-10.066-10.451-16.451-15.385-4.109-3.172-2.713-2.379-10.676.695-1.262.486-2.561.883-3.908 1.143-1.529.297-3.055-.947-2.59-2.59 2.514-8.9 3.441-9.451-4.559-14.844-5.785-3.902-11.67-7.674-17.652-11.303-5.74-3.486-8.324-4.381-12.408-.746-.889.787-1.777 1.57-2.67 2.35-1.396 1.221-3.508.406-3.596-1.488-.07-1.523-.07-3.041-.037-4.559.152-6.807.51-5.977-5.443-9.211-1.268-.688-2.533-1.365-3.816-2.023-8.834-4.535-17.818-8.645-26.932-12.365-9.57-3.91-8.41-3.326-14.326 1.777-.662.572-1.355 1.111-2.094 1.605-1.479.994-2.982-.377-3.17-1.818-.148-1.133-.209-2.273-.234-3.418-.086-3.869-1.508-6.057-4.842-7.135-14.275-4.631-28.828-8.363-43.619-11.182-9.174-1.746-8.625-.609-12.215 5.135-.564.906-1.156 1.791-1.777 2.656-.84 1.172-2.883 1.549-3.637 0-.578-1.186-.979-2.449-1.322-3.738-1.881-7.027-2.924-7.57-9.643-8.316-9.645-1.074-19.372-1.803-29.172-2.154-2.043-.074-4.088-.125-6.131-.158-6.398-.094-7.943 1.762-9.619 7.701-.357 1.268-.723 2.529-1.084 3.793-.473 1.654-3.016 2.199-3.85.504-.699-1.422-1.209-2.961-1.688-4.52-1.41-4.596-2.146-7.408-8.99-7.072-12.279.615-24.533 1.844-36.664 3.719-10.576 1.639-7.582.834-9.773 7.408-.322.965-.695 1.912-1.121 2.834-.547 1.186-2.471 1.398-3.307.426-.781-.91-1.484-1.875-2.162-2.859-2.141-3.113-2.957-4.281-7.668-3.213-3.42.779-6.83 1.607-10.221 2.492-8.207 2.146-7.721 1.961-8.779 9.121-.176 1.18-.361 2.357-.563 3.535-.285 1.686-2.443 1.863-3.52.93-1.02-.889-2.033-1.787-3.047-2.684-5.01-4.426-2.988-5.398-11.779-2.176-4.389 1.609-8.742 3.32-13.047 5.143-6.426 2.723-7.234 4.232-6.436 9.129.195 1.193.375 2.387.518 3.578.242 2.055-2.361 2.471-3.596 1.49-1.109-.881-2.139-1.855-3.164-2.83-4.473-4.268-4.828-3.178-10.701.105-7.467 4.18-14.693 8.75-21.65 13.668-4.24 2.998-5.658 4.889-4.816 9.826.213 1.26.438 2.52.672 3.773.408 2.174-1.854 3.359-3.52 2.049-.695-.547-1.418-1.045-2.164-1.508-3.299-2.041-6.105-1.992-10.801 2.133-2.795 2.453-5.547 4.982-8.225 7.586-3.271 3.189-3.629 6.328.209 10.664 1.113 1.256.48 3.752-1.488 3.596-6.559-.521-9.631-2.965-13.986 2.764-2.129 2.803-4.123 5.689-5.977 8.652-3.432 5.48-1.945 5.895 1.705 10 1.164 1.311.447 3.65-1.49 3.596-.971-.027-1.936-.002-2.893.063-4.938.33-4.818-.15-6.588 5.115-14.277 42.445 32.961 74.373 67.039 91.168 49.432 24.363 104.963 38.619 160.352 42.785 56.667 4.264 113.694-4.807 166.647-24.164 24.383-8.912 45.91-21.777 67.572-35.432 36.967-23.316 46.678-52.076 33.863-78.918-.66-1.383-2.621-2.682-6.361-1.518-1 .311-2.013.59-3.041.825z" fill="#d7e338"/><path d="m225.111 742.422c49.971 5.676 101.611 6.889 151.559-.531 3.938-.584 10.514-1.586 5.238-3.838-11.283-4.818-26.742-13.334-20.646-27.695 3.412-8.037 3.008-13.141.223-18.484-6.623 47.344-88.238 42.758-124.914 39.176-25.07-2.447-51.486-4.4-75.439-12.469-15.979-5.381-29.795-15.201-37.936-30.18-6.707-12.346-7.061-25.826-3.82-38.701-3.703 5.174-6.547 10.896-8.266 17.273-15.919 59.062 74.79 70.996 114.001 75.449z" fill="#f3af79"/><path d="m765.566 711.049c-1.23-10.496-4.764-20.314-9.826-29.449-.057-.08-.092-.17-.143-.25 5.34 27.422 2.559 54.9-23.539 73.199-34.555 24.23-84.883 22.559-124.598 16.859-48.994-7.029-100.369-21.857-142.364-48.633-40.203-25.633-83.336-79.9-48.648-124.736-13.244 9.459-22.734 22.74-23.822 40.975-2.182 36.49 24.75 62.721 52.758 81.971 62.149 42.717 149.877 70.73 226.047 65.898 38.911-2.467 99.889-26.846 94.135-75.834z" fill="#f3af79"/><path d="m340.083 670.229c-2.385-1.529-5.455-2.143-8.08-.959-.26.117-.234.529 0 .654 2.209 1.184 4.164 2.34 5.926 4.162 1.912 1.977 3.473 3.1 6.107 3.949.271.088.643-.156.605-.459-.405-3.433-1.622-5.465-4.558-7.347z" fill="#fff7cf"/><path d="m350.156 619.148c.279-.406-.092-.977-.553-.967-3.91.07-6.809 1.309-9.791 3.873-1.488 1.279-2.73 2.678-3.83 4.297-1.104 1.623-1.074 3.26-1.646 5.055-.119.375.428.729.688.4 1.039-1.305 2.949-2.281 4.287-3.307 1.383-1.057 2.785-2.084 4.254-3.018 2.745-1.747 4.759-3.674 6.591-6.333z" fill="#fff7cf"/><path d="m258.865 671.906c.555-.299.23-1.012-.291-1.074-13.053-1.564-30.084 6.77-35.867 18.881-.154.326.172.73.518.52 5.4-3.311 10.543-6.938 16.244-9.74 6.386-3.141 13.105-5.206 19.396-8.587z" fill="#fff7cf"/><path d="m307.722 710.363c.119.602.893.459 1.076 0 3.285-8.137 2.072-20.338-3.029-27.59-.205-.295-.807-.338-.871.113-.656 4.484.459 9.133 1.012 13.592.576 4.676.888 9.252 1.812 13.885z" fill="#fff7cf"/><path d="m290.289 635.287c1.588-4.605.688-8.451-1.715-12.648-2.361-4.125-5.691-5.943-9.99-7.303-.264-.084-.381.277-.18.422 6.205 4.357 7.699 13.307 10.891 19.658.226.451.849.281.994-.129z" fill="#fff7cf"/><path d="m532.529 623.801c-.439-.135-.836.484-.465.797 7.656 6.459 14.65 14.348 20.613 22.383.293.396.996.182.842-.355-3.093-10.733-10.06-19.491-20.99-22.825z" fill="#fff7cf"/><path d="m279.972 683.678c-4.479 6.188-8.912 13.535-10.787 21.023-.059.225.197.455.41.314 6.813-4.488 10.742-12.863 11.91-20.691.143-.947-.957-1.441-1.533-.646z" fill="#fff7cf"/><path d="m242.851 634.877c3.492 1.389 6.488 2.953 9.582 5.08 2.707 1.861 5.035 3.588 8.195 4.697.322.113.68-.246.566-.568-2.529-7.17-10.723-13.377-18.457-10.08-.427.18-.214.74.114.871z" fill="#fff7cf"/><path d="m614.652 691.447c-.18.049-.25.252-.166.412 1.74 3.285 6.801 4.887 9.861 6.818 3.904 2.459 7.396 5.486 11.969 6.352.488.092.902-.287.791-.789-1.098-4.93-4.854-7.033-9.121-9.289-3.377-1.789-9.552-4.551-13.334-3.504z" fill="#fff7cf"/><path d="m653.34 665.35c-6.721-1.383-21.77-4.68-25.563 3.666-.137.301.023.627.369.645 4.219.232 8.582-.936 12.881-.91 4.406.027 8.4-.412 12.465-2.229.506-.225.367-1.067-.152-1.172z" fill="#fff7cf"/><path d="m551.201 705.439c2.227-1.838 3.904-3.955 5.947-5.994 2.271-2.266 3.9-5.021 6.139-7.309.387-.396.002-1.219-.576-.992-3.283 1.283-6.26 2.535-8.58 5.283-2.201 2.611-3.59 5.314-3.66 8.709-.008.403.459.526.73.303z" fill="#fff7cf"/><path d="m593.922 697.809c2.379 3.898 6.209 7.033 8.838 10.857 1.412 2.051 2.594 4.252 3.93 6.354 1.223 1.93 2.965 2.951 4.672 4.363.529.438 1.201.02 1.102-.641-.426-2.756-.594-4.867-1.912-7.41-1.232-2.383-2.84-4.676-4.494-6.781-2.658-3.391-6.918-7.918-11.637-7.607-.421.027-.741.472-.499.865z" fill="#fff7cf"/><path d="m500.189 689.418c15.443-6.428 29.525-11.662 46.355-13.131.611-.053.693-.813.141-1.033-15.367-6.186-35.26 3.527-46.736 13.75-.176.158.01.508.24.414z" fill="#fff7cf"/><path d="m621.482 621.957c-5.402 1.943-10.322 4.215-14.564 8.158-3.656 3.398-7.721 8.541-6.748 13.844.063.332.5.393.717.189 3.455-3.238 5.887-7.414 9.402-10.662 3.875-3.58 7.836-7.064 11.689-10.678.362-.335-.009-1.025-.496-.851z" fill="#fff7cf"/><path d="m578.936 720.496c3.258-6.342 5.213-14.16 1.416-20.693-.25-.432-.965-.256-.951.258.191 6.787-2.26 13.195-2.271 19.945-.003.933 1.358 1.367 1.806.49z" fill="#fff7cf"/><path d="m624.949 686.781c-.24.039-.24.369-.064.48 2.369 1.502 5.109 2.203 7.721 3.166 3.273 1.207 5.934 1.916 9.398 2.201.387.029.506-.457.291-.703-4.078-4.659-11.309-6.163-17.346-5.144z" fill="#f3af79"/><path d="m643.748 656.279c-5.236-2.398-10.879-.197-14.797 3.598-.32.313-.098.969.385.928 4.957-.414 9.93-1.195 14.412-3.473.387-.197.412-.863 0-1.053z" fill="#f3af79"/><path d="m597.572 623.314c-2.455 2.506-3.783 4.555-4.529 8.039-.609 2.838-.574 5.848.617 8.504.193.432.906.408 1.107 0 2.416-4.922 3.49-10.75 3.732-16.158.024-.478-.604-.711-.927-.385z" fill="#f3af79"/><path d="m580.279 625.428c.191 5.436-.086 10.326 2.57 15.219.221.412.756.254.9-.117 2.172-5.512.639-10.455-2.184-15.451-.331-.589-1.309-.343-1.286.349z" fill="#f3af79"/><path d="m539.873 643.256c1.537 1.496 3.098 3.121 5.111 3.973.361.152.9-.012.865-.498-.355-4.85-5.859-9.551-10.762-8.17-.293.082-.404.469-.18.688 1.536 1.499 3.421 2.499 4.966 4.007z" fill="#f3af79"/><path d="m535.822 664.85c-2.418-.021-4.766.482-6.672 2.031-.256.205-.088.602.182.688 1.729.549 3.561.58 5.346.857 2.115.328 3.838.467 5.988.375.326-.016.643-.41.412-.719-1.355-1.824-2.824-3.211-5.256-3.232z" fill="#f3af79"/><path d="m557.941 685.102c-3.121.244-6.309.957-8.736 3.049-2.295 1.975-5.309 4.807-5.174 8.098.012.254.232.422.48.363 2.527-.586 4.406-2.875 6.268-4.541 2.346-2.102 4.723-4.398 7.41-6.049.397-.241.264-.961-.248-.92z" fill="#f3af79"/><path d="m573.037 698.049c-.115-.057-.275-.037-.34.088-1.17 2.365-1.904 5.293-.758 7.844.129.291.518.264.721.092 2.18-1.829 3.445-6.518.377-8.024z" fill="#f3af79"/><path d="m601.564 694.004c-.094.068-.158.18-.119.299.635 2.012 2.715 4.186 4.861 4.1.209-.008.336-.131.412-.314 1.079-2.661-2.73-5.782-5.154-4.085z" fill="#f3af79"/><path d="m620.814 669.059c-2.482-.984-4.338-1.268-6.986-.814-1.982.34-4.539 1.41-5.186 3.463-.045.145.051.279.184.322 1.6.545 3.512.01 5.137-.285 2.492-.457 4.494-.895 6.852-1.857.402-.165.408-.665-.001-.829z" fill="#f3af79"/><path d="m625.02 674.654c-1.672-2.102-4.373-1.979-6.258-.209-.322.297-.26.906.141 1.109 2.102 1.063 4.084 1.127 6.035-.254.232-.167.257-.427.082-.646z" fill="#f3af79"/><path d="m333.91 662.527c-.268.234-.113.678.205.77 2.291.65 4.807.709 7.174.943 2.645.264 4.805.756 7.344-.314.277-.117.365-.555.207-.789-3.012-4.44-11.208-3.885-14.93-.61z" fill="#f3af79"/><path d="m300.794 614.395c-1.086 2.723-.732 6.021-1.018 8.916-.342 3.465-.861 6.385-.598 9.891.031.406.553.721.869.359 2.436-2.766 3.385-5.326 3.813-8.969.393-3.342.295-8.02-2.49-10.35-.21-.178-.476-.099-.576.153z" fill="#f3af79"/><path d="m260.347 631.109c-.322-.137-.58.293-.428.555 1.039 1.787 1.785 3.672 2.432 5.631.602 1.824 1.674 3.02 3.008 4.326.332.33.838.074.869-.359.178-2.41.123-4.174-1.156-6.322-1.09-1.831-2.807-3.03-4.725-3.831z" fill="#f3af79"/><path d="m239.792 669.746c-.248.285-.082.713.303.73 2.896.145 5.67-.881 8.391-1.777 3.117-1.027 6.201-1.984 9.299-3.084.461-.164.445-.75 0-.92-5.983-2.295-13.805.252-17.993 5.051z" fill="#f3af79"/><path d="m273.503 682.248c-3.438 2.258-3.922 6.223-4.381 9.969-.066.541.729.828 1.068.441 2.477-2.832 4.457-6.021 4.129-9.941-.03-.381-.444-.713-.816-.469z" fill="#f3af79"/><path d="m289.435 679.154c-.371-.178-.873-.119-1.082.285-.932 1.807-2.086 6.104-.242 7.658.189.158.375.17.598.076 2.56-1.083 3.445-6.694.726-8.019z" fill="#f3af79"/><path d="m316.144 673.65c-.07.111-.041.25.043.34.729.799 1.723 1.104 2.719 1.48 1.402.533 2.529 1.398 4.102 1.283.393-.027.609-.279.658-.658.427-3.484-5.768-5.273-7.522-2.445z" fill="#f3af79"/><path d="m341.427 653.158c-3.08-1.662-9.654-1.566-10.006 3.072-.023.305.254.475.51.51 3.172.424 6.791-1.074 9.496-2.617.358-.203.369-.766 0-.965z" fill="#f3af79"/><path d="m870.289 483.521c-3.197-4.098-4.77-8.9-5.398-13.91-3.119-4.178-6.533-8.107-10.877-11.477-19.986-15.5-48.031-12.398-71.25-18.4-12.104-3.131-24.006-8.504-31.412-18.004.324 1.992 1.02 4.109 2.23 6.432 4.705 9.045 8.023 14.328 14.262 16.496 23.188 8.064 46.814 15.027 69.559 24.199.613.246.611 1.336-.172 1.26-25.619-2.506-50.707-11.4-74.49-21.195 1.307 10.047 2.008 9.277 11.525 14.217 29.947 15.551 77.572 20.527 96.217 20.57-.059-.071-.139-.116-.194-.188z" fill="#865725"/><path d="m897.512 464.06c-4.551 5.465-10.885 8.867-17.805 5.635-5.689-2.656-7.773-8.098-8.191-13.895-.871 5.227-1.258 11.025.107 16.035 6.23 22.869 19.316 13.248 27.674-3.471 1.73-3.459 2.734-7.389 3.176-11.381-1.516 2.475-3.127 4.876-4.961 7.077z" fill="#865725"/><g fill="#68182b"><path d="m536.379 687.875c-9.496-.598-19.863 1.758-26.279 9.482-.246.293-.086.699.301.73 9.338.723 17.969-5.613 26.152-8.92.679-.274.601-1.243-.174-1.292z"/><path d="m626.75 679.766c-.293.154-.238.654.096.723 10.047 2.047 20.848.988 30.998.979.697 0 .84-.861.33-1.227-9.135-6.55-21.633-5.587-31.424-.475z"/><path d="m589.809 707.236c-.156-.059-.342.092-.332.254.238 3.813 2.258 7.066 3.98 10.41 1.24 2.406 2.199 4.932 3.213 7.436.775 1.914 2.037 3.186 3.146 4.887.256.393.813.313.963-.125 1.744-5.105.256-8.809-2.24-13.461-2.023-3.778-4.592-7.826-8.73-9.401z"/><path d="m553.352 624.898c-.416-.164-.672.355-.52.678 2.24 4.775 5.75 8.986 8.246 13.67 2.197 4.129 3.957 8.529 8.01 11.17.402.262.818-.098.865-.498.643-5.436-2.563-10.26-5.537-14.545-2.842-4.098-6.307-8.607-11.064-10.475z"/><path d="m573.105 639.717c-.266-.156-.666.041-.645.371.201 2.965-.166 7.699 3.068 9.027.188.078.482-.008.609-.16 2.351-2.771-.328-7.635-3.032-9.238z"/><path d="m621.977 701.227c-2.9-2.105-7.652-4.584-11.322-3.402-.402.129-.547.623-.246.934 1.283 1.346 3.018 2.223 4.475 3.381 1.865 1.482 3.662 3.029 5.424 4.631 1.244 1.129 6.447 6.143 7.834 2.451 1.292-3.445-3.908-6.357-6.165-7.995z"/><path d="m629.498 645.443c.268-.227.217-.65 0-.885-2.775-3.02-6.561-1.68-9.934-.053-4.26 2.057-7.99 4.648-10.422 8.771-.141.236.088.484.334.436 3.738-.748 7.008-2.389 10.438-4.002 3.365-1.579 6.758-1.872 9.584-4.267z"/><path d="m628.291 651.709c-2.814-.07-6.02 1.551-8.068 3.416-.32.293-.154.859.256.963 2.721.695 6.299.584 8.775-.82 1.693-.959.898-3.514-.963-3.559z"/><path d="m562.818 704.27c-3.041 1.313-4.789 3.51-6.471 6.322-1.424 2.377-3.35 5.916-3.115 8.748.129 1.555 1.77 2.236 2.961 1.229 2.154-1.826 2.861-5.24 3.992-7.734 1.205-2.654 2.324-5.301 3.334-8.025.163-.443-.363-.685-.701-.54z"/><path d="m567.846 707.73c-1.67.34-2.773 1.998-3.516 3.428-.434.836-.65 1.631-.195 2.51-.322-.625.174.707.604.957.475.277 1.033.258 1.516.006-.914.475.613-.184.686-.227.473-.275.715-.695.977-1.15.854-1.494 1.301-3.736.469-5.303-.106-.199-.336-.262-.541-.221z"/><path d="m533.57 657.629c.529-.049.852-.547.598-1.041-4.994-9.637-26.768-12.207-35.174-6.268-.223.156-.238.568.082.633 5.65 1.123 11.445.924 17.145 2.115 5.904 1.237 11.238 5.123 17.349 4.561z"/><path d="m532.494 648.574c-.502.311-.447.959 0 1.279.908.646 1.941 1.053 2.859 1.691.908.629 1.684 1.521 2.455 2.305 2.193 2.236 4.953-.664 3.041-3.271-1.751-2.387-5.956-3.484-8.355-2.004z"/><path d="m259.75 681.721c-5.107.115-9.398 3.463-12.768 7.033-3.482 3.693-6.648 7.891-6.865 13.119-.021.539.584.805 1.016.584 4.307-2.203 6.717-6.195 9.795-9.758 2.996-3.471 6.557-6.516 9.248-10.236.222-.307-.077-.752-.426-.742z"/><path d="m265.916 685.17c-.943.158-1.588-.203-2.535.354-1.174.688-2.176 1.813-3.041 2.836-1.688 2-2.754 3.984-3.623 6.43-.08.225.229.381.385.225 1.682-1.689 3.863-3.125 5.84-4.455.951-.639 1.824-1.363 2.695-2.107.875-.75.629-1.699.986-2.574.185-.453-.331-.774-.707-.709z"/><path d="m312.111 634.176c2.285-2.326 3.521-5.721 4.982-8.594 1.586-3.125 3.816-6.434 4.639-9.848.545-2.27-2.148-3.814-3.85-2.238-2.756 2.549-4.193 6.646-5.502 10.1-1.16 3.072-2.26 7.09-1.232 10.324.129.408.65.574.963.256z"/><path d="m319.695 634.035c2.289-1.861 8.232-5.154 6.688-8.867-.129-.305-.309-.441-.637-.482-4.061-.527-6.414 5.979-6.697 9.082-.034.365.419.453.646.267z"/><path d="m229.384 656.436c4.939.346 11.633 2.725 15.936-.361.35-.25.398-.65.127-.98-3.48-4.227-11.1-3.459-16.063-3.393-6.008.078-12.441.912-17.494 4.336-.182.123-.127.436.115.43 5.846-.124 11.53-.443 17.379-.032z"/><path d="m249.55 652.443c2.037-.379 1.623-3.127 0-3.713-2.404-.871-5.51-.66-8.057-.992-.574-.072-.977.717-.668 1.166 1.712 2.485 5.778 4.084 8.725 3.539z"/><path d="m266.988 628.412c2.186 3.176 3.211 7.176 5.699 10.068 1.32 1.535 3.52.182 3.648-1.51.342-4.492-3.252-9.297-6.023-12.535-2.652-3.092-7.047-6.254-11.266-6.201-.68.008-1.061.859-.559 1.35 3.034 2.959 6.054 5.271 8.501 8.828z"/><path d="m280.548 637.66c.561.898 1.238 1.398 1.939 2.156.33.357.877.143 1.018-.268.361-1.053.711-1.75.76-2.895.049-1.088-.541-2.336-.928-3.326-.805-2.066-1.896-3.447-3.57-4.834-.322-.268-.881-.119-.869.359.043 1.922.09 3.639.617 5.529.287 1.041.453 2.351 1.033 3.279z"/><path d="m316.787 683.016c-.635-.209-.996.605-.609 1.045 2.936 3.338 5.68 6.887 8.225 10.529 1.295 1.85 2.51 3.758 3.564 5.756.82 1.555.883 3.547 2.115 4.822.955.986 2.406.613 3.129-.404 2.309-3.248-2.789-9.684-4.688-12.057-3.113-3.893-6.877-8.076-11.736-9.691z"/><path d="m325.449 681.688c.955 1.385 1.621 2.975 2.57 4.385.934 1.389 1.941 2.734 3.131 3.914 2.025 2.01 4.928-.982 3.096-3.096-1.1-1.271-2.33-2.359-3.662-3.383-1.518-1.17-2.99-1.672-4.744-2.328-.28-.106-.559.265-.391.508z"/><path d="m339.228 642.434c2.572-1.861 6.121-3.066 9.055-4.271 1.477-.607 5.49-1.809 4.035-4.27-1.578-2.668-5.521-.105-7.32.902-3.047 1.707-4.676 4.242-6.152 7.258-.114.226.132.56.382.381z"/><path d="m345.527 643.959c-.201.469.025.996.582 1.016 2.02.076 4.32-.301 6.332-.561 2.729-.355 2.928-4.42 0-4.41-2.647.01-5.815 1.371-6.914 3.955z"/><path d="m290.402 709.574c1.412-2.67 1.232-5.891 1.457-8.861.287-3.783.475-7.969-.822-11.586-.141-.395-.648-.387-.793 0-1.205 3.225-1.336 6.807-1.773 10.201-.406 3.154-1.379 6.828-.535 9.924.3 1.094 1.913 1.373 2.466.322z"/><path d="m298.816 696.703c.533-2.418.354-6.719-1.357-8.67-.24-.277-.758-.277-.998 0-1.711 1.951-1.891 6.252-1.359 8.67.407 1.846 3.308 1.846 3.714 0z"/><path d="m229.46 769.738c-.244-.885-.836-1.65-1.627-2.113-1.664-.977-3.867-.393-4.84 1.268-1.701 2.902.936 5.383 3.492 5.127 1.98.27 3.484-1.801 3.076-3.676.056.65.021.449-.101-.606z"/><path d="m251.179 793.994c-2.414-2.072-6.432-.813-6.432 2.664 0 3.588 3.979 4.584 6.432 2.664.098-.074.193-.15.291-.225 1.398-1.096 1.299-3.742 0-4.855-.097-.084-.193-.166-.291-.248z"/><path d="m278.189 798.451c-4.689 0-4.689 7.271 0 7.271 4.691.001 4.691-7.271 0-7.271z"/><path d="m301.173 786.07c-3.691 0-3.691 5.727 0 5.727 3.694 0 3.694-5.727 0-5.727z"/><path d="m281.542 775.756c-.225-.037-.447-.076-.67-.113-4.621-.791-4.621 6.311 0 5.521.223-.037.445-.076.67-.113 2.631-.451 2.631-4.846 0-5.295z"/><path d="m333.283 796.449c-.096.051-.193.1-.287.15-1.441.76-1.613 2.832-.508 3.936 1.242 1.242 3.844.801 4.189-1.104.018-.109.039-.219.057-.328.367-2.023-1.529-3.667-3.451-2.654z"/><path d="m354.666 775.541c-1.369 5.045 6.191 7.346 7.58 2.303 1.334-4.856-6.299-7.026-7.58-2.303z"/><path d="m372.085 791.139c-5.307 0-5.307 8.229 0 8.229s5.307-8.229 0-8.229z"/><path d="m324.373 768.531c-3.404 1.996-2.111 7.902 2.078 7.666.139-.008.277-.016.414-.021 1.625-.094 2.963-1.027 3.438-2.617.039-.127.076-.256.113-.381 1.046-3.492-2.975-6.444-6.043-4.647z"/><path d="m302.578 812.965c-3.418 0-3.418 5.299 0 5.299 3.416 0 3.416-5.299 0-5.299z"/><path d="m207.792 795.012c-4.416 0-4.416 6.848 0 6.848s4.416-6.848 0-6.848z"/><path d="m193.048 766.172c-4.537 0-4.537 7.039 0 7.039 4.539 0 4.539-7.039 0-7.039z"/><path d="m184.078 787.93c-.166-.066-.33-.133-.496-.201-1.611-.658-3.893 1.035-3.656 2.785.023.176.045.352.07.527.313 2.322 2.525 4.148 4.852 2.785 2.626-1.539 1.691-4.892-.77-5.896z"/><path d="m165.109 762.4c-1.566 1.564-1.506 4.924.762 5.918.725.316 1.773.689 2.904.377 2.346-.643 3.482-3.432 2.252-5.535-1.229-2.096-4.199-2.482-5.918-.76z"/><path d="m160.742 780.654c-1.26.055-1.943.748-2.131 2.072-.518 3.65 4.936 3.518 4.283 0-.031-.168-.063-.336-.094-.504-.166-.894-1.175-1.605-2.058-1.568z"/><path d="m146.007 750.484c-5.219 0-5.219 8.096 0 8.096 5.221 0 5.221-8.096 0-8.096z"/><path d="m422.24 738.602c-1.84-.34-3.621.199-4.619 1.879-.021.035-.041.068-.063.104-1.535 2.58.166 5.053 2.359 5.887 3.197 1.6 7.518-3.729 4.668-6.445-.65-.621-1.431-1.257-2.345-1.425zm-3.022 7.492c-.127-.105-.256-.213-.383-.318.184.148.385.246.578.373-.066-.02-.128-.038-.195-.055z"/><path d="m452.83 750.434c-5.285 0-5.285 8.195 0 8.195 5.283 0 5.283-8.195 0-8.195z"/><path d="m449.923 772.398c-2.219.338-3.424 2.549-2.975 4.639.225 1.061 1.32 2.26 2.428 2.43.023.004.045.006.068.01.311.047.643.057.973.047-.039.023-.076.043-.115.066-.816-.104-.941-.1-.379.014 2.354.533 4.732-1.09 4.732-3.604.001-2.643-2.372-3.961-4.732-3.602z"/><path d="m478.806 780.811c-3.285 0-5.346 4.342-2.766 6.676.123.111.246.223.369.334 1.422 1.287 3.371 1.287 4.793 0 .123-.111.246-.223.367-.334 2.583-2.335.522-6.676-2.763-6.676z"/><path d="m483.019 766.434c-2.734-.215-2.781 4.381 0 4.277 2.898-.104 3.766-3.981 0-4.277z"/><path d="m515.199 787.539c-2.9-.795-5.939 2.01-4.996 4.996.041.133.082.264.125.396.873 2.764 4.236 3.686 6.365 1.68.098-.094.199-.189.299-.281 2.244-2.115 1.09-5.996-1.793-6.791z"/><path d="m502.119 806.631c-4.027 4.027 3.563 9.365 5.918 4.566 1.818-3.707-2.724-7.761-5.918-4.566z"/><path d="m553.229 798.877c-5.283 0-5.283 8.195 0 8.195 5.285 0 5.285-8.195 0-8.195z"/><path d="m589.947 813.139c-4.904 0-4.904 7.602 0 7.602s4.905-7.602 0-7.602z"/><path d="m632.566 812.92c-5.283 0-5.283 8.195 0 8.195 5.286 0 5.286-8.195 0-8.195z"/><path d="m597.971 839.486c0 3.777 4.957 4.928 6.9 1.869.732-1.154.748-2.607 0-3.74-1.982-2.99-6.9-1.957-6.9 1.871z"/><path d="m632.566 834.17c-4.139 0-4.139 6.418 0 6.418s4.139-6.418 0-6.418z"/><path d="m662.055 824.857c-5.283 0-5.283 8.193 0 8.193 5.285.001 5.285-8.193 0-8.193z"/><path d="m690.656 807.971c-.174-.014-.344-.027-.518-.043-2.281-.186-3.91 2.354-3.348 4.396.59 2.143 3.174 3.232 5.102 2.072.143-.086.289-.172.434-.258 2.971-1.786 1.512-5.908-1.67-6.167z"/><path d="m721.262 802.359c-.623-2.928-4.188-2.648-5.66-.74-.268.35-.391.777-.535 1.189-1.783 5.09 7.957 5.426 6.316 0-.053-.146-.094-.296-.121-.449z"/><path d="m735.074 803.447c-3.012 0-3.012 4.674 0 4.674 3.014 0 3.014-4.674 0-4.674z"/><path d="m759.014 777.061c-.162-.043-.324-.082-.49-.123-2.328-.568-4.686 1.113-4.686 3.572 0 2.457 2.357 4.141 4.686 3.57.166-.041.328-.08.49-.121 3.422-.84 3.422-6.061 0-6.898z"/><path d="m635.375 549.928c-4.902 0-4.902 7.602 0 7.602s4.902-7.602 0-7.602z"/><path d="m662.352 540.943c-2.922 0-2.922 4.531 0 4.531s2.921-4.531 0-4.531z"/><path d="m680.396 550.117c-4.318 0-4.318 6.699 0 6.699 4.321 0 4.321-6.699 0-6.699z"/><path d="m686.629 519.441c-5.285 0-5.285 8.195 0 8.195 5.283.001 5.283-8.195 0-8.195z"/><path d="m670.393 516.131c-5.137 0-5.137 7.967 0 7.967 5.138 0 5.138-7.967 0-7.967z"/><path d="m646.967 525.623c.043.02.084.041.127.059 2.986 1.398 6.711-.873 5.738-4.41-.949-3.455-6.971-4.004-7.533 0-.01.064-.018.129-.025.191-.219 1.541.081 3.404 1.693 4.16z"/><path d="m619.066 535.445c-.088.16-.174.322-.26.482-1.178 2.193 1.76 4.686 3.537 2.73.121-.135.246-.268.367-.402 2.337-2.569-2.089-5.706-3.644-2.81z"/><path d="m676.918 490.3c-5.199 0-5.199 8.061 0 8.061 5.197 0 5.197-8.061 0-8.061z"/><path d="m699.617 490.375c-4.287 0-4.287 6.649 0 6.649s4.287-6.649 0-6.649z"/><path d="m724.324 477.054c-3.867 0-3.867 5.992 0 5.992 3.864 0 3.864-5.992 0-5.992z"/><path d="m698.564 468.054c-4.096 0-4.096 6.352 0 6.352s4.096-6.352 0-6.352z"/><path d="m676.34 467.482c-.102.102-.205.203-.305.305-.656.654-.604 1.996.311 2.424.123.055.244.113.367.17 1.232.578 2.777-.096 2.777-1.594 0-1.612-2.011-2.444-3.15-1.305z"/><path d="m650.119 482.779c-5.029 0-5.029 7.799 0 7.799s5.029-7.799 0-7.799z"/><path d="m632.506 478.375c.359-1.24.148-2.59-1.074-3.602-.01-.01-.02-.02-.031-.027-2.594-2.148-6.891-.918-6.877 2.852v.193c.013 5.003 7.593 5.111 7.982.584z"/><path d="m630.168 501.762c-.104.006-.209.014-.314.021-2.164.145-3.219 1.824-2.941 3.857.018.111.031.223.045.334.355 2.578 3.973 3.061 5.564 1.469 1.953-1.953.621-5.88-2.354-5.681z"/><path d="m609.199 494.558c-3.729 0-3.729 5.778 0 5.778 3.725 0 3.725-5.778 0-5.778z"/><path d="m607.875 521.365c-4.16 0-4.16 6.451 0 6.451 4.162 0 4.162-6.451 0-6.451z"/><path d="m588.857 517.979c.043.027.088.053.131.076 1.863 1.07 4.178-.678 3.602-2.768-.652-2.375-4.043-2.309-4.727 0-.014.049-.029.096-.043.143-.285.963.174 2.054 1.037 2.549z"/><path d="m572.479 532.078c-3.986 0-3.986 6.18 0 6.18s3.986-6.18 0-6.18z"/><path d="m590.867 539.127c-.131.059-.26.121-.387.18-7.492 3.506 5.795 13.018 6.164 3.539.006-.133.01-.264.014-.395.125-3.148-3.304-4.488-5.791-3.324z"/><path d="m620.938 562.4c-5.227 0-5.227 8.107 0 8.107 5.228.001 5.228-8.107 0-8.107z"/><path d="m651.301 565.459c-.074-.037-.148-.074-.223-.113-4.648-2.354-8.701 4.811-4.049 6.928.074.035.15.068.227.104 1.986.904 4.295.588 5.482-1.436 1.051-1.799.508-4.497-1.437-5.483z"/><path d="m666.617 576.191c-4.988 0-4.988 7.732 0 7.732s4.988-7.732 0-7.732z"/><path d="m693.035 563.166c-4.299 0-4.299 6.664 0 6.664 4.297 0 4.297-6.664 0-6.664z"/><path d="m692.377 579.264c-2.779 0-2.779 4.309 0 4.309s2.779-4.309 0-4.309z"/><path d="m717.521 570.672c-4.861 0-4.861 7.537 0 7.537 4.86 0 4.86-7.537 0-7.537z"/><path d="m718.424 557.402c-.053-.068-.107-.137-.16-.203-1.941-2.438-5.258.27-4.762 2.771.016.09.035.178.051.266.838 4.237 8.135 1.262 4.871-2.834z"/><path d="m711.201 542.912c-3.99 0-3.99 6.186 0 6.186 3.992 0 3.992-6.186 0-6.186z"/><path d="m711.377 530.045c.707-3.637-4.16-6.088-6.195-2.613-2.602 4.441 5.279 7.328 6.195 2.613z"/><path d="m729.807 510.477c-5.072 0-5.072 7.867 0 7.867s5.072-7.867 0-7.867z"/><path d="m719.627 497.873c-3.672 0-3.672 5.693 0 5.693s3.672-5.693 0-5.693z"/><path d="m748.531 498.248c-2.869 0-2.869 4.449 0 4.449s2.869-4.449 0-4.449z"/><path d="m736.066 526.197c-.107.029-.211.061-.316.092-2.928.848-3.98 4.607-1.795 6.791 2.186 2.188 5.945 1.135 6.793-1.793.031-.105.063-.209.092-.316.82-2.825-1.949-5.594-4.774-4.774z"/><path d="m760.35 522.643c-2.951 0-2.951 4.574 0 4.574 2.949 0 2.949-4.574 0-4.574z"/><path d="m740.146 454.58c-5.055 0-5.055 7.84 0 7.84 5.059-.001 5.059-7.84 0-7.84z"/><path d="m722.188 453.275c3.656 0 3.656-5.668 0-5.668-3.655 0-3.655 5.668 0 5.668z"/><path d="m704.973 442.707c-.066-.072-.135-.146-.203-.221-1.674-1.824-4.906-1.338-6.084.785-.049.088-.1.176-.148.266-1.502 2.699.381 6.166 3.539 6.166 3.687 0 5.271-4.409 2.896-6.996z"/><path d="m679.055 441.927c-5.266 0-5.266 8.166 0 8.166s5.265-8.166 0-8.166z"/><path d="m655.773 453.193c-.027-.014-.053-.029-.08-.045-2.172-1.248-5.104-.123-5.752 2.34-.008.029-.016.059-.023.088-.77 2.928 1.947 5.713 4.904 4.9 3.309-.908 3.951-5.557.951-7.283z"/><path d="m627.65 456.005c5.264 0 5.264-8.162 0-8.162s-5.263 8.162 0 8.162z"/><path d="m607.813 465.57c-.006-.064-.014-.127-.021-.191-.143-1.357-1.105-2.785-2.666-2.668-.053.004-.107.008-.16.012-2.396.182-3.871 3.002-2.014 4.861 1.622 1.621 5.132.556 4.861-2.014z"/><path d="m586.801 484.941c-5.223 0-5.223 8.102 0 8.102s5.222-8.102 0-8.102z"/><path d="m565.508 503.014c-5.252 0-5.252 8.148 0 8.148 5.254 0 5.254-8.148 0-8.148z"/><path d="m549.438 512.08c-2.322-.639-5.318 1.225-5.063 3.855.01.076.016.154.023.23.383 3.92 4.996 5.291 7.299 1.977.043-.063.088-.125.131-.188 1.492-2.151-.043-5.229-2.39-5.874z"/><path d="m547.951 532.07c-3.668 0-3.668 5.688 0 5.688 3.664 0 3.664-5.688 0-5.688z"/><path d="m529.031 542.191c-2.467.984-2.414 4.91.664 4.91 3.877.001 2.588-6.21-.664-4.91z"/><path d="m518.475 525.234c-4.605 0-4.605 7.141 0 7.141s4.605-7.141 0-7.141z"/><path d="m503.992 541.707c-4.939 0-4.939 7.658 0 7.658 4.936 0 4.936-7.658 0-7.658z"/><path d="m505.135 509.391c-5.115 0-5.115 7.932 0 7.932s5.115-7.932 0-7.932z"/><path d="m491.792 524.707c-5.283 0-5.283 8.195 0 8.195 5.286 0 5.286-8.195 0-8.195z"/><path d="m475.646 541.541c-5.305 0-5.305 8.229 0 8.229s5.305-8.229 0-8.229z"/><path d="m462.097 553.879c-5.223 0-5.223 8.098 0 8.098s5.223-8.098 0-8.098z"/><path d="m453.531 534.535c-5.285 0-5.285 8.195 0 8.195 5.283 0 5.283-8.195 0-8.195z"/><path d="m435.824 544.842c-5.104 0-5.104 7.912 0 7.912 5.101 0 5.101-7.912 0-7.912z"/><path d="m419.126 536.572c-4.926 0-4.926 7.635 0 7.635 4.924 0 4.924-7.635 0-7.635z"/><path d="m435.033 521.109c-.035.008-.07.018-.105.025-2.379.549-3.773 3.73-2.361 5.801.02.027.041.059.059.088 1.672 2.449 5.348 2.744 6.953 0 1.846-3.148-1.165-6.697-4.546-5.914z"/><path d="m472.134 515.563c-5.307 0-5.307 8.227 0 8.227 5.309-.001 5.309-8.227 0-8.227z"/><path d="m422.572 561.561c-4.699 0-4.699 7.285 0 7.285 4.695 0 4.695-7.285 0-7.285z"/><path d="m387.181 551.514c-4.67 0-4.67 7.24 0 7.24s4.67-7.24 0-7.24z"/><path d="m399.82 543.256c-4.902 0-4.902 7.604 0 7.604 4.9-.001 4.9-7.604 0-7.604z"/><path d="m402.849 562.766c-4.178 0-4.178 6.475 0 6.475 4.176-.001 4.176-6.475 0-6.475z"/><path d="m367.958 561.719c-4.807 0-4.807 7.453 0 7.453 4.811 0 4.811-7.453 0-7.453z"/><path d="m367.521 555.285c3.82 0 3.82-5.924 0-5.924s-3.82 5.924 0 5.924z"/><path d="m348.41 548.441c-.055-.016-.109-.033-.164-.053-2.545-.826-5.166 1.375-5.166 3.936 0 2.895 2.59 4.318 5.166 3.934.055-.008.109-.016.164-.021 4.25-.635 3.443-6.674 0-7.796z"/><path d="m341.193 562.09c-2.34 0-4.555 2.986-2.936 5.113.029.041.061.082.094.121 1.592 2.096 4.09 2.096 5.682 0 .033-.039.064-.08.094-.121 1.619-2.127-.596-5.113-2.934-5.113z"/><path d="m377.351 526.846c-5.24 0-5.24 8.129 0 8.129s5.24-8.129 0-8.129z"/><path d="m395.535 520.014c-.125-.09-.252-.178-.377-.266-2.535-1.777-5.992.611-5.992 3.439s3.457 5.217 5.992 3.439c.125-.09.252-.178.377-.266 2.355-1.651 2.355-4.696 0-6.346z"/><path d="m413.158 513.922c-5.156 0-5.156 7.998 0 7.998 5.158 0 5.158-7.998 0-7.998z"/><path d="m448.724 496.488c-.111.008-.223.014-.334.02-4.402.275-5.496 6.522-1.055 7.801.104.031.211.061.318.092 5.835 1.681 6.864-8.275 1.071-7.913z"/><path d="m434.523 498.318c-1.219-4.432-8.387-2.456-6.973 1.758 1.485 4.416 8.242 2.858 6.973-1.758z"/><path d="m471.232 499.064c.047-.092.098-.182.146-.275 1.135-2.151.148-4.768-2.23-5.475-.096-.029-.193-.059-.291-.09-2.924-.867-5.68 2.018-4.891 4.891.885 3.215 5.631 4.045 7.266.949z"/><path d="m506.473 481.919c-4.396 0-4.396 6.814 0 6.814 4.394.001 4.394-6.814 0-6.814z"/><path d="m488.285 500.139c-4.371 0-4.371 6.779 0 6.779s4.371-6.779 0-6.779z"/><path d="m529.746 481.38c2.934 0 2.934-4.545 0-4.545-2.93 0-2.93 4.545 0 4.545z"/><path d="m528.76 499.221c-4.648 0-4.648 7.209 0 7.209s4.648-7.209 0-7.209z"/><path d="m551.123 495.689c5.283 0 5.283-8.195 0-8.195-5.285 0-5.285 8.195 0 8.195z"/><path d="m575.553 469.076c-5.158 0-5.158 8.002 0 8.002s5.158-8.002 0-8.002z"/><path d="m556.037 553.143c-5.285 0-5.285 8.195 0 8.195 5.283 0 5.283-8.195 0-8.195z"/><path d="m580.26 560.219c-4.311 0-4.311 6.68 0 6.68 4.308-.001 4.308-6.68 0-6.68z"/><path d="m330.662 529.752c-5.115 0-5.115 7.932 0 7.932 5.117 0 5.117-7.932 0-7.932z"/><path d="m322.587 547.021c-5.029 0-5.029 7.799 0 7.799s5.03-7.799 0-7.799z"/><path d="m302.666 536.51c-4.605 0-4.605 7.143 0 7.143s4.605-7.143 0-7.143z"/><path d="m272.361 541.625c-.063.152-.123.307-.184.461-1.574 3.982 6.088 4.986 5.613.762-.018-.164-.037-.332-.055-.496-.351-3.122-4.214-3.664-5.374-.727z"/><path d="m290.248 524.15c-2.551 0-2.551 3.953 0 3.953 2.548.001 2.548-3.953 0-3.953z"/><path d="m270.982 515.727c-5.094 0-5.094 7.898 0 7.898s5.094-7.898 0-7.898z"/><path d="m272.035 502.881c5.053 0 5.053-7.833 0-7.833-5.051 0-5.051 7.833 0 7.833z"/><path d="m252.728 500.521c-4.33 0-4.33 6.715 0 6.715s4.33-6.715 0-6.715z"/><path d="m232.015 500.127c-4.838 0-4.838 7.504 0 7.504s4.838-7.504 0-7.504z"/><path d="m217.974 488.695c-3.734 0-3.734 5.793 0 5.793 3.736 0 3.736-5.793 0-5.793z"/><path d="m219.531 477.906c-.195-.057-.389-.111-.582-.168-3.238-.936-4.125 4.4-.625 4.623.199.012.4.023.6.037 2.638.168 3.027-3.791.607-4.492z"/><path d="m237.281 477.019c-4.307 0-4.307 6.68 0 6.68s4.306-6.68 0-6.68z"/><path d="m218.675 444.035c-4.285 0-4.285 6.648 0 6.648 4.287 0 4.287-6.648 0-6.648z"/><path d="m205.337 453.685c-2.264 0-3.902 2.203-3.33 4.371.006.016.01.031.014.049.865 3.287 5.766 3.287 6.631 0 .004-.018.01-.033.016-.049.57-2.168-1.069-4.371-3.331-4.371z"/><path d="m239.285 449.107c-4.922 0-4.922 7.633 0 7.633 4.92 0 4.92-7.633 0-7.633z"/><path d="m256.853 475.5c-3.721-2.611-8.029 3.098-4.846 6.283 4.037 4.035 9.678-2.891 4.846-6.283z"/><path d="m263.671 454.107c-1.49-2.432-5.299-2.027-6.074.793-.758 2.756 2.375 5.32 4.883 3.754.094-.057.186-.115.279-.172 1.365-.852 1.951-2.686 1.076-4.109-.052-.088-.107-.176-.164-.266z"/><path d="m277.718 473.619c-5.113 0-5.113 7.93 0 7.93s5.114-7.93 0-7.93z"/><path d="m292.15 463.582c3.82 0 3.82-5.924 0-5.924-3.822 0-3.822 5.924 0 5.924z"/><path d="m297.312 486.08c5.115 0 5.115-7.932 0-7.932-5.117 0-5.117 7.932 0 7.932z"/><path d="m296.96 498.717c-4.393 0-4.393 6.813 0 6.813 4.395-.001 4.395-6.813 0-6.813z"/><path d="m315.787 505.111c-4.072 0-4.072 6.314 0 6.314s4.072-6.314 0-6.314z"/><path d="m330.31 499.156c4.775 0 4.775-7.407 0-7.407-4.773.001-4.773 7.407 0 7.407z"/><path d="m358.044 506.469c-5.264 0-5.264 8.162 0 8.162s5.264-8.162 0-8.162z"/><path d="m356.32 531.672c-5.078 0-5.078 7.871 0 7.871s5.078-7.871 0-7.871z"/><path d="m380.539 505.01c-.152-.494-.305-.986-.455-1.48.021-.324-.303-.648-.627-.625-.787-.334-1.605-.529-2.455-.59-.969 0-1.908.389-2.596 1.076-1.164 1.164-1.408 3.021-.572 4.445 2.046 3.496 8.216 1.152 6.705-2.826z"/><path d="m404.384 494.697c-5.053 0-5.053 7.833 0 7.833 5.051-.001 5.051-7.833 0-7.833z"/><path d="m417.371 485.246c4.945 0 4.945-7.668 0-7.668s-4.946 7.668 0 7.668z"/><path d="m386.83 485.234c4.479 0 4.479-6.943 0-6.943s-4.479 6.943 0 6.943z"/><path d="m364.712 480.753c-4.924 0-4.924 7.637 0 7.637 4.926 0 4.926-7.637 0-7.637z"/><path d="m349.619 476.074c-5.072 0-5.072 7.867 0 7.867s5.072-7.867 0-7.867z"/><path d="m325.044 463.486c-5.008 0-5.008 7.768 0 7.768 5.01-.001 5.01-7.768 0-7.768z"/><path d="m308.414 440.683c-4.537 0-4.537 7.033 0 7.033s4.537-7.033 0-7.033z"/><path d="m275.166 437.71c-.059.035-.117.072-.176.107-2.311 1.381-2.348 4.83 0 6.205 2.918 1.709 5.811-1.078 5.279-4.059-.012-.064-.021-.127-.035-.191-.395-2.212-3.285-3.13-5.068-2.062z"/><path d="m257.951 426.759c4.559 0 4.559-7.07 0-7.07-4.557 0-4.557 7.07 0 7.07z"/><path d="m249.962 435.962c-3.098 0-3.098 4.803 0 4.803s3.098-4.803 0-4.803z"/><path d="m240.441 412.162c-4.648 0-4.648 7.207 0 7.207s4.648-7.207 0-7.207z"/><path d="m226.269 417.167c-4.563 0-4.563 7.076 0 7.076 4.564.001 4.564-7.076 0-7.076z"/><path d="m205.949 413.626c-4.227 0-4.227 6.557 0 6.557 4.23 0 4.23-6.557 0-6.557z"/><path d="m197.964 427.556c-3.354 0-3.354 5.201 0 5.201s3.354-5.201 0-5.201z"/><path d="m187.093 443.15c-4.119 0-4.119 6.391 0 6.391 4.123 0 4.123-6.391 0-6.391z"/><path d="m189.537 395.228c-4.752 0-4.752 7.371 0 7.371 4.754 0 4.754-7.371 0-7.371z"/><path d="m197.613 378.519c-4.117 0-4.117 6.385 0 6.385s4.117-6.385 0-6.385z"/><path d="m219.531 391.113c0-2.336-2.596-3.793-4.605-2.643-.09.053-.182.105-.273.156-1.844 1.059-1.898 3.932 0 4.977.092.049.184.102.273.15 2.021 1.112 4.605-.275 4.605-2.64z"/><path d="m256.369 386.351c-4.883 0-4.883 7.572 0 7.572 4.884 0 4.884-7.572 0-7.572z"/><path d="m275.046 413.482c5.248 0 5.248-8.139 0-8.139-5.246 0-5.246 8.139 0 8.139z"/><path d="m281.066 382.818c-4.949 0-4.949 7.676 0 7.676 4.947 0 4.947-7.676 0-7.676z"/><path d="m300.822 427.136c5.158 0 5.158-7.998 0-7.998-5.156 0-5.156 7.998 0 7.998z"/><path d="m319.076 421.218c5.221 0 5.221-8.098 0-8.098s-5.221 8.098 0 8.098z"/><path d="m336.98 438.48c-5.117 0-5.117 7.932 0 7.932 5.115 0 5.115-7.932 0-7.932z"/><path d="m351.037 422.9c3.914-1.164 3.248-7.207-.975-7.207-5.426 0-4.158 8.736.975 7.207z"/><path d="m357.4 452.214c-2.613-.766-5.08 1.791-4.371 4.373.668 2.422 4.166 3.652 5.941 1.566.08-.094.16-.188.24-.281 1.605-1.885 1.07-4.818-1.469-5.561-.113-.032-.226-.065-.341-.097z"/><path d="m380.933 455.785c.004-.086.006-.174.01-.258.057-1.52-1.137-3.174-2.654-3.484-.082-.016-.162-.035-.244-.051-3.285-.676-6.275 2.645-4.441 5.777 2.03 3.467 7.185 1.861 7.329-1.984z"/><path d="m401.222 466.437c5.137 0 5.137-7.965 0-7.965s-5.137 7.965 0 7.965z"/><path d="m420 442.398c-5.076 0-5.076 7.871 0 7.871s5.076-7.871 0-7.871z"/><path d="m399.82 441.113c5.072 0 5.072-7.867 0-7.867s-5.072 7.867 0 7.867z"/><path d="m371.767 428.453c-4.203 0-4.203 6.516 0 6.516s4.203-6.516 0-6.516z"/><path d="m442.798 445.458c-4.518 0-4.518 7.006 0 7.006s4.518-7.006 0-7.006z"/><path d="m436.316 478.148c4.424 0 4.424-6.865 0-6.865-4.428 0-4.428 6.865 0 6.865z"/><path d="m239.388 378.251c4.139 0 4.139-6.418 0-6.418s-4.138 6.418 0 6.418z"/><path d="m219.025 370.166c3.672 0 3.672-5.693 0-5.693-3.67-.001-3.67 5.693 0 5.693z"/><path d="m197 354.257c-4.924 0-4.924 7.637 0 7.637 4.927 0 4.927-7.637 0-7.637z"/><path d="m176.583 346.056c-.113.021-.225.041-.338.063-2.875.521-3.549 4.447-1.67 6.324 2.258 2.26 6.605.682 6.461-2.676-.004-.109-.012-.221-.016-.328-.103-2.42-2.144-3.801-4.437-3.383z"/><path d="m189.537 324.953c-4.84 0-4.84 7.504 0 7.504s4.839-7.504 0-7.504z"/><path d="m227.802 347.941c4.436 0 4.436-6.879 0-6.879-4.433 0-4.433 6.879 0 6.879z"/><path d="m208.494 311.117c-4.117 0-4.117 6.385 0 6.385 4.119-.001 4.119-6.385 0-6.385z"/><path d="m221.484 308.201c-4.713 0-4.713 7.307 0 7.307s4.713-7.307 0-7.307z"/><path d="m240.5 310.603c-4.785 0-4.785 7.426 0 7.426 4.789 0 4.789-7.426 0-7.426z"/><path d="m250.171 334.544c-4.705 0-4.705 7.297 0 7.297 4.707 0 4.707-7.297 0-7.297z"/><path d="m262.648 348.482c1.49-3.402-2.457-7.219-5.461-4.213-3.812 3.811 3.527 8.631 5.461 4.213z"/><path d="m266.933 366.044c-1.516-1.514-4.537-1.357-5.543.715-.043.088-.084.174-.125.26-1.533 3.158 1.535 6.234 4.693 4.695.09-.041.176-.084.262-.125 2.072-1.007 2.233-4.027.713-5.545z"/><path d="m289.472 356.371c-.068-.096-.137-.188-.203-.279-2.924-4.014-8.609.855-5.201 4.012.084.078.172.158.256.238 2.615 2.423 7.427-.844 5.148-3.971z"/><path d="m307.843 397.482c4.943 0 4.943-7.668 0-7.668-4.945 0-4.945 7.668 0 7.668z"/><path d="m328.203 211.744c4.902 0 4.902-7.602 0-7.602s-4.903 7.602 0 7.602z"/><path d="m301.226 220.728c2.922 0 2.922-4.531 0-4.531s-2.922 4.531 0 4.531z"/><path d="m283.179 211.554c4.32 0 4.32-6.699 0-6.699-4.318 0-4.318 6.699 0 6.699z"/><path d="m276.949 242.23c5.285 0 5.285-8.195 0-8.195-5.283 0-5.283 8.195 0 8.195z"/><path d="m293.185 245.541c5.137 0 5.137-7.967 0-7.967-5.139 0-5.139 7.967 0 7.967z"/><path d="m316.611 236.048c-.043-.02-.084-.041-.127-.059-2.986-1.398-6.711.873-5.738 4.41.949 3.455 6.971 4.004 7.531 0 .012-.064.02-.127.027-.191.219-1.541-.082-3.404-1.693-4.16z"/><path d="m344.511 226.228c.088-.162.174-.324.26-.484 1.176-2.193-1.76-4.686-3.537-2.729-.123.133-.246.266-.367.4-2.336 2.571 2.09 5.708 3.644 2.813z"/><path d="m286.66 271.371c5.199 0 5.199-8.061 0-8.061-5.198 0-5.198 8.061 0 8.061z"/><path d="m263.96 271.296c4.285 0 4.285-6.648 0-6.648-4.287 0-4.287 6.648 0 6.648z"/><path d="m239.253 284.619c3.867 0 3.867-5.994 0-5.994-3.865 0-3.865 5.994 0 5.994z"/><path d="m265.013 293.617c4.096 0 4.096-6.352 0-6.352s-4.096 6.352 0 6.352z"/><path d="m287.238 294.189.305-.305c.656-.654.604-1.996-.311-2.424-.123-.055-.244-.113-.367-.17-1.232-.578-2.777.096-2.777 1.594-.001 1.612 2.011 2.444 3.15 1.305z"/><path d="m313.458 278.894c5.029 0 5.029-7.801 0-7.801s-5.029 7.801 0 7.801z"/><path d="m331.072 283.296c-.359 1.24-.148 2.59 1.074 3.602.01.01.02.02.031.027 2.594 2.148 6.891.918 6.877-2.852 0-.063 0-.129 0-.193-.013-5.004-7.594-5.111-7.982-.584z"/><path d="m333.408 259.91c.105-.006.211-.014.316-.021 2.162-.145 3.219-1.824 2.941-3.857-.018-.111-.031-.223-.047-.334-.354-2.576-3.971-3.061-5.563-1.469-1.952 1.952-.62 5.88 2.353 5.681z"/><path d="m354.378 267.113c3.729 0 3.729-5.777 0-5.777-3.724-.001-3.724 5.777 0 5.777z"/><path d="m355.701 240.306c4.162 0 4.162-6.451 0-6.451-4.16 0-4.16 6.451 0 6.451z"/><path d="m374.72 243.693c-.043-.027-.088-.051-.131-.076-1.865-1.07-4.178.678-3.604 2.768.652 2.375 4.045 2.309 4.729 0 .014-.049.027-.096.043-.143.285-.963-.174-2.055-1.037-2.549z"/><path d="m391.099 229.595c3.986 0 3.986-6.182 0-6.182s-3.986 6.182 0 6.182z"/><path d="m366.917 219.22c-.123 3.148 3.307 4.488 5.793 3.324.129-.059.26-.121.387-.18 7.492-3.506-5.795-13.018-6.164-3.539-.006.133-.012.264-.016.395z"/><path d="m342.64 199.271c5.227 0 5.227-8.107 0-8.107-5.228 0-5.228 8.107 0 8.107z"/><path d="m312.277 196.212c.074.037.148.074.223.113 4.648 2.354 8.701-4.809 4.049-6.928-.074-.035-.15-.068-.227-.104-1.988-.904-4.295-.588-5.482 1.436-1.051 1.8-.508 4.497 1.437 5.483z"/><path d="m302.402 327.558c4.861 0 4.861-7.537 0-7.537s-4.861 7.537 0 7.537z"/><path d="m306.421 338.259c-.016-.09-.035-.178-.051-.266-.838-4.236-8.137-1.262-4.871 2.834.053.068.107.137.16.203 1.942 2.438 5.258-.269 4.762-2.771z"/><path d="m308.72 349.132c-3.99 0-3.99 6.188 0 6.188 3.992 0 3.992-6.188 0-6.188z"/><path d="m258.396 234.24c2.602-4.441-5.281-7.328-6.195-2.613-.709 3.636 4.158 6.087 6.195 2.613z"/><path d="m363.835 186.425c5.072 0 5.072-7.865 0-7.865s-5.072 7.865 0 7.865z"/><path d="m246.234 257.478c3.67 0 3.67-5.693 0-5.693-3.672 0-3.672 5.693 0 5.693z"/><path d="m215.046 263.423c2.869 0 2.869-4.449 0-4.449-2.871 0-2.871 4.449 0 4.449z"/><path d="m277.535 339.738c.107-.031.213-.063.318-.092 2.926-.848 3.98-4.607 1.793-6.793-2.184-2.186-5.945-1.133-6.793 1.793-.029.105-.061.211-.092.318-.818 2.825 1.949 5.592 4.774 4.774z"/><path d="m323.64 338.902c2.949 0 2.949-4.574 0-4.574s-2.949 4.574 0 4.574z"/><path d="m218.166 287.08c5.057 0 5.057-7.84 0-7.84-5.059 0-5.059 7.84 0 7.84z"/><path d="m245.078 294.529c-3.656 0-3.656 5.668 0 5.668 3.654 0 3.654-5.668 0-5.668z"/><path d="m262.818 318.085c.068.072.137.146.203.221 1.676 1.824 4.906 1.34 6.086-.783.049-.088.098-.178.146-.268 1.502-2.699-.379-6.164-3.537-6.164-3.687 0-5.271 4.409-2.898 6.994z"/><path d="m284.523 319.744c5.266 0 5.266-8.166 0-8.166s-5.266 8.166 0 8.166z"/><path d="m307.804 308.478c.025.016.053.029.08.045 2.172 1.25 5.104.123 5.75-2.34.01-.029.018-.059.025-.086.77-2.93-1.947-5.715-4.904-4.902-3.308.908-3.951 5.558-.951 7.283z"/><path d="m335.925 305.666c-5.264 0-5.264 8.162 0 8.162s5.264-8.162 0-8.162z"/><path d="m360.626 294.087c-1.623-1.621-5.133-.557-4.861 2.014.006.064.012.129.021.191.141 1.357 1.105 2.785 2.666 2.668.053-.004.105-.008.16-.012 2.397-.181 3.872-3.001 2.014-4.861z"/><path d="m376.777 276.73c5.223 0 5.223-8.102 0-8.102s-5.223 8.102 0 8.102z"/><path d="m398.068 258.658c5.254 0 5.254-8.148 0-8.148-5.252-.001-5.252 8.148 0 8.148z"/><path d="m414.14 249.591c2.322.639 5.318-1.225 5.061-3.855-.008-.076-.014-.154-.021-.23-.383-3.92-4.996-5.291-7.299-1.977-.043.063-.088.125-.131.189-1.495 2.151.042 5.229 2.39 5.873z"/><path d="m415.626 229.601c3.668 0 3.668-5.688 0-5.688-3.666.001-3.666 5.688 0 5.688z"/><path d="m434.546 219.48c2.467-.984 2.412-4.91-.664-4.91-3.877 0-2.588 6.211.664 4.91z"/><path d="m445.103 236.437c4.605 0 4.605-7.141 0-7.141s-4.605 7.141 0 7.141z"/><path d="m459.585 219.964c4.939 0 4.939-7.658 0-7.658-4.935 0-4.935 7.658 0 7.658z"/><path d="m458.443 252.281c5.115 0 5.115-7.932 0-7.932-5.117 0-5.117 7.932 0 7.932z"/><path d="m471.783 236.964c5.285 0 5.285-8.195 0-8.195-5.283 0-5.283 8.195 0 8.195z"/><path d="m487.931 220.13c5.305 0 5.305-8.229 0-8.229s-5.305 8.229 0 8.229z"/><path d="m501.48 207.792c5.223 0 5.223-8.098 0-8.098-5.223.001-5.223 8.098 0 8.098z"/><path d="m510.047 227.136c5.285 0 5.285-8.195 0-8.195-5.283 0-5.283 8.195 0 8.195z"/><path d="m527.754 216.83c5.104 0 5.104-7.912 0-7.912-5.102-.001-5.102 7.912 0 7.912z"/><path d="m544.451 225.099c4.926 0 4.926-7.635 0-7.635-4.924 0-4.924 7.635 0 7.635z"/><path d="m531.012 234.736c-.021-.027-.041-.059-.061-.088-1.67-2.449-5.346-2.744-6.951 0-1.848 3.15 1.164 6.697 4.545 5.914.035-.008.07-.016.105-.025 2.377-.549 3.772-3.731 2.362-5.801z"/><path d="m491.441 237.882c-5.307 0-5.307 8.227 0 8.227 5.309 0 5.309-8.227 0-8.227z"/><path d="m541.006 200.111c4.699 0 4.699-7.285 0-7.285-4.695 0-4.695 7.285 0 7.285z"/><path d="m576.396 202.917c-4.67 0-4.67 7.24 0 7.24 4.668.001 4.668-7.24 0-7.24z"/><path d="m563.758 218.416c4.902 0 4.902-7.604 0-7.604-4.901 0-4.901 7.604 0 7.604z"/><path d="m560.729 198.908c4.178 0 4.178-6.477 0-6.477-4.176 0-4.176 6.477 0 6.477z"/><path d="m595.619 199.955c4.807 0 4.807-7.455 0-7.455-4.81 0-4.81 7.455 0 7.455z"/><path d="m596.057 206.386c-3.82 0-3.82 5.924 0 5.924s3.82-5.924 0-5.924z"/><path d="m615.168 213.23c.055.016.109.035.164.053 2.545.826 5.166-1.373 5.166-3.936 0-2.893-2.59-4.318-5.166-3.934-.055.008-.109.016-.164.021-4.25.636-3.443 6.675 0 7.796z"/><path d="m622.385 199.582c2.34 0 4.555-2.986 2.936-5.113-.031-.041-.061-.082-.094-.121-1.592-2.094-4.09-2.094-5.682 0-.033.039-.064.08-.096.121-1.617 2.126.598 5.113 2.936 5.113z"/><path d="m586.227 234.826c5.24 0 5.24-8.129 0-8.129-5.243 0-5.243 8.129 0 8.129z"/><path d="m568.043 241.658c.125.09.25.178.377.266 2.535 1.777 5.992-.611 5.992-3.439s-3.457-5.215-5.992-3.439c-.127.09-.252.178-.377.266-2.355 1.65-2.355 4.695 0 6.346z"/><path d="m550.418 247.75c5.158 0 5.158-7.998 0-7.998-5.156-.001-5.156 7.998 0 7.998z"/><path d="m514.852 265.183c.113-.008.225-.014.336-.02 4.402-.275 5.496-6.521 1.055-7.801-.104-.031-.211-.061-.318-.092-5.835-1.681-6.864 8.274-1.073 7.913z"/><path d="m529.053 263.353c1.221 4.434 8.389 2.455 6.975-1.756-1.485-4.418-8.243-2.859-6.975 1.756z"/><path d="m492.345 262.607c-.049.092-.098.182-.146.275-1.135 2.15-.148 4.768 2.23 5.475.096.029.193.059.291.09 2.924.867 5.68-2.018 4.889-4.891-.882-3.215-5.629-4.045-7.264-.949z"/><path d="m457.105 279.751c4.396 0 4.396-6.814 0-6.814s-4.397 6.814 0 6.814z"/><path d="m475.292 261.533c4.371 0 4.371-6.779 0-6.779s-4.371 6.779 0 6.779z"/><path d="m433.832 284.835c2.93 0 2.93-4.545 0-4.545-2.934.001-2.934 4.545 0 4.545z"/><path d="m434.818 262.451c4.648 0 4.648-7.209 0-7.209s-4.649 7.209 0 7.209z"/><path d="m412.455 265.982c-5.283 0-5.283 8.195 0 8.195 5.285 0 5.285-8.195 0-8.195z"/><path d="m388.025 292.595c5.158 0 5.158-8.002 0-8.002-5.16 0-5.16 8.002 0 8.002z"/><path d="m407.541 208.529c5.285 0 5.285-8.195 0-8.195-5.284-.001-5.284 8.195 0 8.195z"/><path d="m383.318 194.773c-4.309 0-4.309 6.68 0 6.68 4.31 0 4.31-6.68 0-6.68z"/><path d="m632.914 231.919c5.117 0 5.117-7.932 0-7.932-5.115.001-5.115 7.932 0 7.932z"/><path d="m640.99 214.65c5.029 0 5.029-7.799 0-7.799s-5.029 7.799 0 7.799z"/><path d="m660.912 225.162c4.605 0 4.605-7.143 0-7.143s-4.605 7.143 0 7.143z"/><path d="m631.713 249.007c.063-.152.125-.307.184-.461 1.574-3.982-6.088-4.986-5.613-.76.02.164.037.33.055.494.352 3.122 4.214 3.665 5.374.727z"/><path d="m673.33 237.521c2.551 0 2.551-3.953 0-3.953-2.549 0-2.549 3.953 0 3.953z"/><path d="m692.596 245.945c5.092 0 5.092-7.898 0-7.898-5.094-.001-5.094 7.898 0 7.898z"/><path d="m691.541 266.623c5.053 0 5.053-7.832 0-7.832-5.051 0-5.051 7.832 0 7.832z"/><path d="m710.848 261.15c4.33 0 4.33-6.713 0-6.713s-4.33 6.713 0 6.713z"/><path d="m521.107 186.769c4.838 0 4.838-7.504 0-7.504s-4.837 7.504 0 7.504z"/><path d="m768.246 323c3.734 0 3.734-5.791 0-5.791-3.736-.001-3.736 5.791 0 5.791z"/><path d="m740.887 293.771c.195.055.389.111.582.166 3.238.938 4.125-4.398.625-4.621-.199-.012-.4-.025-.6-.037-2.639-.168-3.027 3.791-.607 4.492z"/><path d="m726.297 284.652c4.307 0 4.307-6.68 0-6.68-4.309 0-4.309 6.68 0 6.68z"/><path d="m744.9 317.636c4.287 0 4.287-6.648 0-6.648-4.285 0-4.285 6.648 0 6.648z"/><path d="m758.24 307.986c2.264 0 3.902-2.201 3.33-4.371-.006-.016-.01-.031-.014-.049-.867-3.287-5.766-3.287-6.633 0-.004.018-.008.033-.014.049-.571 2.17 1.07 4.371 3.331 4.371z"/><path d="m724.293 312.564c4.922 0 4.922-7.633 0-7.633-4.92 0-4.92 7.633 0 7.633z"/><path d="m706.725 286.171c3.721 2.611 8.027-3.098 4.846-6.283-4.038-4.035-9.678 2.891-4.846 6.283z"/><path d="m699.906 307.566c1.49 2.43 5.297 2.025 6.072-.795.76-2.756-2.373-5.318-4.883-3.754-.092.057-.184.115-.277.172-1.365.852-1.951 2.686-1.078 4.109.055.088.11.176.166.268z"/><path d="m685.859 288.052c5.113 0 5.113-7.93 0-7.93-5.115.001-5.115 7.93 0 7.93z"/><path d="m671.428 304.013c3.82 0 3.82-5.924 0-5.924s-3.821 5.924 0 5.924z"/><path d="m666.266 275.591c-5.115 0-5.115 7.932 0 7.932 5.117 0 5.117-7.932 0-7.932z"/><path d="m666.615 262.955c4.395 0 4.395-6.813 0-6.813-4.392 0-4.392 6.813 0 6.813z"/><path d="m647.791 256.56c4.072 0 4.072-6.314 0-6.314s-4.072 6.314 0 6.314z"/><path d="m633.268 262.515c-4.775 0-4.775 7.406 0 7.406 4.773 0 4.773-7.406 0-7.406z"/><path d="m605.533 255.203c5.264 0 5.264-8.162 0-8.162s-5.263 8.162 0 8.162z"/><path d="m607.256 230c5.08 0 5.08-7.871 0-7.871-5.076-.001-5.076 7.871 0 7.871z"/><path d="m583.037 256.662c.152.494.305.988.457 1.48-.021.324.303.648.625.625.789.334 1.607.529 2.457.59.969 0 1.908-.389 2.596-1.076 1.164-1.164 1.406-3.021.572-4.445-2.047-3.497-8.219-1.153-6.707 2.826z"/><path d="m559.193 266.976c5.053 0 5.053-7.834 0-7.834-5.05 0-5.05 7.834 0 7.834z"/><path d="m546.207 276.425c-4.945 0-4.945 7.668 0 7.668 4.943 0 4.943-7.668 0-7.668z"/><path d="m576.748 276.437c-4.479 0-4.479 6.945 0 6.945s4.479-6.945 0-6.945z"/><path d="m598.863 280.917c4.926 0 4.926-7.635 0-7.635-4.924.001-4.924 7.635 0 7.635z"/><path d="m613.959 285.597c5.072 0 5.072-7.865 0-7.865-5.074 0-5.074 7.865 0 7.865z"/><path d="m638.533 290.417c-5.01 0-5.01 7.768 0 7.768 5.008 0 5.008-7.768 0-7.768z"/><path d="m655.162 313.955c-4.535 0-4.535 7.033 0 7.033 4.539 0 4.539-7.033 0-7.033z"/><path d="m688.412 323.96c.059-.035.117-.072.176-.107 2.311-1.381 2.348-4.83 0-6.205-2.918-1.709-5.811 1.078-5.279 4.059.012.064.021.127.035.191.394 2.213 3.285 3.131 5.068 2.062z"/><path d="m705.625 334.912c-4.557 0-4.557 7.07 0 7.07 4.559 0 4.559-7.07 0-7.07z"/><path d="m713.615 325.708c3.098 0 3.098-4.803 0-4.803s-3.097 4.803 0 4.803z"/><path d="m723.137 349.511c4.648 0 4.648-7.209 0-7.209s-4.649 7.209 0 7.209z"/><path d="m737.309 344.503c4.563 0 4.563-7.076 0-7.076-4.565 0-4.565 7.076 0 7.076z"/><path d="m757.627 348.044c4.227 0 4.227-6.557 0-6.557-4.229.001-4.229 6.557 0 6.557z"/><path d="m765.613 334.115c3.352 0 3.352-5.201 0-5.201-3.353 0-3.353 5.201 0 5.201z"/><path d="m774.555 354.503c4.119 0 4.119-6.391 0-6.391-4.123.001-4.123 6.391 0 6.391z"/><path d="m734.371 365.74c4.754 0 4.754-7.373 0-7.373s-4.754 7.373 0 7.373z"/><path d="m617.998 403.621c-4.119 0-4.119 6.385 0 6.385 4.117-.001 4.117-6.385 0-6.385z"/><path d="m753.566 369.865c.092-.053.184-.105.273-.158 1.846-1.057 1.898-3.93 0-4.975-.09-.049-.182-.102-.273-.15-2.02-1.111-4.605.275-4.605 2.641 0 2.335 2.596 3.792 4.605 2.642z"/><path d="m707.207 375.322c4.883 0 4.883-7.574 0-7.574s-4.883 7.574 0 7.574z"/><path d="m688.531 356.328c5.246 0 5.246-8.139 0-8.139-5.248 0-5.248 8.139 0 8.139z"/><path d="m682.512 378.853c4.949 0 4.949-7.676 0-7.676-4.948 0-4.948 7.676 0 7.676z"/><path d="m662.756 334.537c-5.158 0-5.158 7.996 0 7.996 5.156 0 5.156-7.996 0-7.996z"/><path d="m644.502 348.55c5.221 0 5.221-8.098 0-8.098s-5.221 8.098 0 8.098z"/><path d="m626.598 315.259c-5.115 0-5.115 7.932 0 7.932s5.115-7.932 0-7.932z"/><path d="m612.541 338.771c-3.914 1.164-3.248 7.207.975 7.207 5.425 0 4.158-8.736-.975-7.207z"/><path d="m610.547 305.083c-.666-2.422-4.164-3.652-5.939-1.566-.08.094-.16.188-.24.281-1.605 1.885-1.07 4.818 1.469 5.561.113.033.225.066.34.098 2.614.765 5.081-1.791 4.37-4.374z"/><path d="m582.645 305.886c-.004.086-.006.174-.01.258-.057 1.52 1.135 3.174 2.654 3.484.082.016.162.035.244.051 3.285.676 6.275-2.645 4.441-5.777-2.031-3.467-7.185-1.861-7.329 1.984z"/><path d="m562.355 295.234c-5.137 0-5.137 7.965 0 7.965s5.137-7.965 0-7.965z"/><path d="m543.578 319.273c5.076 0 5.076-7.871 0-7.871s-5.076 7.871 0 7.871z"/><path d="m563.758 328.425c5.072 0 5.072-7.867 0-7.867s-5.072 7.867 0 7.867z"/><path d="m591.811 333.22c4.203 0 4.203-6.518 0-6.518s-4.204 6.518 0 6.518z"/><path d="m520.779 309.207c-4.518 0-4.518 7.006 0 7.006s4.518-7.006 0-7.006z"/><path d="m527.262 290.388c4.426 0 4.426-6.865 0-6.865-4.424 0-4.424 6.865 0 6.865z"/><path d="m724.189 383.419c-4.139 0-4.139 6.418 0 6.418s4.139-6.418 0-6.418z"/><path d="m742.27 382.376c-3.672 0-3.672 5.693 0 5.693s3.671-5.693 0-5.693z"/><path d="m634.758 388.105c4.924 0 4.924-7.635 0-7.635-4.926 0-4.926 7.635 0 7.635z"/><path d="m650.723 392.595c.004.109.01.221.014.328.105 2.42 2.145 3.801 4.439 3.383.113-.021.223-.041.336-.063 2.877-.521 3.549-4.447 1.672-6.324-2.26-2.259-6.608-.681-6.461 2.676z"/><path d="m642.221 409.906c-4.84 0-4.84 7.504 0 7.504s4.84-7.504 0-7.504z"/><path d="m730.686 414.464c4.436 0 4.436-6.879 0-6.879s-4.436 6.879 0 6.879z"/><path d="m623.264 424.861c-4.117 0-4.117 6.385 0 6.385s4.117-6.385 0-6.385z"/><path d="m672.236 421.064c-4.713 0-4.713 7.305 0 7.305 4.711 0 4.711-7.305 0-7.305z"/><path d="m650.938 438.253c4.787 0 4.787-7.426 0-7.426-4.79.001-4.79 7.426 0 7.426z"/><path d="m718.67 430.287c4.707 0 4.707-7.299 0-7.299-4.705 0-4.705 7.299 0 7.299z"/><path d="m695.137 413.189c-1.49 3.402 2.457 7.219 5.461 4.213 3.812-3.809-3.528-8.631-5.461-4.213z"/><path d="m696.643 395.626c1.516 1.514 4.537 1.357 5.543-.715.045-.086.086-.174.127-.26 1.531-3.156-1.535-6.234-4.695-4.695-.088.041-.174.084-.26.125-2.073 1.008-2.233 4.028-.715 5.545z"/><path d="m674.105 405.3c.068.096.135.188.203.281 2.924 4.012 8.609-.857 5.201-4.014-.086-.078-.172-.158-.256-.238-2.616-2.423-7.427.844-5.148 3.971z"/><path d="m655.734 364.189c-4.945 0-4.945 7.668 0 7.668s4.946-7.668 0-7.668z"/><path d="m484.773 293.648c4.818 0 4.818-7.471 0-7.471-4.816 0-4.816 7.471 0 7.471z"/><path d="m505.836 301.826c5.18 0 5.18-8.029 0-8.029-5.178-.001-5.178 8.029 0 8.029z"/><path d="m442.646 295.523c-4.988 0-4.988 7.734 0 7.734s4.988-7.734 0-7.734z"/><path d="m410.394 296.386c5.121 0 5.121-7.945 0-7.945s-5.121 7.945 0 7.945z"/><path d="m393.523 314.708c1.404 3.211 5.801 1.229 6.01-1.627.014-.16.025-.32.035-.482.168-2.295-2.248-3.635-4.23-3.225-.561.115-1.1.432-1.477.861-1.094 1.238-1.164 2.58-.523 4.051.062.141.122.284.185.422z"/><path d="m371.57 309.976c-.016.07-.029.139-.047.209-.359 1.695.479 3.795 2.367 4.166.125.012.244.047.357.104 2.793 1.082 5.779-2.76 3.984-5.184-.037-.051-.074-.102-.111-.15-1.673-2.266-5.841-2.493-6.55.855z"/><path d="m352.996 332.753c.068.012.137.021.207.029 3.021.428 5.961-2.34 4.16-5.414-1.586-2.709-5.945-2.242-6.736.881-.018.078-.039.156-.057.232-.418 1.653.519 4.007 2.426 4.272z"/><path d="m341.15 351.373c.096-.051.188-.098.283-.146 3.604-1.859-.156-7.4-3.525-4.57-.08.066-.162.133-.24.201-2.614 2.196.714 5.944 3.482 4.515z"/><path d="m324.693 367.73c4.605 0 4.605-7.141 0-7.141s-4.606 7.141 0 7.141z"/><path d="m330.902 381.689c-3.396 3.607 1.752 8.699 5.404 5.406.033-.029.068-.061.102-.088 3.666-3.305-2.018-9.029-5.416-5.416-.032.032-.063.065-.09.098z"/><path d="m359.443 392.441c-1.971-.641-3.693.158-4.072 2.313-.482 2.744 2.17 5.316 4.865 3.738 2.556-1.496 1.887-5.182-.793-6.051z"/><path d="m353.656 376.468c5.008 0 5.008-7.768 0-7.768-5.01.001-5.01 7.768 0 7.768z"/><path d="m363.134 352.707c-5.264 0-5.264 8.162 0 8.162s5.264-8.162 0-8.162z"/><path d="m379.457 331.808c-5.051 0-5.051 7.832 0 7.832 5.052 0 5.052-7.832 0-7.832z"/><path d="m410 320.8c-4.988 0-4.988 7.732 0 7.732s4.988-7.732 0-7.732z"/><path d="m433.234 311.722c-.041-.068-.08-.133-.121-.203-.904-1.512-3.26-2.416-4.816-1.264-.059.043-.115.084-.174.127-2.482 1.838-2.479 5.9.893 6.828 3.138.864 5.911-2.658 4.218-5.488z"/><path d="m462.421 314.394c-1.92-1.016-4.887-.236-5.332 2.17-.328 1.766-.17 3.273 1.264 4.508 3.41 2.936 7.875-.684 6.049-4.668-.424-.924-1.092-1.539-1.981-2.01z"/><path d="m469.607 290.066c-4.795 0-4.795 7.436 0 7.436s4.795-7.436 0-7.436z"/><path d="m485.982 314.31c4.98 0 4.98-7.723 0-7.723-4.979 0-4.979 7.723 0 7.723z"/><path d="m508.234 282.949c3.926.168 3.926-6.25 0-6.084-.139.006-.281.012-.424.02-3.896.166-3.896 5.881 0 6.047.143.005.286.011.424.017z"/><path d="m440.55 190.988c-4.074 2.387-.109 8.855 3.594 6.291 3.811-2.637.541-8.713-3.594-6.291z"/><path d="m416.302 193.576c2.898 1.699 5.736-.566 6.096-3.5.012-.098.025-.197.035-.295.377-3.082-3.531-4.639-5.85-3.357-.094.051-.188.104-.281.156-2.683 1.482-2.578 5.486 0 6.996z"/><path d="m402.248 183.445c4.486 0 4.486-6.957 0-6.957s-4.487 6.957 0 6.957z"/><path d="m393.148 173.951c5.285 0 5.285-8.195 0-8.195-5.283-.001-5.283 8.195 0 8.195z"/><path d="m430.009 167.615c5.264 0 5.264-8.162 0-8.162s-5.263 8.162 0 8.162z"/><path d="m438.435 182.162c5.008 0 5.008-7.768 0-7.768-5.01 0-5.01 7.768 0 7.768z"/><path d="m463.183 167.054h.313c1.771.008 3.373-1.219 3.842-2.924.633-2.299-.781-4.066-2.781-4.904-.1-.041-.199-.082-.297-.123-2.041-.852-4.449.904-4.98 2.828-.7 2.545 1.272 5.117 3.903 5.123z"/><path d="m466.869 185.683c4.797 0 4.797-7.438 0-7.438s-4.797 7.438 0 7.438z"/><path d="m490.578 179.767c-2.895.695-3.76 4.516-1.729 6.545 2.449 2.449 6.627.621 6.686-2.77.002-.105.004-.213.006-.32.041-2.447-2.365-4.078-4.641-3.533-.106.027-.215.051-.322.078z"/><path d="m488.656 168.66c4.576 0 4.576-7.092 0-7.092-4.574 0-4.574 7.092 0 7.092z"/><path d="m507.047 180.533c5.145 0 5.145-7.98 0-7.98-5.147-.001-5.147 7.98 0 7.98z"/><path d="m389.441 367.664c-4.938 0-4.938 7.66 0 7.66 4.941 0 4.941-7.66 0-7.66z"/><path d="m387.003 399.476c4.371 0 4.371-6.777 0-6.777s-4.371 6.777 0 6.777z"/><path d="m405.294 408.378c-.076-.045-.152-.092-.229-.137-3.908-2.322-7.879 2.996-4.779 6.197.061.064.123.129.182.191 4.014 4.148 9.86-3.26 4.826-6.251z"/><path d="m431.589 429.291c5.221 0 5.221-8.096 0-8.096s-5.22 8.096 0 8.096z"/><path d="m421.583 398.255c5.264 0 5.264-8.162 0-8.162s-5.263 8.162 0 8.162z"/><path d="m414.212 364.375c5.029 0 5.029-7.801 0-7.801s-5.029 7.801 0 7.801z"/><path d="m433.167 346.14c5.285 0 5.285-8.193 0-8.193-5.283 0-5.283 8.193 0 8.193z"/><path d="m461.763 333.615c0 3.045 3.387 4.951 6.01 3.449.695-.398 1.297-.92 1.66-1.648 1.025-2.047.273-5.051-2.264-5.566-.119-.02-.236-.049-.35-.086-2.505-.71-5.056 1.269-5.056 3.851z"/><path d="m492.652 332.714c4.973 0 4.973-7.711 0-7.711s-4.973 7.711 0 7.711z"/><path d="m517.756 336.257c3.344-1.984 1.197-7.439-2.686-6.371-4.914 1.352-1.693 8.973 2.686 6.371z"/><path d="m547.541 344.957c4.783 0 4.783-7.418 0-7.418-4.781 0-4.781 7.418 0 7.418z"/><path d="m581.137 354.402c5.072 0 5.072-7.865 0-7.865s-5.073 7.865 0 7.865z"/><path d="m611.863 371.695c5.068 0 5.068-7.857 0-7.857-5.066-.001-5.066 7.857 0 7.857z"/><path d="m594.246 384.964c-.082.1-.164.201-.244.299-2.01 2.465-.662 5.596 2.459 5.943.131.014.26.027.387.043 2.426.268 4.133-2.547 3.551-4.66-.678-2.468-4.35-3.836-6.153-1.625z"/><path d="m604.834 418.628c-5.137 0-5.137 7.965 0 7.965 5.135 0 5.135-7.965 0-7.965z"/><path d="m591.67 449.876c5.174 0 4.186-8.256-.951-7.014-3.897.942-3.098 7.014.951 7.014z"/><path d="m567.934 448.398c-.082-.043-.162-.086-.244-.129-2.551-1.357-6.316 1.596-4.309 4.307.666.896 1.205 1.348 2.252 1.756.941.369 2.1-.084 2.785-.736.055-.051.109-.102.164-.156 1.463-1.392 1.156-4.081-.648-5.042z"/><path d="m547.82 463.958c4.205 0 4.205-6.52 0-6.52-4.201.001-4.201 6.52 0 6.52z"/><path d="m524.6 453.003c-4.988 0-4.988 7.736 0 7.736s4.988-7.736 0-7.736z"/><path d="m473.863 474.009c-3.992 0-3.992 6.191 0 6.191 3.99.001 3.99-6.191 0-6.191z"/><path d="m502.734 460.082c-5.273 0-5.273 8.178 0 8.178 5.278-.001 5.278-8.178 0-8.178z"/><path d="m465.939 456.302c.029.098.059.195.086.293 1.113 3.818 6.6 3.818 7.713 0 .029-.098.057-.195.086-.293.746-2.561-1.316-5.174-3.943-5.174s-4.69 2.614-3.942 5.174z"/><path d="m461.308 437.601c1.752.799 3.371.391 4.498-1.18-.059.096-.115.193-.172.291 2.631-2.33.496-6.711-2.779-6.711-3.307 0-5.373 4.359-2.781 6.711.383.344.761.672 1.234.889z"/><path d="m453.179 417.722c5.24 0 5.24-8.129 0-8.129-5.242 0-5.242 8.129 0 8.129z"/><path d="m448.287 388.535c-1.045-1.066-2.83-1.326-4.111-.531-.08.051-.16.1-.238.148-2.734 1.699-2.305 5.986.896 6.867 3.654 1.006 6.281-3.605 3.654-6.279-.065-.069-.133-.137-.201-.205z"/><path d="m446.542 372.218c5.199 0 5.199-8.061 0-8.061-5.197.001-5.197 8.061 0 8.061z"/><path d="m470.029 352.312c-5.094 0-5.094 7.898 0 7.898s5.094-7.898 0-7.898z"/><path d="m501.529 350.66c.045-.08.09-.162.137-.242 2.492-4.547-3.838-7.957-6.79-3.969-.055.076-.111.15-.166.227-2.988 4.038 4.327 8.527 6.819 3.984z"/><path d="m540.461 367.121c-.021.008-.047.018-.072.027-1.516-.619.215.15.711.242 2.158.393 4.338-.559 4.959-2.816.537-1.949-.645-4.602-2.816-4.959-1.867-.309-3.07-.1-4.555 1.098-1.807 1.459-1.367 5.105.779 6.047.336.148.666.263.994.361z"/><path d="m480.494 379.941c-5.115 0-5.115 7.932 0 7.932 5.117 0 5.117-7.932 0-7.932z"/><path d="m485.589 404.427c-5.195 0-5.195 8.059 0 8.059 5.198 0 5.198-8.059 0-8.059z"/><path d="m494.382 427.695c-5.158 0-5.158 7.998 0 7.998 5.161 0 5.161-7.998 0-7.998z"/><path d="m486.392 444.882c-4.83 0-4.83 7.49 0 7.49s4.83-7.49 0-7.49z"/><path d="m478.89 423.13c-.031-.09-.063-.184-.094-.273-.758-2.193-3.496-3.141-5.25-1.387-2.113 2.113-.361 5.057 2.221 5.361.094.012.186.021.281.033 1.858.219 3.422-2.058 2.842-3.734z"/><path d="m513.639 415.203c-5.102 0-5.102 7.91 0 7.91 5.099 0 5.099-7.91 0-7.91z"/><path d="m519.002 439.263c5.178 0 5.178-8.031 0-8.031-5.18 0-5.18 8.031 0 8.031z"/><path d="m546.844 437.722c-1.551-2.646-5.258-2.477-6.846 0-.051.08-.102.16-.154.24-1.594 2.49.506 5.676 3.283 5.721.1.002.195.002.295.004 3.017.051 4.924-3.4 3.422-5.965z"/><path d="m573.707 433.16c5.18 0 5.18-8.031 0-8.031-5.182-.001-5.182 8.031 0 8.031z"/><path d="m582.477 408.152c-.102.09-.199.182-.301.273-1.445 1.318-1.408 3.867 0 5.191.102.096.199.189.301.281 2.551 2.398 6.938.754 6.938-2.873-.001-3.667-4.37-5.218-6.938-2.872z"/><path d="m551.143 413.369c-3.795 0-3.795 5.885 0 5.885 3.793-.001 3.793-5.885 0-5.885z"/><path d="m529.465 391.382c-4.188 0-4.188 6.494 0 6.494s4.187-6.494 0-6.494z"/><path d="m501.162 395.564c2.365 1.385 5.102.027 5.945-2.42.045-.135.094-.271.141-.406 1.389-4.035-3.813-6.145-6.564-3.82-.113.096-.229.193-.344.287-2.022 1.711-1.289 5.123.822 6.359z"/><path d="m509.184 376.107c2.242.609 4.484-1.207 4.229-3.449-.006-.107-.033-.209-.051-.314-.021-.1-.018-.193-.047-.293-.002.021-.008.041-.01.063-.414-1.734-2.104-3.09-4.121-2.537-3.229.887-3.245 5.651 0 6.53z"/><path d="m562.088 385.011c-.014-.08-.027-.162-.041-.242-.223-1.328-1.547-2.439-2.777-2.777-1.877-.516-3.396.383-4.49 1.826-.055.072-.109.145-.164.217-1.629 2.146.125 5.367 2.443 6.006 3.242.892 5.529-2.051 5.029-5.03z"/><path d="m571.33 374.474c5.008 0 5.008-7.768 0-7.768-5.012.001-5.012 7.768 0 7.768z"/><path d="m570.605 402.699c4.881 0 4.881-7.57 0-7.57s-4.88 7.57 0 7.57z"/><path d="m792.773 372.011c1.678-1.676.906-4.658-1.395-5.279-2.664-.723-4.607 1.219-3.885 3.885.622 2.299 3.605 3.07 5.28 1.394z"/><path d="m761.074 489.978c-.006.186-.012.373-.016.561-.127 4.521 7.137 4.521 7.01 0-.004-.188-.01-.375-.016-.561-.126-4.5-6.851-4.5-6.978 0z"/><path d="m195.968 301.32c5.291 0 5.291-8.207 0-8.207-5.293 0-5.293 8.207 0 8.207z"/><path d="m529.816 174.966c.746.498 1.584.648 2.465.609 4.08-.18 5.41-6.721 1.008-7.453-.52-.086-1.037-.174-1.563-.213-4.019-.3-4.798 5.124-1.91 7.057z"/><path d="m575.697 186.851c.135-.014.27-.029.404-.043 4.807-.512 4.98-7.344 0-7.605-.135-.006-.27-.012-.404-.02-5.015-.264-4.865 8.186 0 7.668z"/><path d="m652.93 240.386c4.266 0 4.266-6.613 0-6.613-4.268 0-4.268 6.613 0 6.613z"/><path d="m639.588 323.363c-4.627 0-4.627 7.174 0 7.174 4.625 0 4.625-7.174 0-7.174z"/><path d="m630.461 370.541c4.605 0 4.605-7.143 0-7.143s-4.606 7.143 0 7.143z"/><path d="m618.488 390.138c-.074-1.227-.979-2.461-2.334-2.295-.699.086-1.246.213-1.883.525-2.291 1.123-1.58 4.609.684 5.232 2.135.589 4.041-1.472 3.533-3.462z"/><path d="m690.951 435.128c2.787 0 2.787-4.324 0-4.324s-2.787 4.324 0 4.324z"/><path d="m840.775 469.916c.568 2.717 7.826 3.248 7.16.82-.578-2.1-7.494-2.416-7.16-.82z"/></g></g></g></svg>