<?xml version="1.0" encoding="UTF-8" standalone="no"?>
<!-- Generator: Adobe Illustrator 26.2.1, SVG Export Plug-In . SVG Version: 6.00 Build 0)  -->

<svg
   version="1.1"
   id="Capa_1"
   x="0px"
   y="0px"
   viewBox="0 0 512 512"
   style="enable-background:new 0 0 512 512;"
   xml:space="preserve"
   width="512"
   height="512"
   sodipodi:docname="012-bear.svg"
   inkscape:version="1.4 (1:1.4+202410161351+e7c3feb100)"
   xmlns:inkscape="http://www.inkscape.org/namespaces/inkscape"
   xmlns:sodipodi="http://sodipodi.sourceforge.net/DTD/sodipodi-0.dtd"
   xmlns="http://www.w3.org/2000/svg"
   xmlns:svg="http://www.w3.org/2000/svg"><defs
   id="defs34" /><sodipodi:namedview
   id="namedview34"
   pagecolor="#505050"
   bordercolor="#ffffff"
   borderopacity="1"
   inkscape:showpageshadow="0"
   inkscape:pageopacity="0"
   inkscape:pagecheckerboard="1"
   inkscape:deskcolor="#505050"
   inkscape:zoom="0.78417965"
   inkscape:cx="-108.39353"
   inkscape:cy="276.08469"
   inkscape:window-width="1920"
   inkscape:window-height="1011"
   inkscape:window-x="0"
   inkscape:window-y="32"
   inkscape:window-maximized="1"
   inkscape:current-layer="g33" />
<g
   id="g34">
	<path
   style="fill:#FFFFFF;"
   d="M503.779,64.318C498.664,19.887,462.396,0,428.72,0c-12.486,0-23.485,2.895-30.972,8.151   c-12.248,8.6-21.986,24.439-28.582,37.879c-8.083-3.618-16.178-6.279-24.668-8.115c-5.128-12.247-11.39-19.043-19.399-21.179   c-1.624-0.433-3.27-0.653-4.889-0.653c-2.75,0-5.399,0.627-7.797,1.814c-4.659-4.558-10.396-7.816-17.278-7.816   c-2.344,0-4.668,0.398-6.908,1.181c-5.281,1.849-9.447,5.428-11.936,10.198c-2.201-0.59-4.458-0.929-6.738-0.929   c-3.703,0-7.183,0.85-10.348,2.525c-5.02,2.657-8.597,7.034-10.074,12.325c-0.569,2.039-0.822,4.163-0.76,6.368   c-4.566,1.414-8.99,3.072-13.308,4.988c-6.506-12.907-15.998-28.013-27.762-36.274c-7.487-5.256-18.486-8.151-30.972-8.151   c-33.676,0-69.945,19.887-75.06,64.319c-1.188,10.313-0.266,19.678,2.739,28.009c-24.297,0.246-47.639,16.911-55.64,39.797   c-3.558,10.15-4.109,20.476-3.802,30c-16.689,8.11-29.862,23.077-34.591,39.897c-4.842,17.291-1.762,36.373,7.968,51.428   c-9.739,19.963-9.1,44.586,2.229,63.776c10.808,18.383,30.927,30.786,52.353,32.668c1.44,0.939,3.055,1.637,4.787,2.036   c9.578,13.476,23.638,23.487,38.824,27.374c6.105,1.56,12.73,2.351,19.692,2.351c4.263,0,8.775-0.296,13.415-0.884   c12.542-1.589,23.595-5.008,32.979-10.188c4.818,2.413,9.804,4.625,14.865,6.594l-49.452,27.754l-10.723,0.595   c-5.504,0.307-10.275,3.909-12.077,9.118c-1.803,5.207-0.278,10.988,3.859,14.63l66.628,58.662   c0.007,0.013,0.013,0.026,0.019,0.038c2.493,5.069,7.551,8.219,13.201,8.219c2.254,0,4.514-0.53,6.49-1.512l73.701-36.247   c3.271,0.296,6.589,0.497,9.91,0.601c4.835,0.15,9.514,0.225,13.906,0.225c8.563,0,16.293-0.276,23.458-0.842l28.425,21.211   l-3.959,12.331c-1.841,5.735,0.316,11.998,5.298,15.381c2.312,1.571,4.973,2.347,7.628,2.347c3.07,0,6.13-1.039,8.625-3.09   l69.337-57.005c2.807-2.307,4.571-5.644,4.899-9.262c0.328-3.62-0.809-7.22-3.155-9.993l-21.578-25.518   c3.853-6.815,5.907-14.532,5.907-22.521c0-15.198-7.615-29.328-19.908-37.812c-5.276-32.362-17.299-58.155-25.574-72.947   c24.87-5.18,56.661-16.464,74.111-41.014c11.837-16.654,15.366-36.596,10.488-59.274c-3.346-15.564-9.44-30.826-18.181-45.577   c11.854-3.299,24.635-9.35,33.87-20.386C501.878,96.086,505.76,81.524,503.779,64.318z"
   id="path1" />
	<g
   id="g33">
		<g
   id="g8">
			<g
   id="g2">
				<path
   style="fill:#f1d958;fill-opacity:1"
   d="M231.729,268.82c-0.724,19.642-12.175,39.488-29.509,48.744      c2.127,13.352-4.526,27.11-14.845,35.845c-10.296,8.758-23.761,13.057-37.158,14.754c-9.323,1.177-18.918,1.177-28.038-1.154      c-14.505-3.711-27.223-14.347-34.533-27.495c-0.43-0.747-0.815-1.494-1.199-2.24c-0.023-0.045-0.045-0.091-0.068-0.136      c-0.656,0.068-1.335,0.136-1.991,0.158c-0.068,0.023-0.136,0.023-0.226,0c-0.43,0.045-0.883,0.091-1.312,0.091h-0.023      c-19.19,0.747-38.515-9.595-48.269-26.182c-10.206-17.289-9.437-40.439,1.81-57.072c0.181-0.271,0.362-0.566,0.566-0.837      c-0.475-0.52-0.95-1.064-1.403-1.607c-10.296-12.288-14.121-29.713-9.799-45.146c4.345-15.456,18.33-28.74,33.628-33.876      c0.656-0.226,1.335-0.43,2.014-0.634c-0.045-0.475-0.068-0.95-0.113-1.426c-0.792-11.156-1.086-22.607,2.602-33.13      c6.314-18.058,24.96-31.048,44.105-30.708c6.562,0.136,12.22,1.743,17.968,4.911c12.424,6.834,24.1,17.108,29.848,29.894      c0.339,0.724,0.633,1.448,0.928,2.173c0.973,2.489,1.72,5.069,2.195,7.739c11.043-1.607,22.494,2.58,30.912,9.912      c8.441,7.332,14.008,17.515,17.176,28.242c1.584,5.409,2.715,11.383,2.399,17.04v0.023c-0.068,1.018-0.181,2.037-0.34,3.032      c-0.543,3.327-1.652,6.495-3.598,9.301C222.067,229.512,232.431,249.2,231.729,268.82z"
   id="path2" />
			</g>
			<g
   id="g7">
				<g
   id="g3">
					<path
   style="fill:#2C0B1F;"
   d="M156.712,143.747c-23.195,19.122-53.111,29.735-83.141,29.735       c-4.684,0-9.391-0.249-14.076-0.769c-0.045,0-0.09-0.023-0.136-0.045c-0.566-0.136-0.928-0.634-0.86-1.222       c0.068-0.611,0.611-1.064,1.245-0.996c0.498,0.068,1.018,0.113,1.516,0.158c33.718,3.395,68.5-7.355,94.524-29.034       C156.124,142.298,156.418,143.022,156.712,143.747z"
   id="path3" />
				</g>
				<g
   id="g4">
					<path
   style="fill:#2C0B1F;"
   d="M209.394,206.702c-0.068,1.018-0.181,2.037-0.34,3.032       c-16.067,11.45-30.957,19.733-45.87,25.617c-18.624,7.332-38.515,11.292-57.298,14.687       c-16.655,3.032-33.062,5.657-49.242,5.657c-6.812,0-13.555-0.475-20.276-1.561c0.181-0.271,0.362-0.566,0.566-0.837       c-0.475-0.52-0.95-1.064-1.403-1.607c22.765,3.983,46.096,0.453,69.948-3.87c18.669-3.394,38.425-7.309,56.868-14.573       C177.577,227.249,192.829,218.65,209.394,206.702z"
   id="path4" />
				</g>
				<g
   id="g5">
					<path
   style="fill:#2C0B1F;"
   d="M83.219,339.592c-0.62,0-1.125-0.499-1.131-1.12c-0.006-0.625,0.496-1.136,1.12-1.142       c19.255-0.187,35.286-1.102,50.931-4.959c18.251-4.5,33.489-12.818,44.067-24.053c0.43-0.455,1.145-0.476,1.6-0.049       c0.455,0.429,0.476,1.145,0.049,1.6c-10.878,11.553-26.499,20.094-45.174,24.698c-15.857,3.91-32.037,4.836-51.45,5.025       C83.226,339.592,83.222,339.592,83.219,339.592z"
   id="path5" />
				</g>
				<g
   id="g6">
					<path
   style="fill:#2C0B1F;"
   d="M94.6,268.3c-4.884,13.427-2.919,29.149,5.117,40.962c2.34,3.44,5.26,6.632,9.024,8.404       c3.764,1.771,8.493,1.892,11.903-0.492c4.338-3.032,5.391-8.962,5.487-14.253c0.229-12.61-2.942-26.721-9.383-37.697       C110.786,255.062,98.552,257.434,94.6,268.3z"
   id="path6" />
				</g>
			</g>
		</g>
		<g
   id="g9">
			<polygon
   style="fill:#6c5353"
   points="376.082,496.972 383.007,475.406 360.762,458.819 334.489,439.199 332.158,442.276      382.237,365.245 405.908,393.238 445.419,439.968    "
   id="polygon8" />
			<path
   style="fill:#2C0B1F;"
   d="M392.805,433.609c-8.395,10.84-19.71,19.031-32.043,25.209l-26.273-19.62l-2.331,3.078     l50.079-77.031l23.671,27.993C406.949,407.517,401.676,422.181,392.805,433.609z"
   id="path8" />
		</g>
		<path
   style="fill:#6c5353"
   d="M301.745,446.326c-74.542-2.308-93.596-53.157-79.747-90.134    c8.894-23.716,28.943-57.864,42.227-79.316c7.4-12.016,12.672-20.05,12.672-20.05l85.721-7.604l11.926-1.064l0.566,18.488    c0,0,32.36,44.49,34.103,105.725C410.933,433.631,376.264,448.634,301.745,446.326z"
   id="path9" />
		<path
   style="fill:#2C0B1F;"
   d="M362.619,249.223c-1.29,1.426-2.67,2.783-4.051,4.073c-24.757,23.037-61.665,31.976-94.343,23.58    c7.4-12.016,12.672-20.05,12.672-20.05L362.619,249.223z"
   id="path10" />
		<g
   id="g27">
			<path
   style="fill:#6c5353;fill-opacity:1"
   d="M 465.96,174.969 C 450.553,103.325 375.827,61.725 375.827,61.725 349.305,47.164 328.906,46.896 305.217,46.318 c -19.067,1.733 -43.581,0.846 -70.104,15.407 0,0 -74.726,41.6 -90.133,113.244 -15.407,71.644 71.644,88.592 117.096,88.592 h 31.321 24.145 31.322 c 45.452,0 132.503,-16.948 117.096,-88.592 z"
   id="path11"
   sodipodi:nodetypes="scccssccss" />
			<path
   style="fill:#6c5353"
   d="M271.706,54.984c0,0-13.289-16.178-3.467-21.378c9.822-5.2,26,12.711,26,12.711     s-10.4-19.644,1.156-23.689c11.555-4.045,21.378,22.533,21.378,22.533s-1.156-19.067,7.511-16.756     c8.667,2.311,14.444,25.422,14.444,25.422L271.706,54.984z"
   id="path12" />
			<g
   id="g15">
				<g
   id="g14">
					<path
   style="fill:#6c5353"
   d="m 177.143,119.117 c 0,0 -65.866,1.156 -59.703,-52.385 6.163,-53.54 66.637,-59.318 84.74,-46.607 18.104,12.711 31.2,48.918 31.2,48.918 z"
   id="path13"
   sodipodi:nodetypes="ccccc" />
					<path
   style="fill:#d38d5f"
   d="M204.15,56.263c-2.576-3.395-5.531-6.604-9.234-8.713c-3.274-1.864-7.004-2.792-10.736-3.306       c-11.915-1.64-24.678,1.02-34.004,8.616c-9.326,7.596-14.602,20.409-11.838,32.115c1.866,7.904,7.161,14.786,13.896,19.325       c6.734,4.539,14.818,6.843,22.92,7.399c5.039,0.346,10.184,0.028,14.973-1.58c9.894-3.322,22.226-12.636,25.462-23.062       C218.649,77.195,209.774,63.675,204.15,56.263z"
   id="path14" />
				</g>
				<path
   style="fill:#6c5353"
   d="M217.833,57.253c-4.596-2.103-10.785-2.761-14.058,1.09c-3.267,3.843-1.677,9.716,0.501,14.266      c-4.033-2.819-10.243-2.532-13.364,1.272c-3.121,3.804-1.538,10.694,3.191,12.053c-4.386,2.31-8.225,5.651-11.118,9.676      c-1.225,1.704-2.321,3.684-2.146,5.776c0.349,4.195,5.376,6.27,9.584,6.34c9.357,0.156,18.04-4.884,25.237-10.865      c6.52-5.418,14.09-12.965,16.427-21.426C234.289,67.46,224.33,60.226,217.833,57.253z"
   id="path15" />
			</g>
			<g
   id="g18">
				<g
   id="g17">
					<path
   style="fill:#6c5353"
   d="M433.269,116.806c0,0,65.866,1.156,59.703-52.385c-6.163-53.541-66.637-59.318-84.74-46.607       c-18.104,12.711-31.2,48.918-31.2,48.918L433.269,116.806z"
   id="path16" />
					<path
   style="fill:#d38d5f"
   d="M406.263,53.952c2.576-3.395,5.531-6.604,9.234-8.713c3.274-1.864,7.004-2.792,10.736-3.306       c11.915-1.64,24.678,1.02,34.004,8.616c9.326,7.596,14.602,20.409,11.838,32.115c-1.866,7.904-7.161,14.786-13.896,19.325       c-6.734,4.539-14.818,6.843-22.92,7.399c-5.039,0.346-10.184,0.028-14.973-1.58c-9.893-3.322-22.226-12.636-25.462-23.062       C391.763,74.883,400.638,61.364,406.263,53.952z"
   id="path17" />
				</g>
				<path
   style="fill:#6c5353"
   d="M392.579,54.942c4.596-2.103,10.785-2.761,14.058,1.09c3.267,3.843,1.677,9.716-0.501,14.266      c4.033-2.819,10.243-2.532,13.364,1.272c3.121,3.804,1.538,10.694-3.191,12.053c4.386,2.31,8.225,5.651,11.118,9.676      c1.225,1.704,2.321,3.684,2.146,5.776c-0.349,4.195-5.376,6.27-9.584,6.34c-9.357,0.156-18.04-4.884-25.237-10.865      c-6.52-5.418-14.09-12.965-16.427-21.426C376.124,65.149,386.082,57.915,392.579,54.942z"
   id="path18" />
			</g>
			<g
   id="g26">
				
				<g
   id="g25">
					
					
					<g
   id="g24">
						<path
   style="fill:#d38d5f"
   d="M274.232,125.382c-14.12,9.497-23.57,25.366-29.703,41.261        c-5.417,14.037-13.259,27.735-14.371,43.026c-0.346,4.759,0.041,9.73,2.297,13.935c2.771,5.167,8.087,8.59,13.684,10.335        c12.513,3.902,27.1,2.418,39.999,2.055c14.081-0.396,28.217-0.944,42.257,0.539c7.456,0.788,15.256,2.103,22.253-0.592        c8.799-3.389,14.621-12.69,15.678-21.798c0.726-6.25-0.22-12.563-1.254-18.77c-1.998-11.993-4.353-23.998-8.638-35.376        c-10.379-27.56-35.117-49.775-66.219-41.819C284.318,119.687,279.008,122.17,274.232,125.382z"
   id="path21" />
						<path
   style="fill:#2C0B1F;"
   d="M272.406,141.148c11.41-4.085,36.981-10.61,61.215,1.46c2.749,1.369,3.178,4.511,0.982,6.438        l-28.818,25.296c-2.102,1.845-5.696,1.779-7.695-0.142l-27.522-26.445C268.327,145.602,269.24,142.282,272.406,141.148z"
   id="path22" />
						<g
   id="g23">
							<circle
   style="fill:#2C0B1F;"
   cx="227.602"
   cy="149.932"
   r="14.637"
   id="circle22" />
							<circle
   style="fill:#2C0B1F;"
   cx="373.972"
   cy="149.932"
   r="14.637"
   id="circle23" />
						</g>
						<path
   style="fill:#2C0B1F;"
   d="M290.037,189.997c-1.364,0-2.729-0.274-4.012-0.823c-0.043-0.019-0.085-0.04-0.125-0.063        l-8.024-4.691c-0.539-0.315-0.721-1.008-0.405-1.548c0.315-0.539,1.008-0.72,1.548-0.405l7.961,4.654        c2.083,0.872,4.441,0.813,6.479-0.163c2.059-0.986,3.592-2.813,4.206-5.012l2.707-9.688c0.132-0.472,0.552-0.805,1.042-0.826        c0.488-0.025,0.937,0.276,1.108,0.735l3.538,9.481c0.808,2.166,2.517,3.866,4.687,4.665c2.149,0.791,4.528,0.614,6.535-0.484        l6.146-4.456c0.508-0.366,1.214-0.253,1.58,0.252c0.367,0.506,0.254,1.213-0.252,1.58l-6.202,4.496        c-0.036,0.026-0.074,0.05-0.113,0.072c-2.596,1.448-5.686,1.69-8.476,0.663c-2.79-1.026-4.986-3.212-6.025-5.997l-2.323-6.225        l-1.772,6.342c-0.79,2.827-2.761,5.175-5.408,6.443C293.047,189.663,291.542,189.997,290.037,189.997z"
   id="path23" />
						<path
   style="fill:#2C0B1F;"
   d="M293.362,188.932c0,0,2.022,16.755,9.822,16.755c7.8,0,8.378-17.622,8.378-17.622        s-8.956-5.2-10.689-19.356C300.873,168.71,300.873,187.776,293.362,188.932z"
   id="path24" />
					</g>
				</g>
			</g>
		</g>
		<polygon
   style="fill:#6c5353"
   points="229.71,376.805 154.214,419.176 140.347,419.946 211.221,482.346 300.584,438.242   "
   id="polygon27" />
		<path
   style="fill:#2C0B1F;"
   d="M211.222,483.478c-0.418,0-0.819-0.232-1.016-0.632c-0.276-0.561-0.045-1.239,0.516-1.515    l106.118-52.192c0.561-0.276,1.239-0.044,1.515,0.516c0.276,0.561,0.045,1.239-0.516,1.515l-106.118,52.192    C211.56,483.44,211.39,483.478,211.222,483.478z"
   id="path27" />
		<g
   id="g32">
			<g
   id="g29">
				<path
   style="fill:#6c5353"
   d="M314.451,278.969c0,0-16.178,13.867-65.481,12.326c-49.303-1.541-96.296-30.044-106.311,5.393      c-10.015,35.437,56.237,78.577,110.933,78.577c54.696,0,80.889-30.044,80.889-30.044L314.451,278.969z"
   id="path28" />
				<path
   style="fill:#2C0B1F;"
   d="M258.577,374.711c-20.526,0-38.919-4.366-40.304-4.703c-0.607-0.147-0.98-0.759-0.833-1.367      c0.148-0.607,0.76-0.975,1.367-0.833c0.612,0.149,61.5,14.594,85.609-8.955c24.086-23.526,21.083-45.6,21.049-45.82      c-0.093-0.617,0.332-1.194,0.949-1.288c0.618-0.093,1.194,0.329,1.288,0.946c0.146,0.943,3.268,23.389-21.705,47.781      C294.579,371.626,275.824,374.711,258.577,374.711z"
   id="path29" />
			</g>
			<g
   id="g31">
				<circle
   style="fill:#6c5353"
   cx="394.184"
   cy="383.161"
   r="32.355"
   id="circle29" />
				<path
   style="fill:#2C0B1F;"
   d="M395.164,414.891c-1.812,0-3.623-0.159-5.434-0.477c-16.706-2.933-27.243-18.221-27.684-18.871      c-0.351-0.517-0.216-1.22,0.301-1.571c0.516-0.351,1.221-0.217,1.571,0.3c0.103,0.151,10.463,15.158,26.218,17.916      c8.568,1.5,17.224-0.863,25.723-7.025c0.507-0.367,1.214-0.253,1.58,0.252c0.367,0.506,0.254,1.213-0.252,1.58      C409.944,412.247,402.558,414.891,395.164,414.891z"
   id="path30" />
				<path
   style="fill:#2C0B1F;"
   d="M367.604,367.535c-0.184,0-0.371-0.045-0.544-0.141c-0.546-0.301-0.747-0.986-0.447-1.533      c0.377-0.688,9.583-16.812,40.04-12.904c0.62,0.079,1.058,0.646,0.978,1.266c-0.079,0.62-0.646,1.055-1.266,0.978      c-28.825-3.696-37.683,11.595-37.769,11.75C368.39,367.324,368.003,367.535,367.604,367.535z"
   id="path31" />
			</g>
		</g>
	</g>
</g>















</svg>
