<svg id="Fruit" height="512" viewBox="0 0 992.13 992.13" width="512" xmlns="http://www.w3.org/2000/svg"><g><path d="m911.566 272.611-1.236-.011c-12.652 0-24.369 3.438-35.148 7.152-7.416 2.555-14.891 5.603-22.633 9.229 4.096-5.743 8.076-11.604 11.896-17.604 12.949-20.348 23.16-41.207 30.346-61.994 2.783-8.056 6.191-18.784 7.84-30.33 1.238-8.655 1.92-18.92-2.408-29.433-5.902-14.341-18.191-22.902-32.871-22.902-22.137 0-43.176 19.57-61.158 37.912-1.021 1.043-1.871 1.913-2.518 2.546-14.646 14.36-29.32 28.703-43.992 43.038-1.609-13.091-8.592-23.984-20.031-30.073-6.084-3.237-12.836-4.879-20.072-4.879-14.182 0-27.025 6.392-35.453 11.196-17.012 9.702-31.9 21.839-46.313 35.645 1.959-6.185 3.873-12.325 5.746-18.438 3.445-11.241 7.068-23.321 10.213-35.499l.295-1.133c3.797-14.675 9.537-36.851.867-56.747-6.197-14.234-19.016-22.731-34.291-22.731-7.729 0-15.635 2.244-22.863 6.487-18.74 10.997-30.779 29.226-40.451 43.873l-.598.903c-9.303 14.075-18.018 27.507-26.229 40.431-7.016-10.213-18.949-16.462-33.313-16.462-5.25 0-10.525.846-15.677 2.51-19.107 6.167-31.822 21.495-41.105 32.688l-.629.757c-8.535 10.284-16.641 21.429-24.203 33.272-13.061-1.988-26.906-3.245-41.361-3.745-4.223-.146-8.461-.221-12.705-.221-42.582 0-81.518 7.364-115.725 21.887-34.404 14.606-67.549 35.846-98.512 63.127-39.898 35.155-68.607 74.254-85.328 116.208-17.531 43.987-24.751 95.661-20.88 149.433 3.174 44.063 14.96 89.254 35.027 134.316 15.46 34.714 37.988 64.533 66.96 88.633 34.219 28.457 73.668 47.223 117.249 55.773 19.783 3.88 40.648 5.848 62.02 5.848 24.938 0 51.111-2.674 77.795-7.947 7.58-1.498 15.289-3.242 23.342-5.282 16.49 11.388 34.162 21.272 52.672 29.46 37.622 16.635 76.741 25.07 116.272 25.07 8.59 0 17.252-.416 25.748-1.234 61.824-5.963 123.539-32.287 183.424-78.236 27.898-21.406 49.455-43.729 65.904-68.244 16.451-24.514 28.756-53.12 36.57-85.021 15.098-61.621 7.969-131.295-21.189-207.083-3.695-9.604-7.201-18.128-10.721-26.062-.268-.601-.564-1.273-.855-1.938.443-.868.865-1.679 1.092-2.119 7.379-14.153 16.449-30.574 27.791-45.049 6.246-7.976 13.279-15.508 20.725-23.48l3.354-3.598c7.859-8.452 16.736-18.517 22.611-31.039 8.59-18.315 5.016-31.656.502-39.623-6.759-11.931-19.802-18.943-35.793-19.237z" fill="#fff"/><g><path d="m911.135 296.49c-9.531-.173-19.262 2.771-28.172 5.842-10.289 3.546-20.275 8.036-29.93 13.047-23.021 11.942-45.51 27.183-62.992 46.594-5.189-4.517-10.648-8.682-16.389-12.383 23.984-30.007 49.963-58.547 70.645-91.036 11.385-17.885 20.99-36.918 27.92-56.974 2.914-8.425 5.51-17.064 6.771-25.907.795-5.552 1.338-11.644-.852-16.959-10.59-25.73-49.303 17.241-57.742 25.519-22.748 22.301-45.547 44.554-68.332 66.815-18.02 17.607-36.025 35.237-54.02 52.876 3.832-7.337 7.674-14.672 11.398-22.063 9.115-18.087 19.635-36.787 25.301-56.34 2.463-8.504 2.629-19.539-6.313-24.297-10.174-5.416-23.545.891-32.473 5.981-26.906 15.345-49.559 39.36-70.375 61.902-16.502 17.87-32.141 36.494-48.043 54.888 4.68-12.297 8.961-24.764 13.309-37.068 10.557-29.88 20.594-59.96 29.879-90.259 3.504-11.431 6.932-22.896 9.924-34.473 3.27-12.667 7.938-29.643 2.389-42.375-4.355-10.005-14.719-10.141-23.17-5.18-14.277 8.378-24.326 23.897-33.213 37.346-29.039 43.938-57.045 88.595-82.237 134.864-1.215-.866-2.438-1.716-3.672-2.551 5.67-15.857 11.171-31.799 15.845-47.98 3.209-11.111 7.444-23.731 6.772-35.464-.762-13.255-13.546-16.375-24.516-12.831-12.82 4.139-22.379 15.956-30.691 25.969-11.502 13.859-21.709 28.839-30.686 44.457-17.867-3.826-36.227-5.696-54.082-6.313-40.016-1.381-81.244 4.06-118.273 19.779-33.594 14.263-64.729 34.986-92.055 59.065-33.73 29.719-62.198 65.142-78.931 107.13-17.404 43.665-22.606 92.199-19.245 138.875 3.133 43.494 15.308 86.535 33.024 126.316 13.898 31.211 34.135 58.128 60.412 79.984 30.917 25.713 67.082 42.951 106.576 50.7 43.109 8.456 87.652 6.394 130.584-2.092 11.02-2.179 21.928-4.838 32.752-7.823 17.885 13.361 37.393 24.67 57.555 33.586 40.805 18.045 85.54 26.199 130.065 21.906 63.172-6.092 121.359-35.182 171.18-73.41 23.199-17.801 44.264-38.24 60.611-62.605 15.76-23.481 26.492-49.991 33.207-77.396 15.756-64.313 3.141-131.938-20.285-192.824-3.203-8.331-6.596-16.692-10.26-24.951-5.219-11.762-5.488-12.549.889-24.779 8.85-16.979 18.328-33.63 30.168-48.742 7.889-10.068 16.689-19.259 25.391-28.611 6.938-7.461 14.111-15.608 18.477-24.916 2.535-5.404 4.514-12.115 1.344-17.713-3.088-5.449-9.623-7.019-15.439-7.126z" fill="#68182b"/><path d="m816.299 451.532c-8.086-27.62-20.666-54.86-39.619-76.759-8.646-9.992-18.668-18.852-30.217-25.348-4.855-2.731-9.945-4.982-15.229-6.73-2.969-.796-5.967-1.534-9.043-2.144-51.016-10.089-104.383 3.443-153.146 18.077-14.529 4.396-28.9 9.384-42.828 15.437-28.112 12.223-54.1 28.477-78.616 46.796-25.877 19.338-48.297 42.466-66.592 69.12-17.887 26.058-32.359 54.997-40.703 85.552-7.961 29.17-9.154 60.195-3.883 89.955 9.121 51.494 41.695 90.906 66.963 105.836 10.863 6.416 22.227 12.66 33.734 17.838 27.01 12.152 57.883 15.222 87.192 15.084 29.732-.141 59.645-3.884 88.412-11.439 28.133-7.389 54.625-19.719 79.299-35.031 27.746-17.219 53.459-38.24 74.637-63.174 16.488-19.414 30.117-41.971 40.449-65.252 11.621-26.191 17.732-54.445 19.307-83.004 1.76-31.955-1.113-64.054-10.117-94.814zm-77.762 188.581c-23.477 34.506-56.469 61.869-93.625 80.602-65.949 33.249-156.102 46.402-218.774-1.462-29.801-22.759-45.539-57.36-45.557-94.653-.016-41.063 16.4-78.394 40.789-110.746 27.838-36.922 64.021-67.811 104.309-90.423 41.498-23.291 88.564-38.011 136.461-36.899 10.098.322 20.225 1.503 30.023 4.013 31.844 8.154 56.646 30.613 69.879 60.425 8.689 19.572 13.379 41.248 13.689 62.676.648 44.751-11.969 89.393-37.194 126.467z" fill="#fbf199"/><path d="m743.566 610.771c-18.008 35.918-46.43 65.689-80.152 87.283-59.807 38.296-143.541 58.546-210.147 25.626-30.463-15.055-53.045-41.324-59.869-74.992-7.533-37.184 2.939-75.555 22.141-107.482 21.881-36.391 53.27-67.328 88.007-91.475 37.304-25.932 80.458-45.341 125.813-51.032 10.875-1.364 21.828-1.889 32.781-1.636 33.797 1.08 64.703 15.108 82.941 44.329 11.896 19.058 18.082 41.834 19.738 63.88 2.699 35.894-5.155 73.388-21.253 105.499z" fill="#fbf199"/><path d="m805.955 360.721c12.316-11.69 26.434-21.521 41.07-30.025 17.293-10.046 36.432-19.531 56.311-22.99 6.357-1.107 5.158.804-1.178 4.325-29.379 16.33-55.832 37.196-78.27 62.221-7.342 8.195-11.217 11.169-16.086 5.583-6.911-7.927-10.325-11.078-1.847-19.114z" fill="#b1d045"/><path d="m864.764 190.442c-5.719 19.015-14.127 37.078-24.238 54.143-19.566 33.021-45.184 61.637-69.297 91.32-7.615 9.369-10.301 5.611-24.238.597-8.775-3.159-12.764-7.021-3.58-15.681 36.881-34.787 69.416-74.356 99.469-115.012 6.322-8.551 12.498-17.204 18.574-25.93 8.079-11.599 8.192-5.689 3.31 10.563z" fill="#b1d045"/><path d="m699.984 316.716c37.668-36.976 75.494-73.789 113.221-110.705 8.422-8.239 16.781-16.548 25.248-24.742 5.994-5.803 12.258-11.581 19.381-15.987 8.242-5.105 6.898-1.606-.35 9.339-15.529 23.449-25.283 39.88-39.865 58.438-16.305 20.751-37.805 43.484-63.141 68.061-6.189 6.002-12.205 12.177-18.51 18.058-10.713 9.999-11.189 10.707-22.756 9.193-2.648-.346-5.309-.636-7.979-.868-10.399-.913-14.987-1.224-5.249-10.787z" fill="#b1d045"/><path d="m724.586 222.722c-2.201 18.262-14.557 34.524-22.76 50.885-8.918 17.784-18.436 35.269-27.307 53.075-.047.095-.064.188-.105.282-7.434.36-14.871 1.043-22.27 1.977-12.334 1.562-14.217-.995-6.771-13.247 6.133-10.083 15.834-25.424 23.189-34.727 12.215-15.452 28.334-30.351 46.178-63.139 6.936-12.745 11.117-5.652 9.846 4.894z" fill="#b1d045"/><path d="m581.02 335.979c32.119-37.104 62.852-76.019 101.396-106.579 6.635-5.26 14.227-11.338 22.406-15.328 6.24-3.04 9.002-2.215 3.197 7.629-18.76 31.812-51.775 65.85-62.398 81.602-2.361 3.501-4.625 7.063-6.785 10.684-9.594 16.071-14.734 19.111-36.541 24.503-3.84.948-7.67 1.943-11.492 2.974-11.588 3.128-18.635 4.747-9.783-5.485z" fill="#b1d045"/><path d="m624.496 138.346c-.627 7.535-2.402 14.946-4.314 22.244-2.871 10.978-6.115 21.857-9.436 32.705-8.613 28.151-17.9 56.105-27.615 83.895-8.43 24.107-16.443 48.941-27.658 71.942-.115.234-.18.465-.26.697-.006.019-.018.037-.023.056-5.004-9.43-11.592-18.072-18.883-26.048-6.73-7.367-7.777-12.193-.695-24.128 15.881-26.771 25.045-46.919 39.133-74.636 7.605-14.963 37.793-75.478 43.258-89.684 6.401-16.654 8.011-15.249 6.493 2.957z" fill="#b1d045"/><path d="m570.264 180.964c10.791-16.666 20.941-34.694 34.926-48.951 9.752-9.936 15.824-15.833 6.729 4.669-20.877 47.032-43.186 93.371-68.871 138.013-3.529 6.139-7.115 12.243-10.74 18.326-9.488 15.914-9.035 17.321-20.039 7.888-3.044-2.61-6.155-5.179-9.327-7.679 20.837-38.36 43.601-75.632 67.322-112.266z" fill="#b1d045"/><path d="m497.446 205.051c4.607-7.111 5.807-4.624 5.199 2.021-.846 9.162-3.885 18.437-6.394 27.086-4.344 14.958-9.391 29.707-14.609 44.381-2.422-1.419-4.865-2.787-7.35-4.05-7.701-3.91-11.121-6.591-6.912-14.781 9.795-19.083 21.354-41.215 30.066-54.657z" fill="#b1d045"/><path d="m459.373 229.27c4.32-5.674 8.883-11.18 13.736-16.402 3.914-4.207 8.08-8.893 12.934-12.033 7.184-4.653 12.119-5.784 8.012 2.131-9.354 18.017-22.064 36.198-32.295 54.343-4.949 8.772-5.279 9.358-13.533 6.646-3.314-1.09-6.664-2.094-10.051-2.99 6.447-10.964 13.495-21.582 21.197-31.695z" fill="#b1d045"/><path d="m406.158 818.793c-73.582 16.789-154.439 15.264-219.203-27.158-27.787-18.201-52.032-42.344-68.624-71.213-8.509-14.809-15.168-30.566-20.902-46.629-7.246-20.305-13.664-41.033-17.605-62.248-8.413-45.285-7.446-93.787 4.009-138.464 5.34-20.828 13.13-41.003 23.661-59.767 10.865-19.358 24.791-36.68 40.043-52.75 26.172-27.582 56.76-50.929 90.364-68.733 32.727-17.338 68.133-26.58 105.074-28.785 35.539-2.122 72.332 1.047 106.221 12.399 32.926 11.027 62.17 34.83 84.225 61.233 11.869 14.212 10.266 19.104-1.736 23.904-17.953 7.185-35.35 15.676-51.967 25.738-25.221 15.267-49.717 32.898-70.748 53.707-2.107 2.083-11.459 11.848-8.537.156 2.107-8.426 4.348-10.624 9.014-16.129 9.133-10.768 20.932-18.903 30.023-29.721 9.096-10.821 13.891-24.063 21.299-35.938 1.844-2.952 10.227-18.262 25.436-22.17 2.377-.611 2.188-2.012.061-2.147-10.523-.667-20.662 7.328-26.635 14.934-10.072 12.826-14.504 29.105-25.162 41.561-10.215 11.937-23.59 20.947-32.729 33.839-6.096 8.598-11.533 21.867-8.752 32.816-32.348 37.395-57.52 83.658-66.572 132.496-2.234 12.063-2.615 19.779-11.033 26.846-5.18 4.346-11.441 7.465-17.76 9.77-6.172 2.253-12.572 3.852-19.014 5.114-9.039 1.771-18.238.944-27.334 2.122-14.672 1.898-26.977 10.259-39.215 17.936-13.84 8.678-28.258 14.797-44.688 16.17-14.736 1.231-28.373.164-42.077-4.49-8.501-2.885-10.093-1.143-1.849 2.924 25.553 12.607 58.451 9.387 82.816-4.117 14.691-8.143 28.26-19.986 45.418-22.371 9.256-1.289 18.619-.428 27.85-2.164 7.156-1.344 14.279-3.141 21.088-5.744 6.65-2.543 13.076-5.779 18.471-10.484 1.279-1.113 2.668-2.449 4.008-3.918-.049.84-.146 1.677-.182 2.518-.201 4.789-.23 9.59-.104 14.391.268 10.318-3.006 23.982-17.701 37.5-6.102 5.611-13.018 10.119-20.418 13.82-7.734 3.869-15.816 7.141-22.707 12.477-6.396 4.951-10.785 11.59-15.225 18.236-4.793 7.184-10.088 13.794-16.584 19.51-13.611 11.979-25.895 18.785-45.641 23.26-1.727.392-2.148 1.825-.352 1.781 26.268-.662 51.119-18.922 65.426-39.853 4.289-6.282 8.271-12.87 14.111-17.87 5.977-5.117 13.357-8.297 20.373-11.69 11.98-5.8 22.908-13.265 31.531-23.519 7.436-8.842 8.566-11.422 10.275-1.49.625 3.641 1.346 7.268 2.152 10.873 1.814 8.105 2.02 11.707-1.248 18.074-2.588 5.055-4.9 10.359-6.486 15.82-3.449 11.881-1.604 22.967 1.197 34.752 6.086 25.641 2.832 42.553-10.754 58.5-3.994 4.686-3.209 6.481 1.514 2.811 14.553-11.308 19.861-33.057 17.518-50.737-1.729-13.024-7.318-25.202-5.324-38.578 2.449-16.401 8.438-20.479 14.359-5.881 8.666 21.351 20.867 40.13 34.912 57.835 2.117 2.668 11.822 15.674-.439 36.945-2.246 3.902-1.412 5.391 1.805 2.184 8.707-8.676 10.311-21.969 10.262-25.121 1.783 2.061 3.559 4.125 5.379 6.167 5.811 6.524 12.051 12.704 18.602 18.574 7.212 6.456 6.489 7.973-3.19 10.186z" fill="#aa8053"/><path d="m877.232 620.594c-.881 17.432-3.768 34.744-8.514 51.521-2.857 10.1-5.545 13.215-5.971 3.117-.367-8.709-2.066-18.533-7.314-26.346-4.529-6.734-5.531-6.768-2.705 1.07 5.449 15.098 6.895 51.629-7.893 77.775-8.949 15.828-20.385 30.181-33.223 43.127-23.021 23.215-50.301 42.637-78.617 58.84-14.734 8.431-30.045 15.856-45.855 21.974-40.301 15.601-77.326 13.522-124.797-3.015-12.68-4.417-16.061-4.152-5.336 2.553 7.662 4.787 15.797 8.533 24.398 11.324 5.406 1.756 10.922 3.207 16.51 4.354 8.65 1.771 8.936 2.857.242 3.068-27.629.668-55.287-3.25-81.857-11.82-32.903-10.613-63.764-27.864-90.752-49.414-9.324-7.447-17.912-15.662-25.904-24.518-5.535-6.137-3.463-9.83 3.33-5.895 4.461 2.585 9.006 5.043 13.59 7.439 12.279 6.422 24.361 12.451 37.74 16.293 14.529 4.17 29.582 6.461 44.632 7.629 60.075 4.666 122.698-6.506 176.054-34.813 29.414-15.606 56.908-35.445 80.535-58.94 20.504-20.389 37.121-43.975 50.408-69.609 27.949-53.91 33.92-118.188 21.303-177.284-5.545-25.965-14.822-51.658-28.611-74.479-3.887-6.435-4.234-9.729 2.838-.638 8.225 10.583 15.27 22.088 21.105 34.149 11.662 24.102 18.467 50.691 20.967 77.307 5.045 53.614-5.365 108.707-29.617 156.787-7.352 14.57-18.002 28.678-28.031 41.587-9.018 11.609-6.137 13.634 3.127 2.819 26.906-31.393 44.809-70.384 54.422-110.449 10.318-43.023 11.119-88.895-.789-131.542-4.264-15.277-2.256-12.794 3.502.907 20.531 48.888 33.746 102.299 31.083 155.122z" fill="#aa8053"/><path d="m914.482 319.215c-5.305 9.395-12.934 17.2-20.301 24.97-7.408 7.814-14.551 15.886-21.17 24.383-10.174 13.063-18.691 27.117-26.551 41.586-7.891 14.518-9.205 10.492-18.332-3.372-6.797-10.319-9.08-16.916-.266-27.534 25.689-30.95 45.174-47.274 79.199-63.471 10.203-4.855 9.726-.642 7.421 3.438z" fill="#b1d045"/><path d="m867.469 365.229c-8.865 12.87-22.146 37.091-39.318 41.585 9.105 13.837 10.426 17.844 18.311 3.339 7.859-14.469 16.377-28.522 26.551-41.586 6.619-8.497 13.762-16.568 21.17-24.383 5.592-5.896 11.32-11.821 16.082-18.437-17.365 8.492-32.314 24.261-42.796 39.482z" fill="#abab38"/><path d="m809.324 279.381c-12.621 14.904-25.578 29.87-40.258 42.797-7.047 6.205-14.744 10.558-22.834 14.036.252.097.496.193.758.288 13.938 5.015 16.623 8.772 24.238-.597 24.113-29.684 49.73-58.3 69.297-91.32 5.504-9.289 10.479-18.885 14.814-28.758-2.498 4.264-5.107 8.484-7.752 12.701-11.274 17.983-24.562 34.677-38.263 50.853z" fill="#abab38"/><path d="m830.822 358.499c-7.773 7.095-15.021 16.663-25.416 18.586.734.854 1.539 1.766 2.396 2.749 4.869 5.586 8.744 2.612 16.086-5.583 19.67-21.938 42.426-40.676 67.535-55.968-13.846 5.223-26.734 13.154-38.58 21.818-7.728 5.653-14.956 11.95-22.021 18.398z" fill="#abab38"/><path d="m774.664 269.99c-20.768 20.907-42.777 40.099-65.969 57.887 1.506.16 3.02.296 4.518.492 11.566 1.514 12.043.806 22.756-9.193 6.305-5.881 12.32-12.056 18.51-18.058 25.336-24.576 46.836-47.31 63.141-68.061 14.582-18.558 24.336-34.988 39.865-58.438.076-.115.129-.204.205-.316-13.166 13.59-24.297 29.974-36.152 44.396-14.735 17.926-30.526 34.836-46.874 51.291z" fill="#abab38"/><path d="m448.226 263.953c8.254 2.713 8.584 2.127 13.533-6.646 9.963-17.665 22.248-35.365 31.523-52.913-8.738 9.542-15.609 21.118-23.064 31.506-5.465 7.611-11.484 14.783-18.428 21.082-2.506 2.277-5.141 4.079-7.848 5.695 1.425.433 2.872.811 4.284 1.276z" fill="#abab38"/><path d="m612.949 332.685c-1.068 1.354-2.236 2.612-3.367 3.903 15.84-4.429 20.836-8.497 29.254-22.602 2.16-3.62 4.424-7.183 6.785-10.684 10.107-14.987 40.459-46.524 59.543-76.95-19.709 21.884-41.887 41.354-60.713 64.177-11.189 13.564-20.615 28.373-31.502 42.156z" fill="#abab38"/><path d="m472.089 273.32c.697.383 1.412.768 2.203 1.169 2.484 1.263 4.928 2.631 7.35 4.05 5.219-14.674 10.266-29.423 14.609-44.381 1.474-5.078 3.082-10.379 4.367-15.737-2.588 7.833-5.585 15.514-9.453 23.077-5.621 10.998-12.677 21.23-19.076 31.822z" fill="#abab38"/><path d="m592.402 172.516c-9.541 16.523-18.727 33.132-27.365 50.146-8.197 16.147-17.379 31.354-26.998 46.67-7.834 12.476-15.188 23.178-26.391 31.066.205.173.418.337.619.51 11.004 9.434 10.551 8.026 20.039-7.888 3.625-6.083 7.211-12.188 10.74-18.326 24.984-43.428 46.766-88.467 67.152-134.183-6.192 10.511-11.725 21.49-17.796 32.005z" fill="#abab38"/><path d="m582.574 248.179c-11.248 29.686-17.678 61.351-39.326 83.839 4.498 5.639 8.596 11.563 11.941 17.867.006-.019.018-.037.023-.056.08-.232.145-.463.26-.697 11.215-23.001 19.229-47.835 27.658-71.942 9.715-27.789 19.002-55.743 27.615-83.895 3.32-10.848 6.564-21.728 9.436-32.705 1.063-4.057 2.059-8.149 2.863-12.278-3.918 12.743-8.264 25.331-13.344 37.803-8.511 20.906-19.128 40.961-27.126 62.064z" fill="#abab38"/><path d="m661.689 327.908c4.236-.403 8.48-.738 12.725-.944.041-.095.059-.188.105-.282 8.871-17.807 18.389-35.291 27.307-53.075 6.658-13.281 15.969-26.516 20.445-40.789-9.775 17.682-23.482 32.876-33.422 51.035-8.411 15.367-16.357 31.016-27.16 44.055z" fill="#abab38"/><path d="m403.386 771.324c10.863 6.416 22.227 12.66 33.734 17.838 27.01 12.152 57.883 15.222 87.192 15.084 29.732-.141 59.645-3.884 88.412-11.439 28.133-7.389 54.625-19.719 79.299-35.031 27.746-17.219 53.459-38.24 74.637-63.174 16.488-19.414 30.117-41.971 40.449-65.252 11.621-26.191 17.732-54.445 19.307-83.004 1.76-31.955-1.113-64.054-10.117-94.813-8.086-27.62-20.666-54.86-39.619-76.759-8.646-9.992-18.668-18.852-30.217-25.348-4.855-2.731-9.945-4.982-15.229-6.73-2.969-.796-5.967-1.534-9.043-2.144-12.488-2.47-25.121-3.507-37.791-3.476 22.895 1.929 45.268 8.067 63.756 22.404 21.195 16.431 34.182 41.574 44.252 65.836 22.633 54.536 27.904 117.469 11.129 174.268-16.313 55.223-55.111 104.031-101.826 136.879-33.084 23.262-72.898 38.338-111.998 47.773-42.746 10.316-87.544 11.307-130.372 1.053-40.699-9.742-74.912-31.105-98.668-65.846-10.545-15.418-17.441-32.969-23.535-50.525 9.932 49.794 41.549 87.814 66.248 102.406z" fill="#f3af79"/><path d="m393.398 648.688c6.824 33.668 29.406 59.938 59.869 74.992 66.606 32.92 150.34 12.67 210.147-25.625 33.723-21.594 62.145-51.365 80.152-87.283 16.098-32.111 23.951-69.605 21.254-105.5-1.023-13.651-3.797-27.576-8.578-40.73 6.523 42.164-9.799 90.131-28.604 125.353-12.91 24.183-30.004 46.086-50.234 64.558-21.23 19.385-46.881 32.449-73.49 42.805-51.717 20.119-119.905 29.344-167.864-5.26-30.605-22.084-44.393-65.127-40.596-103.104-4.913 19.485-6.105 39.805-2.056 59.794z" fill="#f3af79"/><path d="m690.943 419.56c-33.211-14.43-121.074 5.28-182.567 47.713-23.628 16.303-44.302 36.405-61.886 59.065-15.281 19.693-25.271 39.732-30.498 58.627-14.33 51.803 16.816 95.332 58.686 101.867 46.862 7.314 95.272-17.037 133.34-41.818 27.258-17.744 51.811-39.768 73.172-64.244 21.527-24.67 42.234-55.096 46.354-88.372 3.726-30.097-7.597-60.236-36.601-72.838z" fill="#fff7cf"/><path d="m463.351 754.725c50.346 16.575 106.711 9.553 155.276-9.412 48.029-18.756 95.807-48.291 127.129-89.992 70.785-94.23 46.451-244.057-41.713-260.944 26.125 10.205 46.463 30.602 58 56.593 8.689 19.572 13.379 41.248 13.689 62.676.646 44.753-11.971 89.395-37.195 126.469-23.477 34.506-56.469 61.869-93.625 80.602-65.949 33.249-156.102 46.402-218.774-1.462-29.801-22.759-45.539-57.36-45.557-94.653-.016-41.063 16.4-78.394 40.789-110.746 9.379-12.438 19.77-24.121 30.879-35.105-13.639 11.527-26.395 24.033-37.998 37.396-16.682 19.207-30.27 41.072-38.732 65.113-8.613 24.475-8.686 50.307-4.309 75.633 8.52 49.306 46.116 82.681 92.141 97.832z" fill="#fff7cf"/><g fill="#865725"><path d="m570.389 851.342c43.668 14.02 78.76 15.039 116.752.331 15.811-6.117 31.121-13.543 45.855-21.974 28.316-16.203 55.596-35.625 78.617-58.84 12.838-12.946 24.273-27.299 33.223-43.127 11.385-20.133 13.129-46.381 10.852-64.303-4.277 30.041-21.484 59.499-39.205 83.094-19.545 26.025-44.75 47.557-72.371 64.576-52.055 32.083-113.534 41.12-173.723 40.243z"/><path d="m510.512 361.807c-11.017 10.396-26 16.384-39.424 22.927-23.416 11.416-45.25 28.927-58.357 51.714 20.174-19.245 43.24-35.752 66.986-50.126 16.617-10.063 34.014-18.554 51.967-25.738 12.002-4.8 13.605-9.692 1.736-23.904-2.518-3.014-5.141-5.987-7.84-8.919-.902 12.696-5.127 24.66-15.068 34.046z"/><path d="m79.823 611.545c3.941 21.215 10.359 41.943 17.605 62.248 5.734 16.063 12.394 31.82 20.902 46.629 16.592 28.869 40.837 53.012 68.624 71.213 64.764 42.422 145.621 43.947 219.203 27.158 9.68-2.213 10.402-3.729 3.189-10.188-6.551-5.87-12.791-12.05-18.602-18.574-1.82-2.042-3.596-4.106-5.379-6.167.049 3.152-1.555 16.445-10.262 25.121-3.217 3.207-4.051 1.719-1.805-2.184 12.262-21.271 2.557-34.277.439-36.945-14.045-17.705-26.246-36.484-34.912-57.835-5.922-14.599-11.91-10.521-14.359 5.881-1.994 13.376 3.596 25.554 5.324 38.578 2.344 17.681-2.965 39.43-17.518 50.737-4.723 3.671-5.508 1.875-1.514-2.811 13.586-15.947 16.84-32.859 10.754-58.5-2.801-11.785-4.646-22.871-1.197-34.752 1.586-5.461 3.898-10.766 6.486-15.82 3.268-6.367 3.063-9.969 1.248-18.074-.807-3.605-1.527-7.232-2.152-10.873-1.709-9.932-2.84-7.352-10.275 1.49-8.623 10.254-19.551 17.719-31.531 23.519-7.016 3.394-14.396 6.573-20.373 11.69-5.84 5-9.822 11.588-14.111 17.87-14.307 20.931-39.158 39.19-65.426 39.853-1.797.044-1.375-1.39.352-1.781 19.746-4.475 32.029-11.281 45.641-23.26 6.496-5.716 11.791-12.326 16.584-19.51 4.439-6.646 8.828-13.285 15.225-18.236 6.891-5.336 14.973-8.607 22.707-12.477 7.4-3.701 14.316-8.209 20.418-13.82 13.502-12.422 17.352-24.959 17.682-34.916-4.578 6.752-10.627 12.67-19.313 17.504-19.248 10.715-41.666 14.539-61.113 25.072-18.326 9.928-31.107 27.246-48.863 37.994-20.809 12.593-43.113 2.765-59.229-12.277-31.238-29.158-43.076-76.394-49.563-117.014-3.789-23.727-4.688-47.754-5.925-71.709-.285-5.57-.462-11.154-.458-16.734-5.955 36.939-5.272 75.459 1.497 111.9z"/><path d="m516.301 858.137c26.57 8.57 54.229 12.488 81.857 11.82 8.693-.211 8.408-1.298-.242-3.068-5.588-1.146-11.104-2.598-16.51-4.354-3.926-1.273-7.744-2.774-11.475-4.455-8.463.475-16.904 1.414-25.455 1.285-28.828-.436-58.418-17.398-83.112-30.609-12.85-6.873-25.604-13.867-37.793-21.684.664.543 1.305 1.113 1.977 1.65 26.989 21.55 57.85 38.801 90.753 49.415z"/><path d="m856.885 651.314c4.1 7.361 5.533 16.084 5.863 23.918.426 10.098 3.113 6.982 5.971-3.117 2.34-8.277 4.221-16.686 5.641-25.174-5.221 4.844-11.112 7.83-17.475 4.373z"/><path d="m167.371 667.682c16.43-1.373 30.848-7.492 44.688-16.17 12.238-7.677 24.543-16.037 39.215-17.936 9.096-1.178 18.295-.352 27.334-2.122 6.441-1.263 12.842-2.861 19.014-5.114 6.318-2.305 12.58-5.424 17.76-9.77 8.418-7.066 8.799-14.783 11.033-26.846.248-1.337.555-2.664.826-3.996-3.48 3.951-7.33 7.588-11.666 10.793-20.063 14.83-45.146 16.202-68.836 19.461-18.57 2.555-32.539 15.787-45.797 27.807-9.426 8.545-18.994 16.092-30.924 20.79-6.473 2.548-13.128 3.407-19.833 3.376 5.603.322 11.305.217 17.186-.273z"/><path d="m186.554 508.328c14.086 3.621 28.723 4.42 42.836 7.951 18.023 4.51 28.883 16.525 40.877 29.76.908 1.002 2.338-.27 1.785-1.375-6.266-12.475-12.605-21.625-24.98-28.646-11.502-6.523-25.215-8.168-38.053-10.135-15.006-2.297-29.662-4.811-43.145-12.173-13.698-7.477-20.294-20.261-29.325-32.191-.169-.224-.658-.199-.613.167 3.202 25.312 28.026 40.833 50.618 46.642z"/><path d="m275.388 537.133c-.154-.058-.377.033-.447.182-1.318 2.768 1.717 6.369 3.529 8.215 3.004 3.053 6.523 4.935 10.854 4.447.518-.059.719-.671.266-.981-2.826-1.929-5.965-3.788-8.48-6.103-1.835-1.686-3.372-4.879-5.722-5.76z"/><path d="m257.951 598.492c-21.93-6.287-43.055-5.377-64.533 2.085-21.029 7.308-42.486 14.677-62.487.346-.492-.354-.994.309-.766.765 7.325 14.592 30.463 15.117 44.133 11.834 13.094-3.145 25.334-8.975 38.502-11.899 14.381-3.194 30.271-.421 44.928-1.483.924-.069 1.17-1.378.223-1.648z"/><path d="m280.197 594.512c-6.592-.295-13.074-.076-19.658.049-.42.008-.748.594-.373.898 5.869 4.729 14.58 5.021 20.439.035.406-.348.055-.963-.408-.982z"/><path d="m218.197 394.654c21.824 10.288 40.268 21.215 53.875 41.799 12.52 18.937 19.816 41.772 28.586 62.611.305.725 1.387.478 1.205-.332-9.896-44.318-31.871-98.021-83.451-104.877-.422-.055-.588.624-.215.799z"/><path d="m304.621 485.235c-.295-.485-1.004-.376-1.172.152-1.826 5.743 2.877 20.388 10.449 19.835.496-.034.756-.421.684-.895-.516-3.299-3.598-6.045-5.285-8.818-1.965-3.231-2.719-7.072-4.676-10.274z"/><path d="m342.947 475.985c.225.446.98.245.949-.257-1.047-16.789 4.402-33.026 3.309-49.76-.973-14.902-7.002-29.18-12.074-43.037-4.695-12.827-7.641-26.113-8.258-39.777-.688-15.203 3.861-27.681 10.02-41.242.295-.647-.406-1.168-.957-.736-20.414 16.046-16.008 50.803-10.217 72.646 4.676 17.626 13.063 33.793 15.063 52.147 1.878 17.245-6.204 33.608 2.165 50.016z"/><path d="m306.667 338.116c-.004-.493-.666-.67-.92-.248-8.271 13.802-1.727 35.871 9.16 46.278.486.465 1.127-.117.879-.677-6.517-14.698-8.984-29.413-9.119-45.353z"/><path d="m439.435 315.141c-27.85 4.223-30.07 38.257-31.943 60.187-1.285 15.018-11.076 26.67-19.574 38.331-7.988 10.955-12.482 21.741-12.041 35.39.018.553.893.722 1 .136 4.502-24.141 26.545-39.341 34.771-61.884 4.436-12.156 2.984-26.174 5.555-38.792 3.076-15.12 11.717-22.717 22.744-32.487.439-.39-.043-.952-.512-.881z"/><path d="m440.978 301.096c-7.619.771-23.139 3.453-23.092 13.852.002.582.662.777 1.068.442 3.633-3.01 6.729-5.676 11.189-7.474 4.018-1.618 7.75-3.256 11.193-5.95.345-.268.066-.913-.358-.87z"/><path d="m503.054 335.77c-5.037 6.991-12.171 12.204-18.8 17.537-.309.247.033.669.352.605 4.666-.938 8.906-3.404 12.64-6.276 3.996-3.07 6.014-6.547 6.682-11.498.071-.535-.544-.827-.874-.368z"/><path d="m215.056 381.327c4.063 2.602 7.787 5.444 12.334 7.177.465.177.881-.428.633-.821-5.311-8.351-18.363-16.978-28.629-13.98-.232.067-.205.366 0 .444 5.477 2.077 10.688 3.992 15.662 7.18z"/><path d="m160.837 465.055c.521.031.695-.615.396-.954-3.204-3.631-7.241-6.132-10.711-9.473-4.126-3.97-6.617-8.783-9.604-13.56-.28-.448-.913-.242-.95.258-.748 10.163 10.818 23.153 20.869 23.729z"/><path d="m131.119 503.127c2.646 1.652 5.157 2.255 8.121 1.288.543-.177.589-.827.148-1.144-3.832-2.752-8.647-3.847-11.914-7.519-.354-.397-.859.039-.798.466.255 1.717.313 2.652 1.343 4.119.807 1.149 1.919 2.054 3.1 2.79z"/><path d="m141.931 511.273c1.586.213 2.835-.239 3.939-1.367.387-.395.16-.941-.299-1.127-1.33-.539-2.516-.682-3.942-.713-1.303-.027-2.681.209-3.96.135-.547-.03-.685.717-.266.982.784.497 1.224 1.075 2.097 1.462.787.353 1.579.511 2.431.628z"/><path d="m129.692 579.789c6.868 10.456 30.647 12.41 39.311 3.805.48-.477-.023-1.143-.607-1.045-13.43 2.215-25.63 1.938-38.371-3.195-.243-.099-.468.23-.333.435z"/><path d="m175.57 584.395c-1.639.852-3.615 1.453-4.891 2.838-.512.557-.268 1.369.426 1.613 3.506 1.234 8.369-1.572 9.92-4.688.209-.417-.047-.896-.525-.914-1.725-.066-3.407.36-4.93 1.151z"/><path d="m184.306 624.385c.549-.262.262-1.107-.299-1.105-14.75.055-33.037 4.082-45.174 12.819-.339.243-.281.948.241.889 7.696-.886 15.059-3.472 22.568-5.308 7.951-1.942 15.262-3.782 22.664-7.295z"/><path d="m183.398 630.524c2.309-.461 4.498-.604 6.771-1.343 2.477-.805 3.723-2.066 4.908-4.291.225-.416-.053-.934-.539-.939-2.379-.025-3.857.269-5.887 1.629-1.938 1.299-3.58 3.053-5.52 4.313-.335.218-.116.707.267.631z"/><path d="m216.685 675.977c-7.236 3.808-13.482 8.355-20.141 13.061-7.348 5.189-15.262 7.547-23.967 9.248-.711.137-.707 1.287 0 1.427 18.086 3.565 34.018-10.032 44.885-22.728.471-.551-.115-1.358-.777-1.008z"/><path d="m229.816 668.891c-3.006-1.057-6.426 1.234-8.1 3.6-.586.826.373 1.697 1.188 1.547 2.699-.504 6.391-1.42 7.361-4.357.115-.351-.133-.679-.449-.79z"/><path d="m742.68 749.525c-.869-.369-1.871.408-1.35 1.35 3.475 6.289 8.375 11.711 11.816 18.129 2.695 5.031 3.971 12.58 9.014 15.729.443.275.951-.012 1.113-.453 2.133-5.84-2.645-13.07-5.309-18.092-3.304-6.219-8.622-13.844-15.284-16.663z"/><path d="m761.387 753.336c-.352-.248-.859.16-.723.559.623 1.828 1.445 3.578 2.305 5.307.918 1.845 1.527 3.652 3.582 4.437.291.11.746-.063.873-.356 1.689-3.873-3.25-7.98-6.037-9.947z"/><path d="m696.984 785.1c-.256-.541-1.066-.15-.932.393 1.447 5.89 3.061 11.733 4.463 17.635 1.07 4.5 1.385 9.418 4.75 12.829.32.325.822.144.963-.255 1.639-4.656-.598-9.115-2.143-13.56-2.011-5.792-4.483-11.499-7.101-17.042z"/><path d="m707.73 798.332c-.299-.32-.807-.402-1.055-.64-.246-.239-.766-.089-.729.302.029.326-.168.828-.203 1.158-.084.811.277 1.749.439 2.531.328 1.592.84 3.51 2.5 4.088.545.189 1.148-.123 1.436-.584.953-1.523-.156-3.381-.912-4.779-.401-.738-.901-1.463-1.476-2.076z"/><path d="m859.918 613.158c-3.074-1.549-7.744-3.457-10.604-.809-.209.191-.129.502.082.646 3.678 2.534 8.143 3.751 11.885 6.468 1.621 1.174 6.648 6.389 8.027 2.268 1.178-3.506-7.169-7.454-9.39-8.573z"/><path d="m859.275 608.157c-.146.11-.232.347-.063.489 1.004.854 1.949 1.221 3.125 1.794 1.135.554 2.295 1.257 3.59 1.155 1.104-.084 1.68-1.109 1.209-2.105-1.275-2.684-5.726-2.978-7.861-1.333z"/><path d="m590.65 815.068c-.479-.92-1.693-.385-1.779.48-.457 4.574.541 9.496 1.145 14.037.412 3.098.256 6.445 2.92 8.41.355.262.869.049 1.082-.283 1.85-2.939.225-7.029-.281-10.234-.657-4.142-1.133-8.652-3.087-12.41z"/><path d="m598.443 821.729c-.375 1.564-.318 3.182-.398 4.783-.096 1.922-.084 3.234.982 4.85.309.465.943.465 1.252 0 1.791-2.714 1.094-7.375-.955-9.865-.252-.309-.791-.132-.881.232z"/><path d="m528.389 821.068c-.053-.315-.521-.344-.662-.088-1.957 3.533-2.232 7.521-2.234 11.506-.002 4.027-.611 8.929 1.34 12.553.48.895 1.943.93 2.414 0 1.705-3.363.779-7.209.436-10.854-.413-4.369-.564-8.788-1.294-13.117z"/><path d="m519.967 827.133c-3.104 2.504-4.631 9.037-.619 11.336.314.182.654.002.773-.314.645-1.721.607-3.152.592-4.973-.02-1.898.131-3.805.098-5.699-.008-.462-.518-.61-.844-.35z"/><path d="m654.691 810.164c-.293-.133-.551-.064-.742.195-.818 1.111-.406 2.705-.18 3.972.359 2.01 1.23 4.566 2.424 6.218 1.152 1.592 3.287.582 3.037-1.279-.271-2.014-1.412-3.974-2.186-5.842-.478-1.155-1.155-2.727-2.353-3.264z"/><path d="m792.781 734.482c-1.096-.645-2.182-1.287-3.396-1.666-.389-.121-.762.201-.771.586-.068 2.729 2.711 6.373 5.488 6.533 1.625.094 2.432-1.779 1.76-3.064-.659-1.262-1.911-1.699-3.081-2.389z"/><path d="m800.129 731.078c-1.451.229-2.805.543-4.117 1.225-.225.115-.285.419-.164.629 1.172 2.039 3.191 2.488 5.395 2.18 2.646-.368 1.542-4.456-1.114-4.034z"/><path d="m823.627 680.07c-.664.02-.93.908-.342 1.256 2.352 1.389 5.254 3.832 8.117 3.742 1.578-.047 2.391-1.934 1.279-3.09-2.111-2.189-6.253-1.99-9.054-1.908z"/><path d="m857.125 571.947c1.334.561 2.623.85 4.063 1.001 1.893.198 2.701-.163 4.143-1.249.357-.268.357-.699 0-.967-1.232-.93-1.787-1.299-3.404-1.324s-3.334.461-4.801 1.078c-.716.303-.716 1.159-.001 1.461z"/></g><path d="m755.525 715.918c-23.627 23.495-51.121 43.334-80.535 58.94-42.535 22.567-90.959 34.209-139.287 35.653 3.396.17 6.797.291 10.195.337 106.309 1.409 216.32-64.562 265.473-158.691 18.199-34.854 25.441-72.753 29.176-111.54 1.52-15.813 2.172-31.678 1.512-47.389-3.242-22.511-9.602-44.738-19.49-65.172-5.836-12.062-12.881-23.566-21.105-34.149-7.072-9.092-6.725-5.797-2.838.638 13.789 22.821 23.066 48.515 28.611 74.479 12.617 59.097 6.646 123.374-21.303 177.284-13.288 25.635-29.905 49.221-50.409 69.61z" fill="#d4ba89"/><path d="m88.146 458.104c102.7-180.374 258.682-224.547 413.875-152.591-15.921-12.985-33.75-23.68-52.826-30.068-33.889-11.353-70.682-14.521-106.221-12.399-36.941 2.205-72.348 11.447-105.074 28.785-33.604 17.805-64.191 41.151-90.364 68.733-15.252 16.07-29.178 33.392-40.043 52.75-7.984 14.228-14.388 29.271-19.347 44.79z" fill="#d4ba89"/><path d="m272.63 389.9c10.486 10.079 21.248 20.555 27.488 33.921 6.787 14.538 6.172 31.319 12.162 46.218 5.787 14.391 14.973 28.826 29.34 35.705 1.719.822 2.238-.358.887-1.58-13.691-12.375-21.965-28.828-26.898-47.026-2.682-9.89-3.359-20.263-6.795-29.959-2.676-7.537-6.762-14.368-11.664-20.658-21.807-27.975-60.811-47.841-56.141-88.747.191-1.677-.922-1.597-1.447-.282-5.25 13.097-2.014 27.827 4.711 39.51 7.33 12.732 17.861 22.811 28.357 32.898z" fill="#68182b"/><path d="m362.828 386.214c3.348 16.032-5.535 31.979-7.461 47.733-.928 7.558-1.643 25.926 5.342 43.155 2.152 5.327 3.432 4.087 2.443-1.699-1.674-9.783-2.727-16.698-2.963-20.644-.586-9.817.143-19.8 2.348-29.392 2.014-8.759 5.373-17.188 6.537-26.138 1.209-9.304-.951-17.535-4.131-26.218-5.648-15.411-7.533-30.091-1.373-45.751 2.529-6.434 8.383-21.304 21.803-30.396 1.344-.911 3.586-3.984-1.049-2.133-12.77 5.098-29.91 25.152-30.951 51.329-.229 5.758.4 11.604 1.879 17.174 2.07 7.802 5.923 15.061 7.576 22.98z" fill="#68182b"/><path d="m208.804 469.876c6.77 3.395 13.684 5.237 20.848 7.522 8.42 2.688 16.438 6.85 23.086 12.721 9.139 8.065 14.355 18.914 22.363 27.875 13.779 15.42 29.229 18.342 48.965 16.127 3.945-.45 3.545-3.076-.795-3.313-24.996-1.368-36.16-11.223-41.834-16.979-7.813-7.93-12.68-18.277-20.672-26.153-5.209-5.132-11.271-9.435-17.875-12.582-7.248-3.453-14.938-4.918-22.461-7.514-15.217-5.254-29.055-15.263-41.059-25.773-12.961-11.351-24.551-24.828-28.916-41.798-.383-1.489-2.499-1.092-2.586.35-.859 14.279 10.715 28.32 19.751 38.13 11.656 12.649 25.785 23.667 41.185 31.387z" fill="#68182b"/><path d="m133.697 549.465c16.145 7.577 32.621 1.922 49.466 1.371 16.535-.541 29.891 7.861 43.293 16.473 12.854 8.256 25.762 15.535 41.189 17.377 8.344.996 16.822.537 25.033-1.268 9.016-1.982 14.563-6.232 21.131-12.643.871-.849.873-2.124-.295-1.51-12.871 6.776-22.893 9.803-42.551 8.576-15.178-.946-27.902-7.857-40.443-15.879-11.305-7.232-22.939-14.963-36.453-17.137-16.537-2.66-32.947 4.623-49.41 1.631-17.883-3.252-26.761-18.291-39.265-29.492-1.519-1.357-2.434-.961-1.426.891 6.632 12.184 17.122 25.692 29.731 31.61z" fill="#68182b"/><path d="m219.298 630.939c-9.541 9.137-21.104 16.843-33.727 20.953-13.305 4.327-18.689 4.658-33.151 3.102-9.966-1.08-10.877 1.497-.967 3.836 4.741 1.117 10.03 1.156 14.542 1.065 7.25-.142 14.453-1.362 21.344-3.622 13.494-4.422 25.406-12.35 33.199-24.377.499-.769-.603-1.565-1.24-.957z" fill="#68182b"/><path d="m310.373 777.915c-.77 4.167-2.48 8.649-2.512 12.894-.004.475.676.83 1.01.416 2.793-3.451 3.877-8.656 4.801-12.896.982-4.513 1.473-9.152 1.654-13.766.189-4.794-.012-9.602-.598-14.365-.572-4.667-1.168-9.395-3.674-13.461-.305-.5-1.092-.293-1.102.299-.078 4.468 1.098 8.746 1.602 13.162.527 4.607.682 9.256.479 13.887-.205 4.649-.817 9.255-1.66 13.83z" fill="#68182b"/><path d="m431.691 444.63c-21.588 18.3-38.746 41.676-53.162 65.9-16.021 26.925-31.131 59.987-34.584 92.083-1.344 12.496.307 12.338 3.775.182 3.457-12.174 6.488-24.459 10.605-36.461 5.992-17.449 13.783-34.242 22.514-50.475 14.029-26.097 32.199-49.468 52.787-70.634 4.35-4.475 3.102-4.866-1.935-.595z" fill="#68182b"/><path d="m772.09 720.236c-6.109 7.002-2.422 10.178 3.65 3.094 5.387-6.285 1.705-9.234-3.65-3.094z" fill="#68182b"/><path d="m240.031 712.645c4.889-6.793 9.504-13.207 16.629-18.492 5.898-4.377 12.725-7.662 19.322-11.055 4.92-2.521 4.861-3.748-.518-2.639-15.922 3.293-34.373 15.408-38.957 31.471-1.396 4.902.426 5.017 3.524.715z" fill="#68182b"/><path d="m267.736 572.277c4.766 1.977 10.793 2.678 15.811 1.453 4.535-1.107 4.07-3.023-.529-3.32-1.732-.113-3.471-.111-5.305-.158-3.115-.076-6.305-.484-9.451-.521-7.895-.092-1.192 2.271-.526 2.546z" fill="#68182b"/><path d="m242.787 462.35c3.439 2.006 7.121 3.713 10.492 5.7 4.725 2.783 8.598 6.664 12.771 10.168 3.162 2.651 5.975 4.169 2.902-2.461-4.262-9.206-15.781-15.614-25.953-16.979-9.449-1.276-5.023.764-.212 3.572z" fill="#68182b"/><path d="m136.116 533.701c8.797 6.48 22.879 8.025 32.559 3.5 4.203-1.971 3.234-2.941-.748-3.113-5.281-.229-10.574.317-15.873-.023-4.924-.317-9.474-1.602-14.018-3.107-4.435-1.467-5.727-.058-1.92 2.743z" fill="#68182b"/><path d="m367.109 345.772c-1.586 4.092-.904 9.984.717 14.543 2.039 5.72 4.652 4.449 4.193-1.457-.135-1.705-.406-3.431-.572-5.264-.211-2.308.086-4.94-.084-7.402-.539-7.592-1.971-6.315-4.254-.42z" fill="#68182b"/><path d="m369.189 441.063c-4.047 4.713-5.271 15.565-1.525 20.673.234.32.668.267.811-.107 1.297-3.354.816-6.823.918-10.353.096-3.354.908-6.79.209-10.104-.036-.175-.294-.247-.413-.109z" fill="#68182b"/><path d="m312.185 413.983c.871 1.854 1.766 3.702 2.469 5.636 1.297 3.55 1.986 6.887 3.762 10.266.18.348.754.274.84-.108 1.27-5.671-.309-12.412-4.158-17.05-3.618-4.36-5.206-3.619-2.913 1.256z" fill="#68182b"/><path d="m258.699 346.19c1.119 8.902 7.24 21.127 16.078 25.621 6.115 3.112 7.453 2.873 1.949-3.867-2.125-2.604-4.586-4.937-6.854-7.485-3.891-4.373-7.271-9.573-10.529-14.443-.17-.256-.691-.196-.644.174z" fill="#68182b"/></g></g></svg>