<svg id="Fruit" height="512" viewBox="0 0 992.13 992.13" width="512" xmlns="http://www.w3.org/2000/svg"><g><path d="m295.875 873.514c28.836 18.4 63.426 28.127 100.027 28.129h.013c73.334 0 141.229-38.223 172.969-97.379 5.873-10.947 10.689-22.504 14.402-34.549 20.082 4.436 40.84 6.676 61.986 6.676 79.555 0 149.189-31.223 191.055-85.664 52.738-68.578 67.814-165.854 39.34-253.858-7.072-21.869-16.838-42.195-29.197-60.713 14.742-22.244 28.902-52.904 22.787-83.014-3.609-17.777-12.096-32.18-26.699-45.326-2.666-2.4-3.797-5.082-6.354-12.133-1.625-4.479-3.467-9.555-6.365-15.115-13.873-26.613-44.328-33.289-66.027-35.994-17.26-2.156-31.482-3.16-44.76-3.16-4.592 0-9.039.121-13.367.365-2.137-9.512-4.99-18.717-8.541-27.531-11.301-28.066-29.715-38.088-43.178-41.557-2.869-.738-5.928-1.111-9.092-1.111-1.197 0-2.328.051-3.396.133-.025-.039-.053-.08-.078-.119-8.246-12.621-20.764-16.355-26.117-17.951-7.033-2.094-14.535-3.154-22.295-3.154-35.697 0-72.262 22.66-96.647 41.67-33.352 25.992-61.176 57.277-79.818 89.475-10.367-1.656-21.299-2.494-32.629-2.494-40.265 0-84.69 10.713-121.432 28.998-6.525-2.91-13.807-5.033-22.025-5.033-5.692 0-11.271 1.059-16.582 3.15-21.801 8.59-27.345 32.203-30.323 44.891l-.323 1.375c-.203.854-.398 1.422-.539 1.771-1.906.773-6.532 1.555-9.691 2.086-6.063 1.023-13.605 2.295-21.277 5.328-18.098 7.154-28.021 24.189-26.551 45.576.417 6.047 1.715 11.369 2.861 16.064.119.492.238.979.355 1.467-1.533 1.4-3.934 3.227-5.686 4.563-1.867 1.42-3.696 2.822-5.393 4.229-16.355 13.547-23.982 32.271-20.928 51.385.681 4.256 2.104 8.279 4.197 11.969-13.787 50.797-10.277 106.174 10.1 154.053 17.332 40.723 47.253 69.473 76.188 92.184-3.474 74.431 35.134 149.552 99.03 190.318z" fill="#fff"/><g><path d="m308.719 853.381c77.717 49.586 195.654 20.602 239.12-60.406 8.938-16.658 14.822-34.459 17.973-52.701 85.42 27.484 194.801 9.734 251.584-64.105 50.322-65.438 60.645-154.379 35.547-231.95-7.408-22.91-17.832-43.334-30.809-61.234-4.869-6.711-3.078-9.33.488-14.307 14.172-19.781 28.057-47.021 23.23-70.779-2.75-13.537-9.068-23.146-19.273-32.332-11.094-9.986-11.512-21.674-17.918-33.959-8.643-16.578-31.217-21.266-47.807-23.336-24.713-3.084-50.486-4.699-75.139-.143-1.438-15.234-4.826-30.314-10.725-44.959-5.111-12.693-13.346-23.838-26.973-27.348-2.416-.621-5.057-.318-7.5.021-9.811 1.354-13.963-3.303-19.113-11.188-3.117-4.771-7.73-6.57-12.938-8.123-32.73-9.744-73.133 15.51-97.447 34.463-32.797 25.563-63.436 59.352-81.484 97.078-.121.254-.19.5-.271.748-2.445-.67-4.909-1.314-7.43-1.875-50.656-11.287-114.932 2.889-159.372 28.238-9.25-5.543-19.266-10.883-29.854-6.711-10.678 4.207-13.876 19.92-16.163 29.559-5.92 24.947-27.766 18.686-45.967 25.883-9.471 3.744-12.146 12.389-11.505 21.719.378 5.48 2.084 11.039 3.259 16.377 3.324 15.143-10.495 22.348-19.71 29.982-9.083 7.525-14.456 17.49-12.583 29.215.71 4.43 3.685 7.559 7.401 9.756-16.456 48.498-14.911 103.229 5.29 150.694 16.436 38.611 46.146 65.844 79.069 90.484-8.187 69.325 26.798 142.815 87.02 181.239z" fill="#68182b"/><path d="m280.678 299.339c-6.86-2.252-12.161-7.668-17.951-11.719-45.389-26.598-24.59 24.617-48.345 37.484-8.905 4.82-17.192 4.275-27.073 5.34-23.293 2.504-16.504 18.525-14.058 34.371.921 5.969-.688 12.838-4.495 17.578-4.143 5.162-9.033 8.967-14.107 13.172-3.183 2.635-29.746 24.855-7.063 28.627 15.732 2.617 35.1-5.703 46.699 9.229 15.545 20.012 33.432 12.74 45.09-7.219 4.475-7.66 8.582-14.896 15.471-20.604 7.348-6.084 17.125-8.17 25.944-11.031 21.88-7.096 17.624-23.885 14.63-41.705-3.057-18.18 16.186-23.271 22.219-37.453 7.871-18.497-29.047-13.472-36.961-16.07zm-37.507 88.059c-10.46 8.607-34.272 31.748-49.575 23.77-7.529-3.926-4.595-17.469-2.305-23.295 6.945-17.68 18.967-32.738 32.855-45.516 8.76-7.533 52.57-40.203 56.863-11.123 3.232 21.871-22.694 43.699-37.838 56.164z" fill="#808080"/><path d="m199.958 383.523c6.475-14.102 17.346-26.291 28.656-36.699 9.921-8.529 20.621-16.605 33.434-20.084 16.458-4.467 12.76 12.006 8.031 21.254-7.297 14.27-19.313 24.84-31.375 34.936-10.242 8.572-24.932 22.08-38.963 23.391-9.981.93-1.198-19.716.217-22.798z" fill="#7761d3"/><path d="m529.067 311.101c10.256-15.422 26.805-25.027 40.725-29.609 6.129-2.021 12.551-3.402 19.664-3.83 13.602-.824 26.848-.771 40.322-3.271 13.268-2.459 26.652-6.906 37.557-15.029 6.959-5.182 7.377-6.299 5.117 4.734-2.246 11.426-5.16 22.469-8.359 32.711-43.961-4.229-88.307 3.418-127.756 21.781-10.25 4.775-14.438 3.298-7.27-7.487z" fill="#b1d045"/><path d="m835.772 312.058c-2.203 20.395-14.951 42.213-25.609 55.854-22.799-25.877-51.836-45.182-85.66-57.438 13.768-11.232 28.475-15.449 50.332-11.887 10.227 1.668 20.098 5.287 30.268 7.328 4.326.867 14.639 1.58 22.861-.207 7.474-1.615 8.713-1.996 7.808 6.35z" fill="#b1d045"/><path d="m811.56 265.781c3.582 4.348 8.355 7.936 12.404 11.58 12.502 11.254 12.004 18.748 6.438 22.762-3.809 2.742-9.311 2.639-13.746 2.525-8.74-.221-17.428-2.832-25.836-5.018-8.484-2.207-20.176-5.211-31.34-5.553.408-.293.836-.535 1.236-.848 15.56-12.128 31.463-21.435 50.844-25.448z" fill="#b1d045"/><path d="m788.429 227.511c3.186 1.906 6.131 4.057 8.77 6.488 3.723 3.432 5.523 9.373 7.217 15.342 2.57 9.027 3.131 10.408-6.084 13.432-13.609 4.479-25.688 11.551-37.576 20.48-2.012 1.51-4.064 2.85-6.139 4.104 3.004-6.467 4.73-13.83 5.469-18.117 1.729-10.025 2.674-20.15 5.715-29.904 3.989-12.803 12.802-17.71 22.628-11.825z" fill="#b1d045"/><path d="m738.12 214.648c7.893.385 15.748 1.287 23.227 2.848 8.047 1.674 8.846 2.699 3.877 10.41-4.148 6.426-5.99 14.309-7.41 21.68-1.895 9.83-2.74 19.814-5.289 29.521-2.77 10.549-6.662 12.914-16.141 17.547-6.445 3.152-12.758 6.551-18.596 11.42-8.191-2.691-16.662-4.955-25.367-6.832 7.457-10.389 10.031-33.814 11.416-40.584 2.385-11.658 4.535-23.512 8.705-34.695 3.822-10.256 13.166-11.921 25.578-11.315z" fill="#b1d045"/><path d="m686.382 218.634c5.502-1.115 11.584-2.082 18.033-2.807 8.77-.984 6.736 1.861 4.055 8.414-2.135 5.217-3.527 10.867-4.83 15.82-5.285 20.086-6.15 42.264-17.369 59.916-3.844-.727-7.695-1.385-11.553-1.926 7.888-25.778 12.625-52.729 11.664-79.417z" fill="#b1d045"/><path d="m672.069 184.281c2.889 10.117 4.367 20.758 4.758 31.586.85 23.373-3.84 34.605-20.852 44.293-12.842 7.314-28.361 9.941-42.857 11.439-13.084 1.352-26.154.352-39.1 3.129-6.691 1.436-13.02 4.158-18.881 7.684 1.115-1.613 2.09-3.254 2.918-4.918 8.137-12.631 3.924-31.324 12.029-45.57 8.207-14.432 19.119-20.934 37.123-24.688 11.865-2.471 23.594-4.252 34.85-9.063 7.803-3.336 15.383-8.652 20.605-15.047 5.915-7.25 6.114-10.378 9.407 1.155z" fill="#b1d045"/><path d="m633.901 147.197c8.607.137 14.883 1.078 20.09 4.619 7.691 5.227 15.396 19.477 1.855 32.01-8.834 8.176-21.834 12.033-33.236 14.859-9.777 2.42-21.164 4.254-31.275 8.076 3.842-4.078 7.43-8.359 10.072-13.34 3.217-6.063 5.34-12.803 7.773-19.193 4.148-10.898 10.926-19.148 17.945-27.887 2.116.817 4.644.823 6.776.856z" fill="#b1d045"/><path d="m600.073 126.943c9.137 2.178 14.436 9.803 21.914 15.951-9.123 12.037-16.141 22.902-21.9 37.639-.168-2.732-.605-5.473-1.172-8.074-2.037-9.32-5.594-17.52-5.279-27.299.222-6.84 3.595-12.395 6.437-18.217z" fill="#b1d045"/><path d="m558.821 135.052c8.779-3.439 17.764-6.041 26.889-7.656 7.777-1.377 8.008-.059 5.586 7.611-1.639 5.189-2.227 10.779-2.004 16.025.281 6.74 2.732 13.234 4.635 19.627 1.088 3.656 1.656 6.889 1.768 9.951.473 12.758-1.357 12.91-10.268 23.182-7.012 8.088-14.799 15.551-20.797 24.941-1.795 2.809-2.9 5.928-3.686 9.154-2.26-7.82-5.383-15.283-8.201-21.436-6.053-13.217-13.014-25.992-16.553-40.191-6.361-25.505 6.325-34.823 22.631-41.208z" fill="#b1d045"/><path d="m494.167 177.558c7.989-7.59 16.463-14.639 25.329-20.945 10.428-7.406 9.971-4.84 9.082 3.332-1.42 13.068 3.789 26.281 8.918 37.996 6.158 14.055 13.984 27.348 18.795 41.977 3.504 10.666 3.287 18.248-2.777 31.77-2.172 4.848-5.17 9.42-9.5 14.074-4.758 5.115-9.906 9.762-14.461 14.801-2.055-13.199-16.864-28.414-23.684-35.035-10.125-9.832-20.895-18.547-26.208-32.031-9.237-23.423-.36-41.828 14.506-55.939z" fill="#b1d045"/><path d="m472.465 200.839c-.939 5.09-1.096 10.416-1.099 14.541-.006 11.984 3.853 24.844 11.468 34.199 11.541 14.18 33.432 27.83 39.184 45.813.816 2.545 1.76 5.893 1.291 10.006-1.072 9.33-4.371 7.811-9.508 1.324-19.724-24.906-44.064-44.189-74.45-54.787 8.439-17.322 19.698-34.84 33.114-51.096z" fill="#b1d045"/><path d="m214.829 653.641c-25.195-20.16-47.365-42.811-61.223-72.883-19.396-42.082-21.73-91.758-9.465-136.071 2.854-10.303 2.528-9.141 11.233-9.066 5.776.051 11.766-.902 17.401-1.047 10.071-.262 14.045 6.621 19.846 13.354 19.134 22.207 44.985 1.5 55.848-16.408 10.348-17.059 20.818-22.156 39.664-28.27 12.594-4.084 18.929-13.934 21.965-26.283 3.931-15.986-10.192-27.045 4.817-42.084 8.116-8.135 15.489-16.168 14.415-28.291-.796-8.979-7.961-12.793-15.61-15.217-6.79-2.154-14.316-.734-21.17-.068-4.302.42-8.316-1.174-12.072-3.5-7.03-4.354-5.946-7.236-.734-9.762 41.802-20.279 94.438-28.783 139.292-20.941 39.16 6.846 69.338 31.996 91.729 62.977 6.619 9.156 5.891 8.463-3.615 14.631-19.657 12.76-37.514 28.529-52.74 47.129-32.522 39.727-44.344 93.039-43.064 143.491-36.26-1.684-73.482 6.561-103.093 21.955-11.327 5.893-21.766 13.281-31.32 21.695-18.377 16.176-40.88 43.709-50.521 78.998-2.63 9.629-4.454 11.366-11.583 5.661z" fill="#7761d3"/><path d="m444.17 651.625c-3.115-7.648-1.354-12.965 1.008-20.697 2.196-7.191 7.643-36.469-19.658-20.758-6.271 3.609-6.239 3.684-12.899 5.584-10.719 3.061-22.565-4.264-29.731-11.527-19.857-17.904-31.262 4.762-31.725 23.109-.178 7.033-.17 14.658-2.977 21.25-3.756 8.816-10.65 14.793-15.102 23.127-8.997 16.844 6.027 18.961 18.875 23.352 14.158 4.838 16.646 21.139 23.346 33.188 9.656 17.367 25.146 14.117 32.385-2.896 2.302-5.41 6.05-13.242 9.916-17.643 11.557-13.146 44.935-1.324 48.639-23.68 2.742-16.55-16.861-19.602-22.077-32.409zm-25.862 41.17c-14.87 11.814-33.823 6.766-44.498-7.619-9.239-14.385-8.462-32.768 6.697-42.871 12.235-8.156 30.803-9.377 41.267 2.604 12.716 14.562 11.916 35.659-3.466 47.886z" fill="#808080"/><path d="m418.158 684.416c-11.009 12.918-29.31 10.48-38.893-2.43-7.14-11.117-7.617-23.252 2.441-32.643 8.618-8.049 22.356-9.275 32.165-2.99 12.846 8.229 13.533 27.215 4.287 38.063z" fill="#7761d3"/><path d="m470.272 550.918c-73.932-32.793-160.867-10.938-210.895 52.07-60.604 84.9-17.385 223.236 83.832 255.15 88.804 27.998 190.215-16.566 210.057-111.033 15.024-71.521-11.351-164.408-82.994-196.187zm-18.65 157.809c-9.877 2.576-25.162 1.08-30.238 11.398-2.361 4.795-3.977 10.01-6.537 14.699-8.018 14.672-25.756 19.793-37.145 8.955-11.399-10.854-15.023-35.857-28.54-38.559-19.337-3.865-37.812-4.77-29.39-29.986 4.228-12.664 18.078-22.007 19.973-35.134 2.049-14.178-.469-27.822 6.58-40.854 9.045-16.721 30.859-13.434 43.055-3.25.326.215.647.471.956.785 15.863 16.072 31.307-1.941 49.476-.107 7.188.727 14.66 6.68 16.488 13.807 3.142 12.246-7.88 33.9 2.154 42.322 6.773 5.686 15.077 11.199 17.438 20.359 4.478 17.365-7.724 31.252-24.27 35.565z" fill="#7761d3"/><path d="m714.769 406.968c.957-7.938 5.887-15.797 10.684-21.904 28.207-35.916-31.639-28.449-47.539-30.482-24.584-3.141-42.816-26.463-68.945-17.881-20.109 6.607-12.797 21.523-20.803 35.189-5.412 9.24-17.801 15.684-25.879 22.383-5.197 4.313-14.076 9.984-17.051 16.248-5.258 11.07 17.383 14.686 23.096 16.688 6.979 2.449 15.42 5.834 20.934 10.98 10.486 9.791 3.434 40.082 16.297 45.775 26.516 2.586 37.102-25.672 60.117-31.578 7.824-2.008 77.127 11.4 65.029-11.33-6.151-11.553-17.64-20.029-15.94-34.088zm-81.928 37.084c-25.494-1.881-46.988-15.385-40.293-43.557 8.574-27.117 34.133-37.928 61.162-33.963 20.691 3.037 47.789 12.316 46.975 37.258-.938 28.59-44.856 41.958-67.844 40.262z" fill="#808080"/><path d="m642.126 437.71c-22.982 1.76-50.088-7.756-43.484-35.537 7.061-22.328 26.105-30.809 48.299-29.986 14.924.555 37.582 6.234 45.711 20.211 15.238 26.207-32.346 43.918-50.526 45.312z" fill="#7761d3"/><path d="m817.556 394.347c-45.645-69.557-134.654-98.875-215.342-85.307-48.094 8.088-93.445 29.814-127.299 65.455-35.793 37.682-51.715 86.588-53.018 137.344-.298 11.594.93 13.928 12.93 16.014 29.889 5.199 57.752 17.916 78.451 39.871 37.575 39.854 58.022 96.213 54.979 151.021-.639 11.477 1.031 11.799 10.98 14.504 91.635 24.861 200.891-3.309 247.793-90.711 40.989-76.384 38.391-175.249-9.474-248.191zm-92.159 19.647c1.557 3.787 5.225 7.215 7.49 10.52 5.123 7.467 10.514 15.482 10.205 24.885-.744 22.656-46.486 15.959-58.354 14.773-12.748-1.275-19.961-2.158-29.727 6.41-5.16 4.529-10.299 9.291-15.967 13.199-10.367 7.145-20.629 11.945-33.225 10.746-.834.199-1.789.148-2.859-.295-8.057-3.336-11.539-10.285-13.451-18.619-1.523-6.641-2.416-13.455-4.127-20.049-2.424-9.32-7.881-12.482-16.236-16.428-12.256-5.787-31.734-7.441-35.715-22.889-2.188-8.496 7.176-17.254 12.754-22.09 14.559-12.621 32.555-20.715 35.551-40.828 1.813-12.178 7.623-21.262 19.885-25.289 10.813-3.553 25.205-5.988 36.252-1.727 19.064 7.355 31.662 18.613 53.832 17.797 23.385-.861 66.422 8.611 46.775 41.271-4.026 6.702-17.108 18.812-13.083 28.613z" fill="#7761d3"/><path d="m494.167 177.558c-14.865 14.111-23.742 32.516-14.506 55.938 5.313 13.484 16.083 22.199 26.208 32.031 6.819 6.621 21.629 21.836 23.684 35.035.914-1.01 1.918-1.969 2.869-2.957 3.234-15.619-6.014-30.441-18.049-43.002-10.709-11.178-22.927-21.131-27.633-36.473-4.228-13.781.963-29.236 9.083-42.096-.55.514-1.114 1.007-1.656 1.524z" fill="#abab38"/><path d="m536.19 176.261c3.539 14.199 10.5 26.975 16.553 40.191 2.818 6.152 5.941 13.615 8.201 21.436.785-3.227 1.891-6.346 3.686-9.154 1.115-1.75 2.346-3.377 3.572-5.008.73-10.387-1.783-20.502-8.705-30.461-6.035-8.693-12.875-16.104-15.619-26.619-3.191-12.227 2.434-21.787 10.303-29.617-13.946 6.394-23.731 16.215-17.991 39.232z" fill="#abab38"/><path d="m810.163 367.912c6.27-8.021 13.246-18.883 18.391-30.613-6.59 4.572-14.293 6.961-23.461 5.201-13.004-2.492-24.096-15.033-34.133-22.902-9.129-7.156-25.346-16.391-38.598-14.582-2.672 1.6-5.295 3.363-7.859 5.459 33.824 12.255 62.861 31.56 85.66 57.437z" fill="#abab38"/><path d="m686.271 299.978c3.02-4.748 5.271-9.834 7.08-15.111-5.904-7.588-8.227-18.623-9.029-29.598-2.016 14.451-5.322 28.793-9.604 42.783 3.857.541 7.709 1.199 11.553 1.926z" fill="#abab38"/><path d="m593.636 145.16c-.314 9.779 3.242 17.979 5.279 27.299.566 2.602 1.004 5.342 1.172 8.074 1.506-3.855 3.105-7.438 4.801-10.854-.102-.701-.201-1.404-.371-2.127-1.248-5.314-4.938-10.371-6.871-15.396-2.352-6.117-2.469-12.15-1.072-18.076-1.567 3.461-2.805 7.045-2.938 11.08z" fill="#abab38"/><path d="m759.479 292.078c11.164.342 22.855 3.346 31.34 5.553 8.408 2.186 17.096 4.797 25.836 5.018 4.436.113 9.938.217 13.746-2.525 2.695-1.941 4.182-4.709 3.602-8.314-13.713 8.813-32.4-1.701-47.723-5.402-6.197-1.498-12.607-1.436-18.795-.221-2.27 1.625-4.525 3.295-6.77 5.045-.4.31-.827.553-1.236.846z" fill="#abab38"/><path d="m599.562 196.525c-2.369 3.691-5.209 7.035-8.227 10.236 10.111-3.822 21.498-5.656 31.275-8.076 11.402-2.826 24.402-6.684 33.236-14.859 7.951-7.361 8.553-15.301 6.154-21.67-5.296 21.379-41.159 22.394-62.438 34.369z" fill="#abab38"/><path d="m664.093 296.806c1.75-5.602 3.4-11.461 4.916-17.475-6.922 4.486-15.813 6.557-23.887 8.107-17.053 3.277-34.471 2.842-51.508 6.313-21.498 4.383-49.371 10.666-65.902 27.408 1.863.104 4.824-.801 8.625-2.572 39.449-18.363 83.795-26.009 127.756-21.781z" fill="#abab38"/><path d="m513.802 306.722c1.303 1.645 2.484 2.965 3.545 3.875-1.422-8.885-6.68-17.588-11.904-24.111-16.881-21.084-51.527-32.713-50.631-61.648-5.854 8.949-11.051 18.047-15.459 27.098 30.385 10.597 54.725 29.88 74.449 54.786z" fill="#abab38"/><path d="m619.368 259.96c-19.402 3.338-43.219 1.561-59.248 13.566-.592 1.371-1.252 2.707-2.064 3.967-.828 1.664-1.803 3.305-2.918 4.918 5.861-3.525 12.189-6.248 18.881-7.684 12.945-2.777 26.016-1.777 39.1-3.129 14.496-1.498 30.016-4.125 42.857-11.439 16.67-9.492 21.494-20.498 20.881-42.93-1.873 7.299-5.059 14.219-10.012 20.434-10.93 13.71-30.967 19.458-47.477 22.297z" fill="#abab38"/><path d="m712.542 225.962c-4.17 11.184-6.32 23.037-8.705 34.695-1.385 6.77-3.959 30.195-11.416 40.584 8.705 1.877 17.176 4.141 25.367 6.832 1.557-1.299 3.148-2.479 4.766-3.592 1.104-3.963 1.455-8.186.67-12.629-2.412-13.666-8.57-25.791-8.154-39.996.502-17.006 14.691-30.031 29.584-36.758-2.17-.188-4.348-.344-6.533-.451-12.413-.605-21.757 1.06-25.579 11.315z" fill="#abab38"/><path d="m760.085 269.24c-.738 4.287-2.465 11.65-5.469 18.117 2.074-1.254 4.127-2.594 6.139-4.104 3.225-2.422 6.469-4.693 9.748-6.828.521-1.387.99-2.859 1.381-4.461 1.705-7.004.363-14.725-.434-21.746-1.059-9.346.473-17.805 5.566-24.645-4.881 1.498-8.879 6.262-11.217 13.762-3.04 9.754-3.986 19.879-5.714 29.905z" fill="#abab38"/><path d="m736.384 296.654c9.479-4.633 13.371-6.998 16.141-17.547 2.549-9.707 3.395-19.691 5.289-29.521 1.42-7.371 3.262-15.254 7.41-21.68 1.053-1.635 1.787-2.92 2.309-4.021-11.158 4.344-17.004 17.445-19.643 28.371-3.805 15.756-3.219 32.59-12.25 44.775.248-.123.496-.254.744-.377z" fill="#d7e338"/><path d="m526.622 183.093c2.479 12.324 8.172 23.623 13.385 34.979 6.256 13.617 11.342 27.023 10.467 42.244-.828 14.377-8.674 23.779-15.629 34.795 3.061-3.068 6.17-6.127 9.168-9.35 4.33-4.654 7.328-9.227 9.5-14.074 6.064-13.521 6.281-21.104 2.777-31.77-4.811-14.629-12.637-27.922-18.795-41.977-4.955-11.316-9.924-24.025-8.982-36.658-2.221 7.026-3.399 14.315-1.891 21.811z" fill="#d7e338"/><path d="m523.397 303.052c-.027-3.049-.727-5.625-1.379-7.66-5.752-17.982-27.643-31.633-39.184-45.813-7.615-9.355-11.474-22.215-11.468-34.199 0-1.918.046-4.109.175-6.402-4.49 16.236-1.071 33.375 9.588 47.014 12.404 15.863 37.364 27.029 42.268 47.06z" fill="#d7e338"/><path d="m758.11 300.777c11.721.939 23.385 4.615 34.844 7.115 13.32 2.902 26.596 3.711 38.191-2.826-.92.166-1.936.375-3.182.643-8.223 1.787-18.535 1.074-22.861.207-10.17-2.041-20.041-5.66-30.268-7.328-16.508-2.689-28.934-.93-39.961 4.926 7.593-2.046 14.952-3.399 23.237-2.737z" fill="#d7e338"/><path d="m668.94 258.152c-.494.375-1.02.771-1.605 1.209-10.904 8.123-24.289 12.57-37.557 15.029-13.475 2.5-26.721 2.447-40.322 3.271-7.113.428-13.535 1.809-19.664 3.83-13.9 4.576-30.422 14.166-40.682 29.549 9.031-8.896 19.508-16.092 30.898-21.762 17.199-8.559 37.846-8.451 56.586-10.52 18.491-2.042 41.296-4.792 52.346-20.606z" fill="#d7e338"/><path d="m581.726 172.333c1.322 16.773-1.348 30.631-8.002 44.545 3.859-4.443 7.887-8.686 11.703-13.086 8.91-10.271 10.74-10.424 10.268-23.182-.111-3.063-.68-6.295-1.768-9.951-1.902-6.393-4.354-12.887-4.635-19.627-.213-5.008.344-10.318 1.814-15.305-8.363 11.185-10.535 21.907-9.38 36.606z" fill="#d7e338"/><path d="m608.813 162.386c3.863-6.688 8.195-12.924 13.174-19.492-2.768-2.273-5.232-4.748-7.707-7.076 2.09 7.771-2.357 17.59-5.467 26.568z" fill="#d7e338"/><path d="m642.058 198.173c-11.256 4.811-22.984 6.592-34.85 9.063-18.004 3.754-28.916 10.256-37.123 24.688-4.979 8.75-5.314 19.174-6.715 28.846 1.309-2.217 2.336-4.609 3.277-7.188 3.172-8.691 6.518-16.322 12.6-23.387 11.844-13.76 30.895-16.816 47.547-21.035 14.537-3.684 35.396-13.371 38.689-29.656-.773 1.01-1.693 2.24-2.82 3.623-5.223 6.394-12.803 11.71-20.605 15.046z" fill="#d7e338"/><path d="m695.507 277.777c3.311-12.346 4.896-25.42 8.133-37.715 1.303-4.953 2.695-10.604 4.83-15.82.809-1.975 1.553-3.607 1.965-4.906-16.594 16.355-14.565 37.275-14.928 58.441z" fill="#d7e338"/><path d="m627.126 146.341c-7.02 8.738-13.797 16.988-17.945 27.887-1.67 4.385-3.215 8.922-5.045 13.307 5.35-5.105 9.086-11.385 12.871-17.9 6.637-11.422 16.486-19.793 28.91-21.23-3.469-.813-7.398-1.135-12.016-1.207-2.132-.034-4.66-.04-6.775-.857z" fill="#d7e338"/><path d="m226.411 647.979c9.642-35.289 32.145-62.822 50.521-78.998 9.555-8.414 19.993-15.803 31.32-21.695 29.61-15.395 66.833-23.639 103.093-21.955-1.279-50.452 10.542-103.764 43.064-143.491 5.397-6.592 11.14-12.813 17.163-18.688-59.063 25.369-89.481 84.98-131.047 131.367-27.672 30.883-61.229 58.292-100.275 73.168-28.678 10.922-64.348 19.846-89.948 5.404 1.042 2.58 2.14 5.139 3.304 7.666 13.857 30.072 36.027 52.723 61.223 72.883 7.129 5.706 8.953 3.969 11.582-5.661z" fill="#584ab9"/><path d="m199.741 406.32c14.031-1.311 28.721-14.818 38.963-23.391 12.063-10.096 24.078-20.666 31.375-34.936 2.76-5.398 5.138-13.238 3.389-17.957-11.268 18.271-25.969 34.211-43.965 46.322-7.785 5.238-20.779 13.26-32.779 15.705-2.095 6.78-3.306 14.847 3.017 14.257z" fill="#584ab9"/><path d="m834.327 579.059c-21.652 34.727-55.219 61.027-92.379 77.426-38.34 16.922-84.361 23.557-124.998 11.654-22.734-6.66-42.557-20.74-58.813-37.658-3.461-3.6-6.693-7.387-9.85-11.24 14.684 30.891 21.857 65.494 19.969 99.506-.639 11.477 1.031 11.799 10.98 14.504 91.635 24.861 200.891-3.309 247.793-90.711 19.043-35.486 28.664-75.828 28.721-116.166-4.06 18.683-11.204 36.294-21.423 52.685z" fill="#584ab9"/><path d="m550.71 757.326c-7.66 14.037-19.031 26.039-30.781 36.947-17.521 16.268-39.534 27.301-61.916 35.141-38.152 13.367-80.367 12.287-118.362-.992-42.263-14.77-73.465-46.953-89.693-88.363-15.129-38.609-12.358-79.689-1.643-118.695-43.229 85.195.688 207.07 94.895 236.775 85.529 26.966 182.723-13.403 207.5-100.813z" fill="#584ab9"/><path d="m642.126 437.71c18.18-1.395 65.764-19.105 50.525-45.313-.938-1.611-2.086-3.1-3.375-4.496-.074 6.428-2.055 12.633-7.26 17.947-9.369 9.568-24.65 12.152-37.43 12.338-13.072.189-27.557-2.674-38.086-10.836-3.287-2.549-5.402-5.418-6.67-8.457-.418 1.064-.83 2.143-1.189 3.279-6.603 27.783 20.503 37.298 43.485 35.538z" fill="#584ab9"/><path d="m418.158 684.416c5.964-6.996 7.765-17.361 4.871-26.061.366 4.164-.175 8.377-2.32 12.623-4.353 8.604-14.14 13.02-23.19 9.984-7.582-2.543-12.915-10.082-15.52-17.266-1.783-4.92-1.732-9.543-.59-14.051-9.732 9.348-9.207 21.34-2.144 32.34 9.583 12.911 27.884 15.349 38.893 2.431z" fill="#584ab9"/><path d="m674.497 486.593c-4.523-1.551-8.316-.486-12.826.572-3.818.895-8 1.607-10.979 4.338-.236.219-.252.668 0 .885 6.371 5.461 19.947 2.289 24.473-4.148.441-.629-.037-1.428-.668-1.647z" fill="#9386f1"/><path d="m691.503 481.044c-1.635-1.053-3.506-.682-5.26-.104-2.195.723-3.463 1.574-4.355 3.674-.213.498-.152 1.051.354 1.35 1.74 1.031 2.873 1.154 4.885.701 1.953-.438 4.096-1.037 5.086-2.924.515-.982.225-2.097-.71-2.697z" fill="#9386f1"/><path d="m764.31 389.875c-.434-.439-1.115.012-.992.576 3.273 14.791 1.621 28.484-1.076 43.191-.137.752.773 1.453 1.377.799 10.935-11.889 12.487-32.654.691-44.566z" fill="#9386f1"/><path d="m560.964 479.824c-5.563-4.455-9.939-11.734-16.223-15.014-.496-.258-1.15.059-1.141.654.121 7.447 7.123 14.723 12.34 19.383 6.182 5.523 13.215 9.764 21.732 8.742.621-.074 1.125-.836.557-1.348-5.345-4.825-11.679-7.945-17.265-12.417z" fill="#9386f1"/><path d="m329.493 341.371c-.195-.318-.759-.299-.841.109-1.117 5.586-2.125 10.914-4.114 16.287-2.135 5.762-3.811 10.98-3.953 17.15-.021.895 1.078 1.02 1.532.416 6.592-8.728 13.934-23.314 7.376-33.962z" fill="#9386f1"/><path d="m285.051 415.949c-4.33 1.91-6.97 5.664-10.22 8.936-3.704 3.734-7.765 7.059-11.905 10.287-.41.316-.045.947.395.955 4.84.082 9.625-2.398 13.214-5.523 4.224-3.674 9.065-7.738 9.917-13.576.127-.862-.595-1.435-1.401-1.079z" fill="#9386f1"/><path d="m294.342 415.111c-1.23 2.045-1.697 4.424-2.422 6.668-.104.32.239.68.566.566 2.079-.723 4.305-1.705 5.502-3.689.969-1.602 1.969-4.611.105-5.992-1.464-1.086-3.159 1.462-3.751 2.447z" fill="#9386f1"/><path d="m445.391 740.125c-2.133 1.297-5.234 1.545-7.651 2.105-2.931.68-5.823 1.818-8.752 2.574-4.517 1.166-10.528 2.26-13.942 5.643-.257.252-.121.662.203.77 5.168 1.711 12.072.602 17.378-.209 7.022-1.072 9.904-3.691 14.521-8.607 1.106-1.182-.316-3.153-1.757-2.276z" fill="#9386f1"/><path d="m333.323 716.58c-.484-.936-4.289-9.227-6.331-7.207-2.78 2.748.989 9.51 2.395 12.238 2.427 4.719 5.237 9.145 10.815 9.547.57.041 1.02-.598.857-1.125-1.564-5.019-5.301-8.752-7.736-13.453z" fill="#9386f1"/><path d="m193.596 411.167c-7.529-3.926-4.595-17.469-2.305-23.295 6.945-17.68 18.967-32.738 32.855-45.516 7.047-6.061 36.77-28.369 50.359-21.723-1.236-1.209-2.668-2.234-4.408-2.9-12.603-4.82-26.119 3.6-36.178 10.543-15.468 10.676-28.098 24.504-38.057 40.359-6.484 10.316-15 25.414-8.09 37.443 1.801 3.135 4.252 4.902 7.168 5.605-.444-.174-.909-.289-1.344-.516z" fill="#515151"/><path d="m373.81 685.176c-9.239-14.385-8.462-32.768 6.697-42.871 12.235-8.156 30.803-9.377 41.267 2.604 9.265 10.607 11.317 24.674 5.821 36.262 7.086-10.994 4.556-27.365-1.989-38.084-11.098-18.168-35.235-15.641-49.871-3.262-14.81 12.527-18.107 36.104-.779 48.855 1.539 1.133 3.153 2.021 4.797 2.809-2.165-1.835-4.176-3.932-5.943-6.313z" fill="#515151"/><path d="m690.499 372.634c-22.498-15.9-55.197-15.371-79.504-4.039-11.752 5.477-19.873 14.674-22.699 27.367-2.107 9.457.08 20.922 6.469 28.568-3.42-6.357-4.531-14.299-2.217-24.035 8.574-27.117 34.133-37.928 61.162-33.963 20.691 3.037 47.789 12.316 46.975 37.258-.031.926-.109 1.836-.229 2.73 4.133-12.009 2.25-25.259-9.957-33.886z" fill="#515151"/><g fill="#68182b"><path d="m838.888 467.933c-.119-.391-.795-.338-.742.1 9.906 82.231-13.004 171.059-77.965 225.672-.506.426.15 1.25.697.906 43.271-27.227 66.475-74.877 76.852-123.555 6.853-32.148 10.949-71.076 1.158-103.123z"/><path d="m713.267 485.806c-9.77 4.752-20.76 8.9-31.115 12.092-13.445 4.145-27.156 3.428-40.922 4.846-.445.047-.535.617-.105.775 24.809 9.137 53.605-.688 72.818-16.836.517-.432-.139-1.139-.676-.877z"/><path d="m723.772 476.636c-.51.383-1.051.609-1.576.969-.643.434-1.07 1.211-1.576 1.793-.822.951-1.506 2.295-2.391 3.148-.213.207-.047.555.232.563 1.529.049 2.715.127 3.965-1.016 1.711-1.568 2.164-2.691 2.262-4.932.018-.427-.544-.802-.916-.525z"/><path d="m750.331 385.302c3.141 17.293 5.377 32.746 2.041 50.299-.104.559.619.908.934.393 8.676-14.223 7.508-37.307-2.164-51.031-.295-.421-.905-.163-.811.339z"/><path d="m558.108 465.271c-3.564-4.785-5.852-11.459-10.447-15.301-.584-.488-1.316-.02-1.209.705.986 6.715 6.328 13.883 10.254 19.244 3.979 5.438 8.898 9.709 15.719 10.527.404.049.646-.563.338-.814-5.377-4.388-10.485-8.771-14.655-14.361z"/><path d="m456.879 715.094c-.049-.232-.365-.301-.523-.139-4.021 4.125-6.729 9.055-11.194 12.908-4.493 3.873-10.153 7.52-15.497 10.086-.401.191-.223.908.232.857 7.195-.818 12.794-3.25 18.399-7.809 4.322-3.513 9.861-9.876 8.583-15.903z"/><path d="m358.282 732.586c.506-.064.821-.746.282-1.043-4.122-2.258-8.19-4.713-12.005-7.463-3.533-2.545-6.387-5.895-9.85-8.529-.276-.211-.641.133-.557.428 2.501 8.662 12.79 17.787 22.13 16.607z"/><path d="m442.535 848.602c-24.974 2.498-50.981 1.676-75.652-2.83-16.804-3.066-33.234-8.865-48.31-16.865-16.652-8.838-29.648-21.502-42.217-35.316-.244-.27-.658.076-.49.379 16.986 30.752 51.488 48.621 84.354 57.066 26.1 6.703 56.98 9.182 82.494-1.109.646-.259.642-1.407-.179-1.325z"/><path d="m456.065 843.92c-1.043.188-1.982.602-2.973.969-1.689.633-3.258 1.387-4.519 2.705-.208.219-.112.574.175.66 1.742.527 3.482.23 5.167-.383.805-.291 1.831-.525 2.556-.988 3.572-2.287 3.217-3.619-.406-2.963z"/><path d="m420.379 278.486c23.122 5.541 45.732 16.676 65.404 29.953.547.369 1.093-.428.678-.879-16.717-18.143-37.408-28.291-61.092-34.727-25.377-6.893-54.941-9.516-80.514-2.406-.374.102-.273.617.087.645 25.451 2.039 50.38 1.408 75.437 7.414z"/><path d="m180.813 455.982c.483-.195.619-.805.144-1.113-3.196-2.08-6.593-2.455-10.204-3.479-4.157-1.178-7.718-3.482-11.721-4.959-.481-.18-.854.424-.631.82 3.771 6.735 15.148 11.69 22.412 8.731z"/><path d="m182.401 598.719c-9.493-12.49-13.751-26.754-21.17-40.254-.134-.242-.525-.133-.521.143.504 28.965 26.733 57.523 49.169 72.756.498.34.996-.391.617-.799-9.519-10.389-19.561-20.616-28.095-31.846z"/></g></g></g></svg>