<svg id="Fruit" height="512" viewBox="0 0 992.13 992.13" width="512" xmlns="http://www.w3.org/2000/svg"><g><path d="m930.771 424.662c-1.693-38.92-17.956-74.109-47.041-101.77-1.538-1.465-2.198-2.189-2.462-2.502-.097-.281-.28-.881-.541-1.975-10.538-44.35-42.256-81.102-84.843-98.311-6.862-2.771-7.459-5.045-7.818-6.418-14.316-54.463-58.878-89.656-113.521-89.656-10.171 0-20.469 1.254-30.708 3.732-12.524-4.041-25.656-6.346-39.197-6.883-11.848-13.381-29.486-21.26-48.916-21.26-2.328 0-4.639.115-6.92.342-8.144-21.188-22.572-41.713-51.267-52.158-6.959-2.535-14.44-3.818-22.234-3.818-32.475 0-58.569 21.74-60.698 50.57-.571 7.732 1.615 15.131 4.129 21.43-9.067 3.416-17.458 8.123-24.75 13.928-11.309-3.084-22.772-4.641-34.233-4.641-3.336 0-6.729.133-10.085.393-5.225.406-10.507 1.303-15.769 2.676-7.569-1.049-15.238-1.58-22.869-1.58-61.295 0-110.489 31.992-127.303 81.092-20.062 6.979-38.493 21.779-53.059 42.896-20.158 29.223-30.274 65.799-27.454 96.961-24.286 25.682-39.677 61.912-41.82 99.533-1.813 31.834 6.358 60.917 23.133 83.032-6.846 48.766 7.489 99.482 38.125 134.697-4.576 59.227 40.039 114.943 89.831 141.975 24.089 47.154 58.675 74.791 96.253 76.824 19.046 24.447 51.033 39.604 85.536 39.604 9.155 0 17.998-1.109 26.461-3.326 11.054 4.346 22.851 6.637 34.645 6.691 14.905 13.436 36.542 21.404 59.522 21.404 17.325 0 33.177-4.418 45.85-12.619 3.521.438 7.123.658 10.79.658 47.532 0 96.642-36.906 116.59-53.771 4.222-.412 8.502-1.189 12.795-2.328 43.115-11.439 72.215-48.188 86.425-81.445 2.858-1.807 5.673-3.811 8.417-6.004 31.03-24.781 43.381-63.887 50.675-95.184.923-3.969 1.754-7.787 2.501-11.508 63.34-43.066 91.347-122.051 69.684-195.124 9.305-15.597 13.384-37.753 12.146-66.157z" fill="#fff"/><g><path d="m906.909 425.697c-1.491-34.285-16.6-63.588-39.629-85.492-5.937-5.641-7.987-8.674-9.789-16.268-8.83-37.164-35.239-67.418-70.558-81.688-10.305-4.166-18.883-10.734-21.966-22.49-14.545-55.326-66.473-83.908-122.022-67.006-.012.004-.021.01-.033.014-15.964-6.193-33.408-8.816-50.781-7.973-.033-.074-.048-.146-.085-.223-10.677-21.563-40.32-26.955-59.315-14.412-5.877-27.018-15.339-49.711-43.365-59.916-20.101-7.318-49.204 2.508-50.944 26.072-.469 6.348 5.256 16.541 6.987 21.219 1.932 5.219 3.372 10.613 4.592 16.064-18.595.941-37.821 8.773-49.587 23.283-.072.092-.115.186-.182.277-15.011-5.99-31.169-9.045-48.717-7.684-5.558.432-10.914 1.598-16.035 3.287-.013-.002-.023-.008-.037-.01-58.214-10.139-121.058 16.508-132.33 74.902-51.277 6.705-85.404 82.303-74.392 128.68-45.409 38.967-60.824 121.639-20.101 165.548.457.494.946.832 1.444 1.098-10.063 46.426 2.713 99.371 36.856 132.977.305.297.617.549.938.754-10.862 54.133 34.565 109.609 82.583 132.602 19.407 41.543 51.541 75.482 90.913 70.146 17.652 33.777 65.659 48.518 100.747 35.117.047-.018.082-.045.129-.064 13.478 7.088 28.4 9.67 43.051 7.717 18.136 25.496 66.71 29.83 89.175 7.932.075-.074.121-.152.19-.227 40.08 12.088 94.57-24.77 122.625-49.715.509-.449.858-.936 1.13-1.428 4.985.301 10.433-.207 16.394-1.789 34.785-9.229 61.392-41.91 73.182-74.295.091-.25.132-.484.186-.723 4.064-1.908 8.283-4.484 12.697-8.01 24.531-19.592 35.447-52.457 42.318-81.943 1.559-6.689 3.009-13.701 4.188-20.875.428-.129.862-.301 1.302-.568 63.104-38.209 89.455-115.91 63.193-184.35 15.225-13.351 15.786-43.609 15.048-60.54z" fill="#68182b"/><path d="m799.792 260.539c20.242 12.611 35.585 31.621 43.829 54.164 3.106 8.488.613 7.434-4.396 4.557-8.911-5.113-18.418-9.377-28.334-12.736-1.063-13.383-5.706-26.77-12.595-39.348-3.817-6.969-6.532-11.637 1.496-6.637z" fill="#b1d045"/><path d="m786.204 349.615c-12.098-12.203-26.615-21.684-43.131-26.621-6.642-1.99-7.789-1.953-11.565-9.504-21.136-42.305-72.82-79.877-115.087-69.959-4.953-3.629-10.262-7.053-15.804-10.129-7.567-4.201-11.082-7.252-.253-12.873 40.647-21.086 92.129-24.158 133.256-3.971 43.922 21.563 91.746 87.943 52.584 133.057z" fill="#b1d045"/><path d="m253.547 333.994c3.237 8.801 4.717 8.393-3.96 15.426-18.766 15.215-38.465 33.32-53.853 53.797-47.236-2.535-21.72-59.33-3.01-79.033 13.996-14.74 32.558-24.217 51.764-31.236 13.097-4.785 11.455-1.324 9.38 5.33-3.641 11.595-4.304 24.889-.321 35.716z" fill="#b1d045"/><path d="m257.574 356.337c8.748-6.957 10.979-2.189 3.289 7.813-16.653 21.65-25.917 48.09-22.338 80.412 1.441 13.025 7.343 22.264 15.943 27.852-.329.439-.624.93-.831 1.523-5.264 15.104-14.515 29.338-26.891 39.663-.146.102-.286.213-.422.334-5.408 4.449-11.396 8.168-17.916 10.875-17.702 7.352-26.298-20.412-28.804-31.288-2.979-12.928-.475-27.002 2.705-39.557 10.274-40.572 43.105-72.037 75.265-97.627z" fill="#b1d045"/><path d="m578.824 353.195c-.279-8.361 2.934-13.439 10.853-8.951 16.397 9.291 31.831 20.367 43.122 35.51 16.47 22.088 20.374 51.383 20.318 78.098-.026 12.939-1.218 25.926-7.177 37.598-14.341 28.083-47.635-.367-59.002-12.869-18.015-19.816-27.226-46.773-34.527-72.088.465-.32.926-.607 1.391-.951 19.053-14.052 25.744-34.75 25.022-56.347z" fill="#b1d045"/><path d="m640.759 266.595c-8.884-11.32-11.293-15.607 2.16-13.023 60.174 11.57 127.043 104.645 59.345 137.512-.164.08-.29.18-.438.27-10.834-11.281-22.564-21.307-34.674-29.605 11.443-28.88-7.587-71.191-26.393-95.154z" fill="#b1d045"/><path d="m730.771 452.64c9.504 18.646 17.464 37.836 18.484 58.956 1.378 28.605-19.461 48.697-44.829 44.527-7.841-1.289-15.402-6.582-19.55-14.02-8.462-15.188-19.413-28.891-30.858-39.545 1.589-2.344 2.991-4.945 4.059-7.969 11.229-31.785 6.496-71.43-6.175-102.031-3.649-8.813-3.951-8.666 2.043-13.313 3.196-2.475 5.866-5.242 8.079-8.238 30.484 20.967 52.016 48.795 68.747 81.633z" fill="#b1d045"/><path d="m379.981 427.121c-28.17 8.732-21.458-38.219-19.227-48.518 4.515-20.822 16.645-36.15 31.665-50.441 19.062-18.139 42.505-35.045 66.972-47.23 7.956-3.965 9.038-.873 7.634 8.291-.543 3.553-.909 7.186-1.119 10.867-30.645 4.115-38.511 35.801-45.944 62.082-4.661 16.475-10.063 34.012-12.562 51.445-8.872 5.375-17.412 10.402-27.419 13.504z" fill="#b1d045"/><path d="m420.83 479.109c2.497 3.316 5.346 6.145 8.407 8.59-.021.125-.063.238-.074.367-3.538 34.969-34.562 130.102-84.603 87.877-30.86-26.039-27.425-80.188-13.868-113.811 11.271-7.234 21.104-16.613 28.633-27.818 10.196 8.033 25.64 3.158 38.426-3.178 8.357-4.145 7.963-.279 8.467 7.348.933 14.219 5.098 27.982 14.612 40.625z" fill="#b1d045"/><path d="m368.824 337.845c-2.404 3.074-4.671 6.203-6.781 9.383-13.299 20.027-20.706 54.951-9.491 77.98-12.708 20.867-33.43 34.262-56.79 40.869-16.956 4.793-38.673 4.461-45.673-16.523-4.466-13.387-1.995-30.412.905-43.703 10.533-48.299 58.975-75.645 101.111-93.221 3.89 5.955 9.398 9.619 15.647 11.959 8.317 3.112 7.527 4.991 1.072 13.256z" fill="#b1d045"/><path d="m263.795 476.734c.002-.008.002-.012.004-.02 7.032 2.199 15.055 2.715 23.55 1.504 5.79-.828 11.509-2.129 17.083-3.877 10.488-3.283 10.435.889 8.647 10.146-3.438 17.803-3.135 35.975.668 54.395 2.23 10.799 7.08 23.717 14.379 34.451 0 .004-.003.008-.003.012-2.196 24.08-12.619 44.615-25.283 64.789-7.996 12.736-18.159 30.648-38.57 21.777-10.838-4.713-17.599-17.064-22.949-26.926-17.564-32.381-15.984-76.342-7.019-111.174 13.743-12.04 24.05-29.464 29.493-45.077z" fill="#b1d045"/><path d="m333.313 599.471c4.102-14.098 4.447-13.031 14.012-8.176 1.902.963 3.882 1.76 5.937 2.361 14.705 4.307 27.267 2.152 37.907-4.086 5.068 23.029 18.313 49.15 37.879 64.268-5.793 25.828-34.514 97.225-72.794 80.188-27.41-12.197-40.237-57.904-45.428-85.68 10.075-14.2 17.734-32.524 22.487-48.875z" fill="#b1d045"/><path d="m416.704 624.076c-8.904-12.24-13.691-26.668-16.196-41.416 22.834-20.68 34.756-61.121 38.506-88.94 12.227 5.567 26.403 5.676 38.932.293 4.496 25.358 10.198 50.231 21.958 73.377 4.05 7.971 10.332 17.551 17.981 25.99-.158.266-.313.535-.436.842-8.973 22.623-23.624 46.105-45.109 58.488-21.399 12.333-44.491-13.312-55.636-28.634z" fill="#b1d045"/><path d="m487.599 488.46c.757-.553 1.528-1.074 2.261-1.678 15.929-13.125 23.875-33.762 25.074-54.295.767-13.139.08-15.164 12.175-14.281 5.102.369 10.402-.395 15.841-2.559 9.19 30.98 21.88 60.563 45.261 83.151 8.078 37.967-.035 144.693-60.637 88.609-26.728-24.733-34.089-64.45-39.975-98.947z" fill="#b1d045"/><path d="m519.325 615.195c6.173-12.006 6.841-12.529 16.107-6.873 5.453 3.324 11.18 5.566 17.003 6.121 8.973.857 16.433-.781 22.616-4.26 7.372-4.148 8.904-3.559 13.035 5.074 7.72 16.133 17.591 31.971 32.95 40.773-7.87 31.475-15.016 76.852-49.336 89.186-52.582 18.898-73.666-50.697-83.019-89 12.658-10.232 23.167-26.46 30.644-41.021z" fill="#b1d045"/><path d="m590.253 594.445c10.639-18.418 12.983-46.213 11.757-69.617-.769-14.619.356-13.688 11.343-10.563 11.63 3.314 24.119 2.506 33.376-4.105 30.472 28.377 50.236 65.834 39.456 108.273-7.483 29.451-33.867 42.846-60.824 27.814-18.315-10.214-27.278-33.384-35.108-51.802z" fill="#b1d045"/><path d="m563.683 377.417c-8.118 25.422-37.22 41.574-57.697 19.336-8.187-8.889-16.143-20.723-20.616-32-7.029-22.963-9.257-46.979-7.035-70.865 1.104-11.875 4.377-24.721 12.247-33.953 13.385-15.707 31.245 2.826 41.181 13.045 27.204 27.98 44.297 65.676 31.92 104.437z" fill="#b1d045"/><path d="m502.04 406.88c6.18 23.383 1.238 41.018-10.768 61.248-17.457 29.415-52.755 21.998-68.416-5.107-14.366-24.863-3.999-58.035 3.105-83.35 5.659-20.174 9.812-53.049 29.334-65.004 8.792-5.381 10.277-.607 11.066 8.234 1.444 16.184 4.97 31.969 8.85 44.65 5.641 14.214 15.033 29.322 26.829 39.329z" fill="#b1d045"/><path d="m470.945 264.175c-29.235 11.848-60.053 30.709-84.067 53.809-9.951-.98-20.462-2.617-26.396-11.59-5.23-7.91 3.26-18.697 8.203-24.533 26.571-28.658 66.228-36.65 102.631-26.363 5.867 1.658 7.73 5.394-.371 8.677z" fill="#b1d045"/><path d="m422.807 242.072c-23.104 3.646-44.885 14.35-61.568 32.344-6.374 7.525-13.768 18.051-12.807 28.424-24.823 10.477-49.152 23.928-68.663 41.207-39.592-8.457-9.696-59.453 6.044-76.074 13.674-14.438 32.205-23.617 50.829-29.766 26.796-8.848 59.839-11.17 88.259-2.857 19.685 5.759 4.515 5.679-2.094 6.722z" fill="#b1d045"/><path d="m181.054 523.42c6.965 9.475 16.867 15.316 30.155 11.543 3.57-1.012 7.002-2.469 10.312-4.225-7.056 36.621-7.115 87.387 15.182 118.334-6.578 21.053-25.72 51.018-47.289 22.557-10.764-14.203-15.532-34.654-20.324-51.549-9.426-33.209-7.462-68.004 11.964-96.66z" fill="#b1d045"/><path d="m244.821 658.408c2.698 2.588 5.604 4.977 8.787 7.074 15.229 10.035 28.908 8.291 40.633.076 9.296-6.512 8.688-3.117 11.49 6.771 6.455 22.807 17.57 50.361 34.231 64.912-4.148 17.396-11.432 32.418-23.476 45.779-20.309 22.529-45.796-9.037-56.105-22.635-16.163-21.32-25.138-47.646-32.481-73.07 8.159-7.565 13.214-17.948 16.921-28.907z" fill="#b1d045"/><path d="m335.939 774.334c3.679-6.072 6.793-12.582 9.265-18.883 4.548-11.582 7.478-8.242 18.924-8.061 4.39.066 8.604-.525 12.643-1.676 11.933-3.395 10.615-2.246 14.386 7.902 9.841 26.484 28.849 56.906 55.456 64.996 7.506 2.279 9.789 3.557 5.019 10.939-18.891 29.225-54.163 52.043-85.742 25.029-15.295-13.084-25.748-33.172-33.756-52.605-5.434-13.18-1.824-18.35 3.805-27.641z" fill="#b1d045"/><path d="m450.829 808.467c-24.758-6.514-41.785-35.621-50.457-60.232-3.769-10.689-1.42-14.463 5.714-22.592 16.382-18.662 27.354-45.646 32.339-65.717 7.236 3.855 15.149 6.23 23.688 6.547 6.021.221 11.786-1.316 17.241-4.102 6.65 26.621 16.663 58.391 35.823 77.781 6.648 6.723 8.818 7.707 5.04 17.133-11.781 29.406-32.99 60.76-69.388 51.182z" fill="#b1d045"/><path d="m528.523 764.605c4.651-10.902 4.521-10.699 14.428-8.266 6.158 1.514 12.893 2.047 20.285 1.383 3.681-.33 7.132-.982 10.382-1.91 7.59-2.174 7.629-1.168 10.137 8.236 4.009 15.033 11.996 29.744 22.553 39.449-11.735 24.154-29.495 46.803-51.005 62.979-17.258 12.98-39.52 13.91-55.872-.863-12.86-11.617-16.406-31.23-19.922-47.465 23.518-7.453 38.894-29.841 49.014-53.543z" fill="#b1d045"/><path d="m591.479 746.689c19.944-15.65 28.921-44.945 35.488-70.854 3.439-13.578 4.408-13.893 15.898-12.527 13.27 1.572 25.535-2.346 35.994-12.078 26.558 41.068 18.881 90.934-10.544 128.871-12.175 15.699-32.828 34.543-52.185 19-14.338-11.517-23.771-34.369-24.651-52.412z" fill="#b1d045"/><path d="m686.166 643.088c15.069-19.684 17.577-42.797 12.615-65.342-2.053-9.342-1.744-12.063 5.62-10.912 27.098 4.24 45.657-13.885 52.036-38.789 14.337 29.328 26.532 59.109 24.312 92.586-2.563 38.643-39.142 72.855-78.232 57.52-.142-.055-.271-.07-.411-.115-3.131-12.21-8.378-24.024-15.94-34.948z" fill="#b1d045"/><path d="m757.11 490.648c-5.615-27.457-19.253-54.555-37.237-78.211-10.295-13.535-7.125-14.047 1.3-20.721 16.386-12.967 21.79-30.496 19.562-48.998-.925-7.711-1.534-10.385 7.193-6.789 29.324 12.076 48.813 39.383 59.8 69.273 14.594 39.689 8.069 105.459-49.048 97.237-.259-3.914-.766-7.854-1.57-11.791z" fill="#b1d045"/><path d="m667.804 158.751c38.82-2.877 71.886 18.951 84.915 57.061-17.443-12.66-38.158-19.926-59.808-22.551-.009-.016-.013-.027-.021-.043-6.581-10.373-14.744-19.027-23.995-26.029-5.323-4.033-9.508-7.814-1.091-8.438z" fill="#b1d045"/><path d="m679.242 192.205c-31.716-1.039-64.322 7.281-90.685 22.709-7.904 4.625-13.074 7.363-21.549 5.652-4.626-.934-9.239-1.492-13.777-1.604-9.118-.229-10.922.742-10.793-8.473.184-13.23-.843-26.643-2.598-39.941 44.199-25.449 107.398-20.154 139.402 21.657z" fill="#b1d045"/><path d="m535.438 141.251c12.549-11.65 34.834-9.051 45.01 4.643-14.718 2.041-29.114 6.574-42.228 13.527-.962-6.012-2.02-11.979-3.169-17.875.129-.103.261-.175.387-.295z" fill="#b1d045"/><path d="m622.016 261.91c14.454 12.523 24.84 28.678 31.561 46.457 7.471 19.762 10.693 53.928-11.308 65.932-.152.082-.263.184-.401.273-14.618-20.441-36.784-34.451-59.289-46.057-7.101-3.664-8.876-5.529-11.556-12.764-4.555-12.307-10.707-23.758-17.443-33.143-9.12-12.711-22.894-28.486-37.465-35.262 26.591-38.341 79.504-8.307 105.901 14.564z" fill="#b1d045"/><path d="m517.626 112.921c4.397 12.404 6.366 26.219 8.382 37.551 4.143 23.301 7.183 48.164 5.447 71.891-9.514 3.576-18.098 10.109-24.994 20.441-.321.48-.519.955-.664 1.424-6.521-.842-13.017.668-19.161 5.506-.337-.227-.705-.428-1.119-.592-4.891-1.945-9.886-3.539-14.938-4.811-8.896-2.244-11.416-3.771-9.533-16.848 3.929-27.334 5.724-65.102-4.516-102.727-2.78-10.201-1.945-9.346 5.788-6.986 9.861 3.004 21.273 2.33 31.556-.195 6.033-1.484 10.834-3.957 14.121-7.146 6.305-6.109 6.788-5.533 9.631 2.492z" fill="#aa8053"/><path d="m456.147 82.429c11.211-5.531 29.25-6.166 36.194-2.734 14.08 6.957 24.523 27.635-6.432 33.109-5.05.893-10.25 1.131-15.199.479-27.058-3.557-29.683-23.389-14.563-30.854z" fill="#aa8053"/><path d="m452.028 144.093c.709 4.402 1.335 8.814 1.826 13.207 1.345 12.059 1.382 24.24.625 36.398-13.53-12.713-28.157-23.988-44.14-32.023 10.649-11.269 26.26-17.121 41.689-17.582z" fill="#b1d045"/><path d="m365.517 159.5c31.068.143 58.271 19.807 80.285 40.457 8.828 8.281 6.909 15.539 3.637 33.941-16.174-8.9-34.789-13.369-53.958-14.236-4.172-.189-22.306-2.037-26.654-2.789-22.717-3.93-46.357-6.605-69.606-5.674 3.067-34.065 33.998-51.848 66.296-51.699z" fill="#b1d045"/><path d="m318.252 161.257c-16.667 11.361-28.059 29.752-29.639 50.605-14.482 1.314-28.733 4.184-42.42 9.234-10.155 3.748-22.834 10.496-34.08 19.102 3.942-54.589 54.968-82.019 106.139-78.941z" fill="#b1d045"/><path d="m273.738 224.451c19.008-3.449 38.506-3.613 57.867-1.967 11.746.994 6.937 4.121-1.898 7.17-8.886 3.068-17.342 6.756-25.111 10.977-14.639 7.949-28.815 20.148-38.941 34.49-21.539 6.191-42.555 14.301-60.676 26.316-39.922-36.795 40.893-71.934 68.759-76.986z" fill="#b1d045"/><path d="m201.666 238.396c-.279 3.527-.432 7.127-.347 10.857.002.102.028.188.034.287-17.027 16.9-25.627 38.242-5.117 58.154-10.066 7.875-18.978 17.244-26.251 28.508-.097.012-.186.006-.284.021-11.492 2.068-22.1 6.604-31.649 12.971-6.095-39.638 21.887-103.443 63.614-110.798z" fill="#b1d045"/><path d="m163.15 348.804c-11.007 26.309-3.38 58.186 25.8 64.045-5.504 8.373-10.21 17.102-13.787 26.158-31.821 14.318-52.309 41.102-61.947 72.063-39.798-48.694-8.975-143.043 49.934-162.266z" fill="#b1d045"/><path d="m151.093 645.061c-45.656-49.086-46.857-141.111 6.61-183.534 10.98-8.719 11.527-4.584 10.46 5.42-.814 7.627-.732 15.434.424 23.412 1.053 7.276 3.269 15.551 6.714 23.063-22.787 29.807-25.368 64.725-18.535 98.967 2.534 12.691 4.171 12.219-.383 20.752-2.111 3.945-3.859 7.923-5.29 11.92z" fill="#b1d045"/><path d="m164.421 640.652c2.87 8.529 6.146 16.912 9.672 25.047 5.248 12.104 20.23 32.99 36.466 30.936-1.701 21.992 3.203 50.313 13.36 77.189-44.729-26.898-84.467-82.304-59.498-133.172z" fill="#b1d045"/><path d="m221.024 721.42c-1.203-13.936 1.759-14.115 6.611-1.457 10.951 28.582 26.393 55.133 51.518 73.92 14.689 10.984 27.909 9.121 38.933 1.078 5.87 15.439 13.086 32.393 22.858 46.973-56.872 29.945-113.676-48.018-119.92-120.514z" fill="#b1d045"/><path d="m332.059 857.068c4.976-1.545 10.048-3.713 15.215-6.578 7.632 9.439 16.614 17.348 27.439 22.293 8.732 3.988 17.4 5.377 25.774 4.76 3.172 3.518 6.553 6.648 10.095 9.434-28.622 6.55-63.242-4.901-78.523-29.909z" fill="#b1d045"/><path d="m412.921 875.121c19.677-6.127 36.858-22.539 48.09-40.502 7.053-11.279 8.748-10.213 12.273 1.398 4.927 16.217 12.212 31.314 24.011 40.824-25.761 21.643-60.081 20.505-84.374-1.72z" fill="#b1d045"/><path d="m476.668 899.771c10.655-3.205 20.87-8.891 29.945-17.09 5.448 2.529 11.656 4.051 18.745 4.316 5.379 8.244 11.628 14.262 18.539 18.311-17.706 13.153-52.131 10.602-67.229-5.537z" fill="#b1d045"/><path d="m537.77 886.164c29.812-5.615 55.587-37.678 71.074-64.869 6.074-10.668 6.705-9.785 15.397-7.5 6.105 1.602 12.626 1.52 19.414-.76-.165 20.094 7.724 36.488 22.507 42.922-31.216 26.729-95.876 69.666-128.392 30.207z" fill="#b1d045"/><path d="m717.718 833.539c-10.684 7.949-23.573 13.854-36.791 15.582-24.156 3.158-27.707-24.889-26.594-40.863.014-.203-.013-.379-.017-.57 1.67-1.113 3.347-2.314 5.035-3.711 17.972-14.875 31.292-34.404 38.92-55.709 4.903-13.703 5.63-16.014 11.638-2.063 9.89 22.971 25.046 41.453 45.58 39.461-8.143 19.244-20.796 35.236-37.771 47.873z" fill="#b1d045"/><path d="m787.604 751.787c-16.923 24.627-46.348 30.328-63.595 2.779-8.785-14.035-13.794-32.051-16.079-49.613-1.654-12.707 1.08-13.16 9.849-12.582 28.575 1.893 54.879-17.484 66.88-44.215 4.295-9.566 6.58-19.379 7.326-29.281.807-10.707 1.634-12.33 7.952-9.225 5.484 2.697 11.338 4.693 17.131 5.008 10.357 43.074-5.358 102.057-29.464 137.129z" fill="#b1d045"/><path d="m811.827 603.113c-7.593-1.143-15.187-7.199-21.331-11.619-3.963-23.336-14.042-46.408-24.21-67.258-3.7-7.584-3.145-10.482 5.496-11.266 14.576-1.328 27.633-7.67 38.773-18.809 5.505-5.51 9.199-12.051 11.572-19.131 4.349-12.951 5.879-9.08 10.254-1.711 11.295 19.023 17.769 40.235 19.015 62.944.775 14.146-2.028 28.031-6.438 41.381-4.671 14.149-14.898 28.217-33.131 25.469z" fill="#b1d045"/><path d="m829.171 657.766c1.601-15.109 1.584-30.477-1.584-44.695 1.204-.471 2.398-1.01 3.567-1.705 17.823-10.605 24.727-29.432 28.793-48.93 4.031-19.336 2.644-39.127-2.685-57.926-2.793-9.846-2.89-10.385 5.788-9.852 6.552.404 13.273-.695 19.626-3.098 22.186 61.315.845 129.639-53.505 166.206z" fill="#b1d045"/><path d="m896.179 446.226c-1.262 19.928-17.25 42.752-36.139 38.578-8.129-1.797-15.024-10.658-18.663-16.775-3.168-5.322-6.627-10.451-10.34-15.33-3.715-4.879-5.198-9.186-5.799-15.943-.316-3.529-.74-6.994-1.222-10.338-2.744-18.998-9.828-38.146-20.454-54.912-8.238-13.002-8.716-14.775-3.252-23.082 6.469-9.83 9.81-20.213 10.63-30.75 37.003 13.289 64.95 38.342 78.859 75.938 6.217 16.805 7.501 34.888 6.38 52.614z" fill="#b1d045"/><path d="m589.29 183.804c-14.173 2.238-32.989 5.797-47.055 14.275.164 4.146.261 8.289.203 12.41-.129 9.215 1.675 8.244 10.793 8.473 4.538.111 9.151.67 13.777 1.604 8.475 1.711 13.645-1.027 21.549-5.652 21.676-12.686 47.579-20.463 73.733-22.285-21.634-11.296-50.139-12.434-73-8.825z" fill="#abab38"/><path d="m246.64 200.818c-12.689 7.654-22.696 20.115-27.279 34.234 9.222-6.141 18.811-10.996 26.833-13.955 13.687-5.051 27.938-7.92 42.42-9.234.665-8.76 3.146-17.039 6.937-24.594-16.675-1.949-35.043 5.184-48.911 13.549z" fill="#abab38"/><path d="m477.52 311.255c-.033 18.094 2.524 36.098 7.85 53.498 4.474 11.277 12.43 23.111 20.616 32 20.478 22.238 49.579 6.086 57.697-19.336 4.233-13.26 4.951-26.379 3.065-39.041.035 7.207-.811 14.365-2.886 20.881-7.485 23.49-35.586 21.066-52.389 10.799-18.198-11.119-29.733-35.332-33.953-58.801z" fill="#abab38"/><path d="m553.579 282.609c6.736 9.385 12.889 20.836 17.443 33.143 2.68 7.234 4.455 9.1 11.556 12.764 22.505 11.605 44.671 25.615 59.289 46.057.139-.09.249-.191.401-.273 14.893-8.125 18.208-26.398 16.493-43.492-2.012 3.436-4.624 6.482-8.409 8.828-10.979 6.811-23.778.992-32.478-6.393-13.103-11.119-22.379-27.119-32.43-40.852-13.798-18.857-38.802-42.938-64.631-42.494 12.797 7.653 24.635 21.38 32.766 32.712z" fill="#abab38"/><path d="m668.176 166.638c.239.182.476.365.72.551 9.251 7.002 17.414 15.656 23.995 26.029.008.016.012.027.021.043 15.858 1.922 31.203 6.365 45.14 13.564-15.892-23.595-41.182-38.962-69.876-40.187z" fill="#abab38"/><path d="m352.552 425.208c-11.215-23.029-3.808-57.953 9.491-77.98 2.11-3.18 4.377-6.309 6.781-9.383.344-.439.604-.795.915-1.201-9.375 5.32-18.415 11.693-24.712 20.332-10.73 14.727-15.884 32.547-22.027 49.473-7.282 20.059-17.525 41.061-38.959 48.682-11.132 3.957-22.265-.244-30.542-7.811-2.133-1.949-3.856-4.25-5.321-6.715.387 3.09.965 6.113 1.911 8.949 7 20.984 28.717 21.316 45.673 16.523 23.36-6.607 44.082-20.001 56.79-40.869z" fill="#abab38"/><path d="m393.441 196.46c-28.906-3.377-60.702.498-86.602 14.578 20.777-.154 41.748 2.332 61.986 5.834 4.349.752 22.482 2.6 26.654 2.789 19.169.867 37.784 5.336 53.958 14.236 1.417-7.967 2.575-13.84 2.723-18.617-4.102-2.836-8.443-5.34-13.192-7.297-14.631-6.026-29.827-9.689-45.527-11.523z" fill="#abab38"/><path d="m450.829 808.467c7.845 2.064 14.982 2.217 21.474.91-25.612-.219-40.03-38.83-41.146-60.238-1.617-30.959 13.108-61.34 34.828-82.803-1.281.113-2.567.186-3.871.137-8.539-.316-16.452-2.691-23.688-6.547-4.985 20.07-15.957 47.055-32.339 65.717-7.134 8.129-9.482 11.902-5.714 22.592 8.671 24.611 25.698 53.718 50.456 60.232z" fill="#abab38"/><path d="m723.714 373.199c-12.887 4.078-24.367-5.242-31.572-18.93-7.584-14.406-8.987-31.873-14.214-47.182-6.837-20.016-22.925-35.207-41.048-45.605 1.086 1.512 2.38 3.201 3.879 5.113 18.807 23.963 37.836 66.273 26.393 95.152 12.109 8.299 23.84 18.324 34.674 29.605.148-.09.274-.189.438-.27 9.91-4.811 16.865-10.938 21.45-17.883z" fill="#abab38"/><path d="m416.288 286.095c-11.963 6.465-48.926 31.111-56.989 11.33-.773 3.119-.636 6.217 1.183 8.969 5.935 8.973 16.445 10.609 26.396 11.59 20.606-19.822 46.22-36.484 71.545-48.311-14.845 2.625-29.338 9.506-42.135 16.422z" fill="#abab38"/><path d="m304.3 307.607c-7.022 7.215-32.108 26.58-43.896 17.906 1.218 8.832 6.762 15.842 19.364 18.533 19.511-17.279 43.84-30.73 68.663-41.207-.961-10.373 6.433-20.898 12.807-28.424 16.507-17.805 38.013-28.445 60.845-32.199-10.48-1.895-22.049.523-32.093 2.576-17.079 3.494-31.55 9.996-45.29 20.783-15.367 12.067-26.863 28.12-40.4 42.032z" fill="#abab38"/><path d="m553.802 409.541c-.465.344-.926.631-1.391.951 7.302 25.314 16.513 52.271 34.527 72.088 11.367 12.502 44.661 40.952 59.002 12.869.611-1.195 1.14-2.41 1.653-3.633-.855.775-1.785 1.527-2.886 2.236-12.065 7.762-25.915-1.809-34.81-9.473-12.644-10.895-20.746-26.264-24.609-42.291-3.998-16.588-2.334-34.432-1.699-51.301.284-7.557.198-14.953-1.086-22.412-.64-3.723-2.063-7.188-3.657-10.584-.377 19.839-7.408 38.544-25.044 51.55z" fill="#abab38"/><path d="m400.508 582.66c2.505 14.748 7.292 29.176 16.196 41.416 3.243 4.461 7.522 9.787 12.457 14.807-8.039-21.777-2.253-48.852 7.302-68.816 9.711-20.301 26.547-41.064 46.008-53.439-1.693-7.475-3.178-15.018-4.525-22.614-12.528 5.383-26.705 5.274-38.932-.293-3.75 27.818-15.672 68.259-38.506 88.939z" fill="#abab38"/><path d="m360.755 378.603c-2.231 10.299-8.943 57.25 19.227 48.518 10.007-3.102 18.547-8.129 27.419-13.504 2.499-17.434 7.9-34.971 12.562-51.445 2.026-7.166 4.104-14.721 6.648-22.021-9.188 15.277-15.224 32.408-25.058 47.539-8.802 13.543-24.388 21.275-34.913 4.281-4.198-6.777-4.613-15.123-2.97-23.225-1.142 3.164-2.168 6.412-2.915 9.857z" fill="#abab38"/><path d="m344.561 575.943c50.041 42.225 81.064-52.908 84.603-87.877.012-.129.053-.242.074-.367-3.062-2.445-5.91-5.273-8.407-8.59-9.514-12.643-13.679-26.406-14.612-40.625-.504-7.627-.109-11.492-8.467-7.348-7.38 3.656-15.641 6.809-23.272 7.291 11.894 7.063 17.813 21.563 21.065 34.732 4.778 19.359 2.861 40.618-.788 59.981-2.771 14.695-9.217 34.818-24.671 40.488-7.804 2.863-19.907 3.32-28.624-.676 1.021 1.007 1.99 2.056 3.099 2.991z" fill="#abab38"/><path d="m653.944 379.246c-5.994 4.646-5.692 4.5-2.043 13.313 12.671 30.602 17.404 70.246 6.175 102.031-1.067 3.024-2.47 5.625-4.059 7.969 11.445 10.654 22.396 24.357 30.858 39.545 4.147 7.438 11.709 12.73 19.55 14.02 21.421 3.52 39.555-10.289 43.868-31.885-11.013 13.178-31.223 17.686-46.826 7.846-21.614-13.631-21.482-45.116-19.699-67.346 1.785-22.271 8.793-54.664-.409-78.396-6.037-5.434-12.429-10.582-19.336-15.334-2.212 2.994-4.882 5.762-8.079 8.237z" fill="#abab38"/><path d="m571.446 147.535c-11.246-3.584-24.157-3.201-35.094 1.348.632 3.508 1.3 6.994 1.867 10.539 10.422-5.526 21.667-9.454 33.227-11.887z" fill="#abab38"/><path d="m475.212 367.552c-3.834-12.533-7.314-28.098-8.789-44.086-4.475 13.266-6.517 26.762-4.226 41.045 2.806 17.488 13.681 32.797 18.07 49.873 4.7 18.281 4.066 39.889-12.79 51.674-8.551 5.982-19.673 7.518-29.743 5.768-5.15-.893-9.432-3.344-13.323-6.416 16.318 25.08 49.94 31.229 66.861 2.719 12.006-20.23 16.947-37.865 10.768-61.248-11.796-10.008-21.188-25.116-26.828-39.329z" fill="#abab38"/><path d="m489.859 486.783c-.732.604-1.504 1.125-2.261 1.678 5.887 34.497 13.247 74.213 39.975 98.948 34.16 31.613 51.638 11.492 58.944-18.881-7.294 12.564-18.317 22.232-34.458 19.322-21.843-3.938-34.348-31.703-40.814-50.035-4.274-12.115-6.199-25.205-4.098-37.941 1.658-10.051 7.996-19.364 11.12-29.083 2.895-8.996 4.494-18.607 5.18-28.025.603-8.271.646-17.5 5.284-24.535-.539-.012-1.086.016-1.623-.023-12.095-.883-11.408 1.143-12.175 14.281-1.199 20.532-9.145 41.169-25.074 54.294z" fill="#abab38"/><path d="m667.586 646.441c-23.147 4.287-42.39-21.955-46.857-43.846-6.216-30.459-.145-62.684 17.422-88.223-7.709 2.477-16.466 2.268-24.798-.107-10.986-3.125-12.111-4.057-11.343 10.563 1.227 23.404-1.118 51.199-11.757 69.617 7.83 18.418 16.793 41.588 35.107 51.803 15.41 8.592 30.615 7.865 42.226.193z" fill="#abab38"/><path d="m451.631 829.553c4.771-7.383 2.487-8.66-5.019-10.939-26.607-8.09-45.615-38.512-55.456-64.996-3.771-10.148-2.453-11.297-14.386-7.902-4.038 1.15-8.253 1.742-12.643 1.676-11.446-.182-14.376-3.521-18.924 8.061-1.812 4.617-3.976 9.348-6.446 13.934 25.305-6.625 52.368 20.57 63.435 40.871 8.086 14.836 12.294 40.111 2.4 55.531 18.67-3.656 35.769-18.801 47.039-36.236z" fill="#abab38"/><path d="m316.487 783.021c12.044-13.361 19.327-28.383 23.476-45.779-16.661-14.551-27.776-42.105-34.231-64.912-2.802-9.889-2.194-13.283-11.49-6.771-4.853 3.4-10.044 5.668-15.538 6.475 14.576 11.861 22.902 31.488 27.324 49.082 5.388 21.436 4.462 49.549-6.98 69.705 5.923.466 11.875-1.628 17.439-7.8z" fill="#abab38"/><path d="m547.575 640.043c12.169-9.063 31.55-14.254 47.318-11.934-2.465-4.18-4.724-8.498-6.807-12.852-4.131-8.633-5.663-9.223-13.035-5.074-6.184 3.479-13.644 5.117-22.616 4.26-5.823-.555-11.55-2.797-17.003-6.121-9.267-5.656-9.935-5.133-16.107 6.873-7.478 14.561-17.986 30.789-30.643 41.021 8.802 36.049 28.006 99.791 74.068 91.416-11.128-.111-20.123-4.918-27.758-15.793-8.251-11.752-11.767-27.141-11.523-41.314.332-19.32 8.428-38.814 24.106-50.482z" fill="#abab38"/><path d="m774.555 324.06c-11.823-3.078-20.731-14.877-27.55-24.199-12.945-17.691-24.98-35.725-42.257-49.598-27.007-21.693-70.168-32.59-101.969-15.568 4.75 2.744 9.349 5.689 13.642 8.836 42.267-9.918 93.951 27.654 115.087 69.959 3.776 7.551 4.924 7.514 11.565 9.504 16.516 4.938 31.033 14.418 43.131 26.621 8.945-10.305 13.31-21.723 14.263-33.461-6.363 7.191-14.774 10.806-25.912 7.906z" fill="#abab38"/><path d="m410.582 886.977c-3.542-2.785-6.923-5.916-10.095-9.434-8.374.617-17.042-.771-25.774-4.76-1.1-.502-2.168-1.057-3.231-1.619 3.419 4.365 6.235 9.221 8.303 15.219.117.338.205.734.298 1.121 10.193 1.801 20.694 1.717 30.499-.527z" fill="#abab38"/><path d="m800.672 638.094c1.286-6.322 4.322-18.105 9.999-24.479-3.651-.898-7.27-2.262-10.733-3.965-6.318-3.105-7.146-1.482-7.952 9.225-.746 9.902-3.031 19.715-7.326 29.281-12.001 26.73-38.305 46.107-66.88 44.215-8.769-.578-11.503-.125-9.849 12.582 2.285 17.563 7.294 35.578 16.079 49.613 2.923 4.67 6.216 8.311 9.719 11.137-3.118-11.07-.339-24.883 4.466-34.043 7.177-13.676 23.482-21.717 34.742-31.717 10.805-9.596 17.77-22.174 22.116-35.801 2.698-8.464 3.852-17.363 5.619-26.048z" fill="#abab38"/><path d="m175.163 439.007c3.577-9.057 8.283-17.785 13.787-26.158-24.472-4.914-33.729-28.125-29.605-51.004-30.058 27.344-19.751 73.621-27.016 111.438 10.793-14.356 25.037-26.268 42.834-34.276z" fill="#abab38"/><path d="m805.232 482.507c-2.092 1.258-4.303 2.365-6.792 3.105-11.957 3.561-23.903-5.508-30.048-14.77-9.856-14.857-9.127-35.158-8.676-52.203.738-28.01 1.83-56.469-19.095-76.879.039.33.071.609.112.957 2.229 18.502-3.176 36.031-19.562 48.998-8.425 6.674-11.595 7.186-1.3 20.721 17.984 23.656 31.622 50.754 37.237 78.211.804 3.938 1.311 7.877 1.569 11.792 23.221 3.342 38.079-5.543 46.555-19.932z" fill="#abab38"/><path d="m415.161 164.248c14.112 7.791 27.164 18.031 39.318 29.451.476-7.627.587-15.262.309-22.869-11.587-5.574-25.42-5.951-38.323-5.986-.426-.221-.867-.399-1.304-.596z" fill="#abab38"/><path d="m204.979 301.437c18.121-12.016 39.137-20.125 60.676-26.316 10.126-14.342 24.303-26.541 38.941-34.49 7.77-4.221 16.226-7.908 25.111-10.977.136-.047.264-.094.397-.143-23.501-4.061-45.73 8.596-63.979 22.764-14.553 11.297-55.503 41.785-69.472 17.984-4.654 9.778-3.365 20.405 8.326 31.178z" fill="#abab38"/><path d="m166.968 287.542c-4.215 10.805-6.186 22.201-9.034 33.398-2.248 8.84-6.152 16.434-11.39 23.293 7.236-3.756 14.961-6.535 23.157-8.01.099-.016.188-.01.284-.021 7.273-11.264 16.185-20.633 26.251-28.508-18.626-18.082-13.214-37.334.685-53.379-13.59 6.28-24.692 19.735-29.953 33.227z" fill="#abab38"/><path d="m236.702 649.072c-22.297-30.947-22.237-81.713-15.182-118.334-3.31 1.756-6.741 3.213-10.312 4.225-5.888 1.67-11.073 1.375-15.668-.207 5.418 10.285 5.292 23.59 4.064 36.854-.368 3.967-.809 7.908-1.236 11.771-.837 7.578-1.557 14.811-1.226 21.037.623 11.717 4.858 21.373 11.438 30.871 4.462 6.438 8.512 12.76 11.301 20.133 2.802 7.404 2.127 14.848.37 22.158 7.543-6.855 13.374-18.658 16.451-28.508z" fill="#abab38"/><path d="m586.003 771.178c-.835-2.355-1.608-4.734-2.248-7.129-2.508-9.404-2.547-10.41-10.137-8.236-3.25.928-6.701 1.58-10.382 1.91-7.393.664-14.127.131-20.285-1.383-9.906-2.434-9.776-2.637-14.428 8.266-10.12 23.701-25.496 46.09-49.015 53.543 3.516 16.234 7.062 35.848 19.922 47.465 4.07 3.678 8.507 6.379 13.142 8.166-11.979-18.967-1.313-47.289 11.122-63.383 14.423-18.665 38.278-36.211 62.309-39.219z" fill="#abab38"/><path d="m728.95 606.014c8.562-12.922 21.283-35.24 12.784-50.863-9.224 9.232-21.884 14.102-37.333 11.684-7.364-1.15-7.673 1.57-5.62 10.912 4.962 22.545 2.454 45.658-12.615 65.342 5.478 7.912 9.703 16.305 12.827 24.963.232-9.885 1.707-19.092 7.154-29.199 6.315-11.72 15.472-21.773 22.803-32.839z" fill="#abab38"/><path d="m356.254 734.025c3.728 1.658 7.36 2.457 10.892 2.564-22.229-9.529-29.221-41.477-28.672-64.279.583-24.125 12.116-60.516 33.868-76.646-5.92.547-12.26-.012-19.08-2.008-2.055-.602-4.034-1.398-5.937-2.361-9.564-4.855-9.91-5.922-14.012 8.176-4.754 16.352-12.412 34.676-22.487 48.875 5.191 27.775 18.018 73.482 45.428 85.679z" fill="#abab38"/><path d="m302.84 638.135c12.664-20.174 23.087-40.709 25.283-64.789 0-.004.003-.008.003-.012-7.299-10.734-12.148-23.652-14.379-34.451-3.803-18.42-4.105-36.592-.668-54.395 1.787-9.258 1.841-13.43-8.647-10.146-5.574 1.748-11.293 3.049-17.083 3.877-.132.018-.259.018-.391.037 8.561 6.309 14.349 13.709 14.306 26.069-.035 9.73-2.54 18.869-1.177 28.697 3.084 22.215 10.235 41.953 3.211 64.316-6.993 22.264-29.933 44.582-54.013 31.648-7.229-3.885-12.476-10.74-16.614-17.953 2.114 7.699 4.931 15.096 8.649 21.953 5.351 9.861 12.111 22.213 22.949 26.926 20.412 8.871 30.575-9.041 38.571-21.777z" fill="#abab38"/><path d="m249.587 349.419c8.677-7.033 7.197-6.625 3.96-15.426-3.865-10.51-3.328-23.334.035-34.682-14.537 11.219-26.471 23.637-36.239 39.977-10.118 16.924-17.315 38.432-17.49 58.701 14.705-18.329 32.589-34.667 49.734-48.57z" fill="#abab38"/><path d="m525.358 886.998c-7.089-.266-13.297-1.787-18.745-4.316-3.748 3.387-7.73 6.238-11.817 8.771 12.895-1.992 27.112 8.852 30.167 21.379 7.136-1.213 13.757-3.678 18.935-7.523-6.912-4.049-13.161-10.067-18.54-18.311z" fill="#abab38"/><path d="m210.559 696.635c-16.235 2.055-31.218-18.832-36.466-30.936-3.525-8.135-6.802-16.518-9.672-25.047-3.862 7.869-6.168 15.846-7.155 23.809 28.723 23.373 48.981 62.691 53.283 100.332 4.366 3.275 8.838 6.307 13.37 9.031-10.157-26.877-15.062-55.197-13.36-77.189z" fill="#abab38"/><path d="m156.766 612.389c-6.833-34.242-4.252-69.16 18.535-98.967-3.445-7.512-5.661-15.787-6.714-23.063-.93-6.412-1.136-12.711-.77-18.898-6.93 7.039-11.297 16.307-15.187 25.387-6.214 14.514-12.093 29.266-14.839 44.866-6.14 34.881 13.773 65.967 14.677 99.906 1.151-2.838 2.41-5.668 3.914-8.479 4.555-8.534 2.918-8.061.384-20.752z" fill="#abab38"/><path d="m340.944 841.934c-9.772-14.58-16.988-31.533-22.858-46.973-11.023 8.043-24.243 9.906-38.933-1.078-18.913-14.143-32.333-32.689-42.488-53.184 3.211 19.902 15.014 39.719 29.302 52.533 11.093 9.947 25.864 14.85 37.184 24.58 8.281 7.119 17.957 18.863 17.688 30.359 6.644-.708 13.373-2.692 20.105-6.237z" fill="#abab38"/><path d="m473.284 836.018c-3.525-11.611-5.221-12.678-12.273-1.398-7.234 11.57-16.947 22.48-28.197 30.43 6.974-.432 13.959-.338 21.136 1.164 8.174 1.715 27.038 8.459 31.508 18.625 4.085-2.199 8.062-4.822 11.838-7.996-11.8-9.511-19.085-24.609-24.012-40.825z" fill="#abab38"/><path d="m871.477 463.49c-20.967-.311-29.414-30.49-32.424-46.742-4.225-22.82-1.989-45.453-10.423-67.529-3.515-9.201-9.02-21.941-18.078-27.957-1.242 9.305-4.509 18.451-10.241 27.162-5.464 8.307-4.986 10.08 3.252 23.082 10.626 16.766 17.71 35.914 20.454 54.912.481 3.344.905 6.809 1.222 10.338.601 6.758 2.084 11.064 5.799 15.943 3.713 4.879 7.172 10.008 10.34 15.33 3.639 6.117 10.534 14.979 18.663 16.775 18.202 4.021 33.67-17.021 35.901-36.391-4.746 8.878-12.363 15.256-24.465 15.077z" fill="#abab38"/><path d="m208.409 524.809c6.521-2.707 12.508-6.426 17.916-10.875.136-.121.275-.232.422-.334 12.376-10.324 21.627-24.559 26.891-39.663.207-.594.502-1.084.831-1.523-8.601-5.588-14.502-14.826-15.943-27.852-3.579-32.322 5.685-58.762 22.338-80.412.245-.316.45-.613.673-.922-21.489 17.168-36.211 46.148-42.187 71.877-6.859 29.551 5.081 64.85-13.489 90.481.832-.199 1.67-.414 2.548-.777z" fill="#abab38"/><path d="m637.484 698.568c6.703-13.164 13.699-25.42 22.941-36.658-5.596 1.627-11.464 2.123-17.561 1.398-11.49-1.365-12.459-1.051-15.898 12.527-6.567 25.908-15.544 55.203-35.488 70.854.881 18.043 10.313 40.895 24.652 52.412 3.137 2.518 6.305 4.055 9.469 4.926-13.476-13.127-9.528-42.373-6.233-58.451 3.382-16.496 10.518-32.086 18.118-47.008z" fill="#abab38"/><path d="m800.604 271.605c5.607 11.27 9.347 23.094 10.287 34.918 9.583 3.246 18.773 7.355 27.423 12.242-4.116-20.156-19.957-36.658-37.71-47.16z" fill="#abab38"/><path d="m844.958 577.645c.965-2.916 1.833-5.867 2.623-8.832-7.593 7.469-18.015 11.209-30.13 9.363-12.188-1.859-19.251-12.377-22.775-23.248-4.937-15.217-4.041-32.66-.487-48.617-6.981 3.668-14.458 5.936-22.406 6.66-8.641.783-9.196 3.682-5.496 11.266 10.168 20.85 20.247 43.922 24.21 67.258 6.145 4.42 13.738 10.477 21.331 11.619 18.232 2.747 28.459-11.321 33.13-25.469z" fill="#abab38"/><path d="m643.655 813.035c-6.788 2.279-13.309 2.361-19.414.76-8.692-2.285-9.323-3.168-15.397 7.5-8.146 14.303-19.159 29.92-32.089 42.359 26.303-10.598 55.959-13.008 80.698-.547 3.114-2.459 6.041-4.867 8.709-7.15-14.783-6.434-22.672-22.828-22.507-42.922z" fill="#abab38"/><path d="m873.005 532.705c-.642-11.211-5.459-26.721-1.773-38.364-2.731.334-5.469.484-8.181.316-8.678-.533-8.581.006-5.788 9.852 5.328 18.799 6.716 38.59 2.685 57.926-4.066 19.498-10.97 38.324-28.793 48.93-1.169.695-2.363 1.234-3.567 1.705 1.662 7.463 2.44 15.248 2.588 23.141 8.138-21.939 27.228-37.838 37.336-59.668 6.233-13.463 6.32-29.348 5.493-43.838z" fill="#abab38"/><path d="m716.63 759.545c-2.456-4.176-4.705-8.656-6.721-13.34-6.008-13.951-6.734-11.641-11.638 2.063-7.628 21.305-20.948 40.834-38.92 55.709-1.688 1.396-3.365 2.598-5.035 3.711.004.191.03.367.017.57-1.113 15.975 2.438 44.021 26.594 40.863 4.616-.605 9.185-1.742 13.642-3.275-3.994-1.102-7.631-3.299-10.463-7.145-5.165-7.012-4.4-17.422-2.956-25.449 3.908-21.746 21.352-37.621 35.48-53.707z" fill="#abab38"/><g fill="#d7e338"><path d="m632.188 169.039c.278-.213.517-.557.379-.928-.801-2.166-2.331-2.705-4.511-3.189-2.277-.502-4.3-.57-6.1 1.07-.265.24-.246.688 0 .93 1.428 1.422 2.965 1.902 4.884 2.404 2.036.533 3.568 1.066 5.348-.287z"/><path d="m607.017 371.236c-.311-.027-.573.336-.475.625 3.916 11.566 12.961 20.729 17.319 32.365 4.879 13.025 7.43 26.98 11.597 40.258.319 1.012 1.707.996 2.032 0 4.938-15.193 3.404-30.047-3.04-44.723-5.031-11.459-13.422-27.353-27.433-28.525z"/><path d="m591.575 169.839c8.567-.994 16.661-.684 25.074-2.74.932-.227 1.177-1.66.275-2.104-16.933-8.334-42.47-2.854-56.827 8.807-.742.602.091 1.549.833 1.43 10.286-1.652 20.266-4.188 30.645-5.393z"/><path d="m634.835 452.621c-.216 1.648-.603 3.174-.563 4.865.019.783-.146 1.563.065 2.336.247.895.864 1.49 1.281 2.279.566 1.066 1.932 1.053 2.755.354 1.769-1.502 2.341-2.592 2.31-4.969-.028-2.271-.956-3.963-1.923-5.928-1.035-2.109-3.685-.773-3.925 1.063z"/><path d="m282.496 296.111c.064.344.457.41.725.295 8.219-3.527 14.181-14.002 20.458-20.207 8.341-8.242 18.18-14.471 26.257-23.027.528-.561.199-1.705-.675-1.629-12.372 1.072-21.315 7.557-30.256 15.762-7.049 6.468-18.48 18.245-16.509 28.806z"/><path d="m206.176 329.58c4.122-1.344 7.722-5.4 8.038-9.756.035-.471-.446-.961-.922-.922-4.397.369-8.274 4.561-8.908 8.889-.147 1.011.623 2.169 1.792 1.789z"/><path d="m770.566 268.494c-.675.16-1.33.787-1.475 1.475-.496 2.354.526 4.49 1.512 6.563.784 1.648 4.433 4.838 6.282 2.555 1.831-2.262 1.516-4.623.144-7.053-1.262-2.242-3.772-4.177-6.463-3.54z"/><path d="m491.231 620.16c5.229-6.805 13.106-21.439 7.269-29.861-.185-.268-.582-.373-.826-.107-5.291 5.709-8.307 14.098-12.959 20.451-3.096 4.227-6.537 8.129-10.145 11.922-3.331 3.498-5.57 7.861-9.11 11.158-.681.637-.189 1.996.792 1.912 11.487-.983 18.089-6.506 24.979-15.475z"/><path d="m469.255 640.221c-2.404.408-5.017.564-7.303 1.436-.229.09-.384.412-.158.605 3.923 3.365 10.538 2.271 14.199-.805.329-.277.119-.795-.24-.906-2.331-.735-4.116-.733-6.498-.33z"/><path d="m697.567 307.664c5.443 7.75 9.763 15.725 16.359 22.607.537.564 1.522.139 1.516-.627-.086-11.102-5.097-19.996-11.392-28.852-4.922-6.926-14.094-17.633-23.63-16.824-.601.051-.977.631-.683 1.188 4.292 8.09 12.511 14.931 17.83 22.508z"/><path d="m766.66 262.935c-4.039-15.564-18.395-26.275-31.242-34.598-12.768-8.271-30.745-14.75-45.109-6.918-.553.303-.506 1.346.189 1.445 14.467 2.066 27.179 6.813 39.43 14.865 12.245 8.045 21.867 19.834 34.993 26.543.915.47 2.011-.292 1.739-1.337z"/><path d="m354.664 466.042c-.354-.232-.909-.232-1.263 0-2.503 1.645-2.199 4.842-2.267 7.553-.099 3.949.64 7.621 3.036 10.824.483.646 1.402.578 1.685-.221 1.24-3.516 1.395-6.91 1.183-10.604-.156-2.698.113-5.919-2.374-7.552z"/><path d="m346.41 469.71c-.186-.719-1.13-.779-1.504-.197-7.097 11.021-8.11 26.643-9.075 39.475-1.158 15.404-.333 30.006 6.948 43.797.424.803 1.895.703 2.047-.268 2.069-13.326 1.395-26.26 1.428-39.705.034-13.871 3.657-29.582.156-43.102z"/><path d="m636.88 305.197c-.397 1.473-.232 3.086-.543 4.584-.27 1.309-.169 4.67 1.771 4.697 2.878.037 3.48-4.021 3.604-6.047.068-1.133-.028-2.811-.736-3.77-.327-.439-.653-.867-1.014-1.283-.358-.412-.857-.344-1.255-.568-.407-.23-1.008-.033-1.112.451.104-.049.209-.098.316-.146-.255.148-.459.354-.609.607-.254.432-.295.998-.422 1.475z"/><path d="m340.513 250.64c2.585-.465 6.273-1.379 7.532-3.914.533-1.066.611-2.709-.454-3.535-2.952-2.289-7.167-1.102-9.886 1.197-1.314 1.107-4.505 3.746-2.831 5.768 1.35 1.631 3.897.801 5.639.484z"/><path d="m524.673 510.652c-.283-.357-.889-.135-.991.262-3.018 11.557 1.74 26.018 6.107 36.67 4.831 11.783 11.615 22.83 24.576 25.756.926.207 1.614-.715 1.188-1.549-5.706-11.201-13.658-20.762-18.519-32.502-3.859-9.326-6.044-20.639-12.361-28.637z"/><path d="m697.708 213.015c-8.019-.783-17.034-1.123-23.295 4.967-.354.346-.074.906.384.928 7.976.387 15.681-2.002 23.09-4.57.742-.257.576-1.251-.179-1.325z"/><path d="m602.498 670.535c-.115 6.234-.076 12.475-.23 18.701-.015.563.695.664.98.266 3.573-4.969 4.53-14.518-.244-19.178-.188-.183-.502-.049-.506.211z"/><path d="m568.813 571.086c-.836.699-1.781.779-2.695 1.359-.936.596-1.754 1.303-2.743 1.828-.965.514-1.989.928-2.983 1.381-.863.393-1.678 1.254-2.566 1.525-.348.105-.268.59.082.613 1.097.072 2.118.68 3.267.744 1.448.08 2.933-.252 4.272-.77 1.283-.494 2.774-1.256 3.542-2.451.813-1.262.644-2.48.584-3.916-.017-.407-.464-.561-.76-.313z"/><path d="m603.17 264.292c-7.859-6.801-19.311-13.691-30.031-11.154-.604.143-.732.898-.35 1.318 7.041 7.701 17.284 12.369 25.177 19.244 8.261 7.195 14.558 15.754 23.287 22.535.827.641 1.872.057 1.705-.994-2.129-13.456-9.682-22.202-19.788-30.949z"/><path d="m632.976 307.873c2.39-6.496.344-18.895-6.442-22.336-.489-.246-1.078.057-1.09.625-.087 4.037 1.608 7.918 2.328 11.861.736 4.023 1.257 7.059 3.938 10.184.401.468 1.085.154 1.266-.334z"/><path d="m709.173 832.365c1.355-.744 1.761-2.297 2.285-3.611.171-.426-.255-.873-.666-.873-1.179-.002-2.376-.482-3.563-.127-1.606.479-3.131 1.182-4.748 1.633-.734.203-4.509.477-4.593 1.523-.201 2.516 4.215 2.959 5.891 2.898 1.902-.07 3.726-.531 5.394-1.443z"/><path d="m185.205 725.609c.759.494 1.644-.313 1.45-1.115-1.809-7.516-5.838-13.469-9.458-20.225-3.32-6.195-4.886-14.059-9.804-19.184-.307-.322-.802-.139-.934.246-2.279 6.68 1.08 13.715 3.688 19.873 3.467 8.183 7.519 15.519 15.058 20.405z"/><path d="m805.002 681.602c-1.283 1.805-1.049 4.926-1.413 7.068-.417 2.453-.855 4.607-.763 7.107.019.523.58.693.954.395 2.335-1.846 2.851-4.195 3.088-7.057.183-2.209.292-5.906-1.401-7.574-.146-.143-.356-.094-.465.061z"/><path d="m730.168 798.947c.136-.785-.528-1.82-1.456-1.457-7.017 2.744-10.862 6.52-16.244 11.652-2.821 2.691-5.558 5.469-8.347 8.193-2.279 2.225-5.015 3.822-6.578 6.646-.232.422-.019.922.432 1.064 6.266 1.988 14.331-3.074 19.182-6.623 7.044-5.152 11.532-10.881 13.011-19.475z"/><path d="m857.302 364.511c2.185 1.521 3.731 3.225 6.186 4.32.355.156.695-.098.63-.484-.474-2.76-1.948-4.068-4.146-5.699-1.81-1.344-4.229-2.785-6.556-2.729-.417.012-.779.508-.512.891 1.084 1.557 2.864 2.631 4.398 3.701z"/><path d="m232.327 258.513c3.561-2.168 7.309-4.082 11.011-5.994 4.587-2.371 8.032-6.375 12.061-9.484.861-.666.37-1.928-.734-1.744-5.397.887-10.919.836-15.948 3.322-5.271 2.604-10.212 5.521-14.999 8.941-1.088.777-12.199 10.096-7.3 12.137 5.018 2.09 11.88-4.727 15.909-7.178z"/><path d="m589.87 805.02c-1.188 2.078-1.422 4.576-1.971 6.881-.638 2.678-1.359 5.031-1.497 7.789-.022.432.553.652.843.35 3.275-3.42 5.574-10.539 3.222-15.02-.121-.231-.472-.219-.597 0z"/><path d="m269.84 179.908c5.766-2.313 12.027-3.535 17.951-5.418.539-.17.528-.902 0-1.076-12.058-4.004-30.786 4.398-36.974 15.293-.212.375.201.742.563.563 6.2-3.077 12.008-6.774 18.46-9.362z"/><path d="m503.947 904.135c-2.59-.086-5.297-.566-7.861-.133-.264.043-.29.381-.145.549 3.871 4.439 12.457 6.574 16.501 1.543.251-.313.169-.744-.232-.881-2.849-.955-5.268-.977-8.263-1.078z"/><path d="m468.586 881.266c-5.107-.104-10.089-.139-15.194.135-5.148.273-10.451-.545-15.349 1.322-.424.16-.63.811-.138 1.053 9.148 4.512 22.213 3.313 30.987-1.373.552-.298.281-1.124-.306-1.137z"/><path d="m291.872 830.914c-5.323-3.404-9.52-7.869-14.348-11.869-.177-.145-.493-.014-.413.242 3.023 9.621 16.102 22.664 27.026 20.064.372-.088.495-.592.224-.852-3.597-3.452-8.326-4.921-12.489-7.585z"/><path d="m115.495 483.945c1.01-10.57-.111-19.99-.595-30.582-.409-8.955 2.25-17.857.103-26.689-.119-.494-.816-.846-1.257-.514-17.007 12.842-11.448 43.705-.705 58.449.79 1.082 2.326.676 2.454-.664z"/><path d="m506.485 272.951c-.703-.027-1.172.691-1.016 1.332 1.285 5.236 4.85 9.125 7.975 13.42 4.529 6.223 8.857 12.563 12.71 19.229 7.64 13.215 12.802 27.455 21.274 40.211.747 1.123 2.354.648 2.454-.664 1.3-16.77-4.914-31.422-13.067-45.779-5.908-10.408-17.006-27.23-30.33-27.749z"/><path d="m737.501 664.848c24.354-12.064 36.62-48.523 26.71-73.977-.223-.57-.918-.557-1.144 0-4.659 11.463-5.676 24.793-9.365 36.703-3.853 12.439-11.282 24.523-17.596 35.879-.518.93.495 1.84 1.395 1.395z"/><path d="m770.274 594.17c1.707-2.639 1.019-5.537.422-8.471-.646-3.191-1.707-6.943-4.204-9.195-.44-.398-1.271-.154-1.236.512.147 2.879 1.16 5.725 1.752 8.537.63 2.99.381 6.037 2.16 8.617.275.404.835.424 1.106 0z"/><path d="m769.505 575.982c.272.121.519.018.63-.258.652-1.623.348-2.828-.634-4.238-1.067-1.533-2.297-1.813-3.988-1.715-.156.008-.311.195-.199.344 1.53 2.082 1.591 4.696 4.191 5.867z"/><path d="m378.232 843.422c.76-.256 1.344-1.232.807-1.982-5.381-7.504-12.221-13.295-17.301-21.223-4.923-7.684-7.677-19.109-14.188-25.387-.422-.408-1.091-.211-1.266.332-3.122 9.699 3.431 23.816 7.8 32.324 4.583 8.92 13.28 19.598 24.148 15.936z"/><path d="m438.384 391.191c-.076-.402-.636-.627-.967-.395-9.858 6.848-11.759 20.322-13.065 31.412-1.563 13.258.481 25.701 9.357 35.852.683.781 1.772.088 1.853-.768 1.091-11.777-.14-23.299.274-35.084.359-10.257 4.457-20.787 2.548-31.017z"/><path d="m800.767 448.25c7.502-24.641.57-65.523-25.977-77.174-.55-.24-1.35.156-1.113.855 4.272 12.561 11.364 23.795 15.047 36.664 3.823 13.369 4.797 26.576 9.821 39.654.397 1.036 1.87 1.157 2.222.001z"/><path d="m474.199 795.701c10.314-.584 17.729-5.334 24.038-13.313 4.851-6.133 10.167-15.904 6.216-23.732-.222-.443-.854-.582-1.261-.332-5.56 3.424-8.874 10.605-12.474 15.84-4.76 6.916-11.924 12.742-17.589 18.951-.834.916-.321 2.664 1.07 2.586z"/><path d="m403.399 690.363c5.392-8.615 11.196-23.049 7.814-33.102-.142-.42-.712-.646-1.045-.277-6.286 6.977-9.09 17.346-14.236 25.303-6.524 10.086-14.448 18.746-19.456 29.768-.348.764.234 1.965 1.226 1.594 11.772-4.426 19.138-12.807 25.697-23.286z"/><path d="m642.532 789.799c2.641-.352 5.13-2.066 7.088-3.793 1.985-1.754 4.328-5.242 4.11-7.965-.132-1.629-1.625-3.176-3.386-2.578-2.594.881-4.274 3.26-5.945 5.324-1.639 2.027-3.139 5.357-2.854 8.023.051.477.413 1.065.987.989z"/><path d="m677.809 588.234c-1.59-11.104-6.148-25.285-15.318-32.348-.296-.23-.867-.002-.917.371-1.275 9.461 2.69 19.111 4.52 28.338 2.358 11.91 3.315 24.686 4.021 36.822.074 1.279 2.006 2.092 2.638.715 5.331-11.624 6.883-21.128 5.056-33.898z"/><path d="m798.712 691.746c-.146-.311-.66-.377-.878-.113-7.031 8.42-10.655 20.389-16.333 29.834-7.04 11.717-16.42 21.576-23.161 33.518-.518.92.336 2.186 1.413 1.836 13.838-4.484 22.038-15.023 29.731-26.818 6.474-9.927 14.748-26.399 9.228-38.257z"/><path d="m860.055 371.167c-.604-.523-1.489-.02-1.321.77 2.097 9.83 5.896 18.756 9.059 28.248 3.195 9.59 4.694 19.387 8.043 28.98.397 1.139 2.063 1.559 2.707.354 10.977-20.592-2.485-44.363-18.488-58.352z"/><path d="m120.612 402.087c-4.42 2.332-7.32 10.998-4.877 15.443.299.543.967.527 1.395.182 2.094-1.688 3.386-4.592 4.394-7.031 1.123-2.721 2.071-5.387.621-8.189-.291-.561-1.014-.676-1.533-.405z"/><path d="m590.872 893.879c9.252-1.883 16.118-6.408 22.538-13.07.692-.721.203-1.965-.814-1.967-8.097-.021-14.321 1.717-21.857 4.578-6.535 2.48-15.213 3.396-20.619 7.867-.222.184-.218.607 0 .791 5.475 4.615 14.209 3.137 20.752 1.801z"/><path d="m829.866 568.416c7.809-9.076 9.627-17.252 10.272-29.115.49-9.004-.556-22.813-7.909-29.021-.271-.23-.649-.139-.769.201-2.681 7.645-.967 17.436-1.247 25.49-.372 10.646-1.872 21.047-2.201 31.678-.028.908 1.233 1.49 1.854.767z"/><path d="m385.227 721.363c2.475-1.395 6.389-4.16 6.403-7.342 0-.09-.082-.191-.182-.18-2.347.248-4.379 2.168-6.306 3.383-3.097 1.957-6.693 3.633-10.19 4.736-.492.156-.446.781 0 .953 3.736 1.439 6.909.347 10.275-1.55z"/><path d="m539.199 860.369c12.788-1.512 20.664-9.281 28.192-19.285 7.424-9.865 17.102-20.682 17.723-33.57.022-.467-.642-.768-.954-.395-14.597 17.4-28.96 36.162-45.636 51.621-.569.53-.169 1.731.675 1.629z"/><path d="m628.028 871.496c-2.213-3.777-11.643 1.785-9.369 5.506 2.691 4.404 11.931-1.133 9.369-5.506z"/><path d="m686.89 705.705c1.658-5.326.424-11.949-3.926-15.75-.23-.199-.552-.006-.496.289.967 5.141 1.977 10.525 3.628 15.461.13.387.671.4.794 0z"/><path d="m678.397 694.363c-.354-.682-1.537-.559-1.686.221-2.336 12.367-3.381 24.691-6.61 36.926-3.452 13.084-9.927 25.441-14.313 38.258-.368 1.078.959 2.02 1.886 1.449 22.546-13.84 32.952-53.172 20.723-76.854z"/><path d="m390.299 846.824c-1.985-.555-4.013-1.225-6.074-1.441-.601-.064-1.244.48-1.372 1.043-.991 4.4 6.338 9.162 9.722 5.777 2-1.998-.049-4.756-2.276-5.379z"/><path d="m284.006 765.807c.994.277 1.928-.672 1.66-1.662-3.219-11.893-11.196-21.654-16.561-32.658-5.727-11.748-11.037-23.658-17.342-35.127-.297-.539-1.097-.393-1.264.164-3.735 12.518 3.769 27.824 8.53 39.209 5.125 12.251 11.192 26.222 24.977 30.074z"/><path d="m320.478 343.583c4.19-1.236 7.903-4.076 11.589-6.359 4.328-2.68 8.874-4.502 12.599-8.057.424-.406.072-1.025-.441-1.068-8.582-.725-20.932 7.018-24.211 15.018-.115.273.211.541.464.466z"/><path d="m384.392 483.33c.294.518 1.103.285 1.104-.299.043-13.133-5.369-26.967-16.306-34.912-.249-.182-.646.121-.533.408 2.208 5.609 5.176 10.91 7.558 16.457 2.707 6.295 4.78 12.351 8.177 18.346z"/><path d="m342.354 337.583c3.475-.287 7.236-2.094 9.353-4.846.227-.295-.028-.697-.324-.797-3.703-1.254-8.214 1.453-9.456 5.082-.092.259.146.585.427.561z"/><path d="m726.445 502.518c.383 1.162 2.055 1.221 2.41 0 1.87-6.411 3.724-10.948 3.014-17.723-.724-6.92-3.061-13.752-5.418-20.254-3.953-10.904-10.412-26.225-21.464-31.516-.356-.172-.704.041-.743.426-1.053 10.477 6.042 21.746 9.993 31.152 2.505 5.965 4.31 12.166 5.757 18.461 1.617 7.031 4.213 12.654 6.451 19.454z"/><path d="m599.155 683.398c-.142-.672-1.125-.77-1.444-.189-3.974 7.244-6.399 15.154-10.49 22.363-4.63 8.16-10.174 15.473-14.545 23.775-.398.758.273 1.98 1.227 1.598 17.22-6.894 29.212-28.978 25.252-47.547z"/><path d="m197.53 455.421c-.041-.488-.628-.816-1.013-.418-12.103 12.551-16.299 46.374.758 56.147.646.369 1.561.047 1.739-.709 2.037-8.572-.012-15.688-.822-24.434-.944-10.183.2-20.445-.662-30.586z"/><path d="m261.822 428.316c6.45-8.547 8.953-20.26 13.765-29.783 5.126-10.148 12.241-21.396 19.374-30.248.602-.744.072-2.254-1.055-1.814-13.701 5.318-21.4 13.283-28.427 26.154-5.445 9.973-10.921 24.809-5.308 35.691.363.701 1.252.529 1.651 0z"/><path d="m399.368 338.142c-8.695 3.871-14.026 9.158-19.258 17.049-3.842 5.793-8.672 14.824-6.16 21.859.144.404.615.668 1.017.414 5.296-3.379 8.423-10.455 11.771-15.609 4.937-7.592 10.075-14.121 13.979-22.361.442-.934-.436-1.76-1.349-1.352z"/><path d="m404.644 328.035c-.814 1.076-2.254 4.088-.501 5.096 3.031 1.746 9.523-5.645 6.424-7.471-2.408-1.414-4.5.494-5.923 2.375z"/><path d="m302.111 356.732c-2.125.912-4.198 3.205-4.531 5.486-.214 1.471.597 3.002 2.272 2.982 2.327-.029 3.921-1.188 5.81-2.393 1.859-1.189 2.129-2.793 2.943-4.611.267-.592.063-1.238-.589-1.451-2.221-.716-3.64-.984-5.905-.013z"/><path d="m249.723 607.396c1.647-13.953 1.013-27.473 1.325-41.555.302-13.725 3.126-27.76 1.057-41.414-.112-.754-1.096-.672-1.443-.189-8.582 11.91-10.081 27.371-11.295 41.604-1.309 15.332.305 29.035 8.149 42.152.654 1.094 2.076.514 2.207-.598z"/><path d="m267.563 234.382c-1.155.344-2.233.854-3.299 1.418-1.902 1.012-3.532 2.445-4.447 4.406-.097.205.021.398.24.422 2.024.217 3.977-.156 5.888-.842 1.133-.408 2.252-.805 3.324-1.357.945-.488 1.19-1.582 1.614-2.441.195-.391.017-.762-.372-.918-.953-.385-1.85-1.014-2.948-.688z"/><path d="m325.404 185.005c-.162.43.325.848.73.73 9.211-2.711 17.809-6.514 27.274-8.475 9.95-2.059 19.479-.902 28.707-5.74.686-.359.597-1.326 0-1.703-15.71-10.042-49.571-3.542-56.711 15.188z"/><path d="m387.454 170.773c-1.718.811-.926 3.031.469 3.59 1.15.463 2.277.848 3.486 1.123 1.251.287 2.339.975 3.555 1.311 1.004.275 4.443.238 4.441-1.451-.009-5.368-8.267-6.311-11.951-4.573z"/><path d="m185.813 350.216c-4.301 10.389-5.521 19.416-1.952 30.18.299.9 1.549.918 1.839 0 2.647-8.342 4.939-16.781 7.625-25.104 2.234-6.924 7.814-13.564 7.978-20.973.01-.43-.403-.68-.792-.604-7.476 1.488-12.011 10.005-14.698 16.501z"/><path d="m712.912 527.219c-.125.109-.133.357 0 .465 1.967 1.58 6.319 1.623 7.043-1.385.204-.848-.387-1.443-1.181-1.547-1.91-.25-4.473 1.246-5.862 2.467z"/><path d="m698.857 522.299c2.153 1.488 4.916 2.322 7.446 2.828 2.769.553 4.109-.262 6.195-1.854.348-.266.391-.738 0-.996-1.398-.922-2.071-1.771-3.709-2.248-2.135-.625-4.274-.947-6.335-1.846-3.226-1.4-5.602-4.221-8.742-5.584-.242-.105-.524-.031-.604.246-1.125 3.936 2.899 7.479 5.749 9.454z"/><path d="m433.81 259.425c-10.361-3.445-18.585-.309-28.365 3.92-6.864 2.967-17.821 9.281-18.453 17.67-.06.807.798 1.297 1.5 1.145 7.796-1.715 15.536-7.914 23.122-10.855 8.261-3.199 15.157-4.836 22.447-9.953.752-.526.652-1.626-.251-1.927z"/><path d="m696.914 418.587c.629 2.885 1.419 6.23 3.7 8.229.238.211.668.217.827-.107 1.614-3.27-1.232-6.893-4.02-8.514-.273-.158-.571.101-.507.392z"/><path d="m534.065 241.339c7.075-.734 14.393-2.049 21.509-1.771.638.025.831-.854.315-1.164-4.118-2.49-7.117-3.439-11.98-2.859-3.896.463-7.436 2.164-10.217 4.896-.303.297-.1.947.373.898z"/></g><path d="m470.711 113.283c4.949.652 10.149.414 15.199-.479 23.813-4.213 23.118-17.416 15.124-26.453-2.877 8.549-12.563 15.152-22.482 17.291-11.068 2.385-24.92-1.324-31.391-10.201-1.333 8.236 5.855 17.516 23.55 19.842z" fill="#865725"/><path d="m505.797 244.228c.146-.469.343-.943.664-1.424 6.896-10.332 15.48-16.865 24.994-20.441 1.735-23.727-1.305-48.59-5.447-71.891-1.302-7.322-2.655-15.686-4.587-24.029.848 20.797-1.047 41.527-7.835 61.568-7.255 21.414-25.21 44.088-47.064 55.148 1.17.412 2.511.781 4.058 1.172 5.052 1.271 10.047 2.865 14.938 4.811.414.164.782.365 1.119.592 6.143-4.838 12.639-6.348 19.16-5.506z" fill="#865725"/><path d="m481.29 132.714c.234 11.158 1.53 22.188 2.094 33.326.576 11.371-.362 22.703 1.673 33.957.216 1.189 1.793.92 2.143 0 7.619-20.047 3.886-48.439-5.22-67.471-.162-.339-.698-.165-.69.188z" fill="#865725"/><path d="m494.981 170.978c-.537 1.715-.706 3.27-.801 5.055-.101 1.877-.298 3.582.813 5.211.188.275.513.375.811.215 3.719-1.994 1.249-7.598.227-10.48-.179-.503-.884-.532-1.05-.001z" fill="#865725"/></g></g></svg>