<?xml version="1.0" encoding="UTF-8" standalone="no"?>
<!-- Generator: Adobe Illustrator 26.2.1, SVG Export Plug-In . SVG Version: 6.00 Build 0)  -->

<svg
   version="1.1"
   id="Capa_1"
   x="0px"
   y="0px"
   viewBox="0 0 512 512"
   style="enable-background:new 0 0 512 512;"
   xml:space="preserve"
   width="512"
   height="512"
   sodipodi:docname="014-bear.svg"
   inkscape:version="1.4 (1:1.4+202410161351+e7c3feb100)"
   xmlns:inkscape="http://www.inkscape.org/namespaces/inkscape"
   xmlns:sodipodi="http://sodipodi.sourceforge.net/DTD/sodipodi-0.dtd"
   xmlns="http://www.w3.org/2000/svg"
   xmlns:svg="http://www.w3.org/2000/svg"><defs
   id="defs30" /><sodipodi:namedview
   id="namedview30"
   pagecolor="#505050"
   bordercolor="#ffffff"
   borderopacity="1"
   inkscape:showpageshadow="0"
   inkscape:pageopacity="0"
   inkscape:pagecheckerboard="1"
   inkscape:deskcolor="#505050"
   inkscape:zoom="1.362395"
   inkscape:cx="162.21433"
   inkscape:cy="262.40553"
   inkscape:window-width="1920"
   inkscape:window-height="1011"
   inkscape:window-x="0"
   inkscape:window-y="32"
   inkscape:window-maximized="1"
   inkscape:current-layer="g11" />
<g
   id="g30">
	<path
   style="fill:#FFFFFF;"
   d="M197.845,464.384c-7.584,0-14.063-5.669-15.072-13.184c-0.131-0.985-0.881-7.246-0.125-17.649   c-17.276,2.703-36.514,5.098-51.658,5.358l-1.27,0.011c-4.264,0-8.499-0.375-12.628-1.113c-0.25,0.012-0.5,0.018-0.752,0.018   c-2.767,0-5.415-0.74-7.712-2.091c-16.367-5.212-29.05-16.582-34.257-30.881c-5.093-13.984-2.748-29.014,6.604-42.34   c-0.167,0.005-0.332,0.007-0.499,0.007c-0.978,0-1.973-0.066-2.959-0.199c-6.471-0.864-11.959-4.376-15.454-9.892   c-1.823-2.879-3.665-6.939-4.241-13.488c-7.184,4.419-12.54,5.255-16.582,5.255c-8.342,0-15.653-4.419-20.056-12.126   c-4.144-7.252-4.774-15.284-1.775-22.621c2.15-5.26,6.132-10.047,11.91-14.34c-14.721-6.217-24.284-13.502-28.554-21.785   c-3.36-6.517-3.668-13.808-0.869-20.526c3.804-9.131,12.288-14.368,23.277-14.368c9.03,0,20.255,3.788,31.42,8.998   c-3.696-14.573-2.871-28.84,8.415-38.248c5.173-4.309,10.233-5.214,13.567-5.214c14.893,0,21.806,15.161,25.337,26.855   c10.363-17.224,19.534-21.264,25.381-22.212c3.197-8.971,7.296-17.82,12.272-26.497c-12.095-3.473-25.158-9.761-34.536-21.108   c-9.812-11.869-13.755-26.841-11.722-44.499c5.287-45.939,42.787-66.502,77.606-66.502c12.911,0,24.283,2.993,32.024,8.428   c12.163,8.54,21.978,24.16,28.704,37.505c4.466-1.981,9.039-3.695,13.76-5.156c-0.063-2.279,0.198-4.476,0.786-6.583   c1.526-5.47,5.226-9.997,10.416-12.744c3.272-1.732,6.872-2.611,10.699-2.611c2.357,0,4.691,0.352,6.967,0.961   c2.573-4.933,6.882-8.634,12.342-10.544c2.315-0.81,4.718-1.221,7.141-1.221c7.115,0,13.048,3.369,17.865,8.082   c2.479-1.228,5.218-1.876,8.061-1.876c1.676,0,3.377,0.227,5.056,0.675c8.277,2.207,14.752,9.232,20.056,21.897   c8.78,1.899,17.151,4.65,25.506,8.39c6.818-13.895,16.884-30.271,29.552-39.165c7.741-5.435,19.114-8.428,32.023-8.428   c34.819,0,72.319,20.563,77.607,66.502c2.048,17.789-1.965,32.846-11.928,44.752c-9.549,11.41-22.762,17.667-35.021,21.079   c9.038,15.251,15.339,31.032,18.799,47.124c5.091,23.672,1.329,44.451-11.184,61.76c-16.014,22.152-43.2,33.792-67.394,39.902   c12.958,10.757,25.766,22.221,37.509,34.715c24.307,25.863,40.854,53.017,49.181,80.709c1.274,4.238,0.474,8.831-2.158,12.391   c-2.632,3.558-6.79,5.667-11.217,5.69l-51.881,0.258c-1.611,0.58-3.339,0.882-5.108,0.882c-1.733,0-3.414-0.29-4.986-0.832   l-12.652,0.064c-1.306,0.395-2.677,0.603-4.071,0.603H203.679c-1.205,0.505-2.492,0.859-3.836,1.037   C199.231,464.331,198.461,464.384,197.845,464.384z"
   id="path1" />
	<g
   id="g29">
		<g
   id="g12">
			<path
   style="fill:#3b3b3b;fill-opacity:1"
   d="M248.329,313.003L161.11,345.86c0,0-50.181-3.584-68.7,22.701     c-18.519,26.285,3.584,54.96,38.233,54.362c34.649-0.597,93.193-13.143,93.193-13.143L248.329,313.003z"
   id="path2" />
			<g
   id="g4">
				<path
   style="fill:#2C0B1F;"
   d="M118.104,391.471c-1.418,0-2.913-0.147-4.389-0.572c-3.141-0.904-5.621-3.011-6.635-5.635      c-0.616-1.598-0.731-3.45-0.334-5.356c1.285-6.136,7.068-9.98,11.694-12.124c1.36-0.63,2.769-1.211,4.13-1.772      c3.735-1.54,7.264-2.995,10.145-5.479c0.489-0.424,1.228-0.367,1.649,0.122c0.422,0.489,0.367,1.228-0.122,1.65      c-3.166,2.731-7.037,4.327-10.78,5.87c-1.338,0.552-2.723,1.123-4.037,1.732c-4.14,1.918-9.303,5.294-10.388,10.48      c-0.306,1.463-0.228,2.858,0.227,4.034c0.751,1.945,2.657,3.526,5.1,4.23c2.55,0.733,5.289,0.483,7.393,0.183      c4.459-0.636,8.785-1.936,12.859-3.863c0.584-0.277,1.281-0.026,1.558,0.557c0.276,0.584,0.026,1.282-0.558,1.558      c-4.285,2.027-8.837,3.395-13.529,4.064C120.91,391.318,119.548,391.471,118.104,391.471z"
   id="path3" />
				<path
   style="fill:#2C0B1F;"
   d="M116.235,421.837c-0.389,0-0.765-0.193-0.985-0.538c-0.313-0.488-0.222-1.132,0.216-1.514      l1.068-0.932c0.271-0.235,0.617-0.324,0.946-0.273c2.42-1.798,3.954-4.618,4.86-6.865c2.876-7.131,3.319-13.982,1.394-21.561      c-0.159-0.626,0.22-1.263,0.846-1.422c0.624-0.159,1.262,0.218,1.422,0.846c2.026,7.974,1.538,15.501-1.491,23.012      c-1.814,4.501-4.511,7.663-7.796,9.143C116.56,421.804,116.396,421.837,116.235,421.837z"
   id="path4" />
			</g>
			<g
   id="g9">
				<path
   style="fill:#3b3b3b;fill-opacity:1"
   d="M364.208,446.818l113.684-0.568c-8.531-28.37-25.677-53.548-45.965-75.135      c-20.289-21.587-43.755-39.899-67.117-58.116C358.79,355.099,356.224,405.047,364.208,446.818z"
   id="path5" />
				<g
   id="g8"
   style="fill:#3b3b3b;fill-opacity:1">
					<g
   id="g7"
   style="fill:#3b3b3b;fill-opacity:1">
						<path
   style="fill:#3b3b3b;fill-opacity:1"
   d="M399.266,447.225H197.741c-0.304-6.13-0.211-12.12,0.281-18.016        c0.023-0.257,0.047-0.491,0.07-0.749c1.147-13.056,4.188-25.667,9.078-38.349c4.563-11.816,10.74-23.702,18.461-36.079        c5.943-9.523,10.693-17.478,14.39-23.959c1.919-3.346,3.58-6.294,4.984-8.868c4.984-9.102,6.902-13.384,6.902-13.384        l117.901,3.978c0.211,0.702,0.421,1.404,0.632,2.106c1.497,4.867,2.948,9.944,4.328,15.162        C388.971,381.665,399.266,447.225,399.266,447.225z"
   id="path6" />
						<path
   style="fill:#3b3b3b;fill-opacity:1"
   d="M370.44,313.905c-0.094,0.117-0.187,0.211-0.304,0.328        c-24.965,24.708-63.618,34.629-97.405,24.965c-7.768-2.223-15.396-5.475-21.432-10.833c-2.41-2.153-4.493-4.563-6.294-7.16        c4.984-9.102,6.902-13.384,6.902-13.384l117.901,3.978C370.019,312.501,370.23,313.203,370.44,313.905z"
   id="path7" />
					</g>
					<path
   style="fill:#3b3b3b;fill-opacity:1"
   d="M197.739,448.395c-0.577,0-1.079-0.426-1.157-1.014c-0.132-0.979-3.06-24.414,10.627-60.713       c13.653-36.209,22.526-47.085,22.897-47.53c0.411-0.496,1.148-0.564,1.646-0.15c0.496,0.412,0.564,1.149,0.152,1.646       c-0.089,0.107-9.034,11.13-22.506,46.859c-13.459,35.695-10.528,59.343-10.498,59.578c0.086,0.64-0.364,1.229-1.005,1.314       C197.844,448.391,197.791,448.395,197.739,448.395z"
   id="path8" />
				</g>
				<path
   style="fill:#2C0B1F;"
   d="M420.975,447.392c-0.461,0-0.898-0.275-1.084-0.729l-40.623-99.764      c-0.243-0.599,0.044-1.281,0.643-1.525c0.597-0.241,1.28,0.043,1.525,0.642l40.623,99.764c0.243,0.599-0.044,1.281-0.643,1.525      C421.271,447.363,421.122,447.392,420.975,447.392z"
   id="path9" />
			</g>
			<path
   style="fill:#2C0B1F;"
   d="M123.041,368.499c-0.536,0-1.021-0.371-1.142-0.917c-5.557-25.051-13.953-49.51-24.957-72.697     c-0.277-0.583-0.028-1.281,0.555-1.559c0.584-0.277,1.281-0.028,1.559,0.556c11.079,23.346,19.533,47.971,25.129,73.193     c0.14,0.631-0.259,1.256-0.89,1.396C123.21,368.49,123.125,368.499,123.041,368.499z"
   id="path10" />
			<g
   id="g11">
				<path
   style="fill:#9cd56f;fill-opacity:1"
   d="M88.826,280.744c0,0-32.856-47.791-14.935-62.726c17.922-14.935,24.493,60.336,24.493,60.336      s20.311-69.895,40.622-56.155c20.311,13.74-31.662,60.336-31.662,60.336s57.349-11.948,58.544,9.558      c1.195,21.506-61.531-2.987-61.531-2.987s38.233,38.83,22.103,46.596c-16.13,7.766-33.454-42.415-33.454-42.415      s4.182,55.557-13.74,53.168c-17.922-2.389,1.195-53.168,1.195-53.168s-35.246,50.778-47.194,29.87      C21.321,302.25,72.696,290.9,72.696,290.9S5.789,277.757,14.75,256.251C23.71,234.745,88.826,280.744,88.826,280.744z"
   id="path11" />
				
					<ellipse
   transform="matrix(0.9376 -0.3477 0.3477 0.9376 -94.2867 49.5629)"
   style="fill:#b58537;fill-opacity:1"
   id="ellipse11"
   ry="10.16"
   rx="25.986"
   cy="287.525"
   cx="90.971" />
			</g>
		</g>
		<g
   id="g28">
			<g
   id="g27">
				<path
   style="fill:#3a3a3a;fill-opacity:1"
   d="M469.5,228.074c-15.93-74.076-93.193-117.088-93.193-117.088      c-27.423-15.056-48.514-15.333-73.007-15.93c-19.714,1.792-45.061,0.875-72.483,15.93c0,0-77.262,43.012-93.193,117.088      c-15.931,74.076,74.076,91.6,121.071,91.6c13.697,0,24.262,0,32.385,0c19.747,0,24.965,0,24.965,0c8.123,0,18.688,0,32.385,0      C395.424,319.674,485.43,302.151,469.5,228.074z"
   id="path12" />
				<path
   style="fill:#3b3b3b;fill-opacity:1"
   d="M268.651,104.016c0,0-13.74-16.727-3.584-22.103c10.156-5.377,26.883,13.143,26.883,13.143      s-10.753-20.311,1.195-24.493c11.948-4.182,22.103,23.298,22.103,23.298s-1.195-19.714,7.766-17.324      c8.961,2.39,14.935,26.285,14.935,26.285L268.651,104.016z"
   id="path13" />
				<g
   id="g16">
					<g
   id="g15">
						<path
   style="fill:#3b3b3b;fill-opacity:1"
   d="M170.879,170.327c0,0-68.102,1.195-61.73-54.163c6.372-55.358,68.899-61.332,87.617-48.189        c18.718,13.143,32.259,50.579,32.259,50.579L170.879,170.327z"
   id="path14" />
						<path
   style="fill:#ffd280;fill-opacity:1"
   d="M198.802,105.339c-2.663-3.51-5.719-6.828-9.548-9.008c-3.385-1.928-7.242-2.887-11.101-3.418        c-12.32-1.696-25.515,1.055-35.158,8.908c-9.643,7.853-15.098,21.102-12.24,33.205c1.929,8.172,7.405,15.288,14.368,19.981        c6.963,4.693,15.321,7.075,23.698,7.65c5.21,0.358,10.529,0.029,15.481-1.634c10.229-3.435,22.98-13.065,26.327-23.845        C213.794,126.981,204.617,113.002,198.802,105.339z"
   id="path15" />
					</g>
					<path
   style="fill:#3b3b3b;fill-opacity:1"
   d="M212.949,106.362c-4.752-2.175-11.151-2.855-14.536,1.127       c-3.378,3.973-1.734,10.046,0.518,14.75c-4.17-2.915-10.591-2.618-13.818,1.315c-3.227,3.933-1.591,11.057,3.299,12.462       c-4.535,2.388-8.504,5.843-11.496,10.005c-1.266,1.762-2.399,3.809-2.219,5.972c0.361,4.337,5.558,6.483,9.91,6.555       c9.675,0.161,18.652-5.05,26.094-11.234c6.741-5.602,14.569-13.405,16.985-22.153       C229.964,116.916,219.667,109.436,212.949,106.362z"
   id="path16" />
				</g>
				<g
   id="g19">
					<g
   id="g18">
						<path
   style="fill:#3b3b3b;fill-opacity:1"
   d="M435.699,167.937c0,0,68.102,1.195,61.73-54.163c-6.372-55.358-68.899-61.332-87.617-48.189        c-18.718,13.143-32.259,50.579-32.259,50.579L435.699,167.937z"
   id="path17" />
						<path
   style="fill:#ffd280;fill-opacity:1"
   d="M407.776,102.949c2.664-3.51,5.719-6.828,9.548-9.008c3.385-1.928,7.242-2.887,11.101-3.418        c12.32-1.696,25.515,1.055,35.158,8.908c9.643,7.854,15.098,21.102,12.24,33.205c-1.929,8.172-7.405,15.288-14.368,19.981        c-6.963,4.693-15.321,7.075-23.698,7.65c-5.21,0.358-10.529,0.029-15.481-1.633c-10.229-3.435-22.98-13.065-26.327-23.845        C392.784,124.591,401.96,110.613,407.776,102.949z"
   id="path18" />
					</g>
					<path
   style="fill:#3b3b3b;fill-opacity:1"
   d="M393.628,103.973c4.752-2.175,11.151-2.855,14.536,1.127c3.378,3.973,1.734,10.046-0.518,14.75       c4.17-2.915,10.591-2.618,13.818,1.315s1.591,11.057-3.299,12.462c4.535,2.388,8.504,5.843,11.496,10.005       c1.267,1.762,2.399,3.809,2.219,5.972c-0.361,4.337-5.558,6.483-9.91,6.555c-9.675,0.161-18.652-5.05-26.094-11.234       c-6.741-5.602-14.569-13.406-16.985-22.153C376.614,114.526,386.911,107.047,393.628,103.973z"
   id="path19" />
				</g>
				<g
   id="g26">
					
					<g
   id="g25">
						
						
						<g
   id="g24">
							<path
   style="fill:#ffd580;fill-opacity:1"
   d="M271.263,176.804c-14.599,9.819-24.37,26.228-30.712,42.662         c-5.601,14.514-13.709,28.677-14.859,44.487c-0.358,4.921,0.043,10.06,2.374,14.408c2.865,5.343,8.361,8.881,14.149,10.686         c12.938,4.035,28.02,2.5,41.357,2.125c14.56-0.409,29.175-0.976,43.692,0.557c7.71,0.814,15.774,2.175,23.008-0.612         c9.098-3.504,15.117-13.121,16.21-22.538c0.75-6.463-0.227-12.99-1.296-19.408c-2.065-12.4-4.501-24.812-8.931-36.577         c-10.732-28.496-36.309-51.465-68.467-43.239C281.692,170.916,276.201,173.483,271.263,176.804z"
   id="path22" />
							<path
   style="fill:#2C0B1F;"
   d="M269.376,193.106c11.797-4.224,38.237-10.97,63.293,1.51c2.843,1.416,3.286,4.664,1.016,6.657         l-29.796,26.155c-2.173,1.908-5.89,1.839-7.956-0.146l-28.456-27.343C265.158,197.71,266.101,194.278,269.376,193.106z"
   id="path23" />
							<path
   style="fill:#2C0B1F;"
   d="M287.604,243.613c-1.411,0-2.822-0.283-4.148-0.852c-0.044-0.019-0.088-0.041-0.13-0.065         l-8.296-4.85c-0.558-0.326-0.745-1.042-0.419-1.6c0.326-0.559,1.044-0.747,1.601-0.419l8.23,4.812         c2.154,0.9,4.592,0.84,6.7-0.169c2.128-1.02,3.714-2.908,4.349-5.182l2.799-10.017c0.137-0.488,0.571-0.833,1.077-0.854         c0.5-0.018,0.969,0.285,1.146,0.76l3.657,9.803c0.836,2.239,2.603,3.997,4.846,4.822c2.224,0.818,4.683,0.633,6.757-0.501         l6.355-4.607c0.521-0.379,1.254-0.263,1.634,0.261c0.379,0.523,0.263,1.254-0.261,1.634l-6.413,4.649         c-0.037,0.027-0.076,0.052-0.116,0.074c-2.687,1.498-5.878,1.748-8.764,0.687c-2.885-1.061-5.155-3.321-6.229-6.201         l-2.401-6.437l-1.832,6.557c-0.817,2.923-2.855,5.351-5.592,6.662C290.717,243.268,289.161,243.613,287.604,243.613z"
   id="path24" />
						</g>
					</g>
				</g>
			</g>
			<path
   style="fill:#2C0B1F;"
   d="M230.258,209.062c-1.504,0-2.98-0.724-3.885-2.065c-3.912-5.806-10.677-9.775-17.653-10.36     c-6.982-0.583-14.308,2.204-19.132,7.278c-1.782,1.872-4.744,1.947-6.616,0.167c-1.873-1.781-1.947-4.743-0.167-6.616     c6.834-7.187,16.812-10.986,26.696-10.155c9.883,0.828,19.092,6.232,24.634,14.456c1.444,2.143,0.878,5.051-1.266,6.496     C232.067,208.803,231.157,209.062,230.258,209.062z"
   id="path27" />
			<path
   style="fill:#2C0B1F;"
   d="M367.799,209.062c-0.9,0-1.81-0.259-2.611-0.8c-2.144-1.444-2.71-4.353-1.266-6.496     c5.542-8.224,14.751-13.627,24.634-14.456c9.874-0.831,19.862,2.968,26.696,10.155c1.78,1.873,1.706,4.835-0.167,6.616     c-1.872,1.781-4.834,1.707-6.616-0.167c-4.823-5.073-12.159-7.857-19.132-7.278c-6.977,0.584-13.741,4.554-17.653,10.36     C370.779,208.338,369.303,209.062,367.799,209.062z"
   id="path28" />
		</g>
	</g>
</g>















</svg>
