<svg id="Fruit" height="512" viewBox="0 0 992.13 992.13" width="512" xmlns="http://www.w3.org/2000/svg"><g><path d="m770.945 478.432c-30.527-22.844-69.188-34.918-111.809-34.918-8.889 0-17.934.518-27.059 1.551l-.926-3.137c-9.252-31.17-16.98-62.197-23.318-88.436-14.865-61.541-28.711-121.811-34.852-182.066 4.373-12.539 8.24-24.236 11.775-35.611.672-2.16 1.9-5.379 3.201-8.789 7.363-19.295 18.49-48.457 2.879-70.854-9.088-13.037-23.746-21.135-38.252-21.135-7.557 0-14.967 2.156-21.438 6.236-20.708 13.061-26.575 36.875-30.862 54.266-1.033 4.191-2.008 8.15-3.018 11.295-1.232 3.826-2.488 7.645-3.754 11.463-18.484 3.488-37.758 5.982-57.936 8.596-69.441 8.99-141.244 18.285-196.367 70.605-36.811 34.945-55.583 83.6-67.826 122.082-8.38 26.354-13.588 52.07-15.919 78.617-1.094 12.455-1.841 25.082-2.564 37.295-1.113 18.826-2.267 38.295-4.702 56.814-2.138 16.251 1.729 30.955 10.89 41.398 8.31 9.475 20.114 14.693 33.237 14.693 9.656 0 19.508-2.891 28.49-8.357 7.619-4.643 14.906-12.697 21.656-23.934 6.207-10.33 13.133-19.355 20.592-26.826 11.941-11.965 28.846-22.791 45.189-33.262 8.988-5.754 18.279-11.705 26.895-17.928 27.104-19.572 48.645-38.867 66.332-59.816-15.018 41.25-29.969 83.191-43.783 125.091l-.422 1.273c-2.207 6.695-4.416 13.393-6.654 20.084-47.779 2.768-92.094 21.127-128.84 53.516-38.583 34.004-59.93 81.777-63.447 141.992-5.871 100.5 45.298 190.521 127.326 224.006 20.893 8.529 43.693 12.854 67.764 12.854 55.158 0 112.955-22.924 154.604-61.322 17.456-16.09 31.421-34.975 41.726-56.379 27.41 14.273 57.539 21.719 88.551 21.723h.021c101.127-.006 188.637-76.146 203.551-177.117 10.097-68.339-7.923-158.405-70.931-205.563zm-336.299 58.425c11.475-38.676 25.018-76.582 37.059-109.693 12.133-33.361 25.811-66.875 39.418-99.633 6.343 27.803 13.312 54.824 19.833 80.096 5.76 22.336 11.709 44.328 16.762 62.762-35.845 18.668-64.054 46.33-82.099 80.376-9.858-5.449-20.237-10.111-30.973-13.908z" fill="#fff"/><g><path d="m756.635 497.555c-40.605-30.388-92.805-35.361-141.373-25.716-2.484-7.592-4.699-15.35-7.006-23.113-8.791-29.619-16.383-59.598-23.637-89.625-15.109-62.553-29.855-126.42-35.922-190.598 4.65-13.172 9.102-26.42 13.256-39.777 4.471-14.383 19.775-43.855 9.293-58.895-5.828-8.359-17.393-14.641-27.357-8.357-16.367 10.324-18.443 35.746-23.883 52.672-2.662 8.277-5.445 16.516-8.173 24.771-85.693 19.066-188.021 11.209-256.178 75.904-31.188 29.605-48.725 71.811-61.508 111.998-7.644 24.037-12.684 48.361-14.889 73.469-2.758 31.406-3.231 63.602-7.378 95.135-3.51 26.679 17.71 35.667 36.511 24.22 5.404-3.293 10.555-10.748 13.609-15.834 6.811-11.337 14.813-22.035 24.16-31.398 20.799-20.84 51.084-36.406 75.006-53.68 42.096-30.4 73.049-61.447 96.338-108.479 10.367-20.938 18.822-42.844 27.664-64.449 9.025-22.061 20.537-52.715 43.139-64.061 11.043-5.545 8.402 2.236 5.252 11.451-2.016 5.9-4.039 11.799-6.084 17.689-34.816 100.332-73.842 199.102-107.098 299.964-4.119 12.492-8.238 24.998-12.531 37.441-48.781-1.09-93.732 15.66-130.273 47.867-37.189 32.777-52.576 77.199-55.396 125.469-4.807 82.305 33.195 168.125 112.509 200.502 65.521 26.746 146.975 2.344 197.156-43.918 22.616-20.848 37.655-46.473 46.142-74.209 108.318 79.488 260.889 7.703 280.266-123.494 9.289-62.889-8.299-143.047-61.615-182.949zm-280.372 88.693c-20.643-16-45.006-27.254-71.105-33.047.596-2.152 1.188-4.311 1.787-6.453 12.047-43.193 26.996-85.623 42.314-127.746 21.396-58.838 46.727-116.174 70.243-174.176 7.861 52.916 21.242 105.141 34.578 156.834 6.438 24.955 13.189 49.828 20.041 74.674.684 2.477 1.32 4.898 1.922 7.289-46.922 18.873-83.499 54.523-99.78 102.625z" fill="#68182b"/><path d="m574.465 361.899c7.852 32.838 16.359 65.547 26.105 97.875 7.5 24.885 15.004 48.488 33.457 67.203-5.486 1.943-10.994 3.627-16.061 5.277-8.596 2.803-20.455 7.1-32.148 9.082 13.805-40.666-5.932-83.15-16.451-122.851-14.783-55.797-29.969-112.379-38.771-169.613-2.342-15.221-2.879-24.428 1.768-36.422 2.801-7.229 5.557-14.471 8.26-21.732 7.132 57.654 20.37 114.851 33.841 171.181z" fill="#b1d045"/><path d="m440.683 229.387c-18.238 41.848-33.029 84.82-59.867 122.244-30.129 42.004-81.471 70.201-123.166 99.391-12.967 9.078-23.461 17.205-32.902 30.125-6.973 9.539-13.982 27.511-25.641 31.798-21.89 8.051-18.061-20.455-15.713-31.779 4.481-21.621 4.504-44.061 5.483-66.02 1.219-27.303 5.992-53.299 13.594-79.488 12.615-43.475 31.859-86.078 65.111-117.641 61.508-58.383 161.859-51.709 240.443-67.551-1.846 5.52-3.654 11.051-5.521 16.563-33.128 3.35-49.587 34.284-61.821 62.358z" fill="#b1d045"/><path d="m375.116 559.299c17.025-48.059 31.492-96.978 49.434-144.72 40.711-108.334 80.533-217.121 115.116-327.588 2.713-8.664 15.371-29.193 23.383-9.613 2.9 7.088-2.701 19.508-4.654 26.373-4.162 14.623-8.707 29.135-13.404 43.592-1.938 5.969-3.98 11.902-6.035 17.83-.461.623-.744 1.41-.797 2.357-8.074 23.119-16.949 45.959-26.308 68.588-18.041 43.639-37.232 86.66-54.248 130.738-17.197 44.551-33.357 89.531-48.031 134.976-9.955 30.83-20.52 62.566-24.488 94.852-1.873 15.223 4.23 26.367 8.795 39.1 4.432 12.359-7.1 13.867-22.461 15.021-7.396.557-20.041 1.018-32.775-.264-9.738-.98-14.738-4.021-5.746-13.791 7.418-8.072 15.568-15.242 21.053-25.268 8.965-16.382 14.955-34.652 21.166-52.183z" fill="#b1d045"/><path d="m534.258 775.357c-11.684 82.576-85.517 138.729-165.569 145.904-87.336 7.832-152.922-55.191-171.35-137.238-11.671-51.963-6.025-110.648 24.707-154.893 28.852-41.541 76.895-65.521 126.398-69.654 14.861-1.238 13.436 5.912 8.758 18.188-1.531 4.025-3.104 8.037-4.729 12.023-3.695 9.078-7.787 19.09-14.164 26.688-8.328 9.924-17.656 16.389-24.588 28.043-.063.104-.092.203-.145.307-9.932-4.355-16.621-11.379-15.443-22.572.064-.604-.795-.742-1.074-.291-8.236 13.23 5.002 26.055 16.295 30.48 16.639 6.518 37.93 7.184 55.602 6.428 23.229-.994 64.604-8.381 52.119-40.658-.254-.656-1.404-.635-1.324.18 1.16 11.813-4.516 19.25-12.883 24.021-4.1-17.238-13.482-30.375-10.758-49.348.713-4.979 1.648-9.934 2.729-14.865 2.75-12.561 4.344-15.055 16.607-11.275 87.225 26.898 131.468 119.044 118.812 208.532z" fill="#ff5671"/><path d="m809.074 667.982c-8.23 130.391-163.74 206.787-268.154 125.244 11.754-48.674 4.365-102.629-17.244-148.307-9.467-20.014-22.772-37.254-38.726-51.436 12.836-41.664 41.878-73.967 79.864-93.313 11.395-5.804 15.029-4.708 15.383 10.385.229 9.836-1.277 19.818-5.471 30.857-.127.33-.197.645-.258.955-4.719.016-9.215-.584-13.223-2.111-13.576-5.166-6.166 1.92-5.061 3.266 10.338 12.566 43.744 2.127 54.564-.893 10.82-3.023 21.658-6.709 31.889-11.379 8.93-4.074 14.016-7.447 18.227-14.563 5.434-9.16 2.723-6.127-4.625-.699-3.512 2.592-7.447 4.764-11.566 6.674-.023-.025-.039-.051-.063-.072-8.037-7.412-14.021-15.836-18.785-24.887-5.982-11.382-5.979-16.365 5.271-17.908 37.951-5.211 77.063-.479 110.313 19.904 55.261 33.871 71.468 108.041 67.665 168.283z" fill="#ff5671"/><path d="m556.252 338.528c-5.404-38.33-10.785-77.475-11.115-116.455-1.662-10.436-3.217-20.885-4.514-31.355-2.703 7.262-5.459 14.504-8.26 21.732-4.646 11.994-4.109 21.201-1.768 36.422 8.803 57.234 23.988 113.816 38.771 169.613 1.412 5.322 2.992 10.697 4.629 16.105-5.122-32.119-13.22-63.986-17.743-96.062z" fill="#abab38"/><path d="m409.571 501.832c14.674-45.445 30.834-90.425 48.031-134.976 17.016-44.078 36.207-87.1 54.248-130.738 9.358-22.629 18.233-45.469 26.308-68.588.053-.947.336-1.734.797-2.357 2.055-5.928 4.098-11.861 6.035-17.83 4.697-14.457 9.242-28.969 13.404-43.592 1.885-6.627 7.094-18.381 4.854-25.568-3.266 15.682-12.787 31.207-18.566 44.912-10.863 25.768-18.471 53.102-28.793 79.172-22.286 56.287-44.546 112.59-66.606 168.967-21.869 55.889-41.471 112.295-60.131 169.304-4.512 13.785-9.496 27.279-11.926 41.631-2.117 12.5-1.014 25.359-.297 37.924.875 15.264-5.619 23.918-14.609 31.174 3.484-.104 6.605-.273 9.098-.461 15.361-1.154 26.893-2.662 22.461-15.021-4.564-12.732-10.668-23.877-8.795-39.1 3.968-32.287 14.532-64.023 24.487-94.853z" fill="#abab38"/><path d="m380.815 351.631c26.838-37.424 41.629-80.396 59.867-122.244 12.234-28.074 28.693-59.008 61.82-62.357.656-1.938 1.295-3.879 1.939-5.818-16.453 2.324-33.412 6.926-46.535 17.344-19.539 15.51-30.645 39.213-40.393 61.596-10.695 24.559-19.141 50.148-31.902 73.773-12.764 23.627-30.58 44.219-50.494 62.072-36.641 32.846-84.395 51.775-111.539 94.689-7.979 12.611-13.408 26.804-20.332 40.068 9.26-6.438 15.395-21.251 21.5-29.607 9.441-12.92 19.936-21.047 32.902-30.125 41.697-29.189 93.039-57.387 123.167-99.391z" fill="#abab38"/><path d="m310.724 281.059c-18.111 20.68-35.152 42.908-50.125 65.982-7.887 12.156-26.658 41.82-44.117 79.158-2.73 5.836-3.785 4.611-1.662-1.143 18.699-50.625 34.084-73.088 42.826-85.787 16.234-23.578 33.52-46.619 52.26-68.268 27.395-31.645 59.996-63.049 97.178-84.857 16.432-9.635 8.334-9.811-1.26-8.279-56.691 9.018-109.746 39.549-146.346 83.699-42.477 51.244-59.527 122.555-60.531 188.922-.227 15.01-2.072 21.129 12.223 2.271 3.797-5 8.066-9.697 13.215-14.275 13.984-12.439 29.582-23.135 44.895-33.854 27.395-19.174 54.607-38.344 76.771-63.66 20.033-22.881 28.691-52.992 38.227-81.188 5.256-15.535 11.414-30.486 19.141-44.957 2.049-3.838 4.129-7.732 6.348-11.551 4.857-8.385 3.824-11.238-5.422-5.248-35.074 22.723-66.289 51.828-93.621 83.035z" fill="#d7e338"/><path d="m804.863 695.77c-36.152 33.297-86.455 47.023-136.576 42.711-34.139-2.939-68.258-15.203-96.857-33.922-15.609-10.215-28.221-23.293-38.98-38.361 14.59 40.629 18.445 85.721 8.471 127.029 96.741 75.55 237.255 15.48 263.942-97.457z" fill="#df3f58"/><path d="m368.688 921.262c80.053-7.176 153.886-63.328 165.569-145.904 3.502-24.768 2.629-49.73-2.291-73.467.979 16.441-.002 32.896-3.742 49.666-5.867 26.313-19.249 48.688-35.622 69.699-28.947 37.148-66.277 62.449-112.91 71.322-53.742 10.225-107.438-16.078-143.959-54.422-19.686-20.67-30.26-44.902-36.285-72.539-3.225-14.789-5.527-30.064-6.217-45.184-.082-3.895-.088-7.791-.033-11.68-2.934 25.117-1.326 50.928 4.141 75.27 18.428 82.047 84.014 145.071 171.349 137.239z" fill="#df3f58"/><path d="m305.673 620.377c-3.279 1.857-5.9 4.504-7.318 7.596 1.307 7.867 7.152 13.213 15.223 16.752.053-.104.082-.203.145-.307 6.932-11.654 16.26-18.119 24.588-28.043 5.029-5.992 8.621-13.477 11.732-20.83-1.725 1.625-3.516 3.209-5.441 4.695-11.74 9.065-26.212 12.926-38.929 20.137z" fill="#df3f58"/><path d="m406.868 642.313c4.369-2.492 7.971-5.736 10.283-9.924.338-3.74-.631-7.756-2.566-11.492-4.498-8.682-12.207-14.326-15.932-23.816-.967-2.461-1.59-5.025-1.963-7.641-.191 1.178-.412 2.35-.58 3.525-2.724 18.973 6.659 32.109 10.758 49.348z" fill="#df3f58"/><path d="m625.826 497.705c4.764 9.051 10.748 17.475 18.785 24.887.023.021.039.047.063.072 4.119-1.91 8.055-4.082 11.566-6.674.152-.111.291-.217.439-.326 1.439-5.969-2.156-11.596-8.717-13.42-8.963-2.496-16.258-2.545-24.016-8.359.538 1.186 1.163 2.453 1.88 3.82z" fill="#df3f58"/><path d="m558.689 536.008c-.615 1.133-.873 2.143-.91 3.066.975.289 2.088.66 3.467 1.184 4.008 1.527 8.504 2.127 13.223 2.111.061-.311.131-.625.258-.955 4.055-10.672 5.58-20.354 5.471-29.871-2.391 4.613-5.707 8.879-9.541 12.906-4.016 4.215-9.079 6.244-11.968 11.559z" fill="#df3f58"/><g fill="#ff9780"><path d="m301.169 791.592c-8.219-14.199-17.527-26.918-23.6-42.342-5.895-14.971-7.709-30.977-6.551-46.943.436-6.01 1.51-11.924 2.682-17.822 10.096-50.877-39.926-54.824-51.297-.811-7.496 35.59-5.803 77.43 10.98 110.193 10.322 20.16 23.682 32.721 36.354 38.734 19.131 9.084 36.693 3.25 39.885-13.859 1.744-9.359-3.969-19.4-8.453-27.15z"/><path d="m705.221 575.129c17.617 22.078 25.127 45.006 17.354 73.666-1.459 5.375-3.58 11.953-5.168 18.824-9.191 39.703 23.359 64.621 45.781 21.92 6.176-11.756 10.303-25.58 11.615-34.684 7.541-52.229-11.848-95.65-32.965-119.111-32.76-36.404-71.596-4.455-36.617 39.385z"/><path d="m428.976 645.24c-.59 1.648-1.035 2.707-.598 4.426.084.336.441.414.723.293 1.836-.785 2.381-2.02 2.965-3.867.402-1.275.336-2.908-.842-3.684-.158-.105-.371-.086-.529 0-1.044.567-1.341 1.772-1.719 2.832z"/><path d="m425.192 648.1c.283-.535-.311-1.254-.877-.877-8.107 5.406-17.234 10.355-26.82 12.43-.432.094-.389.711 0 .826 10.651 3.15 22.666-2.749 27.697-12.379z"/><path d="m302.085 610.529c5.986-5.354 14.098-7.631 21.299-10.855.359-.16.182-.764-.199-.736-8.318.58-17.939 2.801-21.797 11.053-.215.454.308.886.697.538z"/><path d="m545.014 534.74c-.02-.328-.398-.406-.582-.158-5.859 7.926.242 17.227 8.217 20.377 9.943 3.932 21.893 4.043 31.891.41.65-.236.594-1.287-.17-1.262-7.801.244-16.012.484-23.73-.727-4.201-.658-8.537-2-11.912-4.656-4.605-3.624-3.437-8.902-3.714-13.984z"/><path d="m658.967 535.264c.178-.182-.004-.467-.24-.414-3.701.848-6.666 2.221-9.668 4.549-.262.199-.033.621.254.617 4.013-.045 6.91-1.987 9.654-4.752z"/><path d="m672.061 509.813c.01-.342-.436-.342-.549-.072-4.574 10.854-15.162 15.506-21.557 24.758-.281.406.256.885.652.652 9.291-5.438 21.122-13.462 21.454-25.338z"/><path d="m588.316 553.592c-.32.176-.369.746 0 .908 2.262 1.004 4.67.063 6.057-1.9.326-.461-.207-1.016-.688-.896-1.847.46-3.693.96-5.369 1.888z"/><path d="m326.458 661.178c.41-.109.404-.709 0-.822-4.67-1.313-9.59-1.342-14.324-2.357-5.838-1.258-10.66-4.02-15.139-7.902-.172-.148-.408.035-.311.238 4.92 10.151 19.522 13.601 29.774 10.843z"/><path d="m326.704 662.992c-.385.178-.439.787-.135 1.059 1.77 1.586 5.107 1.607 6.793-.127.184-.191.195-.51 0-.699-1.707-1.631-4.677-1.145-6.658-.233z"/></g><path d="m468.169 868.881c-2.07.275-5.998 2.48-5.842 4.975.016.273.166.463.424.557 1.207.441 2.709-.539 3.621-1.264 1.387-1.1 2.271-2.008 2.209-3.857-.006-.202-.184-.442-.412-.411z" fill="#68182b"/><path d="m413.757 604.637c-.18 0-.303.145-.313.313-.08 1.346.928 2.762 1.533 3.918.83 1.574 1.305 2.523 2.734 3.545.352.25.725-.102.768-.441.262-2.053-.455-3.307-1.596-5.033-.685-1.039-1.804-2.298-3.126-2.302z" fill="#68182b"/><path d="m472.823 866.926c39.121-30.389 58.546-90.883 52.53-139.107-.049-.395-.594-.408-.625 0-4.152 51.449-21.308 97.426-52.886 138.352-.474.61.475 1.147.981.755z" fill="#68182b"/><path d="m775.615 730.635c-.219.715.756 1.039 1.143.484 16.736-24.021 21.188-54.365 22.012-83.057.842-29.393-4.535-60.674-19.207-86.4-.119-.209-.467-.068-.391.166 9.063 28.078 13.111 56.738 12.41 86.234-.676 28.247-7.727 55.706-15.967 82.573z" fill="#68182b"/><path d="m766.438 748.035c4.094-2.295 6.418-6.953 6.967-11.441.033-.268-.314-.422-.52-.299-3.771 2.268-5.744 7.191-7.1 11.238-.129.385.33.684.653.502z" fill="#68182b"/></g></g></svg>