<?xml version="1.0" encoding="UTF-8" standalone="no"?>
<!-- Generator: Adobe Illustrator 26.2.1, SVG Export Plug-In . SVG Version: 6.00 Build 0)  -->

<svg
   version="1.1"
   id="Capa_1"
   x="0px"
   y="0px"
   viewBox="0 0 512 512"
   style="enable-background:new 0 0 512 512;"
   xml:space="preserve"
   width="512"
   height="512"
   sodipodi:docname="015-bear.svg"
   inkscape:version="1.4 (1:1.4+202410161351+e7c3feb100)"
   xmlns:inkscape="http://www.inkscape.org/namespaces/inkscape"
   xmlns:sodipodi="http://sodipodi.sourceforge.net/DTD/sodipodi-0.dtd"
   xmlns="http://www.w3.org/2000/svg"
   xmlns:svg="http://www.w3.org/2000/svg"><defs
   id="defs41" /><sodipodi:namedview
   id="namedview41"
   pagecolor="#505050"
   bordercolor="#ffffff"
   borderopacity="1"
   inkscape:showpageshadow="0"
   inkscape:pageopacity="0"
   inkscape:pagecheckerboard="1"
   inkscape:deskcolor="#505050"
   inkscape:zoom="0.7841797"
   inkscape:cx="-10.201743"
   inkscape:cy="323.26774"
   inkscape:window-width="1920"
   inkscape:window-height="1011"
   inkscape:window-x="0"
   inkscape:window-y="32"
   inkscape:window-maximized="1"
   inkscape:current-layer="g34" />
<g
   id="g41">
	<path
   style="fill:#FFFFFF;"
   d="M17.646,492.767C7.916,492.767,0,484.982,0,475.411c0-1.369,0.165-2.717,0.483-4.018   c0.951-25.305,9.565-49.574,24.448-68.695c14.296-18.366,33.176-31.198,54.022-36.924c2.616-9.584,6.208-20.387,12.062-30.368   C54.674,312.338,39.752,277.4,48.819,235.242c3.929-18.278,10.953-36.251,20.956-53.672c-14.438-4.146-30.028-11.653-41.221-25.197   c-11.713-14.169-16.421-32.042-13.993-53.122c6.313-54.841,51.081-79.389,92.647-79.389c15.41,0,28.986,3.573,38.228,10.061   c10.215,7.172,19.044,18.531,26.176,30.182l23.253-20.634v-7.479c0-9.257,7.502-16.759,16.759-16.759h106.973   c9.255,0,16.759,7.503,16.759,16.759v7.693l20.002,15.879c8.049-12.85,16.475-22.404,25.148-28.494   c9.241-6.488,22.817-10.061,38.229-10.061c41.568,0,86.334,24.548,92.646,79.389c2.445,21.237-2.347,39.211-14.241,53.424   c-11.399,13.622-27.173,21.091-41.805,25.163c10.788,18.206,18.31,37.044,22.441,56.255c9.608,44.677-7.557,81.013-48.519,103.949   c7.542,14,14.338,30.489,14.285,47.627c33.352,16.317,57.643,49.055,63.336,86.684c0.73,4.828-0.682,9.732-3.865,13.434   c-3.183,3.701-7.823,5.832-12.706,5.832H17.646z"
   id="path1" />
	<g
   id="g40">
		<g
   id="g4">
			<g
   id="g2">
				<path
   style="fill:#BBDDFC;"
   d="M493.107,475.033H20.445c-0.782,0-1.257-0.838-0.475-0.838      c0.167-22.262,7.318-44.607,20.977-62.176c13.686-17.569,32.429-29.747,54.467-32.988c3.491-14.105,7.29-28.546,15.642-40.445      c2.43-3.436,5.195-6.62,8.296-9.441c10.335-9.581,23.965-15.558,38.015-16.368c11.117-0.643,22.29-1.676,33.462-2.905      c48.685-5.335,97.706-14.217,145.05-8.798c12.737,1.452,25.362,3.938,37.792,7.821c8.938,2.793,17.904,6.173,25.139,12.094      c3.575,2.933,6.648,6.396,9.357,10.139c1.872,2.57,3.603,5.307,5.223,8.072c10,17.094,19.804,38.071,14.86,57.26      C462.158,408.053,487.744,439.616,493.107,475.033z"
   id="path2" />
			</g>
			<g
   id="g3">
				<path
   style="fill:#2C0B1F;"
   d="M319.818,331.352c-12.625,5-24.664,10.251-36.172,15.81      c-68.712,33.099-117.397,75.975-144.994,127.872h-5.53c-0.168-0.642-0.084-1.341,0.251-1.983      c26.731-50.64,72.93-92.846,137.676-125.889c14.636-7.486,30.194-14.469,46.702-21.005c1.452-0.559,3.073,0.14,3.631,1.592      C321.94,329.173,321.242,330.793,319.818,331.352z"
   id="path3" />
			</g>
		</g>
		<g
   id="g39">
			<g
   id="g26">
				<g
   id="g25">
					<g
   id="g5">
						<path
   style="fill:#a7ac93"
   d="M464.194,237.801C445.176,149.37,352.942,98.023,352.942,98.023        c-32.736-17.973-57.915-18.304-87.155-19.017c-23.534,2.14-53.793,1.044-86.529,19.017c0,0-92.234,51.347-111.252,139.778        c-19.018,88.431,88.431,109.35,144.532,109.35c16.351,0,28.964,0,38.66,0c23.574,0,29.802,0,29.802,0c9.697,0,22.31,0,38.66,0        C375.763,347.151,483.211,326.232,464.194,237.801z"
   id="path4" />
					</g>
					<g
   id="g6">
						<path
   style="fill:#CE9174;"
   d="M224.424,89.703c0,0-16.402-19.968-4.279-26.387s32.092,15.689,32.092,15.689        s-12.837-24.247,1.426-29.239c14.263-4.992,26.387,27.813,26.387,27.813s-1.426-23.534,9.271-20.681        c10.697,2.853,17.829,31.379,17.829,31.379L224.424,89.703z"
   id="path5" />
					</g>
					<g
   id="g11">
						<g
   id="g9">
							<g
   id="g7"
   style="fill:#a7ac93">
								<path
   style="fill:#a7ac93"
   d="M107.705,168.863c0,0-81.299,1.426-73.692-64.659c7.607-66.085,82.25-73.217,104.596-57.528          c22.345,15.689,38.51,60.38,38.51,60.38L107.705,168.863z"
   id="path6" />
							</g>
							<g
   id="g8">
								<path
   style="fill:#FFE6E5;"
   d="M141.039,91.281c-3.18-4.19-6.827-8.151-11.398-10.754          c-4.041-2.301-8.645-3.446-13.252-4.081c-14.707-2.025-30.46,1.259-41.971,10.634s-18.024,25.191-14.612,39.64          c2.303,9.756,8.839,18.25,17.152,23.853c8.312,5.603,18.29,8.447,28.29,9.133c6.22,0.427,12.57,0.035,18.481-1.95          c12.212-4.1,27.434-15.596,31.428-28.466C158.936,117.117,147.982,100.43,141.039,91.281z"
   id="path7" />
							</g>
						</g>
						<g
   id="g10"
   style="fill:#a7ac93">
							<path
   style="fill:#a7ac93"
   d="M157.929,92.503c-5.673-2.596-13.312-3.408-17.352,1.346         c-4.032,4.743-2.07,11.993,0.618,17.608c-4.978-3.48-12.643-3.125-16.495,1.57c-3.852,4.696-1.899,13.2,3.938,14.877         c-5.414,2.851-10.152,6.975-13.723,11.943c-1.512,2.104-2.864,4.547-2.649,7.129c0.431,5.178,6.635,7.739,11.83,7.826         c11.549,0.192,22.266-6.028,31.15-13.41c8.047-6.687,17.392-16.003,20.276-26.446         C178.24,105.102,165.947,96.173,157.929,92.503z"
   id="path9" />
						</g>
					</g>
					<g
   id="g16">
						<g
   id="g14">
							<g
   id="g12"
   style="fill:#a7ac93">
								<path
   style="fill:#a7ac93"
   d="M423.842,166.01c0,0,81.299,1.426,73.692-64.659c-7.607-66.085-82.25-73.217-104.596-57.528          c-22.345,15.689-38.51,60.38-38.51,60.38L423.842,166.01z"
   id="path11" />
							</g>
							<g
   id="g13">
								<path
   style="fill:#FFE6E5;"
   d="M390.509,88.429c3.18-4.19,6.827-8.151,11.398-10.754c4.041-2.301,8.645-3.446,13.252-4.081          c14.707-2.025,30.46,1.259,41.971,10.634c11.511,9.375,18.023,25.191,14.612,39.64c-2.303,9.756-8.84,18.25-17.152,23.853          c-8.312,5.603-18.29,8.447-28.29,9.133c-6.22,0.427-12.57,0.035-18.481-1.95c-12.212-4.1-27.434-15.596-31.428-28.466          C372.611,114.264,383.566,97.577,390.509,88.429z"
   id="path12" />
							</g>
						</g>
						<g
   id="g15"
   style="fill:#a7ac93">
							<path
   style="fill:#a7ac93"
   d="M373.619,89.65c5.673-2.596,13.311-3.408,17.352,1.346c4.032,4.743,2.07,11.993-0.618,17.608         c4.978-3.48,12.644-3.125,16.495,1.57c3.852,4.696,1.899,13.2-3.938,14.877c5.414,2.851,10.152,6.975,13.723,11.943         c1.512,2.104,2.864,4.547,2.649,7.129c-0.431,5.178-6.635,7.739-11.83,7.826c-11.549,0.192-22.266-6.028-31.15-13.41         c-8.047-6.687-17.392-16.003-20.276-26.446C353.308,102.249,365.6,93.32,373.619,89.65z"
   id="path14" />
						</g>
					</g>
					<g
   id="g24">
						<g
   id="g23">
							
							
							<g
   id="g22">
								<g
   id="g19">
									<path
   style="fill:#FFE6E5;"
   d="M227.543,176.595c-17.429,11.722-29.092,31.31-36.663,50.929           c-6.686,17.327-16.365,34.234-17.738,53.107c-0.427,5.874,0.051,12.009,2.835,17.2c3.42,6.378,9.982,10.602,16.891,12.757           c15.445,4.817,33.449,2.985,49.371,2.537c17.381-0.489,34.828-1.165,52.158,0.665c9.203,0.972,18.83,2.596,27.467-0.73           c10.861-4.184,18.046-15.663,19.351-26.905c0.896-7.715-0.271-15.507-1.547-23.168           c-2.466-14.803-5.373-29.621-10.662-43.665c-12.811-34.018-43.345-61.438-81.735-51.618           C239.992,169.566,233.438,172.631,227.543,176.595z"
   id="path18" />
								</g>
								<g
   id="g20">
									<path
   style="fill:#2C0B1F;"
   d="M248.656,293.841c-0.428,0-0.863-0.098-1.272-0.308c-1.372-0.704-1.914-2.387-1.21-3.759           l14.263-27.812c0.496-0.971,1.487-1.601,2.609-1.517c1.091,0.049,2.054,0.728,2.465,1.74l10.697,26.388           c0.58,1.429-0.109,3.06-1.54,3.639c-1.433,0.578-3.058-0.109-3.637-1.538l-8.405-20.736l-11.481,22.384           C250.65,293.288,249.671,293.841,248.656,293.841z"
   id="path19" />
								</g>
								<g
   id="g21">
									<path
   style="fill:#2C0B1F;"
   d="M225.289,226.721c14.084-5.042,45.646-13.096,75.558,1.802           c3.394,1.69,3.922,5.568,1.213,7.947l-35.57,31.223c-2.594,2.277-7.031,2.196-9.498-0.175l-33.97-32.641           C220.254,232.218,221.38,228.121,225.289,226.721z"
   id="path20" />
								</g>
							</g>
						</g>
					</g>
				</g>
			</g>
			<g
   id="g29">
				
				
			</g>
			<g
   id="g30">
				<path
   style="fill:#2C0B1F;"
   d="M177.342,231.025h-57.765c-3.085,0-5.586-2.501-5.586-5.586c0-3.085,2.501-5.586,5.586-5.586      h57.765c3.085,0,5.586,2.501,5.586,5.586C182.929,228.523,180.428,231.025,177.342,231.025z"
   id="path29" />
			</g>
			<g
   id="g31">
				<path
   style="fill:#2C0B1F;"
   d="M403.651,231.025h-57.766c-3.085,0-5.586-2.501-5.586-5.586c0-3.085,2.501-5.586,5.586-5.586      h57.766c3.085,0,5.586,2.501,5.586,5.586C409.237,228.523,406.736,231.025,403.651,231.025z"
   id="path30" />
			</g>
			<g
   id="g34">
				<g
   id="g32"
   style="fill:#5096d8;fill-opacity:1">
					<path
   style="fill:#5096d8;fill-opacity:1"
   d="M198.525,108.717l140.574-0.896c19.066-0.121,28.025-20.705,13.894-31.924L317.1,47.402       l-98.821-0.78l-34.793,30.878C170.383,89.129,179.877,108.836,198.525,108.717z"
   id="path31" />
				</g>
				<g
   id="g33">
					<rect
   x="214.427"
   y="35.028"
   style="fill:#BBDDFC;"
   width="106.973"
   height="12.837"
   id="rect32" />
				</g>
			</g>
			<g
   id="g38">
				<g
   id="g35">
					<path
   style="fill:#2C0B1F;"
   d="M374.886,146.22c-1.542,0-2.793-1.249-2.793-2.793v-61.33c0-1.544,1.251-2.793,2.793-2.793       c1.543,0,2.793,1.249,2.793,2.793v61.33C377.68,144.971,376.429,146.22,374.886,146.22z"
   id="path34" />
				</g>
				<g
   id="g36">
					<path
   style="fill:#2C0B1F;"
   d="M362.763,146.22c-1.543,0-2.793-1.249-2.793-2.793v-61.33c0-1.544,1.251-2.793,2.793-2.793       c1.543,0,2.793,1.249,2.793,2.793v61.33C365.556,144.971,364.306,146.22,362.763,146.22z"
   id="path35" />
				</g>
				<g
   id="g37">
					<path
   style="fill:#2C0B1F;"
   d="M350.64,146.22c-1.542,0-2.793-1.249-2.793-2.793v-61.33c0-1.544,1.251-2.793,2.793-2.793       c1.543,0,2.793,1.249,2.793,2.793v61.33C353.433,144.971,352.182,146.22,350.64,146.22z"
   id="path36" />
				</g>
			</g>
		</g>
	</g>
</g>















</svg>
