<?xml version="1.0" encoding="UTF-8" standalone="no"?>
<!-- Generator: Adobe Illustrator 26.2.1, SVG Export Plug-In . SVG Version: 6.00 Build 0)  -->

<svg
   version="1.1"
   id="Capa_1"
   x="0px"
   y="0px"
   viewBox="0 0 512 512"
   style="enable-background:new 0 0 512 512;"
   xml:space="preserve"
   width="512"
   height="512"
   sodipodi:docname="016-bear.svg"
   inkscape:version="1.4 (1:1.4+202410161351+e7c3feb100)"
   xmlns:inkscape="http://www.inkscape.org/namespaces/inkscape"
   xmlns:sodipodi="http://sodipodi.sourceforge.net/DTD/sodipodi-0.dtd"
   xmlns="http://www.w3.org/2000/svg"
   xmlns:svg="http://www.w3.org/2000/svg"><defs
   id="defs32" /><sodipodi:namedview
   id="namedview32"
   pagecolor="#505050"
   bordercolor="#ffffff"
   borderopacity="1"
   inkscape:showpageshadow="0"
   inkscape:pageopacity="0"
   inkscape:pagecheckerboard="1"
   inkscape:deskcolor="#505050"
   inkscape:zoom="1.1089975"
   inkscape:cx="170.42419"
   inkscape:cy="251.12771"
   inkscape:window-width="1920"
   inkscape:window-height="1011"
   inkscape:window-x="0"
   inkscape:window-y="32"
   inkscape:window-maximized="1"
   inkscape:current-layer="g11" />
<g
   id="g32">
	<path
   style="fill:#FFFFFF;"
   d="M118.935,512c-4.016,0-7.863-1.615-10.674-4.483c-2.811-2.868-4.349-6.748-4.268-10.761   c0.345-17.217,3.748-32.084,8.787-45.395c-0.388,0.01-0.771,0.015-1.149,0.015c-3.023,0-6.109-0.323-9.172-0.961   c-16.509-3.44-38.806-17.01-51.479-39.121c-2.449-1.84-4.39-4.365-5.5-7.351c-1.373-3.695-13.054-36.838,0.054-61.06   c0.981-1.813,2.072-3.528,3.269-5.143c-14.488-19.42-19.739-37.1-15.614-52.686c2.885-10.897,8.336-19.267,15.742-24.58   c-5.404-15.295-6.127-32.343-2.136-50.902c3.964-18.431,11.154-36.547,21.448-54.086c-14.488-3.888-30.435-11.186-41.708-24.824   C15.29,117.056,10.773,99.861,13.111,79.554C19.213,26.537,62.52,2.807,102.735,2.807c14.849,0,27.893,3.416,36.728,9.619   c14.444,10.141,26.063,29.018,33.888,44.806c5.974-2.723,12.114-5.03,18.484-6.947c-0.209-2.946,0.06-5.764,0.808-8.444   c1.678-6.013,5.752-10.992,11.469-14.018c3.618-1.916,7.604-2.887,11.845-2.887c3.05,0,6.071,0.527,9.005,1.421   c2.754-6.004,7.745-10.509,14.186-12.763c2.554-0.894,5.206-1.348,7.879-1.348c8.279,0,15.159,4.14,20.709,9.842   c2.949-1.667,6.276-2.553,9.745-2.553c1.834,0,3.699,0.249,5.542,0.741c9.392,2.505,16.757,10.704,22.841,25.571   c10.973,2.312,21.386,5.761,31.804,10.539c7.925-16.426,19.836-36.208,34.871-46.765C381.372,3.416,394.416,0,409.265,0   c40.215,0,83.522,23.73,89.624,76.746c2.355,20.458-2.241,37.751-13.662,51.398c-11.487,13.725-27.635,20.981-42.327,24.792   c11.092,18.313,18.785,37.284,22.947,56.636c5.797,26.952,1.671,50.654-12.26,70.449c-21.392,30.396-61.372,43.911-91.186,49.898   c5.135,17.216,12.183,41.067,21.164,71.946c20.647,70.853,16.242,94.389,14.399,99.916C395.93,507.884,390.219,512,383.786,512   H118.935z"
   id="path1" />
	<g
   id="g31">
		<g
   id="g3">
			<path
   style="fill:#fff9f0;fill-opacity:1"
   d="M384.16,498.575H119.309c0.897-44.611,24.56-71.911,46.404-106.508     c12.604-19.927,22.766-43.216,29.143-59.332c4.658-11.856,7.273-19.852,7.273-19.852l135.601-12.728c0,0,0.199,0.673,0.623,2.067     c2.615,8.494,13.226,43.415,31.235,105.338C390.537,479.445,384.16,498.575,384.16,498.575z"
   id="path2" />
			<path
   style="fill:#2C0B1F;"
   d="M338.354,302.222c-0.971,0.672-1.943,1.345-2.914,2.018     c-32.107,21.845-70.366,38.608-110.593,38.508c-11.01-0.05-23.688-2.441-29.99-10.013c4.658-11.856,7.273-19.852,7.273-19.852     l135.601-12.728C337.731,300.155,337.93,300.827,338.354,302.222z"
   id="path3" />
		</g>
		<g
   id="g21">
			<path
   style="fill:#fff8f0;fill-opacity:1"
   d="M451.61,214.236C432.898,127.224,342.144,76.701,342.144,76.701     c-32.211-17.685-56.986-18.011-85.756-18.712c-23.156,2.105-52.929,1.028-85.141,18.712c0,0-90.754,50.523-109.466,137.535     c-18.712,87.012,87.012,107.595,142.213,107.595c16.088,0,28.499,0,38.04,0c23.196,0,29.324,0,29.324,0c9.541,0,21.952,0,38.04,0     C364.598,321.831,470.322,301.247,451.61,214.236z"
   id="path4" />
			<path
   style="fill:#fff9f0;fill-opacity:1"
   d="M215.688,68.514c0,0-16.139-19.648-4.21-25.963c11.929-6.316,31.577,15.438,31.577,15.438     s-12.631-23.858,1.404-28.77c14.034-4.912,25.963,27.367,25.963,27.367s-1.404-23.156,9.122-20.35     c10.526,2.807,17.543,30.875,17.543,30.875L215.688,68.514z"
   id="path5" />
			<g
   id="g8">
				<g
   id="g7">
					<path
   style="fill:#fff9f0;fill-opacity:1"
   d="M100.842,146.404c0,0-79.995,1.403-72.51-63.622c7.485-65.025,80.93-72.042,102.917-56.605       c21.987,15.438,37.892,59.411,37.892,59.411L100.842,146.404z"
   id="path6" />
					<path
   style="fill:#FFE6E5;"
   d="M133.641,70.067c-3.129-4.123-6.717-8.021-11.215-10.581c-3.976-2.264-8.506-3.391-13.039-4.015       c-14.471-1.992-29.971,1.239-41.298,10.464c-11.327,9.225-17.734,24.787-14.378,39.004c2.267,9.6,8.698,17.957,16.877,23.47       c8.179,5.512,17.996,8.311,27.836,8.986c6.12,0.42,12.368,0.034,18.184-1.919c12.015-4.034,26.993-15.346,30.924-28.009       C151.251,95.488,140.472,79.069,133.641,70.067z"
   id="path7" />
				</g>
				<path
   style="fill:#fff9f0;fill-opacity:1"
   d="M150.259,71.269c-5.582-2.555-13.098-3.353-17.074,1.324c-3.968,4.667-2.037,11.8,0.608,17.326      c-4.898-3.424-12.44-3.075-16.23,1.545c-3.79,4.62-1.869,12.988,3.875,14.638c-5.327,2.805-9.989,6.863-13.503,11.752      c-1.487,2.07-2.818,4.475-2.607,7.015c0.424,5.094,6.528,7.615,11.64,7.7c11.364,0.189,21.909-5.932,30.65-13.195      c7.918-6.58,17.113-15.746,19.951-26.021C170.245,83.666,158.15,74.88,150.259,71.269z"
   id="path8" />
			</g>
			<g
   id="g11">
				<g
   id="g10">
					<path
   style="fill:#fff9f0;fill-opacity:1"
   d="M411.907,143.597c0,0,79.995,1.404,72.51-63.622S403.486,7.933,381.499,23.371       c-21.987,15.438-37.892,59.412-37.892,59.412L411.907,143.597z"
   id="path9" />
					<path
   style="fill:#FFE6E5;"
   d="M379.107,67.26c3.129-4.123,6.717-8.021,11.215-10.581c3.976-2.264,8.506-3.391,13.039-4.015       c14.471-1.993,29.971,1.239,41.298,10.464c11.327,9.225,17.734,24.787,14.378,39.004c-2.267,9.6-8.698,17.957-16.877,23.47       c-8.179,5.513-17.996,8.311-27.836,8.986c-6.12,0.42-12.368,0.034-18.184-1.919c-12.016-4.034-26.993-15.346-30.924-28.009       C361.497,92.682,372.276,76.262,379.107,67.26z"
   id="path10" />
				</g>
				<path
   style="fill:#fff9f0;fill-opacity:1"
   d="M362.489,68.462c5.582-2.555,13.098-3.353,17.074,1.324c3.968,4.667,2.037,11.8-0.609,17.326      c4.898-3.424,12.441-3.075,16.231,1.545c3.79,4.62,1.869,12.988-3.875,14.638c5.327,2.806,9.99,6.863,13.503,11.752      c1.487,2.07,2.818,4.475,2.606,7.015c-0.424,5.095-6.528,7.615-11.64,7.7c-11.364,0.189-21.909-5.932-30.65-13.195      c-7.918-6.58-17.113-15.746-19.951-26.021C342.504,80.859,354.599,72.073,362.489,68.462z"
   id="path11" />
			</g>
			<g
   id="g20">
				<g
   id="g12">
					<ellipse
   style="fill:#ffa3a3;fill-opacity:1"
   cx="123.297"
   cy="234.351"
   rx="37.892"
   ry="18.712"
   id="ellipse11" />
					<ellipse
   style="fill:#ffa3a3;fill-opacity:1"
   cx="380.122"
   cy="234.351"
   rx="37.892"
   ry="18.712"
   id="ellipse12" />
				</g>
				<g
   id="g19">
					
					
					<g
   id="g18">
						
						<path
   style="fill:#2C0B1F;"
   d="M216.539,173.16c13.858-4.961,44.914-12.886,74.346,1.774c3.339,1.663,3.859,5.479,1.193,7.819        l-34.999,30.722c-2.553,2.241-6.918,2.161-9.345-0.172l-33.425-32.118C211.585,178.569,212.693,174.537,216.539,173.16z"
   id="path15" />
						<g
   id="g16">
							<circle
   style="fill:#2C0B1F;"
   cx="162.125"
   cy="183.828"
   r="17.777"
   id="circle15" />
							<path
   style="fill:#2C0B1F;"
   d="M357.667,183.828c0,9.818-7.959,17.777-17.776,17.777c-9.818,0-17.777-7.959-17.777-17.777         c0-9.818,7.959-17.777,17.777-17.777C349.709,166.051,357.667,174.01,357.667,183.828z"
   id="path16" />
						</g>
						<path
   style="fill:#2C0B1F;"
   d="M237.951,232.487c-1.657,0-3.314-0.333-4.872-1c-0.052-0.022-0.103-0.048-0.152-0.077        l-9.746-5.697c-0.655-0.383-0.876-1.225-0.493-1.88c0.383-0.656,1.225-0.876,1.88-0.493l9.669,5.652        c2.529,1.058,5.392,0.988,7.868-0.198c2.501-1.198,4.363-3.417,5.109-6.087l3.288-11.767c0.16-0.573,0.671-0.978,1.266-1.003        c0.598-0.018,1.138,0.335,1.346,0.893l4.297,11.515c0.981,2.631,3.056,4.696,5.691,5.665c2.611,0.96,5.499,0.746,7.937-0.588        l7.464-5.411c0.614-0.444,1.473-0.309,1.919,0.306c0.445,0.615,0.308,1.474-0.306,1.919l-7.533,5.46        c-0.044,0.032-0.09,0.061-0.137,0.087c-3.154,1.757-6.905,2.051-10.294,0.806c-3.388-1.247-6.055-3.901-7.317-7.284        l-2.821-7.561l-2.152,7.702c-0.959,3.434-3.354,6.286-6.569,7.826C241.606,232.082,239.779,232.487,237.951,232.487z"
   id="path17" />
						<path
   style="fill:#2C0B1F;"
   d="M241.989,231.194c0,0,2.456,20.349,11.929,20.349c9.473,0,10.175-21.402,10.175-21.402        s-10.877-6.316-12.982-23.507C251.111,206.634,251.111,229.79,241.989,231.194z"
   id="path18" />
					</g>
				</g>
			</g>
		</g>
		<g
   id="g30">
			<path
   style="fill:#FF6A47;"
   d="M110.971,287.218c0,0-51.513-40.065-62.96,3.18c-11.447,43.245,93.486,108.749,93.486,108.749     s79.495-105.569,40.065-136.095C138.819,229.96,110.971,287.218,110.971,287.218z"
   id="path21" />
			<g
   id="g26">
				<path
   style="fill:#fff9f0;fill-opacity:1"
   d="M81.717,337.459c0,0-25.438,0-25.438,37.522s32.161,58.69,49.605,62.324      c30.526,6.359,44.517-36.25,44.517-36.25l-26.71-15.899C123.69,385.156,126.87,337.459,81.717,337.459z"
   id="path22" />
				<path
   style="fill:#2C0B1F;"
   d="M61.155,401.157c-0.558,0-1.083-0.343-1.289-0.896c-0.451-1.217-10.943-30.027-0.813-48.745      c3.959-7.316,10.555-12.069,19.604-14.125c10.751-2.445,20.132-0.646,27.878,5.34c15.928,12.312,20.153,38.594,20.437,47.682      c0.023,0.759-0.572,1.393-1.331,1.417c-0.765,0.013-1.393-0.572-1.417-1.331c-0.254-8.14-4.359-33.989-19.371-45.593      c-7.065-5.462-15.674-7.088-25.588-4.835c-8.243,1.874-14.23,6.165-17.796,12.754c-9.542,17.633,0.867,46.194,0.973,46.48      c0.264,0.711-0.099,1.502-0.811,1.767C61.475,401.129,61.314,401.157,61.155,401.157z"
   id="path23" />
				<g
   id="g25">
					<path
   style="fill:#2C0B1F;"
   d="M78.854,376.157c-0.674,0-1.286-0.459-1.451-1.144c-4.488-18.594-0.077-35.931,0.113-36.659       c0.208-0.798,1.027-1.275,1.821-1.069c0.798,0.208,1.277,1.023,1.07,1.821c-0.045,0.172-4.406,17.365-0.1,35.206       c0.193,0.802-0.3,1.609-1.102,1.803C79.088,376.143,78.97,376.157,78.854,376.157z"
   id="path24" />
					<path
   style="fill:#2C0B1F;"
   d="M94.118,376.475c-0.64,0-1.232-0.415-1.428-1.058c-5.792-18.985-0.541-36.097-0.314-36.816       c0.248-0.786,1.087-1.221,1.872-0.976c0.787,0.247,1.224,1.085,0.978,1.873c-0.052,0.167-5.19,16.979,0.322,35.048       c0.241,0.789-0.204,1.624-0.993,1.865C94.409,376.454,94.262,376.475,94.118,376.475z"
   id="path25" />
				</g>
			</g>
			<g
   id="g29">
				<g
   id="g27">
					<path
   style="fill:#fff9f0;fill-opacity:1"
   d="M294.339,342.547l-49.817,29.572c0,0-75.679-60.098-104.509-30.42       c-28.83,29.678,3.392,103.449,61.052,126.344c57.66,22.895,127.192-14.415,127.192-14.415L294.339,342.547z"
   id="path26" />
					<path
   style="fill:#2C0B1F;"
   d="M237.502,483.373c-10.221,0-21.827-1.664-34.751-5.972       c-39.664-13.221-64.629-53.4-71.776-87.355c-4.821-22.908-1.471-42.234,8.963-51.697c26.796-24.3,96.026,25.847,104.107,31.854       l41.859-19.993c0.686-0.324,1.505-0.037,1.833,0.648c0.327,0.685,0.037,1.505-0.648,1.833l-42.609,20.351       c-0.464,0.22-1.012,0.165-1.421-0.144c-0.748-0.566-75.08-56.271-101.273-32.512c-9.703,8.8-12.738,27.153-8.12,49.095       c6.985,33.188,31.325,72.438,69.956,85.314c61.324,20.441,92.922-19.479,93.234-19.885c0.463-0.601,1.326-0.713,1.927-0.251       c0.602,0.463,0.714,1.326,0.251,1.927c-0.333,0.432-8.33,10.68-24.256,18.443C265.862,479.373,253.349,483.373,237.502,483.373       z"
   id="path27" />
				</g>
				<path
   style="fill:#2C0B1F;"
   d="M153.582,380.383c-0.425,0-0.843-0.196-1.112-0.566l-20.351-27.982      c-0.446-0.614-0.311-1.473,0.303-1.919c0.612-0.447,1.473-0.311,1.919,0.303l20.351,27.982c0.446,0.614,0.311,1.473-0.303,1.919      C154.145,380.297,153.862,380.383,153.582,380.383z"
   id="path28" />
				<path
   style="fill:#2C0B1F;"
   d="M167.997,369.055c-0.455,0-0.903-0.207-1.197-0.599l-23-30.738      c-0.494-0.661-0.359-1.597,0.301-2.091s1.596-0.36,2.091,0.301l23,30.738c0.494,0.661,0.359,1.597-0.301,2.091      C168.622,368.958,168.308,369.055,167.997,369.055z"
   id="path29" />
			</g>
		</g>
	</g>
</g>















</svg>
