<svg id="Fruit" height="512" viewBox="0 0 992.13 992.13" width="512" xmlns="http://www.w3.org/2000/svg"><g><path d="m933.303 435.666c-7.953-5.064-17.561-7.633-28.561-7.633-8.193 0-17.361 1.422-28.035 4.352-5.014 1.377-9.887 2.928-14.646 4.531-38.311-65.529-109.43-105.398-190.541-105.398-2.584 0-5.166.041-7.76.125-5.748.189-11.498.59-17.197 1.199-1.133-.992-2.277-1.912-3.41-2.775 7.695-10.23 16.166-21.916 20.164-39.008 4.795-20.484-1.541-34.039-7.697-41.807-9.918-12.506-26.34-19.117-47.488-19.117-8.551 0-17.543 1.088-25.998 3.145-1.018.248-2.07.521-3.143.801-1.277-5.48-4.098-12.867-11.842-20.244-5.221-4.975-14.461-10.904-28.828-10.904-12.629 0-25.195 4.613-35.191 8.742-.41-2.58-.771-5.184-1.057-7.256-1.668-12.07-3.396-24.549-9.932-34.232-5.508-8.162-16.938-16.514-30.057-16.773 0 0-2.912-.057-4.076-.092-.5-1.373-.961-2.814-1.432-4.27-3.373-10.402-9.02-27.809-27.598-35.652-6.146-2.596-12.568-3.855-19.635-3.855-5.309 0-10.008.707-14.152 1.33-1.943.291-3.904.605-5.904.768-.209.018-.414.025-.619.025-4.447 0-10.893-5.176-17.717-10.658-7.031-5.65-15.002-12.055-24.92-16.289-6.33-2.703-13.057-4.072-19.996-4.072-22.127 0-40.861 13.912-51.018 26.936-11.189 14.352-12.314 30.805-13.135 42.816-.342 4.979-.666 9.732-1.57 13.139-1.873 1.563-5.008 3.834-7.063 5.32-5.578 4.039-10.85 7.854-14.883 12.574-7.582 8.875-14.596 23.754-11.539 38.908 2.451 12.152 8.555 20.85 13.521 27.844-.219 1.902-.855 4.887-1.313 7.021-1.027 4.82-2.193 10.285-2.342 16.232-.414 16.545 6.604 29.025 14.854 38.902-.23.107-.457.219-.686.332-12.123 6.002-21.621 14.164-29.279 25.271-2.049.498-4.102 1.018-6.152 1.555-5.82 1.518-11.117 3.535-15.791 5.314-5.77 2.197-11.219 4.271-14.898 4.271-.781 0-1.484-.092-2.209-.287-1.9-.521-3.77-1.076-5.623-1.623-8.221-2.436-17.535-5.193-28.521-5.193-2.662 0-5.336.168-7.949.498-12.539 1.588-34.596 10.385-41.408 51.473-.844 5.078-1.021 9.555-1.166 13.148-.242 6.047-.408 6.244-1.021 6.975-7.162 8.529-13.904 18.344-21.213 30.885-52.74 90.508-42.352 207.499 25.262 284.499 42.705 48.633 102.969 75.416 169.695 75.416 32.008 0 64.898-6.195 96.365-18.045 7.266 14.896 15.939 28.596 25.924 40.92 42.053 51.914 101.348 82.275 166.963 85.494 3.332.162 6.672.242 10.002.242 57.275 0 117.154-23.834 166.934-65.959 25.008 16.383 37.391 16.385 41.967 16.385 9.396 0 17.924-3.514 24.012-9.891 5.014-5.246 8.053-11.875 9.086-19.777 9.096-3.732 16.402-11.254 19.41-20.756 1.064-3.375 1.445-6.656 1.561-9.588 5.656-3.684 11.613-9.576 14.277-19.264 7.461-27.117-17.764-43.586-27.258-49.787l-1.506-.984c-1.625-1.072-3.35-2.209-5.164-3.375.486-1.959.943-3.922 1.375-5.889 54.564-53.246 82.158-131.627 73.547-206.604 4.592-1.162 9.189-2.246 13.721-3.314l3.131-.74c26.762-6.203 43.137-21.922 44.924-43.124 1.131-13.444-5.062-25.843-16.556-33.153z" fill="#fff"/><g><path d="m920.469 455.808c-9.902-6.309-24.9-3.834-37.436-.395-10.498 2.883-20.805 6.779-31.018 10.256-.539.184-1.094.385-1.645.58-32.87-72.609-107.376-113.294-185.829-110.736-9.701.316-19.145 1.289-28.322 2.869-1.629-4.365-4.344-7.053-8.953-10.357-7.941-5.693-23.6-2.197-13.072-18.557 9.805-15.232 21.596-25.588 25.869-43.852 7.826-33.439-29.867-34.586-52.287-29.131-10.348 2.516-24.471 7.963-29.6-6.008-3.205-8.732-.506-12.686-7.5-19.35-12.199-11.623-38.736 3.469-50.646 7.59-25.464 8.813-17.894-40.67-27.683-55.172-2.104-3.113-6.887-6.182-10.736-6.258-14.365-.283-20.205-.217-25.813-15.17-3.623-9.672-5.615-22.289-16.109-26.719-9.588-4.049-18.67-.752-28.471.045-22.463 1.822-36.027-20.846-54.566-28.762-15.771-6.734-33.287 3.385-42.801 15.584-11.77 15.094-5.084 36.359-12.389 52.984-2.945 6.707-19.695 15.559-24.939 21.695-3.961 4.637-7.549 12.404-6.285 18.668 1.635 8.1 6.414 14.219 11.102 20.883 6.967 9.908-.484 24.135-.77 35.537-.549 21.965 23.875 33.846 34.332 49.902 5.971 9.166-18.068 6.514-20.367 6.664-4.336.279-9.18 1.545-13.074 3.473-11.533 5.711-18.875 13.779-24.688 24.9-5.133 1.09-10.24 2.305-15.311 3.631-15.463 4.035-29.055 13.635-45.213 9.23-11.094-3.025-21.168-7.137-32.811-5.664-14.045 1.777-18.98 20.428-20.848 31.691-1.994 12.018 1.154 21.307-7.459 31.568-7.174 8.543-13.26 17.932-18.867 27.553-47.162 80.934-39.012 186.579 22.574 256.715 67.291 76.633 172.748 83.762 260.754 41.811 7.598 20.895 18.199 40.367 31.842 57.207 37.334 46.09 90.209 73.76 149.575 76.67 64.359 3.156 128.553-28.699 174.066-72.482 16.244 12.645 54.619 39.371 53.244 9.494-.154-3.342-.363-6.629-.705-9.959-.631-6.201 6.609-3.781 10.656-3.52 4.166.271 8.926-2.588 10.205-6.631 1.641-5.188-1.855-16.629 4.061-19.043 4.578-1.871 10.027-3.506 11.523-8.947 3.008-10.928-11.213-19.441-18.6-24.311-6.074-4.002-13.166-8.699-20.545-12.158 3.332-9.615 5.896-19.432 7.697-29.379 57.693-52.592 84.854-135.043 68.51-211.479 12.951-4.409 26.441-7.459 38.42-10.299 11.148-2.582 25.412-8.773 26.516-21.863.437-5.164-1.942-8.68-5.588-10.998z" fill="#68182b"/><path d="m589.176 267.015c9.537-2.207 18.273-4.271 28.412-2.898 17.326 2.35 13.066 20.178 8.158 31.068-7.17 15.916-21.867 26.66-28.004 43.316-5.176 14.057 9.504 15.227 20.047 19.137 5.951 2.205 2.951 3.975-2.639 5.582-51.254 14.732-92.949 49.365-122.272 95.906-2.861 4.539-8.262 11.346-10.965 12.785-3.893 2.074-5.777 1.293-8.205-4.229-6.414-14.6-9.404-27.57-6.771-41.102 5.957-30.605 31.742-53.508 56.987-73.789 26.709-21.458 64.894-47.848 65.252-85.776z" fill="#b1d045"/><path d="m508.648 246.859c8.234-2.846 36.469-18.324 38.182.211.646 7.02 3.316 12.867 8.033 17.936 4.588 4.932 11.631 5.67 18.559 5.014 7.678-.729 10.154 1.992 6.924 12.371-11.125 35.729-56.855 61.139-82.343 83.98-16.132 14.455-28.865 30.986-34.847 49.844-2.701 8.527-3.814 7.041-5.518 1.168-1.91-6.59-4.104-13.096-6.615-19.564-2.938-7.566-12.143-25.205-13.674-36.832-3.35-25.369 8.842-48.572 24.215-70.83 10.109-14.637 16.543-28.035 17.994-43.236 8.033 5.588 20.564 2.889 29.09-.062z" fill="#b1d045"/><path d="m429.072 173.513c3.83 7.98 10.98 18.895 21.668 16.16 13.457-3.441 17.217 7.643 18.953 20.807 3.783 28.676 6.891 42.559-5.936 64.781-7.025 12.16-15.982 23.063-22.887 35.324-5.676 10.082-9.07 20.77-10.203 31.596-.934 8.9-1.096 12.322-9.395-.896-2.119-3.377-4.264-6.736-6.422-10.088-10.119-15.727-25.357-41.785-23.758-71.469 1.055-19.609 10.367-38.945 16.816-57.213 4.193-11.885 14.594-38.129 9.684-54.373 5.615 5.74 7.171 16.395 11.48 25.371z" fill="#b1d045"/><path d="m371.017 141.81c10.596 4.346 19.957 4.684 31.059 2.648 6.924-1.27 10.193 2.277 10.516 12.611.793 25.471-21.738 74.186-25.059 86.025-2.828 10.088-3.441 19.957-2.516 29.646 1.074 11.248-.744 9.787-4.9 2.508-15.498-27.158-24.252-46.678-24.309-68.57-.035-13.254 7.396-25.725 10.377-38.416 2.365-10.072 1.844-19.822-.807-29.164 1.856.978 3.723 1.927 5.639 2.712z" fill="#b1d045"/><path d="m329.677 117.427c5.389 1.043 10.76 3.555 15.51 7.594 8.773 7.459 14.152 13.209 15.09 23.492 1.303 14.365-3.258 28.377-8.488 43.746-.648 1.904-1.152 3.836-1.529 5.787-1.295 6.619-1.781 8.844-5.359-.572-8.291-21.83-16.166-45.027-20.645-67.906-1.993-10.158-1.298-13.44 5.421-12.141z" fill="#b1d045"/><path d="m296.169 155.441c.357-4.971.609-9.883 1.275-14.379 1.34-9.051 5.57-15.592 11.252-19.582 6.633-4.662 8 1.551 9.059 6.971 4.938 25.363 14.164 50.479 22.672 74.531 1.129 3.195 2.299 6.375 3.504 9.547 3.764 9.898 1.451 9.195-3.291 5.789-3.91-2.805-8.07-5.365-12.467-7.758-13.082-7.119-22.781-14.088-28.396-24.521-5.123-9.534-4.381-19.952-3.608-30.598z" fill="#b1d045"/><path d="m265.759 204.757c4.154-6.568 11.975-12.004 18.715-17.506 2.504-2.047 4.443-4.424 5.961-7.033 2.205 7.854 5.949 15.084 11.857 21.686 6.072 6.787 14.75 10.182 22.689 14.113 8.102 4.012 15.482 9.125 21.764 15.395 12.049 12.025 16.336 24.236 24.381 40.125 3.766 7.441 2.207 6.094-2.547 3.404-8.953-5.059-19.133-8.516-30.58-10.82-18.406-3.707-35.662-7.74-49.725-16.373-16.134-9.909-30.98-29.608-22.515-42.991z" fill="#b1d045"/><path d="m289.867 300.279c-4.865-4.707-9.775-9.359-13.813-14.922-9.088-12.514-.17-24.734.709-37.611 7.584 6.529 16.521 11.666 26.979 15.316 14.77 5.158 30.758 6.238 45.855 10.207 10.816 2.84 19.828 7.967 27.34 14.869 12.613 11.588 30.637 41.648 43.654 64.018 6.854 11.783-1.158 5.279-4.582 2.932-9.086-6.229-19.297-11.1-30.383-14.676-21.291-6.869-42.875-8.826-62.342-16.088-21.128-7.875-18.685-9.793-33.417-24.045z" fill="#b1d045"/><path d="m257.097 347.802c7.381-6.328 16.66-9.393 28.443-8.697 5.275.311 12.961 1.189 17.395-2.787 3.973-3.564 4.832-7.902 3.982-12.256 13.646 7.742 28.941 11.555 45.99 15.125 34.701 7.271 66.084 17.965 85 47.445 5.242 8.176 10.982 22.176 15.465 39.393 2.811 10.785.563 7.955-3.949 2.27-38.688-48.781-97.902-75.998-163.596-76.701-8.244-.088-16.459.408-24.623 1.352-4.824.555-9.494-.529-4.107-5.144z" fill="#b1d045"/><path d="m363.433 749.295c-80.885 34.234-169.422 24.271-233.234-40.828-64.617-65.918-67.693-169.584-24.84-248.167 7.252-13.301 22.348-25.223 26.354-39.783 6.586-23.947-3.785-53.549 34.908-42.727 21.195 5.926 29.256 2.051 50.275-4.865 22.434-7.379 44.076-10.057 63.764-10.738 77.619-2.688 148.902 38.359 182.52 107.412 5.082 10.441-2.1 14.34-13.514 23.191-14.324 11.106-27.305 23.913-38.398 37.899-15.459-18.586-40.842-18.307-62.74-11.521-18.361 5.688-32.203 8.818-51.416 7.627-11.691-.725-22.67.941-30.992 9.623-12.746 13.299 10.266 22.697 19.566 25.115 10.959 2.854 21.252 2.414 32.354.613 13.303-2.156 24.387-6.93 38.469-4.953 11.658 1.635 19.715 11.012 27.453 18.777-20.848 48.051-24.322 106.453-10.314 158.605 2.32 8.657.066 10.366-10.215 14.72z" fill="#808080"/><path d="m404.771 539.352c-5.33 7.469-10.188 15.182-14.373 23.135-.584 1.111-1.125 2.25-1.691 3.375-9.984-9.818-21.871-20.227-36.742-19.846-21.668.559-41.742 9.982-63.48 5.363-2.549-.586-5.053-1.313-7.52-2.182-14.658-4.701 5.172-11.703 10.568-11.988 10.594-.563 21.018 1.793 31.645.732 26.086-2.607 60.568-28.922 81.463 1.254.04.059.089.098.13.157z" fill="#fbf199"/><path d="m805.494 764.723c6.463 4.539 10.545 7.795 1.475 11.496-2.895 1.184-4.703 3.373-6.42 5.893-3.186 4.674 1.293 18.51-5.557 18.064-5.652-.365-15.637-1.488-17.445 6.254-1.109 4.752 3 22.031-2.682 21.053-14.18-2.439-28.297-16.381-38.645-25.105-13.15-13.52-.367-33.271 10.381-43.74 12.414-12.092 21.207-15.51 36.088-7.455 7.809 4.225 15.526 8.424 22.805 13.54z" fill="#fbf199"/><path d="m776.043 733.18c-2.842-2.422-7.273-3.742-10.584-4.127-7.014-.814-17.195 2.564-20.938 8.83-.17.283.156.563.428.428 5.213-2.588 10.545-4.529 16.406-4.816 3.063-.15 6.314.264 9.113 1.529.213.096.385.264.586.383-.92-.137-1.844-.322-2.758-.377-16.012-.957-32.451 17.969-40.279 29.717-5.838 8.758-8.883 19.236-7.348 28.949-.535-2.004-.855-4.057-1.07-5.973-.584-5.23-.004-10.586 1-15.717.844-4.303 3.297-8.539 3.375-12.902.002-.18-.215-.318-.371-.213-8.418 5.668-10.113 24.406-8.535 33.406.967 5.512 5.066 13.154 10.539 17.057-85.172 80.053-216.842 93.924-299.549 2.531-66.26-73.215-66.035-201.389-4.789-277.451 44.162-54.85 116.444-82.967 185.616-71.883 80.203 12.855 146.758 71.055 169.475 148.899 11.341 38.861 12.033 83.013-.317 121.73z" fill="#808080"/><path d="m807.314 679.426c-9.213 11.453-11.881 9.297-11.613 3.156 2.799-63.541-22.846-128.529-68.709-172.287-48.064-45.86-118.314-68.186-183.914-58.77-5.391.773-10.746 1.828-16.057 3.131-18.559 4.545-22.428 5.42-16.789-2.443 36.547-51.084 88.555-82.508 154.309-86.168 71.688-3.988 139.994 33.947 172.779 97.354 3.057 5.916 1.473 7.336-5.326 9.707-9.047 3.158-18.412 5.605-26.803 4.697-.045-.006-.084.002-.129-.002.666-2.418 1.598-4.793 2.852-7.096.115-.213-.027-.506-.285-.496-24.705.895-3.713 74.043 16.754 56.752.422-.355.279-1.09-.172-1.344-1.482-.828-2.904-1.559-4.262-2.309 6.646-7.35 15.109-13.029 24.453-17.572 6.371-3.094 7.291-.719 8.15 4.371 10.104 59.786-7.448 122.331-45.238 169.319z" fill="#808080"/><path d="m910.719 472.939c-4.141 2.969-9.074 4.445-13.975 5.582-28.391 6.725-64.48 15.008-84.65 37.766-2.775-4.732-4.51-10.004-6.105-15.219-1.326-4.334-2.061-8.719-2.137-13.051.414.146.855.266 1.34.318 13.41 1.445 28.463-5.428 40.861-9.547 17.611-5.848 35.338-13.342 53.748-16.301 4.402-.439 15.699-1.15 15.727 4.322.011 2.45-3.073 4.88-4.809 6.13z" fill="#fbf199"/><path d="m289.867 300.279c14.732 14.252 12.289 16.17 33.418 24.045 19.467 7.262 41.051 9.219 62.342 16.088 11.086 3.576 21.297 8.447 30.383 14.676 3.424 2.348 11.436 8.852 4.582-2.932-5.875-10.096-12.77-21.748-19.725-32.57-9.014-5.816-19.469-8.842-30.844-10.477-19.859-2.855-40.018-.098-59.832-3.629-8.406-1.5-17.902-5.264-26.008-10.795 1.869 1.891 3.774 3.746 5.684 5.594z" fill="#abab38"/><path d="m267.617 225.488c-.65-.572-1.232-1.162-1.801-1.754 4.189 9.203 13.09 18.26 22.459 24.014 14.063 8.633 31.318 12.666 49.725 16.373 11.447 2.305 21.627 5.762 30.58 10.82 4.754 2.689 6.313 4.037 2.547-3.404-2.203-4.354-4.125-8.408-6-12.281-8.652-6.492-19.299-10.758-29.629-13.035-14.854-3.275-30.084-3.951-44.836-7.855-8.739-2.314-16.319-6.95-23.045-12.878z" fill="#abab38"/><path d="m430.667 342.181c1.133-10.826 4.527-21.514 10.203-31.596 6.904-12.262 15.861-23.164 22.887-35.324 12.826-22.223 9.719-36.105 5.936-64.781-1.736-13.164-5.496-24.248-18.953-20.807-2.277.582-4.385.518-6.344.021 10.93 27.598 5.711 56.654-5.535 85.529-9.641 24.756-18.031 47.951-12.752 73.025 3.592 4.203 3.857.609 4.558-6.067z" fill="#abab38"/><path d="m350.259 198.046c.377-1.951.881-3.883 1.529-5.787 5.23-15.369 9.791-29.381 8.488-43.746-.873-9.592-5.654-15.256-13.41-22.027 5.359 18.475-4.645 43.875-5.281 60.578-.018.436-.027.926-.037 1.42 1.105 3.018 2.223 6.018 3.352 8.99 3.578 9.416 4.064 7.192 5.359.572z" fill="#abab38"/><path d="m385.017 272.742c-.926-9.689-.313-19.559 2.516-29.646 3.32-11.84 25.852-60.555 25.059-86.025-.322-10.334-3.592-13.881-10.516-12.611-4.027.738-7.822 1.152-11.533 1.189 2.564 5.879 4.129 12.346 4.875 19.035 2.127 19.088-5.678 35.982-12.938 53.1-6.174 14.553-9.766 31.793-7.719 47.867 1.686 3.1 3.469 6.289 5.355 9.6 4.157 7.278 5.975 8.739 4.901-2.509z" fill="#abab38"/><path d="m463.156 416.214c5.982-18.857 18.715-35.389 34.847-49.844 25.487-22.842 71.218-48.252 82.343-83.98 3.23-10.379.754-13.1-6.924-12.371-6.928.656-13.971-.082-18.559-5.014-4.717-5.068-7.387-10.916-8.033-17.936-.887-9.594-8.883-10.053-17.525-7.891 8.219 8.973 8.283 25.23 5.053 36.736-6.086 21.699-21.244 40.176-35.599 56.965-12.722 14.885-26.685 29.012-36.765 45.918-4.66 7.818-7.514 16.379-8.666 25.373 1.555 4.377 3.023 8.77 4.311 13.211 1.702 5.874 2.816 7.361 5.517-1.167z" fill="#abab38"/><path d="m297.445 141.062c-.666 4.496-.918 9.408-1.275 14.379-.773 10.646-1.516 21.064 3.607 30.598 5.615 10.434 15.314 17.402 28.396 24.521 4.396 2.393 8.557 4.953 12.467 7.758 4.742 3.406 7.055 4.109 3.291-5.789-1.117-2.939-2.197-5.889-3.25-8.85-6.539-5.508-14.49-9.697-21.535-14.379-17.42-11.576-22.414-31.137-21.244-50.592-.168.772-.338 1.542-.457 2.354z" fill="#abab38"/><path d="m620.043 264.621c.086 15.469-10.416 33.602-17.732 44.33-15.736 23.078-35.891 41.867-56.318 60.703-28.541 26.322-59.208 59.527-60.913 99.545 2.668-2.781 5.828-6.949 7.799-10.072 29.323-46.541 71.018-81.174 122.272-95.906 5.59-1.607 8.59-3.377 2.639-5.582-10.543-3.91-25.223-5.08-20.047-19.137 6.137-16.656 20.834-27.4 28.004-43.316 4.655-10.335 8.694-26.892-5.704-30.565z" fill="#abab38"/><path d="m443.482 397.203c-9.6-11.303-23.074-19.422-36.424-25.342-28.355-12.572-62.398-18.799-95.203-18.529 55.164 6.689 104.068 32.723 137.568 74.963 4.512 5.686 6.76 8.516 3.949-2.27-2.923-11.229-6.384-21.053-9.89-28.822z" fill="#abab38"/><path d="m299.425 269.492c11.908 7.924 26.496 10.594 40.156 13.801 14.002 3.287 27.377 8.514 39.549 16.203 6.166 3.898 11.637 8.781 16.785 13.918 1.236 1.234 2.35 2.576 3.482 3.904-7.973-12.252-15.939-23.189-22.461-29.18-7.512-6.902-16.523-12.029-27.34-14.869-15.098-3.969-31.086-5.049-45.855-10.207-7.422-2.592-14.043-5.967-19.992-10.021 4.282 6.335 9.116 12.087 15.676 16.451z" fill="#d7e338"/><path d="m317.835 220.609c8.855 5.346 18.725 8.576 27.402 14.309 6.566 4.334 11.492 10.227 15.938 16.516-3.77-7.078-7.98-13.586-14.43-20.021-6.281-6.27-13.662-11.383-21.764-15.395-7.939-3.932-16.617-7.326-22.689-14.113-3.342-3.736-5.93-7.695-8-11.834 3.223 12.721 12.508 23.878 23.543 30.538z" fill="#d7e338"/><path d="m478.685 252.982c-2.398 12.775-8.377 24.514-17.121 37.174-15.373 22.258-27.564 45.461-24.215 70.83 1.189 9.027 6.979 21.627 10.893 30.373-.152-.561-.344-1.117-.475-1.684-1.875-8.033-2.234-16.307-2.104-24.52.264-16.443 4.762-32.697 11.414-47.633 9.346-20.98 23.497-40.981 21.608-64.54z" fill="#d7e338"/><path d="m352.908 339.187c-16.244-3.402-30.875-7.063-44.025-14.094 12.848 17.508 41.504 20.658 60.746 25.188 21.67 5.104 43.943 12.248 60.721 26.273-19.157-21.982-47.024-30.992-77.442-37.367z" fill="#d7e338"/><path d="m324.255 129.568c2.9 14.814 7.234 29.754 12.172 44.377-.982-19.182 1.787-39.449-6.613-56.48-.045-.01-.092-.027-.137-.037-6.719-1.3-7.414 1.982-5.422 12.14z" fill="#d7e338"/><path d="m391.093 259.728c-1.6 29.684 13.639 55.742 23.758 71.469.648 1.006 1.283 2.021 1.928 3.029-3.816-10.734-6.363-22.389-8.502-32.674-4.188-20.133-4.398-40.861-1.17-61.127 2.559-16.066 8.801-31.195 12.266-47.047 2.479-11.338 2.059-23.012-.529-34.236-.352 15.371-7.596 33.914-10.934 43.373-6.45 18.268-15.762 37.604-16.817 57.213z" fill="#d7e338"/><path d="m369.378 194.455c3.318-14.955 8.682-35.645-2.463-48.484 1.191 7.221 1.063 14.664-.73 22.293-2.98 12.691-10.412 25.162-10.377 38.416.037 14.447 3.934 27.906 10.986 43.166-4.109-18.026-1.47-37.132 2.584-55.391z" fill="#d7e338"/><path d="m537.336 353.949c15.391-11.084 29.934-24.176 40.023-40.371 6.234-10.004 12.838-26.793 11.354-40.072-4.324 34.482-39.633 59.074-64.789 79.287-25.245 20.281-51.03 43.184-56.987 73.789-1.941 9.979-.809 19.652 2.482 29.895-.061-18.75 5.082-36.92 14.969-53.576 12.716-21.427 33.217-34.747 52.948-48.952z" fill="#d7e338"/><path d="m335.126 187.988c-6.822-19.422-13.449-39.396-17.371-59.537-1.059-5.42-2.426-11.633-9.059-6.971-.438.307-.846.656-1.264.992-1.287 11.043 2.748 23.75 7.1 33.199 5.417 11.76 13.551 21.678 20.594 32.317z" fill="#d7e338"/><path d="m896.744 478.521c4.9-1.137 9.834-2.613 13.975-5.582 1.736-1.25 4.82-3.68 4.809-6.129-.002-.33-.049-.639-.131-.926-12.49 9.068-32.809 11.156-46.553 14.826-12.422 3.313-24.867 6.932-36.734 11.92-8.707 3.658-16.594 7.909-25.504 10.389 1.439 4.568 3.059 9.125 5.488 13.268 20.17-22.758 56.26-31.041 84.65-37.766z" fill="#f3af79"/><path d="m351.964 546.016c14.871-.381 26.758 10.027 36.742 19.846.566-1.125 1.107-2.264 1.691-3.375 1.404-2.67 2.91-5.301 4.459-7.916-4.344-5.99-10.504-10.943-18.092-13.967-28.264-11.264-58.271 11.785-86.727 11.047 21.144 3.865 40.779-5.09 61.927-5.635z" fill="#f3af79"/><path d="m777.553 813.252c-3.486.848-7.254.881-11.543-.193-8.809-2.209-15.604-9.689-19.826-17.305-8.854-15.961-1.33-32.086 9.492-44.697-2.895 1.92-5.863 4.453-9.074 7.58-10.748 10.469-23.531 30.221-10.381 43.74 10.348 8.725 24.465 22.666 38.645 25.105 3.978.688 3.157-7.578 2.687-14.23z" fill="#f3af79"/><path d="m777.076 533.584c-21.068-27.207-48.775-46.532-80.207-60.012-13.662-5.859-28.006-10.689-42.383-14.473-9.246-2.436-19.688-4.459-29.543-3.471 38.033 9.053 73.865 27.773 102.049 54.667 45.863 43.758 71.508 108.746 68.709 172.287-.268 6.141 2.4 8.297 11.613-3.156 3.922-4.879 7.574-9.963 11.053-15.156 3.154-46.479-12.693-93.752-41.291-130.686z" fill="#515151"/><path d="m725.607 809.354c-2.783-1.986-5.205-4.939-7.047-8.086-15.352 8.783-30.771 16.795-47.74 22.332-20.311 6.625-41.693 9.609-62.98 10.477-41.904 1.709-85.244-5.822-122.59-25.24-35.834-18.629-63.865-47.664-82.746-83.131-13.291-24.957-23.406-53.344-25.051-81.916-6.955 60.396 8.832 124.145 48.605 168.096 82.708 91.391 214.378 77.52 299.549-2.532z" fill="#515151"/><path d="m109.804 658.107c-13.361-14.205-22.834-31.703-29.961-50.191 6.324 37.148 22.676 72.316 50.355 100.551 63.813 65.1 152.35 75.063 233.234 40.828 10.281-4.354 12.535-6.063 10.213-14.719-4.83-17.98-7.527-36.701-8.207-55.486-8.182 7.127-18.482 12.564-27.541 17.158-14.678 7.441-30.586 12.156-46.713 15.176-32.596 6.1-66.631 2.865-98.379-6.012-31.077-8.689-60.706-23.598-83.001-47.305z" fill="#515151"/><path d="m190.082 403.781c-9.871 13.131-23.148 22.689-37.699 29.936-.332.164-.162.676.184.676 17.418-.063 32.939-14.559 38.357-30.254.185-.536-.553-.741-.842-.358z" fill="#515151"/><path d="m197.88 403.197c-2.199 3.68-6.648 7.293-6.693 11.875-.002.215.225.408.438.334 2.256-.777 3.654-2.525 4.982-4.428 1.701-2.434 2.33-4.57 2.348-7.49.003-.578-.784-.78-1.075-.291z" fill="#515151"/><path d="m759.711 720.455c-12.58-1.34-28.33 9.08-31.385 21.537-.084.34.301.52.549.318 4.83-3.906 9.217-8.305 14.363-11.813 5.207-3.551 11.236-5.975 16.754-9 .531-.288.233-.987-.281-1.042z" fill="#515151"/><path d="m754.705 716.008c-.256.217-.049.654.266.646 2.754-.08 6.266.6 8.752-.877.361-.217.41-.707.129-1.008-2.623-2.792-6.778-.759-9.147 1.239z" fill="#515151"/><path d="m715.377 748.031c-6.137.975-9.6 8.986-11.273 14.209-2.322 7.242-1.725 14.887.305 22.111.18.646 1.031.453 1.098-.146.689-6.307 1.838-12.574 3.018-18.807 1.24-6.553 4.648-11.002 7.281-16.811.143-.316-.089-.61-.429-.556z" fill="#515151"/><path d="m800.959 456.847c.129-.166.016-.521-.24-.414-18.307 7.678-17.641 33.84-10.395 48.95.223.465 1.027.25.98-.266-1.583-18.17-2.179-33.252 9.655-48.27z" fill="#515151"/><path d="m811.705 533.91c-5.006-1.219-7.523-4.225-10.746-7.904-.143-.162-.43-.033-.422.176.398 10.223 14.896 13.689 22.604 10.416.381-.16.268-.795-.113-.873-3.751-.762-7.614-.911-11.323-1.815z" fill="#515151"/><path d="m833.943 517.984c-.234-.326-.816-.443-1.023 0-.746 1.6-.924 3.402-1.496 5.078-.709 2.08-1.391 3.93-1.818 6.096-.107.535.475 1.162 1.016.779 2.014-1.424 3.186-2.867 3.902-5.266.621-2.079.728-4.88-.581-6.687z" fill="#515151"/><path d="m152.429 445.123c-6.025 1.672-11.904 3.438-17.83 5.535-.188.068-.246.408 0 .443 6.936.979 12.688-.975 18.223-5.047.445-.328.201-1.096-.393-.931z" fill="#515151"/><path d="m626.719 496.451c-35.564-6.357-75.582-1.592-108.934 10.963-27.987 10.531-58.282 34.531-50.852 65.652 4.807 20.139 31.558 26.127 50.317 28.936 24.721 3.707 50.295 2.328 74.68 7.811 23.016 5.17 45.09 13.576 65.559 24.51 18.699 9.986 33.719 22.064 47.012 37.561 35.365 41.23 59.99 7.557 55.17-23.309-10.706-68.432-55.167-138.229-132.952-152.124z" fill="#a0a0a0"/><path d="m400.888 427.412c-11.346-8.438-22.504-16.371-35.436-22.906-22.83-11.541-50.594-18.797-76.98-16.936-21.063 1.484-39.904 11.314-51.379 26.879-9.229 12.521-11.551 29.023-1.564 41.662 13.943 17.643 42.545 17.936 64.047 15.727 28.229-2.9 61.285-9.482 89.115-1.85 34.021 9.33 51.199-13.561 12.197-42.576z" fill="#a0a0a0"/><path d="m758.715 415.804c-4.725-16.291-23.096-23.814-36.008-28.051-17.008-5.574-35.41-7.41-53.045-7.08-14.07.266-29.262 2.199-43.365 7.041-86.275 29.592-15.498 37.076 15.322 42.035 31.133 5.01 63.219 5.49 94.543 4.162 9.389-.396 27.022-2.695 22.553-18.107z" fill="#a0a0a0"/><g fill="#68182b"><path d="m142.974 460.865c33.982-6.742 75.111-35.148 77.055-73.174.021-.391-.602-.59-.768-.209-7.369 17.092-14.844 30.857-28.982 43.375-13.939 12.344-31.336 20.408-47.99 28.383-.961.461-.248 1.808.685 1.625z"/><path d="m169.597 454.832c-.545.256-4.846 1.779-4.227 2.828 1.063 1.797 4.748.4 6.152-.188 2.211-.928 5.156-2.117 5.756-4.703.059-.25-.072-.576-.355-.627-2.662-.465-5.043 1.617-7.326 2.69z"/><path d="m138.232 462.003c.088-.188.1-.428-.074-.578-1.906-1.662-4.51.26-6.127 1.441-.219.162-.238.564.082.633 1.933.401 5.123.69 6.119-1.496z"/><path d="m747.666 779.227c-.281-.07-.42.299-.191.453 5.877 3.91 11.469 10.859 18.588 12.246.561.107.867-.48.529-.908-4.49-5.627-12.022-10.016-18.926-11.791z"/><path d="m764.984 777.77c-1.951-1.037-3.922-1.775-6.15-1.678-.189.008-.279.227-.152.365 1.428 1.564 3.066 2.662 4.885 3.738 2.068 1.225 3.705 2.256 6.148 2.139.295-.014.535-.344.357-.619-1.326-2.018-2.978-2.824-5.088-3.945z"/><path d="m190.386 732.1c-19.268-10.338-36.602-23.99-51.535-39.916-14.58-15.549-25.188-34.354-33.328-53.936-8.049-19.354-11.229-39.656-16.959-59.65-.078-.27-.482-.213-.486.066-.316 20.533 6.197 41.678 13.271 60.732 7.309 19.688 17.916 37.959 31.631 53.854 14.504 16.813 32.508 30.648 51.529 41.951 17.65 10.486 38.174 20.176 58.979 20.617.541.01.832-.836.291-1.074-17.77-7.82-36.203-13.418-53.393-22.644z"/><path d="m253.617 755.396c-2.125-.182-3.969-.533-5.98.309-.135.059-.25.219-.148.361 2.406 3.402 8.711 3.641 12.023 1.668.289-.174.283-.596 0-.77-2.012-1.23-3.577-1.368-5.895-1.568z"/><path d="m587.664 475.628c.518-.082.523-.973 0-1.049-27.059-3.881-56.074 2.35-81.471 11.568-25.094 9.109-52.45 25.331-65.965 49.219-.131.23.172.461.361.279 21.064-20.238 41.971-35.855 69.844-45.663 25.106-8.83 51.184-10.313 77.231-14.354z"/><path d="m595.682 476.07c2.098.215 3.68.307 5.682-.412.469-.168.578-.773.137-1.053-2.65-1.686-7.48-2.389-10.057-.145-.205.178-.135.518.082.646 1.23.726 2.753.821 4.156.964z"/><path d="m813.584 650.965c9.117-11.443 14.881-24.385 19.891-38.035 5.182-14.107 10.256-30.293 9.172-45.5-.02-.295-.426-.363-.516-.07-4.283 13.609-6.984 27.623-11.559 41.186-4.83 14.318-11.357 28.16-17.736 41.842-.213.454.389 1.032.748.577z"/><path d="m663.176 836.77c-26.799 10.52-55.271 18.561-83.996 21.131-13.004 1.164-26.121.969-39.109-.223-12.543-1.148-24.363-4.975-36.725-6.885-.318-.049-.531.355-.229.541 20.111 12.461 49.844 13.086 72.67 11.975 31.162-1.514 60.885-9.928 87.885-25.365.615-.354.195-1.444-.496-1.174z"/><path d="m671.189 832.264c-1.023.656-2.018 1.363-2.637 2.426-.162.281-.004.602.285.701 1.168.402 2.102.084 3.197-.393 4.212-1.812 2.79-5.064-.845-2.734z"/></g></g></g></svg>