<svg id="Fruit" height="512" viewBox="0 0 992.13 992.13" width="512" xmlns="http://www.w3.org/2000/svg"><g><path d="m919.781 592.758c-9.512-12.164-20.422-23.074-32.611-32.627 13.135-19.67 16.449-42.018 19.689-63.844.404-2.727.816-5.498 1.252-8.309.285-1.826 1.457-5.6 2.494-8.93 4.355-14.025 10.326-33.23.096-50.691-5.67-9.684-16.945-21.225-38.441-21.225-4.662 0-8.998.51-12.824.959-1.787.209-3.572.428-5.32.551-1.42.1-2.846.143-4.271.143-7.24 0-15.199-1.105-23.625-2.273-3.982-.553-8.018-1.113-12.131-1.582-1.057-21.201-7.244-43.541-17.4-60.477-.016-1.008.039-2.49.08-3.658.111-3.074.248-6.896-.166-11.117-1.307-13.293-8.191-25.035-19.91-33.953-7.572-5.764-15.857-8.688-24.625-8.688-14.033 0-24.25 7.389-31.709 12.783-1.895 1.369-4.758 3.441-5.674 3.838-5.105 2.102-10.85 3.916-16.93 5.838-.627.197-1.258.396-1.893.596-1.779-5.672-4.217-10.396-6.158-14.164-3.178-6.16-4.27-8.619-4.066-12.002.828-13.777-6.287-24.908-12.668-33.1-.535-1.086-1.348-4.057-1.895-6.051-1.975-7.211-4.68-17.088-12.832-25.24-6.078-6.078-17.186-13.322-35.584-13.322-17.197 0-35.162 6.211-47.205 11.422-9.389 4.063-18.699 8.244-28 12.422-20.633 9.268-40.123 18.023-60.496 25.551-22.52 8.32-46.268 15.467-69.231 22.375-8.577 2.58-17.155 5.162-25.706 7.809-60.598 18.762-123.527 41.611-187.042 67.912-25.483 10.555-52.112 22.273-81.409 35.824-3.477 1.609-7.667 3.313-12.104 5.115-19.751 8.031-44.334 18.023-57.643 39.42-10.985 17.668-16.74 45.326-4.833 67.301 3.678 6.789 7.975 11.725 11.429 15.693 3.661 4.203 5.316 6.186 6.216 9.049 4.546 14.465 12.333 24.865 24.507 32.729 2.764 1.787 5.088 4.801 8.652 9.572 3.697 4.949 8.299 11.107 14.94 16.627 4.616 3.842 9.6 6.143 13.374 7.826.537 1.035 1.148 2.33 1.613 3.314.96 2.029 2.046 4.326 3.348 6.592 7.399 12.863 20.143 18.506 28.576 22.238l2.276 1.02c2.298 1.051 5.134 3.883 8.421 7.164 4.137 4.133 9.283 9.273 16.139 13.525 5.254 3.262 10.473 5.023 15.072 6.162.11 1.326.248 2.434.354 3.264.266 2.105.504 4.207.742 6.293 2.285 20.08 5.418 47.578 33.021 64.703 13.134 8.145 27.817 9.188 39.144 9.188 1.633 0 3.24-.021 4.807-.057.749-.018 1.498-.025 2.244-.025 6.671 0 13.6.607 20.934 1.248 2.572.227 5.172.455 7.805.658.707 1.373 1.479 2.688 2.314 3.947 22.914 34.611 68.753 34.611 83.818 34.611 11.362 0 22.377-.777 32.094-1.463 4.188-.297 8.168-.578 11.853-.77 15.079-.777 30.159-1.602 45.238-2.428l22.54-1.227c3.533-.191 7.346-.281 12.002-.281 3.398 0 6.789.047 10.172.092 3.588.047 7.17.094 10.754.094 5.668 0 12.568-.107 20.002-.736 10.414 7.717 22.729 13.006 35.148 14.936 4.254.66 8.703.996 13.227.996 16.879 0 32.895-4.605 47.023-8.668 5.453-1.568 10.604-3.049 15.445-4.176 21.422-4.984 43.756-6.293 67.398-7.676l5.391-.318c1.826-.107 3.709-.195 5.637-.285 18.16-.85 43.029-2.012 60.652-20.236 3.84-3.971 8.533-10.27 10.771-18.891 14.016-1.475 27.115-4.5 39.643-9.137 5.279-1.957 10.1-4.133 14.766-6.24 4.689-2.117 9.121-4.117 13.365-5.578 2.533-.871 6.193-1.199 10.434-1.574 5.305-.475 11.316-1.008 17.871-2.813 13.566-3.73 23.33-12.719 27.492-25.305 10.051-30.396-18.793-70.65-27.873-82.263z" fill="#fff"/><g><path d="m900.967 607.467c-14.227-18.195-31.494-32.5-50.645-43.273 27.398-19.813 29.115-47.215 34.189-79.879 1.875-12.066 12.543-32.008 5.584-43.887-7.842-13.383-21.775-8.842-34.311-7.961-21.43 1.502-43.535-5.957-65.449-4.686-.518.027-1.031.143-1.547.186 4.729-22.656-1.246-52.564-12.783-71.561-5.125-7.346-2.348-16.018-3.174-24.391-.717-7.305-4.949-12.982-10.607-17.289-14.914-11.354-26.127 5.816-38.443 11.014-17.699 7.291-38.305 10.514-53.936 21.783.102-3.49.699-7.018 2.143-10.627 9.359-23.391-11.586-31.209-10.191-54.404.369-6.156-4.344-12.744-7.844-17.215-6.535-8.352-5.568-21.824-12.598-28.855-13.082-13.082-42.814-2.756-56.418 3.131-29.932 12.951-59.055 27.135-89.704 38.457-31.552 11.658-64.036 20.654-96.149 30.596-62.688 19.408-124.348 42.061-184.967 67.162-27.097 11.225-53.906 23.125-80.521 35.436-18.626 8.617-47.773 16.631-59.491 35.473-7.508 12.072-11.128 30.373-4.118 43.309 5.893 10.875 15.3 15.809 19.432 28.961 2.802 8.914 6.848 14.768 14.681 19.828 11.688 7.549 15.81 19.506 25.907 27.9 3.146 2.617 7.818 4.25 11.466 6.035 6.249 3.061 9.085 12.557 12.3 18.15 3.984 6.928 13.326 10.357 20.076 13.441 11.159 5.1 17.044 15.803 27.229 22.121 9.309 5.777 20.767 3.07 29.924 10.764-3.336 3.977-4.301 8.791-3.398 15.971 2.648 21.029 2.809 41.369 22.656 53.682 8.914 5.529 20.777 5.771 30.838 5.551 16.664-.367 33.016 2.756 49.617 2.645.434 5.311 1.651 10.152 4.115 13.877 20.946 31.637 74.555 23.369 106.623 21.713 22.574-1.164 45.147-2.436 67.721-3.654 20.828-1.125 41.031 1.396 61.805-1.939 8.148 8.338 19.58 14.482 31.229 16.293 22.291 3.465 45.348-6.561 66.615-11.51 25.158-5.852 51.096-7.043 76.783-8.572 16.582-.986 38.057-.375 50.541-13.285 7.504-7.76 6.027-16.77 2.242-25.172 19.537.465 38.504-1.787 57.043-8.648 9.717-3.6 18.801-8.615 28.652-12.004 9.789-3.369 20.002-2.152 29.744-4.832 29.768-8.193-3.664-58.07-12.861-69.835z" fill="#68182b"/><path d="m269.393 465.103c5.318-2.537 11.347-5.473 17.427-4.572 8.517 1.264 4.866 17.633 4.071 22.385-2.995 17.909-9.717 35.141-25.02 45.944-20.205 14.266-37.033-8.74-31.601-27.691 4.721-16.468 20.769-28.515 35.123-36.066z" fill="#fbf199"/><path d="m191.568 424.32c11.539-11.848 29.914-16.629 45.613-19.623 7.417-1.064 20.125-2.588 20.787 8.072.344 5.52-3.182 11.123-5.934 15.604-9.287 15.115-24.004 28.043-41.092 33.014-9.852 2.865-20.895 2.828-27.189-6.576-6.972-10.419.534-23.013 7.815-30.491z" fill="#fbf199"/><path d="m877.043 596.508c5.666 5.191 5.803 5.688-1.229 7.006-5.957 1.119-11.857 3.373-16.432 5.195-6.529 2.602-12.592 6.127-18.85 9.289-3.574 1.807-7.076 3.061-10.572 3.902-5.592 1.348-14.982 3.035-22.863.125-1.643-12.027-5.893-23.295-13.521-32.271-2.48-2.918-5.484-5.367-8.803-7.486 4.373-2.652 8.432-6.137 12.279-8.953 26.927-19.723 47.503-6.585 79.991 23.193z" fill="#b1d045"/><path d="m696.504 571.119c22.617 2.936 44.887 6.779 66.811 13.465 40.762 12.426 40.082 62.951 21.877 95.186-9.42-15.922-19.232-32.016-33.926-43.393-11.936-9.244-26.447-8.529-40.313-5.574 6.822-18.987-1.525-40.475-14.449-59.684z" fill="#fac135"/><path d="m583.277 614.553c-8.1-8.086-17.055-15.697-25.873-22.578-9.361-7.303-25.967-16.502-37.035-30.186-10.803-13.357-18.768-27.994-8.369-45.143 8.176-13.484 25.398-31.856 41.939-33.309 17.611-1.547 30.738 16.01 44.176 24.836 17.584 11.553 37.92 15.494 54.643 29.244 15.32 12.594 26.986 29.621 38.215 45.752 14.469 20.783 15.17 42.291-3.477 61.385-25.74 26.356-80.381-14.648-104.219-30.001z" fill="#fac135"/><path d="m636.979 656.842c-7.943 3.711-15.756 7.676-23.457 11.865-.125-5.969-1.559-11.967-4.014-17.92-3.195-7.76-5.494-10.273 4.357-4.803 7.498 4.164 15.272 7.965 23.114 10.858z" fill="#fac135"/><path d="m370.346 566.416c-20.779 6.32-41.521 12.326-61.146 21.16-14.072 6.336-19.857 10.871-14.941-3.85 8.187-24.506 15.583-49.293 25.631-73.096 6.576-15.577 13.221-31.178 20.707-46.342 7.734-15.664 26.291-14.867 37.073-2.367 11.397 13.209 15.024 28.617 16.124 45.127.549 8.309-1.873 11.295-7.943 18.223-7.868 8.977-17.253 26.86-15.505 41.145z" fill="#fac135"/><path d="m381.596 557.303c1.695-10.252 8.293-20.697 15.01-28.361 10.947-12.494 44.031 11.123 57.22 15.205 21.419 6.629 41.33 18.033 60.151 29.998 20.045 12.744 38.391 27.969 55.73 44.143 9.27 8.643 18.051 17.645 25.078 28.236 9.354 14.096 12.248 42.867-10.738 43.613-23.682.764-49.176-17.781-70.918-26.039-19.056-7.238-36.867-15.277-54.698-25.225-19.777-11.898-35.593-27.926-51.58-44.338-9.277-9.521-27.845-21.57-25.255-37.232z" fill="#fac135"/><path d="m439.725 461.55c-1.028-5.494-.688-7.814 3.814-8.91 5.17-1.254 10.675-1.721 16.492-1.264 25.565 2.02 52.148 4.986 72.346 20.215 5.736 4.32 2.32 7.607-1.777 10.338-12.971 8.625-26.672 23.204-31.686 36.866-3.183 8.674-3.311 16.453-1.476 23.662 3.61 14.152 2.432 11.188-8.761 6.133-16.957-7.664-34.33-13.895-51.571-22.18-12.299-5.906-22.454-12.387-32.456-11.867-.141-4.74-.461-9.619-1.045-14.518-1.1-9.245-.313-13.368 5.92-22.413 2.986-4.34 6.343-8.283 10.045-11.721 9.14-8.496 11.692-8.969 14.746 1.84 1.34 4.73 2.031 6.906 2.294 12.426.333 7.07 1.146 8.23 2.542.201 1.006-5.753 1.664-12.97.573-18.808z" fill="#fac135"/><path d="m731.061 463.949c8.43-5.555 6.529-1.475 5.305 3.988-1.537 6.844-1.65 13.902-1.539 20.992.148 9.407.777 18.79-.045 28.184-.43 4.896-1.668 8.805-3.51 12.227-5.594 10.381-11.557 10.232-27.723 13.094-8.506 1.502-16.912 3.443-25.158 5.797-5.598-6.178-11.18-11.729-16.203-16.42 17.835-24.706 41.55-49.858 68.873-67.862z" fill="#b1d045"/><path d="m677.094 491.357c3.578-11.182 5.139-15.24 14.098-19.615 3.977-1.941 8.297-3.209 12.662-4.262 4.99-1.207 5.869-.373.627 3.916-7.936 6.496-15.471 13.48-22.623 20.848-3.876 3.99-7.829 8.688-4.764-.887z" fill="#b1d045"/><path d="m805.014 556.848c8.928 2.529 5.189 3.408.635 5.832-6.373 3.389-12.256 7.615-18.17 11.818-5.867 4.174-7.209 4.818-13.756 2.242-9.604-3.775-20.184-5.961-28.994-8.109-16.258-3.967-32.879-6.225-49.484-8.236-7.285-.885-7.777-3.867.271-5.646 36.209-8.024 74.33-7.876 109.498 2.099z" fill="#b1d045"/><path d="m866.102 524.971c-3.02 9.352-7.604 17.908-15.473 25.387-7.447 7.076-11.412 7.855-19.18 4.584-21.617-9.111-44.986-14.271-68.748-15.834-7.32-.484-13.627-.248-3.533-5.641 17.141-9.166 29.316-10.611 35.928-11.186 4.105-.357 8.332-.428 12.811-.139 10.854.705 21.615 2.188 32.512 2.074 6.57-.068 13.799-.83 20.381-2.943 6.901-2.22 7.761-3.892 5.302 3.698z" fill="#b1d045"/><path d="m872.977 494.818c-.762 14.5-5.244 18.696-14.82 21.735-10.223 3.248-21.406 3.502-32.951 2.619-9.982-.762-21.146-2.092-31.787-1.23-2.748.219-6.023-.203-.49-3.986 20.098-13.752 22.244-19.442 40.059-20.559 7.291-.459 14.643.193 21.945.029 4.803-.107 9.686-.785 14.02-2.402 4.256-1.585 4.219.085 4.024 3.794z" fill="#b1d045"/><path d="m879.043 459.656c-1.363 4.783-2.402 9.654-3.336 14.541-1.469 7.699-1.953 10.668-10.539 13.1-7.555 2.135-15.781 1.916-24.869 1.896-3.918-.01-8.971-.438-1.629-5.467 12.447-8.533 24.563-17.551 35.523-27.844 6.057-5.681 7.692-6.172 4.85 3.774z" fill="#b1d045"/><path d="m856.055 449.513c2.4-5.713 4.619-7.006 9.85-7.289 2.031-.113 4.092-.107 5.992.176 5.596.842 3.461 3.566.635 6.332-5.789 5.658-11.924 10.928-18.301 15.918-3.232 2.529-6.061 4.715-3.613-1.436 1.831-4.607 3.55-9.195 5.437-13.701z" fill="#b1d045"/><path d="m848.16 442.404c5.48.623 5.426 2.158 2.816 8.84-2.344 6-4.795 11.223-7.678 16.32-7.438 13.158-11.398 13.141-32.689 27.25-3.631 2.405-7.277 4.844-10.947 7.288-8.141 5.41-7.428 3.553-5.506-.717 2.316-5.145 3.914-10.719 5.125-16.067 1.861-8.217 2.672-16.633 4.527-24.855.977-4.326 2.531-8.178 4.529-11.754 9.161-16.424 18.575-8.727 39.823-6.305z" fill="#b1d045"/><path d="m803.988 438.345c6.486-.248 4.771 1.76 1.695 6.459-4.162 6.359-6.252 14.135-7.623 22.293-2.258 13.439-4.336 25.711-10.256 36.627-6.594 12.16-16.691 19.178-46 31.861-11.047 4.787-10.105 3.684-6.648-2.934 3.916-7.506 5.365-16.916 5.65-24.65.375-10.291-.758-20.571-.209-30.872.266-4.99 1.135-9.863 2.563-14.648 4.217-14.126 30.604-22.991 60.828-24.136z" fill="#b1d045"/><path d="m779.242 400.505c1.154 10.313.756 20.568-1.717 29.168-.031.109-.033.209-.059.316-14.75 3.936-29.049 12.316-41.6 19.607-15.164 8.809-21.18 10.719-37.801 15.664-.943.283-1.918.602-2.914.953-6.961 2.459-10.697 4.615-7.549-4.111 6.1-16.9 8.668-22.598 20.545-30.156 2.105-1.34 4.379-2.588 6.883-3.76 10.975-5.137 22.797-8.379 34.023-12.916 8.785-3.547 17.684-8.752 23.77-15.787 4.536-5.232 5.88-3.788 6.419 1.022z" fill="#b1d045"/><path d="m766.91 361.72c9.35 15.398 11.75 30.945-4.109 41.488-9.299 6.18-19.98 9.766-30.43 13.467-9.047 3.201-22.369 7.455-31.754 14.619 2.367-5.1 4.828-10.188 7.479-15.248 11.084-21.145 14.578-28.117 26.193-35.264 6.879-4.23 14.061-7.537 20.482-12.506 9.504-7.351 8.778-11.368 12.139-6.556z" fill="#b1d045"/><path d="m752.377 330.388c3.729-6.871 5.791-7.258 8.316-2.684 2.539 4.613 1.789 11.035 1.609 16.018-.221 6.15.74 7.639-2.6 12.73-3.357 5.127-7.787 9.605-13.707 13.537-3.525 2.344-7.4 4.471-11.248 6.697-4.934 2.859-10.215 7.326-4.236-4.432 7.149-14.038 14.364-28.044 21.866-41.866z" fill="#b1d045"/><path d="m702.281 354.277c2.107-11.965 5.91-12.039 13.902-14.629 3.561-1.156 7.053-2.373 10.395-3.752 5.314-2.242 10.816-7.672 16.488-10.959 5.533-3.209 5.518-.809 1.664 6.34-10.629 19.746-20.756 39.811-30.961 59.809-7.416 14.539-7.018 12.164-8 3.17-.359-3.273-.926-6.586-1.59-9.928-2.23-11.209-3.556-20.608-1.898-30.051z" fill="#b1d045"/><path d="m668.621 424.111c1.309-3.334 2.127-6.863 1.848-10.781-.84-11.824 2.135-22.602 2.779-33.811.383-6.656-1.031-13.016-2.158-19.342 6.545-6.27 14.689-10.295 23.336-13.494 5.24-1.938 5.131-.705 3.91 5.619-.98 5.072-1.078 10.389-.848 14.918.369 7.195 2.43 14.316 3.826 21.348 1.189 5.99 1.297 11.49.857 16.982-.674 8.438-3.568 14.705-7.785 23.621-4.859 10.275-9.115 20.664-13.053 31.148-3.33 8.875-3.883 8.805-6.76.287-.264-.779-.537-1.557-.816-2.328-1.857-5.152-4.01-10.184-5.947-15.299-3.886-10.271-2.747-9.833.811-18.868z" fill="#b1d045"/><path d="m654.215 525.033c-6.686-5.072-13.928-9.143-21.375-12.859 5.051-3.123 10.553-5.803 13.555-10.93 5.164-8.815 2.689-18.758 8.33-27.792 4.754-7.613 5-15.277 4.471-23.971-.271-4.457 1.068-8.438 2.902-12.301.934 3.398 2.086 6.676 3.193 9.637 12.561 33.515 10.428 51.226-11.076 78.216z" fill="#b1d045"/><path d="m610.439 242.486c17.43-4.104 20.018 4.732 26.496 16.416 7.438 13.412 12.371 16.813 13.215 34.508.246 5.162.324 9.295 3.795 13.553 9.131 11.213 11.09 19.131 5.664 32.689-2.879 7.195-1.275 14.498.459 21.68 3.439 14.262-3.822 26.203-3.314 40.061.494 13.549 1.533 22.867-5.307 34.928-5.641 9.951-.586 21.248-5.816 31.818-2.934 5.924-5.51 9.486-6.16 16.424-.625 6.676-3.184 10.592-6.604 13.752-7.973 7.377-10.893 8.309-17.295 5.527-4.498-1.957-4.164-5.883-.402-13.071 19.088-36.453 21.982-81.92 21.168-121.91-.736-36.154-5.758-77.613-23.848-110.496-5.199-9.448-8.064-14.461-2.051-15.879z" fill="#b1d045"/><path d="m223.727 619.738c-8.783-4.842-19.615-2.752-27.073-10.996-5.392-5.963-10.287-9.867-17.49-13.535-8.549-4.352-13.839-5.393-19.504-15.242-2.417-4.199-3.646-8.58-7.199-12.135-9.287-9.289-15.625-8.326-24.015-22.707-4.962-8.502-10.137-11.367-19.029-15.443-9.244-4.24-11.844-21.357-16.505-29.973-7.063-13.063-17.665-15.547-14.948-33.895 1.855-12.52 10.653-20.836 21.372-27.168.444 36.967 26.757 68.772 50.883 94.682 30.038 32.258 64.506 59.428 103.493 79.67 6.109 3.172 6.107 4.787.82 8.178-11.945 7.656-15.886 6.797-30.805-1.436z" fill="#b1d045"/><path d="m336.025 676.703c-1.382 5.031-3.057 11.742-4.193 18.844-1.348 8.447-1.526 9.188-10.328 9.082-17.102-.209-34.547-2.1-51.373-2.898-11.551-.545-20.499-6.354-26.096-16.172-4.5-7.895-10.231-39.445.062-45.354 20.146-11.557 38.173-26.256 58.181-38.029 18.399-10.826 40.059-16.797 60.938-22.76 10.433-2.979 10.773-2.775 15.105 1.854 22.539 24.07 46.5 49.678 74.795 66.695 7.938 4.426 4.209 5.193-4.397 4.561-31.093-2.293-62.925-4.109-92.312 2.445-12.005 2.675-17.303 10.535-20.382 21.732z" fill="#fac135"/><path d="m563.717 735.459c-27.717 3.719-56.818 1.102-84.732 2.607-30.514 1.65-61.256 4.473-91.813 2.867-25.762-1.352-46.415-10.975-44.486-40.031.764-11.461 2.43-31.271 16.521-35.779 8.744-2.795 18.217-3.094 27.309-3.361 26.85-.791 54.133 1.275 81.154 2.846 13.428.781 23.378 1.477 31.596 4.893 11.973 4.979 24.02 9.855 36.043 15.326 7.014 3.195 19.799 9.707 32.801 13.727-11.147 11.928-10.881 25.432-4.393 36.905z" fill="#fac135"/><path d="m771.125 728.424c-14.666 3.588-31.504 2.611-46.537 3.572-22.084 1.418-43.791 4.225-65.355 9.24-13.932 3.242-27.225 7.871-41.488 9.734-22.17 2.898-64.328-19.127-43.115-43.953 4.16-4.869 5.627-5.236 11.359-5.07 7.563.223 14.176-1.656 18.449-7.121 1.982-2.539 3.594-5.105 4.891-7.693 2.822-5.639 3.5-6.076 8.293-8.703 10.945-5.998 22.129-11.51 33.563-16.539.461-.203.836-.449 1.174-.713 14.939 2.803 29.617 1.021 42.584-9.178 3.48-2.738 6.344-5.613 8.768-8.58 18.771-5.025 34.398-6.086 49.307 8.395 8.922 8.664 15.389 20.76 21.836 31.273 8.259 13.478 22.5 38.922-3.729 45.336z" fill="#fac135"/><path d="m856.789 682.064c-15.352 7.344-32.129 9.949-48.961 10.26-17.764.33-17.729 1.094-11.49-11.063 6.225-12.137 10.334-26.518 11.318-40.875.623-9.104 1.15-11.752 10.793-8.965 7.381 2.133 14.656 4.625 21.924 7.143 8.213 4.314 15.404 9.803 20.564 18.771 3.104 5.393 6.205 13.783 11.814 17.525-5.466 2.218-10.808 4.74-15.962 7.204z" fill="#b1d045"/><path d="m907.611 667.135c-4.715 1.361-10.578 1.254-13.893 1.705-13.688 1.873-17.826 6.453-26.215-8.875-1.811-3.309-3.596-6.508-5.695-9.529-3.4-4.895-5.684-6.41 2.504-4.092 15.033 4.248 30.203 8.414 43.967 15.771 4.918 2.627 3.713 3.76-.668 5.02z" fill="#b1d045"/><path d="m907.348 654.506c-11.623-5.652-24.102-9.371-36.586-12.916-11.27-3.201-22.336-7.203-33.469-10.945-8.18-2.748-7.191-3.998-.344-6.307 3.248-1.096 6.396-2.391 9.367-3.754 39.912-18.314 41.615-14.762 52.914 2.977 2.025 3.18 3.947 6.43 5.771 9.734 3.152 5.709 5.6 11.768 7.857 17.877 2.081 5.615 1.841 6.904-5.51 3.334z" fill="#b1d045"/><path d="m522.561 381.91c20.111-3.863 46.803-.988 62.748 13.406 16.082 14.518 11.887 37.625-8.303 45.131-18.088 6.723-38.053-4.322-50.76-16.617-11.863-11.483-28.834-35.262-3.685-41.92z" fill="#fbf199"/><path d="m625.807 368.861c-1.27-36.27-5.604-79.236-25.764-111.211-6.648-10.535-8.096-9.986-24.025-2.893-14.258 6.352-28.217 13.59-42.5 19.508-50.241 20.814-102.533 34.826-154.148 51.648-54.896 17.891-109.182 37.719-162.453 60.012-28.633 11.982-57.063 24.463-85.139 37.703-21.273 10.037-25.05 13.572-18.515 35.832 9.02 30.729 34.812 57.571 56.644 78.889 27.895 27.238 58.291 50.094 92.915 67.576 9.003 4.547 11.983 1.537 16.31-10.293 15.646-42.744 28.542-85.781 47.881-127.264 7.736-16.596 22.768-35.324 43.943-24.906 13.83 6.803 22.192 18.734 27.153 32.395 12.175-20.166 32.697-37.318 56.638-35.43 34.895 2.756 71.271 5.766 95.459 33.365 12.725-1.951 25.117 2.529 35.959 11.912 9.832 8.502 15.514 8.35 20.35-1.164 17.606-34.626 20.612-78.033 19.292-115.679zm-445.086 92.662c-5.91-6.256-7.332-17.953-4.258-25.803 9.186-23.463 36.27-32.775 59.04-37.115 15.028-2.158 34.867 2.102 27.388 22.002-8.133 21.639-30.27 43.898-53.729 47.66-10.736 1.721-20.609 1.545-28.441-6.744zm85.068 74.581c-16.47 9.006-38.062-3.17-39.318-21.783-1.674-24.776 19.638-44.102 39.734-54.672 12.006-5.732 31.736-10.373 32.213 9.273.605 24.966-9.756 54.676-32.629 67.182zm312.897-89.565c-25.121 7.152-49.938-7.727-64.92-27.268-12.602-16.439-17.354-36.977 7.115-43.453 24.252-4.66 64.523-.318 77.023 25.426 8.7 17.918.85 39.584-19.218 45.295zm-11.307-97.52c-15.293 2.291-46.998 1.717-55.199-14.912-12.994-26.346 27.654-39.051 45.07-44.371 17.455-4.816 40.545 2.672 45.268 22.184 5.306 21.925-16.411 34.296-35.139 37.099z" fill="#fac135"/><path d="m527.211 308.679c9.174-6.662 21.027-9.584 31.719-12.85 14.514-4.006 31.26 1.363 37.02 16.256 7.037 18.203-14.74 28.012-28.809 30.625-14.045 2.611-32.402.719-44.639-6.814-12.047-7.412-3.877-20.982 4.709-27.217z" fill="#fbf199"/><path d="m853.1 611.537c-12.195 1.244-23.266 2.563-35.398-4.365-13.535-7.727-20.111-26.979-10.811-39.746-3.203 1.469-6.471 3.422-9.838 5.889-3.848 2.816-7.906 6.301-12.279 8.953 3.318 2.119 6.322 4.568 8.803 7.486 7.629 8.977 11.879 20.244 13.521 32.271 7.881 2.91 17.271 1.223 22.863-.125 3.496-.842 6.998-2.096 10.572-3.902 4.207-2.127 8.334-4.396 12.567-6.461z" fill="#abab38"/><path d="m734.748 376.687c3.848-2.227 7.723-4.354 11.248-6.697 5.92-3.932 10.35-8.41 13.707-13.537 3.34-5.092 2.379-6.58 2.6-12.73.059-1.633.172-3.424.219-5.25-4.127 11.287-16.822 20.729-25.621 26.527-1.467.967-2.855 1.973-4.203 3.002-.727 1.418-1.463 2.832-2.186 4.254-5.979 11.757-.698 7.29 4.236 4.431z" fill="#abab38"/><path d="m704.18 384.328c.664 3.342 1.23 6.654 1.59 9.928.982 8.994.584 11.369 8-3.17.012-.021.025-.047.035-.068.148-3.203.08-6.457-.439-9.82-2.682-17.334-1.416-31.873 9.254-43.785-2.113.777-4.252 1.529-6.436 2.236-7.992 2.59-11.795 2.664-13.902 14.629-1.659 9.442-.333 18.841 1.898 30.05z" fill="#abab38"/><path d="m762.701 539.107c23.762 1.563 47.131 6.723 68.748 15.834 7.768 3.271 11.732 2.492 19.18-4.584 2.473-2.348 4.588-4.816 6.467-7.371-13.012 4.326-28.467 3.109-41.158-.754-20.262-6.166-38.471-13.09-58.797-7.621-7.049 4.205-1.192 4.049 5.56 4.496z" fill="#abab38"/><path d="m726.584 406.853c-6.969 2.557-13.578 5.729-18.912 10.031-2.484 4.785-4.816 9.592-7.055 14.41 9.385-7.164 22.707-11.418 31.754-14.619 10.449-3.701 21.131-7.287 30.43-13.467 12.832-8.531 13.703-20.336 8.619-32.689-1.09 7.969-6.707 15.264-12.639 20.932-8.605 8.226-21.304 11.408-32.197 15.402z" fill="#abab38"/><path d="m836.107 689.104c-10.201-3.262-18.83-8.678-23.436-20.727-3.277-8.57 1.941-28.939 12.072-34.994-2.096-.66-4.184-1.352-6.295-1.961-9.643-2.787-10.17-.139-10.793 8.965-.984 14.357-5.094 28.738-11.318 40.875-6.238 12.156-6.273 11.393 11.49 11.063 9.53-.177 19.034-1.132 28.28-3.221z" fill="#abab38"/><path d="m237.607 616.711c-11.555-3.023-17.184-10.943-26.58-17.18-4.992-3.314-11.213-5.277-16.651-7.752-8.761-3.988-14.98-9.637-20.812-17.203-7.316-9.49-19.021-15.02-28.189-22.402-5.049-4.066-8.001-10.752-12.58-15.434-5.368-5.486-13.561-7.844-19.469-12.773-8.339-6.955-10.665-18.674-17.593-26.736-3.72-4.327-7.954-7.807-12.611-10.684 3.016 3.834 6.732 7.508 9.789 13.161 4.661 8.615 7.261 25.732 16.505 29.973 8.893 4.076 14.067 6.941 19.029 15.443 8.39 14.381 14.728 13.418 24.015 22.707 3.554 3.555 4.782 7.936 7.199 12.135 5.665 9.85 10.955 10.891 19.504 15.242 7.203 3.668 12.099 7.572 17.49 13.535 7.458 8.244 18.29 6.154 27.073 10.996 14.92 8.232 18.86 9.092 30.805 1.436.171-.107.286-.201.447-.309-5.898-1.206-11.728-2.678-17.371-4.155z" fill="#abab38"/><path d="m777.467 429.99c.025-.107.027-.207.059-.316 1.98-6.893 2.58-14.855 2.168-23.051-8.18 22.25-40.408 32.709-60.738 38.416-10.156 2.848-22.473 7.26-30.615 15.041-.242.666-.484 1.318-.736 2.023-3.148 8.727.588 6.57 7.549 4.111.996-.352 1.971-.67 2.914-.953 16.621-4.945 22.637-6.855 37.801-15.664 12.549-7.291 26.848-15.672 41.598-19.607z" fill="#abab38"/><path d="m703.549 542.434c4.307-.764 7.871-1.313 10.918-1.904-8.779-.971-17.195-3.613-23.939-9.988-8.621-8.148-3.852-20.607 1.123-29.186 3.553-6.124 8.012-11.602 12.861-16.764-16.215 14.497-30.566 30.934-42.324 47.219 5.023 4.691 10.605 10.242 16.203 16.42 8.246-2.354 16.652-4.295 25.158-5.797z" fill="#abab38"/><path d="m803.809 460.462c-1.855 8.223-2.666 16.639-4.527 24.855-1.211 5.348-2.809 10.922-5.125 16.067-1.922 4.27-2.635 6.127 5.506.717 1.725-1.146 3.43-2.283 5.146-3.426 2.594-4.143 4.514-8.756 5.551-13.84 1.809-8.875 1.268-17.906 3.93-26.68 2.465-8.123 10.365-15.246 19.012-18.289-11.445-2.277-18.281-3.135-24.963 8.842-1.999 3.577-3.554 7.428-4.53 11.754z" fill="#abab38"/><path d="m850.617 463.214c-2.447 6.15.381 3.965 3.613 1.436.91-.713 1.779-1.479 2.682-2.207 1.809-5.359 2.109-11.629 1.145-16.672-.695.971-1.346 2.18-2.002 3.742-1.887 4.506-3.606 9.094-5.438 13.701z" fill="#abab38"/><path d="m888.756 639.438c-4.801-2.178-9.93-3.695-14.908-5.402-3.92-1.346-7.736-2.91-11.477-4.689-9.166-4.363-8.74-9.229-5.896-13.281-3.109 1.34-6.416 2.803-10.158 4.52-2.971 1.363-6.119 2.658-9.367 3.754-6.848 2.309-7.836 3.559.344 6.307 11.133 3.742 22.199 7.744 33.469 10.945 12.484 3.545 24.963 7.264 36.586 12.916.303.148.523.236.803.365-5.115-6.867-11.158-11.699-19.396-15.435z" fill="#abab38"/><path d="m891.873 669.125c-.924-.143-1.852-.246-2.771-.461-4.432-1.041-8.127-3.574-10.799-7.215-3.09-4.207-2.682-8.326-.365-11.176-4.527-1.359-9.08-2.646-13.625-3.93-8.188-2.318-5.904-.803-2.504 4.092 2.1 3.021 3.885 6.221 5.695 9.529 7.994 14.608 12.148 11.14 24.369 9.161z" fill="#abab38"/><path d="m773.723 576.74c6.547 2.576 7.889 1.932 13.756-2.242 4.799-3.41 9.592-6.813 14.629-9.793-8.811 1.779-17.564 3.139-26.771 3.182-13.004.063-25.652-3.074-38.305-5.67-12.572-2.58-27.715-4.148-41.324-1.764 16.451 1.996 32.916 4.248 49.021 8.178 8.81 2.148 19.39 4.334 28.994 8.109z" fill="#abab38"/><path d="m670.469 413.33c.279 3.918-.539 7.447-1.848 10.781-3.559 9.035-4.697 8.598-.811 18.869 1.938 5.115 4.09 10.146 5.947 15.299.279.771.553 1.549.816 2.328 2.814 8.332 3.422 8.52 6.563.221-12.832-12.627-4.391-37.795-2.74-53.365 1.168-11.006.082-24.955-5.424-35.422.258 2.463.422 4.945.275 7.479-.643 11.208-3.618 21.985-2.778 33.81z" fill="#abab38"/><path d="m655.75 523.035c-8.107-12.211.727-32.375 3.277-45.215 1.451-7.303 1.795-14.686.355-21.822-.088 6.113-1.127 11.799-4.658 17.455-5.641 9.033-3.166 18.977-8.33 27.792-3.002 5.127-8.504 7.807-13.555 10.93 7.447 3.717 14.689 7.787 21.375 12.859.542-.68 1.016-1.329 1.536-1.999z" fill="#abab38"/><path d="m793.418 517.941c10.641-.861 21.805.469 31.787 1.23 11.545.883 22.729.629 32.951-2.619 7.057-2.238 11.336-5.121 13.412-12.273-7.568 4.426-16.438 6.664-25.23 8.396-8.025 1.578-16.297 1.953-24.35.438-12.098-2.279-10.969-9.26-6.582-15.109-5.793 3.268-11.416 8.381-22.479 15.951-5.532 3.783-2.257 4.205.491 3.986z" fill="#abab38"/><path d="m632.867 498.314c3.42-3.161 5.979-7.077 6.604-13.752.65-6.938 3.227-10.5 6.16-16.424 5.23-10.57.176-21.867 5.816-31.818 6.84-12.061 5.801-21.379 5.307-34.928-.508-13.857 6.754-25.799 3.314-40.061-1.734-7.182-3.338-14.484-.459-21.68 5.426-13.559 3.467-21.477-5.664-32.689-3.471-4.258-3.549-8.391-3.795-13.553-.838-17.561-5.707-21.055-13.045-34.209.822 6.365.666 12.967.752 19.672.141 10.852 3.35 20.191 8.33 29.709 7.691 14.699 6.674 25.793 1.971 41.211-3.336 10.936-2.043 20.039.344 30.998 3.221 14.766 3.059 25.834-2.561 39.912-4.615 11.568-6.287 22.018-7.322 34.34-1.014 12.082-5.883 24.375-10.762 35.375-2.535 5.709-6.492 9.743-10.936 13.942 5.485 2.045 8.571.782 15.946-6.045z" fill="#abab38"/><path d="m840.299 489.193c4.734.01 9.225.055 13.52-.188-3.85-6.918.729-14.473 6.756-21.436-7.074 5.66-14.41 11.02-21.904 16.156-7.343 5.03-2.29 5.458 1.628 5.468z" fill="#abab38"/><path d="m681.857 492.244c6.398-6.59 13.152-12.818 20.176-18.719-7.891 2.668-14.916 7.059-21.221 12.773-1.012.916-2.037 1.936-3.045 2.996-.223.684-.436 1.316-.674 2.063-3.064 9.575.889 4.877 4.764.887z" fill="#abab38"/><path d="m756.836 470.257c3.203-14.129 14.783-23.154 27.043-29.893-21.115 3.525-37.479 11.26-40.719 22.117-1.428 4.785-2.297 9.658-2.563 14.648-.549 10.301.584 20.581.209 30.872-.285 7.734-1.734 17.145-5.65 24.65-3.457 6.617-4.398 7.721 6.648 2.934 2.484-1.076 4.783-2.1 7-3.098 4.176-6.346 6.5-14.264 7.254-22.279 1.258-13.427-2.257-26.566.778-39.951z" fill="#abab38"/><path d="m321.504 704.629c8.802.105 8.98-.635 10.328-9.082 1.137-7.102 2.812-13.813 4.193-18.844 1.115-4.055 2.537-7.654 4.447-10.748-3.07 1.518-5.981 3.549-8.803 6.82-2.889 3.352-4.6 7.947-6.505 11.885-4.423 9.123-11.347 12.197-21.018 12.135-12.725-.088-26.866-1.695-39.249-4.316-8.927-1.891-16.555-6.588-23.148-12.705.742 2.428 1.528 4.459 2.285 5.785 5.597 9.818 14.545 15.627 26.096 16.172 16.827.798 34.272 2.689 51.374 2.898z" fill="#ee9e2b"/><path d="m620.455 376.498c-2.385 36.766-12.049 78.67-38.074 106.199 1.279.941 2.543 1.934 3.783 3.008 9.832 8.502 15.514 8.35 20.35-1.164 17.607-34.627 20.613-78.033 19.293-115.68-.871-24.873-3.188-52.895-11.055-78.361 4.951 28.365 7.582 57.001 5.703 85.998z" fill="#ee9e2b"/><path d="m724.588 731.996c15.033-.961 31.871.016 46.537-3.572 20.184-4.938 16.393-21.129 9.813-34.477-.307 6.693-2.445 12.957-8.469 18.996-8.326 8.352-20.516 11.242-31.799 12.467-19.732 2.143-39.799 1.551-59.602 3.42-19.742 1.861-38.871 6.115-58.344 9.6-20.133 3.605-42.549 2.105-53.666-15.033 2.686 17.24 31.604 29.805 48.686 27.574 14.264-1.863 27.557-6.492 41.488-9.734 21.565-5.016 43.272-7.823 65.356-9.241z" fill="#ee9e2b"/><path d="m563.717 735.459c-2.422-4.283-3.975-8.85-4.393-13.512-15.223 7.709-33.811 8.686-50.451 10.16-21.188 1.879-42.678 1.42-63.909.6-21.396-.828-42.947-2.361-64.158-5.354-9.709-1.369-19.106-3.879-27.831-8.43-6.08-3.174-8.922-7.762-10.387-12.986.685 25.145 20.375 33.727 44.584 34.996 30.557 1.605 61.299-1.217 91.813-2.867 27.913-1.505 57.015 1.112 84.732-2.607z" fill="#ee9e2b"/><path d="m279.131 595.633c2.499-6.828 4.918-13.664 7.314-20.498-16.008-3.178-31.963-5.363-47.629-10.703-19.753-6.732-38.576-17.924-55.984-29.273-16.422-10.709-31.689-23.191-45.629-36.965-6.502-6.424-11.891-13.764-16.963-21.356 11.883 23.524 32.057 44.317 49.666 61.512 27.895 27.238 58.291 50.094 92.915 67.576 9.003 4.547 11.984 1.537 16.31-10.293z" fill="#ee9e2b"/><path d="m309.199 587.576c19.625-8.834 40.367-14.84 61.146-21.16-1.748-14.285 7.638-32.168 15.504-41.145 6.07-6.928 8.492-9.914 7.943-18.223-.426-6.395-1.25-12.622-2.742-18.624-.635 10.284-5.403 20.403-12.229 28.413-8.231 9.66-16.557 17.268-21.834 29.051-4.094 9.143-9.283 17.318-18.089 22.557-7.24 4.305-14.9 8.068-22.296 12.113-7.098 3.879-15.295 7.961-22.634 12.918 2.348.462 7.542-2.437 15.231-5.9z" fill="#ee9e2b"/><path d="m636.979 656.842c-2.932-1.082-5.848-2.322-8.748-3.629-1.805 1.156-3.883 1.975-6.619 2.535-3.297.674-7.098.756-10.408-.305 1.41 4.416 2.227 8.85 2.318 13.264 7.701-4.189 15.513-8.154 23.457-11.865z" fill="#ee9e2b"/><path d="m437.106 526.41c17.241 8.285 34.614 14.516 51.571 22.18 11.192 5.055 12.371 8.02 8.761-6.133-1.835-7.209-1.707-14.988 1.476-23.662 3.799-10.352 12.588-21.215 22.264-29.631-6.381 3.607-12.145 8.352-17.176 13.696-11.156 11.848-18.138 32.467-38.467 26.828-13.37-3.707-21.738-17.465-34.791-22.305-8.785-3.256-18.364-5.152-26.516-.734.199 2.658.346 5.301.422 7.895 10.002-.521 20.158 5.96 32.456 11.866z" fill="#ee9e2b"/><path d="m584.047 690.137c9.023-.293 14.016-4.932 16.236-11.279-6.674 4.764-14.25 6.164-24.055 4.646-10.713-1.662-20.592-7.711-29.637-13.352-8.285-5.164-16.129-10.965-24.828-15.441-9.318-4.795-19.623-7.684-29.504-11.037-24.274-8.238-44.883-23.102-63.39-40.578-13.015-12.289-29.79-17.504-42.509-29.156 5.656 7.979 14.809 14.764 20.489 20.596 15.987 16.412 31.803 32.439 51.58 44.338 17.831 9.947 35.643 17.986 54.698 25.225 21.744 8.256 47.238 26.801 70.92 26.038z" fill="#ee9e2b"/><path d="m652.434 640.006c-22.742-4.584-41.346-17.299-59.689-30.775-9.232-6.787-16.764-15.215-25.047-23.047-6.867-6.496-15.381-10.674-23.518-15.316-15.842-9.043-33.012-30.697-33.933-51.002-7.625 15.773.003 29.408 10.122 41.924 11.068 13.684 27.674 22.883 37.035 30.186 8.818 6.881 17.773 14.492 25.873 22.578 23.838 15.354 78.479 56.357 104.219 30.002 7.881-8.068 12.268-16.572 13.658-25.264-1.889 4.143-4.713 8.014-8.529 11.723-10.965 10.639-25.883 11.878-40.191 8.991z" fill="#ee9e2b"/><path d="m762.842 624.779c-8.58-6.168-20.664-6.406-30.643-8.332-10.104-1.949-15.992-7.25-20.764-14.191 2.547 9.738 2.793 19.434-.482 28.547 13.865-2.955 28.377-3.67 40.313 5.574 13.178 10.205 22.426 24.203 30.988 38.467.115-19.127-2.436-37.864-19.412-50.065z" fill="#ee9e2b"/><path d="m326.247 407.433c.868-.578.329-1.93-.71-1.686-17.799 4.213-41.046 17.26-47.992 35.207-.251.645.611 1.262 1.16.891 8.114-5.455 14.975-12.51 22.97-18.166 7.991-5.652 16.421-10.814 24.572-16.246z" fill="#ee9e2b"/><path d="m195.021 481.027c-7.573 3.277-13.172 9.443-18.225 15.732-.592.737.289 1.594 1.025 1.026 6.359-4.928 13.859-8.637 18.325-15.633.493-.768-.433-1.426-1.125-1.125z" fill="#ee9e2b"/><path d="m357.139 475.974c-7.895 9.738-11.326 27.547-9.004 39.688.156.82 1.444.988 1.805.236 3.039-6.326 4.004-12.949 5.373-19.774 1.289-6.438 3.352-12.967 3.23-19.568-.012-.656-.928-1.17-1.404-.582z" fill="#ee9e2b"/><path d="m497.178 475.732c-10.104-7.227-25.885-8.475-37.756-5.791-.623.143-.506.951 0 1.145 11.009 4.205 25.428 7.412 37.274 6.426.973-.081 1.269-1.218.482-1.78z" fill="#ee9e2b"/><path d="m320.604 634.563c-14.924 1.727-30.879 4.379-41.131 16.668-.474.568-.046 1.568.769 1.318 14.043-4.279 27.058-10.881 40.579-16.369.782-.317.783-1.733-.217-1.617z" fill="#ee9e2b"/><path d="m425.449 563.342c9.736 9.186 21.266 15.568 32.928 22.008 12.621 6.969 24.709 15.207 38.082 20.682.92.375 1.354-.885.864-1.484-8.583-10.576-20.687-16.719-32.434-23.152-12.665-6.936-25.422-13.707-38.8-19.152-.627-.256-1.094.67-.64 1.098z" fill="#ee9e2b"/><path d="m502.739 607.443c-1.051.086-1.54 1.213-.837 2.021 1.635 1.887 3.809 3.277 5.981 4.469 2.894 1.588 5.089 2.9 8.413 3.383.619.09 1.484-.416 1.172-1.174-2.198-5.351-8.907-9.181-14.729-8.699z" fill="#ee9e2b"/><path d="m578.014 519.08c-.637-.143-1.111.615-.641 1.1 10.465 10.801 20.992 21.482 33.697 29.625.691.441 1.693-.471 1.17-1.17-9.033-12.1-18.523-26.031-34.226-29.555z" fill="#ee9e2b"/><path d="m670.201 680.15c-15.098-.141-36.271 5.328-43.844 19.576-.301.566.199 1.412.893 1.16 14.695-5.301 28.973-12.732 43.449-18.896.951-.404.41-1.832-.498-1.84z" fill="#ee9e2b"/><path d="m695.65 675.248c-6.223-2.699-14.051-3.25-18.447 2.852-.355.492.035 1.133.531 1.303 6.236 2.16 12.205-.111 17.916-2.734.53-.245.547-1.185 0-1.421z" fill="#ee9e2b"/><path d="m729.545 594.885c-.805.113-.773 1.445 0 1.588 8.619 1.59 16.277 5.502 25.25 5.34 1.027-.018 1.199-1.229.482-1.779-7.834-5.999-16.324-6.471-25.732-5.149z" fill="#ee9e2b"/><path d="m509.846 698.535c-29.969-6.941-62.084-3.883-92.564-2.486-.816.037-.791 1.176 0 1.252 30.379 2.938 61.898 4.861 92.363 2.721.816-.057 1.076-1.284.201-1.487z" fill="#ee9e2b"/><path d="m343.047 607.105c-7.449.035-14.768 3.967-19.457 9.688-.474.576.106 1.379.798 1.033 6.358-3.176 13.658-4.875 19.124-9.598.445-.384.08-1.124-.465-1.123z" fill="#ee9e2b"/><path d="m415.064 415.759c-.247-.32-.793-.119-.881.232-.979 3.906-.504 7.805-.518 11.793-.018 4.77-.404 9.021 1.096 13.598.179.545.95.861 1.376.365 5.495-6.455 3.929-19.521-1.073-25.988z" fill="#ee9e2b"/><path d="m463.746 353.656c6 2.129 12.236 1.43 18.492 1.064 6.74-.395 13.176-.592 19.865-1.643.766-.119.79-1.219.204-1.563-10.521-6.197-28.728-6.576-38.695 1.119-.386.298-.356.851.134 1.023z" fill="#ee9e2b"/><path d="m443.318 340.677c6.688-2.064 13.279-3.67 18.521-8.605.565-.529-.021-1.449-.736-1.264-6.802 1.771-12.933 4.367-18.296 8.988-.405.348.021 1.032.511.881z" fill="#ee9e2b"/><path d="m299.021 397.832c4.669-.479 9.334-.971 14.004-1.479 4.165-.449 7.82-.566 11.412-2.875.477-.309.5-1.006 0-1.309-7.636-4.615-18.799.355-25.766 4.373-.559.325-.357 1.362.35 1.29z" fill="#ee9e2b"/><path d="m159.182 463.615c-7.02.857-15.045 4.504-18.751 10.848-.354.607.224 1.145.819 1.063 6.977-.938 13.367-5.992 18.537-10.451.534-.46.133-1.552-.605-1.46z" fill="#ee9e2b"/><path d="m350.617 418.539c-.168-.605-.938-.652-1.262-.168-1.588 2.369-2.848 5.023-4.069 7.598-.636 1.338-1.366 2.641-2.034 3.963-.887 1.756-.998 2.994-1.285 4.893-.137.9.726 1.836 1.645 1.264 2.95-1.838 4.534-3.83 5.881-7.152 1.343-3.314 2.102-6.881 1.124-10.398z" fill="#ee9e2b"/><path d="m326.451 364.175c6.973 2.727 14.408 3.09 21.774 3.377.677.027.78-.826.315-1.164-6.533-4.758-14.33-4.711-22.09-3.611-.792.113-.577 1.172.001 1.398z" fill="#ee9e2b"/><path d="m437.771 419.757c1.899-6.877-4.18-13.584-8.824-17.881-.424-.393-1.281-.014-1.045.609 1.045 2.75 2.329 5.244 3.813 7.781 1.828 3.127 2.878 6.6 4.853 9.646.303.474 1.044.414 1.203-.155z" fill="#ee9e2b"/><path d="m461.104 385.396c2.269 1.652 3.931 3.492 6.654 4.592 1.905.771 3.748 1.643 5.622 2.479 1.406.627 2.838.346 4.326.316.672-.012.958-.676.709-1.238-1.539-3.475-3.688-4.43-7.152-5.83-1.484-.6-3.274-1.314-4.903-1.313-1.685.002-3.396.27-5.056.258-.421-.002-.499.517-.2.736z" fill="#ee9e2b"/><path d="m415.186 376.208c-.983 2.32-1.103 4.762-1.262 7.252-.178 2.758-.051 5.279 1.866 7.402.311.348.944.348 1.255 0 3.291-3.654 2.125-11.363-1.188-14.74-.173-.179-.56-.171-.671.086z" fill="#ee9e2b"/><path d="m409.59 326.441c-2.373.553-3.275 3.314-3.49 5.508-.074.771-.177 3.426 1.06 3.637 3.464.596 6.42-5.568 4.801-8.18-.514-.828-1.43-1.184-2.371-.965z" fill="#fbe134"/><path d="m451.318 420.441c3.632 2.771 4.846 9.826 9.897 10.648.226.037.526-.055.567-.322.43-2.707-1.361-4.828-2.949-6.797-1.932-2.395-4.381-3.455-7.225-4.221-.442-.119-.614.446-.29.692z" fill="#fbe134"/><path d="m486.615 327.462c-3.306-.389-7.757 1.654-9.647 4.48-.335.5.103 1.242.695 1.213 3.552-.168 8.366-1.117 9.603-4.84.151-.454-.242-.804-.651-.853z" fill="#fbe134"/><path d="m416.273 357.941c-.805-.305-1.61.467-1.625 1.238-.045 2.344 1.17 4.26 2.586 6.055.807 1.023 1.561 2.119 2.772 2.662.932.418 1.814.381 2.804.414.391.012.73-.34.725-.725-.014-.771.16-1.586-.072-2.348-.399-1.314-1.242-2.164-2.101-3.205-1.444-1.753-2.945-3.279-5.089-4.091z" fill="#fbe134"/><path d="m490.484 336.476c-2.424.693-4.432 1.586-6.313 3.26-.344.305-.039.775.337.814 2.406.256 4.628.072 7.015-.301 2.684-.42 4.279-1.289 6.348-2.963.304-.246.133-.805-.232-.881-2.653-.55-4.493-.693-7.155.071z" fill="#fbe134"/><path d="m475.641 427.501c-.147.049-.252.176-.252.334-.013 1.859 3.379 5.947 5.361 3.963.904-.902-.01-2.369-.658-3.043-1.034-1.074-3.022-1.716-4.451-1.254z" fill="#fbe134"/><path d="m486.783 382.21c-2.118-.84-4.286-1.094-6.285.084-.165.098-.193.328-.061.465 1.41 1.439 2.963 2.355 4.684 3.393 1.675 1.008 3.438 2.316 5.464 1.686.782-.244 1.24-1.021 1.036-1.824-.576-2.255-2.875-3.026-4.838-3.804z" fill="#fbe134"/><path d="m427.111 494.667c3.293 0 2.152-7.285.781-8.813-.129-.145-.378-.135-.51 0-1.258 1.3-3.852 8.813-.271 8.813z" fill="#fbe134"/><path d="m420.135 495.984c2.272-1.869 2.412-5.145 3.066-7.83.84-3.441 2.074-6.879 1.82-10.469-.033-.471-.567-.719-.928-.385-2.729 2.551-3.922 6.238-4.885 9.752-.79 2.889-1.895 6.357.136 8.932.202.258.578.178.791 0z" fill="#fbe134"/><path d="m425.338 320.769c-3.031.764-3.719 4.859-1.934 7.039.146.18.451.195.639.082 2.118-1.283 2.979-4.262 2.186-6.615-.127-.379-.492-.604-.891-.506z" fill="#fbe134"/><path d="m408.807 367.462c-1.174 2.158-1.787 5.439.582 6.963.68.436 1.716.305 2.263-.291 1.814-1.984.708-5.15-.967-6.914-.521-.551-1.514-.426-1.878.242z" fill="#fbe134"/><path d="m427.268 380.585c-.59-.15-1.261.182-1.408.801-.317 1.313-.113 2.705.363 3.955 1 2.619 5.072 1.625 4.279-1.182-.465-1.642-1.504-3.14-3.234-3.574z" fill="#fbe134"/><path d="m428.478 418.585c-.7 1.242-.348 2.617-.03 3.934.354 1.477.584 2.969 2.102 3.637.218.096.414.084.599-.076 2.124-1.861.296-7.131-2.39-7.609-.111-.018-.224.011-.281.114z" fill="#fbe134"/><path d="m452.598 318.367c1.686-.596 3.072-1.824 4.377-3.02 1.456-1.338 2.783-2.477 2.851-4.586.009-.244-.185-.529-.437-.572-3.619-.621-7.311 3.91-7.762 7.207-.074.537.334 1.197.971.971z" fill="#fbe134"/><path d="m582.467 363.958c-.18.182-.189.496 0 .676 1.043.992 2.211 1.293 3.613 1.459 1.971.236 3.129-.508 4.42-1.824.176-.174.184-.475 0-.648-1.131-1.088-1.953-1.621-3.602-1.531-1.677.093-3.246.667-4.431 1.868z" fill="#fbe134"/><path d="m581.438 353.865c-2.188.146-4.898.264-6.246 2.215-.055.076-.057.209 0 .283 1.236 1.705 3.271 1.711 5.232 1.748 3.451.07 5.971-.26 9.178-1.43.4-.146.461-.627.113-.871-2.777-1.953-4.908-2.166-8.277-1.945z" fill="#fbe134"/><path d="m551.832 455.785c-2.297-1.148-4.379-1.896-6.941-2.031-.299-.018-.531.365-.355.619 1.451 2.084 3.049 3.652 5.086 5.193 2.461 1.861 4.334 2.656 7.328 2.064.316-.061.389-.426.273-.676-1.219-2.66-2.737-3.837-5.391-5.169z" fill="#fbe134"/><path d="m527.418 290.066c-.117.207.031.469.27.471 7.24.049 14.061-5.021 19.33-9.42.432-.359-.037-.986-.514-.879-6.625 1.502-15.395 3.353-19.086 9.828z" fill="#fbe134"/><path d="m559.684 458.996c-.617 2.084 2.822 5.701 4.326 3.137.301-.508.346-1.256 0-1.762-.481-.7-3.717-3.422-4.326-1.375z" fill="#fbe134"/><path d="m499.941 370.601c.243-.229.143-.574-.096-.748-3.147-2.328-7.779-2.803-11.34-1.014-.36.182-.217.668.102.783 3.581 1.313 7.998 4.116 11.334.979z" fill="#fbe134"/><path d="m307.215 486.097c2.309-2.461 3.71-4.27 4.77-7.547.699-2.166 1.248-5.16-.348-7.029-.08-.096-.236-.104-.34-.043-2.081 1.197-2.703 3.818-3.564 5.898-1.197 2.902-1.234 5.332-1.333 8.383-.015.412.532.637.815.338z" fill="#fbe134"/><path d="m299.198 447.89c.028 1.113 1.156 1.684 2.11 1.213 1.688-.836 3.475-3.736 2.693-5.645-.122-.295-.312-.457-.637-.484-2.26-.187-4.218 2.928-4.166 4.916z" fill="#fbe134"/><path d="m396.334 437.425c-1.403 1.854-1.286 4.324-1.412 6.559-.156 2.824-.035 5.008 1.076 7.605.143.336.634.266.794 0 1.333-2.176 1.642-4.018 1.724-6.551.078-2.457.182-5.574-1.359-7.613-.229-.304-.594-.304-.823 0z" fill="#fbe134"/><path d="m254.219 457.669c2.063.092 4.143-1.553 5.758-2.662 2.238-1.533 3.646-3.328 5.199-5.508.262-.365-.166-.834-.557-.727-2.635.732-4.778 1.514-6.901 3.305-1.563 1.316-3.651 3.076-3.845 5.246-.016.194.171.339.346.346z" fill="#fbe134"/><path d="m287.92 398.255c-3.936.156-12.508-.326-14.071 4.551-.07.221.082.41.275.486 2.058.803 4.829-.26 6.843-.85 2.568-.75 4.889-1.996 7.178-3.361.367-.218.228-.845-.225-.826z" fill="#fbe134"/><path d="m292.12 405.636c-1.882-.854-4.217-.584-5.963.518-2.129 1.344-1.339 4.848 1.306 4.82 2.062-.02 4.26-1.178 5.264-3.027.404-.742.252-1.922-.607-2.311z" fill="#fbe134"/><path d="m307.627 366.005c.678-.254 2.688-1.625 2.104-2.645-.809-1.416-2.385-1.75-3.908-1.686-2.391.102-2.855 1.791-3.936 3.426-.195.295.058.777.426.742.837-.078 1.445.607 2.287.617 1.107.015 1.985-.061 3.027-.454z" fill="#fbe134"/><path d="m241.579 389.57c.337-.264.058-.875-.35-.844-2.716.223-8.767-.191-9.427 3.521-.043.244.033.412.227.559 2.912 2.203 7.347-1.529 9.55-3.236z" fill="#fbe134"/><path d="m286.756 667.666c.467-.215.189-.859-.24-.889-8.333-.564-16.956-.947-25.276-.016-.452.049-.72.662-.249.918 7.767 4.26 17.911 3.606 25.765-.013z" fill="#fbe134"/><path d="m666.189 583.738c-4.004-9.297-12.254-22.389-23.111-24.16-.244-.039-.459.24-.254.439 3.908 3.871 7.799 7.688 11.268 11.967 3.645 4.492 6.492 9.145 11.244 12.609.57.419 1.07-.353.853-.855z" fill="#fbe134"/><path d="m399.801 695.096c-1.666.248-2.756.941-4.002 1.93-.217.172-.068.506.152.578 1.491.484 2.713.748 4.305.85 1.835.111 3.084-.715 4.486-1.768.364-.273.357-.848-.129-.992-1.771-.526-2.957-.876-4.812-.598z" fill="#fbe134"/><path d="m413.049 542.828c10.827 10.246 26.923 15.309 39.853 22.498 15.366 8.543 29.304 19.379 45.017 27.285.557.281 1.135-.41.677-.877-22.812-23.289-55.265-37.768-85.274-49.373-.269-.103-.468.284-.273.467z" fill="#fbe134"/><path d="m496.505 577.848c-1.81-3.627-6.225-4.625-9.38-6.699-.273-.18-.572.164-.428.428 1.874 3.422 5.336 6.232 9.269 6.973.419.077.734-.314.539-.702z" fill="#fbe134"/><path d="m650.973 601.193c-.229-.066-.361.178-.279.361 1.164 2.639 2.936 4.959 4.48 7.379 1.512 2.367 3.176 5.109 6.094 5.756.313.068.73-.09.791-.449.537-3.234-1.654-5.533-3.635-7.814-1.924-2.213-4.611-4.397-7.451-5.233z" fill="#fbe134"/><path d="m200.262 399.371c-2.45-.934-5.91.15-7.059 2.674-.071.156-.053.361.117.449 2.522 1.299 5.711-.477 7.178-2.543.16-.225-.019-.496-.236-.58z" fill="#fbe134"/><path d="m344.635 352.49c1.836.207 2.533-.633 4.13-1.121.374-.113.401-.57.103-.781-1.608-1.141-2.438-2.521-4.75-1.904-.859.229-3.128 1.133-2.477 2.473.508 1.042 1.981 1.219 2.994 1.333z" fill="#fbe134"/><path d="m340.753 403.22c.104.176.316.311.526.301 2.969-.145 7.514-3.797 6.65-7.152-.089-.344-.399-.689-.76-.76-3.517-.682-8.444 4.109-6.416 7.611z" fill="#fbe134"/><path d="m385.367 423.63c.441-1.578.309-3.398-.818-4.662-.229-.256-.652-.229-.885 0-.982.963-1.609 2.338-1.92 3.664-.554 2.354 2.974 3.338 3.623.998z" fill="#fbe134"/><path d="m276.946 550.262c1.343-1.947 2.216-4.314 2.61-6.641.062-.369-.275-.662-.629-.482-2.354 1.201-6.633 5.301-4.382 8.127.601.754 2.093-.555 2.401-1.004z" fill="#fbe134"/><path d="m366.569 506.945c.224.391.8.383 1.024 0 1.965-3.348 1.578-7.279 1.528-11.04-.056-4.131-.356-8.619-2.696-12.133-.199-.301-.766-.313-.842.107-.705 3.957-.357 8.025-.389 12.025-.03 3.752-.56 7.68 1.375 11.041z" fill="#fbe134"/><path d="m395.156 375.917c-1.318 1.34-1.979 3.252-2.268 5.086-.299 1.865.102 2.994 1.188 4.426.187.248.589.393.827.107.947-1.135 1.688-1.879 1.994-3.43.365-1.846.596-3.912.012-5.727-.236-.735-1.179-1.044-1.753-.462z" fill="#fbe134"/><path d="m458.18 506.154c-.305-.023-.582.336-.475.625.594 1.637 1.653 2.885 2.778 4.188 1.306 1.52 2.647 1.908 4.542 2.049.292.021.604-.279.576-.576-.191-2.018-.715-2.98-2.333-4.258-1.442-1.135-3.262-1.897-5.088-2.028z" fill="#fbe134"/><path d="m276.918 564.453c5.385-4.598 9.604-14.563 8.525-21.611-.076-.498-.734-.453-.963-.125-2.289 3.258-3.617 7.035-5.284 10.631-1.618 3.49-3.235 6.775-3.263 10.697-.003.533.616.721.985.408z" fill="#fbe134"/><path d="m478.104 509.023c-3.297-4.586-6.215-7.205-11.301-9.941-4.242-2.28-9.668-4.776-14.547-3.969-.399.066-.432.572-.219.826 3.022 3.549 8.022 5.555 12.001 7.875 4.587 2.676 8.472 4.396 13.489 5.959.406.125.842-.38.577-.75z" fill="#fbe134"/><path d="m534.762 522.621c1.365 2.441 2.705 6.359 5.729 7.107 1.172.293 2.09-.732 1.863-1.861-.605-3.016-4.496-5-7.201-5.756-.299-.082-.538.246-.391.51z" fill="#fbe134"/><path d="m367.699 396.025c-1.284 2.021 1.263 4.566 3.285 3.285 1.408-.893 2.691-2.408 2.535-4.182-.084-.955-.687-1.555-1.639-1.641-1.773-.155-3.288 1.132-4.181 2.538z" fill="#fbe134"/><path d="m521.617 716.854c-2.219-.98-3.594-1.262-6.01-.689-1.027.244-3.896 1.184-3.459 2.77.445 1.627 2.764 1.41 4.02 1.379 2.471-.061 3.848-1.084 5.551-2.684.213-.202.189-.65-.102-.776z" fill="#fbe134"/><path d="m737.924 702.029c-20.723-3.193-44.307-.57-63.545 8.021-.42.186-.191.83.225.828 21.025-.072 42.287-5.529 63.189-7.879.504-.056.728-.878.131-.97z" fill="#fbe134"/><path d="m399.334 692.053c-10.123-1.406-22.482-1.309-31.35 4.436-.238.154-.156.557.15.551 10.223-.221 21.479-.65 31.199-4.031.411-.146.528-.882.001-.956z" fill="#fbe134"/><path d="m509.381 717.197c.377-.139.496-.816 0-.889-13.104-1.885-28.815-2.387-41.283 2.76-.265.109-.359.57 0 .635 13.165 2.342 28.699 2.123 41.283-2.506z" fill="#fbe134"/><path d="m338.119 650.848c-10.987.75-23.316 4.037-32.871 9.705-.391.23-.213.811.225.826 11.189.449 23.625-3.42 32.953-9.395.48-.306.332-1.179-.307-1.136z" fill="#fbe134"/><path d="m176.697 473.714c.257-.344-.165-.816-.539-.701-4.127 1.266-7.24 3.623-10.564 6.297-3.793 3.051-8.086 6.426-10.432 10.773-.24.445.227.848.652.652 4.066-1.865 7.625-5.205 11.092-7.992 3.559-2.863 7.038-5.335 9.791-9.029z" fill="#fbe134"/><path d="m291.03 630.012c-9.999 4.926-25.181 8.66-29.678 20.279-.142.369.329.648.63.482 5.095-2.789 9.836-6.291 14.892-9.189 5.55-3.18 10.061-6.463 14.694-10.875.383-.365-.101-.914-.538-.697z" fill="#fbe134"/><path d="m333.111 527.625c2.939-1.416 3.846-5.932 3.576-8.865-.053-.592-.69-.889-1.151-.479-2.228 1.986-4.34 6.035-3.174 9.039.126.321.433.457.749.305z" fill="#fbe134"/><path d="m367.086 430.21c3.271.9 3.809-5.768 3.203-7.564-.285-.842-1.288-1.135-1.953-.514-1.176 1.094-4.095 7.295-1.25 8.078z" fill="#fbe134"/><path d="m373.814 340.177c-2.436-.424-4.847 2.557-2.633 4.521 1.711 1.52 4.478 3.25 6.738 3.729 1.582.336 2.721-.93 2.458-2.459-.477-2.799-3.891-5.326-6.563-5.791z" fill="#fbe134"/><path d="m566.541 516.012c.365.07.674-.279.484-.627-3.645-6.623-11.508-9.955-18.701-11.209-.436-.074-.637.434-.291.693 5.701 4.268 11.344 9.799 18.508 11.143z" fill="#fbe134"/><path d="m360.063 349.324c-.58.379-.759 1.221-.224 1.73 1.029.982 4.734 2.811 5.404.377.794-2.877-3.6-3.14-5.18-2.107z" fill="#fbe134"/><path d="m353.757 376.88c1.69 2.928 9.384-2.184 7.802-4.316-2.717-3.666-10.373-.135-7.802 4.316z" fill="#fbe134"/><path d="m371.766 486.296c-1.562 2.689-1.611 7.928.724 10.205.21.203.56.213.77 0 2.339-2.406 1.261-7.623-.329-10.205-.265-.427-.907-.445-1.165 0z" fill="#fbe134"/><path d="m555.611 636.609c6.672 5.166 13.037 10.689 19.721 15.844.457.354.986-.307.744-.742-8.146-14.684-26-27.693-42.5-31.145-.416-.088-.605.422-.279.662 7.303 5.344 15.135 9.825 22.314 15.381z" fill="#fbe134"/><path d="m499.387 586.285c-.201-.088-.455.057-.387.299.855 3.041 3.853 7.488 7.273 7.779.244.02.498-.232.477-.479-.277-3.329-4.552-6.349-7.363-7.599z" fill="#fbe134"/><path d="m207.771 530.568c-.063.412.305.746.701.539 3.834-1.994 8.086-5.527 7.975-10.242-.008-.301-.313-.588-.625-.477-4.307 1.559-7.359 5.702-8.051 10.18z" fill="#fbe134"/><path d="m220.291 509.412c.044-.305-.121-.633-.475-.625-1.889.045-3.492 1.553-4.815 2.762-1.921 1.754-2.659 3.977-3.306 6.4-.094.354.291.639.605.465 1.882-1.049 3.438-2.023 4.83-3.701 1.222-1.471 2.89-3.356 3.161-5.301z" fill="#fbe134"/><path d="m568.799 655.299c.777 1.146 1.689 2.09 2.701 3.029 2.223 2.064 4.721 3.063 7.664 3.594.416.074.742-.311.539-.701-1.104-2.15-2.488-3.832-4.512-5.174-1.045-.695-2.111-1.355-3.178-2.016-1.27-.787-2.928-1.297-3.99-2.361-.363-.363-.943.098-.697.537.565 1.025.815 2.117 1.473 3.092z" fill="#fbe134"/><path d="m333.566 504.869c-4.947 7.912-10.078 18.889-6.996 28.244.166.506.802.463.982 0 3.363-8.572 6.184-18.811 6.75-28.045.024-.41-.538-.513-.736-.199z" fill="#fbe134"/><path d="m767.9 600.775c-2.5-2.445-5.322-4.754-8.352-6.473-.264-.15-.541.094-.482.371.629 3.088 2.416 5.396 4.395 7.799 1.238 1.506 2.529 2.971 3.867 4.385 1.424 1.504 3.24 2.127 4.824 3.395.41.332 1.096.039.934-.543-.475-1.707-.656-3.322-1.555-4.879-.902-1.559-2.359-2.81-3.631-4.055z" fill="#fbe134"/><path d="m176.039 479.82c2.461-.391 4.957-2.854 5.621-5.166.072-.254-.086-.516-.333-.588-2.946-.855-5.964 2.486-5.788 5.375.016.275.238.422.5.379z" fill="#fbe134"/><path d="m624.553 607.861c-19.178-27.477-45.223-54.703-74.574-71.496-.357-.205-.664.25-.42.543 21.916 26.146 50.299 47.193 74.012 71.713.486.502 1.394-.166.982-.76z" fill="#fbe134"/><path d="m667.533 620.244c.203.141.488.037.607-.158 1.021-1.643 1.049-3.082.338-4.877-.6-1.51-1.488-3.342-3.223-3.723-.205-.043-.455.025-.557.229-.709 1.438-.242 3.025.102 4.506.43 1.847 1.18 2.97 2.733 4.023z" fill="#fbe134"/><path d="m179.27 412.925c5.213-2.209 10.078-4.797 14.555-8.271.398-.307-.036-.912-.465-.799-4.852 1.299-9.307 3.221-13.849 5.33-4.938 2.293-10.501 4.352-14.681 7.898-.201.174-.043.553.223.533 5.008-.382 9.642-2.751 14.217-4.691z" fill="#fbe134"/><path d="m210.943 461.386c17.088-4.971 31.805-17.898 41.092-33.014 2.752-4.48 6.277-10.084 5.934-15.604-.039-.633-.127-1.215-.246-1.762-6.768 13.93-18.888 25.344-33.303 33.039-10.289 5.492-29.581 9.445-43.096 4.965.404 1.975 1.176 3.924 2.43 5.799 6.295 9.405 17.338 9.442 27.189 6.577z" fill="#f3af79"/><path d="m292.31 469.55c-2.216 12.955-7.845 25.436-15.902 35.209-7.852 9.52-23.126 19.002-35.401 12.5-3.64-1.928-6.055-5.4-7.721-9.482-.514 17.121 14.695 33.715 32.586 21.082 15.303-10.803 22.024-28.035 25.02-45.944.421-2.519 1.629-8.296 1.418-13.365z" fill="#f3af79"/><path d="m589.123 421.962c-10.521 6.535-24.271 6.166-35.932 3.777-13.541-2.777-35.961-16.641-43.465-32.588-1.578 9.873 8.6 23.01 16.52 30.678 12.707 12.295 32.672 23.34 50.76 16.617 11.377-4.229 17.67-13.412 18.125-23.219-1.762 1.733-3.742 3.329-6.008 4.735z" fill="#f3af79"/><path d="m522.502 335.896c12.236 7.533 30.594 9.426 44.639 6.814 14.068-2.613 35.846-12.422 28.809-30.625-.961-2.48-2.248-4.674-3.756-6.629-3.027 11.576-14.404 19.74-28.447 23.789-13.928 4.018-37.525.912-44.904-11.283-3.493 6.176-3.919 13.274 3.659 17.934z" fill="#f3af79"/><path d="m195.6 435.636c6.717-1.621 12.484-5.924 18.596-9.018 7.695-3.896 15.585-6.906 22.801-11.717.738-.494.473-1.668-.457-1.688-14.494-.285-34.778 8.08-41.385 21.842-.149.312.091.667.445.581z" fill="#fff7cf"/><path d="m246.094 502.723c5.768-2.879 9.664-10.43 14.082-15.069 5.758-6.043 12.023-11.578 17.836-17.561.668-.688 0-1.838-.928-1.594-9.365 2.451-15.643 6.682-22.145 13.918-4.467 4.967-11.16 12.889-9.475 20.049.069.284.393.374.63.257z" fill="#fff7cf"/><path d="m525.346 390.39c21.121 2.322 38.85 7.666 57.459 18.092.521.291 1.098-.291.809-.811-10.094-18.283-39.713-26.66-58.451-17.955-.362.168-.136.639.183.674z" fill="#fff7cf"/><path d="m536.16 313.886c5.801.477 11.764-2.555 17.449-3.664 7.582-1.482 14.848-1.363 22.283-3.662.479-.15.629-.857.145-1.115-7.217-3.805-13.744-3.418-21.602-1.93-6.326 1.199-15.422 3.736-18.529 9.926-.107.211.024.428.254.445z" fill="#fff7cf"/><g fill="#68182b"><path d="m354.147 491.904c-.015-.26-.372-.313-.452-.063-3.525 11.124-5.254 22.985-8.041 34.334-2.529 10.299-5.742 20.406-6.514 31.023-.039.535.824.797 1.043.281 4.132-9.754 6.382-20.098 8.842-30.375 2.705-11.305 5.775-23.504 5.122-35.2z"/><path d="m353.59 521.727c-2.084 4.021-2.89 8.318-3.359 12.83-.057.559.721.664.982.266 2.592-3.943 2.844-8.365 3.082-12.904.021-.372-.534-.523-.705-.192z"/><path d="m369.445 632.414c.454-.213.238-.992-.258-.951-15.758 1.297-30.736 7.344-45.516 12.635-14.857 5.318-29.661 10.844-44.145 17.121-.305.135-.076.576.217.514 15.379-3.27 30.199-8.473 45.047-13.578 14.89-5.124 30.359-9.089 44.655-15.741z"/><path d="m372.34 630.912c-.402.492-.176 1.287.534 1.291 2.361.016 5.344-.549 6.773-2.598.158-.227.052-.596-.188-.719-2.405-1.224-5.512.05-7.119 2.026z"/><path d="m343.482 621.791c13.434-3.025 26.654-8.865 39.094-14.711.482-.227.124-.904-.341-.811-13.483 2.686-26.866 8.512-39.032 14.859-.377.198-.109.751.279.663z"/><path d="m417.363 636.627c.484-.223.217-.943-.257-.951-8.354-.129-17.34 2.6-24.364 7.113-.23.148-.145.52.142.523 8.357.045 16.966-3.234 24.479-6.685z"/><path d="m539.625 706.33c-27.58-2.338-55.047-2.416-82.704-1.6-27.112.799-56.083 1.021-82.515 7.635-.203.051-.154.352.047.355 27.373.471 55.071-3.33 82.468-4.188 27.555-.861 55.14-.475 82.704-1.018.773-.014.75-1.119 0-1.184z"/><path d="m483.809 712.83c-19.619-1.85-40.297-1.217-59.77 2.01-.402.068-.278.66.092.68 19.632 1.002 40.137.043 59.678-1.867.529-.051.531-.774 0-.823z"/><path d="m748.324 679.793c-45.662-3.076-95.666 17.209-132.889 42.426-.402.271-.053.887.383.654 41.586-22.41 85.299-37.633 132.506-41.828.801-.07.811-1.197 0-1.252z"/><path d="m715.537 689.758c-.17.131.018.365.193.328 4.742-1.012 9.635-.854 14.26-2.473.34-.119.348-.582 0-.699-5.164-1.721-10.267-.428-14.453 2.844z"/><path d="m645.598 614.314c-10.41-21.002-25.707-37.43-42.863-53.188-17.477-16.055-35.869-32.086-54.93-46.238-.207-.154-.402.164-.26.336 14.461 17.316 33.117 31.332 49.658 46.59 17.391 16.045 33.68 33.775 47.428 53.064.418.587 1.291.089.967-.564z"/><path d="m634.91 590.189c.283.193.688-.127.58-.447-.955-2.857-2.428-4.77-4.371-7.051-1.803-2.115-3.719-4.713-6.26-5.965-.412-.203-.979.131-.82.631.797 2.527 2.879 4.605 4.533 6.611 1.987 2.401 3.756 4.468 6.338 6.221z"/><path d="m618.422 540.186c-.229-.188-.518.098-.324.326 15.586 18.451 29.322 37.959 44.115 56.988.291.373.801-.104.621-.48-10.256-21.229-26.195-41.874-44.412-56.834z"/><path d="m571.002 570.664c-.262-.189-.496.199-.32.412 7.225 8.729 15.979 17.521 25.779 23.34.418.246.801-.305.498-.648-7.521-8.543-16.744-16.43-25.957-23.104z"/><path d="m472.775 489.685c6.451 1.736 12.546 4.525 19 6.285.358.096.706-.402.385-.66-9.739-7.871-26.627-14.416-38.861-8.916-.279.129-.104.5.142.523 6.572.62 12.919 1.041 19.334 2.768z"/><path d="m493.869 490.751c.356.049.727-.281.5-.652-2.137-3.498-6.934-5.371-10.914-4.943-.322.035-.627.467-.302.73 2.91 2.358 6.978 4.362 10.716 4.865z"/><path d="m477.122 612.186c-22.133-13.107-42.023-28.441-61.937-44.639-.266-.219-.582.104-.371.369 14.465 18.258 34.646 31.891 54.199 44.18 21.746 13.666 44.461 25.131 67.328 36.715.68.342 1.24-.607.596-1.025-19.541-12.626-39.8-23.749-59.815-35.6z"/><path d="m541.293 649.033c-.262.047-.297.383-.146.551 1.15 1.287 2.818 2.051 4.309 2.875 1.686.932 3.465 1.799 5.402 1.992.285.029.436-.324.313-.545-1.683-3.015-6.423-5.484-9.878-4.873z"/><path d="m732.527 605.793c-.381.051-.563.664-.102.744 9.576 1.623 18.881 3.332 27.416 8.213 9.342 5.346 14.375 14.633 20.191 23.256.318.473.947.16.873-.367-3.157-22.227-27.673-34.612-48.378-31.846z"/><path d="m782.912 641.092c-.336-.354-.822-.051-.871.359-.174 1.531.076 2.85.512 4.313.703 2.379 3.432 1.434 2.633-.725-.557-1.5-1.163-2.781-2.274-3.947z"/><path d="m779.578 607.039c-.186-.191-.506.002-.439.256 1.666 6.23 2.9 12.736 5.664 18.584.207.441.787.168.826-.225.672-6.607-1.322-13.8-6.051-18.615z"/><path d="m747.271 713.676c-7.729-.395-15.115 1.766-22.639 3.324-9.734 2.016-19.576 3.529-29.492 4.229-.279.021-.381.473-.07.52 16.619 2.324 37.09-.291 52.426-7.246.432-.196.178-.808-.225-.827z"/><path d="m744.463 719.088c-.266.174-.191.672.176.643 2.518-.203 4.783-.043 6.586-2.184.191-.227.113-.531-.166-.633-2.758-1.014-4.477.789-6.596 2.174z"/><path d="m654.809 633.709c-6.633-3.615-14.393-6.992-21.73-8.85-.324-.082-.463.33-.217.512 6.096 4.445 13.883 9.623 21.732 9.137.402-.026.611-.582.215-.799z"/><path d="m653.447 635.854c-.262.043-.322.408-.152.578 1.754 1.709 4.797 3.037 6.867 1.109.172-.16.158-.441 0-.604-1.764-1.808-4.441-1.462-6.715-1.083z"/><path d="m469.063 679.465c.656-.063.906-1.082.167-1.229-12.305-2.443-25-2.131-37.487-1.943-12.361.184-25.221.67-36.996 4.752-.268.09-.243.539.069.516 24.687-1.778 49.685.183 74.247-2.096z"/><path d="m316.096 685.879c-11.076-2.658-23.531-.488-34.846-.508-.353 0-.429.527-.083.613 10.951 2.777 23.919 3.342 34.929.561.328-.082.334-.586 0-.666z"/><path d="m311.616 690.125c-.214.125-.237.48 0 .598 1.751.865 5.379 1.348 6.026-1.189.05-.193.011-.461-.156-.592-1.746-1.389-4.263.259-5.87 1.183z"/><path d="m323.676 539.164c-6.113 9.689-9.141 21.914-9.696 33.307-.026.543.697.547.872.119 4.324-10.572 5.639-22.365 9.304-33.225.098-.291-.328-.447-.48-.201z"/><path d="m319.949 562.725c-1.924 1.953-2.496 5.477-1.184 7.871.169.309.621.291.795 0 1.262-2.105 1.752-5.338 1.02-7.705-.082-.268-.426-.375-.631-.166z"/><path d="m479.313 678.74c.245-.078.26-.434 0-.506-2.104-.596-4.42-.496-6.475.287-.305.115-.323.525 0 .635 2.1.711 4.424.25 6.475-.416z"/><path d="m288.029 435.068c-.143.229.148.551.383.385 7.719-5.551 16.461-10.232 23.364-16.756.346-.326-.009-.938-.465-.799-9.095 2.809-18.233 8.957-23.282 17.17z"/><path d="m307.584 428.89c-.014.217.232.404.438.334 1.666-.576 3.149-1.826 4.438-3 1.65-1.496 3.026-2.758 3.715-4.914.104-.326-.178-.703-.523-.686-3.822.178-7.8 4.45-8.068 8.266z"/><path d="m512.834 363.199c-.396.166-.395.82.109.809 8.854-.232 17.453-.902 26.33-.316 8.842.584 17.619 3.076 26.459 1.783.408-.061.498-.742.117-.902-14.597-6.2-38.306-7.566-53.015-1.374z"/><path d="m573.434 363.289c.383-.088.361-.555.1-.752-.873-.656-1.422-1.324-2.418-1.756-.838-.361-1.754-.582-2.633-.832-1.887-.537-3.932-1.016-5.867-.516-.453.117-.705.805-.299 1.127 1.563 1.242 3.457 1.807 5.316 2.467 2.189.775 3.596.773 5.801.262z"/><path d="m492.939 420.357c-4.584-2.191-9.301-3.705-14.398-3.863-.438-.014-.656.664-.232.857 4.851 2.223 9.728 4.313 14.412 6.879 3.632 1.99 7.479 5.768 11.798 5.418.603-.049.903-.6.654-1.141-1.967-4.275-8.205-6.228-12.234-8.15z"/><path d="m173.275 518.313c6.871-4.648 12.59-11.098 18.727-16.654 7.706-6.979 16.506-12.85 23.645-20.418.354-.375.009-1.156-.543-.934-8.159 3.271-14.828 9.078-21.373 14.816-7.514 6.588-16.094 13.854-20.859 22.786-.133.245.146.581.403.404z"/><path d="m217.394 482.269c-2.194 1.967-3.285 4.244-4.745 6.711-.34.574.434 1.141.904.697 1.766-1.654 3.752-3.072 5.505-4.762 1.833-1.764 3.741-3.461 5.589-5.205.227-.215.065-.68-.268-.646-2.758.268-4.943 1.375-6.985 3.205z"/><path d="m488.484 310.548c9.084-4.627 18.568-8.338 27.533-13.199.551-.301.156-1.072-.406-.963-9.213 1.789-17.346 5.547-25.734 9.65-7.912 3.875-16.628 8.092-22.78 14.52-.195.203-.005.594.288.494 7.398-2.523 14.145-6.961 21.099-10.502z"/><path d="m498.783 311.912c-7.119 1.021-14.425 3.428-19.199 9.197-.322.389-.026.969.496.852 6.967-1.578 12.973-5.736 19.045-9.238.469-.27.128-.878-.342-.811z"/><path d="m483.875 412.257c-.368.238-.354.729 0 .967 1.541 1.045 3.639 1.102 5.422 1.455 1.785.354 3.555.785 5.392.613.307-.029.591-.365.385-.668-1.147-1.691-3.063-2.414-4.999-2.768-1.971-.36-4.425-.741-6.2.401z"/><path d="m313.623 462.591c.057.518.65.863 1.068.443 2.859-2.873 4.091-6.902 5.92-10.457 2.367-4.596 5.154-8.955 7.348-13.643.209-.453-.293-.826-.674-.52-3.749 3.027-6.456 6.738-8.99 10.795-2.395 3.837-5.18 8.746-4.672 13.382z"/><path d="m327.835 448.113c.189.254.582.385.827.107 1.6-1.818 2.188-4.391 3.438-6.518.162-.277-.104-.564-.391-.508-2.967.593-6.021 4.04-3.874 6.919z"/><path d="m301.836 378.019c.389-.207.213-.844-.225-.828-15.183.576-32.783 5.664-46.53 12.055-.335.156-.177.738.19.705 15.09-1.379 33.122-4.789 46.565-11.932z"/><path d="m304.551 373.9c.459-.193.475-.766 0-.953-3.912-1.535-8.8-.797-12.202 1.652-.173.127-.177.424.063.482 3.912.948 8.454.36 12.139-1.181z"/><path d="m133.429 447.699c11.49-4.928 23.345-9.611 34.304-15.615.366-.201.227-.885-.225-.83-12.518 1.543-24.941 7.764-34.856 15.438-.629.485.172 1.266.777 1.007z"/><path d="m404.172 398.123c-.363 1.514-.752 3.195-.348 4.73.453 1.719 2.905 1.643 3.395 0 .407-1.361.27-2.883.238-4.285-.014-.662-.094-1.281-.302-1.914-.15-.455-.763-.756-.837-1.188-.048-.279-.479-.26-.539 0-.059.242-.537.482-.723.635-.521.426-.738 1.412-.884 2.022z"/><path d="m412.748 399.851c.874.498 2.006-.135 2.006-1.152-.002-1.971-2.121-3.887-4.119-3.188-.316.111-.462.383-.402.707.258 1.405 1.279 2.926 2.515 3.633z"/><path d="m430.719 368.443c1.912.35 3.42.66 5.373.229 1.85-.406 3.859-1.729 3.83-3.764-.012-.725-.506-1.471-1.242-1.633-3.102-.68-5.729 3.055-8.032 4.627-.192.131-.203.49.071.541z"/><path d="m430.938 363.4c2.314-.756 4.061-2.203 4.628-4.568.095-.391-.179-.691-.556-.729-2.752-.273-4.805 2.053-4.738 4.789.007.328.332.617.666.508z"/><path d="m373.162 365.332c.301.471.686.756 1.213.934 1.18.395 2.251-.031 3.357-.455.794-.305 3.725-1.355 3.066-2.717-1.386-2.867-9.797-.9-7.822 2.004.089.13.417.595.186.234z"/><path d="m401.154 363.716c.064.064.129.127.191.191.219.246.568.23.84.107-.006-.008-.012-.018-.017-.025.972.041 1.599-.662 1.936-1.475.919-2.203 1.397-4.912.757-7.248-.175-.646-1.123-.99-1.594-.422-1.681 2.027-2.761 4.537-3.105 7.137-.087.638.432 1.462.992 1.735z"/><path d="m383.563 390.517c1.754-.688 3.102-1.861 3.734-3.703.282-.82.795-2.809-.51-3.143-2.147-.549-4.745 1.84-5.85 3.43-1.117 1.609.747 4.152 2.626 3.416z"/><path d="m392.855 346.892c2.332-1.586 1.563-6.582-.169-8.289-.685-.674-2.075-.83-2.733 0-1.461 1.848-1.309 4.023-.277 6.096.431.869 1.879 3.078 3.179 2.193z"/><path d="m419.125 344.783c.328.32.324.389-.011.205-.05.527.556.707.94.539.328-.143 1.086-.189 1.607-.473.943-.52 1.607-1.139 2.318-1.947.682-.779 1.453-1.803 1.727-2.816.271-1.018.043-1.684.006-2.674-.015-.383-.311-.713-.707-.709-2.512.033-3.722.896-5.036 3.107-.489.822-.964 1.988-.985 2.959-.01.467-.138.994-.01 1.449.049.121.101.241.151.36z"/><path d="m442.701 381.677c.893.402 1.471.998 2.421 1.299 1.177.369 2.395.189 3.581.027 2.555-.35 1.498-4.313-1.076-3.902-.857.137-1.666.258-2.505.5-.971.279-1.522.959-2.421 1.365-.269.121-.269.59 0 .711z"/><path d="m450.281 348.13c2.365.293 5.1-.432 6.814-2.121 1.314-1.295-.078-3.07-1.647-2.83-2.296.35-4.479 2.193-5.607 4.184-.208.369.065.722.44.767z"/><path d="m353.104 360.423c1.905-.063 4.228-.273 5.677-1.619.358-.334.358-.971 0-1.305-1.449-1.344-3.771-1.557-5.677-1.617-.722-.023-1.655.434-1.96 1.125-.399.906-.399 1.383 0 2.291.305.692 1.239 1.149 1.96 1.125z"/><path d="m356.916 385.992c-1.082 1.389.281 3.693 2.016 2.611 1.748-1.088 3.719-2.672 4.762-4.473.091-.154.046-.389-.123-.475-2.302-1.152-5.219.493-6.655 2.337z"/><path d="m384.66 407.425c-.753 2.764 3.207 3.719 4.198 1.154.339-.879 2.177-5.631.463-6.113-2.296-.644-4.206 3.287-4.661 4.959z"/><path d="m434.229 392.652c-1.612 1.387 1.422 4.348 2.58 4.842 1.213.514 3.122-.697 2.09-2.09-.606-.811-3.457-3.799-4.67-2.752z"/><path d="m453.305 375.771c1.294-.463 2.346-1.66 1.982-3.092-.275-1.086-2.096-1.068-2.848-.695-1.591.787-2.229 1.893-2.983 3.371-.093.18-.026.469.206.508 1.343.228 2.277.394 3.643-.092z"/><path d="m438.17 330.656c2.859-.359 6.672-3.33 5.788-6.52-.185-.67-.821-1.17-1.522-1.16-3.312.047-5.13 4.512-4.662 7.377.025.162.232.322.396.303z"/><path d="m403.77 417.021c-.189-.035-.346-.066-.537-.031-.058.01-.113.02-.171.031-.467.086-.781.514-.93.928-.653 1.861-.8 3.953-1.021 5.906-.242 2.168 3.293 2.59 3.771.51.477-2.086.508-4.377-.186-6.416-.141-.416-.464-.844-.926-.928z"/><path d="m455.441 399.898c-.275.051-.326.367-.236.58.816 1.9 2.018 3.377 3.293 4.994.443.559 1.357.705 2.004.529.586-.158.891-.457 1.229-.945.374-.541.406-1.539 0-2.076-1.586-2.102-3.557-3.586-6.29-3.082z"/><path d="m472.552 370.734c-.448.07-2.753.18-2.547 1.188.498 2.441 5.731 2.896 6.983.965.193-.297.188-.736 0-1.033-.935-1.491-2.885-1.356-4.436-1.12z"/><path d="m361.9 409.781c-.416.607-.364 1.523 0 2.135.303.504.656.887 1.265.973 1.024.146 1.777-.111 2.386-.973 1.169-1.648 1.521-3.307 1.928-5.209.064-.305-.191-.588-.506-.506-2.198.574-3.76 1.672-5.073 3.58z"/><path d="m335.945 381.57c1.041-.314 1.725-1 2.555-1.641.459-.352.871-1.273 1.022-1.418.294-.277.087-.889-.35-.842-.062.006-.962-.383-1.388-.381-.984.006-2.022-.191-2.969.184-2.483.983-1.549 4.908 1.13 4.098z"/><path d="m278.875 531.656c-2.881 2.273-6.35 4.359-9.507 6.25-2.624 1.572-5.599 2.699-7.824 4.854-.204.199-.042.52.222.535 7.025.393 14.553-5.354 17.705-11.18.215-.4-.27-.717-.596-.459z"/><path d="m582.877 448.357c-2.74.697-5.072 1.914-7.73 2.863-3.002 1.074-6.377 1.693-9.545 1.98-.23.02-.396.373-.133.488 5.674 2.492 14.498.68 17.836-4.773.177-.29-.112-.636-.428-.558z"/><path d="m590.16 343.607c-.389.229-.117.766.291.693 3.912-.703 6.938-1.775 10.203-4.104 2.178-1.553 4.836-3.881 4.688-6.793-.01-.186-.203-.311-.373-.215-2.359 1.365-4.07 3.75-6.334 5.309-2.678 1.842-5.674 3.456-8.475 5.11z"/></g></g></g></svg>