<svg id="Fruit" height="512" viewBox="0 0 992.13 992.13" width="512" xmlns="http://www.w3.org/2000/svg"><g><path d="m412.136 895.09c30.118 6.717 61.045 10.121 91.919 10.123h.011c150.233 0 285.814-78.967 353.815-206.068 44.864-83.861 59.024-183.443 39.87-280.403-19.198-97.176-70.282-183.564-143.843-243.249-70.399-57.119-161.179-88.576-255.617-88.576-94.29 0-186.404 31.015-259.379 87.33-96.188 74.232-151.903 191.422-152.855 321.871.74 102.857 34.289 195.4 97.018 267.625 55.757 64.202 137.106 110.851 229.061 131.347z" fill="#fff"/><g><path d="m738.861 194.038c-138.93-112.723-345.334-108.946-485.357-.884-94.039 72.573-142.706 185.372-143.566 302.79.671 92.931 29.858 181.546 91.168 252.138 55.589 64.012 134.165 105.406 216.227 123.699 164.141 36.594 339.045-33.537 419.489-183.904 87.301-163.176 45.351-377.562-97.961-493.839z" fill="#68182b"/><path d="m870.054 466.931c-15.962-200.299-187.824-355.648-389.958-345.966-91.555 4.383-182.241 40.523-248.327 104.836-73.628 71.652-110.551 168.016-111.299 270.143.248 34.535 3.732 69.169 12.79 102.58 49.301 181.85 238.486 294.252 422.801 269.615 87.178-11.652 170.671-53.453 227.918-121.008 65.249-76.998 94.053-180.094 86.075-280.2zm-54.15 102.108c.338 1.471.619 2.988.833 4.557 5.527 40.486-24.533 107.27-74.957 94.717-4.519 6.189-10.074 11.885-16.468 16.963 14.854 33.852 11.268 95.443-32.807 103.182-21.209 3.723-44.808.008-59.003-18.037-1.24-1.576-2.35-3.166-3.402-4.762-5.157 2.27-10.527 3.801-16.081 4.73-.249 8.24-3.705 16.863-11.373 24.877-29.2 30.506-79.215 28.4-113.368 7.689-12.451 11.055-29.316 17.127-46.107 15.635-24.569-2.182-38.748-23.43-47.414-44.324-18.414 17.602-41.353 28.568-63.479 13.422-11.264-7.709-17.836-17.5-21.092-28.344-18.063.035-33.08-14.104-40.718-29.689-15.836 2.881-32.683-.242-44.514-11.408-19.148-18.068-27.508-45.359-35.108-69.885-6.23-20.1-7.578-38.162 6.648-52.557-40.809-17.346-62.605-76.654-43.497-120.635 5.63-12.959 16.731-24.182 29.839-30.76-6.819-16.768 3.184-36.322 16.15-47.433-5.998-14.44-8.47-29.636-5.798-42.332 5.26-24.994 22.546-41.11 42.194-46.401-5.246-11.712-15.895-24.996-11.458-38.596 3.596-11.015 11.427-20.994 22.129-26.016 20.352-9.555 46.099-3.48 60.822 13.802 12.617-14.469 31.043-24.336 49.73-28.377-7.051-19.907.284-41.526 15.289-56.64 12.34-12.435 35.03-18.632 48.04-19.611 14.279-1.078 28.893-.516 42.76.669 18.591 1.586 37.317 4.71 48.19 21.888 3.949 6.239 6.961 12.634 9.079 19.022 30.151-28.566 75.846-41.128 105.038-2.733 6.085 8.004 9.793 16.106 11.585 24.141 15.149-.533 29.252 5.93 38.854 17.613 11.301-8.181 24.105-12.998 39.768-9.386 29.522 6.811 37.87 32.864 31.193 60.447 12.987 3.46 25.156 10.417 34.48 21.335 36.63 42.892 46.545 121.541-16.071 143.102 3.984 3.914 7.006 8.445 9.211 13.405 14.3-.547 32.204-4.013 45.029 3.591 12.432 7.372 21.787 20.866 23.942 35.34 3.721 24.992-4.36 55.438-28.088 67.799z" fill="#fbf199"/><path d="m757.695 534.051c-10.717.961-21.368 4.105-30.499 9.199-8.246 4.604-9.211 5.09-11.257-2.902-5.661-22.031-24.778-40.463-47.973-43.824-.015-.149-.008-.291-.035-.447-.861-4.812.864-9.901 2.551-14.549 16.053 2.188 32.391 1.158 45.171-4.344 12.901-5.556 22.888-16.379 28.692-29.176 36.807 12.763 26.679 59.324 13.35 86.043z" fill="#a2603f"/><path d="m694.932 583.225c-33.506-3.477-73.754 5.49-99.417 29.078-1.696-5.729-4.513-11.223-8.141-16.408 25.359-11.469 47.731-28.27 55.47-56.076 2.696-9.682 2.299-19.857-.397-29.49 43.368-19.303 86.571 36.181 52.485 72.896z" fill="#aa8053"/><path d="m484.845 761.822c-22.678-6.828-45.947-17.256-58.324-38.465-9.274-15.896-3.795-34.26 7.563-48.238.603-.434 1.073-.998 1.386-1.66 8.465-9.756 19.762-17.115 30.639-19.563 8.341 8.182 19.07 14.514 32.595 19.301 10.385 3.674 21.196 5.881 31.773 6.227 19.759 13.275 37.864 35.08 31.768 60.381-8.239 34.181-52.741 29.445-77.4 22.017z" fill="#a2603f"/><path d="m287.627 653.449c-24.57-16.799-38.51-44.143-32.183-73.83 7.16-33.615 43.321-40.947 71.577-31.012 9.934 3.496 12.442 7.939 16.824 15.119 9.639 15.811 23.704 28.559 39.993 37.176 8.322 4.402 11.92 8.813 11.208 19.967-1.326 20.721-9.157 38.83-30.734 47.877-26.767 11.221-54.242.051-76.685-15.297z" fill="#a2603f"/><path d="m270.402 477.936c6.777-7.609 17.327-11.904 26.477-15.964 4.806 3.261 10.419 6.035 16.979 8.203 9.258 3.061 17.786 3.735 25.595 2.58 4.063-.596 6.837-.039 8.133 4.604 1.415 5.081-.578 10.47-3.404 15.044-8.802 14.254-12.993 30.902-9.897 47.58-16.571-7.068-34.736-8.471-50.885-3.191-8.88 2.904-9.255 2.246-9.32-7.549-.066-10.98-2.036-22.393-5.63-33.314-2.425-7.383-3.015-12.414 1.952-17.993z" fill="#aa8053"/><path d="m287.777 377.327c7.156-24.079 21.386-49.474 46.073-58.714 45.058-16.867 60.166 42.847 55.743 74.324-5.327 37.896-30.035 76.985-72.937 67.083-39.322-9.076-36.643-52.142-28.879-82.693z" fill="#a2603f"/><path d="m399.749 395.736c2.036-10.439 2.287-21.68.683-32.56 4.473.566 9.127.475 13.556-.401-1.106 6.942-1.835 13.584-2.265 19.584-1.069 14.985 2.629 30.821 10.555 43.192-8.101 8.174-11.684 18.858-15.857 29.451 0 .002-.002.004-.002.006-13.952-1.378-28.473 1.111-48.845 20.802-.666-2.767-1.72-5.393-3.169-7.802 24.808-12.481 39.986-44.795 45.344-72.272z" fill="#aa8053"/><path d="m491.026 266.839c2.061 5.443 5.305 10.226 9.219 14.539-13.752-5.425-29.05-5.906-43.063 1.355-3.22 1.668-6.167 3.756-8.973 6.047-3.228-5.526-6.504-11.031-10.427-16.001 12.126.73 23.914.241 34.028-1.016 7.124-.886 13.514-2.585 19.216-4.924z" fill="#aa8053"/><path d="m619.183 273.971c22.258 1.162 39.781 17.017 51.638 35.009-6.342 9.598-9.382 21.539-7.485 35.456 1.177 8.651-.223 9.332-6.739 9.281-9.613-.072-18.893 1.491-27.559 5.07-6.685-24.28-15.828-46.413-32.627-64.347 8.414-5.953 16.21-12.862 22.772-20.469z" fill="#a2603f"/><path d="m714.581 466.261c-22.317 12.885-63.923 3.557-83.812-9.962 8.96-16.815 8.702-37.348-2.51-57.77-2.769-5.045-5.963-9.301-9.495-12.876-3.287-3.328-3.908-4.828-.606-7.734 17.054-15.001 37.396-15.594 60.464-10.55 22.38 4.894 50.013 16.703 58.553 39.724 7.961 21.462-3.518 48.157-22.594 59.168z" fill="#aa8053"/><path d="m657.427 496.073c-6.095.341-12.35 1.736-18.634 4.396-4.983-10.705-12.844-20.114-22.429-26.591 3.246-2.723 6.119-5.669 8.627-8.795.037.024.062.058.099.082 9.357 6.465 21.783 11.499 34.982 14.473-1.757 5.372-3.066 10.786-2.645 16.435z" fill="#aa8053"/><path d="m496.389 546.641c-.106-2.395-.354-4.811-.763-7.24-.607-3.617-1.595-7.305-2.878-11.016.002-.006.006-.014.008-.02 4.375-11.889 13.113-21.418 22.516-29.623.08-.07.13-.145.201-.217 28.538 3.848 59.378-2.347 84.53-14.235.776-.366 1.537-.743 2.281-1.127 4.04-2.088 5.433-2.431 8.396-.416 17.513 11.901 25.697 33.235 22.008 54.272-4.365 24.877-30.472 41.227-52.156 50.48-17.924-19.102-46.999-32.141-71.625-32.523-10.531-.16-12.121.428-12.518-8.335z" fill="#aa8053"/><path d="m427.608 602.785c-28.408-.301-56.362-18.098-72.491-40.662-26.211-36.68-1.275-83.697 38.825-96.428 38.879-7.177 77.381 38.33 89.805 70.346 14.631 37.701-22.177 67.105-56.139 66.744z" fill="#aa8053"/><path d="m428.818 433.911c8.468 8.812 19.946 14.263 34.157 13.79-1.432 18.813 7.049 36.988 29.317 45.204 3.391 1.25 6.873 2.266 10.395 3.159-6.027 5.876-11.39 12.351-15.499 19.63-11.929-22.499-34.043-43.972-57.803-54.406-8.314-3.655-11.905-6.391-8.718-13.841 2.096-4.884 4.543-9.521 8.151-13.536z" fill="#aa8053"/><path d="m493.356 411.416c33.052-22.849 84.019-47.61 119.371-15.731 30.184 27.211 11.054 64.356-18.039 79.514-24.449 12.736-55.585 16.098-82.593 12.103-16.073-2.378-31.821-9.31-37.99-25.51-7.024-18.443 5.662-38.925 19.251-50.376z" fill="#a2603f"/><path d="m613.594 367.965c-2.888 2.316-5.665 4.945-8.316 7.913-19.171-9.536-43.638-6.747-66.602.971-9.995 3.365-10.069 1.862-7.294-5.531 8.869-23.634 12.242-51.983-4.274-70.839-4.439-5.066-9.627-9.523-15.285-13.158 22.639-20.806 51.201-9.503 72.131 9.931 17.903 16.626 26.705 36.18 33.228 58.321 1.709 5.785 1.716 8.126-3.588 12.392z" fill="#aa8053"/><path d="m462.496 291.828c19.232-13.393 47.462 2.912 59.056 18.741 13.627 18.603 4.227 50.309-5.968 70.578-2.304 4.585-5.037 7.668-9.845 10.308-10.202 5.599-17.972 9.966-25.012 17.389-7.667 8.076-13.177 18.025-15.928 28.312-42.113 2.939-45.147-45.165-40.12-75.194 4.289-25.608 15.801-54.802 37.817-70.134z" fill="#aa8053"/><path d="m405.665 609.576c8.561 2.357 17.408 3.691 26.325 3.787 4.543.049 8.943-.428 13.199-1.27 2.53 13.014 6.87 23.91 13.333 32.969-9.742 3.148-19.158 9.156-26.989 16.889-6.459-10.627-17.027-19.664-29.373-21.547 2.83-9.652 3.851-20.191 3.505-30.828z" fill="#aa8053"/><path d="m546.336 678.4c10.173-1.682 19.767-5.463 28.137-11.777 1.571 5.283 3.657 10.066 6.206 14.369-7.264 3.186-14.169 7.211-19.87 12.713-4.187-5.596-9.146-10.721-14.473-15.305z" fill="#aa8053"/><path d="m581.9 642.074c-13.669 32.316-52.981 29.496-80.398 20.969-22.914-7.131-36.009-21.119-42.776-40.881-3.443-10.059-1.33-13.113 6.544-17.781 13.861-8.223 24.249-21.463 28.758-36.984 39.442-11.961 107.6 28.023 87.872 74.677z" fill="#aa8053"/><path d="m780.213 320.341c27.828 36.307 32.205 97.853-14.399 117.26-3.375 1.407-6.999 1.962-10.459 1.847-7.195-.24-6.648-3.315-5.856-9.474.71-5.545.66-11.175-.253-16.686-5.191-31.395-34.482-46.318-62.474-54.692-1.407-.422-2.813-.813-4.221-1.179-4.231-1.103-5.853-1.816-6.784-5.134-8.363-29.885 11.435-56.352 41.647-60.234 26.251-3.371 47.04 7.731 62.799 28.292z" fill="#aa8053"/><path d="m731.446 242.473c10.252 8.123 8.426 28.781 5.665 39.812-.015.056-.011.105-.022.159-18.433-2.285-37.429 2.009-51.609 11.788-7.96 5.486-7.681 5.751-13.073-.827-6.373-7.773-13.77-14.694-22.096-19.938 11.255-11.422 20.6-24.375 34.274-33.263 14.357-9.334 33.524-8.297 46.861 2.269z" fill="#aa8053"/><path d="m668.339 239.958c-9.937 8.927-18.835 19.728-27.76 28.367-4.429-1.896-9.073-3.32-13.928-4.149 7.813-11.712 12.498-24.625 12.208-37.947 11.426.021 22.221 4.598 29.48 13.729z" fill="#aa8053"/><path d="m613.493 193.327c23.665 22.591 16.737 49.782-.206 71.088-.508.417-.913.926-1.214 1.497-3.951 4.772-8.388 9.229-13.076 13.247-8.447 7.232-10.981 6.814-17.607 1.954-22.912-16.801-50.261-21.929-72.135-5.451-3.853-3.976-7.113-8.328-8.818-13.629 18.998-12.062 26.965-33.146 23.453-55.674 24.737-26.279 59.964-41.328 89.603-13.032z" fill="#aa8053"/><path d="m424.486 162.768c19.603-1.551 40.592-.144 58.352 3.933 25.352 5.821 35.04 39.876 31.413 62.266-3.786 23.379-31.197 31.819-51.352 33.183-24.354 1.646-50.574-2.094-72.614-12.788-30.178-14.647-29.923-47.3-11.537-67.941 10.729-12.04 32.21-17.583 45.738-18.653z" fill="#a2603f"/><path d="m362.333 238.777c1.479 2.353 3.168 4.663 5.128 6.907 10.781 12.337 27.296 19.693 45.111 23.63 8.945 1.979 12.535 3.871 17.542 10.365 3.976 5.157 7.125 11.104 10.317 16.651-12.507 14.493-20.019 35.192-24.282 55.03-.097.037-.191.053-.288.097-5.107 2.295-12.424 1.948-17.762.631-6.628-23.945-23.137-43.899-50.63-45.975-10.854-.818-20.599 2.209-29.186 7.627-12.21-16.098-15.359-34.976-1.072-51.386 10.825-12.429 28.992-20.43 45.122-23.577z" fill="#aa8053"/><path d="m238.62 289.503c-7.59-14.345-1.837-26.17 10.31-34.772 16.398-11.612 40.757-3.365 52.477 11.264.022.029.05.045.072.074-10.196 17.558-2.859 38.656 8.467 53.964-4.546 4.023-8.691 8.697-12.412 13.755-12.132-20.076-31.621-28.621-50.537-27.329-2.469-5.842-5.408-11.349-8.377-16.956z" fill="#aa8053"/><path d="m239.935 316.809c21.911-6.998 41.771 8.541 51.068 26.917-5.996 10.194-10.495 21.082-13.383 30.799-4.345 17.091-6.399 34.493-3.813 49.935 1.314 7.868.103 11.64-6.899 13.189-34.246 7.565-60.741-43.031-62.842-71.076-1.724-22.999 14.746-43.017 35.869-49.764z" fill="#aa8053"/><path d="m204.734 406.889c15.929 29.272 45.962 51.757 75.586 37.034 2.078 3.791 4.631 7.333 7.704 10.579-11.168 5.132-21.796 11.044-28.601 20.989-6.765-12.029-15.55-22.454-25.891-29.505-12.438-8.481-26.724-9.441-39.927-5.511-4.174-12.023 2.348-24.856 11.129-33.586z" fill="#aa8053"/><path d="m160.214 490.409c5.504-28.295 31.909-46.744 60.581-38.868 29.992 8.238 45.251 57.309 42.072 87.953-.969 9.369-1.973 9.129-9.114 18.434-6.485 8.451-9.819 18.17-10.732 28.232-58.883 21.32-92.708-44.875-82.807-95.751z" fill="#a2603f"/><path d="m224.423 700.893c-8.941-11.799-13.596-26.74-18.337-40.557-6.815-19.861-18.669-44.639 2.354-60.367.221-.166.396-.35.578-.529 10.456 2.199 21.861 1.736 33.942-2.145 1.392 18.229 9.758 36.48 21.17 49.49 9.155 10.436 20.571 19.252 33.162 25.607 3.842 1.945 6.588 6.502 6.896 11.43 1.123 18.004-13.69 28.787-30.799 33.963-19.339 5.858-37.058-1.181-48.966-16.892z" fill="#aa8053"/><path d="m280.843 726.828c20.45-7.396 36.577-24.963 33.37-47.662 3.518 1.068 7.08 1.924 10.676 2.586-9.847 20.213-18.273 44.951-15.839 66.967-12.448-1.145-22.254-11.071-28.207-21.891z" fill="#aa8053"/><path d="m337.593 778.594c-34.759-17.453-14.489-70.197-1.667-95.434 9.063.543 18.18-.32 27.052-2.826 17.552-4.961 28.78-15.916 35.321-29.75 11.153.463 21.251 9.963 25.963 19.682-9.122 12.158-14.318 26.941-11.957 41.543.437 2.695 1.054 5.262 1.829 7.719 2.361 7.479 3.048 9.193-1.554 16.939-15.75 26.502-43.243 58.066-74.987 42.127z" fill="#aa8053"/><path d="m403.737 765.949c5.332-6.033 10.127-12.43 14.23-18.588 5.124-7.686 7.709-6.727 12.961-1.875 15.367 14.201 37.459 22.379 57.32 28.361 2.359.711 4.836 1.309 7.354 1.852-6.95 18.822-26.395 32.029-46.023 32.93-24.854 1.144-38.377-22.758-45.842-42.68z" fill="#aa8053"/><path d="m602.231 774.344c-3.008 17.336-21.763 25.844-36.419 30.41-20.269 6.314-42.128 3.34-61.085-5.424-7.222-3.338-6.471-5.561-2.995-11.805 1.783-3.193 3.267-6.576 4.408-10.129 25.552 2.701 54.281-4.16 64.409-30.063.716-1.828 1.29-3.648 1.773-5.461 18.382.649 33.595 11.216 29.909 32.472z" fill="#aa8053"/><path d="m612.649 760.064c-4.598-15.258-20.062-27.355-38.763-28.664.409-10.074-2.361-19.742-7.221-28.6 5.628-5.904 12.725-10.031 20.27-13.094 7.45 8.486 17.093 14.416 27.999 18.104 2.164 17.523 3.135 33.594 10.061 48.666-3.938 1.696-8.121 2.893-12.346 3.588z" fill="#aa8053"/><path d="m695.936 776.535c-19.95 8.154-40.729 1.209-54.986-13.564-10.39-10.764-12.684-25.492-14.056-40.014-.898-9.518.671-11.639 8.391-10.91 27.183 2.572 57.868-5.422 81.26-20.533 11.158 27.093 8.753 73.013-20.609 85.021z" fill="#aa8053"/><path d="m672.367 697.641c-30.531 8.523-71.416 3.945-85.569-27.801-2.869-6.438-2.086-12.35 1.936-18.305 5.948-8.811 8.557-17.631 8.633-26.168 19.779-21.773 51.496-30.926 80.018-32.381 30.433-1.549 71.567 14.883 64.387 52.352-5.642 29.42-44.286 45.289-69.405 52.303z" fill="#a2603f"/><path d="m751.926 648.137c7.861-27.563-12.291-49.633-36.161-59.547-6.397-2.658-5.756-7.113-2.783-13.643 4.052-8.918 6.675-13.494 11.911-18.242 27.967-25.375 79.855-13.059 82.486 28.15 1.707 26.688-18.533 68.926-48.213 73.906-10.772 1.813-9.737-1.868-7.24-10.624z" fill="#aa8053"/><path d="m812.356 559.146c-6.455-13.008-18.656-20.729-32.714-23.824-8.135-1.791-9.559-2.297-6.479-11.119 5.752-16.475 8.697-35.289 5.221-51.461 20.813-.813 38.77-3.104 51.234 18.615 11.565 20.143 4.011 56.038-17.262 67.789z" fill="#aa8053"/><path d="m866.117 435.018c.532 14.882.479 29.787-.109 44.656-2.508 63.41-16.612 126.697-44.506 183.811-46.234 94.662-133.868 158.465-235.762 181.162-99.474 22.156-209.121 4.262-296.241-48.4-101.472-61.338-150.085-177.795-158.636-292.217-3.988-53.387 1.752-107.267 19.205-157.532-19.333 46.637-29.217 97.277-29.599 149.447.248 34.535 3.732 69.169 12.79 102.58 49.301 181.85 238.486 294.252 422.801 269.615 87.178-11.652 170.671-53.453 227.918-121.008 65.249-76.998 94.054-180.094 86.075-280.2-.859-10.777-2.196-21.415-3.936-31.914z" fill="#f3af79"/><path d="m246.996 306.458c18.916-1.292 38.405 7.253 50.537 27.329 3.721-5.058 7.866-9.731 12.412-13.755-1.552-2.096-3.016-4.307-4.382-6.597-9.853 9.69-25.586-7.063-36.348-10.766-11.324-3.896-21.93-4.196-29.943-11.914 2.743 5.178 5.441 10.298 7.724 15.703z" fill="#865725"/><path d="m665.721 452.234c-22.061-14.08-20.088-48.338-41.933-60.709 1.59 2.146 3.085 4.476 4.472 7.004 11.212 20.422 11.47 40.954 2.51 57.77 19.889 13.519 61.494 22.847 83.812 9.962 5.414-3.125 10.183-7.541 14.103-12.714-18.433 11.294-45.038 10.124-62.964-1.313z" fill="#865725"/><path d="m445.656 470.303c17.26 11.531 32.391 28.148 41.532 45.391 4.109-7.279 9.472-13.754 15.499-19.63-3.521-.893-7.004-1.908-10.395-3.159-12.779-4.715-20.999-12.718-25.43-22.233-6.588 1.977-13.928 1.336-21.206-.369z" fill="#865725"/><path d="m354.404 468.009c1.449 2.409 2.503 5.036 3.169 7.802 20.372-19.691 34.893-22.18 48.845-20.802 0-.002.002-.004.002-.006 4.174-10.593 7.757-21.277 15.857-29.451-3.775-5.891-6.558-12.581-8.355-19.576-3.493 20.627-20.039 39.693-39.975 46.267-5.667 6.568-12.169 12.057-19.543 15.766z" fill="#865725"/><path d="m431.533 661.951c7.831-7.732 17.247-13.74 26.989-16.889-2.88-4.037-5.276-8.502-7.342-13.295-4.578 6.459-11.777 9.998-20.958 10.246-12.173.328-20.22-7.645-25.06-17.498-.551 5.463-1.512 10.803-3.003 15.889 12.347 1.883 22.915 10.92 29.374 21.547z" fill="#865725"/><path d="m501.502 663.043c27.417 8.527 66.729 11.348 80.398-20.969.662-1.566 1.209-3.123 1.676-4.672-4.955 6.932-11.531 12.328-20.683 16.146-13.38 5.584-28.805 5.916-42.969 3.938-16.313-2.281-31.221-9.379-40.64-23.297-7.831-11.57-8.028-24.621-4.237-36.943-3.014 2.666-6.284 5.063-9.778 7.135-7.874 4.668-9.987 7.723-6.544 17.781 6.768 19.762 19.863 33.75 42.777 40.881z" fill="#865725"/><path d="m504.728 799.33c18.957 8.764 40.816 11.738 61.085 5.424 11.414-3.557 25.282-9.525 32.294-20.172-9.754 8.348-21.937 12.619-36.331 15.102-16.357 2.82-48.559 2.68-58.973-14.316-.36.715-.68 1.459-1.07 2.158-3.476 6.244-4.227 8.466 2.995 11.804z" fill="#865725"/><path d="m694.932 583.225c14.733-15.871 15.01-35.24 7.088-50.568 1.158 9.777-.852 18.756-8.259 28.211-9.953 12.707-24.621 15.646-39.649 17.965-23.091 3.568-45.344 8.336-61.758 25.477 1.279 2.607 2.355 5.273 3.161 7.994 25.663-23.589 65.911-32.556 99.417-29.079z" fill="#865725"/><path d="m355.117 562.123c16.129 22.564 44.083 40.361 72.491 40.662 22.326.238 45.876-12.389 55.241-31.777-22.979 20.229-64.672 17.203-89.859 5.029-29.451-14.232-43.979-49.295-38.043-80.771-12.928 19.716-15.374 45.103.17 66.857z" fill="#865725"/><path d="m449.747 417.721c-11.124.311-20.01-8.298-24.777-17.396-.481-.917-.872-1.845-1.214-2.781 2.943 22.084 13.825 41.512 41.044 39.611 2.751-10.287 8.261-20.236 15.928-28.312 7.04-7.423 14.81-11.79 25.012-17.389 4.808-2.639 7.541-5.722 9.845-10.308 1.401-2.785 2.779-5.803 4.094-8.958-8.545 11.493-22.559 16.17-33.965 24.118-12.334 8.596-19.155 20.946-35.967 21.415z" fill="#865725"/><path d="m412.58 736.467c4.602-7.746 3.915-9.461 1.554-16.939-.775-2.457-1.393-5.023-1.829-7.719-2.361-14.602 2.835-29.385 11.957-41.543-1.614-3.332-3.899-6.609-6.606-9.535-5.513 3.459-10.337 12.197-12.613 16.031-7.859 13.248-8.002 29.752-9.662 44.596-2.453 21.955-13.417 40.588-34.976 48.416-20.026 7.273-35.308-5.754-42.003-22.605.811 13.246 6.086 24.846 19.191 31.426 31.744 15.938 59.237-15.626 74.987-42.128z" fill="#865725"/><path d="m760.094 411.616c-4.916-7.076-6.171-16.12-10.31-23.667-6.79-12.376-20.658-20.263-33.335-25.185-9.283-3.604-18.778-6.088-27.53-11.007-9.33-5.245-13.214-13.32-14.073-22.462-1.483 7.175-1.329 14.946.921 22.989.932 3.318 2.553 4.032 6.784 5.134 1.407.366 2.813.757 4.221 1.179 27.991 8.374 57.282 23.297 62.474 54.692.913 5.511.963 11.141.253 16.686-.792 6.159-1.339 9.234 5.856 9.474 3.46.115 7.084-.44 10.459-1.847 12.243-5.099 20.938-13.121 26.642-22.815-.302.228-.571.485-.88.708-11.11 7.973-23.422 7.722-31.482-3.879z" fill="#865725"/><path d="m206.086 660.336c4.741 13.816 9.396 28.758 18.337 40.557 11.908 15.711 29.627 22.75 48.968 16.893 17.108-5.176 31.922-15.959 30.799-33.963-.309-4.928-3.055-9.484-6.896-11.43-.18-.09-.346-.205-.522-.295.255 5.848-.403 11.525-3.272 17.369-3.975 8.094-12.397 12.422-20.695 14.588-6.994 1.826-26.973-1.234-40.495-14.904-20.481-20.701-34.759-57.49-34.8-73.283-3.498 14.001 3.766 30.454 8.576 44.468z" fill="#865725"/><path d="m261.905 448.474c-5.964 3.128-12.468 5.163-18.834 5.41 6.271 6.118 11.782 13.479 16.353 21.606 6.805-9.945 17.433-15.857 28.601-20.989-3.073-3.246-5.626-6.788-7.704-10.579-6.167 3.065-12.346 4.439-18.416 4.552z" fill="#865725"/><path d="m266.907 437.648c7.002-1.549 8.214-5.321 6.899-13.189-2.586-15.442-.531-32.843 3.813-49.935 2.888-9.717 7.387-20.604 13.383-30.799-2.809-5.547-6.591-10.823-11.09-15.312 1.77 8.896-.729 19.193-2.439 27.501-2.62 12.749-7.443 25.052-13.51 36.527-7.119 13.467-19.742 21.343-35.237 19.023-4.67-.699-8.499-3.026-11.793-6.13 11.359 20.147 29.241 36.895 49.974 32.314z" fill="#865725"/><path d="m449.579 808.629c14.215-.652 28.31-7.779 37.656-18.801-13.063 7.861-28.964 9.605-44.418 7.002-19.989-3.363-31.142-21.459-31.407-40.26-2.406 3.168-4.97 6.32-7.673 9.379 7.465 19.922 20.988 43.824 45.842 42.68z" fill="#865725"/><path d="m624.995 756.477c-2.4-5.227-4.057-10.58-5.323-16.066-8.314 5.158-22.11-9.68-29.4-12.543-5.732-2.25-11.035-3.217-16.564-2.705.182 2.061.266 4.139.18 6.238 18.701 1.309 34.165 13.406 38.763 28.664 4.223-.696 8.406-1.893 12.344-3.588z" fill="#865725"/><path d="m448.209 288.781c2.806-2.291 5.753-4.379 8.973-6.047 14.014-7.261 29.312-6.78 43.063-1.355-3.914-4.313-7.158-9.096-9.219-14.539-5.702 2.339-12.093 4.038-19.216 4.925-1.067.134-2.224.22-3.326.335-7.613 4.92-15.149 9.378-24.186 10.164 1.332 2.15 2.632 4.326 3.911 6.517z" fill="#865725"/><path d="m327.365 309.164c6.208-2.417 12.905-3.594 20.104-3.051 27.493 2.076 44.002 22.03 50.63 45.975 5.338 1.316 12.654 1.664 17.762-.631.097-.043.191-.06.288-.097 2.112-9.824 5.027-19.856 8.943-29.244-8.726 7.358-20.971 5.422-30.716 1.084-10.462-4.654-18.433-12.958-29.542-16.706-9.605-3.241-26.815-3.553-37.469 2.67z" fill="#865725"/><path d="m503.796 268.923c1.565 2.404 3.416 4.632 5.459 6.738 21.874-16.478 49.223-11.35 72.135 5.451 6.626 4.86 9.16 5.278 17.607-1.954 4.688-4.018 9.125-8.475 13.076-13.247.301-.571.706-1.08 1.214-1.497 11.686-14.695 18.597-32.189 14.004-49.044-.816 12.438-5.243 23.953-14.785 33.861-12.289 12.762-30.828 11.78-46.761 8.699-20.457-3.954-46.679-6.217-61.949 10.993z" fill="#865725"/><path d="m640.579 268.325c3.896-3.772 7.802-7.975 11.775-12.234-1.4.22-2.815.355-4.247.357-6.383.004-10.867-4.342-12.587-9.91-2.106 6.097-5.113 12.008-8.869 17.638 4.855.829 9.499 2.252 13.928 4.149z" fill="#865725"/><path d="m311.278 716.34c-5.116 8.693-16.185 19.789-26.278 16.91 5.949 8.059 14.144 14.559 24.05 15.469-1.222-11.055.295-22.793 3.354-34.305-.376.645-.746 1.279-1.126 1.926z" fill="#865725"/><path d="m545.7 326.199c-.695-7.339-3.499-14.195-7.225-20.464-4.803-8.08-12.956-12.93-21.836-15.003 3.795 2.9 7.324 6.163 10.468 9.748 16.517 18.856 13.144 47.205 4.274 70.839-2.775 7.393-2.701 8.896 7.294 5.531 22.964-7.718 47.431-10.507 66.602-.971 1.549-1.734 3.151-3.316 4.782-4.823-5.019-4.707-13.16-6.755-19.442-7.479-13.138-1.516-33.03 4.305-42.066-8.041-5.437-7.424-2.025-20.616-2.851-29.337z" fill="#865725"/><path d="m624.969 480.966c5.689 5.566 10.435 12.223 13.824 19.503 6.284-2.66 12.539-4.055 18.634-4.396-.314-4.226.34-8.321 1.426-12.365-11.387 2.557-22.87 1.226-33.884-2.742z" fill="#865725"/><path d="m560.809 693.705c5.701-5.502 12.606-9.527 19.87-12.713-1.078-1.822-2.026-3.773-2.936-5.77-6.002 6.281-14.792 8.717-23.974 10.223 2.514 2.623 4.881 5.377 7.04 8.26z" fill="#865725"/><path d="m496.191 543.973c.078.891.158 1.781.197 2.668.397 8.764 1.987 8.176 12.519 8.336 24.626.383 53.701 13.422 71.625 32.523 21.685-9.254 47.791-25.604 52.156-50.48 1.886-10.758.649-21.584-3.332-31.195 1.357 15.098-9.508 30.045-21.311 38.443-16.034 11.408-36.406 10.912-54.488 5.822-13.754-3.873-42.636-17.236-57.366-6.117z" fill="#865725"/><path d="m695.355 758.223c-29.438 15.264-59.999-2.729-68.066-31.51 1.445 13.273 4.165 26.422 13.66 36.258 14.257 14.773 35.036 21.719 54.986 13.564 19.341-7.91 26.934-30.531 26.709-52.797-4.111 14.383-12.758 26.953-27.289 34.485z" fill="#865725"/><path d="m792.769 529.127c-5.762-.199-14.292.336-19.94 3.863 1.209 1.018 3.384 1.578 6.814 2.332 14.058 3.096 26.259 10.816 32.714 23.824 14.136-7.809 22.168-26.273 22.602-43.699-1.631 4.537-4.289 8.582-8.653 11.479-10.008 6.642-22.593 2.58-33.537 2.201z" fill="#865725"/><path d="m759.166 658.762c19.428-3.26 34.76-22.492 42.589-42.869-.759.768-1.493 1.563-2.294 2.287-7.569 6.863-17.437 9.74-27.384 7.395-8.417-1.982-13.578-10.152-18.074-16.809-5.502-8.141-11.223-14.389-20.396-18.225-5.416-2.268-13.138-4.449-19.23-2.674.438.246.854.5 1.389.723 23.87 9.914 44.022 31.984 36.161 59.547-2.498 8.756-3.533 12.437 7.239 10.625z" fill="#865725"/><path d="m650.311 273.467c8.326 5.243 15.723 12.165 22.096 19.938 5.393 6.578 5.113 6.313 13.073.827 14.181-9.779 33.177-14.073 51.609-11.788.012-.054.008-.103.022-.159 1.514-6.047 2.731-14.983 1.847-23.163-6.729 10.719-19.11 17.992-32.019 21.952-11.134 3.415-23.885 3.902-34.276-1.889-7.446-4.148-9.505-11.989-9.298-19.859-4.311 4.72-8.532 9.552-13.054 14.141z" fill="#865725"/><path d="m270.402 477.936c-4.968 5.579-4.377 10.61-1.954 17.992 3.594 10.921 5.563 22.333 5.63 33.314.065 9.795.44 10.453 9.32 7.549 16.148-5.279 34.313-3.877 50.885 3.191-2.175-11.717-.693-23.4 3.397-34.27-13.071 13.338-27.3 25.793-47.571 22.846-13.146-1.91-12.156-19.498-14.174-29.682-1.376-6.954-2.779-16.8-1.078-25.059-1.595 1.27-3.114 2.615-4.455 4.119z" fill="#865725"/><path d="m470.142 314.968c-6.907 3.073-9.864 12.214-12.045 18.841-2.662 8.086-4.31 16.544-2.096 24.904.142.532.893.504 1.049 0 2.147-6.998 3.501-14.113 5.29-21.199 1.958-7.757 5.901-14.58 8.432-22.063.131-.392-.319-.62-.63-.483z" fill="#d4ba89"/><path d="m450.566 369.047c1.45-3.647 1.783-9.372-.097-12.951-.113-.214-.455-.214-.568 0-1.88 3.579-1.547 9.304-.097 12.951.149.374.614.374.762 0z" fill="#d4ba89"/><path d="m490.728 318.115c-1.337 3.651-1.9 7.728-2.659 11.54-.647 3.237-1.142 6.185-.27 9.433.095.356.638.458.811.107 2.765-5.572 4.803-14.995 2.88-21.08-.125-.388-.631-.362-.762 0z" fill="#d4ba89"/><path d="m488.453 304.038c-3.769 3.649-5.247 9.676-4.605 14.758.049.391.53.467.679.093 1.816-4.597 3.737-9.532 4.752-14.37.1-.476-.458-.837-.826-.481z" fill="#d4ba89"/><path d="m360.438 285.737c10.89 2.287 20.729 7.469 31.369 10.591.638.187.946-.572.592-1.016-13.742-17.258-44.456-20.855-64.497-14.298-.286.093-.34.572 0 .633 10.766 1.998 21.752 1.827 32.536 4.09z" fill="#d4ba89"/><path d="m423.793 299.465c.214.323.701.358.909 0 4.406-7.596-3.194-18.817-10.729-21.38-.329-.113-.578.28-.428.555 1.841 3.384 3.895 6.636 5.62 10.09 1.808 3.622 2.382 7.359 4.628 10.735z" fill="#d4ba89"/><path d="m289.882 289.978c.601-11.107-4.618-29.252-17.686-31.554-.435-.078-.743.397-.433.743 4.029 4.486 7.606 8.744 10.228 14.24 2.549 5.344 4.641 11.223 6.889 16.706.214.521.969.47 1.002-.135z" fill="#d4ba89"/><path d="m243.259 389.693c.218-8.415-2.74-15.277-5.55-23.118-2.999-8.376-5.29-16.912-7.95-25.391-.095-.303-.603-.356-.666 0-2.783 15.67 4.2 35.996 13.092 48.799.321.463 1.057.309 1.074-.29z" fill="#d4ba89"/><path d="m232.553 380.803c-.163-.187-.535-.097-.578.152-.422 2.417.214 4.544 1.19 6.761.632 1.43 1.364 2.767 2.136 4.125.687 1.208 2.034 1.884 3.023 2.789.263.243.837.105.785-.325-.108-.92.056-2.096-.24-2.973-.452-1.343-1.144-2.516-1.82-3.76-1.281-2.349-2.748-4.737-4.496-6.769z" fill="#d4ba89"/><path d="m312.292 480.272c-5.332 1-9.187 3.567-13.385 6.872-4.023 3.168-8.841 7.325-10.202 12.457-.16.6.485 1.063 1.016.779 4.149-2.215 7.426-6.129 11.011-9.135 4.098-3.435 8.378-6.206 12.057-10.122.364-.388-.004-.943-.497-.851z" fill="#d4ba89"/><path d="m454.382 564.332c-9.666-2.012-19.461-1.348-29.17-3.629-11.768-2.766-21.637-8.152-31.364-15.061-.259-.186-.532.162-.405.404 8.742 16.791 44.601 31.342 61.083 19.396.388-.28.421-.993-.144-1.11z" fill="#d4ba89"/><path d="m458.393 571.902c-3.042-1.125-5.487 1.014-8.314 1.857-.368.109-.386.66 0 .762 3.006.793 7.348 1.828 8.683-1.971.099-.286-.115-.552-.369-.648z" fill="#d4ba89"/><path d="m416.523 512.6c10.139 15.527 27.9 23.941 37.169 40.521.286.512 1.177.307 1.136-.307-1.329-19.549-22.947-31.447-37.942-40.574-.223-.136-.506.135-.363.36z" fill="#d4ba89"/><path d="m561.88 507.988c-11.188 3.145-21.46 8.002-28.084 17.998-.335.508.346 1.219.856.854 8.984-6.414 18.792-11.291 27.583-18.012.392-.297.186-.992-.355-.84z" fill="#d4ba89"/><path d="m521.954 526.234c2.129-1.41 3.742-3.127 5.264-5.162 1.74-2.324 3.668-4.506 5.575-6.689.146-.166.058-.455-.186-.451-6.095.1-12.342 5.305-11.544 11.791.05.41.478.787.891.511z" fill="#d4ba89"/><path d="m544.358 630.283c.753-.193.77-1.135.202-1.533-5.879-4.115-12.891-4.51-19.771-6.443-7.738-2.178-14.779-5.307-21.386-9.875-.258-.178-.686.121-.556.428 5.452 12.958 28.859 20.695 41.511 17.423z" fill="#d4ba89"/><path d="m537.733 636.168c-.218.084-.218.359 0 .445 4.079 1.561 7.683 2.695 11.873.836.313-.139.376-.664.112-.877-3.78-3.088-7.805-2.002-11.985-.404z" fill="#d4ba89"/><path d="m670.168 528.604c.002-.326-.416-.504-.646-.266-3.633 3.721-7.064 7.592-10.902 11.111-3.707 3.402-6.593 6.746-8.359 11.496-.162.439.401.826.773.594 7.722-4.834 19.074-12.744 19.134-22.935z" fill="#d4ba89"/><path d="m782.942 572.18c-3.536 5.74-5.899 12.277-9.149 18.215-3.434 6.273-7.72 11.738-9.612 18.709-.165.602.53 1.201 1.088.836 10.525-6.902 19.56-24.859 18.531-37.527-.037-.448-.607-.643-.858-.233z" fill="#d4ba89"/><path d="m776.749 603.861c-1.08 1.031-1.876 2.305-2.87 3.408-1.045 1.164-1.635 1.904-1.688 3.496-.019.605.411 1.004.924 1.213 3.964 1.623 6.742-4.459 5.589-7.6-.304-.821-1.283-1.157-1.955-.517z" fill="#d4ba89"/><path d="m797.748 503.115c-4.982 3.232-9.588 7.482-11.315 13.285-.095.316.273.6.556.428 4.63-2.828 8.812-6.301 13.355-9.275 4.692-3.07 10.373-4.598 13.965-9.076.253-.316.218-.895-.262-.992-6.045-1.201-11.416 2.458-16.299 5.63z" fill="#d4ba89"/><path d="m801.387 514.539c-.214.367.134.754.521.676 3.594-.725 7.703-1.633 10.176-4.555.32-.379.249-1.063-.313-1.184-3.998-.865-8.391 1.626-10.384 5.063z" fill="#d4ba89"/><path d="m690.353 432.64c-8.694-.615-16.747-2.962-25.109-5.142-.234-.062-.421.239-.24.414 11.134 10.745 32.21 12.5 46.436 8.434.535-.152.535-.926 0-1.078-7.02-2.017-13.845-2.116-21.087-2.628z" fill="#d4ba89"/><path d="m698.033 442.377c-.42-.039-.426.547-.093.679 2.748 1.082 6.747 2.857 9.063-.008.203-.249.166-.687-.202-.769-2.858-.64-5.869.374-8.768.098z" fill="#d4ba89"/><path d="m769.549 389.866c7.472-27.962-11.586-59.966-30.936-78.793-.272-.263-.698.07-.517.399 6.37 11.613 13.573 22.707 19.121 34.769 6.44 14.002 6.813 29.087 11.093 43.626.178.601 1.073.622 1.239-.001z" fill="#d4ba89"/><path d="m776.004 385.503c.186.185.491.229.718.093 2.075-1.257 1.541-4.166 1.374-6.229-.101-1.236-.346-2.456-.72-3.637-.422-1.335-1.285-2.242-1.878-3.461-.142-.29-.524-.068-.481.204.128.825-.099 1.969-.138 2.804-.06 1.349.086 2.744.158 4.091.106 1.998-.582 4.571.967 6.135z" fill="#d4ba89"/><path d="m713.623 245.186c.154-.502-.463-1.024-.918-.708-4.173 2.917-7.746 6.22-11.685 9.431-4.318 3.52-9.867 5.704-13.56 9.933-.158.179-.058.475.197.477 10.658.101 22.915-9.181 25.966-19.133z" fill="#d4ba89"/><path d="m717.383 252.663c-1.008.767-2.094 1.183-2.995 2.129-1.166 1.224-2.347 2.427-3.447 3.713-.279.329-.099.823.35.843 1.798.08 3.649-.524 4.982-1.783 1.454-1.374 1.733-2.559 1.854-4.476.021-.348-.447-.652-.744-.426z" fill="#d4ba89"/><path d="m546.064 230.808c11.136-9.261 21.616-19.588 31.924-29.75.404-.401-.005-1.19-.578-.991-13.971 4.892-24.645 17.846-31.784 30.402-.167.29.201.536.438.339z" fill="#d4ba89"/><path d="m560.475 202.708c3.441-1.896 9.047-3.959 10.061-8.283.074-.323-.228-.726-.588-.588-2.094.809-3.947 2.4-5.719 3.752-1.815 1.384-3.12 2.637-4.295 4.579-.209.347.202.727.541.54z" fill="#d4ba89"/><path d="m594.548 230.489c3.339-1.676 5.585-4.677 7.753-7.623 2.308-3.135 4.285-6.706 3.938-10.7-.037-.438-.543-.566-.799-.216-2.304 3.155-4.165 6.599-6.569 9.694-2.014 2.594-4.252 4.99-5.095 8.251-.123.467.365.798.772.594z" fill="#d4ba89"/><path d="m604.874 227.369c-1.683 1.666-4.986 3.464-5.336 5.984-.03.218.011.488.243.594 3.495 1.603 5.507-3.561 5.944-6.082.086-.482-.464-.881-.851-.496z" fill="#d4ba89"/><path d="m482.093 366.422c-3.637 8.216-5.268 17.369-7.631 26.014-.13.476.536.942.88.513 5.776-7.214 7.781-17.21 7.549-26.311-.01-.392-.615-.627-.798-.216z" fill="#d4ba89"/><path d="m423.174 494.19c5.081 3.933 9.482 8.251 15.259 11.167.359.182.893-.219.608-.607-7.454-10.13-21.616-21.544-34.335-23.613-.242-.039-.368.245-.164.391 6.111 4.395 12.656 8.034 18.632 12.662z" fill="#d4ba89"/><path d="m608.955 512.15c-8.313 8.807-19.047 14.236-28.68 21.344-.292.215-.132.768.268.631 11.348-3.885 25.006-9.178 29.154-21.543.145-.424-.441-.748-.742-.432z" fill="#d4ba89"/><path d="m606.847 524.719c-.491.184-1.162.232-1.681.365-.675.176-1.294.732-1.88 1.084-.956.572-1.906 1.26-2.583 2.146-.247.322.039.725.345.846 1.15.455 2.69.264 3.748-.406 1.629-1.027 1.909-1.822 2.596-3.49.126-.305-.249-.657-.545-.545z" fill="#d4ba89"/><path d="m508.331 583.609c5.486 1.256 10.982 2.498 16.417 3.984 5.558 1.518 10.76 4.193 16.503 4.932.473.063.631-.58.359-.869-7.606-8.148-22.758-10.504-33.279-8.523-.24.045-.23.424 0 .476z" fill="#d4ba89"/><path d="m383.065 684.746c-3.551 11.521-7.103 21.814-13.689 32.057-5.907 9.186-13.229 17.508-17.191 27.795-.241.623.601.947 1.016.594 15.09-12.775 35.139-39.316 30.371-60.445-.06-.267-.434-.241-.507-.001z" fill="#d4ba89"/><path d="m371.512 734.105c-2.359 2.324-5.585 4.844-5.929 8.35-.022.223.221.471.444.443 3.925-.465 6.1-4.91 6.159-8.514.006-.349-.432-.517-.674-.279z" fill="#d4ba89"/><path d="m236.707 648.842c-4.661-13.373-7.969-27.158-12.755-40.488-.123-.34-.729-.318-.679.094 1.804 15.152 4.645 30.119 9.46 44.633 4.589 13.834 10.789 29.162 24.066 36.541.459.254 1.047-.27.742-.744-8.276-12.899-15.755-25.474-20.834-40.036z" fill="#d4ba89"/><path d="m242.811 641.01c-.058 8.201 2.157 18.217 7.647 24.498.286.328.775-.021.688-.398-.981-4.211-2.376-8.244-3.603-12.383-1.199-4.051-2.038-8.127-3.903-11.939-.202-.413-.827-.2-.829.222z" fill="#d4ba89"/><path d="m276.917 672.137c-.061 1.785.298 3.496.724 5.225.515 2.076.961 4.125 2.077 5.975.214.355.799.307.901-.117.907-3.729-.768-8.393-3.112-11.328-.201-.251-.582-.027-.59.245z" fill="#d4ba89"/><path d="m452.748 773.398c-1.313 1.811-1.384 4.229-1.853 6.361-.562 2.566-1.216 5.031-.881 7.654.085.662.732.951 1.266.523 2.334-1.877 2.678-4.369 3.077-7.223.32-2.307.405-5.338-.983-7.316-.165-.235-.459-.227-.626.001z" fill="#d4ba89"/><path d="m557.254 781.734c-7.154 1.957-14.144 4.436-21.304 6.42-.399.111-.422.729 0 .826 8.075 1.887 16.176-.252 21.8-6.395.339-.368.012-.991-.496-.851z" fill="#d4ba89"/><path d="m568.917 780.482c-2.96-.266-5.927 1.578-7.749 3.795-.183.219-.108.502.158.604 3.034 1.154 7.34-.25 8.162-3.648.097-.399-.182-.715-.571-.751z" fill="#d4ba89"/><path d="m695.919 715.26c-1.257 5.498-1.348 11.254-2.471 16.814-.827 4.094-4.533 9.631-2.343 13.604.15.27.471.377.761.309 4.804-1.123 5.47-8.617 6.28-12.617 1.177-5.805 1.536-12.914-1.506-18.203-.165-.29-.645-.245-.721.093z" fill="#d4ba89"/><path d="m703.925 730.805c-.887 2.24-2.452 5.357-1.842 7.77.097.385.521.502.846.346 2.694-1.291 2.746-5.66 1.885-8.115-.16-.452-.723-.423-.889-.001z" fill="#d4ba89"/><path d="m688.925 539.938c-3.301 2.486-5.395 6.104-7.954 9.289-2.1 2.617-5.299 5.881-5.669 9.359-.019.17.171.27.313.238 3.664-.795 6.901-4.729 9.222-7.439 2.653-3.1 5.312-6.428 5.451-10.664.02-.635-.808-1.2-1.363-.783z" fill="#d4ba89"/><path d="m684.607 556.695c-.173.174.007.426.225.385 1.224-.234 2.413.004 3.451-.879.704-.598 1.582-1.523 1.006-2.506-1.304-2.228-4.101 2.42-4.682 3z" fill="#d4ba89"/><path d="m604.309 501.922c.323-.205.294-.742-.109-.842-6.179-1.502-13.357-.801-18.236 3.658-.206.189-.06.629.244.59 6.053-.767 12.802-.033 18.101-3.406z" fill="#d4ba89"/><path d="m551.064 598.357c-.101-3.324-3.605-5.139-6.664-4.568-.84.156-1.126 1.373-.509 1.926 1.825 1.627 4.075 3.244 6.58 3.234.316-.002.604-.269.593-.592z" fill="#d4ba89"/><path d="m370.958 495.564c-.148-.307-.606-.204-.691.091-1.616 5.583.963 11.9 3.129 17.007 1.977 4.658 5.412 11.975 10.908 13.074.434.09.895-.275.749-.748-1.43-4.631-5.468-8.279-7.762-12.574-2.877-5.383-3.728-11.428-6.333-16.85z" fill="#d4ba89"/><path d="m381.101 529.18c-1.194-1.221-2.877-2.223-3.899-3.586-.182-.24-.539-.102-.481.203.387 2.1.716 3.416 2.001 5.219.65.906 1.535 1.689 2.385 2.402.8.67 1.707.578 2.659.822.411.105.697-.32.521-.676-.381-.771-.397-1.643-1.045-2.283-.712-.707-1.441-1.385-2.141-2.101z" fill="#d4ba89"/><path d="m328.83 485.078c-2.378 2.985-4.447 6.185-6.831 9.164-2.571 3.212-5.451 6.093-7.253 9.837-.236.486.147 1.102.724.941 7.942-2.221 13.418-11.84 14.09-19.64.031-.356-.501-.59-.73-.302z" fill="#d4ba89"/><path d="m327.161 501.107c-2.192 1.68-4.152 2.775-5.401 5.334-.187.383.048.748.455.791 3.529.381 4.844-2.682 5.648-5.586.101-.369-.354-.806-.702-.539z" fill="#d4ba89"/><path d="m254.424 336.864c-.379-.193-.855.208-.608.607 2.029 3.264 4.06 6.556 5.8 9.986 1.259 2.477 1.809 7.316 4.762 8.372.245.088.546-.015.723-.189 2.431-2.415-.448-6.747-1.693-9.108-2.066-3.923-4.996-7.636-8.984-9.668z" fill="#d4ba89"/><path d="m262.847 337.858c-.413-.029-.675.483-.469.816.593.967 2.606 6.399 4.449 4.559 2.112-2.111-2.116-5.243-3.98-5.375z" fill="#d4ba89"/><path d="m261.013 286.905c.326.064.635-.263.446-.58-1.757-2.938-4.155-5.299-6.176-8.042-1.7-2.314-3.188-4.719-5.535-6.438-.246-.181-.502.115-.46.352.588 3.388 2.431 6.27 4.394 9.034 1.9 2.679 3.992 5.022 7.331 5.674z" fill="#d4ba89"/><path d="m372.819 267.932c.515.119.739-.521.342-.811-6.761-4.974-15.363-8.944-23.938-6.837-.311.076-.288.516 0 .605 7.833 2.367 15.632 5.19 23.596 7.043z" fill="#d4ba89"/><path d="m504.129 366.993c5.825-5.036 11.676-16.411 7.975-24.132-.121-.255-.456-.142-.541.072-1.495 3.816-2.067 7.981-3.523 11.853-1.508 4.015-3.482 7.604-4.735 11.727-.155.502.47.784.824.48z" fill="#d4ba89"/><path d="m583.157 341.858c-.385-6.535-4.715-12.473-8.625-17.519-4.684-6.043-10.165-11.463-17.007-14.999-.277-.144-.572.208-.34.438 5.319 5.272 10.176 10.618 14.436 16.807 3.571 5.186 5.929 11.499 10.834 15.563.251.21.725.102.702-.29z" fill="#d4ba89"/><path d="m589.445 347.982c3.116-2.629 1.464-7.549-.609-10.351-.22-.296-.688-.208-.705.191-.136 3.242-1.138 7.131.514 10.057.172.305.555.311.8.103z" fill="#d4ba89"/><path d="m708.795 345.66c-1.917-3.525-4.813-6.259-6.629-9.896-2.251-4.504-2.987-9.402-4.386-14.172-.095-.319-.582-.339-.666 0-1.734 7.058 2.33 24.061 11.284 24.762.365.028.553-.408.397-.694z" fill="#d4ba89"/><path d="m701.824 347.628c3.025-1.773-2.659-7.004-4.079-8.012-.456-.325-.967.208-.87.67.327 1.546 2.205 8.951 4.949 7.342z" fill="#d4ba89"/><path d="m676.822 388.905c7.51 2.04 14.581 6.37 22.354 7.101.511.047.669-.607.385-.928-5.805-6.547-16.28-8.697-24.446-10.561-7.202-1.646-16.703-3.085-23.328.932-.216.132-.117.448.125.461 8.584.455 16.508.714 24.91 2.995z" fill="#d4ba89"/><path d="m694.909 388.202c2.317 2.158 4.438 4.171 7.612 4.792.366.07.669-.284.483-.629-1.612-2.985-4.558-4.077-7.775-4.712-.303-.06-.578.31-.32.549z" fill="#d4ba89"/><path d="m671.609 734.881c-1.036-3.584-1.328-9.213-4.383-11.705-.15-.125-.385-.129-.489.061-2.279 4.088-.027 11.322 1.22 15.531 1.647 5.572 4.163 8.727 9.451 10.803.667.262.979-.635.625-1.074-2.975-3.686-5.13-9.138-6.424-13.616z" fill="#d4ba89"/><path d="m660.394 732.207c-.249 2.666.012 7.109 2.806 8.416.268.125.61.084.765-.203 1.491-2.77-.96-6.49-2.812-8.527-.285-.313-.727-.041-.759.314z" fill="#d4ba89"/><path d="m589.929 707.307c-3.228 1.434-5.899 3.02-8.101 5.814-.44.559-.06 1.723.8 1.375 2.932-1.186 6.054-2.082 9.103-2.918 3.431-.941 5.568-2.695 8.536-4.527.387-.236.234-.857-.232-.857-3.72-.001-6.571-.458-10.106 1.113z" fill="#d4ba89"/><path d="m752.48 572.787c-5.784.314-10.427 5.748-11.416 11.146-.119.654.604 1.502 1.281.986 2.015-1.535 3.796-3.047 5.57-4.859 1.898-1.938 3.895-3.689 5.26-6.059.295-.505-.071-1.247-.695-1.214z" fill="#d4ba89"/><path d="m796.175 485.729c-.558.264-.422 1.208.173 1.323 3.438.677 6.934.916 10.368 1.662 2.885.627 5.538 1.79 8.491.87.284-.088.558-.434.424-.749-2.693-6.4-14.317-5.524-19.456-3.106z" fill="#d4ba89"/><path d="m671.204 416.215c4.248 2.8 11.363 6.146 16.359 3.668.34-.169.364-.654.117-.905-3.676-3.733-11.394-3.336-16.269-3.53-.431-.016-.531.553-.207.767z" fill="#d4ba89"/><path d="m531.079 286.251c4.416.609 9.01.977 13.44.633.473-.037.759-.588.395-.954-3.713-3.754-9.516-3.717-14.036-1.212-.582.324-.543 1.432.201 1.533z" fill="#d4ba89"/><path d="m321.394 298.348c-.246.187-.218.726.184.675 6.907-.875 14.847-.691 21.293-3.361.509-.212.521-.841 0-1.049-6.811-2.705-15.736-.587-21.477 3.735z" fill="#d4ba89"/><path d="m404.918 502.076c-2.382-7.318-10.336-9.509-17.251-9.964-.414-.026-.556.574-.208.768 5.636 3.121 10.894 6.991 16.686 9.79.386.187.927-.121.773-.594z" fill="#d4ba89"/><path d="m364.384 696.588c-4.965 4.016-8.614 11.658-8.933 17.996-.025.504.677.656.919.248 1.675-2.799 3.11-5.74 4.577-8.656 1.508-2.996 3.404-5.822 4.317-9.076.155-.547-.493-.827-.88-.512z" fill="#d4ba89"/><path d="m212.993 620.109c-.221-.646-1.171-.703-1.366 0-2.222 8.035 2.561 17.285 7.395 23.436.311.396.907-.037.798-.465-.939-3.65-2.057-7.156-3.406-10.678-1.531-4.004-2.054-8.257-3.421-12.293z" fill="#d4ba89"/><path d="m674.693 497.988c20.096 5.609 36.145 22.502 41.246 42.359 2.046 7.992 3.011 7.506 11.257 2.902 9.131-5.094 19.782-8.238 30.499-9.199 2.793-5.602 5.44-12.078 7.549-18.93-5.027 6.957-11.202 12.811-19.915 15.4-14.883 4.42-25.56-7.168-34.861-16.514-9.324-9.365-22.522-16.824-35.775-16.018z" fill="#81391c"/><path d="m629.037 358.787c8.666-3.579 17.945-5.142 27.559-5.07 6.517.051 7.916-.629 6.739-9.281-.173-1.271-.262-2.505-.352-3.744-3.703 2.561-8.06 4.253-13.472 4.579-14.393.866-20.779-13.868-25.549-24.77-4.536-10.357-10.762-25.189-21.943-30.268-1.837 1.444-3.703 2.857-5.609 4.207 16.799 17.935 25.943 40.067 32.627 64.347z" fill="#81391c"/><path d="m390.285 249.362c22.04 10.694 48.26 14.434 72.614 12.788 20.154-1.364 47.565-9.804 51.352-33.183.527-3.248.736-6.755.695-10.371-.318.442-.615.896-.95 1.326-12.899 16.579-40.069 18.7-59.294 21.209-20.843 2.721-42.741-.833-60.959-11.457-12.18-7.103-21.144-18.239-24.819-31.858-.004-.013-.004-.025-.008-.037-6.916 18.797-1.636 40.416 21.369 51.583z" fill="#81391c"/><path d="m473.906 461.153c.074.212.119.426.199.638 6.169 16.2 21.917 23.132 37.99 25.51 27.008 3.995 58.144.633 82.593-12.103 22.176-11.554 38.534-35.882 31.705-58.848-12.874 31.048-45.642 49.858-78.598 57.14-26.118 5.771-55.058 4.23-73.889-12.337z" fill="#81391c"/><path d="m563.384 731.271c-.613.662-1.222 1.326-1.876 1.969-14.863 14.602-36.616 19.064-56.712 17.691-20.918-1.428-41.715-10.205-57.111-24.391-14.043-12.939-18.403-29.189-17.507-46.076-8.575 13.115-11.79 28.951-3.657 42.893 12.377 21.209 35.646 31.637 58.324 38.465 24.659 7.428 69.161 12.164 77.399-22.018.697-2.892 1.043-5.736 1.14-8.533z" fill="#81391c"/><path d="m310.725 639.348c-17.009-8.844-30.782-23.381-38.967-40.637-6.294-13.27-6.723-26.936-4.927-40.615-5.397 5.41-9.464 12.488-11.387 21.523-6.327 29.688 7.612 57.031 32.183 73.83 22.443 15.348 49.918 26.518 76.686 15.297 14.086-5.906 22.287-15.686 26.67-27.52-24.801 11.999-53.273 12.155-80.258-1.878z" fill="#81391c"/><path d="m678.676 674.77c-19.811 8.127-43.484 9.189-63.344.781-9.289-3.934-17.012-10.875-22.508-19.234-1.396-2.127-2.369-4.258-3.072-6.402-.34.539-.654 1.08-1.019 1.621-4.021 5.955-4.805 11.867-1.936 18.305 14.153 31.746 55.038 36.324 85.569 27.801 25.119-7.014 63.763-22.883 69.403-52.303 2.443-12.744-.714-23.051-7.13-31.047-5.955 26.78-31.067 50.263-55.963 60.478z" fill="#81391c"/><path d="m168.484 545.607c-2.742-4.186-5.148-8.617-7.195-13.215 8.859 37.949 38.541 69.406 81.731 53.768.913-10.063 4.247-19.781 10.732-28.232 7.142-9.305 8.146-9.064 9.114-18.434.457-4.402.521-9.191.227-14.18-.874 2.684-1.837 5.352-2.954 7.996-8.19 19.383-25.465 40.883-48.04 41.988-18.832.925-34.198-15.31-43.615-29.691z" fill="#81391c"/><path d="m316.657 460.02c19.3 4.455 34.906-1.024 46.733-11.832-3.248 1.249-6.584 2.334-10.094 3.077-22.126 4.682-46.493-5.599-56.362-26.121-11.219-23.332-5.078-50.558 2.736-75.663-5.18 8.788-9.09 18.41-11.894 27.845-7.763 30.552-10.442 73.618 28.881 82.694z" fill="#81391c"/><path d="m750.416 468.924c-3.289 5.48-3.382 13.263-4.867 19.444-1.969 8.194-5.401 16.204-8.771 23.915-.268.609.38 1.109.904.697 6.996-5.525 9.831-12.248 12.169-20.699 1.883-6.801 3.945-16.717.963-23.357-.074-.162-.316-.135-.398 0z" fill="#f5995a"/><path d="m662.149 622.961c-16.167-1.326-32.018 8.936-43.024 20.006-.237.236.062.568.339.438 14.352-6.652 27.74-14.279 42.83-19.377.597-.202.467-1.018-.145-1.067z" fill="#f5995a"/><path d="m672.174 616.488c-5.955-1.219-10.977-.662-16.526 1.789-.277.123-.212.611.087.662 5.757.963 10.797.201 16.439-1.057.684-.152.699-1.253 0-1.394z" fill="#f5995a"/><path d="m706.134 634.313c-10.573 7.008-20.588 14.512-32.238 19.758-.412.186-.105.775.292.691 12.354-2.613 25.822-8.504 32.621-19.773.249-.413-.256-.954-.675-.676z" fill="#f5995a"/><path d="m715.923 630.938c-1.712 1.682-3.149 3.576-4.68 5.414-1.422 1.703-2.742 3.697-4.379 5.188-.245.221.014.588.302.521 2.549-.58 4.694-1.273 6.467-3.318 1.862-2.146 2.891-4.666 2.991-7.516.013-.366-.454-.534-.701-.289z" fill="#f5995a"/><path d="m533.84 728.184c-14.829-2.025-28.218-2.949-42.051-9.414-12.471-5.83-23.301-14.648-34.52-22.475-.212-.146-.517.15-.362.361 15.193 20.789 50.496 44.443 77.091 32.73.498-.216.391-1.126-.158-1.202z" fill="#f5995a"/><path d="m530.765 734.805c-.323.102-.336.572 0 .666 4.68 1.334 8.867.703 12.329-2.838.307-.313-.002-.814-.415-.715-4.001.955-7.963 1.666-11.914 2.887z" fill="#f5995a"/><path d="m351.432 629.982c-9.324-4.557-19.372-7.02-28.798-11.34-10.65-4.883-18.076-12.402-26.071-20.625-.214-.219-.562.008-.496.289 4.91 20.996 35.752 33.225 55.051 32.842.587-.011.898-.878.314-1.166z" fill="#f5995a"/><path d="m349.969 635.1c-2.168.268-4.396.521-6.573.664-.317.02-.519.402-.268.645 2.974 2.877 10.49 4.863 12.729.039.14-.301.084-.648-.221-.832-1.804-1.083-3.665-.766-5.667-.516z" fill="#f5995a"/><path d="m330.442 584.5c.292.32.896-.012.742-.432-4.747-12.984-18.629-20.316-32.022-21.342-.4-.031-.528.549-.199.736 11.105 6.28 22.711 11.37 31.479 21.038z" fill="#f5995a"/><path d="m203.311 468.439c3.335 12.169 8.095 23.898 11.523 36.053 3.472 12.314 4.983 24.969 9.317 37.027.234.656 1.14.531 1.195-.162 1.938-24.119-7.273-53.583-21.345-73.21-.24-.335-.812-.144-.69.292z" fill="#f5995a"/><path d="m228.589 511.869c-.143 2.656.508 5.238.932 7.85.543 3.336.51 6.438 2.486 9.266.23.332.682.348.909 0 3.183-4.838.397-13.693-3.71-17.371-.239-.216-.601-.065-.617.255z" fill="#f5995a"/><path d="m175.988 482.272c-.109-.387-.691-.401-.794 0-4.297 16.818 1.413 40.341 9.772 55.138.314.555 1.051.152.963-.404-1.364-8.6-3.618-16.945-5.438-25.447-2.069-9.666-1.827-19.794-4.503-29.287z" fill="#f5995a"/><path d="m360.684 338.45c-.415 15.297-1.895 29.9-5.643 44.786-3.519 13.981-8.999 27.19-11.5 41.42-.109.625.695 1.027 1.053.442 8.3-13.59 12.846-28.561 16.413-44.035 3.174-13.775 4.889-29.091.193-42.684-.095-.276-.508-.233-.516.071z" fill="#f5995a"/><path d="m358.542 406.379c-2.458 3.33-5.191 7.932-4.453 12.259.062.371.531.494.821.335 4.254-2.312 4.303-8.232 4.276-12.42-.001-.367-.451-.438-.644-.174z" fill="#f5995a"/><path d="m318.644 377.209c4.009-13.936 6.624-27.58 13.199-40.642.184-.364-.216-.882-.608-.608-12.829 8.993-13.5 26.956-13.658 41.105-.007.623.899.731 1.067.145z" fill="#f5995a"/><path d="m572.855 426.455c-10.57 2.787-20.491 7.016-30.656 10.97-11.503 4.474-23.228 6.607-35.277 8.927-.22.043-.22.401 0 .444 22.448 4.427 47.56-8.304 66.302-19.469.466-.278.159-1.01-.369-.872z" fill="#f5995a"/><path d="m543.988 447.623c-.292.21-.242.823.208.767 4.671-.586 9.144-1.211 12.94-4.321.311-.255.035-.714-.303-.73-4.816-.244-9.02 1.548-12.845 4.284z" fill="#f5995a"/><path d="m712.469 499.504c.903-1.488.838-2.741.959-4.455.117-1.658.292-3.292.485-4.945.054-.452-.586-.662-.87-.359-2.255 2.392-3.256 6.873-1.512 9.759.212.353.726.353.938 0z" fill="#f5995a"/><path d="m636.898 309.717c3.489 3.809 5.964 7.966 10.233 10.947.435.305.864-.195.799-.613-.894-5.529-4.285-9.326-7.976-13.393-3.682-4.06-8.201-7.731-13.485-9.39-.499-.156-.74.455-.465.798 3.325 4.137 7.309 7.736 10.894 11.651z" fill="#f5995a"/><path d="m652.774 317.111c.348.204.707-.064.742-.426.161-1.65.011-2.503-.967-3.917-.839-1.213-1.908-2.17-2.875-3.269-.138-.158-.387-.026-.394.163-.045 1.494.113 2.799.663 4.205.651 1.671 1.344 2.377 2.831 3.244z" fill="#f5995a"/><path d="m476.251 212.201c-9.955-3.032-20.571-1.567-30.844-1.398-11.313.187-22.605-.432-33.909-.35-.253.002-.275.337-.058.419 9.697 3.628 19.946 4.49 30.219 4.887 11.231.432 23.783.996 34.592-2.415.56-.177.568-.97 0-1.143z" fill="#f5995a"/><path d="m464.763 220.846c4.038 1.539 9.012 1.458 12.356-1.43.316-.271.054-.781-.325-.786-3.945-.035-8.289.084-12.031 1.516-.343.133-.343.568 0 .7z" fill="#f5995a"/><path d="m315.102 425.511c.522-5.227-.389-9.816-1.028-15.008-.591-4.795-.385-9.664-.606-14.481-.013-.261-.35-.36-.492-.133-5.229 8.359-2.425 21.256 1.158 29.753.215.514.91.444.968-.131z" fill="#f5995a"/><path d="m339.557 588.59c.206.311.699.197.706-.191.08-4.773-2.236-12.063-7.286-13.754-.379-.125-.644.316-.483.631 1.039 2.023 2.316 3.924 3.354 5.953 1.277 2.496 2.15 5 3.709 7.361z" fill="#f5995a"/><path d="m473.886 683.549c10.497 2.559 19.753 7.258 29.315 12.039.474.236 1.028-.252.743-.742-5.523-9.514-19.729-12.566-29.958-12.041-.413.021-.53.638-.1.744z" fill="#f5995a"/><path d="m511.055 698.453c.422.09.749-.254.669-.67-.689-3.486-4.17-6.742-7.42-8.039-.327-.131-.71.266-.588.588 1.216 3.217 3.791 7.354 7.339 8.121z" fill="#f5995a"/><path d="m446.22 185.631c.42.015.638-.648.225-.829-13.874-6.015-32.805-6.063-46.111 1.734-.417.245-.265.987.258.95 15.374-1.116 30.149-2.418 45.628-1.855z" fill="#f5995a"/><path d="m571.005 402.584c-13.202-1.958-33.718 2.62-43.225 12.479-.264.273-.003.73.368.631 6.738-1.779 13.082-4.99 19.789-6.988 7.574-2.254 15.477-3.025 23.067-5.202.42-.12.49-.846.001-.92z" fill="#81391c"/><path d="m569.999 399.587c-.223.152-.223.444 0 .597 2.044 1.4 3.912.975 6.017.084.292-.121.292-.644 0-.765-2.105-.891-3.973-1.317-6.017.084z" fill="#81391c"/><path d="m346.649 363.576c-7.619 13.977-10.925 31.957-8.551 47.647.058.379.703.379.761 0 2.361-15.719 7.475-31.65 8.341-47.497.017-.296-.413-.403-.551-.15z" fill="#81391c"/><path d="m221.264 474.748c2.121 8.804 5.011 18.188 8.75 26.44.171.377.73.166.736-.199.169-9.096-3.044-19.529-8.938-26.562-.223-.268-.621.02-.548.321z" fill="#81391c"/><path d="m353.709 597.648c-.278-.119-.517.176-.321.414 3.516 4.27 7.872 7.822 11.788 11.713 4.108 4.076 7.646 9.117 10.733 14.01.277.438 1.092.305 1.043-.281-.973-11.492-13.224-21.518-23.243-25.856z" fill="#81391c"/><path d="m377.177 614.1c.3 2.164 1.112 4.426 2.472 6.148.208.266.609.031.617-.256.058-2.26-.824-4.723-2.622-6.164-.229-.183-.507-.01-.467.272z" fill="#81391c"/><path d="m448.425 677.678c-.238-.059-.418.234-.24.414 3.26 3.311 7.211 5.676 11.121 8.143 4.332 2.734 8.413 5.639 13.035 7.891.385.188.965-.232.652-.652-5.525-7.423-15.604-13.628-24.568-15.796z" fill="#81391c"/><path d="m524.979 701.822c-.313-.125-.552.336-.321.549 3.237 3 6.483 5.975 9.754 8.939 3.441 3.121 6.334 6.594 10.215 9.201.372.25.979-.172.798-.613-3.434-8.375-12.269-14.789-20.446-18.076z" fill="#81391c"/><path d="m545.494 712.777c-.292-.258-.736.066-.543.42 1.149 2.1 2.053 4.227 4.003 5.711.191.145.481-.051.471-.27-.115-2.673-2.063-4.208-3.931-5.861z" fill="#81391c"/><path d="m658.639 651.764c-5.825.766-10.91 3.152-16.287 5.402-6.01 2.514-12.693 4.115-18.282 7.479-.298.18-.146.582.167.613 5.782.578 11.466-1.623 16.81-3.643 6.24-2.359 12.524-4.801 17.858-8.869.355-.271.322-1.058-.266-.982z" fill="#81391c"/><path d="m659.412 657.266c-1.074.557-1.911 1.336-2.783 2.143-.249.229-.041.596.255.617 3.028.215 4.791-.973 6.599-3.242.235-.297.027-.768-.384-.66-1.357.349-2.422.491-3.687 1.142z" fill="#81391c"/><path d="m741.552 471.422c-2.729 8.39-5.355 16.951-7.098 25.602-.083.408.471.682.69.293 4.427-7.855 7.422-16.702 6.99-25.816-.016-.339-.477-.4-.582-.079z" fill="#81391c"/><path d="m532.26 457.396c-6.563.263-12.976 1.683-19.526 2.187-6.611.51-13.286-.181-19.848.829-.222.033-.183.354 0 .412 11.654 3.649 28.898 3.782 39.582-2.66.339-.207.212-.785-.208-.768z" fill="#81391c"/><path d="m541.35 459.395c.152-.234-.05-.545-.313-.545-2.577-.002-5.924.417-7.944 2.246-.119.107-.127.339 0 .444 1.03.843 2.495 1.071 3.797.761 2.131-.506 3.268-1.078 4.46-2.906z" fill="#81391c"/><path d="m417.719 219.244c-6.303-1-12.451-2.731-18.758-3.676-.409-.062-.679.451-.292.691 9.596 5.998 23.925 8.46 35.059 6.757.442-.067.375-.714 0-.827-5.287-1.577-10.565-2.083-16.009-2.945z" fill="#81391c"/><path d="m434.536 224.936c-.413.17-.475.629-.117.901 2.131 1.619 5.566 1.629 7.606-.088.184-.154.193-.522 0-.675-2.099-1.66-5.144-1.108-7.489-.138z" fill="#81391c"/><path d="m462.401 180.398c-.409-.025-.606.624-.216.798 3.703 1.637 7.56 2.493 11.499 3.373 4.905 1.097 9.363 3.281 14.203 4.488.438.109.841-.368.594-.773-4.722-7.793-18.044-7.402-26.08-7.886z" fill="#81391c"/><path d="m495.093 189.955c.035-2.213-2.112-3.89-4.167-4.18-.216-.031-.513.142-.405.405.718 1.777 2.122 3.698 4.072 4.155.251.06.496-.117.5-.38z" fill="#81391c"/><path d="m645.3 615.721c-11.729-1.029-25.77 2.768-33.335 12.361-.667.846.146 2.061 1.176 1.527 10.51-5.475 20.942-9.574 32.268-13.08.46-.144.345-.769-.109-.808z" fill="#81391c"/><path d="m683.005 615.775c-.376.258-.149.881.317.754 9.023-2.486 17.922-1.996 27.075-.736.786.107 1.352-.896.572-1.354-8.756-5.148-19.691-4.279-27.964 1.336z" fill="#81391c"/><g fill="#68182b"><path d="m718.397 662.703c-26.145 14.193-52.642 26.314-82.926 28.006-.256.014-.256.379 0 .395 27.224 1.498 64.104-7.088 83.584-27.547.428-.453-.113-1.151-.658-.854z"/><path d="m725.691 657.412c-2.062.268-3.584 1.67-4.497 3.486-.121.244.033.465.284.496 2.172.273 4.334-1.133 4.688-3.357.046-.277-.125-.67-.475-.625z"/><path d="m580.592 787.734c-15.412 4.57-28.933 9.428-45.173 10.648-.343.027-.391.463-.078.582 13.288 5.096 35.014-1.898 45.667-10.514.341-.276-.028-.831-.416-.716z"/><path d="m709.19 754.191c.156-.377-.362-.549-.604-.352-4.065 3.262-7.609 7.076-11.741 10.244-4.592 3.52-10.12 5.273-15.465 7.277-.324.121-.253.541.078.582 11.32 1.404 23.525-7.643 27.732-17.751z"/><path d="m557.186 655.342c-13.166-.021-26.041.73-39.11-1.381-12.556-2.025-23.826-7.301-35.941-10.717-.327-.092-.454.332-.216.51 19.502 14.725 52.283 20.313 75.392 12.492.48-.164.412-.904-.125-.904z"/><path d="m533.313 755.057c-12.423-.176-24.04.092-36.363-2.316-10.935-2.141-21.378-6.73-32.354-8.439-.35-.057-.601.402-.255.6 17.842 10.148 49.165 19.039 69.089 11.027.447-.181.416-.865-.117-.872z"/><path d="m543.493 753.139c.069-.172-.076-.412-.253-.447-2.035-.383-4.345.67-5.867 1.955-.129.111-.045.313.095.357 2.049.662 5.097.414 6.025-1.865z"/><path d="m400.63 737.961c-5.394 6.295-9.966 13.184-15.82 19.096-6.996 7.066-15.516 11.643-23.702 17.072-.352.236-.136.803.292.691 17.003-4.428 33.928-19.969 40.028-36.395.164-.445-.494-.82-.798-.464z"/><path d="m208.86 640.279c-.106-.279-.56-.26-.549.074.424 14.203 7.999 28.697 12.981 41.857 3.745 9.893 9.159 21.037 19.833 24.557.417.137.703-.422.415-.717-17.428-17.839-23.997-42.88-32.68-65.771z"/><path d="m244.999 707.744c-.189.033-.333.283-.264.465.852 2.219 4.48 3.576 6.55 2.375.257-.15.257-.463.086-.672-1.248-1.539-4.438-2.512-6.372-2.168z"/><path d="m348.457 663.336c-14.462-3.387-27.586-5.295-41.182-11.934-12.258-5.984-21.845-15.184-32.879-22.902-.253-.178-.606.176-.428.428 14.251 20.08 49.324 40.18 74.488 35.486.553-.103.523-.957.001-1.078z"/><path d="m427.428 592.486c-12.342-4.816-24.189-7.744-35.488-15.133-12.157-7.949-20.414-19.033-30.421-29.195-.261-.266-.636.07-.489.381 10.023 21.283 41.211 48.375 66.398 44.898.541-.074.392-.798 0-.951z"/><path d="m431.254 593.41c-.141.143-.141.369 0 .51 1.259 1.295 4.887 1.838 6.197.42.154-.164.16-.359.072-.557-.897-2.035-4.92-1.756-6.269-.373z"/><path d="m245.803 497.471c3.748 10.119 4.812 20.818 6.468 31.4.088.564 1.004.541 1.11 0 4.2-21.219-7.985-48.5-23.12-63.244-.3-.294-.755.076-.567.438 5.475 10.606 11.919 20.092 16.109 31.406z"/><path d="m357.4 443.379c20.037-18.901 30.899-55.613 23.205-82.208-.113-.391-.714-.317-.712.097.173 29.828-6.5 56.558-23.192 81.572-.288.434.342.874.699.539z"/><path d="m238.817 421.964c.385.341.922-.083.7-.539-4.618-9.458-10.882-17.943-15.677-27.333-5.811-11.383-8.077-23.433-12.173-35.355-.103-.3-.532-.247-.549.074-1.12 21.362 11.863 49.086 27.699 63.153z"/><path d="m386.963 282.578c9.341 5.271 17.009 12.934 26.368 18.076.438.241 1.091-.282.743-.743-12.342-16.383-36.028-28.55-56.287-30.212-.354-.029-.374.475-.078.582 10.038 3.597 19.926 7.035 29.254 12.297z"/><path d="m414.199 294.615c.253.062.528-.124.521-.397-.074-2.555-2.804-5.22-5.327-5.327-.334-.015-.483.354-.356.619.954 1.966 2.955 4.555 5.162 5.105z"/><path d="m488.379 243.491c-13.446 1.522-26.465 4.624-40.063 5.087-13.592.462-26.832-1.968-40.326-2.816-.438-.027-.45.572-.097.712 22.968 8.97 58.703 10.027 80.752-2.002.435-.238.267-1.04-.266-.981z"/><path d="m492.417 242.438c-.134.117-.07.381.108.414 2.195.393 4.021.237 5.28-1.818.117-.191.007-.451-.205-.508-2.273-.612-3.56.505-5.183 1.912z"/><path d="m588.988 269.297c15.162-8.74 34.149-30.189 30.204-49.214-.047-.226-.389-.211-.444 0-2.551 9.713-5.418 18.21-11.145 26.59-5.472 8.01-12.697 14.744-19.113 21.979-.303.341.081.887.498.645z"/><path d="m556.573 292.848c-.362-.122-.568.414-.255.601 10.023 5.976 18.668 13.813 26.224 22.657 9.951 11.651 15.237 25.339 23.278 38.088.381.603 1.181.188 1.084-.457-3.655-24.058-27.095-53.102-50.331-60.889z"/><path d="m600.523 457.13c-21.564 15.466-46.581 20.249-72.213 24.233-.399.062-.245.603.089.646 22.92 2.917 57.833-5.334 72.583-24.284.241-.309-.078-.869-.459-.595z"/><path d="m606.91 449.641c-2.17.667-3.888 3.425-4.212 5.578-.052.333.214.751.606.607 2.183-.8 4.955-3.283 4.174-5.864-.072-.235-.323-.398-.568-.321z"/><path d="m706.03 459.053c-7.958-.167-15.865.665-23.827.572-7.87-.093-15.701-1.343-23.564-1.076-.368.012-.407.492-.082.615 14.205 5.365 33.259 5.817 47.61.891.538-.185.456-.99-.137-1.002z"/><path d="m787.92 401.64c-.078.611.87.818 1.136.307 12.395-23.935.814-58.265-15.753-77.407-.24-.28-.647.076-.489.378 6.329 12.048 11.992 23.888 15.209 37.18 3.225 13.321 1.608 26.186-.103 39.542z"/><path d="m760.41 490.368c-.111-.346-.654-.294-.646.088.253 11.575-6.478 19.743-9.226 30.424-.134.516.522.73.813.342 6.482-8.693 12.589-19.824 9.059-30.854z"/><path d="m799.126 579.545c-1.906 10.252-3.499 20.09-7.224 29.895-4.495 11.826-11.925 22.035-17.854 33.115-.271.506.383 1.037.8.617 15.391-15.43 27.913-41.436 24.851-63.627-.042-.291-.521-.277-.573 0z"/><path d="m698.18 551.125c-.056-.227-.381-.209-.444 0-1.203 3.928-2.359 7.662-4.534 11.188-1.986 3.219-4.49 5.928-6.117 9.387-.15.322.186.793.541.541 6.322-4.483 12.495-12.973 10.554-21.116z"/><path d="m620.147 541.926c-4.629 6.277-9.434 12.348-15.313 17.506-6.85 6.01-15.231 9.83-22.925 14.584-.389.24-.132.818.305.723 16.713-3.727 32.089-16.691 38.413-32.609.121-.3-.317-.425-.48-.204z"/><path d="m826.813 513.883c-1.716 9.943-5.764 18.58-8.857 28.063-.127.395.438.746.716.416 6.449-7.686 11.377-18.271 8.809-28.479-.083-.315-.609-.344-.668 0z"/><path d="m433.104 405.151c1.771-14.874 1.866-29.799 4.324-44.619 2.534-15.273 8.271-28.604 13.417-43.04.134-.372-.401-.67-.66-.384-10.061 11.138-14.166 27.915-16.964 42.264-2.898 14.874-4.288 31.002-1.185 45.923.137.65 1.003.417 1.068-.144z"/><path d="m671.486 265.289c4.248-3.655 7.463-8.302 11.827-11.924 5.18-4.297 11.375-7.366 16.975-11.071.432-.288.152-.903-.342-.813-6.57 1.195-12.329 4.359-17.533 8.493-4.756 3.777-10.622 8.705-11.433 15.104-.035.283.335.357.506.211z"/><path d="m647.558 298.445c4.265 3.363 8.008 7.292 12.581 10.254.454.296.915-.268.697-.697-4.789-9.436-16.683-17.527-26.695-20.372-.26-.074-.487.277-.271.467 4.315 3.786 9.186 6.797 13.688 10.348z"/><path d="m350.263 703.391c-8.153 9.521-10.953 22.994-10.691 35.26.008.34.551.441.615.082 2.079-12.047 5.08-24.029 10.414-35.082.098-.206-.169-.456-.338-.26z"/><path d="m344.516 731.461c-3.31 5.049-3.715 11.363-2.155 17.109.091.328.576.328.666 0 1.502-5.504 1.128-11.252 2.09-16.855.064-.363-.389-.578-.601-.254z"/><path d="m502.816 709.209c6.879 3.324 13.087 7.777 20.101 10.854.418.184.897-.313.519-.672-10.503-9.975-26.191-18.629-41.023-18.168-.241.01-.292.352-.058.42 7.046 2.029 13.844 4.365 20.461 7.566z"/><path d="m523.133 712.445c.29.027.568-.328.461-.604-1.413-3.613-5.513-5.086-8.824-6.414-.229-.09-.37.23-.225.385 2.444 2.584 4.694 6.272 8.588 6.633z"/><path d="m693.744 630.063c-20.687 2.375-44.816 7.525-60.6 22.008-.267.242.074.666.379.49 19.024-11.133 40.131-13.801 60.345-21.592.445-.174.432-.969-.124-.906z"/><path d="m685.291 628.268c2.042-.551 3.788-1.52 5.747-2.293.382-.15.35-.734-.102-.742-2.224-.047-4.175-.07-6.29.705-2.057.754-3.894 1.857-5.805 2.914-.333.186-.086.619.241.572 2.099-.311 4.158-.606 6.209-1.156z"/><path d="m768.745 572.738c-9.001 5.172-17.593 19.998-16.451 30.404.041.369.603.648.798.215 2.222-4.951 3.933-10.086 6.438-14.914 2.774-5.348 7.172-9.852 9.554-15.365.093-.217-.105-.473-.339-.34z"/><path d="m597.457 509.398c-21.601 5.168-45.768 14.406-60.514 31.727-.275.324.14.74.465.465 17.546-14.842 39.606-22.387 60.341-31.5.407-.18.109-.787-.292-.692z"/><path d="m412.268 496.887c-.27-.092-.428.312-.191.451 22.45 13.156 38.348 30.098 53.03 51.305.321.465 1.171.191.963-.404-7.834-22.542-31.499-43.745-53.802-51.352z"/><path d="m275.203 570.461c35.499 10.799 64.183 33.695 91.678 57.641.539.469 1.195-.227.77-.77-22.231-28.336-57.333-49.607-92.271-57.504-.413-.096-.582.51-.177.633z"/><path d="m192.695 481.609c-.104-.247-.552-.253-.517.07 2.81 25.4 9.235 56.041 23.71 77.479.297.439 1.104.172.901-.381-4.661-12.762-9.608-25.27-13.218-38.389-3.553-12.921-5.701-26.369-10.876-38.779z"/><path d="m200.423 539.252c.086 4.947 2.547 10.635 5.771 14.332.227.262.734.064.702-.291-.453-4.855-2.74-10.344-5.645-14.266-.246-.332-.836-.256-.828.225z"/><path d="m326.973 424.105c1.549-12.5 1.956-25.084 3.375-37.599 1.67-14.75 6.305-28.254 10.509-42.367.097-.323-.335-.46-.51-.216-15.008 20.909-17.118 55.47-14.23 80.182.064.552.787.55.856 0z"/><path d="m321.98 403.843c1.606-6.115.911-12.134.779-18.353-.011-.477-.718-.59-.842-.113-1.579 6.177-2.283 12.191-.637 18.465.091.346.61.346.7.001z"/><path d="m549.735 419.558c11.826-4.762 24.274-7.286 36.762-9.561.775-.142.519-1.238-.175-1.294-24.329-1.969-56.554 11.622-73.25 29.213-.257.271.07.703.399.516 11.962-6.804 23.435-13.709 36.264-18.874z"/><path d="m593.462 405.577c.394-.132.409-.578.107-.813-3.034-2.336-7.049-.319-10.137.786-.389.14-.229.658.164.604 3.206-.444 6.781.457 9.866-.577z"/><path d="m655.831 401.343c-.379.04-.385.56 0 .592 12.024 1.021 23.433 3.008 34.914 6.708 10.226 3.293 19.476 8.804 29.532 12.492.51.187.981-.588.543-.934-17.224-13.637-43.181-21.138-64.989-18.858z"/><path d="m713.74 411.476c1.69.697 3.602 1.981 5.459 1.345.428-.146.609-.586.403-.992-.835-1.641-2.837-2.112-4.451-2.744-1.987-.778-3.838-1.072-5.959-.805-.358.045-.537.492-.191.706 1.534.953 3.067 1.801 4.739 2.49z"/><path d="m395.448 199.693c34.079-5.678 67.059-2.831 101.006 1.653.502.066.7-.74.258-.95-14.846-7.039-33.15-7.181-49.272-7.59-17.245-.438-35.842.156-52.185 6.187-.441.165-.268.776.193.7z"/><path d="m459.138 189.352c2.423.173 4.686.778 7.125.58.253-.021.479-.364.232-.562-3.577-2.879-9.438-2.374-13.646-1.439-.268.06-.268.479 0 .539 2.109.469 4.13.728 6.289.882z"/><path d="m545.868 243.232c13.574-12.444 28.205-23.153 42.174-35.059.409-.35-.111-.896-.539-.699-16.18 7.559-32.092 20.573-42.229 35.299-.253.369.29.739.594.459z"/><path d="m590.803 201.106c.22-.284.03-.736-.368-.632-4.996 1.292-8.833 4.737-12.031 8.592-.188.227.07.646.34.438 3.923-3.009 8.913-4.334 12.059-8.398z"/><path d="m494.682 374.35c6.621-18.605 11.814-39.9 9.774-59.771-.037-.364-.512-.354-.56 0-2.688 20.024-6.913 39.637-9.882 59.585-.065.437.515.612.668.186z"/><path d="m491.966 359.63c2.551-6.458 3.138-13 1.932-19.845-.043-.255-.458-.251-.506 0-1.248 6.535-1.993 13.086-2.298 19.728-.025.537.702.554.872.117z"/><path d="m565.364 442.04c15.404-4.402 33.359-8.393 45.813-19.058.29-.249-.019-.809-.385-.66-15.283 6.132-30.632 12.416-45.732 18.996-.417.183-.118.843.304.722z"/><path d="m609.628 428.53c-2.456-.64-5.109 2.155-6.814 3.641-.35.302-.06.864.359.87 2.352.039 6.401-1.177 6.811-3.884.04-.271-.064-.551-.356-.627z"/><path d="m503.475 597.998c-.261 0-.313.383-.062.451 9.68 2.68 19.476 4.533 28.964 7.91 11.762 4.186 21.465 11.047 31.79 17.813.764.498 1.514-.59.938-1.215-14.695-15.955-40.215-24.992-61.63-24.959z"/><path d="m552.739 608.826c.755.506 1.434 1.123 2.188 1.621.989.652 2.023.992 3.07 1.533.422.221.891-.223.652-.652-1.104-1.996-2.114-3.125-4.029-4.396-1.722-1.145-3.423-1.633-5.373-2.174-.461-.127-.915.525-.496.852 1.343 1.056 2.548 2.249 3.988 3.216z"/><path d="m433.58 762.432c-.054-.338-.548-.287-.634 0-1.59 5.334-.846 10.703.204 16.082.958 4.918 2.68 12.199 7.612 14.582.342.166.759-.104.652-.5-1.352-5.113-4.306-9.59-5.581-14.822-1.219-5.014-1.429-10.253-2.253-15.342z"/><path d="m429.378 777.074c-.154-.25-.645-.256-.691.09-.541 3.877 1.106 9.363 4.353 11.719.259.189.703-.061.668-.383-.236-2.15-1.144-3.945-1.934-5.932-.737-1.853-1.339-3.789-2.396-5.494z"/><path d="m642.162 725.311c1.093 11.895 6.12 35.512 19.856 39.09.38.102.835-.357.557-.725-4.967-6.564-9.914-11.713-13.065-19.547-2.514-6.242-3.851-12.885-6.734-18.984-.138-.291-.642-.155-.614.166z"/><path d="m665.557 759.393c.22.092.53-.143.499-.381-.502-3.871-4.933-6.352-7.174-9.271-.178-.23-.619-.111-.511.217 1.14 3.413 3.726 8.005 7.186 9.435z"/><path d="m603.173 713.582c-6.091.139-13.785 3.246-17.819 7.949-.244.285-.014.723.368.633 2.806-.664 5.433-1.867 8.06-3.039 3.384-1.51 6.613-2.443 9.641-4.625.373-.268.279-.932-.25-.918z"/><path d="m590.422 776.852c-4.519.613-8.906 4.086-12.708 6.42-.283.172-.195.717.184.674 4.579-.518 10.482-2.244 13.008-6.465.211-.358-.136-.674-.484-.629z"/><path d="m320.683 601.281c3.743 3.377 7.874 6.268 11.73 9.506 4.096 3.441 7.746 7.227 12.227 10.178.273.182.571-.164.428-.428-4.719-8.576-14.861-16.555-24.048-19.834-.328-.117-.588.352-.337.578z"/><path d="m260.916 667.127c1.235 4.58 2.828 8.979 4.407 13.445 1.409 3.982 2.224 8.092 4.01 11.938.183.393.703.148.736-.199.852-8.762-4.231-18.102-8.522-25.451-.197-.339-.734-.114-.631.267z"/><path d="m274.938 688.896c.496-3.1-.436-6.691-2.785-8.895-.374-.352-1.032-.008-.88.512.846 2.891 1.177 6.021 3.003 8.469.162.219.606.262.662-.086z"/><path d="m252.252 378.628c.205.5.987.623 1.144 0 1.95-7.813-1.697-16.482-4.414-23.743-2.734-7.304-6.271-14.923-11.451-20.8-.146-.163-.416.01-.358.21 2.127 7.376 5.988 14.283 8.788 21.423 2.915 7.434 3.318 15.639 6.291 22.91z"/><path d="m256.062 362.79c.339.159.662.021.798-.325.691-1.771-.446-3.711-1.181-5.33-.903-1.995-1.785-4.005-3.22-5.683-.269-.315-.835-.064-.814.337.117 2.213.875 4.297 1.599 6.372.579 1.665 1.104 3.831 2.818 4.629z"/><path d="m271.139 286.895c4.107 5.973 6.383 13.051 10.733 18.813.271.36.995.307.95-.257-1.119-13.973-14.203-30.965-27.082-36.204-.376-.154-.71.434-.399.687 6.074 4.983 11.332 10.471 15.798 16.961z"/><path d="m279.974 286.891c.378.191.748-.117.677-.52-.416-2.327-1.727-3.872-3.049-5.813-1.214-1.779-2.536-3.536-4.282-4.821-.212-.156-.418.099-.387.296.357 2.355 1.569 4.428 2.851 6.397 1.234 1.89 2.161 3.439 4.19 4.461z"/><path d="m382.111 302.98c-.346-.144-.658.401-.368.632 6.446 5.134 14.39 9.972 22.622 11.381.372.064.783-.416.415-.716-6.442-5.256-15.049-8.139-22.669-11.297z"/><path d="m588.155 228.453c-8.292 5.41-13.381 14.395-20.331 21.288-.281.28.078.736.42.543 8.633-4.877 14.709-13.368 20.653-21.088.338-.439-.308-1.027-.742-.743z"/><path d="m648 336.04c.311.06.704-.286.465-.605-1.861-2.47-4.237-3.766-6.807-5.453-3.319-2.181-6.597-4.454-9.488-7.188-.249-.234-.621.062-.465.36 2.925 5.622 10.027 11.688 16.295 12.886z"/><path d="m571.84 339.536c-3.355-3.5-6.817-6.773-10.668-9.725-.205-.156-.458.14-.339.339 2.277 3.781 4.978 7.138 7.979 10.365 2.685 2.89 5.721 7.961 9.623 9.069.495.14.847-.317.769-.77-.628-3.673-4.894-6.698-7.364-9.278z"/><path d="m567.573 343.712c-.409-.2-.841.3-.497.646 1.997 2.018 2.927 5.461 5.768 6.537.331.125.66-.191.666-.508.074-3.281-3.399-5.439-5.937-6.675z"/><path d="m464.011 398.984c2.38-8.52 2.927-16.978 3.54-25.774.857-12.257 2.854-24.064 5.395-36.064.087-.405-.48-.687-.69-.292-9.501 17.978-8.617 42.163-9.376 61.978-.026.66.958.772 1.131.152z"/><path d="m459.604 407.958c-.169-5.667.222-11.317-.811-16.92-.045-.255-.457-.249-.506 0-1.185 5.844-1.77 11.5.642 17.104.147.339.685.156.675-.184z"/><path d="m572.887 526.264c-7.855 1.91-17.533 4.686-21.908 12.145-.148.25.138.51.382.383 7.321-3.814 14.646-7.752 21.806-11.865.361-.208.114-.759-.28-.663z"/><path d="m714.423 315.192c-.158-.397-.69-.243-.633.177 2.11 15.39 7.997 37.625 19.66 48.671.3.282.913.006.742-.432-2.962-7.634-7.417-14.59-10.538-22.194-3.523-8.585-5.784-17.614-9.231-26.222z"/><path d="m717.284 343.457c.842 4.684 2.279 9.31 5.634 12.86.334.352.811-.025.743-.432-.777-4.721-3.142-8.783-5.745-12.695-.225-.336-.701-.118-.632.267z"/><path d="m724.325 482.899c-4.19 8.133-6.407 17.726-6.45 26.864-.002.418.633.637.828.223 3.876-8.266 4.977-17.827 6.284-26.807.054-.374-.458-.675-.662-.28z"/><path d="m677.356 547.266c-14.661 6.787-27.529 19.641-37.963 31.715-.285.33.105.947.498.646 12.969-9.904 25.979-20.629 38.043-31.613.428-.389-.115-.965-.578-.748z"/><path d="m679.704 541.646c-3.263-.043-6.107 2.65-8.026 5.025-.251.309-.029.85.415.717 2.9-.879 6.206-2.563 7.967-5.123.181-.263-.064-.613-.356-.619z"/><path d="m761.848 558.434c-12.216-.313-23.457 9.463-30.444 18.58-.218.285.227.566.465.361 9.287-7.994 19.318-12.809 30.221-18.053.447-.215.205-.875-.242-.888z"/><path d="m758.339 556.578c2.699-.332 5.509 0 7.963-1.469.298-.176.32-.648 0-.822-2.87-1.549-5.669.008-8.203 1.402-.394.215-.245.95.24.889z"/><path d="m405.284 527.086c6.63 6.873 13.311 13.561 22.09 17.551.524.238 1.149-.412.658-.854-7.654-6.848-15.395-13.469-22.614-20.793-6.569-6.664-12.995-13.645-21.203-18.313-.197-.113-.389.146-.238.311 6.905 7.535 14.209 14.742 21.307 22.098z"/><path d="m422.03 545.945c-.348-.035-.418.449-.167.611 2.106 1.367 4.536 3.801 7.189 3.688.271-.014.562-.293.444-.584-1.098-2.736-4.831-3.451-7.466-3.715z"/><path d="m289.616 519.76c6.446-10.908 14.898-20.482 23.869-29.375.314-.313-.097-.866-.479-.621-11.215 7.156-20.22 16.803-23.99 29.74-.108.365.411.574.6.256z"/><path d="m312.734 498.061c1.391-1.45 3.209-2.578 4.652-4.023 1.43-1.432 3.069-3.121 3.411-5.179.075-.465-.26-.814-.73-.73-2.156.389-3.497 2.17-4.787 3.806-1.421 1.802-1.943 3.807-3.063 5.729-.187.32.256.67.517.397z"/></g></g></g></svg>