<svg id="Fruit" height="512" viewBox="0 0 992.13 992.13" width="512" xmlns="http://www.w3.org/2000/svg"><g><path d="m145.253 664.637c-.395 5.641-.263 11.252.407 16.736.476 3.885 1.246 7.773 2.313 11.639-11.713 17.693-16.802 39.457-14.109 61.715 3.382 27.982 18.472 52.344 41.395 66.842 9.036 5.717 19.34 9.717 30.78 11.965 1.781 6.088 4.153 11.992 7.069 17.547 14.763 28.115 42.579 45.6 76.323 47.971 2.997.213 6.056.316 9.092.316h.002c8.865 0 17.751-.9 26.366-2.646 15.188 20.471 41.57 33.52 70.816 33.52 16.252 0 31.391-4.109 43.979-11.676 15.491 11.504 34.37 17.836 53.175 17.836 1.408 0 2.819-.035 4.225-.105 17.453-.877 35.035-6.992 52.261-18.174 8.75-5.68 16.756-12.307 23.733-19.58 2.223 1.721 4.537 3.33 6.948 4.828 13.352 8.283 28.83 12.662 44.761 12.662l1.668-.016c33.712-.666 63.94-20.559 77.008-50.682 3.96-9.129 6.424-19.262 7.336-29.975 30.332-10.527 55.988-37.902 66.098-70.982 17.617-3.6 34.207-12.688 47.914-26.465 16.96-17.049 28.222-40.041 31.557-63.611 1.584-1.02 3.126-2.09 4.623-3.207 23.098-17.219 39.115-45.164 42.849-74.756 3.163-25.1-3.128-48.875-17.723-66.943-14.125-17.496-34.616-27.131-57.697-27.131-.558 0-1.114.006-1.675.02 2.37-18.886-1.215-37.45-10.646-53.912-5.098-8.896-11.883-16.727-20.102-23.274 15.99-36.797 13.004-82.13-21.488-109.656-16.897-13.485-38.791-20.911-61.65-20.911-7.693 0-15.398.837-22.906 2.489-9.844 2.168-23.556 6.589-35.741 15.518.208-1.115.368-2.188.487-3.217 1.053-9.108-.197-22.345-10.271-37.444 7.454-25.908 20.459-47.681 40.389-67.834 40.411-40.859 26.019-68.387 13.843-81.159-8.653-9.08-19.755-13.907-32.121-13.971-.201-4.347-.946-8.709-2.369-13.056-2.734-8.341-9.244-19.905-24.737-27.625-5.739-2.861-11.801-4.311-18.019-4.311-10.813 0-20.881 4.069-30.342 12.327-1.234-1.701-2.516-3.367-3.841-4.999-1.039-1.273-2.188-2.46-3.429-3.544-8.216-7.839-17.92-11.976-28.135-11.976-9.106 0-17.879 3.363-25.373 9.723-4.561 3.872-8.265 8.756-11.043 14.508-9.798 2.542-18.67 8.477-24.118 16.519-10.978 16.205-6.407 33.448-4.423 40.939.983 3.626 1.996 7.247 3.008 10.863 6.216 22.241 11.766 42.093 10.189 61.258-9.295 1.96-17.41 5.761-24.24 11.371-12.087 9.922-19.749 24.584-21.022 40.228-.547 6.738.119 13.335 1.921 19.534-5.123 5.143-10.68 10.314-16.725 15.567-15.713-12.807-34.88-20.232-53.738-20.232-10.875 0-21.369 2.368-31.195 7.037-9.036 4.295-17.338 9.96-24.65 16.768-9.748-4.863-19.903-7.754-30.369-8.635-2.137-.179-4.28-.269-6.42-.269-17.255 0-34.246 5.796-47.836 16.318-15.318 11.856-25.414 28.787-28.432 47.672-.117.732-.224 1.466-.318 2.203-15.508 2.063-31.599 8.293-44.722 17.529-28.142 19.802-41.497 55.005-34.683 86.92-10.111 13.228-16.354 28.865-17.908 45.272-.144 1.514-.244 3.037-.304 4.57-26.681 16.609-39.03 45.355-35.042 82.691 3.643 34.105 23.625 58.545 57.027 70.553z" fill="#fff"/><g><path d="m867.537 544.398c-13.879-17.189-35.852-21.764-56.289-15.707-3.689-4.373-8.051-8.191-12.824-11.436 7.318-18.76 7.13-39.25-3.048-57.014-7.101-12.396-18.7-21.259-31.753-26.586 22.2-29.63 26.672-75.062-4.009-99.548-17.962-14.333-42.317-18.65-64.526-13.765-10.586 2.33-21.506 6.728-29.783 13.857-7.406 6.383-13.067 14.954-17.451 23.62-4.274 8.452-7.596 17.496-9.657 26.779-8.376-12.673-15.47-26.058-20.902-40.361-1.691-4.449-2.197-9.623-2.767-14.753 24.115-16.515 18.855-35.737 3.883-52.139 7.868-35.515 23.828-64.214 49.427-90.101 11.868-12 28.91-31.759 13.537-47.886-16.972-17.805-44.702 4.721-55.639 18.78 1.952-4.776 4.044-9.513 6.409-14.181 8.896-17.291 19.881-42.77-3.365-54.354-17.043-8.495-32.748 14.822-41.914 32.541-3.553-12.832-9.31-24.935-18.134-35.793-.303-.37-.621-.665-.948-.913-6.525-6.515-14.469-8.201-22.032-1.782-5.444 4.622-7.705 12.603-8.4 20.02-2.275-.749-4.745-1.187-7.461-1.201-5.537-.028-11.833 2.748-14.982 7.397-4.468 6.595-3.063 14.057-1.144 21.297 9.083 33.522 20.695 66.411 10.007 100.81-10.916-.632-21.298 1.106-28.949 7.388-13.243 10.871-17.3 31.821-5.501 45.243-.973 1.275-1.927 2.47-2.867 3.505-13.537 14.891-28.692 28.213-44.506 40.623-16.276-22.542-46.257-36.735-72.785-24.126-12.648 6.012-23.031 15.425-30.375 26.61-10.641-8.836-22.705-15.053-36.897-16.248-13.387-1.125-27.028 2.921-37.638 11.135-10.297 7.971-17.408 19.668-19.467 32.555-1.292 8.086-.605 16.042 1.349 23.741-18.227-6.081-41.637 1.485-56.229 11.753-22.992 16.18-33.149 47.528-21.532 73.194-11.548 10.7-19.475 25.332-21.025 41.721-.544 5.725-.219 11.293.713 16.674-29.598 11.072-39.421 34.605-36.089 65.795 3.721 34.813 29.343 50.436 61.159 55.627-3.583 10.018-5.059 20.723-3.764 31.305.787 6.451 2.752 12.805 5.623 18.85-28.627 29.748-22.057 81.865 13.035 104.059 11.437 7.234 24.819 10.016 38.195 10.381.722 9.795 3.439 19.463 8.032 28.213 11.379 21.672 32.885 33.564 56.851 35.248 15.118 1.063 31.298-1.131 45.875-6.842 11.962 40.791 77.5 51.676 103.654 18.053 3.834 4.824 8.25 9.201 13.216 12.896 12.003 8.938 27.036 13.865 42.038 13.107 14.484-.729 28.404-6.529 40.458-14.354 14.253-9.25 27.339-22.359 35.085-37.693 5.211 9.066 11.927 16.93 21.191 22.68 9.914 6.152 21.711 9.293 33.365 9.063 23.684-.467 46.06-14.387 55.568-36.309 5.323-12.271 6.652-26.127 5.252-39.789 36.547-1.957 66.511-37.648 70.376-73.854 43.296 1.734 76.548-41.309 76.335-82.758 4.611-1.928 9.051-4.389 13.201-7.482 31.279-23.312 47.01-75.113 20.818-107.545z" fill="#68182b"/><path d="m812.445 575.676c-4.033 19.971-18.295 38.848-36.51 45.809-17.307 6.613-37.113 4.33-53.686-3.357-3.289-12.049-10.415-22.885-20.465-31.031-4.176-3.383-8.695-6.254-13.407-8.764-.741-4.566-.521-9.676.456-14.328.521-2.48 1.201-4.904 2.024-7.273 2.739-7.889 7.85-10.324 14.61-13.309 13.355-5.9 23.865-15.518 31.288-27.432 15.197-3.09 33.216-1.623 48.005 5.268 19.243 8.962 31.904 33.526 27.685 54.417z" fill="#ff8e5b"/><path d="m566.95 757.209c-18.905 13.227-45.264 13.068-63.409-1.531-13.093-10.531-19.7-27.152-23.293-43.285 13.17-6.977 23.983-18.42 30.94-31.639 2.739-5.211 4.944-10.756 6.593-16.49 2.581-8.975 2.684-10.072 8.682-4.807 13.762 12.082 30.771 20.66 48.972 22.482 6.622.666 10.265 3.512 11.729 12.412 3.825 23.245.275 48.522-20.214 62.858z" fill="#ff8e5b"/><path d="m572.98 765.582c-5.504 6.869-9.78 14.76-12.395 23.232-4.698-4.66-10.075-8.668-15.941-11.902 10.277-1.414 20.023-5.353 28.336-11.33z" fill="#ff8e5b"/><path d="m371.096 761.682c-1.366.018-2.726-.057-4.087-.131-.262-.031-.519-.045-.778-.027-26.936-1.828-52.586-21.053-66.109-43.619-8.959-14.945-10.692-31.984-6.539-48.543 10.204 1.549 20.676 1.305 30.677-1.262 11.102-2.852 21.201-8.467 30.017-15.705 5.996-4.922 7.935-4.309 10.156 2.604 5.099 15.865 15.54 29.852 28.349 40.85 9.925 8.52 21.546 15.578 34.003 19.754-8.043 24.588-28.421 45.76-55.689 46.079z" fill="#ff8e5b"/><path d="m391.498 786.754c-2.918.465-5.813 1.121-8.544 2.201-1.378-6.031-3.694-11.871-6.972-17.344 4.168-.34 8.299-1.1 12.36-2.25.623 5.789 1.668 11.635 3.156 17.393z" fill="#ff8e5b"/><path d="m282.12 699.584c-.052.084-.11.145-.158.232-7.387 13.637-19.103 25.367-34.668 28.813-15.433 3.414-31.474-2.857-43.519-12.357-11.139-8.785-20.385-20.994-23.361-35.053-2.826-13.355.321-27.635 6.688-39.521 5.527-10.324 13.675-19.453 23.737-25.484 6.626-3.975 7.874-3.59 10.388 1.488 11.109 22.436 32.716 39.436 56.052 47.617 6.132 2.148 4.639 5.111 3.86 14.57-.539 6.591-.228 13.205.981 19.695z" fill="#ff8e5b"/><path d="m230.822 613.412c-5.011-9.775-7.903-21.586-5.766-32.537 2.354-12.055 8.936-23.293 17.009-32.408 22.1-24.953 47.486-27.689 75.44-19.885 14.785 4.127 29.188 13.193 39.941 24.486 10.082 10.586 16.958 23.129 17.939 35.396-8.428 12.463-13.611 27.098-14.264 42.154-17.521 22.369-44.409 33.883-72.427 27.092-24.029-5.821-46.501-22.114-57.872-44.298z" fill="#ff8e5b"/><path d="m277.615 510.084c2.004 4.777.433 5.67-3.607 6.621-11.468 2.691-21.773 8.076-31.017 16.047-4.834 4.166-9.246 8.867-13.122 13.941-12.644-9.371-23.247-22.906-25.75-38.732-2.142-13.547 1.516-27.643 8.31-39.374 6.636-11.461 16.616-21.429 28.882-26.729 10.879-4.702 21.514-4.392 31.738-.753 4.91 1.748 6.889 5.251 5.285 9.367-1.792 4.587-3.242 9.244-4.285 13.889-3.531 15.731-2.458 31.376 3.566 45.723z" fill="#ff8e5b"/><path d="m568.375 295.979c2.395 1.267 4.739 2.617 7.087 3.961-4.396 19.5-15.01 72.907-17.931 107.315-2.248-13.905-8.135-26.691-18.095-37.682-.665-.734-1.393-1.432-2.084-2.151 13.588-22.316 23.26-46.55 31.023-71.443z" fill="#aa8053"/><path d="m529.516 359.999c-8.244-6.979-17.717-12.761-27.715-16.626 15.466-18.535 28.77-38.792 39.495-60.439.154-.313.259-.623.352-.932 6.026 2.742 11.905 5.916 17.297 8.861-7.391 24.078-16.559 47.464-29.429 69.136z" fill="#aa8053"/><path d="m577.636 364.215c2.979 17.847 7.806 35.359 14.594 52.216-8.192-1.58-16.659-1.553-24.855.064 1.231-17.299 3.171-34.707 5.805-52.033 1.288-8.47 3.059-8.586 4.456-.247z" fill="#aa8053"/><path d="m565.755 427.753c27.281-7.751 53.147 8.651 69.745 33.945 9.244 14.09 14.629 29.462 12.668 46.429-1.834 15.881-8.014 27.584-15.007 36.17-5.2 6.385-8.446 7.457-13.391 3.213-2.87-2.457-5.883-4.775-9.021-6.941-17.855-12.342-42.967-20.342-64.425-13.432-1.846-9.975-5.918-19.344-12.414-27.268 1.015-13.3-2.861-25.084-9.817-35.036 7.636-17.72 23.511-31.924 41.662-37.08z" fill="#ff8e5b"/><path d="m649.133 539.145c4.051-7.453 7-15.518 8.541-23.877 3.611-19.617-.446-37.891-10.605-54.931-5.441-9.127-12.346-18.025-20.409-25.498 28.433-20.012 72.982-22.067 98.3 4.18 25.729 26.672 12.115 74.884-18.075 91.954-5.294 2.994-10.961 5.205-16.812 6.811-.028.006-.055.012-.084.018-13.217 3.612-27.42 3.86-40.856 1.343z" fill="#ff8e5b"/><path d="m682.049 550.148c-2.952 7.402-4.735 15.334-4.631 23.225-12.837-4.795-26.742-6.803-40.388-6.295-1.461-2.301-3.046-4.525-4.743-6.672 4.023-3.553 7.681-7.492 10.871-11.797 12.716 2.87 25.997 3.508 38.891 1.539z" fill="#ff8e5b"/><path d="m525.057 505.5c3.023 3.346 5.629 7.094 7.605 11.307 2.504 5.334 3.88 11.055 4.41 16.879-.004.176.02.348.033.523.695 8.471-.417 17.145-2.853 25.191-7.961 26.295-29.653 42.24-56.42 45.783-23.787 3.146-51.918-2.52-68.684-20.82-19.866-21.686-11.838-61.563 9.585-79.281 23.088-18.2 56.416-24.104 84.181-14.13 7.919 2.845 15.144 7.272 20.9 13.171.308.566.732 1.025 1.243 1.377z" fill="#ff8e5b"/><path d="m389.992 571.896c-2.031 1.777-3.974 3.654-5.831 5.619-2.614-10.346-7.694-19.707-14.441-27.852 7.008-3.672 13.333-8.512 18.887-14.174.154.207.316.41.474.617-2.694 12.019-2.628 24.63.911 35.79z" fill="#ff8e5b"/><path d="m384.797 593.389c7.977-11.254 10.631-8.162 17.386-.957 16.505 17.598 43.346 24.775 66.756 23.984 8.194-.275 16.258-1.549 23.923-3.811 9.541-2.811 12.952-1.322 15.289 6.896 9.719 34.178-7.344 77.58-42.988 87.715-21.168 6.02-43.451-2.373-60.393-15.148-16.39-12.355-30.658-30.523-32.871-51.498-.827-7.793-.799-18.203 4.334-31.371 2.341-6.015 5.359-11.289 8.564-15.81z" fill="#ff8e5b"/><path d="m517.602 486.16c-33.14-18.704-77.261-11.428-106.315 11.475-5.344 4.426-9.927 10.066-13.621 16.438-5.156 8.893-5.396 9.814-9.222.266-4.426-11.041-5.259-23.102-.432-34.804 6.266-15.199 18.665-28.898 33.541-36.007 13.52-6.461 30.21-5.817 44.537-2.705 14.38 3.125 28.604 9.279 39.717 19.083 6.455 5.694 11.458 12.387 14.485 19.864 2.941 7.276 1.638 8.835-2.69 6.39z" fill="#ff8e5b"/><path d="m379.167 473.608c-8.012 18.037-5.44 36.466 3.534 52.698-2.997 3.115-6.535 6.4-10.896 9.563-7.651 5.541-9.836 5.088-16.745-.191-6.86-5.236-14.45-9.586-22.356-12.9-12.877-5.396-26.896-8.279-40.883-8.127-7.816-12.828-10.926-27.059-8.639-42.141 2.187-14.395 8.333-28.09 16.89-39.806 16.102-22.055 43.618-38.113 70.257-24.757 14.45 7.247 27.047 19.629 32.771 34.921-10.303 8.159-18.712 18.989-23.933 30.74z" fill="#ff8e5b"/><path d="m409.46 758.752c13.283-10.174 22.499-24.594 27.484-40.441 7.763 1.518 15.751 1.844 23.778.617 3.316-.506 6.537-1.322 9.674-2.355 3.775 16.143 10.625 32.654 22.783 44.008 2.555 2.383 5.282 4.533 8.153 6.434-15.784 1.295-30.198 8.799-42.533 18.42-9.817 7.658-19.05 17.107-25.323 28.064-4.611 8.063-6.861 12.707-15.694 2.715-11.988-13.57-17.829-32.705-19.257-50.705 3.76-1.827 7.419-4.064 10.935-6.757z" fill="#ff8e5b"/><path d="m582.896 671.699c-24.269.619-46.705-14.441-61.532-32.75-.03-12.275-2.628-24.479-8.133-35.375 11.611-7.217 21.205-17.467 27.224-30.918 3.235-7.234 5.386-14.883 6.39-22.582 1.231-9.412 3.12-14.158 12.913-14.717 5.461-.309 11.033.219 16.104 1.111 8.753 1.543 17.02 5.35 24.566 9.941 15.563 9.469 30.392 23.924 34.943 42.09 8.864 35.366-11.705 82.161-52.475 83.2z" fill="#ff8e5b"/><path d="m594.581 737.854c4.258-10.98 5.296-23.098 4.317-35.082-.368-4.506.981-7.467 6.156-5.039 6.188 2.895 12.723 5.197 19.43 6.838-7.3 11.16-12.017 23.984-13.004 37.307-4.401.826-8.646 2.131-12.693 3.857-9.583 4.093-7.935 1.74-4.206-7.881z" fill="#ff8e5b"/><path d="m604.573 685.654c-6.567-3.57-5.216-5.953.411-8.381 10.269-4.428 19.373-11.613 26.422-20.73 13.72-17.742 19-40.811 15.69-62.871-1.64-10.951-4.671-17.379 10.99-14.48 28.269 5.227 55.776 22.74 55.706 54.078-.039 17.092-8.211 33.916-20.106 45.939-11.994 12.123-28.204 17.637-45.075 17.705-15.357.063-30.586-3.941-44.038-11.26z" fill="#ff8e5b"/><path d="m786.282 465.558c8.421 14.696 8.284 30.944 2.845 46.421-12.342-5.904-25.963-8.488-39.549-8.018-6.852.238-6.109-.885-4.605-5.537 4.842-14.975 5.414-31.937-.004-46.784 4.054-2.736 7.837-5.945 11.338-9.501 12.3 4.237 23.412 11.959 29.975 23.419z" fill="#ff8e5b"/><path d="m654.152 369.111c3.361-7.898 7.685-15.729 13.357-22.21 5.916-6.757 13.221-10.999 21.683-13.944 18.766-6.533 40.326-5.33 57.545 4.957 17.284 10.328 25.663 28.437 24.148 48.338-1.229 16.197-8.359 33.152-19.549 45.786-.103.099-.191.21-.284.315-3.239 3.614-6.807 6.862-10.676 9.626-.767-1.277-1.573-2.534-2.451-3.754-11.906-16.538-31.511-25.709-51.336-28.32-10.438-1.374-20.867-.912-30.922 1.197-7.099 1.492-9.021 1.055-9.131-7.279-.133-10.283 3.151-24.217 7.616-34.712z" fill="#ff8e5b"/><path d="m636.014 399.85c-.27 5.694.221 11.392 2.207 16.727-7.026 2.973-13.72 6.794-19.941 11.404-3.016-2.178-6.128-4.196-9.391-5.887-1.16-.601-2.373-1.075-3.566-1.598-16.198-35.773-22.332-75.258-20.543-114.344.041-.173.084-.345.126-.516 1.874 1.185 3.776 2.318 5.619 3.548 9.185 6.136 10.402 8.542 11.825 19.356 3.388 25.722 18.535 50.765 33.664 71.31z" fill="#aa8053"/><path d="m641.389 156.194c5.539-5.951 28.61-21.783 35.159-5.33 3.604 9.055-7.59 20.113-12.502 25.346-26.487 28.205-45.082 55.429-54.49 92.635-5.381-4.602-11.317-8.853-17.267-12.603 5.574-24.815 14.171-47.837 27.022-69.844 6.294-10.78 13.575-21.068 22.078-30.204z" fill="#aa8053"/><path d="m590.333 139.356c6.019-13.491 13.739-25.917 23.88-36.745 10.914-11.654 19.521 4.941 18.051 14.718-1.143 7.617-5.749 14.586-9.211 21.316-6.804 13.414-12.086 27.228-15.799 41.676-2.232 8.693-3.04 11.897-6.682 19.529-7.672 16.094-13.543 32.981-17.751 50.842-1.146-.625-2.277-1.229-3.396-1.806 6.77-33.882 15.614-73.585 10.908-109.53z" fill="#aa8053"/><path d="m550.607 94.56c1.004-1.993 2.555-3.958 4.727-4.696 2.263-.771 4.678 2.545 5.951 3.936 32.736 40.287 17.86 103.359 8.354 150.451-.373-.158-.76-.331-1.121-.481-3.075-1.271-6.595-2.644-10.361-3.988 11.561-37.061 13.859-73.76.451-110.872-2.697-6.71-6.13-13.527-10.975-18.564-.103-5.316.554-10.981 2.974-15.786z" fill="#aa8053"/><path d="m523.921 128.375c-2.084-7.852-2.359-15.409 7.728-15.355 9.002.045 14.028 11.784 16.801 18.691 12.789 35.388 10.618 69.552-.306 104.812-4.451-1.302-9.084-2.429-13.759-3.264 10.564-35.738-.959-69.805-10.464-104.884z" fill="#aa8053"/><path d="m521.261 243.121c14.909-.545 30.715 5.698 44.455 10.801 21.521 7.995 74.78 39.415 46.69 63.956-.689-2.196-1.563-4.278-2.871-6.095-10.503-14.583-32.695-23.595-48.18-31.208-13.613-6.689-35.482-19.298-51.377-15.84-5.508 1.199-10.092 5.949-14.166 11.163-13.386-17.212 9.894-32.207 25.449-32.777z" fill="#fbf199"/><path d="m484.147 305.687c5.825-5.708 21.744-30.255 29.089-30.727 5.912-.378 12.287.95 18.711 3.151-11.085 22.277-24.849 43.107-41.103 61.941-13.939-3.013-27.785-.677-40.063 5.356-.93-2.608-2.031-5.175-3.315-7.678 12.866-10.002 25.039-20.633 36.681-32.043z" fill="#aa8053"/><path d="m446.263 360.141c11.29-8.033 25.656-12.71 39.565-10.452 15.267 2.477 29.758 11.545 40.88 21.968 6.434 6.027 12.103 12.953 15.96 20.921 4.6 9.501 5.794 20.521 5.364 31.013-13.481 7.39-24.2 18.775-31.303 32.434-11.92-12.07-28.423-20.532-44.578-24.591-16.408-4.122-35.254-5.2-51.29 1.063-8.39-26.404 2.785-56.265 25.402-72.356z" fill="#ff8e5b"/><path d="m369.785 315.939c28.213-16.735 63.087 7.197 71.705 34.906-11.928 8.22-21.684 19.94-27.505 33.14-6.642 15.061-8.483 31.916-4.31 47.719-12.613-24.021-40.008-42.417-67.064-38.957-13.706-28.622.702-61.107 27.174-76.808z" fill="#ff8e5b"/><path d="m295.727 325.364c14.654-.53 27.109 5.92 37.812 15.24-7.876 16.912-9.147 36.533-1.358 54.624-14.719 4.849-27.563 14.73-37.56 27.086-3.791 4.682-7.16 5.35-10.799 1.919-7.019-6.613-13.062-14.294-18.022-22.524-6.189-10.272-11.194-21.89-11.239-34.067-.084-22.832 18.486-41.459 41.166-42.278z" fill="#ff8e5b"/><path d="m192.649 405.417c10.379-9.892 33.448-18.455 49.407-13.481 6.433 2.003 9.08 4.756 10.882 8.306.942 1.855 1.938 3.687 2.982 5.488 3.8 6.535 8.261 12.693 13.275 18.36 5.085 5.749 2.699 5.319-1.792 4.488-5.967-1.103-12.129-1.204-18.465-.023-12.251 2.283-23.498 9.03-32.354 17.649-2.608 2.541-3.698 2.954-6.889 3.149-11.866.729-23.168 4.826-32.842 11.324-8.043-19.97.748-40.915 15.796-55.26z" fill="#ff8e5b"/><path d="m205.008 460.524c-10.384 16.372-15.006 36.667-9.9 55.486 4.371 16.119 15.703 29.553 28.918 39.391-3.159 5.406-5.681 11.119-7.371 17.041-31.596-.777-59.578-26.502-59.236-58.514.285-26.728 22.257-49.235 47.589-53.404z" fill="#ff8e5b"/><path d="m123.235 595.516c-5.251-21.457-.27-41.045 15.38-52.848 10.109-7.631 13.134-2.293 17.881 5.549 11.931 19.719 33.902 33.318 58.097 34.607-.724 6.385-.463 12.906 1.008 19.438-16.299 6.441-29.92 19.344-38.158 35.014-26.809-4.038-47.306-13.567-54.208-41.76z" fill="#ff8e5b"/><path d="m234.07 774.361c-4.577 8.338-7.123 17.531-7.825 26.869-12.818-.395-25.38-3.246-35.933-10.99-8.962-6.578-15.769-16.16-19.455-26.613-6.882-19.518-3.652-41.193 9.625-56.781 13.944 20.621 38.576 35.361 62.741 32.984 17.916-1.762 32.74-12.424 42.846-26.713.552 1.363 1.063 2.738 1.706 4.076 3.401 7.098 7.902 13.65 13.096 19.627-26.312 1.414-53.927 14.082-66.801 37.541z" fill="#ff8e5b"/><path d="m297.558 864.93c-20.151-.07-39.415-7.355-50.897-24.664-10.604-15.982-13.302-36.861-6.24-54.809 10.702-27.203 43.043-39.707 70.493-38.117.163.01.305-.018.459-.02 2.514 2.211 5.089 4.338 7.74 6.32 13.031 9.748 28.458 16.242 44.058 17.814 17.001 20.537 13.309 50.779-4.213 70.006-15.195 16.675-39.422 23.546-61.4 23.47z" fill="#ff8e5b"/><path d="m433.559 878.379c-20.428 30.641-77.333 19.283-86.836-14.482 6.15-3.307 11.867-7.314 16.871-12.109 14.342-13.738 21.724-32.994 20.85-51.811 3.048-1.865 6.656-2.672 10.178-3.145 5.959 16.285 16.007 30.818 31.111 39.465-1.787 14.201 1.6 28.615 8.726 41.043-.324.297-.629.631-.9 1.039z" fill="#ff8e5b"/><path d="m566.024 845.244c-.323.527-.517 1.139-.545 1.818-4.569 13.936-14.565 26.484-26.078 35.869-19.658 16.025-46.354 25.439-70.409 13.406-22.699-11.354-37.676-37.514-32.109-62.92 3.133-14.309 12.758-26.094 23.48-35.648 11.36-10.129 25.967-19.152 41.488-20.289 21.557-1.029 44.173 7.631 56.782 25.16.108.195.234.371.372.541 2.417 3.451 4.492 7.203 6.056 11.324 3.981 10.491 3.818 20.929.963 30.739z" fill="#ff8e5b"/><path d="m674.779 843.17c-4.803 19.559-20.662 33.826-40.309 37.59-10.562 2.025-22.033.633-31.707-4.105-12.572-6.154-20.82-16.736-26.303-29.379 2.287-8.369 2.952-17.186 1.32-26.268-1.475-8.207-4.619-15.582-8.927-22.102 3.425-22.635 22.181-42.576 44.706-46.803 21.769-4.086 40.563 8.707 50.987 27.076 10.486 18.475 15.357 43.124 10.233 63.991z" fill="#ff8e5b"/><path d="m745.047 748.801c-6.628 28.486-29.143 55.717-59.865 56.688-1.779-8.691-4.557-17.117-8.056-24.779-10.114-22.143-30.104-39.791-55.06-39.828 1.242-12.299 6.213-24.314 13.633-34.162 22.324 2.863 45.292-1.893 62.353-17.133 2.198-1.965 4.247-4.104 6.216-6.318 13.512 3.279 26.329 10.27 34.3 21.986 8.69 12.776 9.911 28.788 6.479 43.546z" fill="#ff8e5b"/><path d="m804.129 709.82c-11.807 14.127-28.405 22.293-46.586 21.811-.509-12.988-4.629-25.625-13.36-36.336-5.838-7.164-13.325-12.701-21.598-16.691-9.244-4.451-9.175-6.705-5.085-15.711 3.406-7.49 5.66-15.479 6.496-23.59.77-7.473.652-8.525 8.417-6.453 4.735 1.262 9.564 2.139 14.432 2.594 17.515 22.373 48.563 33.57 76.043 27.324-.833 17.07-7.865 34.011-18.759 47.052z" fill="#ff8e5b"/><path d="m844.381 640.336c-12.107 10.904-28.646 15.047-44.645 13.289-10.885-1.197-21.618-5.174-30.714-11.436-5.994-4.129-5.453-6.51 2.079-8.246.496-.115.992-.234 1.487-.361 17.319-4.482 31.089-16.27 40.238-31.404 9.147-15.125 13.747-33.688 9.759-51.162-.531-2.324-1.234-4.574-2.086-6.75-1.977-5.063-2.439-6.801 3.584-7.398 11.742-1.156 23.332 1.881 32.33 10.848 12.633 12.592 16.039 31.318 12.578 48.352-3.381 16.631-11.933 32.848-24.61 44.268z" fill="#ff8e5b"/><path d="m561.355 280.576c15.484 7.613 37.677 16.625 48.18 31.208 1.308 1.816 2.182 3.898 2.871 6.095 1.629-1.423 2.96-2.873 4.064-4.338-3.655-10.955-13.448-20.244-24.414-27.267-14.215-9.106-41.698-20.288-64.363-20.335 12.091 3.248 24.675 10.221 33.662 14.637z" fill="#f3af79"/><path d="m389.992 571.896c-1.153-3.643-1.904-7.445-2.344-11.322-3.367.838-7.115.5-10.804-.57 3.187 5.467 5.743 11.285 7.316 17.512 1.859-1.965 3.801-3.842 5.832-5.62z" fill="#ff564d"/><path d="m604.984 677.273c-5.627 2.428-6.979 4.811-.411 8.381 13.452 7.318 28.681 11.322 44.038 11.26 16.871-.068 33.081-5.582 45.075-17.705 3.032-3.064 5.815-6.449 8.29-10.063-3.207 2.621-6.626 4.928-10.802 6.359-9.503 3.258-21.678.883-30.556-2.867-12.652-5.346-18.682-16.791-21.067-29.268-2.274 4.617-4.957 9.051-8.146 13.172-7.048 9.118-16.152 16.304-26.421 20.731z" fill="#ff564d"/><path d="m283.182 472.51c-2.287 15.082.822 29.313 8.639 42.141 13.986-.152 28.006 2.73 40.883 8.127 7.906 3.314 15.496 7.664 22.356 12.9 6.909 5.279 9.094 5.732 16.745.191 4.361-3.162 7.899-6.447 10.896-9.563-6.63-11.99-9.748-25.182-7.703-38.53-2.652 3.026-5.153 6.245-8.019 9.17-11.862 12.11-26.504 14.28-42.21 9.399-14.883-4.627-27.508-15.597-32.907-30.226-2.813-7.617-3.146-15.715-2.911-23.794-2.721 6.473-4.715 13.242-5.769 20.185z" fill="#ff564d"/><path d="m561.968 785.012c-1.588-1.738-2.791-3.857-3.536-6.295-.561-1.836-.718-3.563-.578-5.195-4.258 1.57-8.665 2.766-13.209 3.391 5.866 3.234 11.243 7.242 15.941 11.902.398-1.292.907-2.54 1.382-3.803z" fill="#ff564d"/><path d="m634.471 880.76c18.894-3.619 34.253-16.965 39.677-35.377-5.273 6.885-11.78 12.775-19.493 16.926-18.73 10.078-40.493.102-53.861-13.947-19.792-20.799-21.765-57.936-10.959-85.064-10.982 8.854-18.877 21.715-20.979 35.609 4.308 6.52 7.452 13.895 8.927 22.102 1.632 9.082.967 17.898-1.32 26.268 5.482 12.643 13.73 23.225 26.303 29.379 9.672 4.737 21.143 6.129 31.705 4.104z" fill="#ff564d"/><path d="m597.459 730.811c-.188-.176-.319-.375-.496-.557-.646 2.58-1.422 5.121-2.382 7.6-3.729 9.621-5.377 11.975 4.206 7.881 4.047-1.727 8.292-3.031 12.693-3.857.15-2.021.414-4.027.73-6.021-5.473.51-10.298-.861-14.751-5.046z" fill="#ff564d"/><path d="m480.248 712.393c3.593 16.133 10.2 32.754 23.293 43.285 17.396 13.998 42.325 14.688 61.015 3.063-16.509 4.799-36.056-2.02-49.075-14.334-14.438-13.658-16.566-31.641-13.806-49.518-5.998 7.123-13.257 13.175-21.427 17.504z" fill="#ff564d"/><path d="m371.898 640.57c2.213 20.975 16.481 39.143 32.871 51.498 16.941 12.775 39.225 21.168 60.393 15.148 27.291-7.76 43.634-35.021 45.458-62.713-9.178 29.285-36.031 50.51-69.413 47.703-21.454-1.805-40.775-13.801-53.489-30.822-10.302-13.791-14.002-29.67-13.556-46.023-3.007 10.287-2.957 18.68-2.264 25.209z" fill="#ff564d"/><path d="m215.601 602.262c-1.471-6.531-1.731-13.053-1.008-19.438-4.776-.256-9.458-1.006-14.002-2.172-6.971 7.738-11.029 18.277-16.65 27.814-7.603 12.895-19.572 18.611-34.454 15.789-7.033-1.336-12.981-5.029-17.901-9.898 10.003 14.021 26.224 19.961 45.857 22.918 8.238-15.67 21.859-28.572 38.158-35.013z" fill="#ff564d"/><path d="m723.996 639.303c-.836 8.111-3.09 16.1-6.496 23.59-4.09 9.006-4.159 11.26 5.085 15.711 8.272 3.99 15.76 9.527 21.598 16.691 8.731 10.711 12.852 23.348 13.36 36.336 12.381.328 23.981-3.432 33.882-10.275-12.86-1.176-24.706-7.734-32.954-21.035-8.481-13.676-17.281-43.758-6.44-59.039-1.823-1.859-3.579-3.785-5.186-5.838-4.867-.455-9.696-1.332-14.432-2.594-7.765-2.073-7.647-1.02-8.417 6.453z" fill="#ff564d"/><path d="m176.855 460.676c9.674-6.498 20.976-10.595 32.842-11.324 3.19-.195 4.28-.608 6.889-3.149 8.855-8.619 20.103-15.366 32.354-17.649 6.336-1.181 12.498-1.08 18.465.023 4.491.831 6.877 1.261 1.792-4.488-3.252-3.676-6.245-7.578-9.001-11.634-15.975 3.242-29.538 14.707-43.397 23.556-11.161 7.127-31.048 14.977-42.91 7.064-.266 5.825.61 11.753 2.966 17.601z" fill="#ff564d"/><path d="m338.178 378.678c.815 4.733 2.223 9.451 4.434 14.069 27.057-3.46 54.451 14.936 67.064 38.957-4.174-15.804-2.332-32.658 4.31-47.719 5.821-13.199 15.577-24.92 27.505-33.14-1.855-5.963-4.979-11.716-8.939-16.961-4.463 17.982-17.414 34.925-31.813 44.272-18.774 12.183-44.087 12.673-62.561.522z" fill="#ff564d"/><path d="m234.07 774.361c12.874-23.459 40.488-36.127 66.801-37.541-5.193-5.977-9.694-12.529-13.096-19.627-.643-1.338-1.154-2.713-1.706-4.076-10.091 14.271-24.891 24.918-42.774 26.701-1.698 1.537-3.338 3.137-4.823 4.9-5.218 6.191-8.75 13.84-12.993 20.695-7.496 12.105-17.153 19.164-31.945 16.975-7.744-1.145-13.891-5.359-19.112-10.719 3.877 7.25 9.293 13.727 15.892 18.57 10.553 7.744 23.114 10.596 35.933 10.99.7-9.336 3.246-18.53 7.823-26.868z" fill="#ff564d"/><path d="m441.542 474.853c-8.506 1.987-16.579 5.76-24.099 10.112-7.015 4.058-16.156 14.994-24.514 13.697-4.568-.707-6.77-4.587-7.61-9.516-1.38 8.584-.097 17.158 3.124 25.191 3.826 9.549 4.065 8.627 9.222-.266 3.694-6.371 8.277-12.012 13.621-16.438 25.688-20.248 63.136-28.245 94.377-16.912-17.167-12.064-45.993-10.104-64.121-5.868z" fill="#ff564d"/><path d="m475.195 422.699c-13.059-3.838-25.216-5.068-38.627-2.872-5.539.907-12.243 2.616-17.349 6.023.433 2.232.944 4.456 1.642 6.648 16.036-6.264 34.882-5.186 51.29-1.063 16.155 4.059 32.658 12.521 44.578 24.591 7.103-13.658 17.821-25.043 31.303-32.434.43-10.493-.765-21.512-5.364-31.013-.391-.81-.879-1.563-1.309-2.351-.23 9.849-3.968 19.563-10.803 27.372-14.68 16.766-36.973 10.504-55.361 5.099z" fill="#ff564d"/><path d="m757.294 474.237c-2.884-5.556-5.665-12.247-10.438-16.293 3.263 13.222 2.286 27.584-1.884 40.479-1.504 4.652-2.246 5.775 4.605 5.537 13.586-.471 27.207 2.113 39.549 8.018 2.269-6.459 3.547-13.049 3.731-19.607-4.607 2.425-9.627 3.748-14.925 2.888-8.99-1.46-16.815-13.659-20.638-21.022z" fill="#ff564d"/><path d="m791.509 598.193c-15.155 9.174-32.167 11.646-48.838 5.631-14.398-5.197-24.531-16.781-29.674-30.85-2.688-7.35-7.757-21.811-4.595-30.986-.973.482-1.93.988-2.934 1.434-6.761 2.984-11.871 5.42-14.61 13.309-.823 2.369-1.504 4.793-2.024 7.273-.977 4.652-1.197 9.762-.456 14.328 4.712 2.51 9.231 5.381 13.407 8.764 10.05 8.146 17.176 18.982 20.465 31.031 16.572 7.688 36.379 9.971 53.686 3.357 17.217-6.58 30.891-23.809 35.744-42.543-4.401 7.536-11.003 13.704-20.171 19.252z" fill="#ff564d"/><path d="m524.094 464.833c6.956 9.952 10.832 21.736 9.817 35.036 6.496 7.924 10.568 17.293 12.414 27.268 21.458-6.91 46.569 1.09 64.425 13.432 3.138 2.166 6.15 4.484 9.021 6.941 4.944 4.244 8.19 3.172 13.391-3.213 6.993-8.586 13.173-20.289 15.007-36.17.33-2.857.381-5.652.311-8.422-2.851 8.646-8.283 16.449-15.732 21.51-14.102 9.574-33.814 6.299-48.982 1.629-15.09-4.643-28.45-13.629-37.052-26.979-9.153-14.205-10.972-33.078-10.026-50.025-5.231 5.565-9.575 11.985-12.594 18.993z" fill="#ff564d"/><path d="m637.03 567.078c13.646-.508 27.551 1.5 40.388 6.295-.067-5.109.723-10.223 2.043-15.213-5.25 2.639-11.141 4.006-17.383 4.438-7.846.543-18.184-2.086-23.415-8.566-2.009 2.234-4.118 4.381-6.376 6.375 1.697 2.146 3.282 4.37 4.743 6.671z" fill="#ff564d"/><path d="m216.654 572.441c1.69-5.922 4.212-11.635 7.371-17.041-4.524-3.367-8.795-7.186-12.674-11.361-1.284 1.281-2.709 2.486-4.391 3.578-8.254 5.365-18.744 4.109-27.306.451-7.902-3.377-14.022-10.756-18.572-17.744-1.028-1.582-1.8-3.193-2.462-4.818-.132-.611-.23-1.227-.352-1.84 4.734 27.332 30.076 48.078 58.386 48.775z" fill="#ff564d"/><path d="m255.229 375.081c1.532 9.46 5.655 18.471 10.569 26.629 4.961 8.23 11.004 15.911 18.022 22.524 3.639 3.431 7.008 2.762 10.799-1.919 9.997-12.356 22.841-22.237 37.56-27.086-1.108-2.573-1.984-5.184-2.733-7.806-10.888 11.492-32.553 13.483-46.406 10.153-12.06-2.901-22.331-11.577-27.811-22.495z" fill="#ff564d"/><path d="m647.068 460.337c10.159 17.04 14.217 35.313 10.605 54.931-1.541 8.359-4.49 16.424-8.541 23.877 13.437 2.518 27.64 2.27 40.855-1.344.029-.006.056-.012.084-.018 5.851-1.605 11.518-3.816 16.812-6.811 10.694-6.047 19.245-16.035 24.769-27.555-3.72 6.148-8.286 11.762-14.656 16.486-17.678 13.109-49.189 20.309-51.318-10.684-1.623-23.637-9.129-60.183-34.695-70.038 6.207 6.486 11.655 13.722 16.085 21.156z" fill="#ff564d"/><path d="m701.131 402.325c-16.557-4.846-36.085-1.861-49.367 9.388 1.091-.08 2.354-.286 3.904-.611 10.055-2.108 20.483-2.571 30.922-1.197 19.825 2.61 39.43 11.782 51.336 28.32.878 1.22 1.685 2.477 2.451 3.754 3.869-2.765 7.437-6.013 10.676-9.626.093-.105.182-.216.284-.315 8.042-9.079 13.939-20.398 17.104-32.055-7.263 8.006-16.417 12.395-28.938 12.809-13.636.447-25.669-6.75-38.372-10.467z" fill="#ff564d"/><path d="m843.591 639.477c-19.438 5.641-41.608-2.777-44.802-20.262-7.428 6.699-16.199 11.779-26.2 14.367-.495.127-.991.246-1.487.361-7.532 1.736-8.073 4.117-2.079 8.246 9.096 6.262 19.829 10.238 30.714 11.436 15.998 1.758 32.537-2.385 44.645-13.289.613-.551 1.168-1.164 1.76-1.738-.857.281-1.685.629-2.551.879z" fill="#ff564d"/><path d="m394.621 796.832c-3.521.473-7.13 1.279-10.178 3.145.205 4.402-.084 8.826-.768 13.199 4.272-3.346 9.464-5.32 14.913-7.162-1.462-2.985-2.816-6.037-3.967-9.182z" fill="#ff564d"/><path d="m297.558 864.93c21.979.076 46.205-6.795 61.399-23.469 12.844-14.094 18.213-34.096 13.492-51.869-2.244 12.473-5.697 23.168-15.971 33.775-13.874 14.328-31.967 24.33-52.023 25.488-18.772 1.084-37.552-6.199-51.84-18.063-9.439-7.834-13.887-18.172-15.82-29.313-1.141 13.527 2.311 27.396 9.865 38.785 11.483 17.31 30.746 24.595 50.898 24.666z" fill="#ff564d"/><path d="m420.678 890.266c-14.129.691-26.818-5.658-37.279-17.732-8.142-9.396-10.894-20.012-11.092-31.033-2.542 3.66-5.422 7.133-8.713 10.287-5.004 4.795-10.721 8.803-16.871 12.109 7.92 28.138 48.742 40.689 73.955 26.369z" fill="#ff564d"/><path d="m361.123 630.619c.159-3.684.6-7.34 1.282-10.947-7.911 6.336-15.934 12.404-25.186 16.838-15.516 7.438-33.112 7.217-49.636 3.986-28.463-5.561-56.624-27.271-62.97-56.418-1.076 10.018 1.683 20.504 6.208 29.334 11.371 22.184 33.843 38.477 57.874 44.299 28.019 6.791 54.908-4.723 72.428-27.092z" fill="#ff564d"/><path d="m468.992 896.338c24.056 12.033 50.751 2.619 70.409-13.406 11.513-9.385 21.509-21.934 26.078-35.869.028-.68.222-1.291.545-1.818 2.854-9.811 3.018-20.248-.963-30.738-.37-.977-.857-1.865-1.283-2.801 2.447 17.189-1.898 32.471-14.644 47.369-13.498 15.777-34.084 23.582-54.402 24.625-18.79.965-36.68-8.182-47.343-23.473-7.59-10.891-9.229-23.557-7.448-36.016-1.289 2.949-2.357 6.006-3.059 9.207-5.566 25.406 9.411 51.566 32.11 62.92z" fill="#ff564d"/><path d="m465.99 595.299c-16.996.955-35.178-5.539-48.486-15.857-14.203-11.016-17.855-27.814-17.177-44.627-4.89 17.295-3.005 36.637 8.822 49.549 16.766 18.301 44.896 23.967 68.684 20.82 26.767-3.543 48.459-19.488 56.42-45.783.195-.643.325-1.311.502-1.961-16.12 21.31-43.99 36.468-68.765 37.859z" fill="#ff564d"/><path d="m721.853 789.625c-6.794.66-13.718.119-20.263-1.652-12.953-3.51-22.104-15.063-27.576-26.662-9.555-20.258-7.35-43.779 6.161-60.277-13.741 6.039-29.256 7.637-44.476 5.686-7.42 9.848-12.391 21.863-13.633 34.162 24.956.037 44.945 17.686 55.06 39.828 3.499 7.662 6.276 16.088 8.056 24.779 14.257-.45 26.714-6.598 36.671-15.864z" fill="#ff564d"/><path d="m366.23 761.523c.26-.018.517-.004.778.027 1.361.074 2.721.148 4.087.131 13.889-.162 25.975-5.75 35.568-14.43-18.121 7.215-40.588 4.832-56.998-4.371-24.734-13.869-39.447-48.236-27.146-74.438-9.476 2.17-19.32 2.379-28.938.918-4.153 16.559-2.42 33.598 6.539 48.543 13.525 22.568 39.175 41.792 66.11 43.62z" fill="#ff564d"/><path d="m582.708 654.176c-16.284-.412-32.164-9.877-43.689-20.717-10.994-10.34-13.646-24.137-14.863-38.215-3.382 3.111-7.026 5.908-10.925 8.33 5.505 10.896 8.103 23.1 8.133 35.375 14.827 18.309 37.264 33.369 61.532 32.75 30.262-.771 49.381-26.756 53.606-54.559-9.711 21.247-28.646 37.669-53.794 37.036z" fill="#ff564d"/><path d="m433.477 813.498c4.57-7.982 10.721-15.152 17.513-21.426-9.254.359-18.446-3.885-24.446-12.102-7.77-10.643-6.856-23.076-3.423-34.912-3.935 5.094-8.477 9.725-13.66 13.693-3.516 2.693-7.175 4.93-10.935 6.756 1.428 18 7.269 37.135 19.257 50.705 8.832 9.993 11.082 5.349 15.694-2.714z" fill="#ff564d"/><path d="m229.869 546.693c3.876-5.074 8.288-9.775 13.122-13.941 9.243-7.971 19.549-13.355 31.017-16.047 4.04-.951 5.611-1.844 3.607-6.621-6.024-14.347-7.098-29.992-3.566-45.724.015-.06.035-.122.047-.181-6.537 10.258-11.169 21.849-16.976 32.477-10.894 19.948-31.739 32.383-50.768 19.727 4.304 12.191 13.19 22.654 23.517 30.31z" fill="#ff564d"/><path d="m281.962 699.816c.048-.088.106-.148.158-.232-1.209-6.49-1.521-13.104-.981-19.695.778-9.459 2.271-12.422-3.86-14.57-6.28-2.201-12.422-5.061-18.28-8.473 9.527 20.664 8.179 45.578-14.181 58.73-17.118 10.07-36.503 3.34-51.24-9.076 3.102 3.582 6.53 6.877 10.198 9.771 12.045 9.5 28.086 15.771 43.519 12.357 15.564-3.444 27.28-15.175 34.667-28.812z" fill="#ff564d"/><g fill="#fbc471"><path d="m673.911 374.891c7.463-4.031 12.65-11.268 19.771-15.923 8.123-5.311 19.387-8.357 28.518-11.628 2.952-1.057 2.729-4.646 0-5.776-13.015-5.389-24.274-2.806-36.112 4.41-9.184 5.597-18.242 15.818-16.479 27.166.301 1.948 2.794 2.564 4.302 1.751z"/><path d="m658.215 445.259c7.845-.989 16.217-1.629 24.145-1.539 9.105.105 17.784 2.586 26.934 2.724 2.857.043 3.635-3.188 2.118-5.114-12.753-16.164-41.108-14.384-55.221-.958-1.669 1.584-.529 5.208 2.024 4.887z"/><path d="m618.938 481.462c2.182 7.269 3.159 14.585 6.619 21.456 1.037 2.057 4.215 1.93 5.286 0 7.654-13.786-.973-44.077-18.967-45.481-2.405-.188-3.244 2.518-2.473 4.31 2.944 6.83 7.348 12.435 9.535 19.715z"/><path d="m435.801 396.386c6.44-6.329 11.929-12.914 19.706-17.745 7.553-4.694 15.826-9.421 23.702-13.529 2.877-1.5 1.469-5.944-1.611-5.949-12.878-.019-22.563 1.699-33.324 9.331-8.501 6.025-15.507 15.904-12.983 26.701.471 2.014 3.107 2.567 4.51 1.191z"/><path d="m353.918 363.407c3.822-5.955 8.012-11.54 11.706-17.63 1.822-3.003 3.908-5.938 6.247-8.561 2.341-2.627 5.621-4.345 7.125-7.625.708-1.547.34-2.969-1.039-3.964-7.493-5.406-19.078 3.404-23.689 9.081-6.818 8.393-8.482 17.575-6.063 27.952.643 2.759 4.32 2.92 5.713.747z"/><path d="m269.564 369.693c4.02-3.756 6.545-8.9 10.211-13.025 2.03-2.283 4.5-4.153 6.642-6.333 2.22-2.265 3.526-5.42 5.423-7.958 1.559-2.083-.597-4.682-2.757-4.803-9.071-.51-15.315 2.352-21.153 9.396-5.031 6.07-8.551 16.19-2.508 22.723 1.111 1.202 3.012 1.057 4.142 0z"/><path d="m377.104 421.251c-8.853-8.977-18.127-11.291-30.755-10.493-9.419.597-22.826 6.876-23.663 17.42-.113 1.417 1.328 2.824 2.731 2.731 7.958-.524 15.259-4.435 23.564-4.892 4.531-.249 8.845.885 13.313 1.261 4.399.371 8.275-.475 12.621-.746 2.638-.164 4.168-3.272 2.189-5.281z"/><path d="m426.693 460.731c5.981-1.37 11.703-3.715 17.829-4.476 5.689-.71 11.399-.771 17.021-2.02 2.051-.457 3.081-3.606 1.322-5.006-10.556-8.391-34.018-4.988-39.411 8.265-.808 1.985 1.49 3.639 3.239 3.237z"/><path d="m470.344 451.479c-1.901.973-1.874 4.021 0 5.002 2.274 1.189 5.164 2.267 7.596.938.831-.452 1.395-1.442 1.37-2.386-.124-4.753-5.647-5.25-8.966-3.554z"/><path d="m449.585 508.641c1.3-1.666.956-4.043-1.249-4.73-9.986-3.119-20.199 3.227-27.499 9.492-9.446 8.105-11.609 17.828-11.851 29.57-.067 3.367 4.756 4.727 6.379 1.729 3.655-6.756 9.949-13.172 14.991-18.943 5.669-6.486 13.967-10.37 19.229-17.118z"/><path d="m296.202 546.994c-2.869.98-2.692 4.605 0 5.648 10.561 4.094 21.274 6.748 31.438 11.979 9.767 5.025 17.749 14.07 25.967 21.25 1.928 1.682 6.043.795 5.675-2.352-3.196-27.261-37.857-45.146-63.08-36.525z"/><path d="m260.952 450.599c1.318-1.444.841-3.931-1.177-4.456-8.731-2.269-17.827 2.681-24.5 8-8.271 6.594-11.418 14.244-11.85 24.586-.132 3.143 3.896 4.564 6.012 2.491 5.25-5.148 9.982-10.029 14.716-15.688 4.922-5.88 11.714-9.354 16.799-14.933z"/><path d="m176.918 511.971c.298-5.688 4.881-12.152 2.765-17.678-.333-.874-.978-1.839-2-2-7.948-1.257-11.399 7.519-13.142 13.824-2.51 9.09-1.268 18.473 4.003 26.256 1.499 2.215 4.581 1.777 5.474-.715 2.348-6.558 2.538-12.822 2.9-19.687z"/><path d="m145.854 546.955c-5.755.369-9.354 5-12.078 9.65-3.721 6.357-3.104 12.287-.383 18.785.901 2.156 4.379 3.48 5.654.738 2.092-4.496 4.436-8.414 6.013-13.184 1.389-4.199 3.915-8.613 3.657-13.127-.084-1.477-1.24-2.965-2.863-2.862z"/><path d="m209.652 412.463c1.518-1.888.789-5.494-2.189-5.282-10.721.763-23.714 11.605-20.233 23.365.67 2.259 3.267 2.736 4.95 1.306 6.531-5.535 12.095-12.712 17.472-19.389z"/><path d="m460.464 496.897c-2.876.691-5.116 2.529-6.099 5.312-.407 1.148.246 2.592 1.285 3.158 2.318 1.273 4.849 1.445 7.432 1.031 2.526-.408 6.019-2.754 5.229-5.805-.87-3.355-4.83-4.422-7.847-3.696z"/><path d="m737.307 529.914c-1.582 1.613-.716 4.006 1.248 4.73 6.317 2.326 13.688 2.646 20.301 4.311 7.439 1.875 13.826 4.801 21.525 5.762 3.39.422 5.332-3.998 3.778-6.586-8.22-13.721-34.509-20.813-46.852-8.217z"/><path d="m847.666 555.742c-2.374-1.266-4.694.791-4.256 3.271 1.486 8.418 5.408 15.658 5.887 24.363.414 7.529-.705 14.662.883 22.141.58 2.73 4.043 3.227 5.887 1.557 14.16-12.857 7.824-42.679-8.401-51.332z"/><path d="m809.9 670.809c-1.4-.723-2.676-.445-3.867.5-3.51 2.781-4.152 9.066-5.609 13.051-1.77 4.84-4.746 8.59-4.871 13.955-.062 2.643 2.447 4.059 4.791 3.648 7.02-1.229 9.988-8.289 12.125-14.281 1.758-4.92 3.187-13.911-2.569-16.873z"/><path d="m710.021 694.9c-1.169.629-1.435 1.891-1.258 3.086.814 5.496 7.693 11.135 10.904 15.539 2.106 2.887 3.62 6.152 5.652 9.09 1.95 2.816 4.914 4.766 7.541 6.895 1.726 1.398 4.7 1.129 5.28-1.395 2.183-9.5-.461-16.357-6.576-23.771-4.419-5.36-14.105-13.43-21.543-9.444z"/><path d="m698.63 617.748c.022-14.27-20.794-34.174-35.624-27.891-1.736.734-1.981 3.59-.613 4.756 5.414 4.607 11.368 7.736 16.36 13.018 5.178 5.479 7.961 10.857 15.378 13.543 2.205.801 4.494-1.254 4.499-3.426z"/><path d="m616.483 578.779c-.2-5.299-.348-9.154-3.573-13.617-3.153-4.365-7.627-7.77-12.008-10.813-7.955-5.527-21.539-8.863-30.458-4.313-1.837.936-1.812 3.887 0 4.828 7.15 3.723 14.319 5.895 21.132 10.465 3.669 2.463 6.898 5.432 9.912 8.645 3.129 3.338 6.842 4.822 10.439 7.42 1.866 1.348 4.638-.458 4.556-2.615z"/><path d="m573.67 688.707c-1.162-.293-2.687.152-3.233 1.314-1.855 3.947-.243 8.344.206 12.496.592 5.453.207 10.959 2.379 16.119.926 2.199 3.363 3.129 5.281 1.395 4.895-4.426 5.212-11.242 3.996-17.35-.989-4.976-2.993-12.546-8.629-13.974z"/><path d="m660.666 821.072c1.195 2.533 5.39 1.873 5.955-.779 3.547-16.631-1.649-40.393-20.311-45.658-1.832-.516-4.245 1.389-3.399 3.4 6.025 14.326 11.159 29.024 17.755 43.037z"/><path d="m504.962 791.479c-10.925-4.926-19.724-2.668-29.61 3.789-7.059 4.613-16.949 14.598-15.068 23.814.292 1.428 1.949 2.223 3.278 1.863 7.104-1.93 12.909-9.084 19.381-12.693 7.216-4.025 14.742-7.563 22.02-11.43 1.916-1.019 2.121-4.386-.001-5.343z"/><path d="m301.982 758.646c-18.037-6.838-44.519 8.262-47.635 27.266-.494 3.002 2.994 5.729 5.444 3.17 11.702-12.223 27.816-18.195 42.897-25.021 2.587-1.172 1.407-4.614-.706-5.415z"/><path d="m215.597 624.465c-7.716-2.01-13.442 6.488-16.896 12.098-4.357 7.074-6.558 17.654-2.434 25.238 1.491 2.74 4.986 2.176 6.595 0 3.978-5.385 5.407-12.064 8.007-18.125 2.234-5.207 6.346-10.744 6.83-16.451.105-1.243-.951-2.459-2.102-2.76z"/><path d="m181.505 717.955c-5.399 1.461-7.245 7.836-7.911 12.781-.885 6.561.123 11.855 4.059 17.225 2.03 2.768 6.103 1.801 6.379-1.729.365-4.693.606-9.273.763-13.979.144-4.402 1.774-9.018-.389-13.119-.538-1.015-1.826-1.47-2.901-1.179z"/><path d="m391.955 705.236c-4.342-3.768-7.615-8.852-12.469-11.971-1.401-.9-3.837-.096-4.108 1.67-.999 6.473 2.677 11.512 6.813 16.115 4.032 4.488 10.421 10.979 16.947 10.398 1.522-.135 3.357-1.328 3.127-3.125-.788-6.137-5.952-9.303-10.31-13.087z"/><path d="m470.668 635.574c2.48-1.088 1.528-4.754-.707-5.414-8.565-2.525-17.118-3.438-25.809-5.359-8.88-1.965-16.99-6.809-26.058-7.68-2.127-.203-3.319 2.453-2.359 4.111 9.927 17.141 38.134 21.721 54.933 14.342z"/><path d="m479.281 633.443c1.569 3.277 5.744 3.416 8.533 1.77 3.411-2.018 2.063-7.717-2.055-7.588-2.332.074-4.21.83-6.021 2.268-1.072.853-.98 2.457-.457 3.55z"/><path d="m464.201 735.48c1.514-2.293-.104-4.984-2.369-5.822-2.479-.92-5.176-.393-7.72.027-2.997.496-5.455 1.379-8.29 2.391-2.557.914-2.51 4.213 0 5.143 3.347 1.24 5.976 2.314 9.637 2.424 3.506.103 6.807-1.231 8.742-4.163z"/><path d="m468.805 748.236c3.495-1.709 1.839-7.52-1.979-7.309-1.998.107-3.682.66-5.217 1.82-.599.268-1.144.574-1.623 1.143-.921 1.096-1.024 2.547 0 3.629 2.278 2.415 6.089 2.053 8.819.717z"/><path d="m553.713 830.803c4.569-.705 5.336-6.092 5.359-9.822.024-4.035-1.934-8.105-5.272-10.316-1.465-.971-3.799-.047-4.157 1.691-.72 3.488-.483 7.076-.79 10.621-.274 3.173.455 8.507 4.86 7.826z"/><path d="m351.053 789.137c-1.168 1.768-1.96 3.818-2.88 5.727-.673 1.395-1.497 2.982-1.503 4.578-.007 1.25.402 2.219.639 3.396.346 1.697 2.144 2.322 3.646 2.068 3.782-.637 6.041-2.936 6.749-6.773.615-3.324-.046-7.09-2.516-9.529-1.257-1.243-3.204-.879-4.135.533z"/><path d="m248.699 687.945c3.6-.52 4.678-5.545 4.494-8.426-.225-3.512-1.683-5.729-4.165-8.027-2.112-1.951-5.704-.059-4.896 2.852 1.089 3.916-3.167 14.709 4.567 13.601z"/><path d="m256.744 690.057c-.949-1.621-3.028-1.787-4.625-1.209-2.283.83-3.042 2.639-4.438 4.398-1.573 1.984-.197 5.311 2.627 4.51 1.716-.484 3.659-.621 5.013-1.938 1.55-1.509 2.638-3.687 1.423-5.761z"/><path d="m518.192 539.881c-2.106 3.127-3.674 6.533-4.941 10.078-1.179 3.301-3.13 6.277-3.899 9.709-.342 1.516.732 3.387 2.475 3.25 10.241-.805 14.423-13.762 11.84-22.32-.781-2.58-4.037-2.852-5.475-.717z"/><path d="m523.938 526.254c-1.481.119-2.339 1.057-2.502 2.502.271-2.398-.203.666-.216.951-.035.928.208 1.758.405 2.648.125.563.792 2.205 1.06 2.662.387.652.909 1.176 1.563 1.563 1.181.463 1.396.566.644.311.956.547 2.413.686 3.356 0 .437-.316.864-.65 1.282-.992 1.205-.988 1.446-2.826 1.12-4.24-.797-3.483-3.408-5.671-6.712-5.405z"/><path d="m305.374 471.15c-1.8 4.289.617 9.209 2.783 12.926 1.886 3.239 7.751 9.655 12.041 6.457 4.577-3.408-.584-7.425-3.073-10.18-3.076-3.404-3.842-8.096-7.69-10.854-1.607-1.154-3.435.162-4.061 1.651z"/><path d="m319.328 493.853c-1.588.862-1.534 2.875-.512 4.116 1.27 1.541 2.359 2.242 4.422 2.51 2.459.316 4.566-.129 6.429-1.822 2.451-2.226.938-5.929-1.821-6.899-1.705-.599-3.435-.311-5.093.313-.692.259-1.534.442-2.163.839-.422.245-.819.529-1.189.852-.032.039-.044.053-.073.091z"/><path d="m306.75 340.669c2.822-1.495 2.9-6.106 0-7.58-2.787-1.417-5.65-.979-8.02 1.039-1.854 1.578-2.318 4.235-.73 6.146 1.965 2.362 6.401 1.64 8.75.395z"/><path d="m727.375 356.284c.115.033.362.062.831.084.513-.058 1.021-.134 1.524-.229 1.01-.175 2.002-.407 3.012-.578 2.135-.36 3.856-.586 5.478-2.192.915-.907 1.147-2.44.458-3.551-1.906-3.063-4.979-3.059-8.194-2.441-1.454.28-2.828 1.244-3.943 2.151-.491.399-1.049 1.024-1.363 1.562-.117.28-.235.56-.353.837-.028.177-.043.278-.063.405-1.5 2.037.309 4.528 2.613 3.952z"/><path d="m709.068 456.89c1.099.578 2.218.977 3.384 1.392 2.047.728 5.204-.257 5.825-2.513.646-2.347-1.372-4.925-3.624-5.47-1.385-.337-2.683-.574-4.104-.337-1.099.183-1.948.79-2.985 1.049-2.48.619-2.359 4.204 0 4.887-.273-.298-.191-.245.249.156.373.352.791.63 1.255.836z"/><path d="m556.501 459.17c-1.224.553 1.177-.167 1.306-.206.742-.23 1.485-.292 2.228-.529 1.552-.494 3.138-.969 4.721-1.335 2.034-.471 4.38-.946 5.455-2.987.619-1.17 1.224-2.4.788-3.745-1.543-4.781-6.816-4.365-10.607-2.868-1.926.759-3.382 1.674-4.988 2.976-1.557 1.261-2.094 2.975-2.954 4.641-1.439 2.784 1.376 5.261 4.051 4.053z"/><path d="m577.529 459.852c2.392.413 3.933.095 5.757-1.549 2.826-2.547.907-6.416-2.014-7.627-.193-.08-.385-.161-.578-.241-1.644-.683-3.581.202-4.797 1.27-.142.121-.281.244-.421.368-2.497 2.19-1.335 7.19 2.053 7.779z"/><path d="m723.371 778.156c3.198-.65 4.859-3.543 6.103-6.279 1.407-3.1 2.353-6.561.578-9.717-1.3-2.311-4.3-2.424-6.15-.793-1.804 1.586-2.599 3.971-3.602 6.084-1.21 2.549-2.664 5.135-1.646 8.025.73 2.075 2.555 3.118 4.717 2.68z"/><path d="m705.751 776.063c.335.672.93 1.289 1.612 1.611 1.973.936 3.774.703 5.442-.703 1.5-1.26 2.352-3.156 2.311-5.117-.056-2.568-2.345-4.102-4.758-3.625-1.491.297-2.977 1.189-3.904 2.391-1.325 1.708-1.703 3.437-.703 5.443z"/><path d="m642.002 845.799c-2.03.334-4.005 1.707-5.955 2.43-1.93.713-4.109 2.023-5.496 3.564-.987 1.096-1.014 2.629 0 3.723 4.39 4.742 14.252 3.719 17.457-1.904 2.491-4.372-1.568-8.546-6.006-7.813z"/><path d="m662.733 847.859c-.302-1.379-1.583-2.605-2.938-2.939-4.246-1.045-8.07 2.869-8.498 6.91-.127 1.221.803 2.771 1.895 3.301 4.702 2.269 10.681-2.059 9.541-7.272z"/><path d="m247.407 599.76c2.818-3.83 1.337-7.924.062-12.061-1.345-4.371-1.434-9.563-3.974-13.439-1.028-1.572-2.845-1.658-4.239-.547-4.157 3.314-3.822 9.178-3.01 13.928.84 4.906 2.069 11.051 7.109 13.18 1.617.685 2.999.37 4.052-1.061z"/><path d="m247.483 608.27c-.043 3.857 2.956 7.445 7.019 6.223 1.069-.32 2.01-1.359 1.934-2.537-.107-1.639-.373-2.658-1.543-3.887-1.136-1.186-2.573-1.799-4.077-2.338-1.646-.592-3.314.929-3.333 2.539z"/><path d="m525.26 385.238c-.004.062-.039.107-.045.168-.106.753-.093.714.045-.168z"/><path d="m514.186 386.476c1.67 1.567 3.669 3.157 6.092 3.157 2.448 0 4.703-1.767 4.938-4.227.028-.216.065-.473.115-.823-.005-.911-.232-1.761-.691-2.549-.595-.843-1.191-1.683-1.958-2.374-1.352-1.224-2.777-2.394-4.289-3.411-3.283-2.209-8.218-2.493-10.76.901-.617.823-.519 2.222 0 3.057.802 1.292 2.22 2.219 3.139 3.135 1.084 1.083 2.292 2.081 3.414 3.134z"/><path d="m519.922 396.057c-.142 1.101.113 2.582.809 4.003 2.228 4.546 9.349.496 6.835-3.995-1.049-1.872-2.523-2.898-4.682-2.97-1.767-.059-2.761 1.405-2.962 2.962z"/></g><path d="m558.156 239.781c2.355.841 4.559 1.683 6.671 2.514 1.132-5.219 2.024-10.484 2.929-15.571 2.359-13.251 4.01-26.405 4.147-39.889.199-19.376-3.287-40.265-13.103-57.348 13.179 36.914 10.857 73.427-.644 110.294z" fill="#865725"/><path d="m493.023 320.966c-4.764 6.148-9.806 12.097-15.078 17.834 4.265-.046 8.574.316 12.899 1.252 16.254-18.833 30.018-39.664 41.103-61.941-3.571-1.224-7.117-2.133-10.588-2.674-3.128 5.727-5.842 11.708-8.884 17.457-5.286 9.989-12.553 19.168-19.452 28.072z" fill="#865725"/><path d="m582.821 250.691c4.208-17.861 10.079-34.748 17.751-50.842 3.642-7.631 4.449-10.836 6.682-19.529 3.713-14.448 8.995-28.262 15.799-41.676 3.462-6.73 8.068-13.699 9.211-21.316.429-2.843-.016-6.253-1.102-9.386-2.631 12.806-11.449 26.87-15.973 35.47-9.393 17.854-18.926 35.267-26.348 53.89-2.479 17.826-6.177 35.372-9.416 51.583 1.119.577 2.251 1.18 3.396 1.806z" fill="#865725"/><path d="m558.944 290.863c-2.604-1.423-5.329-2.898-8.123-4.353-3.982 24.844-15.112 46.896-28.7 67.836 2.546 1.786 5.033 3.653 7.395 5.653 12.87-21.672 22.038-45.058 29.428-69.136z" fill="#865725"/><path d="m539.323 234.291c2.986.665 5.946 1.391 8.82 2.232 9.624-31.062 12.438-61.274 4.235-92.219 1.259 11.931.761 24.358.289 35.145-.821 18.814-5.094 37.812-13.344 54.842z" fill="#865725"/><path d="m627.998 212.756c-9.787 16.666-17.533 34.254-22.879 52.601 1.484 1.16 3.02 2.277 4.437 3.488 9.408-37.206 28.003-64.43 54.49-92.635 4.912-5.232 16.106-16.291 12.502-25.346-.426-1.071-.932-1.993-1.489-2.804-3.672 9.927-12.792 17.98-19.9 25.684-10.654 11.544-19.246 25.531-27.161 39.012z" fill="#865725"/><path d="m602.35 328.54c-.967-7.341-1.9-10.807-5.232-14.195-.736 26.985 5.284 52.417 15.838 77.802 4.419 10.624 8.56 20.98 11.96 31.373 4.274-2.653 8.709-4.999 13.306-6.942-1.986-5.335-2.477-11.033-2.207-16.727-15.13-20.546-30.277-45.589-33.665-71.311z" fill="#865725"/><path d="m573.975 415.559c1.022-13.85 3.042-27.594 5.595-41.377-.689-3.314-1.376-6.627-1.934-9.966-1.396-8.339-3.168-8.224-4.457.247-2.634 17.326-4.573 34.733-5.805 52.033 2.185-.433 4.39-.731 6.601-.937z" fill="#865725"/><path d="m562.038 371.454c4.386-28.392 10.388-58.043 13.424-71.514-2.348-1.345-4.692-2.694-7.087-3.961-2.094 6.714-4.342 13.375-6.753 19.969 1.275 18.511.788 36.961.416 55.506z" fill="#865725"/><path d="m589.656 308.635c-1.571-1.016-3.168-1.998-4.751-2.999-.042.171-.085.343-.126.516-1.382 30.192 2.03 60.602 11.09 89.375-2.041-12.856-3.389-25.852-4.322-38.702-1.074-14.771-3.962-32.582-1.891-48.19z" fill="#d4ba89"/><path d="m641.389 156.194c-8.503 9.135-15.783 19.424-22.077 30.205-7.604 13.024-13.688 26.415-18.568 40.312.407-.701.815-1.402 1.222-2.104 6.319-10.898 12.548-21.799 19.513-32.308 12.313-18.577 27.462-34.59 44.537-48.655-9.233.096-20.898 8.544-24.627 12.55z" fill="#d4ba89"/><path d="m476.781 318.882c15.51-10.842 28.584-26.934 37.523-43.916-.354.01-.719-.029-1.068-.006-7.345.471-23.264 25.019-29.089 30.727-8.359 8.191-17.003 15.966-25.969 23.412 6.635-2.525 12.881-6.216 18.603-10.217z" fill="#d4ba89"/><path d="m523.921 128.375c7.599 28.046 16.455 55.447 14.316 83.569.971-2.954 1.718-5.961 2.224-8.758 2.384-13.189.226-27.368-2.049-40.425-1.533-8.792-3.904-17.408-6.86-25.821-2.655-7.553-5.431-16.046-2.802-23.663-7.086 1.343-6.688 8.096-4.829 15.098z" fill="#d4ba89"/><path d="m358.464 338.693c5.706-4.227 10.605-8.388 17.081-11.574 7.026-3.458 15.479-5.44 23.215-6.524.516-.072.498-.792.134-1.022-7.565-4.813-16.618-1.378-24.057 2.032-6.341 2.908-16.095 9.061-17.042 16.704-.039.32.414.573.669.384z" fill="#68182b"/><path d="m272.089 346.037c5.004-2.997 8.83-6.519 14.484-8.487 5.678-1.975 12.334-2.281 18.308-2.977.434-.051.699-.642.24-.889-10.244-5.522-30.702-1.104-33.637 11.888-.078.341.282.658.605.465z" fill="#68182b"/><path d="m441.59 377.181c6.969-4.939 12.804-10.229 20.925-13.366 7.898-3.052 16.729-3.762 25.06-4.955.586-.083.481-.928 0-1.078-15.538-4.859-40.139 2.74-46.421 19.065-.091.237.23.48.436.334z" fill="#68182b"/><path d="m498.525 360.093c.165-.111.245-.288.197-.483-.644-2.67-4.907-3.26-6.835-1.746-.27.212-.232.691 0 .909 1.486 1.389 4.818 2.54 6.638 1.32z" fill="#68182b"/><path d="m339.854 413.311c-17.422 3.147-41.437 20.859-42.104 40.143-.017.487.613.588.858.232 5.87-8.524 10.26-16.92 18.148-23.945 6.88-6.124 15.518-10.924 23.478-15.53.511-.294.152-.997-.38-.9z" fill="#68182b"/><path d="m236.711 453.567c-14.705 5.054-25.781 24.542-24.732 39.555.037.524.805.847 1.073.29 3.37-6.955 6.182-14.17 9.979-20.909 3.851-6.832 9.966-11.924 13.961-18.572.106-.179-.073-.436-.281-.364z" fill="#68182b"/><path d="m297.656 534.711c-18.467-4.24-42.743 6.023-52.445 22.455-.195.328.203.766.541.541 7.192-4.783 13.655-10.141 21.429-14.049 9.499-4.779 20.22-5.752 30.476-7.871.542-.109.529-.955-.001-1.076z" fill="#68182b"/><path d="m306.46 536.545c.766-.031 1.147-.59 1.788-.939.234-.131.265-.463.082-.646-1.181-1.195-1.662-1.549-3.449-1.58-1.401-.023-2.381.367-3.415 1.266-.142.121-.142.389 0 .51.837.73 1.497 1.109 2.625 1.252.807.102 1.555.17 2.369.137z" fill="#68182b"/><path d="m472.824 495.424c-15.793-3.754-44.56 3.291-51.959 19.339-.099.217.109.469.34.34 8.229-4.707 14.888-9.975 24.102-13.035 8.951-2.975 18.444-3.201 27.518-5.627.492-.133.511-.896-.001-1.017z" fill="#68182b"/><path d="m477.331 495.313c-.173.146-.14.502.076.595 2.071.891 5.467 1.358 7.257-.284.218-.2.218-.591 0-.79-1.885-1.722-5.507-1.06-7.333.479z" fill="#68182b"/><path d="m577.385 436.527c8.294-.409 15.711 3.149 23.784 3.411.485.017.661-.572.372-.899-10.297-11.642-37.471-7.891-47.589 2.304-.169.169 0 .494.24.414 7.766-2.592 14.902-4.818 23.193-5.23z" fill="#68182b"/><path d="m610.393 443.624c.111-.029.234-.136.253-.253.399-2.583-3.505-3.941-5.455-2.882-.167.091-.255.356-.136.519 1.02 1.376 3.579 3.056 5.338 2.616z" fill="#68182b"/><path d="m759.416 400.095c-.03.415.617.599.799.216 7.034-14.964 6.532-43.811-11.438-51.403-.345-.146-.646.216-.398.517 11.981 14.535 12.358 32.641 11.037 50.67z" fill="#68182b"/><path d="m716.517 447.909c5.574 6.481 7.547 14.749 10.46 22.554.195.519.987.607 1.144 0 4.241-16.5-13.878-36.167-30.061-36.278-.376-.002-.395.492-.082.615 7.286 2.865 13.444 7.182 18.539 13.109z" fill="#68182b"/><path d="m782.236 489.029c.142.43.707.417.855 0 3.166-8.884-2.639-24.663-11.946-28.09-.219-.08-.372.188-.28.364 2.484 4.704 5.782 8.6 7.712 13.652 1.736 4.546 2.127 9.458 3.659 14.074z" fill="#68182b"/><path d="m782.559 492.859c-1.19 1.621-.902 4.787.517 6.172.161.158.42.158.58 0 1.565-1.535 1.547-5.09-.376-6.361-.259-.171-.558-.033-.721.189z" fill="#68182b"/><path d="m753.433 522.982c-.316.07-.343.613 0 .666 8.508 1.283 16.538 3.219 24.217 7.211 6.13 3.186 10.988 8.563 17.509 10.883.385.137.791-.289.668-.668-4.906-14.91-28.722-21.178-42.394-18.092z" fill="#68182b"/><path d="m800.709 550.701c.287.182.589-.064.619-.355.256-2.488-.504-5.439-3.07-6.506-.258-.107-.648.111-.688.391-.199 1.377.186 2.443.699 3.721.585 1.448 1.161 1.937 2.44 2.749z" fill="#68182b"/><path d="m860.023 591.709c-3.564 17.777-13.467 32.33-26.738 44.365-.357.326.098.787.48.621 17.316-7.58 27.076-26.479 26.711-44.926-.003-.251-.398-.322-.453-.06z" fill="#68182b"/><path d="m790.707 709.148c-.26.416.23.768.606.605 9.179-3.955 19.214-15.557 18.325-26.008-.029-.34-.463-.395-.582-.078-2.014 5.361-4.865 10.143-8.607 14.469-3.222 3.727-7.121 6.782-9.742 11.012z" fill="#68182b"/><path d="m784.799 713.225c-.402.789.247 1.531 1.074 1.396 1.477-.24 2.997-1.883 2.131-3.393-.846-1.476-2.908 1.411-3.205 1.997z" fill="#68182b"/><path d="m700.24 623.529c2.769 8.422 2.135 17.443 2.575 26.164.022.459.73.758.95.258 7.732-17.52-1.69-43.43-20.041-50.313-.203-.076-.359.215-.209.357 7.518 6.984 13.453 13.577 16.725 23.534z" fill="#68182b"/><path d="m628.107 604.76c1.934-18.928-11.819-40.223-28.82-48.129-.436-.201-.924.328-.539.699 6.889 6.652 13.368 12.973 18.387 21.244 4.912 8.094 7.035 17.395 9.777 26.348.21.689 1.127.502 1.195-.162z" fill="#68182b"/><path d="m627.354 608.967c-.212-.109-.431-.045-.563.146-.768 1.102-.675 2.418-.71 3.711-.05 1.734-.251 2.904.683 4.445.152.252.485.287.697.092 1.932-1.795 2.645-6.97-.107-8.394z" fill="#68182b"/><path d="m409.012 682.113c.504.086.798-.43.48-.824-8.371-10.389-16.373-17.447-20.908-30.557-3.641-10.525-3.577-21.654-6.249-32.346-.056-.219-.394-.223-.444 0-4.414 19.069 3.572 59.759 27.121 63.727z" fill="#68182b"/><path d="m419.078 688.689c.162-.055.296-.199.29-.381-.103-2.799-3.741-4.877-6.202-5.5-.547-.141-.915.42-.688.893 1.096 2.274 3.698 5.944 6.6 4.988z" fill="#68182b"/><path d="m404.229 732.543c-5.277 4.82-10.634 9.504-17.113 12.621-6.513 3.133-13.679 3.711-20.521 5.729-.244.072-.257.441 0 .506 14.119 3.617 33.366-4.303 38.459-18.373.178-.495-.486-.792-.825-.483z" fill="#68182b"/><path d="m412.037 724.705c-1.53-1.877-4.126 3.764-4.598 4.502-.179.281.113.553.391.508 1.74-.283 6.174-2.6 4.207-5.01z" fill="#68182b"/><path d="m356.767 826.205c-16.479 17.32-34.276 24.559-57.257 29.176-.37.072-.387.701 0 .76 21.275 3.314 49.793-8.846 58.248-29.357.232-.567-.605-.985-.991-.579z" fill="#68182b"/><path d="m360.327 823.33c3.287-1.396 4.86-5.432 3.911-8.748-.081-.277-.453-.395-.661-.174-2.067 2.211-3.676 5.178-4.216 8.18-.107.605.426.973.966.742z" fill="#68182b"/><path d="m203.977 634.445c-12.785 12.914-20.685 35.236-11.156 52.006.238.422.934.244.919-.248-.273-9.023-.8-17.723.926-26.654 1.709-8.836 5.996-16.723 9.649-24.844.094-.211-.155-.443-.338-.26z" fill="#68182b"/><path d="m194.912 691.211c-1.068 1.918.288 6.648 2.898 6.604 2.164-.037-1.455-6.199-2.099-6.707-.248-.198-.626-.21-.799.103z" fill="#68182b"/><path d="m184.305 477.784c.084-.158-.054-.37-.243-.313-4.614 1.388-8.043 5.525-10.854 9.252-3.203 4.245-6.128 8.62-5.73 14.122.037.506.633.654.919.25 2.573-3.635 4.454-7.628 6.844-11.375 2.691-4.223 6.741-7.501 9.064-11.936z" fill="#68182b"/><path d="m133.677 594.227c.206-5.787-.481-11.451-.679-17.223-.247-7.238 2.008-13.748 4.996-20.215.119-.264-.167-.477-.389-.301-10.62 8.492-9.932 26.654-4.787 37.971.203.443.844.189.859-.232z" fill="#68182b"/><path d="m134.482 599.016c-.11-.146-.32-.166-.428 0-1.043 1.635-.668 3.473.102 5.152 1.01 2.199 2.053 3.184 4.232 4.082.239.1.511-.193.426-.426-.596-1.627-1.121-2.918-2.034-4.418-.87-1.429-1.29-3.031-2.298-4.39z" fill="#68182b"/><path d="m191.246 420.29c6.225-4.688 11.598-9.731 18.739-13.107 8.657-4.093 18.14-4.472 27.493-5.426.524-.053.93-.87.307-1.135-15.076-6.42-41.417 3.143-46.852 19.426-.057.168.163.355.313.242z" fill="#68182b"/><path d="m178.913 723.063c-.017-.322-.461-.592-.702-.289-7.59 9.414-6.843 32.148 3.193 39.697.395.297.822-.191.748-.576-1.229-6.453-3.708-12.336-4.387-18.953-.695-6.745 1.469-13.233 1.148-19.879z" fill="#68182b"/><path d="m183.545 765.32c-1.731 1.344 1.998 6.844 3.719 5.123 1.366-1.367-2.34-6.191-3.719-5.123z" fill="#68182b"/><path d="m477.343 797.688c-.179.275.159.514.405.404 9.341-4.096 17.301-7.715 27.672-8.432 9.726-.67 18.916 2.109 28.185 4.551.617.162.983-.568.593-1.016-12.196-13.986-46.722-11.06-56.855 4.493z" fill="#68182b"/><path d="m537.559 794.225c-.905-.043-1.368 1.16-.732 1.768.85.811 4.986 4.648 6.129 2.789 1.551-2.52-3.703-4.475-5.397-4.557z" fill="#68182b"/><path d="m623.285 759.863c-.479.041-.541.635-.108.809 7.341 2.977 14.316 5.773 20.446 10.932 5.084 4.279 8.772 9.932 13.084 14.928.29.336.709-.039.66-.385-2.008-14.36-19.855-27.518-34.082-26.284z" fill="#68182b"/><path d="m576.556 696.201c-.179-.297-.692-.188-.675.184.426 8.541 1.979 16.461.749 25.063-1.164 8.137-5.167 15.709-8.283 23.238-.212.514.558.904.909.529 11.237-12.069 16.205-34.319 7.3-49.014z" fill="#68182b"/><path d="m725.633 702.373c-.337-.248-.662.215-.518.52 3.12 6.611 6.551 12.529 8.104 19.783 1.375 6.424.877 13.051 2.279 19.475.107.496.816.447.95 0 3.83-12.684.297-31.581-10.815-39.778z" fill="#68182b"/><path d="m735.745 747.152c-1.056 2.359-1.21 4.996-1.489 7.506-.027.234.286.393.471.27 1.442-.955 2.004-1.787 2.368-3.504.316-1.48.024-3.072-.894-4.271-.106-.137-.365-.204-.456-.001z" fill="#68182b"/><path d="m416.023 884.039c-5.332 1.023-10.301 3.066-15.74 3.67-4.981.551-9.741-.629-14.661-1.066-.315-.027-.481.416-.255.617 7.298 6.555 25.035 5.359 31.168-2.34.33-.414.029-.982-.512-.881z" fill="#68182b"/><path d="m420.43 881.914c-.136.195.01.439.205.508 2.012.721 3.951-.658 4.941-2.432.191-.344.242-.848 0-1.186-1.444-2.015-4.384 2.009-5.146 3.11z" fill="#68182b"/></g></g></svg>