<svg id="Fruit" height="512" viewBox="0 0 992.13 992.13" width="512" xmlns="http://www.w3.org/2000/svg"><g><path d="m107.015 400.21c5.451 7.532 9.498 18.615 13.783 30.348 3.688 10.098 7.5 20.539 12.783 30.324 8.16 15.108 18.427 29.914 31.176 44.926-7.375 15.024-12.934 30.784-16.579 47.038-12.227 54.516-2.555 117.094 27.231 176.209 24.691 49.002 64.197 88.175 111.238 110.301 29.943 14.082 64.25 21.223 101.973 21.225h.002c39.139 0 73.152-7.725 94.793-14.203 35.402-10.598 59.203-25.891 67.019-30.912 11.25-7.223 21.81-15.549 31.389-24.75 9.438-9.066 18.1-19.176 25.883-30.199 22.459 7.74 46.646 11.777 71.018 11.777 18.865 0 37.719-2.359 56.074-7.012.589.182 6.42 1.846 6.42 1.846 9.359 2.693 19.035 5.48 30.207 5.48 11.217 0 21.641-2.83 31.867-8.652 18.957-10.791 30.936-31.41 32.383-55.499 34.975-34.826 58.517-82.147 66.346-133.431 5.338-34.967 5.184-71.471-.463-108.493-6.047-39.66-19.047-74.776-38.639-104.376-22.229-33.579-54.096-60.881-94.711-81.146-39.715-19.814-79.77-29.86-119.053-29.86-2.635 0-5.271.045-7.912.14-5.363.189-10.77.588-16.17 1.193-3.824-2.973-7.859-5.49-11.672-7.768l-.565-.339c-11.097-6.64-24.433-10.449-36.589-10.449-3.936 0-7.781.391-11.433 1.164-16.815 3.559-27.519 11.797-34.349 21.705-4.215-8.519-8.957-16.873-14.182-24.968-19.292-29.892-40.58-50.508-65.076-63.026-1.344-.686-2.705-1.358-4.074-2.032-3.838-1.891-7.462-3.678-9.596-5.386-.575-.547-1.924-2.771-2.912-4.396-.961-1.582-1.936-3.174-2.986-4.758-7.746-11.673-17.707-18.489-29.598-20.263-1.857-.277-3.75-.418-5.625-.418-12.605 0-24.629 6.157-32.982 16.888-5.998 7.697-8.373 15.841-10.109 21.787-.537 1.839-1.043 3.575-1.535 4.856-1.418 3.713-4.619 7.763-6.91 10.495-2.103 2.509-4.25 4.959-6.387 7.402-7.65 8.738-16.32 18.645-22.945 31.007-12.122 22.612-18.867 48.47-19.848 75.15-14.262-2.941-27.881-4.429-40.559-4.429-9.184 0-17.945.794-26.043 2.361-11.582 2.24-22.103 5.788-32.278 9.222-13.013 4.39-25.304 8.536-37.212 8.789l-.442.004c-2.038 0-4.431-.168-7.015-.329-3.937-.244-8.398-.522-13.127-.522-7.838 0-31.686 0-44.742 19.502-18.572 27.734-.428 50.079 8.291 60.816 1.505 1.851 3.036 3.72 4.442 5.661z" fill="#fff"/><g><path d="m877.948 470.132c-5.105-33.483-16.17-66.43-34.943-94.792-21.258-32.111-51.204-55.869-85.459-72.96-35.717-17.819-75.334-28.646-115.458-27.224-8.595.304-17.085 1.199-25.438 2.626-3.531-5.56-11.615-10.239-16.079-12.913-8.647-5.176-20.771-8.538-30.812-6.414-25.547 5.408-27.25 27.436-27.691 48.993-5.271 3.476-10.408 7.151-15.334 11.122-5.188-26.21-16.076-51.426-30.513-73.789-14.17-21.954-32.318-42.672-55.881-54.713-6.021-3.077-12.475-5.832-17.785-10.09-4.98-3.992-7.371-9.358-10.811-14.54-3.205-4.828-7.271-8.962-13.229-9.851-6.406-.957-12.408 2.604-16.24 7.526-4.669 5.994-5.533 13.588-8.176 20.497-2.443 6.391-6.545 12.095-10.912 17.303-9.398 11.217-19.605 21.32-26.59 34.354-15.576 29.059-20.23 63.372-15.193 95.811-8.098-2.822-16.348-5.325-24.836-7.302-19.951-4.647-42.725-7.171-62.934-3.261-25.074 4.851-47.617 17.89-73.518 18.44-12.348.264-37.219-5.035-45.991 8.067-10.675 15.941 2.97 26.381 12.237 39.185 12.82 17.717 17.691 43.803 28.232 63.323 10.447 19.344 24.168 36.886 39.15 52.895-10.044 16.82-17.704 35.318-22.264 55.646-12.047 53.709.863 111.826 25.256 160.234 21.652 42.97 56.395 78.893 100.073 99.438 59.579 28.02 130.212 20.586 179.755 5.753 29.726-8.898 49.994-21.079 60.964-28.128 9.828-6.312 19.127-13.598 27.749-21.879 13.083-12.565 24.022-26.951 32.967-42.504 41.024 19.094 88.362 22.178 131.985 10.809 8.5-2.217 4.912-1.185 12.875 1.037 17 4.734 30.928 10.299 48.371.367 13.396-7.627 20.012-23.08 20.438-38.004.207-7.215 1.134-7.982 5.961-12.729 32.637-32.047 53.51-75.024 60.535-121.045 5.09-33.33 4.617-67.982-.461-101.288z" fill="#68182b"/><path d="m564.704 271.274c8.012-5.379 19.318-2.413 27.363 1.056 2.275.98 8.9 4.944 12.809 7.835-18.431 4.348-35.988 11.452-52.266 20.789.065-11.601.86-22.135 12.094-29.68z" fill="#b1d045"/><path d="m512.243 303.955c2.209 7.396 3.961 14.921 5.242 22.536-15.025 13.697-28.066 29.743-38.459 47.726-3.345 5.788-6.312 11.773-9.075 17.856-10.135-3.4-20.479-6.077-30.941-7.996 14.201-20.396 35.848-33.52 52.979-51.329 6.922-7.199 13.039-17.764 15.86-28.812 1.838-7.184 2.707-5.637 4.394.019z" fill="#a9ff1d"/><path d="m473.605 245.54c1.857-9.542 2.254-11.607 8.197-3.295.682.952 1.354 1.91 2.018 2.879 16.443 23.982 26.06 42.335 18.335 64.109-4.609 12.996-14.731 22.851-24.775 31.792-13.154 11.71-27.082 22.209-37.881 35.902-4.198 5.329-5.139 5.136-5.93.088-2.65-16.844-5.505-26.954-2.846-43.463 1.438-8.941 4.936-17.515 8.799-25.638 5.973-12.564 14.6-23.423 22.24-34.96 5.118-7.725 9.919-17.547 11.843-27.414z" fill="#a9ff1d"/><path d="m432.085 207.219c1.713-6.781 2.398-8.441 9.609-4.18 18.35 10.851 27.696 21.348 28.856 32.095.827 7.652-1.662 15.423-4.659 22.339-4.899 11.309-12.959 21.217-19.816 31.362-6.271 9.274-12.673 21.044-16.467 33.312-2.299 7.442-3.643 8.398-5.103.134-2.546-14.372-5.077-28.748-7.286-43.182-2.879-18.831-6.049-28.577 4.994-49.221 2.643-4.938 5.404-9.801 7.435-15.04.613-1.586 1.635-4.431 2.437-7.619z" fill="#a9ff1d"/><path d="m428.033 382.325c-7.961-1.037-15.971-1.584-23.988-1.689-21.166-19.497-45.078-34.583-71.191-45.222-.87-4.342-1.551-8.726-2.035-13.132-.582-5.303-.061-7.174 4.514-3.641 9.234 7.13 22.621 11.128 31.903 13.837 12.353 3.606 24.944 6.278 36.735 11.579 6.342 2.853 11.924 6.898 16.598 12.035 6.651 7.311 5.676 13.146 7.464 26.233z" fill="#a9ff1d"/><path d="m405.185 174.958c3.754 6.413 8.35 11.105 13.76 15.021 6.024 4.359 11.539 7.268 9.125 16.921-1.6 6.399-4.838 12.434-7.986 18.188-1.473 2.694-2.982 5.55-4.34 8.508-2.336 5.099-3.836 9.328-5.416-1.095-2.838-18.764-5.951-37.478-10.009-56.029-2.038-9.302.104-9.65 4.866-1.514z" fill="#a9ff1d"/><path d="m364.724 215.111c8.408-9.373 16.451-19.017 20.388-31.181.808-2.5 1.437-5.544 2.396-8.432 2.866-8.612 4.376-8.144 6.979 3.813 6.463 29.735 10.582 59.882 14.943 89.995.428 2.96.876 5.918 1.337 8.872 1.806 11.604-1.236 8.406-5.066 4.924-4.782-4.346-10.102-8.032-14.751-10.942-10.861-6.801-20.824-12.969-28.523-23.443-9.506-12.927-8.478-21.601 2.297-33.606z" fill="#a9ff1d"/><path d="m341.726 248.727c1.256-2.854 2.642-5.579 4.135-8.21 3.838-6.759 4.425-7.672 8.135-.03 3.982 8.207 9.84 15.854 13.67 19.794 7.803 8.03 18.701 12.934 27.933 19.084 5.978 3.984 10.992 8.731 14.962 14.729 6.373 9.638 7.714 24.174 11.598 49.882 1.428 9.457.652 9.386-5.117 4.578-6.609-5.504-15.053-9.577-24.531-12.703-16.979-5.6-39.346-8.138-53.865-19.465-14.281-11.137-12.703-31.76 3.08-67.659z" fill="#a9ff1d"/><path d="m300.312 335.455c29.875 6.957 57.578 21.281 81.607 40.147 6.355 4.986-1.086 5.933-7.828 6.894-22.211 3.165-43.264 10.266-62.54 20.507 2.149-19.726 1.921-38.436-8.436-56.498-1.726-3.007-3.674-5.619-5.819-7.869-5.197-5.455-2.437-4.449 3.016-3.181z" fill="#a9ff1d"/><path d="m218.491 335.291c3.319-1.134 6.657-2.188 10.026-3.088 32.518-8.666 59.431-1.752 72.07 20.398 7.465 13.083 7.854 28.218 6.559 42.982-.704 7.997-5.4 13.335-10.234 15.785-6.989 3.525-13.809 7.311-20.451 11.309-1.539.926-3.07 1.864-4.592 2.813-4.07-4.12-15.059-12.52-20.785-32.113-3.226-11.033-7.031-21.919-12.963-31.813-4.879-8.136-12.494-14.792-21.23-18.91-7.007-3.3-6.21-4.691 1.6-7.363z" fill="#a9ff1d"/><path d="m132.193 351.088c10.869-2.594 26.143-1.666 27.924-1.601 7.715.288 15.073-.987 22.566-2.525 14.835-3.047 22.693-6.565 36.523 1.967 10.598 6.536 16.81 18.595 21.191 29.795 2.977 7.606 5.537 15.083 8.678 22.104 3.51 7.854-1.93 3.596-3.682 2.354-32.961-23.386-73.117-38.221-112.271-46.689-8.537-1.847-7.691-3.792-.929-5.405z" fill="#a9ff1d"/><path d="m126.122 369.305c-6.649-7.422-3.37-8.571 4.126-6.978 23.436 4.982 47.258 12.206 69.648 22.259 10.412 4.669.814 3.41-1.452 3.556-3.337.217-6.456.522-9.138.77-13.512 1.253-26.174 2.604-39.529-.885-14.131-3.695-15.662-9.801-23.655-18.722z" fill="#a9ff1d"/><path d="m144.424 400.078c-2.796-7.724-3.612-9.873 4.206-7.582 7.564 2.216 15.898 2.396 23.514 2.175 10.55-.305 20.997-2.248 31.566-2.553 21.258-.607 34.945 9.226 62.68 36.866-2.313 1.516-4.582 3.077-6.842 4.653-14.63-.981-28.154 2.604-42.133 8.198-10.1 4.042-20.318 7.749-31.17 9.108-19.583 2.455-27.441-11.201-41.821-50.865z" fill="#a9ff1d"/><path d="m176.011 463.184c-3.76-5.604-3-6.695 3.871-6.615 7.75.09 15.854-1.751 23.186-4.046 17.953-5.62 32.957-14.201 50.963-15.014-21.311 15.653-39.876 34.19-54.4 55.691-8.79-9.587-16.612-19.584-23.62-30.016z" fill="#a9ff1d"/><path d="m381.427 825.313c-26.932-.399-53.658-5.343-79.301-16.665-41.631-18.381-73.449-53.111-94.727-92.647-24.342-45.226-35.355-99.505-26.709-150.319 6.551-38.51 26.014-70.613 52.414-96.615 9.225-9.079 9.932-7.747 2.697 3.157-17.025 25.653-28.59 55.057-32.938 86.014-1.578 11.225-2.279 22.509-2.062 33.843 1.249 48.592 14.757 96.84 42.513 137.064 24.521 35.536 58.842 63.604 98.676 80.291 12.992 5.445 26.496 9.605 40.244 12.469 8.947 1.866 8.535 3.546-.807 3.408z" fill="#b1d045"/><path d="m786.163 734.105c-10.873 7.844-22.724 4.527-34.268.723 8.313-3.196 16.436-6.885 24.242-11.174 8.9-4.889 17.223-10.498 25.072-16.607-.86 10.74-5.576 20.228-15.046 27.058z" fill="#b1d045"/><path d="m870.798 542.346c-3.098 62.818-29.59 124.15-82.054 161.045-45.38 31.914-104.198 42.494-157.901 28.545-9.534-2.477-18.711-5.961-27.604-10.137 10.354-20.295 17.483-42.301 21.489-64.791 8.527-47.898 4.63-97.717-15.639-142.263-24.586-54.032-73.117-97.436-129.214-119.114 26.062-55.515 76.537-96.874 137.619-107.442 35.91-6.214 72.929-1.084 106.981 11.306 36.204 13.17 70.636 33.765 95.892 63.197 42.282 49.28 53.538 116.593 50.431 179.654z" fill="#b1d045"/><path d="m585.009 492.758c-49.432-76.056-150.732-121.316-239.05-93.015-81.672 26.168-136.26 107.433-134.623 192.337.313 12.186 1.305 24.348 3.273 36.381 7.143 43.641 25.85 85.166 55.775 117.936 27.568 30.193 63.514 52.179 103.051 62.672 73.496 19.502 155.875-1.691 202.816-63.646 27.076-35.736 40.061-80.575 42.055-124.988 2.015-44.972-8.662-89.773-33.297-127.677zm25.906 134.187c-1.393 15.654-4.051 34.767-21.871 38.771-1.355.305-2.742.463-4.123.658 5.029 6.736 6.779 15.311 3.795 24.229-2.531 7.57-7.271 14.693-11.484 21.422-4.102 6.551-8.58 12.879-13.531 18.818-6.994 8.389-15.17 15.836-24.471 21.6-4.881 3.028-9.945 4.219-15.291 3.142-2.496 10.571-11.715 17.046-21.893 22.075-12.906 6.377-26.509 11.957-40.738 14.514-14.525 2.61-32.176 4.689-40.213-10.191-10.064 7.121-22.961 5.611-35.684 3.881-14.135-1.926-28.207-4.885-41.431-10.355-8.019-3.314-17.957-7.52-23.851-14.131-2.373-2.662-3.678-5.803-4.252-9.118-12.156 1.95-22.525-4.368-32.18-13.099-10.861-9.816-20.357-21.268-28.335-33.532-6.271-9.638-11.886-20.142-15.051-31.249-1.983-6.961-3.03-14.203.626-20.783.027-.052.063-.098.092-.146-24.457-25.969-22.043-75.031-10.504-105.931 5.236-14.028 11.742-22.443 20.627-26.075-5.25-13.881 3.238-26.972 11.713-38.791 8.689-12.113 18.402-23.635 30.168-32.878 6.879-5.406 15.627-12.163 24.434-13.846 5.469-1.047 10.924.478 15.688 3.161 2.523-11.771 16.072-16.542 28.133-20.061 17.844-5.207 36.652-9.16 55.344-8.257 8.646.417 21.566.603 28.172 7.212 1.48 1.48 2.646 3.217 3.6 5.08 8.533-6.329 19.424-5.101 30.461-1.439 14.076 4.669 28.076 10.332 40.635 18.305 11.184 7.101 26.013 17.264 27.425 31.202 6.105 4.451 11.346 10.29 16.373 15.832 5.207 5.738 10.127 11.772 14.545 18.143 6.961 10.04 12.686 21.276 15.736 33.155 1.477 5.754.58 10.832-1.713 15.318 10.025 5.273 13.795 16.4 15.893 27.854 2.74 14.946 4.51 30.315 3.156 45.51z" fill="#83e1c4"/><path d="m540.651 492.583c4.505-7.746 4.541-9.633 10.89-2.819.595.64 1.185 1.272 1.772 1.898 4.467 4.758 8.771 9.694 12.678 14.926 5.822 7.799 10.992 16.273 14.488 25.385 1.918 4.998 4.664 11.068 2.887 15.594-1.861 4.74-6.445 8.4-10.482 11.219-12.771 8.906-27.824 14.539-42.377 19.773-15.512 5.574-31.287 10.354-46.898 15.623-9.069 3.062-17.859 7.063-27.024 9.789-6.017 1.793-21.276 4.664-23.449-1.564-1.521-4.359 5.192-8.117 9.246-10.89 3.048-2.081 5.883-4.417 8.392-6.638 7.486-6.631 14.119-14.234 21.41-21.094 15.08-14.191 30.66-27.867 45.009-42.818 7.872-8.201 17.275-17.74 23.458-28.384z" fill="#fbf199"/><path d="m449.419 492.417c2.398-16.17 4.754-33.15 3.436-49.637-.518-6.528.156-12.109 6.719-13.569 7.121-1.584 15.771 2.224 22.665 4.696 10.468 3.754 20.708 8.229 30.209 14.034 7.809 4.77 14.93 10.482 21.047 17.299 3.034 3.382 3.836 6.275 2.683 10.896-3.423 13.703-15.315 25.645-24.696 35.565-12.482 13.201-25.976 25.4-39.314 37.723-6.043 5.58-12.111 11.158-17.838 17.066-4.643 4.79-9.172 9.727-14.459 13.828-7.893 6.121-14.284 10.676-10.01-2.248 2.467-7.443 4.563-15.016 6.541-22.604 5.416-20.759 9.871-41.823 13.017-63.049z" fill="#fbf199"/><path d="m350.931 433.666c7.121-3.322 15.183-5.189 22.767-7.106 14.24-3.6 28.878-6.029 43.607-5.219 19.478 1.069 23.138 3.049 24.749 18.716 1.798 17.462-.596 35.528-3.277 52.771-2.988 19.227-7.018 38.307-11.838 57.152-1.12 4.393-2.28 8.777-3.521 13.139-2.674 9.391-2.645 12.756-7.155 2.932-.35-.76-.71-1.514-1.077-2.264-4.428-8.975-10.217-17.289-15.063-26.041-9.975-18.035-19.248-36.455-29.846-54.146-5.621-9.382-11.691-19.467-19.002-28.248-8.127-9.77-10.926-16.751-.344-21.686z" fill="#fbf199"/><path d="m273.597 485.711c6.799-9.246 14.42-17.994 23.168-25.455 6.081-5.186 14.064-11.37 21.652-13.736 3.986-1.242 8.187.615 11.988 3.244 12.246 8.467 20.828 22.908 28.461 35.33 9.53 15.512 17.969 31.656 26.576 47.688 3.881 7.227 7.764 14.473 12.039 21.477 3.417 5.6 6.959 11.125 9.687 17.109 1.026 2.248 1.917 4.572 2.624 6.949 4.307 14.459-2.426 7.652-4.611 5.861-9.289-7.615-21.041-14.07-27.01-16.725-31.977-14.223-61.557-33.268-94.994-44.24-2.451-.803-4.801-1.484-7.055-2.039-9.625-2.377-15.287-.695-15.941-7.482-.978-10.116 7.404-19.804 13.416-27.981z" fill="#fbf199"/><path d="m242.509 638.104c-12.491-20.831-9.824-50.206-5.844-72.778.938-5.313 2.359-12.559 4.791-19.189 7.027-19.156 21.871-17.799 38.922-12.768 23.064 6.803 44.742 19.004 66.021 29.976 8.761 4.519 17.518 9.038 26.457 13.202 3.518 1.637 24.992 12.069 31.904 20.516 5.121 6.259-1.059 8.618-5.955 8.529-7.201-.125-14.789 1.486-21.115 2.693-10.76 2.053-21.251 5.303-31.941 7.685-21.096 4.7-42.475 8.304-63.271 14.271-8.371 2.4-18.758 5.32-27.421 10.209-6.876 3.88-8.575 4.267-12.548-2.346z" fill="#fbf199"/><path d="m318.154 733.954c-1.999 6.13-3.505 9.313-9.977 8.132-8.186-1.496-15.326-8.549-21.24-14.334-8.472-8.285-16.023-17.502-22.479-27.439-5.368-8.26-10.263-17.063-13.298-26.471-1.643-5.082-3.592-10.875-.784-15.521 2.798-4.629 8.162-7.539 12.841-9.877 7.375-3.686 15.352-6.162 23.266-8.391 17.807-5.016 36.031-8.375 54.113-12.205 9.564-2.025 18.986-4.434 28.453-6.845 6.689-1.703 13.488-3.169 20.346-3.978 10.797-1.27 11.65-.488 5.186 6-6.828 6.839-11.907 15.145-17.535 23.07-11.645 16.4-24.51 31.9-36.127 48.33-8.367 11.833-18.106 25.211-22.765 39.529z" fill="#fbf199"/><path d="m416.929 631.393c-1.367 5.172-1.877 10.682-2.104 15.471-.439 9.344.081 18.736-.228 28.096-.636 19.35-1.88 38.688-1.606 58.057.133 9.502.287 19.875 1.99 29.775 1.148 6.705 2.553 10.311-3.236 12.74-8.566 3.592-20.398.723-28.756-.578-10.434-1.623-20.813-3.91-30.764-7.487-16.826-6.05-29.75-14.53-23.848-31.325 3.809-10.848 11.205-21.172 17.299-30.15 10.026-14.771 21.107-28.779 31.892-42.996 4.351-5.733 20.979-32.453 32.903-39.191 8.005-4.532 8.222.9 6.458 7.588z" fill="#fbf199"/><path d="m416.421 612.14c-.207-.276-.438-.548-.721-.806-.199-.184-.418-.33-.621-.502 3.578-3.43 4.119-7.332 2.717-11.367.65-.625 1.209-1.299 1.703-2.004 1.074.307 2.152.537 3.232.641-.821 5.48.588 10.792 4.926 14.477-.152.995-.223 1.979-.139 2.943-.398.227-.801.448-1.176.701-2.895-2.75-6.333-3.964-9.921-4.083z" fill="#fbf199"/><path d="m510.717 758.967c-4.001 5.182-11.005 8.221-17.428 11.266-10.252 4.858-20.954 8.947-32.086 11.262-7.426 1.545-17.116 2.838-24.061 1.45-3.436-.687-5.762-3.647-7.52-7.337-5.889-12.35-5.844-28.008-6.08-41.373-.295-16.685.551-33.364 1.238-50.027.314-7.64.648-15.291.577-22.939-.06-6.338-.335-12.677.325-18.998.164-1.576.383-3.518.752-5.545 1.518-8.389 3.021-6.43 5.822-.299 5.381 11.787 14.508 24.007 18.041 29.49 11.098 17.221 21.344 34.982 33.121 51.762 6.664 9.494 14.398 20.955 24.031 29.018 4.866 4.069 7.206 7.168 3.268 12.27z" fill="#fbf199"/><path d="m577.177 690.977c-5.404 10.976-12.26 21.783-19.98 31.273-5.865 7.209-12.531 13.889-20.236 19.125-9.512 6.459-15.916 3.129-22.915-2.762-7.554-6.365-13.79-15.486-18.977-22.66-10.502-14.531-19.766-29.908-29.227-45.123-4.164-6.695-8.352-13.381-12.906-19.818-2.482-3.51-5.021-7.051-7.25-10.758-2.947-4.9-6.096-9.145 6.138-4.76 8.7 3.125 17.864 4.861 26.735 7.459 19.281 5.645 38.285 12.197 57.748 17.227 8.01 2.071 16.656 4.332 25.391 5.676 6.914 1.063 13.02 3.084 16.042 8.783 2.509 4.734 2.36 10.396-.563 16.338z" fill="#fbf199"/><path d="m600.741 621.301c-.35 9.07-1.725 18.414-4.914 26.957-1.533 4.107-4.395 6.01-8.826 7.125-13.65 3.432-29.686-.889-42.955-4.118-17.252-4.198-34.154-9.69-51.101-14.95-7.43-2.305-14.871-4.615-22.428-6.477-6.395-1.574-12.908-3.032-18.971-5.668-7.408-3.221-13.098-5.074.484-7.973 7.261-1.549 14.438-4.449 20.408-6.804 16.376-6.454 33.382-11.258 50.043-16.908 17.87-6.062 36.417-12.385 52.483-22.476 8.133-5.109 12.619-8.861 17.26-2.301 3.521 4.99 4.582 11.959 5.725 18.445 2.041 11.585 3.249 23.374 2.792 35.148z" fill="#fbf199"/><path d="m673.401 694.109c-12.604-10.616-18.164-27.205-21.295-42.83-6.787-33.861-2.545-68.871-8.232-102.875-7.322-43.768-37.221-86.332-72.609-112.015-20.814-15.104-50.111-33.136-77.972-35.034 50.343 23.087 93.199 63.723 115.796 113.39 20.269 44.546 24.166 94.364 15.639 142.263-4.006 22.49-11.135 44.496-21.489 64.791 8.894 4.176 18.07 7.66 27.604 10.137 53.703 13.949 112.521 3.369 157.901-28.545 10.99-7.73 20.774-16.584 29.509-26.248-22.863 15.854-50.641 24.674-77.832 29.049-22.549 3.626-48.683 3.367-67.02-12.083z" fill="#abab38"/><path d="m288.74 801.959c4.35 2.406 8.797 4.662 13.387 6.689 25.643 11.322 52.369 16.266 79.301 16.665 9.342.138 9.754-1.543.809-3.409-13.748-2.863-27.252-7.023-40.244-12.469-39.834-16.688-74.154-44.755-98.676-80.291-16.972-24.597-28.592-52.199-35.363-81.039.515 4.23 1.095 8.46 1.822 12.679 9.325 54.066 38.341 104.553 78.964 141.175z" fill="#abab38"/><path d="m572.56 290.949c-6.789-.173-13.285-1.302-18.715-4.066-1.039 4.399-1.207 9.137-1.234 14.071 6.454-3.702 13.117-7.037 19.949-10.005z" fill="#abab38"/><path d="m776.138 723.654c-7.807 4.289-15.93 7.978-24.242 11.174 9.445 3.114 19.098 5.891 28.25 2.504-1.813-4.75-2.355-9.93-1.65-15.041-.792.451-1.561.926-2.358 1.363z" fill="#abab38"/><path d="m801.507 418.78c-17.043-32.401-42.893-58.238-72.799-77.831-86.436-56.623-152.465-2.512-136.767 49.637 5.438 18.065 21.737 29.967 35.813 40.533 18.195 13.667 50.018 45.778 52.313 152.576 1.734 80.617 76.32 74.598 108.43 45.591 43.396-39.203 58.277-124.452 13.01-210.506z" fill="#d7e338"/><path d="m429.861 578.07c-4.274 12.924 2.117 8.369 10.01 2.248 5.287-4.102 9.816-9.038 14.459-13.828 5.727-5.908 11.795-11.486 17.838-17.066 2.693-2.487 5.393-4.973 8.086-7.459-3.262 2.236-6.563 4.424-9.972 6.49-8.149 4.936-25.677 13.813-26.362-4.818-.203-5.492.891-11.078 1.775-16.463 2.287-13.93 4.822-28.541 4.902-42.938-.383 2.744-.775 5.476-1.178 8.181-3.146 21.226-7.602 42.29-13.018 63.05-1.978 7.588-4.073 15.16-6.54 22.603z" fill="#f3af79"/><path d="m488.488 588.137c-17.396 6.721-35.529 14.701-54.338 15.813 4.066 4.113 17.002 1.639 22.435.021 9.165-2.727 17.955-6.728 27.024-9.789 15.611-5.27 31.386-10.049 46.898-15.623 14.553-5.234 29.605-10.867 42.377-19.773 4.037-2.818 8.621-6.479 10.482-11.219 1.777-4.525-.969-10.596-2.887-15.594-2.611-6.807-6.16-13.258-10.215-19.338 2 10.305 2.193 20.711-1.963 30.525-5.902 13.932-21.799 21.813-34.723 27.795-14.528 6.727-30.165 11.418-45.09 17.182z" fill="#f3af79"/><path d="m263.216 648.443c-4.679 2.338-10.043 5.248-12.841 9.877-2.808 4.646-.858 10.439.784 15.521 3.035 9.408 7.93 18.211 13.298 26.471 6.456 9.938 14.008 19.154 22.479 27.439 5.914 5.785 13.055 12.838 21.24 14.334 6.472 1.182 7.978-2.002 9.977-8.132 2.898-8.909 7.766-17.449 13.041-25.483-17.17 11.593-35.424 16.445-51.928-6.043-10.107-13.773-19.301-37.789-13.084-55.328-.988.444-1.994.858-2.966 1.344z" fill="#f3af79"/><path d="m352.226 767.466c9.951 3.577 20.33 5.864 30.764 7.487 8.357 1.301 20.189 4.17 28.756.578 5.789-2.43 4.385-6.035 3.236-12.74-.781-4.539-1.211-9.174-1.488-13.782-1.588 2.233-3.314 4.392-5.301 6.442-11.592 11.961-29.725 7.338-42.865 1.77-18.099-7.671-26.172-22.324-27.449-39.57-3.744 5.871-7.251 12.085-9.5 18.49-5.903 16.795 7.021 25.275 23.847 31.325z" fill="#f3af79"/><path d="m429.623 775.607c1.758 3.689 4.084 6.65 7.52 7.337 6.944 1.388 16.635.095 24.061-1.45 11.132-2.314 21.834-6.403 32.086-11.262 6.423-3.045 13.427-6.084 17.428-11.266 3.587-4.645 1.94-7.638-2.051-11.209-6.103 9.891-16.647 14.396-27.838 17.594-20.988 5.994-40.869.744-47.934-22.09-5.537-17.904-7.301-38.51-8.123-58.869-.684 16.604-1.523 33.219-1.229 49.842.236 13.366.191 29.024 6.08 41.373z" fill="#f3af79"/><path d="m536.96 741.375c7.705-5.236 14.371-11.916 20.236-19.125 2.237-2.752 4.379-5.639 6.456-8.584-3.155 2.475-6.511 4.793-10.147 6.928-20.769 12.195-40.351.098-55.328-14.09-14.663-13.895-27.234-30.05-39.191-46.497 2.324 3.583 4.601 7.197 6.855 10.823 9.461 15.215 18.725 30.592 29.227 45.123 5.187 7.174 11.423 16.295 18.977 22.66 6.999 5.891 13.403 9.221 22.915 2.762z" fill="#f3af79"/><path d="m361.767 469.819c2.996 4.607 5.809 9.274 8.51 13.781 10.598 17.69 19.871 36.11 29.846 54.146 4.846 8.752 10.635 17.066 15.063 26.041.367.75.728 1.504 1.077 2.264 4.511 9.824 4.481 6.459 7.155-2.932 1.241-4.361 2.401-8.746 3.521-13.139.92-3.592 1.779-7.197 2.641-10.805-16.53 8.121-29.578-18.576-38.502-31.758-8.803-12.999-17.821-26.674-29.311-37.598z" fill="#f3af79"/><path d="m242.509 638.104c3.973 6.612 5.672 6.226 12.548 2.345 8.663-4.889 19.05-7.809 27.421-10.209 20.797-5.967 42.176-9.57 63.271-14.271 10.69-2.382 21.182-5.632 31.941-7.685 5.453-1.041 11.835-2.314 18.107-2.584-45.906-8.854-92.783 10.807-136.874 21.03-25.47 5.903-26.075-30.702-22.683-58.895-3.723 22.211-5.768 50.198 6.269 70.269z" fill="#f3af79"/><path d="m272.113 520.353c1.256.216 2.574.467 4.01.821 2.254.555 4.604 1.236 7.055 2.039 33.438 10.973 63.018 30.018 94.994 44.24 5.969 2.654 17.721 9.109 27.01 16.725 2.186 1.791 8.918 8.598 4.611-5.861-.707-2.377-1.598-4.701-2.624-6.949-2.01-4.41-4.466-8.57-6.983-12.695-26.846 3.225-54.82-19.492-79.135-28.188-14.423-5.159-32.456-10.426-48.938-10.132z" fill="#f3af79"/><path d="m597.739 627.031c-14.661 15.586-40.029 13.076-59.309 11.443-29.543-2.504-60.567-7.037-89.445-15.408.811.352 1.672.717 2.561 1.104 6.063 2.636 12.576 4.094 18.971 5.668 7.557 1.861 14.998 4.172 22.428 6.477 16.947 5.26 33.849 10.752 51.101 14.95 13.27 3.229 29.305 7.55 42.955 4.118 4.432-1.115 7.293-3.018 8.826-7.125 2.914-7.803 4.266-16.269 4.752-24.587-.928 1.128-1.816 2.274-2.84 3.36z" fill="#f3af79"/><path d="m346.664 572.428c-7.064-3.394-14.238-6.582-21.296-9.928-13.384-6.351-25.661-14.102-39.87-18.625-20.084-6.393-36.617 5.443-40.451 25.26-9.104 47.08 58.684 34.623 101.218 25.125 20.92-4.666 20.447-12.194.399-21.832z" fill="#fff7cf"/><path d="m348.587 632.668c-17.133 4.795-34.063 11.554-49.85 18.634-17.444 7.823-22.121 24.909-13.49 41.36 14.297 27.249 52.738-17.359 73.807-45.488 11.188-14.934 8.438-19.803-10.467-14.506z" fill="#fff7cf"/><path d="m385.105 669.026c-19.451 28.233-42.338 68.501-5.695 80.571 13.795 4.545 20.852-12.365 21.541-22.824 1.115-16.953 2.211-34.553 2.287-51.949.129-29.361-10.405-17.013-18.133-5.798z" fill="#fff7cf"/><path d="m433.08 683.532c.666 17.31 3.451 34.61 9.244 50.773 4.098 11.429 19.831 30.95 34.304 20.623 13.362-9.534 3.128-23.566-3.261-34.392-7.852-13.301-15.7-26.744-24.082-39.803-9.994-15.578-16.834-13.424-16.205 2.799z" fill="#fff7cf"/><path d="m521.286 664.265c-10.1-3.532-20.389-6.069-30.736-8.403-21.898-4.93-23.549 1.02-12.053 17.984 12.271 18.107 29.324 36.99 47.214 37.107 12.488.08 34.143-9.038 30.163-25.039-3.064-12.332-24.557-18.141-34.588-21.649z" fill="#fff7cf"/><path d="m560.635 587.48c-21.663 5.113-42.624 13.955-64.034 21.076-16.305 5.422-9.813 11.79.273 14.117 32.683 7.533 82.46 13.203 89.082-18.422 3.594-17.157-13.201-19.632-25.321-16.771z" fill="#fff7cf"/><path d="m499.046 577.154c15.393-4.479 30.92-10.79 42.124-20.607 8.558-7.498 24.505-27.197 11.854-38.523-9.969-8.922-21.381-.125-29.543 7.18-7.934 7.102-13.912 16.361-20.602 24.549-4.392 5.373-8.972 10.586-13.539 15.813-9.641 11.036-9.883 17.299 9.706 11.588z" fill="#fff7cf"/><path d="m482.858 522.664c11.476-9.381 21.928-20.635 26.708-33.493 5.887-15.841.635-32.294-17.205-35.694-27.707-5.28-28.674 32.852-29.242 60.213-.356 17.029 5.521 20.596 19.739 8.974z" fill="#fff7cf"/><path d="m394.25 435.824c-14.289 2.795-22.049 20.071-16.254 32.973 6.318 14.071 17.943 24.011 27.449 35.579 11.531 14.034 17.367 16.856 22.398-3.371 8.018-32.245 7.561-73.234-33.593-65.181z" fill="#fff7cf"/><path d="m303.88 512.094c15.482 6.348 33.771 7.928 49.861 13.813 5.576 2.041 22.611 9.975 10.504-12.082-11.777-21.457-21.768-32.639-33.596-39.323-13.85-7.829-32.961-3.079-41.479 10.349-7.379 11.637 4.735 23.153 14.71 27.243z" fill="#fff7cf"/><path d="m616.427 619.91c-3.793 39.844-18.262 77.186-40.752 110.111-45.234 66.223-129.744 83.826-204.271 66.096-73.98-17.602-121.83-70.51-144.879-140.938-10.704-32.715-15.427-68.844-11.714-103.584-2.528 13.259-3.739 26.822-3.476 40.484.313 12.186 1.305 24.348 3.273 36.381 7.143 43.641 25.85 85.166 55.775 117.936 27.568 30.193 63.514 52.179 103.051 62.672 73.496 19.502 155.875-1.691 202.816-63.646 27.076-35.736 40.061-80.575 42.055-124.988.398-8.883.281-17.756-.321-26.574-.245 8.691-.729 17.374-1.557 26.05z" fill="#39b487"/><path d="m232.099 499.984c18.32-29.968 43.815-55.228 74.188-73.559 35.726-21.561 76.259-29.624 117.52-25.794 32.249 2.992 63.585 12.675 91.772 28.635 23.842 13.499 44.289 31.604 61.657 52.421-51.72-69.273-147.344-108.841-231.278-81.944-50.742 16.258-91.013 53.789-113.859 100.241z" fill="#b4efd7"/><g fill="#95b418"><path d="m381.919 375.603c-15.285-12-32.068-22.139-49.938-29.737 9.394 9.024 14.866 19.691 10.39 34.444-1.333 4.389-3.506 8.235-6.169 11.742 12.148-4.431 24.812-7.692 37.89-9.556 6.741-.961 14.183-1.907 7.827-6.893z"/><path d="m483.73 356.944c-6.092 7.891-15.854 22.821-27.16 31.121 4.492 1.206 8.961 2.524 13.381 4.008 2.764-6.083 5.73-12.068 9.075-17.856 8.765-15.164 19.43-28.93 31.561-41.092-11.068 4.27-19.974 14.906-26.857 23.819z"/><path d="m432.208 366.706c-.098.139-.196.258-.293.392.029.166.058.339.086.508.152-.253.311-.479.457-.755.086-.165-.144-.296-.25-.145z"/><path d="m453.989 211.294c11.97 20.697-2.972 48.05-15.741 66.731-7.17 10.486-12.955 21.802-15.592 33.655.617 3.534 1.225 7.068 1.851 10.6 1.46 8.265 2.804 7.309 5.103-.134 3.794-12.268 10.195-24.037 16.467-33.312 6.857-10.146 14.917-20.054 19.816-31.362 2.997-6.916 5.486-14.687 4.659-22.339-.865-8.003-6.285-15.866-16.563-23.839z"/><path d="m410.328 232.501c1.58 10.423 3.08 6.193 5.416 1.095 1.357-2.958 2.867-5.813 4.34-8.508 3.148-5.754 6.387-11.788 7.986-18.188 2.414-9.653-3.101-12.562-9.125-16.921-.025-.019-.047-.039-.074-.058 1.346 9.458-2.633 19.373-5.963 29.438-1.432 4.323-2.27 8.625-2.615 12.917.012.075.025.151.035.225z"/><path d="m332.217 274.188c-5.961 20.698-4.058 34.021 6.427 42.198 14.52 11.327 36.887 13.865 53.865 19.465 9.479 3.126 17.922 7.199 24.531 12.703 5.77 4.808 6.545 4.879 5.117-4.578-.15-.992-.291-1.938-.432-2.896-8.031-11.178-21.679-18.235-35.139-21.491-15.455-3.737-30.889-3.927-43.08-15.637-8.405-8.074-11.175-18.787-11.289-29.764z"/><path d="m428.033 382.325c-.523-3.832-.814-6.994-1.125-9.802-14.328 11.786-30.508-5.541-43.682-15.272-6.654-4.912-14.522-8.296-22.193-11.276-3.871-1.504-7.893-2.345-11.914-3.159 19.83 9.869 38.242 22.453 54.926 37.82 8.017.105 16.027.652 23.988 1.689z"/><path d="m439.5 376.928c10.799-13.693 24.727-24.192 37.881-35.902 10.044-8.941 20.166-18.796 24.775-31.792 5.75-16.209 1.883-30.521-7.246-46.67 3.988 27.559-10.947 50.448-31.688 70.16-9.1 8.651-19.002 15.958-25.723 26.771-2.32 3.737-3.828 7.859-4.813 12.16.292 1.724.588 3.486.883 5.36.792 5.048 1.732 5.242 5.931-.087z"/><path d="m241.402 439.327c-8.895 5.479-16.688 12.471-23.66 20.785-6.033 7.191-10.916 15.48-15.429 23.674-1.352 2.453-2.808 5.078-4.112 7.793.484.537.94 1.087 1.43 1.621 14.524-21.501 33.09-40.038 54.4-55.691-4.36.197-8.537.863-12.629 1.818z"/><path d="m252.363 415.482c-8.135-.798-17.021 2.185-24.873 5.94-10.922 5.223-20.67 12.463-31.914 17.087-12.332 5.071-26.277 2.915-36.867-4.459 7.566 13.613 15.241 18.435 27.537 16.894 10.852-1.359 21.07-5.066 31.17-9.108 13.979-5.595 27.503-9.18 42.133-8.198 2.26-1.576 4.529-3.138 6.842-4.653-5.11-5.093-9.737-9.572-14.028-13.503z"/><path d="m300.587 352.602c-9.758-17.099-28.04-25.078-50.818-23.86 20.647 3.306 38.506 17.295 44.865 38.206 6.133 20.164-2.49 35.476-10.861 51.506 4.316-2.448 8.682-4.836 13.139-7.084 4.834-2.45 9.53-7.788 10.234-15.785 1.295-14.766.906-29.9-6.559-42.983z"/><path d="m249.076 400.827c-3.141-7.021-5.701-14.497-8.678-22.104-4.382-11.2-10.594-23.259-21.191-29.795-12.391-7.644-20.004-5.614-32.119-2.917 2.156.115 4.332.32 6.549.703 14.479 2.506 24.359 11.437 32.02 23.4 6.724 10.498 11.35 22.877 19.131 32.664.197.14.41.261.607.401 1.751 1.244 7.19 5.502 3.681-2.352z"/><path d="m149.777 388.026c13.355 3.489 26.018 2.138 39.529.885 2.682-.247 5.801-.553 9.138-.77 2.267-.146 11.864 1.113 1.452-3.556-2.781-1.249-5.586-2.454-8.408-3.616-6.656-.064-13.521 1.098-19.447 2.229-9.459 1.806-19.335 2.836-28.604-.325-4.25-1.45-8.028-3.939-11.654-6.673 4.203 5.279 7.859 9.177 17.994 11.826z"/><path d="m362.425 248.718c7.699 10.475 17.662 16.643 28.523 23.443 4.649 2.91 9.969 6.597 14.751 10.942 3.83 3.482 6.872 6.68 5.066-4.924-.292-1.876-.567-3.754-.85-5.634-3.843-5.025-9.126-9.19-16.124-13.082-9.85-5.479-18.509-10.486-24.564-20.453-4.447-7.322-5.316-15.577-4.557-23.84-10.721 11.975-11.733 20.643-2.245 33.548z"/></g><path d="m263.806 413.362c-3.982-12.599-4.298-26.039-9.363-38.317-4.084-9.894-11.543-18.563-19.744-25.265-5.379-4.396-11.551-6.325-18.035-7.241.088.041.141.074.227.115 8.736 4.118 16.352 10.774 21.23 18.91 5.932 9.894 9.737 20.779 12.963 31.813 3.959 13.547 10.43 21.739 15.396 26.867-.996-2.14-1.891-4.403-2.674-6.882z" fill="#ccff73"/><path d="m241.578 406.275c-13.383-10.481-24.031-14.553-37.867-14.157-10.569.305-21.017 2.248-31.566 2.553-7.615.222-15.949.041-23.514-2.175-.057-.016-.092-.022-.15-.039 11.742 11.351 33.252 7.681 48.014 6.461 12.311-1.014 27.751-1.627 45.083 7.357z" fill="#ccff73"/><path d="m203.068 452.522c-7.331 2.295-15.436 4.136-23.186 4.046-6.871-.08-7.631 1.012-3.871 6.615.028.041.057.082.086.123 7.229 1.288 15.816-1.09 22.004-3.31 12.183-4.371 23.824-11.568 35.268-18.407-9.893 3.184-19.573 7.574-30.301 10.933z" fill="#ccff73"/><path d="m295.833 337.017c.396.467.865.989 1.463 1.619 2.146 2.25 4.094 4.862 5.819 7.869 10.356 18.063 10.585 36.772 8.436 56.498 2.37-1.259 4.769-2.468 7.19-3.63 2.184-12.058.809-25.173-2.645-35.98-2.796-8.759-10.241-22.868-20.263-26.376z" fill="#ccff73"/><path d="m426.822 371.795c-.736-6.372-1.721-10.721-6.254-15.702-4.674-5.137-10.256-9.183-16.598-12.035-11.791-5.301-24.383-7.973-36.735-11.579-7.222-2.108-16.905-5.017-25.206-9.552 8.42 8.042 20.246 12.632 31.328 16.204 10.182 3.283 20.715 5.609 30.49 10.042 10.817 4.906 16.93 13.111 22.975 22.622z" fill="#ccff73"/><path d="m353.546 239.604c.834 19.565 9.232 33.882 26.555 45.411 11.734 7.813 22.581 14.571 30.459 26.669 4.867 7.473 7.309 15.904 10.379 24.078-3.025-20.672-4.721-33.11-10.379-41.668-3.97-5.998-8.984-10.745-14.962-14.729-9.231-6.15-20.13-11.054-27.933-19.084-3.83-3.939-9.688-11.587-13.67-19.794-.165-.342-.294-.577-.449-.883z" fill="#ccff73"/><path d="m457.353 289.371c7.727-12.284 18.25-29.817 16.596-45.584-.108.554-.224 1.136-.344 1.753-1.924 9.867-6.725 19.689-11.842 27.415-7.641 11.537-16.268 22.396-22.24 34.96-3.863 8.123-7.361 16.696-8.799 25.638-1.08 6.71-1.223 12.356-.865 17.834 3.016-10.53 4.743-21.224 9.633-31.445 5.117-10.696 11.559-20.555 17.861-30.571z" fill="#ccff73"/><path d="m505.438 311.315c-3.238 8.267-8.092 15.86-13.45 21.433-14.196 14.757-31.435 26.354-45.024 41.479 10.369-9.453 23.232-16.63 33.889-25.522 10.881-9.082 21.904-22.734 24.585-37.39z" fill="#ccff73"/><path d="m422.214 229.878c-11.043 20.644-7.873 30.39-4.994 49.221.41 2.679.875 5.347 1.305 8.021-.359-17.256-.058-33.322 7.301-49.733 4.677-10.435 9.311-21.141 6.804-32.22-.177.628-.353 1.296-.544 2.053-.803 3.188-1.824 6.033-2.437 7.619-2.03 5.238-4.792 10.1-7.435 15.039z" fill="#ccff73"/><path d="m822.571 652.579c24.775-26.649 31.057-68.052 34.912-102.74 3.988-35.89 4.363-74.729-8.693-108.892-.133-.35-.672-.22-.572.157 8.686 32.681 7.727 69.687 4.841 103.058-3.211 37.127-12.144 75.5-31.366 107.74-.323.541.441 1.149.878.677z" fill="#68182b"/><path d="m818.95 655.805c-2.824 3.033-5.195 6.041-6.666 9.957-.135.36.326.667.629.484 3.701-2.262 5.984-5.583 7.438-9.627.289-.799-.846-1.414-1.401-.814z" fill="#68182b"/><path d="m584.019 314.123c-33.329 5.701-69.064 36.437-80.229 68.36-.138.395.419.565.632.268 10.404-14.592 20.58-28.289 34.328-39.963 13.705-11.638 29.77-19.573 45.688-27.672.586-.298.148-1.09-.419-.993z" fill="#68182b"/><path d="m589.671 312.901c-.154.246.098.563.369.482 1.85-.534 3.727-.948 5.568-1.52 1.703-.528 3.473-.708 4.711-2.123.221-.249.191-.619-.104-.8-3.45-2.124-8.687.976-10.544 3.961z" fill="#68182b"/></g></g></svg>