<svg id="Fruit" height="512" viewBox="0 0 992.13 992.13" width="512" xmlns="http://www.w3.org/2000/svg"><g><path d="m88.171 699.135c6.885 6.213 14.666 11.943 23.284 17.154-13.818 20.271-28.265 49.084-25.126 77.912 2.101 19.301 11.924 35.586 28.408 47.102 14.564 10.172 31.48 15.328 50.279 15.33h.008c32.928 0 65.797-15.635 94.795-29.428 8.031-3.82 15.793-7.512 22.899-10.545 18.86 16.375 39.833 29.205 62.388 38.156 22.42 8.898 47.633 13.518 74.938 13.727l2.177.008c45.88 0 91.473-10.969 131.849-31.725 32.494-16.705 60.033-39.396 80.667-66.303 28.353 11.65 59.475 17.945 89.565 17.945 28.449 0 54.847-5.414 78.459-16.094 17.447-7.889 33.084-18.145 47.803-31.35 6.971-6.256 13.664-13.633 19.895-21.926 2.105-2.803 6.594-5.191 12.274-8.213l3.351-1.795c1.4-.76 2.818-1.492 4.23-2.227 9.441-4.902 22.372-11.613 30.789-25.543 12.871-21.289 1.164-45.434-5.126-58.408l-1.259-2.613c-2.602-5.492-1.053-14.781.588-24.617.743-4.463 1.512-9.074 2.016-13.896 1.854-17.752.73-36.662-3.435-57.803-6.876-34.886-25.823-69.301-54.788-99.52-39.126-40.816-95.354-67.978-155.316-76.033 19.975-15.9 38.915-33.634 53.07-56.813 11.58-18.961 18.949-49.424 9.311-74.735-6.166-16.196-18.695-27.89-35.279-32.927-11.688-3.553-24.762-5.353-38.859-5.353-30.278 0-60.602 8.31-80.707 15.281-20.598 7.14-40.274 18.184-58.225 32.565-10.664-25.745-28.115-50.541-52.191-74.083l-1.699-1.668c-11.654-11.445-27.615-27.121-51.707-27.121-2.479 0-5.006.173-7.502.517-33.074 4.537-38.27 43.667-40.489 60.375l-.352 2.588c-1.197 8.407-1.823 16.947-1.888 25.547-7.637-6.169-17.324-10.965-30.137-12.549-1.818-.225-3.69-.34-5.564-.34-21.02 0-38.996 13.848-45.744 19.8-16.631 14.658-29.959 25.566-50.115 32.475-39.512 13.541-68.46 28.657-93.861 49.017-25.475 20.421-46.193 51.629-63.338 95.412-26.354 67.293-27.762 139.003-4.414 204.236-4.887 3.254-9.439 6.756-13.711 10.533-9.146 8.086-24.453 21.621-25.121 43.326-.723 23.305 17.066 39.352 22.91 44.622z" fill="#fff"/><g><path d="m893.134 630.525c-7.66-16.17-1.332-34.297.435-51.217 1.769-16.949.167-34.055-3.114-50.707-6.584-33.409-25.311-63.316-48.598-87.609-48.309-50.397-122.428-75.157-191.324-70.656-1.148-3.146-2.512-5.953-4.084-8.428 32.066-24.875 68.466-47.437 90.023-82.736 12.941-21.195 18.135-63.05-12.529-72.365-32.473-9.865-73.523-1.202-104.802 9.643-30.978 10.739-57.372 30.54-78.462 55.233-5.039-40.483-27.787-74.188-56.474-102.239-11.758-11.496-23.54-24.081-40.966-21.688-16.27 2.231-18.856 31.53-20.442 42.671-4.949 34.728 1.196 70.825 16.144 102.539-7.004-5.698-14.227-11.274-21.453-17.013-21.033-16.703-23.549-48.519-53.289-52.195-11.301-1.396-24.697 6.718-32.588 13.674-18.574 16.372-34.228 28.948-58.164 37.153-31.628 10.838-60.357 23.972-86.666 45.06-26.596 21.318-43.848 54.356-56.037 85.484-26.24 67.007-25.981 140.66 3.324 206.095-9.904 4.611-19.208 10.197-27.867 17.857-7.758 6.857-16.728 15.021-17.071 26.172-.329 10.65 7.653 19.488 15.04 26.15 12.789 11.539 28.186 20.135 44.189 26.643-25.3 27.475-60.836 85.115-19.945 113.676 47.676 33.299 114.724-18.047 159.551-32.609.058-.018.104-.049.158-.068 2.567 2.559 5.178 5.07 7.877 7.486 17.076 15.289 36.603 27.627 57.916 36.088 21.197 8.412 43.582 11.867 66.311 12.043 42.436.322 85.17-9.668 122.924-29.076 33.648-17.301 63.489-42.893 83.395-75.199 49.512 25.975 114.781 33.561 166.376 10.227 15.448-6.984 29.093-16.061 41.694-27.365 6.145-5.512 11.795-11.896 16.748-18.492 6.033-8.031 14.657-11.947 23.323-16.65 9.731-5.285 20.11-9.428 25.979-19.139 6.751-11.171-2.774-28.396-7.532-38.443z" fill="#68182b"/><path d="m584.563 439.065c-4.463.519-8.763 1.22-12.813 2.31-6.777 1.827-9.166.502-5.531-6.899 7.411-15.071 18.73-27.012 30.068-31.284 8.211-3.094 17.589-3.087 26.045-5.546 4.383-1.275 9.545-3.756 13.889-7.127 5.834-4.529 7.5-5.198 6.279 2.417-4.168 25.979-13.529 40.984-57.937 46.129z" fill="#b1d045"/><path d="m555.036 457.627c2.59-4.883 6.668-7.818 13.598-10.398 11.408-4.248 25.23-4.19 37.386-6.218 5.887-.977 7.731.481 2.728 6.122-9.133 10.285-18.982 19.914-30.085 27.989-6.955-6.244-17.963-13.854-23.627-17.495z" fill="#b1d045"/><path d="m462.887 303.773c7.907 5.151 15.759 9.982 22.131 17.069 11.985 13.325 12.461 33.538 13.298 47.719.393 6.611-1.289 7.666-3.237 1.288-1.884-6.17-4.163-12.313-6.892-18.434-5.002-11.223-11.439-20.878-18.818-29.587-1.179-1.39-6.852-7.485-12.105-16.305-5.101-8.558-1.978-6.698 5.623-1.75z" fill="#b1d045"/><path d="m504.038 360.829c-.807-11.529-.809-17.735 7.203-27.421 3.275-3.958 7.109-7.372 10.834-10.894 5.817-5.498 7.097-5.823 5.152 2.172-3.303 13.561-8.781 26.596-16.576 38.526-4.379 6.705-5.89 7.902-6.613-2.383z" fill="#b1d045"/><path d="m524.696 414.83c2.445 10.735 7.6 22.098 10.764 31.595-8.287-4.192-16.846-7.876-25.646-10.976 1.56-7.543 4.226-14.594 7.801-21.135 4.597-8.409 5.999-4.228 7.081.516z" fill="#b1d045"/><path d="m539.858 448.681c-3.287-13.621-10.357-26.888-11.845-40.434-1.649-15.057 10.501-29.412 31.481-36.899 7.279-2.598 8.357.22 6.615 5.618-1.207 3.74-1.96 7.635-2.336 11.377-.846 8.421-.474 16.661.355 25.066 1.48 15.008-5.766 24.478-14.465 40.877-3.223-1.943-6.483-3.828-9.805-5.605z" fill="#b1d045"/><path d="m734.579 232.685c4.252 11.336-2.039 20.403-7.021 25.191-9.811 9.415-23.286 14.049-38.594 16.906-5.404 1.01-10.466 2.285-15.234 3.927-8.652 2.98-11.064 4.373-3.667-2.51 16.986-15.812 34.704-30.759 52.79-44.592 7.701-5.889 9.298-5.391 11.726 1.078z" fill="#b1d045"/><path d="m672.736 282.009c12.198-4.175 25.362-4.669 37.614-8.89 5.625-1.938 12.51-5.749 18.335-10.729 5.503-4.71 6.511-4.601 3.511 2.514-5.325 12.638-15.016 24.075-23.762 33.302-13.363 14.102-20.715 18.148-68.712 25.193-2.771.407-5.989.998-9.38 1.822-7.709 1.87-9.57 1.837-2.98-5.721 15.709-18.018 28.666-31.775 45.374-37.491z" fill="#b1d045"/><path d="m640.009 372.169c2.014 4.493.25 9.028-3.99 13.58-1.92 2.061-4.246 3.908-7.305 5.576-7.234 3.943-16.301 4.98-24.305 6.319-1.963.327-3.926.775-5.865 1.341-6.598 1.929-6.908.335-2.141-5.821 9.301-12.007 19.273-23.497 29.945-34.376 5.716 2.325 10.571 6.486 13.661 13.381z" fill="#b1d045"/><path d="m604.718 346.2c9.807-12.156 17.484-15.4 59.098-21.351 1.524-.218 3.084-.463 4.668-.741 14.764-2.583 10.412.44 1.925 6.845-10.261 7.749-20.708 15.261-30.792 23.053-9.138-7.673-21.587-9.48-34.899-7.806z" fill="#b1d045"/><path d="m612.622 364.13c-14.102 15.419-26.928 31.924-38.535 49.272-3.75 5.603-5.283 4.394-6.372-6.227-1.32-12.854.333-23.589 5.034-33.841 5.232-11.418 21.68-17.241 37.487-17.178 9.54.039 6.509 3.469 2.386 7.974z" fill="#b1d045"/><path d="m693.108 213.944c8.627-.304 16.99.136 24.029 2.425 9.09 2.96 6.004 7.104-.407 12.052-29.403 22.711-57.78 48.25-83.606 75.617-6.145 6.513-9.458 10.482-7.019-.45 2.829-12.686 3.724-26.212 6.284-39.134 2.842-14.341 9.006-27.436 19.027-38.134 9.439-10.08 23.059-11.713 41.692-12.376z" fill="#b1d045"/><path d="m643.89 228.5c-4.373 5.381-7.945 11.523-10.548 18.202-5.896 15.141-7.66 31.479-9.843 47.48-3.85 28.258-6.967 26.631-28.26 53.723-13.636 3.182-27.524 9.283-39.191 15.884 6.512-11.84 8.662-26.531 8.387-39.498-.328-15.406-3.541-30.511-1.387-45.938 3.713-26.588 32.535-44.924 78.672-57.037 9.609-2.524 7.287.889 2.17 7.184z" fill="#b1d045"/><path d="m559.558 275.513c-1.109 5.914-1.521 12.052-1.426 18.156.236 15.384 3.242 30.499 2.34 45.934-.275 4.718-1.371 9.096-3.02 13.228-4.777 11.99-11.607 16.676-19.639 22.979-12.531 9.836-23.531 21.927-30.768 35.943-3.779 7.314-4.967 11.171-5.246-.884-.15-6.327-.691-12.587-1.621-18.789 28.956-27.475 42.575-66.044 41.604-105.385.254-.22.502-.467.737-.766 3.71-4.71 7.577-9.149 11.581-13.343 6.146-6.44 6.93-4.916 5.458 2.927z" fill="#b1d045"/><path d="m525.669 314.004c-3.834 4.486-8.574 8.35-12.695 12.387-1.896 1.857-3.904 4.003-5.797 6.35-4.07 5.043-5.736 5.288-7.125-2.765-4.641-26.895-8.557-30.077-5.883-39.852 1.596-5.807 6.448-11.253 9.947-16.057 4.836-6.631 9.246-13.255 12.332-20.888.582-1.44 1.088-2.956 1.516-4.529 2.229-8.187 3.426-8.845 6.459-.625 13.443 36.506 11.123 54.444 1.246 65.979z" fill="#b1d045"/><path d="m516.229 236.501c-.074 10.599-4.133 19.86-9.812 28.559-2.646 4.052-6.362 8.47-9.635 13.161-5.519 7.902-5.083 9.774-8.714-1.448-6.988-21.61-16.02-36.748-9.418-55.063 2.549-7.065 6.152-13.16 7.647-20.604.278-1.38.448-2.785.521-4.204.375-7.438 2.188-7.584 6.545-2.672.455.512.907 1.024 1.359 1.537 15.211 17.301 21.602 26.942 21.507 40.734z" fill="#b1d045"/><path d="m482.814 188.152c2.458 10.593-1.831 20.163-5.961 29.62-3.001 6.882-3.007 4.791-6.216-5.231-5.209-16.271-11.258-32.282-18.809-47.265-2.67-5.303-1.955-7.793 3.293-6.829 18.11 3.323 26.368 23.999 27.693 29.705z" fill="#b1d045"/><path d="m437.864 169.051c2.81-9.865 6.676-4.338 9.488 1.424 10.148 20.79 17.373 43.49 23.729 65.973 4.104 14.507-1.102 8.38-9.392 2.633-9.402-6.521-17.583-14.321-23.407-24.225-9.945-16.906-5.326-28.586-.418-45.805z" fill="#b1d045"/><path d="m436.381 217.927c2.246 3.797 4.834 7.347 7.644 10.534 5.949 6.751 13.547 12.08 20.961 17.075 13.178 8.868 18.773 30.418 25.203 64.754 2.139 11.4-1.459 7.264-10.619-.115-6.805-5.483-14.63-9.632-21.749-14.685-18.55-13.168-23.92-31.09-25.938-77.187-.476-10.881 1.837-4.879 4.498-.376z" fill="#b1d045"/><path d="m136.462 420.649c20.646-66.867 67.399-111.908 133.236-133.749 23.266-7.72 42.107-16.427 59.977-33.457 16.531-15.756 39.53-30.671 55.613-2.682 6.184 10.76 10.962 19.856 19.996 28.546 21.951 21.121 46.631 34.3 64.277 60.322 17.951 26.473 24.48 58.67 21.106 90.098-3.482-.866-6.983-1.678-10.521-2.366-9.291-1.806-18.71-2.976-28.159-3.511-45.206-2.271-90.983 7.51-128.783 33.133-33.912 22.984-59.171 56.419-74.849 94.046-4.892 11.738-8.995 24.053-12.179 36.674-26.855 2.459-53.662 5.793-79.294 14.539-4.515 1.541-8.915 3.131-13.212 4.832-27.298-60.281-26.628-123.536-7.208-186.425z" fill="#fac135"/><path d="m138.069 684.777c5.609-2.521 10.949-6.379 15.131-9.326 29.316-20.668 42.026-13.551 76.955-2.328.049.396.082.797.134 1.195.261 1.967.599 3.92.924 5.875-5.665 1.305-11.821 7.697-15.325 10.787-23.191 20.453-41.859 19.988-77.857.838-6.946-3.695-5.247-4.668.038-7.041z" fill="#b1d045"/><path d="m206.241 657.682c-6.555-3.861-10.209-11.516-13.995-17.797-4.89-8.115-11.505-14.426-19.749-19.041-3.365-1.883-7.402-3.307-11.76-4.211-3.801-.795-8.172-1.926.961-4.875 20.563-6.648 43.517-11.541 62.867-12.902 9.041-.639 8.778 1.203 7.877 6.186-3.661 20.287-4.875 41.033-3.046 61.207-12.208-2.669-20.433-6.964-23.155-8.567z" fill="#b1d045"/><path d="m204.17 705.617c5.501-2.848 10.2-7.514 14.777-11.578 3.933-3.49 8.863-5.824 13.19-8.678 1.666 8.553 3.924 16.975 6.739 25.213-11.386 1.584-23.075 1.834-34.746.834-7.824-.67-5.113-3.125.04-5.791z" fill="#b1d045"/><path d="m112.415 637.629c15.889-14.328 47.872-29.393 71.811-2.828 4.984 5.531 8.543 12.211 12.734 17.934 4.188 5.713.725 4.996-3.525 4.105-27.33-5.729-55.472-8.432-83.146-7.434-5.89.213-9.075-1.02-3.37-6.705 1.848-1.846 3.796-3.541 5.496-5.072z" fill="#b1d045"/><path d="m106.456 655.893c19.055-.924 38.309-.072 57.392 2.365 9.202 1.174 7.493 1.811.679 5.303-5.676 2.908-10.875 6.779-16.104 10.383-15.647 10.779-34.082 16.748-45.751-8.492-2.546-5.514-1.909-9.278 3.784-9.559z" fill="#b1d045"/><path d="m166.425 714.496c24.648 7.445 50.674 9.861 76.199 6.092 4.172 10.33 9.197 20.316 15.016 29.83-23.714 6.295-33.824 4.084-38.588 3.254-7.549-1.309-14.614-4.426-21.332-7.998-10.849-5.771-20.461-10.732-32.928-11.891-4.365-.406-11.003.143-17.741 1.766-7.777 1.873-9.854 1.396-3.603-6.303 3.352-4.127 6.873-8.066 10.396-11.801 5.221-5.529 7.036-4.625 12.581-2.949z" fill="#b1d045"/><path d="m144.241 740.264c13.016-4.818 27.916-3.455 42.209 3.473 7.438 3.605 15.504 8.475 23.881 11.787 6.73 2.666 4.249 4.066-1.134 5.539-26.234 7.174-51.747 16.869-75.19 30.539-9.089 5.299-11.963 4.357-12.293-10.621-.511-23.079 8.719-35.604 22.527-40.717z" fill="#b1d045"/><path d="m136.788 797.299c12.186-7.125 24.933-13.15 38.052-18.289 7.399-2.902 8.491-1.992 6.019 2.111-6.115 10.154-7.207 20.979-11.896 29.83-6.672 12.584-20.008 14.932-35.035.992-5.056-4.687-6.74-9.029 2.86-14.644z" fill="#b1d045"/><path d="m172.433 813.293c1.465-2.648 2.643-5.314 3.512-7.568 3.313-8.578 4.771-17.369 9.621-25.359 7.313-12.037 24.781-14.832 47.035-18.857 8.021-1.453 8.59.133 4.391 6.244-.963 1.404-1.846 2.811-2.64 4.18-4.089 7.053-6.928 14.807-10.444 22.146-7.678 16.004-21.293 21.848-45.322 25.77-9.911 1.612-9.659-.216-6.153-6.556z" fill="#b1d045"/><path d="m227.809 795.781c.973-2.014 1.874-4.037 2.722-6.02 10.377-24.266 19.703-31.699 30.729-33.594 5.684 8.639 12.043 16.826 18.948 24.52-14.688 5.219-29.161 12.213-43.741 18.941-12.075 5.575-12.984 5.101-8.658-3.847z" fill="#b1d045"/><path d="m561.917 792.234c-2.725 1.848-5.49 3.627-8.299 5.342-14.361 8.783-16.441 7.25-4.907-4.318 20.544-20.605 37.839-44.971 49.972-71.441 11.985-26.145 16.771-53.711 20-82.111 3.193-28.09 3.809-56.697-1.613-84.561-.718-3.691-1.557-7.342-2.514-10.947-4.063-15.33-1.729-15.668 5.91-1.248 3.974 7.506 7.463 15.291 10.408 23.324 15.227 41.537 17.307 89.652 3.689 131.918-12.479 38.74-39.166 71.343-72.646 94.042z" fill="#fac135"/><path d="m861.284 683.439c-10.2 5.639-14.639 10.564-22.021 19.643-11.527 14.182-26.225 25.254-42.184 33.941-49.55 26.979-116.234 19.873-165.266-5.76.273-.51.57-1.004.84-1.516 21.654-41.309 25.961-90.469 16.91-135.863-8.638-43.324-31.416-82.059-62.934-111.611 17.463-13.227 31.764-29.772 45.476-46.843 12.438-15.484 23.538-34.52 20.999-54.688 63.202-3.445 126.496 18.077 173.773 60.421 24.018 21.514 41.566 49.188 50.869 79.995 5.133 17 6.378 34.775 5.699 52.426-.602 15.639-5.635 31.16-4.34 46.859.787 9.568 6.693 18.494 10.139 27.184 8.619 21.728-13.729 27.945-27.96 35.812z" fill="#fac135"/><path d="m442.377 785.785c-7.495 5.584-18.14 6.262-27.22 6.055-12.111-.273-24.141-2.76-35.635-6.504-11.656-3.799-23.821-9.076-32.982-17.432-3.229-2.941-6.381-6.693-7.496-10.176-1.181-3.688-.84-6.211 1.184-9.674 7.822-12.832 17.318-24.727 26.719-36.42 10.764-13.389 21.852-26.588 33.688-39.047 4.21-4.434 8.242-8.518 12.631-12.221 8.156-6.873 11.858-4.463 13.512 3.756 2.483 12.336 4.555 24.711 7.401 36.979 4.466 19.244 10.378 38.342 13.181 57.934 1.424 9.957 2.967 20.83-4.983 26.75z" fill="#ffe10e"/><path d="m290.165 704.498c-5.854-9.047-9.738-19.254-12.451-29.641-2.9-11.107-4.619-22.842-3.551-34.332 1.317-14.15 6.484-17.111 20.064-18.713 11.827-1.395 23.979-.955 35.741-.203 15.507.984 31.005 2.936 46.236 6.029 3.096.631 6.214 1.275 9.284 2.076 8.41 2.18 9.439 7.42 2.273 13.811-13.275 11.836-25.551 24.65-36.637 38.561-7.094 8.904-13.67 18.352-21.887 26.289-13.628 13.166-28.629 12.258-39.072-3.877z" fill="#ffe10e"/><path d="m298.185 551.357c4.771-10.289 11.429-19.723 18.885-28.227 7.887-8.992 16.834-17.557 27.236-23.588 3.637-2.107 7.483-4.058 11.719-4.586 2.467-.311 3.951-.015 5.652 1.921 7.95 9.615 13.904 21.181 19.748 32.134 7.243 13.568 13.976 27.426 20.195 41.496 3.121 7.059 6.719 14.482 9.156 22.059 3.525 10.971 1.108 12.691-8.518 9.969-8.987-2.543-17.855-5.207-27.143-6.85-18.524-3.281-37.455-3.574-55.939-6.959-8.961-1.641-21.844-4.102-24.895-13.277-2.52-7.586.551-16.859 3.904-24.092z" fill="#ffe10e"/><path d="m528.31 547.104c3.469-3.596 7.314-7.68 11.812-9.984 2.776-1.422 5.177-1.703 7.958-.852 6.971 2.129 12.6 9.994 16.46 16.65 5.685 9.811 9.53 20.625 12.333 31.582 3.021 11.814 4.962 24.189 4.133 36.414-.275 4.061-1.172 9.18-2.672 12.271-1.623 3.346-2.99 4.539-5.518 5.123-13.164 2.6-27.594.688-40.768-.893-15.697-1.883-31.313-4.719-46.742-8.152-3.52-.783-7.041-1.592-10.54-2.479-9.821-2.484-12.493-7.084-3.034-15.914 5.85-5.465 11.795-10.822 17.322-16.648 5.744-6.059 11.223-12.361 16.445-18.873 7.557-9.427 14.402-19.533 22.811-28.245z" fill="#ffe10e"/><path d="m559.634 710.598c-5.334 10.482-12.305 20.125-20.109 28.9-6.469 7.271-13.578 14.309-21.573 19.986-14.868 10.537-22.228 10.922-30.587-5.008-3.75-7.146-6.654-14.92-9.457-22.094-5.783-14.797-10.77-29.918-15.268-45.154-2.221-7.52-4.437-15.092-6.152-22.76-3.005-13.418-2.223-13.563 12.789-9.381 8.447 2.35 16.992 4.338 25.612 5.996 17.345 3.332 35.198 4.822 52.228 9.641 8.948 2.529 17.462 5.313 18.926 14.637 1.259 8.008-2.62 17.789-6.409 25.237z" fill="#ffe10e"/><path d="m605.069 549.504c-9.51-38.949-28.904-65.363-52.738-81.165-29.732-19.716-64.457-31.924-100.344-33.956-11.546-.58-23.109-.467-34.625.578-40.958 3.721-80.127 20.119-110.289 48.266-28.209 26.325-47.571 60.938-58.105 97.872-11.214 39.32-13.995 82.275-1.664 121.635 13.379 42.705 42.508 80.58 80.228 104.633 18.665 11.904 39.403 20.385 61.233 24.25 44.953 7.953 98.166-2.096 129.59-25.668 11.465-8.602 21.945-18.598 31.398-29.1 18.127-20.135 33.395-43.543 43.451-68.756 10.112-25.354 13.788-52.998 16.115-80.045 2.252-26.183 2.012-52.896-4.25-78.544zm-195.581-82.699c8.744-5.77 20.366-6.679 30.54-6.304 12.685.465 25.398 3.075 37.409 7.125 15.347 5.177 44.663 17.093 42.254 37.708.011.438-.019.895-.124 1.375-3.904 17.891-16.063 34.381-26.614 48.91-10.146 13.971-20.997 27.506-32.491 40.391-3.945 4.42-7.948 9.695-13.381 12.34-7.941 3.867-14.181-1.809-17.117-8.963-4.658-11.348-7.137-23.953-10.67-35.711-2.736-9.098-5.55-18.172-8.337-27.256-4.375-14.264-9.231-28.793-11.712-43.537-1.74-10.342 1.242-20.137 10.243-26.078zm-116.678 72.08c6.552-11.467 15.016-22.01 24.414-31.26 8.257-8.127 17.659-15.958 28.428-20.487 7.168-3.013 16.27-4.367 22.379 1.302.379.263.747.574 1.092.992 10.719 12.961 18.553 28.498 26.163 43.396 8.421 16.484 16.378 33.32 23.048 50.598 3.012 7.797 10.523 24.621 1.35 30.748-7.184 4.797-19.086-1.482-26.109-3.482-11.811-3.359-23.914-5.58-36.102-7.031-18.98-2.266-39.423-2.037-57.371-9.35-10.183-4.148-16.662-12.283-17.193-23.426-.534-11.205 4.471-22.494 9.901-32zm5.211 187.84c-9.398-4.883-16.059-14.441-20.818-23.605-5.764-11.092-9.66-23.248-11.861-35.535-2.73-15.27-6.17-46.707 13.137-53.385.379-.195.789-.363 1.261-.477 19.757-4.775 40.954-3.691 61.015-1.785 17.045 1.617 34.828 3.625 51.258 8.689 5.916 1.826 14.187 4.734 15.563 11.639 2.006 10.072-11.947 18.203-18.052 23.881-13.403 12.467-25.341 26.098-36.55 40.541-12.389 15.962-31.799 42.07-54.953 30.037zm160.959 47.836c-.669 11.346-7.804 19.729-18.113 23.912-11.155 4.525-23.974 4.547-35.761 3.188-14.351-1.656-28.33-5.445-41.574-11.205-17.098-7.434-45.434-25.398-32.398-47.715 10.123-16.611 22.779-31.895 35.139-46.863 11.771-14.26 23.749-29.486 37.928-41.477 6.98-5.902 19.543-18.381 27.521-7.535 6.295 8.555 6.434 21.9 8.4 31.889 2.549 12.941 5.637 25.762 8.831 38.557 2.608 10.441 5.315 20.873 7.304 31.455 1.568 8.331 3.225 17.28 2.723 25.794zm117.687-84.131c-.764 11.799-6.117 23.088-12.169 33.047-7.039 11.588-15.759 22.316-25.455 31.781-9.756 9.529-35.71 33.141-50.309 19.445-.378-.262-.753-.57-1.101-.986-10.834-12.908-16.854-30.16-22.622-45.748-6.542-17.678-12.257-35.727-17.001-53.971-1.22-4.693-2.334-9.393-3.168-14.17-1.023-5.881-3.5-14.381 2.872-18.221 3.256-1.961 7.38-1.369 10.882-.594 6.438 1.426 12.721 3.797 19.115 5.449 11.506 2.971 23.177 5.178 34.904 7.078 16.816 2.723 36.301 3.922 51.504 12.35 8.982 4.981 13.196 14.506 12.548 24.54zm13.887-61.563c-1.467 7.932-5.484 16.457-13.582 19.127-.404.199-.842.369-1.355.471-17.653 3.486-36.682.588-54.268-1.932-18.045-2.588-36.15-5.932-53.746-10.748-5.594-1.533-13.029-3.119-16.23-8.41-5.596-9.258 6.87-18.066 12.555-23.277 14.527-13.313 27.747-27.76 39.747-43.377 11.529-15.002 31.038-45.813 53.518-31.756 9.272 5.799 15.499 15.971 20.101 25.613 5.725 11.994 9.725 24.854 12.102 37.92 2.162 11.906 3.376 24.377 1.158 36.369z" fill="#fbf199"/><path d="m411.718 478.723c4.559-5.687 13.436-7.257 20.846-7.649 10.741-.565 21.514 1.043 31.898 3.698 11.457 2.931 22.828 7.14 32.786 13.611 3.427 2.228 7.469 5.459 9.563 8.271 1.096 1.47 1.883 2.982 2.195 3.894.574 1.664.544 2.617.406 3.363-2.98 13.654-11.559 26.166-19.309 37.535-8.752 12.838-18.348 25.094-28.346 36.984-3.238 3.854-6.521 7.672-9.893 11.414-7.889 8.748-10.495 12.045-13.996-.127-1.766-6.123-3.505-12.252-5.305-18.367-2.687-9.129-5.453-18.232-8.25-27.33-4.129-13.416-8.383-26.811-11.824-40.428-1.346-5.318-3.266-10.98-3.303-16.505-.021-3.242.905-6.336 2.532-8.364z" fill="#ffe10e"/><path d="m233.759 692.385c-2.783 8.602-9.758 15.768-18.092 19.551 7.808.111 15.578-.301 23.21-1.361-2.038-5.968-3.676-12.054-5.118-18.19z" fill="#abab38"/><path d="m232.601 761.508c-5.755 1.041-11.17 2.006-16.193 3.063-2.316 5.479-2.555 11.834-3.219 18.736-2.021 21.01-19.982 30.219-37.729 36.965.909-.094 1.937-.23 3.126-.424 24.029-3.922 37.645-9.766 45.322-25.77 3.517-7.34 6.355-15.094 10.444-22.146.794-1.369 1.677-2.775 2.64-4.18 4.198-6.111 3.629-7.697-4.391-6.244z" fill="#abab38"/><path d="m210.331 755.523c-7.316-2.895-14.373-6.934-21.004-10.324-4.801 13.289-15.824 19.281-29.585 25.5-11.182 5.059-21.212 11.725-27.655 21.967.61-.322 1.242-.67 1.92-1.064 23.443-13.67 48.956-23.365 75.19-30.539 5.383-1.473 7.865-2.874 1.134-5.54z" fill="#abab38"/><path d="m632.39 264.455c-2.561 12.922-3.455 26.448-6.284 39.134-2.439 10.933.874 6.963 7.019.45 3.211-3.402 6.461-6.773 9.746-10.118-6.803-19.666 2.887-39.188 16.297-54.271 5.305-5.967 12.56-12.403 20.59-17.94 1.053-.66 2.053-1.384 3.135-2.01 2.754-1.59 5.729-3.408 8.816-5.154.406-.208.814-.391 1.224-.593-18.542.667-32.106 2.32-41.515 12.368-10.022 10.698-16.187 23.793-19.028 38.134z" fill="#abab38"/><path d="m457.82 295.49c7.119 5.052 14.944 9.201 21.749 14.685 9.16 7.379 12.758 11.515 10.619.115-.354-1.886-.703-3.719-1.053-5.527-4.592-7.07-11.027-12.965-18.613-17.194-12.338-6.878-21.887-12.303-28.943-25.273-3.971-7.298-6.615-15.329-8.377-23.55 2.827 31.337 9.111 45.735 24.618 56.744z" fill="#abab38"/><path d="m116.871 649.279c25.546-.385 51.396 2.285 76.563 7.561 4.25.891 7.714 1.607 3.525-4.105-4.191-5.723-7.75-12.402-12.734-17.934-1.144-1.268-2.31-2.414-3.488-3.498-2.623 4.314-5.426 8.113-10.6 10.936-6.516 3.557-14.734 3.598-21.953 3.738-10.338.207-21.548-.639-31.313 3.302z" fill="#abab38"/><path d="m229.772 721.902c-8.646 10.168-21.256 14.434-35.906 14.123-10.558-.223-21.293-4.289-31.594-2.328.873.016 1.769.018 2.52.086 12.467 1.158 22.079 6.119 32.928 11.891 6.718 3.572 13.783 6.689 21.332 7.998 4.764.83 14.874 3.041 38.588-3.254-5.818-9.514-10.844-19.5-15.016-29.83-4.271.633-8.561 1.027-12.852 1.314z" fill="#abab38"/><path d="m564.435 324.292c.275 12.967-1.875 27.658-8.387 39.498 4.834-2.736 10.061-5.369 15.48-7.759 1.553-1.971 2.954-4.042 4.079-6.261 6.456-12.741-.132-30.645-3.239-43.282-5.834-23.705 3.548-43.04 20.553-59.222 7.062-6.72 15.527-13.195 24.611-18.42-31.92 11.792-51.471 27.931-54.484 49.509-2.154 15.426 1.058 30.53 1.387 45.937z" fill="#abab38"/><path d="m257.911 756.957c3.346 15.041-4.963 30.195-16.664 40.455 12.967-6.021 25.88-12.076 38.96-16.725-6.905-7.693-13.265-15.881-18.948-24.52-1.134.196-2.246.468-3.348.79z" fill="#abab38"/><path d="m582.981 362.734c-4.602 2.711-8.238 6.245-10.232 10.602-4.701 10.252-6.354 20.987-5.034 33.841 1.089 10.62 2.622 11.829 6.372 6.227 1.576-2.355 3.232-4.655 4.854-6.978.051-1.02.023-2.032-.113-3.016-1.318-9.46-3.873-17.727-2.084-27.357.946-5.11 3.208-9.477 6.237-13.319z" fill="#abab38"/><path d="m528.014 408.248c1.487 13.545 8.558 26.813 11.845 40.434 3.321 1.777 6.582 3.662 9.807 5.605.588-1.108 1.148-2.114 1.72-3.165.843-10.123-2.546-19.004-6.565-28.267-6.66-15.353-9.826-29.552-1.446-43.225-10.81 7.756-16.523 18.006-15.361 28.618z" fill="#abab38"/><path d="m230.155 673.123c-2.201-.707-4.313-1.396-6.348-2.068-8.141 1.551-16.049 5.486-23.113 9.738-18.242 10.975-35.701 20.311-55.762 14.563 31.572 15.572 49.297 14.727 70.955-4.375 3.504-3.09 9.66-9.482 15.325-10.787-.325-1.955-.663-3.908-.924-5.875-.051-.399-.084-.799-.133-1.196z" fill="#abab38"/><path d="m510.651 363.213c6.461-9.885 11.24-20.557 14.598-31.631-8.504 7.032-14.534 17.104-19.203 26.88-.432.905-1.131 2.287-1.885 3.91.77 8.582 2.346 7.185 6.49.841z" fill="#abab38"/><path d="m519.372 428.149c-2.947-2.816-3.799-6.278-3.743-9.877-2.573 5.408-4.564 11.126-5.815 17.177 8.801 3.1 17.359 6.784 25.646 10.976-.93-2.789-2.037-5.751-3.19-8.802-.411-.356-.798-.716-1.259-1.063-3.944-2.977-7.971-4.908-11.639-8.411z" fill="#abab38"/><path d="m174.84 779.01c-2.271.889-4.513 1.842-6.761 2.785-1.248 2.879-2.146 6.123-2.74 10.039-1.809 11.953-2.051 24.832-13.253 29.535 7.163.551 13.093-3.283 16.876-10.418 4.689-8.852 5.781-19.676 11.896-29.83 2.473-4.103 1.381-5.014-6.018-2.111z" fill="#abab38"/><path d="m571.751 441.375c4.05-1.09 8.35-1.792 12.813-2.31 40.941-4.743 52.078-17.891 56.836-40.271-2.48 5.381-5.546 10.369-9.984 14.935-8.563 8.808-21.506 12.776-33.047 15.744-9.977 2.567-20.397 3.24-30.092 6.799-1.296.475-2.426 1.114-3.455 1.849-1.052 4.095 1.493 4.719 6.929 3.254z" fill="#abab38"/><path d="m604.771 451.439c-9.91 5.554-22.801 5.618-34.213 5.702-4.587.035-8.608 1.004-12.238 2.649 5.985 4.013 14.551 10.13 20.343 15.33 9.525-6.927 18.09-15.033 26.108-23.681z" fill="#abab38"/><path d="m630.343 325.221c3.391-.825 6.609-1.415 9.38-1.822 47.997-7.045 55.349-11.091 68.712-25.193 4.818-5.083 9.9-10.857 14.402-17.112-16.096 15.419-37.063 22.81-61.031 25.091-8.324.792-19.088 2.448-28.316 6.383-2.005 2.234-4.039 4.54-6.127 6.934-6.591 7.556-4.729 7.589 2.98 5.719z" fill="#abab38"/><path d="m470.651 323.44c6.828 8.293 12.834 17.424 17.535 27.975 2.729 6.121 5.008 12.264 6.892 18.434 1.948 6.378 3.63 5.324 3.237-1.288-.257-4.369-.483-9.31-1.02-14.446-.773-1.656-1.545-3.215-2.273-4.53-6.057-10.948-14.843-18.923-24.371-26.145z" fill="#abab38"/><path d="m148.423 673.943c5.229-3.604 10.428-7.475 16.104-10.383 6.814-3.492 8.523-4.129-.679-5.303-1.51-.193-3.028-.311-4.54-.484-3.229 1.947-6.223 4.404-9.076 6.727-13.561 11.027-26.672 13.572-42.438 9.537 11.521 14.895 27.11 9.219 40.629-.094z" fill="#abab38"/><path d="m673.729 278.709c4.769-1.642 9.83-2.917 15.234-3.927 15.308-2.857 28.783-7.491 38.594-16.906 2.98-2.865 6.414-7.271 7.793-12.77-4.797 4.729-11.08 8.055-17.789 10.808-9.616 3.945-21.521 8.709-32.056 6.368-5.202 4.566-10.364 9.188-15.443 13.917-7.397 6.884-4.985 5.491 3.667 2.51z" fill="#abab38"/><path d="m609.681 345.739c11.42-.667 21.943 1.557 29.936 8.267 8.84-6.829 17.948-13.463 26.975-20.21-12.607.078-25.07 1.282-37.39 4.349-6.162 1.534-13.656 3.776-19.521 7.594z" fill="#abab38"/><path d="m501.8 410.869c.279 12.056 1.467 8.199 5.246.884.555-1.076 1.172-2.119 1.771-3.172 4.151-20.055 18.546-36.075 26.384-55.459 6.721-16.612 11.756-41.051 6.594-59.544-.693 36.924-14.35 72.633-41.615 98.503.928 6.201 1.469 12.461 1.62 18.788z" fill="#abab38"/><path d="m488.069 276.772c3.631 11.223 3.195 9.351 8.714 1.448 3.272-4.69 6.989-9.108 9.635-13.161 5.679-8.699 9.737-17.959 9.812-28.559.086-12.683-5.404-21.929-18.1-36.776 3.041 5.401 5.301 11.056 5.801 17.831.84 11.418-6.502 22.296-11.475 32.009-3.623 7.071-5.758 14.557-6.111 22.102.582 1.668 1.16 3.359 1.724 5.106z" fill="#abab38"/><path d="m511.215 309.196c-4.614 5.428-9.181 11.401-11.692 17.848.176.965.35 1.901.529 2.934 1.389 8.053 3.055 7.808 7.125 2.765 1.893-2.347 3.9-4.493 5.797-6.35 4.121-4.038 8.861-7.901 12.695-12.387 9.473-11.062 11.955-28.063.285-61.63 1.869 9.754 3.361 19.469 1.609 29.55-1.865 10.725-9.558 19.284-16.348 27.27z" fill="#abab38"/><path d="m438.282 214.856c5.824 9.904 14.005 17.704 23.407 24.225 8.29 5.747 13.495 11.875 9.392-2.633-.809-2.861-1.633-5.727-2.475-8.59-6.693 6.065-18.832-5.474-23.967-10.958-6.178-6.597-10.615-15.719-12.121-24.984-.556 7.237.754 14.426 5.764 22.94z" fill="#abab38"/><path d="m467.721 164.362c9.493 13.813 10.03 31.784 2.518 46.993.13.396.271.79.399 1.187 3.209 10.021 3.215 12.113 6.216 5.231 4.13-9.458 8.419-19.027 5.961-29.62-.965-4.157-5.636-16.242-15.094-23.791z" fill="#abab38"/><path d="m172.497 620.844c8.244 4.615 14.859 10.926 19.749 19.041 3.786 6.281 7.44 13.936 13.995 17.797 2.722 1.604 10.947 5.898 23.155 8.566-.565-6.246-.809-12.551-.809-18.877-5.065-.035-10.114-1.264-15.005-4.111-7.971-4.639-13.944-12.682-20.893-18.633-6.807-5.826-18.967-10.357-27.896-6.949 2.8.838 5.415 1.886 7.704 3.166z" fill="#abab38"/><path d="m598.544 398.985c1.939-.566 3.902-1.014 5.865-1.341 8.004-1.339 17.07-2.375 24.305-6.319 3.059-1.668 5.385-3.515 7.305-5.576 4.24-4.552 6.004-9.087 3.99-13.58-.015-.033-.031-.06-.048-.092-7.38 14.884-26.567 10.945-40.943 17.809-.866 1.097-1.759 2.174-2.614 3.279-4.768 6.156-4.458 7.75 2.14 5.82z" fill="#abab38"/><path d="m600.933 318.847c8.254-11.167 9.614-24.33 11.117-37.743.842-7.506 1.946-14.925 3.802-22.248 2.259-8.915 7.28-15.094 11.708-22.813.18-.313-.17-.628-.473-.474-11.68 5.992-16.752 21.041-19.054 33.103-3.157 16.538-4.025 33.329-8.214 49.706-.18.707.717 1.003 1.114.469z" fill="#d7e338"/><path d="m662.19 263.951c5.901-6.275 11.319-12.646 18.189-17.935 7.064-5.437 14.596-10.397 21.954-15.429.53-.364.216-1.298-.454-1.084-15.164 4.83-38.317 16.137-40.111 34.272-.019.219.283.324.422.176z" fill="#d7e338"/><path d="m723.606 239.693c.225-.537-.525-.811-.88-.512-5.204 4.397-11.085 8.252-16.661 12.171-.291.204-.193.662.184.675 7.696.251 14.482-5.472 17.357-12.334z" fill="#d7e338"/><path d="m659.695 296.298c-.112.179.074.434.28.364 7.382-2.54 14.4-5.375 22.055-7.119 8.408-1.919 16.039-3.867 23.447-8.434.555-.341.185-1.149-.431-1.022-13.949 2.905-36.734 2.698-45.351 16.211z" fill="#d7e338"/><path d="m629.62 366.517c-2.682 1.783-5.367 3.458-7.888 5.471-2.183 1.747-6.124 3.67-7.091 6.442-.094.273.107.572.369.648 2.857.831 6.129-1.894 8.314-3.415 3.115-2.172 5.314-5.056 7.038-8.404.237-.452-.259-1.063-.742-.742z" fill="#d7e338"/><path d="m626.056 403.291c-13.053 4.704-38.919 4.963-44.35 21.018-.084.249.208.417.412.314 7.529-3.772 14.254-7.65 22.472-10.034 8.423-2.443 14.872-4.992 21.909-10.246.48-.359.222-1.291-.443-1.052z" fill="#d7e338"/><path d="m585.181 387.154c1.627-4.717 2.949-9.808 5.066-14.31.418-.889 5.006-6.36 3.496-7.224-3.695-2.114-7.814 3.797-9.164 6.502-2.533 5.072-2.234 9.799-.543 15.032.186.572.951.555 1.145 0z" fill="#d7e338"/><path d="m549.914 386.105c.097-.49-.411-1-.893-.689-12.409 8.026.458 27.938 3.947 37.546.181.493 1.034.629 1.144 0 2.194-12.857-6.787-23.728-4.198-36.857z" fill="#d7e338"/><path d="m499.927 296.247c5.232-.932 9.26-6.981 12.326-10.898 3.906-4.988 5.748-10.221 7.838-16.093.33-.932-.969-1.294-1.473-.622-3.438 4.591-7.277 8.75-10.568 13.471-2.814 4.042-7.78 8.736-8.57 13.695-.045.284.158.498.447.447z" fill="#d7e338"/><path d="m483.364 240.991c6.908-6.424 15.046-20.79 9.007-30.13-.204-.314-.683-.345-.88 0-2.212 3.88-2.275 8.775-3.316 13.078-1.337 5.538-3.65 11.221-5.721 16.523-.209.539.543.869.91.529z" fill="#d7e338"/><path d="m491.69 235.456c-2.012 1.469-4.822 4.626-4.812 7.257 0 .168.142.317.313.313 3.07-.068 5.567-4.388 5.216-7.158-.039-.315-.39-.653-.717-.412z" fill="#d7e338"/><path d="m469.814 267.083c.615-.076.985-.898.341-1.257-7.373-4.097-13.182-8.094-18.307-14.896-3.2-4.247-6.291-11.087-11.444-13.242-.229-.095-.401.17-.364.364 1.221 6.354 6.912 14.096 10.931 19.056 4.878 6.018 10.717 10.979 18.843 9.975z" fill="#d7e338"/><path d="m470.187 273.626c.213-.168.201-.573 0-.744-2.04-1.73-5.617-1.56-8.184-2.051-.271-.054-.529.218-.371.483 1.592 2.658 5.943 4.402 8.555 2.312z" fill="#d7e338"/><path d="m454.188 209.104c.268-.042.482-.36.471-.619-.223-4.266-4.844-8.896-6.43-12.944-2.246-5.733-2.508-12.062-4.81-17.725-.181-.442-.749-.462-.921 0-2.364 6.332-.246 14.335 1.869 20.461 1.368 3.961 4.586 11.636 9.821 10.827z" fill="#d7e338"/><path d="m444.675 205.291c.17-.033.311-.196.355-.356.299-1.043-.244-2.036-.759-2.929-.771-1.337-1.267-2.933-2.415-4.002-.377-.35-.975-.198-1.127.298-.672 2.178.975 7.548 3.946 6.989z" fill="#d7e338"/><path d="m467.823 193.982c.223.475.848.181.889-.241.807-8.217-.344-19.253-6.95-25.122-.422-.374-.952 0-.88.512.61 4.272 2.336 8.327 3.211 12.562.904 4.4 1.824 8.218 3.73 12.289z" fill="#d7e338"/><path d="m604.157 422.146c2.578-.537 4.125-1.781 5.611-3.842.268-.37-.17-.775-.538-.701-1.876.376-3.415.765-5.216 1.46-1.717.663-3.512 1.323-5.306 1.732-.368.082-.446.638-.106.811 1.836.942 3.555.958 5.555.54z" fill="#d7e338"/><path d="m586.813 336.853c-.078.485.527.786.811.342 7.109-11.066 7.833-18.44 5.912-31.496-2.561-17.396-1.488-33.088 6.172-49.087.207-.43-.283-.8-.645-.498-8.403 7-10.828 18.019-12.064 28.439-.903 7.601.168 15.088 1.277 22.596 1.524 10.324.177 19.528-1.463 29.704z" fill="#d7e338"/><path d="m654.487 269.258c1.328-2.826 2.586-5.776 3.49-8.769.803-2.653 2.975-5.504 2.854-8.297-.008-.208-.173-.403-.395-.395-2.916.115-4.238 3.633-5.182 5.942-1.473 3.606-1.738 7.444-1.566 11.303.018.393.606.625.799.216z" fill="#d7e338"/><path d="m714.075 279.312c.285-.537-.381-1.037-.827-.638-2.099 1.87-4.731 3.345-7.119 4.813-1.987 1.222-4.531 1.859-5.929 3.834-.09.128-.027.335.105.405 2.436 1.271 5.273-.284 7.434-1.483 2.983-1.653 4.762-3.963 6.336-6.931z" fill="#d7e338"/><path d="m219.531 635.115c.257-.09.405-.381.257-.631-2.092-3.463-5.342-5.744-7.742-8.977-2.723-3.666-4.891-7.486-8.149-10.738-4.706-4.699-14.581-8.994-20.701-4.998-.165.107-.163.406.06.451 11.105 2.223 17.088 7.158 22.766 16.809 2.922 4.963 7.262 10.217 13.509 8.084z" fill="#d7e338"/><path d="m220.823 625.326c.195-.029.352-.303.275-.486-.824-2.014-2.281-2.947-3.828-4.385-1.443-1.344-2.455-3.301-4.133-4.35-.244-.154-.578-.006-.651.266-1.102 4.029 4.439 9.555 8.337 8.955z" fill="#d7e338"/><path d="m121.618 640.545c7.238-1.035 13.615-3.881 21.164-4.045 6.816-.145 12.773 2.963 19.399 3.736.515.059.798-.6.567-.99-6.872-11.77-34.645-10.881-41.5.814-.16.274.101.524.37.485z" fill="#d7e338"/><path d="m165.108 635.178c.295 0 .566-.309.461-.604-1.09-3.084-4.406-4.035-7.387-3.475-.313.059-.346.518-.086.662 2.301 1.282 4.237 3.413 7.012 3.417z" fill="#d7e338"/><path d="m143.972 659.264c-5.365-.709-10.308-.094-15.649.422-5.343.514-10.999.506-16.018 2.537-.417.168-.458.734 0 .889 9.298 3.154 23.396 2.035 31.907-2.959.449-.264.199-.833-.24-.889z" fill="#d7e338"/><path d="m138.634 663.717c-1.164.439-2.571.785-3.149 1.994-.082.176-.069.354.065.498 2.047 2.211 6.965.162 7.738-2.396.094-.309-.109-.734-.447-.789-1.58-.26-2.737.136-4.207.693z" fill="#d7e338"/><path d="m198.106 671.867c-12.764-3.635-39.695 1.006-43.135 16.711-.078.354.266.596.58.447 7.242-3.428 13.223-8.074 21.041-10.549 7.072-2.238 14.417-3.258 21.514-5.498.54-.169.561-.949 0-1.111z" fill="#d7e338"/><path d="m187.151 681.297c-.258.371.164.734.52.678 2.613-.418 4.934-.973 6.951-2.803.191-.174.092-.518-.152-.578-2.938-.725-5.608.236-7.319 2.703z" fill="#d7e338"/><path d="m225.332 695.707c-4.698 2.77-9.058 6.18-12.615 10.34-.154.178-.06.477.197.477 6.27.016 10.272-5.193 13.138-10.096.265-.455-.264-.989-.72-.721z" fill="#d7e338"/><path d="m178.118 723.305c-8.116-1.164-16.307-.805-23.249 3.809-.23.152-.177.627.158.582 10.919-1.443 20.734-.135 31.464 2.092 6.91 1.436 14.07 2.879 20.217-1.242.43-.287.362-.922-.142-1.084-8.905-2.872-19.174-2.827-28.448-4.157z" fill="#d7e338"/><path d="m148.96 754.734c6.539-3.074 14.347-4.539 21.209-6.871.629-.211.658-1.1 0-1.299-9.619-2.943-18.49-.395-27.227 4.33-6.475 3.5-14.088 11.865-9.76 19.633.16.283.613.295.77 0 3.901-7.338 7.183-12.115 15.008-15.793z" fill="#d7e338"/><path d="m160.513 756.102c-.149.336.096.725.484.629 4.029-.984 7.756-1.396 11.217-3.846.293-.207.408-.756 0-.938-4.426-1.953-9.652-.386-11.701 4.155z" fill="#d7e338"/><path d="m158.573 792.416c-.021-.961-1.059-1.578-1.906-1.096-2.813 1.605-4.935 4.188-7.257 6.379-2.612 2.469-5.509 4.549-8.179 6.934-.088.08-.074.26.039.311 6.526 2.947 17.459-5.725 17.303-12.528z" fill="#d7e338"/><path d="m154.616 804.336c-.09.25.15.559.414.541 1.853-.135 3.508-1.049 4.266-2.801.203-.469.273-1.133-.193-1.5-1.825-1.439-4.016 2.479-4.487 3.76z" fill="#d7e338"/><path d="m202.321 775.797c-5.844 1.348-8.771 4.422-11.54 9.68-2.386 4.537-4.403 10.229-3.886 15.395.029.291.334.428.563.232 3.504-3.002 5.218-7.676 7.324-11.684 2.269-4.314 5.418-8.686 8.339-12.582.401-.537-.257-1.166-.8-1.041z" fill="#d7e338"/><path d="m204.47 781.045c-1.293 1.523-2.743 2.836-3.855 4.514-1.176 1.773-1.49 3.465-1.951 5.482-.065.283.256.451.467.271 1.6-1.352 3.067-2.334 4.219-4.154 1.117-1.768 1.504-3.656 1.864-5.682.068-.392-.427-.804-.744-.431z" fill="#d7e338"/><path d="m249.28 766.826c-3.871 7.162-7.916 14.359-10.926 21.941-.074.186.145.383.322.324 8.65-2.855 10.461-14.307 11.432-22.041.055-.446-.629-.591-.828-.224z" fill="#d7e338"/><path d="m134.493 583.578c2.612 7.875 5.652 15.713 9.178 23.498 4.297-1.701 8.697-3.291 13.212-4.832 25.632-8.746 52.438-12.08 79.294-14.539 3.184-12.621 7.287-24.936 12.179-36.674 15.678-37.627 40.937-71.062 74.849-94.046 37.8-25.624 83.577-35.404 128.783-33.133 3.782.214 7.555.606 11.32 1.024-13.631-4.301-28.284-6.179-40.617-7.111-42.869-3.239-83.344 11.622-117.613 36.783-16.443 12.074-30.934 26.722-43.699 42.583-14.588 18.121-24.729 39.146-40.263 56.576-22.804 25.586-55.146 39.779-86.623 29.871z" fill="#ee9e2b"/><path d="m592.09 487.582c28.681 28.82 49.345 65.525 57.474 106.303 9.051 45.395 4.744 94.555-16.91 135.863-.27.512-.566 1.006-.84 1.516 49.031 25.633 115.716 32.738 165.266 5.76 15.959-8.688 30.656-19.76 42.184-33.941 7.383-9.078 11.821-14.004 22.021-19.643 9.789-5.41 23.416-10.043 28.166-19.479-4.33 2.035-8.958 3.758-13.947 5.182-9.253 2.639-18.849 4.1-27.94 7.27-7.975 2.783-14.845 8.188-21.315 13.457-19.424 15.809-37.92 28.299-63.066 32.904-22.75 4.168-46.439-4.648-61.963-21.387-17.723-19.113-19.235-47.465-22.357-71.885-3.055-23.869-9.176-46.635-18.035-68.992-12.563-31.705-36.14-61.035-68.738-72.928z" fill="#ee9e2b"/><path d="m553.618 797.576c2.809-1.715 5.574-3.494 8.299-5.342 5.029-3.408 9.881-7.068 14.577-10.91 26.755-40.684 41.552-89.336 41.743-137.98-3.227 27.113-8.084 53.447-19.555 78.473-12.133 26.471-29.428 50.836-49.972 71.441-11.533 11.568-9.453 13.101 4.908 4.318z" fill="#ee9e2b"/><g fill="#fbe134"><path d="m319.005 308.358c-20.504-6.408-41.661-.942-60.369 9.6-12.473 6.629-23.871 15.833-33.863 25.035-18.591 17.118-33.934 37.953-45.865 60.164-12.079 22.489-19.727 47.141-23.441 72.345-2.596 17.604-5.787 40.768 6.872 55.482 8.032 9.336 21.822 6.908 30.536.09 7.756-6.07 13.143-14.572 18.785-22.518 8.326-11.718 16.254-23.708 24.754-35.305 18.395-25.103 40.531-44.103 67.699-59.25 19.35-10.789 44.646-17.175 57.254-36.718 19.109-29.618-16.909-60.97-42.362-68.925z"/><path d="m330.779 278.319c-6.854 6.086-10.479 14.039-5.37 19.722 7.66 8.52 24.524 14.629 35.387 6.492 7.73-5.789 7.184-13.963 2.582-20.483-6.643-9.415-21.738-15.383-32.599-5.731z"/><path d="m858.729 542.283c-11.617-39.262-41.935-67.571-77.065-89.916-54.458-34.635-84.687-8.493-74.353 47.027 4.393 23.594 12.006 45.541 23.332 66.973 9.541 18.049 20.883 35.682 38.23 48.051 17.516 12.48 41.842 15.896 62.313 8.545 35.237-12.656 36.057-51.899 27.543-80.68z"/><path d="m427.688 333.046c-3.023 0-3.023 4.69 0 4.69s3.024-4.69 0-4.69z"/><path d="m432.058 339.315c-2.584 0-2.584 4.007 0 4.007 2.583 0 2.583-4.007 0-4.007z"/><path d="m425.056 341.718c-2.707 0-2.707 4.196 0 4.196s2.707-4.196 0-4.196z"/><path d="m202.716 543.576c.041.004.082.006.123.01-3.074.275-3.186 4.92 0 4.871.123-.002.247-.004.371-.006 1.192-.02 1.938-.758 2.361-1.799.021-.051.043-.104.063-.156.652-1.596-1.324-3.57-2.918-2.92z"/><path d="m206.525 530.094c-6.282 0-6.282 9.74 0 9.74s6.283-9.74 0-9.74z"/><path d="m214.351 541.844c-.085-.012-.17-.023-.254-.037-4.408-.637-4.408 5.908 0 5.27.084-.012.169-.023.254-.037 2.582-.374 2.582-4.821 0-5.196z"/><path d="m657.804 497.807c-6.494 0-6.494 10.07 0 10.07 6.493 0 6.493-10.07 0-10.07z"/><path d="m664.648 510.725c-3.417 0-3.417 5.299 0 5.299s3.417-5.299 0-5.299z"/><path d="m756.471 673.584c-5.266 0-5.266 8.166 0 8.166s5.265-8.166 0-8.166z"/><path d="m767.175 666.926c-.123-.01-.246-.016-.37-.021-4.37-.23-4.349 6.551 0 6.779.124.006.247.014.37.021 4.371.229 4.348-6.551 0-6.779z"/><path d="m767.858 676.762c-3.205 0-3.205 4.969 0 4.969s3.205-4.969 0-4.969z"/><path d="m868.031 639.939c-1.121-2.205-4.315-2.424-5.972-.77-1.655 1.656-1.436 4.852.77 5.973.438.221.889.41 1.361.547 2.607.738 5.129-1.781 4.389-4.389-.137-.472-.326-.921-.548-1.361z"/><path d="m709.407 627.543c-4.201 0-4.201 6.516 0 6.516 4.203 0 4.203-6.516 0-6.516z"/><path d="m689.397 409.26c-4.563 0-4.563 7.076 0 7.076s4.563-7.076 0-7.076z"/><path d="m694.4 417.483c-.089-.004-.175-.008-.263-.012-2.803-.136-2.803 4.48 0 4.344.088-.004.174-.008.263-.012 2.783-.134 2.783-4.186 0-4.32z"/><path d="m646.802 451.069c-.139-.062-.279-.121-.419-.183-2.317-1.001-5.2.127-5.2 2.985 0 2.857 2.883 3.986 5.2 2.984.14-.062.28-.121.419-.183 2.127-.919 2.127-4.683 0-5.603z"/><path d="m655.171 456.208c2.334 0 2.334-3.62 0-3.62-2.336-.001-2.336 3.62 0 3.62z"/><path d="m702.562 569.225c-3.352 0-3.352 5.199 0 5.199 3.353 0 3.353-5.199 0-5.199z"/><path d="m807.878 651.748c-3.544 0-3.544 5.496 0 5.496 3.545 0 3.545-5.496 0-5.496z"/><path d="m863.104 615.107c.074-.018.146-.033.221-.051.329.002.613-.111.846-.314.452-.303.637-.801.61-1.318.026-.518-.158-1.016-.61-1.318-.232-.203-.517-.316-.846-.314-.074-.018-.146-.033-.221-.049-2.811-.636-2.811 3.997 0 3.364z"/><path d="m748.622 697.285c-.083.018-.168.033-.25.053-1.908.381-1.908 3.455 0 3.838.082.018.167.035.25.051 3.295.662 3.295-4.604 0-3.942z"/><path d="m747.847 605.285c-.085.016-.168.033-.25.049-2.807.557-2.807 5.092 0 5.648.082.016.165.033.25.049 4.806.957 4.806-6.703 0-5.746z"/><path d="m751.534 424.955c-2.207 0-2.207 3.423 0 3.423s2.207-3.423 0-3.423z"/><path d="m456.532 399.07c-.059.019-.121.037-.18.056-2.74.831-4.146 4.005-2.66 6.539 1.484 2.536 4.906 2.854 6.991.9.046-.043.091-.086.138-.129 3.213-3.012-.098-8.638-4.289-7.366z"/><path d="m466.655 398.893c-.052.012-.105.01-.156.022-2.383.543-2.532 4.517 0 4.949 1.629.279 3.492-.202 3.811-2.101.378-2.251-1.954-3.839-3.655-2.87z"/><path d="m392.759 302.766c-5.857 0-5.857 9.083 0 9.083 5.859 0 5.859-9.083 0-9.083z"/><path d="m389.124 316.2c-.164.033-.328.067-.493.103-2.222.471-2.222 4.005 0 4.476.165.035.329.068.493.103 3.917.828 3.917-5.511 0-4.682z"/><path d="m375.909 388.769c-5.412 0-5.412 8.392 0 8.392s5.412-8.392 0-8.392z"/><path d="m380.623 378.549c-.397-.099-.796-.156-1.203-.187-3.437-.253-3.437 5.584 0 5.332.407-.031.806-.088 1.203-.187 2.458-.613 2.458-4.344 0-4.958z"/><path d="m385.046 386.2c-.162.035-.327.069-.492.103-1.734.368-1.734 3.125 0 3.493.165.033.33.068.492.103 3.096.653 3.096-4.354 0-3.699z"/><path d="m288.795 438.495c-4.405 0-4.466 7.08-.13 6.914 4.494-.175 4.691-6.914.13-6.914z"/><path d="m243.571 306.26c-2.498-.788-5.063 1.327-5.063 3.854 0 5.953 9.592 4.476 7.855-1.063-.546-1.742-1.05-2.244-2.792-2.791z"/><path d="m305.783 284.872c-.241.006-.47.064-.683.171-2.051.831-3.588 2.345-3.588 4.712 0 2.174 1.492 4.137 3.588 4.712 4.543 1.25 7.521-3.869 5.236-7.432-.882-1.729-2.556-2.488-4.553-2.163z"/><path d="m313.906 277.249c-.163.042-.325.081-.487.122-2.535.629-2.535 4.48 0 5.109.162.041.324.08.487.121 4.472 1.111 4.472-6.463 0-5.352z"/><path d="m360.461 268.577c-2.865 0-2.865 4.443 0 4.443s2.865-4.443 0-4.443z"/><path d="m367.522 276.377c-1.229-1.333-3.484-.284-3.484 1.442s2.256 2.775 3.484 1.442c.111-.122.232-.234.361-.337.617-.483.617-1.726 0-2.209-.128-.104-.249-.216-.361-.338z"/><path d="m297.976 437.668c-3.014 0-3.014 4.673 0 4.673s3.013-4.673 0-4.673z"/><path d="m235.487 502.689c-5.18 0-5.18 8.031 0 8.031s5.18-8.031 0-8.031z"/><path d="m167.384 552.199c-4.713 0-4.713 7.307 0 7.307s4.713-7.307 0-7.307z"/><path d="m172.817 560.674c-.174-.02-.348-.037-.52-.057-2.904-.311-2.904 4.82 0 4.51.172-.02.346-.037.52-.057 2.829-.3 2.829-4.093 0-4.396z"/></g><path d="m327.531 807.367c18.665 11.904 39.403 20.385 61.233 24.25 44.953 7.953 98.166-2.096 129.59-25.668 11.465-8.602 21.945-18.598 31.398-29.1 18.127-20.135 33.395-43.543 43.451-68.756 8.615-21.6 12.541-44.861 14.961-68-6.669 33.41-18.852 65.512-37.951 94.139-43.399 65.049-114.218 98.254-191.6 82.502-138.99-28.293-155.718-204.9-92.51-310.299-17.049 22.133-29.464 47.762-37.137 74.664-11.214 39.32-13.995 82.275-1.664 121.635 13.381 42.705 42.51 80.58 80.229 104.633z" fill="#f3af79"/><path d="m397.673 441.272c37.654-5.017 77.006.083 111.75 15.491 36.012 15.968 63.749 45.308 78.045 81.884 12.377 31.664 16.631 64.33 21.125 97.213.253-2.607.502-5.213.727-7.811 2.252-26.184 2.012-52.896-4.25-78.545-9.51-38.949-28.904-65.363-52.738-81.165-29.732-19.716-64.457-31.924-100.344-33.956-11.546-.58-23.109-.467-34.625.578-23.105 2.1-45.64 8.236-66.311 18.237 15.018-5.49 30.458-9.772 46.621-11.926z" fill="#fff7cf"/><path d="m539.524 739.498c.907-1.02 1.759-2.09 2.641-3.135-15.665 4.959-32.404 3.32-46.885-9.563-15.488-13.775-27.916-32.232-36.123-51.754 1.113 4.08 2.289 8.141 3.482 12.182 4.498 15.236 9.484 30.357 15.268 45.154 2.803 7.174 5.707 14.947 9.457 22.094 8.359 15.93 15.719 15.545 30.587 5.008 7.995-5.677 15.105-12.714 21.573-19.986z" fill="#f7b001"/><path d="m319.177 588.727c18.484 3.385 37.415 3.678 55.939 6.959 9.287 1.643 18.155 4.307 27.143 6.85 2.092.592 3.782.926 5.205 1.047-19.644-15.588-42.449-19.869-67.836-24.717-33.682-6.432-31.695-30.252-24.195-53.758-6.775 7.992-12.838 16.736-17.248 26.25-3.353 7.232-6.424 16.506-3.902 24.092 3.05 9.175 15.933 11.636 24.894 13.277z" fill="#f7b001"/><path d="m542.931 624.791c-11.738 1.307-23.729-1.455-34.927-4.676-10.356-2.979-20.269-7.453-26.983-16.467-.223-.295-.374-.607-.563-.912-2.89 2.73-5.819 5.42-8.726 8.135-9.459 8.83-6.787 13.43 3.034 15.914 3.499.887 7.021 1.695 10.54 2.479 15.429 3.434 31.045 6.27 46.742 8.152 13.174 1.58 27.604 3.492 40.768.893 2.527-.584 3.895-1.777 5.518-5.123 1.5-3.092 2.396-8.211 2.672-12.271.363-5.371.17-10.771-.391-16.143-8.985 10.757-21.331 18.203-37.684 20.019z" fill="#f7b001"/><path d="m442.377 785.785c7.95-5.92 6.407-16.793 4.981-26.75-.604-4.223-1.373-8.422-2.221-12.604-1.621 8.557-4.742 16.572-10.277 23.32-14.306 17.443-44.77 7.135-61.515-.119-9.31-4.031-17.856-9.504-24.085-17.764-2.752-3.652-3.546-7.918-3.484-12.348-1.912 2.807-3.785 5.639-5.549 8.533-2.023 3.463-2.364 5.986-1.184 9.674 1.115 3.482 4.268 7.234 7.496 10.176 9.161 8.355 21.326 13.633 32.982 17.432 11.494 3.744 23.523 6.23 35.635 6.504 9.081.208 19.726-.47 27.221-6.054z" fill="#f7b001"/><path d="m290.165 704.498c10.443 16.135 25.444 17.043 39.074 3.877 8.217-7.938 14.793-17.385 21.887-26.289 9.379-11.768 19.652-22.707 30.621-32.979-14.479 11.592-28.885 23.273-44.01 34.027-38.777 27.568-55.403-8.367-63.732-40.107-.625 10.686 1.02 21.525 3.709 31.83 2.713 10.387 6.598 20.594 12.451 29.641z" fill="#f7b001"/><path d="m409.538 483.81c-.213 1.056-.358 2.147-.35 3.277.037 5.525 1.957 11.187 3.303 16.505 3.441 13.617 7.695 27.012 11.824 40.428 2.797 9.098 5.563 18.201 8.25 27.33 1.8 6.115 3.539 12.244 5.305 18.367 3.501 12.172 6.107 8.875 13.996.127 3.371-3.742 6.654-7.561 9.893-11.414 9.133-10.861 17.898-22.053 26.023-33.691-7.983 4.857-16.355 9.021-25.321 11.973-29.534 9.72-44.663-45.528-52.923-72.902z" fill="#f7b001"/><path d="m489.253 516.332c3.12-9.246-2.993-20.835-11.828-24.469-19.615-8.067-25.932 17.754-24.718 37.936.788 13.082 8.216 20.502 21.835 8.162 6.543-5.926 11.831-13.096 14.711-21.629z" fill="#f8f383"/><path d="m383.886 554.619c-4.879-10.938-11.521-21.467-18.048-30.686-7.362-10.395-17.747-12.615-26.426-2.436-8.157 9.572.169 20.781 7.346 27.451 5.798 5.387 12.825 9.5 19.632 13.449 2.237 1.301 4.469 2.656 6.736 3.914 13.758 7.628 19.098 7.013 10.76-11.692z" fill="#f8f383"/><path d="m355.763 633.377c-13.43-1.984-27.672-1.314-40.746-1.141-7.185.098-25.446 1.826-25.855 12.477-.442 11.508 6.998 17.434 17.92 17.152 10.274-.266 21.48-5.904 31.031-9.232 6.932-2.414 13.766-5.006 20.523-7.797 21.07-8.703 7.603-9.914-2.873-11.459z" fill="#f8f383"/><path d="m559.771 564.547c-15.164-15.008-33.254-.207-45.649 15.18-11.229 13.934-6.22 17.557 9.757 14.35 9.706-1.949 19.354-4.439 28.139-8.299 7.073-3.112 14.979-14.079 7.753-21.231z" fill="#f8f383"/><path d="m411.509 691.789c-3.627 9.652-7.143 19.314-9.973 29.334-2.655 9.4-10.477 32.633-1.608 41.225 8.452 8.188 23.038-.643 25.85-10.363 4.776-16.512 2.728-38.162-1.434-57.121-4.439-20.219-7.274-17.88-12.835-3.075z" fill="#f8f383"/><path d="m525.948 677.785c-10.324-2.229-20.854-4.18-31.43-5.316-19.646-2.115-13.354 5.846-4.258 13.35 9.812 8.096 21.063 14.424 33.008 18.869 9.233 3.438 30.758 1.453 30.758-12.145 0-11.301-20.625-13.148-28.078-14.758z" fill="#f8f383"/><path d="m211.663 327.365c-29.768 23.587-49.031 58.855-61.284 94.225-15.354 44.315-19.378 90.254-9.769 136.188.15.711 1.289.549 1.261-.17-.87-22.592-1.698-45.5-.236-68.075 1.401-21.627 6.712-42.743 13.13-63.369 11.77-37.835 31.93-68.457 57.154-98.544.152-.182-.074-.4-.256-.255z" fill="#68182b"/><path d="m141.518 563.859c-1.214 3.598-.083 7.744 1.989 10.805.199.293.646.258.752-.098 1.117-3.703.053-7.816-2.328-10.816-.123-.156-.36-.047-.413.109z" fill="#68182b"/><path d="m689.925 392.393c-.459-.041-.52.652-.105.775 26.451 7.942 52.15 15.952 76.533 29.244 19.9 10.848 38.09 24.78 54.111 40.779 11.968 11.951 22.261 25.305 31.246 39.606 4.729 7.531 10.545 15.65 13.777 23.975.326.838 1.849.816 1.713-.232-3.301-25.414-23.891-48.466-40.977-66.062-35.261-36.313-85.49-63.624-136.298-68.085z" fill="#68182b"/><path d="m867.985 531.781c-.16-.055-.313.064-.363.209-.485 1.348-.1 2.857.221 4.207.467 1.979.525 3.512 1.512 5.318.176.326.604.27.793 0 1.29-1.82 1.173-3.303.717-5.436-.361-1.69-1.116-3.681-2.88-4.298z" fill="#68182b"/><path d="m788.772 727.152c-11.555 3.287-22.777 7.568-34.431 10.537-13.378 3.412-26.946 4.52-40.544 6.535-.319.049-.315.582 0 .635 23.818 3.955 56.24-1.781 75.518-16.773.461-.356-.041-1.078-.543-.934z" fill="#68182b"/><path d="m800.687 721.334c-2.735.668-4.942 2.34-7.242 3.881-.324.219-.24.836.216.799 2.991-.244 6.07-1.279 7.378-4.219.108-.246-.066-.531-.352-.461z" fill="#68182b"/></g></g></svg>