<svg id="Fruit" height="512" viewBox="0 0 992.13 992.13" width="512" xmlns="http://www.w3.org/2000/svg"><g><path d="m657.095 156.939c-26.861-5.678-54.135-8.555-81.066-8.555-108.857 0-189.913 45.136-225.267 124.552-26.925 1.644-60.013 10.604-103.047 27.837-54.784 21.933-98.555 52.421-130.096 90.619-39.569 47.911-57.08 109.801-48.042 169.807 17.118 113.65 117.082 200.027 237.688 205.387 4.26.191 8.551.285 12.758.285 39.912 0 76.024-8.639 105.856-25.166 53.536 64.898 131.71 102.041 215.082 102.041 15.965 0 32.156-1.361 48.123-4.047 77.798-13.082 144.819-63.564 183.885-138.508 37.574-72.082 38.662-152.07 3.643-216.928 1.195-2.246 2.359-4.502 3.486-6.769 30.873-2.757 40.224-23.727 42.867-33.101 2.943-10.429 6.084-35.246-20.156-57.897-1.13-122.797-122.34-203.479-245.714-229.557z" fill="#fff"/><g><path d="m878.635 398.238c7.347-123.226-121.938-195.836-226.479-217.932-108.846-23.005-244.33-.337-285.182 116.491-23.723-1.709-57.444 4.949-110.384 26.148-46.062 18.44-88.603 44.957-120.558 83.654-34.583 41.875-50.953 97.176-42.84 151.043 16.143 107.174 110.898 180.453 215.136 185.084 33.987 1.518 83.199-2.768 123.331-33.191 3.291 4.908 6.763 9.686 10.449 14.277 59.219 73.73 150.063 107.969 243.016 92.336 73.248-12.318 132.827-61.08 166.666-125.996 33.975-65.178 37.307-142.496-2.724-205.688 5.99-9.991 11.291-20.318 15.843-31.037 14.461 1.604 30.719-.095 35.071-15.52 4.878-17.282-7.134-30.551-21.345-39.669z" fill="#68182b"/><path d="m832.759 462.347c-51.353-60.275-136.633-87.762-214.049-82.868-41.345 3.324-83.409 12.148-119.926 30.36-22.781-52.131-64.29-102.362-121.091-111.783 39.917-110.542 168.966-127.716 271.663-107.595 98.454 19.29 221.438 88.101 218.895 201.941-3.608-1.777-7.142-3.314-10.356-4.563-.49-.191-.95-.282-1.395-.331-16.006-3.9-25.191 13.742-27.43 27.195-1.405 8.444-.601 17.081 3.267 24.766 4.046 8.039 12.307 10.132 20.37 11.903.504.111 1.045.218 1.567.327-1.435 3.287-2.948 6.535-4.54 9.744-5.377 10.857-7.491 12.032-16.975.904z" fill="#aa8053"/><path d="m857.586 441.641c-5.213-.979-11.959-1.553-15.333-6.138-3.241-4.404-3.441-10.449-3.228-15.672.325-7.936 5.105-25.3 16.067-21.834 15.573 6.041 34.233 15.52 34.975 34.47.59 15.172-23.707 10.824-32.481 9.174z" fill="#aa8053"/><path d="m104.364 561.223c-9.692-52.412 6.23-105.9 39.115-147.177 26.277-32.985 61.342-56.741 99.624-74.11 19.833-8.997 17.412-3.76 6.177 8.775-27.984 31.227-46.906 72.339-57.724 111.686-22.888 83.26-14.346 180.701 49.431 243.982 4.046 4.016 8.25 7.68 12.59 11.004 9.54 7.303 6.963 9.758-5.009 5.887-71.766-23.211-129.628-81.249-144.204-160.047z" fill="#aa8053"/><path d="m657.105 479.681c5.794-4.069 12.652.981 12.611 7.012-.033 4.974-2.246 10.18-4.639 14.46-5.907 10.588-10.263 9.057-12.107-.355-.966-6.108-1.712-17.01 4.135-21.117z" fill="#808080"/><path d="m617.824 714.299c-5.869 4.252-12.262-1.291-12.225-7.158.03-4.826 2.036-9.861 4.223-14.096 8.03-15.545 10.482-8.246 12.011-.205.936 6.086 1.761 17.277-4.009 21.459z" fill="#808080"/><path d="m491.011 571.877c4.92-1.332 10.672-.25 15.493 1.041 12.591 3.363 12.807 7.664 3.803 11.375-6.668 2.484-15.881 5.162-22.453 1.141-6.698-4.098-1.192-12.375 3.157-13.557z" fill="#808080"/><path d="m800.119 609.092c-5.217.633-10.629-.971-15.452-2.809-3.059-1.164-6.42-3.484-8.95-5.857-4.063-3.816 4.341-5.375 7.035-6.121 6.572-1.574 16.729-3.188 22.108 2.074 4.212 4.123.494 12.076-4.741 12.713z" fill="#808080"/><path d="m694.517 674.137c5.102 4.822 16.438 17.184 7.609 23.381-5.951 4.178-9.843.91-12.831-4.633-2.383-4.414-3.66-9.963-3.906-14.127-.608-10.156 1.692-11.182 9.128-4.621z" fill="#808080"/><path d="m746.334 645.088c5.712 1.99 18.65 7.375 17.319 15.268-1.551 9.186-9.902 7.902-15.175 3.57-4.422-3.637-7.683-8.145-10.124-13.27-3.243-6.816-1.456-8.484 7.98-5.568z" fill="#808080"/><path d="m539.331 680.854c-8.757-3.75-5.877-10.824-.71-15.873 3.982-3.889 8.83-6.619 14.092-8.316 6.358-2.051 7.893.186 4.561 7.768-.017.035-.037.057-.054.092-2.531 5.522-9.801 19.791-17.889 16.329z" fill="#808080"/><path d="m320.517 639.518c-1.991 2.162-5.566.775-7.4-.895-1.924-1.752-1.266-5.373-.815-7.563 1.063-5.174 3.681-10.117 6.645-14.445 5.317-7.768 7.483-4.588 7.471 2.17-.23 6.811-1.062 15.477-5.901 20.733z" fill="#808080"/><path d="m248.806 593.803c-5.521-4.738.292-9.795 4.447-12.27 4.052-2.414 8.812-4.141 13.464-4.945 6.256-1.084 9.069.361 3.224 6.662-3.491 3.549-15.512 15.375-21.135 10.553z" fill="#808080"/><path d="m282.056 434.831c2.705-.07 5.459 1.823 7.623 3.211 4.194 2.693 8.162 6.827 10.711 10.591 3.75 5.543 1.767 7.074-5.351 4.945-5.457-1.81-18.05-6.2-18.662-13.243-.251-2.902 3.135-5.44 5.679-5.504z" fill="#808080"/><path d="m377.825 420.809c-2.625 9.106-6.013 10.116-8.349 1.742-1.65-6.726-3.314-15.74.396-22.071 1.311-2.233 5.268-1.586 7.123-.594 1.759.94 2.402 3.618 2.635 5.41.676 5.181-.371 10.549-1.805 15.513z" fill="#808080"/><path d="m432.627 401.586c2.308-1.533 6.249.755 7.155 3.067.942 2.394-.164 5.426-1.129 7.635-2.018 4.614-5.188 8.905-8.748 12.442-3.943 3.917-8.688 6.741-7.028-2.915 1.378-6.774 3.589-16.139 9.75-20.229z" fill="#808080"/><path d="m244.537 499.914c4.462.008 9.114 2.084 12.963 4.191 11.02 6.029 4.371 7.994.911 8.443-5.885.553-14.125.949-18.909-3.225-4.406-3.848.767-9.415 5.035-9.409z" fill="#808080"/><path d="m309.573 385.793c5.122-3.542 8.152-.261 10.343 4.396 1.588 3.377 2.411 7.544 2.594 11.264.481 9.647-1.11 10.174-7.049 3.703-3.086-3.602-11.98-15.146-5.888-19.363z" fill="#808080"/><path d="m481.855 398.589c-27.441-52.793-78.283-103.623-141.765-89.895-78.633 17.009-122.242 86.53-139.821 160.115-18.309 76.646-13.794 171.114 48.166 228.124 46.762 43.025 108.87 42.43 160.96 13.996 13.599-7.42 15.875-10.441 8.758-24.557-31.497-62.498-34.215-141.293.654-202.667 14.3-25.171 33.487-44.695 55.725-59.73 11.864-8.023 15.751-9.181 7.323-25.386zm-178.73-21.104c8.991-6.223 19.913-4.262 25.05 5.693 4.186 8.119 6.44 18.86 3.951 27.851-1.311 4.737-4.367 9.621-9.854 9.771-5.86.158-10.551-4.157-14.257-8.199-7.37-8.6-17.667-26.275-4.89-35.116zm-75.021 132.161c-2.67-10.984 6.35-21.311 17.397-20.214 9.147.909 19.547 5.033 25.699 12.161 3.647 4.225 6.111 9.354 2.958 14.625-3.112 5.197-10.363 6.164-15.748 6.861-10.847 1.021-27.198-.647-30.306-13.433zm49.283 81.049c-8.409 8.549-26.171 22.012-36.927 9.508-8.332-9.686-3.371-21.303 6.539-27.207 8.344-4.967 20.162-9.166 29.951-6.836 4.414 1.053 8.938 4.379 8.675 9.459-.312 6.049-4.285 10.815-8.238 15.076zm-10.931-154.369c3.182-12.936 17.89-14.213 27.434-8.088 8.032 5.157 18.236 14.37 19.917 24.338 2.37 14.037-11.773 14.076-21.569 11.159-11.493-3.818-29.464-12.436-25.782-27.409zm53.915 214.613c-12.978 2.299-20.821-10.037-18.47-21.486 2.063-10.049 8.135-21.496 16.806-27.357 3.983-2.689 9.689-4.117 13.547-.291 4.416 4.381 4.704 11.129 4.693 16.98-.37 11.084-3.046 29.758-16.576 32.154zm57.991-6.789c-9.938 5.289-21.32 1.932-24.776-9.178-2.717-8.734-2.064-18.877 1.452-27.273 2.043-4.877 5.771-9.541 11.563-9.25 6.301.316 10.402 6.602 13.146 11.518 4.704 9.154 10.831 27.681-1.385 34.183zm6.222-212.462c-2.637 4.635-7.812 11.71-14.235 9.505-6.813-2.339-9.246-9.468-11.029-15.84-2.361-9.635-5.349-29.774 6.526-35.061 10.789-4.803 21.938 1.01 23.994 12.562 1.66 9.328-.569 20.591-5.256 28.834zm63.684-15.279c-4.059 9.287-12.058 19.533-21.826 23.198-14.136 5.307-15.352-11.07-13.722-20.592 2.229-10.951 8.83-30.218 23.288-28.291 13.269 1.769 17.042 14.742 12.26 25.685z" fill="#b1d045"/><path d="m373.72 634.457c-3.774 4.611-8.969.957-10.246-3.148-1.224-3.934-1.16-9.58-.687-12.852 1.352-9.346 4.297-9.568 7.863-3.174 2.302 4.477 6.959 14.426 3.07 19.174z" fill="#808080"/><path d="m563.629 512.023c-5.222-3.221-18.689-12.809-12.863-20.226 5.15-6.558 10.665-4.089 14.97 1.654 3.563 4.751 5.723 9.957 6.868 15.74 1.271 6.444-3.563 5.93-8.975 2.832z" fill="#808080"/><path d="m853.587 514.482c-41.211-88.052-141.446-130.378-234.877-124.472-40.246 3.236-82.372 11.171-118.665 30.109-.619.533-1.382.932-2.226 1.148-8.328 4.478-16.341 9.544-23.931 15.293-40.032 30.319-63.282 75.9-67.867 125.705-9.873 107.227 60.016 205.971 163.051 237.363 88.736 27.035 190.292.115 247.803-74.18 45.001-58.135 69.352-141.229 36.712-210.966zm-376.689 73.563c-5.254-10.754.039-24.426 12.249-26.529 9.782-1.684 21.075.049 29.624 5.303 4.916 3.023 11.435 8.66 9.079 15.336-2.365 6.707-8.538 9.732-14.742 12.295-11.341 4.224-29.72 6.88-36.21-6.405zm89.949 80.537c-.078.186-.184.338-.273.508-.076.25-.143.496-.258.75-4.978 10.857-18.257 28.508-32.3 20.107-11.598-6.938-14.573-19.293-5.418-29.701 6.716-7.633 17.702-14.855 28.205-14.969 13.989-.152 14.213 13.289 10.044 23.305zm16.28-152.959c-2.036 13.564-16.219 10.412-24.813 5.496-10.958-6.76-26.627-21.959-16.003-35.484 8.39-10.684 21.719-11.07 30.282-.387 6.607 8.243 12.166 19.508 10.534 30.375zm36.513 209.369c-11.418 3.061-23.972-3.262-24.533-15.803-.439-9.871 3.869-20.627 10.224-28.107 4.132-4.861 9.624-9.365 16.384-7.475 6.781 1.898 9.137 10.473 10.276 16.432 1.723 11.234 1.745 31.174-12.351 34.953zm33.174-205.295c-6.504-2.391-8.798-9.971-10.001-16.098-1.781-11.259-1.604-30.931 12.519-34.599 11.764-3.057 25.011 3.492 24.924 16.671-.065 10.007-4.591 20.914-11.574 28.105-4.12 4.244-9.713 8.183-15.868 5.921zm57 185.172c-9.715 8.193-22.188 6.084-28.568-4.809-5.098-8.701-8.169-20.502-5.729-30.508 1.282-5.252 4.737-10.428 10.698-10.594 6.186-.172 11.347 3.846 15.748 7.73 9.735 9.208 21.162 26.96 7.851 38.181zm8.564-181.443c6.296-11.943 20.248-27.496 34.682-17.732 11.404 7.711 11.349 21.293 1.551 30.215-7.649 6.965-18.796 13.336-29.515 12.191-13.673-1.461-11.02-15.786-6.718-24.674zm54.945 141.244c-4.172 13.029-18.632 17.148-29.209 9.117-8.499-6.453-16.884-16.471-17.782-27.574-1.117-13.809 12.985-14.311 22.803-11.281 12.222 4.257 29.133 14.289 24.188 29.738zm27.762-45.166c-9.114 1.109-20.071-2.035-27.534-7.387-4.743-3.402-12.238-9.764-9.447-16.668 2.752-6.799 9.144-9.439 15.847-11.303 11.397-2.725 30.809-3.809 35.624 10.115 3.984 11.514-2.171 23.747-14.49 25.243z" fill="#b1d045"/><path d="m746.334 513.83c8.168 4.049 5.011 10.824-.07 15.449-4.472 4.072-9.789 7.412-15.092 8.824-5.025 1.34-8.01-.449-3.702-9.363 2.953-5.595 10.817-18.896 18.864-14.91z" fill="#808080"/><path d="m759.679 561.156c-4.442-7.086-25.09.113-31.473 1.16-8.302 1.361-19.169 3.896-26.444-1.824-6.757-5.313-2.203-14.986-.316-21.455 2.427-8.32 6.999-22.414-3.902-26.473-10.853-4.039-21.703 12.27-28.055 18.164-20.177 18.723-31.258-9.305-37.737-24.545-10.204-23.987-22.39-19.333-29.424.566-2.827 7.994-7.029 12.758-12.291 17.463-3.883 2.355-8.25 4.148-13.149 5.426-9.415 2.453-19.249 2.572-28.273 6.59-6.833 3.039-12.043 7.086-14.678 14.232-3.688 9.994 4.813 17.953 9.789 25.445 10.827 16.303-14.475 39.086 3.655 52.842 9.064 6.879 21.986 5.395 30.862 12.334 7.261 5.676 1.201 20.568 11.037 24.205 6.78 2.506 13.683-1.078 19.811-3.887 5.044-2.313 9.919-4.779 15.341-6.102 8.146-1.986 10.764 5.955 16.246 9.6 5.526 3.676 10.862 2.445 14.936-2.639 2.752-3.434 4.05-7.779 6.835-11.213 6.16-7.592 17.377-8.021 26.051-6.16 6.319 1.354 13.414 2.982 17.39-3.223 1.673-2.611.963-6.818.813-9.654-.71-13.344 14.67-12.721 23.241-13.693 4.295-.486 12.71-1.361 14.613-6.338.991-2.588.679-5.055.316-7.748-.911-6.758-8.744-8.014-1.502-16.029 5.869-6.495 22.938-16.46 16.308-27.044z" fill="#fff"/><path d="m424.946 466.666c-8.294.872-15.203-1.09-18.202-9.783-4.254-12.33-13.418-12.94-22.627-1.995-2.52 2.995-5.05 6.335-8.871 7.687-6.229 2.201-12.794-6.957-16.114-11.079-4.031-5-18.182-26.617-22.635-10.682-2.929 10.48 1.477 21.448-7.442 29.97-8.053 7.693-22.554 5.412-32.469 9.073-9.933 3.667-7.324 12.062-3.408 20.246 7.604 15.891 4.388 18.555-10.155 26.941-17.632 10.16-13.8 18.666 6.695 26.992 8.348 3.393 16.514 6.916 13.915 17.15-5.037 19.844 5.447 23.166 17.563 16.355 6.418-3.607 20.72-8.238 23.602 2.049 2.984 10.652 11.102 4.73 19.878-.279 11.096-6.338 18.31-8.014 28.253 1.832.333.332.629.707.943 1.061-1.549-37.709 6.247-75.605 24.937-108.499 3.567-6.28 7.44-12.208 11.587-17.803-1.818.314-3.64.573-5.45.764z" fill="#fff"/><path d="m416.478 595.75c-3.812-40.701 2.802-84.9 21.62-122.111-18.204 25.757-29.1 56.285-32.076 88.626-9.873 107.227 60.016 205.971 163.051 237.363 88.736 27.035 190.292.115 247.803-74.18 20.688-26.727 36.989-58.732 45.417-92.285-11.021 23.699-26.236 45.139-43.011 65.23-41.073 49.189-102.448 79.16-165.818 86.723-113.997 13.601-226.264-74.909-236.986-189.366z" fill="#abab38"/><path d="m313.704 711.549c-38.693-6.096-67.83-37.229-86.847-69.406-22.626-38.285-31.56-82.158-31.352-126.305.062-12.828 1.002-25.721 2.845-38.474-15.968 75.013-9.59 164.661 50.085 219.569 46.762 43.025 108.87 42.43 160.96 13.996 13.599-7.42 15.875-10.441 8.758-24.557-2.715-5.387-5.134-10.934-7.415-16.539-20.982 30.327-60.904 47.405-97.034 41.716z" fill="#abab38"/><path d="m816.809 487.943c-78.271-107.029-230.8-99.205-317.45-49.89-31.375 17.858-51.017 44.377-59.736 68.31-8.765 24.059-3.564 26.336 10.776 5.76 16.546-23.742 40.635-49.906 77.736-65.436 112.494-47.085 291.827-32.428 318.563 154.083 2.121 14.803 4.186 12.262 4.556-1.639.918-34.518-11.142-79.33-34.445-111.188z" fill="#d7e338"/><path d="m679.285 757.148c-30.407 1.064-61.015-1.092-90.812-7.416-28.709-6.096-54.637-17.461-80.137-31.408-15.32-8.375-17.182-5.391-4.207 6.523 24.819 22.789 57.258 37.127 88.44 43.744 29.404 6.24 59.578 5.299 88.001-3.809 12.658-4.05 11.864-8.093-1.285-7.634z" fill="#d7e338"/><path d="m444.917 363.529c-13.089-17.538-31.431-31.652-51.311-40.222-20.771-8.954-42.322-7.261-63.498-.514-40.368 12.862-79.82 47.923-96.337 88.525-5.877 14.44-2.891 15.166 6.599 3.052 25.224-32.199 52.322-61.519 94.173-72.267 19.253-4.945 39.481-3.993 58.521 1.333 17.755 4.967 32.72 14.746 47.847 24.589 7.351 4.783 9.335 2.645 4.006-4.496z" fill="#d7e338"/><path d="m868.569 434.82c-11-2.328-24.537-11.33-28.272-22.842-.763 2.907-1.185 5.722-1.271 7.854-.214 5.223-.014 11.268 3.228 15.672 3.374 4.585 10.12 5.159 15.333 6.138 8.774 1.65 33.071 5.998 32.481-9.174-.003-.058-.015-.109-.017-.167-6.293 3.153-13.329 4.247-21.482 2.519z" fill="#865725"/><path d="m253.577 715.383c-4.34-3.324-8.544-6.988-12.59-11.004-17.787-17.648-31.269-37.959-40.977-59.871-22.063-4.846-42.96-17.18-59.848-33.281-16.613-15.838-28.78-35.838-36.961-57.525.348 2.508.699 5.016 1.162 7.521 14.576 78.799 72.438 136.836 144.204 160.047 11.973 3.871 14.55 1.416 5.01-5.887z" fill="#865725"/><path d="m832.759 462.347c9.484 11.128 11.599 9.953 16.976-.903 1.592-3.209 3.105-6.457 4.54-9.744-.522-.109-1.063-.216-1.567-.327-8.063-1.771-16.324-3.865-20.37-11.903-3.867-7.685-4.672-16.322-3.267-24.766.357-2.15.913-4.406 1.625-6.665-9.594-16.978-28.382-30.254-44.154-39.798-21.115-12.776-45.742-18.05-70.031-20.357-54.97-5.227-114.337 7.306-166.104-16.995-25.481-11.961-44.981-33.639-72.647-41.347-21.629-6.025-45.485-3.534-65.837 5.492-5.165 2.292-9.925 5.056-14.326 8.183 46.646 16.452 81.161 60.789 101.189 106.622 36.517-18.212 78.581-27.037 119.926-30.36 77.414-4.894 162.694 22.593 214.047 82.868z" fill="#865725"/><path d="m171.802 398.194c-17.953 17.149-31.488 39.604-41.372 61.63-6.87 15.31-12.701 30.916-13.06 47.867-.201 9.463 2.216 22.936 11.943 27.182 19.582 8.549 23.938-42.117 25.627-51.003 5.418-28.509 12.522-55.35 25.55-80.445 7.534-14.516 3.585-16.959-8.688-5.231z" fill="#d4ba89"/><path d="m807.306 316.947c-10.557-15.814-24.645-29.62-38.946-41.273-31.225-25.44-69.26-42.229-108.481-50.683-21.534-4.643-45.275-7.841-67.262-5.455-13.677 1.481-28.283 7.619-36.711 18.92-7.099 9.52-9.536 22.069-4.23 33.065 7.936 16.447 24.574 24.007 40.828 30.104 21.24 7.966 43.348 11.899 66.018 11.511 18.323-.313 36.55-1.518 54.897-1.058 28.787.729 57.241 4.6 81.735 17.807 21.541 11.62 22.755 2.944 12.152-12.938z" fill="#d4ba89"/><path d="m422.864 421.911c-1.61 9.534 3.112 6.722 7.041 2.82 3.561-3.538 6.73-7.829 8.748-12.442.757-1.732 1.562-3.959 1.438-6-.859 1.271-1.685 2.571-2.575 3.82-4.219 5.915-8.989 9.914-14.652 11.802z" fill="#515151"/><path d="m533.818 674.998c.343 2.26 1.958 4.334 5.513 5.855 8.088 3.463 15.358-10.807 17.889-16.33.017-.035.037-.057.054-.092.479-1.092.829-2.041 1.106-2.914-6.903 8.122-15.235 14.249-24.562 13.481z" fill="#515151"/><path d="m375.188 629.766c-3.536-.939-6.57-3.357-9.051-5.934-1.477-1.533-2.528-3.125-3.408-4.75-.403 3.328-.411 8.51.744 12.227 1.277 4.105 6.472 7.76 10.246 3.148 1.033-1.26 1.436-2.898 1.469-4.691z" fill="#515151"/><path d="m486.004 576.152c-1.793 3.01-2.096 6.867 1.85 9.281 6.572 4.021 15.785 1.344 22.453-1.141 4.042-1.666 6.206-3.449 6.247-5.217-2.645 1.363-5.354 2.547-8.12 3.42-7.644 2.405-16.968-.45-22.43-6.343z" fill="#515151"/><path d="m559.287 503.82c-3.672-.811-6.487-2.322-8.938-4.25 2.629 5.295 9.787 10.301 13.279 12.453 5.412 3.098 10.246 3.611 8.975-2.832-.385-1.943-.932-3.797-1.561-5.613-3.677 1.047-7.672 1.145-11.755.242z" fill="#515151"/><path d="m369.477 422.551c2.336 8.374 5.724 7.364 8.349-1.742 1.434-4.963 2.48-10.332 1.806-15.514-.142-1.094-.477-2.485-1.086-3.643-.831 8.355-3.838 16.795-9.274 20.018.069.29.134.597.205.881z" fill="#515151"/><path d="m283.186 448.495c4.058 2.425 8.958 4.122 11.854 5.083 7.117 2.129 9.101.599 5.351-4.945-.26-.383-.593-.777-.879-1.166-5.326 1.951-10.921 2.33-16.326 1.028z" fill="#515151"/><path d="m316.471 385.392c-1.785-1.378-3.999-1.603-6.897.401-5.13 3.55.358 12.28 4.065 17.104-.565-5.978.217-11.873 2.832-17.505z" fill="#515151"/><path d="m238.794 508.451c.223.293.389.594.708.873 4.784 4.174 13.024 3.777 18.909 3.225 3.46-.449 10.108-2.414-.911-8.443-.154-.084-.329-.166-.487-.25-5.369 3.287-11.289 4.994-18.219 4.595z" fill="#515151"/><path d="m324.817 631.111c-.283.377-.534.781-.837 1.141-3.341 3.982-6.911 2.91-10.237-.496-.461-.473-.805-1.053-1.191-1.594-.073.303-.188.596-.251.898-.45 2.189-1.108 5.811.815 7.563 1.834 1.67 5.409 3.057 7.4.895 2.113-2.293 3.434-5.252 4.301-8.407z" fill="#515151"/><path d="m248.235 585.654c-1.982 2.428-2.7 5.342.57 8.148 5.623 4.822 17.645-7.004 21.135-10.553.816-.879 1.426-1.641 1.917-2.338-7.087 4.319-15.426 6.179-23.622 4.743z" fill="#515151"/><path d="m617.824 714.299c2.616-1.896 3.836-5.254 4.346-8.904-1.932 1.186-4.221 1.727-7.032 1.188-4.159-.793-6.206-5.113-7.323-9.1-1.255 3.117-2.194 6.426-2.215 9.658-.037 5.867 6.355 11.41 12.224 7.158z" fill="#515151"/><path d="m703.481 685.199c-1.261 1.209-2.662 2.225-4.285 2.902-5.471 2.283-10.568-3.697-13.162-7.645-.238-.363-.376-.754-.58-1.127.321 4.096 1.562 9.33 3.841 13.555 2.988 5.543 6.88 8.811 12.831 4.633 4.451-3.124 3.772-7.816 1.355-12.318z" fill="#515151"/><path d="m665.078 501.152c1.402-2.508 2.683-5.343 3.559-8.256-.642.642-1.302 1.244-1.991 1.771-4.068 3.104-8.555 1.273-11.856-1.985-.965-.953-1.687-2.062-2.3-3.231-.432 4.015-.004 8.283.481 11.346 1.844 9.412 6.2 10.943 12.107.355z" fill="#515151"/><path d="m804.86 596.379c-.208-.203-.468-.332-.691-.516-7.623 5.313-16.765 6.502-26.606 6.152 2.203 1.773 4.739 3.367 7.104 4.268 4.823 1.838 10.235 3.441 15.452 2.809 5.235-.637 8.953-8.59 4.741-12.713z" fill="#515151"/><path d="m731.172 538.104c5.303-1.412 10.62-4.752 15.092-8.824 2.808-2.557 5.019-5.77 5.064-8.816-7.407 7.576-16.228 13.73-25.706 13.336-.932 4.477 1.689 5.333 5.55 4.304z" fill="#515151"/><path d="m738.836 651.557c2.389 4.744 5.488 8.953 9.643 12.369 5.272 4.332 13.624 5.615 15.175-3.57.273-1.627-.082-3.143-.831-4.549-1.056.549-2.125 1.059-3.228 1.465-8.158 3.003-14.852-.813-20.759-5.715z" fill="#515151"/><g fill="#68182b"><path d="m614.985 512.848c-.212-.076-.545.002-.688.182-1.326 1.668-.558 4.232-.354 6.188.296 2.836 1.058 4.803 2.59 7.166.175.27.567.285.74 0 1.592-2.633 1.67-4.781 1.033-7.756-.412-1.931-1.277-5.038-3.321-5.78z"/><path d="m561.271 548.922c-1.022-2.375-1.909-4.08-4.328-5.254-2.106-1.021-4.771-1.445-7.062-.93-.813.184-.942 1.184-.459 1.738 1.348 1.547 3.11 2.713 4.766 3.906 1.928 1.389 3.938 1.316 6.155 1.748.755.147 1.218-.538.928-1.208z"/><path d="m542.774 612.795c2.31-.689 3.641-1.846 5.062-3.697.214-.277-.026-.654-.305-.748-4.531-1.553-8.464 1.82-11.554 4.871-.307.301-.09.891.36.869 2.271-.106 4.263-.649 6.437-1.295z"/><path d="m591.964 670.65c-2.372 1.588-8.869 9.482-4.881 11.953 2.33 1.443 5.504-9.971 5.45-11.627-.008-.269-.32-.494-.569-.326z"/><path d="m651.84 674.949c-.412 2.506.063 5.148.177 7.678.15 3.334.539 5.354 2.39 8.074.177.264.669.355.823 0 .473-1.094 1.002-1.904 1.298-3.072.395-1.559-.056-3.434-.225-5.002-.298-2.76-.985-6.018-2.951-8.078-.437-.455-1.402-.283-1.512.4z"/><path d="m717.867 667.967c.963.422 2.359-.043 2.281-1.307-.222-3.559-5.037-7.412-8.367-8.127-.319-.068-.511.229-.391.508.736 1.721 1.849 3.285 2.89 4.836.969 1.441 1.95 3.373 3.587 4.09z"/><path d="m760.771 626.166c-3.274-1.355-6.714-2.117-10.194-1.287-.243.057-.301.426-.072.541 2.909 1.477 5.887 2.779 8.734 4.381 2.55 1.436 4.858 3.311 7.915 2.846.359-.057.541-.496.461-.811-.823-3.203-4.034-4.508-6.844-5.67z"/><path d="m759.44 621.93c-.597.215-.593.988 0 1.205.854.313 7.42 3.053 7.21.449-.28-3.486-5.093-2.422-7.21-1.654z"/><path d="m776.927 563.348c-2.391 1.109-5.264 2.328-6.502 4.805-.076.152-.021.371.166.41 2.341.49 4.802-.295 7.07-.857 2.566-.635 5.755-.973 7.584-3.043.87-.986.633-2.799-.821-3.115-2.631-.571-5.134.702-7.497 1.8z"/><path d="m780.071 556.975c.219-.375-.069-.748-.454-.791-3.896-.436-7.457 2.119-8.775 5.695-.095.26.198.521.446.445 3.359-1.039 6.903-2.121 8.783-5.349z"/><path d="m700.402 514.758c1.31-1.717 2.265-3.678 3.602-5.363 1.322-1.668 2.594-3.076 3.527-5.002.243-.498-.062-.947-.582-1.016-5.768-.746-7.854 6.846-7.179 11.299.052.334.478.285.632.082z"/><path d="m707.118 510.473c-.515.648-.935 1.295-1.259 2.055-.202.473-.056.871-.305 1.33-.189.352.189.732.541.541.463-.252.854-.098 1.324-.309.764-.346 1.352-.791 1.993-1.32 1.383-1.141 1.738-2.287 1.666-3.979-.012-.299-.273-.492-.562-.428-1.586.352-2.362.801-3.398 2.11z"/><path d="m628.092 510.076c.188.41.71.213.842-.109.85-2.055 1.02-3.867.93-6.1-.046-1.094.002-2.645-.387-3.672-.435-1.146-.833-1.465-1.646-2.332-.197-.211-.595-.223-.79 0-.742.848-1.173 1.189-1.426 2.332-.229 1.02.009 2.426.239 3.439.529 2.307 1.261 4.309 2.238 6.442z"/><path d="m634.48 508.078c2.268-1.193 3.464-5.83.533-6.879-.268-.096-.554.023-.753.199-1.538 1.348-1.177 4.854-.321 6.539.102.198.361.237.541.141z"/><path d="m542.834 556.359c-.239.289-.156.705.218.824 2.999.957 6.026.27 9.083.381.27.012.459-.379.232-.561-1.404-1.143-2.55-2.258-4.511-2.367-2.032-.115-3.673.106-5.022 1.723z"/><path d="m541.591 620.805c-.104.318.184.746.539.707 3.525-.393 6.048-3.043 7.29-6.229.103-.264-.162-.615-.444-.584-3.421.385-6.32 2.832-7.385 6.106z"/><path d="m582.134 672.029c.019.309.234.525.543.543 2.81.162 5.578-3.242 6.476-5.621.162-.432-.253-.9-.684-.895-2.695.036-6.5 3.089-6.335 5.973z"/><path d="m643.583 687.123c1.341-1.357 1.337-3.223 1.4-5.021.068-1.889-.352-3.125-1.482-4.547-.193-.242-.548-.07-.632.166-.956 2.646-2.19 7.055.015 9.402.182.195.513.186.699 0z"/><path d="m717.267 656.885c.533 1.105 1.234 2.043 1.907 3.066.718 1.098 1.012 1.98 2.222 2.586.29.145.638.078.811-.213 1.618-2.727-2.026-6.096-4.726-5.813-.194.022-.298.194-.214.374z"/><path d="m765.509 544.994c5.338-1.701 10.963-4.465 15.419-7.855.35-.264.311-1.014-.258-.949-5.835.652-12.245 3.15-15.626 8.201-.2.298.129.711.465.603z"/><path d="m778.93 540.348c-1.129.57-2.854 1.26-3.221 2.609-.021.08 0 .166.06.225.95.949 2.553.557 3.728.352.87-.15 1.676-.559 2.482-.898 1.047-.441 1.012-1.154 1.649-1.924.271-.326.085-.738-.325-.787-.72-.082-1.075-.492-1.82-.371-.875.137-1.754.393-2.553.794z"/><path d="m698.699 495.924c2.398-1.715 3.392-4.34 4.483-6.987.996-2.413 2.792-5.745 1.588-8.32-.094-.206-.387-.311-.594-.243-2.396.78-3.075 3.503-3.841 5.655-1.092 3.075-2.337 6.288-2.157 9.598.012.237.293.46.521.297z"/><path d="m706.003 490.019c.73-.321 1.58-.152 2.231-.827 1.145-1.183 2.214-2.503 2.487-4.167.234-1.434-1.335-2.538-2.493-1.452-1.053.985-1.677 2.295-2.192 3.624-.338.862-.087 1.825-.346 2.58-.068.197.159.309.313.242z"/><path d="m608.629 491.734c.506 1.281 1.307 1.956 2.101 3.063.193.271.746.317.811-.107.183-1.195.619-2.215.672-3.441.074-1.685-.265-3.363-.594-5.004-.492-2.45-1.543-5.038-4.053-5.871-.292-.097-.549.111-.647.368-.85 2.205-.169 4.47.385 6.691.363 1.473.767 2.89 1.325 4.301z"/><path d="m613.854 482.392c.021 1.954.648 3.91.829 5.862.054.584.646.814 1.097.455 2.131-1.711 2.378-5.371.154-7.179-.783-.636-2.092-.288-2.08.862z"/><path d="m519.878 526.729c-.3.072-.495.484-.305.75 1.459 2.037 3.729 2.939 5.937 3.943 2.119.967 4.26 2.453 6.615 2.596.238.014.506-.229.478-.479-.564-4.705-8.599-7.81-12.725-6.81z"/><path d="m521.639 535.879c1.895 1.281 4.09 1.236 6.216 1.553.171.027.354-.139.243-.313-1.307-2.045-3.081-3.887-5.799-3.678-1.313.1-1.765 1.692-.66 2.438z"/><path d="m518.578 624.113c-2.218-.654-4.48.26-6.528 1.105-2.062.854-4.47 1.74-5.26 3.996-.083.232.043.588.279.689 2.026.863 3.797-.096 5.654-.992 2.11-1.018 4.563-2.057 6.095-3.889.26-.309.178-.786-.24-.909z"/><path d="m514.89 632.922c1.212 1.209 3.586-1.338 4.421-1.936.471-.338 3.497-2.506 2.503-3.408-2.084-1.904-9.119 3.147-6.924 5.344z"/><path d="m583.506 710.613c-2.438 1.242-4.104 3.225-5.749 5.395-1.753 2.307-3.322 4.609-2.979 7.627.041.365.426.697.792.455 2.17-1.432 3.423-3.406 4.827-5.539 1.58-2.396 3.31-4.557 3.76-7.438.063-.384-.281-.687-.651-.5z"/><path d="m669.035 715.918c-.11-.012-.251.07-.298.17-.891 1.855.442 4.955.855 6.828.202.916.79 6.125 2.936 4.973 2.174-1.166.72-4.863.238-6.602-.487-1.773-1.534-5.146-3.731-5.369z"/><path d="m675.223 716.262c.017.904.377 1.793.615 2.658.318 1.154.204 2.258.844 3.303.528.865 2.118 1.086 2.585 0 .942-2.186-.407-7.229-3.561-6.596-.279.059-.487.359-.483.635z"/><path d="m797.554 665.357c1.485.207 2.672-1.375 1.518-2.605-1.359-1.453-3.478-2.436-5.142-3.533-1.483-.975-3.086-1.584-4.834-1.801-.375-.047-.478.445-.28.674 2.188 2.512 5.181 6.769 8.738 7.265z"/><path d="m810.816 567.447c-2.641.006-4.932.746-7.135 2.156-.27.174-.15.563.158.582 1.826.127 12.771 2.756 12.204-1.01-.331-2.189-3.729-1.73-5.227-1.728z"/><path d="m772.876 512.857c2.039-.412 3.917-1.494 5.639-2.629 1.681-1.111 3.618-2.496 3.269-4.76-.029-.191-.239-.389-.424-.424-2.063-.402-3.598 1.092-5.059 2.318-1.612 1.352-3.392 2.883-3.91 5.008-.074.308.189.546.485.487z"/><path d="m687.575 472.854c1.826-.642 3.029-2.415 3.657-4.192.843-2.392 1.363-4.311-.21-6.442-.16-.218-.517-.343-.722-.092-1.317 1.584-1.669 2.925-2.266 4.904-.547 1.818-1.306 3.61-.967 5.535.038.208.31.356.508.287z"/><path d="m614.604 462.018c.309-2.117.35-3.927.037-6.068-.199-1.374-.551-4.243-2.477-4.243-3.976 0 1.154 9.205 1.809 10.394.133.239.587.221.631-.083z"/><path d="m609.826 463.21c.191.15.472.113.55-.144.495-1.647.419-7.294-2.586-6.467-2.727.751.989 5.801 2.036 6.611z"/><path d="m527.851 510.592c.21.064.34-.166.262-.338-.545-1.193-.844-2.449-1.475-3.611-.76-1.396-1.648-2.67-2.604-3.936-.816-1.078-3.464-3.826-5.011-2.279-1.409 1.408 1.363 4.371 2.172 5.32 1.993 2.336 3.686 3.955 6.656 4.844z"/><path d="m519.129 511.602c.667.43 1.461.695 2.22.881.407.102 1.314.076 1.675.25.257.123.565-.135.405-.406-.368-.621-.232-1.047-.684-1.66-.43-.584-.882-.957-1.456-1.393-1.341-1.012-2.888-.889-4.435-.861-.26.004-.508.33-.327.57.809 1.076 1.436 1.874 2.602 2.619z"/><path d="m485.483 614.33c-.22.285-.103.723.303.73 2.391.049 4.274-.523 6.56-1.145 2.311-.631 4.737-.824 6.813-2.086.26-.158.273-.559 0-.713-4.038-2.276-10.948-.302-13.676 3.214z"/><path d="m687.317 648.346c.234.088.511-.053.632-.256 1.246-2.102-.316-4.33-1.636-5.982-1.014-1.271-2.849-3.514-4.736-3.074-.156.037-.266.193-.266.35-.006 1.637 1.61 3.383 2.415 4.721 1.014 1.684 1.609 3.518 3.591 4.241z"/><path d="m648.415 650.609c-.907 1.371-.661 3.248-.646 4.834.019 1.908-.082 3.484 1.399 4.859.224.207.545.207.769 0 1.496-1.393 1.364-2.938 1.268-4.859-.087-1.684-.305-3.863-1.679-4.977-.365-.296-.841-.265-1.111.143z"/><path d="m608.226 653.934c1.857-1.828 2.526-5.201 2.212-7.705-.043-.34-.375-.486-.646-.268-1.982 1.576-4.072 4.293-4.074 6.934-.003 1.291 1.596 1.935 2.508 1.039z"/><path d="m577.365 636.381c.091.266.295.416.572.434 1.361.096 2.147-.826 3.018-1.754 1.205-1.281 2.518-2.734 3.343-4.297.273-.518-.171-1.104-.743-.969-2.339.547-7.172 3.67-6.19 6.586z"/><path d="m551.872 583.352c2.982 0 6.13-.295 8.813-1.68.161-.084.161-.344 0-.428-2.684-1.385-5.831-1.678-8.813-1.678-2.441 0-2.441 3.786 0 3.786z"/><path d="m592.013 536.842c-.25-.234-.679-.201-.854.111-1.001 1.783-.729 3.498-.313 5.43.476 2.207 1.121 4.006 2.713 5.549.107.104.317.098.39-.049.81-1.678.816-2.973.518-4.883-.35-2.252-.74-4.537-2.454-6.158z"/><path d="m657.813 529.959c-.547-.32-.93-.342-1.54-.201-.652.15-1.245.748-1.399 1.396-.642 2.736-.559 5.803.671 8.369.109.227.43.232.595.076 2.079-1.965 2.559-5.184 2.664-7.914.027-.697-.403-1.378-.991-1.726z"/><path d="m685.658 539.508c.794-1.531 7.421-10.4 3.593-11.453-1.991-.549-2.912 3.031-3.412 4.254-.528 1.285-.934 2.607-1.142 3.979-.167 1.107.177 2.059.329 3.137.041.3.504.329.632.083z"/><path d="m736.092 565.916c1.214-.57 1.469-1.051 2.285-2.002.217-.248.195-.621-.103-.799-.981-.594-1.29-.852-2.464-.998-1.024-.127-2.29.359-3.197.773-2.223 1.008-4.115 2.139-5.582 4.084-.251.334.093.789.454.793 2.08.02 3.919-.537 5.94-1.025.894-.215 1.832-.435 2.667-.826z"/><path d="m743.867 588.518c1.818.096 3.758.289 5.546-.096 1.473-.318 1.939-2.768.444-3.4-3.166-1.344-7.905-.475-10.635 1.59-.508.387-.473 1.135.177 1.354 1.456.491 2.949.473 4.468.552z"/><path d="m724.185 606.449c1.407.65 2.815 1.156 4.284 1.646 1.396.465 2.872 1.541 4.367 1.412 1.177-.102 1.802-1.182 1.292-2.252-1.519-3.188-7.366-2.41-9.943-1.289-.186.081-.179.399 0 .483z"/><path d="m723.019 611.623c1.02 1.742 2.055 3.768 4.451 3.598 1.147-.08 1.717-1.359.923-2.232-1.374-1.521-3.297-1.002-4.97-1.77-.257-.119-.568.129-.404.404z"/><path d="m626.383 795.635c-.65-.01-.617.918 0 .986 79.793 8.891 164.315-35.611 200.369-107.758.181-.359-.318-.656-.539-.316-44.346 68.678-118.083 108.082-199.83 107.088z"/><path d="m830.203 682.596c.693-.648 1.578-1.111 2.286-1.77.796-.74 1.464-1.77 2.001-2.705 1.041-1.816 1.952-3.561 1.597-5.695-.05-.301-.479-.471-.725-.295-1.423 1.018-2.142 2.361-2.958 3.875-.489.908-.985 1.789-1.439 2.717-.547 1.119-.689 2.416-1.227 3.514-.145.3.212.597.465.359z"/><path d="m285.878 487.538c1.417 1.623 3.332 3.207 5.483 3.602.405.076.66-.288.502-.652-.954-2.176-2.16-4.252-3.799-5.999-.92-.981-1.889-1.839-3.045-2.525-.987-.588-1.67-.278-2.667-.22-.502.029-.68.557-.385.928.402.501.61 1.273 1.088 1.836.891 1.051 1.916 1.991 2.823 3.03z"/><path d="m281.727 493.886c.829 1.17 1.385 1.512 2.742 2.024.71.268 1.45.414 2.187.588.448.105 1.309.119 1.709.356.498.294 1.197-.319.833-.833-.277-.391-.346-.854-.594-1.277-.373-.633-1.146-1.098-1.732-1.51-1.555-1.09-3.271-1.129-4.885-.339-.335.162-.476.684-.26.991z"/><path d="m275.433 547.988c1.958-.463 4.063-.982 5.73-2.143.27-.186.282-.555 0-.74-3.055-2.002-9.564-1.43-11.245 2.188-.171.365-.019.693.346.846 1.785.746 3.367.273 5.169-.151z"/><path d="m286.069 547.537c-2.138-.365-7.985 1.365-7.145 4.43.764 2.771 6.727-2.234 7.485-3.135.337-.4.285-1.186-.34-1.295z"/><path d="m303.893 592.201c1.37-1.215 2.187-3.193 3.034-4.791 1.036-1.955 2.141-3.961 3.262-5.861.264-.445-.268-1.004-.72-.721-3.285 2.057-7.874 6.141-7.859 10.428.003 1.217 1.429 1.703 2.283.945z"/><path d="m314.645 583.584c.106-.672-.661-1.27-1.21-.707-.936.961-4.192 3.967-1.928 5.293 2.318 1.357 2.967-3.5 3.138-4.586z"/><path d="m349.567 601.625c2.061.566 1.958-3.279 2.023-4.277.158-2.42 1.413-6.402-.104-8.533-.117-.164-.331-.254-.519-.137-1.938 1.211-2.19 4.406-2.489 6.459-.25 1.72-1.332 5.822 1.089 6.488z"/><path d="m294.124 609.516c.144-.449-.416-.914-.82-.633-2.01 1.393-3.454 3.242-4.933 5.162-.868 1.131-3.092 3.533-1.64 4.984 2.578 2.576 6.883-7.898 7.393-9.513z"/><path d="m295.186 614.354c.006 1.135 1.616 2.023 2.425 1.006 1.16-1.463 1.395-3.291 2.218-4.924.238-.477-.048-1.1-.626-1.092-2.491.039-4.032 2.726-4.017 5.01z"/><path d="m345.887 431.239c.15.307.693.249.753-.099.467-2.724.451-5.297.156-8.047-.265-2.485-.131-5.338-1.495-7.487-.621-.981-2.133-.825-2.466.323-.71 2.458.205 5.14.649 7.612.488 2.727 1.19 5.211 2.403 7.698z"/><path d="m353.563 429.804c1.934-2.557 2.195-7.833-.712-9.802-.259-.175-.636-.049-.787.208-1.524 2.6-.877 7.247.902 9.594.168.219.431.219.597 0z"/><path d="m398.597 428.456c.746-1.58 5.148-9.834 1.892-10.729-3.457-.952-2.819 8.987-2.75 10.497.02.422.65.674.858.232z"/><path d="m428.132 446.74c-.742.317-1.781.405-2.402.998-.844.806-1.647 1.604-2.367 2.523-1.095 1.397-1.796 2.884-2.454 4.515-.15.375.378.786.701.539 1.294-.985 2.588-1.919 3.806-3.001.687-.613 1.306-1.271 1.934-1.942.889-.95.969-1.736 1.48-2.936.207-.484-.213-.903-.698-.696z"/><path d="m305.289 424.853c.656.191 1.229-.44 1.074-1.074-.643-2.608-1.963-4.914-3.534-7.099-1.054-1.462-4.194-5.309-6.163-2.929-1.499 1.811 1.58 4.451 2.569 5.737 1.705 2.213 3.275 4.552 6.054 5.365z"/><path d="m261.472 473.524c1.039.709 2.101 1.354 3.207 1.95.846.455 2.018.259 2.796.722.257.15.536-.206.32-.416-.522-.498-.775-1.629-1.147-2.275-.582-1.003-1.613-1.864-2.417-2.686-1.424-1.457-3.367-3.302-5.498-2.882-.764.15-1.082.985-.946 1.666.334 1.697 2.262 2.952 3.685 3.921z"/><path d="m255.285 542.352c-2.366-2.676-8.64-3.451-11.267-.807-.229.23-.226.609 0 .84 1.45 1.463 3.337 1.516 5.28 1.602 1.991.09 4.104.002 5.896-.936.268-.139.272-.494.091-.699z"/><path d="m246.621 547.582c0 2.885 5.325 1.07 6.532.498.377-.178.377-.816 0-.996-1.207-.57-6.532-2.385-6.532.498z"/><path d="m270.416 619.273c-2.608.25-4.904 2.225-6.581 4.119-1.436 1.629-3.827 4.434-2.412 6.668.152.242.456.396.742.305 2.039-.664 2.713-3.129 3.947-4.695 1.5-1.9 3.573-3.4 4.842-5.457.235-.375-.061-.984-.538-.94z"/><path d="m274.581 623.793c.32-.678-.335-1.41-1.037-1.037-1.618.863-6.065 4.744-3.583 6.725 2.004 1.595 4.098-4.588 4.62-5.688z"/><path d="m324.795 666.014c-1.584 2.203-1.93 4.961-2.353 7.58-.366 2.258-1.313 4.98.063 7.018.251.375.695.416 1.032.135 1.887-1.572 1.732-4.461 2.03-6.73.346-2.613.833-5.324.039-7.895-.118-.392-.588-.417-.811-.108z"/><path d="m330.386 665.996c-.798 1.508-.95 3.154-1.043 4.836-.082 1.516-.385 3.309.942 4.344.344.268.681.268 1.024 0 1.326-1.035 1.024-2.828.942-4.344-.093-1.682-.245-3.328-1.043-4.836-.164-.31-.657-.31-.822 0z"/><path d="m382.901 672.395c2.341-.645 1.111-4.785.935-6.295-.307-2.625-.994-5.311-2.688-7.383-.401-.49-1.216-.078-1.208.5.029 1.785-.375 14.097 2.961 13.178z"/><path d="m406.966 396.127c1.479-2.316 2.475-4.525 3.434-7.113.51-1.378.938-2.76 1.326-4.177.344-1.253-.288-2.446-.428-3.653-.039-.344-.504-.681-.785-.325-.734.922-1.519 1.559-2.183 2.547-.634.938-.79 2.532-1.047 3.614-.716 3.007-1.091 5.837-1.054 8.909.004.4.527.525.737.198z"/><path d="m451.75 425.743c1.062-.463 2.114-.492 3.157-1.14.907-.563 1.763-1.333 2.355-2.222.813-1.213-.773-2.721-1.975-1.975-.827.512-1.469 1.234-2.11 1.952-.65.726-1.047 2.193-1.811 2.729-.404.288-.06.85.384.656z"/><path d="m348.729 386.904c1.454-3.752.809-8.386-.794-12.042-.744-1.699-3.282-.74-3.306.895-.053 3.828 1.866 7.816 3.378 11.241.155.35.616.184.722-.094z"/><path d="m367.839 712.658c-29.523 6.574-58.266 4.328-84.651-11.143-26.792-15.707-42.436-40.285-58.926-65.576-.127-.193-.473-.074-.391.166 18.998 56.121 85.789 104.58 144.461 77.727.691-.316.184-1.324-.493-1.174z"/><path d="m384.156 705.781c-1.845.215-3.1.861-4.723 1.732-1.559.836-3.727 1.219-4.745 2.758-.121.182-.033.43.142.541 1.533.965 3.563.209 5.104-.42 2.114-.859 3.684-1.77 4.635-3.895.128-.286-.013-.765-.413-.716z"/><path d="m594.788 196.607c-33.936-4.118-67.252.037-99.957 9.865-28.995 8.713-66.499 25.833-78.662 55.978-.111.276.307.504.496.288 10.338-11.862 20.507-22.114 34.001-30.484 15.026-9.318 31.498-15.75 48.375-20.831 30.258-9.11 64.113-13.716 95.747-13.566.827.005.777-1.155 0-1.25z"/><path d="m602.294 196.438c-.786.243-.786 1.346 0 1.588 1.637.508 3.31.572 5.011.681 1.783.115 3.462.383 5.165-.313.335-.138.469-.51.21-.798-2.272-2.519-7.457-2.062-10.386-1.158z"/></g></g></g></svg>