<svg id="Fruit" height="512" viewBox="0 0 992.13 992.13" width="512" xmlns="http://www.w3.org/2000/svg"><g><path d="m128.807 706.277c30.619 16.015 63.801 19.377 86.248 19.377l1.523-.006c47.805-.324 96.646-17.086 152.404-52.51 1.41 7.545 3.102 14.855 5.092 21.991 6.994 25.091 18.271 46.627 33.523 64.009 17.863 20.359 39.627 32.635 64.689 36.486 6.607 1.016 13.275 1.529 19.822 1.529 18.442 0 35.948-4.131 50.633-11.947 7.918-4.217 14.803-9.148 21.463-13.92 2.346-1.682 4.68-3.357 7.023-4.96 6.463-4.419 13.953-9.653 21.061-15.896 8.438-7.418 15.588-15.84 21.934-24.416 1.311 1.116 2.65 2.207 4.023 3.266 11.805 9.105 25.795 14.742 39.049 15.834 2.844 4.242 5.82 8.043 8.969 11.469 11.146 12.125 26.184 19.08 41.254 19.08 1.348 0 2.689-.055 4.027-.165 12.881 11.26 28.744 17.767 44.037 17.767 5.508 0 10.916-.832 16.08-2.471 16.941-5.379 28.797-17.621 31.709-32.74.586-3.043.82-6.104.717-9.146 11.523-4.588 20.975-13.742 25.545-25.551 1.447-3.74 2.338-7.722 2.68-11.854 9.67 2.535 19.475 3.891 29.295 4.041 1.072.017 2.172.027 3.291.027 11.332 0 27.965-1 41.541-9.647 13.943-8.878 20.662-24.396 17.973-39.397 4.371-3.391 8.113-7.477 11.018-12.119 6.949-11.109 8.752-24.5 5.07-37.709-5.807-20.836-23.836-37.48-48.229-44.527-10.236-2.96-20.814-4.561-31.477-4.766 16.414-12.697 29.924-28.822 39.121-47.154 10.096-20.121 15.064-44.497 13.996-68.638-1.066-24.097-10.213-48.591-26.451-70.833-23.252-31.85-56.418-55.241-104.375-73.614-48.24-18.479-97.992-28.784-144.299-29.924-7.775-3.826-16.57-6.959-27.361-9.75-1.176-.284-2.365-.547-3.568-.794-3.326-16.12-11.141-30.704-22.918-42.361-16.822-16.646-37.467-22.079-57.27-25.469-15.514-2.657-31.432-3.894-50.098-3.894-2.395 0-4.799.021-7.213.06-27.498.44-49.715 1.934-69.92 4.696-45.621 6.238-89.242 21.881-129.652 46.495-19.096 11.634-38.414 25.199-57.418 40.315l-.529.42c-16.221 12.901-34.607 27.522-48.607 46.041-13.039 17.243-28.73 44.374-29.439 75.71-.436 19.24 3.199 37.146 10.465 52.467-11.313 7.207-22.029 14.717-32.037 22.457-17.811 13.77-39.943 32.835-53.143 58.273-14.113 27.201-13.73 61.545 1.055 94.229 13.274 29.344 37.307 54.255 67.674 70.139z" fill="#fff"/><g><path d="m139.875 685.115c23.018 12.039 50.725 16.828 76.539 16.652 57.297-.391 111.113-28.611 157.193-60.33 4.883-3.361 9.693-6.822 14.479-10.322 1.066 19.533 3.785 38.914 8.994 57.604 5.588 20.047 14.684 38.957 28.471 54.67 13.539 15.431 29.924 25.488 50.365 28.63 18.615 2.861 38.778 1.063 55.604-7.892 9.18-4.889 17.646-11.645 26.23-17.516 6.461-4.416 12.885-8.947 18.773-14.119 14.672-12.896 25.104-29.986 35.68-46.224 4.938 9.431 12.215 17.61 20.633 24.103 10.111 7.803 24.787 13.67 37.588 9.87 3.684 7.267 7.994 14.272 13.422 20.179 7.961 8.66 19.803 13.746 31.066 10.244 4.559-1.422 4.572-1.295 6.959 1.447 10.027 11.521 27.025 20.852 42.564 15.921 6.82-2.166 14.037-6.991 15.484-14.497 1.414-7.344-2.371-14.387-7.553-19.354-5.141-4.928-11.506-8.318-16.904-12.92-1.957-1.668-4.555-4.24 4.695-2.293 3.057.643 11.354 3.123 17.447 6.744 10.404 6.179 25.244.681 29.754-10.977 2.236-5.775 1.256-12.811-1.346-19.17 2.699-1.152 5.307-2.545 7.717-4.127 3.49-2.289 6.777-5.01 9.449-8.236 1.285.525 2.564 1.035 3.828 1.523 11.182 4.314 22.965 6.754 34.969 6.939 10.061.156 22.865-.301 31.635-5.885 6.418-4.088 9.529-11.408 6.16-18.557-3.025-6.419-9.416-10.301-15.922-12.736 4.531-.18 9.068-.61 13.611-1.441 14.686-2.686 24.211-14.941 20.033-29.938-4.039-14.492-18.1-24.02-31.852-27.994-13.852-4.004-28.188-4.844-42.248-2.711.084-.323.211-.621.273-.955 1.09-5.742-2.107-10.969-6.387-14.518-6.99-5.799-15.977-8.779-25.117-9.973 28.357-9.852 52.789-30.277 66.404-57.415 8.59-17.122 12.33-37.786 11.484-56.874-.93-21.006-9.598-40.98-21.883-57.807-23.434-32.103-57.156-51.422-93.629-65.395-44.836-17.176-93.723-28.071-141.877-28.439-.018-.01-.035-.024-.055-.035-8.324-4.771-17.521-7.886-26.775-10.282-6.516-1.569-13.299-2.333-20.119-2.462.855-17.449-4.908-34.398-17.574-46.936-12.268-12.141-27.943-16.071-44.5-18.905-17.674-3.026-35.006-3.781-52.899-3.495-22.418.36-44.836 1.439-67.066 4.48-43 5.878-83.43 20.67-120.463 43.229-19.135 11.656-37.449 24.667-54.979 38.61-15.891 12.639-32.637 25.883-44.953 42.174-13.246 17.52-24.105 39.512-24.611 61.847-.492 21.698 5.133 43.704 20.336 59.507-17.832 10.09-35.014 21.271-51.178 33.769-17.893 13.836-35.984 30.016-46.551 50.379-11.957 23.045-8.813 50.338 1.615 73.389 11.429 25.258 32.532 46.027 56.987 58.82z" fill="#68182b"/><g fill="#b1d045"><path d="m638.995 701.922c-8.631-6.75-16.311-15.787-20.053-26.195 3.25-5.154 6.424-10.35 9.447-15.629.445 6.836 1.465 13.623 3.402 20.219 1.83 6.23 4.439 12.107 7.652 17.648 2.544 4.394 4.824 8.086-.448 3.957z"/><path d="m637.614 677.689c-6.082-21.683-3.891-32.059 3.73-28.795 5.662 2.426 11.094 5.681 16.516 8.758 3.611 2.049 7.184 4.182 10.768 6.297-3.398 1.637-6.191 4.391-7.982 7.836-5.959 11.462-.178 25.713 4.338 36.68.271.658.592 1.318.871 1.979-8.272 1.486-20.942-6.726-28.241-32.755z"/><path d="m758.396 648.953c4.279 1.959 13.289 7.332 14.676 13.113-20.322-4.537-43.775-7.137-62.988 2.232-4.551 2.219-8.271 5.177-11.342 8.594-2.084-1.465-4.207-2.846-6.334-4.221-4.383-7.104-3.129-16.256 4.721-20.234 8.875-4.501 20.699-5.039 30.463-5.156 10.47-.129 21.202 1.282 30.804 5.672z"/><path d="m728.308 632.746c.156-.242.348-.453.494-.707 1.295-2.262 1.965-4.715 2.188-7.22 4.273.05 8.572.2 12.896.495-.24 2.975.088 5.895.881 8.707-5.225-.867-10.516-1.271-15.695-1.281-.249 0-.516.006-.764.006z"/><path d="m729.47 614.287c-1.76-4.654-5.141-8.639-8.916-12.102 18.91-14.021 44.084-21.373 66.928-24.304 2.27-.29 4.543-.536 6.816-.714 7.221-.555 6.678 1.372-.34 3.92-7.643 2.773-15.033 6.209-21.98 10.307-9.434 5.563-20.004 13.371-25.131 23.65-5.807-.483-11.608-.724-17.377-.757z"/><path d="m753.089 574.513c-14.902 4.749-29.084 11.63-41.01 20.868-4.217-3.057-8.627-5.629-13.285-7.783 4.771-4.434 28.393-20.158 54.254-16.984 6.986.855 4.322 2.532.041 3.899z"/><path d="m721.765 567.41c-2.627.991-5.219 2.088-7.768 3.285-7.586 3.566-15.723 8.036-21.5 14.277-3.658-1.723-8.439-2.844-11.359-3.588 6.648-14.459 24.451-18.313 39.811-16.97 5.226.453 3.421 2.015.816 2.996z"/><path d="m695.157 558.254c-10.736 4.1-16.674 11.482-20.184 22.363-2.723-.408-10.713-2.205-13.447-2.408 2.496-8.785 4.793-17.633 6.76-26.547 8.979 2.16 17.941 4.379 26.91 6.58-.013.004-.025.008-.039.012z"/><path d="m709.651 606.678c5.893 4.831 1.688 4.173-1.857 3.713-10.299-1.336-20.689-1.747-31.021-.213-11.146 1.654-21.348 5.871-30.262 12.148 4.41-11.039 8.404-22.307 11.951-33.756 18.307.817 36.986 6.442 51.189 18.108z"/><path d="m647.239 627.309c17.734-14.66 33.783-16.623 65.822-11.059 11.457 1.986 8.77 9.188 4.594 12.901-7.402 6.583-20.918 6.056-29.9 12.767-5.145 3.846-7.83 9.859-8.322 16.121-5.658-3.238-11.23-6.641-16.898-9.842-5.512-3.121-11.279-6.49-17.277-9.062-3.3-1.412-3.511-7.287 1.981-11.826z"/><path d="m691.995 733.862c-7.76-7.36-15.23-19.985-21.492-41.274-1.586-5.392-3.539-12.498.379-17.396 3.672-4.588 9.729-1.551 13.691.906 2.809 1.742 5.568 3.588 8.295 5.494-3.619 7.529-4.895 16.303-3.941 25.238.857 8.034 2.979 15.828 5.82 23.369 3.373 8.959 1.873 8.053-2.752 3.663z"/><path d="m709.741 732.334c1.008 2.656 2.281 5.204 3.666 7.693-6.238 3.094-26.662-21.852-19.127-49.354 1.613-5.902 4.178-5.041 7.898-2.278 4.127 3.073 8.225 6.179 12.33 9.224-3.264 2.176-5.531 5.686-6.418 9.742-1.577 8.377-1.4 16.93 1.651 24.973z"/><path d="m710.663 681.682c-4.607-3.462-10.807-7.545-1.07-12.158 17.684-8.368 42.084-8.34 58.232-3.424 4.787 1.457 3.525 4.621-1.238 4.578-1.852-.012-3.697.08-5.535.304-12.492 1.53-23.279 7.63-31.994 16.2-4.98 4.89-4.963 4.544-9.682 1.041-2.908-2.157-5.805-4.35-8.713-6.541z"/><path d="m759.921 737.559c3.732 2.699 7.898 5.891 9.398 10.441 1.488 4.51-1.918 7.484-6.031 9.27-10.965 4.76-26.664-.795-33.377-9.375-20.184-25.803-16-46.211-4.156-41.375 2.236.913 4.32 2.404 6.117 3.992 5.291 4.676 8.563 10.931 13.561 15.838 4.367 4.293 9.543 7.636 14.488 11.209z"/><path d="m797.521 711.119c-1.377 3.449-5.088 5.779-8.678 6.264-4.686.629-8.014-2.197-12.021-4.037-10.332-4.738-22.27-6.795-33.658-6.303-1.203-1.39-2.447-2.745-3.842-3.977-1.963-1.734-4.146-3.387-6.486-4.717 13.529-15.801 37.879-24.303 55.584-9.746 3.043 2.499 5.461 5.631 7.027 9.256 1.548 3.586 3.609 9.409 2.074 13.26z"/><path d="m813.021 678.709c-.816.779-1.68 1.502-2.557 2.209-.266.191-.529.389-.795.576-.504.355-1.018.701-1.535 1.035-1.953 1.263-3.998 2.379-6.117 3.336-.186.084-1.053.432-.209.102.84-.328-.012.004-.199.08-.277.111-.561.209-.84.314-1.027-1.352-2.102-2.6-3.209-3.68-4.699-4.579-10.447-7.857-16.631-9.832 6.697-9.917-.652-22.631-9.838-28.871-4.092-2.783-8.561-4.943-13.23-6.604-2.486-.881-7.055-2.322-9.148-6.039-1.832-3.254-1.211-5.354 5.594-4.518 10.986 1.348 23.016 3.488 32.74 6.932-4.426 3.777-5.707 9.635-3.986 15.781.057.412.158.838.34 1.287 5.227 12.99 17.076 21.604 29.66 27.85-.015.014-.025.03-.04.042z"/><path d="m845.78 679.35c-4.123-.836-8.191-1.963-12.182-3.376-7.959-2.813-15.709-6.339-22.898-10.774-6.709-4.141-14.098-9.605-17.146-17.18-1.701-4.912-.58-7.045 4.592-7.887 5.814-.945 12.129.268 17.691 1.959 3.746 1.139 7.455 2.404 11.156 3.695.893 9.395 6.662 18.434 14.023 24.982 2.201 1.956 4.521 3.754 6.938 5.412 6.518 4.476 3.215 4.257-2.174 3.169z"/><path d="m887.177 668.059c3.203 2.596 5.053 5.901 1.121 8.629-9.389 6.514-47.551.031-55.318-23.055-1.348-4.006-.955-5.854 3.842-4.096 9.83 3.602 20.58 7.545 30.115 10.639 6.664 2.164 14.662 3.363 20.24 7.883z"/><path d="m905.397 621.301c2.232 3.942 3.51 8.959 1.893 13.369-4.955 13.529-28.961 15.649-64.809 5.239-7.168-2.081-11.025-3.135-6.201-9.265 3.867-4.914 9.736-9.043 15.623-11.762 30.733-14.2 46.782-9.437 53.494 2.419z"/><path d="m874.485 603.11c6.957 1.549 5.518 2.347-.637 3.536-6.746 1.3-13.373 3.111-19.721 5.693-8.838 3.592-17.51 8.732-22.904 16.828-1.307 1.958-2.268 3.959-2.969 5.981-3.523-1.275-7.057-2.497-10.635-3.511-4.547-1.291-9.637-2.262-14.658-2.352 2.512-10.578 12.867-17.525 22.711-21.408 15.022-5.924 32.975-8.299 48.813-4.767z"/><path d="m830.931 591.18c-2.404 5.48-6.949 5.856-12.561 8.467-11.326 5.271-21.467 13.605-25.082 25.344-10.172-3.781-22.299-6.684-33.686-8.496-5.063-.803-8.572-1.498-3.279-7.68 11.637-13.597 31.658-24.633 52.75-28.197 18.694-3.159 24.664 4.177 21.858 10.562z"/></g><path d="m751.798 332.573c34.459 11.23 68.879 26.201 94.498 52.592 19.18 19.761 21.365 29.858 19.143 46.003-1.334 9.685-6.08 17.808-10.008 26.574-.316.703.385 1.695 1.17 1.17 8.652-5.777 12.338-16.879 13.689-26.75 1.432-10.468 2.666-8.267 4.914-1.671.596 1.743 1.133 3.506 1.615 5.289 4.932 18.284 3.072 39.014-2.668 56.946-11.391 35.576-44.119 60.883-79.963 68.301-19.266 3.986-38.869-.113-57.814-4.063-22.139-4.615-44.02-10.355-66.004-15.631 1.184-6.031 2.254-12.07 3.188-18.117 2.273.938 4.639 1.695 6.936 2.473 5.666 1.914 11.408 3.596 17.213 5.031 11.283 2.793 22.902 4.377 34.502 5.012 20.273 1.109 44.064.959 63.121-7.686 5.453-2.475 4.914-3.722-1.035-2.771-53.711 8.578-93.172.844-110.473-3.737-8.85-2.345-9.248-4.403-8.348-11.659.338-2.725.65-5.449.936-8.17 3.596-34.474 5.107-69.5 3.143-104.139-1.178-20.765-4.9-40.802-14.516-59.395-4.971-9.616-10.813-18.673-18.281-26.197 35.671 1.864 71.198 9.565 105.042 20.595z" fill="#aa8053"/><path d="m603.036 300.867c16.41 4.249 31.508 11.115 42.063 24.84 11.277 14.668 18.533 32.398 21.637 50.545 2.775 16.211 2.725 32.689 2.934 49.083.178 14.11-.176 28.159-1.1 42.243-1.537 23.472-3.523 46.828-8.148 69.924-3.945 19.697-9.471 39.01-15.646 58.113-6 18.551-12.926 36.629-22.314 53.754-10.348 18.868-22.381 37.137-34.855 54.657-9.174 12.882-20.066 23.073-33.037 32.028-15.18 10.482-29.469 22.113-48.053 25.463-17.801 3.209-38.032.844-53.823-8.297-16.539-9.576-29.086-27.193-37.08-44.188-16.73-35.584-18.094-76.922-16.979-115.51.6-20.714 2.184-41.402 6.551-61.699 4.346-20.192 11.262-39.678 20.201-58.282 8.721-18.151 19.014-35.484 29.184-52.848 9.24-15.776 18.697-31.379 28.631-46.733 9.984-15.434 19.768-31.79 32.977-44.723 15.311-14.986 34.586-26.857 56.082-29.708 10.205-1.352 20.756-1.075 30.775 1.338z" fill="#a2603f"/><path d="m169.213 412.382c-.422-19.193 8.225-37.841 18.734-53.466 10.367-15.415 25.023-27.528 39.207-39.306 16.463-13.675 33.795-26.334 51.803-37.901 33.611-21.597 69.785-37.598 109.16-45.165 20.084-3.86 40.486-5.638 60.902-6.493 18.059-.755 36.383-1.625 54.407.164 9.037.896 18.047 2.25 26.922 4.184 7.15 1.56 14.92 3.218 21.246 7.068 16.787 10.212 24.486 28.299 23.605 47.131-11.594 1.036-23.01 4.095-33.193 9.291-19.785 10.098-36.332 24.858-49.182 42.896-17.271 24.241-33.043 49.654-48.041 75.435-26.621-11.41-53.65-17.278-82.887-13.214-32.742 4.55-65.021 15.057-96 26.273-26.373 9.55-52.377 20.874-77.252 34.219-14.31-13.527-19.005-31.912-19.431-51.116z" fill="#a2603f"/><path d="m86.667 566.963c6.238-19.256 22.207-34.877 37.174-47.711 19.096-16.373 40.518-30.03 62.424-42.302 19.367-10.849 39.383-20.749 60-29.001 30.299-12.13 61.533-22.579 93.346-29.951 14.568-3.376 29.289-6.154 44.303-5.981 13.777.158 27.242 2.843 40.256 7.291 5.211 1.779 10.301 3.867 15.348 6.059-3.172 5.53-6.324 11.072-9.441 16.622-10.322 18.385-19.75 37.309-26.693 57.25-7.365 21.162-11.688 43.225-13.66 65.524-1.563 17.659-2.471 35.698-2.117 53.706-44.234 32.947-94.781 64.156-150.428 71.363-48.963 6.341-103.461-7.654-133.641-49.088-14.811-20.328-24.961-48.795-16.871-73.781z" fill="#aa8053"/><path d="m691.995 733.862c4.625 4.39 6.125 5.296 2.752-3.663-1.432-3.799-2.676-7.662-3.674-11.59-11.99-6.337-20.232-24.787-22.197-38.916-.828 4.207.48 8.994 1.627 12.895 6.262 21.289 13.732 33.914 21.492 41.274z" fill="#abab38"/><path d="m708.806 680.283c.619.477 1.252.943 1.857 1.398 2.908 2.191 5.805 4.385 8.713 6.541 4.719 3.503 4.701 3.849 9.682-1.041 7.875-7.744 17.455-13.436 28.443-15.596-16.902-1.233-35.191.601-48.695 8.698z" fill="#abab38"/><path d="m732.978 737.195c-7.139-7.719-13.555-20.397-11.549-31.266-8.188 1.406-8.973 19.651 8.482 41.965 6.713 8.58 22.412 14.135 33.377 9.375 2.973-1.289 5.547-3.213 6.201-5.876-13.201 4.068-26.812-3.707-36.511-14.198z" fill="#abab38"/><path d="m698.741 672.893c3.07-3.417 6.791-6.375 11.342-8.594 18.135-8.844 40.045-7.021 59.537-2.973-10.467-8.193-27.477-9.504-39.656-9.861-13.52-.396-30.098 2.391-39.348 13.054.42 1.421.973 2.826 1.791 4.153 2.127 1.375 4.25 2.756 6.334 4.221z" fill="#abab38"/><path d="m728.308 632.746c.248 0 .516-.006.764-.006 5.18.011 10.471.414 15.695 1.281-.418-1.49-.686-3.013-.83-4.555-2.539.779-5.168.655-8.016.258-1.738-.244-3.682-.912-5.588-1.395-.361 1.273-.852 2.52-1.531 3.709-.147.255-.338.466-.494.708z" fill="#abab38"/><path d="m713.407 740.027c-1.385-2.489-2.658-5.037-3.666-7.693-.979-2.584-1.635-5.223-2.059-7.889-8.947-6.201-14.049-16.674-14.604-27.594-3.276 24.928 14.562 46.036 20.329 43.176z" fill="#abab38"/><path d="m637.614 677.689c7.299 26.028 19.969 34.24 28.24 32.754-.279-.66-.6-1.32-.871-1.979-1.445-3.509-3.016-7.357-4.295-11.34-6.764-.95-12.668-7.924-16.625-13.244-5.225-7.029-8.111-14.799-9.799-23.004.383 4.478 1.469 10.101 3.35 16.813z" fill="#abab38"/><path d="m621.411 681.274c4.152 8.071 10.531 15.131 17.584 20.647 5.271 4.129 2.992.438.449-3.957-1.861-3.211-3.494-6.55-4.914-9.99-1.982-.438-3.951-.955-5.947-1.881-2.676-1.241-4.973-2.964-7.172-4.819z" fill="#abab38"/><path d="m645.257 639.136c5.998 2.571 11.766 5.94 17.277 9.062 5.668 3.201 11.24 6.604 16.898 9.842.492-6.262 3.178-12.275 8.322-16.121 8.982-6.711 22.498-6.184 29.9-12.767 2.139-1.903 3.873-4.719 3.529-7.282-7.463 8.916-24.469 9.512-34.613 13.199-5.943 2.164-11.426 5.304-17.516 7.115-8.916 2.654-21.379-3.816-23.514-13.219-3.686 4.21-3.193 8.924-.283 10.171z" fill="#abab38"/><path d="m646.511 622.326c8.914-6.277 19.115-10.494 30.262-12.148 9.387-1.395 18.814-1.137 28.186-.086-2.338-.813-4.674-1.668-6.887-2.201-5.949-1.43-11.951-2.041-18.061-2.178-9.729-.223-19.883 1.531-29.123 4.994-1.432 3.887-2.844 7.785-4.377 11.619z" fill="#abab38"/><path d="m674.974 580.617c2.605-8.077 6.559-14.217 12.813-18.526-8.789 2.413-17.377 9.087-20.217 17.114 2.9.563 5.927 1.191 7.404 1.412z" fill="#abab38"/><path d="m685.687 582.578c2.271.635 4.711 1.406 6.811 2.395 5.777-6.241 13.914-10.711 21.5-14.277.607-.287 1.238-.508 1.852-.784-11.083.041-24.378 3.822-30.163 12.666z" fill="#abab38"/><path d="m712.079 595.381c10-7.747 21.625-13.742 33.895-18.307-14.287.811-29.277 5.127-39.887 14.395 2.037 1.211 4.041 2.498 5.992 3.912z" fill="#abab38"/><path d="m728.081 611.373c.52.946 1.008 1.906 1.389 2.914 5.77.033 11.57.273 17.377.758 5.127-10.279 15.697-18.087 25.131-23.65 3.221-1.9 6.547-3.643 9.939-5.258-19.346-.444-41.852 10.129-53.836 25.236z" fill="#abab38"/><path d="m774.552 705.248c-5.502-3.079-10.932-4.814-17.113-5.975-6.301-1.186-14.846-1.768-20.842 1.588.941.709 1.861 1.443 2.725 2.205 1.395 1.231 2.639 2.587 3.842 3.977 11.389-.492 23.326 1.564 33.658 6.303 4.008 1.84 7.336 4.666 12.021 4.037 3.316-.447 6.652-2.516 8.24-5.543-7.336.541-14.713-2.217-22.531-6.592z" fill="#abab38"/><path d="m811.06 630.131c2.258.402 4.471.914 6.561 1.508 3.578 1.014 7.111 2.235 10.635 3.511.701-2.022 1.662-4.023 2.969-5.981 5.395-8.096 14.066-13.236 22.904-16.828 2.66-1.082 5.379-2.002 8.127-2.832-18.542.895-38.3 7.436-51.196 20.622z" fill="#abab38"/><path d="m833.519 654.873c8.721 22.043 45.568 28.207 54.779 21.814 1.766-1.227 2.322-2.566 2.156-3.908-20.365 3.342-43.512-1.664-56.935-17.906z" fill="#abab38"/><path d="m785.728 602.229c-7.9 3.287-16.197 7.787-20.406 15.299 9.645 1.809 19.479 4.307 27.967 7.463 3.615-11.738 13.756-20.072 25.082-25.344 5.611-2.61 10.156-2.986 12.561-8.467.949-2.158.865-4.414-.342-6.348-2.602 7.619-15.104 9.545-22.381 10.816-7.796 1.36-15.175 3.54-22.481 6.581z" fill="#abab38"/><path d="m839.321 677.777c-6.043-2.633-11.865-5.785-17.246-9.043-5.35-3.234-26.016-18.42-23.234-28.652-.229.031-.467.014-.695.051-5.172.842-6.293 2.975-4.592 7.887 3.049 7.574 10.438 13.039 17.146 17.18 7.189 4.436 14.939 7.961 22.898 10.774 1.891.669 3.799 1.262 5.723 1.803z" fill="#abab38"/><path d="m907.29 634.67c.545-1.486.738-3.045.699-4.605-9.066 11.383-24.43 10.91-38.182 8.504-2.533-.443-27.242-5.274-28.717-12.756-1.775 1.51-3.445 3.1-4.811 4.832-4.824 6.13-.967 7.184 6.201 9.265 35.849 10.409 59.855 8.289 64.81-5.24z" fill="#abab38"/><path d="m783.269 667.137c-.355 1.961-1.105 3.884-2.34 5.713 6.184 1.975 11.932 5.253 16.631 9.832 1.107 1.08 2.182 2.328 3.209 3.68.279-.105.563-.203.84-.314.188-.076 1.039-.408.199-.08-.844.33.023-.018.209-.102 2.119-.957 4.164-2.073 6.117-3.336.518-.334 1.031-.68 1.535-1.035.266-.188.529-.385.795-.576.877-.707 1.74-1.43 2.557-2.209.016-.012.025-.028.039-.041-4.332-2.148-8.555-4.607-12.471-7.4-6.307 1.237-12.83.028-17.32-4.132z" fill="#abab38"/><path d="m660.118 628.236c-.18.225.039.502.301.389 11.434-5.039 23.398-5.365 35.555-6.891.332-.041.609-.564.201-.736-10.61-4.477-28.535-2.084-36.057 7.238z" fill="#d7e338"/><path d="m676.687 598.434c.547-.023.775-.752.281-1.043-4.602-2.721-10.352-3.734-14.887-.402-.188.139-.184.439.066.511 4.704 1.357 9.682 1.135 14.54.934z" fill="#d7e338"/><path d="m643.976 660.324c-.141-.309-.648-.294-.795 0-3.326 6.695.918 15.48 5.824 20.201.305.297.893.1.869-.359-.188-3.713-1.236-6.57-2.543-10.014-1.227-3.24-1.91-6.683-3.355-9.828z" fill="#d7e338"/><path d="m679.976 681.057c-.213-.25-.57-.182-.789 0-2.443 1.99-1.881 6.416-1.74 9.233.197 3.962 1.033 7.755 3.977 10.534.281.265.9.199.963-.256.465-3.324-.182-6.27-.627-9.561-.406-2.993.28-7.536-1.784-9.95z" fill="#d7e338"/><path d="m734.46 668.518c-4.5-2.264-12.084-1.346-15.248 2.834-.127.171.049.391.229.396 2.439.1 4.783-.645 7.156-1.127 2.572-.521 5.191-.619 7.754-1.263.373-.094.468-.663.109-.84z" fill="#d7e338"/><path d="m741.269 668.24c.146-.172.166-.412 0-.58-.955-.969-2.084-.896-3.314-.494-.57.188-1.486.893-1.133 1.602.769 1.541 3.65.408 4.447-.528z" fill="#d7e338"/><path d="m851.659 625.299c-.166.205-.074.526.219.533 4.906.092 9.711-1.531 14.475-2.535 6.535-1.377 13.889-1.943 20.566-2.396.484-.033.768-.728.266-.98-10.067-5.081-28.002-4.136-35.526 5.378z" fill="#d7e338"/><path d="m890.583 620.016c-.848.414-.678 1.58 0 2.035 1.785 1.199 3.961 1.623 5.939.736.225-.102.32-.412.258-.631-.777-2.693-3.896-3.263-6.197-2.14z" fill="#d7e338"/><path d="m821.298 657.096c-1.535-1.258-2.996-2.723-4.193-4.307-1.178-1.559-2.07-3.404-3.527-4.719-.477-.43-1.207-.248-1.402.371-1.32 4.164 2.262 8.666 5.045 11.383 3.445 3.365 7.256 6.074 12.158 6.13.443.005.707-.491.498-.866-2.114-3.754-5.323-5.325-8.579-7.992z" fill="#d7e338"/><path d="m850.675 658.324c-.268-.105-.477.244-.352.461 3.201 5.611 10.572 8.762 16.777 7.006.385-.108.389-.57.102-.783-4.824-3.57-10.994-4.472-16.527-6.684z" fill="#d7e338"/><path d="m870.421 666.415c-.104.134-.086.362 0 .497.914 1.506 3.336 2.031 4.631.746.121-.123.18-.316.127-.482-.631-2.012-3.526-2.389-4.758-.761z" fill="#d7e338"/><path d="m749.388 693.186c-.154.215.059.449.27.472 4.447.476 8.986-1.372 13.354-2.19 5.582-1.045 11.244.162 16.863-.438.463-.05.807-.606.406-.983-7.389-6.922-24.899-5.217-30.893 3.139z" fill="#d7e338"/><path d="m740.376 730.582c-2.055-1.459-3.881-3.227-5.646-5.016-1.512-1.534-2.473-3.514-4.254-4.762-.111-.078-.281.002-.313.127-1.074 4.219 3.314 8.572 6.148 11.105 4.066 3.635 9.014 6.984 14.504 7.736.48.066.779-.406.465-.797-2.941-3.647-7.142-5.721-10.904-8.393z" fill="#d7e338"/><path d="m754.103 740.145c-.461-.336-.938.291-.721.719 1.047 2.072 3.082 3.662 5.246 1.955.172-.137.15-.442 0-.58-1.348-1.253-3.096-1.055-4.525-2.094z" fill="#d7e338"/><path d="m819.858 585.213c-8.475-2.676-21.77-1.051-27.68 6.318-.162.199-.088.589.232.563 4.053-.334 8.041-1.834 11.975-2.844 5.119-1.314 10.354-1.744 15.473-3.148.452-.123.426-.753 0-.889z" fill="#d7e338"/><path d="m787.741 592.817c-1.771-.63-3.686.524-4.641 2.017-.457.713.164 1.447.877 1.529 1.879.217 4.158-.915 4.188-2.99.004-.269-.182-.469-.424-.556z" fill="#d7e338"/><path d="m675.935 564.77c1.135-.682 2.338-1.227 3.498-1.857 1.295-.707 2.137-1.848 3.057-2.955.227-.273.156-.688-.211-.797-3.043-.906-5.176-.076-7.801 1.564-1.803 1.125-4.424 2.896-4.244 5.324.014.16.1.283.254.332 1.874.603 3.9-.684 5.447-1.611z" fill="#d7e338"/><path d="m678.825 473.634c-.639 9.386-1.443 18.751-2.416 28.075-.285 2.721-.598 5.445-.936 8.17-.9 7.256-.502 9.314 8.348 11.659 17.301 4.581 56.762 12.315 110.473 3.737 5.949-.95 6.488.297 1.035 2.771-19.057 8.645-42.848 8.795-63.121 7.686-11.6-.635-23.219-2.219-34.502-5.012-5.805-1.436-11.547-3.117-17.213-5.031-2.297-.777-4.662-1.535-6.936-2.473-.934 6.047-2.004 12.086-3.188 18.117 21.984 5.275 43.865 11.016 66.004 15.631 18.945 3.949 38.549 8.049 57.814 4.063 34.191-7.076 65.502-30.453 78.209-63.473-2.465 4.518-5.299 8.838-8.613 12.857-9.854 11.951-26.572 20.869-42.207 17.646-10.346-2.133-16.367-13.762-26.844-16.588-9.98-2.689-21.342.002-31.469.307-15.305.461-31.189-4.381-45.092-10.383-15.147-6.538-29.111-15.503-39.346-27.759z" fill="#865725"/><path d="m388.813 576.404c-46.488 48.103-105.344 84.74-172.363 91.833-32.98 3.489-68.404-2.487-97.781-18.028-5.822-3.082-11.105-6.613-15.865-10.516.248.348.484.709.732 1.051 30.18 41.434 84.678 55.429 133.641 49.088 55.646-7.207 106.193-38.416 150.428-71.363-.276-14.069.231-28.153 1.208-42.065z" fill="#865725"/><path d="m368.194 491.146c-36.865 26.331-76.16 46.389-119.52 59.641-33.945 10.378-76.645 11.01-98.938 42.799-.604.863.621 2.146 1.486 1.486 32.23-24.615 72.572-26.678 109.922-38.561 40.551-12.9 80.383-30.682 108.215-63.853.657-.781-.218-2.19-1.165-1.512z" fill="#865725"/><path d="m380.831 491.146c-3.625 2.563-6.977 5.204-10.047 8.43-3.189 3.351-7.449 6.086-9.775 10.131-.143.244.045.493.299.52 4.865.508 10.008-2.215 13.85-4.982 4.504-3.245 7.074-7.699 7.123-13.267.005-.685-.841-1.261-1.45-.832z" fill="#865725"/><path d="m767.683 408.962c-19.324-6.358-41.629-10.298-61.994-10.008-.332.005-.484.478-.174.645 15.795 8.452 34.801 10.312 51.9 15.059 19.738 5.481 36.377 15.086 51.561 28.8.943.854 2.83.043 2.309-1.346-7.071-18.867-25.374-27.152-43.602-33.15z" fill="#865725"/><path d="m814.274 424.987c-2.727-2.01-6.145-3.964-9.588-4.163-.369-.021-.695.396-.572.751 1.09 3.104 3.479 5.327 5.592 7.75 2.318 2.664 5.252 5.31 8.953 4.7.322-.054.693-.415.742-.742.577-3.865-2.254-6.175-5.127-8.296z" fill="#865725"/><path d="m776.251 487.099c-.689-.021-.875.899-.338 1.242 3.963 2.522 7.619 4.055 12.395 4.261 2.893.125 7.82-.278 8.881-3.528 1.439-4.4-18.932-1.914-20.938-1.975z" fill="#865725"/><path d="m282.321 611.198c-11.688 1.517-21.951 6.124-33.08 9.772-12.027 3.943-24.146 6.221-36.561 8.496-.484.088-.461.845 0 .949 22.824 5.198 52.277-3.293 70.232-17.786.546-.438.118-1.524-.591-1.431z" fill="#865725"/><path d="m296.657 613.723c-2.975 1.105-5.725 1.439-8.465 3.225-2.746 1.787-5.23 3.742-7.326 6.273-.326.395-.109.92.4.969 3.047.293 6.061-.3 8.834-1.598 1.51-.707 2.865-1.404 4.195-2.417 1.479-1.128 2.465-2.668 3.852-3.896 1.119-.99-.055-3.091-1.49-2.556z" fill="#865725"/><path d="m396.061 440.587c-12.764-1.559-26.412-.582-36.104 8.969-.254.249-.074.732.297.716 12.346-.565 24.34-4.396 36.029-8.037.962-.298.684-1.537-.222-1.648z" fill="#865725"/><path d="m432.28 422.34c-2.68-1.073-5.377-2.098-8.111-3.032-13.014-4.448-26.479-7.133-40.256-7.291-15.014-.173-29.734 2.605-44.303 5.981-31.813 7.372-63.047 17.821-93.346 29.951-20.617 8.252-40.633 18.152-60 29.001-21.906 12.271-43.328 25.929-62.424 42.302-14.967 12.834-30.936 28.455-37.174 47.711-4.285 13.239-3.42 27.447.516 40.912 13.277-52.188 68.861-85.709 113.514-112.685 38.768-23.418 77.643-46.059 121.043-59.912 23.08-7.368 47.279-13.011 71.539-14.205 10.949-.539 22 .714 32.932 1.207 2.031.091 4.05.082 6.07.06z" fill="#d4ba89"/><path d="m751.798 332.573c-33.844-11.03-69.371-18.731-105.043-20.595 5.404 5.445 9.938 11.71 13.924 18.392 41.457 3.235 81.691 10.602 120.523 27.32 19.707 8.484 39.264 19.171 55.686 33.077 13.361 11.317 27.027 27.385 27.557 45.241.408-1.58.766-3.181.994-4.841 2.223-16.145.037-26.242-19.143-46.003-25.619-26.39-60.039-41.36-94.498-52.591z" fill="#d4ba89"/><path d="m622.46 649.369c7.877-14.365 13.973-29.427 19.287-44.852-11.875 15.572-25.006 30.182-39.514 43.469-31.484 28.834-80.195 61.586-125.284 50.715-33.84-8.16-54.43-40.963-65.291-71.668-6.701-18.949-10.521-39.258-11.586-59.672-.738 8.697-1.186 17.426-1.439 26.162-1.115 38.588.248 79.926 16.979 115.51 7.994 16.994 20.541 34.611 37.08 44.188 15.791 9.141 36.021 11.506 53.823 8.297 18.584-3.35 32.873-14.98 48.053-25.463 12.971-8.955 23.863-19.146 33.037-32.028 12.474-17.521 24.507-35.79 34.855-54.658z" fill="#81391c"/><path d="m284.918 400.991c-25.477 9.806-49.961 21.828-76.465 28.812-11.84 3.12-24.324 5.126-36.576 3.976 2.762 11.126 7.918 21.355 16.768 29.719 24.875-13.345 50.879-24.669 77.252-34.219 30.979-11.217 63.258-21.724 96-26.273 29.236-4.064 56.266 1.804 82.887 13.214 14.443-24.827 29.641-49.291 46.168-72.72-24.197 18.412-53.447 29.415-83.33 35.767-40.663 8.639-83.448 6.61-122.704 21.724z" fill="#81391c"/><path d="m524.993 423.784c-25.18 17.346-35.682 52.818-42.43 81.063-9.58 40.111-2.816 82.004 2.123 122.285.084.693 1.012.704 1.086 0 4.104-38.441-6.316-76.61 1.311-114.982 6.348-31.937 18.493-61.76 38.528-87.566.324-.417-.098-1.158-.618-.8z" fill="#81391c"/><path d="m495.245 596.697c-.17-.883-1.605-.883-1.777 0-.572 2.938-.93 5.9-1.113 8.89-.135 2.214-.49 5.364 1.637 6.724.209.135.521.135.732 0 2.154-1.377 1.715-4.49 1.635-6.724-.109-2.979-.546-5.97-1.114-8.89z" fill="#81391c"/><path d="m594.167 404.566c-1.961 16.817-1.656 33.859-3.416 50.726-1.742 16.728-6.59 32.913-7.887 49.675-.053.678.91.867 1.227.332 8.383-14.065 10.91-30.083 12.998-46.121 2.324-17.866 3.072-37.253-1.758-54.771-.191-.686-1.092-.472-1.164.159z" fill="#81391c"/><path d="m602.054 467.507c-.943 2.102-1.205 4.321-1.516 6.586-.398 2.921-1.08 5.447-.822 8.407.043.489.529.828.992.567 5.299-2.993 4.455-10.754 2.197-15.561-.148-.318-.705-.326-.851.001z" fill="#81391c"/><path d="m454.713 250.955c-18.178 9.806-36.701 18.736-56.045 26.024-18.881 7.115-37.998 13.457-56.113 22.432-18.066 8.949-35.895 18.35-53.18 28.739-16.871 10.141-35.369 21.475-48.102 36.774-.32.382.084 1.012.557.722 17.078-10.435 32.98-22.643 50.285-32.807 18.393-10.801 37.494-20.376 56.689-29.654 34.818-16.828 78.986-22.398 106.688-51.223.51-.531-.136-1.355-.779-1.007z" fill="#81391c"/><path d="m435.848 276.645c-9.025 3.55-18.326 7.467-26.746 12.266-.488.277-.305 1.158.299 1.104 9.896-.885 20.131-4.875 27.297-11.912.586-.579-.008-1.79-.85-1.458z" fill="#81391c"/><path d="m231.543 358.548c-12.48 7.473-21.611 20.407-28.059 33.263-.121.243.16.446.363.28 11.031-9.067 18.346-22.588 28.234-32.846.349-.362-.096-.963-.538-.697z" fill="#81391c"/><path d="m606.454 334.29c-1.178 5.953-.936 12.1-.998 18.145-.068 6.891-1.479 13.646-1.576 20.537-.012.748.936.906 1.318.357 7.563-10.844 5.559-27.06 1.732-39.039-.068-.218-.425-.253-.476 0z" fill="#81391c"/><path d="m616.741 366.652c-.111-.825-.904-1.183-1.574-.652-3.916 3.12-5.582 9.454-4.084 14.138.152.475.719.508.992.13 2.627-3.635 5.285-8.988 4.666-13.616z" fill="#81391c"/><path d="m586.509 578.382c-6.795 10.241-11.33 21.952-18.303 32.269-6.441 9.526-13.266 18.209-17.629 28.941-.268.656.682 1.098 1.127.656 14.807-14.6 36.82-39.293 35.939-61.561-.025-.619-.8-.812-1.134-.305z" fill="#81391c"/><path d="m571.72 630.074c-2.887 2.488-6.854 4.832-7.662 8.855-.082.408.242.73.648.648 4.135-.836 6.594-5.02 8.281-8.525.403-.835-.56-1.585-1.267-.978z" fill="#81391c"/><path d="m270.042 371.225c23.451-18.389 50.824-23.85 77.727-34.908.547-.225.551-1.201-.152-1.131-26.268 2.616-63.1 11.549-78.373 35.422-.339.529.376.95.798.617z" fill="#f5995a"/><path d="m332.985 350.919c2.414-.686 4.762-1.138 7.135-2.053 2.77-1.068 4.637-2.588 7.094-4.168.57-.368.205-1.234-.457-1.084-2.855.65-5.311.686-8.063 1.87-2.672 1.151-4.281 2.569-6.125 4.719-.268.311-.02.839.416.716z" fill="#f5995a"/><path d="m459.25 267.349c8.309.979 18.227-5.448 24.195-10.602.295-.253.07-.82-.324-.785-4.633.422-8.418 1.59-12.596 3.587-3.992 1.911-8.549 3.785-11.555 7.126-.247.275-.059.635.28.674z" fill="#f5995a"/><path d="m552.937 339.038c-12.658 17.805-29.324 41.964-25.721 65.059.145.922 1.432.736 1.684 0 4.08-12.004 7.047-24.05 12.172-35.715 4.256-9.686 8.863-19.123 12.707-28.988.202-.521-.563-.751-.842-.356z" fill="#f5995a"/><path d="m539.382 388.763c-.805 1.166-1.283 2.421-1.855 3.706-.248.556-.48 1.062-.684 1.638-.318.9.033 1.679-.213 2.586-.158.58.541.93.961.559.477-.417 1.135-.614 1.576-1.057.506-.506.744-1.227 1.012-1.87.629-1.504.699-3.612.521-5.204-.078-.702-.898-.966-1.318-.358z" fill="#f5995a"/><path d="m564.187 506.969c-3.34 14.332-11.029 27.68-13.674 42.033-.121.656.719 1.346 1.238.723 9.516-11.451 13.229-28.078 13.211-42.65 0-.442-.674-.547-.775-.106z" fill="#f5995a"/><path d="m608.483 531.559c-1.625 11.066-6.365 21.875-6.529 33.087-.008.56.695.671.98.265 6.723-9.496 7.439-22.064 6.193-33.262-.036-.336-.587-.487-.644-.09z" fill="#f5995a"/><path d="m612.757 554.563c-1.652 2.094-3.898 4.766-2.307 7.541.152.268.461.309.721.189 2.904-1.33 2.314-4.893 2.203-7.476-.012-.282-.408-.522-.617-.254z" fill="#f5995a"/><path d="m467.311 632.65c-2.117 11.561-1.379 26.142 1.996 37.442.146.491.785.446.949 0 4.148-11.188-.881-25.887-2.203-37.342-.045-.388-.66-.555-.742-.1z" fill="#f5995a"/><path d="m476.26 653.111c-.07 2.127-.41 4.258-.469 6.396-.043 1.6-.176 3.746 1.383 4.702.195.122.467.122.662 0 1.77-1.087 1.404-3.647 1.244-5.401-.195-2.181-.807-4.055-1.809-5.971-.261-.499-.995-.243-1.011.274z" fill="#f5995a"/><path d="m183.077 402.725c4.771-8.451 10.9-16.003 15.545-24.515.303-.555-.311-1.211-.879-.876-9.018 5.303-13.193 15.194-15.629 24.985-.143.575.664.937.963.406z" fill="#f5995a"/><path d="m188.331 411.218c1.086-.417 2.033-.485 3.047-1.096 1.191-.716 2.377-1.432 3.553-2.171 2.412-1.516 5.23-2.443 6.428-5.21.148-.341.037-.695-.334-.82-2.813-.95-5.051.751-7.215 2.406-1.24.95-2.426 1.944-3.533 3.051-1.092 1.097-1.506 2.079-2.336 3.332-.163.243.104.617.39.508z" fill="#f5995a"/><path d="m198.475 412.985c1.514-.753 3.258-1.183 4.811-1.915 1.65-.778 2.361-2.062 3.637-3.265.484-.455-.035-1.106-.592-1.017-.938.152-1.871.027-2.803.139-.982.117-1.918.672-2.762 1.17-1.629.963-2.482 2.211-3.395 3.785-.425.733.401 1.455 1.104 1.103z" fill="#f5995a"/><path d="m433.395 350.246c17.477-5.132 37.4-13.357 49.816-27.034.852-.94-.223-2.38-1.357-1.759-16 8.765-34.791 16.412-48.906 28.023-.365.301.027.893.447.77z" fill="#f5995a"/><path d="m479.01 335.422c.742-.282 1.764-.26 2.557-.476.982-.268 1.869-1.073 2.684-1.649.896-.634 1.678-1.426 2.5-2.151 1.066-.946 1.494-2.306 2.5-3.298.496-.487-.004-1.462-.705-1.209-.93.333-2.02.43-2.895.852-1.014.487-1.801 1.158-2.652 1.888-.891.766-1.662 1.634-2.477 2.479-.801.83-1.08 2.172-1.881 2.933-.264.248.006.769.369.631z" fill="#f5995a"/><path d="m521.739 287.776c4.941-.506 9.475-4.182 13.537-6.818 4.932-3.201 9.098-6.979 13.561-10.776.457-.389-.029-1.162-.578-.991-5.693 1.781-10.643 3.949-15.482 7.489-3.957 2.894-9.105 5.998-11.434 10.403-.149.28.027.73.396.693z" fill="#f5995a"/><path d="m581.019 320.334c-7.59 4.529-17.797 12.708-15.602 22.6.104.471.836.584 1.053.138 1.908-3.931 4.701-7.629 7.408-11.058 2.756-3.491 6.275-6.533 8.223-10.598.324-.683-.36-1.512-1.082-1.082z" fill="#f5995a"/><path d="m618.903 454.299c-2.336 16.229-2.287 34.298-1.57 50.668.031.686.941.786 1.164.158 5.553-15.628 6.084-34.899 1.262-50.826-.115-.387-.791-.463-.856 0z" fill="#f5995a"/><path d="m646.302 426.333c-.977 11.286.266 23.022-.148 34.402-.021.56.773.761 1.043.281 5.791-10.321 4.918-24.334-.127-34.892-.194-.402-.735-.16-.768.209z" fill="#f5995a"/><path d="m812.788 505.422c-.52 3.836-.389 7.635 2.07 10.824 2.451 3.184 6.443 4.831 10.432 4.675 9.602-.38 16.928-8.694 20.188-17.083 2.588-6.656 3.262-16.572-2.48-21.904-5.217-4.844-13.117-3.194-18.082 1.113-6.415 5.759-10.964 13.797-12.128 22.375zm27.399-5.635c-1.795 6.24-6.459 12.836-13.051 14.525-7.279 1.871-11.609-4.488-5.271-17.034 1.297-2.564 2.895-4.897 4.777-7.014 7.462-8.377 18.32-7.094 13.545 9.523z" fill="#68182b"/><path d="m574.636 543.119c-22.035 23.533-36.291 44.258-49.127 70.801-6.785 14.039-12.072 28.742-15.078 44.062-2.719 13.847-3.494 27.827-4.828 41.841-.607 6.374-1.617 21.936-8.743 34.938-3.734 6.818-2.002 8.49 2.911 2.016 5.033-6.631 7.791-15.82 9.564-23.129 3.289-13.561 3.992-27.557 6.604-41.24 5.746-30.123 15.678-63.777 61.096-126.84 4.915-6.826 3.263-8.494-2.399-2.449z" fill="#68182b"/><path d="m454.741 491.849c-11.352 26.462-16.82 48.312-18.582 71.122-2.549 32.957 1.85 46.574 8.051 75.453 4.395 20.467 8.533 44.326 6.66 64.889-.945 10.459 1.129 11.328 4.447 1.142 4.262-13.056 3.545-30.28.518-45.993-3.746-19.428-11.041-47.182-12.381-67.135-2.672-39.785 2.436-63.208 13.637-98.061 3.191-9.94 1.704-10.859-2.35-1.417z" fill="#68182b"/><path d="m529.417 518.689c-5.096 13.541-11.842 25.832-20.658 36.938-8.111 10.209-6.582 11.458 2.816 2.021 18.572-18.646 29.164-44.502 35.23-69.743 7.801-32.452 10.346-65.874 18.1-98.357 3.705-15.511 9.234-30.513 16.334-44.759 5.682-11.386 4.387-12.132-3.184-1.792-17.02 23.265-23.406 53.313-28.102 81.324-5.343 31.858-9.081 63.94-20.536 94.368z" fill="#68182b"/><path d="m639.509 462.854c-2.145-11.801-4.941-10.951-3.684.689 6.967 64.424-13.389 121.469-36.072 159.432-6.377 10.672-13.24 21.053-20.502 31.145-7.803 10.834-6.373 12.959 3.033 4.093 69.822-65.885 62.451-166.515 57.225-195.359z" fill="#68182b"/><path d="m515.112 372.669c-18.331 21.861-36.002 48.869-45.68 81.747-3.092 10.49-1.625 10.849 2.564 1.646 11.186-24.601 32.456-62.605 45.409-81.766 2.242-3.32 3.633-8.694-2.293-1.627z" fill="#68182b"/><path d="m634.646 420.376c-2.557-23.427-.891-44.933.785-58.286 1.117-8.855-.018-8.841-3.248-.753-8.545 21.409-7.65 44.636-1.959 60.896 3.05 8.719 5.511 8.131 4.422-1.857z" fill="#68182b"/><path d="m103.284 622.57c1.883 2.703 2.754 1.305 2.041-1.443-5.551-21.375-11.77-41.063 6.83-68.146 13.848-20.16 37.115-38.701 57.83-50.469.727-.412.242-1.675-.584-1.383-24.529 8.695-49.934 28.779-64.049 51.516-13.662 22.024-18.215 46.757-2.068 69.925z" fill="#68182b"/><path d="m146.815 656.935c-8.469-5.464-11.518-4.267-3.594 2.283 21.877 18.067 66.166 29.511 106.803 17.282 8.762-2.637 7.873-4.654-1.131-3.583-38.254 4.54-76.439.569-102.078-15.982z" fill="#68182b"/><path d="m191.754 606.57c57.568-3.034 111.629-16.322 164.119-65.191 7.84-7.309 6.244-8.676-3.063-2.613-64.391 41.963-95.73 52.145-160.186 63.682-12.706 2.273-13.413 4.786-.87 4.122z" fill="#68182b"/><path d="m220.938 541.902c31.191-21.842 64.381-33.58 79.418-39.412 25.135-9.751 51.455-20.073 71.619-38.445 6.893-6.278 5.633-7.638-2.033-2.469-24.781 16.711-61.684 30.76-76.477 36.492-14.27 5.529-49.057 16.025-75.258 40.384-6.099 5.671-4.062 8.208 2.731 3.45z" fill="#68182b"/><path d="m337.29 375.72c41.066-12.719 81.832-29.077 118.982-50.815 16.777-9.817 32.645-21.477 47.358-34.274 7.316-6.368 4.957-8.668-3.104-3.106-31.805 21.943-66.491 40.195-101.877 55.441-20.037 8.631-40.553 16.003-61.232 22.929-18.838 6.311-74.576 18.169-112.557 44.751-10.199 7.133-8.863 9.55 2.307 3.897 32.605-16.483 91.626-33.097 110.123-38.823z" fill="#68182b"/><path d="m375.272 262.096c11.994-4.356 23.883-8.993 35.797-13.562 8.834-3.39 8.646-5.124-.439-3.025-11.051 2.561-22.109 5.165-32.938 8.475-14.57 4.455-28.893 9.542-43.023 15.248-25.863 10.447-66 24.911-106.092 68.202-6.184 6.673-4.559 8.371 2.518 2.626 51.794-42.028 117.554-68.292 144.177-77.964z" fill="#68182b"/><path d="m515.937 255.034c-11.607 1.203-21.782 5.727-31.815 12.513-12.707 8.592-24.158 18.893-36.943 27.373-14.055 9.322-29.516 16.565-45.223 22.631-4.328 1.673-16.381 6.44-26.596 10.637-14.854 6.104-12.002 6.666-.066 3.672 12.363-3.101 21.932-6.523 27.336-8.415 15.297-5.356 30.211-11.778 44.02-20.327 23.203-14.365 43.572-36.875 70.299-44.924 7.421-2.228 6.861-3.978-1.012-3.16z" fill="#68182b"/><path d="m729.669 362.485c15.717 4.848 32.119 8.767 47.117 15.635 25.504 11.681 45.676 31.753 55.395 59.049 1.795 5.033 3.049 4.141 1.838-1.23-6.256-27.854-24.057-52.177-50.027-64.718-15.217-7.348-31.932-11.033-48.232-15.131-15.496-3.894-31.445-9.155-47.402-11.521-9.818-1.465-9.975.707-.539 3.723 15.991 5.113 27.664 9.817 41.85 14.193z" fill="#68182b"/><path d="m806.526 473.107c-18.123-4.34-36.57-7.039-54.705-11.416-9.83-2.374-19.549-5.152-29.25-7.997-5-1.467-9.959-3.071-14.928-4.641-12.992-4.107-14.232-1.191-1.691 4.011 4.4 1.824 8.885 3.458 13.369 5.063 10.141 3.63 20.482 6.644 30.91 9.336 18.359 4.744 37.037 8.837 56.018 8.944 6.658.037 6.789-1.736.277-3.3z" fill="#68182b"/><path d="m369.424 548.189c-3.387 3.41-6.74 6.85-10.396 10.008-4.016 3.461-9.102 5.794-12.51 9.879-4.168 4.994-.721 3.744 1.666 2.604 9.596-4.58 19.227-11.547 23.875-20.857 2.94-5.889-.771-3.509-2.635-1.634z" fill="#68182b"/></g></g></svg>