<svg id="Fruit" height="512" viewBox="0 0 992.13 992.13" width="512" xmlns="http://www.w3.org/2000/svg"><g><path d="m57.045 619.585c17.416 14.023 34.341 27.885 49.938 43.264 7.859 7.746 15.129 16.311 22.822 25.379 8.688 10.236 17.673 20.824 27.979 30.686 31.85 30.48 77.717 47.963 125.84 47.965h.006c2.977 0 5.942-.067 8.904-.205.636-.029 1.266-.045 1.885-.045.547 0 .989.012 1.341.032 3.988 2.888 8.016 5.749 12.044 8.597 4.401 3.115 8.776 6.293 13.156 9.474 20.988 15.246 42.693 31.013 68.656 41.339 13.761 5.471 28.354 8.246 43.375 8.246 22.297 0 45.104-5.984 67.791-17.787 31.625-16.453 60.914-42.434 82.712-72.963 25.316 10.578 51.53 15.926 78.192 15.926 32.545 0 64.082-8.02 93.737-23.838 55.132-29.41 91.019-85.096 95.991-148.955.25-3.209.41-6.494.479-9.843 29.286-14.771 51.61-41.704 64.239-77.763 5.452-3.604 10.725-6.936 16.275-10.042 8.961-5.009 20.199-15.563 22.852-37.392 2.196-18.091-3.904-29.883-9.41-36.589-6.39-7.783-14.643-12.193-22.268-14.731-16.005-83.002-84.529-166.13-177.848-166.13-1.244 0-2.493.015-3.743.046-23.639-36.135-58.685-61.133-100.122-71.072-14.857-3.563-30.217-5.368-45.654-5.368-51.173 0-101.399 20.006-137.803 54.89-34.348 32.913-55.479 80.659-59.711 132.578-24.875-9.085-52.533-13.919-80.812-13.919-14.341 0-28.563 1.248-42.271 3.709-48.312 8.672-90.326 35.905-118.305 76.681-25.396 37.013-37.672 82.531-35.146 128.256-9.438-.281-18.817-.811-27.941-1.572-3.369-.332-6.394-.492-9.246-.492-23.135 0-35.571 11.414-41.929 20.988-12.63 19.023-6.85 43.986 13.995 60.65z" fill="#fff"/><g><path d="m902.446 420.577c-8.586-85.14-81.219-173.267-173.415-161.409-18.774-34.998-50.297-62.582-92.731-72.76-57.221-13.722-119.113 3.055-161.363 43.539-40.878 39.173-57.063 98.021-52.35 153.313-40.938-25.664-95.549-33.153-142.746-24.681-96.213 17.271-148.386 113.695-130.702 205.436-19.188.393-38.492-.237-57.243-1.811-11.258-1.105-22.124-.334-28.947 9.941-6.85 10.314.92 22.317 9.075 28.838 17.805 14.337 35.433 28.793 51.726 44.855 17.91 17.655 32.414 38.465 50.548 55.82 30.702 29.383 75.109 43.088 117.138 41.156 6.426-.295 12.483.241 16.332 3.047 4.568 3.332 9.198 6.621 13.835 9.9 24.679 17.467 48.521 36.85 76.841 48.113 30.689 12.207 62.94 6.229 91.316-8.533 33.512-17.436 64.777-47.35 85.077-82.344 53.855 28.982 114.691 30.736 169.347 1.584 49.005-26.143 79.155-74.966 83.422-129.742.615-7.887.574-15.846.045-23.797 35.857-11.47 57.818-41.865 68.317-77.193 8.06-5.437 16.02-10.741 24.788-15.645 7.244-4.051 9.869-11.791 10.797-19.426 2.607-21.477-12.749-26.966-29.107-28.201z" fill="#68182b"/><path d="m884.7 420.351c-36.019.803-70.35 4.817-104.441 15.653-8.849 2.808-11.588 1.893-19.014-3.71-9.213-6.957-19.354-12.494-30.077-16.824 20.901-41.211 22.908-89.528 8.64-131.488-4.258-12.517-6.875-15.828 8.742-15.555 72.066 1.263 128.291 69.996 141.32 138.284 2.086 10.906 2.092 13.477-5.17 13.64z" fill="#fac135"/><path d="m509.265 474.738c21.25-17.621 38.154-38.604 51.013-63.164 6.411-12.249 19.934 4.611 23.253 8.086 11.064 11.576 7.358 20.692-.82 31.773-12.206 16.542-25.987 31.874-40.373 46.536-10.212-8.827-21.353-16.642-33.073-23.231z" fill="#b1d045"/><path d="m151.53 651.154c2.919.113 5.834-.073 8.67-.577 10.676-1.895 20.732-6.079 30.982-9.487 18.039-6 28.384-3.511 37.697 1.44 7.175 3.818 8.446 5.158 9.52 12.086 1.693 10.943 5.083 20.846 9.773 29.933-13.102 1.413-25.248 8.14-38.146 10.923-22.731 4.906-43.17-16.945-59.828-35.343-7.249-8.005-6.01-9.261 1.332-8.975z" fill="#b1d045"/><path d="m79.47 593.537c-6.816-5.452-6.552-8.933 1.076-6.002 16.84 6.476 33.855 12.47 50.895 18.401 6.355 2.217 6.901 2.939 2.441 3.469-26.742 3.162-34.429.221-54.412-15.868z" fill="#b1d045"/><path d="m121.599 614.878c7.183-.963 14.281-2.201 21.533-2.549 15.25-.728 26.424 4.68 58.041 17.738 3.908 1.611 6.161 2.83.613 4.002-5.825 1.236-11.309 3.029-15.236 4.334-10.814 3.598-21.301 8.063-32.787 8.938-2.896.221-5.591-.002-8.158-.533-13.771-2.853-13.813-6.535-33.008-24.586-3.252-3.057-6.292-5.897 1.707-6.531 2.474-.2 4.921-.495 7.295-.813z" fill="#b1d045"/><path d="m237.204 634.473c-.166 5.107-1.473 4.665-6.195 2.183-7.824-4.118-13.255-5.719-18.314-13.599-4.75-7.394-7.916-15.767-12.074-23.493-3.731-6.93-9.236-14.494-15.934-20.31-5.723-4.964-8.443-6.026 1.246-6.72 18.842-1.346 36.336-3.631 53.781 3.947 5.887 2.561 7.179 6.777 5.324 12.787-4.584 14.836-7.334 30.076-7.834 45.205z" fill="#b1d045"/><path d="m186.875 586.801c7.339 7.526 11.886 17.122 16.339 26.489 1.326 2.789 2.812 5.855 4.507 8.912 2.635 4.756 1.063 4.445-2.923 3.062-12.813-4.44-25.875-7.413-35.83-13.649-8.212-5.146-13.673-12.824-19.554-20.288-3.351-4.254-7.623-9.444-12.569-13.413-4.023-3.23-3.142-3.896 4.136-3.979 22.998-.268 33.206-.153 45.894 12.866z" fill="#b1d045"/><path d="m91.896 572.735c30.877 2.592 27.313-.668 37.319 5.506 9.972 6.154 16.304 14.814 24.564 24.904 3.081 3.764 3.959 5.281-2.108 3.146-24.089-8.479-48.281-16.639-72.099-25.874-8.454-3.284-7.594-5.107-2.484-7.199 4.501-1.846 10.103-.944 14.808-.483z" fill="#b1d045"/><path d="m197.357 699.433c18.737 1.56 34.815-9.702 52.971-10.922 8.112 14.178 19.395 26.381 32.24 37.564 5.165 4.5 4.7 6.424-.979 6.33-31.662-.51-62.229-10.381-87.601-28.764-5.866-4.253-4.577-4.872 3.369-4.208z" fill="#b1d045"/><path d="m484.441 786.249c-60.945 35.033-112.157-7.469-160.582-41.742-16.741-11.85-33.452-23.996-48.624-37.827-21.131-19.265-28.215-50.55-27.308-77.991.769-23.312 8.583-47.389 20.555-69.293-7.868 23.588-10.347 48.813-5.954 73.174 10.412 57.743 63.248 77.434 103.744 111.045 36.623 30.397 77.427 43.471 122.975 22.943 30.411-13.705 58.304-35.871 78.514-62.959-.193.402-.353.818-.449 1.252-19.451 34.048-50.432 62.753-82.871 81.398z" fill="#fac135"/><path d="m826.601 550.325c-.738-5.729-1.709-11.438-2.998-17.092 7.922-7.11 12.518-16.624 17.947-25.73 9.793-16.433 26.244-10.474 40.545-15.449-10.201 26.496-28 48.675-55.494 58.271z" fill="#fac135"/><path d="m901.438 464.205c-9.422 2.267-13.01 13.539-21.984 17.04-7.323 2.858-15.434 2.83-23.246 4.007-5.402.808-8.943.859-5.018-5.457 3.621-5.821 7.719-11.297 12.664-16.973.244-.279.014-.729-.369-.631-10.98 2.836-17.729 13.857-23.195 23.005-2.238 3.748-6.663 14.758-12.574 24.953-4.67 8.049-7.684 9.23-10.534 1.318-8.54-23.711-21.847-45.72-38.938-63.691 26.395-8.954 52.994-14.15 80.973-15.956 12.839-.829 25.732-.948 38.592-1.228 10.686-.23 23.184 5.664 23.213 18.188.024 10.855-11.48 13.477-19.584 15.425z" fill="#aa8053"/><path d="m628.302 195.508c-55.504-9.31-115.061 5.556-152.837 49.163-32.625 37.665-46.04 86.038-42.688 134.95.763 11.083 1.9 11.511 10.249 19.117 17.733 16.149 31.07 36.968 37.384 62.739 3.643 1.318 7.261 2.761 10.849 4.315 8.707 3.78 8.925 3.423 17.896-4.914 18.353-17.066 31.929-36.76 44.541-59.067 7.334-12.969 19.951-6.36 28.121 1.316 3.59 3.373 7.773 7.284 11.461 11.579 39.029-12.809 86.923-16.104 127.914-2.843 42.201-81.288 4.472-200.029-92.89-216.355zm31.449 96.621c-4.665 3.687-8.919 7.158-4.445 13.13 1.903 2.54 5.098 4.987 6.488 7.886 2.614 5.447 3.165 11.862-.623 16.908-9.374 12.476-27.734-4.602-38.466-4.561-9.721 1.961-19.104 10.898-29.416 7.377-4.988-1.703-7.456-7.058-8.236-11.856-1.099-6.745 4.302-13.987 2.606-20.339-3.546-5.674-12.799-5.579-18.104-9.314-4.011-2.824-6.281-8.392-3.941-13.019 5.83-11.528 19.237-5.37 29.25-8.812 5.455-3.001 3.326-12.278 3.995-17.671.61-4.921 2.929-11.001 7.82-13.232 6.321-2.886 11.957-1.222 16.034 4.505 3.982 5.591 3.012 15.637 8.711 19.43 8.639 4.334 19.987-1.563 27.878 5.26 7.373 6.371 7.387 17.615.449 24.308z" fill="#fac135"/><path d="m576.027 277.346c2.129-.16 4.312.022 6.442.063 4.959.099 9.986-.168 14.651-1.971.126-.047.195-.138.309-.195.15-.053.294-.047.446-.123 9.633-4.844 5.678-16.511 7.763-25.182.915-3.801 4.713-8.265 9.32-5.813 3.373 1.794 4.694 6.225 5.519 9.602 1.461 5.986 2.409 10.728 7.759 14.288 5.682 2.851 11.618 2.518 17.815 2.477 3.588-.025 7.086.327 9.904 2.765 4.39 3.795 3.025 10.836-.673 14.404-4.499 3.551-8.888 6.243-8.878 12.507.009 5.487 5.107 10.661 8.522 14.423 3.801 4.186 4.161 11.291-2.21 13.212-3.823 1.151-8.531-1.459-11.813-3.053-5.996-2.91-11.615-5.782-18.442-5.593-.202.006-.346.089-.526.121-.109.011-.2-.026-.313-.008-8.119 1.387-14.846 7.201-23.045 8.123-13.385 1.508-3.396-21.162-4.807-28.279-.002-.017-.008-.035-.01-.054-.035-.164-.044-.366-.091-.512-.042-.128-.126-.199-.177-.314-.059-.148-.059-.29-.143-.44-1.975-3.523-5.087-5.737-8.861-7.115-4.313-1.575-11.494-2.257-13.361-7.218-1.075-2.861 2.403-5.924 4.9-6.115z" fill="#aa8053"/><path d="m760.698 445.376c-43.996-35.938-108.494-37.875-161.074-21.61 3.777 7.075 4.853 14.793-.487 22.686-14.275 21.106-31.186 40.446-49.005 58.632 19.467 18.74 34.804 41.291 43.061 65.859 7.246 21.564 8.439 43.09 5 63.715.091.42.146.864.132 1.354-.656 23.114-7.456 46.221-18.461 67.734 51.337 27.59 113.225 30.494 163.983-1.133 43.359-27.016 72.92-71.305 73.473-123.435.517-48.814-17.829-102.111-56.622-133.802zm10.487 96.469c-1.835 1.801-4.791 2.717-6.422 4.56-2.902 3.278-4.24 7.53-3.146 11.825 2.746 7.199 10.671 14.73 4.938 22.752-5.766 8.065-15.127.777-20.484-3.351-1.71-1.194-3.516-2.292-5.289-3.39-1.863-1.154-2.9-.934-4.704.422-2.993 2.248-4.745 5.35-6.212 8.705-1.848 4.65-3.302 9.433-5.552 13.917-3.583 6.614-11.604 11.957-18.73 6.624-7.967-5.962-4.401-18.272-2.022-26.109 5.986-20.426-23.046-20.307-26.484-37.883-2.619-13.385 15.992-15.376 24.166-18.037 8.648-3.42 14.56-11.047 15.783-20.264.414-5.461 1.145-11.823 6.358-14.966 3.832-2.31 8.544-2.802 12.669-.889 4.429 2.055 6.738 5.782 7.02 10.614.492 8.42-.103 26.332 12.472 26.371 7.625-1.432 19.066-2.347 19.562 8.492.173 3.798-1.16 7.893-3.923 10.607z" fill="#fac135"/><path d="m768.51 530.261c1.368 3.285-1.071 6.951-3.715 8.682-7.269 4.758-11.563 11.969-9.271 20.966 1.876 4.921 6.21 9.165 6.656 14.526.73 8.765-10.596-.467-12.922-2.259-3.963-2.776-9.029-6.94-14.069-4.31-5.29 2.766-8.637 7.279-10.949 12.678-.058.135-.043.261-.084.396-.072.127-.177.214-.234.357-1.718 4.263-2.997 8.682-5.063 12.799-1.845 3.402-6.004 8.02-9.997 4.344-4.539-4.182-.664-14.166.792-18.963 2.755-9.398 1.146-17.18-6.687-23.399-4.672-3.71-10.384-5.817-15.101-9.489-7.518-5.848-2.098-14.027 5.256-16.195 3.233-.955 6.578-1.373 9.799-2.422 11.563-4.57 18.793-14.071 20.424-26.355.43-5.689 2.164-12.104 9.263-10.429 6.316 1.489 4.234 11.362 4.414 16.073.374 9.871 7.9 21.923 18.686 21.818.205-.002.354-.082.536-.113.105-.013.193.021.303 0 3.283-.647 10.108-3.156 11.963 1.295z" fill="#aa8053"/><path d="m566.813 542.677c-32.532-47.366-81.526-75.664-135.512-79.813-34.17-2.631-75.09 6.536-101.926 27.715-49.119 38.761-78.023 112.007-46.549 168.029 15.136 26.944 39.025 39.299 63.453 56.293 17.918 12.463 33.442 29.252 52.555 39.811 47.718 26.361 98.569 2.766 134.932-31.441 25.906-24.366 48.861-51.685 54.018-87.113.002-.049.007-.097.009-.146.013-.461.082-.885.183-1.283.478-3.625.831-7.305.918-11.105.691-30.28-4.956-56.017-22.081-80.947zm-80.16 130.047c-9.164 1.641-17.071-.955-23.9-6.16-34.41 26.99-98.6 32.27-110.641-21.689-3.092-13.855-1.781-32.273 3.478-49.757-23.364-16.333-27.585-47.948-1.361-65.128 21.108-13.826 50.169-14.1 73.877-6.973 5.659-10.285 16.118-15.99 34.372-11.829 39 8.89 69.275 39.487 74.809 79.437 4.692 33.884-14.578 75.642-50.634 82.099z" fill="#fac135"/><path d="m378.184 531.067c14.58-3.717 31.667-2.344 46.173 1.852-.775 3.088-1.311 6.355-1.648 9.74-30.405-8.012-52.229 14.279-63.493 42.178-24.677-18.963-7.778-46.948 18.968-53.77z" fill="#a2603f"/><path d="m366.385 652.179c-20.104-32.409 9.155-113.189 55.858-98.746.082 12.098 1.93 24.496 3.748 33.987 3.851 17.048 12.513 52.242 29.168 71.841-27.471 21.717-67.914 26.541-88.774-7.082z" fill="#a2603f"/><path d="m489.483 661.561c-32.117 11.431-48.934-57.438-53.335-76.942-2.421-12.631-3.728-24.907-3.748-37.738-.054-32.284 31.068-26.488 49.05-17.982 23.471 11.102 39.364 33.432 44.823 58.338 6.266 28.58-8.333 64.198-36.79 74.324z" fill="#a2603f"/><path d="m464.653 447.347c-27.984-66.547-114.101-92.83-182.013-78.613-90.393 18.922-141.073 105.194-123.032 194.233.049.247.054.478.072.714 8.898-.361 17.747-.928 26.473-1.761 24.08-2.298 44.842-3.659 65.629 8.847 28.137-53.711 62.7-82.103 67.094-85.764 15.187-12.658 32.732-22.306 51.928-27.646 23.795-5.63 47.514-7.677 71.861-4.906 9.968 1.136 26.285 5.112 21.988-5.104zm-182.611 35.265c-3.349 1.478-4.494 2.43-5.719 6.097-1.818 5.464.085 11.813-.032 17.495-.095 4.631-.813 8.561-3.235 12.551-4.285 7.057-11.707 4.523-16.275-.307-2.896-3.725-10.465-12.831-15.861-8.4-6.103 5.087-17.193 11.949-25.172 6.736-9.59-6.264 2.315-18.043 4.887-24.257 2.471-9.255-8.53-15.631-13.146-22.291-3.125-5.087-4.6-13.702.604-18.141 2.932-2.497 6.66-3.585 10.482-2.713 3.643.829 6.134 3.07 9.266 4.918 1.897 1.049 7.241 4.525 9.298 2.055 1.656-1.989 1.763-5.095 2.214-7.518 1.254-6.76 3.764-12.479 7.244-18.379 3.188-5.342 8.406-11.47 15.378-10.436 8.581 1.273 9.579 13.782 8.419 20.325-.93 4.243-2.38 8.367-3.246 12.621-.746 3.661.71 6.054 4.555 6.435 3.115.309 6.232.615 9.349.923 6.636.669 14.789 2.845 14.772 10.951-.016 7.775-8.022 8.793-13.782 11.335z" fill="#fac135"/><path d="m212.563 456.563c3.548-3.836 9.071 1.413 12.091 3.192 6.045 3.347 13.794 6.134 18.355-.798 2.132-3.238 2.253-7.734 3.016-11.392 1.062-5.083 3.415-9.486 6.027-13.92.785-1.312 1.754-2.896 2.934-4.266 3.63-4.213 8.003-4.243 9.135 1.606.565 2.925.417 6.35.181 7.683-1.396 6.372-4.488 12.817-3.261 19.422 1.642 8.828 13.412 7.902 20.011 8.555 3.421.344 11.695 1.952 6.94 6.736-1.905 1.917-5.205 2.402-7.665 3.238-7.034 2.386-10.665 6.687-11.081 17.924-.112 3.071.394 6.204.632 9.261.264 3.389-1.359 17.859-8.629 10.176-5.663-7.285-15.832-15.764-24.796-8.401-3.769 3.14-11.702 8.742-17.003 6.083-2.058-1.033-.134-4.793.495-6.078 3.988-8.173 7.944-11.361 7.299-17.313-.924-8.588-9.291-13.996-14.301-21.224-1.876-3.056-3.121-7.52-.38-10.484z" fill="#aa8053"/><path d="m186.096 580.622c6.039 5.613 11.066 12.522 14.524 18.941 4.158 7.727 7.324 16.1 12.074 23.493 5.06 7.88 10.49 9.48 18.314 13.599 4.723 2.482 6.029 2.925 6.195-2.183.098-2.929.351-5.864.613-8.798-23.579 5.636-27.327-39.48-51.72-45.052z" fill="#abab38"/><path d="m239.823 721.305c-12.79-1.884-26.004-6.642-37.994-12.44 23.725 14.986 51.279 23.083 79.76 23.541 5.68.094 6.145-1.83.979-6.33-3.308-2.881-6.506-5.832-9.579-8.861-10.183 4.233-20.869 5.901-33.166 4.09z" fill="#abab38"/><path d="m210.026 695.472c12.898-2.783 25.045-9.51 38.146-10.923-1.84-3.564-3.413-7.298-4.83-11.128-13.565 3.892-26.113 11.782-40.882 11.621-18.916-.205-34.538-10.632-49.172-21.514 16.072 17.565 35.393 36.551 56.738 31.944z" fill="#abab38"/><path d="m145.604 646.808c2.567.531 5.262.754 8.158.533 11.486-.874 21.973-5.34 32.787-8.938 3.928-1.305 9.411-3.098 15.236-4.334 5.548-1.172 3.295-2.391-.613-4.002-1.857-.768-3.633-1.504-5.354-2.219-8.311.711-16.606 3.08-24.49 5.501-11.096 3.408-22.043 4.728-33.504 2.511-7.796-1.508-14.761-5.606-21.41-9.996 15.43 14.912 16.404 18.295 29.19 20.944z" fill="#abab38"/><path d="m149.414 591.326c5.881 7.464 11.342 15.142 19.554 20.288 9.955 6.236 23.017 9.209 35.83 13.649 3.986 1.384 5.558 1.694 2.923-3.062-1.078-1.941-2.045-3.859-2.964-5.736-4.224-3.26-9.146-5.785-14.152-7.795-10.388-4.168-21.174-6.475-30.908-12.262-6.74-4.01-12.097-9.887-18.438-14.459 3.091 3.108 5.853 6.454 8.155 9.377z" fill="#abab38"/><path d="m133.882 609.405c4.46-.529 3.914-1.252-2.441-3.469-3.25-1.131-6.487-2.291-9.733-3.432-.893-.047-1.785-.084-2.681-.11-9.682-.292-18.322.983-27.49.124 12.378 8.098 21.677 9.333 42.345 6.887z" fill="#abab38"/><path d="m89.555 584.175c20.584 7.715 41.38 14.82 62.116 22.117 6.067 2.135 5.189.617 2.108-3.146-2.149-2.627-4.168-5.148-6.155-7.562-16.55-10.737-39.357-14.19-58.069-11.409z" fill="#abab38"/><path d="m534.794 475.208c-4.427 2.165-9.553 4.064-14.829 6.045 7.814 5.056 15.326 10.626 22.372 16.717 14.386-14.662 28.167-29.994 40.373-46.536 8.179-11.081 11.885-20.197.82-31.773-.863-.905-2.429-2.72-4.37-4.69.325 12.058-5.94 23.84-12.221 34.002-7.493 12.122-19.617 20.103-32.145 26.235z" fill="#abab38"/><path d="m149.169 619.089c-4.273.475-8.419 1.547-12.72 1.938-4.151.377-8.257-.457-12.397-.086-.376.032-.514.486-.191.705 5.04 3.381 11.67 4.076 17.62 3.76 7.524-.402 15.392-.748 22.854-1.684.49-.063.732-.561.396-.955-4.1-4.825-9.693-4.33-15.562-3.678z" fill="#d7e338"/><path d="m183.415 597.706c-1.469-6.701-6.4-10.568-11.957-14.141-4.496-2.893-13.08-6.834-18.084-3.341-.163.113-.236.366-.066.517 3.69 3.256 9.623 4.023 13.932 6.459 5.535 3.129 9.859 7.824 15.185 11.268.527.342 1.109-.216.99-.762z" fill="#d7e338"/><path d="m213.591 584.64c4.027 3.793 5.371 9.615 6.549 14.778 1.522 6.665 2.535 14.265 9.209 17.645.392.198 1.017-.136.821-.632-3.415-8.684-4.698-18.594-8.662-26.938-3.252-6.842-10.556-14.238-18.802-12.396-.229.049-.252.367-.064.48 3.859 2.32 7.6 3.906 10.949 7.063z" fill="#d7e338"/><path d="m232.116 607.628c.261-4.309-.809-8.629-4.166-11.484-.158-.136-.473-.012-.385.225 1.409 3.793 1.508 8.014 3.845 11.451.214.314.683.191.706-.192z" fill="#d7e338"/><path d="m220.152 670.208c-9.287-.471-17.792.201-26.96-2.117-7.814-1.977-15.088-5.666-22.968-7.365-.331-.07-.642.35-.353.604 12.124 10.719 35.939 20.907 50.587 10.013.48-.356.334-1.102-.306-1.135z" fill="#d7e338"/><path d="m219.626 665.123c-1.687.196-3.575.507-5.266.526-.403.004-.613.604-.216.799 1.902.928 3.31 1.421 5.481 1.439 2.316.021 3.797-.611 5.511-2.092.253-.221.024-.562-.245-.59-1.877-.203-3.374-.3-5.265-.082z" fill="#d7e338"/><path d="m227.348 652.3c-5.463-6.199-15.692-8.01-23.192-4.73-.309.136-.226.662.095.722 3.769.706 7.599.854 11.356 1.599 3.816.757 7.502 2.238 11.26 3.235.497.133.8-.464.481-.826z" fill="#d7e338"/><path d="m228.969 653.475c-.331.093-.452.456-.305.749.854 1.687 2.051 2.579 3.863 2.803.238.029.417-.217.428-.428.103-2.199-1.785-3.737-3.986-3.124z" fill="#d7e338"/><path d="m250.417 710.735c.374-.199.289-.802-.118-.9-5.305-1.287-10.657-1.644-15.999-2.699-5.494-1.084-10.883-2.856-16.517-2.963-.368-.007-.44.456-.175.643 8.67 6.138 22.805 11.242 32.809 5.919z" fill="#d7e338"/><path d="m257.247 712.443c.171-.302.031-.776-.346-.846-1.933-.362-3.965.266-5.617 1.267-.214.131-.268.443-.08.621 1.759 1.676 4.877 1.024 6.043-1.042z" fill="#d7e338"/><path d="m533.199 467.136c15.646-8.254 30.021-25.485 31.978-43.547.043-.407-.515-.472-.705-.191-10.139 14.9-20.07 28.972-32.527 42.111-.823.866.214 2.179 1.254 1.627z" fill="#d7e338"/><path d="m566.067 420.272c1.813-1.041 2.067-3.572 1.179-5.309-.124-.239-.44-.239-.621-.08-1.485 1.304-2.396 3.628-1.076 5.321.117.15.366.155.518.068z" fill="#d7e338"/><path d="m452.337 279.099c-15.705 30.747-21.962 65.484-19.56 100.522.763 11.083 1.9 11.511 10.249 19.117 17.733 16.149 31.07 36.968 37.384 62.739 3.643 1.318 7.261 2.761 10.849 4.315 8.707 3.78 8.925 3.423 17.896-4.914 18.353-17.066 31.929-36.76 44.541-59.067 7.334-12.969 19.951-6.36 28.121 1.316 3.59 3.373 7.773 7.284 11.461 11.579 39.029-12.809 86.923-16.104 127.914-2.843 8.143-15.688 13.279-32.773 15.616-50.247-5.437 8.943-12.36 16.735-21.761 22.741-17.174 10.972-37.855 10.299-57.154 7.117-20.022-3.304-39.374-10.139-59.75-11.276-17.061-.952-33.177 6.048-48.075 13.506-17.327 8.674-35.474 20.677-55.698 17.392-16.661-2.707-27.771-17.669-34.563-31.87-8.729-18.254-10.659-39.117-10.439-59.062.134-12.066 1.436-24.117 2.562-36.12.154-1.652.275-3.296.407-4.945z" fill="#ee9e2b"/><path d="m580.637 335.284c4.575 8.89 16.155 5.786 23.319 3.189 6.584-2.386 12.91-5.724 20.082-5.656 6.451.062 13.316 3.406 19.623 4.669 9.715 1.948 16.493-2.873 18.768-9.479-.352.702-.763 1.385-1.258 2.045-9.374 12.476-27.734-4.602-38.466-4.561-9.721 1.961-19.104 10.898-29.416 7.377-4.988-1.703-7.456-7.058-8.236-11.856-1.099-6.745 4.302-13.987 2.606-20.339-3.546-5.674-12.799-5.579-18.104-9.314-2.505-1.765-4.332-4.599-4.78-7.608-.573 3.618.86 7.479 4.382 10.945 2.086 2.051 4.68 3.604 6.814 5.632 3.922 3.727 2.575 10.114 2.098 14.798-.75 7.378-.84 13.534 2.568 20.158z" fill="#ee9e2b"/><path d="m731.168 415.47c10.724 4.33 20.864 9.867 30.077 16.824 7.426 5.603 10.165 6.518 19.014 3.71 5.118-1.627 10.244-3.052 15.378-4.383-7.079-49.949-19.619-102.508-53.797-141.142 11.952 40.397 9.159 85.888-10.672 124.991z" fill="#ee9e2b"/><path d="m159.608 562.967c.049.247.054.478.072.714 8.898-.361 17.747-.928 26.473-1.761 24.08-2.298 44.842-3.659 65.629 8.847 6.957-13.281 14.307-25.002 21.497-35.196-21.663 11.862-46.746 18.212-69.606 13.603-21.448-4.328-38.459-18.517-45.091-39.434-.487-1.539-.821-3.092-1.175-4.641-2.404 18.691-1.781 38.212 2.201 57.868z" fill="#ee9e2b"/><path d="m837.435 514.594c-3.912 6.77-7.957 13.366-13.832 18.64 1.289 5.654 2.26 11.363 2.998 17.092 17.26-6.023 30.693-17.01 40.832-30.906-10.219.968-20.395-.336-29.998-4.826z" fill="#ee9e2b"/><path d="m743.847 702.612c27.162-16.924 48.902-40.628 61.495-68.789-17.229 17.111-38.708 30.062-62.217 39.914-38.771 16.248-91.75 19.172-114.673-22.957-7.306-13.426-8.877-29.966-11.751-44.775-2.927-15.092-6.288-30.125-11.652-44.561-8.271-22.254-23.447-40.445-45.876-46.971 15.145 16.711 27.096 35.863 34.02 56.469 7.246 21.564 8.439 43.09 5 63.715.091.42.146.864.132 1.354-.656 23.114-7.456 46.221-18.461 67.734 51.336 27.59 113.224 30.494 163.983-1.133z" fill="#ee9e2b"/><path d="m484.441 786.249c10.538-6.057 20.911-13.189 30.797-21.207-12.219 6.475-24.739 12.086-36.784 16.838-19.212 7.576-39.26 12.352-59.796 7.707-19.401-4.387-37.55-19.635-53.657-30.708-15.135-10.404-30.153-20.946-45.95-30.334-13.734-8.161-27.597-16.013-39.806-26.415-17.566-14.965-26.688-36.935-31.075-59.809 1.554 23.674 9.372 48.229 27.065 64.358 15.172 13.831 31.883 25.978 48.624 37.827 48.425 34.274 99.637 76.776 160.582 41.743z" fill="#ee9e2b"/><path d="m205.503 514.982c2.384 9.077 10.291 12.724 19.136 11.214 1.627-.277 4.447-1.432 5.892-2.145 8.005-3.96 13.078-4.192 20.865-.428 3.674 1.773 8.028 4.295 12.317 3.322 11.759-2.67 13.746-15.487 12.173-27.217.218 2.197.448 4.382.405 6.475-.095 4.631-.813 8.561-3.235 12.551-4.285 7.057-11.707 4.523-16.275-.307-2.896-3.725-10.465-12.831-15.861-8.4-6.103 5.087-17.193 11.949-25.172 6.736-9.59-6.264 2.315-18.043 4.887-24.257 2.471-9.255-8.53-15.631-13.146-22.291-1.444-2.35-2.495-5.453-2.74-8.549-.825 3.875.22 8.313 1.757 12.558.56 1.54 1.33 3.044 2.038 4.519 4.458 9.277 3.343 13.952-.411 22.226-1.741 3.834-3.766 9.67-2.63 13.993z" fill="#ee9e2b"/><path d="m701.243 521.88c8.648-3.42 14.56-11.047 15.783-20.264.381-5.027 1.076-10.786 5.243-14.127-3.778 1.033-7.335 3.443-9.371 6.803-6.169 10.174-9.144 17.975-20.868 23.314-7.884 3.592-14.711 6.459-19.984 13.58-10.298 13.908 8.564 23.783 16.525 31.363 13.999 13.324-6.328 36.932 11.593 49.369 8.32 5.775 15.39 3.141 21.125-4.771 3.819-5.27 6.898-11.09 11.179-16.018 8.154-9.389 19.07 1.332 27.85-4.092 2.641-1.632 4.445-3.428 5.617-5.316-5.797 6.782-14.69-.104-19.863-4.091-1.71-1.194-3.516-2.292-5.289-3.39-1.863-1.154-2.9-.934-4.704.422-2.993 2.248-4.745 5.35-6.212 8.705-1.848 4.65-3.302 9.433-5.552 13.917-3.583 6.614-11.604 11.957-18.73 6.624-7.967-5.962-4.401-18.272-2.022-26.109 5.986-20.426-23.046-20.307-26.484-37.883-2.621-13.384 15.99-15.375 24.164-18.036z" fill="#ee9e2b"/><path d="m333.036 582.378c1.633 6.213 4.77 12.07 7.002 18.081 2.904 7.825 2.561 16.452 2.715 24.675.238 12.697 1.732 24.504 6.954 36.174 8.855 19.783 28.567 33.705 49.235 38.668 25.299 6.074 46.43-15.916 70.379-18.975 24.303-3.104 45.936-8.236 59.923-30.394 11.747-18.604 12.94-43.595 7.316-64.337-.035-.126-.087-.25-.124-.377.301 1.572.628 3.131.85 4.73 4.692 33.885-14.577 75.643-50.633 82.1-9.164 1.641-17.071-.955-23.9-6.16-34.41 26.99-98.6 32.27-110.641-21.689-3.092-13.855-1.781-32.273 3.478-49.757-16.377-11.447-23.295-30.392-16.97-46.62-6.305 9.887-8.603 22.381-5.584 33.881z" fill="#ee9e2b"/><g fill="#fbe134"><path d="m282.827 658.608c15.136 26.944 39.025 39.299 63.453 56.293 17.918 12.463 33.442 29.252 52.555 39.811 47.718 26.361 98.569 2.766 134.932-31.441 25.906-24.366 48.861-51.685 54.018-87.113.002-.049.007-.097.009-.146.013-.461.082-.885.183-1.283.478-3.625.831-7.305.918-11.105.691-30.278-4.955-56.015-22.08-80.945-.96-1.396-1.98-2.721-2.968-4.084 12.856 30.648 17.717 69.008 10.345 97.963-13.72 53.896-67.03 101.279-122.177 110.889-35.231 6.141-59.257-14.002-83.084-36.457-18.56-17.49-42.067-28.406-60.166-46.338-24.801-24.574-24.429-62.066-17.807-93.955 5.811-27.98 19.857-53.457 39.045-74.49 6.868-7.527 14.664-14.282 23.204-19.865-8.664 3.921-16.745 8.649-23.83 14.24-49.12 38.758-78.024 112.004-46.55 168.026z"/><path d="m403.176 408.62c-31.022-24.626-87.641-29.633-125.464-23.178-25.148 4.289-21.729 18.558 3.354 23.626 2.496.506 4.998 1.084 7.525 1.722 24.871 6.28 45.148 24.829 71.297 25.346 10.605.212 21.068-2.211 31.652-2.355 24.397-.34 26.201-13.605 11.636-25.161z"/><path d="m690.271 431.354c-29.748-5.622-71.148.56-82.256 38.574-3.898 13.343 5.056 30.558 19.037 33.104 14.775 2.688 29.754-11.048 39.938-19.827 8.576-7.395 17.418-13.948 27.465-19.236 27.476-14.469 9.265-30.075-4.184-32.615z"/><path d="m538.011 227.556c-6.57 1.633-13.039 4.364-19.182 7.91-17.63 10.172-32.592 27.033-39.672 43.826-5.836 13.835-8.002 30.864.71 44.039 8.939 13.522 26.131 9.41 34.63-1.883 5.278-7.01 8.792-14.917 12.507-22.809 4.897-10.413 11.63-20.045 19.111-28.734 36.906-42.864 3.656-46.182-8.104-42.349z"/><path d="m739.402 453.929c-1.415-5.176-5.778-9.754-10.711-11.672-10.077-3.916-16.587 9.216-12.202 16.999 1.638 2.906 5.57 5.221 9.638 6.14 8.318 1.877 15.145-4.62 13.275-11.467z"/><path d="m823.308 333.737c-21.253-23.518-31.756-19.444-26.987 9.784 2.557 15.672 4.87 32.807 9.548 45.543 8.627 23.482 26.076 24.029 37.568 15.135 19.14-14.803 3.546-44.264-20.129-70.462z"/><path d="m687.804 301.1c-4.256 11.148-8.387 26.808-2.941 38.074 5.315 10.996 22.499 16.284 32.058 4.893 9.98-11.893 7.012-28.13.216-42.387-8.881-18.655-21.406-21.331-29.333-.58z"/><path d="m706.886 650.407c-6.516 0-6.516 10.104 0 10.104s6.516-10.104 0-10.104z"/><path d="m709.786 662.942c-3.98 0-3.98 6.174 0 6.174s3.981-6.174 0-6.174z"/><path d="m717.067 659.106c-2.992 0-2.992 4.641 0 4.641 2.994 0 2.994-4.641 0-4.641z"/><path d="m860.298 396.272c-6.027 0-6.027 9.347 0 9.347 6.025 0 6.025-9.347 0-9.347z"/><path d="m850.819 408.1c2.885 0 2.885-4.476 0-4.476-2.886 0-2.886 4.476 0 4.476z"/><path d="m717.77 355.485c-4.754 0-4.754 7.372 0 7.372 4.752 0 4.752-7.372 0-7.372z"/><path d="m711.101 363.674c-3.248 0-3.248 5.035 0 5.035s3.248-5.035 0-5.035z"/><path d="m500.117 382.943c6.665 0 6.665-10.334 0-10.334-6.664 0-6.664 10.334 0 10.334z"/><path d="m503.722 387.865c.014.095.028.189.043.284.264 1.713 3.016 2.018 3.731.487.039-.088.08-.175.121-.264 1.636-3.502-4.494-4.423-3.895-.507z"/><path d="m534.872 369.687c5.411 0 5.411-8.393 0-8.393-5.412 0-5.412 8.393 0 8.393z"/><path d="m546.019 302.474c-5.721 0-5.721 8.869 0 8.869 5.717 0 5.717-8.869 0-8.869z"/><path d="m639.572 227.067c.401 2.452 3.402 3.783 5.597 3.179 1.273-.35 2.094-1.179 2.623-2.16.078-.132.181-.236.249-.379.054-.129.084-.259.125-.393.479-1.253.515-2.717-.267-3.795-.029-.041-.059-.08-.087-.119-3.081-4.244-9.108-1.649-8.269 3.484.009.062.019.124.029.183z"/><path d="m647.022 232.967c-.004.058-.008.117-.012.175-.217 2.971 4.823 2.971 4.607 0-.004-.058-.009-.117-.013-.175-.212-2.951-4.368-2.951-4.582 0z"/><path d="m601.178 359.887c.054.037.106.074.16.111.88.619 2.51.448 3.192-.411.039-.05.078-.099.117-.148 1.479-1.861.688-4.888-2.023-4.888-3.018 0-3.685 3.764-1.446 5.336z"/><path d="m607.54 364.605c2.482 0 2.482-3.851 0-3.851-2.483.001-2.483 3.851 0 3.851z"/><path d="m582.546 219.303c1.049 1.902 4.21 1.56 4.699-.615.021-.093.042-.185.063-.277.381-1.691-.779-3.396-2.586-3.396-2.071 0-3.291 2.267-2.316 4.036.047.083.092.168.14.252z"/><path d="m587.758 226.43c.058.009.113.017.169.027 2.912.444 2.912-3.925 0-3.48-.056.01-.111.019-.169.026-1.703.26-1.703 3.168 0 3.427z"/><path d="m309.576 455.654c-.045.035-.091.072-.138.106.095.052.188.104.281.154 2.446 1.346 5.566.615 7.002-1.834 1.279-2.185.729-5.897-1.834-7.002-.102-.044-.2-.087-.299-.13-2.973-1.279-6.541-.418-7.495 3.051-.705 2.56.527 4.577 2.483 5.655z"/><path d="m316.383 462.037c.004.012.011.022.015.035.601 1.423 3.15 1.423 3.752 0 .004-.013.01-.023.014-.035 1.745-4.135-5.527-4.135-3.781 0z"/><path d="m324.065 453.708c-.06.005-.119.007-.177.011-2.565.15-2.565 3.832 0 3.982.058.004.117.006.177.01 2.58.15 2.58-4.152 0-4.003z"/><path d="m179.649 496.724c.004-.007.01-.012.014-.016 1.346-1.204 1.662-2.643 1.338-3.946-.124-.895-.529-1.761-1.316-2.469-.009-.006-.015-.012-.021-.019-.938-.839-1.968-1.179-2.972-1.19-.08-.009-.163.002-.245-.002-.082.004-.164-.007-.244.002-1.004.012-2.035.352-2.973 1.19-.006.007-.013.013-.021.019-.788.708-1.193 1.574-1.316 2.469-.325 1.304-.009 2.742 1.337 3.946.004.004.01.009.015.016.071.063.154.084.228.141.795.738 1.805 1.245 2.975 1.245 1.171 0 2.181-.507 2.975-1.245.072-.057.154-.079.226-.141z"/><path d="m181.634 501.746c-1.456-.401-3.336 1.086-2.682 2.683.035.088.072.176.106.266.504 1.229 2.322 2.223 3.384.893.052-.066.104-.131.154-.195.99-1.243.756-3.175-.962-3.647z"/><path d="m311.277 625.005c-6.562 0-6.562 10.176 0 10.176 6.56 0 6.56-10.176 0-10.176z"/><path d="m315.464 638.116c-3.354 0-3.354 5.199 0 5.199 3.352 0 3.352-5.199 0-5.199z"/><path d="m320.38 634.664c-2.822 0-2.822 4.377 0 4.377 2.821 0 2.821-4.377 0-4.377z"/><path d="m507.138 704.276c-5.857 0-5.857 9.084 0 9.084 5.858 0 5.858-9.084 0-9.084z"/><path d="m510.908 702.706c.087.041.175.08.261.119 3.886 1.767 4.892-4.929.564-4.31-.095.013-.189.026-.284.039-1.905.274-2.248 3.377-.541 4.152z"/><path d="m551.046 566.992c5.751 0 5.751-8.917 0-8.917-5.75 0-5.75 8.917 0 8.917z"/><path d="m554.53 573.544c3.014 0 3.014-4.674 0-4.674s-3.013 4.674 0 4.674z"/></g><path d="m640.389 315.621c-10.056-1.524-17.091-11.788-24.537-17.809-7.744-6.264-17.392-7.148-26.108-4.244 1.428 1.145 2.657 2.526 3.609 4.226.084.15.084.292.143.44.051.115.135.187.177.314.047.146.056.348.091.512.002.019.008.037.01.054 1.411 7.117-8.578 29.787 4.807 28.279 8.199-.922 14.926-6.736 23.045-8.123.112-.019.203.019.313.008.181-.032.324-.115.526-.121 6.827-.189 12.446 2.683 18.442 5.593 3.281 1.594 7.989 4.204 11.813 3.053 6.371-1.921 6.011-9.026 2.21-13.212-.329-.362-.686-.751-1.039-1.14-3.925 1.993-8.345 2.952-13.502 2.17z" fill="#865725"/><path d="m762.181 574.435c-.446-5.361-4.78-9.605-6.656-14.526-2.293-8.997 2.002-16.208 9.271-20.966.978-.641 1.924-1.545 2.664-2.599-10.657.204-21.355 6.601-28.224 16.296-4.025 5.683-7.106 9.969-15.353 10.619-9.46.747-15.487-8.849-15.895-16.982-.448-8.924 5.673-17.146 9.538-24.725 1.915-3.754 3.219-7.555 3.561-11.268-3.264 8.063-9.497 14.262-18.165 17.688-3.221 1.049-6.565 1.467-9.799 2.422-7.354 2.168-12.773 10.348-5.256 16.195 4.717 3.672 10.429 5.779 15.101 9.489 7.832 6.22 9.441 14.001 6.687 23.399-1.456 4.797-5.331 14.781-.792 18.963 3.993 3.676 8.152-.941 9.997-4.344 2.065-4.117 3.345-8.536 5.063-12.799.058-.144.162-.23.234-.357.041-.136.026-.262.084-.396 2.313-5.398 5.659-9.912 10.949-12.678 5.04-2.631 10.106 1.533 14.069 4.31 2.326 1.792 13.652 11.023 12.922 2.259z" fill="#865725"/><path d="m854.649 466.784c-17.25-3.81-37.291 2.843-52.048 13.611 5.771 9.867 10.692 20.279 14.58 31.072 2.851 7.912 5.864 6.73 10.534-1.318 5.911-10.195 10.336-21.205 12.574-24.953 3.815-6.383 8.294-13.623 14.36-18.412z" fill="#865725"/><path d="m921.021 448.78c-.017-7.271-4.25-12.295-9.879-15.195-.412 8.346-7.275 17.655-13.317 23.988-7.347 7.703-28.906 21.884-39.13 11.535-2.739 3.516-5.232 7.033-7.504 10.687-3.926 6.316-.385 6.265 5.018 5.457 7.813-1.177 15.923-1.148 23.246-4.007 8.975-3.501 12.563-14.773 21.984-17.04 8.103-1.948 19.607-4.57 19.582-15.425z" fill="#865725"/><path d="m249.604 481.264c-7.775-6.284-17.466-5.326-25.801-1.309 1.775 2.516 3.104 5.204 3.439 8.316.646 5.952-3.311 9.141-7.299 17.313-.629 1.285-2.553 5.045-.495 6.078 5.301 2.659 13.234-2.943 17.003-6.083 8.964-7.362 19.133 1.116 24.796 8.401 7.27 7.684 8.893-6.787 8.629-10.176-.158-2.031-.374-4.092-.508-6.15-8.118-1.787-13.807-11.58-19.764-16.39z" fill="#865725"/><path d="m859.216 431.82c-27.979 1.806-54.578 7.002-80.973 15.956 3.285 3.453 6.383 7.099 9.382 10.834 26.2-9.129 51.687-19.504 77.928-27.119-2.113.101-4.228.194-6.337.329z" fill="#d4ba89"/><path d="m521.701 628.359c-5.221 9.181-14.432 15.209-24.308 18.286-13.939 4.344-26.774-3.547-34.933-14.328-11.459-15.15-11.963-37.033-16.752-54.783-3.728-13.807-11.268-27.127-11.935-41.09-.891 2.926-1.38 6.377-1.374 10.436.021 12.831 1.327 25.107 3.748 37.738 4.401 19.504 21.218 88.373 53.335 76.942 16.529-5.883 28.338-20.378 34.143-37.087-.611 1.305-1.202 2.616-1.924 3.886z" fill="#81391c"/><path d="m455.159 659.261c-16.146-18.998-24.764-52.6-28.785-70.172-.193 5.154.078 10.346.775 15.492 2.354 17.324 11.154 38.279-2.614 52.986-16.281 17.387-42.594 6.227-55.655-8.592-3.832-4.348-6.498-9.205-8.326-14.359.893 6.628 2.787 12.654 5.831 17.563 20.86 33.623 61.303 28.799 88.774 7.082z" fill="#81391c"/><path d="m384.788 541.149c-12.837 8.544-20.343 21.297-22.005 35.844 12.001-24.037 32.442-41.577 59.925-34.334.338-3.385.873-6.652 1.648-9.74-4.512-1.305-9.281-2.295-14.138-2.984-9.239 2.062-18.211 6.409-25.43 11.214z" fill="#81391c"/><path d="m388.909 585.858c-8.266 12.986-7.652 31.433-1.942 45.201.204.49.897.437.938-.127.551-7.654.149-15.121.144-22.781-.009-7.404 1.415-14.715 1.565-22.102.008-.388-.51-.499-.705-.191z" fill="#f5995a"/><path d="m382.999 629.71c-.125-.049-.316.027-.372.15-.671 1.5-.115 3.408.23 4.943.501 2.226.958 3.955 2.797 5.433.264.212.615.078.646-.268.212-2.368-.312-4.319-.889-6.599-.357-1.41-.966-3.098-2.412-3.659z" fill="#f5995a"/><path d="m411.747 580.223c-1.331 6.216-2.569 14.395-.128 20.425.202.5.814.5 1.017 0 2.441-6.03 1.203-14.209-.128-20.425-.08-.378-.681-.378-.761 0z" fill="#f5995a"/><path d="m472.312 583.417c-4.617-11.674-8.814-23.5-14.084-34.902-.185-.4-.722-.094-.662.279 2.211 13.576 6.05 26.691 10.766 39.595 4.39 12.021 8.971 24.101 18.046 33.36.457.465 1.234-.012 1.074-.626-3.453-13.138-10.156-25.101-15.14-37.706z" fill="#f5995a"/><path d="m479.676 617.71c-.132-.03-.239.023-.315.128-1.166 1.628-.092 4.274.576 5.896.889 2.16 2.103 4.57 4.646 4.996.27.045.582-.068.648-.368.498-2.294-.671-4.194-1.718-6.136-.82-1.525-1.98-4.077-3.837-4.516z" fill="#f5995a"/><path d="m359.622 554.423c-.033.344.454.523.674.279 3.588-4.005 7.671-7.619 11.447-11.447.271-.275 0-.779-.385-.66-5.742 1.769-11.107 5.379-11.736 11.828z" fill="#f5995a"/><path d="m480.725 545.296c-.28-.186-.539.209-.339.438 4.801 5.484 8.609 11.637 12.045 18.042 3.133 5.846 4.994 12.296 9.518 17.271.29.318.854.069.844-.35-.359-13.485-11.136-28.222-22.068-35.401z" fill="#81391c"/><path d="m508.045 576.638c-.337-1.58-.874-3.709-2.575-4.262-.113-.037-.238.021-.299.119-.748 1.242-.345 2.82-.135 4.186.37 2.398.699 3.885 2.118 5.852.177.245.571.236.662-.086.601-2.144.701-3.61.229-5.809z" fill="#81391c"/><path d="m392.29 569.612c-10.704 6.73-16.624 21.807-16.805 34.039-.013.783 1.045.842 1.293.175 2.181-5.849 3.668-11.901 6.204-17.618 2.575-5.803 6.476-10.736 9.826-16.076.2-.321-.197-.721-.518-.52z" fill="#81391c"/><path d="m373.033 599.803c-2.579 3.472-2.008 8.514-.197 12.155.175.354.804.291.872-.113.631-3.839.729-8.18-.223-11.982-.057-.227-.333-.221-.452-.06z" fill="#81391c"/><path d="m470.638 543.976c9.25 13.534 16.463 28.102 21.375 43.757 4.98 15.87 5.445 31.978 6.225 48.419.021.45.697.578.809.109 7.324-30.826-7.487-69.689-27.943-92.646-.226-.249-.658.08-.466.361z" fill="#68182b"/><path d="m504.222 588.478c.52 3.793 1.592 7.471 2.221 11.242.636 3.807.996 7.474 1.827 11.244.067.311.569.316.634 0 1.482-7.426.525-16.494-4.201-22.69-.188-.244-.523-.097-.481.204z" fill="#68182b"/><path d="m402.704 570.153c.048-.402-.565-.443-.678-.092-4.31 13.387-3.147 27.836-2.724 41.703.462 15.083 1.865 31.207 7.735 45.225.188.445 1.015.457.938-.127-3.795-28.759-8.623-57.602-5.271-86.709z" fill="#68182b"/><path d="m413.012 611.929c-1.318 9.926-.621 20.76 3.456 30.006.129.293.65.152.613-.166-1.156-9.964-2.031-20.002-3.454-29.922-.056-.383-.574-.231-.615.082z" fill="#68182b"/><path d="m393.983 599.411c-.054-.168-.266-.187-.362-.045-2.404 3.566-1.999 8.117-1.905 12.271.135 5.898 1.282 11.223 2.707 16.898.115.461.797.348.809-.109.126-4.959.023-9.725-.357-14.678-.359-4.679.511-9.844-.892-14.337z" fill="#68182b"/><path d="m340.589 379.142c11.517 1.646 22.772 4.436 33.822 8.039 21.359 6.963 39.92 18.619 57.643 32.166.465.356 1.092-.327.787-.787-11.519-17.482-32.101-27.024-51.164-33.995-20.485-7.492-49.055-14.829-70.727-8.685-.29.082-.337.584 0 .633 9.806 1.466 19.792 1.222 29.639 2.629z" fill="#68182b"/><path d="m443.013 426.666c.331.104.67-.239.567-.568-1.021-3.241-3.864-4.85-7.024-5.506-.361-.076-.646.35-.368.631 2.149 2.174 3.796 4.476 6.825 5.443z" fill="#68182b"/><path d="m504.464 236.815c.179-.181-.062-.519-.279-.362-39.282 28.281-62.1 78.459-59.519 126.579.031.563.928.753 1.035.14 4.28-24.646 8.09-48.81 18.376-71.82 9.401-21.031 24.361-38.29 40.387-54.537z" fill="#68182b"/><path d="m509.006 233.253c3.431-1.35 6.69-2.72 9.429-5.297.184-.171.115-.563-.158-.604-4.122-.608-8.012 1.705-9.604 5.465-.089.205.058.543.333.436z" fill="#68182b"/><path d="m693.31 706.362c-.676.217-.393 1.174.289 1.05 28.41-5.153 52.992-20.163 73.552-40.118 19.119-18.557 36.793-45.593 36.611-73.094-.002-.352-.524-.428-.614-.083-7.082 27.327-18.968 50.017-39.087 70.087-19.402 19.352-44.694 33.879-70.751 42.158z" fill="#68182b"/><path d="m579.627 440.207c-5.925 5.905-10.441 13.318-15.672 19.835-5.317 6.623-11.061 12.868-16.265 19.588-.335.432.173.963.605.604 12.012-9.966 25.999-24.993 31.88-39.707.129-.32-.33-.539-.548-.32z" fill="#68182b"/><path d="m804.792 588.722c1.742-1.777 2.006-4.295 2.327-6.654.378-2.785.472-5.712-1.243-8.094-.205-.285-.683-.283-.783.104-.648 2.482-.562 5.072-.736 7.616-.158 2.296-.893 4.546-.307 6.831.082.325.51.433.742.197z" fill="#68182b"/><path d="m834.622 330.787c14.285 16.776 24.039 36.614 35.692 55.161.327.521 1.151.188.993-.417-10.165-38.732-43.896-82.597-83.726-93.826-.27-.076-.437.313-.191.453 18.172 10.262 33.685 22.721 47.232 38.629z" fill="#68182b"/><path d="m875.161 398.738c.215.156.551.041.674-.177 1.442-2.544-1.123-7.104-3.195-8.687-.396-.303-.935.111-.941.539-.021 1.563.633 3.005 1.219 4.425.601 1.459.899 2.933 2.243 3.9z" fill="#68182b"/></g></g></svg>