<svg id="Fruit" height="512" viewBox="0 0 992.13 992.13" width="512" xmlns="http://www.w3.org/2000/svg"><g><path d="m866.39 363.988c-31.07-39.44-76.033-70.979-120.277-84.37-24.174-7.316-51.23-11.025-80.422-11.025-19.031 0-38.809 1.5-60.035 4.564-1.252-3.896-2.336-8.32-3.309-13.426-.623-3.271-.91-7.405-1.215-11.784-.676-9.739-1.443-20.779-6.16-31.918-8.064-19.037-24.852-29.955-46.055-29.955-8.238 0-17.297 1.588-27.697 4.851-31.813 9.98-47.825 35.077-39.845 62.446 4.794 16.448 13.72 28.504 21.596 39.14 1.886 2.547 3.661 4.945 5.274 7.251-35.983 15.333-65.846 34.98-89.346 58.755.455-1.85.729-3.739.814-5.652 1.186-14.288-4.498-29.898-15.341-41.999-10.317-11.515-23.911-18.117-37.296-18.117-11.506 0-22.455 4.833-30.83 13.612-10.295 10.793-16.269 24.362-21.541 36.336-1.627 3.698-3.165 7.193-4.656 10.187-11.148 22.354-17.596 32.787-32.543 38.874-12.385 5.042-25.959 8.265-40.33 11.677-6.479 1.539-12.947 3.078-19.336 4.781-21.343 5.689-42.729 17.089-65.381 34.854-45.141 35.4-69.771 90.24-67.57 150.46 2.391 65.359 40.895 122.419 72.773 158.78 21.322 24.316 46.769 39.639 75.699 45.59 2.035.918 4.192 1.602 6.437 2.041 20.862 4.058 41.917 6.115 62.577 6.115 81.006 0 152.843-31.221 202.276-87.912 1.818-2.084 3.607-4.217 5.363-6.389 32.893 15.223 69.484 22.926 109.074 22.926h.002c42.662 0 87.028-9.287 128.295-26.854 58.342-24.835 108.076-75.74 140.039-143.336 32.634-69.021 24.968-142.102-21.034-200.503z" fill="#fff"/><g><path d="m847.629 378.768c-26.86-34.097-66.812-63.693-108.435-76.291-47.092-14.252-99.375-11.452-147.343-2.897-6.833-10.38-10.497-22.406-12.968-35.382-2.373-12.47-.855-26.934-5.902-38.85-8.131-19.191-27.48-17.011-44.611-11.636-15.688 4.922-29.1 15.713-24.066 32.977 7.629 26.177 31.436 40.557 35.805 66.355-54.819 19.136-105.569 50.915-134.659 102.402-15.793-5.895-32.004-16.351-23.855-34.6 4.021-9.005 9.939-16.801 13.4-26.06.256-.454.471-.958.595-1.567.214-.64.28-1.229.271-1.791 2.226-20.241-24.655-47.112-42.334-28.582-10.155 10.645-15.655 27.755-22.106 40.693-11.164 22.39-20.84 40.536-44.906 50.335-20.035 8.158-41.703 11.866-62.523 17.416-20.93 5.579-39.913 17.332-56.793 30.57-40.176 31.507-60.28 80.462-58.441 130.796 1.963 53.653 32.379 104.575 66.863 143.906 19.34 22.057 41.375 34.393 66.199 38.629.607.613 1.432 1.088 2.539 1.305 88.857 17.282 181.393-4.209 242.293-74.049 5.895-6.761 11.295-13.893 16.203-21.305 71.265 41.313 161.214 36.195 235.177 4.709 58.342-24.835 101.094-75.084 127.803-131.57 28.314-59.886 23.033-123.158-18.206-175.513z" fill="#68182b"/><path d="m517.062 231.689c4.738-5.064 12.602-7.352 18.984-9.354 24.223-7.6 29.857 7.411 17.738 19.368-7.264 7.165-18.283 12.397-27.686 10.176-10.16-2.395-16.705-11.99-9.036-20.19z" fill="#ff8e5b"/><path d="m131.622 646.958c-25.6-61.717-10.742-128.951 38.331-173.681 37.613-34.283 86.6-33.96 130.696-54.128 31.754-14.521 41.467-57.881 58.049-85.54 9.016-15.037 29.029 5.444 26.738 16.809-4.506 13.428-22.977 31.768-17.381 47.337 6.418 17.851 26.115 25.013 42.822 30.496 27.381 8.987 51.119 11.968 73.223 32.747 27.1 25.471 32.848 63.993 24.719 98.685-13.563 57.878-60.02 104.021-102.198 143.25-37.721 35.085-90.693 61.219-142.723 63.934-66.505 3.472-109.806-65.741-132.276-119.909z" fill="#fbf199"/><path d="m479.204 695.003c-44.385 53.137-110.225 76.818-177.01 76.718 41.396-10.104 80.717-33.21 111.875-61.341 37.275-33.655 77.568-74.597 96.243-122.002 6.527-16.568 10.512-33.461 11.484-50.004 11.871 54.803-5.838 112.625-42.592 156.629z" fill="#ff8e5b"/><path d="m851.563 559.487c-25.363 49.605-63.143 90.867-113.756 114.979-70.104 33.393-161.041 37.135-229.367-2.262 31.838-53.979 37.809-121.264 8.35-178.477-.342-.664-.768-1.17-1.23-1.573-6.189-17.252-16.971-33.197-33.268-46.806-18.596-15.53-40.225-19.794-62.936-25.613-1.158-.296-2.387-.625-3.654-.979 27.558-47.202 74.23-76.653 124.922-94.755-.75 4.305-4.836 16.762-16.348 26.44-4.559 3.836-7.938 7.055-.047 4.727 6.987-2.067 13.096-5.879 17.745-10.869 12.804-13.742 12.206-40.419-3.103-62.541-3.859-5.579-7.957-10.97-11.918-16.473-4.195-5.833-5.289-7.125 2.56-6.915 10.858.29 22.507-5.637 30.188-13.636 6.215-6.479 5.863-5.444 6.947 3.242.818 6.512 1.23 13.236 2.08 19.021 1.746 11.907 5.393 23.455 11.254 33.678 11.873 20.708 31.255 30.594 47.959 24.046 8.596-3.361 1.232-3.34-1.82-3.394-16.974-.299-25.214-10.787-26.811-12.408 45.418-7.553 92.374-8.304 137.084 3.713 40.635 10.923 77.283 41.841 103.785 73.584 42.856 51.326 40.523 116.279 11.384 173.271z" fill="#ff8e5b"/><path d="m131.622 646.958c22.471 54.168 65.771 123.381 132.277 119.908 52.029-2.715 105.002-28.849 142.723-63.934 42.178-39.229 88.635-85.372 102.198-143.25 8.129-34.691 2.381-73.214-24.719-98.685-22.104-20.779-45.842-23.76-73.223-32.747-16.707-5.483-36.404-12.646-42.822-30.496-5.596-15.569 12.875-33.909 17.381-47.337.947-4.695-1.939-10.924-6.262-15.585.334 1.82.543 3.754.576 5.855.165 10.359-6.287 20.487-11.16 29.231-4.59 8.238-11.268 19.177-9.181 29.17 6.618 31.648 51.159 42.933 77.095 52.193 41.074 14.661 63.058 39.491 58.736 84.308-3.495 36.233-22.537 70.102-44.611 98.178-49.99 63.57-149.637 155.249-235.938 105.977-36.926-21.082-58.834-64.041-72.896-102.43-13.463-36.754-17.488-74.474-9.975-111.001-16.268 37.329-16.994 80.157-.199 120.645z" fill="#f3af79"/><path d="m450.567 491.111c-12.791-14.999-35.754-19.459-53.744-24.109-20.848-5.392-38.049-12.766-50.814-26.576-14.953-16.186-12.6-19.366-31.166-6.965-11.883 7.94-26.592 11.935-40.359 15.765-18.445 5.13-36.713 10.89-54.33 18.42-35.32 15.099-59.863 47.181-64.814 85.416-8.363 64.584 26.3 182.545 109.131 174.591 40.268-3.866 80.771-34.692 112.887-57.245 32.492-22.813 62.672-50.787 79.939-87.07 14.047-29.521 15.246-66.458-6.73-92.227z" fill="#fff7cf"/><path d="m479.204 695.003c5.367-6.426 10.275-13.176 14.797-20.139-14.191 18.951-31.661 35.352-52.078 48.109-24.984 15.609-52.777 23.041-81.309 25.569-18.512 10.2-38.215 18.245-58.42 23.178 66.785.101 132.625-23.58 177.01-76.717z" fill="#ff564d"/><path d="m872.226 461.763c-.994 8.041-2.432 16.065-4.273 24.029-6.422 27.746-16.852 55.584-31.689 79.932-28.004 45.945-74.91 79.326-126.943 92.198-56.816 14.056-128.523-.448-147.975-62.856-8.088-25.947-8.527-53.295-18.111-78.971-8.923-23.899-23.748-45.425-43.584-61.504-8.422-6.825-19.272-13.671-30.897-18.441 4.662 2.565 9.188 5.564 13.539 9.199 16.297 13.608 27.079 29.554 33.268 46.806.463.403.889.909 1.23 1.573 29.459 57.213 23.488 124.498-8.35 178.477 68.326 39.396 159.264 35.654 229.367 2.262 50.613-24.111 88.393-65.373 113.756-114.979 16.036-31.366 23.926-65.136 20.662-97.725z" fill="#ff564d"/><path d="m526.099 251.88c9.402 2.222 20.422-3.011 27.686-10.176 2.387-2.354 4.059-4.827 5.062-7.224-2.958 3.373-6.599 6.249-11.087 8.681-12.799 6.932-28.609 3.375-32.002-9.869-5.501 7.804.837 16.346 10.341 18.588z" fill="#ff564d"/><path d="m559.974 244.459c-.102.103-.17.168-.271.275-7.682 7.999-19.33 13.926-30.188 13.636-7.849-.21-6.755 1.082-2.56 6.915 3.961 5.503 8.059 10.894 11.918 16.473 15.309 22.122 15.906 48.799 3.103 62.541-2.302 2.471-4.966 4.648-7.913 6.472 13.07-1.725 21.143-21.981 22.32-32.632 1.426-12.922-2.943-24.762-6.303-36.949-2.822-10.239-.01-17.613 5.291-26.214 2.153-3.501 3.739-6.809 4.603-10.517z" fill="#ff564d"/><path d="m775.05 476.349c9.279-10.225 19.844-25.259 18.012-39.82-.064-.517-.666-.722-.98-.266-8.582 12.427-15.182 25.019-25.715 36.168-11.303 11.965-24.086 23.154-37.016 33.313-.955.748.259 1.967 1.195 1.549 17.141-7.618 31.855-17.004 44.504-30.944z" fill="#fbc471"/><path d="m705.165 516.293c6.326-2.073 11.563-5.148 16.813-9.224 4.719-3.663 11.082-9.756 12.025-15.954.063-.4-.292-.716-.676-.521-5.398 2.709-10.361 7.842-15.186 11.506-4.967 3.771-9.791 7.531-14.416 11.718-1.091.988.046 2.933 1.44 2.475z" fill="#fbc471"/><path d="m747.573 558.368c.61-.662.023-1.92-.928-1.594-9.314 3.178-17.666 8.244-26.232 12.997-9.432 5.235-19.531 8.896-29.379 13.216-.787.346-.301 1.422.398 1.473 19.922 1.487 43.001-11.857 56.141-26.092z" fill="#fbc471"/><path d="m759.3 556.835c-1.361.428-2.732.747-3.939 1.533-1.338.869-2.417 2.008-3.68 2.975-2.222 1.703-4.196 3.229-5.324 5.865-.15.354-.055.813.375.918 3.178.773 5.932-.355 8.559-2.131 3.166-2.139 5.096-4.371 5.135-8.303.005-.562-.575-1.029-1.126-.857z" fill="#fbc471"/><path d="m646.245 463.395c-12.016 3.443-23.734 7.843-35.807 11.062-11.998 3.201-24.402 4.384-36.425 7.508-.589.152-.606 1.063 0 1.206 24.28 5.662 53.933-2.865 73.159-18.182.774-.618-.063-1.843-.927-1.594z" fill="#fbc471"/><path d="m658.534 469.168c.9-1.158 1.02-2.563 1.363-3.943.152-.604-.381-1.099-.971-.971-1.285.275-2.547.162-3.779.673-1.324.553-2.475 1.195-3.676 1.986-1.139.751-2.297 1.459-3.273 2.415-1.1 1.076-1.404 1.887-2.184 3.129-.203.323.006.705.336.82 1.495.524 2.112.911 3.776.708 1.679-.204 3.048-.831 4.562-1.565 1.561-.757 2.801-1.907 3.846-3.252z" fill="#fbc471"/><path d="m691.036 350.34c-16.117 26.006-46.364 39.781-73.121 52.039-.875.399-.465 1.941.498 1.839 29.844-3.178 65.438-22.575 73.463-53.521.133-.513-.566-.801-.84-.357z" fill="#fbc471"/><path d="m633.157 406.423c-5.33.271-11.152 2.004-15.711 4.778-.334.201-.35.712 0 .909 5.399 3.059 13.547 1.516 16.592-4.153.348-.645-.076-1.575-.881-1.534z" fill="#fbc471"/><path d="m646.306 576.653c-18.877 3.6-35.717 7.6-55.064 4.854-.855-.121-1.412.932-.609 1.443 16.549 10.572 40.764 5.085 56.232-4.974.707-.459.244-1.477-.559-1.323z" fill="#fbc471"/><path d="m661.032 579.399c-3.801.709-7.063.945-10.788 2.26-1.829.645-3.614 1.262-5.39 2.053-1.688.75-2.18 2.027-3.537 3.016-.33.238-.371.869.125.962 1.324.247 2.154 1.024 3.598 1.065 2.385.068 4.58-.424 6.857-1.096 4.557-1.346 6.996-3.335 9.902-6.938.505-.624.042-1.471-.767-1.322z" fill="#fbc471"/><path d="m840.999 443.553c-2.418 5.26-4.678 10.628-7.775 15.532-3.482 5.517-7.779 10.462-11.266 16.013-.492.782.459 1.628 1.216 1.216 11.225-6.106 21.3-19.173 19.27-32.571-.101-.663-1.172-.785-1.445-.19z" fill="#fbc471"/><path d="m818.702 535.749c-6.367 4.063-11.25 9.42-16.499 14.762-5.05 5.138-12.042 9.137-15.882 15.258-.299.477.102 1.002.597 1.041 7.394.594 13.651-5.264 18.722-9.99 6.086-5.67 11.043-12.074 14.457-19.676.386-.858-.453-1.997-1.395-1.395z" fill="#fbc471"/><path d="m633.317 537.356c-8.084 1.923-16.318 2.322-24.18 5.053-.523.182-.543.906 0 1.078 14.811 4.764 34.465-.08 46.461-9.693.82-.658-.096-1.749-.928-1.595-7.206 1.323-14.228 3.464-21.353 5.157z" fill="#fbc471"/><path d="m705.773 437.308c25.667-9.63 55.714-35.89 58.501-64.971.055-.553-.721-.675-.98-.265-8.135 12.839-16.15 24.989-27.018 35.747-9.885 9.783-21.039 18.615-31.594 27.617-.833.713.051 2.26 1.091 1.872z" fill="#fbc471"/><path d="m715.871 439.903c-1.337.846-2.757 1.625-3.991 2.621-1.537 1.242-2.092 3.003-3.453 4.379-.467.474-.146 1.383.558 1.35 1.456-.068 2.876.277 4.319.106 1.877-.222 3.463-1.312 5.027-2.297 2.361-1.485 5.5-3.709 5.934-6.684.1-.685-.158-1.386-.896-1.579-2.543-.662-5.39.772-7.498 2.104z" fill="#fbc471"/><path d="m567.362 428.478c-6.518-1.459-12.859-1.664-19.509-1.989-8.595-.422-17.009-2.17-25.628-2.053-.549.008-.771.763-.281 1.043 12.707 7.263 31.527 8.729 45.418 4.459.684-.21.76-1.29 0-1.46z" fill="#fbc471"/><path d="m567.479 437.586c1.018.543 1.793 1.269 3.006 1.354 1.379.092 2.633.041 3.995-.173 2.405-.377 4.69-1.397 5.972-3.559.189-.321.107-.877-.271-1.037-2.004-.848-4.079-.746-6.178-.3-1.096.234-2.184.43-3.264.731-1.326.371-2.086 1.011-3.26 1.675-.482.274-.501 1.039 0 1.309z" fill="#fbc471"/><path d="m572.595 374.408c23.646 5.646 54.707-6.436 67.564-26.948.5-.798-.59-1.52-1.24-.958-19.346 16.731-42.639 20.164-66.324 26.573-.649.175-.676 1.173 0 1.333z" fill="#fbc471"/><path d="m643.864 353.314c5.296-1.902 7.828-7.977 7.34-13.273-.041-.442-.684-.732-.919-.249-2.122 4.363-4.931 8.277-7.165 12.554-.246.472.164 1.176.744.968z" fill="#fbc471"/><path d="m534.362 385.004c.682-.216.761-1.283 0-1.461-10.709-2.472-20.541-5.666-29.426-12.362-.469-.354-.91.301-.719.721 4.884 10.696 19.068 16.607 30.145 13.102z" fill="#fbc471"/><path d="m748.136 374.276c6.561-8.092 12.418-20.19 10.314-30.814-.064-.327-.554-.301-.634 0-1.435 5.362-3.177 10.517-5.427 15.594-2.168 4.892-4.697 9.112-5.518 14.484-.099.654.731 1.398 1.265.736z" fill="#fbc471"/><path d="m811.044 415.383c10.225-4.206 14.127-20.3 10.977-29.899-.215-.656-1.213-.723-1.395 0-1.447 5.664-3.01 11.366-5.547 16.65-1.961 4.083-4.842 7.693-5.242 12.33-.05.573.656 1.147 1.207.919z" fill="#fbc471"/><path d="m587.218 547.181c-2.969-2.238-5.388-2.186-9.014-2.195-4.213-.01-8.891-.301-13.037-1.045-.318-.056-.736.297-.484.629 4.752 6.213 16.006 8.991 22.535 3.977.498-.386.506-.984 0-1.366z" fill="#fbc471"/><path d="m595.451 556.819c.188-.301.204-.764 0-1.063-1.95-2.875-5.542-2.285-8.507-2.083-1.684.115-5.828.327-6.127 2.614-.398 3.068 4.051 3.657 6.127 3.771 2.944.164 6.827-.553 8.507-3.239z" fill="#fbc471"/><path d="m777.343 607.478c-9.018 3.824-16.65 9.287-24.918 14.458-9.035 5.653-19.012 9.411-28.307 14.554-.564.313-.289 1.145.314 1.166 19.674.654 41.789-14.309 53.988-28.783.68-.806-.153-1.786-1.077-1.395z" fill="#fbc471"/><path d="m473.428 660.335c-.95-.134-1.916.555-1.619 1.619.615 2.189 1.756 4.26 2.504 6.42.863 2.486 1.703 5.813 3.277 7.906 1.846 2.458 5.487 2.285 6.527-.852 2.065-6.218-4.574-14.234-10.689-15.093z" fill="#fbc471"/><path d="m468.512 675.05c-.563-.361-1.102.23-1.016.779.484 3.086.115 7.13 3.027 9.01.242.156.656.178.896 0 1.949-1.439 1.84-3.336 1.086-5.5-.687-1.986-2.314-3.209-3.993-4.289z" fill="#fbc471"/><g fill="#68182b"><path d="m608.794 446.819c29.057-9.966 54.52-25.009 77.942-44.937 19.009-16.172 49.687-44.56 46.302-72.375-.022-.184-.324-.268-.355-.048-3.895 28.538-28.904 50.811-49.803 68.568-22.334 18.979-48.902 33.638-74.693 47.347-.788.419-.245 1.737.607 1.445z"/><path d="m719.006 377.578c8.687-5.77 16.171-15.7 16.988-26.304.024-.315-.485-.468-.612-.167-4.121 9.726-10.344 17.657-16.834 25.876-.248.311.069.852.458.595z"/><path d="m775.944 488.443c-18.521 21.019-42.542 37.282-67.906 48.886-13.06 5.976-26.863 10.324-40.76 13.85-13.602 3.453-27.504 4.297-41.229 6.898-.311.059-.322.589 0 .635 26.598 3.871 57.658-5.04 81.875-15.402 27.742-11.873 52.329-28.547 69.002-54.109.387-.593-.511-1.29-.982-.758z"/><path d="m765.021 511.827c-3.705 1.936-6.627 5.433-10.031 7.859-3.35 2.389-6.818 4.74-10.381 6.801-.367.214-.113.74.279.662 7.695-1.563 18.104-6.818 20.52-15.023.068-.23-.188-.402-.387-.299z"/><path d="m752.2 595.065c-43.945 27.557-90.662 46.15-142.213 52.216-.361.044-.357.515 0 .56 24.943 3.19 51.625-3.939 74.943-12.223 25.292-8.984 47.959-21.851 68.027-39.569.538-.474-.159-1.358-.757-.984z"/><path d="m716.612 627.554c-3.416.674-6.494 1.927-9.605 3.455-3.605 1.771-7.488 3.501-10.826 5.736-.291.195-.152.57.166.613 7.342.979 14.898-5.273 20.545-9.143.343-.234.129-.741-.28-.661z"/><path d="m582.76 399.571c.578-.202.53-1.201-.151-1.132-15.691 1.632-31.9 3.365-47.662 2.216-19.451-1.42-33.436-9.662-48.295-21.53-.282-.225-.708.052-.517.399 18.12 32.691 66.676 30.47 96.625 20.047z"/><path d="m594.938 399.248c.128-.286-.012-.729-.396-.693-1.588.143-2.916.686-4.375 1.284-1.688.692-3.457 1.281-4.943 2.361-.246.179-.257.61.091.69 3.326.781 8.127-.256 9.623-3.642z"/><path d="m586.012 512.841c13.839-.113 29.2-1.918 41.118-9.414.578-.364.188-1.164-.441-1.053-13.6 2.377-26.844 5.232-40.677 6.041-12.962.757-25.614-1.232-38.511-1.471-.184-.004-.285.285-.1.367 11.772 5.2 25.936 5.635 38.611 5.53z"/><path d="m632.31 507.294c.058-.311-.08-.615-.402-.707-2.574-.743-5.66 1.256-8.039 2.074-.563.191-.597.996 0 1.173 2.56.765 7.78 1.054 8.441-2.54z"/><path d="m730.307 458.433c30.907-18.989 59.222-52.041 61.841-89.606.023-.358-.527-.42-.615-.083-4.633 17.657-11.328 33.654-21.947 48.567-10.93 15.347-25.707 28.085-39.895 40.322-.446.383.128 1.1.616.8z"/><path d="m841.386 469.754c-9.118 13.749-18.064 27.294-28.881 39.8-10.947 12.654-23.43 23.873-34.37 36.545-.356.41.122 1.162.617.799 26.356-19.291 51.616-45.869 63.266-76.876.143-.385-.427-.577-.632-.268z"/><path d="m801.245 535.392c.117-.268-.148-.662-.451-.451-3.789 2.658-8.133 5.246-10.775 9.17-.252.373.16.78.538.702 4.919-1.029 8.749-4.991 10.688-9.421z"/><path d="m645.657 604.226c-12.523 1.869-24.842 4.678-37.51 5.461-12.869.794-25.438-.934-38.072-3.227-.414-.076-.732.512-.305.721 22.414 10.988 54.283 9.255 76.291-1.992.577-.295.141-1.043-.404-.963z"/><path d="m641.585 612.116c3.652.057 7.908-.424 10.268-3.615.188-.25 0-.694-.305-.748-3.83-.674-7.055 1.881-10.146 3.688-.315.183-.175.669.183.675z"/><path d="m613.499 670.173c-11.396-.158-22.742-.479-33.989-2.453-11.546-2.029-22.606-6.002-34.019-8.572-.391-.088-.648.457-.279.662 19.74 10.995 46.311 18.842 68.436 11.462.591-.198.499-1.091-.149-1.099z"/><path d="m617.623 673.935c-2.261.248-4.149.803-6.3 1.459-.252.076-.252.43 0 .506 3.82 1.158 9.689 2.42 12.518-1.359.227-.303-.01-.79-.354-.87-2.045-.475-3.822.043-5.864.264z"/><path d="m815.521 569.444c-4.168 4.877-7.686 9.945-12.537 14.23-4.871 4.299-10.359 7.709-14.975 12.318-.293.293.002.922.432.742 10.645-4.398 25.922-14.579 27.527-27.105.029-.226-.309-.351-.447-.185z"/><path d="m806.579 591.032c-1.912-.115-3.631 1.222-5.207 2.133-1.988 1.152-3.559 2.406-4.996 4.176-.299.366-.105.855.372.898 2.59.23 4.217-.738 6.319-2.176 1.532-1.049 3.438-2.682 3.861-4.572.053-.238-.109-.445-.349-.459z"/><path d="m736.239 651.315c-8.982 3.398-17.223 8.373-26.652 10.628-.348.083-.377.667 0 .728 10.367 1.712 19.866-3.539 27.117-10.558.326-.317-.006-.971-.465-.798z"/><path d="m623.562 452.774c.465-.245.145-.987-.354-.842-15.834 4.62-31.678 8.921-48.149 10.458-16.651 1.553-32.938-.732-49.231-4.028-.361-.071-.646.468-.268.632 30.138 13.13 69.389 8.938 98.002-6.22z"/><path d="m635.089 451.982c.285-.442-.188-1.056-.689-.893-2.092.677-3.863 1.53-5.862 2.484-1.913.915-3.595 2.352-5.507 3.205-.615.275-.174 1.302.457 1.084 2.147-.745 4.424-.718 6.545-1.73 2.284-1.091 3.696-2.046 5.056-4.15z"/><path d="m809.711 439.36c8.015-7.01 17.813-19.166 16.126-30.597-.041-.27-.458-.305-.571-.076-2.354 4.721-4.03 9.692-6.663 14.29-3.096 5.409-6.838 10.219-9.613 15.826-.237.475.322.907.721.557z"/><path d="m809.386 445.196c1.977-.024 3.514-1.242 4.951-2.48 1.928-1.66 2.844-3.316 3.83-5.579.189-.436-.273-.798-.646-.497-1.549 1.242-3.139 2.306-4.615 3.678-1.393 1.294-3.096 2.326-3.988 4.063-.185.354.038.819.468.815z"/><path d="m631.216 384.156c26.391-9.304 53.523-32.111 53.443-62.371 0-.285-.399-.326-.486-.065-4.473 13.673-9.67 25.333-19.619 35.937-9.613 10.248-22.305 17.497-33.807 25.388-.539.369-.221 1.354.469 1.111z"/><path d="m652.877 377.619c-2.038 1.362-4.417 2.35-6.587 3.489-.295.156-.258.697.1.752 5.093.782 10.65-2.416 12.441-7.308.129-.35-.313-.638-.604-.465-1.839 1.091-3.573 2.346-5.35 3.532z"/><path d="m694.728 459.729c-5.654 2.563-10.371 5.996-15.531 9.404-5.664 3.737-11.785 6.331-18.051 8.872-.357.146-.339.711.098.711 12.822-.024 26.273-8.527 34.003-18.314.303-.385-.064-.88-.519-.673z"/><path d="m693.636 468.874c2.049-.543 3.598-1.033 5.313-2.352 1.783-1.374 2.439-2.859 3.471-4.753.252-.463-.254-.983-.721-.721-1.568.883-2.742 1.476-3.992 2.829-1.328 1.438-2.672 3.286-4.35 4.334-.348.217-.126.769.279.663z"/><path d="m480.208 411.96c-4.615-1.311-9.2-2.233-13.311-4.84-3.877-2.458-6.943-6.152-9.734-9.739-.207-.266-.645.022-.55.32 2.909 9.162 13.502 18.667 23.595 15.053.373-.134.412-.677 0-.794z"/><path d="m479.502 415.485c-.389-.103-.654.375-.385.661 1.432 1.51 2.461 2.131 4.57 2.583 1.631.352 4.502.65 5.39-1.136 1.412-2.831-8.474-1.818-9.575-2.108z"/><path d="m443.167 698.536c-.279-.309-.742.021-.66.385.619 2.752 1.752 4.97 3.168 7.4 1.244 2.138 1.891 4.808 3.984 6.26.281.195.621-.018.724-.294.896-2.392-.636-4.573-1.808-6.61-1.533-2.666-3.364-4.877-5.408-7.141z"/><path d="m450.083 701.325c-.297-.207-.635.189-.474.474 1.132 1.997.64 4.62 2.876 5.839.201.111.526.07.629-.164 1.17-2.627-1.029-4.739-3.031-6.149z"/><path d="m481.024 652.796c-.404-.277-.773.24-.605.607 1.731 3.807 3.589 7.424 5.047 11.361 1.066 2.879 1.111 6.188 3.424 8.41.228.219.582.164.748-.098 2.066-3.215.264-7.283-.992-10.504-1.456-3.747-4.304-7.51-7.622-9.776z"/><path d="m487.983 654.897c1.137 2.318 1.377 5.789 3.811 7.117.229.126.518.059.651-.17 1.753-2.969-1.733-5.706-3.478-7.703-.494-.566-1.279.153-.984.756z"/></g></g></g></svg>