<svg id="Fruit" height="512" viewBox="0 0 992.13 992.13" width="512" xmlns="http://www.w3.org/2000/svg"><g><path d="m870.911 336.724c-4.665-8.458-9.931-16.935-15.609-25.13-.397-.576-.814-1.14-1.256-1.688-8.752-14.045-19.393-26.43-31.652-36.838-32.594-27.668-74.519-43.061-124.609-45.749-5.887-.316-11.903-.477-17.879-.477-39.119 0-79.119 6.614-118.945 19.666-58.27-27.635-121.965-42.202-184.855-42.202-2.625 0-5.241.026-7.863.078-80.501 1.573-153.875 29.624-206.598 78.984-55.766 52.208-86.277 124.7-81.613 193.923 5.197 77.193 53.48 153.232 126.006 198.445 52.475 32.715 116.502 50.008 185.16 50.008 12.887 0 25.948-.633 38.82-1.877 4.692-.455 9.518-1.016 14.578-1.699 3.98 3.1 7.959 6.055 11.893 8.828 51.406 36.25 110.689 55.891 171.439 56.791 1.612.025 4.846.037 4.852.037 77.168 0 148.662-27.072 201.297-76.223 25.299-23.623 43.542-47.931 54.224-72.25 10.675-24.301 17.733-52.275 21.575-85.52 9.023-78.056-4.813-155.16-38.965-217.107z" fill="#fff"/><g><path d="m849.997 348.255c-4.387-7.954-9.195-15.655-14.369-23.12-.258-.377-.547-.693-.852-.971-7.384-12.212-16.609-23.357-27.838-32.889-31.15-26.442-70.284-37.953-110.434-40.108-44.182-2.372-89.099 4.922-130.945 18.978-2.071.695-4.124 1.438-6.182 2.168-58.594-29.464-125.043-45.335-190.67-44.052-69.974 1.368-139.096 24.189-190.743 72.542-47.702 44.658-78.563 108.721-74.108 174.884 4.993 74.128 52.816 141.134 114.815 179.783 61.579 38.392 137.437 51.55 209.048 44.626 7.939-.768 15.844-1.829 23.723-3.069 6.064 5.038 12.32 9.878 18.809 14.452 46.586 32.852 100.99 51.582 158.029 52.43 69.576 1.033 138.26-21.917 189.496-69.762 19.451-18.162 37.873-39.848 48.657-64.398 10.918-24.856 16.61-51.788 19.716-78.66 7.944-68.703-2.532-141.85-36.152-202.834z" fill="#68182b"/><path d="m353.979 549.693c4.355 14.234 9.736 28.049 15.984 41.406-52.001-12.99-102.309-32.813-148.07-60.551-12.156-7.367-10.071-9.033 3.945-5.487 12.644 3.198 25.365 6.099 37.975 9.034 29.345 6.834 59.874 14.343 90.166 15.598z" fill="#a9ff1d"/><path d="m353.566 464.523c-44.593-.729-89.619-1.281-134.284 1.179-15.844.872-16.015-.878-.553-6.307 15.658-5.5 32.006-9.639 47.404-13.409 32.545-7.969 65.959-11.896 99.373-13.77-4.944 10.418-8.989 21.219-11.94 32.307z" fill="#a9ff1d"/><path d="m420.006 359.218c-48.235 4.129-95.889 13.128-141.794 28.699-22.152 7.514-45.527 16.264-67.494 26.997-13.058 6.377-16.643 5.472-6.744-3.797 32.573-30.482 72.548-53.077 113.246-70.73 25.594-11.102 52.385-20.004 79.559-26.304 29.438-6.825 59.805-7.675 89.951-6.994-21.222 13.062-41.187 28.17-59.48 45.186-2.452 2.278-4.858 4.6-7.244 6.943z" fill="#a9ff1d"/><path d="m449.245 245.779c15.555 3.01 15.172 5.771-.357 6.688-46.074 2.726-92.023 14.886-133.836 32.71-57.092 24.335-109.324 60.496-148.064 108.633-11.12 13.811-13.43 14.07-6.109-1.395 23.676-50.035 63.334-90.438 112.548-118.303 17.021-9.639 37.163-19.158 58.316-26.099 34.375-11.284 65.912-12.205 117.502-2.234z" fill="#a9ff1d"/><path d="m402.39 645.29c6.743 9.026 13.963 17.696 21.684 25.937-51.78.678-100.861-6.98-147.834-30.57-35.922-18.044-67.182-44.113-89.606-76.904-7.872-11.508-5.422-11.813 6.099-2.797 17.733 13.877 37.074 26.154 55.631 37.33 46.034 27.728 99.428 49.561 154.026 47.004z" fill="#a9ff1d"/><path d="m396.972 619.208c5.131 4.845 10.566 9.413 16.361 13.593 7.863 5.67 16.192 10.558 24.84 14.789.405 10.463 3.036 20.834 7.475 30.397-18.7-17.375-35.071-37.171-48.676-58.779z" fill="#b1d045"/><path d="m493.762 714.258c-11.225-6.76-21.925-14.303-32.097-22.473-9.537-11.582-15.744-26.246-17.029-41.221 9.769 4.316 19.902 7.824 30.291 10.57 2.879 20.229 11.132 39.428 23.342 55.736-1.504-.868-3.02-1.716-4.507-2.612z" fill="#a9ff1d"/><path d="m505.229 715.557c-12.123-15.305-20.606-33.507-23.739-52.797 13.261 3.086 26.837 5.011 40.452 5.934 4.924 29.456 21.721 57.055 44.434 76.667-33.687-8.961-47.959-13.144-61.147-29.804z" fill="#b1d045"/><path d="m568.235 738.626c-20.092-18.134-35.266-43.153-39.906-69.526 13.59.615 27.16.268 40.414-.877.719-.062 1.432-.156 2.15-.223 1.495 32.678 18.668 61.871 41.434 84.788-22.541-1.547-29.723-1.199-44.092-14.162z" fill="#a9ff1d"/><path d="m613.674 745.102c-20.185-21.387-35.243-47.96-36.484-77.751 14.925-1.688 29.724-4.394 44.282-8.081-.132 14.986 6.334 29.365 14.032 42.041 10.376 17.088 30.038 29.389 32.811 50.051-12.593 1.525-45.943 2.949-54.641-6.26z" fill="#b1d045"/><path d="m693.337 747.037c-6.199 1.363-12.461 2.506-18.773 3.42-1.818-12.717-9.373-23.039-17.797-32.882-14.547-16.997-30.031-36.505-28.951-60.013 12.479-3.418 24.773-7.513 36.809-12.283-1.647 17.264 4.145 33.088 12.903 48.365 8.192 14.294 23.077 23.844 29.563 38.348 4.969 11.118-.509 12.137-13.754 15.045z" fill="#a9ff1d"/><path d="m752.865 726.146c-11.808 5.885-24.07 10.851-36.69 14.848-1.723-12.42-8.83-22.113-17.383-31.689-16.824-18.838-31.814-40.335-27.447-66.77 19.541-8.198 38.352-18.119 56.156-29.521 34.322 18.438 19.916 64.243 34.176 95.01 4.648 10.033 2.724 12.367-8.812 18.122z" fill="#b1d045"/><path d="m766.765 703.255c-6.631-16.513-6.385-38.624-9.281-53.999-3.141-16.664-10.143-31.313-24.092-40.086 11.768-7.846 23.226-16.404 34.133-25.666 18.068 17.918 21.063 41.146 22.367 65.922.785 14.879 2.34 32.4 13.127 43.614-14.682 12.53-30.684 24.091-36.254 10.215z" fill="#a9ff1d"/><path d="m826.565 670.054c-12.236 13.772-19.441 21.603-25.115 9.48-7.395-15.806-4.439-37.313-6.928-53.64-2.715-17.811-9.586-33.881-22.252-46.51 16.256-14.324 31.182-30.216 43.899-47.637 21.491 8.543 24.979 40.195 25.498 60.026.364 13.95-.737 34.075 8.363 46.173-6.581 11.369-14.453 21.966-23.465 32.108z" fill="#b1d045"/><path d="m863.274 608.695c-6.895 20.875-11.109 25.549-14.361 12.236-4.242-17.385-.385-40.771-3.742-56.004-3.349-15.191-10.772-31.717-25.279-38.47 6.113-8.826 11.693-18.005 16.572-27.567.679-1.33 1.246-2.705 1.893-4.05 16.871 12.062 26.914 35.988 30.545 60.159 3.147 20.974.722 34.474-5.628 53.696z" fill="#a9ff1d"/><path d="m877.61 526.635c-.932 19.35-2.047 22.984-7.236 6.494-5.773-18.354-15.482-34.711-29.295-44.113 10.297-23.422 15.761-48.596 16.309-74.132.318-14.987 1.375-22.872 6.428-6.165 11.492 38 15.702 78.343 13.794 117.916z" fill="#b1d045"/><path d="m842.602 370.961c-4.29-18.597-12.013-36.286-23.485-51.594-13.648-18.202-32.334-31.967-52.818-41.577-31.879-14.956-67.91-17.901-102.676-16.044-44.932 2.4-89.617 13.781-130.527 32.438-49.689 22.659-93.598 56.12-129.064 97.604-8.35 9.875-15.865 20.409-22.309 31.63-21.721 37.827-29.688 83.043-17.039 125.148.674 2.172 1.396 4.326 2.114 6.483 14.349 40.398 47.034 71.806 86.503 87.858 50.829 20.674 110.055 19.801 162.672 6.9 53.001-12.993 103.213-38.824 144.666-74.318 35.311-30.234 66.857-69.059 79.603-114.5 8.105-28.895 9.109-60.784 2.36-90.028zm-34.185 81.797c-14.086 38.393-42.115 71.014-73.326 96.742-36.809 30.342-80.254 52.991-126.43 65.119-45.251 11.885-96.953 15.425-141.426-1.473-35.585-13.523-65.738-40.779-76.446-78.094-11.49-40.035 2.036-81.723 25.874-114.431 6.951-9.396 14.322-18.465 22.224-27.079 55.614-60.623 135.61-99.869 217.372-108.219 33.25-3.396 67.104-.543 97.43 14.569 29.937 14.921 50.967 42.028 58.787 74.435 6.238 25.852 5.113 53.433-4.059 78.431z" fill="#fbf199"/><path d="m541.831 462.205c1.311-1.975 6.859-10.383 10.268-7.528 4.561 3.82 3.289 13.195 2.828 18.256-.553 6.082-5.311 15.834-12.596 11.338-8.012-4.946-4.215-15.907-.5-22.066z" fill="#808080"/><path d="m721.151 411.115c1.131-8.11 8.744-11.282 15.867-12.836 2.527-.428 13.066-2.053 12.277 3.199-1.01 6.72-8.998 12.362-14.225 15.657-5.88 3.708-15.097 2.42-13.919-6.02z" fill="#808080"/><path d="m530.287 554.105c4.132-7.906 14.218-6.716 21.058-3.779 2.926 1.399 10.924 4.85 9.648 9.294-1.434 4.992-13.428 5.257-17.085 5.435-5.825.277-17.889-2.778-13.621-10.95z" fill="#808080"/><path d="m629.179 508.127c7.794-5.34 15.956 1.236 20.861 7.174 2.195 2.959 6.656 9.049 3.713 12.085-3.68 3.791-14.425-1.646-17.79-3.259-5.202-2.49-14.325-10.832-6.784-16z" fill="#808080"/><path d="m629.937 437.695c2.523-5.752 13.592-5.972 18.619-6.171 5.887-.234 16.207 3.416 12.195 10.953-4.334 8.146-14.341 6.491-21.46 3.723-2.948-1.333-10.856-5.082-9.354-8.505z" fill="#808080"/><path d="m450.901 489.649c2.523-5.751 13.592-5.972 18.619-6.171 5.887-.234 16.207 3.417 12.195 10.953-4.334 8.145-14.34 6.492-21.459 3.723-2.947-1.332-10.857-5.082-9.355-8.505z" fill="#808080"/><path d="m643.954 330.436c8.348 2.014 10.079 11.13 9.973 18.461-.143 2.43-.706 12.483-5.172 11.65-6.586-1.228-10.861-12.104-12.71-17.416-2.148-6.173.259-14.541 7.909-12.695z" fill="#808080"/><path d="m795.8 357.68c-14.869-33.043-45.547-52.288-80.157-59.839-27.707-6.043-57.204-3.513-84.812 1.8-80.588 15.512-156.057 60.006-205.074 126.299-6.275 8.61-11.887 17.682-16.477 27.306-15.609 32.732-17.025 71.399 2.203 102.944 20.047 32.893 57.085 50.738 94.269 55.818 46.341 6.332 94.714-2.721 137.774-20.047 41.293-16.613 79.686-42.033 110.389-74.316 24.131-25.373 45.536-56.99 50.77-92.318 3.212-21.697.431-46.944-8.885-67.647zm-304.447 141.049c-6.93 13.018-21.892 14.454-34.441 9.371-.205-.084-.376-.195-.563-.296-.23-.072-.461-.13-.695-.235-8.352-3.771-19.719-12.772-13.846-23.234 5.846-10.41 21.893-12.251 32.492-11.156 12.084 1.245 23.586 13.272 17.053 25.55zm154.125-178.757c13.276 3.203 18.779 15.059 18.931 27.731.056.37.074.77.05 1.193-.572 9.776-4.789 24.364-17.581 21.979-11.959-2.231-19.882-17.937-21.831-28.657-2.228-12.284 7.151-25.449 20.431-22.246zm-112.739 136.919c5.405-8.154 16.252-18.5 26.131-10.226 8.679 7.268 8.584 24.194 5.223 33.969-4.013 11.665-16.863 20.501-28.135 11.926-11.84-9.007-10.139-24.203-3.219-35.669zm37.212 108.207c-6.632 9.979-22.966 12.126-33.847 10.001-11.922-2.329-23.02-15.733-14.251-27.343 8.89-11.773 22.057-11.998 34.806-6.521 8.103 3.867 20.092 13.632 13.292 23.863zm21.882-165.399c-7.531 8.48-24.33 8.057-34.069 4.388-11.429-4.308-20.296-17.33-11.344-28.415 9.326-11.55 24.396-9.639 35.706-2.365 7.87 5.551 18.264 16.754 9.707 26.392zm66.775 137.031c-10.82 5.13-25.012-.446-33.907-7.223-9.278-7.068-12.803-22.273-1.981-29.691 12.412-8.505 26.473-2.238 35.064 8.395.145.18.244.363.363.549.154.169.316.321.461.517 5.278 7.213 11.36 22.067 0 27.453zm11.78-89.956c-6.93 13.019-21.893 14.454-34.441 9.371-.205-.084-.377-.195-.563-.296-.23-.072-.461-.13-.695-.234-8.351-3.772-19.718-12.773-13.845-23.235 5.846-10.41 21.892-12.251 32.49-11.157 12.085 1.247 23.587 13.273 17.054 25.551zm66.573-18.886c-11.009 4.747-25.854-.459-26.382-13.775-.574-14.426 10.57-23.139 23.639-25.99 9.465-1.596 24.569-1.178 25.553 11.579.948 12.302-12.706 23.826-22.81 28.186z" fill="#ff5671"/><path d="m554.701 382.087c5.946-7.365 15.513-3.929 22.11.315 2.088 1.473 10.021 7.092 6.989 10.507-3.884 4.375-13.654 2.88-18.587 2.144-5.509-.825-15.982-6.192-10.512-12.966z" fill="#808080"/><path d="m466.456 258.13c-53.527.251-107.883 14.25-155.877 35.813-64.889 29.15-122.838 73.626-160.43 134.415-7.916 12.794-12.92 10.812-8.541-3.657 20.606-68.113 68.846-123.956 131.619-157.698 8.025-4.312 16.611-8.594 25.592-12.621 17.01-7.631 17.105-10.862-.869-6.271-48.243 12.325-92.66 37.06-126.74 74.55-42.774 47.055-66.234 111.704-53.945 175.129 13.705 70.731 66.369 130.021 129.867 161.479 59.343 29.396 128.524 37.557 193.891 28.715-3.766-3.434-7.424-6.967-11.002-10.575-56.281 1.421-111.027-6.263-161.166-33.485-41.803-22.696-77.17-54.654-99.516-96.415-7.246-13.55-1.981-17.155 9.321-6.667 20.763 19.271 45.679 35.598 69.386 49.875 45.143 27.193 96.264 49.561 149.805 48.408-9.141-12.895-17.287-26.502-24.379-40.692-62.69-15.085-123.263-39.888-176.472-76.361-13.419-9.2-11.375-15.109 3.888-10.449 21.228 6.484 43.084 11.436 64.604 16.38 28.343 6.513 57.712 13.847 86.938 15.289-1.836-7.442-3.168-15.055-3.873-22.815-1.534-16.879-.152-33.532 3.499-49.656-52.042-.848-104.667-1.461-156.605 2.765-4.009.326-29.108 2.527-1.708-10.854 23.395-11.412 50.553-18.384 75.312-23.914 32.835-7.333 66.134-11.347 99.706-13.105 7.66-14.752 17.082-28.665 27.82-41.369 5.332-6.234 10.863-12.292 16.563-18.186-45.222 4.282-90.355 12.803-133.253 27.854-30.546 10.719-63.481 23.132-91.745 40.3-15.191 9.223-17.375 2.795-4.277-11.682 35.283-39.008 82.064-67.378 130.162-87.698 27.865-11.771 57.051-22.555 86.871-28.155 31.796-5.974 63.779-6.669 95.975-5.714 15.738-9.03 32.107-16.964 48.986-23.685-24.283-13.787-43.631-19.413-79.407-19.248zm-314.627 258.233c-14.668-.186-21.029-15.537-23.346-28.08-.059-.316-.068-.615-.078-.915-.035-.162-.089-.313-.111-.485-1.48-11.515-.9-37.019 17.041-35.563 17.547 1.423 20.104 19.428 22.072 33.993 1.449 10.746-.315 31.244-15.578 31.05z" fill="#b1d045"/><path d="m148.966 505.615c-6.45-1.097-9.313-14.67-10.305-20-.912-7.114-2.623-22.846 6.674-23.764 9.277-.915 10.373 17.034 11.48 23.044 1.12 6.079 2.27 22.441-7.849 20.72z" fill="#a9ff1d"/><path d="m163.075 409.262c3.313-3.092 6.649-6.074 9.617-9.008 8.35-8.248 17.025-16.152 25.99-23.723 18.381-15.518 38.496-28.733 59.646-40.143 43.982-23.731 93.845-42.707 142.872-52.876 31.924-6.622 64.782-7.835 96.956-2.346 7.854 1.342 16.832 4.157 25.828 5.778 7.194-3.402 14.477-6.623 21.877-9.569-24.282-13.785-43.63-19.411-79.406-19.246-53.527.251-107.883 14.25-155.877 35.813-57.876 26.003-110.188 64.234-147.503 115.32z" fill="#abab38"/><path d="m727.501 613.014c-6.461 4.139-13.097 8.008-19.811 11.744 14.255 6.689 24.539 17.766 28.261 35.207 2.858 13.406 1.776 30.029 10.69 41.399 3.451 4.403 10.156 10.815 16.229 9.516-.34-.893-.707-1.81-1.193-2.856-14.26-30.767.146-76.573-34.176-95.01z" fill="#abab38"/><path d="m251.497 650.27c39.527 24.044 86.84 33.318 132.592 34.197 11.46.22 22.928-.242 34.352-1.123 3.027-.232 11.057.129 16.898-.825-1.77-1.707-3.588-3.367-5.318-5.111-56.281 1.421-111.027-6.263-161.166-33.485-40.982-22.25-75.746-53.427-98.152-93.99 4.404 19.969 16.336 38.908 28.686 54.547 14.542 18.415 32.081 33.611 52.108 45.79z" fill="#abab38"/><path d="m502.999 666.715c5.815 18.455 13.706 35.818 27.109 50.439 3.744 4.082 16.523 15.652 27.393 19.804-18.157-18.731-31.301-42.797-35.559-68.265-6.334-.429-12.654-1.099-18.943-1.978z" fill="#abab38"/><path d="m841.668 591.774c-.519-19.831-4.007-51.483-25.498-60.026-4.784 6.552-9.968 12.817-15.329 18.935 10.767 5.054 18.555 13.261 21.127 27.478 2.539 14.012 1.273 28.334 7.188 41.639 2.635 5.924 10.503 13.213 17.928 13.279-5.899-12.149-5.097-29.093-5.416-41.305z" fill="#abab38"/><path d="m208.416 423.158c17.37-6.59 35.271-11.463 53.837-14.357 28.924-4.507 58.497-2.499 87.641-2.904 10.807-.15 21.482-.617 31.932-2.069 4.572-6.753 9.5-13.268 14.756-19.485 5.332-6.234 10.863-12.292 16.563-18.186-45.222 4.282-90.355 12.803-133.253 27.854-23.49 8.241-48.372 17.51-71.476 29.147z" fill="#abab38"/><path d="m445.647 677.987c-4.438-9.563-7.069-19.935-7.475-30.397-6.99-3.421-13.757-7.297-20.255-11.641 3.147 5.035 6.198 10.125 8.95 15.432 2.133 4.111 3.529 8.467 4.903 12.809 4.471 4.749 9.096 9.355 13.877 13.797z" fill="#abab38"/><path d="m235.683 556.58c21.045 16.031 43.842 29.659 67.752 40.971 9.395 4.445 58.722 26.744 82.137 22.795-4.314-7.134-8.362-14.438-12.1-21.915-62.69-15.083-123.263-39.886-176.472-76.359-.569-.391-1.071-.765-1.586-1.143 10.284 14.182 26.964 25.514 40.269 35.651z" fill="#abab38"/><path d="m220.854 471.927c7.594 1.553 14.98 3.631 21.492 5.334 21.977 5.744 43.114 14.146 65.36 18.944 13.391 2.889 27.019 4.139 40.458 2.826.479-9.538 1.798-18.963 3.892-28.211-43.576-.71-87.555-1.216-131.202 1.107z" fill="#abab38"/><path d="m841.079 489.016c13.813 9.402 23.521 25.76 29.295 44.113.813 2.582 1.517 4.613 2.145 6.227 4.236-27.418-5.637-56.873-21.227-80.098-2.596 10.147-5.969 20.106-10.213 29.758z" fill="#abab38"/><path d="m621.472 659.27c-7.703 1.951-15.477 3.607-23.295 5.004 3.756 17.354 10.931 34.845 21.834 48.449 6.701 8.359 14.395 15.268 23.49 20.916 8.277 5.14 16.43 8.713 24.081 13.871-4.513-18.396-22.364-30.199-32.078-46.199-7.698-12.676-14.164-27.055-14.032-42.041z" fill="#abab38"/><path d="m418.202 402.552c-22.252 29.263-36.053 67.536-31.515 104.135-.413-30.77 11.741-61.046 29.976-86.064 6.951-9.396 14.322-18.465 22.224-27.079 55.614-60.623 135.61-99.869 217.372-108.219 33.25-3.396 67.104-.543 97.43 14.569 18.718 9.328 33.951 23.423 44.654 40.597-3.924-8.422-8.736-16.22-14.555-22.993-25.916-30.169-64.066-40.88-102.656-42.104-48.664-1.545-97.944 14.177-141.403 34.787-44.832 21.262-91.24 52.545-121.527 92.371z" fill="#f3af79"/><path d="m364.196 465.821c-7.209 26.991-7.694 55.515.486 82.745.674 2.172 1.396 4.326 2.114 6.483 14.349 40.398 47.034 71.806 86.503 87.858 50.829 20.674 110.055 19.801 162.672 6.9 53.001-12.993 103.213-38.824 144.666-74.318 35.311-30.234 66.857-69.059 79.603-114.5 8.106-28.896 9.11-60.785 2.361-90.029-2.587-11.212-6.446-22.083-11.597-32.311.939 2.863 1.832 5.766 2.605 8.765 11.34 43.986.023 92.147-19.135 132.116-34.98 72.973-104.257 126.448-179.682 152.205-66.414 22.68-145.898 25.416-206.996-13.069-55.542-34.984-72.415-94.561-63.6-152.845z" fill="#f3af79"/><path d="m838.356 494.841c-.646 1.345-1.214 2.72-1.893 4.05-1.22 2.393-2.484 4.76-3.789 7.104 18.365 13.343 27.521 41.691 31.744 61.822 1.996 9.51 2.751 19.658 2.214 29.668 3.706-13.846 4.771-25.822 2.269-42.484-3.63-24.172-13.673-48.099-30.545-60.16z" fill="#95b418"/><path d="m402.39 645.29c-54.598 2.557-107.991-19.276-154.027-47.005-14.164-8.531-28.773-17.717-42.789-27.753 8.332 9.319 17.389 17.873 27.691 25.804 19.428 14.955 40.933 26.568 63.259 36.555 22.217 9.938 45.62 17.312 69.751 20.668 11.133 1.549 22.451 1.76 33.666 1.355 2.037-.074 5.818-.086 9.715-.424-2.454-3.041-4.927-6.07-7.266-9.2z" fill="#95b418"/><path d="m263.813 534.096c-11.754-2.736-23.604-5.463-35.4-8.408 3.516 1.693 7.141 3.191 10.75 4.615 14.646 5.777 29.633 10.678 44.848 14.705 16.596 4.394 33.248 8.738 49.943 12.738 8.131 1.948 16.459 4.594 24.859 6.301-1.711-4.742-3.353-9.514-4.834-14.354-30.292-1.255-60.821-8.764-90.166-15.597z" fill="#95b418"/><path d="m266.134 445.986c-6.219 1.522-12.605 3.139-19.022 4.847 15.302-3.179 30.79-5.474 46.668-6.643 21.228-1.563 44.28-2.049 66.354.537 1.658-4.221 3.424-8.402 5.373-12.511-33.414 1.875-66.828 5.802-99.373 13.77z" fill="#95b418"/><path d="m168.382 377.933c6.681-8.385 15.242-16.061 22.219-23.219 11.385-11.684 23.684-22.289 36.418-32.463 25.083-20.037 51.926-37.883 80.775-52.028 30.14-14.781 62.598-24.437 96.082-27.212 8.42-.699 16.84-.843 25.261-.699-40.147-6.037-67.729-4.035-97.395 5.702-21.153 6.94-41.296 16.46-58.316 26.099-44.364 25.118-80.919 60.452-105.044 103.82z" fill="#95b418"/><path d="m704.683 727.494c-7.244-12.092-19.845-21.094-27.155-33.85-8.759-15.277-14.551-31.102-12.903-48.365-4.092 1.621-8.221 3.135-12.37 4.602-.083.992-.144 1.987-.163 2.988-.324 5.32-.238 10.719.844 16.623 1.939 10.572 6.387 22.104 13.342 30.424 8.355 9.995 19.183 15.078 30.199 21.592 2.936 1.736 5.643 3.781 8.206 5.986z" fill="#95b418"/><path d="m396.778 314.083c-27.174 6.3-53.965 15.202-79.559 26.304-29.204 12.667-57.984 27.941-83.977 46.785 32.576-18.642 65.844-35.931 101.693-47.733 29.057-9.566 59.016-13.481 89.502-14.538 12.006-.418 24.447-.807 36.916-.64 8.248-6.033 16.676-11.817 25.375-17.172-30.145-.681-60.512.169-89.95 6.994z" fill="#95b418"/><path d="m789.892 649.426c-1.305-24.775-4.299-48.004-22.367-65.922-3.093 2.627-6.24 5.182-9.418 7.695 22.936 18.232 13.613 58.711 26.738 83.482 3.135 5.916 8.793 11.313 15.254 14.752-8.108-11.146-9.5-26.624-10.207-40.007z" fill="#95b418"/><path d="m570.894 668c-.719.066-1.432.161-2.15.223-5.508.475-11.078.777-16.676.965 2.214 16.386 7.897 32.301 16.852 46.197 8.012 12.438 22.498 26.053 38.096 31.799-20.074-21.998-34.746-49.109-36.122-79.184z" fill="#95b418"/><path d="m494.944 712.141c-10.365-15.246-17.41-32.693-20.018-51.006-3.248-.859-6.463-1.82-9.658-2.828 3.126 20.488 13.342 41.302 29.676 53.834z" fill="#95b418"/><path d="m156.815 484.896c-.06-.329-.121-.707-.184-1.103-2.643 6.085-7.538 11.114-15.049 7.689-.707-.323-1.34-.73-1.929-1.188 1.491 6.188 4.327 14.473 9.312 15.32 10.12 1.722 8.97-14.64 7.85-20.718z" fill="#95b418"/><path d="m639.291 446.2c7.119 2.769 17.126 4.423 21.46-3.723 1.685-3.168.824-5.639-1.158-7.434-4.587 3.031-9.557 5.148-15.547 5.076-4.699-.058-8.819-1.946-12.633-4.451-.617.588-1.136 1.248-1.477 2.026-1.501 3.424 6.407 7.173 9.355 8.506z" fill="#515151"/><path d="m635.965 342.859c.028.089.05.183.08.271 1.849 5.312 6.124 16.188 12.71 17.416 4.466.833 5.029-9.221 5.172-11.65.01-.673-.018-1.372-.041-2.069-6.338 1.171-12.631-.158-17.921-3.968z" fill="#515151"/><path d="m626.401 513.789c.704 4.26 6.029 8.648 9.562 10.338 3.365 1.613 14.11 7.05 17.79 3.259 2.461-2.538-.248-7.19-2.486-10.384-8.438 3.346-17.446 2.209-24.866-3.213z" fill="#515151"/><path d="m558.868 378.809c-1.506.688-2.918 1.734-4.167 3.278-5.47 6.774 5.003 12.141 10.513 12.966 4.933.736 14.703 2.231 18.587-2.144.86-.967.818-2.112.3-3.289-.883 1.711-1.785 3.392-2.76 4.981-8.5-.622-16.573-7.714-22.473-15.792z" fill="#515151"/><path d="m749.296 401.479c.202-1.35-.35-2.24-1.314-2.818-4.225 3.938-8.979 7.37-13.912 9.806-4.607 2.272-8.857 2.815-12.768 2.057-.039.208-.121.381-.15.593-1.179 8.439 8.039 9.728 13.92 6.021 5.226-3.297 13.214-8.94 14.224-15.659z" fill="#515151"/><path d="m481.716 494.432c1.314-2.473 1.072-4.517-.032-6.152-3.655 3.079-7.962 5.353-13.136 6.539-5.5 1.263-10.615.65-15.543-.857 2.244 1.847 5.553 3.426 7.252 4.193 7.119 2.769 17.125 4.421 21.459-3.723z" fill="#515151"/><path d="m534.45 549.729c-1.67.954-3.111 2.365-4.163 4.377-4.269 8.172 7.796 11.227 13.621 10.949 3.657-.178 15.651-.442 17.085-5.435.031-.11-.006-.212.014-.321-9.934.846-22.145-2.217-26.557-9.57z" fill="#515151"/><path d="m542.331 484.271c7.285 4.496 12.043-5.256 12.596-11.338.241-2.642.684-6.446.422-10.036-4.091 7.183-9.926 13.045-17.371 15.506.588 2.307 1.919 4.366 4.353 5.868z" fill="#515151"/><path d="m411.483 556.189c20.047 32.893 57.085 50.738 94.269 55.818 46.341 6.332 94.714-2.721 137.774-20.047 41.293-16.613 79.686-42.033 110.389-74.316 24.131-25.373 45.536-56.99 50.77-92.318 3.213-21.696.432-46.943-8.885-67.646-.82-1.822-1.707-3.587-2.623-5.327.412 1.24.891 2.429 1.264 3.7 7.644 26.039 4.018 54.17-4.572 79.451-18.159 53.448-63.035 94.791-110.094 123.523-48.398 29.553-108.928 46.292-165.725 40.563-60.055-6.056-108.309-50.876-112.086-111.858-.316-5.124-.289-10.237.021-15.326-8.102 27.972-6.087 58.215 9.498 83.783z" fill="#df3f58"/><path d="m711.745 426.157c10.369 11.799 25.791 7.247 36.823-1.209 6.354-4.869 15.75-18.533 10.886-27.307.146.65.261 1.329.316 2.06.948 12.303-12.705 23.827-22.81 28.187-11.009 4.747-25.854-.459-26.382-13.775-.137-3.419.404-6.509 1.455-9.283-4.204 6.719-5.78 15.078-.288 21.327z" fill="#df3f58"/><path d="m447.767 507.073c11.66 8.896 28.674 10.851 40.676 1.526 5.706-4.431 6.627-10.797 4.795-16.661-.074 2.209-.662 4.495-1.885 6.79-6.93 13.018-21.892 14.454-34.441 9.371-.205-.084-.376-.195-.563-.296-.23-.072-.461-.13-.695-.235-6.406-2.893-14.555-8.867-15.37-16.212-.449 5.628 2.076 11.595 7.483 15.717z" fill="#df3f58"/><path d="m653.237 374.569c9.027-2.271 11.217-11.13 10.488-19.842-1.711 8.796-6.442 18.089-16.849 16.147-11.959-2.231-19.882-17.937-21.831-28.657-.863-4.767.035-9.653 2.216-13.677-11.293 16.311 4.368 51.466 25.976 46.029z" fill="#df3f58"/><path d="m564.093 480.634c-4.013 11.665-16.863 20.501-28.135 11.926-4.713-3.585-7.252-8.155-8.199-13.076.247 2.537.712 5.025 1.541 7.34 4.235 11.837 18.18 15.495 27.588 7.306 10.379-9.031 14.152-26.616 7.4-39.012 2.854 8.126 2.186 18.592-.195 25.516z" fill="#df3f58"/><path d="m527.019 542.523c-12.807 5.482-12.734 23.088-2.639 31.846 11.148 9.674 32.576 8.196 43.193-1.539 6.786-6.221 6.916-12.723 3.453-18.338 1.362 3.308 1.373 6.924-1.075 10.605-6.632 9.979-22.966 12.126-33.847 10.001-11.922-2.329-23.02-15.733-14.251-27.343 1.593-2.108 3.327-3.831 5.166-5.232z" fill="#df3f58"/><path d="m594.211 387.434c1.432 4.015 1.167 8.272-2.378 12.266-7.531 8.48-24.33 8.057-34.069 4.388-8.538-3.218-15.642-11.302-14.956-19.807-1.525 5.463-.72 11.568 3.149 16.347 10.429 12.885 30.353 13.919 43.86 5.428 7.883-4.956 7.717-12.168 4.394-18.622z" fill="#df3f58"/><path d="m621.2 529.646c8.666 10.297 25.672 15.575 38.496 10.702 9.373-3.561 7.69-13.798 3.527-22.618 2.758 7.099 3.205 15.291-4.615 19-10.82 5.13-25.012-.446-33.907-7.223-5.429-4.136-8.857-11.049-8.627-17.566-1.071 5.903.817 12.583 5.126 17.705z" fill="#df3f58"/><path d="m670.167 431.884c2.49 4.356 3.037 9.598.221 14.891-6.93 13.019-21.893 14.454-34.441 9.371-.205-.084-.377-.195-.563-.296-.23-.072-.461-.13-.695-.234-5.968-2.694-13.44-8.067-15.099-14.726.585 6.327 5.129 13.162 10.391 16.869 9.537 6.72 27.789 8.036 37.184.402 9.381-7.629 9.317-18.469 3.002-26.277z" fill="#df3f58"/><g fill="#ff9780"><path d="m495.15 386.275c1.123-2.986-3.073-6.494-5.358-7.809-.201-.117-.477.029-.471.27.039 1.691.619 3.008 1.439 4.464.875 1.551 1.732 3.237 3.62 3.511.363.054.639-.086.77-.436z"/><path d="m453.897 419.108c.246 2.659 2.846 5.613 5.432 6.294 1.365.36 2.172-1.032 1.672-2.174-1.037-2.378-4.47-3.427-6.682-4.36-.172-.074-.443.004-.422.24z"/><path d="m486.731 570.15c2.018-1.517 3.686-2.494 4.68-4.973.876-2.186 1.875-4.669.67-6.9-.104-.191-.357-.245-.541-.143-1.799 1.006-2.703 2.9-3.678 4.646-.475.85-1.115 1.799-1.369 2.748-.363 1.348-.307 2.681-.511 4.045-.057.379.344.883.749.577z"/><path d="m463.364 442.128c-.691.603-.599 1.735 0 2.353 1.479 1.526 3.711 2.084 5.693 2.759 2.028.689 3.692 1.253 5.832 1.368.225.012.426-.243.35-.459-1.435-3.996-7.646-9.713-11.875-6.021z"/><path d="m488.507 400.293c-2.448 1.496-3.814 4.856-4.408 7.509-.043.187.131.428.344.343 1.43-.565 2.682-.854 3.881-1.936 1.365-1.231 2.734-2.493 2.75-4.442.009-1.278-1.466-2.15-2.567-1.474z"/><path d="m436.066 452.453c-1.104.645-1.277 2.076-1.419 3.255-.24 2.02-.373 4.025.574 5.87.398.777 1.598.922 2.182.282 1.714-1.878 1.393-4.324.744-6.626-.151-.543-1.019-3.4-2.081-2.781z"/><path d="m463.161 548.117c2.266.381 3.897-.479 5.736-1.742 1.863-1.281 3.707-2.756 4.663-4.852.147-.323-.021-.754-.426-.742-2.308.055-4.253 1.098-6.259 2.133-1.969 1.016-3.576 2.316-4.096 4.535-.061.266.081.617.382.668z"/><path d="m778.55 403.805c1.983-.229 3.855-.465 5.598-1.563 2.135-1.347.229-4.646-1.98-3.39-1.799 1.024-2.904 2.555-4.043 4.211-.2.29.06.785.425.742z"/><path d="m436.643 525.982c.93.715 1.929.732 2.909 1.297.357.207.771-.131.676-.521-.199-.822-.146-1.586-.436-2.388-.344-.956-1.141-1.634-1.85-2.317-1.17-1.128-2.791-2.168-4.385-2.527-.229-.051-.424.104-.438.334-.101 1.644.79 3.025 1.761 4.278.522.673 1.084 1.325 1.763 1.844z"/><path d="m498.253 457.549c.436.697 1.439 1.065 2.176.569 1.822-1.228 1.787-3.394 1.863-5.414.023-.582.168-3.758-1.074-3.63-2.968.304-4.297 6.35-2.965 8.475z"/><path d="m710.65 498.033c.101.218.429.346.649.266 5.036-1.833 3.475-9.561.771-12.71-.168-.195-.447-.063-.523.138-.838 2.201-.938 4.358-1.256 6.691-.274 2.02-.517 3.709.359 5.615z"/><path d="m675.244 318.357c-.229.049-.329.339-.216.532.975 1.67 2.707 2.559 4.301 3.553 1.938 1.209 3.623 1.571 5.84 1.404.436-.032.716-.463.498-.865-1.051-1.932-2.154-2.763-4.203-3.598-1.901-.778-4.16-1.464-6.22-1.026z"/><path d="m516.448 376.472c-.864-.076-1.711.814-1.66 1.66.119 1.932 1.461 3.373 2.479 4.938.502.77 1.072 1.483 1.621 2.218.672.9 1.715 1.512 2.322 2.441.225.344.809.229.798-.216-.022-1.078.354-2.053.271-3.146-.093-1.235-.45-2.529-1.019-3.632-1.035-2.017-2.391-4.047-4.812-4.263z"/><path d="m700.306 450.664c1.918-2.993-2.04-6.383-4.523-7.284-.281-.101-.458.237-.352.461.996 2.071 1.025 6.188 3.432 7.201.546.232 1.104.154 1.443-.378z"/><path d="m508.562 506.415c-.051.317.173.532.486.485 3.15-.471 5.309-3.049 6.512-5.822.119-.274-.072-.583-.391-.509-3.012.694-6.07 2.56-6.607 5.846z"/><path d="m730.47 463.253c1.061.837 2.143 1.441 3.414 1.89 2.014.71 5.494 1.775 6.77-.679 1.273-2.452-2.452-3.437-4.049-3.76-1.384-.282-2.727-.568-4.143-.634-1.345-.06-2.461.442-3.762.517-.236.012-.42.325-.209.506.748.637 1.193 1.538 1.979 2.16z"/><path d="m703.272 330.283c3.859-1.658 7.248-7.599 4.877-11.523-.175-.287-.521-.361-.811-.214-3.618 1.844-5.604 7.664-4.646 11.501.069.271.354.333.58.236z"/><path d="m712.928 369.067c-1.006 1.33-.565 3.89-.534 5.442.043 2.028.614 4.301 2.77 4.94.342.101.643-.072.838-.339 1.608-2.214.658-5.229-.113-7.609-.189-.572-2.007-3.697-2.961-2.434z"/><path d="m742.04 328.569c.767-.039 1.425-.913.938-1.635-1.502-2.224-4.472-2.177-6.822-2.913-.299-.092-.529.311-.305.522 1.734 1.646 3.541 4.158 6.189 4.026z"/><path d="m734.8 354.64c1.345-.364 2.729-.271 4.099-.695 1.391-.428 2.722-.868 4.036-1.502 1.129-.545 4.117-2.953 3.17-4.57-.953-1.627-4.57-.381-5.744.167-1.31.61-2.418 1.434-3.547 2.324-1.338 1.053-1.719 2.176-2.572 3.552-.233.372.148.835.558.724z"/><path d="m522.438 421.303c-2.21-.56-4.69-1.116-6.906-.374-.215.072-.285.325-.131.496 1.479 1.631 3.585 2.488 5.563 3.369 2.151.956 4.437 1.975 6.8 1.569 1.152-.197 1.543-1.898.697-2.642-1.654-1.451-3.919-1.885-6.023-2.418z"/><path d="m632.696 555.383c-1.736.939-2.469 2.83-3.038 4.637-.435 1.373-1.22 3.702.407 4.654 2.904 1.703 3.564-7.639 3.114-9.096-.063-.205-.291-.299-.483-.195z"/><path d="m620.817 402.832c-.064.277.086.485.334.588 1.793.732 3.994-.257 5.574-1.117 2.037-1.11 3.131-2.54 3.598-4.788.082-.396-.182-.825-.619-.813-2.119.063-3.475.543-5.184 1.826-1.421 1.066-3.279 2.479-3.703 4.304z"/><path d="m671.831 477.735c-.164.138-.184.424-.075.599 1.251 2.006 4.054 2.703 6.251 3.01 2.975.417 4.863.131 7.443-1.37.291-.169.396-.646.113-.879-2.256-1.861-3.979-2.458-6.889-2.69-2.204-.177-5.057-.146-6.843 1.33z"/><path d="m639.204 483.351c-.021.264.293.392.496.284 1.736-.905 2.793-1.87 3.929-3.516.695-1.006 1.495-3.151.081-3.978-2.811-1.647-4.38 5.727-4.506 7.21z"/><path d="m678.853 388.118c-.074.247.125.433.35.459 1.845.212 3.412-.474 4.885-1.551.682-.5 1.344-1.039 1.973-1.604.729-.652.77-1.79 1.32-2.557.234-.325-.08-.805-.454-.792-2.071.067-3.05-.054-4.774 1.335-1.562 1.259-2.716 2.787-3.3 4.71z"/><path d="m694.726 391.844c.039-.138.006-.336-.113-.433-2.153-1.726-5.199-.058-6.64 1.862-.156.209.009.549.247.604 2.199.507 5.742.657 6.506-2.033z"/><path d="m693.245 349.874c-2.42-.169-6.189 2.087-6.656 4.55-.124.651.174 1.573.954 1.681 2.884.393 6.282-2.843 6.13-5.803-.013-.245-.186-.412-.428-.428z"/><path d="m690.797 517.517c-1.919.545-3.161 1.677-4.79 2.677-.289.176-.285.721.102.783 2.193.348 3.898.952 5.98-.396 1.564-1.017.59-3.599-1.292-3.064z"/><path d="m592.649 335.913c-1.738.478-1.238 3.762-.863 4.875.893 2.657 2.248 4.451 4.254 6.319.236.22.662.14.742-.198.646-2.661.779-4.801-.109-7.469-.481-1.443-2.059-4.068-4.024-3.527z"/><path d="m618.281 313.645c-1.683.92-2.594 2.479-4.011 3.672-.307.259-.068.855.337.814 2.12-.21 4.071-.27 5.503-2.114 1.012-1.301-.224-3.246-1.829-2.372z"/><path d="m613.616 367.915c-1.906 1.96-4.092 4.838-3.914 7.738.067 1.147 1.367 1.722 2.233.926 2.185-2.008 2.318-5.622 2.382-8.374.008-.358-.455-.545-.701-.29z"/><path d="m562.411 342.355c.064-.481-.41-.779-.799-.465-2.246 1.814-5.901 5.459-3.979 8.676.119.2.369.313.595.243 3.29-1.007 3.794-5.635 4.183-8.454z"/><path d="m536.016 421.609c.658-.843-.298-2.038-.882-2.585-1.199-1.121-3.518-1.796-5.129-1.584-.152.021-.248.104-.263.263-.233 2.617 4.116 6.677 6.274 3.906z"/><path d="m418.243 486.896c1.893-.924 2.586-2.93 3.271-4.789.928-2.516 1.616-4.851 1.679-7.532.012-.502-.693-.848-1.039-.431-2.324 2.794-7.078 8.811-4.518 12.591.142.211.379.271.607.161z"/><path d="m532.427 360.798c1.547-1.651 1.52-3.176 1.289-5.362-.189-1.8-.64-4.299-2.4-5.223-.264-.14-.531-.052-.697.184-1.018 1.421-.695 3.396-.638 5.039.074 2.164.286 3.778 1.816 5.362.165.169.465.175.63 0z"/><path d="m761.603 438.769c-.209.05-.355.348-.215.533 1.182 1.575 6.261 4.755 7.355 1.493.305-.911-.686-2.049-1.545-2.22-1.976-.39-3.67-.255-5.595.194z"/><path d="m769.076 373.471c-.022 2.164.128 4.293.769 6.373.628 2.04 3.418 1.155 3.117-.858-.354-2.357-1.855-3.976-3.295-5.76-.2-.245-.589-.033-.591.245z"/><path d="m592.164 528.531c-.644.654-.554 1.863.298 2.314 1.829.967 3.785.234 5.655-.344.524-.162 1.941-1.002 1.499-1.779-1.262-2.22-5.9-1.769-7.452-.191z"/><path d="m604.358 563.172c2.184-1.279-.809-5.539-1.373-6.887-1.162-2.778-2.439-5.553-5.104-7.151-.156-.093-.382.024-.371.214.126 2.285 2.577 16.326 6.848 13.824z"/><path d="m589.173 572.6c-.183.097-.195.35-.061.49 1.137 1.201 2.443 1.879 4.056 2.239 1.853.413 2.907-.154 4.447-1.052.329-.193.222-.631-.099-.752-1.677-.636-2.765-1.446-4.648-1.578-1.346-.093-2.492.017-3.695.653z"/><path d="m530.835 528.044c2.7-.69 2.502-7.456.797-6.889-2.219.741-3.2 7.501-.797 6.889z"/><path d="m525.349 521.633c-2.445.422-4.512 3.377-5.889 5.242-.75 1.015-3.305 4.614-1.33 5.771 1.895 1.11 4.174-2.526 4.973-3.642 1.318-1.834 3.418-4.738 2.672-7.131-.061-.193-.235-.273-.426-.24z"/><path d="m595.651 461.926c-.241.031-.492.294-.313.545 1.022 1.44 2.349 2.512 3.833 3.452 1.659 1.051 3.732 3.011 5.837 2.147.695-.284 1.253-.809 1.236-1.625-.081-4.33-7.44-4.932-10.593-4.519z"/><path d="m569.217 512.811c-2.54.809-5.155 6.246-2.608 8.192.971.743 2.383-1.409 2.59-2.024.59-1.754 1.216-4.089.504-5.893-.077-.193-.265-.346-.486-.275z"/><path d="m592.868 487.724c-1.471 2.88-2.296 6.003-3.224 9.092-.862 2.872-1.586 5.005-.372 7.839.125.295.547.286.748.097 2.376-2.244 2.855-4.994 3.656-8.079.787-3.03 1.107-6.037-.154-8.948-.113-.26-.533-.236-.654-.001z"/><path d="m592.421 430.693c-.012-.193-.168-.303-.354-.27-2.525.436-6.121 3.892-4.953 6.685.201.483.599.953 1.189.905 3.132-.242 4.276-4.722 4.118-7.32z"/></g><path d="m669.968 622.059c-.557.288-.158 1.268.43 1.022 40.568-16.88 75.527-42.571 105.707-74.433 27.391-28.918 53.748-65.752 61.404-105.576.086-.447-.502-.595-.666-.186-31.635 78.585-91.846 140.218-166.875 179.173z" fill="#68182b"/><path d="m838.526 438.24c2.236-2.958 2.333-7.387 1.393-10.785-.08-.29-.484-.277-.571 0-1.004 3.244-2.347 7.29-1.452 10.703.082.317.46.306.63.082z" fill="#68182b"/><path d="m459.372 352.161c49.885-38.646 105.941-64.693 167.822-77.243.504-.103.395-.958-.123-.904-61.573 6.411-122.367 36.593-168.26 77.588-.388.347.17.861.561.559z" fill="#68182b"/><path d="m637.668 274.561c1.87-.154 3.75-.399 5.44-1.255.307-.154.316-.671 0-.822-1.742-.838-3.557-.825-5.44-.597-1.612.195-3.96.485-5.05 1.816-.143.175-.131.417.07.543 1.397.874 3.416.444 4.98.315z" fill="#68182b"/></g></g></svg>