<svg id="Fruit" height="512" viewBox="0 0 992.13 992.13" width="512" xmlns="http://www.w3.org/2000/svg"><g><path d="m93.346 466.557c35.714 44.91 81.463 81.699 118.578 109.266-18.601 55.277-10.525 111.994 23.023 160.41 46.355 66.9 137.464 111.854 226.709 111.863h.03c49.696 0 94.914-13.872 130.758-40.113 22.518-16.484 40.758-36.711 54.438-60.332 23.536 9.348 49.038 14.219 74.947 14.219 60.685 0 117.135-25.762 154.88-70.678 56.113-66.771 60.851-166.979 47.859-232.5-8.14-41.051-26.632-75.317-53.479-99.094-28.941-25.63-70.208-41.758-122.654-47.939-9.918-1.168-20.055-1.763-30.126-1.763-.041 0-.084 0-.125 0-6.449-36.191-18.866-66.198-37.694-91.248-19.651-26.152-49.813-46.024-92.202-60.75-26.487-9.2-53.988-13.863-81.739-13.863-52.933 0-103.822 17.227-144.897 48.788-5.66-2.229-10.854-4.217-15.845-6.063-9.354-3.462-18.143-5.217-26.119-5.217-16.358 0-30.015 7.609-37.469 20.878-12.751 22.703-9.032 48.951-6.044 70.044.562 3.972 1.111 7.81 1.496 11.428 2.262 21.265 5.734 41.888 10.373 61.659-8.688-.74-17.684-1.106-27.086-1.106-35.079 0-69.864 5.146-103.504 10.122-10.478 1.551-20.891 3.092-31.206 4.455-2.328.309-4.885.488-7.536.688-15.606 1.179-48.077 3.628-56.013 35.509-5.851 23.505 11.658 47.787 28.527 68.704z" fill="#fff"/><g><path d="m901.144 463.336c-6.416-32.358-20.941-63.768-45.887-85.859-29.704-26.306-71.146-37.565-109.616-42.1-16.012-1.888-32.152-2.083-48.067-.69-3.862-36.466-13.847-71.987-36.173-101.691-19.673-26.179-50.689-42.026-80.947-52.537-73.968-25.693-155.869-11.663-214.586 39.79-9.458-3.854-18.938-7.611-28.345-11.091-10.707-3.962-27.413-7.619-34.479 4.959-10.832 19.286-3.812 46.644-1.621 67.25 3.386 31.839 9.655 63.229 19.652 93.624-2.322-.556-4.649-1.104-7.004-1.595-60.662-12.611-124.312 1.314-184.689 9.304-15.259 2.018-38.913-.156-43.505 18.286-3.772 15.158 17.834 40.232 26.163 50.706 33.302 41.877 76.017 76.92 119.193 108.705 6.987 5.146 8.578 8.74 5.347 17.365-67.625 180.338 202.37 312.997 341.759 210.949 26.772-19.598 45.75-44.674 57.646-72.58 72.359 40.113 168.363 24.049 222.442-40.305 46.931-55.846 56.434-143.311 42.717-212.49z" fill="#68182b"/><path d="m566.367 187.172c29.233 7.722 57.181 22.036 78.89 43.208 27.495 26.813 38.087 68.196 41.896 105.43-48.532 6.45-94.145 28.135-126.453 63.855-10.78 11.918-11.116 13.043-14.152-2.876-6.557-34.336-19.562-66.338-42.686-93.994-26.437-31.613-64.361-51.187-101.537-67.206-8.392-3.616-16.922-7.241-25.489-10.817 53.46-44.692 122.246-55.368 189.531-37.6z" fill="#ff5671"/><path d="m352.776 404.439c-2.473-8.374-1.731-9.631 5.899-6.262 20.73 9.153 39.993 21.467 57.706 35.795 6.736 5.449 4.838 5.885-1.035 6.942-10.665 1.913-27.188 5.632-36.198 8.14-6.677 1.857-13.446 4.009-20.213 6.448-13.241 4.778-13.338 5.148-9.954-7.8 3.908-14.953 7.839-29.545 3.795-43.263z" fill="#b1d045"/><path d="m476.284 300.939c-3.709-11.541-1.32-11.74 6.072-4.974 4.903 4.488 9.602 9.238 14.061 14.277 29.141 32.938 36.77 58.041 28.108 86.176-3.877 12.595-11.784 23.865-19.846 34.731-6.065 8.175-6.911 9.335-15.798 8.012-3.427-.514-6.874-.941-10.341-1.283-5.777-.569-9.077-4.648-10.394-13.086-1.984-12.766.428-26.117 2.154-32.768 4.189-16.133 8.711-31.915 10.383-48.568 1.315-13.112.101-28.49-4.399-42.517z" fill="#b1d045"/><path d="m473.459 362.479c-2.812 14.191-8.121 27.964-10.021 42.326-.206 1.549-.348 3.031-.435 4.461-.621 10.328-2.62 8.257-6.785 1.218-25.175-42.544-35.092-44.181-36.392-80.517-.5-14.063.095-27.771-2.395-41.703-1.504-8.406-4.678-18.818-9.473-28.516-5.113-10.329-4.842-12.372 5.356-7.785 1.638.736 3.271 1.485 4.9 2.252 39.413 18.557 69.218 37.751 55.245 108.264z" fill="#b1d045"/><path d="m459.13 427.21c4.688 8.395 5.137 9.614-2.668 9.678-6.409.054-12.855.399-19.32 1.041-30.499-27.553-64.883-48.256-103.909-59.716-1.343-3.867-2.618-7.746-3.832-11.636-3.192-10.226-1.557-10.624 4.966-4.47 7.372 6.952 16.438 12.43 26.557 16.375 15.177 5.916 31.776 6.521 47.711 8.915 8.352 1.255 16.473 3.614 24.114 7.205 13.721 6.448 16.962 15.749 26.381 32.608z" fill="#b1d045"/><path d="m365.982 464.348c31.195-11.431 89.216-19.601 124.367-8.207 43.837 14.205 77.25 59.497 97.079 98.668 22.722 44.88 25.706 95.641 2.608 140.787-46.036 89.982-163.138 93.313-243.758 53.232-31.804-15.813-59.555-41.111-78.585-70.984-27.751-43.56-24.713-94.303-2.265-139.309 20.701-37.476 61.647-59.934 100.554-74.187z" fill="#d5d5d5"/><path d="m509.527 432.593c7.67-11.003 14.987-22.265 19.074-35.051.27-.835.522-1.687.763-2.551 3.425-12.473 4.293-10.271 6.568 1.396 1.322 6.785 2.378 13.618 3.2 20.454 1.052 8.713.455 10.996-3.815 19.097-2.312 4.381-4.459 8.898-6.438 13.551-4.743-1.777-9.566-3.369-14.46-4.778-8.9-2.564-10.094-4.655-4.892-12.118z" fill="#b1d045"/><path d="m330.97 217.942c28.662 7.67 60.765 24.582 71.093 41.84 7.582 12.669 11.182 27.545 12.765 42.079 1.229 11.268.556 22.633 1.268 33.939.658 10.527-.107 12.502-6.111 3.995-3.414-4.838-6.816-9.676-10.167-14.537-22.876-33.176-46.021-66.168-70.809-97.939-9.522-12.203-5.725-11.436 1.961-9.377z" fill="#b1d045"/><path d="m309.741 224.606c1.847-8.296 6.208-3.748 10.107 1.191 18.585 23.522 36.182 47.772 53.405 72.299 6.884 9.81 4.239 8.442-3.685 4.838-7.039-3.2-14.649-5.891-22.492-9.036-11.122-4.461-20.854-11.078-28.789-20.071-12.172-13.794-12.068-33.417-8.546-49.221z" fill="#b1d045"/><path d="m310.131 280.266c-.777-8.828 2.133-6.874 7.031-1.309 3.766 4.28 8.079 8.11 12.681 11.375 9.958 7.067 21.89 10.739 33.205 14.952 26.288 9.783 42.081 36.143 66.845 74.425 6.607 10.206 2.543 8.875-3.297 7.055-14.391-4.479-31.087-5.508-42.817-7.133-15.852-2.195-31.109-7.529-43.854-17.382-14.243-11.009-25.967-38.763-29.794-81.983z" fill="#b1d045"/><path d="m274.53 379.815c14.331.522 28.678 2.06 43.063 5.05 18.037 3.75 28.053 9.882 31.243 21.166 1.514 5.36 1.938 11.046.837 17.689-1.66 10.012-5.064 19.591-7.88 29.349-2.578 8.938-3.499 10.622-12.198 14.983-7.311 3.663-14.456 7.699-21.316 12.123-7.895 5.098-9.823 6.159-18.277-.053-11.702-8.604-17.536-21.77-18.046-31.102-.615-11.2 2.101-22.521 2.67-33.69.43-8.4-2.106-17.947-6.952-25.868-4.675-7.645-3.199-10.015 6.856-9.647z" fill="#b1d045"/><path d="m179.221 386.618c57.56-7.811 81.946-11.854 89.567 16.961 3.289 12.437-1.047 26.967-1.949 39.519-.368 5.111.352 11.76 2.223 18.234 2.621 9.057 3.065 9.655-7.203 5.188-2.398-1.04-4.788-2.094-7.158-3.171-37.803-17.222-53.102-17.843-64.714-33.681-5.342-7.286-8.263-15.975-12.469-23.89-1.794-3.378-4.112-6.918-6.852-10.092-6.37-7.385-3.054-7.497 8.555-9.068z" fill="#b1d045"/><path d="m107.929 396.073c6.41-1.752 14.798-1.962 21.452-2.843 22.849-3.023 28.462-5.405 36.057 2.436 7.409 7.652 11.738 19.321 16.62 28.934 5.275 10.399 3.379 9.752-4.439 6.854-23.478-8.713-47.291-16.929-70.09-26.963-9.097-4.001-6.982-6.401.4-8.418z" fill="#b1d045"/><path d="m101.376 416.006c-4.672-8.558-1.163-7.825 6.246-4.661 27.759 11.86 56.912 21.049 84.829 32.372 3.563 1.443 7.119 2.908 10.669 4.379 10.475 4.343 6.704 5.12-.519 6.513-6.175 1.19-12.391 2.938-18.565 4.819-14.164 4.321-27.813 5.782-42.345 2.542-16.461-3.676-21.414-11.35-40.315-45.964z" fill="#b1d045"/><path d="m158.427 468.228c13.893.339 27.129-4.925 40.285-8.629 25.587-7.195 31.916-.169 52.798 9.207 11.151 5.004 22.767 9.542 33.636 15.299 9.386 4.968 8.661 6.095 2.211 11.715-1.904 1.657-3.769 3.353-5.593 5.087-19.703-.455-37.509 8.349-56.286 13.294-27.699 7.292-45.617-6.556-76.632-37.39-11.018-10.952-7.37-8.998 9.581-8.583z" fill="#b1d045"/><path d="m238.264 552.492c-9.96-7.389-19.794-14.957-29.471-22.719-10.035-8.054-9.972-8.971 1.264-8.57 20.158.719 38.288-9.833 57.705-13.663 10.925-2.15 3.859 3.903 1.368 6.943-4.812 5.862-9.127 12.095-12.794 18.737-2.541 5.094-4.849 10.232-6.918 15.408-3.171 7.958-4.228 9.003-11.154 3.864z" fill="#b1d045"/><path d="m569.693 782.057c-65.558 47.994-164.832 34.568-232.737-.129-33.08-16.904-62.267-41.777-81.107-73.992-10.729-18.344-18.533-39.764-20.022-61.256-1.008-14.555 2.614-13.963 6.621.223 1.216 4.307 2.655 8.613 4.33 12.914 13.112 33.669 39.174 61.006 67.92 82.018 67.112 49.05 167.333 60.324 237.497 12.078 31.349-21.555 52.35-54.914 61.31-91.531 10.902-44.563-3.631-90.572-25.788-129.215-13.771-24.016-33.384-48.835-56.874-66.634-8.683-6.58-8.024-8.436 1.728-4.176 42.021 18.367 76.197 52.87 94.669 100.478 30.561 78.769 11.727 168.507-57.547 219.222z" fill="#ff5671"/><path d="m858.198 658.576c-43.27 66.14-135.8 85.07-205.224 54.22-10.966-4.875-11.979-8.519-8.746-20.329 12.099-44.191 8.38-93.217-9.034-138.1-16.505-42.541-46.146-74.346-82.517-94.067-9.698-5.258-13.731-9.014-7.88-20.179 37.961-72.413 121.344-101.706 200.843-94.212 36.286 3.418 73.727 15.78 102.168 39.014 24.496 20.008 36.548 51.216 43.18 81.213 13.975 63.203 2.798 138.046-32.79 192.44z" fill="#ff5671"/><path d="m380.035 246.379c11.105 12.431 16.071 28.051 18.615 44.202 2.103 13.35 1.93 26.837 5.583 39.926.185.662.413 1.306.623 1.958 1.711 2.443 3.406 4.892 5.128 7.331 6.004 8.507 6.77 6.532 6.111-3.995-.712-11.307-.039-22.672-1.268-33.939-1.583-14.534-5.183-29.41-12.765-42.079-6.935-11.587-23.692-23.001-42.624-31.584 7.293 5.538 14.383 11.224 20.597 18.18z" fill="#abab38"/><path d="m504.679 431.15c8.062-10.866 15.969-22.137 19.846-34.731 6.673-21.674 3.625-41.563-11.424-64.604 5.158 19.42 3.172 40.335-6.515 60.028-7.374 14.997-20.115 29.937-27.151 46.147 3.163.325 6.314.703 9.445 1.172 8.888 1.323 9.733.163 15.799-8.012z" fill="#abab38"/><path d="m515.962 445.188c4.362 1.294 8.676 2.713 12.917 4.301 1.979-4.652 4.127-9.17 6.438-13.551 4.271-8.101 4.867-10.384 3.815-19.097-.325-2.699-.716-5.394-1.114-8.088-2.722 11.368-8.333 21.585-16.314 30.967-1.724 2.026-3.694 3.789-5.742 5.468z" fill="#abab38"/><path d="m463.438 404.806c1.9-14.362 7.21-28.135 10.021-42.326 12.476-62.961-9.96-85.003-42.962-102.212 19.691 19.662 30.527 49.823 30.842 76.245.217 18.06-7.067 35.108-8.382 53.014-.584 7.936 1.086 14.792 3.525 21.4 3.982 6.669 5.914 8.441 6.521-1.66.087-1.43.229-2.913.435-4.461z" fill="#abab38"/><path d="m456.462 436.888c7.805-.063 7.356-1.283 2.668-9.678-2.207-3.952-4.07-7.476-5.814-10.657-18.254 13.08-41.187-4.17-57.095-13.985-7.574-4.671-15.569-8.374-23.869-11.535-4.404-1.677-8.83-2.683-13.273-3.549 28.564 12.005 54.49 29.149 78.063 50.445 6.465-.642 12.911-.988 19.32-1.041z" fill="#abab38"/><path d="m379.148 449.055c9.01-2.508 25.533-6.227 36.198-8.14 5.873-1.058 7.771-1.493 1.035-6.942-10.958-8.865-22.514-16.951-34.64-24.002 3.726 9.349 1.805 20.565-3.632 30.632-2.329 4.313-5.445 8.01-8.905 11.42 3.329-1.06 6.649-2.051 9.944-2.968z" fill="#abab38"/><path d="m332.019 341.241c-9.595-9.916-14.332-22.908-18.485-35.966 5.451 29.036 15.125 48.265 26.391 56.974 12.745 9.853 28.003 15.187 43.854 17.382 11.73 1.625 28.427 2.653 42.817 7.133 5.84 1.82 9.904 3.151 3.297-7.055-.545-.844-1.063-1.648-1.601-2.479-12.398-9.688-28.1-13.439-45.071-15.073-19.156-1.844-37.44-6.698-51.202-20.916z" fill="#abab38"/><path d="m149.521 394.842c7.071 5.738 11.474 14.639 16.492 22.098 3.694 5.49 7.915 10.671 12.854 14.975 6.753 2.473 8.172 2.503 3.19-7.314-4.882-9.612-9.211-21.281-16.62-28.934-5.646-5.829-10.211-6.006-21.569-4.47 1.922.977 3.808 2.147 5.653 3.645z" fill="#abab38"/><path d="m141.692 461.97c14.532 3.24 28.181 1.779 42.345-2.542 6.175-1.882 12.391-3.629 18.565-4.819 7.223-1.393 10.993-2.17.519-6.513-2.188-.907-4.381-1.8-6.574-2.698-11.346-.963-23.031 1.432-34.982 4.027-14.151 3.075-27.688 2.964-40.559-4.258-1.694-.95-3.269-2.045-4.772-3.22 8.462 13.199 14.341 17.54 25.458 20.023z" fill="#abab38"/><path d="m225.478 514.2c18.777-4.945 36.583-13.749 56.286-13.294 1.824-1.734 3.688-3.43 5.593-5.087 6.45-5.62 7.175-6.747-2.211-11.715-2.763-1.464-5.576-2.847-8.417-4.182-15.785-.247-32.833 7.076-46.491 11.968-14.298 5.119-29.281 9.801-44.613 7.209-8.812-1.489-16.912-5.452-24.455-10.362 23.891 22.338 40.495 31.732 64.308 25.463z" fill="#abab38"/><path d="m249.418 548.629c2.069-5.176 4.377-10.314 6.918-15.408 3.057-5.537 6.586-10.773 10.455-15.766-1.699.752-3.4 1.539-5.102 2.383-12.979 6.439-28.451 18.293-42.813 17.86 6.409 5.003 12.859 9.952 19.387 14.794 6.927 5.139 7.984 4.094 11.155-3.863z" fill="#abab38"/><path d="m329.594 468.053c8.699-4.361 9.62-6.046 12.198-14.983 2.815-9.758 6.22-19.337 7.88-29.349 1.101-6.644.677-12.329-.837-17.689-3.19-11.284-13.206-17.416-31.243-21.166-3.369-.701-6.736-1.306-10.102-1.854 2.858 2.255 5.492 4.884 7.816 8.166 8.254 11.667 8.538 27.329 4.519 40.473-5.372 17.566-17.215 32.693-13.582 49.815.646-.403 1.292-.811 2.034-1.29 6.861-4.424 14.007-8.46 21.317-12.123z" fill="#abab38"/><path d="m293.444 482.274c-.025-.327-.334-.317-.502-.128.183.117.331.177.508.284-.004-.049-.002-.109-.006-.156z" fill="#abab38"/><path d="m347.077 293.898c7.843 3.146 15.453 5.836 22.492 9.036 7.924 3.604 10.568 4.972 3.685-4.838-3.077-4.381-6.184-8.741-9.287-13.103-4.287-1.908-9.008-3.077-13.34-4.169-10.581-2.668-19.87-5.451-28.47-12.539-7.391-6.093-11.862-14.026-14.385-22.759.487 10.141 3.386 20.22 10.516 28.3 7.935 8.994 17.667 15.612 28.789 20.072z" fill="#abab38"/><path d="m255.418 432.165c1.66 8.873 2.504 24.844 8.296 35.155 8.343 3.552 7.8 2.482 5.348-5.988-1.871-6.475-2.591-13.123-2.223-18.234.902-12.552 5.238-27.082 1.949-39.519-5.662-21.41-20.612-24.667-51.516-21.729 6.571 2.294 12.777 5.862 18.204 10.322 12.225 10.05 17.139 25.006 19.942 39.993z" fill="#abab38"/><path d="m489.929 324.838c-1.119 8.479.089 17.126-1.103 25.707-1.112 8.028-3.276 15.9-5.492 23.682-3.202 11.258-8.449 23.514-3.927 35.187.356.919 1.677 1.298 2.226.292 7.214-13.22 11.994-26.348 15.392-41.081 3.034-13.163 5.099-34.103-5.973-44.252-.459-.422-1.049-.093-1.123.465z" fill="#d7e338"/><path d="m441.54 310.406c.593-13.145-1.188-32.066-15.486-37.459-.451-.171-.718.376-.558.724 3.959 8.649 6.74 15.954 6.634 25.634-.093 8.425-1.794 16.856-2.75 25.21-1.926 16.812.06 32.687 12.555 45.056.797.789 1.911.144 2.022-.838 1.226-10.879-2.644-19.989-3.518-30.663-.749-9.149.689-18.521 1.101-27.664z" fill="#d7e338"/><path d="m368.334 264.719c7.273 10.19 11.11 21.714 20.416 30.34.802.745 1.925.182 2.021-.837 1.32-13.852-6.498-24.891-14.769-35.418-7.848-9.989-18.286-21.279-30.729-25.278-.585-.188-1.082.508-.78 1.017 6.466 10.869 16.462 19.834 23.841 30.176z" fill="#d7e338"/><path d="m341.668 272.829c.827.072 1.119-.874.852-1.484-2.941-6.736-8.703-11.386-12.753-17.429s-6.355-13.504-11.492-18.71c-.225-.227-.634-.123-.716.189-3.456 13.325 9.9 36.194 24.109 37.434z" fill="#d7e338"/><path d="m358.577 335.213c-17.71-5.114-22.414-21.687-33.479-33.898-.247-.271-.656-.044-.675.279-.852 14.281 9.192 31.401 21.244 38.911 13.113 8.171 34.744 12.47 50 9.528.662-.128 1.03-1.043.65-1.595-8.068-11.695-25.391-9.659-37.74-13.225z" fill="#d7e338"/><path d="m402.937 396.532c-.732.13-.695 1.097-.189 1.444 10.233 7.021 22.979 12.673 35.083 15.529 1.002.237 1.685-.601 1.539-1.538-2.354-15.157-24.536-17.532-36.433-15.435z" fill="#d7e338"/><path d="m363.119 410.151c-.236-.047-.511.063-.568.321-1.256 5.634-1.196 11.611-2.285 17.358-1.133 5.989-2.356 10.791-.773 16.851.241.923 1.321 1.313 2.127.865 7.084-3.92 8.773-10.574 9.744-18.101.766-5.948-1.396-15.901-8.245-17.294z" fill="#d7e338"/><path d="m295.517 417.098c-.066-9.285-1.813-26.283-12.658-29.221-.49-.134-.854.311-.77.769 1.253 6.793 2.571 12.661 2.406 19.667-.179 7.569-1.201 15.092-2.005 22.61-1.578 14.735.989 29.399 14.116 37.773.701.446 1.722-.132 1.685-.967-.348-7.963-1.789-15.456-2.674-23.351-1.009-8.998-.036-18.24-.1-27.28z" fill="#d7e338"/><path d="m228.917 408.777c-9.411-12.792-29.291-23.349-44.73-14.755-.377.21-.396.819 0 1.024 7.938 4.12 17.128 4.499 25.065 8.936 7.309 4.085 11.57 11.192 15.528 18.27 6.911 12.367 11.788 26.517 26.281 31.667.991.352 1.677-.839 1.266-1.646-7.382-14.407-13.785-30.416-23.41-43.496z" fill="#d7e338"/><path d="m243.303 479.867c.771-.578.827-1.59 0-2.159-9.445-6.509-21.045-1.825-31.171.775-6.913 1.775-13.775 3.369-20.891 4.104-8.651.891-15.943-2.166-24.204-3.443-.629-.099-1.123.456-.818 1.063 5.712 11.36 21.333 14.024 32.82 12.422 7.671-1.067 15.08-2.986 22.567-4.92 7.768-2.006 15.152-2.934 21.697-7.842z" fill="#d7e338"/><path d="m243.199 521.342c-7.515.691-16.172 1.08-22.993 4.768-.409.223-.426.766-.14 1.086 3.023 3.367 7.983 3.566 12.206 3.008 5.2-.691 8.382-3.391 11.554-7.346.427-.532.232-1.594-.627-1.516z" fill="#d7e338"/><path d="m138.875 407.489c2.511 1.305 4.704 3.075 7.104 4.549 2.057 1.263 4.42 1.585 6.463 2.748.707.402 1.46-.254 1.306-1.004-.512-2.46-.524-4.674-2.283-6.714-2.402-2.787-5.368-4.684-8.592-6.416-4.504-2.421-12.076-4.507-16.057-.07-.316.354-.292.942.152 1.189 3.845 2.125 8.002 3.691 11.907 5.718z" fill="#d7e338"/><path d="m139.269 434.599c-7.831-1.706-14.218-5.643-20.45-10.468-.303-.232-.922-.235-.991.261-2.395 17.087 29.418 28.059 40.454 17.135.424-.42.322-1.148-.188-1.448-5.951-3.508-12.183-4.037-18.825-5.48z" fill="#d7e338"/><path d="m590.036 695.596c7.376-14.42 12.066-29.412 14.329-44.602-3.951 7.691-8.514 15.076-13.673 22.045-25.229 34.078-64.822 54.501-105.941 61.914-43.017 7.757-88.335.338-127.281-19.148-43.519-21.77-74.955-61.461-86.873-108.545-6.686-26.417-5.931-53.59 1.361-79.033-2.33 3.316-4.55 6.724-6.53 10.309-22.448 45.006-25.486 95.749 2.265 139.309 19.03 29.873 46.781 55.172 78.585 70.984 80.62 40.08 197.722 36.749 243.758-53.233z" fill="#bebebe"/><path d="m437.296 476.933c-14.794 2.345-29.542 7.149-42.421 11.288-22.025 7.078-43.379 15.646-61.05 30.992-30.12 26.16-36.931 82.993 3.023 103.775 19.617 10.201 41.269.975 58.187-10.026 21.582-14.03 38.258-34.489 53.599-54.812 7.948-10.531 14.904-21.049 20.66-32.533 19.198-38.3 9.165-55.214-31.998-48.684z" fill="#efefef"/><path d="m541.663 523.834c-30.241-44.989-49.562-27.982-56.457 3.641-6.623 30.406-4.336 65.714 19.226 85.709 22.464 19.063 49.379 3.051 54.957-22.654 5.112-23.557-5.012-47.782-17.726-66.696z" fill="#efefef"/><path d="m659.032 558.018c-15.596-24.656-34.731-59.636-65.343-67.291 17.505 17.323 31.792 38.605 41.505 63.641 17.414 44.883 21.133 93.908 9.034 138.1-3.233 11.811-2.22 15.454 8.746 20.329 69.424 30.851 161.954 11.92 205.224-54.22 7.803-11.926 14.359-24.877 19.809-38.43-34.839 22.322-79.813 32.666-119.145 23.709-46.24-10.532-75.799-47.85-99.83-85.838z" fill="#df3f58"/><path d="m336.957 781.928c67.905 34.697 167.179 48.123 232.737.129 69.273-50.715 88.107-140.453 57.545-219.223-.188-.482-.401-.943-.593-1.426 1.076 4.605 2.123 9.209 3.16 13.773 6.96 30.654 4.957 65.006-2.152 95.449-12.054 51.611-50.383 91.547-96.986 114.453-52.652 25.879-114.572 19.938-168.515 1.34-33.973-11.712-65.185-30.102-89.946-55.264 17.651 21.167 40.117 38.181 64.75 50.769z" fill="#df3f58"/><path d="m402.326 235.589c37.176 16.02 75.1 35.593 101.537 67.206 23.124 27.656 36.129 59.658 42.686 93.994 3.036 15.919 3.372 14.794 14.152 2.876 32.309-35.721 77.921-57.405 126.453-63.855-1.238-12.096-3.209-24.626-6.227-36.955-2.74 3.935-5.881 7.692-9.549 11.266-12.227 11.912-28.299 19.8-44.716 23.938-37.872 9.553-70.121-13.218-97.242-36.712-23.392-20.262-45.301-42.523-74.737-53.855-15.516-5.974-36.358-10.803-54.968-9.012.863.37 1.751.739 2.611 1.109z" fill="#df3f58"/><path d="m831.943 580.158c-1.386-.832-2.602-.55-3.988.123-1.343.652-1.543 1.865-1.82 2.93-.091.341.109.748.471.828-.069-.129-.142-.26-.212-.389.159.27.373.483.643.643.421.246 1.024.309 1.503.332 1.22.063 2.341.072 3.404-.598 1.423-.894 1.477-2.984-.001-3.869z" fill="#ff9780"/><path d="m802.657 375.809c1.853-.998 2.791-4.186 1.042-5.7-.878-.763-1.908-.716-2.791 0-1.46 1.181-1.106 3.774-.191 5.192.43.666 1.236.887 1.94.508z" fill="#ff9780"/><path d="m807.882 578.439c.354-.133.51-.557.224-.852-1.491-1.533-2.931-2.463-5.182-2.154-.913.127-3.827.836-2.988 2.404 1.544 2.884 5.72 1.448 7.946.602z" fill="#ff9780"/><path d="m793.561 555.082c2.777-.207 2.777-4.105 0-4.313-1.199-.088-4.498.472-4.048 2.385.381 1.619 2.672 2.028 4.048 1.928z" fill="#ff9780"/><path d="m797.932 604.287c1.05.027 1.768.633 2.868.209 1.047-.404 1.53-1.242 1.337-2.354-.358-2.047-3.092-2.844-4.728-1.662-.792.572-2.719 2.49-1.345 3.477.553.397 1.214.314 1.868.33z" fill="#ff9780"/><path d="m788.573 520.039c1.438.871 2.81.13 3.938-.863.63-.556.762-1.469.593-2.244-.027-.117-.052-.236-.078-.354-.119-.55-.626-1.026-1.16-1.162-1.432-.364-2.736.147-3.51 1.469-.532.908-.881 2.49.217 3.154z" fill="#ff9780"/><path d="m789.367 442.378c2.098-.488 3.951-1.606 3.406-4.021-.336-1.481-2.088-1.638-3.098-.819-1.405 1.145-1.126 2.932-.854 4.53.042.245.33.361.546.31z" fill="#ff9780"/><path d="m763.842 575.338c1.418 1.072 3.265 1.107 4.892.529.813-.291 1.813-.875 2.259-1.638.59-1.006.232-1.776.354-2.81.043-.373-.413-.689-.751-.572-.034.355-.218.373-.547.054-.341-.091-.681-.091-1.021 0-.789.147-1.328.502-1.995.931-1.135.727-2.322 1.434-3.342 2.317-.406.35-.209.915.151 1.189z" fill="#ff9780"/><path d="m784.665 407.021c1.834-1.304 2.484-3.474 1.991-5.642-.712-3.114-5.165-1.732-4.69 1.291.214 1.362.191 2.633.866 3.869.327.599 1.248.896 1.833.482z" fill="#ff9780"/><path d="m775.194 534.154c-.268.678.396 1.258 1 1.313 1.296.117 2.471.22 3.795-.016 1.726-.303 2.318-1.005 3.3-2.322.188-.252.069-.586-.104-.797-1.279-1.592-2.443-1.953-4.476-1.516-1.815.391-2.892 1.754-3.515 3.338z" fill="#ff9780"/><path d="m777.57 475.527c-.123.247.076.478.333.437 2.532-.408 4.468-1.188 5.367-3.855.222-.662.002-1.651-.556-2.104-.508-.41-.872-.583-1.53-.634-.77-.058-1.471.463-1.866 1.071-1.026 1.58-.943 3.473-1.748 5.085z" fill="#ff9780"/><path d="m807.746 408.32c-2.971-.222-3.664 2.521-4.637 4.631-.095.205.013.518.284.495 2.263-.185 4.574-.265 5.864-2.49.704-1.214-.213-2.539-1.511-2.636z" fill="#ff9780"/><path d="m780.843 385.341c.934-.562 2.744-.5 3.242-2.311.21-.761-.251-1.512-.987-1.74-.132-.041-.262-.082-.394-.123-.619-.191-1.322.022-1.774.471-.576.568-.92 1.121-1.156 1.896-.145.476.021.996.357 1.348-.06-.019-.119-.035-.179-.054.013.443.496.749.891.513z" fill="#ff9780"/><path d="m844.781 422.722c2.108-1.841-.578-4.929-2.872-3.724-1.571.827-2.475 2.136-2.544 3.91-.015.346.201.718.506.881 1.792.958 3.488.173 4.91-1.067z" fill="#ff9780"/><path d="m845.612 491.104c.755-.526 1.448-1.402 1.694-2.304.317-1.149-.37-1.722-.826-2.627-.189-.372-.695-.465-1.037-.271-.148.085-.818.124-.891.145-.805.22-1.222.855-1.705 1.477-.729.936-1.537 1.926-1.999 3.02-.163.383-.1.749.259.991 1.415.952 3.184.491 4.505-.431z" fill="#ff9780"/><path d="m813.326 456.427c2.32.95 4.476-1.952 4.369-3.988-.074-1.405-1.746-2.761-3.092-1.775-1.275.935-3.761 4.746-1.277 5.763z" fill="#ff9780"/><path d="m848.662 520.816c1.868 1.373 5.365-.244 6.527-1.879.413-.582.224-1.465-.251-1.942-2.874-2.895-9.707 1.3-6.276 3.821z" fill="#ff9780"/><path d="m844.255 452.604c-1.565.479-2.736 1.683-2.969 3.287-.062.424.099.794.528.932 1.264.405 2.311.301 3.592-.045 1.547-.42 2.022-1.288 2.633-2.52.173-.35.076-.704-.24-.924-1.195-.824-1.969-1.215-3.544-.73z" fill="#ff9780"/><path d="m813.729 388.323c2.061-.074 5.336-1.359 6.024-3.408.23-.689-.138-1.578-.779-1.913-2.608-1.364-6.716 1.82-5.992 4.753.081.323.413.58.747.568z" fill="#ff9780"/><path d="m817.177 634.258c1.171-.424 1.975-1.809 1.212-2.98-.506-.779-4.752-3.744-5.6-2.426-.032.068-.063.139-.097.206-.415.323-.428.905-.361 1.368.306 2.127 2.484 4.685 4.846 3.832z" fill="#ff9780"/><path d="m820.252 511.101c2.685-.786 4.237-2.779 3.992-5.503-.037-.419-.302-.687-.724-.724-1.61-.14-2.54.054-3.741 1.236-1.029 1.012-1.414 2.812-.998 4.157.192.613.831 1.02 1.471.834z" fill="#ff9780"/><path d="m810.918 479.117c.153.419.563.588.969.393 1.655-.798 3.425-1.35 4.601-2.869 1.66-2.146-.333-4.824-2.86-3.707-2.319 1.026-3.576 3.815-2.71 6.183z" fill="#ff9780"/><path d="m829.089 558.541c.939-.648.939-1.882 0-2.529-1.381-.953-2.934-.821-4.492-.416-.578.15-1.959 1.018-1.648 1.839.845 2.233 4.439 2.278 6.14 1.106z" fill="#ff9780"/><path d="m821.081 545.5c1.368.521 2.316.184 3.421-.678 1.865-1.457-.511-3.857-2.343-3.037-.739.332-1.181.771-1.691 1.393-.697.847-.413 1.929.613 2.322z" fill="#ff9780"/><path d="m809.94 526.957c.052.211.294.428.524.398.926-.117 1.771-.518 2.603-.93.606-.303 1.363-.688 1.845-1.17.556-.553.66-1.225 1.316-1.697.393-.281.459-1.08-.152-1.172-2.129-.324-3.034-.695-4.868.748-1.031.813-1.565 2.581-1.268 3.823z" fill="#ff9780"/><path d="m829.405 606.162c1.647.047 2.207-1.127 2.874-2.296.197-.348.063-.729-.247-.946-.794-.549-.987-.965-2.024-1.201-1.218-.279-2.771.16-3.894.615-.901.363-1.504 1.586-.623 2.361 1.162 1.022 2.369 1.424 3.914 1.467z" fill="#ff9780"/><path d="m766.65 507.111c1.972-1.32 3.768-2.778 4.323-5.236.519-2.304-2.103-3.748-3.836-2.234-2.201 1.924-2.322 4.817-1.162 7.294.109.234.467.317.675.176z" fill="#ff9780"/><path d="m774.646 427.156c.872-3.131-3.761-4.33-4.81-1.327-.516 1.485-.625 2.638-.251 4.129.241.962 1.275 1.209 2.084.848 1.601-.716 2.495-1.922 2.977-3.65z" fill="#ff9780"/><path d="m669.604 473.774c.407 1.212 1.118 2.697 2.373 3.275.953.436 1.852.368 2.489.424.381.032.712-.348.708-.708-.401.399-.401.364-.007-.104.303-.515.253-.985.188-1.552-.134-1.183-.57-2.252-1.189-3.258-1.446-2.348-5.49-.836-4.562 1.923z" fill="#ff9780"/><path d="m673.549 366.408c3.5-1.361 2.032-6.454-1.348-6.792-1.156-.115-1.697 1.115-1.562 2.051.221 1.512 1.175 3.505 2.283 4.577.155.146.417.246.627.164z" fill="#ff9780"/><path d="m713.978 580.871c-1.932.959-2.274 3.785-1.945 5.68.277 1.596 2.921 1.588 3.204 0 .301-1.686.204-4.042-.718-5.537-.12-.194-.344-.239-.541-.143z" fill="#ff9780"/><path d="m666.108 415.454c.991-2.199.489-4.479-1.584-5.809-1.683-1.078-3.336.685-3.055 2.347.243 1.43 1.026 2.72 1.967 3.806.673.775 2.236.623 2.672-.344z" fill="#ff9780"/><path d="m659.387 379.801c-1.599 0-3.14 2.056-2.017 3.514.797 1.032 2.014 1.952 3.242.926.316-.266.539-.601.79-.926 1.123-1.459-.418-3.514-2.015-3.514z" fill="#ff9780"/><path d="m658.775 510.281c-2.374.387-2.374 4.39 0 4.776 1.695.277 4.62-.469 4.174-2.787-.358-1.853-2.674-2.235-4.174-1.989z" fill="#ff9780"/><path d="m699.386 465.506c.058.004.115.011.173.017.861.091 1.668-.537 2.108-1.208.493-.755.619-1.406.666-2.297.18-3.413-4.928-3.31-5.238 0-.153 1.641.487 3.296 2.291 3.488z" fill="#ff9780"/><path d="m683.697 538.883c.87.375 3.956 1.051 4.363-.498.504-1.91-.562-3.529-2.448-4.043-2.645-.725-4.555 3.404-1.915 4.541z" fill="#ff9780"/><path d="m683.681 568.922c-.664 1.412.42 3.248 2.115 2.753 2.313-.679 2.752-2.423 3.338-4.462.117-.413-.273-.754-.668-.668-1.934.43-3.785.251-4.785 2.377z" fill="#ff9780"/><path d="m663.725 451.385c.411-1.407.615-3.377-.314-4.675-.472-.663-1.342-1.881-2.323-1.494-3.416 1.35-.962 6.198 1.768 6.665.383.065.751-.097.869-.496z" fill="#ff9780"/><path d="m716.146 528.861c1.551-1.395 1.074-3.838-.35-5.113-1.958-1.754-5.589.635-3.838 2.962.809 1.075 1.651 1.993 2.931 2.485.434.166.934-.045 1.257-.334z" fill="#ff9780"/><path d="m692.514 402.101c-1.188 1.117-1.647 2.9-.37 4.13.415.401.956.428 1.46.189.911-.432 1.313-1.261 1.753-2.127.929-1.824-1.313-3.633-2.843-2.192z" fill="#ff9780"/><path d="m771.249 624.42c-1.25-1.531-2.908-2.258-4.848-2.191-.177.006-.331.146-.329.329.026 1.888 1.125 3.315 2.334 4.704 1.722 1.972 4.454-.867 2.843-2.842z" fill="#ff9780"/><path d="m685.409 501.597c-.313 1.389-.739 5.479 1.569 5.581 2.682.119 3.468-3.612 3.1-5.581-.444-2.366-4.159-2.273-4.669 0z" fill="#ff9780"/><path d="m694.437 428.676c-.154.011-.311.021-.465.031-.777.05-1.512.5-1.709 1.3-.762 3.086 2.11 3.719 4.266 4.737.307.146.736-.021.718-.411-.082-1.724.161-2.925-.773-4.488-.407-.681-1.216-1.222-2.037-1.169z" fill="#ff9780"/><path d="m645.896 491.452c.087-1.504-1.649-2.579-2.929-2.776-2.267-.353-3.207 3.139-.948 3.445.551.073 3.814.434 3.877-.669z" fill="#ff9780"/><path d="m629.419 463.233c.403 1.651 4.134 5.395 5.775 2.908 1.115-1.687-.569-4.064-1.806-5.219-1.747-1.628-4.539-.027-3.969 2.311z" fill="#ff9780"/><path d="m637.111 427.683c-.22-.084-.514.015-.672.177-1.823 1.909-1.479 4.914.506 6.572.603.506 1.559.506 1.98-.255 1.284-2.323.884-5.464-1.814-6.494z" fill="#ff9780"/><path d="m632.885 374.896c-1.866-.597-3.629 1.676-2.559 3.328.692 1.067 3.12 3.645 4.652 2.639 2.479-1.632-.143-5.344-2.093-5.967z" fill="#ff9780"/><path d="m598.856 415.216c-1.436.329-1.668 2.086-.811 3.073 1.169 1.345 2.938 1.452 4.612 1.388.306-.012.586-.253.575-.575-.073-2.422-1.836-4.468-4.376-3.886z" fill="#ff9780"/><path d="m601.099 391.902c-2.563 2.363 2.402 4.613 4.1 5 .376.087.703-.11.829-.471.493-1.409.366-2.623-.64-3.81-1.039-1.223-2.942-1.961-4.289-.719z" fill="#ff9780"/><path d="m582.008 462.41c.128-.167.126-.5 0-.666-1.432-1.889-4.593-2.454-6.788-1.881-1.678.44-1.8 2.621-.458 3.506 2.092 1.376 5.673 1.107 7.246-.959z" fill="#ff9780"/><path d="m554.077 289.575c-3.201 1.158-2.456 4.399-1.191 6.745.115.214.418.188.539 0 .749-1.162 1.588-1.887 2.104-3.207.465-1.181-.052-2.508-.844-3.378-.139-.152-.411-.232-.608-.16z" fill="#ff9780"/><path d="m573.229 418.888c-2.003.11-2.63 2.563-.993 3.673 1.649 1.121 3.499 1.13 5.397 1.156.136.002.275-.121.264-.263-.205-2.495-1.932-4.717-4.668-4.566z" fill="#ff9780"/><path d="m550.763 246.353c-.777 1.508-.763 3.707.704 4.897.761.619 2.551 1.763 3.303.438.809-1.424.066-3.97-.555-5.336-.615-1.355-2.804-1.254-3.452.001z" fill="#ff9780"/><path d="m578.419 437.563c-2.85.171-2.85 4.252 0 4.422.956.056 5.407-.582 4.617-2.456-.67-1.596-3.054-2.059-4.617-1.966z" fill="#ff9780"/><path d="m615.61 438.894c.354-.173.489-.626.401-.985-.498-2.019-2.543-3.133-4.497-3.11-2.577.033-3.114 3.797-.606 4.49 1.562.429 3.238.324 4.702-.395z" fill="#ff9780"/><path d="m505.825 244.812c-2.391-3.354-6.829 1.084-3.475 3.475.186.132.37.264.556.395.66.474 1.781.438 2.445 0 .321-.209.565-.407.78-.731.03-.046.06-.091.088-.137.438-.664.474-1.785 0-2.445-.131-.186-.263-.372-.394-.557z" fill="#ff9780"/><path d="m625.364 397.806c-.677.316-.928 1.201-.761 1.874.563 2.281 2.503 2.52 4.369 3.252.824.323 1.577-.483 1.625-1.238.179-2.899-2.455-5.182-5.233-3.888z" fill="#ff9780"/><path d="m622.012 293.111c.132.354.393.573.777.592 1.703.078 6.967-2.882 4.793-5.056-2.382-2.379-6.55 1.823-5.57 4.464z" fill="#ff9780"/><path d="m843.973 618.343c2.322-.478 1.757-4.105-.551-4.073-1.418.021-4.413.883-3.499 2.893.695 1.534 2.635 1.47 4.05 1.18z" fill="#ff9780"/><path d="m643.933 274.481c-.565.132-.911.27-1.417.549-.758.418-.758 1.59 0 2.008.506.279.852.418 1.417.549 2.597.605 2.597-3.71 0-3.106z" fill="#ff9780"/><path d="m500.828 195.957c-.997.989-1.462 1.967-1.281 3.372.022.177.119.273.297.296 1.406.183 2.384-.282 3.373-1.279 1.536-1.547-.842-3.925-2.389-2.389z" fill="#ff9780"/><path d="m654.274 299.056c-1.486.857-1.674 1.604-2.092 2.945-.093.299.109.572.381.669.51.181.827.681 1.45.603.893-.111 1.52-.292 2.349-.648 2.391-1.022.283-4.936-2.088-3.569z" fill="#ff9780"/><path d="m639.479 313.584c.156-.44-.009-1.076-.366-1.383-1.855-1.588-4.618-.623-5.57 1.521-.221.498-.031.93.463 1.138 2.012.84 4.566 1.299 5.473-1.276z" fill="#ff9780"/><path d="m559.78 210.21c-2.069.329-3.531 2.837-2.438 4.766.143.249.424.409.71.407 2.142-.012 3.614-1.53 3.869-3.542.153-1.197-1.186-1.781-2.141-1.631z" fill="#ff9780"/><path d="m870.692 531.523c-1.131.695-1.88 1.502-2.22 2.803-.322 1.23.593 2.357 1.833 2.407 1.104.044 1.999-.284 2.878-.948 2.463-1.865.293-5.976-2.491-4.262z" fill="#ff9780"/><path d="m870.643 478.5c1.218.257 2.599-.342 2.902-1.65.105-.442.109-.811 0-1.252-.298-1.238-1.694-2-2.902-1.65-1.174.342-1.915.942-2.544 1.983-.232.385-.273.991 0 1.372.062.086.125.171.191.253.48.518 1.623.79 2.353.944z" fill="#ff9780"/><path d="m859.408 560.791c-.15-1.084-1.352-1.699-2.314-1.76-.948-.061-2.215.028-3.034.598-.865.605-.915.994-1.475 1.816-.103.15-.043.42.13.496.504.223.798.646 1.345.889.78.346 1.586.65 2.396.911.743.241 1.825.007 2.335-.614.656-.805.757-1.314.617-2.336z" fill="#ff9780"/><path d="m875.567 451.021c-1.236-3.029-6.662-.08-5.788 1.572.9 1.703 3.437 1.754 4.856.72.676-.493 1.297-1.404.932-2.292z" fill="#ff9780"/><path d="m866.743 434.071c-1.434-.757-2.367-.378-3.793.225-1.553.658-2.03 1.775-2.921 3.02-.316.442.203.896.632.82 2.354-.415 5.093.44 6.642-1.925.452-.691.164-1.757-.56-2.14z" fill="#ff9780"/><path d="m871.17 593.852c3.48.555 4.141-4.434.642-4.75-1.634-.15-3.118.076-4.229 1.355-.212.244-.333.646-.121.938.964 1.331 2.031 2.189 3.708 2.457z" fill="#ff9780"/><path d="m599.568 220.147c-2.103-.957-3.832-.146-5.05 1.724-.21.32-.009.808.364.893 1.772.409 2.822 1.285 4.686.362 1.099-.546 1.159-2.454 0-2.979z" fill="#ff9780"/><path d="m572.196 305.604c1.837.085 6.86-2.087 5.533-4.554-1.726-3.207-6.368 1.481-6.273 3.813.017.419.325.724.74.741z" fill="#ff9780"/><path d="m721.584 616.076c-1.084-.442-2.313-.857-3.46-1.098-.234-.051-.469.027-.594.242-1.208 2.051 1.127 4.33 2.949 4.862 2.642.772 3.514-3.025 1.105-4.006z" fill="#ff9780"/><path d="m574.317 255.113c.428-.278 1.142-.362 1.631-.578.685-.303 1.273-.864 1.804-1.376.911-.885 1.255-2.43.303-3.395-.489-.497-1.294-.738-1.971-.521-1.01.323-2.201.976-2.653 2.021-.435 1.004-.327 1.771-.539 2.752-.171.785.667 1.587 1.425 1.097z" fill="#ff9780"/><path d="m624.595 240.587c-.11-.056-.224-.109-.335-.162-.768-.375-1.481-.271-2.131.273-.751.631-.854 1.265-.975 2.196-.111.844 1.098 1.524 1.769 1.015.716-.541 1.522-.422 2.179-1.389.409-.602.154-1.615-.507-1.933z" fill="#ff9780"/><path d="m720.556 420.691c2.664-1.401 1.854-5.04-.629-6.027-.959-.38-2.357.409-2.519 1.43-.205 1.29-.053 2.8.638 3.939.537.882 1.615 1.129 2.51.658z" fill="#ff9780"/><path d="m718.1 494.604c.218.177.479.242.736.097.854-.489 1.722-.854 2.541-1.417.604-.418 1.194-1.132 1.106-1.932-.07-.642-.169-1.119-.654-1.58-.714-.679-1.845-.893-2.709-.35-1.725 1.08-2.947 3.629-1.02 5.182z" fill="#ff9780"/><path d="m586.478 276.653c1.056-.647.751-2.063-.322-2.466-2.426-.909-3.878 1.339-3.936 3.478-.006.235.271.394.472.27 1.171-.726 2.612-.56 3.786-1.282z" fill="#ff9780"/><path d="m616.557 260.517c.905-1.246-.589-3.027-1.975-2.569-2.063.686-2.562 2.028-3.744 3.635-.222.303.002.827.364.893 2.289.424 3.921.015 5.355-1.959z" fill="#ff9780"/><path d="m603.516 325.77c1.697 1.441 4.206 1.962 6.379 1.441.398-.095.536-.555.363-.893-1.324-2.563-4.689-2.742-6.742-1.014-.13.109-.13.356 0 .466z" fill="#ff9780"/><path d="m710.263 355.784c-.765-.562-1.791-.086-2.259.593-1.142 1.657-.886 3.91-.24 5.725.261.74 1.335 2.715 2.427 2.137 2.998-1.589 2.468-6.692.072-8.455z" fill="#ff9780"/><path d="m599.438 241.44c-1.084.989-1.08 2.501-.726 3.772.119.43.649.671 1.04.424 1.264-.798 5.39-2.715 3.183-4.715-1.128-1.022-2.534-.355-3.497.519z" fill="#ff9780"/><path d="m608.769 310.957c-1.501.554-1.501 2.495 0 3.049 2.063.759 4.421.604 5.799-1.243.107-.142.107-.421 0-.563-1.379-1.847-3.736-2.002-5.799-1.243z" fill="#ff9780"/><path d="m610.276 277.649c-.493.03-.93-.329-1.484-.329-.786 0-1.611.473-2.181.984-1.218 1.097-2.231 2.411-2.473 4.063-.052.353.082.829.504.891 1.765.26 3.363-.246 4.834-1.24.619-.419 1.273-1.121 1.477-1.861.189-.685-.168-1.426-.117-1.948.029-.291-.275-.578-.56-.56z" fill="#ff9780"/><path d="m690.768 377.365c-.481.924-.563 1.716-.622 2.746-.045.799.405 1.699.29 2.446-.039.255.156.537.446.446 1.188-.374 1.768-.496 2.59-1.514.856-1.054 1.109-2.389.745-3.674-.43-1.508-2.677-1.934-3.449-.45z" fill="#ff9780"/><path d="m607.755 468.721c-1.837-.95-3.793.957-2.808 2.808 1.082 2.034 3.842 2.104 5.189.354.229-.299.184-.811 0-1.115-.53-.874-1.48-1.58-2.381-2.047z" fill="#ff9780"/><path d="m749.257 417.408c.14.107.423.107.563 0 1.863-1.428 2.665-3.334 1.409-5.552-.721-1.271-2.662-1.271-3.382 0-1.256 2.218-.454 4.124 1.41 5.552z" fill="#ff9780"/><path d="m744.098 597.154c-.227-.008-.457.253-.364.479.685 1.684 1.736 4.806 3.972 4.777.693-.008 1.251-.459 1.459-1.109.849-2.678-3.095-4.067-5.067-4.147z" fill="#ff9780"/><path d="m750.081 470.667c-3.217-.039-3.614 6.781-1.088 6.79 2.824.01 4.23-6.751 1.088-6.79z" fill="#ff9780"/><path d="m750.949 520.734c.052-1.152-.977-2.771-1.647-3.667-.435-.586-1.288-.683-1.703 0-.809 1.317-.681 2.999.234 4.247.42.574 1.146 1.049 1.895.771.088-.033.179-.066.268-.099.567-.209.925-.632.953-1.252z" fill="#ff9780"/><path d="m772.132 442.962c-.054-1.586-1.074-3.434-2.847-3.434-1.619 0-2.257 2.106-1.991 3.396.175.852.426 1.74.809 2.525.458.942 1.188 1.354 1.724 2.162.183.278.586.297.765 0 .372-.61.848-.882 1.164-1.557.46-.98.411-2.037.376-3.092z" fill="#ff9780"/><path d="m750.198 539.986c-.995-.4-1.612-.715-2.729-.578-4.581.559-1.084 6.791 1.636 3.945.872-.916 1.096-1.648 1.404-2.822.068-.254-.082-.455-.311-.545z" fill="#ff9780"/><path d="m756.436 398.728c1.063-2.29-1.814-5.016-3.72-2.87-1.157 1.305-1.927 2.417-1.742 4.205.078.75.529 1.209 1.284 1.283 1.972.193 3.354-.852 4.178-2.618z" fill="#ff9780"/><path d="m728.493 383.242c-2.012.885-2.801 4.596-2.057 6.554.039.104.13.201.253.193 2.651-.169 5.116-3.89 3.742-6.239-.421-.722-1.232-.818-1.938-.508z" fill="#ff9780"/><path d="m718.994 547.072c-.439 1.609 1.074 3.082 2.67 2.668 2.331-.607 3.084-2.658 3.61-4.767.104-.421-.13-.85-.551-.972-2.375-.683-5.066.655-5.729 3.071z" fill="#ff9780"/><path d="m735.489 448.573c1.327-1.22 2.238-2.575 1.728-4.408-.327-1.177-1.722-1.748-2.778-1.129-.161.092-.323.187-.483.279-.686.401-1.181 1.197-1.15 2.006.052 1.318.437 2.339 1.405 3.252.369.35.908.342 1.278 0z" fill="#ff9780"/><path d="m743.99 370.506c-.092.532.299.919.829.829 1.314-.221 2.465-.729 3.183-1.885.677-1.09-.433-2.098-1.496-1.943-1.528.223-2.271 1.584-2.516 2.999z" fill="#ff9780"/><path d="m732.289 572.584c.547 1.4 1.246 2.168 2.441 3.066 1.188.897 2.332.545 3.598.356.458-.067.64-.603.563-.991-.154-.788-.011-1.391-.438-2.176-.664-1.225-1.501-2.203-2.703-2.916-1.649-.978-4.243.663-3.461 2.661z" fill="#ff9780"/><path d="m449.282 212.192c-.004-.006-.008-.014-.012-.021-.044-.528-.217-1.049-.572-1.408-.889-.896-1.629-1.181-2.884-.933-.854.169-1.275.998-1.354 1.775-.011.119-.022.236-.035.356-.076.781.49 1.573 1.123 1.958.163.097.325.195.485.294.836.504 1.985.355 2.664-.344-.062.074-.125.148-.188.221.806-.184 1.2-1.204.773-1.898z" fill="#ff9780"/><path d="m418.014 225.211c.177-.138.173-.489 0-.629-.963-.768-1.664-1.613-2.845-2.062-1.52-.578-2.664 1.337-1.98 2.575 1.205 2.187 3.293 1.311 4.825.116z" fill="#ff9780"/><path d="m474.895 202.319c.165-.056.27-.251.167-.411-.704-1.111-1.013-2.01-2.294-2.528-1.229-.495-2.555 1.23-1.761 2.29 1.093 1.462 2.326 1.184 3.888.649z" fill="#ff9780"/><path d="m478.68 249.506c.683.88 1.579 1.335 2.67 1.516 1.988.334 3.62-1.487 2.614-3.397-.391-.743-.842-1.374-1.426-1.977-2.521-2.599-5.955 1.165-3.858 3.858z" fill="#ff9780"/><path d="m534.513 288.002c-.03.363.338.707.691.69 1.387-.063 2.357-.158 3.646-.8 1.318-.658 1.713-1.629 2.334-2.841.158-.307.08-.67-.224-.854-3.226-1.968-6.163.388-6.447 3.805z" fill="#ff9780"/><path d="m535.91 199.569c-.638-.342-1.515-.437-2.144 0-1.459 1.01-2.469 2.59-2.188 4.437.078.519.576 2.699 1.573 2.296 1.862-.753 5.684-5.171 2.759-6.733z" fill="#ff9780"/><path d="m528.643 264.384c.24.771 1.22 1.298 1.956.796 1.687-1.156 5.035-3.575 3.226-5.856-1.138-1.436-3.291-.339-4.233.661-1.159 1.227-1.431 2.844-.949 4.399z" fill="#ff9780"/><path d="m482.453 229.266c1.48-1.238.979-4.324.032-5.723-.954-1.411-2.925-1.136-3.49.457-.515 1.445-.084 3.554 1.129 4.619.596.526 1.537 1.307 2.329.647z" fill="#ff9780"/><path d="m534.888 228.18c-1.327-.611-2.755.119-2.843 1.633-.107 1.811.997 3.215 2.088 4.559.432.532 1.997 1.503 2.672.831 1.956-1.953.273-6.014-1.917-7.023z" fill="#ff9780"/><path d="m510.348 220.49c1.019-.703 1.424-1.555 1.73-2.744.448-1.731-.35-2.853-.768-4.435-.103-.396-.549-.539-.893-.364-1.592.817-2.758 1.582-3.032 3.506-.234 1.631.223 3.059 1.541 4.037.371.277 1.05.26 1.422 0z" fill="#ff9780"/><g fill="#68182b"><path d="m779.595 622.107c-1.648-1.262-3.09-1.088-2.101 1.529.989 2.629 2.036 6.003 1.115 8.07-1.243 2.779-3.995 3.719-6.76 4.479-2.678.74-1.874 1.678-.006 2.26 3.886 1.218 8.919-.98 10.964-4.285 2.812-4.541.475-9.234-3.212-12.053z"/><path d="m826.104 630.148c.478 2.766.873 6.277-.421 8.135-1.742 2.494-4.622 2.9-7.481 3.127-2.769.224-2.155 1.295-.43 2.219 3.587 1.928 8.943.711 11.572-2.147 3.616-3.933 2.203-8.983-.891-12.442-1.38-1.55-2.828-1.651-2.349 1.108z"/><path d="m826.077 658.232c.478 2.768.872 6.279-.422 8.137-1.742 2.494-4.622 2.9-7.48 3.126-2.769.224-2.156 1.296-.431 2.22 3.588 1.928 8.944.711 11.573-2.148 3.615-3.932 2.202-8.982-.892-12.441-1.379-1.55-2.827-1.651-2.348 1.106z"/><path d="m796.276 653.287c-.134 2.805-.511 6.318-2.177 7.851-2.242 2.058-5.14 1.829-7.98 1.43-2.75-.383-2.384.798-.901 2.073 3.086 2.66 8.578 2.635 11.764.414 4.384-3.055 4.098-8.293 1.829-12.34-1.013-1.813-2.406-2.225-2.535.572z"/><path d="m770.215 673.652c-1.121 2.575-2.72 5.727-4.819 6.568-2.826 1.129-5.455-.113-7.971-1.494-2.436-1.332-2.512-.102-1.578 1.619 1.942 3.58 7.086 5.506 10.853 4.559 5.182-1.301 6.771-6.299 6.087-10.889-.304-2.054-1.46-2.932-2.572-.363z"/><path d="m741.779 696.295c-1.121 2.576-2.719 5.727-4.819 6.568-2.826 1.129-5.455-.113-7.971-1.494-2.436-1.332-2.512-.1-1.578 1.619 1.942 3.582 7.087 5.506 10.853 4.559 5.182-1.301 6.771-6.299 6.087-10.888-.303-2.055-1.458-2.932-2.572-.364z"/><path d="m695.621 696.182c-1.968 2.004-4.589 4.373-6.85 4.408-3.044.043-5.054-2.059-6.909-4.248-1.798-2.113-2.308-.99-2.053.949.533 4.037 4.646 7.676 8.504 8.139 5.303.641 8.577-3.457 9.579-7.988.453-2.028-.312-3.262-2.271-1.26z"/><path d="m762.797 609.412c2.813-4.543.476-9.236-3.213-12.055-1.647-1.26-3.089-1.088-2.1 1.531.989 2.629 2.036 6.002 1.114 8.068-1.242 2.779-3.994 3.72-6.759 4.479-2.678.74-1.874 1.678-.006 2.261 3.887 1.218 8.92-.981 10.964-4.284z"/><path d="m772.206 581.984c-2.136 1.777-1.017 2.299.926 2.061 4.041-.491 7.722-4.57 8.224-8.42.688-5.299-3.376-8.613-7.897-9.66-2.02-.469-3.262.281-1.281 2.26 1.985 1.988 4.328 4.629 4.341 6.894.012 3.043-2.108 5.033-4.313 6.865z"/><path d="m799.444 559.824c-2.169 1.738-1.058 2.281.886 2.078 4.053-.416 7.807-4.424 8.38-8.268.788-5.283-3.213-8.672-7.715-9.803-2.012-.508-3.269.221-1.325 2.236 1.948 2.023 4.244 4.708 4.213 6.971-.043 3.046-2.199 4.995-4.439 6.786z"/><path d="m788.205 507.634c-1.903.825-2.454 2.171.316 2.58 2.779.413 6.234 1.138 7.592 2.949 1.825 2.438 1.307 5.298.628 8.083-.656 2.701.553 2.453 1.971 1.105 2.955-2.805 3.48-8.269 1.59-11.663-2.603-4.667-7.839-4.907-12.097-3.054z"/><path d="m759.862 548.067c3.602-1.901 5.584-7.022 4.68-10.802-1.245-5.195-6.223-6.841-10.822-6.207-2.055.281-2.947 1.428-.391 2.568 2.563 1.15 5.695 2.781 6.513 4.891 1.098 2.84-.171 5.455-1.58 7.953-1.36 2.425-.128 2.512 1.6 1.597z"/><path d="m737.756 582.178c-2.678.74-1.874 1.678-.006 2.26 3.886 1.219 8.919-.98 10.963-4.283 2.813-4.543.476-9.236-3.213-12.055-1.647-1.261-3.089-1.088-2.1 1.531.989 2.629 2.036 6.002 1.114 8.068-1.242 2.78-3.993 3.719-6.758 4.479z"/><path d="m686.46 580.91c1.979-.627 2.661-1.908-.052-2.598-2.721-.695-6.086-1.77-7.253-3.709-1.565-2.609-.759-5.405.202-8.104.928-2.621-.303-2.5-1.85-1.303-3.223 2.489-4.305 7.875-2.769 11.443 2.114 4.908 7.299 5.681 11.722 4.271z"/><path d="m713.321 543.268c-3.544 2.008-5.375 7.186-4.358 10.936 1.396 5.156 6.422 6.656 10.998 5.887 2.047-.344 2.905-1.514.317-2.579-2.596-1.073-5.776-2.612-6.656-4.698-1.181-2.805.012-5.457 1.345-7.995 1.29-2.464.055-2.517-1.646-1.551z"/><path d="m684.473 527.957c2.705-.637 1.939-1.605.095-2.26-3.836-1.367-8.95.635-11.122 3.855-2.986 4.428-.835 9.211 2.74 12.169 1.598 1.325 3.044 1.208 2.159-1.446-.886-2.666-1.802-6.078-.8-8.108 1.35-2.728 4.137-3.561 6.928-4.21z"/><path d="m721.818 632.652c3.886 1.219 8.919-.98 10.964-4.283 2.812-4.543.476-9.236-3.213-12.055-1.647-1.261-3.09-1.088-2.101 1.531.99 2.629 2.037 6.002 1.115 8.068-1.242 2.779-3.994 3.719-6.759 4.479-2.678.741-1.873 1.678-.006 2.26z"/><path d="m796.476 685.313c-.751 2.707-1.893 6.053-3.854 7.18-2.642 1.512-5.418.652-8.101-.365-2.6-.979-2.501.254-1.337 1.823 2.423 3.274 7.785 4.464 11.386 2.997 4.946-2.014 5.823-7.184 4.502-11.633-.589-1.989-1.854-2.699-2.596-.002z"/><path d="m711.144 598.625c5.043 1.756 9.118-1.545 11.068-5.758.872-1.881.389-3.252-1.952-1.715-2.352 1.537-5.416 3.291-7.634 2.84-2.982-.608-4.498-3.092-5.842-5.623-1.304-2.454-2.044-1.465-2.207.485-.343 4.056 2.897 8.492 6.567 9.771z"/><path d="m691.779 624.383c5.216-1.15 6.954-6.098 6.403-10.707-.243-2.059-1.372-2.973-2.562-.438-1.194 2.539-2.884 5.641-5.008 6.424-2.859 1.045-5.451-.273-7.922-1.727-2.398-1.404-2.512-.175-1.627 1.57 1.836 3.638 6.921 5.712 10.716 4.878z"/><path d="m708.773 644.832c-.911-1.863-2.279-2.355-2.563.43-.29 2.793-.862 6.28-2.61 7.719-2.354 1.932-5.235 1.54-8.047.984-2.728-.535-2.428.664-1.017 2.02 2.932 2.824 8.417 3.109 11.723 1.066 4.547-2.807 4.554-8.049 2.514-12.219z"/><path d="m746.554 647.613c-1.647-1.262-3.09-1.088-2.101 1.53.989 2.629 2.037 6.003 1.115 8.069-1.242 2.779-3.995 3.719-6.759 4.479-2.679.74-1.874 1.678-.007 2.26 3.886 1.219 8.919-.98 10.964-4.284 2.812-4.542.475-9.235-3.212-12.054z"/><path d="m722.701 672.51c-.938 2.648-2.314 5.9-4.353 6.885-2.742 1.323-5.451.266-8.053-.938-2.524-1.162-2.516.074-1.463 1.725 2.183 3.437 7.448 5.002 11.141 3.797 5.079-1.656 6.321-6.752 5.319-11.283-.443-2.026-1.657-2.825-2.591-.186z"/><path d="m806.22 594.586c-1.989-.594-3.275.082-1.418 2.178 1.86 2.104 4.04 4.883 3.915 7.144-.173 3.038-2.409 4.897-4.723 6.591-2.24 1.645-1.154 2.236.798 2.114 4.064-.245 7.985-4.091 8.722-7.907 1.009-5.245-2.845-8.8-7.294-10.12z"/><path d="m851.505 605.643c-1.988-.592-3.274.083-1.417 2.18 1.859 2.104 4.04 4.883 3.914 7.143-.173 3.039-2.408 4.898-4.723 6.592-2.239 1.645-1.153 2.234.799 2.113 4.064-.244 7.984-4.091 8.721-7.906 1.011-5.247-2.845-8.801-7.294-10.122z"/><path d="m833.367 569.379c-2.043.373-2.884 1.555-.278 2.584 2.61 1.037 5.812 2.527 6.723 4.602 1.22 2.787.065 5.457-1.232 8.014-1.253 2.48-.017 2.516 1.668 1.523 3.516-2.057 5.272-7.26 4.203-10.996-1.472-5.134-6.517-6.561-11.084-5.727z"/><path d="m836.701 549.229c2.813-2.948 3.063-8.434 1.004-11.729-2.832-4.529-8.075-4.506-12.234-2.443-1.859.922-2.341 2.292.446 2.561 2.795.276 6.284.826 7.731 2.566 1.942 2.342 1.57 5.227 1.029 8.042-.518 2.729.679 2.422 2.024 1.003z"/><path d="m853.025 492.886c2.812-2.947 3.063-8.434 1.004-11.729-2.833-4.529-8.076-4.507-12.235-2.443-1.859.921-2.341 2.291.446 2.561 2.796.275 6.284.825 7.732 2.565 1.941 2.343 1.569 5.227 1.028 8.042-.518 2.729.68 2.424 2.025 1.004z"/><path d="m844.427 443.869c-1.859.921-2.34 2.291.447 2.561 2.795.275 6.283.825 7.731 2.565 1.942 2.343 1.569 5.227 1.028 8.042-.518 2.729.679 2.424 2.024 1.004 2.812-2.947 3.063-8.434 1.004-11.729-2.832-4.529-8.075-4.506-12.234-2.443z"/><path d="m837.304 414.656c2.738-.621 6.223-1.201 8.146-.009 2.582 1.611 3.14 4.466 3.516 7.309.368 2.752 1.409 2.084 2.236.313 1.737-3.684.244-8.968-2.748-11.444-4.118-3.404-9.086-1.729-12.381 1.543-1.476 1.459-1.499 2.911 1.231 2.288z"/><path d="m876.756 482.671c3.993-.806 7.342-5.156 7.543-9.038.273-5.336-4.037-8.32-8.629-9.012-2.051-.311-3.229.537-1.101 2.355 2.134 1.826 4.678 4.274 4.869 6.531.249 3.031-1.709 5.184-3.767 7.183-1.985 1.938-.83 2.374 1.085 1.981z"/><path d="m868.502 516.286c.273-5.336-4.038-8.32-8.629-9.012-2.051-.311-3.229.537-1.101 2.355 2.133 1.826 4.678 4.273 4.869 6.53.248 3.031-1.71 5.184-3.767 7.183-1.987 1.938-.831 2.374 1.084 1.981 3.993-.805 7.342-5.157 7.544-9.037z"/><path d="m863.83 550.605c-2.051-.311-3.229.537-1.101 2.355 2.134 1.826 4.678 4.273 4.869 6.531.249 3.031-1.709 5.184-3.767 7.182-1.986 1.938-.83 2.375 1.084 1.981 3.993-.806 7.342-5.157 7.543-9.038.274-5.335-4.036-8.319-8.628-9.011z"/><path d="m629.717 452.837c-3.655-1.798-8.964-.396-11.492 2.555-3.474 4.059-1.882 9.055 1.331 12.405 1.436 1.498 2.886 1.545 2.31-1.194-.573-2.748-1.094-6.241.132-8.144 1.654-2.555 4.52-3.063 7.368-3.39 2.755-.323 2.106-1.372.351-2.232z"/><path d="m626.954 432.613c.745 1.936 2.065 2.54 2.592-.21.535-2.756 1.405-6.179 3.271-7.458 2.514-1.718 5.353-1.078 8.106-.278 2.666.768 2.473-.45 1.188-1.923-2.677-3.071-8.113-3.83-11.587-2.086-4.773 2.399-5.238 7.623-3.57 11.955z"/><path d="m655.916 412.604c.745 1.936 2.065 2.54 2.592-.21.535-2.757 1.405-6.179 3.271-7.459 2.514-1.717 5.353-1.077 8.106-.277 2.666.768 2.473-.45 1.188-1.923-2.677-3.071-8.113-3.83-11.587-2.086-4.773 2.398-5.238 7.622-3.57 11.955z"/><path d="m684.79 376.621c1.854-2.106 4.338-4.618 6.594-4.778 3.036-.21 5.161 1.777 7.134 3.861 1.911 2.012 2.359.861 1.995-1.058-.755-4.003-5.06-7.409-8.939-7.662-5.329-.346-8.374 3.927-9.127 8.508-.336 2.046.497 3.236 2.343 1.129z"/><path d="m741.084 364.617c2.536-1.206 5.807-2.534 7.944-1.792 2.873 1.004 4.044 3.667 5.035 6.36.963 2.602 1.829 1.722 2.25-.186.885-3.976-1.729-8.804-5.195-10.566-4.762-2.417-9.244.309-11.741 4.223-1.115 1.749-.818 3.17 1.707 1.961z"/><path d="m652.612 386.484c-.432-2.775-.771-6.288.55-8.125 1.783-2.469 4.669-2.828 7.532-3.012 2.769-.179 2.172-1.261.465-2.209-3.557-1.982-8.931-.854-11.609 1.965-3.676 3.873-2.343 8.947.695 12.456 1.358 1.568 2.804 1.692 2.367-1.075z"/><path d="m619.965 402.281c-.432-2.774-.771-6.288.549-8.125 1.784-2.468 4.67-2.828 7.533-3.011 2.769-.18 2.172-1.262.465-2.21-3.557-1.982-8.932-.854-11.609 1.965-3.676 3.873-2.343 8.947.695 12.457 1.357 1.568 2.803 1.691 2.367-1.076z"/><path d="m606.858 429.308c-4.067.208-8.022 4.018-8.798 7.827-1.06 5.234 2.765 8.828 7.201 10.188 1.983.609 3.274-.056 1.436-2.168-1.839-2.123-3.99-4.92-3.846-7.177.201-3.038 2.455-4.875 4.784-6.551 2.253-1.621 1.173-2.222-.777-2.119z"/><path d="m598.99 406.522c2.763-.246 2.14-1.312.409-2.219-3.604-1.895-8.947-.632-11.558 2.25-3.579 3.964-2.121 9.003 1.002 12.437 1.396 1.534 2.847 1.621 2.341-1.134-.5-2.765-.926-6.268.35-8.135 1.722-2.511 4.597-2.943 7.456-3.199z"/><path d="m575.21 430.875c-4.066.229-8 4.061-8.755 7.874-1.03 5.241 2.813 8.813 7.255 10.151 1.987.597 3.275-.074 1.426-2.177-1.852-2.114-4.02-4.899-3.886-7.156.186-3.04 2.43-4.889 4.75-6.578 2.242-1.633 1.16-2.225-.79-2.114z"/><path d="m601.012 459.837c-4.066.229-7.999 4.061-8.754 7.874-1.03 5.241 2.812 8.812 7.255 10.151 1.987.596 3.274-.074 1.426-2.177-1.852-2.114-4.02-4.899-3.886-7.156.185-3.04 2.429-4.889 4.749-6.578 2.242-1.633 1.16-2.225-.79-2.114z"/><path d="m654.283 523.137c1.987.598 3.274-.074 1.425-2.176-1.851-2.115-4.019-4.899-3.885-7.156.185-3.04 2.429-4.889 4.749-6.578 2.242-1.633 1.16-2.226-.79-2.114-4.066.229-7.999 4.061-8.754 7.874-1.03 5.24 2.812 8.812 7.255 10.15z"/><path d="m660.787 560.641c-2.577-1.123-5.725-2.717-6.565-4.814-1.13-2.828.11-5.457 1.489-7.975 1.332-2.434.101-2.508-1.615-1.576-3.581 1.939-5.504 7.084-4.561 10.855 1.303 5.181 6.301 6.771 10.89 6.088 2.053-.309 2.931-1.463.362-2.578z"/><path d="m634.984 520.096c-2.577-1.124-5.725-2.719-6.565-4.815-1.129-2.829.111-5.457 1.489-7.976 1.333-2.433.101-2.507-1.614-1.575-3.582 1.939-5.505 7.084-4.561 10.854 1.302 5.182 6.3 6.771 10.89 6.088 2.053-.309 2.931-1.463.361-2.576z"/><path d="m675.225 603.313c1.597-1.326 1.751-2.768-1.024-2.393-2.787.373-6.305.639-8.11-.721-2.432-1.836-2.729-4.728-2.855-7.596-.119-2.77-1.211-2.195-2.196-.512-2.059 3.514-1.043 8.911 1.718 11.648 3.793 3.759 8.894 2.534 12.467-.426z"/><path d="m669.437 642.759c5.249.979 8.783-2.899 10.077-7.355.578-1.993-.105-3.272-2.19-1.405-2.097 1.875-4.858 4.068-7.117 3.957-3.042-.154-4.912-2.379-6.626-4.682-1.653-2.227-2.235-1.139-2.106.809.268 4.063 4.139 7.96 7.962 8.676z"/><path d="m678.902 665.594c-2.096 1.873-4.858 4.068-7.117 3.957-3.042-.154-4.911-2.381-6.625-4.682-1.653-2.229-2.236-1.14-2.106.809.27 4.064 4.141 7.96 7.963 8.676 5.249.979 8.783-2.9 10.077-7.355.577-1.995-.106-3.274-2.192-1.405z"/><path d="m876.995 521.645c-2.051-.311-3.229.536-1.101 2.354 2.133 1.827 4.678 4.274 4.869 6.53.248 3.033-1.71 5.184-3.767 7.184-1.987 1.938-.831 2.373 1.084 1.98 3.992-.807 7.341-5.156 7.543-9.038.274-5.335-4.037-8.32-8.628-9.01z"/><path d="m825.438 499.17c2.857 1.047 3.984 3.728 4.933 6.435.926 2.618 1.806 1.752 2.254-.15.948-3.962-1.594-8.831-5.031-10.643-4.725-2.491-9.245.166-11.803 4.039-1.144 1.732-.87 3.16 1.675 1.989 2.554-1.166 5.845-2.445 7.972-1.67z"/><path d="m727.938 438.881c-.292 1.934.199 3.069 2.036.985 1.893-2.156 3.941-4.217 6.983-4.118 2.261.074 4.838 2.493 6.77 4.533 1.921 2.034 2.707.813 2.293-1.218-.919-4.552-4.118-8.705-9.431-8.166-3.864.394-8.046 3.957-8.651 7.984z"/><path d="m750.369 385.851c-3.721 1.113-7.158 5.396-6.996 9.466.076 1.956.771 2.975 2.185.584 1.455-2.47 3.08-4.885 6.085-5.357 2.238-.353 5.221 1.538 7.499 3.18 2.273 1.638 2.814.292 2.024-1.627-1.757-4.296-5.679-7.779-10.797-6.246z"/><path d="m720.293 383.636c1.454-2.473 3.079-4.884 6.084-5.358 2.236-.353 5.221 1.54 7.5 3.18 2.269 1.638 2.813.292 2.025-1.627-1.759-4.297-5.681-7.775-10.801-6.247-3.719 1.115-7.158 5.399-6.993 9.468.077 1.953.771 2.975 2.185.584z"/><path d="m712.494 415.491c.885-2.729 1.948-5.437 4.778-6.552 2.106-.826 5.431.371 8.013 1.479 2.568 1.106 2.812-.325 1.622-2.028-2.646-3.812-7.229-6.36-11.895-3.756-3.393 1.893-5.817 6.82-4.776 10.758.497 1.893 1.401 2.741 2.258.099z"/><path d="m685.411 434.222c-.143-2.867-.109-5.773 2.143-7.82 1.675-1.521 5.209-1.58 8.017-1.458 2.795.121 2.512-1.301.796-2.473-3.826-2.623-9.016-3.382-12.453.709-2.501 2.971-3.021 8.44-.649 11.752 1.135 1.591 2.277 2.062 2.146-.71z"/><path d="m662.766 440.603c2.798.123 2.514-1.302.796-2.471-3.823-2.627-9.013-3.382-12.45.708-2.501 2.972-3.02 8.439-.65 11.753 1.138 1.593 2.277 2.063 2.146-.709-.14-2.868-.106-5.774 2.144-7.821 1.677-1.522 5.208-1.58 8.014-1.46z"/><path d="m642.531 479.563c-4.513-1.082-9.628.069-11.372 5.119-1.271 3.67.199 8.96 3.598 11.206 1.633 1.078 2.865 1.111 1.748-1.432-1.154-2.626-2.164-5.352-.794-8.069 1.021-2.02 4.297-3.336 6.961-4.23 2.655-.886 1.88-2.115-.141-2.594z"/><path d="m743.473 468.688c1.895-2.154 3.94-4.22 6.983-4.12 2.262.078 4.838 2.492 6.769 4.533 1.922 2.034 2.709.816 2.296-1.22-.922-4.546-4.12-8.703-9.434-8.162-3.864.393-8.044 3.958-8.649 7.985-.294 1.935.198 3.066 2.035.984z"/><path d="m788.589 457.817c-3.682-1.234-8.96.29-11.169 3.71-1.065 1.64-1.086 2.876 1.446 1.734 2.614-1.181 5.329-2.218 8.062-.872 2.03 1 3.379 4.264 4.299 6.92.911 2.645 2.131 1.857 2.594-.165 1.035-4.523-.166-9.625-5.232-11.327z"/><path d="m809.23 446.759c-1.032 1.658-1.03 2.895 1.481 1.707 2.59-1.229 5.286-2.315 8.043-1.022 2.046.963 3.457 4.201 4.424 6.838.963 2.631 2.168 1.818 2.592-.212.952-4.544-.344-9.625-5.44-11.229-3.707-1.165-8.954.456-11.1 3.918z"/><path d="m763.62 494.153c1.891-2.154 3.941-4.217 6.983-4.116 2.261.072 4.836 2.491 6.768 4.531 1.923 2.034 2.707.814 2.295-1.218-.919-4.552-4.118-8.705-9.433-8.164-3.865.394-8.045 3.956-8.649 7.983-.295 1.935.197 3.069 2.036.984z"/><path d="m727.046 487.797c1.921 2.034 2.709.813 2.295-1.218-.921-4.552-4.118-8.705-9.433-8.166-3.863.396-8.043 3.958-8.647 7.985-.297 1.934.195 3.066 2.034.983 1.891-2.154 3.941-4.217 6.983-4.118 2.263.077 4.838 2.494 6.768 4.534z"/><path d="m685.218 403.993c.257-2.855.699-5.729 3.215-7.444 1.872-1.271 5.379-.833 8.142-.323 2.748.513 2.663-.936 1.135-2.334-3.425-3.138-8.456-4.61-12.43-1.041-2.895 2.594-4.172 7.936-2.287 11.548.902 1.733 1.965 2.361 2.225-.406z"/><path d="m752.072 508.438c-2.956-3.577-7.734-5.739-12.167-2.759-3.225 2.169-5.23 7.282-3.871 11.116.654 1.845 1.619 2.612 2.259-.091.656-2.789 1.493-5.576 4.221-6.921 2.032-1 5.442-.081 8.106.81 2.653.891 2.773-.554 1.452-2.155z"/><path d="m705.551 517.028c-2.411 3.046-2.77 8.528-.303 11.767 1.183 1.561 2.339 1.996 2.123-.775-.225-2.856-.276-5.764 1.915-7.877 1.633-1.568 5.16-1.73 7.969-1.693 2.797.041 2.472-1.374.726-2.492-3.905-2.517-9.113-3.115-12.43 1.07z"/><path d="m680.602 500.69c.732-2.771 1.642-5.533 4.408-6.807 2.059-.94 5.442.069 8.08 1.032 2.631.963 2.784-.483 1.51-2.116-2.857-3.657-7.574-5.947-12.087-3.088-3.283 2.08-5.427 7.136-4.172 11.007.6 1.864 1.549 2.658 2.261-.028z"/><path d="m690.547 457.431c-.294 1.934.197 3.068 2.034.985 1.893-2.154 3.943-4.217 6.985-4.118 2.261.074 4.838 2.493 6.77 4.533 1.919 2.034 2.707.813 2.292-1.22-.92-4.55-4.116-8.703-9.432-8.164-3.865.393-8.045 3.955-8.649 7.984z"/><path d="m664.301 465.599c-2.699 2.793-3.596 8.213-1.461 11.679 1.022 1.671 2.131 2.218 2.19-.559.056-2.868.29-5.766 2.681-7.652 1.777-1.402 5.305-1.216 8.094-.901 2.783.315 2.596-1.127.967-2.412-3.635-2.883-8.761-3.996-12.471-.155z"/><path d="m767.138 422.201c2.536-1.339 5.186-2.536 7.993-1.362 2.088.875 3.631 4.053 4.71 6.645 1.072 2.588 2.24 1.728 2.58-.321.759-4.578-.751-9.6-5.91-10.986-3.752-1.008-8.927.836-10.924 4.384-.965 1.7-.909 2.936 1.551 1.64z"/><path d="m777.009 376.642c2.534-1.339 5.186-2.536 7.993-1.361 2.086.876 3.633 4.052 4.711 6.646 1.071 2.588 2.241 1.726 2.579-.323.757-4.578-.751-9.598-5.91-10.985-3.752-1.006-8.927.835-10.924 4.383-.965 1.699-.909 2.934 1.551 1.64z"/><path d="m805.578 402.444c2.865-.048 5.771.082 7.744 2.398 1.465 1.726 1.407 5.257 1.197 8.057-.216 2.793 1.216 2.555 2.443.881 2.748-3.74 3.674-8.9-.301-12.47-2.892-2.596-8.339-3.295-11.727-1.032-1.625 1.08-2.137 2.207.644 2.166z"/><path d="m578.544 346.395c-1.882-.437-3.038.263-1.192 2.108 1.849 1.851 4.033 4.312 4.044 6.422.014 2.836-1.963 4.689-4.018 6.398-1.989 1.656-.946 2.144.861 1.92 3.767-.457 7.195-4.259 7.665-7.848.642-4.936-3.145-8.024-7.36-9z"/><path d="m602.099 334.896c-1.874-.473-3.045.204-1.234 2.084 1.816 1.887 3.953 4.388 3.927 6.496-.041 2.836-2.051 4.652-4.137 6.323-2.022 1.618-.985 2.124.825 1.936 3.776-.387 7.275-4.122 7.81-7.703.731-4.926-2.996-8.083-7.191-9.136z"/><path d="m579.299 315.209c-1.772.77-2.287 2.021.294 2.402 2.59.387 5.812 1.062 7.076 2.75 1.699 2.271 1.218 4.937.584 7.533-.61 2.516.517 2.285 1.837 1.028 2.755-2.612 3.244-7.706 1.481-10.867-2.425-4.35-7.304-4.574-11.272-2.846z"/><path d="m542.587 340.133c2.388 1.071 5.309 2.592 6.069 4.557 1.022 2.646-.16 5.082-1.473 7.411-1.267 2.258-.119 2.341 1.491 1.486 3.357-1.771 5.204-6.543 4.361-10.064-1.16-4.842-5.799-6.374-10.085-5.784-1.914.263-2.745 1.33-.363 2.394z"/><path d="m562.323 364.181c-1.537-1.175-2.88-1.014-1.958 1.426.921 2.449 1.898 5.593 1.038 7.52-1.158 2.59-3.721 3.464-6.298 4.172-2.495.691-1.746 1.565-.007 2.106 3.623 1.136 8.313-.913 10.218-3.993 2.621-4.231.442-8.606-2.993-11.231z"/><path d="m618.938 325.316c-1.732.86-2.181 2.136.418 2.389 2.604.255 5.854.767 7.203 2.39 1.81 2.183 1.462 4.869.958 7.494-.483 2.544.634 2.258 1.887.936 2.62-2.746 2.855-7.859.936-10.931-2.639-4.219-7.525-4.198-11.402-2.278z"/><path d="m623.271 280.184c-1.734.859-2.183 2.135.415 2.386 2.604.257 5.856.77 7.206 2.39 1.808 2.185 1.462 4.871.958 7.496-.483 2.542.632 2.256 1.885.936 2.62-2.748 2.854-7.859.936-10.931-2.64-4.222-7.525-4.201-11.4-2.277z"/><path d="m642.99 268.004c2.604.255 5.854.768 7.203 2.391 1.811 2.182 1.463 4.868.959 7.493-.483 2.544.634 2.259 1.886.936 2.621-2.746 2.855-7.859.937-10.931-2.64-4.219-7.524-4.198-11.401-2.276-1.733.859-2.181 2.134.416 2.387z"/><path d="m620.138 235.587c2.553-.578 5.799-1.119 7.59-.009 2.407 1.502 2.925 4.163 3.277 6.811.343 2.565 1.312 1.941 2.083.292 1.619-3.433.229-8.357-2.561-10.665-3.838-3.172-8.467-1.61-11.537 1.438-1.374 1.361-1.394 2.715 1.148 2.133z"/><path d="m659.099 293.898c1.986 1.701 4.358 3.982 4.537 6.085.232 2.826-1.594 4.832-3.509 6.693-1.854 1.806-.775 2.213 1.01 1.847 3.719-.75 6.84-4.805 7.028-8.423.256-4.972-3.762-7.753-8.04-8.396-1.911-.29-3.01.5-1.026 2.194z"/><path d="m439.035 227.486c-4.447 2.235-4.882 7.104-3.326 11.141.692 1.804 1.925 2.367 2.414-.195.498-2.567 1.311-5.758 3.049-6.951 2.343-1.6 4.986-1.004 7.553-.257 2.485.714 2.304-.422 1.107-1.794-2.494-2.862-7.56-3.569-10.797-1.944z"/><path d="m470.419 226.302c.693 1.804 1.923 2.367 2.415-.195.497-2.569 1.308-5.758 3.046-6.951 2.343-1.6 4.988-1.004 7.555-.259 2.483.716 2.305-.42 1.105-1.792-2.493-2.861-7.56-3.568-10.797-1.943-4.447 2.234-4.879 7.104-3.324 11.14z"/><path d="m494.516 194.877c1.728-1.962 4.042-4.303 6.146-4.451 2.828-.195 4.809 1.656 6.646 3.598 1.781 1.874 2.199.803 1.859-.985-.703-3.73-4.714-6.904-8.33-7.14-4.965-.322-7.801 3.657-8.503 7.928-.313 1.906.462 3.013 2.182 1.05z"/><path d="m465.234 204.771c-.403-2.588-.718-5.86.512-7.571 1.662-2.302 4.351-2.638 7.019-2.809 2.579-.166 2.024-1.174.434-2.057-3.313-1.849-8.322-.796-10.819 1.831-3.425 3.607-2.183 8.337.648 11.607 1.264 1.461 2.613 1.577 2.206-1.001z"/><path d="m437.971 214.577c-.403-2.586-.721-5.86.51-7.572 1.662-2.3 4.353-2.635 7.021-2.806 2.579-.166 2.023-1.174.432-2.059-3.313-1.848-8.322-.794-10.817 1.831-3.425 3.609-2.183 8.339.648 11.609 1.264 1.461 2.611 1.576 2.206-1.003z"/><path d="m407.29 226.984c-.465-2.575-.862-5.84.325-7.58 1.604-2.341 4.284-2.744 6.948-2.98 2.575-.23 1.995-1.224.383-2.069-3.359-1.765-8.339-.588-10.771 2.099-3.337 3.691-1.977 8.388.934 11.589 1.3 1.428 2.651 1.509 2.181-1.059z"/><path d="m648.723 319.263c1.987 1.701 4.359 3.982 4.538 6.085.23 2.826-1.594 4.832-3.512 6.693-1.851 1.806-.772 2.213 1.011 1.847 3.721-.75 6.841-4.805 7.03-8.423.253-4.972-3.764-7.753-8.043-8.396-1.91-.291-3.009.499-1.024 2.194z"/><path d="m619.299 309.406c.884-3.692-1.485-8.228-4.688-9.917-4.401-2.322-8.616.154-10.998 3.765-1.065 1.614-.811 2.943 1.562 1.854 2.38-1.086 5.446-2.279 7.427-1.558 2.664.978 3.713 3.475 4.598 5.996.861 2.439 1.681 1.634 2.099-.14z"/><path d="m525.387 256.621c1.763-2.01 3.672-3.929 6.508-3.839 2.106.07 4.507 2.324 6.307 4.226 1.792 1.896 2.524.757 2.138-1.134-.856-4.243-3.837-8.112-8.788-7.61-3.602.366-7.499 3.686-8.061 7.439-.274 1.802.184 2.86 1.896.918z"/><path d="m553.343 209.827c1.355-2.304 2.869-4.554 5.669-4.994 2.085-.327 4.864 1.434 6.989 2.964 2.116 1.524 2.622.271 1.886-1.516-1.637-4.003-5.292-7.249-10.063-5.819-3.466 1.037-6.668 5.027-6.519 8.82.073 1.822.721 2.771 2.038.545z"/><path d="m527.6 199.658c1.355-2.305 2.869-4.551 5.669-4.995 2.084-.326 4.865 1.437 6.989 2.965 2.115 1.526 2.623.271 1.889-1.517-1.64-4.005-5.295-7.244-10.066-5.821-3.464 1.039-6.669 5.031-6.517 8.822.072 1.824.719 2.776 2.036.546z"/><path d="m527.353 231.452c.825-2.545 1.816-5.066 4.454-6.105 1.962-.771 5.06.344 7.464 1.379 2.395 1.03 2.621-.305 1.515-1.891-2.469-3.553-6.739-5.929-11.085-3.501-3.162 1.765-5.423 6.355-4.451 10.025.462 1.763 1.305 2.553 2.103.093z"/><path d="m492.636 244.69c-.132-2.672-.101-5.381 1.997-7.288 1.562-1.417 4.854-1.473 7.47-1.359 2.604.113 2.341-1.211.741-2.304-3.565-2.443-8.401-3.151-11.603.662-2.331 2.767-2.816 7.864-.604 10.949 1.059 1.486 2.122 1.924 1.999-.66z"/><path d="m461.564 250.915c-.13-2.672-.099-5.381 1.997-7.288 1.565-1.417 4.856-1.471 7.471-1.359 2.606.115 2.341-1.214.741-2.304-3.563-2.448-8.398-3.151-11.602.66-2.33 2.771-2.813 7.863-.606 10.953 1.061 1.484 2.122 1.921 1.999-.662z"/><path d="m547.518 276.271c1.765-2.005 3.671-3.931 6.508-3.838 2.108.072 4.507 2.322 6.307 4.223 1.792 1.896 2.523.762 2.139-1.135-.857-4.237-3.838-8.111-8.789-7.607-3.602.366-7.497 3.688-8.061 7.442-.275 1.801.184 2.855 1.896.915z"/><path d="m580.834 267.679c-.992 1.528-1.013 2.681 1.347 1.617 2.438-1.101 4.968-2.067 7.512-.813 1.893.932 3.149 3.974 4.008 6.448.849 2.464 1.984 1.73 2.416-.154.967-4.215-.154-8.97-4.875-10.556-3.431-1.15-8.349.272-10.408 3.458z"/><path d="m611.856 255.508c2.415-1.146 4.927-2.157 7.495-.952 1.907.896 3.222 3.914 4.122 6.37.897 2.452 2.021 1.695 2.415-.197.889-4.233-.318-8.968-5.068-10.464-3.455-1.084-8.345.426-10.344 3.653-.96 1.545-.96 2.696 1.38 1.59z"/><path d="m562.115 226.287c-.644 1.701-.422 2.83 1.662 1.292 2.147-1.591 4.416-3.069 7.171-2.382 2.042.51 3.916 3.217 5.273 5.452 1.354 2.232 2.311 1.273 2.333-.66.054-4.325-2.047-8.737-6.996-9.287-3.599-.394-8.104 2.03-9.443 5.585z"/><path d="m580.788 298.47c1.792 1.895 2.522.759 2.14-1.136-.858-4.241-3.839-8.11-8.792-7.606-3.602.366-7.495 3.686-8.059 7.438-.273 1.802.183 2.859 1.896.918 1.763-2.008 3.674-3.931 6.508-3.837 2.107.067 4.507 2.319 6.307 4.223z"/><path d="m507.25 285.241c-.275 1.802.184 2.859 1.896.917 1.761-2.007 3.672-3.929 6.507-3.838 2.108.072 4.509 2.324 6.307 4.225 1.789 1.896 2.523.758 2.139-1.135-.857-4.242-3.838-8.111-8.789-7.609-3.6.368-7.497 3.688-8.06 7.44z"/><path d="m501.644 207.192c-2.697 2.417-3.888 7.395-2.132 10.76.842 1.617 1.831 2.201 2.074-.378.238-2.66.651-5.338 2.994-6.937 1.745-1.185 5.013-.775 7.589-.3 2.561.477 2.48-.873 1.057-2.177-3.193-2.922-7.88-4.294-11.582-.968z"/><path d="m562.883 318.669c2.473.829 2.583-.519 1.354-2.01-2.755-3.332-7.208-5.349-11.338-2.569-3.006 2.02-4.875 6.784-3.608 10.356.611 1.72 1.51 2.436 2.104-.084.613-2.598 1.393-5.196 3.935-6.448 1.892-.932 5.069-.076 7.553.755z"/><path d="m539.487 299.794c-3.637-2.343-8.491-2.902-11.583 1-2.246 2.839-2.579 7.946-.282 10.966 1.103 1.452 2.181 1.859 1.979-.723-.21-2.663-.258-5.372 1.783-7.341 1.521-1.463 4.809-1.613 7.426-1.578 2.608.037 2.306-1.281.677-2.324z"/><path d="m489.139 268.29c1.763-2.006 3.674-3.929 6.509-3.836 2.108.067 4.508 2.322 6.308 4.225 1.789 1.895 2.521.757 2.135-1.138-.855-4.239-3.834-8.11-8.787-7.606-3.602.366-7.498 3.687-8.062 7.438-.273 1.802.186 2.858 1.897.917z"/><path d="m569.454 243.195c-.898 1.584-.847 2.735 1.446 1.528 2.363-1.247 4.832-2.363 7.448-1.27 1.946.814 3.384 3.776 4.39 6.191.998 2.413 2.088 1.61 2.404-.298.706-4.267-.701-8.946-5.508-10.237-3.494-.939-8.318.779-10.18 4.086z"/><path d="m596.16 214.758c2.67-.045 5.379.076 7.218 2.233 1.363 1.609 1.31 4.9 1.114 7.509-.201 2.604 1.134 2.382 2.277.82 2.561-3.484 3.423-8.294-.279-11.62-2.695-2.419-7.771-3.07-10.927-.96-1.515 1.006-1.995 2.055.597 2.018z"/><path d="m570.666 754.803c-.021 2.809-.255 6.334-1.855 7.932-2.157 2.147-5.063 2.037-7.917 1.754-2.763-.27-2.349.894-.816 2.109 3.192 2.529 8.678 2.283 11.771-.068 4.254-3.229 3.756-8.449 1.325-12.4-1.084-1.773-2.493-2.126-2.508.673z"/><path d="m624.57 605.748c-2.071-.123-3.168.831-.88 2.443 2.291 1.623 5.05 3.83 5.446 6.059.528 2.996-1.224 5.316-3.087 7.497-1.8 2.112-.611 2.438 1.263 1.876 3.899-1.172 6.835-5.814 6.675-9.697-.216-5.335-4.784-7.912-9.417-8.178z"/><path d="m619.498 559.145c-1.813-5.023-6.944-6.105-11.44-4.965-2.014.507-2.771 1.747-.105 2.597 2.674.858 5.97 2.132 7.019 4.136 1.407 2.699.434 5.439-.688 8.078-1.079 2.557.152 2.51 1.771 1.41 3.365-2.294 4.765-7.604 3.443-11.256z"/><path d="m543.852 772.719c-.855 2.674-2.129 5.969-4.132 7.018-2.699 1.41-5.439.439-8.08-.68-2.557-1.08-2.51.152-1.407 1.769 2.294 3.365 7.604 4.765 11.258 3.438 5.021-1.815 6.101-6.947 4.957-11.443-.509-2.014-1.749-2.772-2.596-.102z"/><path d="m410.616 791.523c-2.415 1.434-5.554 3.055-7.751 2.512-2.951-.738-4.358-3.281-5.593-5.871-1.197-2.505-1.979-1.551-2.228.391-.517 4.041 2.532 8.609 6.142 10.043 4.964 1.973 9.177-1.152 11.304-5.276.954-1.843.528-3.232-1.874-1.799z"/><path d="m352.632 772.844c-2.724.686-6.193 1.342-8.146.193-2.616-1.549-3.24-4.387-3.685-7.221-.432-2.744-1.452-2.051-2.246-.262-1.647 3.723-.03 8.973 3.02 11.377 4.194 3.307 9.123 1.516 12.34-1.828 1.441-1.494 1.43-2.946-1.283-2.259z"/><path d="m512.216 785.871c-.021 2.808-.255 6.334-1.855 7.932-2.157 2.146-5.063 2.036-7.917 1.754-2.763-.27-2.35.893-.816 2.109 3.192 2.529 8.678 2.283 11.771-.068 4.254-3.229 3.756-8.449 1.325-12.401-1.084-1.771-2.494-2.125-2.508.674z"/><path d="m597.769 724.412c-1.576-1.352-3.026-1.256-2.179 1.414.846 2.676 1.705 6.104.675 8.117-1.393 2.707-4.189 3.494-6.993 4.105-2.711.592-1.961 1.572-.128 2.256 3.815 1.426 8.96-.497 11.18-3.686 3.054-4.38.974-9.193-2.555-12.206z"/><path d="m614.969 689.633c-1.915-.801-3.265-.262-1.636 2.018 1.63 2.283 3.503 5.277 3.144 7.512-.49 3.006-2.909 4.616-5.388 6.063-2.396 1.398-1.38 2.1.574 2.186 4.07.18 8.372-3.234 9.499-6.951 1.555-5.111-1.907-9.051-6.193-10.828z"/><path d="m622.406 666.988c-1.915-.801-3.264-.262-1.635 2.018 1.629 2.283 3.503 5.277 3.143 7.512-.489 3.006-2.908 4.615-5.387 6.063-2.396 1.398-1.381 2.1.573 2.186 4.071.18 8.372-3.235 9.499-6.952 1.556-5.112-1.906-9.049-6.193-10.827z"/><path d="m485.92 794.488c-2.088 1.871-4.856 4.066-7.117 3.957-3.04-.154-4.91-2.378-6.621-4.682-1.656-2.227-2.24-1.138-2.11.813.275 4.066 4.145 7.963 7.964 8.668 5.252.979 8.781-2.898 10.071-7.355.584-1.994-.103-3.274-2.187-1.401z"/><path d="m437.475 794.488c-2.088 1.871-4.856 4.066-7.117 3.957-3.04-.154-4.91-2.378-6.621-4.682-1.656-2.227-2.24-1.138-2.11.813.275 4.066 4.145 7.963 7.964 8.668 5.252.979 8.781-2.898 10.071-7.355.584-1.994-.103-3.274-2.187-1.401z"/><path d="m508.756 750.824c27.742-10.295 49.003-27.404 65.703-51.99 21.279-31.326 26.24-71.508 14.045-107.205-.175-.51-.876-.298-.794.219 5.933 36.881 1.413 71.818-19.247 103.48-14.116 21.637-37.249 42.367-60.176 54.384-.606.319-.183 1.355.469 1.112z"/><path d="m281.287 535.569c29.486-31.115 64.959-50.952 105.277-64.979.627-.218.372-1.095-.271-.983-21.521 3.721-40.807 11.821-59.604 22.867-17.758 10.433-35.89 24.354-45.79 42.795-.13.243.188.51.388.3z"/></g></g></g></svg>