<svg id="Fruit" height="512" viewBox="0 0 992.13 992.13" width="512" xmlns="http://www.w3.org/2000/svg"><g><path d="m94.774 818.909h.301c19.638-.108 33.795-9.548 43.937-17.757l6.238-5.039c5.979-4.82 12.079-9.738 18.134-14.778 34.097 16.554 73.934 24.931 118.701 24.931 21.482 0 44.335-1.947 67.924-5.787 63.634-10.361 126.268-38.467 186.429-83.621 28.813 21.952 59.016 40.92 89.998 56.509 43.199 21.737 96.62 34.205 146.569 34.205 51.747 0 97.259-13.122 131.618-37.944 58.861-42.525 26.17-99.094 13.863-120.389-6.008-10.398-12.107-20.654-18.182-30.867-20.492-34.451-40.01-67.266-54.619-103.023 10.313 5.406 20.273 8.707 29.523 8.707 16.314 0 29.451-9.84 34.281-25.676 5.52-18.105-.381-37.453-4.691-51.58-.527-1.734-1.033-3.392-1.484-4.949-5.469-18.959-13.055-38.883-22.549-59.224-21.068-45.138-58.01-87.492-109.795-125.887-34.75-25.766-88.435-59.837-146.831-75.838-18.605-5.098-38.329-7.681-58.623-7.681-32.214 0-63.967 6.533-91.828 18.897-19.862 8.813-36.858 21.394-50.141 32.359-4.983.918-10.005 2.055-14.909 3.164-10.273 2.324-20.9 4.729-29.554 4.729-4.425 0-7.818-.608-10.373-1.865-7.893-3.882-15.497-9.614-23.55-15.683-9.941-7.491-21.177-15.958-34.717-22.059-1.234-.642-2.504-1.195-3.791-1.647-8.331-2.95-16.279-4.443-23.629-4.443-11.974 0-22.789 3.938-31.277 11.388-16.678 14.642-16.839 38.917-.42 60.382.125.164.253.327.381.487.382.519.822 1.08 1.332 1.676 16.847 19.574 36.886 34.855 56.266 49.635 20.734 15.813 40.463 30.858 54.791 49.905-2.953 7.089-5.44 14.372-7.439 21.804-88.727 13.606-172.868 62.13-227.795 132.086-40.657 51.779-72.96 132.262-39.88 198.438-4.7 5.762-9.067 11.721-13.355 17.572-3.482 4.752-6.771 9.24-9.938 13.205-.234.291-.456.578-.673.871-.354.436-.703.893-1.049 1.377-9.488 13.365-14.979 34.762-5.852 52.436 6.882 13.329 20.244 20.971 36.658 20.974z" fill="#fff"/><g><path d="m897.809 661.187c-29.775-51.524-61.813-99.53-81.566-156.159-7.377-21.14-16.694-41.638-26.883-61.616 6.336 4.71 12.591 9.511 18.665 14.497 10.077 8.246 69.54 63.285 78.62 33.504 3.938-12.909-2.77-30.797-6.275-42.941-5.502-19.065-12.855-37.768-21.244-55.743-22.166-47.486-60.793-85.972-102.378-116.804-40.679-30.159-89.862-58.547-138.918-71.989-43.25-11.848-93.534-8.146-134.452 10.012-18.182 8.069-34.418 20.203-49.588 33.112-.158.011-.309-.004-.471.019-22.988 3.178-53.18 15.66-75.145 4.858-20.999-10.325-36.65-28.26-58.35-37.757-.343-.212-.72-.401-1.139-.55-10.229-3.62-22.361-5.362-31.182 2.38-8.958 7.864-2.96 20.401 2.816 27.952.092.121.201.21.3.321.156.251.314.502.522.744 35.343 41.061 89.51 63.712 119.011 110.891.437.695.954 1.224 1.519 1.614-6.254 11.97-11.023 24.972-13.963 39.041-.479 2.293-.803 4.605-1.144 6.915-88.481 8.893-173.843 55.153-228.918 125.296-39.909 50.826-69.807 129.086-29.096 186.692-12.809 12.15-23.299 29.019-34.285 42.784-.121.15-.199.309-.3.463-.18.191-.362.375-.524.604-9.103 12.818-10.053 35.818 11.5 35.699 11.605-.063 20.263-5.329 29.04-12.436 12.109-9.804 24.578-19.676 36.285-30 55.605 32.777 123.75 34.435 185.902 24.316 70.963-11.555 134.837-45.744 190.357-90.359 31.782 25.799 66.031 48.068 100.643 65.484 72.084 36.272 184 48.423 253.465-1.762 35.23-25.451 26.68-55.331 7.176-89.082zm-477.836-341.604c-6.658-7.136-13.322-14.266-19.826-21.545-4.162-4.659-13.901-12.296-3.275-14.98 7.948-2.006 16.071-3.279 24.211-4.178.214-.024.402-.084.604-.128.64 1.011 1.343 2.004 2.144 2.956 6.841 8.151 19.697 10.11 31.71 11.184-13.162 7.514-25.104 16.439-35.568 26.691z" fill="#68182b"/><path d="m830.773 462.685c-5.181-3.999-10.273-8.104-15.303-12.223-19.928-16.356-22.845-20.896-34.32-45.828-6.675-14.491.058-6.613 5.636-2.21 9.335 7.372 18.488 14.971 27.437 22.802 10.609 9.278 15.592 19.58 19.986 32.169 2.264 6.458 4.269 11.232-3.436 5.29z" fill="#b1d045"/><path d="m546.753 290.417c-.757-.796-1.555-1.649-2.388-2.532-8.541-9.059-5.894-9.155 8.649-5.813 3.974.911 7.938 1.859 11.894 2.853 41.619 10.449 48.245 15.058 64.08 42.102 7.986 13.648 5.088 13.955-8.225 7.734-20.462-9.566-42.163-11.994-56.576-25.689-6.16-5.852-11.582-12.501-17.434-18.655z" fill="#b1d045"/><path d="m544.503 303.538c-31.371-10.405-48.647-11.727-65.078-27.979-.625-.619-1.279-1.254-1.958-1.896-6.981-6.61-4.745-6.318 4.935-4.792 3.721.584 7.44 1.187 11.159 1.776 30.977 4.921 36.685 7.885 54.49 27.724 7.989 8.913 4.258 7.753-3.548 5.167z" fill="#b1d045"/><path d="m625.434 313.856c-8.724-13.764.016-8.251 9.557-4.166 37.57 16.092 47.979 23.958 55.834 34.614 5.452 7.396 9.807 15.586 14.271 23.596 6.072 10.894 3.767 11.268-9.081 4.616-27.781-14.381-46.965-22.043-57.394-37.336-4.699-6.892-8.721-14.275-13.187-21.324z" fill="#b1d045"/><path d="m705.021 358.307c-9.901-16.445-10.942-18.216 4.28-9.384 35.479 20.584 50.704 31.944 60.053 44.412 5.397 7.201 8.828 15.363 12.28 23.601 3.608 8.603 2.075 9.195-6.021 4.412-17.616-10.397-44.085-24.296-55.743-39.705-5.554-7.337-10.11-15.466-14.849-23.336z" fill="#b1d045"/><path d="m855.303 479.905c-7.343-4.462-12.298-9.834-16.691-24.56-3.438-11.523-2.211-10.153 4.268-3.917 1.643 1.576 3.27 3.164 4.877 4.769 5.182 5.165 13.615 12.724 19.186 20.876 8.821 12.922-.314 9.702-11.64 2.832z" fill="#b1d045"/><path d="m871.221 453.583c13.423 46.192-6.305 11.93-6.518 11.673-7.557-9.199-16.188-17.579-25.033-25.609-5.613-5.093-8.434-7.999 1.107-5.352 6.697 1.857 13.441 3.04 20.047 5.309 7.177 2.465 8.039 5.878 10.397 13.979z" fill="#b1d045"/><path d="m861.766 426.217c3.567 9.423 4.24 9.518-9.422 5.817-25.768-6.976-21.389-4.416-66.495-37.933-12.689-9.429-5.671-8.069 1.106-6.742 6.703 1.314 13.357 2.135 19.5 2.62 10.762.855 21.465 1.681 31.863 4.75 15.662 4.625 17.217 15.044 23.448 31.488z" fill="#b1d045"/><path d="m841.5 382.877c4.533 8.387-.799 6.163-16.053 3.867-11.938-1.798-24.007-1.74-35.904-3.921-22.339-4.095-42.627-18.103-70.111-34.994-12.316-7.558-10.892-8.997.162-9.117 3.91-.043 7.645-.214 11.051-.43 15.036-.96 29.834-4.217 44.878-5.212 33.983-2.255 49.823 19.891 65.977 49.807z" fill="#b1d045"/><path d="m776.454 304.951c5.449 4.651 10.69 9.456 15.731 14.413 7.747 7.615 5.828 9.166-2.31 8.508-12.831-1.028-26.29.604-37.587 2.197-57.201 8.049-61.332-3.213-116.908-27.132-15.932-6.854-7.775-8.219-.76-9.282 11.486-1.74 22.765-5.161 32.558-8.768 12.907-4.751 25.494-9.979 39.035-12.707 27.777-5.594 50.1 15.582 70.241 32.771z" fill="#b1d045"/><path d="m712.876 258.008c10.085 6.663 6.938 7.701-2.237 8.601-8.712.852-17.404 2.999-25.529 5.768-14.179 4.829-27.748 11.138-42.476 14.233-27.138 5.704-49.187-.234-65.191-4.856-5.823-1.682-11.683-3.229-17.574-4.667-10.945-2.666-14.522-5.066-2.945-10.113 10.136-4.425 19.742-10.312 28.057-15.481 57.305-35.644 82.439-23.537 127.895 6.515z" fill="#b1d045"/><path d="m621.609 216.263c14.569 4.193 6.117 7.034-1.51 10.078-8.183 3.271-15.834 7.352-22.137 11.061-12.758 7.498-24.938 15.849-38.148 22.571-6.093 3.102-12.033 5.188-18.039 6.636-16.69 4.031-18.862 2.536-41.153-1.179-13.256-2.209-22.727-3.215-9.913-9.769 7.833-4.007 15.074-8.796 20.892-12.887 11.178-7.862 21.75-16.534 33.205-24.005 19.526-12.732 46.473-11.241 76.803-2.506z" fill="#b1d045"/><path d="m448.516 248.443c10.879-8.88 22.739-16.396 35.13-22.949 18.185-9.618 37.116-15.104 56.36-17.295 8.374-.952 9.205.804.84 6.339-6.348 4.196-12.291 8.771-17.598 12.784-37.347 28.236-52.532 30.371-72.965 30.922-9.207.253-11.34-1.993-1.767-9.801z" fill="#b1d045"/><path d="m439.455 264.887c20.697-.354 29.456 5.543 39.011 14.857 5.629 5.489 4.119 6.058-2.85 4.819-7.969-1.415-15.984-2.536-24.045-3.296-4.121-.389-17.908-2.668-21.865-8.557-4.438-6.606 1.924-7.688 9.749-7.823z" fill="#b1d045"/><path d="m278.606 237.599c-2.941-3.823-8.104-10.897-3.265-14.495 5.823-4.325 14.522-1.45 20.543.683 24.911 10.439 44.134 37.908 71.226 42.217 17.092 2.722 35.748-2.129 53.4-5.895-1.549 2.739-2.261 5.642-2.141 8.583-9.413 1.142-18.686 2.794-27.898 5.12-5.441 1.376-10.713 4.979-10.713 11.213 0 8.032 8.137 14.986 12.942 20.46 6.489 7.393 13.261 14.538 19.985 21.724-5.698 6.383-10.84 13.229-15.391 20.514-30.422-46.116-83.453-69.202-118.688-110.124z" fill="#aa8053"/><path d="m155.643 742.681c-9.068 9.569-21.629 17.091-31.551 25.921-7.27 6.471-14.314 12.906-23.894 15.57-15.538 4.321-13.524-11.064-7.788-19.334 9.382-11.74 18.856-23.408 28.234-35.15 5.229-6.548 9.622-13.117 18.932-13.627 13.447-.74 26.192 15.935 16.067 26.62z" fill="#aa8053"/><path d="m355.638 764.445c-61.364 13.113-132.171 12.043-187.897-19.758 10.291-15.784-6.2-33.235-23.188-38.502-6.327-1.961-12.415-.254-17.76 2.902-41.464-57.699-2.153-137.699 38.535-185.347 52.08-60.986 130.639-101.243 210.11-109.604-2.894 47.051 19.641 96.16 41.954 135.471 27.324 48.137 66.374 92.657 110.854 130.164-51.073 40.797-108.269 70.924-172.608 84.674z" fill="#fac135"/><path d="m825.715 765.628c-51.604 11.866-106.875 6.284-156.485-11.138-42.524-14.934-81.401-42.203-116.402-69.986-38.539-30.596-73.737-66.049-103.301-105.398-31.691-42.176-57.165-93.319-62.739-146.201-.87-8.259-.874-16.316-.138-24.148.002-.013.002-.027.004-.039 4.793-50.844 41.657-91.948 87.731-113.786 21.269 3.747 42.092 10.044 62.518 16.938 47.077 15.89 92.248 37.47 136.096 60.692 32.967 17.464 66.269 36.132 97.441 57.407.048.099.072.197.126.298 24.889 46.05 39.201 96.122 62.922 142.562 11.052 21.637 24.083 42.246 36.771 62.941 13.302 21.697 32.471 46.064 35.531 71.963 4.197 35.509-54.839 52.09-80.075 57.895z" fill="#fac135"/><path d="m831.537 450.355c-15.801-6.858-30.94-16.077-42.196-28.89 6.251 11.539 11.786 17.225 26.13 28.996 5.029 4.118 10.122 8.224 15.303 12.223 7.704 5.942 5.699 1.168 3.436-5.29-.853-2.437-1.743-4.764-2.673-7.039z" fill="#abab38"/><path d="m712.44 370.645c2.337 3.769 4.764 7.477 7.43 10.998 11.658 15.409 38.127 29.308 55.743 39.705 8.096 4.783 9.629 4.19 6.021-4.412-1.532-3.657-3.085-7.283-4.782-10.834-24.719-4.47-47.568-16.943-64.412-35.457z" fill="#abab38"/><path d="m862.654 471.505c-8.289-.95-16.988-5.914-22.855-12.552 4.107 11.976 8.811 16.886 15.504 20.952 11.326 6.87 20.461 10.09 11.639-2.832-1.296-1.898-2.756-3.759-4.288-5.568z" fill="#abab38"/><path d="m564.188 309.071c14.413 13.695 36.114 16.123 56.576 25.689 13.313 6.221 16.211 5.914 8.225-7.734-2.015-3.438-3.878-6.51-5.686-9.28-14.355.592-28.785-4.231-42.02-9.211-12.543-4.721-24.394-10.68-35.01-18.626.154.165.327.348.479.508 5.853 6.154 11.275 12.803 17.436 18.654z" fill="#abab38"/><path d="m631.878 324.47c2.17 3.625 4.371 7.23 6.742 10.711 10.429 15.293 29.612 22.955 57.394 37.336 12.848 6.651 15.153 6.277 9.081-4.616-2.172-3.896-4.321-7.833-6.58-11.704-15.166-1.586-29.808-7.604-42.972-15.108-7.562-4.308-16.925-9.747-23.665-16.619z" fill="#abab38"/><path d="m450.283 258.244c20.434-.551 35.618-2.686 72.965-30.922 5.155-3.897 10.929-8.318 17.073-12.416-12.694 3.841-24.49 10.815-35.752 17.622-9.258 5.598-18.373 11.406-28.067 16.228-11.582 5.762-21.699 6.275-33.355 5.005-2.419 3.542.515 4.665 7.136 4.483z" fill="#abab38"/><path d="m451.571 281.268c8.061.76 16.076 1.881 24.045 3.296 6.969 1.238 8.479.67 2.85-4.819-1.49-1.452-2.965-2.811-4.462-4.086-14.386 6.23-33.021 2.309-43.06-9.713-2.775 1.022-3.775 2.989-1.238 6.766 3.957 5.888 17.744 8.167 21.865 8.556z" fill="#abab38"/><path d="m500.622 265.43c22.291 3.715 24.463 5.21 41.153 1.179 6.006-1.448 11.946-3.534 18.039-6.636 13.21-6.723 25.391-15.073 38.148-22.571 4.77-2.808 10.317-5.825 16.278-8.547-18.165-2.124-37.761 8.022-53.873 14.517-18.321 7.38-49.023 22.881-69.231 12.058-.144.074-.281.158-.428.232-12.813 6.553-3.342 7.559 9.914 9.768z" fill="#abab38"/><path d="m548.051 298.371c-5.017-5.588-9.066-9.805-13-13.138-10.044 3.166-22.025 2.067-31.922.05-6.626-1.354-14.303-3.52-20.736-6.963 15.585 13.677 32.622 15.436 62.11 25.218 7.806 2.586 11.537 3.746 3.548-5.167z" fill="#abab38"/><path d="m557.344 266.771c-.142.063-.277.14-.421.202-11.577 5.047-8 7.447 2.945 10.113 5.892 1.438 11.751 2.985 17.574 4.667 16.005 4.622 38.054 10.561 65.191 4.856 14.728-3.096 28.297-9.404 42.476-14.233 7.519-2.563 15.528-4.544 23.585-5.509-19.374-9.853-46.034-3.209-65.662 1.121-29.038 6.406-58.036 11.04-85.688-1.217z" fill="#abab38"/><path d="m733.53 338.005c-.965.08-1.921.216-2.886.277-3.406.216-7.141.387-11.051.43-11.054.12-12.479 1.56-.162 9.117 27.484 16.892 47.772 30.899 70.111 34.994 11.897 2.181 23.967 2.123 35.904 3.921 4.426.666 7.99 1.318 10.747 1.714-12.882-11.564-29.694-16.904-46.423-20.991-21.064-5.145-44.463-10.238-56.24-29.462z" fill="#abab38"/><path d="m672.671 312.894c-10.038-3.081-28.02-9.618-35.226-19.766-.943.165-1.875.383-2.824.527-7.016 1.063-15.172 2.429.76 9.282 55.576 23.919 59.707 35.181 116.908 27.132 10.726-1.512 23.395-3.032 35.629-2.304-21.662-8.329-46.534-7.399-69.266-8.019-15.658-.425-30.975-2.247-45.981-6.852z" fill="#abab38"/><path d="m851.273 436.907c-3.494-.852-7.002-1.644-10.496-2.612-9.541-2.647-6.721.259-1.107 5.352 8.846 8.03 17.477 16.41 25.033 25.609.078.097 2.881 4.933 5.659 8.553-.85-7.08-4.272-13.677-8.491-19.393-3.023-4.092-11.977-11.341-10.598-17.509z" fill="#abab38"/><path d="m816.801 390.901c-3.438-.346-6.886-.646-10.346-.922-6.143-.485-12.797-1.306-19.5-2.62-6.777-1.327-13.796-2.687-1.106 6.742 40.39 30.011 41.116 31.102 59.322 36.007-13.624-9.342-30.776-22.64-28.37-39.207z" fill="#abab38"/><path d="m587.427 220.461c.911-.327.967-1.601 0-1.905-10.157-3.182-17.656-3.272-27.824.134-8.958 2.999-18.897 7.98-22.884 17.007-.216.491.023 1.244.684 1.188 7.633-.649 14.746-4.346 21.849-7.022 9.221-3.476 18.869-6.077 28.175-9.402z" fill="#d7e338"/><path d="m592.588 261.153c12.498-2.502 24.589-6.86 37.083-9.565 13.54-2.933 27.4-2.951 40.99-5.724.909-.188 1.14-1.646.268-2.047-23.698-10.863-61.604-4.254-78.919 16.344-.385.461-.023 1.111.578.992z" fill="#d7e338"/><path d="m678.628 248.568c1.008.017 2.664-.265 2.997-1.477.294-1.069-.831-2.252-1.705-2.592-1.535-.597-3.304-.63-4.472.66-.385.426-.567 1.127-.21 1.638.776 1.113 2.001 1.749 3.39 1.771z" fill="#d7e338"/><path d="m707.528 290.939c12.36-1.104 24.257 1.911 36.556 1.664.829-.017 1.642-1.059 1.051-1.832-8.262-10.812-21.598-11.458-34.396-10.538-11.78.846-28.857 4.648-36.513 14.489-.264.339-.111.816.35.843 10.708.632 22.219-3.665 32.952-4.626z" fill="#d7e338"/><path d="m784.564 350.782c7.158 1.288 14.095 4.231 21.436 2.798.803-.156.959-1.063.689-1.693-5.591-12.997-32.035-15.587-41.845-6.565-.206.189-.142.535.087.673 5.858 3.517 13.064 3.605 19.633 4.787z" fill="#d7e338"/><path d="m830.193 402.771c-.17.175-.271.463-.184.706 1.514 4.282 6.135 6.043 9.437 8.91 1.701 1.479 7.325 5.26 9.175 2.093 4.64-7.95-12.772-17.506-18.428-11.709z" fill="#d7e338"/><path d="m718.422 363.02c-.416-.136-.71.279-.648.647 1.307 7.634 8.173 13.461 13.86 18.102 5.993 4.892 12.958 9.686 20.945 8.24.613-.111 1.117-.946.872-1.539-2.731-6.597-8.324-9.283-14.121-12.989-6.559-4.195-13.476-10.022-20.908-12.461z" fill="#d7e338"/><path d="m758.314 394.918c1.108.488 2.153.44 3.085-.398.087-.078.173-.156.259-.234.488-.438.734-1.303.511-1.926-.584-1.618-1.532-2.094-3.181-2.33-.857-.126-2.782-.017-2.961 1.192-.259 1.771.691 2.991 2.287 3.696z" fill="#d7e338"/><path d="m639.559 318.439c-.422-.005-.625.378-.572.75.93 6.371 8.995 11.219 14.117 14.152 6.24 3.57 12.681 6.763 19.952 5.294.961-.193 1.097-1.398.539-2.036-4.451-5.078-10.492-7.228-16.382-10.289-5.167-2.681-11.662-7.822-17.654-7.871z" fill="#d7e338"/><path d="m597.387 306.135c.65-.139.738-.94.364-1.377-3.447-4.004-7.204-5.259-12.054-7.142-4.996-1.939-9.213-3.431-14.594-3.466-.275-.002-.525.348-.342.595 5.544 7.428 17.349 13.354 26.626 11.39z" fill="#d7e338"/><path d="m490.88 274.659c-.413.15-.653.606-.413 1.016 2.984 5.079 12.73 5.057 17.319 2.703.584-.301.433-1.032 0-1.366-2.333-1.791-4.819-2.289-7.695-2.536-2.944-.255-6.368-.854-9.211.183z" fill="#d7e338"/><path d="m501.858 225.827c-14.468 1.065-27.227 10.535-37.706 19.954-.609.548.026 1.629.8 1.376 13.227-4.315 26.874-10.892 37.465-19.98.511-.441.111-1.4-.559-1.35z" fill="#d7e338"/><path d="m509.277 221.425c-1.8.124-2.158 1.277-2.787 2.606-.127.27-.015.521.258.63.857.341 1.657.943 3.027.438 1.146-.422 2.088-1.608 1.869-2.853-.158-.897-1.766-.862-2.367-.821z" fill="#d7e338"/><path d="m870.323 635.873c2.294 10.113 4.263 20.293 5.589 30.602 1.637 12.725 1.234 25.703-2.75 37.961-5.592 17.201-21.201 27.06-37.713 31.928-29.113 8.582-64.653 3.896-94.035-.615-32.094-4.928-63.426-14.223-93.871-25.341-56.586-20.667-107.366-49.896-151.102-91.594-43.825-41.782-78.769-92.679-97.96-150.289-5.427-16.287-9.37-32.961-12.326-49.821-.055 4.665.126 9.394.632 14.201 5.574 52.882 31.048 104.025 62.739 146.201 29.564 39.35 64.762 74.803 103.301 105.398 35.001 27.783 73.878 55.053 116.402 69.986 49.61 17.422 104.882 23.004 156.485 11.138 25.236-5.805 84.272-22.386 80.074-57.896-3.056-25.857-22.165-50.187-35.465-71.859z" fill="#ee9e2b"/><path d="m438.196 582.396c-.439 27.861-5.66 55.195-19.4 80.271-14.94 27.262-40.294 47.094-67.845 60.498-56.766 27.617-122.253 27.77-180.588 6.77 1.177 4.801.57 9.857-2.622 14.752 55.727 31.801 126.533 32.871 187.897 19.758 64.339-13.75 121.535-43.877 172.608-84.674-34.185-28.826-65.136-61.805-90.05-97.375z" fill="#ee9e2b"/><g fill="#fbe134"><path d="m155.52 649.16c11.578 39.119 61.014 31.179 89.915 23.636 38.251-9.984 76.989-29.31 100.431-63.333 11.965-17.367 16.633-40.609 13.876-61.939-4.089-31.656-27.991-49.951-58.012-52.479-68.33-5.756-167.753 81.355-146.21 154.115z"/><path d="m794.29 577.521c-18.632-21.945-33.62-51.988-45.958-77.449-33.424-68.979-79.061-112.508-151.961-142.089-53.524-21.719-101.695.533-88.416 56.708 35.516 150.193 173.499 268.313 284.994 238.012 32.631-8.875 42.686-27.789 18.262-56.48-5.986-7.03-12.541-13.541-16.921-18.702z"/><path d="m782.262 688.344c-6.559 0-6.559 10.17 0 10.17 6.556 0 6.556-10.17 0-10.17z"/><path d="m789.848 705.141c-.037-.086-.137-.115-.184-.193-.413-1.01-1.268-1.318-2.137-1.182-.871-.137-1.725.172-2.138 1.182-.047.078-.146.107-.183.193-.035.086-.072.168-.107.252-.424.539-.524 1.172-.439 1.802-.023.741.166 1.471.798 1.975.004.002.006.005.01.009.521.415 1.037.594 1.543.674.165.037.344.008.517.015.172-.007.352.022.516-.015.506-.08 1.022-.259 1.543-.674.004-.004.006-.007.01-.009.632-.504.821-1.233.799-1.975.084-.63-.017-1.263-.44-1.802-.037-.084-.074-.166-.108-.252z"/><path d="m796.841 695.914c-.296 0-.593 0-.889 0-3.587 0-3.587 5.563 0 5.563h.889c3.587 0 3.587-5.563 0-5.563z"/><path d="m514.76 544.688c6.473 0 6.473-10.039 0-10.039-6.474-.001-6.474 10.039 0 10.039z"/><path d="m494.581 334.238c2.423 2.205 5.644 1.586 7.479-.965.054-.073.106-.146.158-.22 2.275-3.157-.798-7.502-4.305-7.502-4.198 0-6.802 5.527-3.523 8.512.064.058.127.116.191.175z"/><path d="m484.101 340.42c.697.065 1.384-.18 1.837-.899.729-1.16.726-2.518.056-3.713-1.61-2.861-6.104-1.571-6.104 1.654 0 2.583 2.267 3.56 4.211 2.958z"/><path d="m766.994 466.56c-5.428 0-5.428 8.419 0 8.419 5.431 0 5.431-8.419 0-8.419z"/><path d="m771.096 480.14c-.402-.396-.843-.549-1.271-.582-.068-.01-.132-.031-.202-.033-.07.002-.134.023-.201.033-.428.033-.868.186-1.271.582-.199.195-.398.391-.599.586-6 5.881 10.144 5.881 4.143 0-.2-.196-.399-.391-.599-.586z"/><path d="m615.862 628.199c4.159 0 4.159-6.451 0-6.451s-4.159 6.451 0 6.451z"/><path d="m617.969 637.068c-4.776 0-4.776 7.406 0 7.406s4.776-7.406 0-7.406z"/><path d="m627.447 636.229c3.65 0 3.65-5.661 0-5.661-3.651 0-3.651 5.661 0 5.661z"/><path d="m351.208 661.219c-6.277 0-6.277 9.734 0 9.734 6.278 0 6.278-9.734 0-9.734z"/><path d="m363.247 677.029c-.357-2.08-2.353-3.697-4.576-2.385-1.599.945-2.197 2.238-2.313 4.041-.296 4.607 7.373 4.645 7.175 0-.026-.646-.058-1.318-.286-1.928z"/><path d="m365.211 666.936c-4.287 0-4.287 6.648 0 6.648s4.288-6.648 0-6.648z"/><path d="m353.36 457.049c3.515.965 7.43-2.802 6.133-6.241-.203-1.697-1.252-3.308-3.063-3.667-2.043-.41-3.812.09-5.264 1.602-2.577 2.678-1.468 7.298 2.194 8.306z"/><path d="m353.431 463.01c-.045-.011-.091-.021-.136-.031-1.869-.426-3.262.568-3.953 2.246-.221.535-.171 1.199-.241 1.775-.229 1.884 1.755 3.472 3.473 3.472 2.468 0 3.665-2.202 3.349-4.396-.019-.242-.066-.481-.138-.714-.29-1.091-1.233-2.097-2.354-2.352z"/><path d="m340.989 459.282c-3.161 0-3.161 4.904 0 4.904 3.162.001 3.162-4.904 0-4.904z"/><path d="m231.234 710.205c-3.394-1.482-6.977.369-7.851 3.984-.654 2.701.82 5.521 3.563 6.273 3.39.935 6.201-1.65 6.457-4.918.153-1.985-.044-4.409-2.169-5.339z"/><path d="m237.611 700.756c-4.19-1.154-5.743 4.972-1.769 6.41.717.258 1.39.086 2.105-.014.65-.088 1.127-.564 1.405-1.148.268-.354.469-.76.578-1.158.483-1.746-.575-3.611-2.319-4.09z"/><path d="m244.67 711.82c-.527-.205-1.068-.23-1.625-.258-3.779-.184-3.779 6.044 0 5.859.557-.027 1.098-.053 1.625-.258 2.629-1.02 2.629-4.321 0-5.343z"/><path d="m396.333 597.953c.072.025.115.076.189.098.422.115.877.145 1.338.133.46.012.915-.018 1.336-.133.074-.021.117-.072.189-.098 1.631-.494 3.073-1.705 3.326-3.418.195-1.326.236-2.33-.129-3.659-.052-.187-.165-.321-.232-.491-.291-.864-.79-1.572-1.508-2.041-1.732-1.277-4.233-1.277-5.966 0-.718.469-1.218 1.177-1.508 2.041-.067.17-.181.305-.232.491-.366 1.329-.325 2.333-.129 3.659.253 1.713 1.695 2.924 3.326 3.418z"/><path d="m287.668 699.621c.156-.197.314-.393.471-.591-1.477 1.862-1.477 3.786 0 5.648-.703-.887-.631-.786.221.306.827.826 1.962 1.297 3.131 1.297 1.969 0 3.745-1.352 4.268-3.25 1.306-4.75-5.826-7.994-8.091-3.41z"/><path d="m553.727 586.945c-4.224 0-4.224 6.549 0 6.549 4.222 0 4.222-6.549 0-6.549z"/><path d="m544.02 605.533c-1.047.435-1.895.906-2.573 1.556-.035.028-.072.048-.107.075-2.356 1.914-1.761 6.598 1.013 7.846 2.018.912 3.635.918 5.607-.131 2.011-1.07 2.938-3.633 2.351-5.774-.672-2.435-3.712-4.638-6.291-3.572zm5.429 7.121c.109-.211.132-.424.21-.637.011.002.019.006.029.008-.08.21-.159.42-.239.629z"/><path d="m710.737 692.699c-2.938 1.096-2.679 5.721.962 5.93 2.255.13 4.176-1.313 4.079-3.703-.11-2.743-3.33-3.74-5.041-2.227zm-.911 1.422c.037-.096.074-.189.11-.287.015-.01.029-.021.044-.033-.045.113-.12.193-.154.32z"/><path d="m857.128 659.918c-1.06-3.611-6.167-4.456-8.086-1.059-.311.551-.536 1.133-.71 1.736-.832 2.92 1.483 5.896 4.49 5.896 3.057 0 5.256-2.971 4.49-5.896-.054-.228-.117-.453-.184-.677z"/><path d="m446.304 420.464c6.537 0 6.537-10.137 0-10.137-6.536 0-6.536 10.137 0 10.137z"/><path d="m127.198 644.743c-6.197 0-6.197 9.61 0 9.61s6.197-9.61 0-9.61z"/></g><path d="m94.904 784.891c1.481.063 3.222-.143 5.295-.719 9.579-2.664 16.624-9.1 23.894-15.57 9.922-8.83 22.482-16.352 31.551-25.921 7.5-7.913 2.441-19.099-6.146-24.075-1.866 12.227-6.762 23.68-15.538 34.371-10.222 12.451-23.989 24.011-39.056 31.914z" fill="#865725"/><path d="m293.389 252.934c34.053 32.062 77.493 54.752 103.906 94.788 2.191-3.509 4.533-6.903 6.996-10.204-3.898-4.817-7.981-9.289-11.729-13.284-18.963-20.218-41.014-37.529-64.416-52.298-10.818-6.83-23.129-12.482-34.757-19.002z" fill="#865725"/><path d="m313.444 439.031c-40.351 13.727-75.959 37.721-107.475 66.07-30.023 27.006-58.426 60.805-73.376 98.7-.179.452.511.688.753.317 21.804-33.746 44.471-65.251 74.063-92.732 31.595-29.344 68.438-51.436 106.505-71.242.61-.318.186-1.336-.47-1.113z" fill="#68182b"/><path d="m324.289 433.688c-1.726.764-3.503 1.554-4.604 3.155-.106.156.004.36.167.412 1.666.53 3.356.028 4.951-.529 2.184-.765 3.949-1.318 5.452-3.102.225-.264.148-.662-.201-.77-2.186-.662-3.707-.078-5.765.834z" fill="#68182b"/><path d="m431.139 511.963c-15.111-30.71-22.448-62.766-28.654-96.154-.09-.481-.85-.362-.841.113.508 31.811 9.661 63.716 22.376 92.717 14.941 34.078 36.723 69.083 64.367 94.262.654.598 1.788-.181 1.266-.977-19.762-30.165-42.477-57.369-58.514-89.961z" fill="#68182b"/><path d="m497.945 610.871c-1.972-1.854-3.728-3.969-6.041-5.393-.481-.299-1.045.188-.917.705.625 2.525 2.378 4.553 4.132 6.422 2.258 2.4 4.201 4.068 7.419 4.867.352.086.644-.287.465-.605-1.39-2.476-2.992-4.054-5.058-5.996z" fill="#68182b"/></g></g></svg>