<svg id="Fruit" height="512" viewBox="0 0 992.13 992.13" width="512" xmlns="http://www.w3.org/2000/svg"><g><path d="m121.573 407.626c-24.083 58.205-25.415 133.095-3.567 200.325 33.827 104.088 131.236 181.016 255.609 202.676 13.652 19.568 29.986 37.258 48.668 52.688 48.297 39.895 112.438 61.866 180.608 61.868h.006c36.735 0 72.865-6.166 107.387-18.324 83.23-29.313 145.117-95.784 169.789-182.369 23.291-81.734 3.35-171.752-53.342-240.788-16.146-19.664-34.549-37.003-54.795-51.638-14.682-49.44-41.759-91.567-80.467-125.354 1.309-4.901 2.559-9.982 3.536-15.395 3.133-17.383-.777-34.531-11.308-49.589-18.75-26.814-54.052-41.301-78.588-45.561-6.188-1.074-12.512-1.619-18.793-1.619-5.213 0-10.422.368-15.604 1.101-6.56-11.771-17.243-21.861-31.498-29.631.94-7.277 1.87-14.713 2.638-22.128 2.305-22.273 2.682-47.24-12.023-63.544-7.904-8.767-18.672-13.398-31.137-13.398-3.971 0-8.158.485-12.444 1.443-19.055 4.256-69.664 15.562-85.965 58.058-3.666 9.561-2.828 20.391-1.479 27.796 1.086 5.952 1.59 11.78 1.549 18.372-5.08 3.886-9.616 8.21-13.58 12.933-14.885-8.962-34.408-14.056-58.443-15.211-1.955-.095-3.913-.143-5.863-.143-35.041 0-70.576 15.248-97.488 41.832-13.998 13.825-28.822 37.223-28.454 61.431.147 9.757 2.75 18.739 7.616 26.526-37.518 29.635-65.224 65.724-82.568 107.643z" fill="#fff"/><g><path d="m808.273 498.857c-16.893-20.571-36.115-37.978-57.027-52.121-14.035-53.231-43.377-97.41-86.818-131.39-.01-.008-.02-.012-.029-.021 2.383-9.384 5.357-18.567 7.102-28.248 6.859-38.056-40.225-62.13-70.473-67.381-16.143-2.802-32.033-.831-46.644 4.656-.329-22.527-20.458-36.548-41.13-43.718 1.631-13.099 3.492-26.179 4.842-39.208 2.051-19.804 4.66-56.724-26.643-49.73-26.133 5.838-58.48 16.215-68.871 43.303-1.633 4.258-1.055 10.723-.283 14.956 2.162 11.851 2.318 22.661 1.438 34.584-.033.446-.092.893-.127 1.339-16.234 9.02-27.028 22.863-30.869 40.495-11.098-24.756-40.853-30.994-65.559-32.184-31.953-1.538-63.061 12.741-85.421 34.829-15.212 15.023-31.976 45.999-12.687 63.923 4.178 3.884 10.619 5.612 17.322 6.519-45.377 28.302-81.971 67.063-102.754 117.296-23.464 56.708-21.666 126.14-2.924 183.813 35.178 108.243 139.018 172.251 246.975 188.13 13.164 20.668 29.715 39.613 49.799 56.203 72.94 60.25 177.401 70.234 264.858 39.432 76.727-27.023 132.57-88.537 154.756-166.389 21.917-76.922 1.33-158-48.833-219.088z" fill="#68182b"/><path d="m593.188 229.371c16.454.569 32.043 7.538 45.541 16.427 22.514 14.824 24.873 35.566 17.102 59.512-4.674 14.398-1.614 44.965-24.936 43.816-15.26-.75-28.744 1.399-43.988 2.497-30.262 2.185-59.268-12.939-78.945-35.003 12.031-14.586 15.793-32.071 5.983-48.511.153-.167.315-.319.456-.513.063-.086.133-.164.193-.25 33.948-11.529 71.652-.617 97.483 23.935.759.722 2.146-.243 1.499-1.156-19.779-27.993-57.891-39.407-90.984-32.35 18.362-19.392 43.062-29.356 70.596-28.404z" fill="#b1d045"/><path d="m383.562 236c3.416.474 6.414 1.541 9.172 2.96.475.442 1.053.768 1.683.979 6.995 4.109 12.535 10.397 19.448 15.146 7.127 4.894 14.526 8.283 22.33 10.148-2.659 1.115-5.307 2.283-7.926 3.557-15.684 7.621-33.92 19.864-39.39 37.447-.181.582.632 1.086 1.045.608 12.456-14.341 26.075-25.148 43.763-32.547 7.02-2.936 14.268-5.369 21.576-7.644.645-.052 1.271-.052 1.922-.121.226-.025.426-.087.635-.132.254-.011.5-.011.764-.056 7.367-1.266 14.686-2.051 22.145-2.421 23.208-1.148 34.946 18.303 24.042 39.37-7.715 14.904-26.018 27.458-39.022 37.002-34.811 25.556-77.422 39.409-113.902 7.714-26.425-22.96-23.455-75.507-2.706-101.07 8.075-9.948 22.353-12.608 34.421-10.94z" fill="#b1d045"/><path d="m543.68 229.148c-12.133 6.271-23.07 14.999-32.148 25.416-3.033-20.997-1.865-42.114.467-63.21 16.71 6.122 35.075 17.84 31.681 37.794z" fill="#b1d045"/><path d="m448.673 119.098c11.887-7.991 26.746-12.214 40.398-16.087 7.359-2.088 12.057-.938 15.071 2.023 1.621 5.764-6.537 15-9.827 18.396-12.734 13.148-31.021 16.61-46.324 25.412-.502.287-.14.95.369.872 14.209-2.232 29.154-7.983 41.447-15.473 6.424-3.917 14.665-9.429 19.014-16.429.627 7.962-.707 17.235-1.259 23.615-1.306 15.136-3.61 30.196-5.481 45.266-2.891 23.282-4.225 46.443-.907 69.496-13.116-5.862-31.222-2.454-44.408-.171-11.822 1.162-21.471-2.275-30.443-7.236 2.525-19.535 5.732-39.201 7.481-58.893.007-.097.022-.189.022-.286.584-6.638 1.008-13.279 1.174-19.917.525-20.752-7.641-36.261 13.673-50.588z" fill="#a2603f"/><path d="m422.332 199.279c-1.603 14.547-3.771 29.084-5.734 43.575-4.76-3.116-9.498-6.321-14.424-9.177 1.63-14.694 8.911-26.134 20.158-34.398z" fill="#b1d045"/><path d="m263.253 224.197c27.424-20.731 93.955-32.939 116.914 1.225-2.305-.336-4.668-.558-7.153-.539-4.106.03-8.034.748-11.762 1.971-8.868-.354-17.864.393-26.731 1.291-16.452 1.671-31.859 6.377-46.039 14.872-.953.569-.121 1.87.848 1.448 15.338-6.669 32.078-9.411 48.65-10.667 3.604-.274 7.201-.362 10.793-.387-7.883 5.891-14.059 14.254-17.704 23.307-3.856 9.575-6.288 19.346-7.421 29.007-24.273 5.501-48.176 6.566-72.861 2.995-43.481-6.29-3.368-52.551 12.466-64.523z" fill="#b1d045"/><path d="m154.605 608.072c-22.092-55.248-22.822-120.873-4.906-177.289 18.227-57.399 63.461-100.986 114.813-129.837.119.013.259.019.376.031 19.422 1.984 39.064-.202 58.076-4.31-.253 32.504 15.713 62.186 49.795 76.062 46.066 18.756 96.412-15.979 128.043-48.362 25.994 28.994 62.852 41.84 101.432 36.132 13.355-1.975 42.639 5.894 51.907-8.372 4.034-6.207 6.218-11.788 6.976-19.333.203-2.018.479-4.011.809-5.983 36.342 29.84 61.873 66.906 75.881 111.41-58.307-34.412-128.07-44.687-197.242-27.984-94.612 22.847-174.719 96.566-189.559 194.779-.039.258-.033.5-.039.748-.053.215-.122.422-.15.654-7.736 60.332 1.614 119.979 29.904 170.555-98.397-17.108-187.774-73.009-226.116-168.901z" fill="#7761d3"/><path d="m772.951 477.671c-69.756-60.881-159.597-81.531-248.266-51.915-83.198 27.789-149.752 92.78-163.42 181.431-7.568 60.14 1.479 121.726 32.559 172.506.686.562 1.125 1.29 1.325 2.11 8.995 14.326 19.669 27.818 32.368 40.084 56.492 54.568 138.393 78.769 216.01 66.453 94.39-14.975 175.309-74.537 202.12-168.633 25.238-88.561-3.299-181.467-72.696-242.036zm-20.955 274.938c.195 12.553-4.002 25.311-13.676 37.865-27.761 36.031-103.553 79.687-137.328 33.436-4.629 12.768-12.527 22.596-26.158 25.033-27.072 4.838-55.213-11.44-75.814-26.867-17.161-12.85-43.801-34.342-43.573-58.379.037-3.904.566-7.617 1.425-11.195-31.415-8.872-45.273-47.91-49.604-77.093-5.428-36.54-1.814-84.567 24.01-113.753 8.068-9.119 17.238-14.656 27.002-17.464-6.944-27.516 32.809-53.414 52.678-62.391 24.066-10.871 58.023-21.612 81.73-4.668 21.311-17.677 55.215-12.761 80.859-.971 15.041 6.914 29.424 16.328 35.18 32.197 49.996-4.351 69.959 49.036 69.379 92.142 8.012 7.764 14.057 17.893 17.133 30.697 9.771 40.7 4.329 107.445-43.243 121.411z" fill="#ff5671"/><path d="m767.414 592.207c-19.414-12.069-45.461-14.629-69.682-10.141-20.744 3.85-18.266.578-10.996-10.864.408-.642.816-1.277 1.219-1.907 9.041-14.107 23.555-32.465 22.842-50.689 39.641-3.368 54.875 39.333 56.617 73.601z" fill="#d5d5d5"/><path d="m672.77 487.343c23.602 10.849 32.885 28.659 20.521 53.245-6.369 12.67-15.189 24.762-23.039 36.586-16.174 24.362-36.068 58.355-63.111 72.586-3.361-5.303-8.152-8.496-14.801-8.627-6.895-39.629-13.303-84.998-7.848-125.299 6.479-47.88 53.834-44.325 88.278-28.491z" fill="#d5d5d5"/><path d="m512.006 492.987c19.143-10.151 53.162-22.181 73.402-8.251-2.207 2.905-4.193 6.167-5.898 9.849-8.029 17.332-7.314 38.413-6.486 57.003.455 10.182 1.037 20.352 1.801 30.5 1.168 15.503-1.221 15.277-10.074 6.453-25.971-25.881-63.328-49.363-96.073-46.301-5.608-21.121 29.148-41.735 43.328-49.253z" fill="#d5d5d5"/><path d="m418.831 679.844c-8.606-35.764-1.866-75.854 17.269-107.109 34.793-56.836 120.209 13.992 142.618 49.113.049.074.104.125.152.193.527 4.004 1.104 8.002 1.723 11.996 1.676 10.887-1.132 9.479-8.138 13.488-27.851 15.927-53.477 34.996-77.923 55.775-13.137 11.166-27.047 23.662-34.199 39.23-26.541-7.341-35.735-38.725-41.502-62.686z" fill="#d5d5d5"/><path d="m560.625 838.639c-38.547-1.658-112.29-53.606-88.483-96.498 10.297-18.551 31.176-32.84 47.311-45.867 19.701-15.906 40.809-29.992 62.941-42.265 29.34-13.534 19.887 43.151 18.973 56.271-1.275 18.273-3.467 36.479-4.125 54.795-.518 14.357-1.213 28.626-3.774 42.793-3.593 19.885-11.128 31.704-32.843 30.771z" fill="#d5d5d5"/><path d="m731.668 781.992c-23.887 33.848-100.107 80.248-126.922 27.686 3.54-19.149 2.723-40.809 3.443-54.277.822-15.418 11.053-67.728 3.094-95.939 2.098-1.045 4.161-2.188 6.188-3.434.07.004.127.021.197.023 33.279.918 66.285 23.209 91.533 43.492 26.36 21.17 44.082 51.82 22.467 82.449z" fill="#d5d5d5"/><path d="m747.814 732.123c-3.789-9.717-10.025-19.162-18.242-28.123-23.709-25.85-63.016-51.467-99.543-57.242 13.168-11.33 24.701-26.3 34.977-41.533 42.744-25.84 108.195-20.699 121.381 34.211 6.816 28.396 3.006 73.205-20.969 93.963-8.018 6.94-15.025 5.343-17.604-1.276z" fill="#d5d5d5"/><path d="m351.845 348.012c36.48 31.695 79.092 17.842 113.902-7.714 13.004-9.544 31.307-22.098 39.022-37.002 9.74-18.819 1.383-36.304-17.047-39.013 10.948 18.054 1.193 39.646-13.981 53.956-15.483 14.598-37.208 25.554-57.909 29.771-43.665 8.898-80.62-29.462-80.652-70.55-5.72 25.29-1.413 54.843 16.665 70.552z" fill="#abab38"/><path d="m428.269 268.79c2.619-1.273 5.267-2.441 7.926-3.557-6.496-1.553-12.699-4.225-18.709-7.876-7.527 8.824-13.139 19.506-16.824 30.26 7.931-8.03 18.218-14.264 27.607-18.827z" fill="#abab38"/><path d="m419.9 218.691c-3.576 7.073-8.076 13.469-13.92 17.338 3.576 2.22 7.104 4.523 10.617 6.825 1.09-8.042 2.219-16.099 3.303-24.163z" fill="#abab38"/><path d="m361.252 226.854c3.728-1.223 7.655-1.94 11.762-1.971 2.485-.019 4.849.203 7.153.539-1.961-2.921-4.266-5.478-6.814-7.745-22.656-4.154-48.508 4.505-67.453 17.007 9.135-3.392 18.684-5.531 28.621-6.539 8.867-.899 17.863-1.646 26.731-1.291z" fill="#abab38"/><path d="m323.648 285.725c1.133-9.661 3.564-19.432 7.421-29.007 3.646-9.053 9.821-17.416 17.704-23.307-3.592.024-7.189.112-10.793.387-1.711.129-3.427.285-5.141.45-12.27 21.215-26.277 40.02-50.411 49.042-12.611 4.714-26.465 2.525-37.966-3.936-6.266-3.52-10.052-8.622-12.103-14.508-3.384 11.365.009 21.21 18.427 23.873 24.686 3.572 48.589 2.507 72.862-2.994z" fill="#abab38"/><path d="m529.141 256.638c1.467-.203 2.943-.34 4.423-.473-1.474.112-2.949.273-4.423.473z" fill="#abab38"/><path d="m525.459 257.168c-.633.118-1.22.272-1.814.42 1.615-.323 3.236-.623 4.871-.859-1.02.145-2.037.25-3.057.439z" fill="#abab38"/><path d="m586.906 351.623c8.348-.601 16.17-1.505 24.041-2.087-25.131-2.045-49.553-1.368-69.355-21.627-13.92-14.24-10.793-34.588 1.111-48.728 7.326-8.703 18.452-12.368 29.389-11.725-18.533-5.976-38.596-6.53-57.498-.11-.061.086-.131.164-.193.25-.141.193-.303.346-.456.513 9.81 16.439 6.048 33.925-5.983 48.511 19.677 22.064 48.683 37.188 78.944 35.003z" fill="#abab38"/><path d="m511.531 254.564c6.313-7.242 13.57-13.599 21.457-18.951-5.316-.265-10.372-2.147-14.784-6.74-4.7-4.894-6.716-11.461-7.901-18.286-.936 14.686-.884 29.36 1.228 43.977z" fill="#abab38"/><path d="m476.712 282.802c-9.451 9.036-17.891 19.245-28.1 27.478-9.934 8.012-23.011 11.656-32.535 19.896-.443.383-.182 1.117.334 1.265 13.296 3.785 28.936-4.313 39.885-11.204 13.465-8.473 23.238-20.166 23-36.364-.02-1.336-1.627-1.986-2.584-1.071z" fill="#d7e338"/><path d="m604.291 240.622c-14.025-4.204-34.26-5.803-45.279 5.762-.398.418-.09 1.021.442 1.067 14.331 1.264 27.718-.084 41.763 4.328 6.988 2.196 13.537 5.846 19.678 9.783 6.809 4.362 13 8.01 20.119 11.775.86.453 2.002-.292 1.693-1.302-5.478-17.926-21.08-26.215-38.416-31.413z" fill="#d7e338"/><path d="m310.007 215.641c-14.306-.463-24.944 3.077-37.334 10.369-9.912 5.834-22.243 15.577-23.043 27.934-.047.72.848 1.192 1.436.824 9.436-5.909 17.217-13.938 26.902-19.697 5.15-3.064 10.709-5.474 16.191-7.869 5.906-2.584 10.85-6.221 16.479-9.229 1.141-.611.565-2.293-.631-2.332z" fill="#d7e338"/><path d="m317.535 211.236c-1.436.576-3.668 2.977-2.035 4.532 1.718 1.635 3.84 1.246 5.819.346 1.458-.665 1.993-2.103 1.729-3.255-.533-2.32-3.822-2.303-5.513-1.623z" fill="#d7e338"/><path d="m385.835 249.619c-2.796-1.275-5.342-2.999-8.281-3.908-3.863-1.192-8.596-.152-12.293 1.167-1.594.569-11.252 7.9-6.549 9.799 3.59 1.448 9.561-.144 13.3-.521 5.336-.534 9.016-2.475 13.823-4.604.739-.326.726-1.599 0-1.933z" fill="#d7e338"/><path d="m602.483 331.079c-13.259-3.746-26.51-4.39-40.283-3.086-.47.045-.683.535-.372.899 4.465 5.245 9.098 7.521 16.076 8.274 9.689 1.045 15.779-.638 24.579-4.184.861-.346 1.015-1.616 0-1.903z" fill="#d7e338"/><path d="m606.402 333.714c-1.416.604-4.535 2.324-4.034 4.274.56 2.185 4.001 2.511 5.819 2.322 2.939-.303 5.623-1.636 6.354-4.663.211-.87-.14-1.673-.876-2.156-2.444-1.597-4.762-.849-7.263.223z" fill="#d7e338"/><path d="m456.767 256.019c13.186-2.283 31.292-5.691 44.408.171-3.317-23.053-1.983-46.214.907-69.496 1.871-15.069 4.176-30.13 5.481-45.266.552-6.38 1.886-15.653 1.259-23.615-4.35 7-12.59 12.512-19.014 16.429-6.782 4.133-14.379 7.703-22.205 10.478 13.32 3.063 18.652 22.308 19.885 34.481 1.602 15.858-6.241 29.968-16.639 41.221-10.744 11.626-23.645 21.039-32.215 33.709 5.542 1.707 11.487 2.542 18.133 1.888z" fill="#81391c"/><path d="m712.997 668.459c-21.638-12.552-47.386-27.328-72.423-19.463 33.361 8.492 67.557 31.627 88.998 55.004 8.217 8.961 14.453 18.406 18.242 28.123 2.578 6.619 9.586 8.216 17.604 1.275 18.768-16.252 25.143-47.219 23.771-73.535-1.501 2.441-3.144 4.848-5.118 7.174-19.141 22.545-49.367 14.014-71.074 1.422z" fill="#bebebe"/><path d="m596.566 779.46c-30.304 56.349-133.629-.88-108.014-57.665-6.5 6.232-12.303 12.947-16.41 20.346-23.807 42.892 49.936 94.84 88.483 96.498 21.715.934 29.25-10.886 32.843-30.771 1.704-9.425 2.548-18.899 3.098-28.408z" fill="#bebebe"/><path d="m460.332 742.531c7.152-15.568 21.063-28.064 34.199-39.23 24.447-20.779 50.073-39.849 77.923-55.775 2.466-1.411 4.401-2.154 5.815-2.995-42.254-1.444-76.461 44.173-118.579 43.091-24.287-.623-36.273-28.492-38.964-48.877-2.343-17.773 2.565-34.801 7.786-51.689-13.163 28.637-17.025 62.279-9.683 92.789 5.769 23.96 14.963 55.344 41.503 62.686z" fill="#bebebe"/><path d="m731.668 781.992c7.344-10.406 10.063-20.805 9.529-30.84-14.871 38.168-60.619 72.281-100.943 54.023-20.646-9.349-22.718-38.197-23.402-57.512-.543-15.307-1.32-29.538-3.166-43.938-1.443 21.693-5.023 42.797-5.496 51.674-.721 13.469.097 35.128-3.443 54.277 26.814 52.564 103.034 6.164 126.921-27.684z" fill="#bebebe"/><path d="m684.399 574.906c-5.186 8.402-4.962 10.555 13.333 7.16 24.221-4.488 50.268-1.929 69.682 10.141-.686-13.475-3.469-28.243-8.989-41.011-10.437 11.714-29.53 12.251-47.72 14.151-9.654 1.008-18.695 4.214-26.306 9.559z" fill="#bebebe"/><path d="m590.805 613.094c-1.658-2.248-2.939-4.639-3.982-7.117 1.627 12.018 3.548 23.824 5.518 35.156 6.648.131 11.439 3.324 14.801 8.627 22.035-11.596 39.324-36.313 53.721-58.25-8.953 9.461-18.66 18.057-28.549 25.174-13.875 9.986-30.666 11.105-41.509-3.59z" fill="#bebebe"/><path d="m468.677 542.24c32.745-3.063 70.102 20.42 96.073 46.301 8.854 8.824 11.242 9.05 10.074-6.453-.07-.942-.121-1.887-.189-2.828-2.428-4.967-5.585-9.596-8.537-13.414-10.889-14.086-26.191-22.003-43.033-26.541-9.377-2.527-18.998-4.146-28.446-6.395-5.063-1.205-9.499-3.549-13.375-6.983-2.623-2.327-3.66-5.04-3.85-7.886-6.732 7.458-10.953 15.78-8.717 24.199z" fill="#bebebe"/><path d="m648.674 585.675c15.338-15.565 32.582-37.654 33.92-60.057 1.527-25.606-31.463-25.944-45.781-13.649-9.57 8.219-13.033 22.49-15.67 34.188-1.619 7.186-3.076 15.255-3.438 23.27-1.25 27.944 14.832 32.632 30.969 16.248z" fill="#efefef"/><path d="m542.618 602.414c-11.642-9.293-26.692-15.762-38.921-19.709-61.942-20-84.385 45.52-24.76 60.902 14.084 3.632 29.483 1.555 43.295-2.156 5.598-1.506 12.125-3.504 18.164-6.318 12.554-5.854 20.379-18.221 2.222-32.719z" fill="#efefef"/><path d="m561.41 679.221c-32.039 21.654-72.382 70.521-27.705 85.281 18.706 6.182 34.689-14.232 40.525-29.182 6.555-16.785 7.315-29.674 7.98-47.674.436-11.765-4.013-19.769-20.8-8.425z" fill="#efefef"/><path d="m677.439 694.138c-5.49-4.546-11.417-8.925-17.754-12.47-20.502-11.461-24.498-.787-25.254 15.068-1.018 21.381 3.354 43.359 11.615 62.718 8.611 20.173 31.102 31.022 51.459 20.024 19.615-10.6 15.639-37.747 7.615-54.061-6.116-12.438-17.186-22.589-27.681-31.279z" fill="#efefef"/><path d="m742.811 607.604c-14.758-5.813-33.938-6.322-50.602-1.76-17.453 4.775-8.047 15.492 2.541 20.984 6.826 3.543 13.104 8.176 19.326 12.66 8.07 5.815 15.447 12.311 23.993 17.492 14.37 8.709 37.208 10.967 39.341-11.494 1.881-19.775-18.826-31.67-34.599-37.882z" fill="#efefef"/><path d="m548.618 530.58c11.69-3.652 15.304-20.725 15.071-31.412-.102-4.599-2.461-9.966-7.166-11.513-7.391-2.427-30.363 1.284-30.189 20.302.088 9.68 10.66 26.254 22.284 22.623z" fill="#efefef"/><path d="m721.887 554.887c5.344 1.25 12.721 1.258 16.24-3.727 2.629-3.73 1.807-8.556-.086-12.396-5.1-10.338-17.131-11.533-24.16 4.023-2.91 6.447 2.084 10.711 8.006 12.1z" fill="#efefef"/><path d="m281.027 301.687c10.914 4.102 22.869 5.066 34.95 3.927 4.519 22.008 10.468 43.289 28.057 59.247 18.796 17.054 47.616 24.062 72.429 22.778 32.688-1.691 62.508-19.915 86.848-43.548 27.484 22.499 65.276 33.294 100.053 28.218 11.816-1.727 24.898-4.836 34.777-11.931-12.195 1.619-27.326-1.147-35.906.121-38.58 5.708-75.438-7.138-101.432-36.132-31.631 32.384-81.977 67.118-128.043 48.362-34.082-13.876-50.048-43.558-49.795-76.062-13.757 2.974-27.843 4.913-41.938 5.02z" fill="#584ab9"/><path d="m672.615 409.01c-25.875-10.145-54.242-14.76-81.869-16.422-55.668-3.347-113.354 10.286-160.245 40.799-79.523 51.747-114.375 150.535-109.66 242.275 1.643 31.918 8.82 64.099 22.797 92.871 12.157 3.443 24.545 6.26 37.082 8.439-28.29-50.576-37.641-110.223-29.904-170.555.028-.232.098-.439.15-.654.006-.248 0-.49.039-.748 14.84-98.213 94.947-171.933 189.559-194.779 50.486-12.191 101.268-9.945 147.701 5.502-5.21-2.469-10.49-4.704-15.65-6.728z" fill="#584ab9"/><path d="m190.318 565.992c22.616 34.151 53.518 30.102 93.34-17.461 19.965-23.85 37.392-56.291 45.747-89.418 9.085-36.02 4.599-75.459-31.509-96.479-79.891-46.507-170.529 108.297-107.578 203.358z" fill="#9386f1"/><path d="m373.187 394.91c-27.59-11.172-28.086 13.614-23.67 26.343 1.67 4.801 4.35 9.053 8.529 11.947 10.316 7.142 27.639-2.127 31.359-13.119 3.919-11.57-6.38-21.188-16.218-25.171z" fill="#9386f1"/><path d="m850.522 615.799c2.438 44.725-6.872 89.617-28.089 129.117-38.166 71.043-113.465 116.789-192.453 126.727-80.477 10.123-159.137-21.969-208.063-87.109-48.727-64.881-58.705-151.115-44.949-230.869-7.414 16.672-12.779 34.551-15.703 53.522-7.568 60.14 1.479 121.726 32.559 172.506.686.562 1.125 1.29 1.325 2.11 8.995 14.326 19.669 27.818 32.368 40.084 56.492 54.568 138.393 78.769 216.01 66.453 94.39-14.975 175.309-74.537 202.12-168.633 10.55-37.022 11.669-74.799 4.366-110.658.18 2.248.385 4.49.509 6.75z" fill="#df3f58"/><path d="m772.951 477.671c-69.756-60.881-159.597-81.531-248.266-51.915-49.848 16.648-93.705 46.666-123.808 87.113 1.173-.83 2.521-1.449 3.513-2.497 103.934-109.534 329.125-128.491 439.002 73.489-13.003-40.177-36.946-76.955-70.441-106.19z" fill="#ff9780"/><g fill="#68182b"><path d="m211.884 354.183c-40.166 39.46-60.476 93.408-62.766 149.198-2.068 50.381 10.283 108.15 41.928 148.373.471.6 1.254-.162.98-.756-10.383-22.619-20.787-45.268-27.559-69.277-6.907-24.48-9.927-49.952-9.549-75.357.836-55.985 22.467-108.524 57.246-151.901.158-.196-.094-.464-.28-.28z"/><path d="m195.455 657.352c-.309-.301-.715.014-.66.385 1.063 7.422 7 16.182 14.143 18.705.324.115.633-.298.447-.58-2.16-3.276-4.657-6.137-6.982-9.287-2.261-3.065-4.215-6.552-6.948-9.223z"/><path d="m418.808 509.5c-20.967 20.197-33.883 46.73-41.738 74.548-9.702 34.368-11.787 74.845-.924 109.058.242.761 1.445.648 1.422-.193-.975-35.502-3.877-69.377 4.354-104.387 6.738-28.661 20.201-54.92 37.248-78.746.156-.22-.178-.458-.362-.28z"/><path d="m780.951 806.346c21.793-21.01 36.275-45.053 47.422-73.191 10.393-26.238 18.523-56.719 15.652-85.176-.029-.289-.5-.41-.551-.074-8.299 56.65-26.73 112.473-63.314 157.652-.445.548.26 1.301.791.789z"/><path d="m776.91 809.936c-5.1 2.613-8.316 7.74-12.138 11.828-.37.395.099 1.018.578.748 2.97-1.67 5.522-3.04 7.909-5.515 1.923-1.997 3.258-4.13 4.037-6.763.071-.232-.187-.399-.386-.298z"/><path d="m576.813 669.969c-36 14.545-69.021 44.15-93.737 73.707-.564.676.32 1.6.979.979 28.543-26.994 59.903-52.789 93.139-73.785.452-.286.158-1.12-.381-.901z"/><path d="m558.584 615.33c-13.676-18.435-30.975-32.42-52.248-41.58-14.895-6.414-32.721-10.709-48.23-4.019-.325.14-.167.712.183.675 38.467-4.083 71.309 22.834 99.209 45.764.56.458 1.588-.164 1.086-.84z"/><path d="m596.066 585.639c.141.643 1.064.458 1.098-.148.773-14.24.156-28.363.56-42.616.435-15.324 4.219-28.933 7.575-43.669.061-.262-.268-.488-.467-.271-8.89 9.607-10.373 25.045-11.705 37.492-1.781 16.61-.643 32.992 2.939 49.212z"/><path d="m596.768 592.361c-.92 4.277-.701 9.52.826 13.604.152.406.676.406.827 0 1.558-4.166 1.638-9.769-.632-13.736-.232-.406-.919-.348-1.021.132z"/><path d="m694.242 702.785c-14.861-12.354-33.713-26.699-52.64-31.861-.214-.059-.401.228-.224.384 14.077 12.519 31.402 21.861 46.131 33.759 16.163 13.057 31.469 29.1 41.957 47.135.367.633 1.29.199 1.143-.48-4.515-20.888-20.512-35.755-36.367-48.937z"/><path d="m682.789 606.254c-.291.152-.172.686.174.645 11.451-1.328 22.257-2.686 33.82-1.98 12.336.752 24.742 3.73 36.955 5.638.533.085.945-.642.394-.932-20.714-10.952-49.857-14.578-71.343-3.371z"/><path d="m759.824 611.604c-.663-.311-1.334.467-.797 1.031 2.793 2.957 6.104 4.906 10.182 5.564.438.07.689-.37.416-.715-2.562-3.242-6.225-4.205-9.801-5.88z"/></g></g></g></svg>