<svg id="Fruit" height="512" viewBox="0 0 992.13 992.13" width="512" xmlns="http://www.w3.org/2000/svg"><g><path d="m95.617 591.348c13.907 10.482 29.491 18.967 46.95 25.52-4.853 7.334-7.352 15.727-7.121 24.678.491 19.023 13.162 34.932 37.658 47.279 21.539 10.863 44.959 15.412 67.752 18.021 13.169 21.504 28.497 35.574 46.606 42.838 10.386 4.164 21.604 6.277 33.348 6.277h.002c10.881 0 21.326-1.74 31.329-4.32 6.103 16.104 15.616 31.066 29.013 45.65 32.165 35.008 77.249 49.23 109.405 55 11.356 2.039 22.828 3.072 34.098 3.072 75.48 0 134.992-45.016 151.618-114.678 3.657-15.328 4.652-30.518 2.98-45.314 2.865-3.357 5.587-6.834 8.166-10.432 32.292 39.607 77.292 62.316 126.152 62.316 6.247 0 12.613-.375 18.92-1.115 61.388-7.205 104.413-60.373 102.307-126.422-2.269-71.033-59.88-120.908-108.524-142.032-11.397-4.951-23.178-8.705-34.93-11.167 1.111-10.702 1.199-21.39 1.022-31.72l-.014-.928c-.046-2.658-.093-5.616-.23-8.775 13.43-3.688 27.434-6.926 42.383-9.806 16.231-3.159 29.205-11.837 35.594-23.811 5.615-10.521 5.955-22.863.954-34.75-7.646-18.182-24.762-28.608-46.956-28.608-5.868 0-12.15.671-19.532 2.118-30.702 6.464-60.779 15.911-89.613 28.142-25.241-22.78-47.149-49.013-65.255-78.149-8.445-13.591-15.018-28.469-21.979-44.219-7.66-17.338-15.579-35.264-26.521-52.395-18.739-29.338-46.718-46.853-74.843-46.853-4.585 0-9.213.452-13.761 1.347-30.035 5.916-52.93 33.413-54.435 65.385-1.652 35.105 9.235 69.195 32.454 101.895-5.663-2.021-11.447-3.992-17.358-5.911-36.492-11.856-75.033-19.437-114.556-22.53-11.373-.891-22.573-1.688-34.53-1.688-31.545 0-55.375 6.132-72.845 18.747-11.216 8.098-18.052 19.399-19.77 32.683-3.163 24.492 12.243 46.279 19.013 54.507 24.327 29.579 53.125 45.45 78.859 56.73-12.08 6.327-23.951 14.775-35.538 25.301-24.689-1.197-51.902-2.395-78.687-2.395-19.442 0-37.006.613-53.698 1.874-32.323 2.441-77.487 9.439-96.452 41.897-11.782 20.175-16.047 51.602 30.565 86.741z" fill="#fff"/><g><path d="m816.761 499.591c-17.104-7.43-35.748-12.021-53.904-12.576 5.494-16.379 5.922-34.957 5.634-51.81-.13-7.621-.206-18.122-2.644-27.218 21.03-6.72 42.413-11.961 64.099-16.139 13-2.53 25.31-11.087 19.095-25.86-6.746-16.042-25.212-15.185-39.555-12.377-34.267 7.212-67.297 18.206-98.709 32.743-32.074-26.671-59.345-58.082-81.362-93.518-19.072-30.693-28.845-65.839-48.343-96.361-13.518-21.164-36.885-40.238-63.859-34.93-20 3.939-34.251 23.036-35.194 43.075-2.664 56.623 35.07 103.393 76.438 137.628 32.671 27.034 72.98 51.829 114.602 63.725-12.931 7.512-25.519 15.682-37.745 24.479-39.79-55.585-106.044-87.663-169.436-108.259-35.295-11.468-72.059-18.54-109.036-21.434-28.271-2.212-67.252-4.921-91.534 12.613-18.94 13.674-8.104 38.296 3.708 52.655 20.541 24.974 45.617 39.757 75.092 52.216 52.384 22.146 110.369 37.823 166.865 45.85-6.452 10.096-11.613 21.222-15.643 32.9-14.459-17.58-34.279-26.149-57.801-28.143-17.295-1.465-24.613-13.037-39.904-18.435-9.888-3.491-19.06-3.098-29.265-1.201-25.154 4.678-47.081 19.983-65.596 38.56-.446-.14-.918-.245-1.446-.271-45.87-2.251-92.149-4.443-138.013-.979-24.139 1.822-63.918 6.662-77.627 30.128-13.353 22.856 6.962 42.54 24.316 55.622 30.557 23.033 68.369 32.764 106.118 36.193-2.629.799-5.264 1.572-7.923 2.275-9.716 2.564-19.483 3.295-28.943 7.01-9.96 3.912-20.229 11.402-19.924 23.174.333 12.903 14.512 21.518 24.537 26.572 21.911 11.049 47.466 14.635 71.72 16.834 9.285 17.914 22.178 35.723 40.777 43.184 23.362 9.371 47.57 2.674 70.273-5.492 2.365 6.436 4.86 12.768 7.041 18.953 5.362 15.213 14.222 28.342 25.071 40.152 24.536 26.703 61.057 41.379 96.035 47.654 71.309 12.793 140.742-20.205 158.268-93.645 4.032-16.893 3.995-32.805.759-47.408 14.208-14.137 24.659-31.043 31.604-49.479 27.8 54.279 80.572 91.648 144.305 84.166 52.033-6.107 82.813-51.971 81.219-101.938-1.77-55.401-45.987-99.963-94.17-120.888zm-145.565-17.496c-3.383-5.989-7.098-11.747-11.126-17.239 11.509-9.98 23.795-18.506 36.725-26.123-10.262 13.39-19.105 27.954-25.599 43.362z" fill="#68182b"/><path d="m585.202 349.354c-40.522-28.001-78.952-66.784-90.58-116.071-3.602-15.263-2.771-31.761 3.436-43.784 10.669-20.692 14.997-4.394 20.774 10.369 5.563 14.218 12.622 27.895 19.229 41.713 11.192 23.408 25.539 45.601 41.402 66.098 16.665 21.536 34.588 42.063 55.094 60.034 9.906 8.683 21.049 18.098 32.971 25.467-29.416-9.965-57.177-26.451-82.326-43.826z" fill="#83e1c4"/><path d="m630.971 356.045c-18.533-16.894-34.81-36.634-49.879-56.615-14.413-19.111-26.898-39.629-37.574-61.038-6.099-12.23-12.368-24.548-17.502-37.26-10.447-25.87-9.629-32.168 10.624-28.077 32.623 6.587 49.292 51.236 60.6 78.234 22.842 54.533 58.103 101.796 103.172 140.015-8.581 4.237-12.939 5.331-20.791 1.471-17.952-8.823-34.719-24.03-48.65-36.73z" fill="#83e1c4"/><path d="m812.287 363.769c8.295-1.625 18.479-3.533 25.097 3.112 2.746 2.759 3.908 7.407 1.277 10.563-2.508 3.012-7.936 3.553-11.517 4.248-22.121 4.264-43.931 9.614-65.372 16.531-1.514-2.38-3.378-4.435-5.678-6.017-9.702-6.668-26.54 9.913-35.79 19.723-2.067 2.19-9.722 7.272-11.223 8.046-19.905 10.222-38.476 22.014-55.505 36.637-4.657-5.556-9.651-10.778-15.006-15.577 52.036-37.865 110.641-63.995 173.717-77.266z" fill="#aa8053"/><path d="m284.114 315.57c26.919-9.546 61.453-5.701 89.279-2.75 32.422 3.441 64.385 11.31 95.34 21.367 51.214 16.639 105.474 42.836 142.781 83.476 6.742 7.348 2.003 6.64-3.964 4.788-14.5-4.494-29.896-4.253-44.416.072-89.263-31.638-184.636-48.241-271.636-86.083-18.755-8.158-27.066-13.886-7.384-20.87z" fill="#83e1c4"/><path d="m504.201 452.522c-41.276-6.675-82.279-18.033-121.775-31.143-25.654-8.518-51.138-18.617-74.087-33.049-12.438-7.825-32.426-25.519-39.364-42.073-5.195-12.395.262-12.861 13.766-6.816 86.472 38.747 181.441 55.735 270.892 86.482-11.27 4.892-21.705 12.307-30.362 21.915-5.339 5.923-8.705 6.36-19.07 4.684z" fill="#83e1c4"/><path d="m101.037 516.24c2.162-1.926 4.81-3.806 8.002-5.631 23.994-13.715 55.272-14.164 82.122-14.949 34.085-.999 68.268.359 102.326 2-7.896 8.885-15.1 18.174-21.538 27.207-2.633 3.697-5.146 7.504-7.524 11.402-6.227 10.213-9.659 12.713-21.67 11.504-22.126-2.221-44.989-1.566-66.921-3.893-23.354-2.48-47.669-6.113-69.623-15.135-10.976-4.511-11.388-6.984-5.174-12.505z" fill="#83e1c4"/><path d="m133.613 574.633c-14.471-7.615-33.471-20.977-38.975-35.08-2.493-6.393-.786-9.041 9.085-5.012 18.05 7.365 37.484 11.121 56.801 13.711 30.791 4.127 63.091 2.205 93.657 7.344-6.422 13.971-11.05 28.729-13.396 43.758-37.447-1.02-73.666-7.092-107.172-24.721z" fill="#83e1c4"/><path d="m176.108 630.557c6.101-3.752 15.031-5.729 19.22-6.725 15.016-3.568 29.423-7.443 44.05-12.096-.483 6.973-.467 13.967.129 20.927.942 10.935-.442 10.61-12.526 10.653-15.869.059-31.688-.204-47.396-2.34-10.878-1.47-12.609-4.8-3.477-10.419z" fill="#83e1c4"/><path d="m196.486 661.561c-4.776-1.758-12.1-4.699-17.86-8.855-11.063-7.963-6.998-6.293 3.353-5.063 19.946 2.371 40.062 2.007 60.235 1.892 1.646 7.187 3.884 14.302 6.933 21.267.355.813.731 1.641 1.103 2.467-18.312-1.98-36.409-5.32-53.764-11.708z" fill="#83e1c4"/><path d="m363.184 712.104c-19.396 6.979-39.725 13.111-60.133 6.822-25.433-7.842-40.631-40.404-48.298-63.354-15.124-45.273 2.804-92.438 29.166-129.425 18.35-25.745 44.463-52.948 75.031-63.375 12.922-4.405 25.685-6.956 38.452-.915 7.973 3.774 13.852 10.925 22.038 14.271 11.155 4.558 23.215 3.198 34.911 5.922 15.834 3.688 28.375 14.133 37.109 27.413-7.773 29.006-8.891 60.344-4.631 87.709-19.692 1.406-39.055 5.561-57.606 14.035-15.676 7.16-28.051 18.749-41.25 29.492-12.342 10.045-29.479 21.055-30.252 38.887-.472 10.943 2.012 21.842 5.463 32.518z" fill="#b1d045"/><path d="m643.82 727.646c-11.424 72.016-80.389 100.896-146.244 90.982-30.729-4.625-60.438-17.68-84.049-37.883-25.643-21.938-42.717-62.578-45.504-95.836-1.695-20.23 25.21-34.664 38.448-45.996 10.706-9.164 22.265-16.388 35.297-21.771 32.78-13.538 70.268-11.393 104.679-6.908 60.189 9.223 107.576 53.096 97.373 117.412z" fill="#b1d045"/><path d="m660.358 663.574c-7.96 11.469-10.003 10.482-15.003.711-17.523-34.251-54.436-57.885-96.323-64.246-.268-.041-.518-.034-.773-.041-.21-.049-.405-.117-.627-.145-11.815-1.563-23.682-2.689-35.505-3.082-13.396-.44-15.287.359-16.575-13.84-4.023-44.209 7.24-93.218 35.164-127.647 13.326-16.429 37.08-25.987 57.826-26.471 19.189-.448 36.007 12.788 48.902 25.5 52.109 51.369 65.193 148.351 22.914 209.261z" fill="#b1d045"/><path d="m677.54 494.449c.119-.232.245-.457.34-.721 7.547-21.271 20.244-40.044 34.484-57.387 2.065-2.516 17.421-19.771 28.639-28.704 11.31-9.006 12.879-4.646 15.236 4.449 2.59 10.005 1.802 22.354 1.777 31.294-.037 14.232-.825 30.362-6.375 43.807-24.976 1.654-48.15 11.762-64.01 33.674-2.725-9.07-6.105-17.91-10.091-26.412z" fill="#83e1c4"/><path d="m819.186 712.857c-54.414 3.664-97.919-30.824-122.503-75.85-5.674-10.389-6.021-14.199-3.936-24.934 4.332-22.299 4.276-45.797.239-68.627-1.913-10.781-.217-13.139 7.561-21.982 31.323-35.605 86.082-24.663 120.349-8.502 42.373 19.986 75.703 59.984 79.503 107.52 4.004 50.129-32.089 89.069-81.213 92.375z" fill="#b1d045"/><path d="m573.041 591.961c-31.604-14.901-50.844-41.294-54.061-76.113-1.444-15.646 1.419-31.602 5.307-46.705.697-2.711 1.644-5.791 2.707-8.969-25.171 34.084-35.28 80.589-31.442 122.758 1.288 14.199 3.18 13.399 16.575 13.84 11.823.393 23.689 1.52 35.505 3.082.222.027.417.096.627.145.256.007.506 0 .773.041 41.888 6.361 78.8 29.995 96.323 64.246 5 9.771 7.043 10.758 15.003-.711 26.805-38.617 31.33-91.721 17.791-138.521-1.106 21.203-6.605 42.28-17.964 59.327-19.898 29.857-59.759 20.492-87.144 7.58z" fill="#abab38"/><path d="m892.603 587.191c2.142 23.434-1.398 46.434-14.939 68.006-17.784 28.332-48.728 35.982-79.964 29-51.684-11.547-85.61-52.34-101.854-99.801-.337 9.341-1.337 18.609-3.098 27.678-2.086 10.734-1.738 14.545 3.936 24.934 24.584 45.025 68.089 79.514 122.503 75.85 49.124-3.307 85.218-42.246 81.213-92.375-.929-11.61-3.644-22.761-7.797-33.292z" fill="#abab38"/><path d="m303.051 718.926c20.408 6.289 40.737.156 60.133-6.822-3.45-10.676-5.935-21.574-5.462-32.518.773-17.832 17.91-28.842 30.252-38.887 13.199-10.743 25.574-22.332 41.25-29.492 18.552-8.475 37.914-12.629 57.606-14.035-1.482-9.527-2.269-19.553-2.394-29.775-25.63-10.314-57.544 2.361-79.839 14.971-15.267 8.637-28.509 19.75-40.993 31.988-12.054 11.818-22.174 25.396-34.356 37.057-12.048 11.531-28.863 19.327-44.381 9.898-11.404-6.93-17.875-21.07-22.213-33.082-6.373-17.646-7.138-35.594-4.767-53.367-9.347 25.859-12.185 53.615-3.135 80.71 7.668 22.949 22.866 55.512 48.299 63.354z" fill="#abab38"/><path d="m643.82 727.646c.946-5.971 1.396-11.764 1.385-17.371-1.242 6.533-3.306 12.912-5.937 19.008-5.669 13.139-15.194 24.223-26.121 33.287-23.338 19.357-54.803 28.014-84.621 29.289-67.379 2.881-140.281-40.813-160.462-106.572 2.884 33.189 19.917 73.605 45.463 95.459 23.611 20.203 53.32 33.258 84.049 37.883 65.856 9.914 134.82-18.967 146.244-90.983z" fill="#abab38"/><path d="m289.52 576.184c-10.972 43.313 15.869 59.688 35.668 26.647 13.23-22.075 28.98-36.747 48.478-53.612 9.267-8.016 20.652-15.246 27.631-25.136 18.418-26.091 4.149-53.209-32.941-42.638-34.552 9.853-69.533 58.024-78.836 94.739z" fill="#d7e338"/><path d="m593.956 650.772c-19.378-9.964-41.122-16.151-62.572-19.608-23.235-3.746-47.274-3.09-70.275 1.816-12.154 2.592-25.978 7.215-37.529 14.549-21.468 13.629-23.618 28.867.478 39.553 44.491 19.73 126.42 35.674 175.566 23.965 45.824-10.916 30.421-41.727-5.668-60.275z" fill="#d7e338"/><path d="m657.119 546.835c-.078-21.59-8.865-42.489-18.792-61.243-6.615-12.498-14.683-24.968-26.364-33.354-19.021-13.658-30.673-4.527-26.448 28.815 3.752 29.626 19.043 70.967 33.567 89.935 4.968 6.486 17.023 20.021 26.779 13.904 12.121-7.602 11.305-25.466 11.258-38.057z" fill="#d7e338"/><path d="m812.382 530.353c-26.007-13.88-84.438-22.676-93.651 16.8-4.196 17.973 12.864 35.449 24.375 46.768 16.821 16.545 37.901 28.598 59.012 38.743 52.251 25.108 80.523 11.212 69.844-32.228-5.773-23.492-24.858-51.548-59.58-70.083z" fill="#d7e338"/><g fill="#39b487"><path d="m471.167 387.035c-65.454-17.546-130.438-33.304-193.692-57.671 3.287 2.197 8.139 4.516 14.024 7.076 87 37.842 182.373 54.445 271.636 86.083 3.151-.939 6.35-1.647 9.565-2.194-2.156-.942-4.326-1.896-6.403-2.769-30.75-12.905-62.968-21.907-95.13-30.525z"/><path d="m245.393 579.16c-14.424 1.834-29.016 2.459-43.351 2.264-27.854-.378-62.258-6.332-88.801-19.9 6.634 5.211 13.946 9.727 20.372 13.109 33.506 17.629 69.725 23.701 107.173 24.721 1.062-6.807 2.654-13.545 4.607-20.194z"/><path d="m104.769 528.133c.465.201.93.403 1.442.613 21.954 9.021 46.269 12.654 69.623 15.135 21.932 2.326 44.795 1.672 66.921 3.893 12.011 1.209 15.443-1.291 21.67-11.504 2.115-3.467 4.373-6.832 6.693-10.143-53.956 15.996-109.927 12.922-166.349 2.006z"/><path d="m534.212 219.527c3.032 6.338 6.189 12.613 9.306 18.864 10.676 21.409 23.161 41.927 37.574 61.038 15.069 19.981 31.346 39.722 49.879 56.615 13.932 12.7 30.698 27.907 48.649 36.729 5.916 2.908 9.853 3.001 15.102 1.059-34.607-15.52-61.079-46.561-86.89-73.836-25.767-27.231-47.276-56.399-66.572-87.848-2.331-4.193-4.697-8.41-7.048-12.621z"/><path d="m634.557 367.712c-.362-.316-.71-.649-1.07-.969-12.42-4.498-24.732-8.979-36.638-15.575-15.995-8.863-30.614-20.193-44.2-32.354-24.202-21.662-41.929-47.906-55.626-76.738 13.878 45.125 50.1 80.963 88.18 107.277 25.148 17.375 52.91 33.861 82.325 43.825-11.923-7.368-23.065-16.783-32.971-25.466z"/><path d="m226.98 643.316c12.084-.043 13.469.281 12.526-10.653-.179-2.077-.203-4.163-.279-6.245-19.024 10.308-40.637 14.588-62.712 14.035.932.193 1.938.371 3.068.523 15.71 2.136 31.528 2.399 47.397 2.34z"/><path d="m503.593 435.894c-28.975-.859-57.718-4.76-86.102-10.507-41.569-8.415-86.181-21.962-121.926-46.557 4.568 3.86 9.016 7.138 12.773 9.501 22.949 14.432 48.433 24.531 74.087 33.049 39.496 13.109 80.499 24.468 121.775 31.143 10.365 1.676 13.73 1.238 19.068-4.684 4.342-4.82 9.133-9.084 14.252-12.758-11.262.701-22.542 1.15-33.927.813z"/><path d="m703.493 474.474c4.891-23.862 16.135-44.407 31.878-61.994-10.161 9.246-21.272 21.75-23.007 23.862-14.24 17.343-26.938 36.116-34.484 57.387-.095.264-.221.488-.34.721 3.986 8.502 7.366 17.342 10.092 26.412 3.974-5.49 8.406-10.236 13.212-14.299-.334-10.295.331-20.776 2.649-32.089z"/><path d="m185.578 656.828c3.962 2.023 7.93 3.637 10.908 4.732 17.354 6.389 35.451 9.729 53.763 11.707-.371-.826-.747-1.654-1.103-2.467-1.478-3.375-2.757-6.787-3.878-10.225-19.654 3.271-39.503.556-59.69-3.747z"/></g><path d="m252.351 559.941c.619-1.445 1.173-2.916 1.831-4.346-30.566-5.139-62.866-3.217-93.657-7.344-19.316-2.59-38.751-6.346-56.801-13.711-1.876-.766-3.371-1.221-4.686-1.523 18.027 15.191 45.052 18.898 67.384 21.893 28.723 3.852 57.471 2.008 85.929 5.031z" fill="#b4efd7"/><path d="m468.733 334.188c-30.955-10.058-62.918-17.926-95.34-21.367-27.826-2.951-62.36-6.796-89.279 2.75-4.897 1.738-8.058 3.398-9.758 5.038 28.83-2.424 57.454-3.575 86.447-.403 34.468 3.772 68.907 10.949 102.092 20.947 44.817 13.507 88.626 31.844 128.078 56.951-35.249-29.721-79.776-50.12-122.24-63.916z" fill="#b4efd7"/><path d="m597.239 251.289c-11.308-26.998-27.977-71.647-60.6-78.234-1.169-.236-2.257-.428-3.298-.592 36.239 19.553 51.21 67.135 68.09 102.402 20.01 41.81 44.763 87.982 88.874 108.235.467.214.952.407 1.426.612-40.927-36.82-73.138-81.443-94.492-132.423z" fill="#b4efd7"/><path d="m557.551 286.263c14.886 23.04 33.898 50.248 58.939 64.301-13.236-13.469-25.448-27.921-37.027-42.886-15.863-20.497-30.21-42.689-41.402-66.098-6.606-13.818-13.666-27.495-19.229-41.713-1.641-4.194-3.167-8.482-4.753-12.041 9.579 34.678 23.967 68.256 43.472 98.437z" fill="#b4efd7"/><path d="m758.017 443.381c.024-8.939.813-21.289-1.777-31.294-.414-1.599-.807-3.04-1.229-4.299 1.145 21.231-4.348 42.271-10.663 62.5-1.991 6.376-4.291 12.662-6.882 18.825 4.634-.969 9.371-1.606 14.176-1.926 5.549-13.444 6.337-29.574 6.375-43.806z" fill="#b4efd7"/><path d="m191.161 495.66c-26.85.785-58.128 1.234-82.122 14.949-.883.504-1.627 1.025-2.427 1.537 31.893-11.248 68.702-11.563 101.452-9.81 25.601 1.368 50.998 4.091 76.476 5.948 2.884-3.574 5.846-7.135 8.947-10.625-34.058-1.639-68.241-2.998-102.326-1.999z" fill="#b4efd7"/><path d="m181.979 647.643c-.915-.109-1.761-.221-2.571-.33 9.752 3.514 20.407 4.488 30.648 5.662 10.925 1.252 22.069 1.277 33.123.406-.333-1.279-.671-2.561-.965-3.847-20.174.115-40.289.48-60.235-1.891z" fill="#b4efd7"/><path d="m553.632 425.924c-89.45-30.747-184.42-47.735-270.892-86.482-2.61-1.168-4.91-2.086-6.899-2.728 15.522 11.764 35.073 19.541 52.109 27.395 26.52 12.225 53.717 22.559 81.617 31.167 28.902 8.919 58.417 15.828 88.169 21.226 17.029 3.087 33.481 7.481 49.795 12.471 2.012-1.073 4.026-2.149 6.101-3.049z" fill="#b4efd7"/><path d="m213.538 624.719c8.9-1.336 17.548-3.295 25.63-6.537.051-2.148.062-4.299.21-6.445-14.627 4.652-29.034 8.527-44.05 12.096-3.157.752-9.006 2.062-14.309 4.267 10.94.14 22.416-1.864 32.519-3.381z" fill="#b4efd7"/><path d="m758.422 394.218c1.25 1.203 2.398 2.51 3.351 4.005 21.441-6.917 43.251-12.268 65.372-16.531 3.581-.695 9.009-1.236 11.517-4.248 2.631-3.155 1.469-7.804-1.277-10.563-.099-.099-.214-.156-.314-.251-4.486 12.186-30.84 16.488-40.861 18.486-12.792 2.548-25.356 5.545-37.788 9.102z" fill="#865725"/><path d="m720.305 411.929c2.087-2.216 4.576-4.776 7.269-7.336-24.467 9.697-47.237 22.722-68.65 38.019-3.354 2.396-7.047 5.063-10.752 7.973 1.833 1.978 3.668 3.954 5.406 6.027 17.029-14.623 35.6-26.415 55.505-36.637 1.5-.774 9.154-5.856 11.222-8.046z" fill="#865725"/><path d="m286.42 538.736c-15.925 25.549-28.495 56.663-28.717 87.082-.004.682 1.034.836 1.195.162 6.896-28.887 15.784-55.859 30.448-81.824 6.813-12.063 14.761-23.437 23.272-34.355 6.496-8.332 14.516-15.212 21.203-23.316.21-.257-.049-.627-.36-.465-19.855 10.388-35.526 34.238-47.041 52.716z" fill="#68182b"/><path d="m521.405 616.07c-20.542-1.449-45.314-1.447-64.188 7.927-.307.152-.074.556.216.511 20.421-3.164 39.971-5.225 60.678-3.963 21.577 1.316 42.797 6.148 63.899 10.551.594.125 1.022-.721.43-1.022-18.894-9.687-40.039-12.523-61.035-14.004z" fill="#68182b"/><path d="m671.084 592.643c0 .654 1.03.828 1.164.158 7.458-37.685-3.841-87.264-29.886-116.18-.195-.216-.514.06-.389.301 9.285 17.576 17.519 34.83 22.605 54.146 5.265 19.986 6.516 40.973 6.506 61.575z" fill="#68182b"/><path d="m735.287 510.116c-.413.134-.355.79.104.776 13.195-.392 26.305-.246 39.399 1.592 13.201 1.851 25.983 6.002 38.934 9.005.535.124.823-.576.368-.872-21.295-13.907-54.576-18.34-78.805-10.501z" fill="#68182b"/><path d="m819.04 521.795c-.175.041-.288.283-.177.438 1.096 1.521 3.036 3.148 4.994 2.976.304-.026.58-.296.475-.626-.651-2.058-3.241-3.257-5.292-2.788z" fill="#68182b"/><path d="m595.224 635.179c-2.553-1.419-4.826-2.413-7.718-2.817-.35-.049-.541.357-.241.57 3.62 2.58 8.074 7.111 12.797 7.055.337-.004.625-.412.411-.719-1.331-1.907-3.25-2.979-5.249-4.089z" fill="#68182b"/></g></g></svg>