<svg id="Fruit" height="512" viewBox="0 0 992.13 992.13" width="512" xmlns="http://www.w3.org/2000/svg"><g><path d="m869.095 731.736c4.707 0 10.352-.152 16.498-1.285 10.639-1.959 19.363-8.035 24.572-17.105 5.906-10.285 6.677-24.061 2.064-36.852-15.906-44.104-67.385-63.838-92.128-73.322-2.438-.934-4.88-1.832-7.321-2.697 46.744-90.81 34.686-204.133-32.742-274.988-43.868-46.097-109.588-73.617-175.803-73.617-19.188 0-37.6 2.298-54.977 6.798 2.162-5.311 3.147-10.881 2.85-16.466-.55-10.309-5.507-19.783-13.959-26.683-7.956-6.491-17.706-9.923-28.196-9.923-11.096 0-22.475 3.893-32.212 11.09-4.215 3.172-8.341 6.573-12.446 10.264-3.724-1.008-7.595-1.913-11.635-2.717-5.805-10.057-14.162-19.868-25.265-29.705-33.471-29.65-78.247-45.324-129.485-45.324-20.759 0-41.726 2.622-62.317 7.794-19.73 4.957-40.125 13.151-64.224 25.816-18.474 9.707-41.466 21.785-55.754 42.509-9.974 14.467-7.36 27.125-4.916 33.382 7.995 20.461 32.662 26.037 47.4 29.367 1.164.264 2.22.496 3.12.714-20.355 17.741-38.781 39.898-56.307 67.477-32.216 50.701-30.817 115.876-27.115 150.214 10.371 96.182 95.955 204.945 205.082 217.168 31.529 63.162 94.604 107.438 168.02 116.926 12.091 1.561 24.347 2.355 36.427 2.355 44.798 0 86.954-10.561 122.936-30.674 20.193 12.313 40.698 18.33 62.29 18.33 8.973 0 18.349-1.053 27.87-3.131 9.207-2.008 18.212-4.135 27.116-6.238 30.845-7.289 59.977-14.174 91.289-14.174 2.049 0 4.109.029 5.826.076.945.041 1.893.063 2.838.063 17.803 0 32.358-7.992 39.928-21.918 7.619-14.01 7.473-34.846-15.014-52.063 2.029-1.139 4.416-1.488 10.034-1.488z" fill="#fff"/><g><path d="m889.765 684.596c-11.371-31.527-49.293-48.037-78.209-59.123-10.787-4.135-22.736-7.934-35.129-10.74 56.67-81.748 56.668-198.848-13.689-272.782-67.797-71.24-196.636-92.902-274.214-25.377-4.276-3.484-8.717-6.848-13.314-10.095 15.244-16.911 31.201-33.282 46.864-49.423 6.665-6.74 9.337-16.211.979-23.031-9.24-7.539-22.075-4.813-30.946 1.74-7.378 5.556-14.164 11.73-20.584 18.348-10.961-4.332-22.505-6.798-34.148-8.384-4.473-13.007-14.492-24.178-24.815-33.323-45.859-40.626-112.925-46.616-170.146-32.244-20.578 5.169-40.177 13.938-58.893 23.771-16.7 8.775-36.286 19.058-47.242 34.946-13.444 19.502 23.064 24.307 33.403 27.17 15.272 4.231 30.675 9.332 46.194 14.532-38.413 20.495-66.143 51.255-89.804 88.49-24.358 38.333-28.267 90.89-23.527 134.845 10.266 95.216 98.26 194.145 197.195 196.92 25.656 62.646 85.705 107.064 155.221 116.049 55.494 7.17 112.213-3.457 157.042-33.01.007.004.013.01.019.016 26.186 19.771 52.134 27.244 84.314 20.227 44.368-9.674 84.008-22.201 130.367-20.861 8.193.359 16.51-1.627 20.736-9.404 5.189-9.545-2.838-17.662-10.055-22.799-8.861-6.414-17.453-12.641-27.127-17.395 10.637-6.531 20.219-14.771 31.047-21.053 13.35-7.744 25.992-3.066 39.959-5.641 11.046-2.035 11.508-14.027 8.502-22.369zm-446.048-396.474c-4.121-2.03-8.277-3.984-12.468-5.862 2.267-2.512 4.184-5.258 5.607-8.29 4.972.909 9.853 2.08 14.659 3.683-2.643 3.456-5.256 6.935-7.798 10.469z" fill="#68182b"/><path d="m877.69 682.537c1.156 2.041 1.824 3.73 2.186 5.205-18.094-16.225-41.691-22.971-65.643-26.344 2.968-.645 5.893-1.543 8.655-2.383 5.737-1.742 11.312-3.83 17.159-5.197 2.564-.602 5.004-.684 7.402-.531 12.586 7.815 23.542 17.424 30.241 29.25z" fill="#b1d045"/><path d="m841.979 650.059c-1.953.299-3.875.697-5.691 1.116-5.842 1.354-11.479 3.685-17.148 5.593-5.729 1.926-11.469 2.387-17.318 3.145-3.102-.311-6.197-.596-9.271-.843-15.956-1.284-32.187-1.212-48.161.632 5.023-2.926 9.557-6.887 13.565-10.964 4.897-4.981 8.927-10.704 13.967-15.581 2.96-2.865 6.128-4.717 9.486-5.98 4.319 1.102 8.547 2.273 12.63 3.475 14.82 4.358 32.299 10.617 47.941 19.407z" fill="#b1d045"/><path d="m712.71 752.383c-1.137-.57-2.265-1.264-3.394-2.176-4.579-3.707-7.673-9.27-10.702-14.223-6.13-10.018-12.811-17.74-22.789-23.744 4.801-9.563 8.777-19.518 11.937-29.752 5.305-2.679 10.713-5.012 16.211-7.006 12.185-.404 22.756 4.775 32.015 15.113 6.779 7.57 12.592 15.336 20.493 21.898 11.954 9.932 28.388 16.455 43.933 14.84-25.002 15.438-56.79 24.804-87.704 25.05z" fill="#b1d045"/><path d="m755.802 778.764c-1.755-.486-3.506-1.078-5.254-1.844-7.164-3.139-11.889-9.482-15.527-16.203 14.215-2.111 28.256-5.889 41.708-10.99 4.529 8.369 8 18.074 15.956 23.693.129.092.273.172.404.262-12.571 1.021-24.958 2.761-37.287 5.082z" fill="#b1d045"/><path d="m708.259 790.131c-6.283 1.783-12.279 3.133-18.074 4.051-6.506-.395-12.891-1.787-18.901-4.943-13.785-7.23-19.502-22.129-23.295-36.25.946-1.053 1.901-2.092 2.829-3.17 24.872 11.932 52.38 14.9 79.482 11.598 4.511 8.16 10.809 14.52 18.21 18.779-13.379 2.757-26.735 6.103-40.251 9.935z" fill="#b1d045"/><path d="m674.159 715.508c13.188 8.799 17.523 21.092 27.357 33.037 1.008 1.225 2.141 2.469 3.369 3.648-16.635-.711-32.781-4.168-47.258-10.828 4.28-5.615 8.312-11.514 12.021-17.756 1.58-2.66 3.069-5.367 4.511-8.101z" fill="#b1d045"/><path d="m696.884 629.663c23.625-12.427 52.623-9.976 78.777-3.894-2.197 1.326-4.326 2.93-6.389 4.736-5.227 4.586-9.308 10.471-13.879 15.668-5.934 6.752-13.1 11.367-21.029 14.92-15.271 2.521-30.182 6.826-44.276 13.279 3.839-14.55 6.083-29.567 6.796-44.709z" fill="#b1d045"/><path d="m810.034 720.941c-11.432.578-22.362 1.242-33.69-2.646-11.868-4.07-21.647-12.963-29.877-22.125-8.337-9.275-19.857-20.689-32.346-23.996 19.04-5.49 38.948-7.506 58.963-7.465 14.872 3.393 25.991 11.357 39.136 21.457 8.162 6.273 17.988 13.16 28.445 15.375-10.98 4.986-20.656 12.342-30.631 19.4z" fill="#b1d045"/><path d="m759.344 353.656c66.353 69.727 59.243 184.326 5.819 258.836-23.281-3.934-47.393-3.631-68.01 5.346-.259-48.361-15.957-96.98-45.445-134.389-25.404-32.226-60.191-53.159-98.229-63.489-8.26-39.29-28.349-70.896-56.875-96.475 76.429-65.721 197.946-37.918 262.74 30.171z" fill="#ff801d"/><path d="m497.422 244.86c5.107-3.774 10.466-6.083 16.769-4.03 5.706 1.857 3.423 5.758.436 8.779-27.224 28.053-55.118 56.778-78.968 87.784-1.521 2.054-2.845 2.481-5.929 1.022-3.654-1.728-3.248-2.945-1.456-6.292 9.538-17.488 20.656-34.16 32.862-49.897 1.354.586 2.737 1.03 4.189 1.123 7.688.485 12.891-5.743 15.271-12.377 1.425-3.974.945-7.464-.76-10.315 5.509-5.643 11.284-11.05 17.586-15.797z" fill="#aa8053"/><path d="m383.477 294.768c-12.797 3.133-25.307 4.412-37.615 4.351-7.716-.037-9.458-1.967-2.307-6.936 4.838-3.361 9.08-7.188 12.12-10.54 6.909-7.623 12.223-16.542 19.16-24.161 14.169-15.563 31.698-10.31 38.722-7.294 12.029 5.167 17.272 10.196 13.548 17.853-6.842 14.074-27.761 22.325-43.628 26.727z" fill="#b1d045"/><path d="m217.944 268.842c-9.629-2.89-8.01-4.348 3.116-12.781 9.448-7.156 17.188-14.833 28.96-18.081 6.243-1.722 13.288-2.528 20.298-3.135 8.329-.417 16.683-.751 25.097-.882 18.027-.282 26.572-.641 18.459 5.644-3.105 2.411-6.094 5.229-9.005 8.393-7.434 8.086-13.806 16.838-22.639 23.54-20.958 15.909-36.104 5.76-64.286-2.698z" fill="#b1d045"/><path d="m253.42 195.432c10.293 4.605 17.897 14.374 25.907 21.975 2.092 1.984 4.429 3.869 6.952 5.611 4.694 3.241 5.235 4.793-1.896 5.041-44.037 1.51-34.99 8.378-61.315-.642-8.826-3.023-16.686-8.073-25.66-10.901-5.492-1.73-9.549-3.03-2.006-7.033 27.989-14.853 44.646-20.035 58.018-14.051z" fill="#b1d045"/><path d="m291.889 269.048c7.418-6.749 13.281-15.123 20.229-22.343 15.897-16.529 42.602-13.578 69.881-6.714 6.623 1.664 4.983 3.999.802 6.377-5.329 3.031-10.226 7.32-14.519 12.396-6.64 7.852-11.983 16.646-19.179 24.048-19.687 20.259-40.246 14.88-74.346 4.1-7.389-2.332-5.754-4.587-.463-6.685 6.352-2.517 12.302-6.364 17.595-11.179z" fill="#b1d045"/><path d="m458.405 260.765c4.66 1.335 14.563 2.211 11.514 8.696-2.773 5.89-7.006 1.504-11.276-.322-6.109-2.615-12.546-4.166-19.062-5.336.232-2.452.265-4.856.078-7.208 6.329 1.006 12.572 2.4 18.746 4.17z" fill="#aa8053"/><path d="m424.19 241.898c3.836 6.368.716 6.664-3.283 4.773-23.937-11.319-36.054-8.729-46.879-27.147-3.341-5.681-5.92-11.706-9.076-17.457-3.648-6.646-1.664-6.65 2.463-4.918 7.045 2.958 13.921 6.395 20.571 10.344 14.314 8.5 27.558 20.064 36.204 34.405z" fill="#b1d045"/><path d="m366.997 213.634c2.061 4.33 4.529 8.917 7.502 13.101 3.858 5.426 1.404 5.41-3.116 4.561-28.592-5.367-62.813-.232-78.357-8.166-10.877-5.554-18.671-16.357-27.872-24.139-2.906-2.458-6.34-4.561-10.076-6.225-5.955-2.651-3.52-4.155.649-5.091 44.541-10.001 74.81-4.137 90.755 2.726 12.966 5.586 16.102 13.968 20.515 23.233z" fill="#b1d045"/><path d="m183.207 218.307c10.098-.203 20.131 3.824 29.029 8.136 1.399.679 2.822 1.341 4.267 1.973 6.281 2.744 4.264 4.105-1.5 4.721-19.316 2.063-38.621 4.563-58.053 7.265-6.831.95-7.601-.915-4.11-5.444 10.157-13.177 22.494-16.49 30.367-16.651z" fill="#b1d045"/><path d="m153.85 250.697c-5.896-1.67-5.291-2.801 3.63-4.054 25.325-3.553 50.44-6.796 75.694-9.123 5.465-.504 7.04-.121 1.865 3.114-6.638 4.139-12.397 9.939-18.531 14.601-15.371 11.673-24.479 6.268-62.658-4.538z" fill="#b1d045"/><path d="m111.838 490.523c-6.668-86.752 39.368-168.047 118.066-205.246 51.104 17.015 103.399 32.61 156.374 19.647 10.978-3.046 25.201-7.567 36.223-15.104 5.091 2.231 10.132 4.572 15.124 7.016-6.606 9.701-12.822 19.662-18.444 29.972-.668 1.249-1.214 2.45-1.681 3.651-4.79-5.626-9.795-10.892-17.578-12.45-.249-.05-.565.229-.373.482 4.199 5.462 9.154 10.162 13.293 15.742 1.555 2.096 3.068 4.529 4.773 6.784 1.37 2.604 3.798 4.73 6.21 6.179 3.112 1.866 7.191 2.837 10.795 2.357.184-.024.313-.093.489-.123 10.131-.364 20.788-6.161 30.81-6.307.695-.011.724-.894.152-1.132-6.101-2.538-10.856-3.345-17.308-2.443-.584.082-1.164.183-1.74.294 6.766-8.657 13.857-17.13 21.168-25.463 36.985 25.749 63.128 59.08 73.825 102.813-57.918-12.315-121.788-.874-171.045 32.407-61.777 44.599-90.766 126.417-83.706 200.718 1.314 13.832 4.187 27.132 8.428 39.77-98.105-5.431-176.708-106.577-183.855-199.564z" fill="#ff801d"/><path d="m621.079 777.49c8.498-6.338 16.504-13.406 23.906-21.229 3.836 14.938 10.433 28.004 24.243 36.492 1.716 1.057 3.55 1.971 5.472 2.754-18.65.186-35.616-5.308-53.621-18.017z" fill="#b1d045"/><path d="m837.915 769.33c-2.129 3.914-7.535 3.557-11.213 3.395-8.11-.234-16.068-.047-23.965.354-2.08-.752-4.125-1.594-6.063-2.719-7.911-4.59-11.73-14.154-16.25-22.045 6.303-2.521 12.459-5.32 18.426-8.363.336.217.702.408 1.113.564 11.947 4.533 21.857 12.213 32.105 19.629 2.73 1.945 8.009 5.207 5.847 9.185z" fill="#b1d045"/><path d="m852.751 697.281c-1.211.297-2.363.705-3.537 1.068-6.406-1.439-12.711-2.436-18.949-5.531-8.497-4.213-16.051-10.367-23.656-15.955-5.982-4.395-12.564-8.789-19.55-11.816.13.006.262.008.394.014 31.422 1.478 66.648 6.702 90.17 29.227-5.333 3.136-17.698 1.237-24.872 2.993z" fill="#b1d045"/><path d="m405.223 736.164c12.85-18.35 28.477-34.732 43.814-50.994 6.083-6.447 12.254-12.807 18.41-19.184 11.903-12.326 16.116 5.912 17.245 16.836 2.681 25.916 5.873 51.719 7.524 77.73 2.498 39.321-106.015 8.805-86.993-24.388z" fill="#fac135"/><path d="m347.459 630.439c21.164-.789 42.355-.58 63.525-.154 8.923.18 17.842.477 26.754.923 2.203.11 19.784.747 12.414 8.896-4.924 5.441-11.217 10.197-16.614 15.189-19.062 17.63-37.722 35.604-57.481 52.469-23.513 20.066-75.144-76.106-28.598-77.323z" fill="#fac135"/><path d="m353.392 536.035c8.423-16.262 29.089-42.916 49.371-29.055 16.245 17.133 27.707 38.684 39.216 59.119 4.36 7.746 8.546 15.609 13.277 23.141 11.554 18.381-12.654 12.037-24.066 11.025-27.343-2.428-55.529-3.434-82.515-8.592-20.97-4.007.025-46.581 4.717-55.638z" fill="#fac135"/><path d="m470.885 456.473c18.134-3.96 52.847-6.294 46.94 20.79-4.31 20.868-9.586 41.526-15.069 62.114-2.313 8.675-4.735 17.322-7.302 25.924-.632 2.117-5.441 19.046-11.495 10.234-5.403-7.862-9.319-17.406-13.932-25.787-12.294-22.34-26.316-44.508-35.97-68.162-7.281-17.838 24.912-22.511 36.828-25.113z" fill="#fac135"/><path d="m549.45 770.084c-20.567 6.064-20.865-14.254-23.457-28.176-2.391-12.836-4.235-25.773-6.08-38.697-1.855-12.992-4.096-25.988-5.529-39.032-2.313-21.03 26.123.697 30.891 3.925 20.677 13.989 41.117 28.479 60.761 43.891.187.146.383.248.573.367.161.154.305.316.492.459 31.103 23.81-41.315 52.45-57.651 57.263z" fill="#fac135"/><path d="m654.711 594.248c3.476 17.525 3.042 36.193.485 53.783-.883 6.072-2.637 11.924-4.479 17.756-5.485 17.385-16.133 9.789-24.262 5.326-10.827-5.943-22.521-10.168-33.703-15.411-7.927-3.718-15.7-7.769-23.533-11.677-7.183-3.584-42.953-14.753-21.088-24.361 25.883-11.373 51.058-24.072 78.606-31.06 11.462-3.173 24.615-11.282 27.974 5.644z" fill="#fac135"/><path d="m651.77 501.602c-60.028-89.473-189.559-100.963-275.484-42.905-13.781 9.949-26.261 22.081-36.243 35.882-50.663 70.029-64.082 180.048-3.239 248.803 67.714 76.523 195.879 86.516 278.506 27.377 83.051-59.445 90.591-188.472 36.46-269.157zm-71.533-32.399c20.328 7.971 39.057 19.74 52.717 37.111 9.347 11.885 19.918 25.234 9.03 39.393-11.531 14.992-37.745 23.555-54.161 31.957-7.85 4.017-84.818 53.688-77.621 14.613 6.428-34.91 24.375-70.398 38.852-102.63 6.013-13.808 13.787-27.262 31.183-20.444zm-157.635 3.392c1.56-15.774 26.411-22.112 38.383-24.727 19.413-4.239 46.196-8.151 63.867 3.306 9.421 6.109 4.981 20.398 3.131 28.89-4.31 20.859-9.514 41.552-15.071 62.114-3.116 11.524-5.211 32.115-13.842 41.377-6.494 6.969-16.435 8.602-22.571-.324-12.827-18.67-22.849-40.727-33.584-60.732-7.599-14.161-21.999-32.814-20.313-49.904zm-88.323 81.694c8.868-25.992 39.528-81.269 74.297-56.063.481.26.954.582 1.401 1.049 25.154 26.381 43.644 62.823 60.774 94.852 16.515 30.881-68.431 14.212-79.402 13.128-15.008-1.481-41.783.825-54.365-9.341-13.033-10.531-7.348-30.021-2.705-43.625zm-3.784 134.678c-7.543-16.986-16.406-40.439-10.075-59.002 3.632-10.648 18.303-9.83 27.04-10.059 21.156-.787 42.363-.658 63.525-.153 12.311.294 31.095-2.233 42.68 3.343 9.397 4.527 11.887 12.492 6.439 21.529-5.216 8.656-16.684 15.798-24.049 22.717-9.028 8.479-17.964 17.059-27.109 25.412-9.774 8.928-27.649 32.023-42.889 31.871-18.101-.184-29.123-21.158-35.562-35.658zm170.344 88.451c-8.492 15.768-28.551 12.361-43.598 10.605-26.002-3.035-79.916-21.5-61.766-55.908.154-.418.354-.842.652-1.268.22-.383.467-.715.732-1.01 20.475-29.037 46.436-57.525 73.124-80.946 28.249-24.79 28.481 62.558 29.415 71.599 1.599 15.451 9.319 42.299 1.441 56.928zm126.351-44.615c-13.722 18.691-33.281 31.34-54.371 40.41-13.158 5.66-32.516 14.096-45.606 4.123-10.425-7.941-10.715-28.27-12.585-39.492-3.901-23.436-11.107-49.92-10.775-73.665.154-10.985 3.148-19.497 15.104-20.468 15.462-1.258 34.456 17.109 45.985 25.197 16.055 11.264 31.981 22.715 47.436 34.791.015.01.026.014.039.023 7.873 6.03 23.571 17.094 14.773 29.081zm21.731-47.194c-14.325 5.756-28.681-6.322-41.294-11.766-18.07-7.793-35.408-16.908-53.174-25.332-10.2-4.838-29.308-9.129-27.631-23.947 1.363-12.061 22.845-17.08 31.747-21.172 21.235-9.766 42.65-19.182 65.367-24.945 11.245-3.111 29.518-12.271 37.58 1.491 9.642 16.458 6.739 45.352 4.939 63.189-1.19 11.807-4.099 37.086-17.534 42.482z" fill="#fbf199"/><path d="m521.414 589.339c1.399-7.597 5.153-15.306 7.798-22.515 8.893-24.223 18.362-48.322 28.934-71.862 1.82-4.175 3.62-8.279 5.747-12.309 5.681-10.77 24.022 1.119 29.879 4.19 15.813 8.3 28.239 21.656 38.519 35.973 15.41 21.469-59.348 50.633-72.19 57.174-6.204 3.162-12.386 6.365-18.563 9.583-3.422 1.781-23.209 16.515-20.124-.234z" fill="#fac135"/><path d="m368.282 258.765c4.293-5.076 9.189-9.365 14.519-12.396 1.396-.794 2.462-1.58 3.079-2.341-15.316 1.735-28.316 13.633-39.152 23.515-9.145 8.339-19.4 15.252-31.454 18.444-10.729 2.843-30.338 1.981-39.63-6.372-.452.193-.893.432-1.349.613-5.291 2.098-6.926 4.353.463 6.685 34.1 10.78 54.659 16.159 74.346-4.1 7.194-7.403 12.538-16.197 19.178-24.048z" fill="#abab38"/><path d="m427.105 268.04c2.888-5.937.331-10.289-6.546-14.355 4.931 14.518-14.168 24.864-25.738 30.426-7.335 3.526-15.219 5.776-23.128 7.558-4.48 1.008-9.055 1.45-13.63 1.714-2.568.147-10.052.473-11.175-3.664-1.074.84-2.183 1.666-3.333 2.465-7.151 4.969-5.409 6.898 2.307 6.936 12.309.062 24.818-1.218 37.615-4.351 15.867-4.403 36.786-12.654 43.628-26.729z" fill="#abab38"/><path d="m633.995 766.922c-4.163 3.721-8.469 7.25-12.916 10.568 11.69 8.252 22.947 13.418 34.506 16.004-2.409-.957-4.787-2.014-7.093-3.354-7.941-4.619-13.937-13.831-14.497-23.218z" fill="#abab38"/><path d="m802.737 773.078c7.896-.4 15.854-.588 23.965-.354 2.541.113 5.885.283 8.426-.889-20.189.594-42.131-5.813-43.904-28.211-3.55 1.643-7.142 3.225-10.799 4.689 4.52 7.891 8.339 17.455 16.25 22.045 1.937 1.126 3.982 1.968 6.062 2.72z" fill="#abab38"/><path d="m755.394 646.174c4.559-5.184 8.632-11.049 13.84-15.629-10.416 3.846-19.043 8.56-28.633 15.705-13.64 10.16-35.717 21.859-45.785 4.733-1.148 7.891-2.701 15.706-4.728 23.39 14.095-6.453 29.005-10.758 44.276-13.279 7.93-3.553 15.096-8.168 21.03-14.92z" fill="#abab38"/><path d="m750.548 776.92c1.748.766 3.499 1.357 5.254 1.844 4.723-.889 9.462-1.664 14.209-2.375-9.655-2.721-17.689-8.563-17.25-19.242-5.868 1.443-11.781 2.686-17.74 3.57 3.638 6.721 8.363 13.064 15.527 16.203z" fill="#abab38"/><path d="m671.283 789.238c6.011 3.156 12.396 4.549 18.901 4.943 5.795-.918 11.791-2.268 18.074-4.051 7.104-2.014 14.16-3.873 21.201-5.602-4.381-.158-8.802.084-12.818.139-8.043.115-15.971.139-23.808-1.941-10.84-2.877-17.091-13.359-15.761-23.799-8.972-2.09-17.775-5.041-26.256-9.109-.928 1.078-1.883 2.117-2.829 3.17 3.794 14.121 9.511 29.02 23.296 36.25z" fill="#abab38"/><path d="m825.47 678.172c-4.639-4.037-9.404-8.002-14.547-11.154-7.9-1.006-15.799-1.596-23.471-1.957-.132-.006-.264-.008-.394-.014 6.985 3.027 13.567 7.422 19.55 11.816 7.605 5.588 15.159 11.742 23.656 15.955 6.238 3.096 12.543 4.092 18.949 5.531 1.174-.363 2.326-.771 3.537-1.068 4.918-1.205 12.244-.719 18.104-1.287-16.949 1.09-31.793-5.988-45.384-17.822z" fill="#abab38"/><path d="m704.886 752.193c-1.229-1.18-2.361-2.424-3.369-3.648-1.816-2.207-3.414-4.424-4.947-6.631-5.854 3.41-12.111 2.451-18.563-.682-5.793-2.813-9.279-7.604-11.159-13.219-2.927 4.609-5.974 9.094-9.219 13.352 14.475 6.66 30.622 10.117 47.257 10.828z" fill="#abab38"/><path d="m836.288 651.175c.164-.039.35-.063.516-.101-7.88-4.873-19.711-3.723-28.272-2.973-8.208.721-22.553 6.02-34.715 6.668-1.714.064-3.485.088-5.269-.025-4.667-.391-8.648-1.957-11.554-5.07-3.774 3.738-7.971 7.328-12.604 10.027 15.975-1.844 32.205-1.916 48.161-.632 3.073.247 6.169.532 9.271.843 5.85-.758 11.59-1.219 17.318-3.145 5.67-1.908 11.306-4.239 17.148-5.592z" fill="#abab38"/><path d="m822.889 659.016c-2.763.84-5.688 1.738-8.655 2.383 23.951 3.373 47.549 10.119 65.643 26.344-.361-1.475-1.029-3.164-2.186-5.205-2.021-3.564-4.467-6.902-7.186-10.077-1.633-1.333-3.377-2.587-5.291-3.728-12.189-7.263-28.5-2.791-40.035-10.441-.764.243-1.524.491-2.29.724z" fill="#abab38"/><path d="m293.025 223.129c15.544 7.934 49.766 2.799 78.357 8.166 4.521.85 6.975.865 3.116-4.561-2.973-4.184-5.441-8.771-7.502-13.101-3.925-8.24-6.883-15.771-16.604-21.267 3.968 7.672 5.212 15.544-3.285 21.886-5.338 3.982-12.59 5.446-19.019 6.541-17.916 3.051-37.113-.405-51.829-11.098 5.138 5.168 10.424 10.196 16.766 13.434z" fill="#abab38"/><path d="m698.614 735.984c3.029 4.953 6.123 10.516 10.702 14.223 1.129.912 2.257 1.605 3.394 2.176 19.515-.156 39.366-3.961 57.65-10.615-6.969 1.129-14.082 1.211-21.244-.209-12.955-2.563-22.272-12.58-31.827-20.871-10.396-9.021-23.673-18.893-37.492-16.93-1.261 2.855-2.571 5.689-3.972 8.482 9.979 6.004 16.659 13.727 22.789 23.744z" fill="#abab38"/><path d="m746.467 696.17c8.229 9.162 18.009 18.055 29.877 22.125 11.328 3.889 22.259 3.225 33.69 2.646 6.159-4.357 12.24-8.768 18.549-12.725-10.621 2.686-21.152 3.916-32.709 2.137-15.412-2.375-26.484-12.641-36.644-23.6-6.311-6.809-15.402-14.988-25.266-19.027-6.695 1.121-13.323 2.568-19.844 4.447 12.489 3.307 24.01 14.722 32.347 23.997z" fill="#abab38"/><path d="m159.348 240.082c18.619-2.575 37.134-4.968 55.654-6.946 5.764-.615 7.781-1.977 1.5-4.721-1.444-.632-2.867-1.294-4.267-1.973-3.353-1.625-6.868-3.207-10.486-4.54-7.924 14.298-28.214 11.795-42.401 18.18z" fill="#abab38"/><path d="m286.28 223.018c-2.523-1.742-4.86-3.627-6.952-5.611-2.545-2.415-5.056-5.048-7.619-7.666.331 10.531-13.29 14.789-21.952 15.557-7.834.695-15.723-1.718-23.13-3.943-9.678-2.906-19.134-5.94-29.1-4.793 8.923 2.835 16.754 7.848 25.541 10.856 26.325 9.02 17.278 2.151 61.315.642 7.132-.249 6.591-1.801 1.897-5.042z" fill="#abab38"/><path d="m216.508 255.235c5.291-4.02 10.334-8.826 15.871-12.745-9.694-.757-20.666 5.342-29.256 8.257-12.576 4.267-25.309 5.229-37.883 3.248 28.782 8.464 37.565 11.647 51.268 1.24z" fill="#abab38"/><path d="m282.23 271.539c8.833-6.702 15.205-15.454 22.639-23.54 2.911-3.164 5.899-5.981 9.005-8.393 1.238-.958 2.043-1.746 2.53-2.419-12.814 3.676-23.297 11.227-33.833 19.656-7.945 6.356-15.602 13.156-25.374 16.499-11.981 4.098-36.392-3.302-35.441-17.823-.234.181-.458.361-.695.541-11.126 8.434-12.745 9.892-3.116 12.781 28.181 8.459 43.327 18.608 64.285 2.698z" fill="#abab38"/><path d="m420.907 246.672c3.999 1.891 7.119 1.595 3.283-4.773-4.539-7.528-10.365-14.271-16.929-20.229-.08 1.506-.37 3.005-1.026 4.527-2.651 6.146-10.737 5.574-15.904 4.607-4.26-.798-8.248-2.324-11.678-4.753 9.806 11.408 21.648 10.876 42.254 20.621z" fill="#abab38"/><path d="m338.157 202.012c.798.024 1.228-1.026.651-1.573-11.854-11.272-37.872-14.827-51.432-4.122-.517.407-.22 1.359.393 1.485 7.35 1.488 14.967.679 22.427 1.283 9.512.771 18.471 2.645 27.961 2.927z" fill="#d7e338"/><path d="m383.384 217.686c1.073.805 2.079 1.623 3.235 2.313 1.127.67 2.203 1.475 3.467 1.895 1.203.398 2.379.314 3.605.543.771.144 1.439-.457 1.255-1.255-.661-2.869-1.687-4.84-4.503-6.154-1.463-.684-2.843-1.152-4.441-1.362-1.685-.22-2.853.271-4.483.377-.5.033-.885.683-.442 1.067.882.766 1.357 1.862 2.307 2.576z" fill="#d7e338"/><path d="m406.459 261.756c-9.341 3.347-19.469 6.601-26.701 13.744-.442.437-.28 1.364.393 1.485 11.215 2.006 22.795-3.023 27.683-13.439.409-.875-.272-2.185-1.375-1.79z" fill="#d7e338"/><path d="m339.133 252.595c-6.243 3.163-11.922 6.765-17.741 10.665-4.849 3.25-11.853 5.821-15.47 10.425-.303.389-.326.971.16 1.242 6.123 3.421 14.428-.662 20.002-3.639 7.133-3.808 11.714-10.133 14.596-17.505.364-.933-.81-1.563-1.547-1.188z" fill="#d7e338"/><path d="m273.677 250.009c-5.912-.068-11.122 1.802-16.571 3.894-5.234 2.008-10.656 3.538-15.696 6.019-.292.145-.263.589 0 .74 10.363 5.953 25.546-1.281 32.872-9.192.504-.544.16-1.453-.605-1.461z" fill="#d7e338"/><path d="m254.401 208.594c-5.162-11.457-20.964-7.302-29.403-2.557-.732.411-.385 1.512.415 1.532 9.475.249 18.853 1.857 28.279 2.263.679.029.95-.707.709-1.238z" fill="#d7e338"/><path d="m169.705 227.481c-.204.454-.048.952.452 1.112 5.89 1.889 12.365-1.304 17.67-3.649.688-.302.601-1.374 0-1.703-5.695-3.135-15.142-2.384-18.122 4.24z" fill="#d7e338"/><path d="m767.203 674.109c-.541.24-.396.975 0 1.251 4.087 2.845 9.187 4.136 13.617 6.383 4.682 2.376 8.81 5.653 13.938 7.091.757.211 1.372-.494 1.216-1.217-2.33-10.646-19.093-17.797-28.771-13.508z" fill="#d7e338"/><path d="m729.857 696.896c-3.683-9.738-17.243-16.068-27.032-11.971-.468.195-.732.924-.159 1.203 4.135 2.02 8.434 3.717 12.595 5.686 4.624 2.184 8.292 5.127 13.381 6.297.67.155 1.497-.468 1.215-1.215z" fill="#d7e338"/><path d="m847.745 680.307c-1.359-.578-2.729-1.092-4.176-1.395-1.913-.4-3.354-.023-5.243.225-.597.078-.878.803-.315 1.166 4.504 2.913 9.389 6.094 14.779 6.855.564.08 1.32-.369 1.054-1.053-1.243-3.164-2.97-4.47-6.099-5.798z" fill="#d7e338"/><path d="m820.634 761.781c.447-.277.605-.844.344-1.307-1.687-2.986-4.779-4.348-7.707-5.811-3.41-1.703-6.744-2.74-10.518-3.127-.436-.045-.604.471-.455.793 2.732 5.837 11.447 13.747 18.336 9.452z" fill="#d7e338"/><path d="m774.694 765.326c-1.514-2.408-3.575-2.781-6.177-3.381-.887-.203-4.094-1.1-4.667.191-.881 1.982.896 4.063 2.421 5.135 2.646 1.863 5.483 2.547 8.127.348.632-.525.716-1.623.296-2.293z" fill="#d7e338"/><path d="m704.787 768.248c-5.198-.275-9.257-1.389-14.283.385-.329.117-.446.504-.202.77 7.389 8.031 21.193 8.316 29.495 1.781.612-.484.028-1.279-.558-1.35-4.873-.582-9.532-1.324-14.452-1.586z" fill="#d7e338"/><path d="m738.068 630.834c-9.843-2.82-27.557.367-31.513 11.229-.17.467.262.893.697.918 5.518.3 10.594-2.173 15.742-3.876 5.364-1.772 10.544-3.243 15.316-6.407.727-.479.641-1.612-.242-1.864z" fill="#d7e338"/><path d="m746.063 627.469c-1.612.27-5.286 2.036-3.976 4.289.96 1.655 3.057 2.051 4.825 1.98 2.199-.086 3.953-1.307 5.433-2.839.333-.35.348-.911 0-1.259-1.715-1.702-3.858-2.579-6.282-2.171z" fill="#d7e338"/><path d="m775.085 643.25c-.103.25.064.586.288.707 5.546 3.003 13.405.996 18.87-1.434.502-.225.488-1.08 0-1.309-5.565-2.585-16.081-5.491-19.158 2.036z" fill="#d7e338"/><path d="m525.993 741.908c2.592 13.922 2.89 34.24 23.457 28.176 15.908-4.688 84.958-31.969 59.845-55.383.015 6.287-1.462 12.334-6.034 17.654-4.713 5.486-12.618 8.713-18.774 12.287-6.716 3.898-13.664 7.227-21.255 9.01-10.675 2.51-18.67-3.785-24.555-11.811-7.788-10.623-11.439-24.283-14.695-36.855-3.073-11.869-6.601-23.513-8.936-35.455 1.409 11.247 3.265 22.467 4.867 33.68 1.845 12.924 3.69 25.861 6.08 38.697z" fill="#ee9e2b"/><path d="m376.057 707.762c17.438-14.883 34.028-30.622 50.786-46.234-10.371 6.201-20.806 12.301-31.147 18.508-13.338 8.006-29.967 17.012-44.78 7.752-8.943-5.592-14.973-14.362-20.187-23.586 7.153 25.978 31.264 55.564 45.328 43.56z" fill="#ee9e2b"/><path d="m632.759 655.605c-15.966 1.549-33.08-6.586-47.884-11.535-13.755-4.6-27.655-9.687-41.704-13.57 5.652 5.994 21.521 11.266 26.049 13.525 7.833 3.908 15.606 7.959 23.533 11.677 11.182 5.243 22.876 9.468 33.703 15.411 8.129 4.463 18.776 12.059 24.262-5.326 1.842-5.832 3.596-11.684 4.479-17.756.477-3.285.852-6.617 1.17-9.961-5.484 9.282-12.809 16.489-23.608 17.535z" fill="#ee9e2b"/><path d="m541.537 589.573c6.177-3.218 12.358-6.421 18.563-9.583 12.458-6.346 83.17-33.977 73.325-55.223-1.205 3.984-3.126 7.754-6.22 11.127-8.255 9.002-23.141 14.602-33.772 20.254-12.602 6.697-25.739 12.355-39.18 17.137-4.334 1.539-8.752 2.881-13.156 4.214-5.199 1.575-12.502 3.116-14.108-4.968-2.211 5.5-4.539 11.184-5.574 16.808-3.086 16.749 16.701 2.015 20.122.234z" fill="#ee9e2b"/><path d="m348.675 591.674c26.985 5.158 55.172 6.164 82.515 8.592 11.052.98 34.006 6.891 24.955-9.43-4.925 4.155-11.239 5.789-19.297 5.445-11.895-.508-23.949-2.391-35.756-3.854-14.956-1.854-29.684-4.723-44.113-9.087-6.522-1.973-12.442-5.112-16.665-10.583-.115-.148-.177-.32-.284-.473-1.489 9.632.053 17.747 8.645 19.39z" fill="#ee9e2b"/><path d="m453.15 765.719c-14.9-2.76-31.132-11.297-35.417-26.729-1.826-6.58-.861-13.516 1.052-20.432-4.743 5.703-9.313 11.539-13.562 17.605-19.022 33.193 89.491 63.709 86.994 24.389-.207-3.266-.5-6.52-.75-9.779-9.057 11.143-21.755 18.01-38.317 14.946z" fill="#ee9e2b"/><path d="m495.702 548.314c-9.557 11.893-23.563-8.143-29.059-15.322-9.005-11.764-16.715-24.547-24.434-37.17-2.491-4.075-4.895-8.555-7.545-12.838 9.628 23.129 23.313 44.868 35.362 66.764 4.612 8.381 8.528 17.925 13.932 25.787 6.054 8.812 10.863-8.117 11.495-10.234 2.567-8.602 4.99-17.249 7.302-25.924.095-.357.187-.713.282-1.07-2.356 3.433-4.766 6.812-7.335 10.007z" fill="#ee9e2b"/><g fill="#fbe134"><path d="m580.624 536.327c2.86.903 5.837-.276 8.439-1.476 2.02-.928 5.82-5.035 3.313-7.377-4.741-4.43-13.833 2.092-12.693 7.91.091.464.515.807.941.943z"/><path d="m616.938 614.467c3.039-.646 5.877-3.348 5.104-6.158-.755-2.742-4.6-3.656-7.518-2.599-2.461.889-5.18 3.11-6.476 5.386-.415.73-.197 1.748.565 2.162 2.303 1.246 5.755 1.756 8.325 1.209z"/><path d="m621.466 628.869c.671-.444 1.26-1.396.91-2.23-.94-2.23-2.471-3.625-5.064-3.625-1.245 0-2.736-.096-3.863.514-.803.432-1.779 1.164-2.623 1.455-.541.184-.588.818-.147 1.141.59.436 1.101 1.166 1.701 1.644.845.671 1.489 1.071 2.521 1.423 2.412.823 4.383 1.126 6.565-.322z"/><path d="m587.915 630.346c.628.961 1.307 1.818 2.246 2.487 2.006 1.427 4.735 2.763 7.045 1.162 1.175-.817 1.852-2.12 1.451-3.567-.704-2.551-3.096-3.521-5.516-3.791-1.088-.121-2.014-.113-3.104.012-.385.023-.768.066-1.149.127.073-.021-1.438.631-.819.426-.567.189-.861.711-.736 1.295.115-.423.115-.314-.002.326 0 .604.27 1.04.584 1.523z"/><path d="m545.678 712.688c-.091-1.277-.156-2.951-1.436-4.186-1.195-1.154-2.308-2.395-3.538-3.51-1.372-1.244-4.881-5.072-6.703-2.314-1.508 2.283.302 5.225 1.391 7.295.687 1.309 1.82 2.48 2.789 3.586 1.363 1.557 2.892 1.967 4.846 1.779 1.357-.131 2.758-1.108 2.651-2.65z"/><path d="m556.539 709.055c1.157-1.977.043-5.029-2.117-6.035-2.438-1.135-4.821-1.498-7.45-.918-.998.219-1.681 1.646-1.024 2.516 1.265 1.67 2.845 3.779 4.756 4.766 1.68.866 4.729 1.559 5.835-.329z"/><path d="m556.376 723.014c-.848-.258-1.709.301-1.958 1.113-1.214 3.957 1.532 10.211 6.418 9.029 1.549-.375 2.226-1.729 2.41-3.166.437-3.373-4.107-6.138-6.87-6.976z"/><path d="m460.493 709.045c-.625-.436-1.688-.426-2.313 0-2.964 2.014-4.538 9.082-1.742 11.643 1.24 1.133 2.763 1.266 4.247.547 3.994-1.93 3.05-9.924-.192-12.19z"/><path d="m466.561 698.631c-.23.24-.348.6-.244.928.709 2.277 2.223 4.383 4.381 5.465 2.939 1.475 6.234-1.527 4.552-4.553-1.617-2.908-6.107-4.545-8.689-1.84z"/><path d="m453.117 740.164c-.463 3.359-1.053 7.598 1.818 10.012 1.138.957 2.82.895 3.635-.467 2.082-3.482-.05-7.559-2.448-10.338-.819-.951-2.825-.531-3.005.793z"/><path d="m384.418 657.701c-.873-2.021-3.57-1.986-5.422-2.201-2.904-.332-6.8.189-9.299 1.686-2.88 1.721-2.635 6.8.982 7.518 3.633.723 6.974-.783 10.135-2.488 1.375-.743 4.485-2.48 3.604-4.515z"/><path d="m387.523 645.859c-1.028 3.104.271 6.535 3.129 8.207 1.482.871 6.144 1.664 6.286-1.1.162-3.166-1.407-6.328-3.365-8.703-1.846-2.242-5.271-.755-6.05 1.596z"/><path d="m417.946 652.344c.092-1.178-.846-2.021-1.831-2.405-2.185-.856-3.923.532-5.525 1.876-1.37 1.148-1.818 2.398-2.486 3.912-.216.494-.044.971.473 1.16 1.928.714 3.001.654 5.048.139 2.341-.594 4.135-2.266 4.321-4.682z"/><path d="m346.682 650.357c-1.393 2.492.928 6.221 3.939 5.125 3.009-1.097 4.47-3.596 5.405-6.465.13-.397-.074-.93-.454-1.115-3.069-1.506-7.105-.734-8.89 2.455z"/><path d="m363.837 556.266c-.282-.467-.329-.451-.142.047.144.512.612.688 1.094.621-.644-.37-.599-.379.142-.031.706.193 1.266.025 1.909-.25 1.164-.496 2.178-1.031 3.213-1.758 2.541-1.787 5.348-4.186 5.027-7.564-.152-1.594-.987-3.059-2.649-3.48-3.968-1.008-7.171 2.045-8.432 5.634-.463 1.316-.722 2.544-.878 3.937-.058.527-.063 1.24.078 1.751.12.419.332.784.638 1.093z"/><path d="m384.037 562.361c1.016-.113 1.979.229 2.974.18 1.243-.063 2.298-.4 3.467-.801 2.495-.854 5.208-3.729 3.589-6.493-1.382-2.354-4.661-1.636-6.456-.302-.976.723-2.111 1.657-2.779 2.688-.658 1.014-.978 2.199-1.675 3.195-.42.598.131 1.618.88 1.533z"/><path d="m389.397 543.123c.329.249.757.084 1.037-.133 3.381-2.631 2.935-6.293 2.365-10.121-.254-1.693-1.188-6.537-3.742-6.117-2.51.412-2.877 5.096-2.96 7.022-.16 3.789.111 6.945 3.3 9.349z"/><path d="m415.442 563.584c-.617.617-.963 1.495-1.261 2.295-1.084 2.895-.872 5.533.536 8.229.578 1.105 2.006 1.088 2.854.365 2.142-1.82 3.618-3.899 3.871-6.813.121-1.396.121-3.043-1.006-4.076-.644-.588-.944-1.485-1.874-1.742-.526-.145-1.261.189-1.603.59-.456.537-.999.633-1.517 1.152z"/><path d="m409 551.352c3.19.75 7.354-.074 9.116-3.08.703-1.195.352-3.044-.967-3.688-3.894-1.904-8.118 1.063-9.188 4.94-.209.757.25 1.642 1.039 1.828z"/><path d="m427.806 579.52c-2.063.654-4.513 2.375-4.925 4.65-.188 1.057.111 2.09 1.084 2.662 2.426 1.427 5.295.156 7.219-1.512 1.38-1.197 3.846-4.106 2.061-5.906-1.46-1.473-3.786-.42-5.439.106z"/><path d="m479.602 521.778c3.023.433 5.507-1.401 7.496-3.532 1.197-1.281 2.482-2.735 3.02-4.434.75-2.375-.156-5.285-2.775-6.005-4.213-1.158-5.799 3.598-7.642 6.311-.913 1.345-1.763 3.407-1.417 5.007.164.757.217 2.497 1.318 2.653z"/><path d="m463.934 494.29c-1.756 3.2-.642 5.868 1.623 8.479.976 1.123 2.014 2.166 3.318 2.9.553.311 1.149.719 1.767.887.046.013 2.333.293 1.054.057.828.151 1.9-.217 2.064-1.174.191-1.098.362-1.754.16-2.912-.22-1.281-.598-2.35-1.131-3.54-.504-1.125-.926-2.263-1.502-3.358-.872-1.66-2.221-2.201-3.856-2.763-1.277-.438-2.861.268-3.497 1.424z"/><path d="m454.842 484.657c2.311-.57 4.086-2.324 5.766-3.863.811-.74.295-1.919-.596-2.254-1.861-.704-3.46-.94-5.439-1.052-2.094-.119-4.957-.164-6.38 1.588-.889 1.095-1.383 2.653-.511 3.949 1.794 2.661 4.388 2.317 7.16 1.632z"/><path d="m480.069 479.392c1.193-1.319 2.298-2.693 3.473-4.025 1.891-2.146 3.48-3.913 2.84-6.97-.398-1.917-2.371-2.55-4.058-2.306-5.558.811-5.574 9.199-3.856 13.093.26.591 1.192.658 1.601.208z"/><path d="m501.102 486.041c.005-.524-.372-1.053-.895-1.174-2.075-.479-3.723.154-5.426 1.326-.97.667-1.995 1.53-2.688 2.482-.662.907-1.076 1.944-1.699 2.843-.282.403.097.933.539.94 1.16.022 2.098.238 3.293.07 1.263-.182 2.355-.753 3.495-1.307 1.995-.969 3.364-2.962 3.381-5.18z"/><path d="m548.636 557.188c3.508-.684 4.906-5.176 5.955-8.041 1.536-4.192 2.43-7.936.467-12.137-.498-1.064-2.197-1.512-3.151-.826-4.332 3.105-5.844 7.82-6.747 12.9-.344 1.922-.052 8.789 3.476 8.104z"/><path d="m576.729 549.385c4.135-1.314 3.112-6.896-.985-7.27-2.763-.253-6.348.615-8.069 2.922-.391.52-.395 1.549 0 2.068 1.952 2.584 6.087 3.221 9.054 2.28z"/><path d="m570.244 514.975c1.649-3.018 2.917-5.733 3.141-9.248.105-1.648-.361-6.455-2.938-6.455-2.584 0-4.146 3.225-4.417 5.362-.5 3.958.663 6.952 2.512 10.341.349.642 1.353.64 1.702 0z"/><path d="m598.2 507.117c-3.213-1.66-6.23-.27-8.787 1.89-.461.389-.985 1.282-1.146 1.864-.683 2.488.268-.896-.218.865-.169.615-.121 1.461.411 1.869 2.85 2.195 7.879 1.174 10.46-.91 1.749-1.41 1.177-4.599-.72-5.578z"/><path d="m611.875 532.234c1.446-1.08 1.446-2.842 0-3.922-2.818-2.105-5.751.229-8.43 1.326-.623.256-.623 1.014 0 1.271 2.679 1.097 5.612 3.431 8.43 1.325z"/><path d="m592.074 613.885c-1.526-.862-3.057-2.338-4.836-2.582-1.423-.197-2.7-.08-3.776.998-1.137 1.137-1.627 3.318-.608 4.703 1.698 2.311 3.823 2.734 6.551 2.749 1.134.007 2.316.015 3.38-.417.654-.264 1.58-.986 2.032-1.111.437-.119.508-.619.247-.934-.319-.387-.469-1.158-.896-1.654-.62-.715-1.265-1.283-2.094-1.752z"/><path d="m631.821 611.479c-.916 1.943-.27 4.582 2.083 5.125 3.441.797 11.178-.432 9.75-5.623-1.501-5.458-9.899-3.616-11.833.498z"/><path d="m625.36 643.432c2.663 2.258 6.277-.518 4.762-3.673-1.374-2.861-4.044-3.989-7.019-3.874-.517.021-.829.465-.73.959.507 2.533.86 4.791 2.987 6.588z"/><path d="m541.397 685.195c-.681.811-1.232 1.732-1.775 2.639-.586.973-.53 1.848-.783 2.898-.121.502.383.84.82.631 2.808-1.336 7.666-2.959 7.485-6.803-.015-.313-.162-.645-.456-.795-1.987-1.007-3.892-.232-5.291 1.43z"/><path d="m579.507 715.23c2.666-.93 3.194-4.332.771-5.908-3.563-2.313-11.023-.279-12.447 4.061-.069.217.043.49.243.594 1.308.691 2.939.785 4.392.945 2.486.277 4.544 1.178 7.041.308z"/><path d="m579.922 733.031c2.783.592 4.929-2.139 3.606-4.689-1.154-2.225-4.211-4.281-6.801-4.012-1.271.131-2.275.951-2.304 2.305-.063 2.943 2.732 5.806 5.499 6.396z"/><path d="m436.333 734.498c2.194-.018 4.266-1.195 5.936-2.57.836-.688 2.896-1.727 2.181-3.139-.729-1.438-2.839-2.049-4.351-2.1-2.694-.092-4.951.758-6.56 2.941-1.496 2.028.531 4.886 2.794 4.868z"/><path d="m458.694 694.303c.845-2.338.75-4.932-.78-6.98-.236-.318-.705-.559-1.082-.285-1.757 1.281-3.13 2.799-4.029 4.783-.946 2.096-2.071 5.053-.504 7.125.469.619 1.103.982 1.905.773 2.406-.629 3.706-3.252 4.49-5.416z"/><path d="m366.192 671.52c-2.937-1.229-5.93 1.621-7.462 3.787-.747 1.055-.513 2.445 0 3.52 1.036 2.172 3.854 2.037 5.476.705 1.738-1.425 3.639-3.348 3.735-5.715.045-1.153-.786-1.893-1.749-2.297z"/><path d="m392.35 572.072c-2.295-.73-4.805-.063-6.884.992-2.024 1.025-4.271 3.676-2.893 6.033 1.471 2.51 4.687 1.641 6.757.58 1.991-1.023 3.631-3.125 4.39-5.191.379-1.033-.417-2.111-1.37-2.414z"/><path d="m365.879 572.072c2.88-1.127 5.135-2.473 6.842-5 .331-.492 0-1.213-.551-1.354-2.813-.711-5.049-.06-7.84.738-2.423.693-5.136 1.547-6.479 3.832-.239.404-.174.947.164 1.275 2.145 2.091 5.312 1.507 7.864.509z"/><path d="m489.069 524.982c-2.79 1.742-4.359 5.699-3.748 8.87.266 1.378 2.213 2.196 3.371 1.37 2.618-1.871 4.252-5.805 3.434-8.997-.331-1.278-1.926-1.95-3.057-1.243z"/><path d="m548.146 565.143c-.85 1.572.245 3.178 1.913 3.332 2.849.266 5.227-1.48 7.127-3.437.94-.97 3.571-3.298 1.714-4.663-1.432-1.051-3.477.041-4.943.506-2.361.746-4.609 2.045-5.811 4.262z"/><path d="m642.223 628.777c-2.112-.994-4.163-1.465-6.481-1.383-.596.021-1.061.691-.709 1.238 1.244 1.938 2.443 3.639 4.338 5.023.965.705 2.657.436 3.425-.441.343-.393.563-.748.726-1.248.363-1.116-.205-2.675-1.299-3.189z"/></g><path d="m336.803 743.381c67.714 76.523 195.879 86.516 278.506 27.377 83.052-59.443 90.592-188.471 36.46-269.156-.983-1.465-2.032-2.852-3.053-4.273 6.16 11.068 11.435 22.63 15.902 33.735 16.256 40.394 15.447 84.116 8.431 126.342-6.567 39.522-24.794 74.563-54.852 101.233-32.78 29.086-78.915 39.105-121.48 41.24-90.325 4.529-168.434-51.928-189.821-139.99-14.85-61.152 7.088-129.551 45.911-180.495-4.552 4.819-8.895 9.832-12.766 15.185-50.662 70.028-64.081 180.047-3.238 248.802z" fill="#f3af79"/><path d="m469.077 270.857c-1.034-1.106-2.495-2.075-3.611-2.648-7.529-3.872-17.001-6.507-25.752-6.894-.03.827-.053 1.65-.133 2.487 6.516 1.17 12.952 2.721 19.062 5.336 3.859 1.652 7.686 5.367 10.434 1.719z" fill="#865725"/><path d="m428.273 332.124c-1.792 3.347-2.198 4.564 1.456 6.292 3.084 1.459 4.408 1.031 5.929-1.022 11.815-15.358 24.624-30.156 37.85-44.59-12.374 6.911-24.435 14.308-35.801 23.208-3.273 5.299-6.456 10.651-9.434 16.112z" fill="#865725"/><path d="m386.279 304.925c-48.112 11.774-95.663-.022-142.271-15.032 4.104 2.547 8.265 4.76 11.667 6.755 22.242 13.05 46.047 19.591 71.831 19.922 13.097.169 25.858-1.938 38.751-3.886 14.75-2.228 29.064-2.373 38.666 6.992 5.089 2.38 8.902 6.467 12.578 10.784.467-1.201 1.013-2.402 1.681-3.651 5.622-10.31 11.838-20.271 18.444-29.972-4.992-2.443-10.033-4.784-15.124-7.016-11.022 7.536-25.246 12.058-36.223 15.104z" fill="#ef6200"/><path d="m549.591 404.82c1.493 4.919 2.799 9.958 3.889 15.14 38.037 10.33 72.824 31.264 98.229 63.489 29.488 37.408 45.187 86.027 45.445 134.389 20.617-8.977 44.729-9.279 68.01-5.346 8.172-11.398 15.246-23.74 21.153-36.707-11.429 11.39-26.189 19.756-42.752 17.104-21.369-3.422-33.616-26.479-40.509-44.611-6.098-16.033-9.794-32.82-17.263-48.342-13.469-27.992-33.138-53.096-59.411-69.989-12.279-7.896-26.402-13.685-40.079-18.741-11.327-4.188-24.407-8.043-36.712-6.386z" fill="#ef6200"/><path d="m295.693 690.088c-4.241-12.638-7.113-25.938-8.428-39.77-7.06-74.301 21.929-156.119 83.706-200.718 47.704-32.232 109.098-43.91 165.531-33.432-9.854-6.786-22.573-10.233-33.666-12.846-22.45-5.286-46.397-5.307-69.145-2.298-46.618 6.169-86.944 30.918-115.672 67.661-15.177 19.414-24.31 41.759-31.974 64.962-7.95 24.07-13.844 49.096-30.721 68.803-16.476 19.234-41.34 23.25-65.395 21.295-9.219-.75-17.736-3.172-25.549-6.898 33.27 40.876 79.572 70.376 131.313 73.241z" fill="#ef6200"/><path d="m311.683 377.646c-2.443-14.461-18.346-18.435-30.507-21.59-6.08-1.578-12.146-3.012-17.76-5.926-6.261-3.259-11.528-8.314-17.027-12.671-8.431-6.681-17.407-10.78-27.986-6.766-13.303 5.048-23.929 19.292-32.012 30.351-9.926 13.575-17.332 28.851-23.486 44.442-11.419 28.919-15.61 66.841-1.953 95.712 13.727 29.004 35.205 25.484 60.195-11.739 16.77-24.981 33.729-48.616 57.37-67.538 13.432-10.746 36.71-23.287 33.166-44.275z" fill="#facb1a"/><path d="m759.27 399.207c-14.341-30.766-38.675-54.566-69.813-67.899-21.291-9.116-48.397-16.057-73.113-13.66-44.92 4.351-39.029 28.804-22.287 43.883 14.81 13.337 37.574 14.729 55.756 20.575 41.984 13.496 68.866 50.77 82.826 90.823 4.123 11.831 6.591 28.764 17.254 36.86 10.018 7.607 17.935-1.602 21.551-10.799 12.215-31.058 1.155-71.189-12.174-99.783z" fill="#facb1a"/><path d="m205.584 526.992c-14.918 32.156 30.27 47.537 35.146 15.398.623-4.105.85-10.979-.372-17.208-3.955-20.207-25.694-17.748-34.774 1.81z" fill="#facb1a"/><path d="m324.399 344.139c-8.614 1.199-14.604 6.837-11.978 13.699 4.702 12.276 29.635 15.584 31.063-1.806.634-7.699-10.102-13.142-19.085-11.893z" fill="#facb1a"/><path d="m579.948 304.188c-9.799-1.462-19.203 1.514-21.758 3.503-3.604 2.804-6.158 10.246-1.337 13.358 5.039 3.248 12.617.508 17.71-1.21 3.202-1.079 33.225-11.501 5.385-15.651z" fill="#facb1a"/><path d="m155.682 364.558c-11.951 18.198-19.779 38.716-24.533 59.887-7.896 35.18-8.084 77.392 5.383 111.243.215.541 1.152.531 1.099-.148-2.896-36.238-8.116-70.62-1.378-106.905 3.69-19.868 10.721-39.022 20.45-56.712 5.714-10.39 12.72-20.138 20.357-29.184 7.813-9.255 17.453-16.596 25.459-25.576.16-.184-.041-.453-.259-.338-19.064 10.009-34.939 30.015-46.578 47.733z" fill="#68182b"/><path d="m215.004 307.646c-3.579-.399-7.808 2.339-8.676 5.989-.171.721.551 1.218 1.185.909 2.975-1.445 6.221-3.367 7.848-6.279.164-.293-.052-.585-.357-.619z" fill="#68182b"/><path d="m474.976 345.563c.259-.089.344-.34.236-.58-.761-1.701-2.287-2.72-4.223-2.837-.476-.028-2.411.037-2.196 1.008.506 2.284 4.342 3.043 6.183 2.409z" fill="#68182b"/><path d="m765.584 581.019c-.257.658.732.985 1.084.456 22.279-33.46 28.376-76.596 26.007-116.059-2.344-38.987-15.796-78.542-43.217-106.959-.167-.171-.485.063-.338.259 23.577 30.914 35.836 68.112 38.438 106.7 2.71 40.187-7.47 78.512-21.974 115.603z" fill="#68182b"/></g></g></svg>