<svg id="Fruit" height="512" viewBox="0 0 992.13 992.13" width="512" xmlns="http://www.w3.org/2000/svg"><g><path d="m924.151 484.46c-7.523-6.426-17.903-10.262-27.766-10.262-3.913 0-7.711.583-11.291 1.734-1.283.414-2.541.837-3.777 1.265-.539-4.922-1.32-9.834-2.342-14.717-1.951-9.312-5.838-16.808-8.965-22.828-1.876-3.618-3.496-6.743-4.295-9.404-8.108-27.055-20.473-54.992-55.741-76.052-25.878-15.452-48.89-27.687-71.008-37.706 2.787-14.178 3.853-26.713 3.323-38.5-3.035-67.742-73.037-77.936-114.863-84.026-6.689-.975-13.008-1.894-18.385-2.907-8.406-1.582-16.688-3.77-25.453-6.084-17.684-4.671-35.967-9.501-56.799-9.678l-.811-.004c-25.461 0-49.49 10.061-71.67 20.934-.637.313-1.27.627-1.895.944-23.397-4.894-47.852-7.37-72.832-7.37-72.263 0-137.005 20.455-182.297 57.591-37.098 30.418-73.334 75.576-96.938 120.802-17.803 34.11-19.891 70.455-6.282 105.995-16.519 19.617-28.28 38.305-35.782 56.809-21.644 53.393-1.98 116.012 21.438 153.412 34.555 55.17 96.341 99.055 169.523 120.404 6.752 1.969 13.375 3.479 19.896 4.963.14.033.279.064.42.094 22.129 4.625 44.303 6.971 65.902 6.971 58.012 0 111.488-16.33 158.938-48.533 12.262-8.32 24.361-17.885 36.068-28.504l1.942.004c6.796.023 13.597.043 20.399.043 56.492 0 116.555-1.396 175.204-18.086 39.579-11.262 69.749-27.605 89.671-48.568 19.181-20.184 30.362-45.665 41.046-72.189 4.124-10.232 5.729-10.979 13.847-10.979 2.873 0 6.233.297 9.994.883l1.711.275c3.293.533 7.023 1.141 11.325 1.141h.003c6.563 0 12.691-1.418 18.73-4.332 11.219-5.414 25.263-18.57 28.461-50.494 2.152-21.404-4.821-41.234-18.649-53.041z" fill="#fff"/><g><path d="m908.64 502.622c-4.074-3.481-10.967-5.647-16.23-3.954-12.449 4.005-22.043 9.122-34.895 9.269.164-1.759.373-3.516.5-5.278.854-11.832.01-23.692-2.417-35.287-2.331-11.137-9.565-19.609-12.759-30.269-8.313-27.735-19.352-47.023-45.107-62.401-27.787-16.591-56.627-32.021-86.643-44.2 4.746-17.219 8.096-34.647 7.344-51.442-2.526-56.358-74.182-57.074-113.807-64.533-26.512-4.988-50.641-15.118-78.037-15.351-21.408-.181-42.897 9.242-61.762 18.49-3.016 1.479-5.99 3.096-8.956 4.748-78.151-18.646-179.62-8.886-243.442 43.445-35.648 29.229-69.533 72.425-90.908 113.383-17.163 32.886-16.139 66.647.601 99.235-17.095 18.556-32.593 39.018-41.704 61.491-18.781 46.328 1.135 102.359 19.545 131.764 34.33 54.813 95.037 92.377 155.968 110.15 6.108 1.781 12.319 3.195 18.519 4.609 72.701 15.197 144.707 4.02 206.545-37.949 14.328-9.723 27.645-20.723 40.105-32.65 67.24.146 135.074 1.484 200.38-17.1 27.742-7.895 58.685-20.781 78.896-42.053 16.874-17.752 27.193-42.285 36.207-64.662 7.402-18.369 17.811-29.732 49.67-24.766 6.758 1.055 11.375 2.23 17.711-.828 10.789-5.207 14.023-20.833 15.078-31.369 1.131-11.295-1.42-24.822-10.402-32.492z" fill="#68182b"/><path d="m138.438 370.557c21.895-36.817 53.766-77.522 88.766-102.658 52.904-37.992 127.994-49.505 194.012-41.096 19.553 2.487 13.796 8.104-4.793 21.774-10.902 8.022-21.627 16.207-32.328 23.68-79.301 55.354-160.002 108.342-230.619 174.956-15.123 14.263-24.209 25.487-29.488 8.166-8.871-29.091-2.33-56.603 14.45-84.822z" fill="#fac135"/><path d="m277.25 776.333c-64.509-14.695-129.536-51.281-166.095-107.146 28.176 23.314 66.775 32.203 105.918 31.871 85.193-.725 169.367-40.08 239.354-85.625 74.195-48.287 136.176-114.178 186.404-186.623 13.695-19.753 26.49-40.343 38.313-61.447 5.436-9.694 9.053-6.268 5.468 5.673-58.869 195.932-168.279 453.707-409.362 403.297z" fill="#fac135"/><path d="m847.146 507.333c-1.543 21.348-6.861 42.566-13.822 63.016-.299.518-.471 1.051-.527 1.586-2.57 7.445-5.344 14.793-8.244 21.994-8.395 20.842-19.183 43.664-35.646 59.407-22.824 21.823-57.42 32.499-87.293 39.813-42.965 10.521-87.284 12.271-131.479 12.393-22.438.057-35.039-3.307-24.438-15.617 27.953-32.448 50.967-69.537 70.633-106.914 33.755-64.162 58.143-133.053 79.057-202.319 1.77-5.854 3.711-11.851 5.698-17.945 5.998-18.422 11.343-20.666 25.419-14.174 21.684 9.999 42.656 21.647 63.242 33.648 27.713 16.155 34.902 35.502 44.875 63.629 3.016 8.502 8.467 15.318 10.822 24.322 3.136 11.985 2.585 24.931 1.703 37.161z" fill="#fac135"/><path d="m907.075 543.376c-1.131 4.721-3.244 9.176-6.611 12.686-5.092 5.301-16.89-.023-23.018-.613-10.875-1.049-20.855.83-30.037 5.246 4-13.836 7.01-27.957 8.914-42.203 6.668.226 12.984-.416 19.611-1.977 8.07-1.899 19.236-11.59 26.716-5.203 8.23 7.031 6.62 22.892 4.425 32.064z" fill="#aa8053"/><path d="m697.493 255.411c-9.084-10.495-21.444-17.599-35.207-20.888-29.604-7.076-59.461-9.4-88.961-17.497-34.623-9.501-62.443-8.384-95.121 6.103-12.289 5.449-23.154 12.899-34.26 20.444-74.424 50.56-150.227 100.257-220.297 156.756-38.596 31.121-77.764 64.045-108.357 103.369-23.585 30.317-38.281 63.102-30.379 102.115 11.862 58.617 79.482 90.158 148.891 83.865 77.752-7.055 152.91-40.316 217.308-83.34 66.083-44.15 123.789-100.957 170.28-165.387 23.083-31.987 42.822-65.475 61.656-100.079 13.322-24.47 34.783-60.07 14.447-85.461zm-139.572 167.308c2.881 13.434-6.719 25.854-20.406 26.81-4.346.304-8.297-.527-11.761-2.152-25.503 30.914-50.62 61.82-74.405 94.081-21.699 29.432-47.485 54.226-80.074 71.086 1.676 12.709-7.635 24.061-20.694 24.975-9.224.645-16.81-3.547-21.173-10.582-22.547 3.869-44.369 2.221-67.178 2.801-17.932.455-36.955 8.039-54.825 6.154-28.544-3.016-25.882-28.711-23.841-51.496-6.824-3.094-11.691-9.438-13.19-17.696-.046-.245-.044-.472-.058-.706-.047-.229-.109-.447-.131-.695-.949-10.662 4.709-20.699 14.412-24.262-2.008-41.304 35.141-61.685 63.521-84.963-.52-1.434-.933-2.939-1.219-4.515-.045-.245-.043-.473-.057-.706-.049-.229-.109-.448-.133-.695-1.127-12.665 7.045-24.486 20.277-25.568 5.264-.432 9.926.845 13.83 3.262 29.902-25.646 60.1-50.936 90.596-75.875-.492-5.289.954-10.836 4.563-16.017.156-.225.335-.405.508-.595.105-.156.189-.317.314-.471 6.992-8.509 18.16-11.319 27.724-6.711.087-.058.147-.126.239-.182 13.607-8.419 27.451-16.457 41.449-24.214-.27-11.99 7.73-22.799 20.354-23.832 6.855-.563 12.718 1.72 17.139 5.768 28.005-9.542 82.791-24.145 99.871 11.62 18.307 38.333-6.279 84.982-29.613 115.89 1.818 2.791 3.205 5.969 3.961 9.486z" fill="#ff801d"/><path d="m351.021 626.884c-8.076 2.061-13.297-4.225-14.814-11.254-.402-6.992 2.38-12.291 9.543-14.197 6.154-1.639 11.855 2.576 14.051 8.065 3.282 8.206-.438 15.257-8.78 17.386z" fill="#808080"/><path d="m537.956 438.895c-8.076 2.061-13.297-4.225-14.814-11.254-.403-6.991 2.38-12.29 9.542-14.197 6.155-1.639 11.856 2.575 14.052 8.065 3.282 8.206-.438 15.257-8.78 17.386z" fill="#808080"/><path d="m466.337 290.579c6.154-1.639 11.855 2.575 14.051 8.065 3.283 8.205-.436 15.256-8.779 17.385-8.075 2.061-13.295-4.225-14.814-11.253-.403-6.992 2.38-12.29 9.542-14.197z" fill="#808080"/><path d="m384.798 341.731c3.91-4.437 9.061-6.893 14.91-4.264 6.686 3.003 8.855 10.458 5.957 16.915-3.328 7.411-10.311 10.276-17.457 6.426-7.77-4.187-7.721-12.526-3.41-19.077z" fill="#808080"/><path d="m266.761 435.213c6.155-1.639 11.857 2.576 14.052 8.065 3.282 8.205-.437 15.256-8.778 17.385-8.076 2.061-13.297-4.225-14.814-11.253-.406-6.992 2.378-12.292 9.54-14.197z" fill="#808080"/><path d="m180.692 564.552c-.402-6.992 2.381-12.291 9.543-14.197 6.154-1.639 11.855 2.576 14.051 8.065 3.283 8.206-.436 15.257-8.779 17.386-8.076 2.06-13.297-4.225-14.815-11.254z" fill="#808080"/><path d="m253.476 596.792c-8.205 3.283-15.256-.436-17.385-8.779-2.062-8.076 4.229-13.299 11.26-14.815 6.988-.399 12.285 2.384 14.19 9.544 1.64 6.154-2.575 11.856-8.065 14.05z" fill="#808080"/><path d="m284.315 514.198c6.154-1.641 11.856 2.574 14.051 8.064 3.283 8.205-.436 15.256-8.779 17.386-8.074 2.062-13.295-4.226-14.813-11.253-.404-6.992 2.379-12.291 9.541-14.197z" fill="#808080"/><path d="m333.685 517.126c-2.061-8.076 4.229-13.299 11.26-14.815 6.989-.399 12.285 2.384 14.191 9.544 1.639 6.154-2.576 11.857-8.066 14.051-8.206 3.282-15.257-.436-17.385-8.78z" fill="#808080"/><path d="m384.19 455.398c6.154-1.64 11.856 2.575 14.051 8.065 3.283 8.205-.436 15.256-8.779 17.385-8.074 2.062-13.295-4.225-14.813-11.253-.404-6.992 2.379-12.29 9.541-14.197z" fill="#808080"/><path d="m521.634 380.798c-8.076 2.062-13.297-4.225-14.814-11.253-.402-6.992 2.381-12.291 9.543-14.197 6.154-1.64 11.855 2.575 14.051 8.065 3.282 8.206-.436 15.256-8.78 17.385z" fill="#808080"/><path d="m306.087 594.063c-8.076 2.061-13.297-4.226-14.814-11.254-.404-6.992 2.379-12.291 9.541-14.197 6.155-1.639 11.857 2.575 14.052 8.064 3.281 8.206-.437 15.259-8.779 17.387z" fill="#808080"/><path d="m374.364 575.28c-8.075 2.062-13.296-4.225-14.814-11.253-.402-6.991 2.381-12.292 9.543-14.196 6.154-1.641 11.855 2.574 14.051 8.064 3.283 8.206-.436 15.256-8.78 17.385z" fill="#808080"/><path d="m415.089 529.82c-8.076 2.062-13.297-4.226-14.814-11.253-.404-6.992 2.379-12.291 9.541-14.197 6.154-1.641 11.857 2.574 14.052 8.064 3.281 8.206-.437 15.257-8.779 17.386z" fill="#808080"/><path d="m352.312 409.987c6.99-.401 12.287 2.382 14.191 9.542 1.639 6.154-2.575 11.856-8.064 14.051-8.206 3.283-15.258-.436-17.387-8.779-2.061-8.08 4.23-13.301 11.26-14.814z" fill="#808080"/><path d="m451.597 482.601c-8.076 2.061-13.296-4.225-14.814-11.254-.402-6.991 2.381-12.29 9.543-14.197 6.154-1.639 11.855 2.575 14.051 8.065 3.282 8.206-.437 15.257-8.78 17.386z" fill="#808080"/><path d="m412.624 399.227c6.154-1.64 11.855 2.575 14.051 8.065 3.283 8.205-.436 15.256-8.779 17.385-8.076 2.061-13.296-4.225-14.814-11.253-.403-6.992 2.38-12.291 9.542-14.197z" fill="#808080"/><path d="m533.737 301.81c6.154-1.639 11.855 2.576 14.051 8.065 3.283 8.205-.436 15.256-8.779 17.385-8.076 2.061-13.297-4.225-14.814-11.253-.403-6.992 2.38-12.291 9.542-14.197z" fill="#808080"/><path d="m453.171 349.728c6.154-1.639 11.855 2.576 14.051 8.065 3.283 8.205-.436 15.257-8.779 17.386-8.076 2.061-13.297-4.226-14.814-11.254-.403-6.991 2.38-12.29 9.542-14.197z" fill="#808080"/><path d="m487.812 422.836c-3.328 7.411-10.312 10.276-17.457 6.426-7.77-4.186-7.721-12.524-3.41-19.076 3.91-4.437 9.061-6.893 14.91-4.264 6.685 3.003 8.855 10.457 5.957 16.914z" fill="#808080"/><path d="m313.802 458.382c6.154-1.639 11.856 2.575 14.051 8.065 3.283 8.205-.436 15.256-8.779 17.385-8.074 2.061-13.295-4.225-14.813-11.253-.405-6.991 2.379-12.292 9.541-14.197z" fill="#808080"/><path d="m574.479 302.657c-16.824-28.133-58.447-16.699-84.553-7.94.678 1.633 1.26 3.33 1.646 5.136 2.883 13.434-6.718 25.854-20.404 26.81-9.975.697-18.029-4.256-22.16-12.358-12.14 6.771-24.154 13.763-36.004 21.032 5.854 8.042 6.078 19.44-.28 27.726-7.397 9.645-20.403 13.969-31.052 6.06-2.651-1.969-4.801-4.231-6.457-6.686-29.256 23.968-58.252 48.248-86.963 72.868 1.713 2.719 3.02 5.796 3.746 9.182 2.881 13.434-6.719 25.854-20.406 26.811-7.174.501-13.32-1.971-17.779-6.371-25.41 20.29-59.561 38.967-58.725 74.854 10.492 1.123 18.092 9.16 20.383 19.848 2.881 13.434-6.719 25.854-20.404 26.811-.412.027-.791-.031-1.197-.023-1.371 11.094-5.932 34.711 7.775 37.932 11.861 2.787 23.844-.999 35.486-3.236 29.24-5.627 59.176.561 88.67-4.185-.035-.185-.086-.356-.104-.552-1.128-12.664 7.045-24.485 20.277-25.566 9.711-.797 17.513 4.006 21.884 11.654 36.609-19.533 60.627-48.5 85.113-81.503 20.459-27.578 42.746-53.752 64.631-80.203-2.324-3.061-4.014-6.749-4.781-10.97-.045-.245-.043-.471-.057-.705-.047-.229-.109-.449-.133-.695-1.127-12.665 7.046-24.486 20.277-25.568 5.127-.419 9.689.768 13.529 3.059 19.007-25.261 46.454-72.438 28.042-103.222zm-121.082 36.447c12.861-1.055 22.393 7.697 25.01 19.899 2.881 13.434-6.719 25.854-20.404 26.81-12.742.891-22.446-7.361-24.695-19.74-.045-.245-.043-.471-.057-.706-.047-.228-.109-.448-.132-.695-1.128-12.665 7.046-24.486 20.278-25.568zm-40.546 49.499c12.861-1.055 22.394 7.697 25.01 19.899 2.882 13.434-6.718 25.854-20.404 26.811-12.741.891-22.445-7.362-24.693-19.741-.047-.245-.044-.471-.059-.706-.047-.229-.109-.448-.131-.695-1.128-12.665 7.044-24.486 20.277-25.568zm-28.434 56.171c12.861-1.056 22.395 7.697 25.01 19.898 2.883 13.434-6.717 25.854-20.404 26.811-12.74.891-22.445-7.362-24.693-19.74-.045-.245-.043-.472-.059-.706-.047-.228-.108-.448-.131-.695-1.127-12.665 7.045-24.486 20.277-25.568zm-34.256-45.109c.248-.045.48-.045.719-.06.225-.045.439-.106.68-.127 12.664-1.127 24.486 7.045 25.567 20.278 1.056 12.862-7.696 22.394-19.899 25.01-13.434 2.882-25.854-6.718-26.81-20.404-.891-12.742 7.362-22.447 19.743-24.697zm-36.133 48.093c12.861-1.055 22.395 7.697 25.01 19.899 2.883 13.434-6.717 25.854-20.404 26.81-12.74.891-22.445-7.361-24.693-19.74-.045-.245-.043-.473-.059-.706-.047-.228-.108-.449-.131-.695-1.127-12.664 7.045-24.486 20.277-25.568zm-29.486 55.815c12.861-1.055 22.395 7.697 25.01 19.898 2.883 13.436-6.717 25.854-20.404 26.811-12.74.891-22.445-7.361-24.693-19.74-.045-.244-.043-.471-.059-.705-.047-.229-.108-.449-.131-.695-1.127-12.664 7.045-24.487 20.277-25.569zm-72.045 25.215c-.045-.245-.043-.474-.057-.706-.049-.228-.109-.448-.133-.694-1.127-12.666 7.045-24.486 20.277-25.568 12.863-1.055 22.395 7.697 25.011 19.898 2.882 13.434-6.718 25.854-20.405 26.811-12.74.89-22.445-7.362-24.693-19.741zm39.77 79.19c-13.434 2.883-25.854-6.717-26.811-20.404-.891-12.74 7.361-22.445 19.742-24.695.25-.045.482-.045.721-.061.225-.045.438-.106.678-.127 12.666-1.127 24.486 7.045 25.568 20.277 1.055 12.861-7.697 22.394-19.898 25.01zm53.379-3.281c-12.74.891-22.445-7.362-24.693-19.741-.045-.244-.043-.471-.057-.705-.049-.229-.109-.448-.133-.695-1.127-12.664 7.045-24.486 20.277-25.568 12.863-1.055 22.395 7.697 25.012 19.9 2.881 13.433-6.719 25.853-20.406 26.809zm17.404-88.01c-.891-12.74 7.361-22.445 19.742-24.696.25-.045.482-.045.721-.06.225-.045.438-.107.678-.127 12.666-1.127 24.486 7.046 25.568 20.277 1.055 12.861-7.697 22.395-19.898 25.01-13.434 2.883-25.854-6.717-26.811-20.404zm50.875 69.228c-12.741.891-22.445-7.361-24.693-19.74-.046-.244-.044-.473-.059-.705-.047-.229-.109-.449-.131-.695-1.127-12.665 7.045-24.486 20.277-25.568 12.861-1.055 22.394 7.697 25.01 19.898 2.883 13.433-6.718 25.853-20.404 26.81zm40.722-45.461c-12.74.891-22.445-7.361-24.693-19.74-.045-.244-.043-.471-.058-.705-.048-.229-.108-.449-.132-.695-1.127-12.664 7.045-24.486 20.277-25.568 12.863-1.056 22.395 7.697 25.011 19.898 2.883 13.435-6.717 25.855-20.405 26.81zm36.51-47.219c-12.742.891-22.445-7.362-24.694-19.741-.046-.245-.044-.471-.058-.705-.047-.229-.109-.449-.131-.695-1.128-12.665 7.045-24.486 20.277-25.568 12.861-1.055 22.393 7.697 25.01 19.899 2.882 13.434-6.718 25.854-20.404 26.81zm43.713-61.716c-7.396 9.645-20.402 13.969-31.051 6.06-11.124-8.259-13.734-21.625-5.697-33.164.156-.225.334-.405.508-.595.104-.156.189-.316.314-.471 7.961-9.69 21.343-12.005 31.599-4.371 10.19 7.584 12.089 22.427 4.327 32.541zm26.324-40.086c-12.742.891-22.445-7.362-24.694-19.741-.046-.245-.044-.471-.058-.706-.047-.229-.109-.448-.131-.695-1.128-12.665 7.045-24.486 20.277-25.567 12.861-1.056 22.393 7.697 25.01 19.898 2.881 13.435-6.718 25.855-20.404 26.811zm17.375-53.538c-12.742.891-22.445-7.362-24.694-19.741-.046-.245-.044-.471-.058-.706-.047-.229-.109-.448-.131-.695-1.128-12.665 7.045-24.486 20.277-25.568 12.861-1.055 22.393 7.697 25.01 19.899 2.881 13.434-6.718 25.854-20.404 26.811z" fill="#ff8e5b"/><path d="m232.358 512.442c6.154-1.639 11.857 2.576 14.052 8.066 3.282 8.205-.437 15.256-8.778 17.385-8.076 2.061-13.297-4.225-14.814-11.254-.405-6.99 2.378-12.29 9.54-14.197z" fill="#808080"/><path d="m646.291 519.297c-9.165 21.622-19.03 42.937-29.962 63.714-19.666 37.377-42.68 74.466-70.633 106.914-10.602 12.311 1.999 15.674 24.438 15.617 44.194-.121 88.514-1.871 131.479-12.393 29.873-7.314 64.469-17.99 87.293-39.813 15.91-15.216 26.498-37.027 34.769-57.286-11.817 10.77-24.724 20.398-38.095 28.83-35.459 22.367-78.254 42.164-120.753 42.834-19.522.309-44.821-3.514-53.173-23.842-5.666-13.79-.91-30.629 3.211-44.158 8.314-27.301 22.102-53.307 31.426-80.417z" fill="#ee9e2b"/><path d="m662.259 447.97c-2.221 4.443-4.502 8.857-6.938 13.197-15.395 27.421-32.154 53.88-50.033 79.748-33.492 48.453-68.703 94.846-113.457 133.531-42.945 37.119-93.492 66.309-148.902 79.762-43.035 10.451-86.129 8.582-128.519.531 20.319 9.492 41.598 16.756 62.84 21.594 211.228 44.166 321.374-148.244 385.009-328.363z" fill="#ee9e2b"/><path d="m194.2 391.525c-24.398 19.298-49.393 38.875-70.813 61.661.204.732.375 1.46.6 2.193 5.279 17.321 14.365 6.097 29.488-8.166 65.814-62.083 140.389-112.332 214.424-163.692-24.781 10.157-48.766 22.285-71.882 35.769-36.125 21.073-69.086 46.345-101.817 72.235z" fill="#ee9e2b"/><path d="m809.086 431.42c-11.749-17.085-36.228-40.697-62.04-42.073-32.082-1.709-73.28 48.892-60.838 124.478 2.921 17.752 13.07 30.518 36.145 32.803 23.936 2.371 45.85-4.74 65.035-16.002 43.373-25.463 46.406-63.279 21.698-99.206z" fill="#fbe134"/><path d="m550.722 550.371c27.272-27.503 52.299-57.15 74.926-88.581 11.262-15.643 21.699-31.896 31.957-48.21 6.316-10.048 11.859-20.602 15.283-31.866-9.467 16.096-19.486 31.85-30.057 47.096-50.229 72.445-112.209 138.335-186.404 186.623-69.986 45.545-154.16 84.9-239.354 85.625-31.633.27-62.904-5.496-88.613-20.02 3.824 3.289 7.899 6.385 12.361 9.131 37.383 23 87.262 18.918 128.703 13.176 51.021-7.07 99.652-20.41 144.998-45.314 50.926-27.973 95.471-66.585 136.2-107.66z" fill="#fbe134"/><path d="m310.312 254.957c-45.85 3.99-103.101 42.527-127.742 81.362-16.756 26.416-11.875 31.104 15.713 12.06 43.677-30.159 105.713-56.243 120.934-62.311 33.794-13.467 24.968-34.057-8.905-31.111z" fill="#fbe134"/><path d="m778.329 562.892c-10.361 22.032 2.078 32.842 21.6 19.389 5.377-3.709 11.703-10.17 15.875-17.354 8.268-14.234 10.174-27.115 4.992-31.429-9.192-7.645-34.363 12.15-42.467 29.394z" fill="#fbe134"/><path d="m574.479 302.657c-1.326-2.215-2.854-4.106-4.467-5.852-4.744 1.732-9.307 4.237-13.612 7.197 1.114 2.188 2.026 4.535 2.573 7.082 2.881 13.434-6.719 25.854-20.404 26.811-4.285.3-8.184-.511-11.611-2.088-1.871 2.958-3.658 5.978-5.398 9.034 10.31 1.263 17.773 9.215 20.039 19.781 2.881 13.434-6.719 25.854-20.404 26.811-8.582.601-15.721-3.012-20.195-9.176-3.205 5.784-6.441 11.583-9.766 17.357 9.526 7.742 11.203 22.046 3.637 31.905-6.877 8.968-18.606 13.322-28.777 7.53-2.41 3.322-4.884 6.578-7.422 9.771 6.547 3.272 11.191 9.684 12.891 17.605 2.882 13.434-6.719 25.854-20.404 26.81-12.742.891-22.445-7.362-24.694-19.741-.046-.245-.044-.471-.058-.705-.047-.229-.109-.449-.131-.695-.027-.309-.023-.611-.039-.917-5.701 2.073-11.598 3.772-17.477 5.369-2.791 8.151-10.287 14.277-19.736 14.938-5.494.385-10.365-1.012-14.376-3.626-4.903 2.392-9.567 5.155-14.019 8.228 5.037 3.544 8.563 9.067 9.131 15.997 1.055 12.861-7.697 22.395-19.898 25.01-8.703 1.869-16.959-1.523-21.971-7.851-6.559 9.642-12.004 20.149-18.494 29.569 8.539 2.424 14.646 9.71 16.656 19.078 2.881 13.434-6.719 25.854-20.406 26.81-12.74.891-22.445-7.362-24.693-19.741-.045-.244-.043-.471-.057-.705-.049-.229-.109-.448-.133-.695-.008-.092-.004-.184-.012-.273-.758.293-1.471.625-2.258.889-2.104.703-4.229 1.324-6.363 1.913-.494 11.253-8.682 19.495-19.863 21.894-10.764 2.311-20.861-3.404-24.947-12.805-8.076 1.832-16.003 4.16-23.58 7.66-4.02 1.855-7.883 3.991-11.561 6.369.529 7.32 2.875 13.598 9.467 15.146 11.861 2.787 23.844-.999 35.486-3.236 29.24-5.627 59.176.561 88.67-4.185-.035-.185-.086-.356-.104-.552-1.128-12.664 7.045-24.485 20.277-25.566 9.711-.797 17.513 4.006 21.884 11.654 36.609-19.533 60.627-48.5 85.113-81.503 20.459-27.578 42.746-53.752 64.631-80.203-2.324-3.061-4.014-6.749-4.781-10.97-.045-.245-.043-.471-.057-.705-.047-.229-.109-.449-.133-.695-1.127-12.665 7.046-24.486 20.277-25.568 5.127-.419 9.689.768 13.529 3.059 19.005-25.263 46.452-72.44 28.04-103.224zm-200.554 283.258c-12.741.891-22.445-7.361-24.693-19.74-.046-.244-.044-.473-.059-.705-.047-.229-.109-.449-.131-.695-1.127-12.665 7.045-24.486 20.277-25.568 12.861-1.055 22.394 7.697 25.01 19.898 2.883 13.433-6.718 25.853-20.404 26.81zm40.722-45.461c-12.74.891-22.445-7.361-24.693-19.74-.045-.244-.043-.471-.058-.705-.048-.229-.108-.449-.132-.695-1.127-12.664 7.045-24.486 20.277-25.568 12.863-1.056 22.395 7.697 25.011 19.898 2.883 13.435-6.717 25.855-20.405 26.81z" fill="#ff564d"/><path d="m856.323 518.491c-.385 2.879-.848 5.748-1.32 8.613 15.335 1.797 31.548 1.676 44.947-4.225 2.713-1.195 5.133-2.689 7.306-4.396-.974-2.81-2.427-5.312-4.605-7.173-7.479-6.387-18.646 3.304-26.716 5.203-6.627 1.562-12.944 2.204-19.612 1.978z" fill="#d4ba89"/><path d="m867.707 546.61c-4.726-1.057-10.544-1.367-16.454-.81-1.168 4.992-2.418 9.966-3.844 14.894 9.182-4.416 19.162-6.295 30.037-5.246 1.691.162 3.822.687 6.115 1.248-3.607-5.039-9.484-8.664-15.854-10.086z" fill="#865725"/><path d="m289.587 539.648c8.344-2.13 12.063-9.181 8.779-17.386-.053-.135-.135-.262-.195-.395-1.754 3.955-5.327 7.021-10.559 8.123-5.418 1.139-9.889-1.125-12.748-4.813-.105 1.03-.156 2.092-.091 3.218 1.519 7.028 6.74 13.315 14.814 11.253z" fill="#515151"/><path d="m351.069 525.905c5.49-2.193 9.705-7.896 8.066-14.051-.276-1.037-.643-1.955-1.057-2.813-1.6 3.929-4.545 7.204-9.165 8.993-5.515 2.135-11.562-.256-15.548-4.484-.061 1.129-.007 2.304.318 3.576 2.13 8.344 9.181 12.062 17.386 8.779z" fill="#515151"/><path d="m237.632 537.894c8.342-2.129 12.061-9.18 8.778-17.385-.294-.736-.661-1.442-1.073-2.123-2.859 5.271-7.346 9.168-14.244 9.377-3.496.107-6.164-.84-8.275-2.414 0 .43-.027.848 0 1.291 1.517 7.029 6.738 13.314 14.814 11.254z" fill="#515151"/><path d="m388.208 360.807c7.146 3.851 14.129.985 17.457-6.426 1.02-2.273 1.379-4.661 1.166-6.944-4.521 3.488-10.435 6.617-16.289 5.737-2.801-.419-5.855-1.58-8.602-3.258-.251 4.274 1.551 8.351 6.268 10.891z" fill="#515151"/><path d="m471.608 316.029c7.367-1.88 11.109-7.6 9.629-14.561-3.977 2.181-7.963 3.447-13.666 3.016-3.69-.28-7.357-1.469-10.648-3.199-.133 1.113-.197 2.265-.129 3.491 1.519 7.028 6.739 13.314 14.814 11.253z" fill="#515151"/><path d="m374.896 465.195c-.24 1.374-.338 2.837-.247 4.4 1.108 5.132 4.21 9.83 8.938 11.21.573.099 1.138.225 1.724.296.164.019.327.048.496.056.402.045.775.006 1.174.033.799-.039 1.617-.119 2.482-.342 7.916-2.02 11.592-8.486 9.152-16.151-3.592 1.65-7.288 2.995-10.662 3.377-4.681.531-8.977-.873-13.057-2.879z" fill="#515151"/><path d="m340.835 423.21c.064.529.076 1.035.217 1.59 2.129 8.343 9.181 12.062 17.387 8.779 4.186-1.674 7.607-5.389 8.283-9.787-3.646 2.021-7.584 3.386-11.781 3.503-4.948.139-9.745-1.536-14.106-4.085z" fill="#515151"/><path d="m403.261 409.534c-.176 1.23-.258 2.516-.18 3.89 1.277 5.917 5.209 11.246 11.231 11.572.491 0 .981-.01 1.469-.029.688-.056 1.376-.101 2.114-.29 8.172-2.086 11.865-8.902 8.928-16.892-3.521 1.481-7.109 2.754-10.332 3.544-5.375 1.317-9.588.417-13.23-1.795z" fill="#515151"/><path d="m487.812 422.836c.549-1.222.857-2.48 1.047-3.737-4.516 1.055-9.102 1.867-13.418 2.201-3.752.288-7.729.103-11.178-1.516-.059-.026-.1-.067-.158-.097.172 3.781 2.022 7.298 6.25 9.575 7.145 3.851 14.128.986 17.457-6.426z" fill="#515151"/><path d="m458.442 375.179c6.965-1.777 10.641-7.004 9.777-13.451-4.174 2.583-8.922 4.398-13.455 4.305-4.689-.097-8.035-2.164-11.122-4.745-.06.85-.067 1.726-.015 2.637 1.519 7.029 6.739 13.315 14.815 11.254z" fill="#515151"/><path d="m384.269 564.276c-4.758 1.841-10.18 2.228-14.793 1.154-3.612-.842-6.973-2.432-9.816-4.764-.119 1.072-.176 2.182-.109 3.36 1.519 7.028 6.739 13.314 14.814 11.253 6.062-1.546 9.636-5.706 9.904-11.003z" fill="#515151"/><path d="m304.26 470.152c-.046.784-.048 1.592 0 2.427 1.519 7.028 6.739 13.314 14.813 11.253 7.33-1.87 11.082-7.541 9.662-14.452-3.934 2.166-8.229 3.964-11.957 4.295-4.638.412-8.764-1.161-12.518-3.523z" fill="#515151"/><path d="m446.997 472.585c-4.476-.757-7.619-2.604-10.035-5.117-.176 1.228-.258 2.509-.18 3.879 1.519 7.029 6.738 13.315 14.814 11.254 6.352-1.621 9.999-6.103 9.939-11.768-4.723 1.718-9.712 2.569-14.538 1.752z" fill="#515151"/><path d="m360.979 615.431c-4.445 1.139-9.08 1.668-12.9 1.49-5.359-.248-8.837-1.91-11.799-4.385-.095.994-.136 2.014-.074 3.094 1.518 7.029 6.738 13.314 14.814 11.254 6.237-1.592 9.883-5.938 9.959-11.453z" fill="#515151"/><path d="m235.929 586.833c.063.396.057.77.162 1.18 2.129 8.344 9.18 12.063 17.385 8.779 5.098-2.038 9.032-7.106 8.266-12.746-4.201 1.699-8.564 3.141-12.516 4.117-5.301 1.311-9.596.674-13.297-1.33z" fill="#515151"/><path d="m272.034 460.664c8.137-2.075 11.822-8.845 8.957-16.791-3.957 2.724-8.275 4.984-12.689 5.926-4.756 1.014-8.303.072-11.082-2.149-.013.58-.035 1.156 0 1.761 1.517 7.028 6.738 13.314 14.814 11.253z" fill="#515151"/><path d="m547.878 426.948c-4.905.934-10.016 1.22-14.404.446-4.281-.755-7.441-2.178-10.081-4.173-.245 1.382-.341 2.851-.251 4.42 1.518 7.029 6.738 13.315 14.814 11.254 6.418-1.638 10.059-6.2 9.922-11.947z" fill="#515151"/><path d="m204.905 560.478c-6.348 6.773-15.035 9.764-23.41 6.8 2.153 5.813 7.004 10.317 14.012 8.528 7.631-1.949 11.326-8.03 9.398-15.328z" fill="#515151"/><path d="m521.634 380.798c7.022-1.792 10.709-7.088 9.76-13.608-3.402 2.587-7.098 4.998-10.463 6.171-4.574 1.594-9.758-.235-14.002-3.434 1.625 6.868 6.779 12.896 14.705 10.871z" fill="#515151"/><path d="m306.087 594.063c7.766-1.984 11.446-8.244 9.28-15.718-4.212 2.024-8.608 3.692-12.921 4.579-4.406.902-7.998.012-11.174-1.801-.01.557-.033 1.105 0 1.686 1.518 7.029 6.739 13.315 14.815 11.254z" fill="#515151"/><path d="m424.517 521.563c-3.715.891-7.477 1.428-11.203 1.229-5.67-.303-9.688-2.75-13.039-6.111-.02.619-.037 1.238 0 1.887 1.518 7.027 6.738 13.314 14.814 11.253 4.963-1.267 8.239-4.3 9.428-8.258z" fill="#515151"/><path d="m524.3 316.375c1.621 6.875 6.777 12.91 14.709 10.885 7.355-1.876 11.1-7.582 9.639-14.528-4.713 2.176-9.586 4.178-14.48 5.139-3.942.773-7.124.057-9.868-1.496z" fill="#515151"/><path d="m178.007 525.458c-2.031 7.078-2.197 14.001-.899 20.398 2.108-2.061 4.591-3.756 7.489-4.82-2.008-41.304 35.141-61.685 63.521-84.963-.52-1.434-.933-2.939-1.219-4.515-.045-.245-.043-.473-.057-.706-.049-.229-.109-.448-.133-.695-.035-.405-.035-.804-.053-1.208-13.35 10.791-26.391 22.125-38.984 33.713-12.95 11.921-24.734 25.591-29.665 42.796z" fill="#ef6200"/><path d="m404.521 328.182c.087-.058.147-.126.239-.182 13.607-8.419 27.451-16.457 41.449-24.214-.064-2.855.369-5.632 1.195-8.236-17.469 9.049-34.072 19.414-50.164 30.56 2.468.26 4.925.936 7.281 2.072z" fill="#ef6200"/><path d="m683.046 340.873c13.322-24.471 34.783-60.071 14.447-85.462-9.084-10.495-21.444-17.599-35.207-20.888-28.647-6.848-57.529-9.291-86.098-16.776 5.519 3.476 10.978 7.084 16.764 10.194 20.129 10.815 42.301 10.905 64.045 15.723 69.766 15.46 11.227 107.998-9.418 142.917-15.004 25.376-31.256 50.628-50.307 73.162-17.914 21.188-37.727 40.777-57.4 60.312-38.979 38.701-81.418 72.9-128.271 101.781-31.854 19.639-65.563 32.543-101.337 42.977-35.07 10.225-71.734 17.748-108.42 15.24-32.762-2.238-67.873-17.008-91.439-40.119-12.268-12.033-19.2-27.299-24.486-43.383-1.142-3.477-2.195-7.021-3.114-10.607.075 6.45.726 13.061 2.106 19.871 11.862 58.617 79.482 90.158 148.891 83.865 77.752-7.055 152.91-40.316 217.308-83.34 66.083-44.15 123.789-100.957 170.28-165.387 23.083-31.989 42.822-65.476 61.656-100.08z" fill="#ef6200"/><path d="m483.702 285.722c28.005-9.542 82.791-24.145 99.871 11.62 2.787 5.835 4.566 11.864 5.521 17.998-1.281-19.342-12.66-37.556-31.307-44.983-15.965-6.36-36.008-2.931-52.111 1.024-9.904 2.431-19.527 5.957-28.938 10.013 2.593 1.008 4.935 2.471 6.964 4.328z" fill="#ef6200"/><path d="m349.116 361.883c-25.088 19.475-54.685 38.486-76.152 63.037 2.859.506 5.508 1.479 7.854 2.931 29.902-25.646 60.1-50.936 90.596-75.875-.234-2.52.004-5.097.672-7.667-7.708 5.783-15.352 11.658-22.97 17.574z" fill="#ef6200"/><path d="m115.29 503.698c-13.508 17.363-24.074 35.545-29.174 55.234 19.641-34.77 46.293-65.806 75.168-92.827 38.694-36.21 80.451-69.405 122.732-101.286 42.889-32.335 87.137-62.627 131.088-93.465 21.742-15.254 42.477-31.811 66.178-44.033 19.082-9.839 39.502-13.835 60.363-16.059-21.336-1.619-41.274 2.038-63.441 11.866-12.289 5.449-23.154 12.899-34.26 20.444-74.424 50.56-150.227 100.257-220.297 156.756-38.595 31.123-77.763 64.047-108.357 103.37z" fill="#facb1a"/><g fill="#68182b"><path d="m379.163 506.919c-1.575 2.373-3.232 6.867-1.46 9.478.501.741 1.755 1.136 2.415.312 1.882-2.354 1.695-6.732.971-9.539-.24-.927-1.44-.985-1.926-.251z"/><path d="m333.354 551.384c-.412.625.018 1.432.67 1.639 1.848.594 3.717.764 5.648.609 3.148-.254 3.215-4.818 0-4.941-2.472-.092-4.888.538-6.318 2.693z"/><path d="m277.353 599.288c-.574-.387-1.537.117-1.461.838.232 2.189-.385 5.192 1.387 6.885.586.561 1.74.706 2.303 0 1.075-1.347.875-2.549.553-4.171-.341-1.701-1.472-2.673-2.782-3.552z"/><path d="m217.002 604.255c-1.728 1.177-3.441 3.063-2.968 5.342.188.907 1.357 1.324 2.113.859 1.904-1.166 2.056-3.613 1.92-5.59-.033-.496-.588-.933-1.065-.611z"/><path d="m225.767 555.616c-1.229-.736-2.59.465-2.297 1.766.514 2.295 3.188 3.082 5.14 1.998.195-.107.218-.332.136-.518-.583-1.31-1.76-2.515-2.979-3.246z"/><path d="m257.261 545.688c-1.041 2.124-.512 5.271 1.35 6.87.215.186.482.186.699 0 1.861-1.6 2.391-4.746 1.35-6.87-.632-1.287-2.77-1.287-3.399 0z"/><path d="m263.499 501.321c1.629-2.127 1.689-5.632.719-8.083-.789-1.989-4.15-1.932-4.008.541.152 2.615 1.025 5.589 2.695 7.619.17.206.461.098.594-.077z"/><path d="m286.167 493.003c.24.14.5-.043.52-.298.217-2.676-.564-4.97-2.342-7.045-1.254-1.465-3.797.084-3.211 1.87.867 2.637 2.738 4.146 5.033 5.473z"/><path d="m346.694 481.971c-.105.646.486 1.191 1.113.856 2.861-1.535 5.318-5.109 3.801-8.316-.104-.216-.428-.352-.65-.266-3.062 1.179-3.782 4.779-4.264 7.726z"/><path d="m416.522 478.878c-.928 1.936-.842 3.104-.414 5.103.146.679.973.761 1.43.377 1.27-1.07 2.717-1.928 3.051-3.767.176-.979.373-2.783-.852-3.25-1.171-.444-2.703.467-3.215 1.537z"/><path d="m449.435 502.593c-2.043.494-3.813 1.449-4.762 3.396-.262.533.049 1.217.695 1.213 1.754-.01 3.43-.336 5.1-.861 2.386-.754 1.408-4.341-1.033-3.748z"/><path d="m408.895 550.263c-1.917-1.217-3.942-1.605-6.179-1.527-.85.031-1.127 1.107-.424 1.564 1.594 1.033 3.074 2.221 4.738 3.152 2.088 1.17 3.871-1.916 1.865-3.189z"/><path d="m333.849 574.083c-1.147 2.095-2.188 6.016-.463 8.015.418.483 1.331.483 1.748 0 1.727-1.999.686-5.92-.463-8.015-.168-.311-.653-.311-.822 0z"/><path d="m311.415 549.317c-.311.856.344 2.102 1.273 2.242 2.111.322 3.51-1.301 4.178-3.168.154-.432-.17-.957-.604-1.061-1.892-.448-4.13.017-4.847 1.987z"/><path d="m245.587 493.12c.559-.156 1.959-.872 1.617-1.676-.799-1.878-3.425-3.324-5.358-2.876-1.753.407-2.312 2.775-1.056 3.993 1.449 1.4 3.023 1.055 4.797.559z"/><path d="m264.999 483.716c.512.177 1.189-.2 1.295-.736.465-2.37-1.038-4.42-3.529-4.424-1.281-.002-2.283 1.526-1.527 2.659.952 1.433 2.2 1.958 3.761 2.501z"/><path d="m306.469 442.054c1.923-.46 3.425-2.573 4.54-4.081.654-.886 2.551-3.795.906-4.757-3.678-2.154-6.68 6.008-5.991 8.528.065.24.31.368.545.31z"/><path d="m278.453 561.306c.366-.463.675-.861.617-1.488-.089-.965-.582-1.742-1.547-2.033-1.806-.545-3.558-.594-5.399-.508-.578.027-.861.586-.625 1.09.93 1.971 2.832 2.928 4.903 3.482.663.177 1.597.031 2.051-.543z"/><path d="m214.005 591.702c.654-.33 1.179-.814 1.736-1.282.367-.311.375-.889.699-1.125.199-.144.148-.493-.134-.489-.329.004-.814-.33-1.11-.451-.576-.238-1.521-.123-2.115-.062-1.637.167-3.326.544-4.096 2.144-.291.607-.143 1.238.426 1.619 1.517 1.007 3.103.392 4.594-.354z"/><path d="m229.319 610.103c-1.863.34-3.385 1.514-4.471 3.032-.9 1.261.887 3.046 2.146 2.146 1.518-1.086 2.691-2.605 3.031-4.47.083-.451-.256-.79-.706-.708z"/><path d="m348.091 452.872c-1.055-.64-2.301 0-2.674 1.088-.65 1.901.428 3.692 1.177 5.416.234.543 1.171 2.58 2.101 2.104 2.872-1.471 1.665-7.232-.604-8.608z"/><path d="m386.903 429.157c-.545 2.46.484 4.834 1.695 6.926.186.321.666.321.852 0 1.273-2.205 2.207-5 .746-7.358-.781-1.261-2.943-1.151-3.293.432z"/><path d="m422.538 452.561c-.496-.335-1.369-.362-1.863 0-1.85 1.352-3.129 3.024-3.469 5.319-.032.212.113.354.324.323 2.105-.309 3.764-1.399 5.383-2.74.498-.413.631-1.205.475-1.798-.145-.546-.389-.795-.85-1.104z"/><path d="m374.474 493.883c-2.465-1.331-4.658 2.419-2.193 3.75 1.506.813 2.779 1.131 4.482.996 1.154-.093 1.963-1.508.998-2.411-1.035-.967-2.037-1.66-3.287-2.335z"/><path d="m319.769 535.827c.377.178.799-.037.816-.47.041-.917.367-1.692.334-2.657-.045-1.255-.318-2.475-.707-3.664-.906-2.756-4.703-1.594-4.263 1.178.2 1.254.552 2.404 1.177 3.512.689 1.218 1.465 1.541 2.643 2.101z"/><path d="m422.431 545.071c-.637-.609-1.807-.902-2.578-.334-1.564 1.154-3.434 2.564-3.809 4.594-.086.465.121 1.027.645 1.133 2.184.439 4.23-.926 5.742-2.385.645-.619.871-1.813.334-2.576-.106-.149-.202-.307-.334-.432z"/><path d="m463.737 494.188c-1.625.711-2.938 2.384-3.723 3.943-.227.453.041 1.135.625 1.09 2.203-.168 4.473-1.217 5.125-3.474.37-1.273-.984-2.018-2.027-1.559z"/><path d="m444.847 516.56c-1.584.799-2.473 3.174-3.125 4.729-.779 1.857 1.982 3.203 3.248 1.891 1.421-1.477 2.281-4.334 1.293-6.248-.27-.525-.936-.619-1.416-.372z"/><path d="m484.728 459.839c-1.531.75-3.059 2.444-3.807 3.974-.279.571.047 1.409.781 1.361 2.23-.144 4.527-1.448 5.262-3.618.461-1.363-1.127-2.261-2.236-1.717z"/><path d="m413.292 446.734c-.469-1.874-1.207-3.332-2.445-4.858-.461-.568-1.266-.619-1.92-.508-.588.103-.889.403-1.178.907-.323.562-.412 1.44 0 1.993 1.295 1.743 2.748 2.674 4.814 3.197.444.11.838-.289.729-.731z"/><path d="m319.579 433.28c.727 1.398 2.971.738 2.934-.796-.051-2.224-1.813-6.631-4.576-6.522-.234.008-.369.175-.395.395-.133 1.09.414 2.098.752 3.114.432 1.293.652 2.585 1.285 3.809z"/><path d="m224.528 498.416c2.055-.486 4.387-2.601 5.639-4.251.373-.492-.133-1.236-.695-1.213-2.301.093-5.168 1.573-6.472 3.479-.708 1.034.45 2.241 1.528 1.985z"/><path d="m236.987 554.714c-.49.268-.494 1.043 0 1.309 1.678.902 3.631.979 5.457.531 2.043-.5 1.137-3.391-.848-3.078-1.569.246-3.199.472-4.609 1.238z"/><path d="m205.703 602.831c-1.16-1.064-2.62-.999-4.03-.428-1.02.414-2.828 1.533-2.256 2.941 1.014 2.5 5.264-.438 6.286-1.604.222-.255.27-.659 0-.909z"/><path d="m292.913 607.812c-1.086-.023-2.166-.078-3.248.043-.77.084-1.306.623-1.871.764-.322.08-.494.569-.21.797.507.406.72.892 1.31 1.289.736.495 1.862.498 2.714.598 1.333.158 3.843.123 4.288-1.529.369-1.371-2.129-1.947-2.983-1.962z"/><path d="m335.595 563.431c-.637.193-.934 1.057-.406 1.541 1.423 1.302 3.773 1.898 5.677 1.703 1.335-.139 2.175-2.014.745-2.752-1.729-.893-4.153-1.056-6.016-.492z"/><path d="m376.515 528.181c-.658.803-.777 1.896 0 2.685.115.115.238.224.385.296.742.371 1.703.359 2.301-.296 1.182-1.302 2.369-2.497 3.02-4.157.314-.805-.625-1.652-1.396-1.396-1.709.56-3.164 1.475-4.31 2.868z"/><path d="m405.421 560.179c-.895.723-1.121 1.713-1.414 2.787-.314 1.17-.902 2.02-.51 3.225.191.582.814 1.027 1.439.819 2.333-.777 3.268-5.159 1.393-6.831-.283-.251-.623-.229-.908 0z"/><path d="m312.788 502.206c-1.396.432-2.494 1.469-3.523 2.455-.564.539-.697 1.496-.279 2.162.176.279.367.459.641.641.699.467 1.576.224 2.162-.278.87-.749 1.777-1.438 2.59-2.251.549-.551.807-1.308 1.311-1.84.34-.363.082-.891-.385-.928-.958-.074-1.519-.271-2.517.039z"/><path d="m375.013 401.3c2.808-1.037 4.957-6.556 3.17-9.09-.799-1.129-2.656-1.407-3.393 0-.705 1.35-.574 2.851-.798 4.336-.226 1.51-.575 2.979.146 4.398.146.288.566.47.875.356z"/><path d="m382.788 399.903c-.059.265.129.619.443.584 1.325-.145 6.604-.438 5.789-2.868-.527-1.58-2.523-1.234-3.678-.761-1.361.559-2.253 1.635-2.554 3.045z"/><path d="m437.513 440.818c-.154.303-.039.743.336.821 2.141.448 5.115-.227 6.956-1.374 1.354-.842.938-3.406-.872-3.224-2.304.233-5.329 1.618-6.42 3.777z"/><path d="m443.079 433.09c.186.378.775.539 1.125.294 1.666-1.168 2.285-3.345 2.76-5.239.585-2.33-2.918-3.295-3.586-.991-.55 1.888-1.211 4.079-.299 5.936z"/><path d="m487.397 452.335c-.287.039-.322.428-.158.605 1.381 1.497 2.555 2.726 4.594 3.418 1.378.471 2.434-1.444 1.404-2.413-1.759-1.655-3.609-1.914-5.84-1.61z"/><path d="m476.489 477.08c-.275 1.306-.236 2.621-.449 3.931-.048.292.178.604.506.506 1.605-.485 2.643-1.493 3.404-2.979 1.313-2.56-2.911-4.047-3.461-1.458z"/><path d="m432.907 496.847c-.324.225-.518.792-.14 1.086 1.728 1.337 4.548 2.843 6.632 1.687.287-.161.367-.476.316-.78-.491-2.893-4.679-3.467-6.808-1.993z"/><path d="m384.728 387.305c1.491-1.66 2.277-4.235 1.629-6.403-.372-1.249-2.343-1.728-2.973-.389-1.004 2.141-1.049 4.889.459 6.792.203.257.675.232.885 0z"/><path d="m358.733 387.586c2.094-.362 4.756-.512 6.418-1.954.193-.169.193-.531 0-.699-1.787-1.547-4.727-1.551-6.946-1.257-.831.111-1.749.521-1.919 1.46-.111.609-.121.992.199 1.535.491.825 1.352 1.07 2.248.915z"/><path d="m418.302 377.396c2.826-1.363 5.203-4.132 4.967-7.384-.033-.442-.43-.636-.816-.469-2.844 1.217-4.564 4.157-5.068 7.148-.094.553.397.956.917.705z"/><path d="m447.549 400.284c.032-2.211-.429-5.595-2.044-7.238-.512-.522-1.355-.247-1.568.414-.672 2.108-.062 5.126.305 7.273.325 1.925 3.279 1.392 3.307-.449z"/><path d="m485.353 384.365c.049-.173 0-.37-.131-.496-2.09-2.018-4.947.784-6.572 2.047-.422.329-.055 1.02.42 1.012 2.044-.037 5.615-.091 6.283-2.563z"/><path d="m508.198 398.614c-2.066 1.697-3.348 4.743-2.625 7.405.412 1.512 2.332 1.283 2.834 0 .825-2.104.686-4.815.66-7.045-.004-.475-.539-.634-.869-.36z"/><path d="m499.966 438.183c-.205.111-.223.463 0 .568 1.504.716 2.66 1.08 4.355.85 1.12-.154 4.008-1.039 3.346-2.792-1.104-2.921-6.178.56-7.701 1.374z"/><path d="m548.841 387.625c-2.416.928-4.009 3.256-5.217 5.431-.094.173.029.359.215.372 2.772.187 5.574-1.599 6.607-4.196.356-.893-.722-1.946-1.605-1.607z"/><path d="m489.319 350.487c.629-2.135.963-4.443.078-6.541-.461-1.092-1.939-1.524-2.637-.346-1.031 1.749-1.498 3.686-1.829 5.677-.475 2.842 3.545 4.078 4.388 1.21z"/><path d="m501.757 340.433c-1.777.294-4.652.94-5.779 2.45-.154.206-.058.483.084.658 1.366 1.662 4.932 1.249 6.703.547 2.279-.899 1.418-4.056-1.008-3.655z"/><path d="m437.529 334.357c2.347.271 5.299-1.183 6.714-3.047.164-.216.049-.606-.189-.72-2.299-1.09-5.905-.845-7.571 1.238-.843 1.058-.289 2.377 1.046 2.529z"/><path d="m428.224 343.553c2.229-1.417 2.695-5.375 1.305-7.524-.241-.374-.721-.345-.967 0-1.336 1.868-2.361 5.328-.967 7.36.136.201.406.306.629.164z"/><path d="m475.892 336.5c.835.397 1.652.551 2.564.613 1.508.103 1.87-2.445.357-2.655-.772-.109-1.529-.183-2.311-.214-.617-.022-1.484.227-2.068.107-.454-.092-.662.457-.305.722.686.506.907 1.022 1.763 1.427z"/><path d="m493.923 331.969c2.254-.899 3.256-2.907 3.826-5.155.127-.506.012-1.113-.391-1.475-.504-.455-.807-.55-1.473-.389-.509.121-.922.562-1.059 1.057-.498 1.814-.895 3.646-1.41 5.455-.077.278.208.626.507.507z"/><path d="m502.735 314.824c1.066-1.123-.003-2.832-1.463-2.516-1.357.294-2.75.889-3.98 1.53-.251.132-.247.455-.082.646 1.375 1.626 4.004 1.938 5.525.34z"/><path d="m502.981 302.98c1.912-1.203 4.113-2.707 4.375-5.146.109-1.006-1.111-1.444-1.859-1.069-2.047 1.026-2.765 3.671-3.145 5.732-.064.345.286.699.629.483z"/><path d="m510.681 332c-1.395-1.896-3.451-3.297-5.699-3.984-.297-.091-.598.21-.506.506.682 2.228 2.197 4.347 4.365 5.317 1.078.481 2.732-.628 1.84-1.839z"/><path d="m549.888 346.25c-1.666-2.845-6.074 1.358-6.945 3.009-.145.273.03.658.369.644 1.476-.066 8.292-.726 6.576-3.653z"/><path d="m548.763 354.015c-.718 1.649.307 4.733 1.333 6.088.796 1.049 3.106.94 2.884-.782-.234-1.826-1.658-5.403-3.875-5.502-.126-.006-.289.077-.342.196z"/><path d="m555.134 366.739c-1.588.376-3.68 1.397-5.347 1.121-.573-.095-.997.527-.575.992 1.783 1.956 4.861 2.224 7.055.576 1.289-.971.58-3.096-1.133-2.689z"/><path d="m565.81 350.475c-.051-.848-.75-1.354-1.57-1.195-1.969.376-2.996 2.828-4.367 4.118-.209.195-.127.638.182.687 2.286.364 5.928-.679 5.755-3.61z"/><path d="m565.411 339.997c-.258-2.03-1.256-4.686-3.669-4.624-.167.004-.368.122-.397.303-.275 1.771.258 3.559 1.154 5.111.725 1.251 3.119.818 2.912-.79z"/><path d="m572.05 321.326c2.543-.979 1.598-4.86-1.146-4.152-1.469.378-3.317 1.549-3.965 2.99-.189.422-.041.862.413 1.017 1.422.481 3.278.694 4.698.145z"/><path d="m565.171 307.263c.295.14.656.033.749-.304.532-1.913.062-4.674-1.229-6.243-.145-.173-.486-.175-.631 0-1.604 1.968-1.247 5.428 1.111 6.547z"/><path d="m568.587 330.173c-.494.002-.842.397-.871.873-.045.757.283 1.304.592 1.984.488 1.08.645 2.078 1.436 2.983.711.808 1.822.25 2.156-.568.806-1.973-1.046-5.277-3.313-5.272z"/><path d="m533.208 394.786c-2.451-.603-4.053.86-4.967 2.943-.126.288.078.654.428.556 1.475-.409 3.055.13 4.539-.389 1.432-.5 1.642-2.707 0-3.11z"/><path d="m497.314 390.55c.532-1.326-.132-2.906-1.019-3.929-.443-.514-1.914-1.837-2.645-.975-.82.969-.169 3.799.188 4.903.583 1.807 2.827 1.618 3.476.001z"/><path d="m483.809 369.337c1.975.236 4.396-2.172 4.438-4.079.023-1.055-1.084-1.925-2.105-1.603-1.907.601-3.465 3.604-2.66 5.494.055.129.203.174.327.188z"/><path d="m430.098 381.185c-.253-.012-.485.273-.397.521.554 1.522 1.469 2.939 2.367 4.283 1.098 1.635 3.771.064 2.641-1.541-1.136-1.607-2.544-3.17-4.611-3.263z"/><path d="m397.976 382.732c2.346.021 6.313.597 7.422-2.096.221-.535-.026-1.37-.457-1.736-2.291-1.941-6.355.732-7.49 2.917-.212.405.048.911.525.915z"/><path d="m325.034 440.631c-.263.175-.4.623-.11.854.899.711 1.97 1.199 3.034 1.625 1.422.567 2.236.487 3.67.574.371.022.578-.419.41-.718-.758-1.363-1.109-1.977-2.66-2.577-1.354-.525-3.113-.579-4.344.242z"/><path d="m482.769 447.567c.068-.218-.037-.533-.258-.631-1.465-.658-2.465-.416-4.033-.23-1.602.191-3.137.265-4.596 1-.58.292-.58 1.245 0 1.535 2.471 1.235 7.846 1.568 8.887-1.674z"/><path d="m501.306 444.251c-1.539.345-2.709 1.158-3.549 2.482-.117.183.006.393.188.461 1.538.574 3.023.44 4.42-.432 1.341-.839.462-2.852-1.059-2.511z"/><path d="m506.749 425.549c1.15-1.61.486-3.731-.672-5.138-.07-.083-.234-.083-.305 0-1.006 1.216-1.771 2.838-1.563 4.452.173 1.353 1.71 1.848 2.54.686z"/><path d="m518.509 396.014c-.313.537-.724 1.199-.715 1.847.006.368.098 1.106-.07 1.456-.148.309.166.704.496.496 1.246-.784 2.203-.74 3.046-2.188 1.04-1.782-1.72-3.388-2.757-1.611z"/><path d="m553.433 377.364c-.373.814.234 1.89 1.225 1.594 1.234-.368 6.178-1.391 4.834-3.684-1.434-2.448-5.3.421-6.059 2.09z"/><path d="m276.569 576.302c2.231-1.121 2.038-4.605.209-6.105-.373-.307-.88-.193-1.045.275-.627 1.785-.799 4.059.207 5.664.137.222.399.283.629.166z"/><path d="m264.919 609.452c-1.742.092-4.25.756-4.84 2.658-.059.191.032.451.219.539 1.566.742 3.432.48 5.086.236 1.957-.291 1.48-3.532-.465-3.433z"/><path d="m206.647 524.8c-2.846-.535-2.486 4.961-1.924 6.488.113.307.488.537.799.326 1.811-1.236 2.715-3.767 2.096-5.842-.129-.438-.498-.882-.971-.972z"/><path d="m317.849 605.571c-2.191.57-4.162 1.644-5.205 3.709-.209.414.039.986.553.967 1.971-.076 3.711-.758 5.531-1.485 1.931-.774 1.234-3.738-.879-3.191z"/><path d="m343.134 582.671c-.352.289-.316.916 0 1.21 1.732 1.606 4.184 1.755 6.396 1.469.357-.046.637-.389.426-.743-1.398-2.366-4.383-3.939-6.822-1.936z"/><path d="m392.081 537.793c-.557-.261-1.268.042-1.264.724.012 1.451.459 2.623 1.037 3.941.717 1.635 1.277 1.857 2.822 2.359.283.092.56-.107.648-.368.553-1.63.514-2.224-.354-3.813-.678-1.244-1.608-2.246-2.889-2.843z"/><path d="m371.761 591.089c-1.064.17-2.238.383-3.112 1.041-.456.346-.463.906 0 1.25 1.097.811 2.603.836 3.86.43 1.767-.566 1.018-3-.748-2.721z"/><path d="m294.767 496.243c-.531-.063-.811.613-.582 1.016.885 1.565 2.328 2.501 3.962 3.202 1.563.673 2.956-1.553 1.366-2.334-1.573-.772-2.99-1.672-4.746-1.884z"/><path d="m274.229 497.971c2.115.246 3.928-.949 4.729-2.868.426-1.022-.85-2.261-1.86-1.859-1.864.74-2.579 2.172-3.321 3.934-.167.389.03.744.452.793z"/><path d="m321.854 417.801c2.252-1.329 6.217-3.818 6.119-6.716-.008-.255-.164-.465-.41-.539-3.496-1.056-6.168 3.978-6.402 6.857-.028.357.412.567.693.398z"/><path d="m395.687 436.472c-.354.458.052 1.041.492 1.209 1.811.691 3.326.889 5.113.305.32-.105.486-.401.416-.73-.671-3.092-4.289-3.037-6.021-.784z"/><path d="m461.216 393.969c1.082-.899.187-2.744-1.121-2.707-1.957.052-4.002 1.341-5.529 2.489-.33.247-.391.73 0 .966 2.002 1.21 4.905.7 6.65-.748z"/><path d="m453.349 334.507c1.641-.38 3.08-.607 4.623-1.388.635-.321 2.057-1.364 1.499-2.314-.708-1.209-2.075-.85-3.085-.401-1.73.767-2.389 2.217-3.389 3.643-.168.24.107.516.352.46z"/><path d="m508.856 304.175c1.703-1.008 5.288-2.308 5.066-4.725-.029-.307-.178-.492-.459-.603-2.541-1.01-5.02 2.567-5.479 4.657-.105.496.406.947.872.671z"/><path d="m538.532 343.59c-1.43-1.224-3.473-1.601-5.18-.732-.656.335-.584 1.296 0 1.65 1.143.689 2.506 1.047 3.736 1.559 1.376.57 2.53-1.545 1.444-2.477z"/><path d="m458.626 441.797c1.114-2.895-4.754-5.362-6.702-3.62-.104.092-.147.268-.106.399.429 1.381 5.902 5.568 6.808 3.221z"/><path d="m430.032 439.121c.051-.146-.002-.366-.123-.465-2.314-1.88-5.779.453-6.703 2.812-.147.38.223.73.572.751 2.207.13 5.444-.84 6.254-3.098z"/><path d="m360.462 454.318c2.027-.913.27-3.89-1.744-2.984-1.364.613-2.674 1.857-3.395 3.151-.24.432.074.868.527.915 1.555.16 3.203-.448 4.612-1.082z"/><path d="m353.644 466.74c1.125.218 6.633 2.335 6.633-.364 0-1.158-1.16-1.915-2.238-1.938-1.906-.041-2.992.515-4.486 1.61-.238.176-.266.624.091.692z"/><path d="m286.118 478.79c1.408-1.189 2.148-2.824 3.197-4.326 1-1.429-1.221-3.089-2.385-1.843-1.576 1.688-2.373 3.769-1.529 5.979.121.313.457.407.717.19z"/><path d="m250.744 484.238c.702-1.578 1.196-3.772.679-5.469-.158-.519-.857-.92-1.354-.552-1.711 1.271-2.439 3.637-1.947 5.678.272 1.131 2.107 1.499 2.622.343z"/><path d="m224.521 566.413c-3.064-1.797-4.352 5.78-4.462 7.385-.028.428.511.572.786.324 1.127-1.001 6.139-6.268 3.676-7.709z"/><path d="m204.489 616.745c-.199.168-.072.479.146.549 3.301 1.084 6.51.492 9.287-1.471.342-.24.316-.773-.117-.9-3.31-.976-6.615-.472-9.316 1.822z"/><path d="m322.251 558.329c-.439.275-.579.94-.168 1.316 1.398 1.281 3.742 2.859 5.646 2.053.197-.082.309-.339.311-.539.029-2.572-3.766-4.101-5.789-2.83z"/><path d="m422.826 488.741c1.06 1.895 3.608 3.341 5.692 3.388.248.007.49-.222.477-.477-.1-1.685-.66-2.45-2.135-3.306-1.107-.642-2.725-.917-3.857-.28-.238.134-.307.444-.177.675z"/><path d="m477.113 459.563c.126-2.083-1.981-4.751-3.789-5.646-.325-.16-.78-.236-1.099 0-.068.048-.133.099-.199.15-.006.006-.012.013-.021.021-.263.268-.396.689-.28 1.058.543 1.699 1.807 4.143 3.08 5.373.883.85 2.239.206 2.308-.956z"/><path d="m612.108 532.618c-16.885 31.338-32.012 62.725-52.135 92.26-17.213 25.27-37.018 48.824-59.07 70.004-17.662 16.969-37.096 32.859-58.826 44.324-29.725 15.684-64.475 23.6-97.469 28.76-.818.127-.541 1.299.184 1.357 60.574 4.863 117.038-27.078 159.292-67.686 21.503-20.666 40.386-43.984 57.216-68.566 20.785-30.359 40.463-64.928 51.199-100.289.07-.232-.275-.381-.391-.164z"/><path d="m619.2 515.937c-1.274 1.492-2.078 3.234-2.775 5.062-.928 2.433-2.063 4.794-2.5 7.382-.084.492.434.814.824.482 3.289-2.818 6.385-8.199 5.553-12.637-.089-.471-.793-.655-1.102-.289z"/><path d="m777.892 643.364c-25.742 19.775-56.744 29.971-88.076 36.955-32.309 7.201-65.023 7.727-97.609 12.199-.363.049-.219.543.078.582 32.371 4.242 67.373-.428 99.172-6.836 32.088-6.465 65.572-15.945 87.094-42.047.36-.438-.134-1.257-.659-.853z"/><path d="m790.149 632.841c-3.232.934-5.623 4.371-7.814 6.736-.617.664.167 1.736.978 1.266 2.897-1.686 7.089-3.781 7.442-7.541.028-.311-.328-.541-.606-.461z"/><path d="m291.18 251.256c15.532-4.845 31.669-7.854 47.429-11.871.558-.142.443-1.016-.135-1.001-31.066.761-68.867 9.6-92.889 30.492-.275.241.076.586.36.465 15.053-6.381 29.581-13.204 45.235-18.085z"/><path d="m349.093 239.313c2.098-.241 3.984-.237 5.795-1.368.332-.208.348-.704 0-.909-3.01-1.784-8.434-.615-11.042 1.612-.198.169-.089.521.151.578 1.686.4 3.393.283 5.096.087z"/></g></g></g></svg>