<svg id="Fruit" height="512" viewBox="0 0 992.13 992.13" width="512" xmlns="http://www.w3.org/2000/svg"><g><path d="m104.529 640.513c4.866 2.471 9.589 3.984 13.382 5.203 2.062.662 4.006 1.285 5.451 1.896 4.149 1.754 8.551 4.254 13.215 6.898 0 0 1.557.885 1.68.952-4.719 7.448-7.467 15.913-7.855 24.808-.794 18.25 8.701 35.578 25.395 46.346 9.654 6.23 19.659 8.504 27.699 10.33 3.067.695 5.965 1.354 8.359 2.125 4.828 1.553 9.617 3.217 14.405 4.881 6.413 2.23 13.048 4.534 19.868 6.622 10.557 3.229 20.664 5.747 30.422 7.567-.716 1.771-1.32 3.641-1.783 5.617-2.855 12.202-3.168 30.929 11.559 50.854 21.977 29.748 56.283 43.877 81.195 50.494 14.603 3.878 29.832 5.764 46.561 5.764 14.023 0 29.096-1.324 47.436-4.167 41.38-6.413 82.883-21.244 125.967-45.101 2.658 7.805 7.105 15.197 13.143 21.684 9.807 10.539 21.818 16.225 33.334 20.795 11.91 4.729 23.076 7.83 34.137 9.48 6.354.949 12.807 1.41 19.727 1.41 12.123 0 23.787-1.453 34.586-3.023 39.424-5.732 75.285-25.129 103.705-56.098 26.189-28.533 44.801-62.859 61.621-95.573 15.33-29.817 25.627-55.632 32.41-81.237 7.668-28.945 12.861-59.871 15.434-91.916 2.758-34.322 2.043-67.003-2.123-97.136-4.689-33.938-13.391-61.619-26.598-84.629-7.607-13.248-16.617-24.539-26.779-33.555-7.322-6.498-15.053-11.021-21.871-15.012-4.057-2.374-7.887-4.615-11.156-6.991-24.996-18.186-32.945-50.476-35.461-68.105-1.02-7.156-1.32-13.251-1.611-19.145-.441-8.997-.9-18.301-3.846-29.054-3.697-13.494-12.422-24.396-18.793-32.356l-1.674-2.096c-9.725-12.28-23.283-27.205-41.951-33.69-.219-.074-.436-.148-.656-.217-17.266-5.444-31.16-7.98-43.729-7.98-3.191 0-6.324.173-9.303.51-15.568 1.766-27.803 9.9-35.898 15.283-7.244 4.817-16.549 11.577-24.289 21.183-10.457 12.979-14.461 28.343-11.268 43.26 1.83 8.551 4.221 14.039 5.965 18.046 1.729 3.966 2.443 5.606 2.803 11.599.598 9.88.332 19.751-.783 29.338-2.688 23.1-8.391 39.489-16.943 48.711-7.508 8.092-17.182 15.142-27.422 22.602l-3.346 2.441c-15.861 11.605-27.672 21.426-38.299 31.842-6.359 6.232-12.528 12.609-18.494 18.776-16.259 16.812-31.619 32.688-49.73 44.85-53.034 35.62-120.237 48.416-179.528 59.705-16.912 3.219-34.928 6.714-52.874 10.933-14.964 3.517-33.588 7.898-51.08 16.604-5.354 2.666-10.373 5.494-15.226 8.227-6.18 3.482-12.017 6.771-17.817 9.313-2.335 1.024-4.684 1.982-7.021 2.939-11.84 4.85-25.262 10.346-36.877 22.412-12.549 13.029-18.473 28.889-16.68 44.652 1.906 16.783 12.861 31.787 29.305 40.129z" fill="#fff"/><g><path d="m115.336 619.216c5.541 2.812 11.636 3.994 17.332 6.4 5.883 2.489 11.439 5.715 16.99 8.857 11.072 6.27 22.552 12.693 35.498 13.673.152.013.303-.005.455.005-4.357 3.152-8.982 5.699-13.836 8.219-9.525 4.947-17.033 13.883-17.514 24.938-.457 10.493 5.936 19.728 14.484 25.243 9.166 5.916 20.248 6.512 30.422 9.785 11.363 3.654 22.525 7.904 33.946 11.398 25.362 7.76 52.179 12.363 78.54 9.061-1.584 1.037-3.191 2.041-4.754 3.115-6.199 4.268-12.218 8.896-17.617 14.152-4.209 4.095-9.877 9.215-11.264 15.137-2.713 11.597.631 21.91 7.512 31.223 16.049 21.721 42.559 34.813 68.118 41.602 27.896 7.408 55.998 5.451 84.21 1.078 55.483-8.6 106.635-33.093 153.245-63.727 9.289-6.109 6.936-3.378 3.906 3.289-3.059 6.732-6.416 13.787-6.529 21.307-.129 8.684 3.797 16.779 9.627 23.045 6.74 7.242 15.629 11.28 24.664 14.867 9.301 3.693 18.943 6.578 28.852 8.057 15.938 2.381 31.52.676 47.348-1.627 35.145-5.109 65.646-22.568 89.549-48.611 24.311-26.486 41.645-58.582 57.975-90.346 12.736-24.773 23.414-49.438 30.564-76.432 7.596-28.674 12.342-58.156 14.715-87.713 2.457-30.607 2.234-61.508-1.975-91.953-3.631-26.267-10.361-52.851-23.654-76.01-5.848-10.185-13.109-19.768-21.916-27.58-9.516-8.441-21.041-13.146-31.227-20.555-26.916-19.582-40.508-52.16-45.055-84.047-2.752-19.296-.91-30.881-4.848-45.259-2.654-9.687-10.395-18.663-16.154-25.935-8.148-10.288-18.324-21.532-31.068-25.958-13.23-4.172-29.225-8.099-43.16-6.517-9.402 1.065-17.641 6.305-25.365 11.44-6.904 4.591-13.686 9.789-18.914 16.279-5.883 7.3-8.172 15.521-6.512 23.276 3.199 14.945 8.201 15.735 9.254 33.207.674 11.169.393 22.429-.9 33.536-2.48 21.304-8.133 45.991-23.156 62.19-10.012 10.792-22.348 19.421-34.174 28.075-12.553 9.184-24.561 18.72-35.686 29.624-23.371 22.904-44.23 47.999-71.625 66.396-55.964 37.587-123.289 50.946-188.38 63.339-17.346 3.303-34.68 6.68-51.871 10.719-15.701 3.693-31.394 7.516-45.905 14.736-11.529 5.739-22.274 12.856-34.101 18.035-12.924 5.664-26.192 9.565-36.279 20.043-6.496 6.746-11.244 15.801-10.154 25.387 1.1 9.664 7.939 17.25 16.387 21.537z" fill="#68182b"/><path d="m175.374 698.19c-5.771-3.35-10.364-8.463-10.605-15.506-.713-20.805 16.244-18.111 20.762-2.263.813 2.854 1.66 6.956 1.557 10.847-.23 8.888-6.23 10.104-11.714 6.922z" fill="#aa8053"/><path d="m250.144 721.567c-12.656-3.185-24.998-7.405-37.313-11.693-7.799-2.716-15.48-4.783-23.383-6.732 5.449-6.933 4.385-18.164 1.561-26.354-1.791-5.195-4.668-10.229-8.902-13.824.768-.421 1.525-.842 2.253-1.268 11.527-6.748 20.411-16.809 30.548-25.328 13.121-11.027 28.479-19.883 44.428-26.133 12.054-4.725 24.626-7.857 36.799-12.229 18.26-6.557 36.431-13.371 54.645-20.052 33.816-12.401 68.707-23.375 100.503-40.519 29.085-15.68 56.661-35.123 80.669-57.862 23.91-22.649 42.152-50.221 64.379-74.378 20.322-22.087 48.514-38.337 62.184-65.951 6.871-13.883 8.744-28.705 9.914-43.98 1.402-18.298 1.33-36.671-.129-54.963-1.105-13.76-1.953-19.983 9.02-14.436 4.453 2.25 8.975 5.701 11.863 11.309 9.518 18.472 15.057 39.67 17.029 59.919 1.275 13.078 1.342 26.563-1.34 39.479-2.863 13.786-10.182 24.52-17.111 36.571-17.205 29.92-31.783 61.178-44.664 93.18-9.264 23.017-17.711 46.68-31.283 67.619-12.396 19.125-28.871 35.343-44.703 51.584-10.16 10.423-20.139 20.816-31.545 29.9-11.9 9.477-24.586 18.012-37.539 25.979-20.749 12.762-42.571 22.475-64.717 32.418-22.39 10.053-44.723 20.279-66.723 31.162-6.963 3.445-14.004 6.867-20.627 10.941-.081.049-.163.098-.244.146-30.218 14.279-63.755 13.499-95.572 5.495z" fill="#fac135"/><path d="m288.053 783.269c-2.176-10.078 2.479-15.479 7.474-20.533 2.858-2.273 5.922-4.232 9.22-1.922 4.983 3.488 6.713 11.168 7.178 16.828.5 6.092.098 14.3-4.189 19.131-4.584 5.167-16.554.968-19.683-13.504z" fill="#aa8053"/><path d="m467.522 826.188c-52.361 13.866-113.675 18.353-158.889-17.132-4.262-3.346-2.17-3.17 1.467-5.933 3.854-2.919 6.111-7.716 7.191-12.452 1.604-7.059 1.428-14.535-.541-21.502-1.158-4.104-3.057-8.461-6.109-11.591-3.164-3.237-3.221-5.301 1.761-8.737 10.427-7.199 21.631-13.264 32.446-19.828 7.172-4.352 14.275-8.512 21.771-12.296 21.03-10.62 42.478-20.442 63.935-30.161 20.773-9.408 41.811-18.025 61.621-29.412 24.278-13.955 48.717-29.934 68.483-49.943 17.877-18.094 36.465-36.058 51.979-56.283 12.746-16.621 21.693-35.283 29.705-54.543 12.703-30.532 24.523-61.218 39.674-90.676 7.85-15.26 16.783-29.812 25.197-44.742 5.654-10.03 8.271-21.395 9.541-32.749 2.898-25.876-1.482-53.332-10.34-77.707-.934-2.569-1.934-5.12-3.006-7.644-4.229-9.956-3.229-10.367 7.398-8.084 16.049 3.443 17.246 3.68 20.795 13.687 9.936 28.026 11.377 58.442 18.586 87.209 3.695 14.748 10.949 27.493 19.789 39.733 8.576 11.875 17.951 23.443 23.789 37.005 13.398 31.136 9.725 66.441.139 98.05-10.059 33.158-26.336 64.625-43.91 94.371-32.904 55.689-79.219 102.783-130.586 141.705-45.446 34.437-96.407 64.964-151.886 79.655z" fill="#fac135"/><path d="m600.315 811.89c-1.691-4.239-1.818-9.125.193-15.203 1.793-4.043 3.434-8.271 6.512-11.531 1.777-1.884 3.994-3.334 6.68-3.182 3.658.203 7.063 2.758 9.604 5.199 5.814 5.588 9.313 13.566 10.494 21.475.52 3.463.385 7.99-1.07 11.657-7.756 19.596-29.465-1.036-32.413-8.415z" fill="#aa8053"/><path d="m757.2 244.473c1.984 12.568 14.051 53.084 16.748 60.678 4.041 11.394 9.082 22.395 15.488 32.658 6.438 10.308 14.127 19.809 22.676 28.436 10.662 10.758 19.572 21.952 24.797 36.358 4.209 11.611 6.166 23.639 7.039 35.906.066.928 1.389.934 1.447 0 1.473-23.377-4.475-46.018-19.455-64.346-8.688-10.626-19.125-19.4-27.188-30.63-4.459-6.206-8.428-12.759-11.936-19.551-4.938-9.563-2.961-8.932 3.305-1.8 6.857 7.808 14.773 14.622 23.674 20.114 9.738 6.011 19.217 10.707 27.369 18.979 16.719 16.97 26.209 39.895 32.176 62.605 7.143 27.207 9.521 55.52 9.475 83.58-.086 54.795-8.455 111.971-29.139 162.974-5.264 12.979-11.994 25.354-18.428 37.776-8.221 15.875-16.729 31.633-26.277 46.758-17.67 27.995-39.557 54.381-69.432 69.818-15.074 7.791-31.201 11.69-47.908 14.021-15.445 2.152-30.805 2.85-46.111-.727-3.418-.799-6.863-1.736-10.287-2.811-6.176-1.941-5.111-2.361-.617-6.902 4.102-4.148 6.076-10.494 5.803-16.555-.43-9.527-4.107-19.127-10.191-26.465-3.188-3.842-7.701-7.475-12.594-8.939-4.848-1.447-6.484-1.547-4.016-4.857 9.576-12.855 24.973-26.662 27.943-29.063 34.205-27.624 65.521-58.95 91.955-93.985 21.428-28.4 39.053-59.967 53.891-92.264 14.096-30.686 25.547-63.841 25.641-97.978.047-16.47-2.727-33.114-9.004-48.382-5.836-14.188-15.088-26.211-24.047-38.518-9.393-12.905-16.736-25.813-20.371-41.48-4.016-17.299-6.047-35.04-9.621-52.442-2.033-9.908-4.375-19.72-7.516-29.272-2.66-8.098-2.926-8.51 5.088-10.459 8.924-2.173 8.174-2.422 9.623 6.765z" fill="#fac135"/><path d="m632.21 183.207c2.311-6.937 8.609-12.457 14.201-16.815 6.895-5.377 15.5-11.67 24.055-13.918 7.148-1.88 15.223-.407 22.381.835 6.82 1.186 13.625 2.679 20.232 4.763 9.02 3.132 16.537 11.599 22.59 18.608 5.883 6.815 13.047 17.373 16.4 27.333 2.576 7.658 1.482 19.95-13.441 23.157-11.258 2.419-21.463-2.347-29.914-9.337-10.406-8.608-7.814-22.762-15.904-32.469-4.438-5.323-10.252-10.042-17.045-11.331-1.561-.295-4.037.66-.268 2.295 6.473 2.808 11.83 6.95 15.889 13.969 3.918 6.77 3.227 15.849 6.455 23.09 1.477 3.31 3.795 6.29 6.598 8.882-14.271-4.155-49.572-14.792-52.51-15.69-9.598-2.945-23.735-11.325-19.719-23.372z" fill="#aa8053"/><path d="m159.622 557.11c11.205-5.725 21.695-12.855 33.43-17.516 15.863-6.299 33.105-9.656 49.744-13.24 16.486-3.551 33.068-6.623 49.629-9.789 63.23-12.086 128.545-27.114 182.197-64.559 26.546-18.527 47.135-43.034 70.09-65.532 11.078-10.856 23.037-20.264 35.523-29.419 11.523-8.448 23.428-16.929 33.367-27.261 15.303-15.904 22.191-38.681 25.715-59.97 2.381-14.399 3.836-29.88 2.537-44.836-.723-8.306-1.746-13.09 7.064-7.142 4.904 3.313 7.316 6.899 7.988 13.452 1.432 13.989 2.182 28.041 1.986 42.108-.236 17.054-.488 35.431-5.896 51.759-9.955 30.063-39.057 46.413-59.91 68.107-23.434 24.379-41.936 53.053-66.264 76.63-24.515 23.753-53.056 43.729-83.19 59.687-15.528 8.221-31.646 14.553-48.092 20.668-13.547 5.039-27.11 10.035-40.678 15.016-4.955 1.818-62.338 24.615-159.953 28.922-11.399.504-12.798 2.45-1.063 3.393 19.271 1.539 46.83-1.111 81.117-6.143 4.564-.67 6.568.033-.105 2.424-9.202 3.297-18.569 6.043-27.535 10.08-12.324 5.551-24.006 12.549-34.697 20.816-8.96 6.935-10.6 11.361-20.887 12.4-20.31 2.047-38.139-14.332-56.93-21.971 4.766-7.076 4.488-17.557 2.769-25.467-1.24-5.711-3.966-11.301-8.487-15.123-.958-.811-2.057-1.58-3.221-2.265 10.443-6.46 22.857-9.66 33.752-15.229z" fill="#fac135"/><path d="m112.913 584.228c7.903-11.748 17.252-2.342 18.988 9.441.434 2.938.742 6.586.385 10.09-1.184 11.463-6.389 9.156-13.572 5.221-4.348-2.381-7.936-5.718-9.088-10.959-1.09-4.958.523-9.688 3.287-13.793z" fill="#aa8053"/><path d="m604.499 534.14c-14.963 13.574-29.027 28.088-43.816 41.854-33.033 30.74-68.063 57.996-108.785 77.77-39.197 19.032-81.531 33.773-122.647 48.123-22.516 7.859-44.889 12.389-68.719 13.77-11.052.641-22.027-.002-33-.787 7.467 2.461 14.979 4.777 22.612 6.699 31.817 8.004 65.354 8.783 95.569-5.494.081-.049.163-.098.244-.146 6.623-4.074 13.664-7.496 20.627-10.941 22-10.883 44.333-21.109 66.723-31.162 22.146-9.943 43.969-19.656 64.717-32.418 12.953-7.967 25.639-16.502 37.539-25.979 11.406-9.084 21.385-19.478 31.545-29.9 15.832-16.241 32.307-32.459 44.703-51.584 3.092-4.768 5.889-9.691 8.52-14.705-5.117 5.171-10.519 10.083-15.832 14.9z" fill="#ee9e2b"/><path d="m774.833 780.36c-18.408 17.731-40.201 33.438-65.23 39.873-11.34 2.914-23.139 4.225-34.832 3.875-13.992-.418-23.139-5.585-32.07-16.053-.99-1.162-2.064-2.215-3.174-3.215.482 2.308.789 4.643.893 6.975.273 6.061-1.701 12.406-5.803 16.555-4.494 4.541-5.559 4.961.617 6.902 3.424 1.074 6.869 2.012 10.287 2.811 15.307 3.576 30.666 2.879 46.111.727 16.707-2.331 32.834-6.23 47.908-14.021 29.875-15.438 51.762-41.823 69.432-69.818 9.549-15.125 18.057-30.883 26.277-46.758 6.434-12.422 13.164-24.797 18.428-37.776 20.375-50.241 28.783-106.472 29.113-160.519-.322 3.012-.643 6.009-.951 8.969-3.549 34.032-10.828 67.369-20.174 100.248-17.096 60.137-41.16 117.235-86.832 161.225z" fill="#ee9e2b"/><path d="m191.741 637.167c10.287-1.039 11.927-5.466 20.887-12.4 10.691-8.268 22.373-15.266 34.697-20.816 8.966-4.037 18.333-6.783 27.535-10.08 6.674-2.391 4.67-3.094.105-2.424-14.588 2.142-27.873 3.814-39.904 4.953-.109.061-.215.107-.323.169-8.019 4.556-14.796 11.251-21.614 17.356-8.117 7.27-16.482 13.748-27.01 17.02-7.621 2.367-15.296 1.332-22.814-.838 9.156 4.64 18.5 8.062 28.441 7.06z" fill="#ee9e2b"/><path d="m496.299 482.996c-44.204 35.296-93.416 60.376-147.684 76.063-25.68 7.426-51.816 13.201-77.853 19.211-12.321 2.844-24.572 6.146-37.021 8.396-11.936 2.156-23.982 3.656-35.539 7.363 95.596-4.67 151.76-26.959 156.66-28.756 13.567-4.98 27.131-9.977 40.678-15.016 16.445-6.115 32.563-12.447 48.092-20.668 30.134-15.957 58.675-35.934 83.19-59.687 24.328-23.577 42.83-52.251 66.264-76.63 20.854-21.694 49.955-38.045 59.91-68.107 2.217-6.691 3.539-13.73 4.377-20.878-1.828 4.521-3.705 8.83-5.406 12.759-8.982 20.753-22.74 36.813-40.32 50.856-9.203 7.352-18.379 14.559-26.705 22.923-9.605 9.646-17.781 20.859-26.654 31.175-18.953 22.036-39.256 42.846-61.989 60.996z" fill="#ee9e2b"/><path d="m714.181 625.683c-34.836 50.539-80.746 88.398-130.521 123.462-49.111 34.594-102.866 63.956-162.473 75.009-21.294 3.949-43.412 5.247-65.015 6.477-1.229.07-2.466.119-3.7.176 36.974 10.18 78.217 5.137 115.051-4.618 55.479-14.69 106.44-45.218 151.885-79.655 51.367-38.922 97.682-86.016 130.586-141.705 17.574-29.746 33.852-61.213 43.91-94.371 9.586-31.608 13.26-66.914-.139-98.05-5.838-13.562-15.213-25.13-23.789-37.005-8.84-12.24-16.094-24.985-19.789-39.733-1.145-4.564-2.113-9.179-3.023-13.809.541 16.674 1.641 33.179 8.414 49.455 5.582 13.42 12.934 25.944 17.729 39.714 5.451 15.657 6.346 32.619 5.309 49.031-3.752 59.264-31.232 117.448-64.435 165.622z" fill="#ee9e2b"/><path d="m703.407 242.856c1.072 2.523 2.072 5.074 3.006 7.644 5.814 16.001 9.643 33.328 10.807 50.666.031-5.409-.305-10.899-1.086-16.611-2.293-16.748-5.568-35.125 6.039-47.047-2.654-.866-6.252-1.637-11.367-2.735-10.627-2.284-11.627-1.873-7.399 8.083z" fill="#ee9e2b"/><path d="m664.325 323.377c7.502-11.764 9.117-28.239 10.045-41.323 1.336-18.881-.705-37.252 8.59-52.469-1.811-1.496-3.723-2.748-5.643-3.719-10.973-5.548-10.125.676-9.02 14.436 1.459 18.292 1.531 36.665.129 54.963-.734 9.589-1.749 19-4.101 28.112z" fill="#ee9e2b"/><path d="m651.839 220.162c-.857-.805-1.818-1.569-2.92-2.314-8.811-5.948-7.787-1.164-7.064 7.142 1.299 14.956-.156 30.437-2.537 44.836-2.059 12.44-5.332 25.355-10.697 37.142 9.307-11.983 13.402-27.096 15.631-42.04 2.114-14.177.222-32.074 7.587-44.766z" fill="#ee9e2b"/><path d="m798.753 343.533c8.063 11.229 18.5 20.004 27.188 30.63 7.225 8.841 12.305 18.702 15.508 29.149-2.604-16.806-9.732-31.823-21.781-44.864-8.283-8.966-15.811-17.801-21.697-28.3-2.734-2.534-5.383-5.16-7.848-7.966-6.266-7.132-8.242-7.764-3.305 1.8 3.507 6.792 7.476 13.345 11.935 19.551z" fill="#ee9e2b"/><path d="m750.005 277.441c1.998 9.724 3.531 19.548 5.182 29.347 4.082-23.153-7.838-46.872-3.99-69.935-1.002.223-2.139.496-3.619.856-8.014 1.949-7.748 2.361-5.088 10.459 3.14 9.554 5.482 19.365 7.515 29.273z" fill="#ee9e2b"/><path d="m718.628 407.178c5.328 39.653-9.779 80.665-26.773 115.739-14.754 30.455-35.541 56.805-52.453 85.848-.648 1.109.762 1.969 1.654 1.275 27.477-21.309 46.363-57.576 60.816-88.289 16.65-35.377 28.125-76.043 17.391-114.75-.117-.422-.69-.23-.635.177z" fill="#ee9e2b"/><path d="m633.478 614.399c-.768.672-1.926 1.039-2.773 1.641-.986.705-1.787 1.658-2.611 2.541-1.746 1.875-3.291 4.181-4.055 6.635-.174.555.287 1.057.824 1.084 2.777.142 4.855-1.483 6.555-3.508.932-1.107 1.721-2.41 2.238-3.77.445-1.164.4-2.66.959-3.744.384-.746-.516-1.42-1.137-.879z" fill="#ee9e2b"/><path d="m541.567 697.696c-20.637 11.846-40.466 24.979-61.847 35.49-20.882 10.266-42.823 18.604-64.954 25.758-.784.252-.449 1.324.333 1.205 45.621-6.938 94.55-28.242 127.542-61.059.723-.715-.199-1.896-1.074-1.394z" fill="#ee9e2b"/><path d="m847.657 513.677c-12.023 56.289-38.354 108.99-68.396 157.658-.529.857.703 1.818 1.395 1.075 21.301-22.821 35.916-50.204 48.055-78.785 10.957-25.802 19.33-51.769 19.916-79.815.011-.551-.853-.682-.97-.133z" fill="#ee9e2b"/><path d="m538.985 534.995c40.043-27.12 69.959-64.196 92.279-106.642.236-.452-.406-.824-.684-.398-25.527 39.203-60.025 72.487-92.752 105.542-.745.754.239 2.119 1.157 1.498z" fill="#ee9e2b"/><g fill="#fbe134"><path d="m240.686 540.812c48.806-7.998 97.285-21.025 144.631-35.16 40.036-11.952 76.183-29.827 107.896-57.257 15.534-13.438 30.471-28.507 42.922-44.855 5.338-7.011 9.871-14.599 14.209-22.314-1.889 1.732-3.789 3.443-5.633 5.25-22.955 22.498-43.544 47.005-70.09 65.532-53.652 37.444-118.967 52.473-182.197 64.559-16.561 3.166-33.143 6.238-49.629 9.789-16.639 3.584-33.881 6.941-49.744 13.24-8.609 3.419-16.55 8.166-24.595 12.717 23.847-5.068 48.191-7.564 72.23-11.501z"/><path d="m596.329 405.196c-22.227 24.157-40.469 51.729-64.379 74.378-24.009 22.739-51.584 42.183-80.669 57.862-31.796 17.144-66.687 28.117-100.503 40.519-18.214 6.681-36.385 13.495-54.645 20.052-12.173 4.371-24.745 7.504-36.799 12.229-15.949 6.25-31.307 15.105-44.428 26.133-3.988 3.354-7.787 6.942-11.626 10.477 28.149-15.781 59.092-26.344 90.705-35.884 47.127-14.22 93.702-29.575 138.609-49.909 45.979-20.82 87.171-47.757 118.804-87.511 17.645-22.176 33.297-45.874 50.15-68.643 4.896-6.615 10.596-13.119 16.119-19.805-7.43 6.479-14.793 12.988-21.338 20.102z"/><path d="m707.212 360.956c-8.414 14.931-17.348 29.482-25.197 44.742-15.15 29.458-26.971 60.144-39.674 90.676-8.012 19.26-16.959 37.922-29.705 54.543-15.514 20.226-34.102 38.189-51.979 56.283-19.766 20.01-44.205 35.988-68.483 49.943-19.811 11.387-40.848 20.004-61.621 29.412-21.457 9.719-42.904 19.541-63.935 30.161-7.495 3.784-14.599 7.944-21.771 12.296-7.172 4.354-14.502 8.51-21.676 12.9 7.24-2.236 86.396-29.324 150.736-62.406 51.186-26.316 83.874-59.5 103.579-77.934 40.162-37.572 67.352-87.049 88.891-136.608 5.33-12.259 10.443-24.599 16.705-36.422 6.709-12.675 14.279-24.825 20.301-37.866 7.061-15.285 10.432-32.416 11.234-49.566-1.571 6.913-3.903 13.636-7.405 19.846z"/><path d="m779.997 371.364c8.959 12.307 18.211 24.329 24.047 38.518 6.277 15.268 9.051 31.912 9.004 48.382-.094 34.137-11.545 67.292-25.641 97.978-14.838 32.297-32.463 63.863-53.891 92.264-21.244 28.156-45.678 53.875-72.195 77.244 8.896-6.24 17.686-12.639 26.193-19.465 37.971-30.463 71.486-67.061 96.838-108.689 24.137-39.637 45.965-99.191 40.902-146.242-3.65-33.944-17.844-54.092-46.373-81.566.378.525.733 1.052 1.116 1.576z"/><path d="m452.696 788.554c-2.143.948-3.768 2.348-5.664 3.648-.385.266-.135.791.304.723 2.312-.354 4.453-.371 6.697-1.201 2.103-.779 3.384-2.037 4.78-3.744.321-.395.02-.908-.48-.824-2.034.341-3.741.558-5.637 1.398z"/><path d="m449.1 785.989c.426-.35.093-1.188-.465-1.123-10.005 1.158-19.402 5.475-29.168 7.904-13.224 3.289-26.803 5.027-40.34 6.434-.463.047-.469.684 0 .725 21.656 1.853 52.362.537 69.973-13.94z"/><path d="m550.909 704.386c-3.104 2.125-6.279 3.811-9.133 6.303-3.396 2.961-6.773 5.98-9.895 9.236-.287.301-.004.844.416.717 3.998-1.216 7.623-3.295 10.932-5.832 3.646-2.799 5.736-6.096 8.309-9.795.264-.377-.254-.887-.629-.629z"/><path d="m623.849 656.855c-.166.257.109.64.41.532 4.863-1.752 9.658-5.109 9.506-10.881-.012-.504-.617-.611-.889-.24-2.766 3.764-6.496 6.671-9.027 10.589z"/><path d="m529.183 542.735c.141-.363-.289-.777-.648-.646-4.922 1.776-7.836 5.715-11.928 8.705-.227.166-.102.58.203.48 5.078-1.628 10.253-3.066 12.373-8.539z"/><path d="m748.009 437.733c-1.334 2.528-1.396 5.455-1.797 8.242-.473 3.31-1.076 6.202-1.031 9.559.004.362.496.623.758.314 3.699-4.387 5.643-12.749 2.922-18.115-.167-.327-.686-.318-.852 0z"/><path d="m682.372 347.785c6.791-9.12 14.996-22.614 9.475-34.242-.117-.244-.559-.199-.6.078-1.779 11.708-7.498 22.144-10.229 33.592-.205.862.868 1.226 1.354.572z"/><path d="m664.896 378.722c1.086-.959 1.928-2.036 2.75-3.224.992-1.436 2.418-4.805.543-6.132-1.547-1.092-3 1.991-3.449 2.938-.557 1.164-1.172 2.3-1.697 3.477-.219.485-.494.971-.66 1.477-.203.63-.277 1.751-.576 2.292-.15.271.152.592.428.428.891-.535 1.825-.52 2.661-1.256z"/><path d="m737.294 422.086c-.324 11.363-1.455 22.263.07 33.597.072.555.971.518 1.076 0 4.84-23.357 7.613-51.438-3.736-73.349-.199-.385-.734-.104-.662.279 2.5 13.253 3.635 26.002 3.252 39.473z"/><path d="m819.808 671.642c-12.904 19.557-27.871 36.535-44.328 53.166-.373.375.123 1.066.576.748 18.561-12.986 38.516-30.879 44.262-53.699.079-.315-.337-.477-.51-.215z"/><path d="m494.74 563.964c-6.997 4.615-12.247 11.238-18.858 16.318-.218.168-.104.58.204.48 8.407-2.672 15.22-8.217 19.284-16.17.197-.386-.221-.9-.63-.628z"/><path d="m769.026 741.688c7.135-3.082 14.82-8.15 17.957-15.668.184-.44-.371-.994-.811-.811-7.248 3.021-12.363 10.355-17.705 15.756-.394.397.102.921.559.723z"/><path d="m622.384 647.54c-13.504 11.424-25.336 24.145-39.754 34.59-.184.131-.08.484.164.391 16.563-6.342 30.574-19.77 40.418-34.344.355-.526-.399-1.002-.828-.637z"/><path d="m483.25 564.226c-41.115 22.836-84.162 40.604-128.771 55.334-.346.113-.204.607.148.539 45.625-8.986 91.346-27.646 129.602-54.195 1.016-.708.129-2.294-.979-1.678z"/><path d="m855.56 435.175c2.436 19.465-.314 38.132-.9 57.571-.02.582.793.638.969.132 6.461-18.638 9.535-39.454.482-57.854-.126-.253-.589-.143-.551.151z"/><path d="m660.396 369.293c.115-.407-.445-.782-.742-.433-3.996 4.76-7.256 9.674-10.564 14.934-3.824 6.078-8.641 11.26-13.273 16.696-.227.268-.018.825.385.66 12.783-5.187 20.629-19.232 24.194-31.857z"/></g><path d="m132.286 603.759c.357-3.504.049-7.151-.385-10.09-.521-3.537-1.736-6.842-3.384-9.441 1.536 9.449-.28 21.207-8.64 25.382 6.579 3.514 11.291 4.979 12.409-5.851z" fill="#865725"/><path d="m187.086 691.269c.06-2.275-.219-4.594-.611-6.721-3.78 7.09-12.266 7.201-18.207 2.461-1.397-1.115-2.531-2.479-3.463-3.988.379 6.863 4.892 11.877 10.568 15.17 5.485 3.181 11.485 1.965 11.713-6.922z" fill="#865725"/><path d="m311.924 777.642c-.352-4.291-1.439-9.736-4.113-13.643.022 2.707-.232 5.479-.889 8.313-1.705 7.371-8.033 16.189-15.271 19.652 4.895 7.246 12.609 8.729 16.084 4.809 4.287-4.832 4.689-13.04 4.189-19.131z" fill="#865725"/><path d="m632.728 820.305c1.455-3.667 1.59-8.194 1.07-11.657-1.182-7.908-4.68-15.887-10.494-21.475-.369-.354-.793-.701-1.195-1.053.818 2.166 1.594 4.34 2.275 6.533 1.953 6.285 2.975 13.411-.15 19.477-4.539 8.814-15.803 5.217-23.518.561 4.006 7.919 24.51 26.568 32.012 7.614z" fill="#865725"/><path d="m692.81 185.364c8.09 9.707 5.498 23.86 15.904 32.469 8.451 6.99 18.656 11.756 29.914 9.337 14.924-3.207 16.018-15.499 13.441-23.157-.346-1.028-.758-2.065-1.18-3.104-.453 3.054-1.426 6.162-3.15 9.36-8.549 15.841-34.906 4.834-41.078-6.454-6.65-12.169-9.559-26.508-24.889-27.651 4.245 2.17 7.975 5.526 11.038 9.2z" fill="#865725"/><path d="m651.929 206.578c2.938.898 38.238 11.535 52.51 15.69-2.803-2.592-5.121-5.572-6.598-8.882-3.229-7.241-2.537-16.32-6.455-23.09-2.877-4.976-6.42-8.487-10.539-11.122 3.945 5.2 5.055 11.953 4.141 18.468-1.744 12.467-15.25 8.962-23.637 6.883-8.412-2.086-16.313-4.986-22.715-11.057-3.346-3.172-5.211-6.971-6.102-11.052-.1.266-.234.521-.324.79-4.016 12.048 10.121 20.428 19.719 23.372z" fill="#865725"/><path d="m722.952 178.194c-4.535-3.489-9.994-6.805-15.943-6.102-.436.052-.645.494-.35.844 3.162 3.739 7.424 6.405 11.234 9.433 2.256 1.79 4.344 3.757 6.271 5.89 1.66 1.835 3.561 2.659 5.676 3.86.463.262.971-.078 1.004-.575.413-6.042-3.277-9.802-7.892-13.35z" fill="#865725"/><path d="m725.017 194.289c-1.617-.919-3.482-1.298-5.059-2.226-.521-.306-1.182.313-.844.844 1.389 2.19 2.24 4.092 4.336 5.758 1.035.822 3.344 1.878 4.32.51.303-.426.203-.987 0-1.421-.66-1.407-1.339-2.662-2.753-3.465z" fill="#865725"/><path d="m667.446 520.431c-65.226 110.805-136.968 148.06-157.107 160.037-22.79 13.551-46.352 25.824-70.203 37.395-14.378 6.975-28.933 13.558-43.574 19.955-6.739 2.945-22.612 10.131-39.481 17.556-9.219 4.058-8.354 5.817 1.164 2.456 14.987-5.289 28.567-11.451 34.746-14.026 13.498-5.626 26.922-11.429 40.3-17.325 25.042-11.038 49.622-22.99 73.463-36.436 45.181-25.473 115.476-68.284 163.3-167.68 4.008-8.327 2.006-9.77-2.608-1.932z" fill="#68182b"/><path d="m433.161 625.677c47.438-19.963 93.315-46.922 131.114-82.061 18.834-17.506 30.949-29.596 47.93-54.912 9.311-13.876 6.674-15.044-4.826-1.339-30.754 36.677-60.408 65.024-98.043 89.569-84.657 55.211-185.975 79.25-232.239 86.57-19.973 3.162-20.415 7.197-.852 4.443 42.599-6.003 104.186-20.081 156.916-42.27z" fill="#68182b"/><path d="m814.829 650.753c-47.061 70.658-97.168 104.109-147.869 135.285-8.453 5.201-7.395 7.889 1.113 3.648 34.254-17.068 53.17-30.047 65.191-39.242 24.109-18.439 45.846-39.52 63.666-64.156 7.521-10.397 14.582-21.686 20.381-33.343 3.583-7.208 1.836-8.674-2.482-2.192z" fill="#68182b"/><g><path d="m843.78 444.141c-.166.759-.205 1.558-.26 2.324-.084 1.152-.23 2.002-.105 2.925.352 2.695.811 2.391 2.096.447.504-.76.648-1.664.705-2.824.041-.905-.02-1.909-.346-2.775-.83-2.197-1.531-2.726-2.09-.097z" fill="#68182b"/></g><g><path d="m678.452 494.694c-.617 1.612-1.059 3.33-1.676 4.887-.832 2.098-1.818 4.09-2.484 6.176-1.137 3.55.367 5.078 2.559 2.283 2.674-3.413 5.082-8.496 4.883-12.661-.18-3.719-1.077-6.43-3.282-.685z" fill="#68182b"/></g><g><path d="m824.761 639.651c1.516-1.411 2.568-3.455 3.432-5.26 3.713-7.766-1.057-9.285-3.953-1.666-.592 1.551-1.496 2.999-2.197 4.511-2.792 6.013.436 4.538 2.718 2.415z" fill="#68182b"/></g></g></g></svg>