<svg id="Fruit" height="512" viewBox="0 0 992.13 992.13" width="512" xmlns="http://www.w3.org/2000/svg"><g><path d="m910.507 400.958c-45.359-78.829-123.814-138.635-211.379-161.666-32.918-56.379-87.658-98.839-155.301-120.173-25.154-7.934-51.677-11.957-78.832-11.957-53.924 0-108.932 15.645-159.085 45.242-109.999 64.919-165.962 194.079-138.388 313.43-6.807 4.074-13.002 8.551-18.796 12.734-2.276 1.646-4.552 3.289-6.848 4.894-7.818 5.467-14.774 8.925-21.894 10.883-.459.128-.871.182-1.379.182-1.912 0-4.855-.755-8.265-1.63-4.466-1.146-10.021-2.57-16.431-3.064-1.52-.115-2.975-.171-4.363-.171-16.42 0-29.313 7.771-35.373 21.32-13.094 29.271 14.676 69.57 20.689 76.292 44.96 50.274 111.482 79.106 182.506 79.106 33.393 0 67.032-6.494 97.867-18.861 7.502 1.682 15.092 3.084 22.738 4.203-5.159 38.168-.656 75.709 13.35 109.893 8.398 20.488 22.84 37.383 44.154 51.639 9.225 6.174 14.491 12.127 19.426 21.965 1.063 2.119 2.049 4.361 3.055 6.627 3.588 8.086 8.053 18.146 16.113 26.6 10.459 10.963 21.621 16.523 33.178 16.523 29.799 0 40.477-32.309 47.539-53.689 1.576-4.766 3.361-10.17 4.475-12.383 8.506-16.914 20.635-26.463 37.424-39.676l3.98-3.139c12.844-10.16 22.912-22.363 29.785-35.973 11.775 1.408 23.736 2.117 35.751 2.117h.009c112.914 0 214.949-59.17 259.932-150.738 14.976-30.473 30.98-109.511-15.637-190.53z" fill="#fff"/><g><path d="m889.806 412.869c-43.406-75.435-121.121-133.457-206.497-152.87-30.405-57.831-84.892-98.62-146.665-118.104-73.598-23.213-153.246-7.489-218.596 31.076-106.408 62.801-158.404 190.805-122.279 305.764-14.98 5.067-27.322 15.295-40.205 24.301-9.072 6.343-18.522 11.387-29.243 14.336-12.604 3.469-22.274-2.808-34.235-3.727-33.985-2.609-9.832 46.063.58 57.707 65.07 72.758 172.988 89.449 260.185 51.275.106-.047.185-.109.286-.16 17.455 4.412 35.371 7.129 53.228 8.158-10.243 40.436-8.946 82.863 7.062 121.932 7.271 17.742 19.65 30.354 35.334 40.846 12.674 8.48 20.727 17.615 27.494 31.104 4.537 9.045 7.979 19.984 15.102 27.453 29.773 31.211 37.749-26.242 46.573-43.793 11.686-23.24 28.37-35.352 47.925-50.816 14.244-11.268 24.807-26.227 29.133-43.785 111.758 21.313 239.17-29.699 289.725-132.611 10.929-22.245 27.813-93.838-14.907-168.086z" fill="#68182b"/><path d="m107.509 528.396c7.484.84 14.254.487 21.611-.868 27.077-4.983 44.576-30.313 69.977-38.824 3.951 10.924 8.744 21.7 14.355 32.274-11.574 9.131-21.89 20.271-28.581 32.947-28.376 5.411-60.484-1.057-84.386-17.859-9.564-6.729-8.048-9.353 7.024-7.67z" fill="#b1d045"/><path d="m227.242 523.878c11.937-8.125 15.835-9.328 22.464.011 5.576 7.855 2.682 12.048-4.893 17.384-13.484 9.498-26.619 19.484-40.795 27.957-2.445 1.463-16.949 10.043-13.676-2.016 1.693-6.238 6.446-12.281 10.072-17.547 7.007-10.176 16.494-18.752 26.828-25.789z" fill="#aa8053"/><path d="m88.274 545.419c-4.896-11.996.515-9.873 7.807-4.648 24.133 17.283 56.355 24.301 85.545 20.064-.011.029-.025.057-.037.085-4.006 9.989-2.441 16.632 2.059 20.024-21.986 23.953-52.115 12.588-73.769-7.195-8.937-8.168-17.12-17.34-21.605-28.33z" fill="#b1d045"/><path d="m160.819 608.929c-10.98-5.549-9.715-5.785 1.553-7.928 11.044-2.098 19.699-9.336 26.688-17.721 5.051.961 11.5-.25 17.983-3.646 11.433-5.988 22.005-13.896 32.465-21.586 7.604 8.242 15.962 15.789 24.931 22.647-3.4 12.216-6.732 24.405-15.164 34.298-16.319 19.145-53.924 11.391-88.456-6.064z" fill="#b1d045"/><path d="m251.878 632.147c-12.031-.383-13.859-1.23-3.615-9.418 12.43-9.936 17.381-23.469 21.752-37.916 20.053 14.309 42.844 25.329 66.906 33.016-27.791 10.533-56.619 15.223-85.043 14.318z" fill="#b1d045"/><path d="m248.144 551.87c7.508-4.951 15.713-8.928 15.887-18.854.154-8.854-7.135-20.795-16.243-25.375-8.479-4.271-15.17-.083-25.739 7.051-63.426-120.813-11.648-262.755 101.315-332.627 114.693-70.938 277.153-44.535 346.398 75.212-14.681-2.605-29.534-4.102-44.444-4.29-48.086.432-97.197 9.061-135.424 40.1-27.057 21.971-46.641 57.173-61.486 134.496-7.268 37.85-7.119 76.882 1.32 114.495 4.875 21.735 13.195 42.124 24.25 60.791 7.783 13.138 4.639 15.876-12.903 17.136-69.373 4.984-145.945-18.272-192.931-68.135z" fill="#7761d3"/><path d="m411.827 709.265c-2.718-18.41-2.273-37.324.573-55.719 3.04-19.619 5.544-21.826 24.503-22.826 11.355-.598 22.555-1.904 33.453-3.924 2.576 3.279 5.238 6.484 7.99 9.619-7.827 18.713-23.925 30.385-39.695 42.775-9.568 7.52-21.906 17.772-26.824 30.075z" fill="#b1d045"/><path d="m461.396 789.302c-17.495-12.93-31.395-23.873-40.201-45.371-7.221-17.611-6.523-34.404 6.361-47.824 17.879-18.619 43.885-31.176 54.24-55.758 1.406 1.531 2.879 2.998 4.33 4.49 2.029 44.154-3.234 60.037-6.297 68.459-4.295 11.803-10.883 22.543-15.231 34.324-4.919 13.33-6.122 27.94-3.202 41.68z" fill="#b1d045"/><path d="m496.155 839.767c-4.033-6.283-7.316-13.168-8.144-14.916-2.87-6.072-5.812-12.203-9.427-17.842-8.693-13.572-12.846-13.711-13.283-30.973-.365-14.199 4.686-27.678 10.556-40.328 4.025-8.674 8.212-18.164 11.099-27.936.754 15.639 1.903 31.264 3.523 46.871 2.681 25.814 5.547 53.43 12.246 79.129 3.067 11.77.457 16.938-6.57 5.995z" fill="#b1d045"/><path d="m520.687 821.017c-6.541 16.428-7.627 27.713-12.352 8.977-6.68-26.514-9.418-54.955-12.163-81.4-1.345-12.947-2.3-25.932-2.944-38.932 4.781 12.75 13.814 24.805 20.284 35.434 6.688 10.99 12.552 22.188 15.253 34.871.121.57.232 1.143.334 1.713 2.974 16.659-2.491 24.467-8.412 39.337z" fill="#b1d045"/><path d="m545.231 777.976c-8.16 9.967-8.92 9.619-12.199-3.934-1.666-6.881-4.33-13.795-7.936-20.738-11.057-21.283-39.047-49.215-32.779-102.264 5.01 4.785 10.252 9.338 15.68 13.674 9.533 13.535 22.047 24.744 33.346 36.807 7.59 8.104 14.328 16.813 19.277 26.783 12.772 25.734-2.758 34.269-15.389 49.672z" fill="#b1d045"/><path d="m585.698 741.671c-11.816 11.402-11.855 7.826-15.692-4.5-3.289-10.561-9.741-20.816-15.257-28.012-9.046-11.805-20.293-21.758-30.486-32.568 9.15 6.125 18.701 11.705 28.666 16.564 16.502 8.045 33.879 14.082 51.732 18.242-3.445 12.729-10.484 22.088-18.963 30.274z" fill="#b1d045"/><path d="m848.405 639.224c-73.846 68.371-193.488 87.773-286.152 46.701-52.008-23.055-103.016-79.306-119.961-137.301-10.631-36.387-10.527-75.196-4.748-112.382 1.313-8.456 2.794-17.017 4.547-25.569 6.225-30.429 7.152-1.188 9.289 11.576 12.73 76.098 71.158 140.398 134.807 179.705 72.211 44.598 175.781 66.016 256.375 31.047 11.545-5.004 17.916-4.953 5.843 6.223z" fill="#7761d3"/><path d="m883.365 422.798c-52.38-91.034-151.56-157.92-258.048-159.279-20.766.188-41.789 1.495-62.039 6.397-59.453 14.396-104.273 54.459-104.072 119.066.134 43.303 16.248 85.155 41.359 120.123 60.312 83.981 165.684 136.179 269.502 129.413 48.141-3.139 102.297-19.986 126.205-65.874 24.926-47.844 12.926-104.949-12.907-149.846zm-25.475 137.058c-11.013 16.256-26.563 27.834-43.983 35.846-72.612 33.396-166.53 4.715-226.804-41.02-51.717-39.24-98.605-109.99-83.83-177.989 20.061-92.325 136.221-99.858 210.199-74.426.076.026.134.065.207.095 9.922-1.584 20.037-.918 29.528 3.202 18.472 8.019 32.642 27.96 33.597 48.447 4.93 1.855 9.348 4.41 13 7.771.406-.146.836-.264 1.31-.321 15.563-1.878 33.407 2.852 45.413 13.169 13.457 11.564 15.295 25.498 14 41.221 4.184 7.307 7.887 14.876 11.08 22.596.282.481.5.974.621 1.469 15.754 38.996 14.332 92.388-4.338 119.94z" fill="#d5d5d5"/><g fill="#fac135"><path d="m854.249 544.638c-3.201-19.775-19.01-34.727-42.389-33.252-12.33.778-23.252 7.009-36.053 7.059-6.42.021-13.279-1.288-19.959-1.375-2.221-5.432-5.023-10.115-8.533-14.306 15.389-16.576 43.514-9.689 63.605-13.063 10.567-1.772 21.895-13.969 32.541-12.29 29.44 4.64 19.279 50.386 10.788 67.227z"/><path d="m661.622 425.181c18.83 21.126 45.041 29.046 49.353 59.764-10.408-.977-21.071-1.147-30.349-5.948-26.553-13.738-44.524-34.01-76.213-31.971-1.048-4.641-1.775-9.454-1.703-14.679.088-6.513-1.137-12.037-3.266-16.986 21.315-21.033 44.912-9.549 62.178 9.82z"/><path d="m629.445 393.521c6.45-9.075 14.378-14.598 27.549-15.48 13.866-.928 17.618 7.588 28.581 11.098 9.041 2.892 17.688 3.538 27.041 5.202 14.951 2.657 24.554 16.455 27.285 30.5-8.785-.56-17.563-.95-26.01-1.14-9.703-.218-17.92 4.674-23.568 11.949-9.761-8.473-20.313-16.756-29.406-27.146-8.461-9.665-19.832-14.433-31.472-14.983z"/><path d="m671.86 486.008c24.59 16.267 58.895 2.444 73.154 32.509-11.455 3.52-21.01 9.676-26.432 19.789-20.813-15.188-46.484-15.521-67.615-2.577-.23-1.964-.572-3.904-1.076-5.798-4.881-18.347-17.392-29.018-30.834-41.67-2.256-2.125-4.43-4.102-6.586-5.996-.338-8.958-2.848-16.867-5.26-24.862 25.491-.414 43.921 14.896 64.649 28.605z"/><path d="m739.866 495.468c-1.475-1.19-3.012-2.354-4.678-3.474-4.199-2.824-8.76-4.455-13.504-5.494-2.086-19.385-11.563-32.29-23.523-43.729 11.439-15.731 44.346-5.083 60.837-4.884 24.468.299 52.857 9.384 51.976 38.819-.02.654.086 1.224.246 1.752-1.014.397-2.043.764-3.098 1.086-11.725 3.586-26.039 1.201-38.193 2.154-12.162.953-22.186 5.458-30.063 13.77z"/><path d="m862.052 476.707c-7.611-7.642-17.938-11.577-29.936-7.844-3.75 1.167-7.222 2.902-10.684 4.696-.904-26.936-23.793-42.264-49.107-45.642-.182-.024-.373-.039-.551-.063 8.412-21.168 29.188-8.191 45.066-2.575 7.178 2.536 14.152 2.258 21.453 5.811 5.917 2.88 21.275 11.466 23.759 45.617z"/><path d="m827.737 381.098c14.404 9.434 13.633 24.979 11.768 39.889-8.908-4.153-18.543-6.79-28.279-10.592-1.516-13.891-5.363-27.322-13.1-38.711 10.545.17 20.629 3.531 29.611 9.414z"/><path d="m800.081 405.616c-16.76-6.364-33.421 5.377-39.006 21.006-3.445-.364-6.91-.677-10.41-.969-2.057-15.602-9.324-25.755-19.779-32.556 2.662-11.623 1.635-22.688-2.748-32.259 14.615-1.281 28.806-.405 43.243 3.19 18.19 4.535 25.934 24.269 28.7 41.588z"/><path d="m766.117 351.093c-14.563-2.778-30.942-1.726-42.896-.294-.403.048-.777.136-1.131.249-4.311-5.332-9.917-9.919-16.736-13.512-7.254-3.824-17.166-2.965-22.455-10.668 28.849-21.14 79.44-17.823 83.218 24.225z"/><path d="m695.223 307.858c-6.173 2.678-12.04 6.021-17.336 9.754-1.519-3.118-3.075-6.23-5.114-9.157-1.49-2.142-3.163-4.032-4.932-5.787 9.494 1.227 18.697 2.983 27.382 5.19z"/><path d="m669.278 322.588c3.748 6.506 5.061 12.321 11.078 17.109 4.195 3.339 10.668 4.272 15.685 5.55 19.56 4.974 28.092 24.529 25.14 42.754-7.857-3.274-16.799-5.401-26.289-6.934-17.145-2.767-26.645-17.412-45.816-12.933-2.518.589-4.834 1.383-7.066 2.271-3.152-17.492-6.438-36.77-17.641-50.759-6.1-7.621-13.471-12.87-21.721-16.221 27.764-4.651 53.853-3.019 66.63 19.163z"/><path d="m608.597 319.669c14.555 12.519 19.569 34.603 23.695 56.079-6.498 4.73-11.619 11.13-16.007 18.905-8.104 1.83-15.833 5.693-22.285 11.354-4.836-6.645-11.128-12.593-17.47-19.276-9.725-10.249-16.299-22.791-32.012-23.924-10.416-.751-20.295 1.164-28.82 6.033 12.432-41.937 67.031-71.429 92.899-49.171z"/><path d="m529.536 374.293c9.782-2.731 20.438-.995 28.801 6.834 8.417 7.876 15.377 17.809 23.624 26.026 13.146 13.095 8.929 31.627 11.616 48.25 1.077 6.656 4.275 11.72 6.408 17.595-6.991-4.013-14.689-6.268-24.664-5.809-14.242.658-26.686 10.075-36.727 19.726-29.892-47.83-41.433-103.592-9.058-112.622z"/><path d="m620.169 564.106c-6.476-3.73-12.708-7.662-18.641-11.762-15.533-10.733-30.135-23.719-42.873-38.385-14.334-16.501-12.311-26.729 11.945-35.207 18.764-6.557 33.682 10.057 45.863 21.521 11.824 11.131 21.752 20.012 23.867 37.541 2.796 23.207-6.368 34.23-20.161 26.292z"/><path d="m751.063 599.364c-36.054 1.436-73.406-7.75-106.618-22.816 2.611-8.732 5.486-18.467 6.496-28.109 22.936-18.602 45.553-11.979 67.538 2.955 17.118 11.629 38.35 13.75 47.198 31.198 6.512 12.846 1.892 16.12-14.614 16.772z"/><path d="m825.97 576.8c-6.096 4.229-12.995 7.988-20.76 11.189-8.197 3.377-16.645 5.957-25.262 7.814-1.455-13.199-6.295-23.518-15.645-33.259-9.664-10.067-24.469-12.558-36.857-18.735 10.717-23.26 43.431-13.17 63.805-15.887 9.176-1.225 16.787-5.764 26.297-6.363 12.404-.783 20.168 6.518 23.916 16.08 7.203 18.364.588 28.002-15.494 39.161z"/></g><path d="m109.879 573.749c21.653 19.783 51.782 31.148 73.769 7.195-4.5-3.393-6.064-10.035-2.059-20.024.012-.028.026-.056.037-.085-5.844.848-11.814 1.225-17.813 1.18-4.314 1.801-8.523 3.738-12.443 5.541-14.563 6.695-28.722 6.332-42.772-1.477-5.292-2.943-10.021-6.725-14.8-10.436 4.432 6.649 10.07 12.614 16.081 18.106z" fill="#abab38"/><path d="m177.651 616.505c29.266 11.645 57.934 14.547 71.623-1.512 8.432-9.893 11.764-22.082 15.164-34.298-8.969-6.858-17.326-14.405-24.931-22.647-3.271 2.404-6.563 4.81-9.88 7.191-.93 5.412-1.082 11.074-.885 16.332.338 8.952.083 15.936-5.72 23.436-5.303 6.852-14.794 9.865-22.884 11.467-7.354 1.457-14.999 1.273-22.487.031z" fill="#abab38"/><path d="m213.452 520.978c-3.141-5.92-5.998-11.909-8.623-17.949-7.89 4.564-15.27 10.129-22.059 15.948-11.64 9.978-22.066 20.796-36.842 26.097-9.57 3.436-19.947 2.877-29.688.037 21.254 9.896 46.111 13.109 68.63 8.814 6.693-12.676 17.008-23.817 28.582-32.947z" fill="#abab38"/><path d="m264.917 629.495c-3.385 1.262-6.906 1.998-10.451 2.672 27.584.547 55.507-4.123 82.455-14.338-13.175-4.209-25.944-9.453-38.117-15.652-3.439 4.803-7.331 9.303-11.631 13.4-6.399 6.102-13.99 10.832-22.256 13.918z" fill="#abab38"/><path d="m507.997 664.714c-5.428-4.336-10.67-8.889-15.68-13.674-6.268 53.049 21.723 80.98 32.779 102.264 3.605 6.943 6.27 13.857 7.936 20.738.613 2.539 1.14 4.611 1.642 6.242 8.153-15.678 3.425-36.684-3.505-51.818-9.406-20.547-23.531-37.867-20.56-60.248-.881-1.16-1.772-2.311-2.612-3.504z" fill="#abab38"/><path d="m552.929 693.155c-9.965-4.859-19.516-10.439-28.666-16.564 10.193 10.811 21.44 20.764 30.486 32.568 3.521 4.594 7.416 10.441 10.635 16.813-.874-4.568-1.454-9.189-1.543-13.963-.082-4.438.65-8.822 1.67-13.178-4.244-1.766-8.442-3.658-12.582-5.676z" fill="#abab38"/><path d="m442.21 630.356c9.646 8.131 11.584 19.883 5.134 33.221-3.745 7.744-10.011 13.797-14.968 20.707 2.146-1.805 4.275-3.521 6.275-5.094 15.771-12.391 31.868-24.063 39.695-42.775-2.752-3.135-5.414-6.34-7.99-9.619-9.193 1.703-18.611 2.869-28.146 3.56z" fill="#abab38"/><path d="m469.856 764.026c2.562 13.674 10.586 23.578 18.729 34.477 4.168 5.58 7.994 11.547 10.281 18.15-4.059-20.592-6.292-41.844-8.387-62.01-1.62-15.607-2.77-31.232-3.523-46.871-2.887 9.771-7.073 19.262-11.099 27.936-2.419 5.215-4.671 10.578-6.491 16.064-.363 3.977-.297 8.041.49 12.254z" fill="#abab38"/><path d="m493.228 709.661c.645 13 1.6 25.984 2.944 38.932 2.745 26.445 5.483 54.887 12.163 81.4.742 2.945 1.389 5.072 1.986 6.631-4.955-20.146-6.405-40.758-6.177-61.893.146-13.652.378-26.736 3.222-39.287-5.233-8.076-10.75-16.748-14.138-25.783z" fill="#abab38"/><path d="m468.415 660.218c9.932 19.123.738 41.064-7.809 65.793-4.453 12.885-4.675 28.568-.688 45.516.29-8.119 1.845-16.225 4.68-23.904 4.349-11.781 10.937-22.521 15.231-34.324 3.063-8.422 8.326-24.305 6.297-68.459-1.451-1.492-2.924-2.959-4.33-4.49-3.199 7.592-7.897 14.036-13.381 19.868z" fill="#abab38"/><path d="m827.96 409.562c-7.693-4.04-10.396-12.64-13.823-19.934-2.785-5.931-7.337-12.764-13.692-14.229 6.187 10.55 9.426 22.585 10.781 34.996 9.736 3.802 19.371 6.438 28.279 10.592.405-3.238.746-6.502.905-9.731-3.661 1.083-7.77.762-12.45-1.694z" fill="#ee9e2b"/><path d="m654.899 514.106c-10.113-7.873-15.18-22.454-22.598-32.669-6.025-8.3-13.808-15.861-23.586-19.006 1.859 6.331 3.488 12.753 3.756 19.833 2.156 1.895 4.33 3.871 6.586 5.996 13.442 12.652 25.953 23.323 30.834 41.67.504 1.894.846 3.834 1.076 5.798 21.131-12.944 46.803-12.611 67.615 2.577 3.199-5.965 7.859-10.521 13.473-14.004-19.957-19.423-56.089 6.202-77.156-10.195z" fill="#ee9e2b"/><path d="m862.604 514.931c-4.555-5.467-11.365-9.053-17.879-11.511-12.288-4.634-25.602-3.819-38.156-.989-8.521 1.919-16.793 5.039-25.121 7.637-9.672 3.018-19.637 1.311-29.367-.59 1.41 2.367 2.661 4.885 3.768 7.592 6.68.087 13.539 1.396 19.959 1.375 12.801-.05 23.723-6.28 36.053-7.059 23.379-1.475 39.188 13.477 42.389 33.252 3.405-6.758 7.075-18.168 8.354-29.707z" fill="#ee9e2b"/><path d="m772.474 469.458c-8.072 2.188-15.619 6.179-23.441 9.061-15.977 5.886-22.26-7.521-28.35-18.125-3.947-6.871-10.078-11.741-17.416-12.418 9.473 10.21 16.641 22.007 18.418 38.524 4.744 1.039 9.305 2.67 13.504 5.494 1.666 1.119 3.203 2.283 4.678 3.474 7.877-8.312 17.9-12.816 30.063-13.769 12.154-.953 26.469 1.432 38.193-2.154 1.055-.322 2.084-.688 3.098-1.086-.16-.528-.266-1.098-.246-1.752.021-.745-.055-1.422-.068-2.14-1.236-1.094-2.639-2.04-3.869-2.763-10.447-6.133-23.371-5.382-34.564-2.346z" fill="#ee9e2b"/><path d="m841.552 537.886c.143 12.271-6.132 23.389-17.25 30.988-6.557 4.482-14.516 7.078-22.336 8.127-8.415 1.129-15.025-5.195-20.277-10.797-6.288-6.707-11.974-13.686-20.969-16.85-8.651-3.043-17.766-4.261-26.635-2.621 10.742 4.328 22.23 7.491 30.219 15.812 9.35 9.741 14.189 20.06 15.645 33.259 8.617-1.857 17.064-4.438 25.262-7.814 7.765-3.201 14.664-6.961 20.76-11.189 16.007-11.109 22.624-20.715 15.581-38.915z" fill="#ee9e2b"/><path d="m762.589 577.767c-1.258 17.275-38.951 13.014-51.748 10.406-22.242-4.533-49.08-11.992-60.925-32.838-1.353 7.332-3.484 14.562-5.472 21.213 33.212 15.066 70.564 24.252 106.618 22.816 16.507-.652 21.127-3.927 14.614-16.772-.896-1.769-1.95-3.347-3.087-4.825z" fill="#ee9e2b"/><path d="m640.771 543.86c-4.36 3.84-10.598 5.709-17.021 6.141-10.572.713-20.756-5.555-29.109-11.295-14.715-10.109-39.417-33.137-37.171-53.823-11.14 7.344-9.882 16.337 1.187 29.077 12.738 14.666 27.34 27.651 42.873 38.385 5.933 4.1 12.165 8.031 18.641 11.762 12.524 7.208 21.201-1.26 20.6-20.247z" fill="#ee9e2b"/><path d="m649.075 368.135c19.172-4.479 28.672 10.166 45.816 12.933 9.49 1.532 18.432 3.659 26.289 6.934.652-4.029.713-8.117.248-12.104-10.997 6.782-20.52-8.752-32.693-13.501-12.904-5.036-30.121-2.389-40.658-12.063-6.051-5.558-6.868-16.375-9.83-23.745-1.977-4.921-5.838-8.921-9.74-12.344-5.383-4.721-12.376-7.42-19.445-7.689 5.677 3.224 10.84 7.508 15.307 13.091 11.203 13.989 14.488 33.267 17.641 50.759 2.231-.888 4.548-1.682 7.065-2.271z" fill="#ee9e2b"/><path d="m616.285 394.653c4.388-7.775 9.509-14.175 16.007-18.905-1.121-5.836-2.33-11.7-3.758-17.421-1.681 7.965-5.496 15.082-13.393 19.901-20.559 12.545-33.779-8.51-47.049-19.753-15.002-12.712-36.223-4.964-48.137 8.259 7.494-3.285 15.832-4.557 24.563-3.927 15.713 1.133 22.287 13.675 32.012 23.924 6.342 6.684 12.634 12.632 17.47 19.276 6.452-5.66 14.181-9.524 22.285-11.354z" fill="#ee9e2b"/><path d="m845.97 457.207c-7.59 2.904-15.215-2.715-20.557-7.183-5.656-4.731-10.155-10.263-16.308-14.444-8.857-6.021-19.763-8.467-30.12-6.446 22.534 5.009 41.623 19.882 42.447 44.426 3.462-1.794 6.934-3.529 10.684-4.696 11.998-3.733 22.324.202 29.936 7.844-.854-11.747-3.248-20.415-6.241-26.922-1.615 3.048-4.402 5.341-9.841 7.421z" fill="#ee9e2b"/><path d="m575.321 467.189c9.975-.459 17.673 1.796 24.664 5.809-2.133-5.875-5.331-10.938-6.408-17.595-.797-4.931-.988-10.03-1.202-15.104-3.018 7.368-7.263 13.623-15.142 18.819-10.751 7.09-24.796 8.083-36.254 2.312-14.268-7.188-19.215-25.94-21.762-40.328-2.201-12.447-4.367-28.872.434-41.538-19.404 17.196-7.32 65.328 18.943 107.352 10.042-9.651 22.485-19.068 36.727-19.727z" fill="#ee9e2b"/><path d="m782.688 402.976c-12.957-.115-22.281 13.582-33.707-1.208-5.299-6.859-8.592-17.601-16.656-20.98-.016 4.003-.479 8.119-1.439 12.311 10.455 6.801 17.723 16.954 19.779 32.556 3.5.292 6.965.604 10.41.969 4.326-12.103 15.298-21.832 27.811-22.67-1.887-.602-3.914-.958-6.198-.978z" fill="#ee9e2b"/><path d="m604.413 447.025c31.688-2.039 49.66 18.232 76.213 31.971 9.277 4.801 19.94 4.972 30.349 5.948-.506-3.604-1.337-6.87-2.398-9.906-5.299 1.965-10.144 2.597-16.704.773-7.827-2.172-13.703-7.861-19.275-13.438-7.942-7.944-15.582-14.722-26.096-19.063-13.582-5.609-28.418-1.372-37.279-15.56-2.521-4.037-4.885-7.744-8.756-9.641 1.468 4.239 2.315 8.895 2.244 14.236-.073 5.226.654 10.04 1.702 14.68z" fill="#ee9e2b"/><path d="m634.616 394.081c9.787 1.551 19.102 6.197 26.301 14.424 9.094 10.39 19.646 18.673 29.406 27.146 5.648-7.275 13.865-12.167 23.568-11.949 8.088.181 16.48.558 24.891 1.08-4.416-5.42-11.955-8.216-18.675-9.285-5.77-.92-11.927.619-17.505 1.956-11.01 2.637-17.451 2.129-25.652-5.911-7.395-7.249-12.727-13.638-22.803-17.122-6.304-2.182-13.304-2.423-19.531-.339z" fill="#ee9e2b"/><path d="m677.887 317.612c3.914-2.759 8.144-5.301 12.573-7.522-6.61.479-13.055-.313-19.139-3.505.488.615.993 1.211 1.451 1.87 2.04 2.927 3.596 6.039 5.115 9.157z" fill="#ee9e2b"/><path d="m747.839 345.292c-9.307 2.456-18.357-.298-26.012-5.5-4.295-2.919-8.438-6.724-13.459-8.386-7.643-2.528-15.691-1.909-23.637-2.432 5.529 5.42 14.128 5.139 20.623 8.562 6.819 3.593 12.426 8.18 16.736 13.512.354-.113.728-.201 1.131-.249 11.953-1.432 28.332-2.484 42.896.294-.563-6.283-2.192-11.684-4.62-16.284-2.847 4.862-6.545 8.605-13.658 10.483z" fill="#ee9e2b"/><path d="m712.616 394.341c-9.354-1.664-18-2.311-27.041-5.202-10.963-3.51-14.715-12.025-28.581-11.098-9.513.638-16.272 3.728-21.733 8.798 10.113-3.493 20.049-4.051 30.561 1.497 7.018 3.705 11.878 11.729 19.775 14.008 8.945 2.584 17.76.515 26.879.56 7.474.037 14.369 2.199 20.705 5.578-4.784-7.101-11.733-12.572-20.565-14.141z" fill="#fbe134"/><path d="m771.381 364.029c-14.438-3.596-28.628-4.472-43.243-3.19 1.436 3.135 2.473 6.444 3.178 9.867 13.983-3.869 28.917.948 41.532 7.658 8.575 4.561 20.432 13.771 26.491 23.21-3.291-16.23-11.172-33.361-27.958-37.545z" fill="#fbe134"/><path d="m634.726 301.844c9.08 3.639 16.583 10.513 22.151 19.82 5.429 9.069 9.646 20.471 18.896 26.526 10.803 7.07 30.401 5.482 41.057 13.093-4.231-7.606-11.168-13.59-20.788-16.036-5.017-1.277-11.489-2.211-15.685-5.55-6.018-4.788-7.33-10.604-11.078-17.109-7.61-13.21-19.96-19.097-34.553-20.744z" fill="#fbe134"/><path d="m691.917 321.395c7.796-1.382 15.375-1.006 23.617 1.243 7.625 2.081 15.06 5.424 22.965 6.385 4.639.563 12.404.471 17.145-2.354-14.922-15.445-42.532-15.876-63.727-5.274z" fill="#fbe134"/><path d="m817.548 521.56c-9.51.6-17.121 5.139-26.297 6.363-17.901 2.387-45.318-5.094-58.98 8.828 15.525-7.191 36.041 2.496 50.952 7.352 8.236 2.682 15.98.867 23.575-2.748 7.146-3.402 12.699-7.41 20.919-8.432 4.151-.516 8.302.434 12.337 1.654-4.128-8-11.471-13.715-22.506-13.017z" fill="#fbe134"/><path d="m615.88 457.894c5.013 1.905 9.977 3.867 14.652 6.658 7.229 4.32 11.789 11.674 16.901 18.124 7.442 9.393 16.144 17.136 27.601 21.019 19.871 6.732 44.68-4.303 63.193 4.904-16.545-16.948-45.089-8.516-66.367-22.591-18.3-12.105-34.82-25.438-55.98-28.114z" fill="#fbe134"/><path d="m616.464 500.274c-12.182-11.465-27.1-28.078-45.863-21.521-1.844.645-3.516 1.303-5.105 1.969 9.365-1.123 17.241.907 24.73 9.31 6.721 7.534 8.682 18.345 15.538 25.612 5.001 5.304 10.806 8.484 17.632 10.932 7.1 2.545 12.713 4.508 16.454 8.641-2.767-15.778-12.184-24.396-23.386-34.943z" fill="#fbe134"/><path d="m634.765 416.627c10.984 6.667 16.988 18.992 25.973 27.82 5.853 5.747 13.715 8.64 21.368 11.063 9.341 2.956 17.556 8 24.468 14.654-9.27-19.266-29.566-27.724-44.951-44.983-16.371-18.365-38.43-29.588-58.843-12.78 11.157-2.864 21.371-2.213 31.985 4.226z" fill="#fbe134"/><path d="m569.032 326.163c12.385-3.067 25.416-2.209 36.875 3.503 8.924 4.449 15.16 12.485 20.473 20.861-3.734-12.268-9.011-23.313-17.783-30.858-22.242-19.138-65.703-.002-85.359 32.395 12.993-12.263 27.945-21.481 45.794-25.901z" fill="#fbe134"/><path d="m552.782 395.924c2.916 7.611 4.224 14.775 10.059 20.792 4.5 4.641 12.235 5.76 18.172 7.16 5.025 1.185 8.275 3.569 10.734 6.701-.882-8.575-3.05-16.714-9.786-23.424-8.247-8.218-15.207-18.15-23.624-26.026-8.363-7.829-19.019-9.565-28.801-6.834-.943.264-1.84.574-2.707.914 12.142.012 21.365 8.733 25.953 20.717z" fill="#fbe134"/><path d="m843.462 477.41c-10.646-1.679-21.974 10.518-32.541 12.29-18.459 3.101-43.668-2.41-59.585 9.518 8.466-2.456 17.599-1.66 26.495-.781 10.662 1.051 20.91.498 31.348-1.827 10.703-2.382 19.945-8.274 30.986-9.264 7.84-.704 14.87 1.217 20.835 5.177-2.624-7.765-7.989-13.607-17.538-15.113z" fill="#fbe134"/><path d="m718.479 551.394c-20.472-13.904-41.491-20.579-62.803-6.42 10.278-2.445 19.96-3.408 30.601 1.373 8.508 3.819 15.418 10.941 22.919 16.375 15.475 11.202 33.896 7.623 50.903 12.152-10.448-10.713-27.436-13.846-41.62-23.48z" fill="#fbe134"/><path d="m758.998 437.888c-15.331-.185-44.823-9.371-58.091 1.971 10.016-2.941 19.055-1.565 29.111 4.038 8.196 4.566 14.844 11.157 23.983 13.859 8.526 2.522 18.427-.115 26.995-1.045 10.605-1.151 20.854.86 28.352 7.852-6.218-19.828-29.653-26.422-50.35-26.675z" fill="#fbe134"/><path d="m838.294 431.09c-7.301-3.553-14.275-3.274-21.453-5.811-13.197-4.668-29.751-14.352-39.805-5.363 5.162-1.771 10.773-1.279 16.275-.101 9.209 1.973 17.363 8.403 25.371 13.043 5.641 3.267 11.682 5.515 18.169 6.293 5.017.603 9.966 1.121 14.345 2.684-4.816-6.519-9.996-9.33-12.902-10.745z" fill="#fbe134"/><path d="m831.015 396.585c1.475 2.838 5.452 8.185 9.43 8.914-.389-9.484-3.309-18.247-12.707-24.401-3.67-2.402-7.531-4.36-11.525-5.877 6.153 5.72 10.518 13.124 14.802 21.364z" fill="#fbe134"/><path d="m196.168 572.974c3.25-1.018 6.757-3.09 7.851-3.744 14.176-8.473 27.311-18.459 40.795-27.957 7.574-5.336 10.469-9.528 4.893-17.384-.615-.868-1.203-1.614-1.779-2.302-3.18 4.9-6.926 9.367-11.926 13.898-9.244 8.379-19.609 15.404-28.695 23.979-4.32 4.076-8.019 8.605-11.139 13.51z" fill="#865725"/><path d="m534.667 322.131c44.688-39.447 123.518-38.87 178.805-19.863.076.026.134.065.207.095 3.383-.539 6.785-.794 10.179-.764-50.683-20.339-107.095-24.34-158.913-3.836-13.057 5.165-22.985 13.783-30.278 24.368z" fill="#bebebe"/><path d="m909.869 512.521c-12.396 102.244-136.06 145.848-244.454 104.908-95.529-36.082-140.58-82.678-173.635-140.775-28.979-50.935-37.916-112.607-4.242-164.541-17.797 19.703-28.431 45.357-28.332 76.87.134 43.303 16.248 85.155 41.359 120.123 60.312 83.981 165.684 136.179 269.502 129.413 48.141-3.139 102.297-19.986 126.205-65.874 9.913-19.027 13.912-39.521 13.597-60.124z" fill="#bebebe"/><path d="m875.87 499.333c2.579-33.347-7.979-64.185-25.004-91.82.02 2.72-.105 5.501-.34 8.339 4.184 7.307 7.887 14.876 11.08 22.596.282.481.5.974.621 1.469 12.41 30.717 14.113 70.314 5.174 99.231 5.018-12.548 7.442-26.545 8.469-39.815z" fill="#bebebe"/><path d="m764.18 321.917c7.343 9.166 12.085 20.543 12.624 32.095 4.93 1.855 9.348 4.41 13 7.771.406-.146.836-.264 1.31-.321 8.349-1.008 17.334-.054 25.743 2.584-15.62-16.066-33.422-30.293-52.677-42.129z" fill="#bebebe"/><path d="m429.728 542.078c-8.439-37.613-8.588-76.646-1.32-114.495 14.846-77.323 34.43-112.525 61.486-134.496 38.227-31.039 87.338-39.668 135.424-40.1 2.281.028 4.559.146 6.835.234-80.007-13.095-171.649 22.938-212.759 93.468-23.605 40.499-31.802 88.138-57.125 127.939-14.028 22.048-34.423 36.921-57.76 47.989-13.445 6.378-26.881 10.027-40.672 11.973-1.002 8.742-8.613 12.609-15.693 17.279 46.986 49.863 123.559 73.119 192.931 68.135 17.542-1.26 20.687-3.998 12.903-17.136-11.055-18.666-19.375-39.055-24.25-60.79z" fill="#584ab9"/><path d="m562.253 685.925c83.249 36.9 188.254 24.961 262.283-27.42-59.209 22.674-123.537 31.957-186.334 23.105-49.459-6.969-96.49-26.846-134.115-59.92-23.135-20.336-48.271-46.793-62.754-76.584.319 1.172.617 2.349.959 3.518 16.945 57.995 67.953 114.246 119.961 137.301z" fill="#584ab9"/><path d="m526.694 181.121c-23.699-7.45-48.688-10.836-74.219-9.769-45.754 1.913-90.731 18.488-128.382 44.182-41.229 28.135-70.307 69.638-86.28 116.6-9.35 27.491-14.162 72.294 17.453 87.879 29.266 14.43 59.308-15.016 74.171-36.827 8.022-11.771 13.882-25 21.22-37.217 8.053-13.409 17.025-26.261 26.726-38.528 23.308-29.474 51.833-55.143 85.327-72.475 21.254-10.998 43.785-17.297 66.782-19.547 37.212-3.641 38.741-21.242-2.798-34.298z" fill="#9386f1"/><path d="m586.187 601.954c-63.649-39.307-122.077-103.607-134.807-179.705-2.137-12.764-3.064-42.005-9.289-11.576-.529 2.579-.988 5.154-1.471 7.731 2.468 141.831 163.558 228.989 281.575 230.284-48.776-5.318-96.975-22.626-136.008-46.734z" fill="#9386f1"/><path d="m614.849 272.979c.622-.105.414-.991-.139-1.035-22.908-1.804-45.488 2.761-67.049 10.432-17.77 6.32-37.355 16.276-49.013 31.569-.152.2.14.47.339.34 17.281-11.408 33.29-21.61 53.113-28.349 20.269-6.894 41.727-9.438 62.749-12.957z" fill="#68182b"/><path d="m623.464 273.408c1.528.045 2.99.508 4.221-.601.164-.148.171-.395.074-.578-1.193-2.293-6.795-2.185-7.969.134-.039.078-.043.197.033.26 1 .777 2.419.75 3.641.785z" fill="#68182b"/><path d="m729.503 691.067c-20.549.504-40.949 3.139-61.514 3.48-22.744.375-44.605-2.127-66.909-6.303-.245-.045-.424.291-.177.422 17.994 9.453 40.549 10.232 60.447 10.648 22.674.475 46.441-.75 68.301-7.15.6-.173.495-1.114-.148-1.097z" fill="#68182b"/><path d="m735.623 690.231c-.251.191-.273.635.095.723 2.939.709 6.835-.396 8.785-2.758.214-.26.066-.576-.256-.617-2.867-.373-6.361.926-8.624 2.652z" fill="#68182b"/><path d="m389.221 166.215c-21.824 3.252-43.372 15.192-61.927 26.614-18.295 11.265-34.908 25.061-49.983 40.325-25.805 26.127-50.075 59.281-58.681 95.489-.16.679.863 1.183 1.172.496 14.951-33.264 33.677-63.94 58.758-90.584 15.118-16.063 32.311-30.209 50.757-42.271 19.052-12.459 39.843-19.64 60.233-29.287.476-.225.109-.847-.329-.782z" fill="#68182b"/><path d="m399.452 161.521c-2.074.623-3.713 1.613-5.133 3.248-.263.307-.01.738.385.66 1.636-.32 3.203-.66 4.787-1.199.865-.296 1.763-.491 2.643-.744 1.078-.309 1.99-1.01 3.084-1.279.307-.074.324-.572 0-.634-2.156-.417-3.596-.705-5.766-.052z" fill="#68182b"/><path d="m899.935 527.334c-.033-.362-.602-.502-.68-.093-7.5 39.092-30.121 66.012-63.656 86.51-.524.32-.184 1.158.418.992 35.025-9.607 67.315-50.199 63.918-87.409z" fill="#68182b"/><path d="m821.456 618.618c-.274.168-.258.65.094.721 3.76.744 7.422-.316 9.943-3.18.273-.309.115-.898-.359-.869-3.51.205-6.682 1.484-9.678 3.328z" fill="#68182b"/></g></g></svg>