<svg id="Fruit" height="512" viewBox="0 0 992.13 992.13" width="512" xmlns="http://www.w3.org/2000/svg"><g><path d="m942.125 287.404c9.762-4.914 16.551-14.215 17.908-25.111 1.654-13.279-5.018-26.254-16.996-33.053-17.451-9.906-37.66-14.93-60.066-14.93-7.385 0-14.971.576-22.607 1.699-1.146-3.189-2.764-6.311-4.982-9.254-6.262-8.311-15.949-13.195-27.273-13.754-.832-.043-1.664-.061-2.5-.061-4.037 0-7.973.48-11.74 1.303-3.73-8.35-8.025-16.037-12.859-23-.172-.25-17.688-25.084-41.27-25.084-6.926 0-13.316 2.1-18.621 5.975-10.887-10.824-28.721-24.914-47.799-24.914-.967 0-1.918.033-2.865.104-11.199.828-20.496 6.604-25.506 15.848-4.408 8.139-4.498 16.918-2.74 25.066-4.6-1.088-9.26-1.842-13.955-2.254-1.305-.113-2.635-.17-3.977-.17-12.627 0-24.078 4.914-31.418 13.484-6.547 7.646-9.275 17.49-7.68 27.723 2.852 18.316 19.949 28.688 32.434 36.262 2.16 1.311 5.115 3.102 5.963 3.762 1.102.91 2.137 1.83 3.107 2.77-3.004-.102-5.816-.133-8.389-.133h-1.094s-5.471-.053-7.355-.053c-14.867 0-54.363 0-61.479 29.604-2.998 12.471-.842 29.219 24.066 41.371-98.642 33.994-167.292 110.275-200.504 162.9-14.119-10.633-26.952-20.781-38.844-30.719-29.696-24.811-56.5-53.754-81.044-81.336-1.873-2.107-3.888-4.68-6.017-7.402-8.894-11.373-21.075-26.949-42.12-31.139-2.854-.568-5.786-.855-8.715-.855-20.504 0-36.585 13.434-46.462 24.699-25.929 29.566-34.403 68.078-39.699 105.287-5.437 38.198-2.714 79.102 7.854 119.315-26.085 17.217-52.677 35-78.27 53.773-13.207 9.688-28.178 20.666-32.59 46.949-5.427 32.313 17.327 59.184 32.385 76.969 37.125 43.846 95.839 67.992 165.329 67.992 6.302 0 12.675-.209 19.104-.625 3.999 2.742 8.493 5.365 13.556 7.914 27.696 13.947 58.339 23.064 88.619 26.371 10.254 1.117 20.646 1.686 30.888 1.686 35.693 0 70.818-6.738 104.583-20.047 28.499 14.803 58.22 22.574 86.615 22.574 21.219 0 41.803-4.242 61.182-12.609 43.793-18.91 82.451-55.156 118.188-110.811 28.342-44.143 51.529-96.906 68.91-156.83 2.053-7.074 4.1-14.314 6.047-21.688 10.48-2.035 18.064-9.535 23.096-15.385 25.531-29.691 20.988-76.446 17.795-95.401 9.525-5.516 17.199-13.639 22.557-23.619.813.873 1.645 1.85 2.521 2.857 5.756 6.613 14.449 16.607 27.566 20.154 3.348.904 6.684 1.363 9.918 1.363 9.492 0 18.092-3.883 24.217-10.932 8.33-9.588 11.189-24.117 8.498-43.178-1.58-11.215-4.889-21.906-9.816-31.932 5.473-2.307 10.15-6.154 13.537-11.285 7.086-10.73 7.482-25.482 1.082-40.471-4.603-10.768-11.46-20.069-20.273-27.739z" fill="#fff"/><g><path d="m940.434 324.529c-12.209-28.582-46.094-38.832-79.762-38.449 7.918-4.33 16.037-8.217 24.66-11.416 14.438-5.352 29.672-3.871 44.086-7.838 8.467-2.328 9.42-12.508 1.828-16.816-27.768-15.764-63.482-14.451-94.555-3.721 2.764-11.811 5.859-28.662-9.764-29.434-9.236-.457-19 3.98-26.979 9.389-4.23-15.408-10.447-29.693-18.559-41.379-4.133-5.955-21.621-22.652-28.744-10.492-6.377 10.885 8.762 35.574 7.525 54.592-6.963-20.713-17.432-40.029-32.467-56.332-7.518-8.154-23.393-22.385-35.492-21.49-15.828 1.168-1.029 26.254 1.893 31.65 9.092 16.779 17.375 35.273 22.461 54.309-16.088-24.791-40.811-44.738-70.396-47.324-8.414-.736-18.967 3.477-17.396 13.568 1.605 10.297 23.045 19.541 30 25.277 17.166 14.164 23.154 31.094 24.842 51.777-14.691-5.58-30.529-6.887-46.195-6.834-8.473.025-42.744-1.605-45.834 11.248-2.523 10.498 12.482 15.01 19.76 17.813 17.738 6.83 37.1 9.738 53.58 19.07-4.396.688-8.926 1.973-13.619 3.965-4.508 1.912-20.438 8.74-22.729 9.283-124.607 29.572-204.731 133.998-229.156 183.752-21.079-15.23-41.758-30.963-61.652-47.584-30.182-25.219-57.47-54.455-83.572-83.789-10.252-11.521-18.872-27.791-34.953-30.992-12.678-2.521-24.929 7.459-32.562 16.166-22.203 25.32-29.417 60.623-34.012 92.906-6.029 42.352-.976 85.637 12.07 126.19-31.021 20.43-62.075 40.838-92.006 62.791-12.818 9.402-20.423 15.33-23.163 31.646-3.581 21.324 14.152 42.336 27.06 57.58 42.109 49.732 111.375 64.309 173.493 58.252.019-.002.035-.008.053-.01 4.7 4.314 10.54 7.91 16.958 11.143 24.894 12.535 52.769 20.936 80.47 23.959 46.335 5.059 91.876-2.379 134.333-21.1 41.969 24.672 90.817 34.406 136.874 14.52 46.508-20.082 80.74-60.018 107.561-101.787 29.625-46.143 50.83-98.051 66.068-150.582 6.58-22.678 13.178-47.395 16.184-72.078.443 6.768.707 13.469 1.084 19.793.988 16.443 6.666 17.969 16.703 6.297 16.438-19.115 16.184-53.311 12.322-76.036-3.492-20.547-11.539-39.025-25.09-52.883 4.713-5.119 10.023-9.375 15.969-12.883 1.34 13.982-.955 30.916 5.879 42.471 1.221 2.066 3.639 2.998 5.945 2.42 21.791-5.477 29.631-28.025 27.975-48.547 11.752 6.676 22.143 14.77 31.805 24.549 5.453 5.52 11.893 15.23 19.98 17.416 15.406 4.168 14.063-17.043 12.748-26.359-4.869-34.557-29.727-58.391-59.457-72.93 20.656-1.035 34.887 7.164 53.705 14.684 16.05 6.408 17.14-7.913 12.24-19.391z" fill="#68182b"/><g><path d="m915.334 254.736c13.832 3.938 1.221 2.719-5.932 3.49-7.029.758-13.863 2.482-20.672 4.301-17.508 4.678-33.754 13.934-48.887 23.617-.768.488-5.141 2.262-6.826 2.564-6.438 1.158-12.613 2.662-18.352 4.453-8.477 2.643-9.77 3.803-9.057-4.031.473-5.209.701-10.486.688-15.795 32.013-22.263 71.306-29.339 109.038-18.599z" fill="#b1d045"/><path d="m822.23 227.738c1.863-.459 5.516-1.271 6.301 1.088 1.936 5.824-2.242 15.17-3.459 20.953-.084.402-.123.791-.127 1.166-6.719 2.953-13.145 6.295-19.074 10.023-.568-8.004-1.674-15.957-3.27-23.732 5.68-4.436 12.692-7.789 19.629-9.498z" fill="#b1d045"/><path d="m760.723 280.167c8.328-30.777 9.689-60.486 2.439-86.369-1.523-5.443-3.723-16.365 6.525-6.615 5.508 5.242 9.014 12.85 12.322 19.568 16.598 33.682 19.236 90.199 1.65 124.529-4.371.164-8.936.949-13.662 2.391.91-5.996 1.346-24.309-8.928-40.406-2.737-4.291-2.325-5.793-.346-13.098z" fill="#b1d045"/><path d="m744.961 457.73c-7.432 5.479-6.125 2.012-2.477-3.428 8.26-12.307 18.711-36.262 17.609-65.006-.207-5.414-1.727-12.258-4.49-18.596 10.088 4.725 18.637 11.656 22.6 23.379 9.447 27.948-19.41 53.458-33.242 63.651z" fill="#b1d045"/><g fill="#ff801d"><path d="m798.096 460.24c-3.781-2.707-8.42-4.357-13.865-4.428-11.398-.15-20.285 7.592-25.99 17.045-.076-3.85-.531-7.703-1.471-11.564.232-.191.494-.396.693-.57 5.697-4.906 11.762-11.615 17.076-19.197 11.147 3.403 18.565 10.106 23.557 18.714z"/><path d="m616.504 757.898c10.135-11.355 25.299-28.055 43.9-23.963 22.365 4.918-2.275 42.313-11.852 54.662-9.365-3.588-19.375-2.15-28.852 1.738 4.048-10.476 3.857-21.61-3.196-32.437z"/><path d="m570.887 709.369c9.803-4.711 19.941-11.473 26.326-19.73 4.771-6.17 7.686-9.193 13.031-10.176 12.855-2.375 22.086 11.021 23.26 23.764 1.043 11.33-4.443 26.344-11.947 35.141-4.482 3.816-8.506 7.805-11.82 11.381-13.266-12.697-31.205-13.943-46.834-7.107 4.847-10.503 9.476-22.665 7.984-33.273z"/><path d="m465.002 523.188c-.276-.189-.562-.332-.84-.512.173-.111.348-.199.517-.332 10.91-8.643 21.395-14.01 34.484-6.213 13.47 8.023 12.297 23.104 9.744 36.328-11.944 4.844-23.185 12.637-30.635 19.154 2.717-17.133 2.425-37.615-13.27-48.425z"/><path d="m468.448 566.51c-14.861-10.012-29.707-20.09-44.42-30.348 9.945-5.908 22.263-11.207 33.162-5.6 12.65 6.506 13.012 22.883 11.258 35.948z"/><path d="m559.334 400.777c9.785-6.119 20.291-10.166 31.846-11.717 15.947-2.139 18.523 16.143 13.902 27.684-8.65-3.393-19.082-.418-27.037 3.291-5.395 2.518-11.775 5.352-17.439 8.994.814-3.904 1.225-7.959 1.283-12.221.064-4.721-.485-10.887-2.555-16.031z"/><path d="m560.666 442.195c4.086-3.738 10.383-6.705 14.117-8.844 8.801-5.041 19.781-10.359 29.758-5.285 15.379 7.824 9.805 29.498 5.076 42.758-12.305 3.016-23.75 11.381-31.813 20.904-2.619-2.453-5.662-4.605-9.26-6.297-2.232-1.051-4.631-1.74-7.105-2.217 2.193-9.887 1.822-20.211-1.824-29.162-1.777-4.369-2.951-8.189 1.051-11.857z"/><path d="m670.836 375.185c.803.189 1.605.365 2.412.607 11.518 3.477 20.191 6.428 30.609 3.443-1.15 3.904-1.75 7.924-1.748 11.869-11.604-1.807-24.078 3.902-33.645 11.928 3.526-9.325 5.477-19.423 2.372-27.847z"/><path d="m697.51 401.679c16.518-2.041 24.055 16.793 15.086 39.498-5.949 3.404-11.168 8.666-15.039 15.076-.684-.301-1.313-.643-2.043-.912-7.48-2.762-14.771-3.57-21.596-2.742 2.396-10.783-.627-23.016-7.713-31.65 7.094-10.918 18.359-17.66 31.305-19.27z"/><path d="m713.318 395.558c.01-3.76.02-7.52.027-11.277 3.406-15.85 14.865-17.799 34.379-5.85 4.203 11.129 2.084 26.598.215 37.84-1.371 8.256-4.309 16.131-7.902 23.67-5.275-2.602-10.664-3.406-15.865-2.744 3.527-15.237 2.58-32.658-10.854-41.639z"/><path d="m681.957 462.871c27.822-.191 25.563 30.689 21.146 49.133-.02.09-.018.17-.035.256-8.102 6.195-14.424 15.748-18.602 24.967-3.512-3.326-7.676-6.018-12.652-7.717-5.965-2.037-11.783-2.357-17.346-1.463 2.164-15.586 2.1-32.043-6.578-43.92 7.256-14.249 17.182-21.141 34.067-21.256z"/><path d="m562.641 578.74c-1.307-7.326 1.086-11.395 7.047-15.533 9.621-6.674 22.477-13.164 35.885-10.109 20.035 4.568 27.377 26.715 21.053 49.256-.002.006-.002.014-.004.021-8.479 3.234-16.574 8.379-23.463 13.342-1.113-1.617-2.334-3.213-3.801-4.756-10.102-10.635-24.248-9.82-37.482-5.414 1.618-9.115 2.284-18.299.765-26.807z"/><path d="m607.875 625.223c10.844-8.039 22.203-15.639 36.297-15.133 21.58.773 20.332 26.537 17.383 43.502-11.967 4.018-23.141 12.203-30.795 21.465-7.254-5.43-16.723-7.51-25.736-4.984 3.119-15.05 7.314-30.807 2.851-44.85z"/><path d="m661.18 605.295c-.553-.412-1.07-.846-1.668-1.238-6.824-4.469-14.121-5.557-21.406-4.646 2.963-15.518.146-30.541-9.275-42.219 9.994-13.127 25.975-24.436 42.521-16.287 15.023 7.4 18.303 26.104 17.338 41.465-10.995 4.862-21.129 14.009-27.51 22.925z"/><path d="m663.908 448.339c-.479 4.08-1.559 7.252-4.801 9-7.725 4.166-14.291 10.744-19.082 19.131-1.688-1.199-3.482-2.334-5.516-3.328-4.424-2.156-8.959-3.213-13.488-3.445 4.258-14.014 5.689-29.744-1.785-41.326 7.014-5.883 15.906-7.096 25.051-7.232 13.867-.206 21.074 14.816 19.621 27.2z"/><path d="m632.945 484.066c16.365 7.979 12.9 33.139 10.387 47.516-8.447 4.025-15.938 10.674-21.951 18.186-1.268-1.016-2.592-2-4.002-2.932-9.941-6.561-20.369-6.676-30.389-3.627 4.299-14.238 4.373-30.607-2.602-43.018 11.221-14.873 30.341-25.006 48.557-16.125z"/><path d="m573.406 549.182c-6.482 3.666-12.57 8.129-17.973 12.389-2.4-3.193-5.408-6.148-9.172-8.775-7.545-5.271-16.762-5.857-26.16-3.848 1.695-12.324 1.064-24.523-6.789-34.096 8.322-12.848 24.771-19.131 39.443-21.09 30.972-4.134 29.688 37.422 20.651 55.42z"/><path d="m550.693 482.685c-17.311 1.443-36.285 12.559-45.354 25.088-.827-.551-1.654-1.074-2.477-1.541.012-.033.03-.059.041-.094 4.708-15.178 8.771-35.418-1.438-48.811 10.609-9.598 24.088-17.955 38.645-11.377 9.029 4.087 14.773 19.688 10.583 36.735z"/><path d="m514.732 562.309c.479-.082.941-.219 1.365-.445 4.275-1.262 8.691-2.164 13.271-2.588 28.143-2.607 24.555 34.449 20.799 51.08-3.336 1.609-6.477 3.291-9.348 4.924-9.6-6.482-19.197-12.969-28.795-19.455-8.532-5.77-17.099-11.523-25.672-17.281 8.464-7.284 17.954-12.923 28.38-16.235z"/><path d="m590.096 617.025c12.711 6.986 10.762 23.994 7.586 38.475-.279-.385-.539-.77-.84-1.158-8.119-10.467-24.605-17.811-35.424-25.143-3.619-2.451-7.242-4.891-10.861-7.34 12.379-6.808 26.021-12.257 39.539-4.834z"/><path d="m666.111 724.4c-8.088-3.943-17.086-2.537-25.775 1.475 3.9-11.404 4.684-23.984 1.408-35.035-.873-2.945-2.176-5.615-3.754-8.043 9.754-12.801 29.736-24.318 45.684-20.766 20.631 4.594 9.734 38.404.705 49.279-6.461 4.034-12.59 8.747-18.268 13.09z"/><path d="m694.566 655.658c-.043-.027-.074-.063-.119-.086-6.852-3.922-14.354-5.109-21.871-4.383 2.063-13.256 2.828-27.324-4.01-38.027 6.52-10.291 16.014-17.111 27.584-21.482 26.277-9.928 27.984 19.586 25.434 36.736-.031.213-.021.41-.031.617-11.346 5.846-21.135 16.42-26.987 26.625z"/><path d="m719.736 583.67c-2.318-1.51-4.979-2.781-8.084-3.729-3.994-1.215-8.156-1.371-12.328-.756.133-9.076-1.363-18.744-4.945-27.246-2.221-5.254-2.68-5.744.406-12.137 6.051-12.539 18.379-29.057 32.408-22.607 10.979 5.043 10.729 29.166 7.488 43.643-7.177 5.361-11.529 14.496-14.945 22.832z"/><path d="m733.414 508.434c-1.439-.848-2.963-1.58-4.693-2.027-4.861-1.264-9.426-1.137-13.697-.07 2.773-15.803 2.688-33.643-8.635-44.352 6.133-10.174 17.607-18.793 28.902-12.928-2.301 3.738-6.527 8.379-6.527 12.891 0 12.695 10.016 10.264 18.529 5.662 1.078 7.229.184 14.402-1.414 21.588-5.535 4.88-9.863 12.017-12.465 19.236z"/></g><path d="m748.469 356.732c-1.729-.59-11.811-4.959-22.889-2.941 1.658-15.713-.955-29.385-8.373-42.949 10.951-.396 21.805-.689 30.543 3.389 10.396 4.855 12.615 13.492 11.336 19.906-1.625 8.173-5.225 16.032-10.617 22.595z" fill="#b1d045"/><path d="m749.893 303.867c-12.646-4.426-28.041-2.682-42.709-2.732-4.543-.016-22.422.428-14.846-8.475 13.166-15.477 30.713-15.725 47.016-6.146 5.795 3.406 10.289 7.842 13.596 12.896 4.249 6.5.175 5.588-3.057 4.457z" fill="#b1d045"/><path d="m698.219 169.224c-5.021-11.725 1.408-8.059 8.076-3.684 5.621 3.691 11.309 9.223 16.146 13.865 35.852 34.393 36.334 78.461 27.293 101.188-3.818-3.096-7.99-5.566-12.379-7.371-3.873-1.598-4.939-2.447-5.406-8.512-2.711-34.908-20.34-64.214-33.73-95.486z" fill="#b1d045"/><path d="m678.793 234.101c-6.967-8.064-14.615-14.838-23.125-21.199-4.836-3.617-24.963-12.979-9.498-12.594 35.441.883 64.168 38.68 74.605 69.316-6.805-.178-13.68 1.195-20.184 4.234-4.816 2.256-6.625 1.869-7.43-4.057-1.747-12.962-5.538-25.481-14.368-35.7z" fill="#b1d045"/><path d="m614.527 292.638c-3.793-1.457-18.041-4.766 1.211-7.301 7.184-.943 14.613-1.047 21.682-1.24 14.662-.398 30.488.877 44.15 6.705-4.004 7.111-4.109 14.693 7.119 18.18 5.113 1.586 10.736 2.066 16.549 2.121.08.152.131.299.225.451 7.729 12.324 10.695 24.035 9.982 37.734-2.148-4.07-4.813-7.803-7.205-10.607-5.844-6.072-11.961-10.629-18.4-13.582-1.867-.854-9.428-5.598-10.824-6.631-19.159-14.181-42.625-17.427-64.489-25.83z" fill="#b1d045"/><path d="m634.893 348.177c18.924-20.023 46.754-21.951 65.902-2.049 6.355 7.447 13.57 18.422.197 23.127-10.85 3.818-19.539-1.986-29.516-4.998-7.551-2.277-16.389-1.316-24.039-.615-5.855.537-11.707 1.645-17.51 2.555-13.646 2.144 1.497-14.35 4.966-18.02z" fill="#b1d045"/><path d="m657.631 374.093c9.502 9.16 1.32 26.641-4.645 37.422-11.328-3.82-26.533-.488-36.934 6.186 3.416-10.74 2.545-24.406-5.084-32.453 2.51-2.504 4.914-5.096 7.215-7.764 13.276 1.926 26.163-2.76 39.448-3.391z" fill="#ff801d"/><path d="m587.529 360.226c.053-.354.059-.693.051-1.023 11.018-4.465 22.215-8.309 33.545-11.441-4.426 5.711-7.352 12.164-7.662 19.15-3.549 4.557-7.52 8.676-11.672 12.68-7.244-2.379-15.527-1.605-23.623.766 4.68-5.81 8.195-12.386 9.361-20.132z" fill="#ff801d"/><path d="m575.381 364.402c-4.303 10.766-13.951 18.494-23.092 25.592-.648.504-1.102 1.057-1.398 1.627-6.525-2.969-14.887-2.773-23.217-.736 15.254-10.096 31.224-19.009 47.707-26.483z" fill="#ff801d"/><path d="m506.622 413.041c8.937-8.449 22.884-12.076 34.872-12.553 15.951-.637 9.975 24.545 4.652 36.891-.248-.166-.469-.354-.723-.518-15.602-10.064-34.205-.965-47.4 9.639 6.249-9.92 12.509-23.321 8.599-33.459z" fill="#ff801d"/><path d="m493.014 502.475c-12.054-2.414-23.592 3.025-34.654 11.561 3.644-13.389 5.557-28.469-2.631-39.729 9.555-8.57 28.051-23.721 38.225-9.676 7.254 10.013 2.446 26.878-.94 37.844z" fill="#ff801d"/><path d="m490.887 418.779c5.593-4.83 6.874-2.266 6.417 1.98-.4 3.74-2.443 7.965-3.422 10.521-2.287 5.982-5.807 11.516-9.546 16.682-13.597-.244-28.316 11.871-37.256 19.98-.002.002-.004.006-.006.008-.887-.244-1.802-.412-2.731-.52 13.816-17.538 29.469-33.878 46.544-48.651z" fill="#ff801d"/><path d="m443.563 478.33c6.097 1 6.865 9.191 7.273 13.959.733 8.573-1.879 17.321-4.544 25.512-10.791.336-21.732 5.496-31.003 11.367-.207.131-.37.283-.551.43-2.22-1.564-4.437-3.135-6.648-4.711 16.637-34.155 23.771-48.475 35.473-46.557z" fill="#ff801d"/><path d="m187.47 389.257c5.025-7.83 10.491-14.488 18.358-19.613 16.298-10.607 28.231 10.545 35.999 19.516 11.245 12.992 22.929 25.592 34.808 38.004 20.014 20.904 40.882 41.154 63.393 59.369 41.536 33.608 86.151 63.553 130.242 93.653 23.791 16.242 47.689 32.328 71.556 48.453 10.779 7.281 21.549 14.574 32.301 21.895 11.158 7.598 24.654 13.203 16.289 31.93-3.713 8.313-14.441 13.33-23.174 17.148-5.383-7.914-15.262-10.693-24.018-16.037-35.029-21.373-68.713-47.68-98.901-75.428-7.664-7.045-15.01-14.145-22.783-20.717-11.533-9.758-18.601-17.123-37.714-20.568-17.678-3.18-37.665.203-50.576 11.783-5.247 4.703-5.852 7.301-10.453 1.301-12.879-16.781-26.74-34.697-46.822-41.65-22.964-7.951-48.116 11.076-65.584 22.926-12.105 8.213-24.303 16.301-36.523 24.361-18.863-61.198-21.962-140.888 13.602-196.326z" fill="#fac135"/><path d="m61.55 679.818c2.637-11.057 21.709-20.184 30.151-26.145 34.482-24.354 70.022-47.221 105.122-70.664 19.29-12.885 38.366-29.063 61.174-34.932 26.876-6.918 48.418 27.559 62.855 46.41-3.817 5.729-7.357 11.676-10.739 17.734-8.845-10.506-18.202-20.561-26.738-31.311-11.757-14.801-29.457-13.174-57.761 2.818-14.4 8.137-25.358 16.127-37.42 23.375-30.098 18.088-60.312 36.059-89.148 56.123-12.63 8.789-28.226 18.814-38.082 31.85-.717-5.023-.637-10.129.586-15.258z" fill="#ffe10e"/><path d="m238.903 772.254c-.771 7.773.575 14.213 3.459 19.686-54.604 3.803-108.649-8.645-149.721-46.818-7.263-6.754-14.869-14.912-20.859-23.92-6.693-10.074-7.722-15.242 1.701-25.438 11.017-11.916 27.855-21.43 39.387-29.307 23.156-15.818 47.297-30.209 71.318-44.658 16.476-9.91 33.606-22.686 51.434-32.004 21.229-11.094 30.966-12.752 46.93 3.879 9.04 9.418 17.083 21.578 22.25 28.389-10.04 19.439-18.544 39.869-27.162 59.455-7.376 16.758-14.504 33.625-21.744 50.443-5.147 11.947-15.706 27.328-16.993 40.293z" fill="#fac135"/><path d="m280.85 700.346c12.658-29.32 25.571-58.648 40.947-86.664 5.57-10.146 11.595-20.482 19.652-28.875 8.209-8.553 26.82-10.025 41.187-7.424-17.272 11.77-27.872 45.119-34.302 60.047-19.031 44.172-34.078 89.947-45.656 136.607-16.213-1.637-35.795 2.73-51.638 4.605.54-24.16 23.58-63.865 29.81-78.296z" fill="#ffe10e"/><path d="m445.198 819.111c-10.552 2.98-22.886 4.922-33.621 6.652-48.266 7.777-115.699.422-154.854-31.393-6.323-5.141-1.563-5.58 7.89-6.682 20.788-2.412 41.95-4.41 61.016 4.805 19.615 9.477 40.343 15.664 61.743 19.539 18.323 3.316 36.966 4.137 55.449 2.748 14.556-1.092 16.557.327 2.377 4.331z" fill="#ff801d"/><path d="m369.438 797.459c-19.771-4.857-37.154-15.498-56.407-21.309 7.718-30.975 16.98-61.438 27.828-91.469 5.213-14.43 35.549-112.074 62.633-98.102 27.386 18.238 50.913 44.984 76.909 65.021 22.247 17.146 46.261 38.596 72.599 49.258 18.268 7.393-2.654 45.348-8.521 55.219-20.936 35.234-77.545 65.339-175.041 41.382z" fill="#fac135"/><path d="m532.479 825.746c-13.291-3.424-26.334-8.619-38.848-15.355 13.602-6.805 27.383-15.26 39.192-25.596.166.096.313.199.502.281 16.777 7.336 11.882 31.533-.846 40.67z" fill="#ff801d"/><path d="m592.813 827.617c-15.934 3.387-32.07 3.484-47.975.809 2.406-2.891 4.445-6.152 6.004-9.674 6.879-4.969 14.094-7.586 22.688-7.828 9.536-.27 22.562 5.525 19.283 16.693z" fill="#ff801d"/><path d="m595.158 807.025c-2.432-1.926-5.248-3.441-8.313-4.391-10.988-3.402-22.32-2.598-32.459 1.893.768-11.008-3.201-21.695-13.576-27.359 4.416-4.611 8.404-9.549 11.836-14.822.125-.109.258-.193.381-.318 15.055-15.305 36.123-17.982 51.473-2.662 16.141 16.113 4.176 34.749-9.342 47.659z" fill="#ff801d"/><path d="m626.078 815.324c-7.262 3.949-14.646 6.975-22.094 9.322.059-3.311-.73-6.512-2.174-9.436 9.42-8.82 28.287-27.826 47.219-14.643-7.279 5.433-14.92 10.388-22.951 14.757z" fill="#ff801d"/><path d="m667.365 785.18c-5.344 4.982-6.553 5.08-2.443-.926 11.324-16.557 21.643-38.689 9.609-53.188 13.061-10.266 29.672-26 48.197-16.588-15.267 25.565-33.449 50.276-55.363 70.702z" fill="#ff801d"/><path d="m751.012 660.391c-7.004 15.332-14.688 30.338-23.012 44.965-9.25-4.738-18.385-4.604-27.162-1.895 5.498-13.1 7.912-29.314 1.449-40.107.078-.127.168-.225.238-.363 5.246-9.992 12.676-17.139 22.127-23.176 6.463-4.125 15.111-7.711 22.016-1.949 5.02 4.188 5.08 14.719 4.26 20.486-.102.73-.053 1.408.084 2.039z" fill="#ff801d"/><path d="m759.68 640.535c-2.527-8.1-7.809-14.771-17.283-15.881-3.322-.389-6.631-.166-9.887.477 1.051-9.84.971-20.102-2.398-28.541-1.75-4.387-1.637-6.982.771-12.332 4.25-9.461 9.9-17.664 21.754-18.346 8.924-.516 11.727 5.424 13.988 12.947 8.219 27.364 1.828 40.428-6.945 61.676z" fill="#ff801d"/><path d="m762.803 557.117c-5.133-2.076-11.064-2.109-16.764-.971 1.434-11.93 1.125-27.807-4.404-38.557 1.275-7.773 5.49-13.387 10.713-19.254 11.43-12.833 17.305 4.758 18.176 12.98 1.484 14.019-1.87 27.193-7.721 45.802z" fill="#ff801d"/><path d="m779.402 585.088c-1.326-7.859-3.85-15.242-7.811-20.848 3.422-11.027 6.486-21.99 8.217-33.264.027-.037.061-.063.088-.102 2.791-3.928 8.602-8.617 12.805-3.805 3.723 4.277 1.006 23.576-13.299 58.019z" fill="#ff801d"/><path d="m796.244 516.518c-3.445-1.875-9.734-2.91-15.012-.506.248-9.689-1.688-26.44-11.844-31.084-1.633-.748-3.23-1.195-4.809-1.514 2.809-6.818 7.578-13.773 14.48-16.254 25.421-9.135 24.127 28.543 17.185 49.358z" fill="#ff801d"/><path d="m827.373 451.687c3.504 14.734 5.256 39.246-.549 57.803-4.594 14.666-6.869 12.088-7.576 1.131-2.098-32.391-6.205-67.159-38.865-78.356 6.297-11.291 10.25-23.607 8.842-34.574 21.242 10.812 32.673 30.976 38.148 53.996z" fill="#b1d045"/><path d="m805.781 396.08c-4.027-3.129-8.25-6.299-13.221-8.336-6.402-2.623-8.664-6.059-9.617-7.549-5.646-8.803-14.365-14.938-24.295-19.463 3.41-4.67 6.08-9.623 8.053-14.738.01-.006.02-.006.031-.01 29.314-12.215 52.756 6.045 60.729 33.301-8.172 4.281-15.488 9.957-21.68 16.795z" fill="#b1d045"/><path d="m855.182 410.011c-3.752 7.859-11.359 19.83-12.973 4.654-.691-6.512-1-13.086-1.533-19.615-1.557-18.928-9.293-37.275-21.584-49.408 10.479 3.137 20.311 8.059 27.895 15.008 13.894 12.736 16.027 32.967 8.195 49.361z" fill="#b1d045"/><path d="m921.711 394.519c1.605 5.432 2.111 10.943 2.449 16.574.764 12.709-7.787.795-11.76-3.434-13.092-13.941-27.121-25.328-44.311-33.865-.398-.197-.795-.338-1.184-.438-.598-1.965-1.254-3.885-2.035-5.689-6.111-14.109-19.141-23.674-34.111-29.5 7.689-2.49 15.459-4.57 23.373-6.15 30.511 10.82 58.03 30.221 67.579 62.502z" fill="#b1d045"/><path d="m915.42 325.201c-10.438-3.92-20.473-5.77-31.555-6.514-23.893-1.607-48.455 6.004-70.422 14.479-3.85-.77-7.701-1.33-11.488-1.697-5.438-.533-6.254-.855-4.191-6.369 1.891-5.049 3.467-10.322 4.721-15.785 36.387-18.953 106.807-21.133 128.855 20.529 5.758 10.882-11.463-2.969-15.92-4.643z" fill="#b1d045"/></g><path d="m643.986 205.582c3.744 2.637 9.402 5.615 11.682 7.32 8.51 6.361 16.158 13.135 23.125 21.199 8.83 10.219 12.621 22.738 14.369 35.701.805 5.926 2.613 6.313 7.43 4.057 1.752-.818 3.531-1.492 5.324-2.072-3.498-16.227-12.041-30.029-23.508-42.164-8.929-9.454-24.121-22.557-38.422-24.041z" fill="#abab38"/><path d="m821.33 459.976c-4.438-20.186-16.783-35.236-33.445-45.951-1.576 6.135-4.203 12.326-7.502 18.24 28.846 9.889 35.412 38.164 37.998 66.948 4.525-12.11 6.139-24.727 2.949-39.237z" fill="#abab38"/><path d="m764.168 351.63c-1.566 3.123-3.381 6.172-5.52 9.102 9.93 4.525 18.648 10.66 24.295 19.463.953 1.49 3.215 4.926 9.617 7.549 4.971 2.037 9.193 5.207 13.221 8.336 2.652-2.93 5.551-5.6 8.598-8.084-1.461-4.162-4.166-8.338-6.49-11.164-9.188-11.17-35.821-13.047-43.721-25.202z" fill="#abab38"/><path d="m696.152 300.421c3.971.785 8.926.705 11.031.713 14.668.051 30.063-1.693 42.709 2.732 3.232 1.131 7.307 2.043 3.057-4.457-.115-.174-.254-.332-.371-.506-4.4-2.494-9.865-3.848-14.027-4.299-14.41-1.562-28.178 6.835-42.399 5.817z" fill="#abab38"/><path d="m760.094 389.296c.816 21.35-4.738 40.043-11.035 53.299 9.768-8.791 16.887-20.262 20.434-33.424 1.904-7.076 2.941-18.457.906-28.102-4.125-4.414-9.207-7.752-14.795-10.369 2.763 6.339 4.283 13.182 4.49 18.596z" fill="#abab38"/><path d="m747.75 314.23c-8.738-4.078-19.592-3.785-30.543-3.389.82 1.502 1.561 3.008 2.266 4.516 16.865.373 30.623 18.668 33.396 34.947 2.959-5.031 5.092-10.51 6.217-16.168 1.279-6.414-.94-15.051-11.336-19.906z" fill="#abab38"/><path d="m661.457 357.953c-9.162-.459-18.953 2.127-26.615 7.447 4.188-.689 8.389-1.371 12.596-1.758 7.65-.701 16.488-1.662 24.039.615 9.977 3.012 18.666 8.816 29.516 4.998 8.457-2.975 8.672-8.459 6.086-13.973-8.739 11.163-33.7 3.268-45.622 2.671z" fill="#abab38"/><path d="m737.355 273.222c.789.324 1.559.695 2.332 1.061 1.73-19.93-5.373-42.775-12.191-60.779-5.996-15.83-15.307-33.518-29.248-44.213 13.387 31.246 30.992 60.535 33.701 95.42.467 6.064 1.533 6.914 5.406 8.511z" fill="#abab38"/><path d="m871.564 263.712c-10.785 2.453-21.059 7.014-31.059 11.639-11.008 5.09-22.449 12.326-34.641 9.967-.086 1.271-.143 2.549-.256 3.813-.713 7.834.58 6.674 9.057 4.031 5.738-1.791 11.914-3.295 18.352-4.453 1.686-.303 6.059-2.076 6.826-2.564 15.133-9.684 31.379-18.939 48.887-23.617 2.865-.764 5.738-1.494 8.625-2.164-8.896.145-17.812 1.532-25.791 3.348z" fill="#abab38"/><path d="m891.48 375.619c-7.695-6-15.914-11.16-23.24-17.654-8.078-7.158-13.756-15.738-19.307-24.74-6.119 1.398-12.184 3.002-18.174 4.943 14.971 5.826 28 15.391 34.111 29.5.781 1.805 1.438 3.725 2.035 5.689.389.1.785.24 1.184.438 17.189 8.537 31.219 19.924 44.311 33.865.992 1.055 2.268 2.588 3.609 4.098-2.927-14.569-12.931-27.104-24.529-36.139z" fill="#abab38"/><path d="m915.174 320.248c-9.928-7.266-23.916-8.398-35.762-8.926-15.471-.686-30.527 2.861-45.49 6.326-8.787 2.033-25.102 7.301-34.322 1.984-.588 1.836-1.168 3.684-1.836 5.467-2.063 5.514-1.246 5.836 4.191 6.369 3.787.367 7.639.928 11.488 1.697 21.967-8.475 46.529-16.086 70.422-14.479 11.082.744 21.117 2.594 31.555 6.514 2.328.875 8.125 5.055 12.326 7.313-3.588-4.562-7.701-8.701-12.572-12.265z" fill="#abab38"/><path d="m805.373 256.208c.156 1.588.385 3.166.498 4.76 5.93-3.729 12.355-7.07 19.074-10.023.004-.375.043-.764.127-1.166.857-4.08 3.154-9.916 3.773-15.053-9.546 3.998-18.497 12.842-23.472 21.482z" fill="#abab38"/><path d="m840.676 395.05c.434 5.295.76 10.611 1.221 15.908 4.994-19.754 2.131-43.295-9.27-59.936-4.301-2.146-8.834-3.973-13.535-5.381 12.291 12.134 20.027 30.482 21.584 49.409z" fill="#abab38"/><path d="m714.686 334.937c-8.844-8.498-23.49-14.521-31.371-18.707-18.514-9.834-39.926-21.545-61.607-21.021 19.736 6.658 40.23 10.619 57.309 23.26 1.396 1.033 8.957 5.777 10.824 6.631 6.439 2.953 12.557 7.51 18.4 13.582 2.393 2.805 5.057 6.537 7.205 10.607.261-5.008.017-9.75-.76-14.352z" fill="#abab38"/><path d="m760.723 280.167c-1.979 7.305-2.391 8.807.348 13.098 4.848 7.594 7.293 15.664 8.447 22.719 11.664-19.955 13.414-47.758 10.281-69.943-1.82-12.902-5.002-25.441-8.877-37.869-1.789-5.74-4.119-12.107-8.328-16.592.182.789.383 1.547.568 2.219 7.25 25.882 5.889 55.591-2.439 86.368z" fill="#abab38"/><path d="m684.266 340.976c-8.895-7.799-23.045-3.471-31.119 3.461-.453.391-.092 1.209.49 1.182 9.715-.494 20.9.549 30.137-2.771.732-.266 1.173-1.274.492-1.872z" fill="#d7e338"/><path d="m704.844 289.929c-.125.289-.027.566.273.678 2.932 1.08 6.719.137 9.748-.283 3.594-.5 7.004-1.379 10.18-3.168.676-.381.605-1.311 0-1.707-5.649-3.701-17.219-2.422-20.201 4.48z" fill="#d7e338"/><path d="m653.338 293c6.217 1.168 12.176 2.912 18.553 2.518.629-.039 1.121-.867.559-1.348-5.531-4.76-12.277-4.496-19.111-3.33-1.081.185-1.064 1.958-.001 2.16z" fill="#d7e338"/><path d="m732.42 327.888c-.432-.133-.768.291-.688.688 1.314 6.547 4.148 12.104 8.037 17.449.773 1.064 2.248.908 2.707-.354 2.837-7.759-2.564-15.463-10.056-17.783z" fill="#d7e338"/><path d="m778.514 323.416c5.383-4.479 4.889-10.82 4.021-17.217-.066-.477-.688-.334-.826 0-2.32 5.588-4.902 10.436-4.656 16.611.031.785.89 1.08 1.461.606z" fill="#d7e338"/><path d="m814.816 277.855c13.598-6.621 27.313-12.18 41.551-17.246.674-.242.604-1.311-.174-1.295-15.529.344-30.5 7.576-42.334 17.301-.732.603.2 1.609.957 1.24z" fill="#d7e338"/><path d="m869.182 256.175c-3.488-.418-6.148.346-9.191 2.035-.764.424-.357 1.471.414 1.531 3.457.277 6.309.271 9.275-1.727.863-.579.466-1.723-.498-1.839z" fill="#d7e338"/><path d="m733.775 205.023c2.965 14.223 5.693 28.822 9.445 42.836.17.635 1.096.625 1.271 0 4.055-14.557-1.1-31.225-9.574-43.316-.407-.583-1.29-.231-1.142.48z" fill="#d7e338"/><path d="m706.703 251.757c1.035-6.816-5.678-13.166-10.678-16.814-.371-.271-.916.178-.773.596 1.035 2.998 2.457 5.574 4.133 8.262 1.828 2.932 3.311 6.051 5.998 8.305.402.337 1.224.296 1.32-.349z" fill="#d7e338"/><path d="m886.236 354.468c-5.543-3.971-11.74-8.715-18.924-7.496-.322.055-.406.508-.189.715 4.641 4.475 10.561 7.328 15.566 11.377 5.52 4.459 10.439 8.697 16.652 12.145.666.367 1.41-.369 1.035-1.037-3.63-6.473-8.048-11.335-14.14-15.704z" fill="#d7e338"/><path d="m903.006 373.619c-.408-.111-.699.326-.52.678 1.066 2.113 2.037 3.887 3.865 5.428.617.52 1.91.264 1.797-.744-.345-3.093-2.269-4.573-5.142-5.362z" fill="#d7e338"/><path d="m850.453 395.355c.17.803 1.162.738 1.564.203 5.41-7.203 2.539-18.92-2.42-25.605-.262-.354-.959-.291-.92.25.299 4.123.869 8.215 1.25 12.33.399 4.308-.37 8.545.526 12.822z" fill="#d7e338"/><path d="m780.137 351.017c4.986 1.986 10.178 3.598 14.984 5.99 4.092 2.033 7.307 3.684 11.924 4.068.881.074 1.199-.93.91-1.584-4.271-9.652-18.326-14.047-27.818-10.125-.801.333-.819 1.325 0 1.651z" fill="#d7e338"/><path d="m814.012 314.763c9.68-2.27 19.611-5.107 28.553-9.498.805-.395.324-1.463-.414-1.533-10.389-.979-20.625 2.998-29.002 8.984-1.014.727-.422 2.348.863 2.047z" fill="#d7e338"/><path d="m507.885 646.033c-17.78-10.939-35.068-22.658-52.095-34.734-11.631-8.246-22.989-17.107-35.131-24.621.296.252.582.496.882.752 7.773 6.572 15.119 13.672 22.783 20.717 30.188 27.748 63.872 54.055 98.901 75.428 8.756 5.344 18.635 8.123 24.018 16.037 8.732-3.818 19.461-8.836 23.174-17.148.389-.871.684-1.684.979-2.498-29.076 1.173-58.181-18.351-83.511-33.933z" fill="#ee9e2b"/><path d="m553 700.859c-3.861-1.563-7.668-3.379-11.43-5.361 4.859 11.525 9.42 23.012 5.535 35.775-4.943 16.236-20.688 29.752-34.488 38.389-26.375 16.506-59.352 21.164-89.896 21.223-31.634.063-81.313-4.393-90.355-41.439-3.157-12.93-1.934-27.898.556-41.848-7.502 22.59-14.129 45.428-19.891 68.553 19.253 5.811 36.637 16.451 56.407 21.309 97.496 23.957 154.105-6.148 175.041-41.381 5.867-9.872 26.789-47.827 8.521-55.22z" fill="#ee9e2b"/><path d="m242.362 791.939c-2.884-5.473-4.23-11.912-3.459-19.686.8-8.057 5.184-17.047 9.62-25.566-5.646 5.48-11.367 10.877-17.402 15.898-24.627 20.486-61.762 8.119-88.636-2.422-24.354-9.557-54.163-28.266-53.542-57.869.214-10.215 4.686-19.283 11.137-27.443-9.255 6.053-19.221 12.936-26.597 20.912-9.423 10.195-8.395 15.363-1.701 25.438 5.99 9.008 13.597 17.166 20.859 23.92 41.071 38.174 95.117 50.621 149.721 46.818z" fill="#ee9e2b"/><path d="m173.868 585.582c12.221-8.061 24.418-16.148 36.523-24.361 17.468-11.85 42.62-30.877 65.584-22.926 20.082 6.953 33.943 24.869 46.822 41.65 4.602 6 5.206 3.402 10.453-1.301 1.187-1.064 2.491-1.986 3.789-2.912-11.494-16.254-22.614-33.883-39.403-44.014-26.285-15.861-56.387 6.855-83.59 6.457-28.505-.418-36.188-37.389-38.975-59.383-2.942-23.191-2.208-46.223 1.432-68.949-23.603 53.42-19.272 121.762-2.635 175.739z" fill="#ee9e2b"/><g fill="#fbe134"><path d="m240.859 619.047c-25.94 8.33-49.083 32.51-62.438 55.459-.315.541.446 1.158.878.676 8.917-9.92 18.373-19.178 28.231-28.168 10.674-9.732 23.435-17.271 33.649-27.418.229-.227 0-.653-.32-.549z"/><path d="m261.784 607.689c-.101 18.67-1.561 35.602-7.228 53.518-5.12 16.193-12.07 31.715-17.122 47.961-.197.635.72.99 1.053.441 16.951-27.949 38.002-68.824 24.139-102.033-.177-.422-.84-.404-.842.113z"/><path d="m238.232 684.404c-2.224 5.26-4.406 10.533-6.51 15.832-.18.445.38.719.724.557 6.208-2.918 6.646-10.162 6.399-16.223-.012-.297-.477-.49-.613-.166z"/><path d="m208.188 692.813c-11.446 15.555-22.832 32.732-24.963 52.314-.058.529.749.709.981.266 8.904-16.936 18.07-34.299 24.644-52.301.15-.416-.437-.584-.662-.279z"/><path d="m199.901 725.871c-2.207 1.352-3.542 3.512-4.624 5.803-1.035 2.189-2.456 5.395-1.629 7.836.106.314.46.592.811.461 2.151-.813 3.059-3.314 3.595-5.383.729-2.805 1.42-5.582 2.355-8.326.098-.289-.257-.543-.508-.391z"/><path d="m127.605 725.117c0 .352.43.416.613.166 9.341-12.727 19.989-24.449 31.671-35.088.364-.328-.015-1.041-.496-.852-8.235 3.229-13.938 7.463-20.063 13.928-5.34 5.641-11.718 13.688-11.725 21.846z"/><path d="m153.458 688.156c1.922-1.17 4.133-1.867 6.26-2.57 2.121-.699 3.789-1.768 5.401-3.324.307-.291.06-.762-.325-.785-5.063-.303-9.141 1.824-12.01 6.004-.285.415.267.923.674.675z"/><path d="m441.197 683.916c-5.377-23.939-20.326-40.904-31.314-62.143-.14-.266-.568-.08-.481.203 6.374 20.965 20.028 38.33 25.167 59.84 5.567 23.307 5.64 48.41 6.006 72.262.013.74 1.179.949 1.325.18 2.194-11.545 4.105-21.885 3.979-33.729-.129-12.299-1.994-24.638-4.682-36.613z"/><path d="m447.278 747.469c-1.391 1.594-1.593 4.129-1.848 6.178-.352 2.814-1.197 5.455-.024 8.146.181.416.771.4 1.06.135 1.886-1.738 1.962-3.928 2.122-6.363.163-2.443.566-5.816-.664-8.012-.124-.221-.473-.283-.646-.084z"/><path d="m470.272 698.566c-.266-.082-.378.275-.179.422 9.497 6.834 17.992 14.303 25.284 23.467 6.583 8.277 10.681 18.705 18.601 25.77.391.35 1.172.148 1.123-.465-.9-11.271-8.741-20.865-15.675-29.354-7.525-9.213-17.849-16.304-29.154-19.84z"/><path d="m508.206 720.602c-.275-.088-.472.23-.352.461 1.014 1.973 2.246 3.787 3.438 5.658 1.244 1.949 2.557 2.938 4.465 4.117.33.205.809-.059.791-.455-.102-2.523-.648-3.969-2.328-5.92-1.562-1.815-3.768-3.131-6.014-3.861z"/><path d="m380.727 724.727c.117.582.987.422 1.002-.137.417-15.455 4.684-31.021 5.814-46.543 1.318-18.074 4.678-35.934 5.639-54.033.022-.434-.632-.504-.743-.102-4.591 16.438-7.973 33.313-10.063 50.258-2.099 17.027-5.09 33.551-1.649 50.557z"/><path d="m374.865 706.295c2.03-5.857 2.508-12.943 2.026-19.092-.029-.361-.589-.619-.768-.207-2.505 5.818-4.221 13.105-2.242 19.299.159.494.819.478.984 0z"/><path d="m410.707 706.906c-4.628 7.287-5.376 19.711-3.282 27.867.166.652 1.127.639 1.3 0 1.201-4.391 1.629-8.6 1.985-13.131.372-4.717 1.586-9.719 1.133-14.43-.058-.591-.793-.845-1.136-.306z"/><path d="m518.178 706.637c.506.404 1.309.045 1.127-.656-2.602-10.133-15.057-21.541-25.925-21.164-.296.012-.359.361-.142.521 4.305 3.18 8.708 6.207 12.734 9.744 4.223 3.715 7.796 8.025 12.206 11.555z"/><path d="m481.948 760.592c-1.844-8.102-7.574-15.029-13.985-20.063-.442-.346-1.251.117-.854.658 4.732 6.455 7.685 14.018 12.553 20.369.838 1.09 2.619.499 2.286-.964z"/><path d="m393.431 745.932c-4.252 7.252-4.867 19.283-2.763 27.256.123.467.82.588 1.053.139 2.123-4.129 2.573-8.084 2.81-12.686.245-4.816.79-9.842-.199-14.592-.088-.428-.696-.469-.901-.117z"/><path d="m414.181 696.893c-.296-.271-.928-.008-.742.434.826 1.977 1.512 4.004 2.036 6.082.259 1.027.448 2.09.64 3.133.22 1.188.88 2.037.911 3.305.015.559.681.676.981.266 1.705-2.32 2.298-4.074 1.203-6.891-.981-2.529-3.077-4.534-5.029-6.329z"/><path d="m433.056 627.83c-.453-.334-.866.35-.558.721 3.897 4.721 7.612 9.584 11.241 14.514 3.034 4.125 5.615 8.449 9.881 11.418.313.219.827-.066.792-.453-1.046-11.53-12.797-19.893-21.356-26.2z"/><path d="m402.561 641.391c.025-.27-.409-.393-.52-.143-3.363 7.561-4.122 16.465-.741 24.104.177.402.897.313.963-.125 1.166-7.909-.403-15.864.298-23.836z"/><path d="m378.557 643.787c2.371-4.188 3.769-8.605 5.146-13.191 1.436-4.766 3.6-9.182 5.284-13.846.103-.283-.22-.607-.506-.506-9.38 3.41-11.066 18.857-10.999 27.254.005.565.789.795 1.075.289z"/><path d="m236.286 657.535c-2.817 7.568-7.769 13.744-9.799 21.646-.119.465.43.75.77.447 6.652-5.889 9.39-13.207 10.354-21.914.091-.808-1.08-.841-1.325-.179z"/><path d="m129.211 688.742c-9.092 2.717-17.794 9.492-21.698 18.23-.204.453.383 1.035.748.578 5.844-7.262 15.043-10.961 22.055-16.912.885-.749-.056-2.208-1.105-1.896z"/><path d="m118.573 686.877c6.799-4.408 12.519-10.467 19.027-15.314 6.71-4.996 13.664-9.775 20.699-14.305.629-.406.232-1.543-.533-1.262-15.248 5.566-30.992 16.381-39.51 30.564-.115.194.119.444.317.317z"/><path d="m153.103 738.701c6.208-6.508 9.579-14.445 12.247-22.91.175-.557-.565-.963-.963-.561-6.316 6.4-9.962 14.279-12.275 22.895-.151.563.576 1.012.991.576z"/><path d="m216.015 740.004c-2.021 2.207-2.847 5.459-3.698 8.273-1.173 3.887-2.891 8.004-2.434 12.121.067.613.74.975 1.236.512 2.511-2.346 3.297-5.506 4.087-8.754.88-3.627 2.181-8.041 1.736-11.77-.051-.429-.573-.769-.927-.382z"/><path d="m240.68 721.684c-2.175 3.607-3.106 7.984-4.561 11.922-1.617 4.377-3.657 8.459-4.957 12.961-.126.436.38.844.773.596 7.62-4.826 11.344-16.65 9.737-25.35-.089-.483-.766-.506-.992-.129z"/><path d="m223.949 687.906c-4.739 4.637-7.625 11.143-8.421 17.727-.037.303.4.453.59.246 4.386-4.854 7.405-11.115 8.655-17.49.093-.475-.452-.844-.824-.483z"/><path d="m278.295 622.883c-.091-.289-.478-.277-.572 0-1.876 5.488-2.176 11.627-3.336 17.324-1.054 5.166-2.187 10.143-2.714 15.402-.055.559.755.711 1.013.273 5.375-9.114 8.904-22.583 5.609-32.999z"/><path d="m244.717 601.996c-10.031 2.443-20.555 6.617-25.969 16.059-.197.344.238.627.517.398 7.904-6.463 17.585-9.67 25.794-15.646.397-.287.171-.936-.342-.811z"/><path d="m275.049 603.285c-.794 1.615-1.144 3.359-1.37 5.139-.279 2.188-.757 4.688.024 6.809.2.539.844.621 1.173.154 1.08-1.527 1.129-3.459 1.246-5.271.143-2.205.048-4.568-.382-6.738-.062-.315-.549-.378-.691-.093z"/><path d="m329.258 510.18c-36.345-13.211-78.934-17.301-116.084-4.357-.249.086-.227.51.065.484 19.26-1.67 38.599-2.166 57.924-2.098 19.636.07 38.342 6.646 57.924 7.232.763.022.821-1.025.171-1.261z"/><path d="m319.083 501.402c-.49.064-.615.697-.117.873 5.967 2.107 11.642 5.193 17.78 6.764.887.227 1.508-.855.88-1.512-4.712-4.937-11.859-6.988-18.543-6.125z"/><path d="m351.812 523.438c.079-.58-.69-.732-1.038-.43-6.967 6.039-14.519 11.445-21.357 17.609-.204.184.008.559.271.467 8.767-3.066 20.711-7.119 22.124-17.646z"/><path d="m358.837 524.035c-.786.516-1.866.607-2.491 1.416-.656.848-1.284 1.705-1.9 2.58-1.14 1.617-2.012 3.424-2.728 5.264-.148.379.306.836.687.686 2.053-.799 3.767-1.869 5.381-3.373.736-.686 1.9-2.096 2.06-3.119.188-1.24-.074-1.961-.234-3.139-.047-.332-.516-.485-.775-.315z"/><path d="m376.659 556.209c3.682-.74 4.122-4.703 4.646-7.955.658-4.082-.177-7.877-2.279-11.383-.318-.535-1.006-.15-.932.393.489 3.582-.58 7.418-1.383 10.889-.683 2.947-2.048 4.869-.814 7.748.124.285.492.363.762.308z"/><path d="m386.328 551.563c1.954-3.098 1.5-8.217-.142-11.408-.088-.172-.368-.172-.457 0-1.641 3.191-2.096 8.311-.142 11.408.175.275.566.275.741 0z"/><path d="m413.383 563.672c5.837 6.592 9.521 14.617 14.659 21.709.353.482 1.266.379 1.227-.334-.918-17.148-17.479-30.742-32.128-37.074-.234-.1-.541.201-.3.389 5.998 4.64 11.513 9.626 16.542 15.31z"/><path d="m437.065 585.338c.292.555 1.018.232 1.073-.291.78-7.359-3.365-14.082-9.345-18.217-.322-.225-.642.197-.495.496 2.94 6.016 5.667 12.092 8.767 18.012z"/><path d="m507.87 622.688c8.433 8.141 15.276 17.699 24.538 24.961.441.348 1.389.047 1.102-.641-8.861-21.031-30.967-39.797-52.106-47.709-.465-.174-.895.539-.495.852 9.246 7.294 18.475 14.343 26.961 22.537z"/><path d="m534.652 637.363c-.342-.162-.754.178-.541.541 3.084 5.23 5.186 10.975 8.811 15.879.268.363.898.383 1.021-.133 1.653-6.888-3.324-13.451-9.291-16.287z"/><path d="m282.648 466.843c-7.74-15.527-20.79-25.861-35.361-34.793-13.195-8.088-31.481-16.232-47.289-13.162-.299.059-.268.496 0 .572 15.789 4.5 30.196 8.938 44.491 17.379 13.677 8.076 26.227 19.332 37.384 30.604.411.414 1.019-.11.775-.6z"/><path d="m285.073 465.828c.948 1.697 2.294 3.68 4.338 4.037.394.068.714-.1.85-.482 1.573-4.412-5.031-8.604-7.644-11.109-.478-.459-1.144.115-.878.676 1.092 2.305 2.085 4.645 3.334 6.878z"/><path d="m249.362 482.351c-11.961-8.236-30.879-10.078-44.229-4.029-.376.17-.185.787.208.768 15.061-.756 28.888 3.174 43.706 4.426.671.058.782-.845.315-1.165z"/><path d="m228.822 410.066c6.396 4.225 12.395 9.664 19.475 12.65.472.199.86-.287.539-.697-4.702-5.951-11.73-12.539-19.798-12.752-.447-.012-.556.572-.216.799z"/><path d="m554.533 653.25c-.24-.064-.467.262-.256.438 6.695 5.563 13.256 11.34 19.857 17.002.324.275.994.021.799-.465-3.607-8.92-11.197-14.543-20.4-16.975z"/><path d="m516.549 719.061c-.23.02-.348.271-.186.449 2.09 2.322 4.848 4.109 7.203 6.162 2.865 2.498 5.537 4.225 8.85 6.02.936.506 1.756-.65 1.098-1.422-3.987-4.682-9.994-11.795-16.965-11.209z"/><path d="m352.3 703.246c-7.225 12.17-9.164 26.342-8.863 40.301.022 1.027 1.551 1.273 1.81.244 3.347-13.262 4.334-26.91 8.076-40.115.175-.615-.7-.975-1.023-.43z"/><path d="m400.449 608.146c-2.361 5.818-2.774 12.996-1.771 19.15.063.387.677.455.841.109 2.785-5.83 1.16-12.916 1.446-19.189.015-.32-.413-.325-.516-.07z"/><path d="m416.773 616.186c.855 2.697 1.697 5.336 2.38 8.088.636 2.566 1.131 5.188 2.655 7.395.292.422.842.322 1.022-.135 2.106-5.262-1.378-12.439-5.671-15.645-.189-.143-.451.09-.386.297z"/><path d="m371.555 654.896c-7.245 5.721-12.041 16.314-11.021 25.461.064.576.961 1.033 1.257.342 3.577-8.322 7.685-16.834 10.203-25.547.08-.275-.247-.408-.439-.256z"/><path d="m456.16 690.078c-.193-.131-.524.039-.496.285.37 3.055 2.203 5.809 3.458 8.574 1.685 3.715 2.285 7.918 4.587 11.324.333.494 1.103.568 1.419 0 1.898-3.387.311-6.723-1.289-9.898-1.759-3.488-4.395-8.025-7.679-10.285z"/><path d="m488.504 674.531c.435.154.792-.385.576-.75-3.935-6.646-11.191-12.141-18.708-14.02-.562-.143-1.071.598-.592 1.016 5.733 5.002 11.43 11.151 18.724 13.754z"/><path d="m458.642 759.871c-.144 2.447.305 4.945.403 7.398.097 2.367-.489 5.18 1.004 7.219.251.338.687.525 1.082.283 4.673-2.891 1.271-12.166-1.619-15.26-.321-.345-.845-.062-.87.36z"/><path d="m431.577 766.098c-.097-.326-.574-.334-.666 0-.634 2.27-.924 4.553-1.058 6.896-.119 2.1-.8 4.688.961 6.264.207.188.487.236.736.096 1.945-1.102 1.791-3.41 1.61-5.387-.244-2.696-.81-5.278-1.583-7.869z"/><path d="m379.875 763.059c-4.501 2.697-7.199 11.105-4.443 15.65.634 1.045 2.395 1.203 2.987 0 1.121-2.275 1.071-4.432 1.252-6.918.202-2.758.979-5.484 1.07-8.234.014-.436-.499-.717-.866-.498z"/><path d="m491.481 751.09c-.307-.172-.711.113-.604.465.79 2.578 1.261 5.141 2.456 7.592.831 1.707 2.818 4.9 5.185 3.514 2.155-1.264-.204-4.691-1.047-5.932-1.619-2.377-3.499-4.221-5.99-5.639z"/><path d="m171.318 737.729c-4.791 3.352-7.141 9.639-7.182 15.297-.004.592.712.848 1.123.465 4.073-3.77 6.821-9.615 7.022-15.209.017-.464-.567-.833-.963-.553z"/><path d="m139.169 733.473c-2.854 2.188-9.142 8.932-5.967 12.703.158.189.491.271.722.191 1.888-.656 2.797-2.68 3.492-4.428.998-2.51 2.405-4.979 2.769-7.688.068-.503-.462-1.202-1.016-.778z"/><path d="m118.855 716.758c-3.281 1.111-8.608 4.225-7.783 8.508.045.234.307.42.539.41 3.836-.152 5.701-5.617 7.709-8.121.271-.336.035-.967-.465-.797z"/><path d="m197.173 632.354c.426-.25.259-.977-.257-.951-8.45.387-15.393 3.654-20.747 10.305-.162.205-.019.615.288.496 7.231-2.808 14.025-5.936 20.716-9.85z"/><path d="m169.775 700.252c2.838-2.174 4.951-4.689 7.162-7.488 2.142-2.709 4.86-5.229 6.344-8.379.294-.625-.296-1.223-.924-.924-3.131 1.498-5.548 4.348-7.852 6.871-2.583 2.826-4.544 5.625-5.432 9.381-.086.365.344.814.702.539z"/><path d="m211.687 686.65c1.288 1.316 3.106-1.986 3.423-2.713 1.08-2.48 2.878-4.98 3.456-7.631.101-.453-.282-.867-.749-.748-3.232.821-9.263 7.889-6.13 11.092z"/><path d="m243.603 650.467c1.774.488 2.856-2.205 3.271-3.449.722-2.17.987-5.08.432-7.307-.072-.295-.426-.344-.632-.168-1.678 1.445-2.421 3.799-3.196 5.801-.382.986-1.632 4.638.125 5.123z"/><path d="m248.986 613.752c4.399-2.777 5.568-9.057 6.314-13.834.066-.432-.442-.852-.798-.465-3.213 3.502-5.247 8.842-6.87 13.258-.282.768.701 1.451 1.354 1.041z"/><path d="m264.647 684.373c-3.176 3.98-5.126 10.422-5.085 15.469.005.457.597.738.928.385 3.577-3.846 5.149-10.496 4.635-15.656-.021-.212-.309-.413-.478-.198z"/><path d="m369.393 637.82c-2.112 1-3.455 1.734-4.877 3.697-1.489 2.061-2.235 4.551-2.047 7.07.117 1.576 1.995 2.074 2.895.783 1.099-1.574 1.662-3.219 2.398-4.977.777-1.863 1.203-4.209 2.283-5.922.276-.436-.249-.842-.652-.651z"/><path d="m393.731 595.453c-1.59 1.436-6.934 7.145-3.417 9.205 1.202.703 2.551-.93 3.123-1.719 1.197-1.646 1.402-4.637 1.835-6.59.201-.911-.848-1.521-1.541-.896z"/><path d="m345.866 703.793c1.405-2.381 2.902-4.482 3.888-7.094 1.028-2.727 1.74-5.5 2.326-8.346.07-.348-.335-.617-.604-.352-2.194 2.152-3.81 4.469-5.107 7.273-1.251 2.701-1.3 5.352-1.483 8.252-.034.54.725.701.98.267z"/><path d="m386.828 736.563c-5.019 1.375-8.133 8.154-7.471 13 .093.684.983.727 1.401.369 1.912-1.629 3.063-3.695 4.126-5.938 1.026-2.166 2.261-4.236 2.793-6.582.115-.508-.325-.994-.849-.849z"/><path d="m408.206 753.553c.063-.676-.915-.869-1.226-.334-3.371 5.826-2.419 13.586.839 19.221.453.781 1.687.441 1.687-.457-.005-6.26-1.89-12.118-1.3-18.43z"/><path d="m445.624 671.873c-.411-.172-.915.342-.749.748.809 2.002 2.327 3.754 3.503 5.559 1.459 2.234 2.37 4.635 4.493 6.354.374.301 1.036.252 1.155-.307.566-2.639-.532-4.834-2.157-6.875-1.681-2.106-3.707-4.424-6.245-5.479z"/><path d="m229.54 399.718c-4.721-3.906-11.278-6.891-17.365-4.977-.339.107-.352.596 0 .699 2.984.861 6.023 1.854 8.889 3.07 2.54 1.082 4.84 2.248 7.596 2.719.793.136 1.651-.872.88-1.511z"/><path d="m214.071 445.578c3.032-.045 5.974.283 9.008-.023.545-.055.818-.76.29-1.074-5.26-3.117-13.426-3.1-18.521.406-.36.248-.215.762.216.799 3.001.257 6.004-.065 9.007-.108z"/><path d="m203.978 464.912c3.237 2.912 9.404 3.537 13.125 1.258.59-.361.469-1.244-.189-1.443-2.038-.619-4.031-.391-6.125-.299-2.199.094-4.363-.102-6.556-.135-.307-.004-.494.406-.255.619z"/><path d="m224.161 491.687c.361-.223.3-.783-.117-.9-4.17-1.188-8.839.203-12.974.973-.3.057-.327.492-.082.633 3.97 2.251 9.339 1.683 13.173-.706z"/><path d="m240.26 512.391c-13.855.828-28.004 5.082-41.849 4.404-.257-.012-.321.336-.126.461 5.696 3.643 12.061 2.771 18.537 2.313 8.45-.6 16.333-1.871 23.687-6.258.406-.241.257-.95-.249-.92z"/><path d="m235.35 520.854c.156-.223-.008-.535-.247-.605-3.198-.92-7.103-.055-9.748 1.967-.263.203-.281.541 0 .74 3.131 2.21 7.897.884 9.995-2.102z"/><path d="m182.614 462.302c8.244-1.076 16.384-2.852 24.667-3.865.492-.059.568-.65.113-.842-8.016-3.342-18.054-1.043-24.987 3.939-.29.212-.243.829.207.768z"/><path d="m202.311 452.353c2.146 1.096 5.464 1.813 7.868 1.406.234-.041.426-.363.333-.588-1.238-2.979-5.574-2.484-8.079-1.75-.403.118-.529.725-.122.932z"/><path d="m211.713 435.712c.412-.02.604-.582.217-.799-8.313-4.635-18.431-2.818-26.695.947-.327.146-.078.594.229.541 8.813-1.53 17.423-.29 26.249-.689z"/><path d="m211.992 408.601c.521.02.588-.627.24-.889-6.255-4.703-14.82-4.701-21.724-1.492-.263.121-.119.516.143.52 7.179.097 14.192 1.615 21.341 1.861z"/><path d="m223.953 386.794c.766.301 1.309-.674.985-1.281-2.69-5.084-9.112-6.23-14.333-6.215-.261 0-.403.398-.142.52 4.575 2.113 8.83 5.129 13.49 6.976z"/><path d="m231.823 389.998c.181.072.436-.043.521-.211 1.203-2.377-1.104-3.965-2.861-5.191-.418-.291-1.093.197-.893.689.766 1.888 1.194 3.898 3.233 4.713z"/><path d="m270.44 437.712c3.291 2.732 6.09 5.998 9.46 8.65.588.463 1.484.053 1.293-.752-1.023-4.307-4.148-7.422-7.579-10.018-3.306-2.502-7.422-5.574-11.735-5.709-.383-.012-.514.447-.29.701 2.446 2.82 5.992 4.749 8.851 7.128z"/><path d="m269.064 467.875c.441-.273.246-.926-.258-.951-5.031-.248-9.957.447-14.966.85-5.719.461-11.457.012-17.182.262-.212.008-.338.326-.117.43 9.394 4.459 23.509 4.981 32.523-.591z"/><path d="m270.38 485.855c.522-.109.683-.832.313-1.184-2.882-2.744-7.85-2.633-11.587-2.309-.26.023-.43.33-.22.535 2.806 2.741 7.744 3.733 11.494 2.958z"/><path d="m311.474 478.759c3.829 3.084 7.199 6.609 11.169 9.539.288.211.72-.141.604-.465-3.438-9.729-14.314-16.639-23.842-19.428-.403-.117-.734.424-.416.715 3.892 3.553 8.384 6.337 12.485 9.639z"/><path d="m315.892 493.457c3.566 2.27 7.415 3.668 11.669 3.752.632.012.975-.981.342-1.256-3.728-1.625-7.646-2.504-11.542-3.609-.681-.194-1.043.747-.469 1.113z"/><path d="m350.259 514.975c.465-.342.179-.982-.38-.9-9.028 1.328-17.404 5.299-26.476 6.467-.67.086-.971 1.143-.175 1.293 9.654 1.843 19.224-1.097 27.031-6.86z"/><path d="m358.602 552.219c-7.499-.096-12.699 4.793-17.173 10.287-.208.254-.022.795.368.631 6.212-2.611 12.082-5.512 17.212-9.936.396-.342.067-.976-.407-.982z"/><path d="m362.095 559.176c3.83-2.613 6.316-5.17 7.222-9.855.089-.463-.436-.807-.798-.465-1.448 1.359-2.772 2.629-3.974 4.221-1.305 1.73-2.032 3.688-2.9 5.65-.12.271.147.658.45.449z"/><path d="m370.455 531.945c1.191-1.236 5.732-5.99 2.865-7.668-2.678-1.57-3.838 5.859-4.021 6.994-.103.639.633 1.213 1.156.674z"/><path d="m354.153 510.43c2.712.93 5.149 1.805 8.052 1.873.483.01.666-.57.372-.898-3.491-3.91-10.163-5.727-15.131-3.76-.186.072-.297.375-.064.48 2.17.963 4.523 1.535 6.771 2.305z"/><path d="m392.958 547.633c-.232-.16-.588-.047-.72.189-1.16 2.08-1.166 4.322-.987 6.641s-.148 4.977 1.588 6.781c.173.182.485.229.697.09 4.042-2.602 3.062-11.189-.578-13.701z"/><path d="m394.11 540.213c.489-3.289-1.521-5.85-4.291-7.391-.288-.16-.675.174-.474.475 1.5 2.234 2.187 4.828 3.651 7.061.257.392 1.031.419 1.114-.145z"/><path d="m456.326 601.301c-.246-10.91-4.34-23.082-12.13-30.996-.23-.234-.642.002-.549.318 2.993 10.381 7.307 21.1 11.853 30.902.188.409.836.198.826-.224z"/><path d="m462.688 588.797c1.634 1.764 3.067 3.795 5.159 5.057.8.484 1.637-.305 1.475-1.135-.857-4.336-6.734-10.641-11.583-9.734-.255.047-.271.359-.138.523 1.508 1.861 3.445 3.517 5.087 5.289z"/><path d="m474.909 593.891c.183.049.403-.063.446-.254.66-3.035-2.073-3.979-4.283-5.191-.469-.258-.839.316-.538.699 1.486 1.888 1.846 4.043 4.375 4.746z"/><path d="m498.698 627.176c-3.644-2.102-7.208-4.48-11.088-6.127-.22-.092-.463.104-.339.34 1.692 3.186 4.562 5.402 7.532 7.355 3.622 2.385 7.32 5.338 11.668 6.037.44.072.796-.324.576-.748-1.793-3.453-5.075-4.97-8.349-6.857z"/><path d="m505.3 637.957c1.322.998 2.854 1.576 4.509 1.322.522-.082.522-.818.138-1.055-1.311-.807-2.936-.914-4.447-1.004-.436-.023-.482.524-.2.737z"/><path d="m563.238 650.703c-2.678-6.1-10.129-9.055-16.445-9.553-.367-.029-.439.469-.176.645 5.061 3.357 10.375 7.602 16.137 9.537.396.131.619-.318.484-.629z"/><path d="m556.361 663.115c-.705-.691-1.504-1.242-2.303-1.816-1.336-.963-2.799-2.561-4.381-3.033-.217-.063-.471.076-.525.301-.406 1.68.82 3.506 1.842 4.754.77.938 1.609 1.693 2.648 2.324 1.014.617 2.025.379 3.129.492.57.059 1.057-.746.695-1.215-.427-.555-.603-1.317-1.105-1.807z"/><path d="m372.925 730.393c-2.14.348-3.487 2.93-4.497 4.625-1.497 2.506-2.394 5.262-2.133 8.197.082.92 1.149 1.203 1.687.455 1.473-2.047 2.306-4.297 3.127-6.66.683-1.971 2.261-4.16 2.274-6.268.002-.254-.23-.387-.458-.349z"/><path d="m351.617 756.596c-2.187 3.662-4.496 8.715-2.246 12.887.13.242.487.283.673.088 3.129-3.291 2.458-8.629 2.31-12.773-.015-.392-.531-.546-.737-.202z"/><path d="m359.783 762.68c-2.283 2.656-2.739 5.742-1.482 8.967.15.387.691.652 1.016.268 2.294-2.691 1.008-5.42 1.623-8.563.12-.622-.667-1.241-1.157-.672z"/><path d="m422.526 716.715c1.567 8.846 1.487 17.936 3.255 26.701.146.723 1.313.725 1.46 0 1.753-8.746 1.06-19.443-3.992-27.006-.258-.385-.801-.135-.723.305z"/><path d="m431.684 746.049c-1.193 1.828-1.576 4.143-2.069 6.24-.44 1.869-.736 3.883.434 5.537.113.158.36.279.541.143 1.775-1.361 2.164-3.465 2.471-5.574.307-2.111.498-4.447-.636-6.346-.172-.287-.566-.268-.741 0z"/><path d="m468.24 718.658c1.158 3.641 3.359 6.932 5.063 10.338 2.007 4.016 3.881 7.916 6.761 11.383.753.91 2.008-.088 1.814-1.055-1.469-7.334-5.856-17.721-13.033-21.131-.304-.144-.722.092-.605.465z"/><path d="m509.51 713.529c.393.143.779-.293.669-.668-2.142-7.211-10.248-11.855-17.083-13.689-.294-.08-.453.322-.204.48 6.096 3.887 9.692 11.36 16.618 13.877z"/><path d="m533.736 711.025c-1.889-1.762-4.354-3-6.898-3.338-.311-.041-.398.375-.232.563.871.979 8.594 10.373 9.861 7.809.972-1.969-1.483-3.871-2.731-5.034z"/><path d="m523.789 699.18c-.229-.021-.307.275-.174.42 2.557 2.793 6.318 5.441 10.041 6.32.301.07.596-.195.506-.506-1.213-4.268-6.416-5.869-10.373-6.234z"/><path d="m522.832 738.801c-.25-.135-.578.146-.406.406 1.836 2.762 3.359 6.441 5.955 8.563.779.639 1.725.029 1.594-.928-.498-3.68-4.11-6.379-7.143-8.041z"/><path d="m508.08 755.371c-.253-.1-.45.182-.405.402.407 1.975 1.595 5.139 3.415 6.156.666.373 1.533.041 1.738-.707.756-2.74-2.547-4.995-4.748-5.851z"/><path d="m482.707 767.391c-.459-.441-1.434-.002-1.156.674.854 2.072.901 6.102 3.575 6.699.251.055.448-.041.595-.242 1.76-2.43-1.384-5.551-3.014-7.131z"/><path d="m447.646 770.832c-.089-.244-.407-.369-.605-.158-2.575 2.744-2.886 8.748-.623 11.668.199.258.565.115.722-.094 1.218-1.598 1.27-3 1.218-4.973-.059-2.091-.005-4.451-.712-6.443z"/><path d="m399.9 774.326c-1.573 1.129-1.997 3.541-2.197 5.367-.193 1.746-.668 4.467 1.097 5.563.16.102.387.1.547 0 1.348-.836 1.344-2.664 1.342-4.1-.005-2.018.64-4.578.032-6.496-.101-.318-.514-.555-.821-.334z"/><path d="m406.186 694.287c.852-3.486.911-6.816.72-10.381-.175-3.232.876-7.66-.642-10.57-.148-.287-.584-.416-.854-.227-2.746 1.928-2.731 6.371-2.923 9.445-.268 4.266.471 8.252 2.826 11.846.217.332.77.307.873-.113z"/><path d="m410.399 691.93c.229.109.575.133.757-.098.729-.939.753-1.977.672-3.146-.084-1.254.085-2.596-.631-3.678-.21-.316-.597-.355-.879-.113-1.655 1.425-2.221 5.953.081 7.035z"/><path d="m409.929 613.123c1.101-2.781-.028-5.402-.991-8.066-.788-2.176-1.742-4.877-3.78-6.135-.276-.172-.706-.018-.773.314-.461 2.248.617 4.588 1.228 6.738.757 2.666 1.144 5.473 3.272 7.424.372.342.871.163 1.044-.275z"/><path d="m412.924 606.414c-.846 1.629-.298 4.643.586 6.182.455.791 1.909.732 2.076-.271.316-1.893-.47-4.975-2.212-6.027-.147-.089-.368-.04-.45.116z"/><path d="m429.048 618.453c2.85 3.35 6.719 6.084 10.3 8.602.818.576 1.633-.506 1.261-1.262-2.032-4.109-7.045-6.58-11.239-7.889-.337-.105-.521.315-.322.549z"/><path d="m428.317 636.236c.333 2.566.734 6.77 3.227 8.158.274.154.578.008.677-.275.944-2.674-.804-6.904-3.284-8.238-.246-.131-.664.025-.62.355z"/><path d="m373.392 668.146c-1.015 2.785-.821 5.131-.578 7.996.039.465.625.662.889.24 2.482-3.955 3.741-8.543 3.62-13.266-.011-.389-.45-.547-.73-.303-1.693 1.472-2.444 3.259-3.201 5.333z"/><path d="m354.768 672.695c-3.418 2.111-4.539 5.725-4.764 9.545-.047.813 1.207 1.178 1.563.424 1.467-3.098 2.598-6.275 3.877-9.447.157-.387-.357-.719-.676-.522z"/><path d="m216.198 715.941c.173-.574-.636-1.102-1.045-.609-2.921 3.508-7.041 7.861-5.821 12.76.091.359.517.414.77.201 3.472-2.9 4.835-8.145 6.096-12.352z"/><path d="m186.271 751.857c-2.544 3.131-5.554 7.129-2.711 11.01.173.238.578.385.801.104 1.024-1.285 1.722-2.408 2.046-4.041.422-2.119.564-4.271 1.048-6.385.143-.633-.706-1.275-1.184-.688z"/><path d="m154.778 745.26c-.985.332-1.917.283-2.765.988-.961.801-1.759 1.732-2.522 2.717-1.049 1.352-1.927 3.324-.943 4.93.08.129.27.197.405.104 1.415-.951 2.455-2.439 3.665-3.633.644-.635 1.621-1.252 2.036-2.078.426-.848.472-1.557.691-2.461.078-.323-.22-.684-.567-.567z"/><path d="m127.858 731.277c-3.131.84-5.712 3.918-6.811 6.859-.092.248.18.457.405.404 3.09-.738 6.29-3.387 7.136-6.533.118-.437-.292-.847-.73-.73z"/><path d="m109.613 686.262c-5.091 2.072-8.328 5.738-11.613 10.016-.444.576.437 1.455 1.014 1.014 4.088-3.137 7.699-6.361 11.016-10.314.241-.289.021-.894-.417-.716z"/><path d="m155.533 651.762c5.405-1.676 10.73-3.59 15.365-6.871.29-.207.229-.771-.199-.736-5.856.484-11.871 2.195-15.5 7.172-.157.212.101.507.334.435z"/><path d="m208.694 621.053c.247-.334 0-.918-.402-.99-3.816-.684-8.432 1.445-11.141 4.1-.448.438.012 1.156.592 1.016 3.581-.857 8.604-.956 10.951-4.126z"/><path d="m254.545 593.264c1.478-1.135 4.616-2.625 5.07-4.559.06-.252-.045-.447-.242-.596-1.903-1.418-5.167.756-6.771 1.832-2.037 1.363-4.826 3.705-4.847 6.381-.002.297.249.543.543.543 2.443-.004 4.448-2.217 6.247-3.601z"/><path d="m268.025 593.141c-1.56 2.418-1.335 6.703-.816 9.418.078.404.586.451.852.223 2.544-2.182 2.19-7.041.421-9.641-.113-.164-.344-.172-.457 0z"/><path d="m284.437 609.35c-.288 3.826.681 7.607 1.09 11.398.42 3.859.498 7.738.931 11.605.063.574.874.947 1.194.324 3.625-7.006 2.302-17.229-2.386-23.553-.266-.354-.794-.235-.829.226z"/><path d="m293.378 622.197c-.473 2.1-1.62 5.07-.232 7.021.122.17.325.242.519.135 2.477-1.379 1.508-4.941 1.014-7.156-.144-.648-1.156-.646-1.301 0z"/><path d="m235.266 642.127c.063-.221-.143-.381-.344-.344-4.577.83-7.939 5.289-10.842 8.617-3.506 4.018-6.227 8.719-7.348 13.959-.103.484.534.979.909.527 3.172-3.83 5.989-7.945 9.092-11.832 2.809-3.517 7.23-6.488 8.533-10.927z"/><path d="m218.693 649.172c.212-.328-.199-.699-.519-.518-3.021 1.711-5.105 4.561-5.811 7.961-.084.41.318.744.701.537 3.093-1.658 3.848-5.214 5.629-7.98z"/><path d="m199.52 695.141c.05.348.57.551.846.346 1.251-.932 1.954-2.279 2.739-3.6.817-1.369 1.768-2.973 2.045-4.559.048-.26-.166-.568-.465-.465-2.929 1.022-5.605 5.203-5.165 8.278z"/><path d="m180.795 722.547c-2.563 3.234-4.93 6.902-4.336 11.209.111.807 1.34.875 1.685.221 1.718-3.264 2.649-6.885 4.228-10.213.454-.959-.822-2.168-1.577-1.217z"/><path d="m251.561 716.961c-1.162 2.277-2.265 4.508-3.102 6.93-.691 1.992-1.753 3.939-.879 5.998.117.275.472.287.697.184 2.055-.922 2.512-3.398 3.061-5.387.688-2.496.831-4.957.959-7.525.019-.388-.559-.548-.736-.2z"/><path d="m279.326 657.838c-2.623 3.209-3.509 7.1-3.968 11.098-.039.344.432.479.646.268 2.962-2.938 4.404-6.865 4.023-11.074-.028-.316-.45-.601-.701-.292z"/></g><path d="m302.678 774.037c11.578-46.66 26.625-92.436 45.656-136.607 4.18-9.705 10.139-27.17 18.528-41.457-28.842 27.908-46.114 70.68-60.914 105.49-9.458 22.242-17.427 45.643-22.168 69.375-.229 1.141-.428 2.303-.615 3.467 6.731-.643 13.365-.889 19.513-.268z" fill="#f7b001"/><path d="m188.195 607.105c12.062-7.248 23.02-15.238 37.42-23.375 28.304-15.992 46.004-17.619 57.761-2.818 8.536 10.75 17.894 20.805 26.738 31.311 1.095-1.959 2.236-3.883 3.367-5.814-1.997-3.52-4.827-6.826-6.837-9.289-10.262-12.566-20.829-25.18-35.657-32.297-18.885-9.061-43.342 11.848-58.311 20.771-28.577 17.037-56.996 34.416-84.954 52.457-18.766 12.111-44.002 27.32-57.905 47.32 9.039-8.52 19.933-15.672 29.229-22.143 28.837-20.064 59.051-38.035 89.149-56.123z" fill="#f7b001"/><path d="m341.45 584.807c-8.058 8.393-14.082 18.729-19.652 28.875-15.376 28.016-28.289 57.344-40.947 86.664-.899 2.084-2.179 4.742-3.659 7.758 13.872-22.822 25.887-46.535 38.549-70.184 13.814-25.797 30.905-51.988 58.185-61.564-12.47-.737-25.855 1.554-32.476 8.451z" fill="#f8f383"/><path d="m242.276 559.689c18.836-9.363 25.346-11.002 46.411-.832 2.192 1.061 4.189 2.252 6.125 3.475-10.719-10.492-23.066-17.793-36.814-14.254-22.808 5.869-41.884 22.047-61.174 34.932-14.004 9.354-28.073 18.627-42.122 27.926 49.455-31.012 72.967-43.989 87.574-51.247z" fill="#f8f383"/><path d="m442.82 814.781c-18.483 1.389-37.126.568-55.449-2.748-3.272-.592-6.524-1.26-9.764-1.965-26.718 6.574-53.995 8.451-81.315 5.791 36.717 13.236 80.856 15.451 115.285 9.904 10.735-1.73 23.069-3.672 33.621-6.652 14.18-4.004 12.179-5.423-2.378-4.33z" fill="#ef6200"/><path d="m673.918 452.599c6.824-.828 14.115-.02 21.596 2.742.73.27 1.359.611 2.043.912 3.871-6.41 9.09-11.672 15.039-15.076 1.449-3.67 2.424-7.219 3.043-10.615-6.744 9.855-18.439 16.982-30.523 11.508-8.84-4.006-12.824-18.711-11.77-29.447-2.676 2.43-5.098 5.182-7.141 8.326 7.086 8.634 10.109 20.867 7.713 31.65z" fill="#ef6200"/><path d="m725.52 416.568c.893 6.689.217 13.873-1.348 20.629 5.201-.662 10.59.143 15.865 2.744 3.594-7.539 6.531-15.414 7.902-23.67.166-1 .334-2.068.498-3.133-4.15 3.563-9.297 5.412-14.844 5.506-3.142.053-5.786-.742-8.073-2.076z" fill="#ef6200"/><path d="m628.83 557.191c9.422 11.678 12.238 26.701 9.275 42.219 7.285-.91 14.582.178 21.406 4.646.598.393 1.115.826 1.668 1.238 6.381-8.916 16.516-18.063 27.51-22.926.268-4.26.191-8.777-.355-13.238-1.623 2.301-3.234 4.615-5.105 6.754-7.17 8.197-18.771 10.523-28.576 6.035-9.98-4.566-14.391-14.723-17.225-24.641-.658-2.307-1.166-5.006-1.707-7.791-2.514 2.394-4.834 5.003-6.891 7.704z" fill="#ef6200"/><path d="m791.48 492.431c-4.426 2.514-9.5 2.547-14.166 1.1 3.309 6.993 4.08 16.208 3.918 22.481 5.277-2.404 11.566-1.369 15.012.506 3.027-9.078 4.979-21.36 4.111-31.571-2.449 2.931-5.177 5.385-8.875 7.484z" fill="#ef6200"/><path d="m610.969 385.248c7.629 8.047 8.5 21.713 5.084 32.453 10.4-6.674 25.605-10.006 36.934-6.186 2.127-3.844 4.521-8.541 6.311-13.404-8.207 4.857-16.791 7.506-25.572 2.461-8.053-4.629-10.262-14.035-10.297-22.658-1.744-.049-3.49-.174-5.244-.43-2.302 2.668-4.706 5.26-7.216 7.764z" fill="#ef6200"/><path d="m586.846 802.635c3.064.949 5.881 2.465 8.313 4.391 5.979-5.711 11.643-12.543 14.717-19.779-7.188 4.746-15.027 7.098-24.15 6.676-9.551-.438-19.393-5.342-26.145-11.904-5.811-5.648-6.371-12.977-6.068-20.447-.158.156-.326.297-.484.457-.123.125-.256.209-.381.318-3.432 5.273-7.42 10.211-11.836 14.822 10.375 5.664 14.344 16.352 13.576 27.359 10.137-4.491 21.469-5.296 32.458-1.893z" fill="#ef6200"/><path d="m559.615 454.052c3.646 8.951 4.018 19.275 1.824 29.162 2.475.477 4.873 1.166 7.105 2.217 3.598 1.691 6.641 3.844 9.26 6.297 8.063-9.523 19.508-17.889 31.813-20.904.912-2.557 1.852-5.43 2.67-8.451-11.143 4.846-20.121 16.297-33.494 13.67-9.049-1.775-11.557-14.654-13.357-22.006-1.045-4.256-.559-9.75-1.07-14.691-1.328.895-2.596 1.842-3.699 2.85-4.003 3.667-2.829 7.487-1.052 11.856z" fill="#ef6200"/><path d="m756.68 615.471c-18.219 1.42-21.787-15.979-25.959-30.826-2.234 5.078-2.314 7.672-.609 11.945 3.369 8.439 3.449 18.701 2.398 28.541 3.256-.643 6.564-.865 9.887-.477 9.475 1.109 14.756 7.781 17.283 15.881 4.463-10.807 8.297-19.504 9.918-29.035-3.871 2.104-8.08 3.596-12.918 3.971z" fill="#ef6200"/><path d="m540.82 615.279c2.871-1.633 6.012-3.314 9.348-4.924.836-3.701 1.641-8.432 2.115-13.494-7.545 2.59-15.49 2.453-23.313.178-10.23-2.975-18.039-10.822-23.94-19.342-2.041-2.947-3.477-5.971-4.672-9.043-4.932 2.799-9.614 6.107-14.005 9.889 8.573 5.758 17.14 11.512 25.672 17.281 9.598 6.487 19.196 12.973 28.795 19.455z" fill="#ef6200"/><path d="m676.988 513.684c-18.436-4.496-18.195-24.186-22.178-39.819-2.572 2.865-4.871 6.236-6.92 10.262 8.678 11.877 8.742 28.334 6.578 43.92 5.563-.895 11.381-.574 17.346 1.463 4.977 1.699 9.141 4.391 12.652 7.717 4.178-9.219 10.5-18.771 18.602-24.967.018-.086.016-.166.035-.256 1.09-4.553 2.045-9.865 2.453-15.278-2.215 4.03-4.598 8.014-7.701 11.389-5.396 5.873-13.398 7.389-20.867 5.569z" fill="#ef6200"/><path d="m666.111 724.4c5.678-4.344 11.807-9.057 18.268-13.09 3.164-3.809 6.529-10.449 8.715-17.648-2.951 3.24-6.205 6.078-10.34 8.455-9.402 5.404-22.381 6.125-29.395-3.285-5.143-6.9-5.855-15.285-5.947-23.609-.008-.633.018-1.275.037-1.912-3.676 2.914-6.92 6.154-9.459 9.486 1.578 2.428 2.881 5.098 3.754 8.043 3.275 11.051 2.492 23.631-1.408 35.035 8.689-4.012 17.687-5.418 25.775-1.475z" fill="#ef6200"/><path d="m502.903 506.139c-.011.035-.029.061-.041.094.822.467 1.649.99 2.477 1.541 9.069-12.53 28.044-23.645 45.354-25.088 1.035-4.217 1.459-8.346 1.381-12.232-1.436 1.18-2.869 2.412-4.434 3.547-7.07 5.131-15.863 6.994-24.299 4.891-8.916-2.223-13.583-11.037-17.063-18.664-.77-1.686-1.248-3.619-1.685-5.598-1.065.881-2.114 1.783-3.129 2.699 10.21 13.391 6.147 33.631 1.439 48.81z" fill="#ef6200"/><path d="m621.557 738.367c5.211-6.109 9.391-15.209 11.143-23.998-.027.027-.049.057-.076.082-6.346 6.451-15.9 8.891-24.645 9.334-8.523.434-16.805-2.293-23.143-7.986-3.027-2.719-5.461-6.256-7.184-10.014-2.24 1.297-4.51 2.5-6.766 3.584 1.492 10.607-3.137 22.77-7.984 33.271 15.629-6.836 33.568-5.59 46.834 7.107 3.315-3.575 7.338-7.563 11.821-11.38z" fill="#ef6200"/><path d="m633.389 810.986c-7.016.918-14.162.613-20.098-2.084-.936-.426-1.842-.984-2.732-1.6-3.414 2.83-6.381 5.691-8.748 7.908 1.443 2.924 2.232 6.125 2.174 9.436 7.447-2.348 14.832-5.373 22.094-9.322 2.495-1.357 4.886-2.871 7.31-4.338z" fill="#ef6200"/><path d="m543.961 804.77c-4.904 5.031-10.174 9.336-18.381 9.863-7.994.514-16.469-3.676-21.406-9.865-3.503 1.982-7.028 3.863-10.543 5.623 12.514 6.736 25.557 11.932 38.848 15.355 6.355-4.562 10.755-12.877 11.482-20.976z" fill="#ef6200"/><path d="m679.832 745.221c.648 12.668-6.854 27.256-14.91 39.033-4.109 6.006-2.9 5.908 2.443.926 13.73-12.799 25.992-27.279 36.994-42.598-7.64 3.061-16.273 3.918-24.527 2.639z" fill="#ef6200"/><path d="m661.555 653.592c.883-5.084 1.6-10.959 1.609-16.717-6.873 6.887-14.617 10.537-24.65 10.398-10.563-.143-19.475-6.553-24.787-15.264-1.854-3.039-2.514-6.092-2.611-9.145-1.086.781-2.168 1.563-3.24 2.357 4.463 14.043.268 29.801-2.852 44.85 9.014-2.525 18.482-.445 25.736 4.984 7.654-9.26 18.828-17.446 30.795-21.463z" fill="#ef6200"/><path d="m710.531 555.246c-7.23-1.82-12.773-9.488-15.465-15.996-.092.182-.191.371-.281.553-3.086 6.393-2.627 6.883-.406 12.137 3.582 8.502 5.078 18.17 4.945 27.246 4.172-.615 8.334-.459 12.328.756 3.105.947 5.766 2.219 8.084 3.729 3.416-8.336 7.768-17.471 14.945-22.832.98-4.371 1.676-9.623 1.883-14.963-6.271 7.372-16.648 11.731-26.033 9.37z" fill="#ef6200"/><path d="m508.907 552.459c1.331-6.896 2.265-14.291.965-20.934-.426.443-.827.928-1.171 1.5-5.348 8.906-16.93 9.182-26.126 8.553-1.989-.137-3.653-.539-5.193-1.047 3.017 9.754 2.49 20.992.891 31.082 7.449-6.517 18.69-14.31 30.634-19.154z" fill="#ef6200"/><path d="m584.389 500.191c6.975 12.41 6.9 28.779 2.602 43.018 10.02-3.049 20.447-2.934 30.389 3.627 1.41.932 2.734 1.916 4.002 2.932 6.014-7.512 13.504-14.16 21.951-18.186 1.002-5.727 2.133-13.162 2.121-20.545-.391.543-.744 1.104-1.164 1.633-8.811 11.09-21.906 16.045-35.119 9.5-10.492-5.195-13.984-17.215-14.809-27.965-.061-.813.063-2.414.234-4.387-3.83 2.974-7.289 6.506-10.207 10.373z" fill="#ef6200"/><path d="m728.223 484.707c-4.283.039-8.838-1.664-12.551-4.328 1.496 8.283.852 17.415-.648 25.958 4.271-1.066 8.836-1.193 13.697.07 1.73.447 3.254 1.18 4.693 2.027 2.602-7.219 6.93-14.356 12.465-19.237.945-4.254 1.582-8.506 1.77-12.766-.271.328-.537.656-.824.977-4.774 5.355-11.696 7.232-18.602 7.299z" fill="#ef6200"/><path d="m561.889 416.808c-.059 4.262-.469 8.316-1.283 12.221 5.664-3.643 12.045-6.477 17.439-8.994 7.955-3.709 18.387-6.684 27.037-3.291 1.848-4.613 2.516-10.289 1.67-15.32-6.305 6.697-12.893 12.348-24.207 12.816-12.975.537-16.52-7.293-17.301-16.777-1.992 1.043-3.977 2.105-5.91 3.314 2.07 5.144 2.619 11.31 2.555 16.031z" fill="#ef6200"/><path d="m736.117 680.277c-7.842 2.984-15.078 2.719-20.986-3.607-6.107-6.541-6.717-14.631-6.531-22.871-2.262 2.791-4.303 5.818-6.074 9.191-.07.139-.16.236-.238.363 6.463 10.793 4.049 27.008-1.449 40.107 8.777-2.709 17.912-2.844 27.162 1.895 5.275-9.27 10.262-18.707 15.014-28.268-2.255 1.204-4.548 2.298-6.898 3.19z" fill="#ef6200"/><path d="m646.42 770.479c-10.672 2.289-17.053-5.598-19.779-14.908-.783-2.678-.791-5.293-.479-7.873-3.586 3.439-6.824 7.027-9.658 10.201 7.053 10.826 7.244 21.961 3.197 32.438 9.477-3.889 19.486-5.326 28.852-1.738 4.648-5.994 12.834-17.887 17.482-29.105-5.525 5.057-11.633 9.272-19.615 10.985z" fill="#ef6200"/><path d="m697.514 635.129c-12.352 3.672-20.203-8.113-23.922-17.555-1.266-3.209-1.402-6.426-1.162-9.631-1.371 1.643-2.684 3.354-3.863 5.219 6.838 10.703 6.072 24.771 4.01 38.027 7.518-.727 15.02.461 21.871 4.383.045.023.076.059.119.086 5.852-10.205 15.641-20.779 26.986-26.625.01-.207 0-.404.031-.617 1.117-7.512 1.414-17.395-.807-25.297-3.73 13.861-8.144 27.516-23.263 32.01z" fill="#ef6200"/><path d="m603.158 615.717c6.889-4.963 14.984-10.107 23.463-13.342.002-.008.002-.016.004-.021 1.625-5.791 2.332-11.553 2.17-17.002-4.85 6.531-11.359 10.656-19.023 14.193-5.828-.49-11.377-.209-17.242-2.193-6.922-2.344-12.721-8.082-16.963-13.809-4.73-6.387-6.488-12.732-7.26-19.295-4.916 3.803-6.865 7.779-5.666 14.492 1.52 8.508.854 17.691-.766 26.807 13.234-4.406 27.381-5.221 37.482 5.414 1.467 1.543 2.688 3.139 3.801 4.756z" fill="#ef6200"/><path d="m601.791 379.591c4.152-4.004 8.123-8.123 11.672-12.68.051-1.16.199-2.303.391-3.432-2.006 1.762-4.096 3.432-6.477 4.824-6.52 3.814-15.033.977-17.801-6.17-.438-1.131-.621-2.277-.715-3.432-.426.17-.855.326-1.281.5.008.33.002.67-.051 1.023-1.166 7.746-4.682 14.322-9.361 20.131 8.096-2.369 16.379-3.143 23.623-.764z" fill="#ef6200"/><path d="m476.359 488.255c-8.954-1.531-13.556-10.188-15.355-18.469-1.938 1.576-3.731 3.135-5.274 4.52 8.188 11.26 6.274 26.34 2.631 39.729 11.063-8.535 22.601-13.975 34.654-11.561 1.97-6.383 4.407-14.762 4.683-22.629-5.281 5.699-13.612 9.733-21.339 8.41z" fill="#ef6200"/><path d="m788.209 561.557c-.621-.262-1.252-.559-1.893-.91-5.412-2.955-8.104-7.4-10.172-12.25-1.367 5.295-2.912 10.563-4.553 15.844 3.961 5.605 6.484 12.988 7.811 20.848 3.674-8.851 6.575-16.681 8.807-23.532z" fill="#ef6200"/><path d="m687.629 386.271c-5.754.121-10.535-1.309-15.309-2.969.238 6.408-1.406 13.25-3.855 19.73 9.566-8.025 22.041-13.734 33.645-11.928-.002-2.799.402-5.623.988-8.432-4.703 2.599-10.098 3.486-15.469 3.599z" fill="#ef6200"/><path d="m447.08 467.943c8.939-8.109 23.659-20.225 37.256-19.98 1.528-2.109 2.993-4.299 4.377-6.539-3.159 1.025-6.36 1.506-9.583 1.781-3.475-.418-6.877-1.775-10.299-3.566-8.658 8.875-16.876 18.129-24.488 27.793.93.107 1.845.275 2.731.52.002-.003.004-.007.006-.009z" fill="#ef6200"/><path d="m746.039 556.146c5.699-1.139 11.631-1.105 16.764.971 3.252-10.342 5.688-18.98 6.996-27.045-.258.043-.496.119-.76.152-8.768 1.107-17.732-4.584-22.652-11.438-1.336-1.859-2.559-3.789-3.551-5.816-.51 1.465-.934 2.986-1.201 4.619 5.529 10.751 5.838 26.628 4.404 38.557z" fill="#ef6200"/><path d="m545.424 436.861c.254.164.475.352.723.518.73-1.693 1.467-3.641 2.162-5.717-5.215 1.148-10.373.988-15.885-.527-7.063-1.943-12.822-7.029-16.314-13.311-1.73-3.113-2.246-6.453-2.639-9.809-2.481 1.445-4.809 3.096-6.849 5.025 3.91 10.139-2.35 23.539-8.599 33.459 13.196-10.603 31.799-19.703 47.401-9.638z" fill="#ef6200"/><path d="m520.102 548.947c9.398-2.01 18.615-1.424 26.16 3.848 3.764 2.627 6.771 5.582 9.172 8.775 5.402-4.26 11.49-8.723 17.973-12.389 3.482-6.934 5.803-17.365 5.58-27.332-6.414 9.182-14.787 16.078-27.514 16.488-11.008.355-21.512-5.473-27.043-14.855-3.654-6.197-2.9-12.486-1.205-18.732-3.875 2.797-7.318 6.098-9.912 10.102 7.853 9.572 8.484 21.771 6.789 34.095z" fill="#ef6200"/><path d="m408.09 524.887c2.212 1.576 4.429 3.146 6.648 4.711.181-.146.344-.299.551-.43 9.271-5.871 20.212-11.031 31.003-11.367 1.398-4.299 2.769-8.75 3.663-13.25-2.133 1.584-4.379 3.035-6.961 4.098-8.147 3.348-18.181 1.73-24.932-3.879-2.951 5.738-6.209 12.394-9.972 20.117z" fill="#ef6200"/><path d="m468.505 547.611c-2.314-1.465-4.692-2.826-7.201-3.947-8.79-3.93-17.795-4.848-27.337-4.408-1.543.072-3.205.201-4.902.377 13.066 9.057 26.212 18.004 39.383 26.877.81-6.03 1.149-12.756.057-18.899z" fill="#ef6200"/><path d="m625.143 447.443c-.26-.234-.463-.506-.701-.756.264 7.568-1.146 15.527-3.42 23.01 4.529.232 9.064 1.289 13.488 3.445 2.033.994 3.828 2.129 5.516 3.328 4.791-8.387 11.357-14.965 19.082-19.131 2.635-1.422 3.813-3.816 4.43-6.84-3.922 3.242-8.498 5.73-14.652 6.543-9.165 1.211-17.261-3.703-23.743-9.599z" fill="#ef6200"/><path d="m595.098 633.986c-9.797-7.561-27.316-13.645-40.316-9.271 2.211 1.494 4.426 2.986 6.637 4.484 10.818 7.332 27.305 14.676 35.424 25.143.301.389.561.773.84 1.158 1.227-5.588 2.256-11.545 2.348-17.162-1.541-1.547-3.185-3.002-4.933-4.352z" fill="#ef6200"/><path d="m550.891 391.621c.297-.57.75-1.123 1.398-1.627 4.551-3.533 9.227-7.225 13.309-11.369-2.047 1.029-4.162 1.965-6.379 2.742-6.299 2.213-12.006 2.176-17.475.717-4.744 2.834-9.451 5.742-14.07 8.801 8.33-2.038 16.691-2.233 23.217.736z" fill="#ef6200"/><g><g><path d="m723.533 652.517c4.297-2.601 7.901-5.769 12.635-7.662.16-.063.1-.282-.07-.256-5.232.794-8.948 4.284-12.659 7.795-.065.061.019.169.094.123z" fill="#facb1a"/></g></g><g><g><path d="m659.645 676.743c6.825-4.271 14.186-6.535 22.113-7.658.163-.023.114-.271-.037-.276-8.079-.297-16.167 2.333-22.175 7.806-.069.062.02.177.099.128z" fill="#facb1a"/></g></g><g><g><path d="m612.17 687.626c6.328 3.942 8.982 10.191 10.788 17.169.039.151.287.123.276-.037-.444-6.909-3.771-15.116-11.002-17.282-.09-.028-.14.101-.062.15z" fill="#facb1a"/></g></g><g><g><path d="m569.751 760.635c9.943-3.323 19.57-.641 27.975 5.206.142.099.297-.116.181-.233-7.088-7.075-19.166-10.464-28.203-5.087-.06.035-.021.136.047.114z" fill="#facb1a"/></g></g><g><g><path d="m637.923 748.082c2.304-1.467 4.376-3.202 6.796-4.5 2.662-1.429 5.668-2.229 8.599-2.9.141-.032.098-.229-.032-.238-5.784-.434-11.998 2.873-15.566 7.375-.112.139.029.374.203.263z" fill="#facb1a"/></g></g><g><g><path d="m689.842 726.957c5.026-3.427 10.18-5.979 16.136-7.331.148-.033.105-.245-.034-.253-6.096-.347-12 3.325-16.22 7.431-.078.076.025.217.118.153z" fill="#facb1a"/></g></g><path d="m589.557 816.248c-3.66 2.449-7.49 4.42-12.061 5.814-9.787 2.984-18.764 1.74-27.41-1.879-1.455 2.959-3.18 5.758-5.248 8.242 15.904 2.676 32.041 2.578 47.975-.809 1.412-4.803-.206-8.608-3.256-11.368z" fill="#ef6200"/><g><g><path d="m532.091 792.918c2.451 3.75 2.054 7.296 2.046 11.537 0 .134.199.201.262.071 1.876-3.877.933-8.743-2.16-11.722-.076-.072-.208.023-.148.114z" fill="#facb1a"/></g></g><g><g><path d="m600.511 768.063c1.081 1.041 1.803 2.396 2.842 3.475.087.09.217-.005.196-.114-.296-1.587-1.406-2.915-2.839-3.618-.162-.079-.34.122-.199.257z" fill="#facb1a"/></g></g><g><g><path d="m622.805 625.479c7.578-6.275 18.35-7.896 27.638-4.851.14.046.226-.165.1-.235-8.603-4.805-21.571-2.845-27.858 4.965-.071.085.034.192.12.121z" fill="#facb1a"/></g></g><g><g><path d="m690.193 603.738c5.65-3.502 11.361-4.522 17.855-5.217.138-.015.193-.229.035-.261-6.096-1.21-13.467 1.178-18.009 5.324-.081.076.026.213.119.154z" fill="#facb1a"/></g></g><g><g><path d="m683.176 608.949c1.195-1.594 3.242-2.782 4.914-3.805.079-.049.056-.203-.051-.189-1.064.14-1.927.377-2.785 1.066-1.05.844-1.584 1.705-2.18 2.869-.035.069.057.119.102.059z" fill="#facb1a"/></g></g><g><g><path d="m750.398 571.827c7.38 5.606 9.069 15.189 10.452 23.816.025.16.261.109.269-.036.274-4.994-.753-9.832-2.598-14.47-1.524-3.833-4.02-7.952-8.042-9.503-.122-.046-.167.128-.081.193z" fill="#facb1a"/></g></g><g><g><path d="m648.035 548.596c8.256-2.65 18.425-1.57 25.163 4.251.11.095.313-.034.215-.166-5.358-7.174-17.913-8.704-25.423-4.192-.056.033-.019.127.045.107z" fill="#facb1a"/></g></g><g><g><path d="m676.743 556.325c1.146 1.082 1.824 2.611 2.779 3.851.068.09.227.043.192-.081-.477-1.73-1.354-2.94-2.863-3.91-.085-.056-.182.071-.108.14z" fill="#facb1a"/></g></g><g><g><path d="m706.339 535.574c4.28-6.05 10.6-9.873 17.895-11.126.157-.027.112-.264-.036-.269-7.266-.228-15.351 4.38-17.951 11.355-.022.059.061.084.092.04z" fill="#facb1a"/></g></g><g><g><path d="m758.201 502.598c5.22 4.517 5.197 11.869 4.479 18.207-.018.158.213.166.261.035 2.125-5.789 1.523-15.191-4.659-18.347-.064-.032-.14.053-.081.105z" fill="#facb1a"/></g></g><g><g><path d="m775.855 476.976c4.744-3.757 11.77-3.927 17.47-2.751.118.024.212-.154.088-.207-5.446-2.323-13.755-2.245-17.675 2.869-.055.071.057.136.117.089z" fill="#facb1a"/></g></g><g><g><path d="m667.031 477.018c8.417-4.967 21.834-4.774 28.293 3.506.09.116.262-.032.195-.151-4.955-9.03-21.396-10.763-28.62-3.526-.087.087.025.235.132.171z" fill="#facb1a"/></g></g><g><g><path d="m606.267 491.399c8.13-3.209 19.633-2.327 24.445 5.948.072.125.244.036.222-.094-1.654-9.277-18.527-11.296-24.75-5.998-.065.055.004.175.083.144z" fill="#facb1a"/></g></g><g><g><path d="m633.913 500.509c1.241 1.039 1.491 2.408 2.003 3.842.057.159.278.168.332 0 .251-.794.088-1.523-.291-2.25-.426-.814-1.222-1.231-1.936-1.732-.083-.059-.186.074-.108.14z" fill="#facb1a"/></g></g><g><g><path d="m530.1 510.331c4.25-2.153 8.452-4.088 13.108-5.198 4.804-1.146 10.019-1.401 14.94-1.043.157.012.182-.229.036-.269-9.224-2.524-20.855.175-28.165 6.405-.06.051.017.137.081.105z" fill="#facb1a"/></g></g><g><g><path d="m563.414 504.732c1.696-.036 3.287.658 4.88 1.11.107.03.227-.101.154-.201-1.124-1.563-3.394-1.769-5.071-1.048-.07.031-.032.141.037.139z" fill="#facb1a"/></g></g><g><g><path d="m513.942 570.748c8.328-1.647 17.093-4.409 24.828.729.113.075.278-.078.192-.192-5.35-7.075-18.396-4.111-25.096-.714-.103.052-.027.198.076.177z" fill="#facb1a"/></g></g><g><g><path d="m541.955 574.563c1.551 1.387 2.747 3.154 3.811 4.927.071.118.224.033.207-.088-.319-2.314-1.814-4.073-3.953-4.95-.063-.026-.113.069-.065.111z" fill="#facb1a"/></g></g><g><g><path d="m581.344 564.776c5.454-1.915 10.689-2.868 16.493-2.247 6.045.646 11.934 3.17 16.764 6.839.134.101.256-.104.166-.215-3.953-4.872-9.996-6.993-16.073-7.815-5.615-.76-12.729-.262-17.422 3.267-.08.058-.038.209.072.171z" fill="#facb1a"/></g></g><g><g><path d="m477.075 520.171c3.417-.925 6.653-1.227 10.136-.45 3.608.805 6.907 3.128 9.758 5.394.11.088.315-.031.215-.166-4.499-6.015-13.395-8.898-20.163-4.905-.069.039-.023.148.054.127z" fill="#facb1a"/></g></g><g><g><path d="m471.517 471.735c4.426-3.874 10.365-2.525 15.721-2.415.138.003.164-.202.032-.238-5.261-1.444-12.227-2.515-15.924 2.521-.078.105.083.209.171.132z" fill="#facb1a"/></g></g><g><g><path d="m516.749 453.836c9.11-2.272 18.019-.308 25.537 5.294.121.09.256-.101.156-.203-6.629-6.777-16.977-9.115-25.759-5.249-.092.042-.025.181.066.158z" fill="#facb1a"/></g></g><g><g><path d="m573.643 442.952c4.742-2.216 9.14-4.573 14.333-5.612 5.377-1.076 11.254-.462 16.482 1.076.121.036.205-.151.088-.207-9.832-4.692-22.781-2.635-31.017 4.596-.085.074.024.189.114.147z" fill="#facb1a"/></g></g><g><g><path d="m630.467 429.636c4.959-.649 9.191-.887 14.016.783 4.791 1.659 8.876 4.944 12.221 8.684.103.115.281-.032.208-.161-2.553-4.475-6.785-7.37-11.5-9.247-4.399-1.751-10.659-2.623-14.997-.256-.088.048-.056.211.052.197z" fill="#facb1a"/></g></g><g><g><path d="m681.768 415.92c7.911-5.524 18.104-5.309 26.216-.321.132.081.248-.096.156-.203-6.121-7.139-20.251-6.134-26.485.376-.072.076.023.211.113.148z" fill="#facb1a"/></g></g><g><g><path d="m721.763 379.063c9.04-1.224 16.389 3.724 20.936 11.21.072.119.254.041.222-.093-2.143-8.691-12.893-13.96-21.202-11.283-.111.035-.063.18.044.166z" fill="#facb1a"/></g></g><g><g><path d="m632.18 383.267c2.917 1.506 6.436 1.358 9.607.993 3.32-.383 6.594-1.187 9.142-3.424.134-.118-.037-.286-.176-.227-5.712 2.449-12.362 3.457-18.508 2.501-.089-.014-.159.109-.065.157z" fill="#facb1a"/></g></g><g><g><path d="m576.43 399.781c6.058-2.299 12.232-2.696 18.545-1.365.15.032.227-.157.103-.243-5.153-3.565-13.738-1.495-18.72 1.436-.09.054-.031.211.072.172z" fill="#facb1a"/></g></g><g><g><path d="m521.698 412.078c6.186-3.047 12.834-3.405 19.601-2.748.188.018.207-.262.043-.314-6.272-2.029-14.482-1.342-19.781 2.885-.107.084.029.23.137.177z" fill="#facb1a"/></g></g><g><g><path d="m490.33 424.927c-1.918 3.431-3.846 7.114-4.98 10.886-.044.148.176.242.25.105 1.834-3.391 4.425-7.029 4.876-10.952.008-.079-.111-.103-.146-.039z" fill="#facb1a"/></g></g><g><g><path d="m438.386 483.336c5.646 3.337 6.25 11.926 6.597 17.811.008.138.228.185.253.034.626-3.651.266-7.196-.763-10.744-.861-2.97-2.603-6.74-6.003-7.3-.117-.02-.198.133-.084.199z" fill="#facb1a"/></g></g><g><g><path d="m597.492 361.166c4.5-1.306 8.806-3.245 13.038-5.231.158-.075.039-.292-.111-.264-4.673.84-8.896 3.002-12.999 5.324-.093.052-.03.201.072.171z" fill="#facb1a"/></g></g><g><g><path d="m714.051 460.132c3.813-2.287 7.91-4.118 11.978-5.899.159-.07.042-.309-.114-.271-4.428 1.064-8.888 2.469-11.948 6.06-.051.059.012.154.084.11z" fill="#facb1a"/></g></g><g><g><path d="m774.75 450.656c3.335-.2 6.52.358 9.828.424.134.002.18-.181.067-.248-3.072-1.808-6.651-1.35-9.912-.299-.064.021-.056.127.017.123z" fill="#facb1a"/></g></g><g><g><path d="m787.309 532.037c-.006 1.781.287 3.534.232 5.325-.068 2.198-.684 4.483-1.347 6.574-.051.161.179.246.265.111 2.078-3.272 2.881-8.503.995-12.05-.037-.069-.145-.036-.145.04z" fill="#facb1a"/></g></g><g><g><path d="m739.994 644.164c1.399-.14 2.808-.063 4.211-.035.1.002.15-.151.053-.196-1.328-.613-3.012-.725-4.335-.03-.119.062-.069.275.071.261z" fill="#facb1a"/></g></g><g><g><path d="m623.72 708.311c.582 1.349-.014 2.832.291 4.205.021.097.169.145.235.063 1.001-1.256.538-3.228-.386-4.376-.069-.088-.177.023-.14.108z" fill="#facb1a"/></g></g><g><g><path d="m653 680.951c.546-.448 1.264-.805 1.857-1.199.785-.521 1.564-1.05 2.349-1.574.112-.075.04-.24-.091-.215-.989.196-1.81.569-2.64 1.136-.705.479-1.08 1.1-1.608 1.72-.079.092.039.208.133.132z" fill="#facb1a"/></g></g><path d="m396.28 671.32c-.048-.359-.535-.268-.634 0-6.249 16.707-4.579 39.584.51 56.395.171.566 1.035.463 1.035-.141-.004-9.369-.362-18.719-.578-28.084-.214-9.324.926-18.927-.333-28.17z" fill="#68182b"/><path d="m439.192 695.359c1.473 5.834 4.146 11.422 6.142 17.098 2.347 6.672 3.789 13.563 6.338 20.16.154.398.816.506.921 0 2.424-11.92-4.552-28.953-12.878-37.561-.223-.23-.597.007-.523.303z" fill="#68182b"/><path d="m457.33 721.09c-.197-.334-.67-.104-.601.254.389 2.014.119 4.311.399 6.381.329 2.422.673 4.176 1.627 6.402.177.412.714.205.841-.111.918-2.268 1.011-3.85.663-6.295-.391-2.741-1.592-4.367-2.929-6.631z" fill="#68182b"/><path d="m222.22 655.406c-10.784 7.998-19.896 16.943-27.97 27.715-8.863 11.828-18.881 25.893-21.283 40.826-.078.48.53.791.813.34 6.898-11.125 12.759-22.551 20.52-33.176 8.77-12.008 18.661-23.727 28.699-34.697.468-.514-.169-1.459-.779-1.008z" fill="#68182b"/><path d="m256.689 641.094c-.13-.533-.864-.371-.905.123-1.016 12.121-1.465 24.033-3.271 36.109-1.46 9.771-3.328 19.268-2.445 29.186.058.639.874.75 1.099.148 7.052-18.955 10.319-45.812 5.522-65.566z" fill="#68182b"/><path d="m267.194 676.742c1.436-1.717 1.175-3.996 1.154-6.111-.025-2.6-.288-5.305-1.225-7.744-.132-.344-.567-.344-.699 0-.936 2.439-1.199 5.145-1.224 7.744-.021 2.115-.282 4.395 1.154 6.111.196.233.645.233.84 0z" fill="#68182b"/><path d="m144.867 677.463c12.498-8.891 24.515-17.746 37.984-25.197 14.454-7.992 30.221-13.656 44.229-22.434.642-.4.209-1.301-.494-1.172-16.449 3.023-31.893 11.031-46.345 19.141-13.104 7.35-27.27 16.521-36.071 28.965-.293.412.286.99.697.697z" fill="#68182b"/><path d="m237.631 630.23c-2.322 1.271-3.561 3.008-4.784 5.234-.132.24.127.477.361.359 3.711-1.836 9.108-2.621 11.583-6.264.212-.311-.01-.715-.335-.82-2.42-.784-4.727.341-6.825 1.491z" fill="#68182b"/><path d="m436.166 647.924c-.354-.234-.714.277-.438.568 7.9 8.371 16.029 16.428 23.522 25.184 7.448 8.701 13.348 18.639 21.294 26.889.374.389 1.006-.012.881-.512-5.369-21.283-27.716-40.424-45.259-52.129z" fill="#68182b"/><path d="m474.001 674.537c-.362-.096-.582.273-.446.58.948 2.133 2.248 4.076 3.396 6.109 1.342 2.369 2.495 4.611 4.38 6.619.236.254.722.066.701-.291-.276-4.749-2.884-11.681-8.031-13.017z" fill="#68182b"/><path d="m368.352 686.016c-5.292 8.994-7.185 20.119-9.188 30.246-2.367 11.98-3.862 23.713-2.359 35.885.068.551.967.805 1.068.145 1.761-11.635 3.219-23.336 5.354-34.908 1.899-10.285 5.443-20.742 5.618-31.232.003-.267-.361-.357-.493-.136z" fill="#68182b"/><path d="m369.54 739.389c-2.097 5.578-3.482 11.662-.613 17.18.199.385.747.176.768-.209.304-5.604 1.116-11.232.75-16.85-.035-.533-.723-.61-.905-.121z" fill="#68182b"/><path d="m416.756 734.521c-2.238 13.01-1.925 28.408 2.553 40.939.218.607.987.455 1.067-.145 1.759-13.111-.64-27.838-3.081-40.795-.049-.264-.494-.27-.539.001z" fill="#68182b"/><path d="m485.795 725.197c3.857 6.496 7.07 13.438 12.337 18.861.342.352.907-.01.798-.465-1.81-7.434-5.845-14.42-11.792-19.434-.715-.6-1.865.159-1.343 1.038z" fill="#68182b"/><path d="m238.596 525.02c-.366.123-.329.756.097.711 13.514-1.41 26.934-3.502 40.458-4.857 13.638-1.369 27.345-1.293 40.984-2.635.617-.063.862-1.029.158-1.166-25.831-4.934-56.903-.346-81.697 7.947z" fill="#68182b"/><path d="m314.518 530.172c5.325.615 11.212-.873 15.663-3.732.36-.232.217-.781-.216-.797-5.197-.191-11.416.137-15.746 3.424-.483.369-.307 1.035.299 1.105z" fill="#68182b"/><path d="m336.435 556.516c7.718-5.148 16.425-9.285 20.063-18.357.238-.594-.572-.879-.963-.559-7.021 5.754-14.21 10.998-19.506 18.51-.172.244.163.568.406.406z" fill="#68182b"/><path d="m358.154 545.408c1.524-.631 2.999-1.229 4.312-2.248 1.857-1.445 2.207-2.957 3.001-5.045.126-.33-.318-.664-.604-.465-1.438 1.008-2.902 1.518-4.252 2.705-1.322 1.164-2.209 2.889-2.902 4.473-.119.27.083.731.445.58z" fill="#68182b"/><path d="m460.17 598.506c6.874 6.213 13.522 14.486 21.728 18.859.8.428 1.467-.398 1.147-1.146-3.358-7.914-11.191-13.512-17.509-19.035-7.08-6.193-14.834-12.75-23.128-17.236-.175-.094-.424.109-.292.295 4.939 6.978 11.742 12.558 18.054 18.263z" fill="#68182b"/><path d="m481.388 607.209c.333.227.8-.146.677-.52-1.355-4.121-3.814-7.342-8.086-8.605-.264-.078-.49.227-.352.461.973 1.643 1.886 3.096 3.079 4.609 1.356 1.721 2.898 2.846 4.682 4.055z" fill="#68182b"/><path d="m256.804 471.984c13.281 7.545 25.673 16.525 39.17 23.689.604.322 1.103-.408.698-.904-9.904-12.158-23.447-20.178-37.126-27.477-13.128-7.004-27.833-13.932-42.512-16.744-.438-.084-.746.518-.316.754 13.183 7.233 26.977 13.237 40.086 20.682z" fill="#68182b"/><path d="m299.118 485.742c1.889 2.018 3.507 3.729 6.008 4.975.323.16.834-.025.792-.453-.528-5.461-6.162-9.305-10.931-10.994-.398-.139-.752.361-.538.703 1.343 2.148 2.925 3.909 4.669 5.769z" fill="#68182b"/><path d="m227.188 699.334c-5.891 9.766-7.755 22.641-7.847 33.859-.005.471.625.504.775.104 3.947-10.424 7.125-22.611 7.653-33.805.016-.322-.427-.416-.581-.158z" fill="#68182b"/><path d="m410.199 652.59c2.685 11.102 5.342 22.629 9.941 33.092.183.422.889.209.857-.232-.775-11.455-3.219-23.635-9.836-33.266-.332-.489-1.106-.194-.962.406z" fill="#68182b"/><path d="m154.966 702.703c-7.499 4.344-14.402 13.904-14.295 22.766.004.346.48.605.729.303 2.794-3.395 4.771-7.098 6.911-10.926 2.23-3.986 4.951-7.65 7.128-11.67.163-.303-.166-.651-.473-.473z" fill="#68182b"/><path d="m202.71 735.826c-5.227 6.688-5.751 16.592-5.854 24.748-.005.393.582.584.767.209 3.622-7.391 5.552-16.521 5.509-24.783 0-.195-.282-.352-.422-.174z" fill="#68182b"/><path d="m787.209 298.732c5.195-13.09 5.494-29.68 1.277-43.08-.137-.428-.84-.371-.809.107.953 14.52-1.295 28.398-1.537 42.828-.009.655.854.684 1.069.145z" fill="#68182b"/><path d="m819.836 311.029c-.225.188.016.533.271.467 7.254-1.938 14.238-4.35 21.66-5.654 7.398-1.303 14.949-1.193 22.262-2.977.406-.102.414-.732 0-.828-13.461-3.057-33.398-.03-44.193 8.992z" fill="#68182b"/><path d="m870.055 301.437c-1.148-.055-2.561.471-2.867 1.648-.021.086 0 .18.063.242 1.49 1.441 4.762.885 6.607.59.346-.057.377-.5.189-.717-1.149-1.333-2.248-1.681-3.992-1.763z" fill="#68182b"/></g></g></svg>