<svg id="Fruit" height="512" viewBox="0 0 992.13 992.13" width="512" xmlns="http://www.w3.org/2000/svg"><g><path d="m102.585 511.99c.567.596 1.149 1.186 1.746 1.77-2.026 79.074 58.483 147.393 120.003 173.189 35.189 14.758 77.313 22.561 121.81 22.561h.007c30.138 0 60.381-3.592 88.524-10.455 6.175 9.375 12.918 18.299 20.156 26.674 42.514 49.189 107.213 79.549 177.51 83.291 5.289.283 10.695.426 16.07.426 51.055 0 104.145-12.762 149.488-35.932 49.168-25.117 82.443-55.502 101.727-92.889 20.502-39.748 23.299-89.809 7.873-140.955-31.301-103.805-123.91-193.868-230.451-224.11-.164-.045-.33-.09-.498-.135-24.797-6.461-50.395-9.877-74.025-9.877-5.627 0-11.186.191-16.639.57-46.176-76.549-136.309-123.434-239.512-123.434-5.076 0-10.219.119-15.287.354-90.144 4.158-193.518 55.014-216.103 156.871-9.096 4.402-19.368 11.076-26.895 20.84-19.777 25.664-12.984 49.318-8.022 66.592 1.911 6.652 3.715 12.934 4.032 18.955.098 1.855-.41 4.535-.996 7.637-1.376 7.279-3.263 17.25.145 29.111 3.589 12.496 12.66 21.971 18.662 28.241z" fill="#fff"/><g><path d="m884.635 546.564c-29.184-96.786-117.645-180.649-214.105-208.028-30.898-8.051-65.684-11.756-97.844-6.994-44.943-88.785-144.739-129.063-240.498-124.646-89.393 4.123-182.507 55.51-196.08 150.246-11.544 3.676-22.816 10.031-29.1 18.186-18.535 24.051-.451 43.266.941 69.715.593 11.281-4.912 20.385-1.746 31.41 2.057 7.162 8.696 13.854 13.658 19.047 2.592 2.715 5.699 5.334 9.122 7.729-7.731 67.789 43.698 136.164 104.588 161.697 63.42 26.598 146.747 26.291 212.14 6.357 7.726 13.773 16.807 26.816 27.188 38.828 40.36 46.695 99.815 71.816 160.713 75.061 51.094 2.721 106.266-8.83 153.424-32.928 42.982-21.957 73.83-48.57 91.365-82.568 19.443-37.692 18.193-83.457 6.234-123.112z" fill="#68182b"/><path d="m249.348 659.736c-61.193-19.527-114.391-85.01-110.347-150.678 9.863 4.66 20.932 6.945 30.616 4.396 12.693-3.338 8.598-.191 3.215 9.086-4.102 7.07-8.98 16.639-8.893 24.99.193 17.92 7.296 42.121 23.899 52.066 7.459 4.469 25.262 5.264 29.997 11.068 7.683 9.418 14.419 16.563 25.574 21.629 7.651 3.475 15.388 2.342 23.063.057 10.976-3.266 4.44-7.287 22.289-6.916 5.119.105 11.022.885 15.875-1.295 16.665-7.488 30.632-31.145 38.309-46.986 3.602-7.43 1.843-15.797.123-23.389-3.68-16.25-5.288-7.77 10.188-7.486 16.523.303 38.56-2.791 47.871-18.783 5.083-8.723 6.706-17.021 6.819-27.053.203-18.061-2.532-33.487.95-51.735 2.127-11.137-.072-31.357-14.115-34.695-10.772-2.557-22.649.727-32.183-6.188-2.637-1.91-6.327-3.668-9.408-4.713-16.761-5.678-3.857-22.438-3.162-30.805 2.497-30.021-17.189-59.686-46.084-68.623-49.987-15.461-98.182 10.541-109.697 49.852-2.976 10.162-4.459 13.363-13.479 6.693-7.436-5.498-15.043-6.641-24.079-6.625-3.017.006-6.271.305-9.632.867 14.774-90.678 107.599-133.469 191.711-137.348 88.502-4.082 180.591 36.398 223.062 116.4-40.879 8.758-69.667 37.418-92.269 69.275-29.719 41.895-49.317 89.824-52.932 142.346-2.312 33.605 3.355 67.07 15.644 97.971 7.545 18.961-9.912 24.428-34.772 28.006-49.403 7.103-102.313 3.247-148.153-11.384z" fill="#ff801d"/><path d="m638.734 774.805c-59-.674-115.123-25.959-155.377-68.799-39.327-41.85-57.997-99.223-56.426-156.031 1.004-36.359 11.333-70.997 27.707-102.788 8.421-16.355 8.995-7.57 7.896 4.992-6.103 69.639 31.239 139.042 75.985 191.756 56.809 66.928 132.842 110.363 221.047 101.273 10.238-1.055 13.93 2.262-1.246 8.203-38.076 14.903-79.713 21.853-119.586 21.394z" fill="#ff801d"/><path d="m843.154 699.469c-42.205 40.547-111.332 42.877-164.936 29.822-44.926-10.941-84.418-43.15-116.191-75.277-36.369-36.775-65.818-81.99-81.363-131.475-12.866-40.967-11.869-87.52 8.681-125.573 15.848-29.367 61.514-60.025 122.249-57.66 19.012.74 37.777 4.604 56.133 9.383 95.773 27.188 179.402 109.971 208.17 205.377 15.21 50.44 6.06 108.129-32.743 145.403z" fill="#ff8e5b"/><path d="m396.221 458.691c3.229-15.852 3.797-35.281-19.403-35.414-3.661-.021-9.808.406-13.063-1.826-6.786-4.656-18.803-7.256-24.137-12.885-7.473-7.891-9.32-15.152-5.009-25.439 9.114-21.74 3.02-44.074-15.174-59.244-32.348-26.971-95.798-12.271-112.034 24.176-3.494 7.848-4.122 20.365-10.643 26.887-8.861 8.861-16.892-4.584-24.364-7.879-20.056-8.85-73.217 7.227-63.8 37.865 4.027 13.1 10.667 25.99 9.887 40.111-.458 8.283-4.973 24.672-.688 31.158 4.57 6.92 10.091 13.734 17.251 18.188 17.102 10.639 28.021 8.469 46.716 4.321 15.067-3.346 11.368 9.836 2.865 24.496-10.614 18.295-13.855 38.303-.852 56.717 7.428 10.518 16.051 13.145 28.053 15.113 5.542.91 5.091.672 9.542 3.869 18.202 13.084 21.055 34.289 51.695 17.822 15.192-8.166 28.917 4.309 41.084-14.947 11.506-18.215 28.038-32.41 12.846-56.24-9.917-15.561-1.773-17.662 6.685-16.061 9.215 1.736 15.651 7.164 25.749 6.383 14.635-1.133 34.512-5.658 37.16-23.762 2.621-17.909-4.003-35.559-.366-53.409zm-17.968 15.549c-17.994-7.691-34.296-13.549-53.902-12.268-2.265 16.342-10.302 31.934-23.834 43.604-14.668 12.646-38.403 14.572-57.872 7.531-8.83 16.217-9.89 32.902-9.651 51.406.004.404-.612.611-.798.215-8.179-17.67-3.291-37.184 4.182-54.254-9.396-4.605-17.295-11.508-21.891-20.504-5.035-9.859-7.676-21.617-7.802-33.523-25.228-7.297-53.836-23.949-60.78-50.879-.072-.279.32-.563.524-.305 8.824 11.291 16.927 22.195 29.196 30.139 9.75 6.313 20.246 10.736 31.321 13.891 2.544-33.971 32.446-57.787 63.128-57.418 2.651-19.434 8.231-39.957 21.75-54.563.229-.244.699.008.578.338-6.84 18.369-13.169 35.254-15.234 54.686 12.137 1.355 23.412 5.873 30.879 14.602 12.124 14.176 17.555 31.355 16.906 48.201 18.383.471 41.941 3.416 53.719 18.559.247.315-.048.7-.419.542z" fill="#aa8053"/><path d="m286.623 405.626c1.966.57 3.787 1.293 5.522 2.102-8.456-.955-17.387.258-23.369 2.826-10.699 4.596-19.4 12.096-25.439 22.057-7.485 12.35-5.598 24.914-.811 37.801.22.59 1.209.553 1.164-.156-1.396-22.035 4.416-40.922 24.747-51.869 7.606-4.092 16.659-5.578 25.107-3.83 15.378 3.176 20.322 18.285 20.633 32.52.391 17.748-6.191 36.582-16.626 47.188-24.427 24.836-67.281 10.178-78.419-19.66-15.26-40.875 19.107-83.047 67.491-68.979z" fill="#fac135"/><path d="m314.177 447.076c-.311-14.234-5.255-29.344-20.633-32.52-5.611-1.16-11.48-.867-17.023.641-11.563 6.736-20.456 21.074-21.458 32.705-1.816 21.117 9.904 46.641 33.391 49.221 1.892.207 3.771.234 5.638.18 1.175-.965 2.355-1.917 3.46-3.04 10.434-10.605 17.016-29.439 16.625-47.187z" fill="#ee9e2b"/><path d="m231.508 487.816c-6.64-12.244-8.187-27.67-5.638-41.184 2.162-11.471 8.81-21.322 17.219-29.15 8.872-8.262 19.325-11.359 30.34-14.377-41.19-3.66-68.128 34.453-54.297 71.498 3.933 10.533 11.856 19.113 21.488 24.795-3.44-3.387-6.639-7.025-9.112-11.582z" fill="#fbe134"/><path d="m875.896 554.066c-10.391-34.453-27.961-67.241-50.646-96.377 10.791 19.461 19.869 39.881 26.939 61.075 16.469 49.355 19.006 106.275-16.943 147.789-38.635 44.617-99.826 56.346-155.379 43.65-53.586-12.248-100.086-46.217-134.365-88.346-32.248-39.631-53.726-88.299-61.188-138.811-3.806-25.756-4.081-53.699 1.845-79.727-17.406 36.807-17.652 80.502-5.494 119.219 15.545 49.484 44.994 94.699 81.363 131.475 31.773 32.127 71.266 64.336 116.191 75.277 53.604 13.055 122.73 10.725 164.936-29.822 38.802-37.273 47.952-94.962 32.741-145.402z" fill="#ff564d"/><path d="m730.285 539.574c-13.785-2.592-25.051-4.557-17.479-12.391 10.75-11.115 8.576-11.115-1.063-9.955-3.445.414-6.9-.639-10.248-1.674-6.982-2.156-7.98-7.146-8.291-12.676-.777-13.731-1.258-8.176-7.275-1.572-2.484 2.723-5.537 4.752-9.865 5.697-2.785.609-5.838-.197-8.846-1.48-7.211-3.08-10.523-5.389-6.1 3.982 1.424 3.016 2.504 6.158 2.748 9.504.313 4.293-2.633 6.738-6.418 8.322-16.383 6.865-7.033 4.869-.576 6.459 7.531 1.855 8.895 9.475 9.01 15.934.078 4.438-.779 8.836-1.813 13.205-2.367 10.021-3.193 14.008 4.902 3.266 3.336-4.434 6.699-8.586 13.477-9.219 5.701-.531 11.354 2.543 16.303 6.318 7.988 6.086 11.199 9.477 8.051-3.252-1.721-6.963 4.896-9.924 9.953-11.805 4.426-1.645 9.195-2.611 13.945-3.51 12.696-2.385 6.259-3.897-.415-5.153z" fill="#fbc471"/><path d="m775.469 498.986c-10.33-.07-23.914 2.881-32.068 9.5-.191.156-.041.537.209.506 5.139-.635 10.137-2.078 15.18-3.221 5.885-1.334 11.793-2.576 16.928-5.865.407-.261.255-.916-.249-.92z" fill="#fbc471"/><path d="m771.721 505.475c-.266.246-.115.666.201.77 1.615.525 3.895.441 4.791-1.232.146-.273.049-.545-.189-.721-1.571-1.153-3.588.038-4.803 1.183z" fill="#fbc471"/><path d="m706.217 426.212c-4.213 14.248-10.389 29.061-10.822 44.043-.014.527.811.801 1.043.281 6.078-13.611 10.404-29.27 10.328-44.252-.002-.318-.461-.374-.549-.072z" fill="#fbc471"/><path d="m703.902 464.074c-1.201 1.572-2.996 3.041-2.32 5.246.066.215.314.398.545.311 2.311-.887 2.213-3.352 2.236-5.432.004-.27-.32-.307-.461-.125z" fill="#fbc471"/><path d="m643.295 491.773c.375.283.904-.184.773-.596-5.92-18.514-23.102-32.795-34.994-47.52-.287-.354-.771.098-.596.459 4.648 9.475 10.967 17.355 17.236 25.764 5.632 7.555 9.95 16.131 17.581 21.893z" fill="#fbc471"/><path d="m643.758 478.154c-.146 3.295.795 7.488 3.783 9.348.232.146.629.02.676-.273.543-3.418-1.789-6.816-3.898-9.307-.198-.235-.549-.032-.561.232z" fill="#fbc471"/><path d="m630.75 527.389c.586-.076.719-.816.139-1.033-16.373-6.145-35.664-5.93-52.887-7.293-.498-.039-.561.703-.113.842 16.22 4.976 35.757 9.716 52.861 7.484z" fill="#fbc471"/><path d="m626.84 531.902c-.176.074-.17.377 0 .453 2.512 1.143 5.438 2.023 7.83.098.232-.186.148-.59-.092-.723-2.51-1.375-5.256-.902-7.738.172z" fill="#fbc471"/><path d="m638.848 556.32c.289-.303.002-.781-.398-.688-7.326 1.713-13.824 6.047-20.332 9.668-8.84 4.918-17.211 10.445-25.324 16.482-.434.324-.068 1.004.432.74 8.902-4.709 17.83-9.363 26.699-14.135 6.542-3.518 13.747-6.592 18.923-12.067z" fill="#fbc471"/><path d="m663.795 590.496c-3.164 9.609-5.109 19.574-7.313 29.439-2.246 10.063-5.168 19.834-5.945 30.146-.049.654.93.896 1.227.334 9.012-17.191 12.932-40.488 12.646-59.838-.006-.36-.504-.413-.615-.081z" fill="#fbc471"/><path d="m667.455 609.08c-1.979 2.844-2.453 7.352-.916 10.463.162.328.582.307.826.107 2.969-2.426 1.926-7.316.781-10.479-.113-.316-.498-.368-.691-.091z" fill="#fbc471"/><path d="m724.469 586.43c-.193-.148-.418.129-.314.314 9.248 16.578 20.893 34.668 35.301 47.193.422.365 1.305.023 1.045-.609-7.003-17.066-21.376-35.64-36.032-46.898z" fill="#fbc471"/><path d="m748.877 601.143c.139.006.309-.084.369-.211 1.705-3.59-3.635-6.885-6.689-7.078-.174-.01-.324.188-.27.354.916 2.7 3.479 6.792 6.59 6.935z" fill="#fbc471"/><path d="m766.254 549.637c-.453.059-.527.602-.105.775 6.146 2.576 12.775 3.309 19.338 4.215 6.75.934 13.41 2.822 20.26 2.301.6-.047.752-.729.291-1.074-9.725-7.278-28.214-7.7-39.784-6.217z" fill="#fbc471"/><path d="m773.787 565.201c-.338.094-.346.51-.09.691 4.232 3.035 9.84 4.541 14.777 2.688.279-.105.441-.57.094-.723-4.517-1.97-9.759-4.025-14.781-2.656z" fill="#fbc471"/><path d="m645.021 606.678c-3.563 5.127-8.072 11.637-7.73 18.129.02.396.514.656.814.336 4.332-4.615 7.615-11.855 7.742-18.24.01-.469-.587-.569-.826-.225z" fill="#fbc471"/><path d="m625.119 588.793c-5.424 2.65-12.191 7.627-13.703 13.818-.066.273.203.434.436.334 2.867-1.238 5.029-3.451 7.326-5.52 2.578-2.324 4.807-4.967 6.686-7.891.314-.487-.288-.966-.745-.741z" fill="#fbc471"/><path d="m738.625 488.949c-.01.166.162.271.313.238 3.857-.873 7.594-3.963 11.014-5.916 3.467-1.979 6.76-4.492 9.135-7.74.355-.482-.303-.947-.742-.742-4.234 1.98-8.59 3.541-12.611 5.963-2.986 1.8-6.929 4.382-7.109 8.197z" fill="#fbc471"/><path d="m654.355 444.716c-.316 6.094.42 12.252 2.451 18.027.15.426.748.447.889 0 1.975-6.287-.352-12.379-2.85-18.162-.111-.257-.478-.101-.49.135z" fill="#fbc471"/><path d="m592.086 502.34c5.941 2.859 12.207 8.389 19.09 8.463.506.006.635-.561.373-.9-4.281-5.533-12.791-7.098-19.26-8.041-.269-.044-.496.337-.203.478z" fill="#fbc471"/><path d="m594.584 562.402c-.207.18-.104.58.168.631 5.365 1.023 10.607-1.096 15.324-3.416.381-.189.199-.814-.217-.799-5.191.219-11.074-.043-15.275 3.584z" fill="#fbc471"/><path d="m785.328 534.398c.475-.176.393-.83-.119-.871-6.736-.533-15.018-3.164-20.838 1.721-.268.225-.086.615.189.717 6.747 2.453 14.309.844 20.768-1.567z" fill="#fbc471"/><path d="m324.351 461.972c-.405 2.926-1.062 5.816-1.837 8.678 1.785-.477 3.575-.951 5.418-1.33 8.062-1.66 20.633-3.426 31.35-2.396-11.162-3.647-22.369-5.774-34.931-4.952z" fill="#865725"/><path d="m160.952 466.076c.53.059.676-.631.395-.955-3.536-4.102-8.006-6.359-12.223-9.705-4.461-3.537-7.874-7.877-11.506-12.201-.146-.174-.47-.037-.451.186.886 10.766 13.524 21.52 23.785 22.675z" fill="#865725"/><path d="m344.751 505.391c.377.064.894-.262.708-.709-2.917-7.07-12.299-11.106-19.621-10.075-.342.047-.414.617-.099.754 3.364 1.436 6.604 3.309 9.688 5.282 3.123 1.998 5.618 4.091 9.324 4.748z" fill="#865725"/><path d="m165.273 472.933c.354-.109.393-.553.099-.752-1.175-.789-2.069-1.537-3.445-1.967-1.43-.447-3.003-.508-4.486-.529-.348-.004-.519.432-.279.674 2.409 2.453 4.748 3.607 8.111 2.574z" fill="#865725"/><path d="m262.231 584.172c-1.098-13.947-2.073-27.439-1.168-41.424.028-.436-.556-.521-.768-.207-8.053 11.959-5.146 29.777.955 41.896.231.458 1.022.254.981-.265z" fill="#865725"/><path d="m206.685 456.447c-18.521-5.355-38.833-15.779-51.086-31.584 8.52 23.191 28.702 38.826 51.761 41.1-.395-3.141-.642-6.319-.675-9.516z" fill="#865725"/><path d="m236.377 510.475c-2.781-1.363-5.408-2.951-7.88-4.713-3.294 12.301-3.24 25.199-.511 37.688.261-11.255 3.835-22.567 8.391-32.975z" fill="#865725"/><path d="m319.459 517.959c1.368 1.76 2.423 3.23 4.498 4.123.254.109.613.045.678-.275 1.043-5.172-5.129-7.463-8.687-9.563-.381-.225-.679.264-.438.57 1.329 1.702 2.623 3.436 3.949 5.145z" fill="#865725"/><path d="m261.077 366.988c1.321-7.047 2.9-14.092 4.449-21.098 1.779-8.057 5.529-15.5 7.299-23.537.051-.234-.232-.424-.414-.242-11.123 11.264-14.456 29.781-12.189 44.877.064.433.777.42.855 0z" fill="#865725"/><path d="m206.977 394.07c-1.378 3.164.362 9.576 4.525 9.738.256.01.399-.205.428-.428.191-1.502-.666-2.857-1.436-4.074-1.063-1.682-1.952-3.486-2.892-5.236-.119-.221-.516-.252-.625 0z" fill="#865725"/><path d="m356.071 449.148c6.527.969 12.674 3.385 19.217 4.301.528.074 1.067-.547.578-.99-9.619-8.668-27.264-10.635-39.107-5.801-.218.088-.281.445 0 .506 6.331 1.377 12.899 1.033 19.312 1.984z" fill="#865725"/><path d="m214.249 373.425c-2.049 4.93-1.207 10.957-.183 16.045.524 2.604 2.674 10.766 6.662 9.832 3.612-.848.043-6.652-.642-8.293-2.371-5.691-2.598-12.107-5.054-17.686-.17-.384-.66-.191-.783.102z" fill="#865725"/><path d="m337.583 431.992c-.195.256.123.58.391.508 4.013-1.08 7.958-1.998 11.408-4.443.436-.309.269-.936-.266-.98-4.609-.386-8.706 1.225-11.533 4.915z" fill="#865725"/><path d="m308.432 391.093c-.024.293.348.387.533.221 3.468-3.086 7.742-4.938 11.011-8.297.35-.359-.002-.941-.481-.824-4.966 1.205-10.567 2.967-11.063 8.9z" fill="#865725"/><path d="m310.715 349.529c-5.189 1.451-10.762 6.354-10.375 12.076.017.258.364.473.562.232 3.25-3.945 8.407-6.832 10.44-11.682.158-.372-.287-.722-.627-.626z" fill="#865725"/><path d="m237.918 371.484c.588.27 1.306-.043 1.313-.752.032-3.287-1.87-6.604-2.253-9.939-.43-3.76.097-7.604-.5-11.332-.104-.656-1.149-.773-1.427-.188-1.829 3.863-1.786 8.596-1.379 12.762.313 3.177.988 7.961 4.246 9.449z" fill="#d4ba89"/><path d="m231.253 369.462c-.712 3.426 2.209 8.867 5.817 9.49.601.104 1.333-.393 1.084-1.084-.584-1.619-1.787-2.691-2.769-4.064-1.026-1.432-1.656-3.09-2.644-4.537-.365-.537-1.333-.547-1.488.195z" fill="#d4ba89"/><path d="m318.336 577.424c.79-3.559-.642-7.488-1.601-10.912-.9-3.213-2.559-6.482-5.368-8.373-.494-.332-1.164.213-.992.762 1.023 3.256 2.35 6.357 3.22 9.676.839 3.201.857 6.664 3.021 9.303.488.591 1.562.259 1.72-.456z" fill="#d4ba89"/><path d="m209.582 510.221c-11.011 5.477-21.672 24.924-18.435 37.156.251.947 1.426.771 1.744 0 2.773-6.686 3.813-13.752 7.008-20.361 2.813-5.814 7.063-10.547 10.606-15.873.404-.604-.36-1.204-.923-.922z" fill="#d4ba89"/><path d="m321.352 391.048c-2.495.994-4.523 2.631-5.729 5.096-.354.727.35 1.379 1.059 1.059 2.379-1.076 4.488-2.588 5.544-5.018.232-.537-.16-1.418-.874-1.137z" fill="#d4ba89"/><path d="m336.842 418.666c.406-.455.174-1.367-.541-1.307-2.505.207-4.946 1.129-6.813 2.904-.37.352-.203 1.053.309 1.168 2.711.606 5.301-.806 7.045-2.765z" fill="#d4ba89"/><path d="m330.625 411.509c-2.622.773-5.307 3.248-6.048 5.904-.144.518.344.977.85.85 2.418-.609 5.027-2.254 6.823-3.963 1.209-1.154-.031-3.261-1.625-2.791z" fill="#d4ba89"/><path d="m291.1 369.509c4.129-9.256 4.994-20.248 12.619-27.674.693-.672-.19-1.785-1.016-1.316-9.694 5.51-12.572 18.199-12.922 28.633-.022.67 1.027 1.012 1.319.357z" fill="#d4ba89"/><path d="m367.962 518.107c-4.609-5.465-12.626-9.119-19.729-6.902-.755.234-.567 1.26.179 1.324 7.013.619 12.163 5.209 18.735 6.98.858.233 1.338-.784.815-1.402z" fill="#d4ba89"/><path d="m236.781 572.941c-2.277 2.613-4.038 7-1.644 10.064.424.541 1.197.145 1.391-.369 1.071-2.848 1.447-6.143 1.518-9.172.014-.618-.836-1.015-1.265-.523z" fill="#d4ba89"/><path d="m280.203 562.629c.296.783 1.331.813 1.617 0 1.118-3.154.709-6.18.489-9.469-.24-3.609-.173-7.451-1.158-10.947-.201-.715-1.086-.596-1.333 0-1.236 2.984-1.092 6.244-.997 9.43.108 3.681.065 7.509 1.382 10.986z" fill="#d4ba89"/><path d="m244.402 570.092c-.126-.672-1.179-.805-1.474-.193-2.961 6.131-1.797 16.947 2.041 22.441.483.689 1.644.482 1.642-.445-.007-3.629-.907-6.996-1.387-10.598-.491-3.713-.134-7.533-.822-11.205z" fill="#d4ba89"/><path d="m281.842 535.025c.039 2.838.29 5.895 1.055 8.631.204.725 1.305.752 1.494 0 .732-2.93.018-6.074-1.078-8.832-.297-.742-1.483-.703-1.471.201z" fill="#d4ba89"/><path d="m379.261 492.47c-2.501-1.432-6.07-2.609-8.941-1.914-.667.162-.775 1.113-.189 1.445 2.372 1.332 4.964 2.16 7.309 3.59 1.343.818 2.596 1.69 3.823 2.68.881.709 1.753.77 2.748 1.18.572.236 1.125-.443.972-.971-.899-3.068-2.961-4.43-5.722-6.01z" fill="#d4ba89"/><path d="m377 487.218c1.658 1.191 3.828 2.516 5.914 1.932.74-.205 1.008-1.172.454-1.719-1.495-1.469-3.984-1.559-5.993-1.594-.792-.013-.938.977-.375 1.381z" fill="#d4ba89"/><path d="m275.387 348.496c3.709-6.627 6.064-14.254 9.018-21.26.317-.75-.811-1.313-1.32-.77-5.271 5.639-9.018 13.873-9.199 21.623-.018.801 1.113 1.102 1.501.407z" fill="#d4ba89"/><path d="m375.034 519.551c.675.111 1.23-.385 1.084-1.084-.493-2.348-3.41-3.354-5.398-4.143-.706-.281-1.148.717-.695 1.197 1.387 1.471 2.896 3.678 5.009 4.03z" fill="#d4ba89"/><path d="m146.662 440.839c-.634-.502-1.502.301-.909.908 1.37 1.398 3.416 3.932 5.646 2.426.454-.307.636-1 .181-1.408-1.356-1.217-3.538-.828-4.918-1.926z" fill="#d4ba89"/><path d="m168.586 404.958c.245 3.252 1.948 5.801 4.604 7.529.584.379 1.355-.244 1.16-.893-.827-2.766-2.48-5.031-4.414-7.195-.446-.497-1.4-.12-1.35.559z" fill="#d4ba89"/><path d="m202.788 509.027c2.479-.801 4.486-3.285 6.519-4.852.514-.396.625-1.438-.206-1.578-3.306-.568-7.248 2.094-7.438 5.572-.032.563.591 1.028 1.125.858z" fill="#d4ba89"/><path d="m146.797 381.97c-.364-.537-1.287-.369-1.273.346.212 10.967 10.419 26.398 20.987 29.803.893.289 1.378-.838.85-1.457-4.073-4.771-8.724-8.762-12.321-13.971-3.217-4.654-5.091-10.051-8.243-14.721z" fill="#d4ba89"/><path d="m146.011 436.207c.745.268 1.154-.717.714-1.225-2.977-3.416-6.601-6.17-9.715-9.465-3.338-3.535-5.677-7.791-8.116-11.951-.409-.697-1.391-.213-1.249.525 1.718 9 9.67 18.987 18.366 22.116z" fill="#d4ba89"/><path d="m186.326 388.796c-.337-.658-1.343-.328-1.35.365-.073 8.873 6.37 22.584 15.214 25.678.783.275 1.547-.729 1.086-1.414-2.547-3.801-5.978-6.842-8.5-10.701-2.838-4.344-4.109-9.357-6.45-13.928z" fill="#d4ba89"/><path d="m203.275 406.351c-.474-.166-.921.262-.938.715-.061 1.686 3.209 7.863 5.41 6.574 2.484-1.457-3.024-6.777-4.472-7.289z" fill="#d4ba89"/><path d="m282.093 351.22c-15.555 12.703-23.832 29.461-27.065 42.457 4.918-1.203 9.966-1.863 15.047-1.803 1.889-13.857 5.333-28.23 12.018-40.654z" fill="#865725"/><path d="m427.671 630.408c-5.784 3.775-11.56 7.563-17.636 10.883-12.027 6.568-26.05 10.564-39.165 14.359-23.28 6.734-47.476 9.961-71.692 9.348-26.852-.678-53.674-6.627-78.039-17.783 9.076 5.199 18.542 9.438 28.209 12.521 45.84 14.631 98.75 18.486 148.154 11.387 24.86-3.578 42.317-9.045 34.772-28.006-1.665-4.187-3.184-8.433-4.603-12.709z" fill="#ef6200"/><path d="m591.367 743.682c-65.309-17.506-124.482-58.305-152.873-119.018.042-.232-.086-.451-.27-.588-1.563-3.373-3-6.83-4.37-10.324 8.577 34.176 25.037 66.219 49.502 92.254 40.254 42.84 96.377 68.125 155.377 68.799 39.873.459 81.51-6.49 119.586-21.393 15.176-5.941 11.484-9.258 1.246-8.203-12.822 1.32-25.375 1.5-37.66.691-1.168.326-2.322.676-3.496.988-41.813 11.128-85.587 7.905-127.042-3.206z" fill="#ef6200"/><path d="m143.064 510.803c6.738 8.1 18.811 11.717 30.233 10.955 5.138-8.656 8.641-11.543-3.68-8.303-8.373 2.205-17.783.783-26.553-2.652z" fill="#ef6200"/><path d="m356.985 380.49c-1.058-15.197.32-28.141-6.215-42.443-7.99-17.48-32.069-34.838-52.76-35.984 1.975.486 3.953 1.01 5.936 1.623 28.895 8.938 48.581 38.602 46.084 68.623-.695 8.367-13.599 25.127 3.162 30.805 3.081 1.045 6.771 2.803 9.408 4.713 4.805 3.484 10.206 4.379 15.76 4.734-12.027-6.329-20.343-17.22-21.375-32.071z" fill="#ef6200"/><path d="m372.817 236.347c30.414 2.521 60.287 9.328 87.741 22.941 35.556 17.629 62.887 46.279 83.125 79.74 5.783-2.256 11.805-4.145 18.148-5.504-42.471-80.002-134.56-120.482-223.062-116.4-74.807 3.449-156.455 37.713-184.01 109.033 50.494-63.947 136.901-96.542 218.058-89.81z" fill="#facb1a"/><path d="m353.257 546.279c-15.477-.283-13.868-8.764-10.188 7.486 1.72 7.592 3.479 15.959-.123 23.389-7.677 15.842-21.644 39.498-38.309 46.986-4.853 2.18-10.756 1.4-15.875 1.295-17.849-.371-11.313 3.65-22.289 6.916-7.675 2.285-15.411 3.418-23.063-.057-11.155-5.066-17.892-12.211-25.574-21.629-4.735-5.805-22.538-6.6-29.997-11.068-11.249-6.738-18.126-20.021-21.458-33.461.842 10.037 4.031 20.105 8.026 27.902 4.607 8.99 12.567 13.217 21.956 15.771 14.619 3.979 23.517 13.861 35.354 22.625 8.09 5.988 17.472 9.469 27.56 8.91 6.026-.332 11.749-2.742 17.303-4.865 7.438-2.84 15.99-2.607 23.821-3.766 11.157-1.652 19.829-8.082 27.553-15.918 8.835-8.967 17.933-19.902 23.18-31.381 3.653-7.996-.491-23.297 7.829-27.826 9.285-5.055 19.956-4.463 28.696-11.436 6.372-5.084 10.607-11.447 13.346-18.471-9.378 15.825-31.292 18.899-47.748 18.598z" fill="#ef6200"/><path d="m538.52 643.936c-44.746-52.715-82.087-122.117-75.985-191.756.907-10.385.66-18.143-4.204-11.301-9.828 46.732 4.632 99.237 25.203 140.29 24.38 48.66 62.72 93.432 109.626 121.455 11.764 7.027 24.385 12.754 37.463 17.09-34.459-18.064-65.404-44.325-92.103-75.778z" fill="#facb1a"/><g fill="#68182b"><path d="m183.059 466.906c-6.179-2.807-11.714-6.957-16.308-11.93-.59-.641-1.622.184-1.188.918 6.346 10.725 21.006 20.746 33.828 19.15.529-.066.838-.764.29-1.074-5.317-3.013-11.052-4.533-16.622-7.064z"/><path d="m250.132 529.422c-7.907 7.125-7.104 22.219-3.306 31.16.242.57.996.201 1.043-.281.481-4.906.582-9.789.738-14.711.169-5.377 1.72-10.523 2.339-15.832.053-.445-.538-.586-.814-.336z"/><path d="m352.778 478.464c5.139 1.695 9.662 3.852 14.995 4.873.465.088.753-.412.448-.77-6.475-7.631-23.957-14.084-32.713-6.787-.26.213-.046.652.268.645 5.974-.142 11.267.147 17.002 2.039z"/><path d="m253.1 380.353c.897-6.369-.74-12.598-1.484-18.947-.979-8.34-.061-16.564-.241-24.902-.011-.451-.588-.48-.742-.1-4.937 12.172-4.659 32.328 1.475 44.08.2.389.925.344.992-.131z"/><path d="m298.61 384.119c3.294-4.201 6-8.77 9.467-12.848 3.711-4.367 7.438-8.246 10.732-12.938.309-.436-.265-.822-.651-.65-9.349 4.105-19.78 15.422-20.082 26.213-.007.254.362.441.534.223z"/><path d="m314.889 371.162c-.062.348.329.617.604.352 2.777-2.668 6.64-4.348 8.168-8.01.138-.332-.203-.691-.524-.688-4.347.045-7.513 4.324-8.248 8.346z"/><path d="m348.413 495.728c-.275-.014-.45.379-.232.563 3.17 2.674 7.068 4.368 10.746 6.225 4.397 2.223 8.413 4.484 13.06 6.098.389.137.722-.346.521-.676-4.542-7.528-15.523-11.735-24.095-12.21z"/><path d="m291.395 539.236c-.037-.326-.531-.572-.706-.189-5.675 12.471-.701 33.033 6.191 44.162.259.418 1.024.281.981-.266-.524-6.568-2.387-12.703-3.873-19.105-1.903-8.195-1.637-16.346-2.593-24.602z"/><path d="m297.676 556.414c-.142-.248-.545-.264-.683 0-.852 1.643-.771 3.498-.415 5.285.452 2.275.828 4.607 2.538 6.299.238.238.687.139.769-.203.433-1.813-.021-3.439-.454-5.209-.511-2.072-.681-4.293-1.755-6.172z"/><path d="m217.121 522.615c-11.04 6.305-15.573 25.645-12.892 37.275.1.434.747.418.855 0 1.593-6.018 2.348-12.193 3.939-18.217 1.792-6.781 5.566-12.371 8.569-18.586.148-.302-.155-.653-.471-.472z"/><path d="m214.966 541.648c-2.328 2.604-4.788 7.006-2.793 10.451.171.295.591.277.765 0 .937-1.48 1.063-3.09 1.453-4.764.421-1.801.769-3.564 1.1-5.383.051-.282-.296-.557-.525-.304z"/><path d="m198.865 422.468c.478.014.85-.578.567-.992-3.659-5.346-9.922-8.799-14.735-13.107-5.423-4.854-10.131-10.441-15.603-15.238-.292-.256-.736.064-.543.418 3.551 6.504 8.15 12.371 13.117 17.85 4.343 4.782 10.386 10.86 17.197 11.069z"/><path d="m188.518 422.537c.611 1.104 1.576 1.836 2.58 2.572 1.121.822 2.252 2.102 3.717 1.5.275-.113.415-.287.446-.586.251-2.494-4.373-4.314-6.401-4.082-.292.033-.498.31-.342.596z"/><path d="m176.888 482.875c.394-.162.563-.719.126-.963-4.92-2.748-10.984-2.756-16.406-4.152-6.834-1.762-13.461-4.451-20.076-6.879-.403-.148-.781.469-.432.742 8.701 6.785 25.57 15.873 36.788 11.252z"/><path d="m172.444 486.773c-.328.121-.33.547 0 .666 1.865.682 4.305 1.246 5.8-.418.311-.346.196-.916-.275-1.045-1.801-.498-3.831.17-5.525.797z"/><path d="m232.055 390.742c-.462-6.537-2.155-12.627-3.643-18.992-2.237-9.586-2.431-19.168-2.824-28.926-.018-.451-.637-.531-.775-.105-4.727 14.602-1.857 35.336 6.23 48.297.27.431 1.051.288 1.012-.274z"/><path d="m359.243 439.654c5.894.896 11.159 3.674 16.947 4.748.422.078.775-.324.558-.725-3.03-5.572-11.331-6.873-17.031-7.514-7.142-.803-15.851-1.1-21.985 3.295-.271.193-.11.613.229.541 7.13-1.511 14.097-1.437 21.282-.345z"/><path d="m334.635 507.814c-3.674-1.885-7.854-3.377-12.024-3.135-.3.018-.483.463-.167.613 3.586 1.695 7.043 3.467 10.466 5.473 2.168 1.27 5.271 4.479 7.938 3.236.209-.096.316-.35.324-.566.118-2.955-4.397-4.521-6.537-5.621z"/><path d="m303.917 522.387c.636 8.064 3.042 17.205 6.796 24.406.14.266.604.221.662-.088 1.541-8.336-4.124-16.822-6.941-24.389-.098-.261-.541-.246-.517.071z"/><path d="m273.952 530.285c.033-.303-.461-.438-.582-.158-6.563 15.043-5.686 33.838-.766 49.27.189.594.976.441 1.035-.139 1.664-16.252-1.465-32.563.313-48.973z"/><path d="m250.844 487.662c.4.141.85-.307.707-.709-.746-2.113-1.999-3.527-3.406-5.225-.807-.971-1.482-2.074-2.057-3.193-.504-.98-.779-2.055-1.647-2.777-.171-.145-.411-.168-.58 0-1.673 1.66-.307 4.396.604 6.109 1.385 2.603 3.598 4.808 6.379 5.795z"/><path d="m478.776 265.957c-24.42-15.654-52.141-23.885-80.405-29.457-20.095-3.961-40.562-5.955-61.044-5.584-19.732.359-42.378 2.387-60.108 11.672-.186.098-.104.414.106.4 20.134-1.387 39.688-5.207 60.002-5.201 20.853.006 41.708 2.496 62.145 6.525 26.311 5.188 53.959 12.572 78.849 22.729.646.263.994-.739.455-1.084z"/><path d="m487.99 272.097c.861.494 1.688 1.045 2.53 1.566.956.596 2.085.715 3.128 1.068.321.111.591-.281.428-.555-1.292-2.182-2.46-3.217-4.68-4.486-1.573-.902-3.382-1.777-5.23-1.496-.266.039-.344.377-.236.58.828 1.563 2.576 2.474 4.06 3.323z"/><path d="m522.512 708.678c-23.85-16.869-41.563-38.111-59.105-61.08-.146-.191-.514-.094-.422.176 8.732 25.408 30.334 46.371 51.271 62.146 22.967 17.309 48.984 33.023 77.289 39.434.605.139.996-.699.43-1.021-23.254-13.245-47.526-24.14-69.463-39.655z"/><path d="m604.646 750.641c-2.143-.439-4.445-.92-6.635-.656-.369.045-.529.406-.291.701 2.484 3.088 8.375 4.545 12.051 3.504.484-.137.631-.742.289-1.1-1.609-1.697-3.156-1.988-5.414-2.449z"/><path d="m654.531 566.27c-10.854 13.307-23.691 28.377-28.834 45.047-.072.232.221.371.385.225 13.01-11.521 22.078-29.148 29.225-44.672.218-.474-.395-1.065-.776-.6z"/><path d="m695.639 576.184c3.434 20.973 12.498 43.127 21.266 62.424.373.82 1.486.193 1.354-.57-3.508-20.432-9.098-45.389-22.07-62.172-.228-.294-.599.038-.55.318z"/><path d="m756.447 579.904c-9.48-5.223-19.01-10.348-28.508-15.533-.75-.41-1.609.611-.938 1.215 13.555 12.197 31.955 25.719 49.898 30.008.563.135.908-.518.543-.934-5.807-6.666-13.335-10.537-20.995-14.756z"/><path d="m772.971 521.299c.539-.176.457-1.004-.135-1.002-16.043.07-33.693 1.797-49.055 6.527-.271.084-.324.553 0 .604 15.989 2.48 34.002-1.178 49.19-6.129z"/><path d="m712.236 505.291c5.117-7.721 9.617-15.676 14-23.836 4.406-8.205 9.533-16.561 11.268-25.813.08-.43-.49-.908-.826-.48-5.709 7.311-9.914 15.873-14.529 23.902-4.799 8.354-8.875 16.348-10.936 25.797-.137.627.668.965 1.023.43z"/><path d="m673.852 498.313c1.98-9.606 1.852-19.26 1.697-29.022-.186-11.607.029-24.191-3.037-35.439-.066-.244-.449-.26-.506 0-2.301 10.244-1.602 21.246-1.574 31.697.031 10.951.09 22.01 2.342 32.764.111.535.966.537 1.078 0z"/><path d="m647.885 510.83c.563.207.938-.57.559-.963-6.934-7.143-15.205-11.764-23.754-16.749-9.098-5.305-18.49-10.961-28.143-15.164-.232-.102-.463.158-.277.361 12.806 14.153 33.812 26.054 51.615 32.515z"/><path d="m648.563 539.172c-16.752-.406-34.709-.613-51.191 2.811-.398.086-.422.762 0 .828 16.83 2.568 35.037 2.564 51.35-2.475.639-.199.516-1.148-.159-1.164z"/><path d="m646.373 549.094c1.555-.316 2.598-.898 3.986-1.588.371-.186.203-.654-.104-.783-1.438-.602-2.406-.791-3.945-.533-.799.135-1.543.512-2.273.846-.715.324-1.162 1.049-1.891 1.33-.441.174-.264.762.193.699 1.327-.182 2.641.31 4.034.029z"/><path d="m734.709 508.484c.229-.285.107-.768-.314-.76-2.367.045-4.107.344-6.264 1.414-2.219 1.1-4.361 2.328-6.564 3.443-.336.17-.178.719.191.705 4.931-.186 9.689-.766 12.951-4.802z"/><path d="m714.594 576.795c-.283-.135-.607.029-.619.355-.064 1.818.859 3.506 1.74 5.039.971 1.693 1.822 3.766 3.787 4.453.293.102.605-.113.688-.393.545-1.818-.531-3.441-1.461-4.938-1.059-1.704-2.268-3.616-4.135-4.516z"/><path d="m674.963 585.311c-1.982 3.605-2.711 9.422-1.037 13.16.125.281.607.348.799.104 2.652-3.359 3.176-9.402 1.148-13.264-.184-.348-.725-.338-.91 0z"/><path d="m653.879 473.414c.014 6.322 1.346 14.299 5.393 19.307.26.32.896.068.844-.35-.793-6.195-1.715-13.984-5.35-19.197-.258-.374-.887-.262-.887.24z"/><path d="m699.369 493.679c4.238-4.504 5.324-11.186 6.428-17.004.08-.418-.451-.664-.691-.293-3.209 5.02-6.705 10.82-6.354 17.043.018.299.391.496.617.254z"/><path d="m737.992 552.611c-.273.059-.324.473-.078.602 4.178 2.164 9.766 4.314 14.486 3.238.316-.072.373-.539.09-.691-4.121-2.196-9.799-4.158-14.498-3.149z"/><path d="m755.822 556.979c-.092.104-.08.223 0 .324 1.273 1.645 3.809 2.104 5.67 1.303.238-.102.291-.451.17-.652-1.105-1.847-4.277-2.727-5.84-.975z"/><path d="m635.766 568.324c-2.318 2.266-3.795 4.678-4.994 7.66-.133.334.34.705.631.484 2.174-1.678 4.143-3.32 6.006-5.357 1.871-2.043 4.619-3.789 5.859-6.309.184-.371-.033-.883-.498-.865-2.827.1-5.102 2.532-7.004 4.387z"/><path d="m626.363 518.398c-.313.109-.281.484 0 .605 3.055 1.283 6.301 2.021 9.416 3.154 2.895 1.051 5.471 1.928 8.57 1.939.672.002.879-.885.334-1.225-4.923-3.084-12.48-6.508-18.32-4.473z"/><path d="m728.221 502.152c-.156.268.037.705.383.668 4.189-.439 8.854-2.5 11.465-5.829.268-.34.156-1.047-.408-.984-4.122.465-9.227 2.356-11.44 6.145z"/><path d="m635.223 356.179c.625.008.727-.895.145-1.068-19.379-5.715-39.574-6.176-59.564-3.955-17.77 1.975-39.363 8.004-51.697 21.848-.205.229.047.545.318.414 18.064-8.701 34.426-15.047 54.553-17.326 18.647-2.11 37.547-.169 56.245.087z"/><path d="m655.584 360.931c.42.055.445-.512.191-.707-2.531-1.92-4.422-2.896-7.531-3.674-2.225-.555-4.539-.984-6.824-.656-.35.053-.432.553-.203.77 3.65 3.505 9.679 3.656 14.367 4.267z"/></g></g></g></svg>