<svg id="Fruit" height="512" viewBox="0 0 992.13 992.13" width="512" xmlns="http://www.w3.org/2000/svg"><g><path d="m149.079 818.152c8.352 5.416 16.635 8.164 24.617 8.166h.007c10.912 0 20.79-5.133 27.103-14.078 10.172-14.412 8.396-34.652 3.787-47.609-7.781-21.867-13.401-41.65-17.176-60.477-5.377-26.838-14.195-88.115 9.723-117.227.023 4.838.256 9.516.564 13.898 8.314 118.873 100.4 212.264 176.732 256.117l4.346 2.514c19.875 11.531 49.906 28.959 79.026 28.959 10.187 0 19.62-2.102 28.038-6.246 16.74-8.238 23.208-20.771 25.687-29.836 7.314-26.744-11.031-54.777-20.888-69.838-5.578-8.523-11.323-16.887-17.02-25.068 42.255 17.805 86.849 27.203 131.052 27.203 23.539 0 47.113-2.629 70.068-7.814 38.142-8.613 74.416-29.25 107.814-61.332 13.021-12.508 24.102-26.119 34.818-39.281 8.584-10.541 16.689-20.496 25.529-29.656 4.436-4.598 6.828-6.23 7.966-6.809.647.227 1.409.51 2.04.746 2.83 1.059 6.356 2.371 10.504 3.188 2.904.568 5.9.857 8.902.857 9.842 0 18.179-2.998 25.039-5.93 18.732-8.006 33.102-24.518 39.423-45.299 6.558-21.557 3.642-44.939-7.804-62.549-7.327-11.273-17.361-26.715-37.424-33.875-4.705-1.678-9.619-2.529-14.605-2.529-21.902 0-38.61 16.19-48.593 25.862l-1.763 1.705c-14.586 13.998-35.691 25.592-64.395 35.355 3.447-23.6-12.248-48.465-22.133-64.127l-.926-1.471c-31.291-49.699-64.963-85.42-102.943-109.203-29.818-18.67-65.666-28.539-103.666-28.539-.221 0-.443 0-.663 0-30.438-30.535-69.107-47.908-107.148-47.908-6.737 0-13.435.525-20.067 1.57-1.42-24.211-.852-47.518-.072-66.504.93-22.641 2.904-45.691 4.715-65.254l.07-.744c1.215-13.076 3.05-32.836-10.569-49.654-11.509-14.209-28.31-21.721-48.589-21.721-10.766 0-22.363 2.105-34.469 6.258-86.441 29.656-106.386 145.168-110.95 193.455-3.861 40.822-.111 83.668 11.15 127.764-56.439 5.023-110.752 43.121-140.967 99.92-36.338 68.313-29.345 154.549 18.184 225.364 13.615 25.457 32.93 46.761 55.926 61.677zm353.095-313.615c23.432 6.617 46.176 19.807 66.588 31.643l9.146 5.32c11.742 6.842 23.697 13.809 35.995 20.471-39.602-10.522-77.712-30.08-111.729-57.434z" fill="#fff"/><g><path d="m908.953 543.768c-6.791-10.451-13.254-20.053-25.428-24.398-15.561-5.553-30.732 10.502-40.396 19.775-21.734 20.859-51.453 33.838-79.729 42.875-118.112 37.754-241.504-11.641-321.188-101.922 16.641-4.932 35.925-4.721 52.298-1.814 30.99 5.5 59.353 21.649 86.233 37.237 24.874 14.426 49.364 29.195 75.657 40.967 18.008 8.066 42.836 18.617 63.257 14.119 37.009-8.145 11.063-47.479-.728-66.209-24.964-39.651-55.352-76.602-95.408-101.686-29.73-18.617-66.518-26.771-102.642-24.541-.175-.875-.573-1.752-1.318-2.563-35.09-38.229-86.268-58.068-136.043-37.354-4.199-32.332-4.141-65.473-2.801-98.146.912-22.197 2.75-44.355 4.797-66.475 1.041-11.248 2.393-23.695-5.277-33.168-13.852-17.104-38.117-14.293-56.748-7.902-65.453 22.455-89.182 112.328-94.928 173.113-4.784 50.598 3.415 101.953 19.602 150.412-63.691-10.338-122.955 31.436-152.107 86.241-34.878 65.564-22.808 142.297 17.605 201.84 11.305 21.531 27.455 40.355 48.412 53.945 21.834 14.16 25.64-9.676 20.018-25.475-7.463-20.971-13.707-41.928-18.09-63.793-9.324-46.527-15.459-118.715 27.705-149.232 12.824-9.064 23.184-10.264 36.807-7.674-8.281 13.533-8.035 32.236-6.986 47.221 6.898 98.609 82.012 189.508 164.808 237.074 22.513 12.934 61.997 37.783 88.968 24.508 28.095-13.828 7.32-46.895-4.639-65.168-22.934-35.041-48.592-67.068-68.308-104.412-.93-1.762-1.788-3.549-2.683-5.322 75.858 60.389 173.098 89.525 269.812 67.682 37.002-8.357 69.467-29.262 96.53-55.26 21.902-21.039 38.681-46.512 59.707-68.299 6.718-6.963 14.931-14.143 25.087-14.367 5.822-.129 11.59 3.537 17.205 4.639 6.994 1.371 13.652-.898 19.957-3.594 27.519-11.765 36.111-49.595 20.982-72.874z" fill="#68182b"/><path d="m645.602 431.833c32.787 27.695 58.696 65.381 79.197 102.797 17.845 32.566-25.09 25.793-42.916 20.416-27.639-8.338-53.318-23.678-78.092-38.186-40.662-23.811-80.35-47.063-128.171-51.721-9.732-.949-9.852-2.775.191-4.725 9.2-1.787 18.736-2.58 28.583-2.281 18.368.555 35.272 6.092 51.81 13.676 17.637 8.086 35.363 17.408 51.289 28.485.611.428 1.277-.502.777-1.008-27.385-27.725-64.691-46.768-103.876-48.774-52.933-2.709-93.477 26.006-106.471 55.315-4.539-22.213-1.086-45.022 15.785-66.434 24.492-31.082 67.198-46.385 105.289-50.621 46.833-5.204 91.312 13.251 126.605 43.061z" fill="#fbf199"/><path d="m508.582 379.337c-30.75 3.945-60.353 15.539-83.964 34.773-9.037 7.359-11.24 7.785-9.799-3.531.962-7.533 2.908-14.934 5.902-21.994 2.928-6.898 7.275-13.314 12.695-18.473 6.057-5.766 13.873-6.691 21.514-8.752.666-.182.586-1.057 0-1.271-14.852-5.406-29.667 6.607-37.412 18.158-7.938 11.84-11.182 27.27-11.229 41.961-10.619-22.813-17.245-46.744-21.194-71.238 44.96-20.566 91.107-2.689 123.487 30.367z" fill="#fbf199"/><path d="m238.274 318.593c2.101-63.537 27.168-158.764 96.521-178.549 11.907-3.396 26.509-3.521 36.007 5.412 11.371 10.695 3.215 38.459 2.127 51.58-2.896 34.906-4.375 69.965-3.104 104.98 1.697 46.805 10.693 92.992 32.852 134.521-16.887 21.924-21.182 45.527-17.123 68.899-23.82-9.573-58.973 1.418-85.699 10.539-10.123 3.455-13.658 3.711-18.078-5.385-29.064-59.788-45.712-125.221-43.503-191.997z" fill="#fbf199"/><path d="m98.823 561.396c23.014-59.693 87.532-108.334 153.34-93.866 7.014 19.314 15.227 38.125 24.396 56.165-11.539 3.449-22.448 6.512-31.877 12.387-35.304-15.021-76.816-16.99-108.248 7.625-.357.279.098.773.459.596 30.968-15.359 63.268-16.648 94.566-5.525 5.566 1.98 2.016 3.311-4.518 2.291-50.422-7.879-100.752 7.738-121.213 59.588-10.061 25.493-13.528 53.96-10.567 81.741-12.215-38.857-12.028-80.296 3.662-121.002z" fill="#fbf199"/><path d="m166.25 759.691c3.064 9.514 8.131 19.016 9.111 29.02.626 6.379-23.734-12.439-25.703-14.34-7.406-7.15-13.594-15.471-19.374-23.945-1.06-1.553-2.054-3.143-3.046-4.732-.158-.482-.377-.973-.734-1.469-.465-.646-.881-1.314-1.338-1.963-18.405-31.406-24.391-69.158-18.848-104.943 4.76-30.711 18.713-60.063 45.809-76.697 5.881-3.611 12.152-6.252 18.658-8.104 15.543-4.424 9.666 1.629 2.439 9.359-44.229 47.309-24.598 143.117-6.974 197.814z" fill="#fac135"/><path d="m407.295 721.668c16.311 27.852 36.225 52.633 54.273 79.221 7.723 11.381 16.282 24.531 17.564 38.547 2.163 23.664-39.854 10.299-50.25 6.396-82.195-30.854-149.639-104.133-182.163-184.486-12.665-31.283-31.087-94.863 4.673-117.758 18.157-11.621 46.684-15.498 67.332-21.086 9.324-2.521 22.277-6.842 35.127-8.82-11.607 11.354-12.707 32.576-13.158 47.543-.684 22.641 1.883 45.719 6.393 67.873 5.854 28.756 17.396 61.156 38.435 82.408.515.52 1.231-.137.956-.736-5.811-12.635-13.037-24.49-18.432-37.352-4.52-10.768-7.946-22.033-11.031-33.281-5.889-21.461-7.934-43.801-8.76-65.973-.553-14.852-.184-30.557 5.092-44.611 2.129-5.67 5.383-10.646 10.324-13.605-13.145 23.91-7.223 56.609-3.584 82.033 6.354 44.388 24.729 85.3 47.209 123.687z" fill="#fbf199"/><path d="m862.348 607.689c-4.961-1.822-9.629-2.416-14.049-2.063-7.736.627-11.789 1.574-6.502-5.723 7.695-10.613 17.383-18.318 32.722-12.752.364.131.575-.355.353-.605-12.004-13.363-32.805-.57-40.92 10.768-6.166 8.617-26.065 36.289-30.098 40.967-16.029 18.574-30.563 38.393-48.383 55.51-34.268 32.916-76.229 50.35-123.248 54.873-73.061 7.027-142.679-13.482-201.957-53.313-28.197-18.943-49.916-46.395-58.779-92.705-3.9-20.385-9.979-52.313-1.775-74.928 8.306-22.887 19.818-5.674 23.078 2.287 21.027 51.324 76.111 98.082 117.5 118.836 4.842 2.428 9.795 4.629 14.789 6.734 9.742 4.459 19.896 8.145 30.202 11.059.85.271 1.692.57 2.544.838.511.16.986.221 1.447.242 11.422 3.008 22.959 5.125 34.227 6.336 27.398 2.941 51.586-1.336 77.689-8.648.443-.121.565-.484.469-.803-.095-.318-.407-.592-.836-.529-23.887 3.324-50.154 2.402-74.002-.416-18.031-2.131-35.787-6.66-52.961-12.461-5.016-1.695-9.891-3.631-14.693-5.688-36.324-16-66.583-38.561-93.601-70.246-30.029-35.215-45.807-70.996-3.822-91.167.057.074.094.152.158.225 63.357 73.53 153.565 121.901 251.646 121.079 58.91-.492 127.984-19.371 170.62-62.332 13.204-13.305 27.501-18.893 39.923-2.688 4.17 5.438 9.137 12.307 11.723 18.656 9.782 24.009-19.207 57.564-43.464 48.657z" fill="#fac135"/><path d="m500.686 616.102c-23.636-15.826-45.189-34.852-60.526-58.975-7.644-12.02-13.591-25.221-18.403-38.594-2.541-7.059-4.404-14.289-5.725-21.667-.115-.648-.125-1.277-.205-1.918-20.621 20.79-5.475 50.749 19.736 80.311 27.018 31.686 57.277 54.246 93.601 70.246 4.803 2.057 9.678 3.992 14.693 5.688 17.174 5.801 34.93 10.33 52.961 12.461 19.516 2.307 40.635 3.297 60.762 1.777-28.276-2.813-55.529-4.346-83.045-12.975-26.273-8.235-51.024-21.069-73.849-36.354z" fill="#ee9e2b"/><path d="m905.811 559.033c-.23-.563-.565-1.145-.83-1.715-.613 11.471-5.035 22.32-12.646 31.496-4.625 5.578-10.592 9.715-17.877 10.387-8.406.775-19.314-4.336-14.367-13.383-7.566 1.668-13.346 7.264-18.293 14.086-5.287 7.297-1.234 6.35 6.502 5.723 4.42-.354 9.088.24 14.049 2.063 24.256 8.906 53.245-24.649 43.462-48.657z" fill="#ee9e2b"/><path d="m803.854 638.281c4.032-4.678 23.932-32.35 30.098-40.967 1.287-1.799 2.922-3.625 4.762-5.389-18.072 8.67-32.094 21.346-45.748 37.039-17.439 20.039-33.52 40.332-53.629 57.895-45.16 39.438-101.658 54.818-160.898 50.771-55.879-3.82-111.425-26.221-154.119-62.553-40.473-34.441-53.555-83.932-57.729-134.375-2.953 20.744 1.697 45.221 4.896 61.943 8.863 46.311 30.582 73.762 58.779 92.705 59.277 39.83 128.896 60.34 201.957 53.313 47.02-4.523 88.98-21.957 123.248-54.873 17.819-17.116 32.353-36.935 48.383-55.509z" fill="#ee9e2b"/><path d="m170.786 552.518c-6.506 1.852-12.777 4.492-18.658 8.104-9.578 5.879-17.482 13.371-23.949 21.928-8.222 20.789-10.658 44.24-8.508 66.121 3.088 31.406 17.76 62.826 39.494 86.805-14.672-55.5-24.194-132.68 14.061-173.598 7.226-7.732 13.103-13.784-2.44-9.36z" fill="#ee9e2b"/><path d="m754.58 614.998c-23.145 6.154-46.783 10.145-70.861 10.928-31.514 1.023-62.865-4.01-92.986-13.045-26.766-8.031-52.227-20.092-75.953-34.783-11.242-6.957-21.528-14.836-31.56-23.086-13.943-11.467-18.021-8.592-6.635 5.852 29.191 37.031 72.309 62.615 116.923 76.285 55.471 16.996 113.486 8.174 165.04-15.441 10.38-4.755 6.561-9.513-3.968-6.71z" fill="#fbe134"/><path d="m723.322 671.895c-67.646 18.209-138.182 25.234-206.768 5.857-45.109-12.746-84.715-36.758-116.902-68.498-11.343-11.18-13.967-9.457-6.574 4.5 27.334 51.641 79.914 86.51 139.345 100.994 68.963 16.813 141.771 2.818 198.113-37.238 22.718-16.155-3.516-6.612-7.214-5.615z" fill="#fbe134"/><path d="m441.411 359.542c-18.885-.971-36.793 17.336-44.609 36.957 2.746 8.016 5.869 15.932 9.488 23.709.047-14.691 3.291-30.121 11.229-41.961 5.356-7.988 14.099-16.191 23.892-18.705z" fill="#f3af79"/><path d="m347.086 629.098c-4.51-22.154-7.076-45.232-6.393-67.873.451-14.967 1.551-36.189 13.158-47.543-7.279 1.121-14.569 2.994-21.238 4.865-19.471 47.107-2.982 113.188 27.045 152.285-5.728-13.684-9.798-28.113-12.572-41.734z" fill="#f3af79"/><path d="m166.329 528.613c25.393-7.186 53.414-3.143 78.354 7.469 6.443-4.016 13.592-6.709 21.148-9.121-25.17-18.984-75.081-19.664-99.502 1.652z" fill="#f3af79"/><path d="m385.553 505.438c-4.059-23.372.236-46.975 17.123-68.899-22.158-41.529-31.154-87.717-32.852-134.521-.786-21.635-.517-43.285.482-64.906-13.361 55.568 2.674 113.248 9.567 169.086 3.497 28.338-2.114 59.34-22.306 80.482-25.175 26.362-62.74 20.567-87.048-1.1 3.515 8.434 7.255 16.782 11.255 25.012 4.42 9.096 7.955 8.84 18.078 5.385 26.729-9.122 61.881-20.112 85.701-10.539z" fill="#f3af79"/><path d="m488.403 440.511c-30.121.84-70.106 12.572-91.51 36.887-1.363 9.482-.896 19.01 1.029 28.43 12.994-29.309 53.538-58.024 106.471-55.315 33.894 1.734 66.372 16.232 92.25 38.057-26.036-33.805-65.991-49.235-108.24-48.059z" fill="#f3af79"/><path d="m355.542 341.654c-3.53-31.594-5.75-62.645-3.763-94.43 1.183-18.918 7.738-38.617 8.028-57.963.506-33.689-22.629-42.828-47.557-20.322-33.14 29.908-68.276 107.082-59.875 183.824.506 9.951 1.479 19.834 2.91 29.551 4.517 30.658 16.217 77.619 50.34 88.666 32.551 10.537 47.678-21.004 52.605-48.26 4.77-26.377.255-54.738-2.688-81.066z" fill="#fff7cf"/><path d="m262.145 492.712c-3.533-8.287-6.893-16.676-9.982-25.182-55.703-12.248-110.477 20.727-139.941 67.346 36.632-41.169 92.923-55.419 149.923-42.164z" fill="#fff7cf"/><path d="m385.095 348.97c.96 5.951 2.085 11.871 3.38 17.75.1-.398.061-.842-.23-1.309 20.293-24.283 61.625-20.354 92.402-8.414-28.482-17.394-62.332-23.222-95.552-8.027z" fill="#fff7cf"/><path d="m645.602 431.833c-35.293-29.811-79.771-48.266-126.605-43.061-30.373 3.379-63.65 13.824-88.317 33.662 22.069-14.133 50.524-21.574 74.641-24.527 36.371-4.455 72.049 5.902 104.537 21.449 32.162 15.389 60.584 37.775 83.305 64.918-14.001-19.319-29.733-37.38-47.561-52.441z" fill="#fff7cf"/><path d="m274.236 687.105c-11.501-47.184-19.032-111.826 7.671-155.725-11.196 3.02-21.998 6.756-30.514 12.207-35.76 22.895-17.338 86.475-4.673 117.758 11.827 29.221 28.292 57.492 48.384 83.141-9.312-18.166-15.988-37.365-20.868-57.381z" fill="#fff7cf"/><path d="m479.143 842.273c.066-.889.082-1.816-.01-2.838-1.282-14.016-9.842-27.166-17.564-38.547-18.049-26.588-37.963-51.369-54.273-79.221-22.48-38.387-40.855-79.299-47.209-123.688-3.639-25.424-9.561-58.123 3.584-82.033-4.941 2.959-8.195 7.936-10.324 13.605-5.275 14.055-5.645 29.76-5.092 44.611.826 22.172 2.871 44.512 8.76 65.973.02.072.041.143.061.215 6.879 18.971 15.893 37.248 26.074 55.004 20.4 35.578 44.135 67.33 69.746 99.125 11.188 13.892 22.925 29.894 26.247 47.794z" fill="#ee9e2b"/><path d="m226.942 541.068c6.533 1.02 10.084-.311 4.518-2.291-20.219-7.186-40.857-9.156-61.285-5.533-29.184 9.643-55.475 32.666-67.175 58.371-11.367 24.98-13.465 57.875-8.26 89.352.146.477.27.957.42 1.432-2.961-27.781.506-56.248 10.568-81.742 20.462-51.85 70.792-67.468 121.214-59.589z" fill="#ee9e2b"/><path d="m728.98 546.637c-10.426 7.229-28.275 4.227-39.539 1.215-33.039-8.834-63.834-29.664-92.911-46.996-20.724-12.354-51.619-32.655-82.111-41.87-3.302-.424-6.632-.75-10.025-.852-9.846-.299-19.382.494-28.583 2.281-10.043 1.949-9.924 3.775-.191 4.725 47.822 4.658 87.509 27.91 128.171 51.721 24.773 14.508 50.453 29.848 78.092 38.186 15.183 4.58 48.553 10.154 47.097-8.41z" fill="#ee9e2b"/><path d="m446.594 363.455c-4.771 1.289-9.33 2.994-13.178 6.658-5.42 5.158-9.768 11.574-12.695 18.473-2.994 7.061-4.94 14.461-5.902 21.994-1.441 11.316.762 10.891 9.799 3.531 20.385-16.605 45.242-27.484 71.439-32.695-12.474-8.649-32.677-18.727-49.463-17.961z" fill="#ee9e2b"/><g fill="#68182b"><path d="m685.727 660.184c-2.273.725-4.502 1.473-6.473 2.852-.226.158-.232.561.083.631 3.404.764 10.167.996 11.837-2.844.117-.271.105-.664-.213-.811-1.826-.842-3.387-.418-5.234.172z"/><path d="m354.149 478.507c.615.959 2.392.342 1.925-.811-15.956-39.328-30.021-78.332-34.849-120.785-5.935-52.16 2.65-103.973 19.725-153.283.242-.703-.894-1.188-1.204-.51-21.501 47.111-29.486 98.953-25.052 150.416 3.719 43.145 15.939 88.319 39.455 124.973z"/><path d="m252.112 315.087c-.021-.281-.453-.377-.517-.07-5.335 25.574-.907 54.182 3.688 79.586 4.666 25.801 11.971 51.074 24.451 74.143.449.836 1.822.264 1.531-.646-7.094-22.365-14.228-44.98-19.41-67.883-6.435-28.44-7.69-56.247-9.743-85.13z"/><path d="m286.76 484.119c.045-.635.482-1.012.309-1.688-.281-1.1-.77-2.084-1.232-3.115-.82-1.824-1.396-4.154-3.004-5.469-.186-.152-.463-.152-.596.076-1.031 1.797-.302 4.162.346 5.967.381 1.057.803 2.104 1.314 3.105.557 1.086 1.227.994 2.096 1.564.345.228.741-.077.767-.44z"/><path d="m738.955 606.609c-12.031 1.746-23.971 4.158-36.074 5.365-11.346 1.133-22.619.557-33.982.51-.354-.004-.379.467-.078.582 20.464 7.791 51.328 4.447 70.578-5.404.63-.322.151-1.139-.444-1.053z"/><path d="m753.15 602.457c-1.525-.092-2.678.588-4.072 1.074-1.599.559-3.121.967-4.553 1.887-.248.16-.262.527 0 .684 2.68 1.596 9.021.848 9.119-3.15.006-.282-.23-.477-.494-.495z"/></g></g></g></svg>