<svg id="Fruit" height="512" viewBox="0 0 992.13 992.13" width="512" xmlns="http://www.w3.org/2000/svg"><g><path d="m812.613 214.022c-18.748-16.777-41.877-30.182-70.707-40.979-30.078-11.264-62.291-16.975-95.744-16.975-22.958 0-45.632 2.705-67.641 8.059 2.473-3.037 5.199-6.111 8.199-9.238.715-.746 2.107-1.906 3.455-3.031 5.383-4.492 13.52-11.283 17.511-22.787 5.634-16.244 1.296-27.408-3.335-33.916-4.762-6.691-14.338-14.67-32.918-14.67-29.283 0-73.43 19.98-73.865 20.182-50.154 23.131-92.152 67.912-112.342 119.791-1.296 3.328-2.542 6.762-3.737 10.281-50.689 11.299-94.096 31.016-129.195 58.709-42.967 33.896-77.454 80.586-102.5 138.77-41.777 97.062-31.993 209.066 26.852 307.289 50.934 85.014 125.634 142.145 216.024 165.212 28.41 7.25 58.123 10.926 88.313 10.926 54.032 0 109.238-11.898 159.65-34.412 61.367-27.407 113.093-72.53 149.586-130.489 36.189-57.479 54.881-123.492 54.059-190.906-.674-55.066-16.129-113.445-44.696-168.826-14.563-28.229-34.999-53.469-61.108-75.537 11.439 3.1 22.701 7.162 33.738 12.176 9.646 4.381 24.221 11.002 31.846 18.482 4.499 4.418 13.889 11.955 26.236 12.861.957.07 1.887.102 2.789.102h.005c9.276 0 17.829-3.527 24.083-9.932 7.316-7.496 11.019-18.318 10.704-31.295-1.154-47.786-42.588-88.505-55.262-99.847z" fill="#fff"/><g><path d="m796.688 231.819c-18.26-16.342-40.342-27.867-63.156-36.41-52.551-19.68-112.553-20.271-165.881-3.469-12.684 3.994-24.523 9.006-35.596 14.861 3.018-12.344 7.588-24.199 13.355-35.598 6.184-12.223 14.631-23.002 24.076-32.848 5.258-5.479 13-9.516 15.635-17.109 12.525-36.113-66.928-3.791-77.553 1.109-44.972 20.74-82.152 60.682-100.085 106.764-2.764 7.098-5.219 14.545-7.369 22.178-47.73 8.938-94.611 26.59-133.028 56.898-42.676 33.668-73.978 79.807-95.354 129.465-40.729 94.621-26.717 198.574 25.402 285.572 45.818 76.477 114.763 132.225 201.442 154.346 77.058 19.664 160.114 10.094 232.317-22.154 116.746-52.137 191.061-171.848 189.503-299.293-.673-55.029-16.94-109.511-42.04-158.169-27.939-54.162-76.675-90.33-130.943-115.16 45.682-6.918 92.224-.182 134.677 19.105 12.905 5.861 28.493 13.17 38.695 23.182 2.845 2.791 7.144 5.785 11.245 6.086 9.906.723 12.165-8.643 11.97-16.729-.74-30.561-25.223-62.858-47.312-82.627z" fill="#68182b"/><path d="m814.619 269.104c5.904 9.34 4.609 9.852-4.277 3.037-23.285-17.852-53.022-28.441-80.932-33.883-6.67-1.301-13.389-2.291-20.139-3.004-11.949-1.264-9.839-2.977-2.107-5.998 3.928-1.531 7.879-3.133 11.92-4.654 9.37-3.533 19.07-6.104 29.03-7.215 16.378-1.834 45.111 17.877 66.505 51.717z" fill="#b1d045"/><path d="m735.002 207.036c10.805 4.541 6.973 7.078-4.098 9.963-9.119 2.375-17.496 6.74-26.321 9.945-20.069 7.287-56.931 6.76-85.968 13.434-12.486 2.869-13.729.842-6.881-6.553 4.064-4.385 7.953-8.945 12.119-13.262 8.354-8.66 18.235-15.619 28.839-21.221 22.417-11.836 55.078-3.748 82.31 7.694z" fill="#b1d045"/><path d="m645.582 190.387c12.543.414 10.352 3.145 2.646 7.395-5.129 2.828-10.004 6.09-14.492 9.443-8.831 6.596-16.072 14.83-23.334 23.043-11.783 13.322-22.787 17.094-39.715 22.926-7.192 2.479-14.412 5.238-21.596 8.279-9.7 4.107-15.752 5.865-8.746-7.055 2.045-3.768 3.938-7.555 5.762-11.174 23.836-47.294 58.227-54.212 99.475-52.857z" fill="#b1d045"/><path d="m557.078 206.844c13.896-5.479 10.859-1.629 4.164 6.291-3.848 4.551-7.336 9.438-10.523 14.428-6.158 9.637-10.504 20.307-16.167 30.23-10.206 17.883-21.249 19.953-43.795 35.855-8.545 6.027-14.364 10.443-11.512-2.387 1.926-8.658 3.051-17.471 4.998-26.129 3.835-17.033 12.703-23.221 32.054-36.625 12.761-8.839 26.469-16.012 40.781-21.663z" fill="#b1d045"/><path d="m463.816 258.079c7.021-3.848 6.522-1.484 1.991 4.25-10.287 13.01-19.162 27.172-26.691 42.18-4.752 9.469-6.691 7.275-4.217-3.982 1.07-4.871 2.234-9.725 3.52-14.559 2.98-11.2 11.171-20.091 25.397-27.889z" fill="#b1d045"/><path d="m451.661 249.594c12.492-27.932 27.132-46.529 50.951-54.037 4.24-1.336 9.037-2.176 13.689-3.338 9.62-2.404 9.342-2.516 6.693 7.291-1.256 4.652-2.301 9.334-3.11 14.012-.017.096-.009.184-.021.281-13.309 8.254-25.371 17.828-36.203 28.523-7.929 4.676-15.941 9.207-24.32 13.313-10.015 4.908-14.644 9.522-7.679-6.045z" fill="#b1d045"/><path d="m433.863 342.36c9.146-27.086 22.231-52.467 40.14-74.58 9.624-11.877 6.232-1.145 4.355 9.486-1.535 8.691-2.979 17.32-5.77 25.719-2.488 7.486-20.719 24.404-33.746 40.756-7.826 9.82-8.763 9.832-4.979-1.381z" fill="#b1d045"/><path d="m466.247 349.024c18.194-5.793 12.97 1.613 6.237 7.816-16.908 15.57-31.253 32.953-40.925 51.807-2.652 4.604-5.213 9.264-8.002 13.771-3.047 4.922-7.01 9.084-4.83-8.357 5.363-42.795 20.1-56.307 47.52-65.037z" fill="#b1d045"/><path d="m449.118 351.622c-8.316 4.244-11.039 3.539-5.172-4.381 23.908-32.262 53.92-52.85 69.949-54.621 11.331-1.252 22.998.029 34.291 1.09 14.064 1.322 14.094 4.568 1.541 10.586-13.684 6.557-27.508 14.141-40.16 23.605-21.203 15.857-26.996 6.642-60.449 23.721z" fill="#b1d045"/><path d="m538.302 161.991c-1.694 2.977-3.287 6.023-4.78 9.125-4.4 9.168-3.629 13.168-12.455 15.143-8.48 1.896-15.326 3.213-29.537 9.816-9.72 4.514-12.795 6.213-4.311-5.359 16.746-22.83 28.322-31.225 48.548-35.35 7.49-1.526 5.77.939 2.535 6.625z" fill="#b1d045"/><path d="m565.609 128.233c-18.221 17.504-13.518 18.834-33.043 23.998-5.104 1.35-11.08 1.734-3.885-4.102 11.166-9.059 23.167-17.084 35.947-23.855 7.565-4.012 6.737-1.576.981 3.959z" fill="#b1d045"/><path d="m555.107 116.875c6.85-1.641 10.305-.352 2.641 3.908-25.889 14.395-48.145 33.848-67.173 56.449-6.727 7.992-8.35 9.422-6.173-.664.669-3.105 1.3-6.184 2.01-9.15 8.283-34.591 34.139-42.238 68.695-50.543z" fill="#b1d045"/><path d="m482.358 149.887c13.398-9.9 8.887-6.256 4.355 4.961-2.873 7.115-4.793 14.34-6.211 21.863-3.824 20.268-18.235 42.779-27.951 59.098-6.879 11.557-7.008 10.188-8.848.08-.918-5.031-2.078-10.004-2.95-14.732-4.803-26.084 9.621-47.647 41.605-71.27z" fill="#b1d045"/><path d="m413.007 244.415c4.202-13.318 9.984-25.932 17.083-37.715 7.016-11.646 6.594-6.256 6.199 2.25-.32 6.875 1.041 13.76 2.413 20.451 5.083 24.746 1.781 29.748-3.026 43.791-3.002 8.777-5.385 17.732-7.38 26.793-3.048 13.842-3.815 15.518-8.599 5.148-1.518-3.287-3.15-6.486-4.677-9.576-11.135-22.562-7.027-35.238-2.013-51.142z" fill="#b1d045"/><path d="m403.22 292.698c1.13-13.658 2.053-11.238 6.009-1.275 1.711 4.311 3.785 8.486 5.887 12.625 9.09 17.887 7.491 29.461 4.871 45.746-1.59 9.842-3.958 17.705-9.52 3.09-7.187-18.874-8.945-39.622-7.247-60.186z" fill="#b1d045"/><path d="m403.711 364.288c2.67 5.686 5.828 11.176 9.545 16.402-2.168 10.641-3.845 21.42-5.048 32.273-1.483 13.316-3.19 15.076-8.429 5.797-2.219-3.928-4.354-7.908-6.414-11.936-3.318-6.482-5.447-12.418-6.146-19.703-1.067-11.113 8.068-17.79 16.492-22.833z" fill="#b1d045"/><path d="m764.025 393.616c20.343 35.787 33.964 75.129 41.299 115.574 19.794 109.115-23.974 222.451-108.483 293.027-66.995 55.951-157.157 80.184-243.35 73.732-96.202-7.205-176.092-57.66-231.934-134.826-60.936-84.203-80.473-188.787-44.996-287.269 36.346-100.891 117.11-169.834 220.68-191.275-6.939 30.396-7.93 63.17 2.406 91.908-14.398 8.748-24.244 19.246-22.507 37.344 1.376 14.328 10.376 29.396 19.081 42.295 4.4 6.521 1.873 12.424-6.113 15.904-10.162 4.428-19.789 8.084-31.264 10.217-6.15 1.145-7.063 3.787-1.07 4.258 22.045 1.732 45.65-6.707 62.268-20.348 9.885-8.113 15.514-19.717 22.332-30.248 6.76-10.441 13.789-20.848 20.889-31.148 11.406-12.225 24.47-23.15 36.969-33.129 35.808-28.576 77.697-49.854 121.937-61.631 2.375-.633 4.762-1.178 7.147-1.734 53.762 22.183 105.362 55.722 134.709 107.349z" fill="#ff8e5b"/><path d="m644.985 272.887c-14.104 2.189-28.063 5.486-41.828 9.787-22.515 7.029-20.308 8.793-64.463 5.514-2.289-.168-4.684-.311-7.151-.398-9.563-.346-17.395-1.789-3.387-9.244 33.985-18.08 60.625-24.734 75.081-24.51 11.323.172 22.528 2.744 33.292 6.092 3.85 1.197 7.734 2.844 11.658 4.637 10.879 4.972 3.444 7.087-3.202 8.122z" fill="#b1d045"/><path d="m754.59 279.922c-11.959-3.693-24.215-6.424-36.498-8.053-26.055-3.455-42.265.77-61.021-7.783-9.535-4.346-19.143-8.027-29.328-10.576-8.205-2.053-21.006-4.809-2.148-8.145 58.781-10.408 74.086-6.445 89.609-1.387 12.648 4.121 22.735 12.803 32.064 21.938 2.353 2.303 4.677 4.672 7.027 7.021 7.957 7.937 6.641 8.942.295 6.985z" fill="#b1d045"/><path d="m824.127 313.834c-33.357-22.027-46.211-26.01-80.951-57.451-11.301-10.229-10.964-11.861 4.021-7.758 25.987 7.117 51.58 19.457 70.273 38.002 11.828 11.733 25.854 39.887 6.657 27.207z" fill="#b1d045"/><path d="m800.178 257.125c-7.275-6.322-16.281-10.141-25.24-13.365-22.291-8.023-44.856-9.457-68.018-8.787.72.098 1.489.191 2.352.281 6.75.713 13.469 1.703 20.139 3.004 27.909 5.441 57.646 16.031 80.932 33.883 2.143 1.643 3.823 2.838 5.088 3.607-4.531-6.714-8.928-13.124-15.253-18.623z" fill="#abab38"/><path d="m747.654 272.905c-11.631-7.836-25.676-8.959-39.328-9.426-8.353-.289-16.576-.076-24.855-1.469-7.625-1.283-14.988-4.209-22.297-6.637-12.906-4.287-25.258-5.227-38.234-3.076 1.604.428 3.282.832 4.803 1.213 10.186 2.549 19.793 6.23 29.328 10.576 18.757 8.553 34.967 4.328 61.021 7.783 12.283 1.629 24.539 4.359 36.498 8.053.309.094.547.146.83.229-2.34-2.807-4.916-5.324-7.766-7.246z" fill="#abab38"/><path d="m803.893 288.206c-10.157-7.727-22.386-12.613-33.939-17.805-11.521-5.176-21.439-10.928-31.189-18.184 1.189 1.193 2.639 2.563 4.412 4.166 34.74 31.441 47.594 35.424 80.951 57.451 1.357.896 2.533 1.57 3.57 2.078-5.252-10.904-13.928-20.191-23.805-27.706z" fill="#abab38"/><path d="m428.296 299.985c1.995-9.061 4.378-18.016 7.38-26.793 4.808-14.043 8.109-19.045 3.026-43.791-.632-3.084-1.245-6.211-1.71-9.357-5.309 7.498-4.932 19.012-4.965 27.615-.029 7.891.658 15.535-.943 23.346-2.019 9.842-13.84 18.439-21.768 9.33 1.105 4.598 2.932 9.602 5.704 15.223 1.526 3.09 3.159 6.289 4.677 9.576 4.784 10.368 5.552 8.693 8.599-5.149z" fill="#abab38"/><path d="m566.988 241.506c-3.629 4.184-6.945 8.619-10.612 12.771-3.62 4.098-7.806 6.891-12.344 9.195 1.512-.527 3.22-1.221 5.06-2 7.184-3.041 14.403-5.801 21.596-8.279 16.928-5.832 27.932-9.604 39.715-22.926 7.262-8.213 14.503-16.447 23.334-23.043 4.488-3.354 9.363-6.615 14.492-9.443 1.141-.629 2.142-1.221 3.01-1.779-22.217 1.125-42.184 8.006-60.027 21.635-9.021 6.889-16.812 15.324-24.224 23.869z" fill="#abab38"/><path d="m431.559 408.647c9.672-18.854 24.017-36.236 40.925-51.807 2.205-2.031 4.231-4.186 5.342-5.971-13.034 5.605-24.907 13.781-34.044 24.707-10.164 12.143-20.486 31.627-21.324 48.508.371-.521.742-1.088 1.1-1.666 2.788-4.507 5.349-9.168 8.001-13.771z" fill="#abab38"/><path d="m594.586 271.702c-12.836 2.844-24.943 8.332-37.752 11.352-10.113 2.383-21.486 1.801-31.668 4.217 1.83.283 4.048.436 6.377.52 2.468.088 4.862.23 7.151.398 44.155 3.279 41.948 1.516 64.463-5.514 13.765-4.301 27.724-7.598 41.828-9.787.075-.012.153-.027.229-.039-16.622-3.925-33.958-4.839-50.628-1.147z" fill="#abab38"/><path d="m730.904 216.999c2.365-.617 4.375-1.219 6.006-1.826-19.288-4.938-40.908-1.441-59.806 3.381-22.192 5.66-41.937 17.305-63.979 22.695-.625.107-1.254.246-1.882.355 1.771-.09 4.208-.498 7.372-1.227 29.037-6.674 65.898-6.146 85.968-13.434 8.825-3.204 17.202-7.569 26.321-9.944z" fill="#abab38"/><path d="m549.727 304.295c3.965-1.902 6.668-3.525 8.076-4.898-16.717-.328-34.276 4.611-48.936 10.928-23.992 10.336-42.312 28.842-63.869 43.131 1.171-.434 2.504-1.01 4.119-1.834 33.453-17.078 39.246-7.863 60.449-23.721 12.653-9.465 26.477-17.049 40.161-23.606z" fill="#abab38"/><path d="m534.552 257.793c5.663-9.924 10.009-20.594 16.167-30.23 2.524-3.955 5.301-7.793 8.234-11.5-15.824 7.162-28.51 18.789-39.176 32.682-6.52 8.486-11.996 17.799-17.283 27.084-2.629 4.615-5.273 9.174-8.271 13.563-1.184 1.734-2.541 3.209-3.957 4.604.164-.117.322-.229.49-.346 22.547-15.903 33.59-17.974 43.796-35.857z" fill="#abab38"/><path d="m439.116 304.508c6.986-13.924 15.185-27.078 24.539-39.303-7.425 5.623-13.543 12.758-19.594 20.033-2.493 2.998-5.305 6.125-7.752 9.455-.461 1.947-.982 3.883-1.41 5.832-2.475 11.259-.535 13.452 4.217 3.983z" fill="#abab38"/><path d="m484.698 199.094c1.588-.564 3.9-1.658 6.832-3.02 14.21-6.604 21.056-7.92 29.537-9.816 8.826-1.975 8.055-5.975 12.455-15.143 1.135-2.357 2.382-4.648 3.633-6.936-6.756 4.412-14.357 7.395-22.03 11.053-11.298 5.388-22.417 13.995-30.427 23.862z" fill="#abab38"/><path d="m532.566 152.231c18.555-4.906 15.271-6.383 30.531-21.535-13.307 4.551-24.348 14.205-36.184 22.344 1.423.111 3.601-.266 5.653-.809z" fill="#abab38"/><path d="m459.34 255.639c8.379-4.105 16.392-8.637 24.32-13.313 10.832-10.695 22.894-20.27 36.203-28.523.012-.098.004-.186.021-.281.491-2.834 1.095-5.666 1.753-8.496-18.357 18.908-49.906 23.723-68.982 42.416-.329.721-.666 1.42-.994 2.152-6.965 15.567-2.336 10.953 7.679 6.045z" fill="#abab38"/><path d="m451.178 208.625c-3.854 5.213-7.66 12.219-9.063 19.303.547 2.621 1.098 5.277 1.588 7.961 1.84 10.107 1.969 11.477 8.848-.08 9.716-16.318 24.127-38.83 27.951-59.098.238-1.262.514-2.504.781-3.752-3.01 6.07-6.857 11.625-11.732 16.818-5.986 6.38-13.14 11.77-18.373 18.848z" fill="#abab38"/><path d="m484.402 176.569c-2.177 10.086-.554 8.656 6.173.664 15.531-18.449 33.256-34.744 53.31-47.957-20.143 8.715-45.412 16.719-56.302 34.025-.406 1.35-.826 2.676-1.171 4.117-.71 2.967-1.341 6.045-2.01 9.151z" fill="#abab38"/><path d="m394.215 408.407c1.806 3.482 3.641 6.947 5.564 10.354 5.238 9.279 6.945 7.52 8.429-5.797 1.203-10.854 2.88-21.633 5.048-32.273-1.707-2.4-3.267-4.871-4.744-7.375.815 13.282-4.734 25.948-14.297 35.091z" fill="#abab38"/><path d="m419.987 349.793c2.443-15.184 3.99-26.279-3.18-42.207.664 3.084 1.209 6.205 1.518 9.436.391 4.115.008 8.266-.595 12.334-.421 2.408-1.128 4.732-2.12 6.975-1.883 4.527-4.895 5.867-8.998 4.131 1.064 4.209 2.311 8.365 3.855 12.422 5.562 14.615 7.93 6.751 9.52-3.091z" fill="#abab38"/><path d="m472.588 302.985c2.791-8.398 4.234-17.027 5.77-25.719.762-4.309 1.758-8.607 2.049-11.439-7.244 14.984-13.115 30.523-21.025 45.307-3.96 7.398-8.104 14.613-12.706 21.633-3.302 5.037-7.898 9.34-10.788 14.592.85-1.006 1.822-2.195 2.955-3.617 13.027-16.353 31.257-33.271 33.745-40.757z" fill="#abab38"/><path d="m489.333 274.448c-.113.68.872 1.238 1.203.506 4.507-9.9 10.146-19.357 16.733-28.016.364-.479-.335-1.119-.811-.811-9.932 6.483-15.198 16.832-17.125 28.321z" fill="#d7e338"/><path d="m559.291 236.198c-.145.393.448.744.715.414 3.926-4.82 7.864-9.736 12.129-14.262 4.732-5.023 10.336-9.111 15.563-13.58.48-.412-.029-1.229-.609-1.045-13.027 4.088-23.214 15.957-27.798 28.473z" fill="#d7e338"/><path d="m677.227 205.487c-16.076-.186-33.706 6.838-42.613 20.672-.271.422.26.924.676.676 6.365-3.803 12.398-8.063 18.973-11.518 7.242-3.807 15.391-5.643 23.262-7.631 1.242-.314.952-2.186-.298-2.199z" fill="#d7e338"/><path d="m726.634 230.793c-.348.139-.341.758.097.711 10.953-1.111 21.76-.266 32.718-.1.66.01.981-.982.35-1.287-10.246-4.962-22.922-3.351-33.165.676z" fill="#d7e338"/><path d="m681.926 206.141c-.428.35-.115.934.29 1.1 2.991 1.227 5.505 1.256 8.473-.127.708-.33.71-1.545 0-1.875-3.189-1.483-6.036-1.344-8.763.902z" fill="#d7e338"/><path d="m588.676 261.975c-11.645-.836-24.73 2.547-33.453 10.416-.303.273.016.758.385.66 11.055-2.898 22.891-5.242 33.418-9.789.689-.299.261-1.244-.35-1.287z" fill="#d7e338"/><path d="m592.206 262.032c1.224 1.318 2.943 1.146 4.501.613 1.029-.352 1.925-1.439 1.355-2.465-1.587-2.853-7.419.164-5.856 1.852z" fill="#d7e338"/><path d="m665.557 246.737c-.855.09-.838 1.207 0 1.316 16.146 2.107 31.99 5.826 48.182 7.604.871.094 1.23-1.293.449-1.656-15.469-7.209-31.715-9.042-48.631-7.264z" fill="#d7e338"/><path d="m794.317 273.936c-4.04-7.898-15.618-9.316-23.444-10.086-.381-.037-.559.584-.2.736 7.584 3.227 14.997 8.066 22.938 10.268.555.154.952-.443.706-.918z" fill="#d7e338"/><path d="m510.27 300.083c-12.762 1.879-23.462 9.811-31.972 19.129-.348.379.094.996.557.723 10.59-6.26 21.803-11.551 32.025-18.408.778-.527.26-1.575-.61-1.444z" fill="#d7e338"/><path d="m398.341 374.586c-6.163 5.223-9.858 17.137-4.454 23.891.41.514 1.377.359 1.654-.213 1.709-3.514 1.805-6.619 2.365-10.441.615-4.199 1.932-8.23 2.287-12.469.088-1.031-1.202-1.318-1.852-.768z" fill="#d7e338"/><path d="m409.817 312.858c-1.746 7.547-2.674 15.412 1.191 22.381.337.609 1.434.541 1.563-.203 1.29-7.443-.318-14.879-2.055-22.178-.082-.346-.619-.348-.699 0z" fill="#d7e338"/><path d="m422.529 236.286c-7.108 10.912-12.667 30.727-5.606 42.691.46.781 1.6.588 1.863-.242 2.25-7.115 1.81-14.639 3.012-21.967 1.127-6.869 2.624-13.166 1.896-20.168-.065-.609-.807-.865-1.165-.314z" fill="#d7e338"/><path d="m468.565 171.03c-10.834 4.699-19.287 16.42-20.32 28.184-.068.771 1.021 1.18 1.518.629 7.671-8.498 11.199-19.881 19.561-27.832.553-.528-.15-1.247-.759-.981z" fill="#d7e338"/><path d="m473 164.252c-1.313.662-3.43 3.711-1.17 4.654 2.732 1.143 6.396-2.65 3.438-4.654-.682-.46-1.574-.347-2.268 0z" fill="#d7e338"/><path d="m479.463 221.079c7.839-5.08 16.85-8.508 23.871-14.793.432-.389.106-1.23-.49-1.182-10.181.859-18.294 7.197-24.234 15.121-.383.508.351 1.18.853.854z" fill="#d7e338"/><path d="m718.633 757.387c-40.405 39.592-90.105 68.867-145.086 82.646-50.679 12.705-105.341 13.574-156.724 4.953-89.145-14.955-167.49-65.068-213.721-143.281-23.246-39.328-37.28-82.74-43.498-127.428 3.992 59.119 25.598 116.611 61.953 166.846 55.842 77.166 135.731 127.621 231.934 134.826 86.193 6.451 176.355-17.781 243.35-73.732 45.597-38.078 79.302-88.615 97.594-144.209-19.826 36.797-46.156 70.33-75.802 99.379z" fill="#ff564d"/><path d="m463.935 423.86c26.391-26.51 48.823-56.754 81.477-76.18 37.482-22.295 82.513-27.783 124.75-18.836 21.832 4.625 42.605 13.027 62.377 23.48-28.688-29.191-65.402-50.453-103.224-66.059-2.386.557-4.772 1.102-7.147 1.734-44.239 11.777-86.129 33.055-121.937 61.631-12.5 9.979-25.563 20.904-36.969 33.129-7.1 10.301-14.129 20.707-20.889 31.148-6.818 10.531-12.447 22.135-22.332 30.248-10.074 8.271-22.729 14.58-36.035 17.918 31.712 2.465 57.949-16.135 79.929-38.213z" fill="#ff564d"/><g fill="#fbc471"><path d="m692.615 523c-15.17-24.539-36.868-44.828-62.035-58.83-19.395-10.793-42.541-19.279-65.516-21.646-15.123-1.563-29.85-2.629-6.777 15.461 15.76 12.355 31.755 24.217 45.969 38.754 20.647 21.121 38.352 44.792 53.238 70.283 23.383 40.039 36.42 83.033 43.318 127.871 4.305 28.004 11.607 27.77 17.459-1.316 11.59-57.616 5.102-120.823-25.656-170.577z"/><path d="m324.573 622.504c-.292-39.197 7.309-76.309 19.807-112.861 1.736-5.08-3.75-7.625-7.701-3.416-61.381 65.359-51.457 174.863-1.84 245.992 8.342 11.957 12.992 8.795 9.225-5.545-10.704-40.756-19.171-81.524-19.491-124.17z"/><path d="m352.426 384.247c-27.322-24.744-81.6-13.174-111.575 10.576-14.362 11.377-13.356 15.199 2.259 8.777 13.004-5.348 26.77-9.047 40.964-11.135 21.458-3.154 42.175-.521 62.901 3.561 9.592 1.891 19.564.996 5.451-11.779z"/><path d="m476.429 523.711c-16.534-38.773-42.213-69.455-27.687 12.957 8.458 47.986 8.684 64.639 7.574 92.57-1.061 26.58-3.582 53.047-2.262 79.689 1.189 23.922 6.178 47.711 17.494 67.482 25.258 44.125 47.717 47.693 52.679-20.949 3.996-55.314.83-117.692-47.798-231.749z"/><path d="m714.477 460.528c-5.175-14.777-20.531-28.508-35.701-32.182-.219-.051-.351.248-.152.363 6.941 4.061 13.559 8.467 19.461 13.971 5.904 5.508 10.188 12.361 15.568 18.328.324.362.989-.015.824-.48z"/><path d="m721.037 466.262c.23.26.729.137.798-.209.901-4.473-2.536-10.189-6.718-11.936-.178-.074-.313.133-.284.285.401 2.066 1.519 3.896 2.439 5.77 1.082 2.202 2.121 4.254 3.765 6.09z"/><path d="m560.286 524.33c-.273-.23-.646.053-.489.381 4.723 9.877 12.666 18.176 19.422 26.695 8.034 10.127 13.945 21.352 20.93 32.145.363.563 1.471.41 1.379-.373-1.225-10.523-6.417-19.174-12.863-27.496-8.49-10.957-17.757-22.395-28.379-31.352z"/><path d="m604.834 576.896c-.208-.117-.465-.01-.533.217-.545 1.828.357 3.861.902 5.602.795 2.523 1.325 4.859 2.911 7.014.179.244.64.35.794 0 1.131-2.541.502-4.531-.43-7.053-.736-1.994-1.701-4.682-3.644-5.78z"/><path d="m394.247 628.594c.172.5 1.012.453.969-.131-1.305-17.75-4.061-35.303-5.021-53.098-.967-17.85-.486-35.859-2.582-53.623-.039-.34-.487-.34-.526 0-2.087 17.725-1.579 35.826-.738 53.623.841 17.817 2.026 36.276 7.898 53.229z"/><path d="m388.32 623.389c-.106-.234-.532-.188-.571.076-1.193 8.346 2.654 18.428 7.711 24.971.23.297.803.055.759-.314-.522-4.393-2.03-8.318-3.519-12.459-1.465-4.083-2.564-8.331-4.38-12.274z"/><path d="m338.551 443.969c-16.992.854-33.414 7.92-47.695 16.848-11.867 7.42-28.596 20.271-31.131 34.896-.037.221.232.342.363.152 9.369-13.664 21.729-24.373 35.792-33.084 13.353-8.268 28.707-11.568 42.944-17.801.503-.218.245-1.038-.273-1.011z"/><path d="m338.949 435.934c-2.722.4-5.811 1.092-7.028 3.83-.115.262.022.52.313.547 2.441.215 4.776-.611 7.191-.861 2.432-.25 4.602-.617 6.982-1.133.414-.088.486-.705.117-.9-2.535-1.346-4.682-1.911-7.575-1.483z"/><path d="m364.286 313.385c5.705 6.424 8.965 15.463 16.067 20.396.417.289.956-.102.967-.555.21-9.168-7.194-17.373-12.999-23.875-6.544-7.328-15.451-12.619-25.143-14.26-.26-.043-.399.268-.18.422 7.719 5.333 15.034 10.827 21.288 17.872z"/><path d="m381.483 318.557c.326.219.726-.074.742-.426.082-1.871-.168-2.801-1.22-4.412-.79-1.211-2.054-2.104-3.409-2.543-.17-.055-.393.098-.373.287.139 1.361.608 2.547 1.16 3.789.721 1.625 1.699 2.373 3.1 3.305z"/><path d="m690.564 389.389c-9.967-13.309-28.789-19.551-44.094-24.289-16.74-5.186-36.812-7.738-53.477-1.232-.27.105-.243.508.07.516 17.759.473 34.617 1.551 51.769 6.652 15.83 4.711 29.345 14.543 44.935 19.393.553.171 1.178-.532.797-1.04z"/><path d="m693.75 385.819c1.883 1.564 3.82 2.893 5.811 4.313.314.221.777-.148.652-.502-1.559-4.465-5.898-9.178-10.961-9.404-.314-.016-.471.342-.341.594 1.066 2.073 3.081 3.542 4.839 4.999z"/><path d="m363.028 684.912c-.086-.275-.533-.236-.517.068.896 17.58 3.741 35.107 7.456 52.297 3.771 17.445 8.725 34.561 19.287 49.133.402.555 1.402.244 1.172-.496-5.198-16.688-11.274-33.016-15.447-50.02-4.164-16.955-6.695-34.308-11.951-50.982z"/><path d="m264.923 560.129c.087-.479-.601-.855-.841-.354-15.002 31.318-8.145 73.285 2.283 105.002.201.609 1.209.537 1.164-.158-1.049-16.363-3.971-32.395-5.504-48.707-1.763-18.746-.439-37.291 2.898-55.783z"/><path d="m257.504 651.172c-.146-.375-.66-.41-.795 0-2.561 7.861 2.105 17.113 6.375 23.477.264.393.785.131.723-.303-.561-3.871-1.355-7.34-2.674-11.027-1.425-3.983-2.092-8.214-3.629-12.147z"/><path d="m710.421 499.246c-.364-.141-.683.41-.385.66 14.884 12.318 26.229 26.537 35.028 43.771 8.215 16.096 12.418 33.775 19.488 50.338.248.574 1.15.262 1.137-.307-.482-19.639-7.965-38.355-16.947-55.625-8.366-16.079-20.926-32.188-38.321-38.837z"/><path d="m769.901 565.691c-.934-2.521-2.598-5.963-5.444-6.674-.188-.045-.375.092-.375.287-.01 2.787 1.508 5.785 2.311 8.434.969 3.195 1.811 6.137 3.945 8.775.234.293.781.133.852-.223.74-3.718.009-7.093-1.289-10.599z"/><path d="m570.375 627.471c6.976 21.514 13.433 42.965 17.738 65.199 4.732 24.459 6.471 49.66 8.59 74.457.063.742 1.094.746 1.151 0 3.616-46.588-3.544-98.775-27.058-139.834-.128-.223-.503-.074-.421.178z"/><path d="m604.688 743.959c.381 5.299-.913 10.314.652 15.545.107.361.621.363.729 0 1.641-5.488.287-10.238-.766-15.629-.069-.344-.641-.268-.615.084z"/><path d="m501.957 480.385c-.271-.209-.611.186-.45.451 3.241 5.371 6.698 10.619 9.78 16.086 2.684 4.751 4.438 10.498 8.212 14.484.497.523 1.269.088 1.321-.547.467-5.775-3.186-11.203-6.007-16-3.301-5.612-7.717-10.517-12.856-14.474z"/><path d="m590.505 410.034c-12.583-7.764-31.755-18.537-46.746-11.779-.302.135-.128.568.158.582 16.567.654 30.483 7.992 46.208 12.098.547.144.857-.606.38-.901z"/><path d="m597.146 406.018c.403.156.79-.381.558-.723-3.337-4.957-8.244-5.725-13.671-7.121-.426-.109-.59.424-.279.662 4.184 3.192 8.498 5.295 13.392 7.182z"/><path d="m366.565 482.075c.02-.295-.378-.359-.52-.143-5.484 8.422-8.984 21.705-8.076 31.736.063.678.926.795 1.164.158 1.905-5.082 2.794-10.523 3.988-15.807 1.204-5.317 3.114-10.477 3.444-15.944z"/><path d="m275.562 443.606c-12.031 1.943-23.224 8.645-32.669 16.119-8.229 6.514-18.299 15.248-18.777 26.563-.014.342.483.475.645.174 11.309-21.18 31.224-30.521 51.244-41.803.609-.344.167-1.153-.443-1.053z"/><path d="m264.551 440.903c6.288-1.318 12.486-3.732 18.383-6.23.37-.158.171-.75-.199-.736-6.314.209-14.559.76-18.48 6.58-.139.204.086.431.296.386z"/></g><path d="m365.875 415.577c-26.667-13.297-65.45-16.377-92.417-1.863-.25.137-.146.572.15.551 14.963-1.072 29.351-3.664 44.451-3.277 15.945.408 31.637 4.271 47.525 5.664.569.048.791-.823.291-1.075z" fill="#68182b"/><path d="m445.842 423.518c-3.4 5.773-7.674 11.521-12.254 16.418-4.707 5.037-10.609 9.109-14.877 14.523-.195.248-.025.639.32.549 14.244-3.629 26.803-16.453 27.854-31.209.041-.572-.773-.74-1.043-.281z" fill="#68182b"/><path d="m787.303 567.814c-.873 21.586-3.6 43.117-7.635 64.332-2.971 15.623-5.373 31.721-9.525 47.064-.167.615.768 1.045 1.053.443 16.503-34.799 21.242-73.658 22.769-111.84 1.915-47.959-4.3-98.845-30.776-139.929-.175-.27-.567-.033-.428.252 21.169 43.064 26.46 92.264 24.542 139.678z" fill="#68182b"/><path d="m762.596 699.578c3.488-2.592 6.991-8.033 5.707-12.604-.108-.387-.569-.387-.783-.104-1.273 1.705-1.922 3.842-2.869 5.736-1.049 2.098-2.104 4.078-2.997 6.246-.209.509.507 1.05.942.726z" fill="#68182b"/><path d="m193.848 645.236c-4.877-14.785-8.601-29.922-11.475-45.215-6.287-33.482-5.432-66.564-6.078-100.396-.006-.307-.482-.391-.549-.074-6.395 30.977-5.076 63.996-.463 95.131 4.898 33.051 14.572 68.082 31.773 96.943.364.613 1.405.211 1.173-.496-2.306-6.951-3.36-14.168-5.716-21.158-2.788-8.282-5.928-16.434-8.665-24.735z" fill="#68182b"/><path d="m613.664 470.602c.537.455 1.48-.139 1.033-.797-18.791-27.557-50.429-51.322-84.82-53.355-.396-.023-.416.523-.087.646 16.028 5.92 31.251 12.158 45.538 21.67 13.727 9.137 25.778 21.195 38.336 31.836z" fill="#68182b"/><path d="m625.179 483.088c.276.164.612-.105.532-.41-.228-.85-.304-1.895-.754-2.662-.504-.861-1.303-1.641-1.932-2.408-.615-.75-1.348-1.455-2.121-2.043-.734-.559-1.658-.826-2.377-1.4-.213-.17-.609.063-.412.32 1.041 1.355 1.477 3.111 2.573 4.5.708.895 1.423 1.783 2.122 2.684.501.646 1.68 1.005 2.369 1.419z" fill="#68182b"/><path d="m372.298 501.732c-.007-.449-.649-.535-.776-.105-9.547 32.859-6.912 70.289-4.638 104.014 1.905 28.242 4.472 57.076 12.186 84.406.177.627 1.138.504 1.132-.152-.248-27.01-4.986-53.85-7.133-80.744-2.869-35.981-.209-71.491-.771-107.419z" fill="#68182b"/><path d="m382.27 697.471c-.164-.518-.928-.549-1.078 0-1.962 7.146.626 17.348 4.453 23.492.184.295.637.172.645-.174.099-3.875-.753-7.326-1.637-11.086-.955-4.045-1.119-8.271-2.383-12.232z" fill="#68182b"/><path d="m651.246 743.256c1.229-32.26-8.692-64.023-21.135-93.455-13.326-31.525-32.874-60.318-58.615-82.971-.271-.24-.629.121-.395.395 21.326 24.945 38.846 52.676 52.103 82.691 13.23 29.955 18.991 61.936 26.847 93.504.17.684 1.171.51 1.195-.164z" fill="#68182b"/><path d="m651.14 749.459c-.928 1.846-1.021 3.764-1.004 5.809.022 2.645-.073 5.23.775 7.766.126.377.591.428.811.105 2.452-3.545 1.763-10.016-.183-13.68-.078-.146-.321-.152-.399 0z" fill="#68182b"/><path d="m609.12 374.633c35.69 9.613 66.345 30.146 92.411 55.844.424.418 1.063-.107.799-.617-8.307-16.076-24.457-26.998-39.596-36.139-16.23-9.799-34.561-17.701-53.521-19.766-.395-.042-.459.581-.093.678z" fill="#68182b"/><path d="m707.76 424.381c3.009 3.664 4.996 8.16 8.375 11.502.543.537 1.287-.021 1.184-.689-1.467-9.166-10.33-17.682-18.533-21.064-.184-.074-.34.207-.193.33 3.401 2.841 6.356 6.505 9.167 9.921z" fill="#68182b"/><path d="m472.065 548.137c3.607 19.949 7.137 43.207 16.634 61.283.232.441 1.045.264.981-.266-2.459-20.318-9.979-42.021-17.139-61.148-.113-.299-.533-.184-.476.131z" fill="#68182b"/><path d="m481.417 604.84c-.859 6.205 1.908 13.115 6.289 17.348.404.393 1.074.002.934-.543-1.436-5.643-3.432-11.889-6.531-16.895-.155-.248-.645-.254-.692.09z" fill="#68182b"/><path d="m313.198 475.118c-13.67 5.594-21.338 20.141-26.818 33.015-6.148 14.447-11.121 31.457-9.471 47.311.064.605.914.787 1.1.148 8.572-29.416 12.816-57.313 35.478-79.978.195-.196-.003-.614-.289-.496z" fill="#68182b"/><path d="m314.147 484.569c-6.438 4.639-10.635 14.539-9.74 22.429.049.439.563.605.826.225 2.123-3.068 2.84-6.482 3.949-9.996 1.309-4.142 3.17-8.464 5.46-12.162.183-.297-.193-.713-.495-.496z" fill="#68182b"/><path d="m358.33 343.788c3.02 2.949 7.136 10.307 11.817 10.174.406-.012.705-.32.724-.725.218-4.854-7.616-10.391-10.838-13.387-4.651-4.322-10.743-8.129-17.269-7.922-.232.008-.354.346-.125.461 6.006 2.996 10.901 6.717 15.691 11.399z" fill="#68182b"/><path d="m365.637 337.403c.941.799 1.76 1.707 2.592 2.613 1.695 1.832 2.572 3.945 4.828 5.223.352.199.703-.063.742-.426.309-2.904-1.449-5.031-3.315-7.053-.903-.975-2.09-1.824-3.306-2.354-.521-.229-1.106-.494-1.687-.521-.472-.02-1.149.234-1.586.162-.382-.061-.508.424-.156.572.615.258 1.363 1.339 1.888 1.784z" fill="#68182b"/><path d="m605 349.618c.582.035.818-.84.299-1.105-17.898-9.076-44.584-5.797-59.45 7.709-.218.201.06.508.3.389 19.257-9.486 38.164-8.23 58.851-6.993z" fill="#68182b"/><path d="m589.203 339.958c4.932-.529 9.854 1.559 14.744 1.135.333-.027.666-.41.426-.742-3.462-4.787-10.689-2.84-15.279-1.201-.409.145-.381.862.109.808z" fill="#68182b"/><path d="m666.274 555.115c-.38-.221-.747.283-.458.596 6.211 6.762 11.697 13.912 16.66 21.635 4.538 7.059 7.578 14.807 12.598 21.566.402.543 1.143.211 1.053-.441-2.359-16.86-15.242-34.815-29.853-43.356z" fill="#68182b"/><path d="m210.249 698.914c2.161 7.977 6.543 16.24 12.119 22.213.328.352.928-.014.798-.465-2.259-7.863-6.327-16.104-11.405-22.629-.583-.75-1.733.069-1.512.881z" fill="#68182b"/></g></g></svg>