<svg id="Fruit" height="512" viewBox="0 0 992.13 992.13" width="512" xmlns="http://www.w3.org/2000/svg"><g><path d="m293.303 740.695c7.714 0 15.655-.424 23.609-1.254 58.375-6.113 114.976-29.441 159.864-65.242 3.265 6.48 6.755 12.727 10.499 18.795 23.825 38.604 57.785 69.41 82.08 88.453 33.779 26.484 78.789 44.105 126.741 49.619 9.851 1.133 18.952 1.684 27.822 1.684 11.145 0 21.575-.865 31.885-2.648 23.029-3.975 37.457-15.408 51.409-26.461 1.971-1.563 3.978-3.154 6.06-4.758 4.888-3.77 9.813-7.365 14.711-10.943 12.825-9.369 26.089-19.059 38.496-31.48 21.255-21.273 39.049-46.957 51.459-74.27 16.854-37.098 19.09-78.307 6.837-125.98-6.082-23.664-15.157-47.045-27.018-69.641 14.269-52.846 15.602-105.055 3.805-151.518-14.024-55.229-46.555-100.914-94.078-132.111-42.789-28.088-96.726-43.559-151.881-43.559-68.068 0-128.859 23.818-169.81 65.934-1.989-.303-3.826-.418-5.465-.418-6.811 0-17.092 1.971-27.389 11.365-22.589 20.607-24.922 50.805-16.509 79.197-23.54-8.961-49.105-13.48-76.391-13.48-59.621 0-122.214 22.16-171.727 60.799-67.203 52.441-99.203 144.913-81.151 225.28-9.729 1.584-20.393 4.947-30.72 13.906-15.322 13.291-20.611 31.564-14.148 48.881 7.379 19.764 29.179 34.107 51.838 34.107 3.36 0 6.695-.324 9.91-.967.181-.037.364-.076.547-.115 8.767-1.965 17.48-4.623 26.321-8.037 36.861 42.513 85.723 64.86 142.394 64.862z" fill="#fff"/><g><path d="m901.646 562.154c-6.424-24.992-16.523-49.662-29.6-72.879.162-.316.307-.65.417-1.025 29.187-98.672 12.712-205.738-78.086-265.346-88.595-58.158-232.691-56.063-302.284 31.35-6.887-6.389-14.642-8.023-23.057-.348-24.727 22.557-10.616 63.457 6.309 87.457-6.245 2.898-12.333 6.576-18.241 10.838-78.181-48.449-184.348-25.027-254.097 29.402-65.936 51.455-95.887 148.112-64.811 226.342-3.182.773-6.387 1.434-9.645 1.82-13.593 1.617-25.511.742-36.459 10.238-23.127 20.061 5.393 44.93 27.272 40.561 13.617-3.053 26.485-7.945 38.827-13.984.017.023.024.047.041.072 38.062 52.516 92.235 75.73 156.192 69.035 63.837-6.686 126.301-35.582 171.193-81.605 5.73 16.057 12.868 31.607 21.98 46.369 19.243 31.18 47.804 59.713 76.49 82.201 32.069 25.143 74.524 40.064 114.734 44.688 17.745 2.041 35.28 2.275 52.915-.771 19.806-3.42 31.489-14.676 46.947-26.598 17.406-13.424 35.258-24.734 50.897-40.391 19.37-19.389 35.289-42.352 46.61-67.27 16.151-35.539 14.958-73.183 5.456-110.156zm-388.5-119.334c2.077-12.441 3.486-24.992 4.262-37.523 4.566 8.422 9.735 16.961 15.639 23.438-6.805 4.405-13.606 8.96-19.901 14.085z" fill="#68182b"/><path d="m509.422 250.011c69.605-74.246 198.189-68.467 279.641-18.014 69.13 42.824 91.6 118.076 84.882 192.936-1.242 13.836-3.431 19.424-3.804 8.406-1.168-34.652-9.525-69.568-32.017-94.959-.224-.256-.565.068-.438.34 10.73 22.98 19.592 45.213 22.994 70.549 1.864 13.869 2.329 27.955 1.759 42-.615 15.139-4.424 14.969-12.043 4.699-25.317-34.125-57.479-63.041-94.184-81.918-28.22-14.514-59.716-20.963-91.316-19.49-38.37 1.789-65.255 20.199-92.036 44.922-.775-1.119-1.573-2.242-2.406-3.375-17.235-23.477-36.52-47.598-47.026-75-2.369-6.176-8.785-29.318-18.156-47.785-5.048-9.949-3.933-14.688 4.15-23.311z" fill="#823341"/><path d="m472.784 265.265c7.884-13.979 23.189 11.545 25.255 15.146 4.624 8.066 7.106 17.605 9.806 26.445 3.63 11.895 7.387 23.361 13.201 34.379 13.284 25.168 31.315 47.809 48.03 70.727 4.227 5.797-6.145 13.486-9.456 15.83-9.61 6.789-15.404-4.064-20.23-10.789-7.681-10.703-15.073-21.629-21.33-33.229.006-3.002.069-6.016.004-9.002-.374-16.736-9.813-44.465-32.683-37.375-15.313-19.829-25.692-48.921-12.597-72.132z" fill="#aa8053"/><path d="m392.209 646.494c-28.646-6.537-40.324-47.428-34.943-68.799 3.473-13.783 10.579-26.721 20.263-37.418 4.48-4.947 9.755-9.736 14.938-14.689 10.598-10.115 7.654-1.676 5.525 7.389-8.557 36.431-11.211 74.31-5.783 113.517z" fill="#b1d045"/><path d="m392.882 453.449c6.372-4.275 13.268-8 20.538-11.402 5.572-2.607 11.012-5.41 16.129-8.58 7.825-4.846 7.656-1.902 3.651 6.791-11.97 25.963-23.575 58.856-34.333 70.971-11.377 12.828-24.695 23.92-34.741 38.34-3.62 5.195-6.965 11.889-9.475 19.188-2.324 6.762-6.467 24.211-7.378-.625-2.349-64.372 19.901-97.451 45.609-114.683z" fill="#b1d045"/><path d="m391.465 441.453c28.923-46.537 42.295-53.629 72.371-63.611 7.201-2.391 6.609-.422 2.177 7.311-18.688 32.629-29.41 38.902-34.679 42.277-9.042 5.799-18.786 10.098-28.421 14.781-2.363 1.15-4.764 2.416-7.16 3.793-9.598 5.519-9.336 3.57-4.288-4.551z" fill="#b1d045"/><path d="m398.077 566.877c2.01-15.514 3.172-11.039 6.196-2.701.724 1.992 1.521 3.9 2.39 5.705 4.607 9.586 10.363 18.551 14.938 28.152 2.991 6.279 4.793 12.889 5.414 19.805.677 7.48-4.05 15.186-14.736 23.387-4.727 3.629-9.295 5.373-13.676 5.73-3.979-27.351-3.895-54.062-.526-80.078z" fill="#b1d045"/><path d="m421.266 586.984c-5.444-10.291-11.47-19.822-14.594-31.16-6.451-23.424 2.408-52.252 22.916-95.032 7.052-14.703 6.284-7.828 6.766 1.791.473 9.438 1.975 18.66 3.836 26.719 3.717 16.094 10.269 31.374 13.835 47.524 4.669 21.133-3.066 48.012-15.157 67.59-5.663 9.17-7.031 7.773-9.536.389-2.228-6.545-5.411-12.803-8.066-17.821z" fill="#b1d045"/><path d="m451.817 511.951c-5.268-16.305-9.906-32.268-10.892-49.483-.613-10.701-2.393-28.727 25.05-68.748 7.534-10.994 8.181-8.146 8.53-.361.298 6.5 1.201 12.822 2.18 18.275 2.67 14.842 7.65 29.178 10.567 43.98 5.887 29.871-2.033 60.377-18.795 90.295-5.957 10.637-7.158 7.99-9.112-4.203-1.68-10.536-4.642-20.825-7.528-29.755z" fill="#b1d045"/><path d="m485.671 432.578c-3.427-12.771-6.673-25.332-7.512-38.588-.433-6.77.456-20.391 11.558-35.457 4.844-6.572 9.559-8.801 13.852-2.951 5.455 7.434 4.046 19.439 4.072 28.074.074 24.648-2.865 48.531-8.139 71.76-4.518 19.889-6.282 13.389-8.325 1.41-1.413-8.295-3.42-16.465-5.506-24.248z" fill="#b1d045"/><path d="m451.435 372.107c8.051-7.459 19.831-17.814 30.879-21.75 7.689-2.736 6.085 1.912 1.883 7.918-7.107 10.158-11.57 11.834-13.624 12.879-5.29 2.691-11.126 4.363-16.903 5.967-3.911 1.082-11.697 3.761-2.235-5.014z" fill="#b1d045"/><path d="m116.563 650.408c-15.743.783-21.861-9.17-19.956-17.822 1.452-6.594 11.935-11.584 23.425-11.883 8.955-.232 16.862-1.35 25.541-3.822 17.585-5.006 38.11-18.316 53.972-28.734 3.934.725 7.876 1.748 11.867 3.125.608 3.195 1.125 6.4 1.417 9.654-28.102 20.59-61.536 47.754-96.266 49.482z" fill="#aa8053"/><path d="m481.849 622.895c-39.971 42.73-93.1 68.545-150.128 79.648-65.104 12.676-124.351-6.287-164.102-60.828 15.367-8.389 29.955-18.381 44.186-28.625-1.983 6.672-3.579 12.107-6.309 19.254-2.308 6.041-1.773 6.439 1.857 2.793 6.481-6.508 10.34-13.711 11.714-21.939 1.354-5.879 1.683-12.111 1.006-18.576-.882-8.412-3.581-16.605-5.58-24.793-2.752-11.273-.658-19.1 3.497-29.496.09-.227-.219-.449-.412-.314-11.911 8.311-10.688 25.447-8.688 38.039.613 3.861-1.35 4.416-5.107 3.576-10.34-2.309-21.516-2.709-30.734 1.904-6.64 3.322-.63 3.111.748 3.068 3.391-.107 6.717-.129 10.01-.043-11.213 7.113-23.092 13.883-35.585 18.367-30.616-74.063-.688-161.819 58.296-212.649 63.253-54.508 167.976-75.869 241.675-33.188-19.239 16.09-36.176 37.199-49.492 54.297-38.288 49.164-79.448 127.352-54.966 191.008.099.254.228.471.35.697.062.188.101.369.183.559 9.501 21.682 27.234 55.225 56.256 51.26 23.038-3.15 30.918-22.721 40.641-40.895 9.086-16.982 18.478-33.598 27.424-50.424 3.282 19.402 7.448 38.625 13.296 57.27-.014.01-.026.016-.036.03z" fill="#823341"/><path d="m855.672 717.119c-13.3 16.34-28.875 29.229-45.46 41.486 6.924-11.326 11.373-23.852 11.646-36.15.006-.318-.465-.463-.613-.168-13.51 26.961-33.806 65.906-72.306 74.127-44.611 9.52-96.771-6.459-135.8-27.377-35.624-19.092-68.422-53.717-91.616-86.594-27.324-38.732-37.832-86.135-44.803-132.213-.01-.074-.039-.135-.051-.205 7.333-14.537 14.168-29.354 19.971-44.84 5.403-14.424 9.717-29.432 13.073-44.709 9.073-9.893 20.368-17.324 31.607-24.559 8.798 5.627 19.002 5.801 30.927-4.82 8.563-7.625 9.036-14.885 5.987-22.248 22.649-21.186 43.556-36.717 75.044-42.477 25.043-4.58 51.357-.355 75.277 7.42 44.951 14.613 82.237 48.428 110.446 85.342 25.794 33.756 44.839 73.262 54.655 114.586 12.617 53.112-3.974 101.61-37.984 143.399z" fill="#823341"/><path d="m420.678 489.404c.314-1.967.658-3.928 1.045-5.873.843-4.238 1.882-8.402 3.07-12.488-17.037 37.206-24.041 63.286-18.121 84.782 3.124 11.338 9.149 20.869 14.594 31.16 2.655 5.018 5.838 11.275 8.065 17.82.183.537.357 1.033.53 1.506 6.56-18.412-4.907-41.375-8.419-59.158-3.529-17.868-3.893-38.239-.764-57.749z" fill="#abab38"/><path d="m460.883 479.599c-5.005-27.645-8.362-54.818 1.744-80.83-23.871 36.475-22.287 53.463-21.701 63.699.985 17.215 5.624 33.178 10.892 49.483 2.886 8.93 5.848 19.219 7.528 29.756.35 2.18.675 4.041 1.008 5.588 8.573-21.486 4.543-45.506.529-67.696z" fill="#abab38"/><path d="m406.663 569.881c-.868-1.805-1.666-3.713-2.39-5.705-3.024-8.338-4.187-12.813-6.196 2.701-2.678 20.678-3.237 41.803-1.376 63.334 1.072-17.049 5.342-32.799 17.731-45.736-2.682-4.815-5.378-9.621-7.769-14.594z" fill="#abab38"/><path d="m499.502 455.416c1.016-4.475 1.917-8.979 2.754-13.502-.944-4.252-2.149-8.465-3.624-12.59-3.902-10.908-8.889-21.357-12.453-32.398-3.986-12.35-2.121-23.236 1.069-34.783-8.744 13.605-9.486 25.625-9.089 31.848.839 13.256 4.085 25.816 7.512 38.588 2.086 7.783 4.093 15.953 5.506 24.248 2.043 11.977 3.807 18.477 8.325-1.411z" fill="#abab38"/><path d="m392.466 525.588c-5.183 4.953-10.457 9.742-14.938 14.689-9.684 10.697-16.79 23.635-20.263 37.418-1.275 5.066-1.559 11.244-.919 17.787 3.47-8.705 8.239-16.973 14.594-25.057 2.785-3.547 8.744-10.934 13.309-4.828 1.954 2.615 2.575 6.654 3.289 9.756 1.004 4.352 1.678 8.76 2.33 13.178 1.062-18.867 3.857-37.393 8.123-55.555 2.129-9.064 5.072-17.503-5.525-7.388z" fill="#abab38"/><path d="m487.489 352.332c-10.945 10.613-24.589 17.449-37.899 25.857 1.318-.256 2.88-.736 4.079-1.068 5.777-1.604 11.613-3.275 16.903-5.967 2.054-1.045 6.517-2.721 13.624-12.879 1.607-2.295 2.818-4.383 3.293-5.943z" fill="#abab38"/><path d="m428.123 413.136c-12.292 8.23-22.064 19.938-30.644 31.955 1.818-1.006 3.641-2.008 5.434-2.881 9.635-4.684 19.379-8.982 28.421-14.781 4.96-3.178 14.759-8.941 31.482-36.828-10.838 8.609-22.818 14.586-34.693 22.535z" fill="#abab38"/><path d="m211.412 591.271c-3.991-1.377-7.934-2.4-11.867-3.125-1.869 1.227-3.815 2.5-5.803 3.793-6.989 12.461-16.353 23.543-27.882 32.094-10.079 7.477-21.696 12.279-33.521 16.211-9.504 3.16-19.693 6.615-29.83 6.918 3.304 2.225 7.946 3.551 14.055 3.246 34.729-1.729 68.163-28.893 96.266-49.482-.293-3.254-.809-6.459-1.418-9.655z" fill="#865725"/><path d="m548.009 395.769c-11.167-1.627-21.279-7.324-29.947-14.953-.009.986 0 1.973-.002 2.959 6.257 11.6 13.649 22.525 21.33 33.229 4.826 6.725 10.62 17.578 20.23 10.789 3.312-2.344 13.683-10.033 9.456-15.83-3.789-5.197-7.646-10.379-11.501-15.578-3.17-.005-6.353-.147-9.566-.616z" fill="#865725"/><path d="m748.939 796.414c25.915-5.533 43.562-24.994 56.463-45.346-11.803 9.74-27.354 15.393-41.808 19.01-21.756 5.445-45.146 4.418-67.098.793-44.53-7.355-86.143-29.873-118.92-60.52-73.063-68.316-80.397-176.438-48.003-266.581-7.127 4.961-13.979 10.293-19.86 16.705-3.356 15.277-7.67 30.285-13.073 44.709-5.803 15.486-12.638 30.303-19.971 44.84.012.07.041.131.051.205 6.971 46.078 17.479 93.48 44.803 132.213 23.194 32.877 55.992 67.502 91.616 86.594 39.029 20.919 91.189 36.898 135.8 27.378z" fill="#7a2537"/><path d="m557.763 353.919c-6.922-.029-13.506-1.248-19.556-3.525 9.767 15.928 21.409 30.949 32.247 45.713.833 1.133 1.631 2.256 2.406 3.375 26.781-24.723 53.666-43.133 92.036-44.922 31.601-1.473 63.097 4.977 91.316 19.49 36.704 18.877 68.866 47.793 94.184 81.918 3.083 4.156 5.533 6.623 7.409 7.125-14.106-61.695-68.272-107.92-127.247-126.518-37.892-11.945-75.373-7.342-112.884 3.393-19.641 5.621-39.2 14.035-59.911 13.951z" fill="#7a2537"/><path d="m441.162 616.02c-9.723 18.174-17.603 37.744-40.641 40.895-9.456 1.291-17.692-1.438-24.856-6.402-21.192 14.375-44.985 24.648-70.859 28.869-40.573 6.617-83.091-.129-120.169-17.703 38.736 39.039 90.701 51.842 147.084 40.865 57.028-11.104 110.157-36.918 150.128-79.648.011-.014.022-.02.033-.029-5.848-18.645-10.014-37.867-13.296-57.27-8.946 16.825-18.338 33.44-27.424 50.423z" fill="#7a2537"/><path d="m825.521 619.955c-3.564-32.23-12.784-64.006-26.668-93.281-27.123-57.188-78.448-103.143-142.03-109.139-11.451-1.08-12.401 1.121-2.041 5.047 48.787 18.486 86.032 60.549 113.548 103.752 30.613 48.07 49.71 104.813 51.837 161.896.35 9.371 2.575 8.83 4.529-.896 4.415-21.971 3.222-45.676.825-67.379z" fill="#7a2537"/><path d="m409.37 373.96c-43.529 3.514-87.27 27.215-121.944 51.379-32.865 22.904-57.824 53.932-64.633 92.946-1.627 9.314-.024 9.887 3.986 1.395 14.67-31.073 41.392-56.661 67.733-77.583 33.746-26.803 73.225-53.445 115.477-65.332 3.905-1.098 3.503-3.139-.619-2.805z" fill="#7a2537"/><path d="m698.363 220.783c-28.75-8.426-59.863-8.891-89.286-4.215-23.349 3.711-48.369 11.867-67.719 26.486-9.892 7.473-9.108 8.354 2.17 3.506 25.247-10.846 50.585-18.465 78.681-19.988 29.564-1.607 58.672 4.51 86.431 14.238 46.939 16.447 86.853 40.994 117.332 79.852 5.085 6.48 6.13 5.014 2.601-2.891-22.613-50.605-79.096-82.01-130.21-96.988z" fill="#7a2537"/><g fill="#a74153"><path d="m780.108 679.135c.475-59.891-22.094-180.893-125.087-223.825-15.569-6.49-28.841-10.65-39.895-12.631-44.276-7.928-44.912 15.477-30.678 42.609 19.922 37.977 57.844 65.723 88.589 95.577 39.814 38.65 61.7 71.799 72.873 99.826 20.728 40.12 34.061 15.692 34.198-1.556z"/><path d="m179.156 502.396c24.243-36.989 80.947-102.885 169.939-139.526 19.973-8.227 18.469-15.223-3.659-12.799-41.051 4.514-80.583 21.488-113.875 45.805-29.682 21.68-58.711 57.979-67.951 96.289-6.598 27.362-.199 34.253 15.546 10.231z"/><path d="m205.444 508.836c-14.242 6.225-26.382 24.344-27.065 39.848-.026.609.825.99 1.236.512 4.966-5.781 8.96-12.205 13.301-18.457 4.866-7.008 10.554-12.543 13.923-20.508.409-.967-.419-1.823-1.395-1.395z"/><path d="m205.117 531.82c-1.911 1.01-3.433 1.588-4.983 3.139-1.442 1.441-1.852 3.461-3.055 5.033-.314.412.309 1.035.72.721 1.573-1.205 3.538-1.678 5.033-3.055 1.603-1.473 2.147-3.107 3.139-4.984.299-.559-.294-1.153-.854-.854z"/><path d="m297.583 609.734c-9.356-.963-18.868 1.465-28.237 1.904-9.534.445-19.095-.217-28.633.07-.625.018-1.024 1.004-.35 1.287 16.18 6.828 43.271 10.584 57.987-1.41.819-.665.06-1.767-.767-1.851z"/><path d="m259.834 625.035c-3.717-.318-7.491-.902-11.223-.557-.403.037-.722.451-.483.84 3.659 5.955 13.803 6.713 19.704 4.357.606-.242 1.077-1.133.434-1.65-2.613-2.107-5.136-2.709-8.432-2.99z"/><path d="m316.54 606.277c-3.663-.301-10.141.295-11.819 4.332-.138.33.091.723.362.893 1.82 1.137 4.284.619 6.216.088 2.681-.74 4.412-1.725 5.979-4.023.398-.581-.143-1.239-.738-1.29z"/><path d="m362.591 430.736c-17.256 6.162-31.816 17.164-45.64 29.057-13.621 11.719-29.087 27.238-34.094 45.045-.136.486.527.922.881.512 11.605-13.407 22.145-26.596 35.657-38.28 14.215-12.291 30.453-21.789 44.251-34.52.78-.718-.024-2.183-1.055-1.814z"/><path d="m362.953 418.957c-3.849 1.406-7.921 3.053-10.092 6.719-.244.41.068.938.539.939 3.841.018 7.271-1.77 10.853-2.939 3.925-1.281 8.053-1.76 11.297-4.498.36-.307.288-1.047-.16-1.242-4.165-1.804-8.352-.468-12.437 1.021z"/><path d="m761.857 733.264c-21.703-4.352-43.988-1.707-65.95-4.057-24.087-2.574-47.925-10.688-67.943-24.5-.413-.283-.841.33-.519.672 16.74 17.768 37.003 27.416 60.685 32.834 23.412 5.357 51.132 6.484 73.728-2.346 1.121-.437 1.441-2.314-.001-2.603z"/><path d="m771.214 740.553c-2.943-.996-5.955.219-8.705 1.229-2.826 1.037-5.679 1.494-8.188 3.275-.271.193-.454.586-.234.9 3.845 5.496 16.217 1.678 17.749-4.309.125-.49-.157-.937-.622-1.095z"/><path d="m868.322 568.955c-.281-.566-1.069-.148-.962.404 4.278 22.189 3.044 44.273-2.714 66.063-5.249 19.859-15.929 37.695-22.112 57.238-.361 1.145 1.115 1.873 1.926 1.121 31.983-29.689 43.307-85.66 23.862-124.826z"/><path d="m855.512 692.078c-2.198.41-4.015 2.535-5.352 4.193-.801.992-1.576 2.014-2.411 2.977-.498.574-.796 1.133-1.11 1.809-.356.762-.23 1.479-.47 2.207-.396 1.205.634 2.092 1.703 2.234 1.734.23 2.621.266 4.274-.551 1.563-.771 2.9-2.838 3.676-4.307 1.201-2.277 2.253-5.773.73-8.141-.239-.37-.614-.503-1.04-.421z"/><path d="m798.032 320.804c-16.762-13.328-36.023-20.877-56.922-24.365-.573-.096-1.055.748-.43 1.023 17.879 7.873 35.598 17.617 50.897 29.797 15.962 12.707 26.094 29.947 39.575 44.873.944 1.047 2.335-.092 2.146-1.248-3.42-20.945-19.153-37.269-35.266-50.08z"/><path d="m840.885 382.667c.197.352.691.484 1.037.271 3.315-2.068 3.36-5.322 2.772-8.902-.532-3.242-1.487-7.84-4.862-9.285-.498-.213-.963-.047-1.16.473-.955 2.492-.076 5.518.389 8.051.628 3.437.072 6.24 1.824 9.392z"/><path d="m638.807 262.355c1.393-.092 1.538-1.83.314-2.326-16.964-6.867-33.759-5.859-51.611-3.188-18.872 2.826-38.173 9.287-53.382 20.998-.685.525-.331 1.803.634 1.502 15.977-4.975 31.844-9.527 48.31-12.65 18.244-3.459 37.255-3.106 55.735-4.336z"/><path d="m647.161 259.267c.87.711 1.722 1.412 2.627 2.084.893.666 2.271.746 3.265 1.197.813.373 1.965-.449 1.35-1.348-.621-.914-.994-1.947-1.582-2.881-.681-1.08-1.923-1.854-2.943-2.57-1.944-1.369-4.145-2.383-6.472-1.406-.302.129-.51.455-.314.773 1.073 1.759 2.492 2.862 4.069 4.151z"/><path d="m244.582 567.957c13.475-2.203 25.87-7.188 38.364-12.553 12.461-5.355 24.442-11.844 32.971-22.615.615-.775-.128-1.746-1.037-1.344-12.121 5.379-23.498 12.209-35.479 17.893-11.97 5.674-24.317 9.889-35.352 17.355-.672.455-.235 1.389.533 1.264z"/><path d="m316.717 543.232c-2.525-.156-4.866 1.516-6.85 2.857-1.614 1.09-3.593 2.252-4.284 4.184-.072.203.01.463.16.609 3.692 3.572 11.198-2.703 11.832-6.525.097-.589-.239-1.087-.858-1.125z"/><path d="m613.234 655.525c-21.579-23.066-38.732-52.535-50.771-81.547-12.887-31.055-18.171-62.615-21.216-95.858-.053-.592-.952-.803-1.098-.146-7.08 31.764 2.605 68.622 13.52 98.426 11.723 32.021 28.833 62.559 57.969 81.193 1.299.831 2.591-1.003 1.596-2.068z"/><path d="m627.396 673.412c-3.178-1.711-5.938-3.262-9.357-4.502-4.18-1.516-8.514-3.205-12.524-5.127-.374-.178-.926.221-.63.631 5.274 7.311 13.188 11.223 22.162 10.285.631-.064 1.008-.933.349-1.287z"/><path d="m753.852 404.871c-26.227-13.193-57.025-24.678-86.785-21.521-.728.078-.995 1.164-.183 1.357 27.365 6.477 54.769 13.992 79.994 26.633 15.855 7.941 30.89 17.775 44.488 29.146 13.934 11.65 25.746 25.557 38.465 38.449.763.773 2.359-.008 1.925-1.121-13.117-33.6-46.816-57.303-77.904-72.943z"/><path d="m845.031 501.988c.396.121.77-.139.892-.504 1.103-3.279-1.021-6.03-2.777-8.59-1.113-1.621-2.252-3.121-3.604-4.545-1.148-1.213-2.818-1.588-4.042-2.609-.358-.295-.801.066-.621.48.547 1.262.608 2.873 1.112 4.195.684 1.793 1.859 3.369 2.882 4.977 1.671 2.618 2.945 5.616 6.158 6.596z"/><path d="m638.535 584.236c-.305-.236-.797.057-.568.438 6 10.027 13.082 19.193 20.333 28.342 8.695 10.969 16.174 22.328 26.286 32.064.53.51 1.623.006 1.32-.77-8.874-22.859-28.127-45.152-47.371-60.074z"/></g><path d="m352.64 575.02c.732-2.201 1.43-4.57 2.012-6.264 2.51-7.299 5.854-13.992 9.475-19.188 10.046-14.42 23.364-25.512 34.741-38.34 10.569-11.904 21.958-43.848 33.705-69.584-13.277 23.711-37.27 40.061-53.598 61.586-16.325 21.522-25.821 45.784-26.335 71.79z" fill="#abab38"/><path d="m381.674 386.437c-35.166 13.32-66.269 33.756-95.163 57.771-23.922 19.881-53.196 47.59-62.104 78.532-.173.604.634.877.963.406 9.406-13.381 17.762-26.936 28.577-39.344 11.198-12.844 23.955-24.256 37.068-35.09 28.159-23.266 60.252-41.84 91.127-61.162.564-.353.2-1.367-.468-1.113z" fill="#68182b"/><path d="m398.902 381.601c.288-.217.282-.668-.103-.783-3.277-.982-6.961.469-9.367 2.744-.276.26-.063.725.302.73 3.127.024 6.638-.791 9.168-2.691z" fill="#68182b"/><path d="m698.436 446.123c-21.454-16.277-50.26-33.111-78.06-33.248-.547-.002-.638.781-.128.938 28.859 8.734 53.398 20.371 77.148 39.256 22.81 18.139 42.706 40.07 59.655 63.711 34.084 47.537 52.563 105.691 63.426 162.639.12.617 1.063.453 1.068-.143.4-60.637-26.206-122.938-61.824-171.15-17.333-23.466-38.059-44.376-61.285-62.003z" fill="#68182b"/><path d="m521.061 259.947c34.353-20.664 72.396-31.275 112.496-31.674 19.292-.193 37.953 3.061 56.429 8.346 19.79 5.662 39.796 11.303 58.577 19.799.568.258 1.266-.459.719-.932-14.517-12.547-33.613-18.92-51.646-24.494-19.991-6.178-39.938-9.885-60.897-10.184-40.475-.578-85.465 11.148-116.175 38.492-.355.317.099.883.497.647z" fill="#68182b"/></g></g></svg>