<svg id="Fruit" height="512" viewBox="0 0 992.13 992.13" width="512" xmlns="http://www.w3.org/2000/svg"><g><path d="m375.82 255.341c-9.209 1.301-18.729 2.645-28.419 4.818-28.356 6.367-55.046 19.078-79.328 37.777-31.204 24.031-59.144 58.863-83.039 103.533-40.298 75.336-56.572 166.508-45.824 256.727 5.21 43.734 21.098 93.246 40.477 126.135 17.07 28.973 38.685 52.508 64.242 69.957 38.019 25.957 83.381 39.184 126.741 49.613 2.201.531 4.445 1.053 6.771 1.58 5.442 13.074 16.449 24.75 32.322 33.988 6.979 4.063 14.268 6.123 21.66 6.123 19.601 0 32.27-13.75 40.639-25.252 12.825 1.18 25.926 2.084 39.108 2.691 12.249.566 22.449.83 32.103.83 30.225 0 54.706-2.66 77.047-8.375 34.685-8.871 71.907-28.189 110.629-57.416 57.583-43.465 98.776-107.49 115.993-180.283 25.975-109.836-1.287-266.44-103.653-353.241-20.993-17.803-43.981-29.943-68.323-36.082-36.728-9.262-59.314-18.705-58.44-37.141.734-15.5 13.097-30.055 26.187-45.463 5.984-7.043 12.172-14.328 17.602-22.119 46.164-66.211 36.223-85.262 32.479-92.434-5.095-9.766-15.028-15.596-26.569-15.596-.71 0-1.428.021-2.179.066-14.123.85-26.481 8.461-36.527 14.863-5.718-19.328-16.632-32.227-32.651-38.504-4.566-1.789-9.368-2.697-14.273-2.697-24.509 0-41.886 21.85-50.239 32.348-3.009 3.785-5.905 7.674-8.685 11.656-13.802-19.938-34.306-39.918-62.991-45.846-3.41-.705-6.791-1.064-10.054-1.064-11.568 0-21.839 4.346-29.698 12.564-9.631 10.066-13.895 24.016-15.551 39.518-11.358-4.295-24.138-7.439-37.221-7.439-8.931 0-17.327 1.49-24.954 4.43-10.408 4.012-17.635 12.291-19.823 22.721-4.737 22.576 15.651 45.029 40.75 69.936 2.197 2.18 3.943 3.875 4.694 4.707 29.639 35.768 34.902 52.172 35.772 57.734-.18.047-.37.096-.576.145-8.254 1.961-16.97 3.192-26.199 4.492z" fill="#fff"/><g><path d="m727.84 342.763c-17.068-14.477-36.953-25.65-58.715-31.139-31.484-7.939-78.395-20.555-76.457-61.43 1.545-32.625 30.717-55.236 48.055-80.109 3.537-5.074 48.695-71.908 24.755-70.465-11.86.715-25.628 12.289-35.676 17.572-7.231 3.805-14.4 7.508-21.464 11.35.045-19.604-2.493-46.449-22.188-54.166-14.458-5.668-29.739 13.021-37.105 22.283-11.607 14.592-20.962 30.383-28.258 46.984-11.12-30.953-34.185-65.885-66.942-72.656-31.385-6.486-27.886 44.271-26.913 67.254-22.54-16.078-54.32-29.143-77.145-20.348-21.4 8.246 29.688 52.918 35.424 59.84 16.227 19.582 69.584 85.123 22.325 96.354-18.037 4.285-36.773 5.305-54.901 9.375-25.695 5.77-49.188 17.377-69.99 33.396-32.348 24.912-57.463 60.195-76.551 95.877-39.164 73.215-52.944 160.583-43.17 242.635 5.379 45.145 21.526 90 37.338 116.838 14.403 24.441 33.188 46.008 57.134 62.355 34.824 23.775 78.352 36.375 118.854 46.117 7.019 1.686 14.082 3.209 21.164 4.652-.368 14.836 11.91 26.248 24.362 33.496 18.548 10.795 29.776-11.33 38.689-23.664 17.239 1.898 34.536 3.213 51.807 4.012 33.713 1.557 69.206 1.594 102.129-6.828 36.447-9.322 72.413-30.889 102.158-53.34 54.546-41.172 91.478-100.492 107.141-166.719 26.317-111.273-6.292-253.579-95.86-329.526z" fill="#68182b"/><path d="m539.091 131.205c7.603-13.803 16.319-27.27 27.443-38.504 22.724-22.945 29.847 11.865 31.023 33.539.347 6.463-.568 8.637-5.692 11.768-5.705 3.488-11.314 7.197-16.788 11.273-4.787 3.566-9.142 7.383-13.091 11.428-6.611 6.768-9.427 8.629-5.15-3.365 4.557-12.773 9.291-25.527 12.284-38.574.097-.422-.459-.656-.691-.293-11.21 17.564-18.489 39.533-24.803 59.277-2.882 9.014-5.788 18.48-7.934 28.088-3.451 11.305-5.429 23.285-6.099 35.734-6.552-1.619-12.41-.92-17.637 1.414-.641-39.979 7.847-76.768 27.135-111.785z" fill="#ff5671"/><path d="m466.369 87.587c22.774 13.869 37.857 38.658 45.928 63.656 2.228 6.902 2.176 7.961-.008 14.893-2.305 7.309-4.229 14.742-5.791 22.266-2.384 11.482-3.774 12.857-7.352-.732-2.931-11.143-7.049-22.197-11.054-32.998-3.445-9.299-7.142-19.246-14.415-26.23-.288-.277-.656.07-.517.398 8.339 19.609 13.675 40.135 19.165 60.711 3.184 11.93 5.287 24.145 6.663 36.406.811 7.223 1.229 14.711 2.473 21.957-.076 2.031-.539 2.984-2.411 5.146-1.359 1.574-2.658 3.256-3.892 5.021-9.388-38.191-23.39-75.82-50.73-104.889-.385-.41-.781-.824-1.189-1.234-4.953-5.018-5.422-5.072-5.714-12.928-.875-23.421-5.18-72.159 28.844-51.443z" fill="#ff5671"/><path d="m377.14 152.291c-4.356-4.854-8.869-9.563-13.438-14.213-13.679-13.928 3.217-11.582 14.964-9.236 19.188 3.832 36.737 12.838 51.603 25.42 33.857 28.652 47.857 75.436 57.225 117.182-5.507 11.535-9.187 23.873-11.431 32.33-3.365 12.686-11.154-19.668-11.766-23.102-1.043-5.855-3.938-14.248-9.365-17.543-4.561-2.77-9.326-2.539-14.16-1.059 6.262-10.242 6.661-24.412 4.276-36.32-4.085-20.402-16.358-43.342-32.958-56.258-.301-.234-.807.061-.568.438 10.12 15.938 19.885 31.115 25.178 49.516 1.501 5.221 2.394 10.664 2.571 16.123.285 8.746-1.584 11.943-3.949 4.352-10.274-33.033-46.084-74.148-58.182-87.63z" fill="#ff5671"/><path d="m427.091 909.736c-8.012-3.443-18.262-12.875-19.208-22.338 13.562 2.535 27.214 4.629 40.913 6.355-5.051 7.991-12.364 19.997-21.705 15.983z" fill="#aa8053"/><path d="m821.414 584.025c2.787 70.424-17.045 141.176-60.599 197.059-46.238 59.328-119.728 102.877-195.172 107.432-91.039 5.496-209.171-17.305-274.081-47.195-30.325-13.965-53.9-34.758-71.876-59.744-12.012-16.697-10.521-17.58 4.705-4.088 96.456 85.467 246.742 110.402 366.885 66.627 24.191-8.814 47.81-21.678 65.322-40.861 30.39-33.287 48.521-82.682 62.949-124.656 33.33-96.971 38.473-217.547-24.663-303.989-27.493-37.643-69.911-59.357-113.223-73.896-22.806-7.654-30.583-16.646-35.682-39.479-1.185-5.299-3.003-9.99-6.091-13.566.572-27.268 7.086-55.16 25.356-76.162 18.039-20.736 45.826-33.008 69.87-45.219 5.2-2.639 10.297-5.475 15.402-8.289 12.145-6.707 8.27-.264 3.715 8.857-12.234 24.5-28.155 45.191-45.584 66.082-7.757 9.297-14.85 19.734-19.757 30.996-4.412 10.129-5.805 8.807-4.321.27 1.553-8.939 4.396-17.576 8.521-25.781 5.375-10.686 13.409-20.242 16.927-31.781.054-.18-.206-.354-.331-.193-16.886 21.68-30.881 45.172-32.636 73.094-.796 12.676 1.603 25.504 8.181 36.424 4.641 7.705 13.348 17.154 22.568 22.762 5.883 4.248 12.286 7.863 18.717 10.828 28.116 12.973 57.149 14.582 83.236 32.506 22.715 15.609 40.968 37.494 56.019 60.328 35.179 53.368 53.13 118.127 55.643 181.634z" fill="#ff5671"/><path d="m728.535 487.787c-9.91-59.137-36.773-122.711-92.924-151.865-16.123-8.373-32.756-17-49.999-22.787-9.324-3.131-21.059-4.887-29.141-11.021-10.875-8.25-16.317-18.451-19.232-31.705-2.439-11.084-6.111-25.898-22.1-16.061-11.719 7.211-18.482 19.631-22.886 32.35-2.484 7.17-4.373 27.146-13.398 30.98-11.503 4.887-18.445-7.846-21.154-17.545-1.539-5.52-2.141-11.143-3.559-16.662-4.643-18.074-12.227-9.98-19.403-6.326-6.891 3.512-23.315 6.83-24.467 7.092-40.902 9.232-81.33 10.158-116.493 37.236-33.004 25.416-59.541 59.686-78.592 96.578-36.455 70.605-51.727 153.415-42.316 232.422 5.645 47.367 24.455 85.35 42.045 103.67 62.781 65.391 153.759 98.807 244.219 100.307 60.829 1.008 144.167-8.418 188.127-56.572 33.936-37.172 54.451-93.688 68.175-141.189 15.965-55.259 22.675-111.753 13.098-168.902zm-30.305 115.19c-.091.025-.171.027-.262.047-2.477 8.602-7.769 16.57-15.605 22.678 3.025 4.486 5.13 9.652 5.87 15.396 2.339 18.156-6.962 33.08-22.451 40.592 9.396 14.361 9.244 33.871-6.784 48.766-3.41 3.168-7.718 5.496-12.383 7.178 3.33 14.041 1.32 29.16-10.505 38.953-9.645 7.986-20.604 11.768-32.58 10.803.299 7.885-1.837 15.895-6.977 23.266-9.737 13.967-27.201 17.559-42.802 13.605-3.063 3.039-6.824 5.734-11.374 7.92-11.137 5.352-25.05 3.99-36.633-1.51-.086.049-.149.105-.242.15-32.268 15.844-67.535-10.301-62.283-44.578-8.816-.381-17.472-3.189-24.494-8.523 6.113 13.217 6.804 30.34-4.279 40.799-13.259 12.516-33.789 20.691-51.359 12.25-4.555-2.189-8.318-4.885-11.383-7.928-16.322 4.088-35.484-.186-44.399-15.904-3.9-6.879-5.566-14.008-5.342-20.975-11.845.953-23.505-2.541-32.609-10.789-4.615-4.182-7.763-8.969-9.667-14.121-.469-.225-.905-.516-1.307-.852-16.087 4.096-31.975.043-40.155-16.445-2.939-5.924-3.361-12.35-1.981-18.43-25.876-13.049-26.956-59.439 1.455-69.898-1.588-5.359-1.864-11.15-.278-17.139 1.335-5.045 3.394-9.652 6.06-13.707-8.047-6.145-13.471-14.232-15.984-22.971-.088-.021-.171-.023-.259-.047-43.087-12.346-35.304-73.723 8.233-75.797.424-1.637.948-3.203 1.562-4.705-9.776-12.814-13.878-30.85-4.295-45.237 4.842-7.27 11.239-12.279 18.42-15.117-5.732-10.826-7.286-24.025-2.47-35.615 5.88-14.152 17.076-21.057 31.313-23.58-.562-7.121.526-14.248 4.193-20.686 9.121-16.002 24.754-21.77 39.498-19.262.868-17.943 11.937-32.707 30.394-36.982 3.63-.842 7.216-1.064 10.698-.795 19.652-30.586 69.494-17.326 69.985 19.537 13.424 6.684 24.056 19.996 23.739 35.371-.333 16.143-9.254 31.643-22.853 38.703 8.099 17.129 4.085 39.809-11.79 51.41 6.082 7.424 9.225 16.057 9.515 24.764.383.049.782.145 1.199.297 4.896 1.785 9.439 4.631 13.313 8.178 10.457-11.194 31.248-14.489 42.881-3.045 12.816 12.609 18.146 33.605 8.129 48.869 3.04 1.658 5.762 3.775 7.813 6.412 6.997 8.996 9.525 19.125 7.943 30.086 2.457.537 4.923 1.248 7.389 2.164 3.462-6.318 8.156-12.117 13.991-17.146-7.427-8.586-11.305-20.6-10.351-32.82.212-2.707.706-5.283 1.426-7.729-17.552-15.75-20.214-40.903-5.348-58.825-15.196-13.059-20.741-33.748-11.825-51.586-14.772-7.41-24.232-23.719-22.693-41.686 1.623-18.953 18.805-33.773 36.92-36.213.473-.131.975-.223 1.543-.217.573-.053 1.079-.004 1.555.092 7.571.355 14.954 2.707 21.197 6.684 8.33-15 25.113-25.219 42.918-21.094 18.457 4.277 29.533 19.043 30.396 36.99 11.725-2.439 23.974.08 32.705 9.223 13.268-9.91 31.896-2.479 41.157 9.561 10.861 14.111 11.414 32.43 1.855 47.213 3.31 11.271 2.314 22.717-3.059 32.928 8.367 2.963 15.559 8.689 19.539 17.596 6.636 14.846 4.449 29.459-4.838 42.026.705 1.783 1.255 3.684 1.654 5.678 42.844 2.772 50.268 63.493 7.441 75.769z" fill="#fbf199"/><path d="m257.441 749.557c-11.217 3.342-21.722 2.529-28.902-8.66-5.988-9.324-.848-21.389 7.359-27.264 1.705 4.441 4.313 8.824 7.971 12.994 3.888 4.432 9.17 7.551 14.975 9.598-1.075 4.5-1.581 8.98-1.403 13.332z" fill="#823341"/><path d="m258.67 724.592c-10.278-4.711-15.176-15.734-15.188-26.447-.017-13.072 11.453-23.359 25.965-26.186-.387 4.508-.037 9.141 1.097 13.693 3.849 15.463 17.122 24.057 31.634 27.045-7.994 16.569-26.254 19.801-43.508 11.895z" fill="#823341"/><path d="m408.067 596.182c9.607.805 19.121-1.793 26.921-7.404 3.332 6.994 9.709 12.643 17.081 14.629-.975 1.998-1.874 4.094-2.596 6.4-6.974 22.256 6.487 42.689 28.161 46.252-.565 1.32-1.084 2.676-1.536 4.082-8.127.479-16.176 3.439-23.143 9.301-2.62-2.354-5.535-4.449-8.765-6.158-4.869-2.576-9.861-3.98-14.798-4.473-3.956-12.35-12.364-21.449-22.795-26.193 4.557-12.403 4.889-24.95 1.47-36.436z" fill="#fbf199"/><g fill="#823341"><path d="m480.202 725.479c-3.589-4.707-2.722-9.225 2.503-11.541 7.467-3.313 17.001-3.963 23.555-2.461 10.239 2.348 17.773 11.713 21.215 21.125 9.37 25.631-13.135 39.793-35.621 33.869-7.168-1.883-6.13-5.207-4.786-11.729 2.266-11.013-.738-21.23-6.866-29.263z"/><path d="m529.18 714.627c-5.352-6.117-12.395-10.768-20.121-13.305-1.267-.418-2.611-.715-3.986-.955 11.546-8.854 26.836-8.506 38.484.891-5.6 3.279-10.481 7.916-14.377 13.369z"/><path d="m490.193 700.689c-9.393 1.818-18.592 6.426-24.057 12.916-.759-.404-1.532-.785-2.316-1.15 4.847-12.119 2.833-24.926-3.97-35.092 15.904-13.418 37.264-6.096 47.037 10.018-6.249 2.892-11.976 7.375-16.694 13.308z"/><path d="m398.518 685.939c7.771-13.494 21.216-19.635 37.349-14.795 16.145 4.84 24.257 22.994 17.932 38.037-5.915-1.189-12.129-1.189-18.244.291-5.696-5.086-12.813-8.68-20.292-10.211-4.734-5.945-10.479-10.433-16.745-13.322z"/><path d="m400.524 699.059c-9.575 1.852-18.025 7.057-24.173 14.211-3.954-5.584-8.852-10.166-14.5-13.375 11.7-9.479 27.092-9.807 38.673-.836z"/><path d="m418.318 659.287c-12.606 2.438-23.755 11.076-29.99 23.4-13.053-2.342-26.873 1.74-37.385 12.992-1.11-.242-2.24-.432-3.383-.576 3.208-6.119 4.49-12.566 4.082-18.99 16.02-4.244 25.435-18.465 27.09-35.016 16.458-5.933 32.955 2.448 39.586 18.19z"/><path d="m337.954 646.998c-6.844-7.25-15.707-10.633-24.883-11.025 7.673-3.258 13.382-9.352 17.737-17.33 6.553-1.053 12.205-3.543 16.813-7.139 23.758 9.938 27.801 46.273 1.885 54.146-2.278-6.621-6.207-12.988-11.552-18.652z"/><path d="m334.704 695.533c-6.528 1.234-12.396 3.926-17.343 7.744-13.898.793-26.841-2.84-34.515-15.402-8.534-13.969-.654-30.043 12.028-37.527 27.646-16.317 60.752 20.367 39.83 45.185z"/><path d="m336.872 561.559c-28.014 27.855-72.353-27.207-35.306-49.914 5.027-2.463 10.027-3.363 14.77-3.09 1.102.645 2.377.863 3.613.445 21.779 4.141 36.159 33.434 16.923 52.559z"/><path d="m327.255 500.275c3.596-5.928 5.864-12.219 6.558-18.633 13.545 6.914 19.495 20.905 16.034 35.006-.834-1.258-1.727-2.477-2.72-3.609-5.366-6.133-12.325-10.459-19.872-12.764z"/><path d="m294.229 570.365c13.341 10.4 30.737 11.799 46.357 1.609 3.224-2.104 5.92-4.785 8.16-7.816 10.525 19.471-2.138 43.539-25.675 44.676-6.899.332-14.952-6.732-19.531-10.951-8.009-7.379-11.14-17.418-9.311-27.518z"/><path d="m396.548 629.547c-6.005-1.035-12.33-.76-18.648.973-2.991-11.439-12.33-21.443-22.705-27.045 4.594-6.627 7.039-14.717 7.266-23.018 7.203-.029 13.586-2.121 18.985-5.596 17.311 13.498 22.307 34.553 15.102 54.686z"/><path d="m361.489 569.834c-1.235-5.775-3.657-11.352-7.298-16.369 2.372-7.234 2.818-15.236 1.318-22.746 3.746-6.809 5.613-13.912 5.768-20.828 13.352 1.43 23.888 9.299 27.56 23.113 4.958 18.668-8.893 36.523-27.348 36.83z"/><path d="m360.172 499.197c-3.139-12.868-12.554-23.856-26.872-29.2-.211-1.078-.471-2.154-.777-3.23 7.035.586 13.556-.871 19.275-3.811 10.345 12.66 27.424 16.658 42.592 10.977 11.539 12.803 11.531 31.215-.691 43.612-7.244-10.822-19.975-17.418-33.527-18.348z"/><path d="m327.142 455.015c-3.68-5.664-8.532-10.029-14.059-13.045-6.317-12.727-7.912-27.033 1.559-38.695 8.567-10.553 23.126-11.281 34.376-5.34 31.253 16.51 11.122 66.57-21.876 57.08z"/><path d="m314.558 456.361c12.722 11.557 10.947 29.352 1.376 42.036-6.214-.203-12.483.955-18.34 3.566-.442.131-.891.309-1.343.586-.484.236-.871.521-1.214.824-2.099 1.379-4.064 2.859-5.821 4.477-24.509-6.793-31.521-41.965-9.553-56.891 11.53-7.836 25.595-3.045 34.895 5.402z"/><path d="m279.232 522.174c-3.938 9.701-3.711 20.713 1.195 31.035-15.479 25.578-52.813 13.018-55.721-15.502-3.279-32.164 38.994-38.285 54.526-15.533z"/><path d="m284.025 573.059c-.511 20.582 13.062 41.883 33.966 45.553-9.817 11.414-25.169 12.578-40.024 5.441-9.976-4.795-14.664-15.682-14.676-26.178-.017-12.588 9.914-20.865 20.734-24.816z"/><path d="m266.125 628.648c7.682 7.184 18.772 9.848 29.295 10.066-1.229.428-2.451.889-3.646 1.408-9.588 4.176-16.313 11.822-19.777 20.842-9.977 1.031-18.663 5.076-25.262 10.953-30.457-11.818-20.886-54.295 10.52-55.078 2.092 4.14 4.952 8.143 8.87 11.809z"/><path d="m303.864 775.189c-9.931 1.635-19.212-.963-27.063-7.463-9.135-7.564-10.229-18.354-7.69-29.027 5.858.781 11.78.629 17.05-.342 5.978-1.102 10.99-3.635 15.176-7.137-1.257 11.059 3.454 21.207 11.068 28.734-3.901 4.677-6.797 9.825-8.541 15.235z"/><path d="m313.465 725.096c2.82-10.666 14.021-17.402 24.399-19.365.394-.016.784-.084 1.175-.211.428-.066.866-.182 1.288-.23 13.152-1.539 23.5 6.965 29.719 17.664-2.767 5.854-4.231 12.355-3.954 19.098.019.438.083.842.179 1.223.007.059 0 .115.009.176.417 2.879 1.088 5.529 1.932 8.012-18.649 25.039-63.195 5.562-54.747-26.367z"/><path d="m344.92 813.395c-26.647 3.381-42.128-25.453-24.196-46.953 3.462 2.119 7.173 3.811 10.997 4.928 6.026 1.762 11.913 2.35 17.494 1.824-8.339 11.87-10.551 27.421-4.295 40.201z"/><path d="m366.004 820.52c-3.7-1.779-6.565-4.068-8.804-6.65-.163-.256-.348-.49-.55-.713-12.806-15.988-.434-43.211 20.716-47.068 7.617 7.285 18.07 10.568 28.625 10.33 20.794 26.597-12.967 57.085-39.987 44.101z"/><path d="m410.023 766.465c-17.256 4.367-30.659-9.188-33.395-24.811-1.15-38.027 58.045-44.369 61.145-4.902 1.333 16.959-13.142 26.018-27.75 29.713z"/><path d="m427.169 770.957c12.881-6.805 22.274-19.705 20.872-37.578-.411-5.225-2.11-10.107-4.698-14.488 21.341-1.854 38.089 17.094 31.813 39.088-2.33 8.162-12.814 13.363-19.989 16.234-9.972 3.994-19.86 2.392-27.998-3.256z"/><path d="m454.136 785.463c9.196-1.709 17.771-6.119 24.007-13.059 3.233 1.682 6.536 3.053 9.877 4.076-7.521 13.684-8.02 31.201 2.999 43.451 1.22 1.355 2.575 2.625 3.999 3.836-23.612 7.344-46.335-13.462-40.882-38.304z"/><path d="m539.463 821.934c-11.245 6.508-24.498 2.002-34.649-4.242-13.796-8.486-15.088-26.59-5.835-39.166 8.594.51 17.182-1.602 25.197-7.156 1.635-1.133 3.131-2.396 4.498-3.756 25.922 5.044 35.174 40.206 10.789 54.32z"/><path d="m560.547 814.805c6.357-12.98 3.966-28.822-4.705-40.76 9.952 1.111 20.273-1.211 28.794-6.322 18.1 21.513 2.612 50.478-24.089 47.082z"/><path d="m537.397 753.043c2.327-7.436 2.417-15.627.232-23.24-.547-1.902-1.267-3.729-2.085-5.496 12.212-20.127 40.016-24.688 54.148-2.902 20.491 31.581-32.385 57.761-52.295 31.638z"/><path d="m551.297 554.846c-3.662 5.039-6.093 10.639-7.329 16.438-19.268-.072-30.497-18.137-27.337-36.867 2.343-13.9 14.633-21.67 27.557-23.129.152 6.906 2.016 14 5.749 20.803-1.481 7.52-1.012 15.522 1.36 22.755z"/><path d="m639.102 479.08c-.275 14.963-9.104 26.485-22.9 30.2-1.752-1.639-3.696-3.115-5.755-4.475-.35-.311-.741-.6-1.232-.842-.448-.273-.889-.449-1.324-.582-5.896-2.635-12.159-3.793-18.36-3.576-17.488-23.454.695-57.627 31.029-49.862 12.88 3.301 18.761 17.199 18.542 29.137z"/><path d="m622.779 439.8c10.553-5.26 18.104-15.086 21.234-26.521 22.587 4.297 31.305 27.125 19.547 46.35-5.743-.457-11.613.17-17.113 1.762-3.514-8.965-10.071-16.557-19.682-20.281-1.329-.517-2.659-.937-3.986-1.31z"/><path d="m625.17 555c5.21-10.164 5.173-21.459 1.03-31.371 16.005-23.934 55.529-15.906 54.561 15.492-.399 12.871-11.937 22.811-22.397 28.334-12.134 6.404-26.472-1.932-33.194-12.455z"/><path d="m627.5 625.463c-14.008 8.424-30.152 5.521-39.917-5.459 20.833-3.723 34.359-24.967 33.859-45.506 11.005 3.971 19.085 11.967 20.734 24.789 1.403 10.889-5.867 20.881-14.676 26.176z"/><path d="m568.596 562.969c-13.662-10.986-10.605-33.795.818-44.896 4.278-4.156 10.213-6.691 16.398-7.561.882.223 1.774.131 2.607-.195 5.429-.354 10.898.496 15.479 2.738 35.79 21.935-3.605 75.406-35.302 49.914z"/><path d="m592.156 443.847c-4.91 2.906-9.374 6.861-13.163 11.736-.212.271-.378.557-.582.832-32.179 9.459-50.794-35.316-24.757-55.275 10.591-8.117 24.917-7.199 34.972 1.291 12.52 10.572 10.151 28.32 3.53 41.416z"/><path d="m560.086 512.453c-1.711 1.662-3.176 3.543-4.488 5.533-3.414-14.051 2.514-27.977 15.98-34.895.822 6.457 3.192 12.809 6.691 18.625-6.707 2.055-12.986 5.686-18.183 10.737z"/><path d="m556.832 565.672c2.224 2.99 4.875 5.643 8.049 7.713 16.36 10.674 32.69 8.566 46.16-1.959 2.521 17.209-10.108 37.348-28.647 38.82-1.099.086-2.123.021-3.166-.008-.38-.049-.763-.049-1.147-.004-6.488-.445-11.832-3.084-15.854-7.096-.103-.121-.199-.244-.313-.355-8.89-9.193-11.097-24.963-5.082-37.111z"/><path d="m557.848 612.918c4.605 3.596 10.254 6.084 16.808 7.139 4.39 8.057 9.968 13.996 17.669 17.246-16.67 1.613-30.94 14.309-36.219 29.795-26.068-7.782-22.063-44.231 1.742-54.18z"/><path d="m610.592 651.76c12.143 6.201 17.438 19.396 14.177 32.504-4.081 16.4-21.999 21.252-36.768 20.443-5.105-3.662-11.029-6.273-17.163-7.666-21.946-25.631 11.868-59.523 39.754-45.281z"/><path d="m628.664 769.137c-7.406 6.715-17.449 9.025-27.075 7.459-1.783-5.463-4.727-10.668-8.635-15.348 7.094-7.158 11.448-16.986 10.782-28.764 3.612 3.141 7.895 5.523 12.901 6.795 5.965 1.514 12.913 1.785 19.722.85 2.596 10.889 1.188 20.959-7.695 29.008z"/><path d="m649.798 724.256c-16.345 12.012-37.866 6.414-46.389-10.102 14.253-3.025 25.897-11.867 31.515-27.09 1.67-4.529 2.197-9.08 1.82-13.498 23.25 5.448 35.637 34.098 13.054 50.69z"/><path d="m658.607 673.375c-6.515-5.818-15.043-9.861-24.823-10.959-3.98-8.904-11.429-16.457-20.093-20.881-.947-.484-1.896-.891-2.844-1.291 10.321-.295 21.176-3.338 28.494-10.186 3.921-3.666 6.777-7.668 8.874-11.807 31.443.786 41.002 43.382 10.392 55.124z"/><path d="m675.373 617.9c-6.58-5.602-14.98-9.129-23.718-9.975 1.692-9.922-.852-19.961-6.73-28.174 5.035.682 10.208.266 15.207-1.631 6.415-2.434 12.282-6.246 17.175-11.018 16.028 14.162 16.065 37.857-1.934 50.798z"/><path d="m691.292 539.121c.046-.438.044-.85.074-1.281 28.779 3.121 34.789 42.068 8.193 53.48-.019-11.813-5.059-23.604-15.551-32.311 3.935-5.941 6.553-12.712 7.284-19.888z"/><path d="m683.637 482.552c6.136 9.213 4.634 20.342-.599 29.284-9.357-10.193-24.994-14.057-39.422-11.053 2.895-5.206 4.815-11.192 5.574-17.834.431-3.764.366-7.6-.14-11.365 13.032-3.848 26.423-1.286 34.587 10.968z"/><path d="m670.143 392.207c4.929 7.73 4.711 16.912 1.543 25.02-6.234-8.049-15.752-12.426-26.123-14.291.205-6.83-1.076-13.893-4.291-20.697-.232-.492-.489-.943-.734-1.414 10.948-7.359 23.547 1.887 29.605 11.382z"/><path d="m632.178 387.554c5.963 10.459 2.108 23.801-3.055 33.629-4.65 8.855-13.078 11.955-22.211 12.189 2.571-12.543.36-25.047-8.641-36.133-4.222-5.199-9.612-8.561-15.477-10.391 12.492-17.204 37.246-20.593 49.384.706z"/><path d="m591.273 366.578c-8.195 3.961-15.411 10.379-19.981 18.592-8.036.074-16.174 2.527-22.953 6.877-2.421 1.555-4.575 3.266-6.474 5.104 1.989-5.303 3.238-11.023 3.748-16.783.92-10.408-2.742-19.492-8.979-26.381 13.058-29.677 55.02-19.378 54.639 12.591z"/><path d="m477.491 380.107c-.305-14.74 14.29-27.938 28.22-29.264 33.598.334 40.129 50.082 9.482 60.154-20.338 6.686-37.301-11.455-37.702-30.89z"/><path d="m500.039 421.886c3.201.623 6.539.898 10.001.705 9.331-.521 16.644-4.262 22.19-9.875-5.009 15.939.77 34.482 12.814 45.633-8.75 10.357-23.813 11.699-35.605 4.521-14.088-8.57-16.437-27.572-9.4-40.984z"/><path d="m511.766 518.959c-12.084-12.266-12.222-30.395-1.064-43.182 14.702 6.242 32.884.52 42.895-11.387 5.622 2.914 12.05 4.354 19 3.828-.306 1.098-.555 2.203-.752 3.313-14.138 5.389-23.434 16.309-26.549 29.081-13.553.927-26.283 7.521-33.53 18.347z"/><path d="m524.021 576.273c5.399 3.475 11.782 5.566 18.983 5.596.227 8.281 2.659 16.352 7.23 22.973-10.782 5.723-18.825 15.57-22.038 27.264-6.527-1.891-13.074-2.215-19.278-1.146-7.204-20.136-2.206-41.189 15.103-54.687z"/><path d="m526.688 642.494c-.327 16.389 12.171 30.971 27.324 35.064-.391 6.27.746 12.678 3.83 18.77-1.17.146-2.324.354-3.462.611-10.501-11.139-24.266-15.178-37.266-12.836-6.186-12.244-17.558-20.516-30.074-23.152 6.557-15.888 23.117-24.392 39.648-18.457z"/><path d="m497.898 596.098c-3.907 11.893-3.786 24.986.971 37.934-5.961 2.711-11.281 6.818-15.477 12.172-.37-.096-.766-.158-1.189-.18-17.508-.906-26.606-15.08-23.019-31.732 4.143-19.226 22.196-24.415 38.714-18.194z"/><path d="m484.201 583.223c-9.919.094-19.039 3.611-25.795 10.793-.53-.209-1.104-.365-1.762-.4-10.582-.563-14.846-13.008-13.2-21.664 1.444-7.59 9.016-14.805 16.104-16.949 17.206-5.202 26.648 14.106 24.653 28.22z"/><path d="m465.207 508.297c8.857 8.715 12.076 26.006 3.583 35.678-.13.148-.216.305-.327.455-5.385-.807-10.908-.346-15.561 1.73-1.516.676-2.958 1.486-4.342 2.379-1.716-5.951-4.927-11.684-9.144-15.861 1.454-7.99-.534-15.822-4.708-22.482 6.821-9.565 22.368-9.895 30.499-1.899z"/><path d="m435.042 544.029c2.606 3.99 4.239 8.727 4.351 13.254-4.203 5.725-6.671 12.637-6.788 19.738-7.837 7.715-18.572 10.715-29.394 7.711-3.439-6.172-8.067-11.832-13.784-16.758 1.874-2.164 3.518-4.549 4.919-7.1 16.666 4.554 32.344-2.497 40.696-16.845z"/><path d="m412.279 504.23c29.473 11.303 14.963 53.057-14.018 46.762 1.363-5.059 1.939-10.418 1.516-15.84-.212-2.703-.705-5.279-1.425-7.723 7.261-6.511 11.942-14.634 13.927-23.199z"/><path d="m405.206 451.029c-5.65 10.033-9.968 13.551-20.407 14.967-8.958 1.219-18.502-2.326-24.369-9.098 12.235-11.244 18.094-30.008 12.561-46.152 5.697 5.342 12.907 9.055 21.038 10.244 4.042.592 7.903.445 11.575-.209 5.139 9.804 4.808 21.004-.398 30.248z"/><path d="m427.253 373.476c6.1 20.482-14.17 39.736-33.75 36.873-15.391-2.252-21.88-17.385-23.118-31.395-1.542-17.459 13.195-29.363 29.371-29.523 13.35 1.272 23.779 11.563 27.497 24.045z"/><path d="m403.912 339.542c-7.144-1.455-13.971-2.578-26.946 6.059-4.741-8.504-12.201-15.453-21.023-19.119 14.638-16.912 44.393-9.397 47.969 13.06z"/><path d="m368.944 352.847c-4.927 5.979-8.14 13.602-9.075 22.436-.725 6.83.236 13.521 2.536 19.598-.831-.75-1.681-1.49-2.603-2.195-7.915-6.066-16.832-9.037-25.677-8.846-4.774-8.779-11.879-15.217-19.944-18.986-.1-31.819 41.884-41.925 54.763-12.007z"/><path d="m273.287 386.142c10.775-22.813 37.287-17.016 49.594-.277-4.715 1.607-9.273 4.148-13.487 7.707-11.62 9.811-13.675 24.551-10.758 38.395-9.255-.229-16.954-3.506-22.292-12.195-6.044-9.835-8.069-23.017-3.057-33.63z"/><path d="m261.875 411.796c1.324 4.658 3.202 9.158 5.372 13.289 3.335 6.348 8.331 10.701 14.146 13.516-10.76 3.037-18.303 11.432-22.279 21.371-5.794-1.754-11.641-2.377-17.262-1.838-11.751-19.326-2.846-42.254 20.023-46.338z"/><path d="m220.586 483.406c6.407-14.338 22.239-17.061 35.771-13.225-.377 2.5-.568 5.012-.523 7.486.143 7.736 2.086 14.912 5.501 21.073-14.11-2.647-29.133 1.9-38.344 12.566-5.351-8.445-6.751-18.18-2.405-27.9z"/><path d="m205.908 589.908c-26.625-11.424-20.575-50.443 8.281-53.492 0 .434-.029.852-.015 1.291.223 7.15 2.934 14.016 7.104 20.045-10.365 8.693-15.354 20.412-15.37 32.156z"/><path d="m228.126 565.717c5.1 4.838 11.105 8.678 17.209 10.99 5 1.896 10.172 2.314 15.209 1.631-5.875 8.201-8.417 18.225-6.738 28.139-9.129.789-17.207 4.391-23.542 10.143-18.165-12.903-18.183-36.692-2.138-50.903z"/><path d="m222.174 664.945c4.249 6.443 10.451 11.746 17.427 15.246-4.378 6.725-6.624 14.613-6.076 22.732-.437.125-.877.293-1.323.555-4.858 2.859-8.993 7.061-11.944 11.943-16.71-10.11-19.229-43.784 1.916-50.476z"/></g><path d="m429.393 658.811c4.937.492 9.929 1.896 14.798 4.473 3.229 1.709 6.145 3.805 8.765 6.158 6.967-5.861 15.016-8.822 23.143-9.301.452-1.406.971-2.762 1.536-4.082-7.912-1.301-14.713-4.869-19.841-9.936-5.061 5.707-11.914 7.961-20.245.184-5.751-5.369-9.003-13.834-13.604-20.156-3.711-5.098-8.344-8.941-13.697-11.115-.313 5.809-1.492 11.709-3.649 17.582 10.43 4.743 18.838 13.843 22.794 26.193z" fill="#f3af79"/><path d="m570.809 325.89c-8.532-5.42-18.178-7.803-26.389-4.252-11.591 5.012-20.642 10.758-34.153 10.412-8.664-.223-14.471.232-22.265 3.953-9.735 4.65-17.963 16.691-19.257 27.299-.296 2.428-.35 4.725-.29 6.961 4.476-15.773 19.722-27.582 35.713-29.734.473-.131.975-.223 1.543-.217.573-.053 1.079-.004 1.555.092 7.571.355 14.954 2.707 21.197 6.684 8.242-14.84 24.755-24.977 42.346-21.198z" fill="#f3af79"/><path d="m493.825 524.031c-1.016-22.133-16.772-40.614-36.431-48.786-5.033-1.684-9.976-3.607-14.828-5.77-11.029-12.467-13.922-25.127-8.681-37.979 2.621-8.916 6.626-17.477 10.071-26.092 4.433-11.088 9.081-25.068 6.203-37.227-5.896-24.895-23.924-42.557-46.999-51.063 6.866 6.262 11.46 15.166 11.607 26.207 13.424 6.684 24.056 19.996 23.739 35.371-.333 16.143-9.254 31.643-22.853 38.703 8.099 17.129 4.085 39.809-11.79 51.41 6.082 7.424 9.225 16.057 9.515 24.764.383.049.782.145 1.199.297 4.896 1.785 9.439 4.631 13.313 8.178 10.457-11.194 31.248-14.489 42.881-3.045 12.816 12.609 18.146 33.605 8.129 48.869 3.04 1.658 5.762 3.775 7.813 6.412.121.156.216.318.335.475 5.526-8.413 7.285-19.657 6.777-30.724z" fill="#f3af79"/><path d="m198.192 701.41c-4.71-17.955 1.348-39.301 19.507-45.984-1.588-5.359-1.864-11.15-.278-17.139 1.335-5.045 3.394-9.652 6.06-13.707-8.047-6.145-13.471-14.232-15.984-22.971-.088-.021-.171-.023-.259-.047-16.791-4.813-25.825-17.074-28.06-30.367-.162 3.576-.004 7.174.47 10.682 2.067 15.326 15.174 24.428 16.431 41.068.993 13.154-6.227 27.373-6.543 40.963-.296 12.649 1.877 26.602 8.656 37.502z" fill="#f3af79"/><path d="m443.22 786.242c-8.816-.381-17.472-3.189-24.494-8.523 6.113 13.217 6.804 30.34-4.279 40.799-8.906 8.408-21.096 14.83-33.464 15.598 5.297 1.857 10.764 2.654 16.151 1.268 10.196-2.623 19.069-7.123 28.959-10.711 10.861-3.938 22.606-.379 34.063 2.549-12.111-8.855-19.553-23.908-16.936-40.98z" fill="#f3af79"/><path d="m700.193 467.632c-8.321-11.51-12.91-20.891-13.163-35.287-.119-6.824-.615-13.502-1.936-20.193-.238-1.211-.554-2.354-.919-3.443-.379 7-2.599 13.957-6.682 20.271 3.31 11.271 2.314 22.717-3.059 32.928 8.367 2.963 15.559 8.689 19.539 17.596 6.636 14.846 4.449 29.459-4.838 42.026.705 1.783 1.255 3.684 1.654 5.678 9.723.629 17.599 4.262 23.5 9.619 7.426-22.796.74-48.677-14.096-69.195z" fill="#f3af79"/><path d="m275.298 345.242c24.31-22.635 54.787-34.193 86.117-43.338 16.126-4.707 32.577-7.898 49.414-8.01 23.037-.15 30.496 14.729 43.271 29.996 10.733 12.824 27.984 4.766 36.402-5.48 6.387-7.775 9.266-18.59 13.793-27.473 11.429-22.426 28.039 9.311 37.49 16.387 21.032 15.748 54.063 18.68 78.545 28.055 16.386 6.273 32.331 13.938 47.053 23.396-9.382-8.891-19.885-16.682-31.773-22.854-16.123-8.373-32.756-17-49.999-22.787-9.324-3.131-21.059-4.887-29.141-11.021-10.875-8.25-16.317-18.451-19.232-31.705-2.439-11.084-6.111-25.898-22.1-16.061-11.719 7.211-18.482 19.631-22.886 32.35-2.484 7.17-4.373 27.146-13.398 30.98-11.503 4.887-18.445-7.846-21.154-17.545-1.539-5.52-2.141-11.143-3.559-16.662-4.643-18.074-12.227-9.98-19.403-6.326-6.891 3.512-23.315 6.83-24.467 7.092-40.902 9.232-81.33 10.158-116.493 37.236-33.004 25.416-59.541 59.686-78.592 96.578-14.033 27.18-24.894 56.176-32.449 86.059 19.802-58.662 46.647-116.117 92.561-158.867z" fill="#fff7cf"/><path d="m418.533 904.281c2.81 2.35 5.809 4.271 8.559 5.455 9.341 4.014 16.653-7.992 21.705-15.982-4.479-.564-8.939-1.234-13.405-1.879-.56.77-1.073 1.568-1.675 2.311-3.82 4.726-9.264 8.201-15.184 10.095z" fill="#865725"/><path d="m528.197 632.105c3.213-11.693 11.256-21.541 22.038-27.264-1.314-1.904-2.4-3.953-3.359-6.066-4.883 7.781-10.169 13.725-21.604 16.451-5.963 1.42-13.238-1.305-18.403-4.004-.374-.195-.694-.426-1.034-.645-.355 6.682.652 13.582 3.085 20.381 6.203-1.067 12.75-.743 19.277 1.147z" fill="#7a2537"/><path d="m360.429 456.898c5.867 6.771 15.411 10.316 24.369 9.098 10.439-1.416 14.757-4.934 20.407-14.967 2.729-4.846 4.081-10.229 4.044-15.664-2.804 5.455-6.387 10.459-11.912 14.486-7.952 5.797-17.176 4.668-25.407.346-1.428-.75-2.627-1.719-3.739-2.771-2.156 3.509-4.764 6.718-7.762 9.472z" fill="#7a2537"/><path d="m623.383 615.109c-7.702 4.322-16.393 4.158-23.851.439-3.637 2.119-7.623 3.682-11.949 4.455 9.765 10.98 25.909 13.883 39.917 5.459 8.809-5.295 16.079-15.287 14.677-26.176-.181-1.412-.472-2.738-.805-4.033-3.509 7.933-8.884 14.745-17.989 19.856z" fill="#7a2537"/><path d="m587.064 555.793c-11.082-.107-19.156-9.58-22.867-18.99-1.051-2.664-1.571-5.367-1.838-8.09-4.81 11.541-3.869 26.129 6.236 34.256 24.165 19.436 52.763-7.018 49.154-30.41-.594 2.387-1.281 4.766-2.272 7.084-4.603 10.779-17.426 16.255-28.413 16.15z" fill="#7a2537"/><path d="m515.193 410.998c14.488-4.762 20.657-18.393 19.594-31.479-2.057 5.203-5.179 9.9-10.091 13.68-10.423 8.016-22.709 6.229-33.259-.277-9.018-5.559-10.577-14.262-11.698-23.234-1.491 3.279-2.322 6.801-2.248 10.42.401 19.434 17.364 37.575 37.702 30.89z" fill="#7a2537"/><path d="m385.957 810.732c-10.336.781-19.909-3.775-25.957-12.078-3.2-4.398-4.738-9.137-5.489-14.037-4.351 9.389-4.369 20.41 2.141 28.539.202.223.387.457.55.713 2.238 2.582 5.104 4.871 8.804 6.65 21.89 10.518 48.194-7.496 46.343-28.855-4.323 10.283-11.539 17.947-26.392 19.068z" fill="#7a2537"/><path d="m543.566 775.219c1.991 13.146 2.454 24.904-9.769 35.809-8.187 7.305-20.694 7.641-28.974.66-7.432-6.266-9.209-14.121-10.875-22.48-2.685 10.672.66 22.207 10.865 28.484 10.151 6.244 23.404 10.75 34.649 4.242 18.817-10.891 17.551-34.266 4.104-46.715z" fill="#7a2537"/><path d="m614.174 493.445c-16.402 1.951-26.924-11.027-29.365-25.398-3.69 9.816-2.736 21.756 4.721 31.758 6.201-.217 12.465.941 18.36 3.576.436.133.876.309 1.324.582.491.242.883.531 1.232.842 2.059 1.359 4.003 2.836 5.755 4.475 13.796-3.715 22.625-15.237 22.9-30.2.019-.99-.021-1.998-.089-3.012-5.475 9.019-13.275 16-24.838 17.377z" fill="#7a2537"/><path d="m368.211 751.461c-.844-2.482-1.515-5.133-1.932-8.012-.009-.061-.002-.117-.009-.176-.096-.381-.16-.785-.179-1.223-.006-.129.013-.254.009-.385-2.393 2.668-4.888 5.297-7.372 6.824-7.472 4.59-17.419 3.965-24.97.254-12.673-6.225-15.894-17.65-17.515-29.654-1.201 1.848-2.201 3.822-2.779 6.006-8.447 31.93 36.099 51.407 54.747 26.366z" fill="#7a2537"/><path d="m598.532 690.797c-12.56 1.236-21.339-7.846-27.238-17.633-1.748-2.904-2.561-5.953-2.853-9.076-6.158 9.568-6.976 22.008 2.396 32.953 6.134 1.393 12.058 4.004 17.163 7.666 14.769.809 32.687-4.043 36.768-20.443 1.11-4.467 1.154-8.924.346-13.129-5.749 10.308-14.047 18.428-26.582 19.662z" fill="#7a2537"/><path d="m538.944 737.25c.498 5.336.035 10.738-1.547 15.793 17.804 23.361 61.925 4.889 56.418-21.861-3.999 4.139-8.495 7.947-13.896 11.281-17.215 10.621-31.07 5.832-40.975-5.213z" fill="#7a2537"/><path d="m317.361 703.277c4.947-3.818 10.814-6.51 17.343-7.744 7.06-8.373 7.952-18.09 4.996-26.674-4.178 12.865-13.497 23.895-27.8 24.322-8.427.254-16.544-4.313-22.52-9.838-5.465-5.055-6.963-11.504-7.818-18.205-3.12 7.074-3.315 15.209 1.284 22.736 7.674 12.564 20.616 16.196 34.515 15.403z" fill="#7a2537"/><path d="m280.427 553.209c-2.833-5.957-4.055-12.141-3.869-18.172-5.871 10.336-10.997 20.283-26.025 21.355-8.351.6-17.154-3.771-23.362-9.152 9.121 21.44 39.637 28.475 53.256 5.969z" fill="#7a2537"/><path d="m289.216 507.85c1.757-1.617 3.723-3.098 5.821-4.477.343-.303.729-.588 1.214-.824.452-.277.9-.455 1.343-.586 5.856-2.611 12.126-3.77 18.34-3.566 8.491-11.254 10.821-26.522 2.357-37.897-.167 1.154-.288 2.375-.411 3.691-.963 10.313-5.379 16.842-14.258 22.338-8.153 5.045-18.904 4.15-27.33.467-4.587-2.008-7.444-5.203-9.776-8.852.685 13.111 8.929 25.889 22.7 29.706z" fill="#7a2537"/><path d="m410.595 395.566c-13.782 5.434-26.513-1.314-33.677-13.264-2.919-4.865-3.923-10.297-4.635-15.809-1.565 3.703-2.304 7.885-1.898 12.461 1.238 14.01 7.728 29.143 23.118 31.395 16.943 2.479 34.367-11.611 34.812-28.721-3.842 5.778-9.341 10.635-17.72 13.938z" fill="#7a2537"/><path d="m323.072 608.834c16.933-.818 28.178-13.512 29.272-27.814-4.67 7.178-10.772 13.064-19.978 16.234-15.116 5.209-26.22-2.582-36.825-11.254 1.603 4.363 4.243 8.422 7.999 11.883 4.58 4.219 12.632 11.283 19.532 10.951z" fill="#7a2537"/><path d="m360.172 499.197c13.552.93 26.282 7.525 33.526 18.348 8.226-8.342 10.894-19.404 8.259-29.653-4.877 4.219-10.419 7.719-18.727 8.787-9.737 1.254-18.401-1.627-26.325-6.184 1.417 2.77 2.529 5.676 3.267 8.702z" fill="#7a2537"/><path d="m560.798 641.814c-7.278 1.928-15.391 1.506-22.514-1.074-.749 11.357 4.756 22.457 17.821 26.357 5.278-15.486 19.549-28.182 36.219-29.795-4.671-1.971-8.551-4.945-11.868-8.768-4.54 5.966-9.956 10.71-19.658 13.28z" fill="#7a2537"/><path d="m543.968 571.283c1.236-5.799 3.667-11.398 7.329-16.438-2.372-7.232-2.841-15.234-1.36-22.756-.569-1.039-1.014-2.094-1.497-3.145-2.144 6.129-5.102 11.85-9.939 16.828-4.515 4.645-12.123 7.932-19.594 8.711 4.244 9.769 13.099 16.755 25.061 16.8z" fill="#7a2537"/><path d="m511.883 743.389c-6.754 1.773-14.347 1.014-20.743-1.701-1.639-.695-3.046-1.592-4.338-2.59 1.212 4.906 1.391 10.176.266 15.645-1.344 6.521-2.382 9.846 4.786 11.729 22.486 5.924 44.991-8.238 35.621-33.869-.028-.08-.069-.158-.101-.238-2.945 5.047-7.446 8.912-15.491 11.024z" fill="#7a2537"/><path d="m384.498 669.74c-6.018-.033-11.307-1.563-16.254-3.846-4.323 4.779-9.834 8.426-16.602 10.219.408 6.424-.874 12.871-4.082 18.99 1.143.145 2.272.334 3.383.576 10.512-11.252 24.332-15.334 37.385-12.992 2.934-5.797 6.979-10.736 11.728-14.641-5.026 1.044-10.152 1.722-15.558 1.694z" fill="#7a2537"/><path d="m485.019 619.262c-10.271 5.873-18.208 3.813-26.508.029-.936 14.398 7.971 25.92 23.691 26.732.424.021.819.084 1.189.18 4.196-5.354 9.516-9.461 15.477-12.172-2.858-7.777-4.012-15.605-3.654-23.197-2.81 3.174-6.048 6.057-10.195 8.428z" fill="#7a2537"/><path d="m344.92 813.395c-3.808-7.777-4.44-16.576-2.503-24.955-2.617 2.053-5.613 3.795-9.432 4.969-8.503 2.617-14.395-.336-19.831-4.668 1.166 14.739 13.935 26.915 31.766 24.654z" fill="#7a2537"/><path d="m312.404 759.955c-2.684-2.654-4.979-5.646-6.809-8.875-1.986 2.424-4.381 4.58-6.504 6.49-4.513 4.059-10.139 7.145-15.828 9.145-2.306.811-4.457 1.018-6.547.93.031.025.053.055.084.082 7.852 6.5 17.133 9.098 27.063 7.463 1.745-5.411 4.641-10.559 8.541-15.235z" fill="#7a2537"/><path d="m241.853 458.134c5.621-.539 11.468.084 17.262 1.838 3.977-9.939 11.52-18.334 22.279-21.371-3.563-1.725-6.756-4.111-9.51-7.094-2.542 3.766-5.56 7.172-10.186 9.74-8.387 4.65-17.092 1.789-24.935-2.539-.363 6.336 1.227 13.071 5.09 19.426z" fill="#7a2537"/><path d="m706.24 560.166c-7.144 2.863-14.623.328-20.352-4.369-.603 1.084-1.193 2.176-1.88 3.213 10.492 8.707 15.532 20.498 15.551 32.311 16.231-6.965 20.263-24.166 14.439-37.238-2.074 2.605-4.543 4.794-7.758 6.083z" fill="#7a2537"/><path d="m482.685 800.219c-7.535 5.117-16.465 8.072-25.5 7.943 6.898 12.902 22.143 20.484 37.833 15.605-1.424-1.211-2.779-2.48-3.999-3.836-5.152-5.726-7.759-12.609-8.334-19.712z" fill="#7a2537"/><path d="m659.474 651.385c-7.703 4.363-16.231 6.492-25.005 4.645-2.025-.426-3.906-1.141-5.74-1.947 2.003 2.594 3.735 5.379 5.056 8.334 9.78 1.098 18.309 5.141 24.823 10.959 16.869-6.471 21.518-22.307 17.048-35.355-4.17 5.125-9.333 9.485-16.182 13.364z" fill="#7a2537"/><path d="m645.563 402.935c10.371 1.865 19.889 6.242 26.123 14.291 3.133-8.016 3.361-17.076-1.398-24.754-2.742 1.629-5.78 3-9.423 4.006-6.718 1.857-11.351-.098-15.958-2.436.495 2.981.743 5.959.656 8.893z" fill="#7a2537"/><path d="m439.417 532.678c4.217 4.178 7.428 9.91 9.144 15.861 1.384-.893 2.826-1.703 4.342-2.379 4.652-2.076 10.176-2.537 15.561-1.73.111-.15.197-.307.327-.455 7.078-8.061 6.005-21.4.327-30.668-2.201 2.566-4.591 4.945-7.452 6.854-8.555 5.711-15.854 4.617-22.579.451.902 3.888 1.079 7.954.33 12.066z" fill="#7a2537"/><path d="m334.125 383.839c8.845-.191 17.762 2.779 25.677 8.846.922.705 1.771 1.445 2.603 2.195-2.3-6.076-3.261-12.768-2.536-19.598.936-8.834 4.148-16.457 9.075-22.436-2.337-5.428-5.641-9.521-9.466-12.424-.942 10.291-6.023 18.867-18.112 22.764-5.642 1.82-12.175 1.83-17.961.854-4.269-.719-6.683-2.604-8.74-5.014-.318 1.852-.489 3.793-.483 5.826 8.065 3.771 15.169 10.208 19.943 18.987z" fill="#7a2537"/><path d="m541.639 361.101c3.039 5.619 4.605 12.119 3.975 19.266-.51 5.76-1.759 11.48-3.748 16.783 1.898-1.838 4.053-3.549 6.474-5.104 6.779-4.35 14.917-6.803 22.953-6.877 4.57-8.213 11.786-14.631 19.981-18.592.049-4.215-.652-8.043-1.911-11.463-5.377 6.344-12.852 10.363-23.54 11.533-8.892.976-17.11-1.194-24.184-5.546z" fill="#7a2537"/><path d="m410.023 766.465c14.608-3.695 29.083-12.754 27.75-29.713-.316-4.029-1.242-7.557-2.605-10.646-1.262 10.162-4.99 18.764-18.631 24.268-10.087 4.072-21.622 3.705-29.957-3.736-5.496-4.908-7.302-11.354-7.598-18.123-1.623 3.832-2.502 8.215-2.354 13.141 2.736 15.621 16.139 29.176 33.395 24.809z" fill="#7a2537"/><path d="m592.314 785.783c-3.187 2.012-6.521 3.744-10.139 4.885-7.405 2.328-13.348 1.074-19.245-1.311 2.084 8.523 1.499 17.516-2.384 25.447 19.572 2.491 33.056-12.413 31.768-29.021z" fill="#7a2537"/><path d="m258.67 724.592c17.254 7.906 35.514 4.674 43.507-11.895-6.745-1.389-13.177-4.047-18.564-7.984-9.334 8.375-22.014 12.314-34.78 11.443 2.43 3.547 5.668 6.526 9.837 8.436z" fill="#7a2537"/><path d="m628.664 769.137c4.602-4.172 7.167-8.893 8.238-13.98-3.933 2.029-8.322 3.326-13.594 3.486-9.518.291-16.393-4.602-21.709-11.08-1.879 5.244-4.851 9.857-8.646 13.686 3.908 4.68 6.852 9.885 8.635 15.348 9.627 1.565 19.67-.745 27.076-7.46z" fill="#7a2537"/><path d="m645.815 714.248c-10.131 1.088-15.676-4.887-20.528-11.813-5.908 6.02-13.414 9.922-21.878 11.719 8.522 16.516 30.044 22.113 46.389 10.102 6.304-4.631 9.801-10.209 11.179-15.953-4.406 2.988-9.209 5.306-15.162 5.945z" fill="#7a2537"/><path d="m222.991 511.307c9.211-10.666 24.233-15.213 38.344-12.566-2.687-4.846-4.421-10.334-5.126-16.215-11.312 8.592-23.449 12.314-37.866 8.496-1.077 7.113.699 14.05 4.648 20.285z" fill="#7a2537"/><path d="m205.908 589.908c.017-11.744 5.005-23.463 15.371-32.156-1.01-1.457-1.923-2.969-2.745-4.518-2.234 3.602-5.172 6.83-9.731 9.59-7.519 4.547-13.51 3.803-19.889 1.777.041 10.17 5.425 20.344 16.994 25.307z" fill="#7a2537"/><path d="m379.88 605.252c-4.516 2.477-10.131 4.182-15.678 4.521 6.436 5.568 11.617 12.789 13.697 20.746 6.318-1.732 12.644-2.008 18.648-.973 4.57-12.77 4.212-25.904-1.064-37.252-3.822 5.583-9.802 9.774-15.603 12.958z" fill="#7a2537"/><path d="m336.872 561.559c12.392-12.322 10.793-28.826 2.294-40.145-1.076 9.533-4.767 17.729-15.35 23.471-7.843 4.254-17.607 4.34-25.995 2.16-4.882-1.268-7.667-3.736-9.867-6.756 3.873 21.217 30.072 40.008 48.918 21.27z" fill="#7a2537"/><path d="m230.264 616.619c6.335-5.752 14.413-9.354 23.542-10.143-1.262-7.441-.143-14.945 2.98-21.691-3.76 4.656-8.094 8.787-13.467 11.867-9.398 5.385-18.021 4.762-26.111 1.133 1.694 7.123 5.98 13.807 13.056 18.834z" fill="#7a2537"/><path d="m509.439 462.871c11.793 7.178 26.855 5.836 35.605-4.521-5.058-4.682-8.99-10.672-11.504-17.219-3.036 3.83-7.193 6.889-13.549 9.078-6.046 2.084-12.438 2.078-18.667 1.021-.852-.145-1.671-.352-2.469-.594 2.155 4.901 5.629 9.221 10.584 12.235z" fill="#7a2537"/><path d="m635.385 446.107c5.021 4.012 8.729 9.328 11.063 15.283 5.5-1.592 11.37-2.219 17.113-1.762 4.358-7.129 5.891-14.746 4.957-21.736-4.271 3.227-8.845 5.975-14.469 7.617-6.512 1.901-12.584 1.477-18.664.598z" fill="#7a2537"/><path d="m453.798 709.182c3.995-9.5 2.22-20.23-3.686-28.076-7.283 9.514-24.924 16.334-38.333 14.254 1.207 1.225 2.378 2.518 3.482 3.902 7.479 1.531 14.596 5.125 20.292 10.211 6.116-1.481 12.33-1.481 18.245-.291z" fill="#7a2537"/><path d="m317.991 618.611c-10.515-1.844-19.169-8.156-25.113-16.588-7.014 7.082-15.715 12.076-25.319 12.16 2.409 4.145 5.826 7.666 10.408 9.869 14.855 7.137 30.206 5.973 40.024-5.441z" fill="#7a2537"/><path d="m349.847 516.648c1.826-7.441.965-14.822-2.185-21.178-4.429 3.2-9.553 5.571-14.763 6.969 5.348 2.475 10.23 6.033 14.228 10.6.994 1.133 1.886 2.352 2.72 3.609z" fill="#7a2537"/><path d="m443.172 574.176c-.61 8.414 3.767 18.924 13.472 19.439.658.035 1.231.191 1.762.4 6.756-7.182 15.876-10.699 25.795-10.793.649-4.602.065-9.746-1.59-14.424-4.583 4.826-10.728 7.75-17.707 9.439-8.682 2.101-15.275-.184-21.732-4.061z" fill="#7a2537"/><path d="m650.31 590.422c1.825 5.604 2.357 11.57 1.346 17.504 8.737.846 17.138 4.373 23.718 9.975 10.837-7.793 15.09-19.479 13.297-30.639-6.531 5.346-14.763 7.387-23.661 7.143-5.693-.155-10.327-1.796-14.7-3.983z" fill="#7a2537"/><path d="m250.71 732.359c-3.183 3.094-7.15 5.533-11.003 7.488-2.339 1.188-5.811 2.68-9.341 3.559 7.078 8.76 16.772 9.221 27.074 6.15-.178-4.352.328-8.832 1.402-13.332-2.874-1.015-5.618-2.296-8.132-3.865z" fill="#7a2537"/><path d="m557.842 696.328c-3.084-6.092-4.221-12.5-3.83-18.77-9.523-2.574-17.994-9.293-22.894-17.994-7.175 5.998-16.668 10.533-25.245 10.568 4.546 3.76 8.443 8.434 11.241 13.971 13-2.342 26.765 1.697 37.266 12.836 1.138-.257 2.292-.464 3.462-.611z" fill="#7a2537"/><path d="m367.998 334.24c3.555 3.256 6.601 7.115 8.968 11.361 12.976-8.637 19.803-7.514 26.946-6.059-.835-5.242-3.135-9.635-6.299-13.127-7.594 6.37-19.004 8.217-29.615 7.825z" fill="#7a2537"/><path d="m270.62 396.789c-.593 7.969 1.59 16.254 5.724 22.982 5.338 8.689 13.037 11.967 22.292 12.195-2.228-10.578-1.515-21.66 4.109-30.686-10.788 2.192-21.663.819-32.125-4.491z" fill="#7a2537"/><path d="m600.354 400.113c7.191 10.354 8.911 21.785 6.558 33.26 9.133-.234 17.561-3.334 22.211-12.189 3.178-6.051 5.842-13.434 6.043-20.656-11.245 6.516-22.778 4.602-34.812-.415z" fill="#7a2537"/><path d="m402.24 523.467c-1.21 1.371-2.485 2.705-3.888 3.963.72 2.443 1.213 5.02 1.425 7.723.424 5.422-.152 10.781-1.516 15.84 18.727 4.068 31.389-11.924 30.068-26.805-7.879 4.218-18.849 4.083-26.089-.721z" fill="#7a2537"/><path d="m455.167 774.213c7.175-2.871 17.659-8.072 19.989-16.234.998-3.494 1.354-6.895 1.264-10.164-5.266 4.129-11.025 6.771-18.579 6.615-4.295-.088-8.46-1.359-12.307-3.332-3.517 8.854-10.245 15.57-18.364 19.859 8.137 5.648 18.025 7.25 27.997 3.256z" fill="#7a2537"/><path d="m220.257 715.422c2.951-4.883 7.086-9.084 11.944-11.943.446-.262.887-.43 1.323-.555-.353-5.225.467-10.348 2.25-15.133-8.242 5.148-19.223 6.76-28.516 4.904 1.05 9.266 5.648 18.278 12.999 22.727z" fill="#7a2537"/><path d="m668.436 494.689c-7.889 2.117-14.58.34-21.168-2.521-.948 3.063-2.166 5.946-3.651 8.616 14.428-3.004 30.064.859 39.422 11.053 4.73-8.082 6.35-17.94 2.096-26.567-4.354 4.599-9.977 7.614-16.699 9.419z" fill="#7a2537"/><path d="m545.295 500.611c.736-3.02 1.845-5.922 3.254-8.686-14.357 5.991-30.164 7.184-46.017 5.848.202 7.594 3.248 15.109 9.233 21.186 7.248-10.826 19.978-17.42 33.53-18.348z" fill="#7a2537"/><path d="m543.557 701.258c-2.541-2.049-5.274-3.588-8.086-4.773-3.752 4.574-8.946 8.463-14.298 11.033 2.925 2.066 5.652 4.416 8.007 7.109 3.896-5.453 8.777-10.09 14.377-13.369z" fill="#7a2537"/><path d="m463.82 712.455c.784.365 1.558.746 2.316 1.15 5.465-6.49 14.664-11.098 24.057-12.916 4.718-5.934 10.445-10.416 16.694-13.309-.848-1.396-1.81-2.699-2.82-3.957-3.91 5.803-9.119 10.533-16.585 13.277-8.968 3.295-15.518 1.492-21.265-2.307.705 5.923-.003 12.076-2.397 18.062z" fill="#7a2537"/><path d="m578.411 456.416c.204-.275.37-.561.582-.832 3.789-4.875 8.253-8.83 13.163-11.736 4.71-9.316 7.236-20.977 3.813-30.744-.662 7.322-3.887 14.01-11.915 18.971-11.507 7.105-28.304 1.211-35.565-8.801-2.281-3.143-3.517-6.719-4.238-10.467-10.04 21.694 7.333 51.493 34.16 43.609z" fill="#7a2537"/><path d="m664.94 545.338c-12.664 8.563-26.04 4.68-35.916-3.986-.378 4.623-1.597 9.242-3.854 13.648 6.722 10.523 21.061 18.859 33.193 12.455 10.461-5.523 21.998-15.463 22.397-28.334.156-5.043-.821-9.412-2.489-13.215-1.007 8.076-6.824 15.033-13.331 19.432z" fill="#7a2537"/><path d="m562.227 603.139c4.021 4.012 9.365 6.65 15.854 7.096.385-.045.768-.045 1.147.004 1.043.029 2.067.094 3.166.008 12.599-1.002 22.454-10.631 26.692-22.094-4.169 3.643-8.959 6.73-15.137 9.002-17.517 6.439-29.087 1.746-39.428-8.334 1.29 5.285 3.744 10.189 7.393 13.963.113.111.21.234.313.355z" fill="#7a2537"/><path d="m339.904 431.488c-8.584.77-17.114-1.424-24.354-6-3.999-2.525-5.924-5.836-6.961-9.527-1.755 8.551.331 17.623 4.495 26.01 5.526 3.016 10.379 7.381 14.059 13.045 23.042 6.627 39.783-15.779 37.163-35.529-5.034 7.936-15.605 11.216-24.402 12.001z" fill="#7a2537"/><path d="m376.351 713.27c6.147-7.154 14.598-12.359 24.173-14.211-2.359-1.826-4.901-3.168-7.515-4.225-5.959 5.793-15.482 9.348-24.257 10.043 2.8 2.447 5.365 5.238 7.599 8.393z" fill="#7a2537"/><path d="m377.922 549.518c-9.542 3.982-16.349-.309-21.697-6.693-.259 3.627-.913 7.221-2.034 10.641 3.641 5.018 6.063 10.594 7.298 16.369 16.331-.271 29.03-14.289 28.308-30.445-2.911 4.294-6.607 7.928-11.875 10.128z" fill="#7a2537"/><path d="m246.734 671.918c6.599-5.877 15.285-9.922 25.262-10.953 1.571-4.096 3.851-7.881 6.73-11.213-5.784 1.023-11.762 1.131-18.276-.344-13.117-2.969-19.5-11.264-26.538-20.68-9.994 13.686-7.545 35.288 12.822 43.19z" fill="#7a2537"/><path d="m349.505 665.65c17.838-5.418 21.479-24.32 14.273-38.818-7.627 8.91-19.654 14.738-31.373 15.402 1.961 1.352 3.82 2.932 5.548 4.764 5.346 5.664 9.275 12.031 11.552 18.652z" fill="#7a2537"/><path d="m301.648 462.171c-1.527-5.557-8.075-5.279-12.553-4.545-4.737.775-8.026 2.705-10.709 6.682-1.59 2.357-.134 6.637 2.871 7.057 4.162.582 7.442.736 11.659.123 4.448-.647 10.219-3.908 8.732-9.317z" fill="#a74153"/><path d="m341.211 414.537c1.241-1.439 1.821-3.586.686-5.305-2.621-3.959-7.608-3.314-11.306-1.281-1.415.779-2.529 2.021-2.858 3.631-.167.816-.481 2.252.329 2.848 1.637 1.199 2.931 1.516 4.924 1.797 2.789.394 6.21.646 8.225-1.69z" fill="#a74153"/><path d="m390.91 373.83c3.33 2.434 9.429 3.082 13.355 2.541 3.791-.521 5.204-6.461 2.322-8.797-4.354-3.529-14.155-4.605-16.871 1.705-.777 1.804-.411 3.379 1.194 4.551z" fill="#a74153"/><path d="m499.457 376.955c3.914 2.105 7.961 2.719 12.399 2.578 8.329-.268 10.669-13.051 2.021-14.936-6.303-1.373-12.617-.602-16.298 5.193-1.492 2.348-.569 5.85 1.878 7.165z" fill="#a74153"/><path d="m557.702 354.22c3.12 1.965 7.642 2.291 10.951.75 2.763-1.289 3.369-5.898 1.01-7.844-2.166-1.781-5.196-2.686-8.002-1.709-2.271.791-4.105 1.82-5.21 4.041-.866 1.743-.435 3.7 1.251 4.762z" fill="#a74153"/><path d="m565.874 406.058c-3.28.873-7.653 4.844-5.416 8.588 2.063 3.447 6.198 3.994 9.841 4.166 5.352.252 10.042-3.906 7.592-9.391-1.954-4.373-8.061-4.418-12.017-3.363z" fill="#a74153"/><path d="m614.217 394.015c3.215-.104 6.123-3.947 3.984-6.941-1.666-2.336-4.54-3.9-7.494-3.939-2.244-.029-4.55.305-6.074 2.09-.765.896-1.063 2.123-.411 3.189 1.775 2.916 6.596 5.712 9.995 5.601z" fill="#a74153"/><path d="m614.715 462.97c-4.553.248-8.901.674-12.094 4.311-2.293 2.613-2.174 6.904 1.123 8.725 3.596 1.982 6.963 2.105 10.971 2.262 4.169.162 7.647-3.602 7.647-7.648 0-3.999-3.48-7.878-7.647-7.65z" fill="#a74153"/><path d="m598.211 534.412c1.864-1.469 1.911-4.547.834-6.441-2.588-4.545-8.697-5.311-13.375-4.098-1.608.418-4.23 1.564-4.961 3.236-.355.809-1.199 2.244-.599 3.133 1.604 2.371 3.804 3.898 6.465 4.965 4.206 1.686 7.895 2.16 11.636-.795z" fill="#a74153"/><path d="m659.352 522.004c-2.955-1.574-6.773-2.416-9.992-1.111-2.495 1.012-5.271 2.582-4.674 5.746.721 3.803 6.862 5.547 10.069 6.266 6.401 1.437 10.78-7.606 4.597-10.901z" fill="#a74153"/><path d="m316.642 520.037c-5.168-.268-9.917 3.375-11.801 8.014-.807 1.98.857 4.533 2.826 4.979 4.015.908 8.406.252 12.131-1.336 2.537-1.08 3.549-4.621 2.876-7.064-.766-2.79-3.233-4.448-6.032-4.593z" fill="#a74153"/><path d="m258.695 521.592c-.967-3.516-4.753-5.703-8.283-4.703-3.155.896-6.255 2.703-8.314 5.311-1.602 2.027-3.406 5.766-1.023 8.027 3.713 3.521 10.607.744 14.527-1.031 2.711-1.225 3.831-4.925 3.093-7.604z" fill="#a74153"/><path d="m232.423 579.764c-4.529-.479-9.182 5.676-4.574 8.832 2.345 1.607 5.848.438 7.629-1.459 2.757-2.938.617-6.985-3.055-7.373z" fill="#a74153"/><path d="m300.904 659.918c-2.289 1.039-8.098 6.127-4.494 8.934 2.151 1.674 4.494 2.02 7.049 2.762 3.824 1.109 8.973 1.811 12.389-.521 3.413-2.328 4.373-7.008 1.303-10.117-4.277-4.337-11.164-3.363-16.247-1.058z" fill="#a74153"/><path d="m343.388 715.088c-3.497.225-7.95 2.057-9.623 5.318-.744 1.457-.441 3.434 1.117 4.256 2.906 1.535 6.775 1.75 9.975 1.287 2.573-.371 6.273-1.816 6.855-4.756.627-1.027.508-1.941-.318-2.799-1.208-2.882-5.33-3.476-8.006-3.306z" fill="#a74153"/><path d="m414.085 721.564c-4.269-2.209-9.067-1.393-13.305.492-3.04 1.35-5.712 5.641-4.003 8.846 2.785 5.219 13.031 4.182 17.308 2.227 4.538-2.076 4.208-9.387 0-11.565z" fill="#a74153"/><path d="m386.195 782.16c-3.163-.779-6.681-.117-9.908.068-1.16.064-4.928.234-5.249 1.965-1.415 7.66 11.563 9.955 16.354 7.125 3.655-2.156 3.077-8.107-1.197-9.158z" fill="#a74153"/><path d="m495.005 724.717c-.705.727-.885 1.871-.354 2.754 1.664 2.773 5.12 3.807 8.194 4.115 3.188.318 7.289.592 8.363-3.311 2.154-7.832-12.808-7.048-16.203-3.558z" fill="#a74153"/><path d="m570.723 718.441c-4.581-2.287-12.41-3.426-16.332 1.014-.621.703-1.407 1.383-1.887 2.199-.076.133-1.493 3.445-.519 1.531-.396.779-.833 2.385.022 3.02.479.355.901.6 1.338.822 2.931 2.711 8.297 3.699 11.918 4.365 3.167.58 6.292-.338 8.001-3.256 1.854-3.165.912-7.97-2.541-9.695z" fill="#a74153"/><path d="m604.088 657.92c-7.938-1.625-16.622.082-18.395 8.973-.104.512.053 1.074.543 1.336 2.014 1.09 3.568 2.25 5.866 2.906 2.616.748 5.374.619 8.024 1.162 3.976.814 8.038-1.098 9.169-5.207 1.023-3.717-1.223-8.356-5.207-9.17z" fill="#a74153"/><path d="m518.307 782.006c-2.688 1.488-9.116 7.289-6.296 10.973 3.491 4.559 11.104 4.445 14.738-.029 2.001-2.463 2.798-5.529 1.09-8.443-1.952-3.333-6.208-4.341-9.532-2.501z" fill="#a74153"/><path d="m655.008 630.055c-2.658-.162-4.607 1.609-6.136 3.211-1.376 1.441-3.108 4.061-1.66 6.086 3.98 5.566 14.224.643 12.136-5.994-.633-2.012-2.267-3.178-4.34-3.303z" fill="#a74153"/><path d="m673.136 580.41c-2.687-.297-5.247 1.943-6.368 4.178-.145.287-.193.662 0 .945 1.176 1.725 2.41 2.357 4.496 2.523 2.205.174 4.34-1.633 4.947-3.611.658-2.154-1.099-3.818-3.075-4.035z" fill="#a74153"/><path d="m571.107 584.359c-1.152-.289-5.879-.76-6.193 1.166-.44 2.705 1.806 4.986 4.273 5.791 3.125 1.018 6.12 1.908 8.924-.281.913-.713.999-2.322.419-3.246-1.705-2.705-4.609-2.725-7.423-3.43z" fill="#a74153"/><path d="m475.798 600.6c-2.613.488-4.836 2.242-6.118 4.547-1.402 2.523-.261 6.4 2.849 7.004 2.72.527 5.221.238 7.641-1.184 2.189-1.291 3.282-3.947 2.605-6.406-.87-3.165-3.942-4.532-6.977-3.961z" fill="#a74153"/><path d="m467.498 567.92c3.549-1.693 2.496-7.271-1.067-8.166-3.676-.922-8.408.467-9.598 4.43-.327 1.096.048 2.262.814 3.072 2.53 2.682 6.848 2.096 9.851.664z" fill="#a74153"/><path d="m389.359 436.455c2.748.686 5.104.4 7.615-.871 1.602-.811 2.563-2.732 2.566-4.471.008-4.518-5.145-6.129-8.837-4.734-2.542.961-6.707 2.186-5.891 5.785.455 2 2.593 3.804 4.547 4.291z" fill="#a74153"/><path d="m291.284 388.009c1.915.301 3.76.662 5.648.711 5.195.137 7.512-7.566 2.706-9.99-3.338-1.682-6.943-1.541-10.163.361-2.287 1.354-4.786 4.779-2.486 7.244 1.155 1.241 2.721 1.43 4.295 1.674z" fill="#a74153"/><path d="m250.815 435.343c2.833.436 5.061-.623 7.253-2.359 4.607-3.65-1.374-11.184-6.229-8.07-2.575 1.65-4.496 4.65-3.655 7.799.309 1.152 1.385 2.439 2.631 2.63z" fill="#a74153"/><path d="m517.507 430.691c-3.517-1.514-7.718-.771-10.007 2.51-.58.828-.625 2.377 0 3.199 2.192 2.898 6.909 4.236 10.007 1.887 2.277-1.725 3.393-6.133 0-7.596z" fill="#a74153"/><path d="m535.647 523.498c-2.238-.311-3.874-.078-5.812 1.107-1.875 1.145-3.122 3.096-3.552 5.209-.688 3.396 1.98 5.893 5.305 5.305 2.274-.402 5.546-1.887 6.961-4.486 1.34-2.461.34-6.688-2.902-7.135z" fill="#a74153"/><path d="m565.043 630.455c1.283-1.869.684-4.504-.779-6.049-3.934-4.148-10.955-1.303-12.513 3.645-.36 1.145.026 2.547.891 3.369 3.53 3.357 9.589 3.131 12.401-.965z" fill="#a74153"/><path d="m513.511 647.801c-4.278-.697-8.522 1.271-10.688 5.053-1.09 1.9-.173 4.832 2.154 5.291 3.691.729 7.722.029 10.593-2.543 2.453-2.198 1.381-7.241-2.059-7.801z" fill="#a74153"/><path d="m399.925 650.365c-2.039-4.373-8.526-3.838-11.879-1.641-3.025 1.984-2.207 5.926.938 7.174 2.816 1.119 6.494 2.357 9.32.65 2.255-1.36 2.674-3.927 1.621-6.183z" fill="#a74153"/><path d="m405.994 567.455c-.584.363-.907.977-1.478 1.348-.604.393-.604 1.23 0 1.621.996.645 1.506 1.541 2.722 1.92 1.255.389 2.452.631 3.771.684 2.477.1 6.298-1.541 6.035-4.537-.229-2.607-3.106-3.24-5.284-2.984-1.399.164-2.664.539-3.956 1.088-.635.266-1.224.497-1.81.86z" fill="#a74153"/><path d="m427.603 673.945c-3.258-.99-6.954-.191-9.531 1.998-1.969 1.67-3.633 4.066-2.434 6.672 2.112 4.592 9.882 3.875 13.309 1.615 4.062-2.677 3.462-8.824-1.344-10.285z" fill="#a74153"/><path d="m466.941 737.576c.162-2.682-1.71-4.711-4.038-5.709-.835-.357-4.102-1.104-4.423.479-.608 3.014.942 6.377 3.355 8.158 2.23 1.646 4.965-.627 5.106-2.928z" fill="#a74153"/><path d="m619.964 749.453c-1.045-.227-1.981-.58-3.063-.578-.997 0-1.882.4-2.815.705-.276.088-.391.33-.344.605.356 2.115 1.346 3.74 3.575 4.244 1.841.418 4.143.27 4.867-1.832.427-1.242-1.099-2.9-2.22-3.144z" fill="#a74153"/><path d="m645.063 691.678c-1.635 1.715-1.695 5.527-1.136 7.695 1.167 4.518 6.963 3.795 8.43 0 .907-2.344.08-5.285-1.731-6.98-1.456-1.358-3.92-2.434-5.563-.715z" fill="#a74153"/><path d="m462.929 792.438c-.004-.004-.004-.01-.006-.014-.422-.403-.769-.744.006.014z" fill="#a74153"/><path d="m469.524 785.734c-2.815.449-5.307 2.693-6.813 5.02-.333.512-.212 1.246.212 1.67.229.221.478.459.578.547.861.752 1.919.771 3.003.912 2.794.363 5.217-1.072 6.714-3.344 1.744-2.65-1.115-5.215-3.694-4.805z" fill="#a74153"/><path d="m286.606 745.217c-3.032-.494-5.212.98-7.746 2.438-1.199.689-4.256 2.82-3.082 4.621 2.662 4.086 11.155 2.316 13.019-1.674.901-1.93.337-4.971-2.191-5.385z" fill="#a74153"/><path d="m254.708 689.52c-1.953.871-3.429 2.453-4.371 4.377-1.254 2.561-1.129 4.793.624 7.061.841 1.086 2.55 1.283 3.78.998 3.48-.811 4.992-5.016 5.546-8.148.607-3.439-2.442-5.687-5.579-4.288z" fill="#a74153"/><path d="m258.021 637.447c.781-.598 1.443-1.557 1.061-2.607-.884-2.426-2.815-3.008-4.94-4.094-1.01-.518-1.938-.84-3.034-1.105-.357-.123-.726-.197-1.104-.225-.095 0-1.514.078-.88.145-.56-.059-1.21.564-1.136 1.137.277-.387.27-.295-.026.275-.165.594-.025 1.068.201 1.611.512 1.234 1.055 2.318 2.11 3.176 2.089 1.697 5.201 3.64 7.748 1.687z" fill="#a74153"/><path d="m669.406 479.107c-2.997-2.934-8.127-1.857-11.375.154-2.52 1.561-2.159 5.596.833 6.381 3.347.879 7.86 1.664 10.542-1.043 1.477-1.492 1.519-4.004 0-5.492z" fill="#a74153"/><path d="m650.598 434.386c-.325.148.675.381-.189-.164.813.512 1.842.398 2.732.223 1.888-.377 3.325-1.516 4.277-3.164 1.857-3.207-1.696-5.875-4.63-4.631-1.804.768-2.767 2.197-3.499 3.941-.238.564-.374 1.395-.149 1.98-.024-.584-.06-.563-.107.063.087.58.091.646.011.197-.54 1.065.523 2.028 1.554 1.555z" fill="#a74153"/><path d="m516.854 489.681c1.049.797 1.616 1.623 2.892 2.152 1.265.525 2.707.609 4.063.467 2.493-.26 4.134-1.5 5.159-3.482.255-.494.242-1.16-.202-1.555-.58-.52-1.151-.871-1.882-1.154.489.152.322-.012-.498-.494-.811-.477-1.67-.477-2.577-.5-1.335-.033-2.948.188-4.157.76-1.197.568-1.787 1.42-2.797 2.186-.599.454-.599 1.169-.001 1.62z" fill="#a74153"/><path d="m627.957 591.002c-2.187 1.795-4.479 5.023-5.044 7.785-.294 1.438.667 3.146 2.316 3.043 2.923-.189 4.696-1.912 5.747-4.584.855-2.176.526-4.531-1.041-6.244-.55-.604-1.411-.467-1.978 0z" fill="#a74153"/><path d="m527.457 590.176c-3.378-.369-8.434 2.734-7.881 6.498.282 1.916 2.502 3.189 4.219 3.555 3.118.66 5.908-.428 7.677-3.053 2.172-3.219-.811-6.651-4.015-7z" fill="#a74153"/><path d="m454.482 508.002c-2.693-.82-6.107-.246-8.108 1.826-1.202 1.24-1.202 3.186 0 4.426 2.001 2.072 5.415 2.648 8.108 1.828 3.996-1.219 3.996-6.863 0-8.08z" fill="#a74153"/><path d="m373.39 537.346c6.307-1.734 4.791-11.777-.647-13.561-1.913-.627-3.564.723-4.219 2.396-1.236 3.163-1.043 12.79 4.866 11.165z" fill="#a74153"/><path d="m282.122 595.012c.06-.098 1.216-3.453.442-1.662.463-1.068.299-2.16-.685-2.85-.052-.066-.078-.1-.138-.178-.342-.279-.693-.543-1.058-.791-1.002-.707-2.668-.656-3.802-.346-2.027.559-3.78 2.096-4.673 3.953-1.004 2.092.142 5.568 3.001 5.23 1.742-.205 3.395-.531 4.938-1.436.72-.418 1.554-1.196 1.975-1.92z" fill="#a74153"/><path d="m397.212 575.938c2.283 2.787 4.289 5.727 5.998 8.795 10.821 3.004 21.557.004 29.394-7.711.069-4.189 1.043-8.281 2.622-12.133-2.754 3.445-5.688 6.723-9.86 9.182-9.133 5.384-18.655 4.22-28.154 1.867z" fill="#7a2537"/><path d="m593.094 198.421c-4.126 8.205-6.969 16.842-8.521 25.781-1.483 8.537-.091 9.859 4.321-.27 2.055-4.717 4.558-9.248 7.269-13.652.293-8.422 1.522-16.695 4.332-24.561-2.588 4.187-5.213 8.353-7.401 12.702z" fill="#df3f58"/><path d="m565.247 171.505c-18.271 21.002-24.784 48.895-25.356 76.162 3.088 3.576 4.906 8.268 6.091 13.566 5.099 22.832 12.876 31.824 35.682 39.479 1.699.57 3.394 1.172 5.091 1.764-3.051-2.557-5.975-5.285-8.719-8.27-11.729-12.76-18.346-29.332-21.357-46.188-5.488-30.719 2.39-63.248 20.748-88.109-4.362 3.589-8.513 7.38-12.18 11.596z" fill="#df3f58"/><path d="m674.796 348.304c-4.806-3.387-9.88-6.314-15.149-8.826 13.263 9.893 25.246 21.447 35.239 35.131 63.136 86.441 57.993 207.018 24.663 303.989-14.428 41.975-32.56 91.369-62.949 124.656-17.513 19.184-41.131 32.047-65.322 40.861-120.143 43.775-270.429 18.84-366.885-66.627-15.227-13.492-16.717-12.609-4.705 4.088 17.976 24.986 41.551 45.779 71.876 59.744 36.591 16.85 90.097 31.445 146.126 39.99 12.436.217 24.821.4 37.089.699 55.314 1.342 114.824-2.15 163.404-31.465 40.012-24.143 65.331-67.635 83.115-109.525 20.489-48.266 31.721-100.779 35.492-152.971 3.352-46.363-1.62-92.838-15.198-137.311-12.008-39.325-32.511-78.286-66.796-102.433z" fill="#df3f58"/><path d="m516.166 241.525c4.113-1.063 8.579-1.146 13.428.051.67-12.449 2.647-24.43 6.099-35.734 2.146-9.607 5.052-19.074 7.934-28.088 4.419-13.82 9.345-28.705 15.728-42.43-19.019 24.584-32.158 55.965-39.3 85.695-1.414 5.883-2.969 13.035-3.889 20.506z" fill="#df3f58"/><path d="m421.242 178.208c11.875 13.158 20.52 31.127 23.807 47.541 2.385 11.908 1.985 26.078-4.276 36.32 4.834-1.48 9.6-1.711 14.16 1.059 5.427 3.295 8.322 11.688 9.365 17.543.611 3.434 8.4 35.787 11.766 23.102 1.63-6.137 4.025-14.322 7.314-22.756-11.37.229-20.698-11.406-25.015-23.34-4.134-11.43-4.165-23.939-7.436-35.619-2.945-10.51-8.586-19.727-14.588-28.725-3.934-5.9-8.614-12.07-15.097-15.125z" fill="#df3f58"/><path d="m499.05 253.06c1.872-2.162 2.335-3.115 2.411-5.146-1.244-7.246-1.662-14.734-2.473-21.957-1.376-12.262-3.479-24.477-6.663-36.406-4.063-15.223-8.047-30.416-13.219-45.234 2.519 11.223 2.92 23.691 4.061 34.488 1.846 17.449 2.87 34.986 4.451 52.461 2.841 8.842 5.326 17.809 7.539 26.816 1.235-1.766 2.533-3.448 3.893-5.022z" fill="#df3f58"/><path d="m753.548 789.93c2.475-2.918 4.929-5.848 7.268-8.846 43.554-55.883 63.386-126.635 60.599-197.059-2.513-63.508-20.464-128.266-55.64-181.637-15.051-22.834-33.304-44.719-56.019-60.328-2.014-1.383-4.051-2.641-6.098-3.842 65.023 55.85 108.459 118.365 107.149 265.782-.473 53.234-14.352 116.908-57.259 185.93z" fill="#ff9780"/><path d="m377.14 152.291c9.285 10.35 32.51 36.98 47.467 63.74-6.449-25.35-20.686-48.723-39.076-68.27-9.406-9.996-3.184-8.283 5.303-5.414 18.044 6.105 34.231 16.969 48.359 30.816 16.624 16.297 27.546 35.52 36.866 55.918-9.433-28.426-23.165-55.674-45.79-74.82-14.865-12.582-32.415-21.588-51.603-25.42-11.747-2.346-28.643-4.691-14.964 9.236 4.569 4.651 9.082 9.36 13.438 14.214z" fill="#ff9780"/><path d="m572.98 97.054c18.926-6.695 17.828 26.254 15.404 43.176 1.163-.734 2.311-1.506 3.48-2.223 5.124-3.131 6.039-5.305 5.692-11.768-1.177-21.674-8.3-56.484-31.023-33.539-10.688 10.793-19.123 23.662-26.514 36.898 8.168-12.886 18.067-27.274 32.961-32.544z" fill="#ff9780"/><path d="m595.072 147.482c7.963-3.535 16.051-6.789 24.245-9.711 7.344-2.619 23.271-7.531 17.451 5.617-7.487 16.918-18.186 32.24-27.183 48.414 17.059-20.508 32.636-40.889 44.648-64.947 4.555-9.121 8.43-15.564-3.715-8.857-5.105 2.814-10.202 5.65-15.402 8.289-12.976 6.591-27.007 13.248-40.044 21.195z" fill="#ff9780"/><path d="m466.369 87.587c-23.266-14.166-28.605 4.145-29.379 24.631 6.967-22.16 11.805-24.273 19.047-22.111 7.193 2.146 14.285 8.641 19.989 13.191 12.946 10.334 23.55 22.645 32.019 36.453-8.668-20.876-22.409-40.431-41.676-52.164z" fill="#ff9780"/></g></g></svg>