<svg id="Fruit" height="512" viewBox="0 0 992.13 992.13" width="512" xmlns="http://www.w3.org/2000/svg"><g><path d="m853.694 644.168c-27.372-6.221-52.658-20.119-79.039-35.33 26.115-45.152 30.731-97.176 29.465-135.415-2.292-69.277-43.873-132.262-78.354-172.898-39.405-46.443-84.127-74.305-133.221-83.061-2.664-16.529-12.654-24.721-22.104-28.775-5.932-2.547-12.227-3.838-18.704-3.838-16.11 0-29.458 7.814-40.183 14.094-.852.496-1.709.998-2.557 1.488-5.492-2.254-11.928-3.92-19.189-3.92-4.243 0-8.508.582-12.677 1.727-7.847 2.158-20.409 8.098-27.849 24.395-7.219 2.236-14.553 4.578-21.92 7.006l-.801.264c-8.785 2.877-25.137 8.234-32.482 24.793-3.871 8.729-4.121 18.311-.705 26.979 1.551 3.932 3.742 7.387 6.273 10.408-.218.303-.436.607-.652.914-21.695 3.152-33.607 20.342-40.279 34.742-61.902 4.145-107.4 17.568-150.004 43.936-40.644 25.154-75.5 62.094-100.805 106.824-23.252 41.104-36.367 90.434-37.928 142.661-.561 18.789 2.293 35.752 5.051 52.156 1.58 9.393 3.073 18.268 3.902 27.264 1.945 21.084 4.611 49.961 36.766 65.416 8.945 4.299 18.061 6.469 26.104 8.383 2.299.551 4.586 1.092 6.82 1.684 4.836 1.283 9.895 3.139 15.248 5.102 6.338 2.322 12.889 4.725 20.125 6.604 18.988 4.938 39.576 7.338 62.943 7.338 7.445 0 15.289-.256 23.313-.76 23.252-1.459 46.794-5.98 70.121-13.461 21.35 9.498 44.705 12.502 65.648 15.193l2.09.268c31.684 4.086 65.46 6.502 100.393 7.188 2.822.053 5.645.08 8.465.08 27.896 0 55.561-2.611 82.313-5.135 4.896-.463 9.793-.924 14.691-1.369 19.289-1.76 35.406-2.58 50.721-2.58 5.793 0 11.521.125 17.031.371 11.223.5 22.688 3.043 34.826 5.736 11.801 2.621 24.002 5.328 37.047 6.4 2.018.166 3.916.242 5.691.242 25.135 0 33.848-15.234 36.428-21.783 3.154-8.012 2.926-16.313.65-24.178 37.408-3.715 71.628-14.617 102.035-32.547 23.594-13.914 24.812-30.791 23.436-39.615-3.25-20.866-24.904-35.161-68.143-44.991z" fill="#fff"/><g><path d="m848.399 667.457c-39.035-8.873-73.033-30.973-107.998-50.777 31.706-39.201 41.484-93.102 39.85-142.467-1.938-58.566-35.863-114.826-72.695-158.236-36.604-43.141-82.123-74.182-139.584-77.365 2.057-10.061 3.881-23.328-6.946-27.975-18.368-7.881-36.62 10.924-52.38 16.609-.029.01-.052.027-.08.039-7.564-5.043-15.635-8.619-25.102-6.018-9.427 2.592-13.512 11.16-15.275 20.584-11.168 3.326-22.284 6.826-33.355 10.473-6.771 2.23-15.752 4.914-18.922 12.061-5.024 11.324 8.914 18.979 18.707 23.145-8.611 8.723-16.26 18.563-22.765 29.479-1.147-.264-2.327-.449-3.542-.549-19.566-1.582-27.691 18.824-32.934 34.35-.277.002-.556-.014-.834-.01-55.619 2.34-105.41 11.568-153.262 41.186-38.815 24.023-70.209 58.719-92.586 98.275-22.648 40.038-33.477 85.875-34.843 131.612-.79 26.52 6.466 50.514 8.864 76.514 1.871 20.283 3.517 36.563 23.327 46.084 8.913 4.283 19.208 5.992 28.704 8.51 11.977 3.178 23.205 8.543 35.258 11.676 25.427 6.611 52.676 7.494 78.751 5.855 25.103-1.574 49.774-7.004 73.396-15.441 20.406 11.615 46.188 14.648 69.012 17.592 32.439 4.182 65.109 6.354 97.809 6.994 34.414.674 68.609-3.211 102.832-6.33 23.66-2.158 47.225-3.342 70.98-2.283 24.977 1.111 48.336 10.184 72.771 12.193 28.143 2.316 19.656-20.799 5.533-33.967-4.139-3.857-8.549-7.48-13.064-11.004 47.936 3.084 96.273-5.314 138.246-30.064 37.436-22.077-22.816-37.321-37.873-40.745z" fill="#68182b"/><path d="m550.716 219.878c11.648-1.492 8.395 10.568 6.582 18.475-10.131.008-20.149.848-29.98 2.443-.35-.393-.752-.766-1.274-1.082-2.592-1.566-5.161-3.422-7.745-5.348 10.657-5.365 20.246-12.929 32.417-14.488z" fill="#a2603f"/><path d="m489.325 230.767c8.248-.873 16.873 6.721 24.33 12.799-12.641 3.063-24.842 7.426-36.331 13.131-.018-10.506 1.008-24.768 12.001-25.93z" fill="#a2603f"/><path d="m428.686 272.373c-4.293-2.98-3.417-4.357.718-6.729 6.506-3.727 14.869-5.355 21.98-7.625 5.188-1.656 10.402-3.219 15.617-4.789-.139 3.27-.146 6.377-.139 9.131-8.492 5.012-16.482 10.828-23.935 17.346-.302-.189-.63-.363-.993-.502-4.675-1.811-9.124-3.967-13.248-6.832z" fill="#a2603f"/><path d="m573.708 249.412c52.225 2.666 93.275 36.398 126.402 74.012 35.278 40.059 63.535 91.529 69.217 145.184 5.053 47.733-6.758 105.407-38.227 142.897-14.634-8.018-29.518-15.42-45.102-21.045-53.6-19.34-112.17-22.775-168.115-13.396 8.33-27.666 11.621-56.795 8.564-86.215-2.273-21.881-6.686-41.938-15.339-60.123 12.446-9.611 32.597-22.648 23.761-40.354-7.264-14.553-29.498-15.412-44.494-18.281 2.031-10.52 1.107-20.994-9.078-25.318-9.371-3.977-20.926-.674-31.072 4.59-9.505-8.43-17.593-22.545-28.682-30.014 32.247-53.023 90.892-75.064 152.165-71.937z" fill="#aa8053"/><path d="m506.226 421.402c-5.52-9.48-12.393-18.41-20.977-26.773-.555-.541-1.141-1.045-1.703-1.576 1.223-2.965 2.725-6.695 4.08-10.748 11.104 2.303 22.701 3.086 32.834 8.527 15.664 8.412-3.663 22.802-14.234 30.57z" fill="#a2603f"/><path d="m475.231 385.771c-9.258-7.516-19.395-13.896-30.119-19.082 8.602-6.129 20.691-12.281 30.545-10.732 9.879 1.55 3.455 20.109-.426 29.814z" fill="#a2603f"/><path d="m410.235 327.937c1.002.896 2.299 1.457 3.609 1.51 11.195 6.018 17.881 18.6 26.975 27.543-2.428 1.643-4.665 3.301-6.629 4.869-15.277-6.02-31.479-9.633-47.826-10.699 4.024-11.651 10.623-27.336 23.871-23.223z" fill="#a2603f"/><path d="m748.448 771.848c-6.895-1.631-14.061-4.307-19.926-5.547-10.229-2.164-20.619-3.457-30.996-4.637-64.207-7.297-128.67 8.633-193.014 7.371-27.676-.543-55.352-2.5-82.855-5.598-21.111-2.379-45.93-4.633-66.24-13.477 14.67-6.041 28.881-13.205 42.455-21.346 11.875-7.121 23.225-15.221 33.948-24.113 34.599-4.811 72.112.09 106.036 4.699 73.348 9.967 145.002 31.035 213.789 58.162 9.435 3.724 7 6.894-3.197 4.486z" fill="#b1d045"/><path d="m744.679 757.916c-67.398-25.934-137.246-45.582-208.896-55.32-30.619-4.16-63.943-8.18-95.537-5.344 20.447-18.379 38.23-39.82 52.329-63.32 53.271 11.037 105.133 34.178 153.862 57.598 27.826 13.373 54.978 28.277 80.708 45.355 6.614 4.391 13.03 9.082 19.306 13.941 8.181 6.328 11.505 12.197-1.772 7.09z" fill="#b1d045"/><path d="m863.493 708.238c-41.416 19.162-87.104 23.354-132.234 17.955-16.969-11.201-35.203-20.887-52.596-30.154-15.182-8.09-30.832-16.076-46.813-23.701 45.863 2.863 90.939 12.512 136.191 20.484 24.168 4.258 48.146 7.225 72.693 7.959 5.793.174 12.205.674 18.723.852 14.431.398 19.021-.334 4.036 6.605z" fill="#b1d045"/><path d="m870.917 695.629c-16.047 1.719-35.133-1.203-48.293-1.936-25.688-1.43-51.121-6.557-76.381-11.201-42.836-7.881-85.662-15.863-129.267-17.084-38.466-17.523-78.642-32.438-118.947-41.051 6.319-11.605 11.755-23.648 16.165-36.041.039-.006.072-.002.111-.01 49.586-9.213 99.375-7.021 148.115 5.838 48.152 12.701 87.959 40.543 131.305 63.572 18.914 10.049 38.593 16.877 59.441 21.615 8.002 1.82 16.074 3.881 23.738 6.908 13.966 5.527 8.043 7.886-5.987 9.39z" fill="#b1d045"/><path d="m504.468 439.166c-19.725-49.344-79.291-78.449-129.924-77.836-62.883 2.646-121.205 15.361-170.934 56.104-38.09 31.205-68.33 72.107-84.055 119.057-8.582 25.619-14.184 52.289-14.99 79.367-.787 26.416 5.709 50.277 8.091 76.111 1.71 18.508.782 38.172 22.655 44.811 10.697 3.246 21.842 5.244 32.23 9.443 26.355 10.645 55.094 15.004 83.479 14.479 100.622-1.873 199.961-60.098 243.553-152.391 24.598-52.079 31.754-114.466 9.895-169.145zm-138.938 102.441c-19.445 34.896-48.831 73.32-85.545 91.604-12.1 6.027-25.844 11.609-37.568 2.441-8.125-6.354-1.035-22.209 2.709-28.752 21.4-37.424 56.377-64.262 92.609-86.428 8.621-4.84 22.273-13.531 31.165-4.801 6.472 6.354.033 19.829-3.37 25.936z" fill="#ff8e5b"/><path d="m356.435 536.293c-6.508 13.482-16.178 26.199-25.341 37.926-15.351 19.645-34.829 37.416-56.425 49.898-4.332 2.48-8.91 4.297-13.734 5.451-18.766 5.48-9.282-12.238-6.715-17.352 5.148-10.262 12.705-19.697 20.162-28.275 19.148-22.021 43.947-39.25 68.669-54.377 11.866-6.658 21.186-9.433 13.384 6.729z" fill="#fbf199"/><path d="m596.962 684.93c-42.219-11.854-89.75-17.24-134.061-10.561-7.111 8.051-14.673 15.707-22.656 22.883 31.594-2.836 64.918 1.184 95.537 5.344 65.195 8.859 128.875 25.988 190.596 48.527-15.691-14.705-36.619-26.283-54.896-36.285-23.524-12.875-48.727-22.668-74.52-29.908z" fill="#abab38"/><path d="m825.759 717.439c-23.174-.609-45.496-4.49-67.616-11.311-19.64-6.055-38.773-13.6-58.528-19.305-15.98-4.615-32.709-5.912-49.328-5.406 9.596 4.809 19.1 9.676 28.377 14.621 17.393 9.268 35.627 18.953 52.596 30.154 36.434 4.357 73.229 2.455 107.85-8.52-4.474-.035-8.937-.117-13.351-.233z" fill="#abab38"/><path d="m696.782 761.596c-23.479-6.084-47.649-9.551-71.814-11.197-42.016-2.863-83.93 1.42-125.904 2.719-39.145 1.213-76.086-5.477-112.238-18.186-10.18 5.57-20.666 10.607-31.408 15.029 20.311 8.844 45.129 11.098 66.24 13.477 27.504 3.098 55.18 5.055 82.855 5.598 64.094 1.257 128.308-14.53 192.269-7.44z" fill="#abab38"/><path d="m764.334 677.729c-33.911-11.332-66.335-25.787-98.728-40.809-50.527-23.43-106.775-33.473-161.586-24.352-1.908 3.971-3.881 7.912-5.991 11.789 40.306 8.613 80.481 23.527 118.947 41.051 43.604 1.221 86.431 9.203 129.267 17.084 23.277 4.279 46.705 8.934 70.34 10.762-1.037-.273-2.066-.525-3.104-.805-16.528-4.453-32.908-9.297-49.145-14.72z" fill="#abab38"/><path d="m331.094 574.219c8.142-10.422 16.671-21.625 23.04-33.451-24.75 36.869-61.834 70.311-102.842 77.74-2.705 6.779-3.994 15.043 9.643 11.061 4.824-1.154 9.402-2.971 13.734-5.451 21.596-12.483 41.074-30.255 56.425-49.899z" fill="#f3af79"/><path d="m419.481 460.441c-21.273 11.928-46.447 17.252-69.494 24.393-26.273 8.139-50.406 20.219-71.377 38.149-22.014 18.818-36.834 43.596-48.637 69.713-10.719 23.715-19.268 49.535-33.927 71.318-8.942 13.291-3.966 9.209 6 3.707 20.938-11.547 40.263-11.52 65.245-18.258 27.25-7.35 59.213-24.35 79.406-44.137 19.75-19.355 35.807-43.863 46.365-69.295 6.113-14.727 11.385-29.92 16.773-44.924 3.514-9.777 7.592-19.924 13.992-28.205 5.465-7.067 4.024-7.154-4.346-2.461zm-53.951 81.166c-19.445 34.896-48.831 73.32-85.545 91.604-12.1 6.027-25.844 11.609-37.568 2.441-8.125-6.354-1.035-22.209 2.709-28.752 21.4-37.424 56.377-64.262 92.609-86.428 8.621-4.84 22.273-13.531 31.165-4.801 6.472 6.354.033 19.829-3.37 25.936z" fill="#ff564d"/><g fill="#fbc471"><path d="m494.573 608.311c24.598-52.078 31.754-114.465 9.895-169.145-18.557-46.42-72.369-74.912-120.836-77.617 39.467 5.713 78.348 22.496 101.344 56.264 15.367 22.564 19.969 50.805 21.539 77.512 1.787 30.417-2.824 61.038-12.741 89.793-18.737 54.32-61.997 96.043-111.565 123.059-59.545 32.453-134.805 47.203-200.879 28.426-16.096-4.574-31.305-11.146-43.045-23.326-11.096-11.508-17.391-27.107-21.895-42.172-5.992-20.043-10.118-42.238-11.356-64.297-.206 3.014-.376 6.027-.468 9.051-.787 26.416 5.709 50.277 8.091 76.111 1.71 18.508.782 38.172 22.655 44.811 10.697 3.246 21.842 5.244 32.23 9.443 26.355 10.645 55.094 15.004 83.479 14.479 100.622-1.875 199.96-60.099 243.552-152.392z"/><path d="m376.224 461.25c-20.881-4.781-43.793.148-61.752 11.627-.27.172-.095.67.229.541 19.939-7.986 39.838-12.303 61.426-11.455.407.015.495-.62.097-.713z"/><path d="m373.476 457.439c-.319.049-.311.578 0 .633 3.697.666 7.211 2.283 10.979 2.625.345.031.478-.426.267-.646-3.076-3.237-7.162-3.251-11.246-2.612z"/><path d="m416.768 510.932c.091 21.264-10.571 38.133-15.524 58.16-.141.578.654.926.963.406 9.121-15.412 22.967-40.561 15.236-58.75-.147-.346-.677-.152-.675.184z"/><path d="m414.196 560.688c-3.859 5.002-7.311 11.301-9.027 17.396-.131.457.415.699.742.432 5.061-4.176 7.922-11.158 9.068-17.5.09-.496-.486-.711-.783-.328z"/><path d="m327.188 650.811c-13.046 5.549-26.238 10.904-39.835 14.951-13.77 4.1-27.738 5.254-41.922 6.863-.406.045-.58.693-.105.775 27.438 4.803 60.016-6.123 82.359-21.738.533-.371.081-1.098-.497-.851z"/><path d="m339.384 648.291c-5.555 3.113-10.283 7.121-15.311 11.004-.273.213-.123.646.24.572 6.766-1.389 12.186-4.967 15.678-10.969.227-.392-.22-.826-.607-.607z"/><path d="m373.087 611.68c-9.822 9.52-20.766 17.664-31.756 25.764-.331.244-.148.891.305.721 13.411-4.98 23.883-14.434 32.51-25.668.481-.624-.53-1.333-1.059-.817z"/><path d="m213.2 544.049c-18.715 20.541-21.674 52.596-18.826 79 .063.563.848.58.889 0 2.016-27.928 5.164-53.563 18.375-78.66.144-.274-.216-.582-.438-.34z"/><path d="m188.626 611.908c-3.398 6.924-1.777 16.406.543 23.457.166.504.895.531 1.049 0 2.077-7.158.67-16.098-.691-23.34-.077-.412-.719-.49-.901-.117z"/><path d="m295.267 483.531c-20.615 6.09-52.014 21.112-59.186 43.311-.117.363.408.695.66.385 16.205-19.883 37.361-29.879 58.918-42.764.49-.294.17-1.098-.392-.932z"/><path d="m302.894 475.496c.453-.357.051-1.057-.443-1.066-4.751-.104-9.326 1.885-12.463 5.459-.277.314-.01.77.399.688 4.546-.925 8.819-2.167 12.507-5.081z"/></g><path d="m532.646 411.363c-5.385 7.646-14.635 14.033-21.536 19.361 8.653 18.186 13.065 38.242 15.339 60.123 3.057 29.42-.234 58.549-8.564 86.215 55.945-9.379 114.516-5.943 168.115 13.396 15.584 5.625 30.468 13.027 45.102 21.045 20.219-24.088 32.281-56.512 37.01-89.275-27.012 35.41-75.176 44.572-116.4 30.092-21.734-7.637-40.686-22.084-55.93-39.109-14.152-15.805-22.697-34.52-31.505-53.528-7.458-16.09-17.266-36.019-31.631-48.32z" fill="#865725"/><path d="m544.909 266.13c-18.879 4.203-14.525 13.307-1.947 23.463 13.396 10.82 24.971 28.908 32.178 40.885 13.291 22.072 23.873 45.76 38.98 66.564 40.186 55.354 99.277 21.756 82.529-32.674-16.392-53.279-84.435-113.22-151.74-98.238z" fill="#d4ba89"/><path d="m531.241 327.05c-2.029-7.67-5.215-14.928-7.201-22.633-.945-3.664-1.539-7.393-2.461-10.922-3.098-11.842-13.283-32.018-22.353-1.307-2.108 7.152-2.882 14.941-3.341 21.23-.837 11.463 3.767 33.305 17.242 36.721 13.358 3.386 21.214-11.345 18.114-23.089z" fill="#d4ba89"/><path d="m486.015 278.146c-7.748 4.402-14.543 10.941-19.418 17.912-4.057 5.801-7.18 15.787-.914 21.264 5.506 4.811 12.313-.016 15.672-4.787 3.648-5.178 4.175-11.859 6.197-17.695 1.234-3.563 3.053-7.016 5.123-10.346 7.668-12.346-3.414-8.198-6.66-6.348z" fill="#d4ba89"/><path d="m558.767 231.287c-3.387-.922-6.793-1.344-9.496-1.373-8.366-.086-18.213 2.896-24.91 8.699.56.363 1.119.76 1.683 1.102.522.316.925.689 1.274 1.082 9.831-1.596 19.85-2.436 29.98-2.443.496-2.167 1.092-4.642 1.469-7.067z" fill="#81391c"/><path d="m506.226 421.402c4.271-3.137 9.941-7.359 14.186-11.826-6.254-1.016-11.587-5.674-16.75-9.27-5.527-3.848-12.072-5.646-18.754-5.996.113.107.23.209.342.318 8.583 8.364 15.456 17.293 20.976 26.774z" fill="#81391c"/><path d="m429.935 360.371c-.593-1.164-1.234-2.32-1.99-3.453-8.291-12.449-24.922-13.453-32.734-23.711-4.002 4.887-6.773 11.947-8.846 17.953 14.851.966 29.542 4.144 43.57 9.211z" fill="#81391c"/><path d="m492.358 244.501c-3.172-2.604-7.72-5.334-12.325-6.43-2.374 5.318-2.72 12.586-2.709 18.625 6.214-3.086 12.647-5.744 19.234-8.051-1.355-1.62-2.879-3.06-4.2-4.144z" fill="#81391c"/><path d="m442.928 279.707c7.317-6.398 15.155-12.109 23.476-17.059-2.871-.99-5.906-1.363-8.408-1.014-8.88 1.242-18.842 6.117-25.475 13.133 3.008 1.725 6.152 3.174 9.414 4.438.363.138.691.312.993.502z" fill="#81391c"/><path d="m480.823 365.742c-8.181-1.537-17.742 1.924-25.922 6.162 7.123 4.084 13.948 8.688 20.33 13.867 2.166-5.418 5.122-13.594 5.592-20.029z" fill="#81391c"/><path d="m439.482 444.32c-10.169 7.98-22.091 17.779-25.573 19.99-12.496 7.928-25.455 15.008-39.521 20.385-20.221 7.729-44.691 10.348-59.07 28.229-.227.281.072.787.42.543 21.156-14.916 47.052-17.219 70.594-26.87 9.52-3.902 19.729-8.783 29.135-14.814-6.777 10.246-12.459 21.424-17.641 33.35-6.481 14.924-13.099 29.783-21.326 43.842-9.719 16.607-22.564 30.342-35.332 44.563-.455.506.238 1.197.744.744 12.289-10.99 24.706-20.598 34.617-33.957 9.643-12.998 16.631-27.922 23.095-42.68 6.366-14.543 11.706-29.567 20.017-43.159 2.213-3.617 9.354-13.693 22.686-28.07 7.331-7.916 7.129-9.92-2.845-2.096z" fill="#68182b"/><path d="m295.489 633.148c-20.291 11.178-40.678 18.561-64.117 22.684-12.649 2.225-23.916 5.279-33.879 10.943 2.668-3.318 5.156-6.861 7.381-10.779 9.156-16.137 14.732-34.24 21.984-51.25 13.279-31.154 42.535-63.498 63.34-77.449 5.104-3.422 1.793-2.857-.732-1.445-26.133 14.598-49.717 40.773-63.396 66.297-8.803 16.428-14.254 34.441-21.977 51.365-7.09 15.539-17.398 28.439-27.838 41.6-6.188 7.797-6.029 8.803 2.893 1.563 20.614-16.734 30.191-20.625 61.543-26.178 21.744-3.848 40.941-11.105 57.404-24.945 6.404-5.386 4.898-6.536-2.606-2.406z" fill="#68182b"/><path d="m394.542 557.895c-16.135 32.975-46.154 52.645-72.482 76.914-.619.572.188 1.619.896 1.166 27.146-17.406 67.752-42.479 72.354-77.873.052-.407-.594-.559-.768-.207z" fill="#68182b"/><path d="m244.95 545.064c15.975-16.342 33.879-29.893 53.928-40.854 19.697-10.768 41.429-17.965 62.467-25.61.554-.201.52-1.176-.148-1.1-44.254 5.084-92.063 29.118-116.918 67.045-.27.412.337.863.671.519z" fill="#68182b"/><path d="m219.786 577.172c2.996-8.23 6.907-16.572 10.947-24.33 3.663-7.029 8.979-12.959 12.779-19.857.154-.279-.15-.574-.428-.428-14.756 7.805-22.127 29.123-24.141 44.502-.064.507.689.535.843.113z" fill="#68182b"/><path d="m313.925 639.852c-8.875 5.543-18.881 9.271-27.424 15.375-.492.35-.205 1.145.418.994 10.578-2.57 20.52-7.205 27.563-15.648.318-.38-.086-1.016-.557-.721z" fill="#68182b"/><path d="m209.915 592.02c3.741-5.539 5.134-14.689 4.287-21.279-.046-.346-.47-.639-.76-.314-4.561 5.117-4.648 14.891-4.326 21.377.022.434.559.571.799.216z" fill="#68182b"/><path d="m373.048 476.617c6.734-1.855 6.266-5.561.02-3.32-2.145.77-4.688 1.521-6.51 2.92-.34.26-.338.795.121.932 2.052.618 4.357.02 6.369-.532z" fill="#68182b"/><path d="m399.374 539.59c-1.977 3.502-4.184 8.146-3.42 12.289.045.24.34.32.531.217 4.049-2.17 4.484-8.43 3.82-12.385-.074-.449-.73-.482-.931-.121z" fill="#68182b"/></g></g></svg>