<svg id="Fruit" height="512" viewBox="0 0 992.13 992.13" width="512" xmlns="http://www.w3.org/2000/svg"><g><path d="m604.176 186.18c6.104-15.633 34.061-94.73-15.039-116.869-7.84-3.535-15.049-5.254-22.033-5.254-14.008 0-30.359 6.15-37.617 31.783-3.83.213-7.732.697-11.609 1.438-4.195-3.738-9.039-7.553-14.671-11.566-28.74-20.48-64.058-30.865-104.976-30.865-8.309 0-16.88.445-25.4 1.32-.571.057-1.105.129-1.592.207-.333.035-.674.08-1.025.133-74.417 11.27-132.785 74.152-168.791 181.852-7.406 22.156-6.453 40.459 2.834 54.402 5.809 8.719 17.609 19.471 40.845 21.17 13.017.951 26.673 1.434 40.587 1.434 25.342 0 51.527-1.563 77.827-4.646 7.224-.848 14.313-2.012 21.259-3.484-3.672 4.732-6.746 9.047-9.18 12.633-16.222 23.918-29.234 49.51-41.816 74.262-10.498 20.646-20.413 40.15-32.029 58.742-8.472 13.561-18.666 26.035-29.459 39.246-6.223 7.613-12.654 15.484-18.831 23.693-17.229 22.898-31.303 49.41-41.835 78.803-16.463 45.961-18.172 96.789-4.942 146.982 38.019 144.275 171.62 195.686 283.974 195.689h.018c76.341 0 150.577-21.951 209.01-61.807 51.675-35.246 87.02-92.561 94.55-153.314 7.905-63.793-19.017-123.939-46.393-174.363-7.87-14.498-16.313-28.717-24.479-42.471-5.163-8.695-10.328-17.392-15.354-26.166-12.066-21.07-20.228-43.566-28.869-67.385l-2.043-5.623c-19.205-52.781-44.746-122.977-108.889-150.727 4.191-9.332 9.633-18.801 15.262-28.584 7.395-12.87 15.05-26.178 20.706-40.665z" fill="#fff"/><g><path d="m726.85 559.193c-12.537-23.092-26.512-45.367-39.566-68.162-14.084-24.592-22.969-50.156-32.633-76.711-21.916-60.23-47.278-128-116.535-143.652 6.602-33.152 31.487-61.607 43.813-93.176 7.491-19.188 23.611-74.588-2.608-86.41-24.952-11.252-28.839 9.688-29.657 31.469-11.903-5.154-27.83-2.854-39.032 1.557-5.066-6.398-12.208-12.48-21.284-18.947-33.147-23.623-74.573-29.285-114.159-25.229-.27.027-.51.096-.756.154-.215.008-.42 0-.643.033-81.354 12.32-126.08 95.113-149.717 165.811-7.865 23.529-4.426 42.191 22.771 44.182 37.278 2.725 76.823 1.23 113.892-3.115 68.831-8.066 124.566-48.568 152.172-112.484 4.105-9.506 6.156-17.584 6.431-24.791 9.507-4.586 21.382-4.494 28.966 3.227-.049.268-.088.555-.143.811-4.979 24.063-20.174 47.326-30.535 69.393-6.489 13.824-12.303 27.896-17.025 42.33-43.28-3.434-82.668 34.508-105.242 67.791-28.267 41.678-46.659 89.523-73.354 132.252-14.487 23.188-33.092 42.888-49.461 64.644-16.549 21.994-29.172 46.645-38.436 72.498-15.27 42.629-15.807 89.311-4.334 132.842 51.631 195.924 309.52 220.453 456.452 120.238 45.517-31.045 77.535-81.895 84.305-136.521 6.964-56.219-17.528-111.862-43.682-160.034z" fill="#68182b"/><g fill="#83e1c4"><path d="m360.792 93.749c4.881-1.408 9.913-2.535 15.099-3.35 31.796-3.166 62.333.027 91.419 13.967 11.732 5.621 22.441 13.424 32.175 22.014 3.735 3.295 3.513 5.848-5.867 6.205-14.744.559-32.262 4.906-43.443 7.986-9.388 2.582-15.586 4.834-25.695.734-4.771-1.934-9.274-4.988-13.768-9.326-7.404-7.152-13.462-15.916-21.739-22.141-7.667-5.768-17.143-9.51-26.954-10.881-6.773-.949-9.545-2.81-1.227-5.208z"/><path d="m289.81 142.44c24.632-29.543 51.07-44.301 78.688-37.52 13.775 3.381 22.461 13.326 31.451 23.467 4.949 5.58 10.629 11.129 16.83 15.059 7.453 4.717 3.76 6.506-4.031 9.67-41.678 16.912-53.571 13.41-61.996 10.506-11.964-4.127-22.949-9.789-35.598-11.742-6.282-.969-13.805-1.01-21.162.236-8.389 1.42-12.758.607-4.182-9.676z"/><path d="m251.544 204.045c13.082-30.477 20.795-43.273 43.314-47.539 13.645-2.586 27.453.838 40.125 5.725 6.807 2.623 13.85 5.469 20.91 7.359 7.83 2.096 6.521 3.875-1.455 7.9-14.346 7.24-33.363 23.055-52.938 26.801-9.777 1.871-19.787 1.803-29.645 2.838-4.54.475-9.527 1.529-14.322 3.246-9.151 3.276-9.409 1.637-5.989-6.33z"/><path d="m231.639 256.032c5.353-24.049 10.564-36.764 28.466-42.516 8.294-2.664 17.012-2.797 25.615-3.355 12.165-.789 11.838 1.047 5.01 5.773-3.279 2.264-6.539 4.557-9.777 6.877-14.125 10.125-28.648 20.541-41.287 32.709-7.504 7.227-9.573 7.49-8.027.512z"/><path d="m240.846 278.946c-6.952-1.043-8.622-6.578-2.771-12.893 10.32-11.148 22.473-20.707 34.83-29.727 6.405-4.676 6.746-3.234 2.775 5.684-2.601 5.842-4.217 12.016-5.813 18.186-1.001 3.877-2.267 7.318-3.81 10.553-4.991 10.478-8.987 10.632-25.211 8.197z"/><path d="m273.159 280.635c-6.206-.807-5.489-3.006-2.995-9.355 1.658-4.221 2.756-8.779 3.818-13.027 2.057-8.234 4.768-15.98 8.68-23.541 6.951-13.443 25.321-24.744 53.893-40.396 8.377-4.588 10.346-4.684 7.395 1.689-2.23 4.805-3.914 9.781-5.197 14.205-2.883 9.928-3.127 20.471-1.41 30.629 1.307 7.711 3.473 15.385 4.012 22.879 1.53 21.372-21.332 23.009-68.196 16.917z"/><path d="m365.511 275.809c-3.278.516-6.567.969-9.865 1.363-10.275 1.23-9.051 2.871-8.652-8.172.367-10.207-3.352-22.322-4.545-29.568-2.227-13.52.199-26.348 5.025-38.998 7.352-19.273 27.676-27.215 58.201-38.861 8.893-3.395 7.555 1.164 5.322 6.592-6.189 15.051.566 29.1 6.078 46.133 13.455 41.609-.615 53.466-51.564 61.511z"/><path d="m438.677 250.393c-8.506 4.785-8.705 1.887-8.738-7.371-.026-7.934-2.196-16.309-5.078-23.258-4.676-11.277-10.609-22.025-11.291-34.457-1.396-25.475 15.685-35.521 49.707-42.518 7.898-1.623 9.758 1.332 7.168 8.027-1.342 3.471-2.271 6.686-2.729 8.797-1.71 7.885-1.792 15.619-.463 23.555 1.153 6.889 3.206 13.621 4.55 20.475 4.05 20.662-3.995 30.371-33.126 46.75z"/><path d="m496.021 185.877c-2.828 5.59-5.953 10.926-9.341 16.012-6.039 9.068-8.001 7.582-9.567-.51-1.879-9.742-5.428-19.727-5.943-26.813-.541-7.414 1.248-15.078 3.314-22.133 3.775-12.877 11.584-15.988 27.262-13.629 5.44.814 8.297 3.844 8.08 9.609-.484 12.808-8.359 26.703-13.805 37.464z"/><path d="m518.277 138.846c-.502-1.936-1.22-3.797-2.041-5.625 10.305-3.518 24.586-5.52 33.164 1.447-.025 1.924-.059 3.799-.104 5.611-9.202-5.271-20.861-5.122-31.019-1.433z"/></g><path d="m504.047 292.493c9.294-40.762 29.986-76.738 46.662-114.854 6.469-14.785 9.637-29.277 10.847-45.301.658-8.725.679-17.496 1.199-26.232.714-11.934 14.255-7.436 17.143.527 6.198 17.08.017 42.301-4.81 58.967-5.033 17.383-16.113 32.861-25.236 48.264-15.479 26.129-27.893 59.498-22.096 90.457-6.189-1.076-12.325-2.488-18.5-3.66-5.608-1.073-6.699-1.641-5.209-8.168z" fill="#aa8053"/><path d="m739.364 781.742c-48.419 88.426-163.042 123.605-257.625 122.115-108.037-1.701-206.875-60.314-240.301-165.938-13.07-41.305-11.457-85.346.883-126.541 15.418-51.486 51.996-86.871 81.688-129.74 26.127-37.725 44.525-80.176 66.669-120.211 20.897-37.785 59.101-87.137 106.753-85.615-1.505 5.293-2.866 10.629-4.032 16.025-1.11 5.154-1.738 6.609-7.495 7.273-9.655 1.115-18.599 5.012-24.44 13.721-.256.377.236.826.606.605 19.083-11.285 36.537-7.318 57.048-2.967 8.482 1.797 16.998 3.293 25.695 3.213 7.889-.072 12.189-3.289 18.064-8.072.617-.504-.135-1.154-.78-1.008-4.69 1.061-9.392 1.441-13.387 1.52-8.212.166-10.407-1.072-11.392-7.82-.859-5.883-1.012-11.584-.61-17.145 62.288 14.936 84.913 75.051 105.405 129.525 14.063 37.373 27.364 71.197 47.734 105.65 47.69 80.658 100.049 173.125 49.517 265.41z" fill="#b1d045"/><path d="m481.74 903.857c94.583 1.49 209.206-33.689 257.625-122.115 50.531-92.285-1.827-184.752-49.515-265.408-2.254-3.814-4.392-7.619-6.486-11.422 2.084 7.578 4.391 15.111 6.721 22.607 9.352 30.07 18.918 60.115 25.691 90.898 13.805 62.736 9.982 129.072-32.364 180.439-68.218 82.746-197.148 90.021-289.789 49.635-40.787-17.783-76.17-47.072-98.642-85.689-26.927-46.275-30.774-102.203-18.991-153.594 5.911-25.773 16.232-50.428 29.041-73.494 12.752-22.963 28.606-44.109 41.754-66.871 12.689-21.967 23.293-45.045 30.902-69.26 3.615-11.512 7.608-22.986 11.07-34.594-21.287 38.988-39.391 80.035-64.748 116.648-29.691 42.869-66.27 78.253-81.688 129.74-12.34 41.195-13.953 85.236-.883 126.541 33.427 105.625 132.265 164.238 240.302 165.939z" fill="#abab38"/><path d="m597.434 392.665c-3.479-11.984-8.848-23.125-19.563-30.66-16.889-11.875-36.807-2.779-47.466 11.156-15.935 20.828-17.458 46.854-22.984 71.408-5.974 26.535-15.596 52.188-25.263 77.591-18.752 49.264-39.639 90.922-40.599 144.398-.809 44.916 14.979 97.045 48.373 129.297 32.998 31.869 87.111 30.416 125.331 10.35 77.892-40.893 79.36-126.996 55.772-199.545-9.52-29.271-20.861-57.982-28.337-74.855-22.145-50.025-30.661-88.824-45.264-139.14z" fill="#d7e338"/><path d="m341.353 263.717c-.539-7.494-2.705-15.168-4.012-22.879-1.717-10.158-1.473-20.701 1.41-30.629 1.283-4.424 2.967-9.4 5.197-14.205.361-.785.648-1.465.859-2.057-7.832 7.131-13.867 16.088-16.953 26.293-3.953 13.072 3.234 26.639-.615 39.662-3.553 12.02-14.91 19.201-27.527 23.424 28.859 1.784 42.848-2.779 41.641-19.609z" fill="#39b487"/><path d="m239.666 255.52c12.639-12.168 27.162-22.584 41.287-32.709 3.238-2.32 6.498-4.613 9.777-6.877 6.828-4.727 7.155-6.563-5.01-5.773-2.196.143-4.399.26-6.603.396-6.251 3.623-12.104 8.01-17.739 13.348-9.109 8.633-21.379 22.141-25.494 35.012 1.074-.883 2.292-1.963 3.782-3.397z" fill="#39b487"/><path d="m448.378 244.684c21.196-13.191 26.98-22.893 23.424-41.041-1.344-6.854-3.396-13.586-4.55-20.475-1.329-7.936-1.247-15.67.463-23.555.458-2.111 1.388-5.326 2.729-8.797.549-1.42.852-2.633.985-3.709-11.901 9.09-16.239 27.686-14.038 41.68 2.447 15.543 7.421 28.588-.264 43.652-2.311 4.534-5.303 8.599-8.749 12.245z" fill="#39b487"/><path d="m417.076 214.297c-5.512-17.033-12.268-31.082-6.078-46.133.598-1.457 1.125-2.842 1.414-4.035-16.105 11.965-23.615 32.479-17.525 51.98 5.559 17.795 10.279 32.063-4.134 47.564-3.585 3.857-7.903 7.076-12.593 9.855 40.486-8.131 51.171-21.33 38.916-59.231z" fill="#39b487"/><path d="m293.992 152.116c7.357-1.246 14.88-1.205 21.162-.236 12.648 1.953 23.634 7.615 35.598 11.742 8.425 2.904 20.318 6.406 61.996-10.506 4-1.625 6.904-2.887 7.791-4.371-11.203 2.545-22.688 4.023-34.135 4.553-13.672.631-26.795-2.506-40.043-5.383-11.078-2.406-21.223-5.262-32.658-3.939-7.748.898-15.104 4.537-21.869 8.459.687-.089 1.398-.19 2.158-.319z" fill="#39b487"/><path d="m549.297 140.28c.02-.783.028-1.617.045-2.422-8.993-5.479-21.678-5.875-31.381-1.785-.066-.078-.13-.145-.195-.223-.143-.172-.336-.211-.521-.176.396 1.039.754 2.094 1.033 3.172 10.157-3.689 21.816-3.838 31.019 1.434z" fill="#39b487"/><path d="m269.868 260.196c1.597-6.17 3.213-12.344 5.813-18.186 3.971-8.918 3.63-10.359-2.775-5.684-4.628 3.377-9.188 6.873-13.672 10.457 3.578 5.207 1.4 14.854.102 20.008-1.33 5.283-4.152 9.566-7.584 13.402 7.578.299 10.695-1.863 14.307-9.445 1.542-3.234 2.808-6.675 3.809-10.552z" fill="#39b487"/><path d="m361.238 98.834c.259.041.51.086.781.123 9.812 1.371 19.287 5.113 26.954 10.881 8.277 6.225 14.335 14.988 21.739 22.141 4.493 4.338 8.996 7.393 13.768 9.326 10.109 4.1 16.308 1.848 25.695-.734 6.117-1.686 14.143-3.73 22.559-5.348-6.939.521-13.887.932-20.869 1.031-17.568.256-28.707-6.33-40.777-18.254-13.381-13.218-31.01-22.71-49.85-19.166z" fill="#39b487"/><path d="m253.49 211.606c1.107-.264 2.383-.637 4.045-1.23 4.795-1.717 9.782-2.771 14.322-3.246 9.857-1.035 19.867-.967 29.645-2.838 19.574-3.746 38.592-19.561 52.938-26.801 2.975-1.502 5.018-2.688 6.008-3.697-20.393 10.295-41.1 17.533-64.012 20.896-13.731 2.016-33.397 5.125-42.946 16.916z" fill="#39b487"/><path d="m496.021 185.877c5.446-10.762 13.321-24.656 13.805-37.463.217-5.766-2.64-8.795-8.08-9.609-3.594-.541-6.729-.752-9.543-.666 10.584 6.328 8.112 27.305 5.825 36.971-2.395 10.117-6.842 19.713-12.509 28.459.37-.514.755-1.07 1.162-1.68 3.387-5.086 6.512-10.422 9.34-16.012z" fill="#39b487"/><path d="m317.607 121.497c15.854-7.039 31.494-11.561 48.925-8.195 20.197 3.9 32.814 28.506 52.569 31.82-.603-.518-1.369-1.072-2.322-1.676-6.201-3.93-11.881-9.479-16.83-15.059-8.99-10.141-17.676-20.086-31.451-23.467-23.148-5.684-45.46 3.809-66.582 24.408 5.027-3.031 10.453-5.507 15.691-7.831z" fill="#b4efd7"/><path d="m253.98 198.444c10.604-14.424 22.631-26.939 40.834-32.459 19.479-5.908 39.424 6.049 58.444 2.82-6.173-1.85-12.315-4.279-18.274-6.574-12.672-4.887-26.48-8.311-40.125-5.725-21.085 3.994-29.192 15.473-40.879 41.938z" fill="#b4efd7"/><path d="m249.28 255.198c-3.888 3.479-7.679 7.047-11.204 10.855-4.153 4.482-4.455 8.537-1.83 10.906 1.998-3.475 3.641-7.301 5.537-10.512 2.283-3.864 4.777-7.648 7.497-11.249z" fill="#b4efd7"/><path d="m268.498 211.653c-2.826.434-5.639.979-8.393 1.863-14.824 4.764-20.943 14.324-25.65 31.121 8.249-13.951 19.134-25.004 34.043-32.984z" fill="#b4efd7"/><path d="m384.839 169.807c-18.994 8.063-31.842 16.146-37.365 30.627-4.826 12.65-7.252 25.479-5.025 38.998.85 5.158 2.959 12.787 3.982 20.436 2.103-14.895.805-30.135 4.945-45.164 5.37-19.481 17.76-33.871 33.463-44.897z" fill="#b4efd7"/><path d="m390.347 89.43c15.176 1.094 30.33 4.99 44.643 9.48 23.66 7.422 45.898 17.912 66.327 31.805.943-1.107.119-2.615-1.831-4.336-9.734-8.59-20.443-16.393-32.175-22.014-24.651-11.812-50.347-15.888-76.964-14.935z" fill="#b4efd7"/><path d="m463.119 142.825c-33.914 6.994-50.943 17.049-49.549 42.482.682 12.432 6.615 23.18 11.291 34.457 2.882 6.949 5.052 15.324 5.078 23.258.004 1.018.013 1.928.031 2.791 1.82-4.348 2.994-8.818 3.063-14.025.154-12.068-6.211-23.377-7.018-35.387-1.675-24.895 15.692-44.391 37.104-53.576z" fill="#b4efd7"/><path d="m474.484 152.434c-2.066 7.055-3.855 14.719-3.314 22.133.516 7.086 4.064 17.07 5.943 26.813.455 2.346.947 4.117 1.556 5.256 2.409-7.57 1.508-15.551-.195-23.822-2.735-13.297-4.126-29.557 3.274-41.686-3.308 2.279-5.673 5.882-7.264 11.306z" fill="#b4efd7"/><path d="m314.804 206.7c-16.275 9.83-27.158 18.375-32.143 28.012-3.912 7.561-6.623 15.307-8.68 23.541-.23.918-.49 1.881-.729 2.82 9.79-20.778 23.835-40.082 41.552-54.373z" fill="#b4efd7"/><path d="m553.285 208.186c-11.057 13.027-23.075 25.316-33.627 38.713-.447.564-.854 1.152-1.293 1.721-5.82 14.199-10.859 28.705-14.318 43.873-1.49 6.527-.398 7.096 5.209 8.168 6.175 1.172 12.311 2.584 18.5 3.66-5.797-30.959 6.617-64.328 22.096-90.457 1.119-1.891 2.269-3.781 3.433-5.678z" fill="#865725"/><path d="m366.195 442.922c-28.633 43.023-63.965 81.755-91.598 125.476-27.508 43.523-33.599 97.182-21.941 146.619.176.75 1.441.6 1.357-.182-5.7-52.566.113-104.721 29.836-149.598 15.131-22.846 33.151-43.719 48.953-66.098 12.154-17.21 27.767-35.574 34.114-55.916.14-.443-.481-.662-.721-.301z" fill="#68182b"/><path d="m255.897 722.986c-.251-.344-.889-.379-.993.131-.561 2.756.148 5.508.818 8.188.792 3.168 1.639 5.449 4.143 7.529.255.211.77.105.73-.303-.271-2.867-1.07-5.266-1.907-8.045-.772-2.564-1.177-5.293-2.791-7.5z" fill="#68182b"/><path d="m669.082 836.445c47.541-29.316 81.653-92.955 77.381-148.992-.027-.342-.494-.338-.527 0-5.837 59.035-36.06 107.135-77.551 148.088-.463.457.136 1.25.697.904z" fill="#68182b"/></g></g></svg>