<svg id="Fruit" height="512" viewBox="0 0 992.13 992.13" width="512" xmlns="http://www.w3.org/2000/svg"><g><path d="m860.078 553.475c-1.205-.352-2.357-.686-3.437-1.02-7.87-2.42-16.144-6.752-25.5-13.393 3.334-41.336-4.937-75.969-26.158-110.692-12.611-20.637-31.686-37.168-56.935-49.402 2.936-2.184 5.928-4.355 8.95-6.531 22.137-15.945 43.981-28.238 64.692-36.447 10.605-4.074 22.639-9.545 31.176-22.953 8.071-12.674 8.265-29.252.528-45.486-8.872-18.619-26.695-28.873-50.188-28.873-11.972 0-23.206 2.699-30.525 4.965-.27.084-.541.174-.809.266-30.489 10.645-54.94 28.813-78.587 46.383-.002.002-.002.002-.002.002-19.325-45.145-59.88-78.594-112.17-90.6-3.281-.756-4.248-1.197-4.301-1.197-.005 0-.005 0-.002.002-.007-.004-.515-.479-1.461-2.066-6.013-10.07-10.566-19.113-13.917-27.639-1.229-3.121-2.352-7.504-3.54-12.145-2.296-8.957-4.897-19.111-10.198-28.252-10.709-18.473-23.52-22.35-32.379-22.35-6.742 0-19.442 2.373-28.748 18.258-6.697 11.43-9.89 25.469-9.602 42.459-12.773 1.357-23.063 7.646-29.665 17.629-14.532-2.594-29.077-3.902-43.455-3.902-72.75 0-139.58 33.096-188.178 93.182-48.274 59.684-83.251 137.711-106.925 238.545-12.464 53.096-19.809 109.772-22.456 173.264-1.978 47.467-.673 101.779 40.104 145.598 34.201 36.75 85.434 43.715 126.602 49.311l.53.074c27.46 3.727 56.693 5.619 86.888 5.619 21.612 0 44.446-.971 67.863-2.881 74.416-6.072 256.534-31.33 340.182-134.498 26.058-32.139 39.9-68.707 41.353-109.064 9.521 1.539 19.188 2.299 29.104 2.299h.006c14.635 0 29.47-1.648 45.348-5.041 9.542-2.037 32.536-8.857 39.956-28.102 4.118-10.682 2.326-22.572-4.914-32.621-10.245-14.215-27.688-19.321-39.23-22.701z" fill="#fff"/><g><path d="m879.928 590.137c-6.229-8.646-20.96-11.979-30.305-14.854-15.999-4.918-30.455-14.715-43.327-25.148-.122-.1-.232-.205-.353-.305 5.525-40.215.186-73.79-21.339-109.006-17.768-29.074-50.309-44.736-82.366-53.162 11.834-13.49 27.125-24.752 40.802-34.604 21.592-15.553 45.305-29.541 70.087-39.361 7.849-3.016 14.931-6.162 19.596-13.49 4.334-6.805 2.311-15.672-.888-22.383-9.333-19.59-35.231-16.586-52.089-11.367-37.938 13.244-67.098 40.93-99.799 62.803-9.219-55.305-50.686-94.008-104.176-106.291-9.436-2.166-15.263-4.799-20.926-14.293-5.957-9.979-11.383-20.32-15.639-31.145-4.402-11.199-6.078-26.646-12.173-37.156-4.688-8.086-12.422-16.691-19.858-3.998-9.423 16.084-6.732 40.398-2.382 60.145-3.772-1.77-7.54-3.32-11.245-4.375-22.114-6.291-29.782 4.992-30.481 20.213-87.61-23.498-171.723 5.725-228.83 76.334-52.832 65.318-83.25 148.096-102.242 228.983-12.987 55.318-19.483 112.088-21.847 168.799-1.944 46.654.355 92.477 33.726 128.336 28.516 30.643 73.61 36.65 112.862 41.986 49.538 6.73 99.841 6.664 149.594 2.604 139.407-11.375 381.401-68.602 358.149-251.006 31.064 11.363 61.797 12.199 94.797 5.148 10.208-2.183 30.418-9.855 20.652-23.407z" fill="#68182b"/><path d="m771.56 440.197c22.849 30.602 28.941 64.864 24.914 101.37-19.725-18.268-36.055-40.334-51.105-62.387-13.062-19.139-24.481-39.393-37.905-58.281-4.178-5.877-10.447-12.869-17.537-15.684 1.543-2.918 3.276-5.744 5.182-8.48 28.511 6.929 58.382 19.266 76.451 43.462z" fill="#b1d045"/><path d="m782.548 276.609c11.749-3.635 26.72-7.229 36.875 2.004 3.551 3.23 5.161 8.02 5.196 12.68.055 7.174-8.971 10.203-14.294 12.25-27.612 10.939-53.279 26.506-77.323 43.822-21.049 15.162-43.109 33.369-54.412 57.297-3.324-4.852-7.668-8.781-13.296-11.361-.136-16.01-6.509-26.914-16.571-34.893 48.491-21.035 83.514-64.233 133.825-81.799z" fill="#aa8053"/><path d="m654.108 400.849c31.119 6.072 24.21 55.396 20.96 78.035-4.033 28.079-13.448 53.264-23.167 79.588-2.608 7.066-6.877 27.154-17.371 22.209-7.973-3.758-14.562-11.549-19.759-18.373-13.58-17.824-15.099-39.033-13.392-60.416 2.513-31.469 10.825-102.017 52.729-101.043z" fill="#b1d045"/><path d="m610.027 419.58c-22.262-1.809-41.752-10.902-60.036-23.449-12.294-8.439-43.437-36.428-30.556-50.141 14.158-15.076 56.858-3.049 88.47 5.461 22.094 5.947 44.685 13.918 46.746 38.867-.022 0-.041-.008-.064-.008-21.637-.787-35.459 11.809-44.56 29.27z" fill="#b1d045"/><path d="m585.986 236.82c44.268 14.674 78.318 49.449 84.298 98.631-7.724 4.734-15.711 9.033-24.091 12.691-11.949-33.791-32.093-63.086-57.061-88.674-3.92-5.109-7.726-10.299-11.43-15.561-7.588-10.779-3.206-10.892 8.284-7.087z" fill="#b1d045"/><path d="m522.254 152.695c4.533 12.316 5.552 25.227 10.877 37.443 5.969 13.688 13.522 26.938 21.847 39.707-2.919-2.203-5.846-4.391-8.802-6.531-8.544-6.189-18.521-13.686-28.843-19.99-2.54-10.229-4.136-20.34-4.638-30.998-.204-4.307.981-42.932 9.559-19.631z" fill="#b1d045"/><path d="m507.781 211.371c5.701 3.188 11.247 6.641 16.788 10.094 48.771 30.408 91.724 74.215 111.326 128.998-4.188-2.045-8.674-3.863-13.37-5.525-20.01-7.084-41.267-10.818-62.218-13.762-6.401-.898-13.758-2.08-21.039-2.213-20.952-19.004-36.552-41.979-50.14-66.693-8.403-15.281-14.991-30.861-16.604-48.355-2.311-25.082 29.855-5.564 35.257-2.544z" fill="#b1d045"/><path d="m848.811 605.027c-50.111 10.709-87.054-6.471-106.243-18.523-28.156-17.701-45.015-46.926-55.458-78.496-3.686-11.151-3.63-15.405-1.886-26.325 2.815-17.645 6.052-46.313-1.493-66.916 15.927.758 52.703 70.018 58.008 77.666 23.922 34.483 52.493 68.182 90.668 87.174 8.244 4.102 17.139 6.604 25.811 9.586 24.489 8.426 1.562 13.489-9.407 15.834z" fill="#b1d045"/><path d="m482.96 493.693c1.129-2.039 2.488-3.938 3.892-5.795 4.085-5.26 8.67-9.992 14.482-13.324 14.411-8.258 25.145 4.555 12.326 14.275-5.397 4.105-11.935 6.352-18.425 8.043-2.544.665-4.949 1.161-7.493 1.499-5.377.711-7.96 1.056-4.782-4.698z" fill="#fac135"/><path d="m398.707 562.502c1.13-2.041 2.489-3.939 3.892-5.797 4.085-5.26 8.67-9.99 14.483-13.324 14.411-8.258 25.144 4.555 12.325 14.275-5.397 4.105-11.935 6.354-18.424 8.043-2.545.664-4.949 1.16-7.494 1.498-5.377.711-7.96 1.057-4.782-4.695z" fill="#fac135"/><path d="m375.155 466.667c-1.829 6.529-5.688 12.264-9.845 17.527-1.629 2.063-3.248 3.91-5.074 5.715-3.859 3.811-5.71 5.643-6.646-.863-.331-2.307-.391-4.643-.393-6.969.086-6.66.889-13.199 3.516-19.363 6.514-15.279 22.803-11.533 18.442 3.953z" fill="#fac135"/><path d="m295.522 560.291c1.181-6.555 3.049-12.871 6.652-18.52 8.939-14 24.389-7.625 17.539 6.932-2.877 6.143-7.627 11.16-12.592 15.67-1.946 1.77-3.847 3.324-5.945 4.801-4.435 3.125-6.562 4.629-6.415-1.941.056-2.333.379-4.645.761-6.942z" fill="#fac135"/><path d="m527.774 564.145c16.525-1.674 21.11 14.398 5.442 18.057-6.601 1.553-13.485.941-20.103-.158-2.594-.43-4.992-.955-7.452-1.684-5.202-1.541-7.701-2.277-2.456-6.236 1.861-1.402 3.878-2.584 5.916-3.711 5.874-3.14 11.986-5.595 18.653-6.268z" fill="#fac135"/><path d="m557.945 665.502c-5.303 4.227-11.788 6.615-18.24 8.449-2.528.721-4.923 1.271-7.457 1.664-5.362.83-7.936 1.232-4.887-4.59 1.084-2.063 2.402-3.992 3.762-5.883 3.968-5.348 8.446-10.178 14.185-13.637 14.226-8.577 25.239 3.995 12.637 13.997z" fill="#fac135"/><path d="m478.607 729.393c-5.303 4.227-11.788 6.615-18.241 8.449-2.528.721-4.922 1.271-7.456 1.664-5.363.83-7.937 1.232-4.888-4.59 1.084-2.063 2.402-3.992 3.762-5.883 3.969-5.348 8.446-10.178 14.186-13.637 14.225-8.578 25.238 3.995 12.637 13.997z" fill="#fac135"/><path d="m414.213 808.826c-6.743.707-13.496-.773-19.92-2.703-2.52-.752-4.832-1.578-7.179-2.611-4.966-2.189-7.352-3.236-1.647-6.5 2.023-1.154 4.174-2.07 6.337-2.932 6.225-2.369 12.597-4.027 19.297-3.852 16.605.432 19.117 16.956 3.112 18.598z" fill="#fac135"/><path d="m211.303 789.869c-6.742.707-13.495-.773-19.919-2.701-2.521-.754-4.832-1.58-7.179-2.613-4.966-2.189-7.352-3.236-1.648-6.5 2.024-1.154 4.174-2.068 6.338-2.932 6.225-2.369 12.597-4.027 19.296-3.852 16.606.432 19.117 16.956 3.112 18.598z" fill="#fac135"/><path d="m362.338 725.463c-5.362.83-7.936 1.232-4.887-4.59 1.084-2.063 2.402-3.992 3.762-5.883 3.968-5.348 8.446-10.178 14.185-13.637 14.227-8.578 25.239 3.994 12.639 13.998-5.303 4.225-11.789 6.615-18.241 8.447-2.529.723-4.924 1.272-7.458 1.665z" fill="#fac135"/><path d="m545.779 785.365c-6.721.918-13.513-.348-19.996-2.078-2.54-.672-4.879-1.426-7.257-2.385-5.033-2.029-7.448-3.002-1.852-6.443 1.989-1.217 4.108-2.199 6.243-3.129 6.145-2.563 12.465-4.422 19.167-4.457 16.61-.086 19.641 16.35 3.695 18.492z" fill="#fac135"/><path d="m449.352 636.074c-6.743.73-13.5-.725-19.93-2.631-2.522-.742-4.838-1.559-7.189-2.586-4.974-2.168-7.364-3.207-1.67-6.492 2.02-1.162 4.165-2.088 6.327-2.953 6.214-2.393 12.582-4.076 19.281-3.928 16.606.373 19.18 16.889 3.181 18.59z" fill="#fac135"/><path d="m303.313 772.986c-6.743.73-13.5-.725-19.93-2.631-2.522-.742-4.839-1.559-7.189-2.586-4.974-2.168-7.364-3.207-1.67-6.492 2.02-1.162 4.165-2.086 6.327-2.953 6.214-2.393 12.582-4.076 19.281-3.926 16.606.372 19.18 16.887 3.181 18.588z" fill="#fac135"/><path d="m351.048 637.688c-4.645 4.941-10.723 8.232-16.847 10.969-2.398 1.076-4.688 1.965-7.142 2.713-5.188 1.59-7.679 2.357-5.492-3.842.777-2.197 1.807-4.295 2.884-6.361 3.162-5.857 6.901-11.281 12.087-15.525 12.854-10.525 25.554.344 14.51 12.046z" fill="#fac135"/><path d="m259.772 693.152c-4.645 4.943-10.723 8.234-16.846 10.969-2.398 1.076-4.688 1.965-7.143 2.715-5.188 1.59-7.678 2.355-5.491-3.844.777-2.197 1.806-4.295 2.884-6.359 3.161-5.859 6.9-11.283 12.086-15.525 12.855-10.524 25.554.345 14.51 12.044z" fill="#fac135"/><path d="m463.925 415.429c-2.222 6.408-6.42 11.896-10.89 16.896-1.752 1.961-3.479 3.709-5.409 5.396-4.086 3.57-6.046 5.289-6.585-1.262-.189-2.326-.106-4.658.033-6.982.491-6.641 1.69-13.119 4.686-19.113 7.428-14.855 23.462-10.124 18.165 5.065z" fill="#fac135"/><path d="m184.75 492.707c5.411-15.703 21.929-13.121 18.673 2.635-1.359 6.645-4.799 12.637-8.571 18.182-1.481 2.172-2.964 4.133-4.655 6.057-3.581 4.078-5.299 6.037-6.693-.385-.493-2.281-.718-4.604-.884-6.926-.388-6.647-.051-13.229 2.13-19.563z" fill="#fac135"/><path d="m277.551 472.572c-.946 2.453-1.941 4.699-3.149 6.959-2.557 4.787-3.782 7.088-6.604 1.152-1.002-2.107-1.75-4.318-2.441-6.543-1.893-6.383-3.065-12.867-2.387-19.533 1.688-16.523 18.358-17.775 18.782-1.695.19 6.781-1.792 13.4-4.201 19.66z" fill="#fac135"/><path d="m213.82 586.602c1.687-16.523 18.358-17.775 18.782-1.693.191 6.779-1.792 13.398-4.2 19.658-.946 2.453-1.941 4.699-3.149 6.959-2.557 4.787-3.782 7.088-6.604 1.152-1.002-2.107-1.751-4.318-2.441-6.543-1.894-6.383-3.066-12.867-2.388-19.533z" fill="#fac135"/><path d="m169.787 690.865c-2.557 4.787-3.782 7.086-6.604 1.152-1.002-2.109-1.751-4.32-2.441-6.545-1.893-6.381-3.065-12.867-2.387-19.531 1.688-16.523 18.358-17.777 18.782-1.695.191 6.779-1.791 13.398-4.2 19.658-.947 2.453-1.942 4.7-3.15 6.961z" fill="#fac135"/><path d="m408.974 336.822c.318-2.309.902-4.57 1.543-6.809 1.917-6.377 4.49-12.441 8.713-17.645 10.47-12.895 25.097-4.807 16.639 8.879-3.557 5.773-8.845 10.225-14.29 14.137-2.135 1.539-4.2 2.865-6.452 4.098-4.761 2.6-7.046 3.853-6.153-2.66z" fill="#fac135"/><path d="m334.244 294.058c.628-2.246 1.515-4.406 2.45-6.537 2.763-6.061 6.132-11.723 11.02-16.305 12.119-11.359 25.518-1.365 15.287 11.051-4.306 5.238-10.147 8.93-16.073 12.074-2.322 1.23-4.548 2.27-6.948 3.184-5.067 1.933-7.501 2.865-5.736-3.467z" fill="#fac135"/><path d="m250.301 366.517c.35-6.652 1.413-13.152 4.28-19.209 7.119-15.006 23.245-10.617 18.273 4.684-2.087 6.453-6.171 12.027-10.535 17.123-1.709 1.998-3.398 3.779-5.299 5.506-4.005 3.658-5.928 5.414-6.604-1.123-.239-2.321-.206-4.655-.115-6.981z" fill="#fac135"/><path d="m646.374 641.441c-3.244 5.953-8.29 10.676-13.522 14.873-2.049 1.65-4.042 3.086-6.225 4.432-4.615 2.852-6.831 4.221-6.286-2.328.198-2.322.663-4.611 1.181-6.883 1.576-6.469 3.824-12.66 7.768-18.078 9.772-13.432 24.806-6.129 17.084 7.984z" fill="#fac135"/><path d="m634.071 733.361c-6.234 2.668-13.121 3.25-19.829 3.303-2.629.027-5.083-.08-7.631-.373-5.392-.619-7.978-.918-3.495-5.721 1.595-1.701 3.378-3.211 5.189-4.674 5.243-4.102 10.845-7.572 17.295-9.383 15.994-4.492 23.275 10.55 8.471 16.848z" fill="#fac135"/><path d="m713.488 659.781c-1.054 2.41-2.158 4.602-3.471 6.807-2.772 4.662-4.105 6.9-6.649.842-.899-2.148-1.545-4.395-2.136-6.648-1.594-6.465-2.464-12.992-1.473-19.621 2.456-16.428 19.163-16.906 18.842-.822-.122 6.778-2.414 13.302-5.113 19.442z" fill="#fac135"/><path d="m753.201 603.758c-38.389-17.453-61.191-50.166-74.725-88.543-2.728 10.768-6.067 21.369-10.301 31.518-4.605 11.037-10.449 42.102-24.97 45.012-16.869 3.383-33.014-15.533-40.514-28.602-13.149-22.91-13.896-45.898-10.659-71.538 2.207-17.48 5.429-41.588 13.416-61.908-31.252-3.744-61.39-20.199-82.773-43.197-14.444-15.531-28.469-39.559-4.417-53.203 2.257-1.279 4.704-2.129 7.22-2.803-24.866-24.277-46.635-56.535-57.562-88.867-1.919-5.676-3.48-11.984-4.295-18.184-55.154-15.627-116.053-12.311-164.998 19.955-34.674 22.859-61.435 54.779-82.956 90.008-52.473 85.885-79.808 186.846-90.162 286.372-5.563 53.465-18.589 126.035 14.271 173.295 29.454 42.359 82.401 49.809 130.261 54.809 102.722 10.729 210.5-.42 308.258-34.215 42.326-14.631 85.715-33.33 120.412-62.324 45.685-38.179 63.973-89.437 54.494-147.585zm-210.329-47.432c7.243 3.887 12.938 11.43 10.941 20.074-2.333 10.072-12.06 15.365-21.692 16.709-7.243 1.012-14.685.488-21.843-.904-5.425-1.055-11.087-2.297-15.818-5.279-4.219-2.658-6.975-7.541-5.066-12.52 2.526-6.58 9.781-10.473 15.58-13.674 10.836-5.796 26.141-10.716 37.898-4.406zm-30.932-95.039c8.196.6 16.472 5.168 18.167 13.875 1.973 10.15-4.756 18.945-13.007 24.096-6.203 3.875-13.214 6.428-20.318 8.072-5.383 1.246-11.06 2.416-16.598 1.619-4.935-.711-9.441-4.047-9.725-9.371-.373-7.038 4.667-13.549 8.661-18.833 7.536-9.706 19.512-20.435 32.82-19.458zm-41.435 171.565c-3.555 9.711-13.859 13.764-23.585 13.912-7.311.115-14.633-1.32-21.565-3.582-5.253-1.715-10.719-3.645-15.048-7.186-3.859-3.158-5.994-8.344-3.487-13.047 3.316-6.221 10.995-9.191 17.143-11.656 11.468-4.418 27.264-7.418 38.155.291 6.706 4.75 11.431 12.936 8.387 21.268zm-.461-237.927c7.264 7.361 6.529 18.41 2.51 27.268-3.02 6.662-7.444 12.666-12.451 17.973-3.793 4.014-7.871 8.131-12.926 10.533-4.5 2.143-10.104 1.855-13.285-2.416-4.209-5.658-3.616-13.869-3.213-20.48.9-12.256 4.933-27.818 16.556-34.375 7.158-4.038 16.578-4.815 22.809 1.497zm-69.315-68.799c3.533-11.77 10.842-26.092 23.609-29.973 7.861-2.391 17.227-1.109 21.943 6.402 5.496 8.758 2.389 19.385-3.453 27.162-4.394 5.85-10.014 10.756-16.049 14.846-4.574 3.104-9.447 6.24-14.902 7.49-4.858 1.115-10.265-.375-12.446-5.238-2.881-6.433-.525-14.319 1.298-20.689zm26.959 203.968c8.197.602 16.472 5.17 18.167 13.877 1.973 10.148-4.756 18.943-13.006 24.094-6.204 3.875-13.214 6.428-20.318 8.072-5.384 1.246-11.061 2.416-16.598 1.619-4.935-.711-9.441-4.047-9.726-9.369-.372-7.039 4.667-13.551 8.662-18.834 7.534-9.707 19.51-20.436 32.819-19.459zm-43.511-57.202c-2.61 6.832-6.662 13.098-11.338 18.693-3.54 4.242-7.363 8.6-12.262 11.303-4.362 2.41-9.97 2.469-13.407-1.607-4.543-5.389-4.451-13.622-4.451-20.247.154-12.285 3.234-28.066 14.438-35.314 6.9-4.467 16.256-5.814 22.86.109 7.696 6.905 7.634 17.979 4.16 27.063zm-56.653-190.547c5.091-11.182 14.27-24.385 27.443-26.502 8.117-1.309 17.222 1.229 20.879 9.313 4.262 9.418-.258 19.529-7.099 26.443-5.143 5.201-11.375 9.303-17.908 12.539-4.949 2.455-10.206 4.902-15.776 5.402-4.966.449-10.12-1.758-11.624-6.871-1.987-6.763 1.415-14.261 4.085-20.324zm-2.472 72.348c5.264-6.311 13.801-10.373 21.861-6.674 9.398 4.313 12.624 14.904 12 24.611-.465 7.299-2.477 14.482-5.28 21.217-2.126 5.098-4.481 10.393-8.359 14.428-3.449 3.598-8.791 5.314-13.279 2.443-5.94-3.801-8.291-11.688-10.256-18.014-3.498-11.783-5.238-27.765 3.313-38.011zm-19.642 170.389c7.541-3.271 16.99-3.063 22.53 3.869 6.454 8.076 4.572 18.988-.351 27.379-3.698 6.309-8.726 11.822-14.259 16.57-4.189 3.602-8.678 7.271-13.954 9.133-4.7 1.658-10.241.795-12.961-3.793-3.593-6.061-2.147-14.168-1.059-20.701 2.175-12.094 7.809-27.152 20.054-32.457zm-13.195-68.901c-.465 7.301-2.477 14.482-5.28 21.217-2.127 5.098-4.482 10.393-8.359 14.428-3.449 3.598-8.791 5.315-13.279 2.443-5.94-3.801-8.292-11.688-10.256-18.014-3.497-11.783-5.237-27.766 3.313-38.012 5.264-6.311 13.8-10.373 21.861-6.674 9.398 4.313 12.623 14.905 12 24.612zm-52.343-91.123c.642-12.27 4.346-27.914 15.83-34.711 7.073-4.191 16.474-5.162 22.838 1.02 7.416 7.199 6.914 18.266 3.079 27.205-2.879 6.723-7.176 12.824-12.069 18.225-3.707 4.098-7.701 8.303-12.702 10.809-4.455 2.236-10.061 2.068-13.333-2.137-4.327-5.567-3.907-13.79-3.643-20.411zm-8.806 198.506c9.397 4.313 12.623 14.904 12 24.611-.465 7.301-2.477 14.482-5.28 21.217-2.127 5.098-4.482 10.393-8.359 14.428-3.449 3.598-8.792 5.316-13.28 2.443-5.94-3.801-8.291-11.688-10.256-18.014-3.496-11.783-5.236-27.766 3.314-38.01 5.264-6.311 13.8-10.374 21.861-6.675zm-47.078-87.842c6.564-4.945 15.802-6.953 22.806-1.514 8.168 6.344 8.893 17.391 6.072 26.7-2.117 7.002-5.714 13.539-9.98 19.455-3.233 4.477-6.734 9.096-11.429 12.139-4.18 2.719-9.772 3.172-13.487-.646-4.918-5.057-5.407-13.271-5.876-19.881-.719-12.268 1.231-28.227 11.894-36.253zm-23.306 229.882c-5.94-3.803-8.292-11.688-10.256-18.016-3.497-11.781-5.237-27.764 3.313-38.01 5.264-6.311 13.8-10.373 21.861-6.676 9.398 4.314 12.623 14.906 12 24.611-.465 7.301-2.477 14.484-5.28 21.219-2.127 5.096-4.482 10.391-8.359 14.428-3.449 3.598-8.791 5.315-13.279 2.444zm71.787 81.121c-3.589 9.697-13.909 13.713-23.634 13.826-7.311.088-14.63-1.375-21.553-3.662-5.246-1.732-10.707-3.682-15.022-7.24-3.849-3.17-5.963-8.365-3.439-13.059 3.339-6.207 11.027-9.152 17.187-11.59 11.483-4.381 27.287-7.322 38.152.428 6.69 4.773 11.384 12.976 8.309 21.297zm-2.397-68.227c-4.986.113-9.98-2.436-11.136-7.639-1.53-6.883 2.369-14.135 5.434-20.008 5.834-10.814 15.876-23.369 29.164-24.602 8.183-.758 17.098 2.385 20.205 10.693 3.62 9.686-1.569 19.469-8.857 25.91-5.478 4.844-11.971 8.518-18.708 11.309-5.105 2.12-10.511 4.21-16.102 4.337zm94.394 51.266c-3.555 9.711-13.859 13.764-23.585 13.912-7.311.115-14.633-1.32-21.565-3.582-5.253-1.715-10.719-3.643-15.048-7.186-3.859-3.158-5.994-8.344-3.487-13.047 3.316-6.221 10.995-9.191 17.143-11.654 11.468-4.42 27.263-7.42 38.154.289 6.707 4.75 11.432 12.936 8.388 21.268zm-3.118-106.731c-4.986.111-9.98-2.436-11.137-7.641-1.53-6.883 2.37-14.133 5.435-20.006 5.834-10.814 15.876-23.371 29.163-24.604 8.183-.756 17.098 2.387 20.206 10.695 3.62 9.686-1.569 19.469-8.857 25.908-5.478 4.844-11.972 8.518-18.708 11.309-5.106 2.12-10.512 4.21-16.102 4.339zm33.668 73.153c-4.949-.598-9.528-3.836-9.929-9.15-.529-7.029 4.364-13.65 8.24-19.021 7.318-9.873 19.053-20.861 32.38-20.184 8.21.42 16.581 4.807 18.47 13.475 2.196 10.104-4.336 19.045-12.47 24.377-6.115 4.008-13.067 6.717-20.133 8.518-5.354 1.363-11.007 2.658-16.558 1.985zm80.363 69.496c-3.59 9.697-13.909 13.713-23.635 13.826-7.311.088-14.629-1.375-21.553-3.662-5.245-1.732-10.706-3.684-15.021-7.24-3.849-3.17-5.964-8.365-3.439-13.059 3.338-6.207 11.027-9.152 17.186-11.59 11.484-4.381 27.287-7.322 38.152.428 6.691 4.773 11.384 12.976 8.31 21.297zm46.9-65.959c-6.115 4.01-13.068 6.719-20.134 8.52-5.354 1.365-11.007 2.66-16.559 1.986-4.949-.6-9.527-3.836-9.929-9.152-.528-7.027 4.365-13.648 8.24-19.02 7.318-9.873 19.054-20.861 32.38-20.184 8.21.42 16.581 4.805 18.47 13.473 2.198 10.105-4.335 19.047-12.468 24.377zm84.555 41.836c-3.283 9.807-13.476 14.143-23.187 14.563-7.308.313-14.666-.918-21.657-2.988-5.299-1.566-10.819-3.344-15.244-6.766-3.943-3.045-6.222-8.172-3.847-12.943 3.144-6.309 10.737-9.492 16.813-12.123 11.341-4.736 27.047-8.172 38.148-.771 6.841 4.561 11.786 12.614 8.974 21.028zm-5.217-105.727c-6.115 4.01-13.067 6.719-20.133 8.518-5.354 1.367-11.007 2.662-16.559 1.988-4.949-.6-9.528-3.836-9.929-9.152-.529-7.027 4.364-13.648 8.24-19.02 7.318-9.873 19.053-20.861 32.38-20.184 8.209.42 16.581 4.805 18.47 13.473 2.197 10.104-4.335 19.047-12.469 24.377zm73.254 68.465c-6.962 2.242-14.384 3.008-21.674 2.867-5.524-.104-11.319-.352-16.492-2.477-4.612-1.891-8.168-6.229-7.144-11.459 1.355-6.916 7.832-12.002 12.991-16.152 9.678-7.576 23.908-15.057 36.576-10.867 7.805 2.584 14.71 9.037 14.232 17.895-.562 10.326-9.236 17.212-18.489 20.193zm18.901-94.766c-4.076 6.072-9.429 11.27-15.239 15.674-4.402 3.34-9.106 6.732-14.483 8.268-4.793 1.373-10.271.17-12.706-4.572-3.219-6.27-1.283-14.273.198-20.727 2.906-11.941 9.445-26.629 21.988-31.184 7.726-2.805 17.145-2.016 22.254 5.234 5.953 8.456 3.408 19.235-2.012 27.307zm75.13-5.441c-.808 7.27-3.15 14.354-6.265 20.945-2.359 4.996-4.962 10.18-9.021 14.029-3.613 3.434-9.027 4.896-13.38 1.82-5.754-4.07-7.738-12.063-9.408-18.471-2.944-11.932-3.938-27.977 5.078-37.816 5.554-6.059 14.27-9.715 22.153-5.648 9.19 4.746 11.918 15.479 10.843 25.141z" fill="#ff5671"/><path d="m329.668 371.056c1.687-16.523 18.358-17.775 18.782-1.695.19 6.781-1.792 13.4-4.201 19.658-.945 2.455-1.941 4.701-3.148 6.961-2.557 4.787-3.783 7.086-6.605 1.152-1.001-2.109-1.75-4.32-2.441-6.543-1.894-6.382-3.066-12.869-2.387-19.533z" fill="#fac135"/><path d="m642.048 391.519c-20.339-5.502-42.264 8.121-63.314 6.502-16.687-1.283-30.813-9.912-42.957-20.807-5.97-5.355-11.243-11.324-15.872-17.871-.646-.912-1.201-1.859-1.744-2.805-.214-.387-.442-.762-.652-1.15-.411-.775-.726-1.586-1.092-2.375-.928 14.648 23.124 35.943 33.575 43.117 18.284 12.547 37.774 21.641 60.036 23.449 7.199-13.814 17.374-24.556 32.02-28.06z" fill="#abab38"/><path d="m512.695 172.326c.502 10.658 2.098 20.77 4.638 30.998 10.322 6.305 20.299 13.801 28.843 19.99 2.956 2.141 5.883 4.328 8.802 6.531-3.367-5.168-6.562-10.434-9.624-15.752-6.78-4.104-12.79-9.426-18.274-15.926-9.102-10.793-12.409-23.336-14.024-36.461-.355 4.901-.423 9.323-.361 10.62z" fill="#abab38"/><path d="m661.503 403.449c-2.19-1.168-4.637-2.061-7.395-2.6-41.904-.975-50.217 69.574-52.729 101.043-1.707 21.383-.188 42.592 13.392 60.416 3.793 4.977 8.332 10.455 13.603 14.521-13.875-27.93-17.088-59.611-10.769-91.045 3.81-18.953 11.385-36.41 20.608-53.285 5.084-9.296 12.618-23.787 23.29-29.05z" fill="#abab38"/><path d="m539.269 328.962c7.281.133 14.638 1.314 21.039 2.213 20.951 2.943 42.208 6.678 62.218 13.762 3.279 1.16 6.405 2.436 9.45 3.773-19.249-25.014-59.705-28.572-86.079-41.434-36.25-17.684-65.452-58.389-73.318-98.23-.185 1.402-.226 2.996-.054 4.867 1.613 17.494 8.201 33.074 16.604 48.355 13.588 24.716 29.187 47.69 50.14 66.694z" fill="#abab38"/><path d="m630.968 291.583c-10.088-9.131-21.705-16.152-32.823-23.895-1.53-1.066-2.995-2.174-4.422-3.309 22.817 24.418 41.272 52.094 52.471 83.762 5.251-2.291 10.332-4.859 15.308-7.605-3.736-19.064-15.327-35.189-30.534-48.953z" fill="#abab38"/><path d="m707.463 420.898c13.424 18.889 24.844 39.143 37.905 58.281 14.041 20.575 29.236 41.12 47.22 58.62-18.169-26.291-26.446-58.893-42.901-86.381-7.638-12.758-17.258-24.568-29.332-33.336-7.208-5.236-18.303-10.652-28.352-11.883 6.23 3.236 11.698 9.406 15.46 14.699z" fill="#abab38"/><path d="m822.467 608.301c-29.955-5.176-57.757-18.725-79.301-42.963-20.039-22.547-28.775-51.373-35.155-80.237-4.687-21.197-8.058-46.066-22.265-63.555 4.827 19.764 1.997 44.352-.522 60.137-1.744 10.92-1.8 15.174 1.886 26.325 10.443 31.57 27.302 60.795 55.458 78.496 15.651 9.83 43.117 23.06 79.899 21.797z" fill="#abab38"/><path d="m663.636 418.251c-1.043 7.438.496 15.125.609 22.629.129 8.691.277 17.283.555 25.973.027.834 1.162.963 1.422.193 4.799-14.18 10.5-36.729-1.595-49.059-.283-.288-.928-.193-.991.264z" fill="#d7e338"/><path d="m782.523 554.596c-13.44-12.557-25.171-26.848-36.762-41.074-.184-.225-.539.016-.467.271 5.44 19.059 20.051 35.445 34.036 48.949 11.909 11.5 32.29 27.963 49.875 23.768.599-.143.627-.928.162-1.232-15.944-10.423-32.646-17.415-46.844-30.682z" fill="#d7e338"/><path d="m832.81 587.156c-.13.074-.186.229-.15.369.761 3.168 5.271 4.268 8 3.41.787-.246 1.207-1.348.516-1.953-2.013-1.759-5.816-3.273-8.366-1.826z" fill="#d7e338"/><path d="m752.418 440.949c3.581 4.301 6.556 9.09 9.772 13.656 2.598 3.691 6.309 6.426 9.237 9.816.437.506 1.286-.029 1.101-.641-3.124-10.293-6.203-17.783-13.069-26.326-5.484-6.82-14.238-16.053-23.637-16.232-.273-.006-.415.293-.298.52 3.789 7.261 11.636 12.89 16.894 19.207z" fill="#d7e338"/><path d="m567.134 348.25c-12.327-1.34-27.536-2.426-38.843 3.518-.623.326-.255 1.131.322 1.197 12.774 1.451 25.708 1.904 38.521 3.012 13.883 1.199 27.642 4.199 41.52 5.66.626.064.844-.889.315-1.164-13.591-7.126-26.545-10.565-41.835-12.223z" fill="#d7e338"/><path d="m616.935 361.021c-1.406-.4-3.691-.539-4.805.568-.101.104-.101.238-.045.361 1.33 2.951 6.53 3.012 9.207 3.059.514.008.746-.629.407-.984-1.399-1.461-2.798-2.449-4.764-3.004z" fill="#d7e338"/><path d="m559.356 293.933c-11.508-12.02-26.108-20.578-37.922-32.379-14.449-14.432-23.49-32.592-35.702-48.688-.242-.318-.689-.129-.632.268 2.712 18.6 16.618 37.406 28.818 51.182 11.671 13.18 27.681 25.877 44.798 30.717.647.181 1.092-.631.64-1.1z" fill="#d7e338"/><path d="m554.163 297.365c1.802 4.389 8.715 6.02 12.903 5.143.868-.184 1.026-1.492.247-1.895-2.028-1.053-4.222-1.693-6.424-2.275-2.082-.549-4.289-1.477-6.474-1.307-.151.011-.322.162-.252.334z" fill="#d7e338"/><path d="m567.064 305c.506 2.586 4.371 2.484 5.56.527.188-.309.07-.725-.234-.902-.69-.403-5.671-1.389-5.326.375z" fill="#d7e338"/><path d="m590.859 245.556c-.368-.102-.739.424-.399.688 6.855 5.342 14.419 9.689 21.647 14.508 8.711 5.805 16.248 12.994 24.684 19.15.405.297 1.057-.199.87-.668-6.928-17.438-29.647-28.961-46.802-33.678z" fill="#d7e338"/><path d="m639.93 277.982c-.286-.219-.72.145-.604.465 1.01 2.787 1.748 5.393 3.827 7.518.196.201.522.096.605-.158 1.073-3.343-1.282-5.866-3.828-7.825z" fill="#d7e338"/><path d="m257.021 374.621c1.9-1.727 3.59-3.508 5.299-5.506 4.364-5.096 8.448-10.67 10.535-17.123 1.679-5.166.922-9.051-1.053-11.402-.195 2.063-.543 4.137-1.034 6.213-.758 3.195-2.275 6.139-3.943 8.936-1.619 2.713-7.362 7.844-12.399 8.352-1.391-.031-2.685-.35-3.849-.887-.103 1.104-.218 2.201-.275 3.314-.091 2.326-.124 4.66.115 6.98.676 6.537 2.599 4.781 6.604 1.123z" fill="#ee9e2b"/><path d="m338.566 384.167c-3.67 1.383-6.422-.066-8.553-2.6.454 3.033 1.155 6.041 2.04 9.021.691 2.223 1.44 4.434 2.441 6.543 2.822 5.934 4.049 3.635 6.605-1.152 1.207-2.26 2.203-4.506 3.148-6.961 2.409-6.258 4.392-12.877 4.201-19.658-.011-.383-.072-.707-.1-1.07-.331 1.516-.676 3.029-1.096 4.496-1.343 4.694-3.836 9.555-8.686 11.381z" fill="#ee9e2b"/><path d="m339.979 297.525c2.4-.914 4.626-1.953 6.948-3.184 5.926-3.145 11.768-6.836 16.073-12.074 4.15-5.039 4.373-9.646 2.408-12.623-1.779 3.234-3.865 6.305-6.473 9.156-4.912 5.367-14.418 10.184-22.818 10.107-.709 1.686-1.382 3.389-1.874 5.15-1.764 6.333.67 5.401 5.736 3.468z" fill="#ee9e2b"/><path d="m408.974 336.822c-.893 6.514 1.393 5.26 6.152 2.66 2.252-1.232 4.317-2.559 6.452-4.098 5.445-3.912 10.733-8.363 14.29-14.137 2.832-4.58 3.038-8.506 1.718-11.256-.292.73-.591 1.451-.889 2.15-2.078 4.865-5.349 9.174-9.151 12.803-3.101 2.959-6.978 4.551-11.308 3.941-2.092-.293-3.611-.979-4.704-1.918-.348 1.012-.71 2.016-1.018 3.045-.64 2.239-1.224 4.501-1.542 6.81z" fill="#ee9e2b"/><path d="m183.503 519.195c1.395 6.422 3.112 4.463 6.693.385 1.691-1.924 3.174-3.885 4.655-6.057 3.772-5.545 7.212-11.537 8.571-18.182.647-3.137.489-5.727-.186-7.777-.203 1.227-.43 2.445-.693 3.654-.826 3.791-2.375 7.379-4.235 10.768-3.1 5.646-10.381 8.367-15.789 6.697.017 1.193.029 2.387.1 3.586.166 2.323.391 4.645.884 6.926z" fill="#ee9e2b"/><path d="m403.489 567.197c2.545-.338 4.949-.834 7.494-1.498 6.489-1.689 13.026-3.938 18.424-8.043 5.607-4.252 6.708-9.094 4.966-12.508-7.887 9.434-20.364 15.16-31.303 10.988-.154.193-.319.373-.472.568-1.402 1.857-2.762 3.756-3.892 5.797-3.177 5.753-.594 5.407 4.783 4.696z" fill="#ee9e2b"/><path d="m274.401 479.531c1.208-2.26 2.203-4.506 3.149-6.959 2.409-6.26 4.392-12.879 4.2-19.66-.113-4.309-1.411-7.332-3.258-9.191.115 3.732-.381 7.523-1.247 11.232-.939 4.025-2.764 7.795-5.558 10.836-.565.617-1.133 1.076-1.697 1.426-.041.025-.082.053-.125.078-2.205 1.291-4.354.658-6.294-.777.452 2.559 1.034 5.104 1.783 7.625.691 2.225 1.439 4.436 2.441 6.543 2.824 5.935 4.05 3.634 6.606-1.153z" fill="#ee9e2b"/><path d="m457.069 427.455c-4.641-.375-8.479-3.91-10.59-9.852-.798-2.246-1.036-4.49-.938-6.721-2.813 5.852-3.99 12.143-4.468 18.596-.14 2.324-.223 4.656-.033 6.982.539 6.551 2.499 4.832 6.585 1.262 1.931-1.688 3.657-3.436 5.409-5.396 1.4-1.565 2.741-3.198 4.035-4.871z" fill="#ee9e2b"/><path d="m295.5 560.439c-.37 2.246-.686 4.51-.738 6.793-.146 6.57 1.98 5.066 6.415 1.941 2.099-1.477 3.999-3.031 5.945-4.801 4.965-4.51 9.715-9.527 12.592-15.67 1.588-3.373 1.94-6.281 1.489-8.627-2.542 4.225-5.27 7.961-6.329 9.33-5.033 6.501-12.234 12.085-19.374 11.034z" fill="#ee9e2b"/><path d="m360.236 489.91c1.826-1.805 3.445-3.652 5.074-5.715 4.157-5.264 8.016-10.998 9.845-17.527 1.415-5.027.636-8.791-1.261-11.096-.264 2.002-.58 4.004-1.021 6.006-1.775 8.061-11.157 20.711-19.506 16.572-.08 1.303-.154 2.611-.171 3.928.002 2.326.062 4.662.393 6.969.937 6.505 2.788 4.673 6.647.863z" fill="#ee9e2b"/><path d="m219.033 591.131c-1.857-3.289-3.053-6.926-3.633-10.645-.766 1.734-1.339 3.75-1.58 6.115-.679 6.666.494 13.15 2.387 19.533.69 2.225 1.439 4.436 2.441 6.543 2.822 5.936 4.048 3.635 6.604-1.152 1.208-2.26 2.203-4.506 3.149-6.959.514-1.336.991-2.693 1.448-4.059-4.125-.38-8.052-4.482-10.816-9.376z" fill="#ee9e2b"/><path d="m388.036 715.352c7.813-6.205 6.536-13.385 1.053-15.91-6.459 11.836-17.459 21.266-29.607 18.059-.727 1.094-1.42 2.209-2.03 3.373-3.049 5.822-.476 5.42 4.887 4.59 2.534-.393 4.929-.941 7.457-1.664 6.451-1.833 12.937-4.224 18.24-8.448z" fill="#ee9e2b"/><path d="m351.048 637.688c5.264-5.578 5.099-10.936 2.129-13.908-1.212 4.24-3.162 8.201-6.099 11.914-5.338 6.746-15.532 10.338-23.527 7.287-.732 1.484-1.43 2.986-1.983 4.547-2.187 6.199.305 5.432 5.492 3.842 2.454-.748 4.743-1.637 7.142-2.713 6.123-2.737 12.201-6.028 16.846-10.969z" fill="#ee9e2b"/><path d="m505.662 580.359c2.46.729 4.858 1.254 7.452 1.684 6.617 1.1 13.502 1.711 20.103.158 6.654-1.555 9.623-5.348 9.608-9.068-9.53 4.953-22.3 2.834-32.788-3.176-.302.158-.612.295-.915.455-2.038 1.127-4.055 2.309-5.916 3.711-5.245 3.959-2.746 4.695 2.456 6.236z" fill="#ee9e2b"/><path d="m528.25 669.523c-.299.5-.617.988-.889 1.502-3.049 5.822-.476 5.42 4.887 4.59 2.534-.393 4.929-.943 7.457-1.664 5.628-1.6 11.234-3.701 16.105-6.994-8.822 2.695-18.337 3.395-27.56 2.566z" fill="#ee9e2b"/><path d="m169.787 690.865c1.208-2.262 2.203-4.508 3.149-6.961.177-.463.329-.939.502-1.404-6.938-.891-12.08-10.752-14.465-19.916-.271 1.045-.495 2.146-.619 3.357-.679 6.664.494 13.15 2.387 19.531.69 2.225 1.439 4.436 2.441 6.545 2.823 5.934 4.048 3.635 6.605-1.152z" fill="#ee9e2b"/><path d="m449.352 636.074c8.826-.938 11.974-6.385 10.256-11.143-10.3 6.564-22.834 4.354-32.854-3.463-2.115.852-4.215 1.76-6.191 2.896-5.694 3.285-3.304 4.324 1.67 6.492 2.352 1.027 4.667 1.844 7.189 2.586 6.43 1.908 13.186 3.363 19.93 2.632z" fill="#ee9e2b"/><path d="m606.002 727.83c-1.001.873-1.977 1.771-2.886 2.74-4.482 4.803-1.896 5.102 3.495 5.721 2.548.293 5.002.4 7.631.373 6.708-.053 13.595-.635 19.829-3.303 2.108-.896 3.723-1.982 4.974-3.152-11.046 3.437-24.002 3.322-33.043-2.379z" fill="#ee9e2b"/><path d="m487.742 498.391c2.544-.338 4.949-.834 7.493-1.499 6.49-1.691 13.027-3.938 18.425-8.043 6.4-4.854 6.928-10.479 4.058-13.863-7.255 10.215-18.669 15.947-30.907 12.967-1.387 1.842-2.731 3.721-3.851 5.74-3.178 5.754-.595 5.409 4.782 4.698z" fill="#ee9e2b"/><path d="m700.558 637.777c-.331 1.049-.614 2.156-.798 3.383-.991 6.629-.121 13.156 1.473 19.621.591 2.254 1.236 4.5 2.136 6.648 2.544 6.059 3.877 3.82 6.649-.842 1.313-2.205 2.417-4.396 3.471-6.807.273-.625.514-1.266.777-1.895-6.472-5.549-11.77-12.016-13.708-20.108z" fill="#ee9e2b"/><path d="m221.826 782.887c-10.386 5.59-25.352 2.123-33.306-7.607-2.037.818-4.057 1.688-5.964 2.775-5.703 3.264-3.317 4.311 1.648 6.5 2.347 1.033 4.658 1.859 7.179 2.613 6.424 1.928 13.177 3.408 19.919 2.701 6.305-.646 9.695-3.609 10.524-6.982z" fill="#ee9e2b"/><path d="m646.374 641.441c.835-1.527 1.357-2.957 1.697-4.307-7.508 7.186-16.962 13.234-26.732 15.279-.437 1.984-.825 3.98-.998 6.004-.545 6.549 1.671 5.18 6.286 2.328 2.183-1.346 4.176-2.781 6.225-4.432 5.232-4.196 10.278-8.918 13.522-14.872z" fill="#ee9e2b"/><path d="m261.834 679.172c-6.284 12.012-18.284 22.592-28.975 18.098-.956 1.861-1.869 3.75-2.566 5.723-2.187 6.199.304 5.434 5.491 3.844 2.454-.75 4.744-1.639 7.143-2.715 6.123-2.734 12.201-6.025 16.846-10.969 5.304-5.622 5.099-11.024 2.061-13.981z" fill="#ee9e2b"/><path d="m483.089 716.484c-2.552 3.188-5.498 6.078-9.038 8.535-6.205 4.313-15.172 6.443-23.403 5.662-.942 1.369-1.852 2.762-2.625 4.234-3.049 5.822-.476 5.42 4.888 4.59 2.534-.393 4.928-.943 7.456-1.664 6.453-1.834 12.938-4.223 18.241-8.449 5.683-4.509 6.535-9.527 4.481-12.908z" fill="#ee9e2b"/><path d="m555.563 773.539c-10.671 8.461-24.971 7.385-35.827-.748-1.043.512-2.067 1.061-3.062 1.668-5.597 3.441-3.182 4.414 1.852 6.443 2.378.959 4.717 1.713 7.257 2.385 6.483 1.73 13.275 2.996 19.996 2.078 9.05-1.215 11.973-7.035 9.784-11.826z" fill="#ee9e2b"/><path d="m424.913 800.939c-11.014 6.113-26.773 3.59-35.419-5.887-1.372.594-2.729 1.219-4.027 1.959-5.704 3.264-3.318 4.311 1.647 6.5 2.347 1.033 4.659 1.859 7.179 2.611 6.424 1.93 13.177 3.41 19.92 2.703 6.865-.704 10.301-4.149 10.7-7.886z" fill="#ee9e2b"/><path d="m313.961 763.453c-10.2 6.625-23.988 3.967-33.372-5.018-2.071.836-4.128 1.729-6.065 2.842-5.694 3.285-3.304 4.324 1.67 6.492 2.351 1.027 4.667 1.844 7.189 2.586 6.43 1.906 13.187 3.361 19.93 2.631 7.84-.832 11.195-5.226 10.648-9.533z" fill="#ee9e2b"/><path d="m810.325 303.542c5.08-1.953 13.442-4.844 14.155-11.336-21.308 2.469-41.897 9.027-61.868 20.496-16.088 9.238-30.793 20.785-45.273 32.314-16.479 13.121-35.03 30.594-55.873 29.549 2.374 5.352 3.767 11.498 3.828 18.734 5.628 2.58 9.972 6.51 13.296 11.361 11.303-23.928 33.363-42.135 54.412-57.297 24.044-17.315 49.711-32.881 77.323-43.821z" fill="#865725"/><path d="m678.477 515.215c-2.728 10.768-6.067 21.369-10.301 31.518-4.605 11.037-10.449 42.102-24.97 45.012-16.869 3.383-33.014-15.533-40.514-28.602-13.149-22.91-13.896-45.898-10.659-71.538 2.207-17.48 5.429-41.588 13.416-61.908-31.252-3.744-61.39-20.199-82.773-43.197-6.239-6.709-12.386-15.006-15.434-23.363-3.423 22.027 18.732 46.945 33.975 59.475 12.292 10.107 26.112 18.328 40.666 24.766-6.093 21.26-7.679 44.016-5.492 65.577 2.092 20.605 8.561 39.383 18.638 56.186-7.216 25.354-15.147 50.459-25.017 74.85 1.944 1.992 3.419 4.455 4.075 7.467 2.196 10.104-4.336 19.047-12.47 24.377-2.75 1.805-5.686 3.311-8.709 4.623-8.971 16.266-19.558 31.553-32.413 45.199-20.103 21.338-45.428 36.688-71.802 48.988-7.206 3.361-14.537 6.523-21.954 9.531.109.074.222.135.329.211 6.691 4.773 11.385 12.977 8.311 21.297-3.59 9.697-13.909 13.713-23.635 13.826-7.311.088-14.629-1.375-21.553-3.662-5.245-1.732-10.706-3.684-15.021-7.24-1.876-1.545-3.324-3.574-4.042-5.787-40.779 10.973-83.121 16.664-124.668 16.133-31.8-.406-73.31-5.326-104.367-22.863 29.844 39.619 81.282 46.92 127.944 51.793 102.722 10.729 210.5-.42 308.258-34.215 42.326-14.631 85.715-33.33 120.412-62.324 45.685-38.178 63.973-89.436 54.494-147.584-38.388-17.456-61.191-50.169-74.724-88.546zm-111.643 266.344c-3.283 9.807-13.476 14.143-23.187 14.563-7.308.313-14.666-.918-21.657-2.988-5.299-1.566-10.819-3.344-15.244-6.766-3.943-3.045-6.222-8.172-3.847-12.943 3.144-6.309 10.737-9.492 16.813-12.123 11.341-4.736 27.047-8.172 38.148-.771 6.841 4.561 11.786 12.614 8.974 21.028zm68.037-37.262c-6.962 2.242-14.384 3.008-21.674 2.867-5.524-.104-11.319-.352-16.492-2.477-4.612-1.891-8.168-6.229-7.144-11.459 1.355-6.916 7.832-12.002 12.991-16.152 9.678-7.576 23.908-15.057 36.576-10.867 7.805 2.584 14.71 9.037 14.232 17.895-.562 10.326-9.236 17.212-18.489 20.193zm18.901-94.766c-4.076 6.072-9.429 11.27-15.239 15.674-4.402 3.34-9.106 6.732-14.483 8.268-4.793 1.373-10.271.17-12.706-4.572-3.219-6.27-1.283-14.273.198-20.727 2.906-11.941 9.445-26.629 21.988-31.184 7.726-2.805 17.145-2.016 22.254 5.234 5.953 8.456 3.408 19.235-2.012 27.307zm75.13-5.441c-.808 7.27-3.15 14.354-6.265 20.945-2.359 4.996-4.962 10.18-9.021 14.029-3.613 3.434-9.027 4.896-13.38 1.82-5.754-4.07-7.738-12.063-9.408-18.471-2.944-11.932-3.938-27.977 5.078-37.816 5.554-6.059 14.27-9.715 22.153-5.648 9.19 4.746 11.918 15.479 10.843 25.141z" fill="#df3f58"/><g fill="#ff9780"><path d="m375.949 532.08c.852-.953 1.175-2.156.891-3.545-.065-.324-.245-.617-.387-.916-.478-1.008-1.633-1.654-2.742-1.822-2.114-.977-4.737-.451-7.043.506-1.347.561-2.672 1.121-3.966 1.793-.839.439-1.567 1.199-2.102 1.959-.107.15-.212.301-.319.451-.434 1.102-.493 1.195-.179.277-2.114 1.717-.223 4.826 2.049 4.945-.833-.197-.712-.105.368.275.8.303 1.592.365 2.439.424 1.411.094 2.956-.338 4.344-.566 2.542-.418 5.47-1.5 6.647-3.781z"/><path d="m342.914 587.176c2.454-1.824 5.248-3.525 7.807-5.229 1.67-1.113 3.754-2.143 5.175-3.563 1.549-1.549 1.942-3.709 3.096-5.494 1.136-1.758-.034-3.938-1.849-4.543-2.018-.676-3.694-1.486-6.021-1.486-3.103 0-6.399 2.488-8.537 4.543-3.686 3.549-5.528 7.701-4.92 12.758.275 2.295 2.872 4.779 5.249 3.014z"/><path d="m373.352 312.257c-3.703.344-6.035 2.514-7.642 5.764-1.494 3.027-2.162 6.813-.056 9.684.759 1.035 1.757 1.518 3.048 1.24.856-.184 1.498-.52 2.127-.924 3.793-1.789 7.786-6.438 7.755-10.531-.019-2.651-2.374-5.498-5.232-5.233z"/><path d="m397.763 249.716c-.664 3.219 3.765 5.408 5.474 2.309-.642 1.164.688-.23.539-.17.803-.33 1.506-.689 2.269-1.078 1.617-.828 3.043-1.604 4.433-2.816 2.14-1.871 2.376-5.387.998-7.74-1.606-2.744-5.946-4.387-8.738-2.291-2.114 1.588-3.778 3.51-4.56 6.098-.299.988-.619 2.033-.645 3.072.225-.377.182-.01-.125 1.105-.069.566.051 1.07.355 1.511z"/><path d="m448.811 487.558c4.068-2.166 8.89-4.168 11.225-8.408 2.279-4.139-1.43-8.803-5.955-7.748-2.956.691-5.784 3.039-7.27 5.729-1.417 2.572-2.102 4.992-2.458 7.871-.292 2.373 2.69 3.498 4.458 2.556z"/><path d="m406.081 660.518c-4.36-10.172-20.8-2.99-22.19 5.713-.224 1.406.342 3.252 2 3.521 3.611.59 7.127.254 10.784-.053 4.309-.363 11.788-3.627 9.406-9.181z"/><path d="m432.694 261.208c-1.432 1.686-2.941 3.648-3.854 5.68-.951 2.115-1.478 4.701-2.748 6.627-1.623 2.457 1.596 5.678 4.052 4.053 1.909-1.26 4.41-1.885 6.481-2.893 2.382-1.16 4.559-3.648 5.996-5.809 3.955-5.947-5.274-13.14-9.927-7.658z"/><path d="m391.022 392.597c-.712 1.795-1.364 3.646-1.783 5.533-.241.83-.391 1.676-.457 2.537-.024.281-.244 3.531.085 1.674-.57 3.227 2.435 5.857 5.512 4.236-1.108.09-.882.045.675-.133 1.197-.33 2.257-1.082 3.199-1.854 1.523-1.246 2.743-2.566 3.979-4.096 3.096-3.834 6.375-9.195 4.824-14.238-1.268-4.117-5.581-5.607-9.308-3.787-3.894 1.902-5.234 6.359-6.726 10.128z"/><path d="m469.48 340.648c-3.812-.268-7.469 1.658-9.536 5.07-.868 1.432-1.703 2.848-2.417 4.361-.726 1.537-.808 3.08-1.213 4.693-.513 2.039 1.332 3.957 3.399 3.4 1.469-.395 3.168-.564 4.495-1.412 1.553-.992 2.972-2.141 4.387-3.318 2.946-2.451 4.402-5.807 4.077-9.602-.155-1.831-1.338-3.061-3.192-3.192z"/><path d="m411.335 484.035c-.837 1.258-1.613 2.705-2.094 4.143-.479 1.43-.671 2.73-1.011 4.186-.536 2.287 1.434 4.26 3.724 3.723 1.391-.324 2.728-.293 4.042-.951 1.199-.6 2.441-1.063 3.622-1.711 3.495-1.918 7.134-5.35 7.017-9.588-.097-3.424-2.729-6.057-6.152-6.152-4.208-.119-7.011 3.139-9.148 6.35z"/><path d="m475.666 541.617c4.186 1.4 8.127.336 12.033-1.377 3.696-1.619 8.647-7.086 5.65-11.42-1.072-1.551-2.757-2.283-4.62-2.416-2.717-.195-4.55.473-6.905 1.777-3.721 2.059-6.963 5.646-8.296 9.67-.545 1.649.621 3.258 2.138 3.766z"/><path d="m392.886 598.115c-.069.078-.14.16-.21.238-1.859 2.123-.127 6.096 2.946 5.061 1.296-.436 2.653-.182 3.955-.68 1.907-.732 3.692-1.406 5.315-2.66 2.213-1.715 5.013-5.322 3.293-8.258-1.857-3.172-6.479-1.76-9.034-.547-2.748 1.305-4.971 4.065-6.265 6.846z"/><path d="m224.509 380.371c.062-.049.063-.045.173-.133.773-.584 1.32-1.064 1.867-1.881.727-1.084 1.113-2.375 1.56-3.594.51-1.4.72-2.803.824-4.291.117-1.67-.798-2.73-1.203-4.191-.652-2.348-3.886-3.379-5.611-1.482-1.026 1.129-2.09 1.602-2.752 3.082-.704 1.576-.983 3.117-1.03 4.846-.035 1.271-.003 2.766.261 4.006.054.408.167.797.342 1.17.132.313.263.623.395.934.286.588.284.59-.004.004-.07 2.895 3.635 3.635 5.178 1.53z"/><path d="m191.377 448.39c5.155-5.25 5.927-16.34-.29-20.947-1.425-1.057-3.472-.195-4.321 1.135-1.709 2.664-1.783 5.934-1.426 9 .375 3.215.539 6.547 1.582 9.635.627 1.853 2.984 2.673 4.455 1.177z"/><path d="m497.479 440.462c.85-.014 1.872.137 2.917.176 1.938.07 3.754-.982 5.455-1.77 3.315-1.535 5.924-5.029 5.401-8.605-.006-.42 0-.834-.049-1.26-.219-1.93-1.321-2.98-3.226-3.227-.101-.014-.202-.018-.301-.025-2.984-1.133-6.85.553-8.847 2.848-.907 1.043-2.139 2.088-2.813 3.293-.08.145-1.251 2.543-.831 1.742.026-.051-1.271 3.531-.55 1.875-.95 2.18.121 4.992 2.844 4.953z"/><path d="m541.922 515.389c-3.011-.609-5.714-.076-8.244 1.703-1.898 1.338-3.769 2.818-4.461 5.082-.054.076-.107.164-.163.232-1.438 1.795-1.117 4.68 1.407 5.336.179.045.357.115.535.178 2.122 1.703 5.035 1.289 7.616.879 3.561-.57 6.111-3.133 7.282-6.412.992-2.778-1.092-6.416-3.972-6.998z"/><path d="m503.219 638.719c3.86-.785 7.987-.588 10.001-4.707 1.099-2.244 1.188-5.373-.922-7.148-4.505-3.791-9.178-1.791-13.876.48-2.9 1.406-5.732 4.152-6.42 7.396-2.084 2.293.352 5.246 2.997 4.408 2.618.631 5.688.086 8.22-.429z"/><path d="m315.61 453.414c-.09.697-.058 1.521-.019 2.225.011.195.498 3.65.368 1.363.102 1.762 1.901 3.713 3.832 2.92 1.325-.541 2.524-.602 3.668-1.729 1.304-1.283 2.438-2.619 3.341-4.221 2.012-3.572 1.984-8.133-.221-11.516-1.03-1.576-2.958-2.137-4.638-1.215-2.818 1.545-4.7 4.227-5.641 7.379-.455 1.534-.486 3.213-.69 4.794z"/><path d="m362.151 771.252c1.579-.129 3.068.557 4.689.584 1.625.029 3.205-.096 4.821-.287 3.832-.457 7.052-1.029 10.324-3.125 3.509-2.246 3.265-8.225-1.207-9.25-3.845-.881-6.947-.498-10.707.637-1.644.494-3.223 1.289-4.76 2.041-2.073 1.02-2.873 2.957-4.556 4.25-1.918 1.472-1.675 5.404 1.396 5.15z"/><path d="m437.982 691.314c3.536-.166 6.777-.316 10.131-1.65 3.696-1.475 7.551-5.18 5.842-9.539-1.627-4.154-6.496-3.758-9.857-2.299-3.604 1.563-6.054 4.904-8.466 7.814-1.708 2.061-.799 5.823 2.35 5.674z"/><path d="m235.431 515.957c-3.635 2.748-4.029 6.061-4.5 10.336-.143 1.281-.403 2.518-.362 3.811-.089.57-.068 1.137.06 1.695.054.398.106.797.16 1.195.033.113.054.182.076.264-.763 2.973 2.64 4.639 4.875 3.057.06-.006.247-.064.578-.182.975-.277 2.04-.918 2.771-1.609 1.323-1.256 2.378-2.523 3.31-4.096 2.604-4.398 3.575-9.424.132-13.555-1.528-1.832-5.163-2.381-7.1-.916z"/><path d="m286.114 622.668c1.185-2.385 1.259-4.465 1.528-7.008.226-2.141-1.848-3.447-3.653-3.652-2.142-.244-3.898-.582-6.062.012-2.822.771-5.146 3.33-6.899 5.557-3.237 4.113-4.912 8.039-5.2 13.25-.129 2.34 2.619 3.639 4.507 2.586 3.337-1.859 6.677-3.449 9.904-5.555 1.96-1.282 4.795-3.012 5.875-5.19z"/><path d="m224.632 643.656c-.399-1.453-1.385-2.74-2.657-3.561-.167-.148-.273-.355-.472-.471-4.044-2.371-8.624 1.457-10.442 5.998-.873 2.176-.825 5.172-.84 7.498-.017 2.396.842 4.557 1.008 6.871.188 2.57 3.779 3.992 5.153 1.395.841-1.592 2.419-3.023 3.488-4.48 1.374-1.871 2.657-3.941 3.725-6 1.167-2.246 1.721-4.754 1.037-7.25z"/><path d="m281.023 396.714c-.418 1.961-.431 3.832-.134 5.801.138.904.3 1.801.775 2.607-.087-.145 2.127 2.518 1.35 1.523.584.744 2.071 1.145 2.945.777-.753-.049-.463-.115.87-.197 1.073-.297 1.812-.994 2.616-1.711 1.253-1.119 2.166-2.568 3.112-3.938 1.861-2.693 3.769-6.455 3.711-9.746-.083-4.596-5.131-7.639-9.181-5.268-3.546 2.08-5.243 6.281-6.064 10.152z"/><path d="m299.447 273.003c-2.168.307-4.427-.016-6.405 1.145-2.355 1.379-4.176 4.152-5.245 6.59-1.097 2.498-2.24 5.725-1.446 8.484.245.855.355 1.707.522 2.582.183.959 1.188 1.9 1.387 2.625.767 2.795 4.604 2.602 5.459 0 .21-.641 1.705-2.174 2.254-2.666 1.243-1.111 2.236-3.014 3.166-4.396.942-1.4 2.02-2.738 3.014-4.109 1.283-1.775.67-4.213 1.343-6.205.89-2.645-1.78-4.37-4.049-4.05z"/><path d="m167.673 751.637c4.367.889 7.479-3.652 9.771-6.672 1.473-1.941 2.452-3.953 3.39-6.193.868-2.076-.175-5.322.056-7.615.229-2.281-2.783-3.861-4.605-2.643-2.051 1.369-4.927 2.014-6.65 3.736-2.066 2.068-3.196 4.977-4.175 7.662-1.086 2.969-2.463 10.776 2.213 11.725z"/><path d="m239.002 741.051c.601-2.453-.749-5.408-3.39-5.973-2.095-.445-3.744-.723-5.762.318-1.313.676-2.504 1.514-3.75 2.299-2.516 1.588-5.262 3.188-6.926 5.717-.991 1.506-.377 3.908 1.24 4.729 3.172 1.609 6.825 1.063 10.131.1 4.01-1.173 7.405-2.895 8.457-7.19z"/><path d="m334.575 694.27c1.481-2.297-.969-5.592-3.605-4.689-1.744.598-3.789.363-5.467.996-2.521.951-4.67 2.074-6.725 3.838-1.767 1.516-3.563 3.021-4.953 4.902-1.298 1.754-1.471 3.49-2.201 5.432-.744 1.977 1.521 4.076 3.441 3.438-.599-.361-.331-.379.803-.055 1.001 0 2.046-.393 3.013-.615 2.156-.496 4.339-1.939 6.297-2.941 2.25-1.152 4.219-2.482 5.94-4.35 1.551-1.683 2.226-4.048 3.457-5.956z"/><path d="m312.76 799.158c.905.385 1.471 1.102 2.489 1.383 1.285.352 2.813.352 4.141.434 3.046.189 6.672-.543 8.843-2.781 2.557-2.639 1.592-7.666-2.251-8.523-2.624-.586-4.805.07-7.209 1.072-.948.395-1.889.816-2.841 1.203-.58.207-1.152.439-1.716.693-.481.281-.941.932-1.456 1.176-1.96.933-2.09 4.453 0 5.343z"/><path d="m208.975 419.13c-.309 2.076-.675 4.107-.613 6.207.078 2.631.954 4.326 1.672 6.77.76 2.586 3.852 2.648 5.295.693 1.236-1.682 2.681-2.648 3.649-4.588.93-1.861 1.67-3.705 2.367-5.67 1.582-4.445 2.728-8.98.366-13.326-1.726-3.174-5.669-3.088-8.16-1.053-3.245 2.655-3.988 7.016-4.576 10.967z"/><path d="m156.718 586.387c-3.25 2.873-3.774 6.207-3.812 10.359-.015 1.6.247 3.281.42 4.871.17 1.561 1.17 3.623.9 5.16-.512 2.922 3.274 4.832 4.933 2.078 1.008-1.672 2.938-2.809 3.752-4.639.854-1.92 1.547-3.797 1.989-5.852.967-4.5.242-8.844-3.296-11.979-1.476-1.307-3.41-1.305-4.886.002z"/><path d="m166.558 544.381c-1.523-.594-3.749.072-4.811 1.271-5.286 5.977.87 16.277 5.821 20.773 1.265 1.15 3.86 1.25 4.65-.598 2.747-6.411 1.601-18.618-5.66-21.446z"/></g><path d="m566.254 269.683c16.518 17.221 30.955 35.904 45.047 55.117.368.502 1.331.225 1.084-.457-7.521-20.697-23.001-37.309-38.142-52.869-16.281-16.73-34.888-34.445-55.001-46.506-.21-.125-.428.164-.259.338 15.092 15.463 32.27 28.738 47.271 44.377z" fill="#68182b"/><path d="m616.345 333.662c.385.297.878.113.928-.385.214-2.203-1.002-5.795-3.52-6.283-.377-.07-.734.102-.85.484-.708 2.361 1.784 4.889 3.442 6.184z" fill="#68182b"/><path d="m666.767 492.802c6.383-20.01 9.055-44.25 2.345-64.51-.152-.461-.885-.398-.872.119.247 10.172 1.019 20.197.627 30.387-.434 11.322-2.458 22.547-3.198 33.857-.044.653.912.727 1.098.147z" fill="#68182b"/><path d="m663.143 506.246c1.592-2.127 4.465-6.941 2.04-9.387-.203-.207-.515-.186-.72 0-1.125.997-1.32 2.774-1.736 4.159-.502 1.672-.714 3.23-.504 4.979.059.501.615.655.92.249z" fill="#68182b"/><path d="m786.153 499.256c.28.619 1.126.15 1.022-.43-4.268-24.02-13.565-51.02-34.439-65.403-.279-.193-.604.238-.359.465 19.191 17.733 23.476 42.615 33.776 65.368z" fill="#68182b"/><path d="m789.459 512.301c.145.145.401.193.578.074 2.456-1.66 1.469-9.021-1.995-8.816-.16.012-.261.098-.316.242-.479 1.217.125 2.92.327 4.15.26 1.584.199 3.143 1.406 4.35z" fill="#68182b"/></g></g></svg>