<svg id="Fruit" height="512" viewBox="0 0 992.13 992.13" width="512" xmlns="http://www.w3.org/2000/svg"><g><path d="m146.374 820.276h.002c9.78 0 19.736-1.152 29.587-3.424 11.935-2.752 23.148-7.106 33.417-12.93 17.805 43.011 58.263 71.344 107.208 71.344 1.658 0 3.324-.033 5.011-.098 36.353-1.38 67.215-21.408 84.09-53.49h.297c36.025 0 67.189-13.348 88.36-37.246 11.206 3.796 22.927 5.76 34.676 5.76 28.99 0 57.078-11.607 79.085-32.687 5.2-4.979 9.813-10.373 13.809-16.144 7.924 1.73 15.997 2.619 23.976 2.619 18.691 0 36.044-4.869 50.425-13.957 12.96 5.918 27.486 9.08 42.307 9.08 39.487 0 73.917-20.885 89.852-54.506 3.51-7.4 5.974-15.048 7.374-22.855 24.027-16.213 37.548-43.471 35.954-74.084-.152-2.906-.437-5.785-.85-8.631 6.201 3.309 12.983 5.085 19.952 5.085 18.889 0 35.18-12.55 42.517-32.749 13.702-37.74 9.402-82-12.779-131.549-.409-.916-.757-1.722-1.051-2.434.495-.311 1.047-.648 1.664-1.016 17.721-10.604 22.145-23.85 22.735-33.088 3.077-47.892-64.437-76.496-72.146-79.6-5.189-2.088-10.511-4.009-16.038-5.784 5.288-9.842 6.424-19.862 3.365-29.894-6.109-20.022-25.775-30.175-58.452-30.175-3.187 0-6.145.078-8.664.146l-2.968.07c-7.938.127-15.728.512-23.351 1.156 7.347-24.597 8.345-56.426-27.969-76.079-7.761-4.202-15.828-6.331-23.976-6.331-25.179 0-41.873 19.43-53.391 34.814-.099-.286-.67-1.927-.67-1.927-3.954-11.383-12.18-35.071-35.116-40.024-2.936-.633-5.883-.954-8.761-.954-19.862 0-31.021 14.841-34.685 19.714-.154.206-.307.409-.456.615-.286-.586-.576-1.183-.868-1.783-9.742-20.062-24.464-50.377-54.9-50.377-8.898 0-17.663 2.853-26.051 8.479-34.036 22.83-30.418 68.712-23.09 105.188-1.769.494-3.529 1.035-5.282 1.621-17.066-29.451-47.453-47.894-81.86-47.894-11.868 0-23.825 2.183-35.542 6.487-32.664 12.004-54.856 41.376-59.867 76.815-25.936 3.793-48.849 17.099-64.37 37.79-19.792 26.387-26.96 58.749-21.142 94.519-28.635 15.9-48.957 43.543-55.79 76.21-15.425 5.998-29.244 15.349-40.584 27.553-19.582 21.076-27.657 47.479-22.735 74.34 2.738 14.939 9.302 28.979 18.829 40.998-22.527 14.233-40.702 35.261-50.837 59.971-13.979 34.084-10.812 69.797 8.923 100.563 16.867 26.292 45.569 40.773 80.826 40.773z" fill="#fff"/><g><path d="m170.599 793.581c21.431-4.941 39.908-16.391 53.163-32.303 3.458 51.498 41.489 92.133 96.93 90.026 35.81-1.36 60.057-25.138 69.735-54.678.485.202 1.024.343 1.614.407 38.95 4.198 75.124-8.816 94.356-42.285 34.867 20.084 76.268 13.211 105.19-14.49 8.627-8.264 14.787-17.592 18.844-27.533 27.287 11.721 62.225 10.566 83.74-11.467 35.031 25.664 92.62 15.521 112.721-26.887 4.297-9.066 6.333-18.35 6.448-27.33 53.11-24.037 41.627-101.729-9.819-118.834 5.63-8.855 9.451-19.605 10.86-32.412.608-5.537.565-10.898-.054-16.05 10.68 3.425 20.714 7.596 28.878 15.982 13.448 13.812 18.413 34.526 27.813 50.85 11.239 19.524 32.249 17.847 39.952-3.365 13.502-37.185 3.443-78.857-12.128-113.638-8.347-18.642-5.976-24.064 10.147-33.703 5.08-3.04 10.756-7.724 11.165-14.125 1.623-25.263-37.844-48.107-57.23-55.914-9.882-3.978-19.852-7.088-30.182-9.68-16.812-4.215-9.688-13.954-1.288-24.597 3.893-4.93 6.809-10.237 4.873-16.587-4.717-15.458-35.323-13.232-46.859-13.049-20.818.333-42.712 2.676-63.257 7.798 2.431-4.497 4.758-9.051 6.971-13.667 12.665-26.409 24.063-55.237-6.781-71.929-24.99-13.524-42.09 15.925-54.816 32.487-7.417 9.653-14.861 19.247-22.425 28.721-2.858-15.859-6.255-31.408-11.601-46.705-2.913-8.331-7.722-23.414-17.99-25.631-8.878-1.919-14.246 3.032-19.313 9.771-6.152 8.18-8.926 19.752-11.71 29.305-3.065 10.517-22.205-19.517-24.034-22.518-9.972-16.367-24.066-63.321-52.314-44.376-28.771 19.298-14.824 74.009-7.376 105.425-16.515-.323-32.582 4.817-46.666 13.759-11.346-42.996-52.822-67.357-96.798-51.197-33.224 12.21-47.702 45.423-44.971 77.52-26.054-2.438-52.378 7.642-68.399 28.999-20.839 27.781-22.032 61.737-12.628 94.124-32.802 10.573-59.316 40.516-61.853 80.626-16.564 3.672-32.179 12.041-44.644 25.457-34.396 37.021-14.647 86.57 23.938 105.674-60.173 13.584-104.312 83.112-67.151 141.046 18.398 28.68 54.183 34.067 84.949 26.973z" fill="#68182b"/><path d="m311.298 840.872c-51.644-1.26-80.174-47.719-76.998-95.215 4.003-7.458 7.033-15.55 8.945-24.133 2.872.293 5.797.432 8.771.402 26.902-.262 51.526-10.266 67.914-28.711 14.281 15.693 33.773 27.98 54.579 34.334 28.214 49.452-2.883 114.794-63.211 113.323z" fill="#7761d3"/><path d="m659.396 380.103c21.69 17.663 29.802 48.62 21.777 74.842-3.248 10.612-9.406 20.065-17.291 27.888-.123.111-.242.229-.357.352-10.027 9.822-22.781 17.027-35.869 20.652-26.944 7.465-55.717-8.773-76.013-25.545 5.611-21.553.145-46.08-13.168-64.296 19.681-11.47 34.771-25.94 42.632-45.38 27.018-7.819 55.682-6.925 78.289 11.487z" fill="#7761d3"/><path d="m549.366 265.953c-10.875-7.78-22.176-12.373-33.429-14.3-2.097-9.669-4.235-19.282-5.91-28.968 3.429 4.558 7.588 8.536 11.981 11.609 8.629 6.033 19.926 8.252 29.715 11.661 16.875 5.881 33.755 18.058 44.266 45.131 3.304 8.507 1.666 13.224-3.306 18.138-2.67 2.641-5.372 5.255-8.108 7.841-5.208-20.476-18.084-38.863-35.209-51.112z" fill="#b1d045"/><path d="m525.068 515.017c3.155-2.339 6.136-4.781 8.9-7.285 6.113-5.542 10.719-11.997 13.948-18.986 23.784 18.715 51.738 31.072 82.541 25.247 13.679-2.588 25.952-9.677 36.124-19.218 39.726 52.479-3.174 125.526-68.031 118.932 6.176-46.966-30.321-84.165-73.482-98.69z" fill="#7761d3"/><path d="m439.334 571.56c1.316-12.691 6.953-24.613 15.043-34.427 19.814 2.534 41.252-4.063 59.213-14.551 45.033 11.737 82.377 47.096 73.057 97.09-9.546 51.2-60.285 59.983-100.623 39.481 2.449-33.483-17.535-67.121-46.69-87.593z" fill="#7761d3"/><path d="m323.876 589.228c24.143 1.447 48.754-6.195 66.614-22.787 1.073-.998 2.11-2.031 3.107-3.094 66.265 9.947 111.767 92.938 55.544 143.935-35.648 32.335-94.545 8.772-122.672-22.54 5.264-7.896 9.224-16.979 11.554-27.172 5.411-23.673-.502-48.837-14.147-68.342z" fill="#7761d3"/><path d="m400.826 554.173c8.238-12.511 12.55-27.705 13.052-43.059 3.916 5.809 8.729 11.191 14.458 15.969.132.108.266.209.399.305.203.18.423.355.666.518 4.354 2.925 8.952 5.13 13.714 6.697-6.66 9.256-11.342 19.65-13.44 30.854-9.063-5.122-18.79-8.995-28.849-11.284z" fill="#7761d3"/><path d="m524.021 502.552c-9.994 9.057-53.98 39.434-88.891 16.535-28.61-24.393-29.47-60.97-10.951-91.947 21.549-36.048 72.826-40.405 102.218-11.636 23.988 23.477 21.748 65.182-2.376 87.048z" fill="#7761d3"/><path d="m419.343 415.752c-10.851 13.767-16.978 30.027-18.182 46.376-2.646-4.155-5.701-8.01-9.161-11.474-19.132-19.159-47.396-24.233-73.326-18.976-3.475-3.021-7.049-5.71-10.7-8.082-10.614-38.884 2.651-74.86 42.888-87.225 43.123-13.253 82.757 20.45 85.435 63.65-6.394 4.358-12.151 9.639-16.954 15.731z" fill="#7761d3"/><path d="m393.207 468.149c20.759 28.604 9.61 77.074-17.803 97.223-16.81 12.359-41.172 16.041-61.416 12.083-9.166-9.118-20.401-16.096-33.123-19.773-.204-.382-.463-.757-.782-1.119-29.922-33.9-19.824-85.674 19.215-107.451 30.718-17.137 73.107-9.627 93.909 19.037z" fill="#7761d3"/><path d="m308.007 585.862c.146.189.309.369.491.537 17.2 19.021 24.064 47.834 18.276 73.154-7.679 33.599-39.883 49.688-71.701 51.73-47.783 3.066-76.79-41.098-69.081-85.534 7.066-40.72 43.165-61.479 82.063-60.036 16.453 1.716 29.918 9.284 39.952 20.149z" fill="#7761d3"/><path d="m480.926 742.605c-15.25 35.873-51.508 47.622-87.821 44.007 3.853-18.408 2.318-38.23-5.258-55.854 26.866 4.734 54.523-.928 75.038-22.133 9.46-9.775 15.78-20.303 19.432-31.109 11.096 18.645 6.38 46.811-1.391 65.089z" fill="#7761d3"/><path d="m584.142 732.812c-24.266 25.78-63.154 29.85-93.018 12.5.095-.213.188-.43.28-.645 8.672-20.401 12.104-50.395.638-71.311 41.813 16.105 86.396 4.013 102.352-42.256 16.449 34.004 17.522 72.204-10.252 101.712z" fill="#7761d3"/><path d="m602.833 624.448c32.528 1.506 61.492-12.358 78.921-41.627 5.15-8.65 8.372-18.066 9.853-27.729 10.853 3.499 22.242 5.667 33.53 6.337 20.07 30.443 10.534 63.436-13.98 88.488-24.425 24.959-65.234 25.047-95.805 13.111-2.06-13.273-6.457-26.412-12.519-38.58z" fill="#7761d3"/><path d="m613.76 702.743c2.394-9.094 3.239-18.553 2.782-28.07 19.074 6.703 39.372 8.324 58.401 4.369 3.098 5.813 6.895 10.912 11.225 15.307-18.816 18.422-49.171 18.941-72.408 8.394z" fill="#7761d3"/><path d="m796.094 672.655c-20.44 43.119-87.497 41.697-110.629 3.582 13.794-4.525 26.616-12.209 37.435-23.264 15.412-15.752 23.727-35.838 23.73-56.045 44.058-7.629 66.962 38.809 49.464 75.727z" fill="#7761d3"/><path d="m812.456 635.7c-5.16-30.285-32.218-54.137-66.579-49.254-1.229-8.514-3.988-16.918-8.361-24.894 23.052-.944 44.665-8.587 59.172-24.429.21.082.428.156.658.221 44.633 12.128 55.657 75.434 15.11 98.356z" fill="#7761d3"/><path d="m803.851 495.796c-2.798 56.886-68.739 62.599-111.304 48.511.463-20.395-6.34-41.03-18.68-57.194 7.528-8.845 13.483-19.024 17.462-29.367 3.6-9.359 4.71-19.113 3.871-28.74 47.741-25.962 111.349 11.944 108.651 66.79z" fill="#7761d3"/><path d="m811.818 467.954c-5.225-16.937-16.873-31.031-31.693-40.993 38.167-1.51 66.168 21.966 67.38 45.179.259 4.947.097 9.292.188 13.368-9.998-8.922-22.679-13.515-35.875-17.554z" fill="#b1d045"/><path d="m887.015 547.37c-3.047-1.611-6.411-5.256-10.073-11.613-7.598-13.197-12.097-27.678-20.687-40.436-2.263-3.363-4.552-6.07-4.325-12.488.275-7.843.896-14.25-1.775-21.767-.835-2.347-1.993-4.848-3.415-7.331 23.226 20.927 40.097 51.195 46.318 80.091 2.396 11.14 1.629 17.597-6.043 13.544z" fill="#b1d045"/><path d="m906.297 512.712c-.068 4.021-.583 8.682-1.511 13.28-2.441 12.077-3.466 13.331-7.659-1.671-6.486-23.197-19.091-46.361-35.919-64.89 2.761.897 5.527 1.549 8.242 1.903 7.101.923 14.251 1.384 21.32 2.536 16.076 2.621 15.97 22.985 15.527 48.842z" fill="#b1d045"/><path d="m895.067 447.254c1.829 4.455 3.404 8.97 4.75 13.533-5.312-2-12.496-2.396-15.8-2.793-6.582-.792-13.251-.981-19.724-2.509-4.079-.963-7.883-2.662-11.566-4.657-22.462-20.936-50.928-33.617-81.797-29.311-23.821-12.346-53.269-14.909-77.506-3.402-2.927-12.319-8.818-24.089-16.49-34.16 31.342-17.879 65.506-26.703 99.554-16.346 16.583 5.043 29.939 14.744 43.145 25.65 11.036 9.112 21.9 17.817 34.309 25.023 8.953 5.2 20.91 10.451 31.403 7.781 2.828 7.26 6.868 14.233 9.722 21.191z" fill="#b1d045"/><path d="m905.743 385.435c-9.057 6.74-23.929 11.613-23.735 25.477.14 10.011-5.022 12.286-18.855 6.13-7.2-3.201-14.033-7.594-20.5-12.062-12.156-8.396-22.919-18.663-34.939-27.257-11.379-8.135-25.621-14.337-40.439-17.358-10.815-2.205-10.225-3.133 1.407-4.315 45.29-4.609 92.665 1.907 131.593 19.457 8.187 3.693 9.451 6.964 5.468 9.928z" fill="#b1d045"/><path d="m825.69 325.209c17.202 5.624 33.5 9.441 49.497 18.545 3.963 2.256 15.291 10.005 23.768 18.538 10.96 11.027 7.802 8.779-5.165 3.643-33.911-13.428-73.025-19.204-111.462-17.251-9.48.479-11.122 1.39-3.445-4.363 2.934-2.199 5.665-4.575 8.129-6.942 4.914-4.719 9.096-10.223 13.63-15.295 3.109-3.48 6.775-6.029 10.44-8.61 1.818 5.182 6.883 9.21 14.608 11.735z" fill="#b1d045"/><path d="m780.939 272.807c10.984-.708 22.203-.808 33.113.804 18.193 2.687 8.906 11.182 1.3 22.034-3.194 4.558-4.812 8.775-5.005 12.558-7.662 3.055-13.814 11.208-18.708 17.1-17.565 21.147-31.307 25.066-43.533 27.22-16.286 2.863-32.112 7.188-46.99 12.985 8.415-10.256 11.193-26.693 13.193-38.366 1.984-11.595 3.453-23.34 8.698-34.022 9.177-18.688 31.082-18.581 57.932-20.313z" fill="#b1d045"/><path d="m727.007 280.421c-6.967 7.027-11.462 16.688-14.065 28.522-2.464 11.204-3.318 22.686-6.013 33.851-5.961 24.706-20.804 28.546-34.04 36.194-1.934-2.219-3.954-4.336-6.046-6.333-4.064-3.879-8.507-7.097-13.226-9.717 25.028-23.817 47.392-50.64 65.192-80.252 2.712-.818 5.446-1.571 8.198-2.265z" fill="#b1d045"/><path d="m701.044 197.237c6.8-7.346 16.262-6.068 24.013-1.874 11.315 6.125 12.148 16.33 9.256 27.789-4.574 18.138-13.411 35.061-22.671 51.179-18.007 31.339-42.049 59.308-68.396 83.921-18.33-6.582-39.374-6-58.403-1.512 1.121-4.853 1.852-9.977 2.149-15.4.221-4.001.126-7.981-.253-11.918 43.589-40.03 74.449-89.142 114.305-132.185z" fill="#aa8053"/><path d="m633.407 220.593c2.939 11.412 4.871 23.1 6.852 34.688.05.292.117.563.2.818-9.244 11.299-18.713 22.382-28.567 33.136-7.426 8.108-7.095 7.238-10.581-1.019-2.815-6.679-6.138-15.918-2.477-28.295 2.534-8.577 7.619-16.463 14.944-24.625 3.812-4.248 7.406-8.541 10.537-13.214 5.083-7.594 6.751-10.56 9.092-1.489z" fill="#b1d045"/><path d="m537.331 159.605c7.852 9.653 12.433 25.397 18.089 35.262 6.193 10.799 13.457 21.374 23.371 29.034 18.276 14.119 24.381-23.912 28.281-31.978 5.025-10.396 9.795-9.03 13.73-3.793 7.151 9.518 6.477 20.969-2.277 33.878-5.905 8.707-14.226 15.343-19.576 24.478-3.612 6.167-7.099 16.083-7.22 25.165-8.121-11.137-19.508-21.047-29.505-29.707-26.346-22.822-37.416-48.04-39.23-79.513-.742-12.91 7.06-11.77 14.337-2.826z" fill="#b1d045"/><path d="m512.011 161.939c6.498-13.631 6.967-4.351 7.446 3.132 1.367 21.403 7.218 42.386 20.787 59.623 5.198 6.601 11.597 13 18.251 19.479-5.934-2.405-12.146-4.258-18.132-6.21-10.496-3.421-19.078-7.677-26.467-16.042-4.254-4.817-7.103-18.741-7.489-32.899-.16-5.847 1.304-18.061 5.604-27.083z" fill="#b1d045"/><path d="m509.711 263.417c.785.307 1.655.396 2.52.288 10.605 1.389 21.365 5.052 31.821 11.342 22.382 13.465 32.149 41.501 32.409 66.293.257 24.451-8.341 43.729-44.909 64.491-.309-.313-.617-.623-.93-.93-22.989-22.501-57.286-23.972-84.323-10.698-2.54-20.547-11.932-38.321-25.757-50.92 3.778-48.967 44.801-84.188 89.169-79.866z" fill="#7761d3"/><path d="m368.114 221.864c38.58-14.176 72.729 12.471 80.804 49.13-19.585 15.804-33.967 39.257-38.023 64.813-15.439-10.096-34.68-14.642-55.403-11.317-5.165.829-10.005 2.073-14.521 3.692-26.905-34.744-16.407-90.314 27.143-106.318z" fill="#7761d3"/><path d="m317.947 301.375c2.318 11.151 6.764 21.855 13.266 31.134-29.581 15.892-41.538 50.068-35.52 84.405-16.431-7.307-33.795-8.872-50.121-5.729-15.036-52.126 8.917-117.038 72.375-109.81z" fill="#7761d3"/><path d="m306.18 435.073c-7.002 2.405-13.67 5.583-19.748 9.445-23.966 15.238-35.065 41.552-34.099 67.711-19.543-15.069-44.331-21.9-68.159-19.508 5.268-60.305 72.692-94.276 122.006-57.648z" fill="#7761d3"/><path d="m121.813 571.455c-1.789-21.735 9.523-42.735 26.85-55.036 32.814-23.296 77.919-16.176 105.271 11.209.156.156.316.3.478.43 2.176 9.555 6.006 18.77 11.45 27.064-44.438-.814-79.482 24.166-89.697 67.121-25.609-3.863-52.095-23.4-54.352-50.788z" fill="#7761d3"/><path d="m174.124 633.778c-4.396 39.987 21.168 76.76 58.734 85.953-7.342 31.23-29.283 52.098-59.917 62.254-28.291 9.382-59.72 3.906-78.197-20.693-42.436-56.5 20-126.709 79.38-127.514z" fill="#7761d3"/><path d="m572.853 273.424c-7.382-8.843-16.641-14.084-27.174-18.443-13.36-5.531-26.95-9.445-33.603-21.682 1.234 6.116 2.532 12.227 3.861 18.354 11.253 1.928 22.554 6.521 33.429 14.3 16.17 11.566 28.467 28.632 34.181 47.735 1.602-14.313-1.402-29.136-10.694-40.264z" fill="#abab38"/><path d="m791.258 435.842c9.439 8.849 16.735 19.708 20.561 32.111 8.631 2.641 17.023 5.547 24.607 9.719-1.895-5.286-4.323-10.167-6.508-13.777-8.72-14.409-22.406-25.097-38.66-28.053z" fill="#abab38"/><path d="m611.892 289.236c9.854-10.754 19.323-21.837 28.567-33.136-.083-.255-.15-.526-.2-.818-1.715-10.036-3.435-20.134-5.762-30.075-2.213 17.7-15.661 30.794-23.392 47.312-1.724 3.684-3.688 12.872-3.235 20.874 1.031-.934 2.302-2.279 4.022-4.157z" fill="#abab38"/><path d="m830.158 384.328c-19.288-13.033-41.527-26.668-65.41-24.506.767.173 1.588.352 2.525.543 14.818 3.021 29.061 9.224 40.439 17.358 12.021 8.594 22.783 18.86 34.939 27.257 6.467 4.468 13.3 8.861 20.5 12.062 13.833 6.156 18.995 3.881 18.855-6.13-.088-6.343 2.991-10.792 7.21-14.413-20.259 3.258-40.568.321-59.058-12.171z" fill="#abab38"/><path d="m777.729 327.672c-12.224 10.317-29.191 18.405-45.304 13.724-12.803-3.721-15.668-14.361-15.116-25.811 1.092-5.642 2.161-11.235 3.301-16.753-3.345 9.087-4.663 18.745-6.3 28.31-2 11.673-4.778 28.11-13.193 38.366 14.878-5.797 30.704-10.122 46.99-12.985 12.227-2.154 25.968-6.072 43.533-27.22 4.894-5.891 11.046-14.045 18.708-17.1.193-3.783 1.811-8 5.005-12.558 1.887-2.69 3.873-5.237 5.523-7.586-17.11 8.968-28.127 26.936-43.147 39.613z" fill="#abab38"/><path d="m784.295 339.849c-1.72 1.528-3.503 3.042-5.412 4.472-7.677 5.753-6.035 4.842 3.445 4.363 36.938-1.876 74.455 3.461 107.427 15.793-15.088-11.033-32.996-19.492-50.356-24.482-18.824-5.41-36.674-3.941-55.104-.146z" fill="#abab38"/><path d="m886.938 547.323c-7.277-8.424-10.02-21.211-12.872-32.021-4.151-15.715-12.237-29.79-21.907-42.757.091 3.291-.103 6.632-.229 10.289-.227 6.417 2.063 9.125 4.325 12.488 8.59 12.758 13.089 27.238 20.687 40.436 3.63 6.304 6.971 9.936 9.996 11.565z" fill="#abab38"/><path d="m877.228 462.214c-2.596-.27-5.189-.543-7.777-.88-2.715-.354-5.481-1.006-8.242-1.903 16.828 18.529 29.433 41.692 35.919 64.89.462 1.654.88 3.08 1.272 4.346-3.191-21.607-4.238-51.624-21.172-66.453z" fill="#abab38"/><path d="m562.225 241.944c9.997 8.66 21.384 18.57 29.505 29.707.121-9.082 3.607-18.998 7.22-25.165 5.351-9.135 13.671-15.771 19.576-24.478 8.063-11.891 9.187-22.523 3.737-31.57.074 6.563-1 12.79-4.011 19.572-3.088 6.948-8.088 13.36-12.601 19.417-6.597 8.855-14.013 20.467-26.718 17.682-7.66-1.681-13.992-8.658-19.358-13.919-19.144-18.77-30.206-41.888-36.325-67.449 2.392 29.932 13.565 54.192 38.975 76.203z" fill="#abab38"/><path d="m712.941 308.943c1.24-5.64 2.927-10.768 5.089-15.372-7.259 10.75-10.021 24.453-13.671 36.805-3.49 11.811-8.69 22.832-18.654 30.502-4.866 3.746-14.057 7.689-22.338 8.709 1.185.977 2.347 1.989 3.476 3.067 2.092 1.997 4.112 4.114 6.046 6.333 13.236-7.647 28.079-11.488 34.04-36.194 2.694-11.164 3.549-22.646 6.012-33.85z" fill="#abab38"/><path d="m513.896 221.922c7.389 8.366 15.971 12.622 26.467 16.042 5.985 1.952 12.198 3.805 18.132 6.21-3.143-3.061-6.218-6.104-9.147-9.158-24.77-4.046-39.259-27.008-42.79-50.574-.126 1.742-.186 3.328-.15 4.581.386 14.158 3.235 28.081 7.488 32.899z" fill="#abab38"/><path d="m851.062 437.402c-7.418-5.897-12.73-12.996-21.436-17.219-8.586-4.166-18.124-5.751-27.495-6.951-13.273-1.699-25.013-3.299-37.021-9.623-9.018-4.749-17.079-7.995-27.328-8.748-16.549-1.213-33.729 2.612-48.583 10.332 1.746 4.205 3.182 8.524 4.227 12.92 24.237-11.507 53.685-8.944 77.506 3.402 30.869-4.306 59.335 8.375 81.797 29.311 3.684 1.996 7.487 3.694 11.566 4.657 6.473 1.528 13.142 1.717 19.724 2.509 3.304.397 10.488.794 15.8 2.793-.992-3.365-2.156-6.695-3.409-10.003-16.126 1.016-32.225-2.949-45.348-13.38z" fill="#abab38"/><path d="m747.019 315.404c-.156-8.857-.006-18.346 4.163-26.063 1.264-2.336 7.644-10.678-4.227-5.296-8.421 3.815-15.094 10.56-19.173 19.317-4.377 9.392-6.472 21.828 4.505 27.188 9.304 4.543 14.858-8.021 14.732-15.146z" fill="#d7e338"/><path d="m782.479 376.308c-10.215-4.632-23.91-7.543-35.791-5.463-14.995 2.62-7.309 4.326.103 6.847 10.933 3.717 19.965 9.18 29.808 16.567 20.276 15.22 31.396-6.384 5.88-17.951z" fill="#d7e338"/><path d="m866.055 369.977c-6.362-2.697-13.92-3.98-21.419-4.464-17.11-1.106-15.748 3.236-3.728 10.667 4.558 2.818 9.516 5.073 14.614 7.179 5.013 2.069 17.581 8.839 22.043 2.236 5.036-7.45-6.044-13.3-11.51-15.618z" fill="#d7e338"/><path d="m619.496 237.95c-13.06 4.912-19.13 21.055-17.113 33.876.112.714 1.063.533 1.271 0 2.432-6.292 5.515-12.698 8.631-18.681 2.565-4.924 5.735-9.6 7.517-14.89.054-.17-.131-.371-.306-.305z" fill="#d7e338"/><path d="m586.41 236.672c-5.498-2.694-11.245-5.04-16.107-8.853-2.662-2.086-5.005-4.536-7.175-7.119-1.981-2.357-3.289-5.289-5.733-7.204-.218-.173-.506-.065-.532.22-.586 6.323 5.751 13.463 9.935 17.607 5.178 5.13 12.31 9.188 19.479 6.371.405-.158.615-.785.133-1.022z" fill="#d7e338"/><path d="m516.184 177.309c-.129-.286-.606-.274-.74 0-4.009 8.25 1.002 20.405 6.926 26.405.348.354.899-.01.798-.465-1.062-4.733-2.633-9.176-3.97-13.829-1.146-3.978-1.33-8.338-3.014-12.111z" fill="#d7e338"/><path d="m569.074 259.665c-2.242-1.648-4.858-3.643-7.763-3.637-.319 0-.541.364-.37.644 1.341 2.183 3.686 3.767 5.708 5.276 2.458 1.834 4.638 3.525 7.761 3.898.327.039.528-.391.37-.644-1.487-2.366-3.488-3.906-5.706-5.537z" fill="#d7e338"/><path d="m894.788 471.973c-.169-.099-.416-.012-.461.187-.642 2.941.813 5.924 1.46 8.796.953 4.221 1.844 8.324 3.24 12.428.14.416.724.434.855 0 1.311-4.27 1.11-7.806.076-12.105-.76-3.162-2.254-7.599-5.17-9.306z" fill="#d7e338"/><path d="m828.795 449.558c-.218-.004-.342.239-.241.422 1.603 2.929 3.88 5.414 5.48 8.365 1.888 3.485 3.083 7.597 4.593 11.278.183.446.874.554 1.017 0 1.688-6.637-2.49-19.877-10.849-20.065z" fill="#d7e338"/><path d="m734.313 223.152c1.009-3.992 1.547-7.827 1.364-11.396-2.54 7.701-6.255 15.142-10.007 22.158-9.781 18.291-23.764 34.102-38.909 48.112-15.878 14.688-33.831 27.199-52.671 37.766-10.531 5.91-21.581 10.879-32.771 15.388-4.951 1.995-9.61 3.917-14.314 5.434-.013.243.002.483-.013.727-.298 5.424-1.028 10.548-2.149 15.4 19.029-4.488 40.073-5.07 58.403 1.512 26.347-24.613 50.389-52.582 68.396-83.921 9.259-16.12 18.096-33.042 22.671-51.18z" fill="#865725"/><g fill="#584ab9"><path d="m307.974 423.597c3.651 2.372 7.226 5.061 10.7 8.082 25.93-5.258 54.194-.183 73.326 18.976 3.46 3.464 6.515 7.318 9.161 11.474 1.204-16.349 7.331-32.609 18.182-46.376 4.803-6.093 10.561-11.373 16.953-15.729-.87-14.026-5.654-27.039-13.17-37.78 1.279 15.781-.068 29.888-13.177 42.25-12.271 11.57-30.713 15.242-47.002 14.228-15.081-.938-31.21-6.23-41.99-17.116-9.086-9.176-10.155-22.694-8.432-35.737-8.963 16.133-10.352 36.48-4.551 57.728z"/><path d="m429.675 565.457c.913-4.871 2.341-9.579 4.18-14.116-.938.063-1.927.047-3.04-.135-4.844-.787-9.25-4.033-12.807-7.207-3.027-2.703-5.827-6.143-7.87-9.949-2.166 7.156-5.257 13.967-9.312 20.123 10.059 2.289 19.786 6.162 28.849 11.284z"/><path d="m653.882 548.785c-15.643 7.771-33.146 7.765-49.749 3.642-27.508-6.83-50.85-25.789-65.187-49.849-1.545 1.783-3.176 3.52-4.978 5.153-2.765 2.504-5.745 4.946-8.9 7.285 43.16 14.525 79.657 51.725 73.482 98.689 52.993 5.388 91.302-42.393 81.883-88.681-5.594 10.508-16.562 18.799-26.551 23.761z"/><path d="m575.286 460.156c-10.206-4.725-17.983-12.455-24.636-21.183 3.733 12.875 4.303 26.611.993 39.318 20.296 16.772 49.068 33.01 76.013 25.545 13.088-3.625 25.842-10.83 35.869-20.652.115-.123.234-.241.357-.352 7.885-7.823 14.043-17.276 17.291-27.888 4.922-16.083 3.748-33.938-2.882-49.424.775 8.337.152 16.618-4.482 25.471-8.398 16.042-26.644 27.582-43.377 33.16-17.977 5.993-38.156 3.868-55.146-3.995z"/><path d="m280.083 556.563c.319.362.578.737.782 1.119 12.722 3.678 23.957 10.655 33.123 19.773 20.244 3.958 44.606.276 61.416-12.083 19.805-14.557 31.039-43.874 27.969-69.825-1.271 18.134-10.061 34.065-25.227 46.725-19.154 15.993-45.389 20.401-68.211 10.244-36.94-16.439-38.85-62.363-23.091-94.576-28.361 24.848-33.182 68.688-6.761 98.623z"/><path d="m673.867 487.114c12.34 16.164 19.143 36.799 18.68 57.194 42.564 14.088 108.506 8.375 111.304-48.511.236-4.797-.064-9.454-.786-13.958-1.191 3.888-2.915 7.734-5.429 11.552-10.21 15.504-28.085 23.268-46.127 23.674-25.465.569-57.647-19.234-67.276-44.636-3.002 5.141-6.46 10.096-10.366 14.685z"/><path d="m355.491 324.49c20.724-3.324 39.964 1.222 55.403 11.317 4.057-25.556 18.438-49.009 38.023-64.813-1.646-7.475-4.392-14.522-8.024-20.903-.981 12.274-4.961 23.612-14.341 34.041-12.245 13.621-30.696 21.31-48.853 21.042-13.788-.204-27.857-5.075-38.716-13.535-6.597-5.14-10.334-11.507-11.782-18.405-2.928 18.825 1.462 39.055 13.769 54.947 4.516-1.618 9.356-2.862 14.521-3.691z"/><path d="m252.333 512.229c-.718-19.428 5.235-38.932 18.154-53.929-11.041 9.769-21.131 19.779-36.165 24.844-17.173 5.784-36.058-.206-44.146-14.837-3.133 7.502-5.239 15.67-6.003 24.414 23.829-2.392 48.617 4.439 68.16 19.508z"/><path d="m176.164 622.243c4.555-19.154 14.072-34.705 27.132-46.018-12.706 3.641-25.786 5.861-38.998 5.891-13.77.031-28.527-4.4-37.023-15.781-2.354-3.157-3.754-6.713-4.539-10.443-1.006 5.068-1.355 10.293-.922 15.563 2.256 27.388 28.742 46.925 54.35 50.788z"/><path d="m245.572 411.186c16.326-3.143 33.69-1.578 50.121 5.729-2.76-15.744-1.692-31.433 3.071-45.362-8.475 7.625-18.27 13.635-28.711 16.412-12.08 3.213-23.462-2.479-28.688-12.903-.565 12.045.827 24.405 4.207 36.124z"/><path d="m495.631 377.804c-37.77-5.823-65.738-38.023-62.379-74.351-6.991 11.564-11.57 25.054-12.71 39.831 13.825 12.599 23.217 30.373 25.757 50.92 27.037-13.273 61.334-11.803 84.323 10.698.313.307.621.617.93.93 36.568-20.763 45.166-40.041 44.909-64.491-.002-.264-.022-.531-.027-.794-3.688 7.808-9.239 14.83-15.28 20.773-17.18 16.895-42.714 19.999-65.523 16.484z"/><path d="m255.073 711.284c31.818-2.043 64.022-18.132 71.701-51.73 3.554-15.549 2.317-32.404-3.133-47.512 2.649 34.389-26.606 70.031-59.424 76.782-34.276 7.05-70.919-15.229-79.435-48.194.273 38.871 27.87 73.377 70.291 70.654z"/><path d="m89.114 752.528c1.636 2.947 3.462 5.879 5.63 8.764 18.478 24.6 49.906 30.075 78.197 20.693 30.634-10.156 52.575-31.023 59.917-62.254-13.587-3.326-25.568-10.295-35.164-19.682-4.21 25.98-22.737 50.824-46.135 60.645-14.732 6.184-30.99 4.552-45.932.296-6.329-1.803-11.683-4.784-16.513-8.462z"/><path d="m734.646 608.604c-19.601 37.998-81.209 45.536-112.046 14.746-6.392 1.019-12.996 1.411-19.768 1.099 6.062 12.168 10.459 25.307 12.519 38.58 30.57 11.936 71.38 11.848 95.805-13.111 12.01-12.276 20.393-26.462 23.49-41.314z"/><path d="m796.094 672.655c3.552-7.496 5.413-15.381 5.796-23.129-7.612 17.156-22.682 28.436-43.72 30.791-17.032 1.904-35.806-4.17-48.62-16.061-7.504 5.214-15.608 9.2-24.085 11.98 23.132 38.117 90.188 39.538 110.629-3.581z"/><path d="m835.899 605.201c-4.737 1.333-9.797 1.632-15.231.424-11.397-2.532-18.484-15.622-27.759-21.831-14.543-9.73-32.954-14.264-49.457-7.973 1.06 3.512 1.908 7.054 2.425 10.625 34.361-4.883 61.419 18.969 66.579 49.254 12.661-7.158 20.294-18.254 23.443-30.499z"/><path d="m449.142 707.281c20.794-18.862 27.646-42.097 24.704-64.399-.606 8.029-2.396 16.03-5.305 23.861-7.551 20.332-28.771 32.039-49.282 34.696-20.409 2.646-40.8-5.751-56.447-18.313-7.592-6.094-13.813-13.781-18.788-22.1-2.265-3.789-3.657-7.651-4.607-11.588-.327 2.723-.777 5.436-1.393 8.131-2.33 10.193-6.29 19.275-11.554 27.172 28.127 31.313 87.023 54.875 122.672 22.54z"/><path d="m486.023 659.153c40.338 20.502 91.077 11.719 100.623-39.481 2.979-15.974 1.175-30.444-4.104-43.136 1.359 25.48-14.958 48.445-42.023 56.943-24.173 7.593-47.398-3.317-64.51-20.104 7.338 14.387 11.162 30.089 10.014 45.778z"/><path d="m311.298 840.872c35.949.876 61.509-21.975 70.335-51.045-14.298 17.189-41.25 23.249-63.44 22.563-39.512-1.225-78.339-34.363-80.18-74.623-1.136 2.693-2.345 5.343-3.713 7.891-3.176 47.495 25.354 93.954 76.998 95.214z"/><path d="m589.128 727.026c-13.885 7.871-31.258 9.131-47.524 6.191-18.604-3.361-33.851-13.26-42.266-28.988.193 14.295-3.03 28.899-7.934 40.438-.093.215-.186.432-.28.645 29.863 17.35 68.752 13.28 93.018-12.5 1.783-1.895 3.436-3.826 4.986-5.786z"/><path d="m480.926 742.605c.095-.224.184-.468.277-.693-11.296 8.707-24.979 12.792-40.542 11.94-17.44-.954-28.854-10.477-40.101-21.684-4.237-.211-8.484-.665-12.714-1.41 7.576 17.623 9.11 37.445 5.258 55.854 36.314 3.616 72.572-8.133 87.822-44.007z"/><path d="m435.13 519.087c34.91 22.898 78.896-7.479 88.891-16.535 20.111-18.227 24.945-50.208 12.126-73.958 1.188 16.725-3.31 31.833-14.396 45.923-11.753 14.936-28.939 23.459-47.7 24.818-15.407 1.111-31.401-2.794-44.239-11.4-11.935-8-16.343-19.442-16.739-32.167-4.404 23.009 1.948 46.174 22.057 63.319z"/><path d="m667.874 705.778c-14.814-.862-33.245-7.291-40.649-27.977-3.59-.887-7.161-1.891-10.683-3.129.457 9.518-.389 18.977-2.782 28.07 16.678 7.571 37.002 9.394 54.114 3.036z"/></g><path d="m366.132 270.18c6.128 1.232 11.972 1.069 17.953-.903 5.959-1.964 11.784-2.575 17.132-6.341 12.764-8.991 12.517-30.336-4.533-34.684-15.304-3.902-38.854 4.225-42.042 21.69-1.518 8.312 2.147 18.362 11.49 20.238z" fill="#9386f1"/><path d="m517.604 319.008c17.41-4.688 21.373-29.972 5.076-38.833-10.78-5.862-23.669-5.93-35.083-1.722-10.116 3.729-20.736 16.824-14.24 28.022 7.982 13.757 30.092 16.344 44.247 12.533z" fill="#9386f1"/><path d="m391.604 361.087c-9.328-23.694-50.311-11.256-54.159 10.622-.646 3.673.344 7.551 3.857 9.478 9.145 5.015 18.255 3.438 28.139 2.065 9.293-1.289 27.117-9.581 22.163-22.165z" fill="#9386f1"/><path d="m272.222 354.83c6.508-1.45 10.02-3.869 16.382-7.152 6.103-3.149 12.434-9.351 13.751-16.363.943-5.029-.498-10.519-5.338-13.119-15.839-8.507-35.696 7.313-38.033 23.396-1.185 8.142 4.566 15.169 13.238 13.238z" fill="#9386f1"/><path d="m217.048 471.049c6.338 2.182 12.933-1.24 17.949-3.067 7.35-2.678 13.671-6.459 18.799-12.365 6.222-7.166 3.19-16.229-5.186-19.638-10.647-4.334-21.74.175-29.828 7.539-7.193 6.55-15.433 22.813-1.734 27.531z" fill="#9386f1"/><path d="m305.374 476.543c-.896 5.193 1.354 9.005 6.207 10.931 9.818 3.894 20.924 1.493 31.202 1.524 12.076.037 29.803-6.22 25.554-21.666-7.298-26.539-58.946-14.067-62.963 9.211z" fill="#9386f1"/><path d="m513.77 425.609c-5.005-18.189-28.852-16.978-43.155-14.528-12.957 2.221-28.499 11.381-31.743 24.942-1.639 6.852 2.08 16.112 9.865 17.375 11.904 1.932 24.375-1.185 36.356-1.888 13.79-.808 33.442-8.573 28.677-25.901z" fill="#9386f1"/><path d="m604.359 381.36c-8.962 2.588-32.922 15.285-21.051 27.578 7.207 7.465 19.521 6.973 29.153 7.917 12.452 1.222 23.609 3.018 33.283-6.856 3.31-3.375 5.57-9.368 3.711-14.039-7.813-19.646-27.289-19.742-45.096-14.6z" fill="#9386f1"/><path d="m771.888 464.973c4.239-15.411-11.804-24.538-24.211-27.345-10.949-2.477-22.75-.551-29.111 9.357-1.582 2.464-1.453 5.896 0 8.372 5.175 8.82 13.423 11.595 21.559 15.918 9.13 4.855 27.533 9.074 31.763-6.302z" fill="#9386f1"/><path d="m789.005 627.593c-3.832-15.297-27.637-20.85-37.833-8.561-4.075 4.91-5.842 11.504-2.238 17.334 6.457 10.439 21.423 15.785 32.515 9.797 6.563-3.542 9.307-11.584 7.556-18.57z" fill="#9386f1"/><path d="m567.715 571.241c-3.365-15.51-20.459-24.461-34.952-27.248-15.447-2.973-29.066.261-37.987 13.477-2.008 2.973-1.398 7.93 1.326 10.289 14.697 12.721 37.955 31.387 58.695 26.23 10.174-2.528 15.01-13.099 12.918-22.748z" fill="#9386f1"/><path d="m430.705 591.007c-11.444-7.799-38.852-11.086-45.101 4.946-4.159 10.669 12.574 27.228 19.537 33.308 9.81 8.57 16.118 21.902 30.009 24.484 10.135 1.885 23.943-2.672 25.753-14.621 3.429-22.645-13.076-36.451-30.198-48.117z" fill="#9386f1"/><path d="m232.675 589.145c-5.175 2.938-11.854 8.097-14.59 13.647-3.205 6.498-3.203 10.779-3.501 17.588-.21 4.773 4.126 8.75 8.738 8.781.185.078.337.144.545.23 2.553.658 5.087.938 7.718.93 5.753-.016 11.55-1.703 16.899-3.672 12.875-4.733 24.044-8.365 28.999-22.5 1.703-4.859-.253-10.881-3.804-14.388-11.867-11.719-27.95-8.028-41.004-.616z" fill="#9386f1"/><path d="m205.414 514.702c-15.843-7.355-45.244-1.734-53.298 15.684-3.453 7.473-1.355 19.444 8.537 20.98 8.063 1.254 15.19-.242 23.083-1.842 7.46-1.515 15.046-1.625 21.678-5.774 9.837-6.154 12.017-23.47 0-29.048z" fill="#9386f1"/><path d="m133.345 669.88c-18.093 2.078-28.274 14.232-36.94 29.217-4.145 7.168-6.188 17.594-4.023 25.492 2.14 7.809 9.328 13.016 17.305 11.646 6.1-1.047 10.256-5.295 14.532-9.344 4.75-4.496 9.828-8.682 14.597-13.187 6.718-6.35 14.857-13.597 14.559-23.797-.298-10.058-8.564-21.342-20.03-20.027z" fill="#9386f1"/><path d="m326.848 758.162c-12.35 1.664-31.699 1.171-40.322 11.379-1.802 2.136-3.377 5.396-2.184 8.261 5.942 14.27 20.211 18.232 34.648 18.79 14.632.565 36.392-2.009 39.675-19.8 3.106-16.847-20.454-20.162-31.817-18.63z" fill="#9386f1"/><path d="m584.434 675.366c-8.279-.924-15.526 4.584-20.597 10.465-4.976 5.77-10.017 11.838-10.007 19.855.006 5.902 4.071 11.4 9.828 12.912 8.03 2.104 16.135-1.318 22.651-5.951 8.635-6.137 15.367-15.523 12.095-26.643-1.978-6.728-7.366-9.9-13.97-10.638z" fill="#9386f1"/><path d="m717.775 581.122c-10.726-6.281-22.759 1.803-26.107 12.431-1.014 3.215-1.598 5.583-2.016 9.106-.489 4.146.987 7.563 2.575 11.291 1.991 4.67 7.749 6.797 12.358 7.088 19.511 1.226 30.802-29.598 13.19-39.916z" fill="#9386f1"/></g></g></svg>