<svg id="Fruit" height="512" viewBox="0 0 992.13 992.13" width="512" xmlns="http://www.w3.org/2000/svg"><g><path d="m861.822 384.104c-38.543-41.104-80.957-75.129-126.076-101.145-3.938-2.814-8.357-5.246-13.17-7.25-46.097-24.729-95.18-41.479-145.908-49.791-28.256-4.631-57.547-6.979-87.056-6.979-18.47 0-37.148.918-55.825 2.74.656-5.143 1.261-10.33 1.767-15.541 1.512-15.627 4.661-48.15-24.927-63.818-8.453-4.475-16.844-6.746-24.932-6.746-43.066 0-50.23 54.117-53.289 77.227l-.476 3.541c-.827 5.951-1.763 12.07-2.713 18.297-2.147 14.068-4.345 28.457-5.7 42.975-113.29 13.43-204.508 68.934-246.433 150.941-39.625 77.511-38.335 177.554 3.37 261.08 52.182 104.52 166.084 166.92 304.687 166.92 62.135 0 123.508-12.648 177.484-36.572 72.929-32.33 122.722-85.311 147.993-157.477 20.25-57.824 21.514-121.982 4.34-181.49 23.161 4.77 45.251 10.309 66.106 19.941 9.069 4.191 17.907 8.842 27.265 13.764 12.712 6.686 25.855 13.598 39.908 19.434l3.648 1.527c14.15 5.938 31.763 13.33 50.656 13.332h.004c2.927 0 5.84-.18 8.655-.537 14.79-1.867 25.903-10.24 30.494-22.971 7.195-19.963-3.12-46.169-34.495-87.632-20.482-27.071-42.888-51.118-45.377-53.77z" fill="#fff"/><g><path d="m844.4 400.44c-36.426-38.846-77.039-71.846-121.707-97.438-3.032-2.303-6.517-4.166-10.293-5.646-42.923-23.178-89.448-39.652-139.593-47.869-55.073-9.025-111.797-8.658-166.936-.264 2.061-15.123 4.44-30.217 5.909-45.385 1.463-15.105 2.742-32.43-12.329-40.41-36.015-19.068-41.014 35.641-43.866 56.199-3.493 25.158-8.882 53.27-9.473 79.828-97.616 6.957-201.23 48.949-247.764 139.971-37.498 73.351-32.826 166.839 3.473 239.542 80.711 161.656 301.423 185.535 451.125 119.18 64.924-28.779 111.53-76.139 135.132-143.535 23.18-66.191 18.846-141.699-10.261-205.287 38.307 7.908 77.037 13.219 113.262 29.951 22.42 10.357 43.441 23.322 66.316 32.82 15.424 6.404 33.625 14.855 50.813 12.686 45.6-5.76-55.026-114.978-63.808-124.343zm-441.875-100.719c-.29-4.215-.562-8.289-.424-11.885.033-.867.109-1.73.152-2.596 11.219 2.086 21.02 9.621 29.957 17.699-9.85-1.405-19.735-2.481-29.685-3.218z" fill="#68182b"/><path d="m899.898 501.291c-27.883-23.58-56.303-46.929-85.547-69.187-8.632-6.57-6.836-9.096 3.305-7.002 5.492 1.133 10.984 2.225 16.316 3.613 11.255 2.936 21.587 8.301 31.096 14.902 22.1 15.342 26.959 27.807 40.799 52.301 6.694 11.842 1.903 12.031-5.969 5.373z" fill="#b1d045"/><path d="m847.256 428.45c-11.578-4.525-23.24-6.268-35.418-8.295-18.787-3.125-22.816-7.057-38.596-18.111-14.568-10.199-29.366-20.049-44.422-29.447-10.119-6.311-8.996-7.803 2.479-7.854 7.987-.037 16.208-.82 25.037-1.375 43.122-2.709 68.192 23.885 98.235 60.621 10.683 13.064.408 7.48-7.315 4.461z" fill="#b1d045"/><path d="m745.15 414.577c2.768 7.912 4.685 18.752 7.926 28.869 3.561 11.111 1.15 12.002-7.594 10.547-22.298-3.707-41.086-13.412-45.158-15.783-16.871-9.826-23.982-28.002-28.495-46.023-3.657-14.6-7.95-29.891-15.448-42.844-9.367-16.193-5.325-12.762 7.266-6.443.307.154.613.309.92.463 43.937 22.151 68.583 36.911 80.583 71.214z" fill="#b1d045"/><path d="m641.408 429.481c-34.342-9.793-58.711-18.564-69.242-47.652-4.75-13.123-6.576-27.195-9.386-40.809-2.249-10.885-6.091-23.572-12.496-34.107-5.916-9.729-3.938-10.518 7.434-6.967 54.204 16.928 87.813 28.27 101.405 62.148 6.788 16.914 6.93 35.842 14.385 52.525 2.503 5.609 5.604 10.533 9.196 14.842 6.79 8.146 8.571 11.285-5.373 8.488-12.084-2.423-24.101-5.099-35.923-8.468z" fill="#b1d045"/><path d="m445.26 300.971c-10.889-9.586-22.78-21.646-37.01-25.973-1.574-.477-3.408-.66-5.25-.74.074-.855.156-1.709.236-2.563 32.278 1.795 56.2 5.213 66.142 21.68 5.468 9.055 7.216 19.439 9.614 29.563 1.967 8.277 1.387 9.488-5.303 3.551-11.516-10.225-26.948-24.213-28.429-25.518z" fill="#b1d045"/><path d="m477.968 306.358c-2.255-7.787-5.978-15.248-11.189-21.18-4.799-5.463-2.907-7.188 7.653-5.436 40.504 6.713 66.67 15.371 76.556 35.574 6.243 12.76 8.251 27.467 10.821 41.283 2.078 11.156 4.707 22.568 9.121 32.791 5.866 13.584-1.257 9.031-6.838 5.92-51.901-28.927-73.634-45.813-86.124-88.952z" fill="#b1d045"/><path d="m667.127 286.727c12.811 5.182 8.966 5.695 3.566 6.391-13.512 1.734-26.409 7.176-39.396 11.018-30.215 8.943-51.572-8.773-129.631-25.506-8.166-1.75-10.717-3.035-1.495-6.053 4.12-1.344 8.069-2.922 11.699-4.543 45.87-20.485 81.055-11.303 155.257 18.693z" fill="#b1d045"/><path d="m773.117 359.366c-11.383-.76-22.914.645-34.209 1.879-27.876 3.043-44.662-9.861-71.152-23.338-13.904-7.072-28.009-13.666-42.291-19.777-9.533-4.08-14.795-7.398-3.083-9.328 9.194-1.518 18.381-4.146 27.452-6.975 37.519-11.701 57.862 2.303 85.685 20.131 13.843 8.869 27.668 18.688 41.245 29.273 10.844 8.459 5.912 8.773-3.647 8.135z" fill="#b1d045"/><path d="m524.303 259.209c-9.252 2.992-17.887 7.576-27.138 10.625-25.132 8.289-33.804-1.051-93.313-4.416.197-1.795.416-3.588.634-5.385 39.314-6.277 79.395-8.273 119.052-5.604 4.913.331 5.307 3.31.765 4.78z" fill="#b1d045"/><path d="m371.352 189.536c.717-3.232 1.628-6.406 2.693-9.539 2.795-8.227 11.422-10.279 18.255-7.971 8.831 2.99 8.578 9.725 3.956 16.611-4.007 5.969-10.69 10.26-16.908 13.385-.333.166-.182.729.191.705 8.904-.555 17.613-6.785 22.771-14.508 1.205 13.566-2.519 29.363-4.224 41.748-1.059 7.688-5.426 42.764-6.129 51.529-.825 10.305-.827 20.613-.305 30.928.841 16.594-28.74 22.121-34.501 5.631-1.193-15.797 1.913-32.879 3.345-48.51 2.447-26.73 5.045-53.767 10.856-80.009z" fill="#aa8053"/><path d="m633.113 730.371c-59.653 68.629-167.794 93.975-254.931 92.74-96.316-1.365-190.752-42.027-249.101-120.117-54.822-73.373-60.409-182.408-19.189-263.039 43.494-85.08 145.745-123.477 236.271-129.975.086 2.797.228 5.574.456 8.314-.088.693-.022 1.453.247 2.279 5.764 17.658 23.02 18.488 39.27 15.807 14.653-2.416 17.068-13.758 16.914-26.092 14.462 1.094 28.776 2.896 43.074 5.48 14.79 13.127 29.343 26.436 44.626 38.994 42.883 35.256 87.811 65.266 140.896 82.738 10.957 3.605 22.057 6.48 33.218 9.02 44.805 89.839 34.908 207.168-31.751 283.851z" fill="#fac135"/><path d="m789.836 467.157c-16.737-7.732-29.118-6.898-34.977-31.816-2.957-12.584-6.51-24.918-12.188-36.561-4.85-9.947-7.228-14.793 1.485-9.064 69.249 45.502 77.616 52.416 90.845 71.82 4.828 7.086 7.793 15.174 10.674 23.184 2.958 8.23 2.434 11.943-7.781 6.809-16.04-8.073-31.746-16.837-48.058-24.372z" fill="#b1d045"/><path d="m854.988 493.653c-3.685-6.248-5.436-13.721-8.318-20.371-5.225-12.049-.994-8.734 3.457-5.129 14.911 12.082 29.631 24.352 44.197 36.669 8.283 7 8.297 9.625.451 8.389-16.281-2.565-32.232-6.736-39.787-19.558z" fill="#b1d045"/><path d="m658.609 433.909c-22.475-8.27-43.961-21.066-59.936-36.775-12.813-12.602-20.281-28.77-24.492-46.043-2.395-9.822-2.995-20.076-1.305-30.049 1.167-6.889 6.26-10.777 12.332-12.254-8.493-2.875-17.643-5.768-27.491-8.842-11.371-3.551-13.35-2.762-7.434 6.967 6.405 10.535 10.247 23.223 12.496 34.107 2.81 13.613 4.636 27.686 9.386 40.809 10.531 29.088 34.9 37.859 69.242 47.652 5.694 1.623 11.435 3.078 17.202 4.428z" fill="#abab38"/><path d="m497.165 269.834c7.64-2.52 14.876-6.035 22.37-8.887-13.684-1.287-28.17 3.266-41.374 5.412-19.082 3.102-40.53-1.463-59.021-8.461-4.895.646-9.78 1.357-14.655 2.135-.218 1.797-.437 3.59-.634 5.385 59.51 3.366 68.182 12.706 93.314 4.416z" fill="#abab38"/><path d="m867.128 465.213c-6.94-5.494-14.403-10.287-21.55-15.504-9.129-6.662-15.21-13.68-19.646-22.883-2.744-.594-5.511-1.154-8.275-1.725-10.141-2.094-11.937.432-3.305 7.002 28.543 21.723 56.291 44.492 83.529 67.494-6.496-13.942-18.998-25.079-30.753-34.384z" fill="#abab38"/><path d="m833.885 489.467c-5.445-9.23-12.988-17.352-22.556-24.277-12.179-8.816-25.647-15.518-36.449-26.186-11.141-11-17.862-26.363-19.446-41.865-3.575-2.359-7.314-4.822-11.276-7.424-8.713-5.729-6.335-.883-1.485 9.064 5.678 11.643 9.23 23.977 12.188 36.561 5.858 24.918 18.239 24.084 34.977 31.816 14.945 6.903 29.394 14.823 44.047 22.311z" fill="#abab38"/><path d="m886.566 511.699c-15.469-9.412-24.92-22.992-32.879-40.625-1.193-.971-2.367-1.955-3.561-2.922-4.451-3.605-8.682-6.92-3.457 5.129 2.883 6.65 4.634 14.123 8.318 20.371 6.273 10.645 18.351 15.297 31.579 18.047z" fill="#abab38"/><path d="m745.482 453.993c1.209.201 2.283.35 3.252.439-8.214-4.656-17.457-7.67-25.732-12.16-14.469-7.855-26.595-21.986-35.525-35.504-6.132-9.279-10.672-19.611-12.656-30.559-1.721-9.496-2.021-22.914 8.051-23.369-5.706-3.057-11.766-6.184-18.305-9.479-.307-.154-.613-.309-.92-.463-12.591-6.318-16.633-9.75-7.266 6.443 7.498 12.953 11.791 28.244 15.448 42.844 4.513 18.021 11.624 36.197 28.495 46.023 4.072 2.373 22.861 12.078 45.158 15.785z" fill="#abab38"/><path d="m467.989 321.409c-2.527-5.66-6.519-10.693-11.829-15.369-4.682-4.119-9.875-7.619-14.592-11.699-2.465-2.133-4.6-4.557-6.366-7.295-1.113-1.723-1.714-3.693-2.187-5.668-.777-3.252-.481-5.381.461-6.748-8.934-1.48-19.072-2.313-30.24-2.934-.08.854-.162 1.707-.236 2.563 1.842.08 3.676.264 5.25.74 14.229 4.326 26.121 16.387 37.01 25.973 1.247 1.099 12.371 11.177 22.729 20.437z" fill="#abab38"/><path d="m738.908 361.245c11.295-1.234 22.826-2.639 34.209-1.879 1.578.105 3.012.18 4.287.199-8.572-3.289-18.525-3.547-27.442-4.414-16.196-1.57-32.234-2.693-47.812-7.725-28.877-9.328-54.929-27.967-85.075-33.648 1.677 1.313 4.706 2.773 8.39 4.352 14.282 6.111 28.387 12.705 42.291 19.777 26.49 13.476 43.276 26.381 71.152 23.338z" fill="#abab38"/><path d="m501.666 278.629c78.059 16.732 99.416 34.449 129.631 25.506 10.133-3 20.216-6.947 30.574-9.371-8.03-2.559-16.602-2.814-25.01-3.406-14.967-1.053-29.917-.045-44.889.285-16.043.355-31.735-1.412-47.127-6.006-3.828-1.145-29.014-10.746-27.227-19.971-1.908.76-3.807 1.5-5.749 2.367-3.63 1.621-7.579 3.199-11.699 4.543-9.221 3.018-6.67 4.303 1.496 6.053z" fill="#abab38"/><path d="m811.838 420.155c11.75 1.955 23.019 3.67 34.197 7.854-10.719-13.826-27.746-20.111-43.975-25.59-11.92-4.025-23.397-8.16-34.185-14.768-6.206-3.803-12.011-8.324-17.636-12.922-3.17-2.592-7.725-6.221-10.886-10.252-2.715.143-5.405.254-8.055.266-11.476.051-12.599 1.543-2.479 7.854 15.056 9.398 29.854 19.248 44.422 29.447 15.78 11.054 19.81 14.986 38.597 18.111z" fill="#abab38"/><path d="m567.15 378.899c-.759.033-1.503.104-2.272.105-17.501.045-33.355-11.906-44.866-23.949-10.449-10.934-17.689-24.402-22.998-38.443-4.373-11.57-5.248-21.865-4.802-33.557-5.591-1.172-11.492-2.27-17.78-3.313-10.561-1.752-12.452-.027-7.653 5.436 5.212 5.932 8.935 13.393 11.189 21.18 12.49 43.139 34.224 60.025 86.124 88.953 5.581 3.111 12.704 7.664 6.838-5.92-1.459-3.375-2.666-6.908-3.78-10.492z" fill="#abab38"/><path d="m791.268 427.635c-5.476-4.447-11.143-8.566-18.375-8.945-.528-.027-.808.686-.43 1.039 5.189 4.865 11.213 8.625 16.508 13.377 5.66 5.084 10.379 10.131 17.045 13.852.582.326 1.107-.305.854-.855-3.556-7.761-8.983-13.093-15.602-18.468z" fill="#d7e338"/><path d="m812.006 450.02c-.357-.268-2.799-2.48-3.326-1.398-.518 1.063.212 2.107.73 3.063.924 1.709 1.82 2.504 3.639 3.094.244.078.524-.09.588-.334.484-1.862-.084-3.267-1.631-4.425z" fill="#d7e338"/><path d="m880.401 463.709c-8.032-10.35-20.542-22.611-34.577-22.672-.4-.002-.483.498-.191.705 11.009 7.816 22.102 16.705 34.17 22.742.527.266.935-.339.598-.775z" fill="#d7e338"/><path d="m879.176 497.715c-3.17-2.601-6.045-4.968-9.841-6.56-.243-.102-.467.232-.333.436 2.18 3.342 4.854 5.816 7.846 8.453 2.955 2.607 6.246 5.479 10.195 6.307.36.076.725-.303.5-.652-2.078-3.271-5.41-5.56-8.367-7.984z" fill="#d7e338"/><path d="m808.604 386.221c-10.67-11.764-31.478-19.047-47.114-15.668-.311.066-.29.523 0 .602 16.071 4.381 30.911 10.482 46.522 16.086.61.217.972-.602.592-1.02z" fill="#d7e338"/><path d="m735.262 330.35c-21.148-15.051-57.896-36.188-83.937-20.643-.335.199-.177.686.191.705 14.724.873 28.036.6 42.349 5.16 13.891 4.422 27.164 10.996 40.966 15.801.638.223.915-.677.431-1.023z" fill="#d7e338"/><path d="m738.139 332.43c-.372.035-.652.412-.439.768 1.596 2.697 5.352 4.266 8.338 4.646.315.041.545-.395.371-.645-1.741-2.46-5.089-5.06-8.27-4.769z" fill="#d7e338"/><path d="m696.389 371.233c-.398-.137-.738.434-.415.713 9.371 8.119 18.058 16.285 25.483 26.295 6.803 9.17 11.671 19.621 17.764 29.248.279.441 1.146.316 1.074-.291-2.687-22.506-22.131-48.643-43.906-55.965z" fill="#d7e338"/><path d="m601.755 325.52c-.245.004-.45.355-.222.533 4.77 3.703 10.33 6.188 15.427 9.42 7.337 4.654 13.298 10.793 18.344 17.811 8.251 11.475 11.985 25.307 19.65 37.09.3.459 1.151.326 1.104-.299-1.9-25.403-24.849-65.137-54.303-64.555z" fill="#d7e338"/><path d="m515.923 298.17c-.298-.016-.354.373-.142.521 19.311 13.359 25.771 33.072 33.471 54.17.199.545 1.16.705 1.271 0 2.939-18.782-12.859-53.612-34.6-54.691z" fill="#d7e338"/><path d="m539.619 269.75c10.663 1.029 21.561-.717 32.304-.377 11.873.373 23.484 3.258 35.361 3.553.541.014.74-.748.273-1.012-17.542-9.855-50.204-13.229-68.072-2.652-.241.141-.115.465.134.488z" fill="#d7e338"/><path d="m611.133 273.6c-.253.1-.387.414-.167.631 2.521 2.492 5.29 3.061 8.692 2.811.387-.029.587-.461.315-.76-2.368-2.582-5.325-4.106-8.84-2.682z" fill="#d7e338"/><path d="m451.575 260.418c-.35.111-.405.682 0 .762 9.711 1.961 20.636.838 30.247-1.236.453-.1.459-.826 0-.922-9.681-1.969-20.781-1.619-30.247 1.396z" fill="#d7e338"/><path d="m457.207 290.407c-.742-3.705-4.264-5.943-7.292-7.787-3.091-1.881-6.936-3.336-10.455-1.943-.301.119-.45.576-.099.752 2.9 1.463 5.816 2.848 8.555 4.613 2.816 1.816 5.221 4.42 8.623 5.031.419.076.752-.24.668-.666z" fill="#d7e338"/><path d="m452.65 292.094c-.154.055-.275.211-.22.383.817 2.48 4.793 3.957 7.148 3.768.275-.023.489-.258.413-.541-.709-2.633-4.736-4.579-7.341-3.61z" fill="#d7e338"/><path d="m579.771 275.594c-5.946-1.797-12.803-2.865-18.899-1.109-.271.078-.264.459 0 .539 5.891 1.814 12.689 2.27 18.768 1.539.532-.063.696-.797.131-.969z" fill="#d7e338"/><path d="m528.092 315.622c.822 5.557 3.972 11.504 7.732 15.586.374.406.991-.023.88-.514-1.234-5.4-4.31-11.334-8.255-15.283-.166-.164-.388.011-.357.211z" fill="#d7e338"/><path d="m722.42 424.93c-4.678-4.334-8.85-9.174-13.502-13.533-.325-.305-.777.076-.595.459 4.813 10.076 14.962 23.73 26.779 25.592.537.084.85-.455.513-.881-3.66-4.609-8.9-7.654-13.195-11.637z" fill="#d7e338"/><path d="m718.168 414.68c.364.246.857-.244.606-.607-3.213-4.717-7.446-9.313-12.063-12.697-.232-.172-.574.111-.483.369 1.937 5.591 7.215 9.759 11.94 12.935z" fill="#d7e338"/><path d="m825.234 466.219c-.245-.242-.621.063-.465.359 1.486 2.813 3.133 5.451 4.957 8.057 1.839 2.631 3.381 5.463 5.732 7.688.293.277.924.109.871-.361-.708-6.329-6.825-11.545-11.095-15.743z" fill="#d7e338"/><path d="m876.917 467.547c.905 2.715 4.914 5.266 7.738 4.607.296-.07.442-.443.284-.701-.786-1.285-1.928-1.994-3.285-2.615-1.446-.658-2.873-1.578-4.498-1.604-.154-.001-.289.161-.239.313z" fill="#d7e338"/><path d="m798.777 390.827c-.246-.08-.514.232-.352.459 3.313 4.623 10.682 6.576 16.066 6.869.684.037.996-1.021.358-1.318-2.493-1.168-5.116-1.975-7.738-2.787-2.853-.883-5.495-2.329-8.334-3.223z" fill="#d7e338"/><path d="m814.229 400.278c-.606.031-.786.766-.298 1.104 1.521 1.053 3.842 1.74 5.475.576.195-.141.217-.357.07-.543-1.205-1.524-3.504-1.233-5.247-1.137z" fill="#d7e338"/><path d="m656.624 394.522c-.202-.057-.437.064-.485.275-.576 2.467.852 5.43 1.446 7.826.731 2.957 1.997 5.012 3.886 7.338.22.27.658.098.742-.197.913-3.166 1.012-5.852-.412-8.918-1.053-2.271-2.555-5.601-5.177-6.324z" fill="#d7e338"/><path d="m664.864 446.522c-11.161-2.539-22.261-5.414-33.218-9.02-53.086-17.473-98.014-47.482-140.896-82.738-9.616-7.902-18.937-16.109-28.215-24.371.569 1.322 1.077 2.66 1.7 3.967 6.044 12.658 14.393 24.145 23.347 34.879 17.764 21.295 40.082 38.967 64.097 52.674 24.916 14.219 52.308 25.377 72.521 46.434 16.462 17.148 24.892 40.4 28.692 63.462 16.964 102.975-50.412 203.863-141.763 245.992-86.616 39.943-194.678 30.832-279.656-8.379-42.306-19.518-79.62-48.467-108.07-85.432-11.188-14.533-20.279-30.367-27.962-46.934 7.672 23.732 18.846 46.139 33.64 65.938 58.349 78.09 152.784 118.752 249.101 120.117 87.138 1.234 195.278-24.111 254.932-92.74 66.658-76.683 76.555-194.012 31.75-283.849z" fill="#ee9e2b"/><g fill="#fbe134"><path d="m236.356 376.938c-56.874 35.813-98.172 98.229-104.11 168.066-3.778 44.449 9.402 88.893 31.552 126.549 18.974 32.25 51.971 65.791 91.536 58.303 37.096-7.021 60.577-51.898 75.377-83.73 29.55-63.574 37.587-163.599 28.977-226.074-6.489-47.083-59.934-89.872-123.332-43.114z"/><path d="m385.409 432.827c4.353 39.111 3.884 81.945-3.408 139.005-6.708 52.488 37.909 56.166 57.444 6.318 25.109-64.074 5.734-114.527-17.429-157.271-14.569-26.888-42.711-42.931-36.607 11.948z"/><path d="m422.686 621.525c-.757 2.406.249 5.381 3.153 6.063.071.016.142.033.214.049 1.629.383 3.49.047 4.667-1.232 1.487-1.619 1.646-3.139 1.327-5.232-.766-5.028-8.74-4.196-9.361.352z"/><path d="m436.695 611.094c-.084-.035-.169-.068-.251-.104-1.779-.717-3.659 1.072-3.659 2.789 0 2.049 2.51 3.793 4.348 2.494.074-.051.146-.1.219-.152 2.056-1.449 1.599-4.119-.657-5.027z"/><path d="m549.303 694.215c-6.201 0-6.201 9.615 0 9.615s6.201-9.615 0-9.615z"/><path d="m551.461 711.025c-3.185 0-3.185 4.938 0 4.938 3.184 0 3.184-4.938 0-4.938z"/><path d="m538.675 707.557c-3.991 0-3.991 6.188 0 6.188 3.99-.001 3.99-6.188 0-6.188z"/><path d="m455.652 386.243c-6.02 0-6.02 9.332 0 9.332 6.021 0 6.021-9.332 0-9.332z"/><path d="m462.465 402.536c-.045-1.471-1.366-2.953-2.971-2.355-.885.33-1.489.729-1.999 1.531-.94 1.48-.021 3.514 1.612 3.963 1.784.49 3.914-1.231 3.358-3.139z"/><path d="m320.873 337.545c-.037-.426-.139-.822-.28-1.223-.039-.105-.067-.211-.113-.313-.187-.432-.452-.813-.773-1.174-.106-.127-.203-.254-.323-.369-.174-.154-.378-.275-.584-.406-.757-.537-1.627-.924-2.661-.924-3.057 0-5.609 3.102-4.659 6.119.008.027.019.057.027.088.651 2.07 2.441 3.52 4.648 3.537.03.002.062.002.094.002 3.047.029 4.659-2.477 4.633-4.943l.093.123c-.002-.031-.005-.063-.005-.092-.009-.147-.079-.278-.097-.425z"/><path d="m323.439 346.768c-2.992 0-2.992 4.641 0 4.641 2.994 0 2.994-4.641 0-4.641z"/><path d="m351.338 637.844c-.469.342-.95.67-1.365 1.076-1.766 1.707-1.833 4.854 0 6.553.049.047.099.092.149.141 2.071 1.922 4.748 1.725 6.84 0 .076-.063.149-.127.226-.188 4.214-3.479-1.421-10.799-5.85-7.582z"/><path d="m503.579 547.625c6.082 0 6.082-9.43 0-9.43-6.081 0-6.081 9.43 0 9.43z"/><path d="m509.482 554.623c.022-.006.045-.014.068-.021-3.387.004-3.359 5.408 0 5.232.445-.025.895-.029 1.312-.201 3.012-1.231 1.88-6.072-1.38-5.01z"/><path d="m519.21 545.725c-.358-.17-.716-.344-1.097-.455-4.527-1.348-4.527 6.773 0 5.426.381-.113.738-.287 1.097-.457 1.707-.823 1.707-3.69 0-4.514z"/><path d="m425.692 747.256c-2.484-.682-4.671.77-5.601 2.977-.926 1.814-.686 4.115.807 5.607 2.313 2.313 5.844 1.568 7.577-.977 1.828-2.683.346-6.744-2.783-7.607z"/><path d="m587.109 589.273c-.744-.061-1.824.219-2.438.658-1.298.932-2.586 2.418-2.393 4.172.009.068.015.137.023.205-.097 1.254.275 2.508 1.343 3.574 2.142 2.145 6.169 1.813 7.638-.982.695-1.322.915-2.627.485-4.082-.649-2.191-2.456-3.371-4.658-3.545z"/><path d="m304.261 746.32c-6.218 0-6.218 9.643 0 9.643s6.218-9.643 0-9.643z"/><path d="m467.241 681.344c-2.267-1.326-5.265-.533-6.589 1.727-1.432 2.447-.253 6.592 2.878 7.072 1.946.299 3.149-.006 4.684-1.238 2.466-1.981 1.487-6.12-.973-7.561z"/><path d="m468.814 694.1c-.389-.084-.777-.145-1.175-.174-3.245-.23-3.245 5.266 0 5.035.397-.027.786-.088 1.175-.172 2.329-.498 2.329-4.191 0-4.689z"/><path d="m573.241 485.823c-.79-.215-1.524-.154-2.222.031-2.351.215-4.358 1.98-4.358 4.592 0 3.057 2.993 5.32 5.937 4.521 2.419-.654 3.7-2.342 3.936-4.822.184-1.959-1.507-3.83-3.293-4.322zm-1.328.027c.021-.01.041-.021.06-.033.207.035.417.07.625.107-.229-.049-.457-.054-.685-.074z"/><path d="m579.875 499.537c-2.016 0-2.016 3.125 0 3.125s2.016-3.125 0-3.125z"/><path d="m536.543 621.227c-4.478 0-4.478 6.945 0 6.945s4.478-6.945 0-6.945z"/><path d="m610.945 644.75c-.173-.029-.35-.047-.526-.049-4.437-.16-4.437 7.039 0 6.879.177-.002.354-.02.526-.049 4.36-.549 4.36-6.232 0-6.781z"/><path d="m373.874 716.283c-3.209 0-4.684 3.895-2.549 6.152.07.074.14.148.21.223 1.168 1.234 3.553 1.357 4.7 0 .062-.074.124-.148.188-.223 1.958-2.316.792-6.152-2.549-6.152z"/><path d="m370.624 769.133c-1.884-1.611-4.661-.557-4.799 1.986-.035.648.154 1.178.478 1.727.419.717 1.137 1.029 1.882 1.025 1.101.23 2.339-.395 2.88-1.332.049-.086.099-.172.148-.258.516-.9.45-2.262-.385-2.977-.068-.056-.137-.115-.204-.171z"/><path d="m500.316 752.789c-4.286 0-4.286 6.648 0 6.648 4.288.001 4.288-6.648 0-6.648z"/><path d="m493.924 475.592c-4.499 0-4.499 6.977 0 6.977 4.498 0 4.498-6.977 0-6.977z"/><path d="m538.266 457.258c3.935 0 3.935-6.104 0-6.104-3.938.001-3.938 6.104 0 6.104z"/><path d="m428.563 352.276c-.085-.082-.171-.154-.266-.227-2.413-2.342-6.973-.43-5.935 3.297.526 1.889 1.919 3.057 3.894 3.141 3.621.15 4.304-3.92 2.467-5.998-.066-.09-.15-.146-.221-.229.019.006.039.012.061.016z"/><path d="m428.646 352.299c-.029-.008-.058-.016-.084-.023.063.063.101.145.16.213.035.049.086.07.121.125-.065-.106-.131-.211-.197-.315z"/><path d="m397.316 365.192c-4.881 0-4.881 7.568 0 7.568 4.882 0 4.882-7.568 0-7.568z"/><path d="m619.654 538.434c-4.988 0-4.988 7.734 0 7.734s4.989-7.734 0-7.734z"/><path d="m584.936 650.193c-3.651 0-3.651 5.662 0 5.662 3.652 0 3.652-5.662 0-5.662z"/><path d="m506 648.684c-4.797 0-4.797 7.438 0 7.438s4.797-7.438 0-7.438z"/><path d="m131.331 485.155c4.774-4.773-3.992-11.338-7.185-5.541-2.483 4.502 3.415 9.31 7.185 5.541z"/><path d="m121.676 490.897c-2.687-1.572-5.159 1.889-3.7 3.965.106.939 1.092 1.803 2.034 1.434 1.034-.408 2.038-.553 2.657-1.615.764-1.3.307-3.022-.991-3.784zm-3.324 4.342c-.002-.012-.002-.021-.004-.033.169.16.307.336.539.469-.18-.147-.359-.292-.535-.436z"/><path d="m231.507 347.907c-5.717 0-5.717 8.863 0 8.863 5.716 0 5.716-8.863 0-8.863z"/><path d="m242.462 351.245c-3.629 0-3.629 5.629 0 5.629 3.628 0 3.628-5.629 0-5.629z"/><path d="m133.647 651.74c-2.526-.695-5.221.834-5.916 3.359-.885 3.219 1.567 5.813 4.636 6.084 5.427.485 6.442-8.023 1.28-9.443z"/><path d="m137.329 667.48c-3.46 0-3.46 5.363 0 5.363s3.46-5.363 0-5.363z"/><path d="m293.605 756.635c-2.992 0-2.992 4.641 0 4.641 2.994-.001 2.994-4.641 0-4.641z"/><path d="m415.883 675.506c-1.51-2.254-4.358-2.76-6.409-1.605 0-.025 0-.051 0-.074-.05.037-.099.074-.15.111-.049.037-.078.086-.125.123-.57.379-1.052.893-1.415 1.551-.961 1.469-1.214 3.248-.21 5.006.047.084.097.17.144.254 1.244 2.182 4.131 2.885 6.28 1.646.086-.049.171-.098.257-.146 2.199-1.268 3.229-4.48 1.752-6.682-.042-.063-.083-.124-.124-.184z"/><path d="m421.285 688.555c3.564.348 3.564-5.881 0-5.533-.178.018-.353.035-.527.053-3.494.342-3.494 5.088 0 5.43.175.016.349.034.527.05z"/><path d="m353.275 689.506c-5.284 0-5.284 8.195 0 8.195 5.286 0 5.286-8.195 0-8.195z"/><path d="m491.793 598.561c-3.48 0-3.48 5.396 0 5.396s3.48-5.396 0-5.396z"/></g><path d="m392.271 232.356c-6.957 17.594-5.5 37.738-9.281 56.039-1.923 9.318-7.092 26.152-19.734 23.18-2.423-.57-4.513-1.887-6.311-3.652-.074 3.416-.045 6.807.206 10.133 5.761 16.49 35.342 10.963 34.501-5.631-.522-10.314-.521-20.623.305-30.928.703-8.766 5.07-43.842 6.129-51.529.628-4.549 1.524-9.566 2.352-14.758-3.117 5.578-5.87 11.333-8.167 17.146z" fill="#865725"/><path d="m544.033 776.816c-.65.322-.191 1.412.495 1.176 45.889-15.879 82.194-49.637 106.554-91.189 29.142-49.707 41.181-117.586 23.674-173.338-.113-.359-.707-.311-.679.092 2.172 30.67 4.737 59.613-.251 90.264-4.402 27.049-14.067 53.109-27.532 76.924-23.089 40.837-60.161 75.38-102.261 96.071z" fill="#68182b"/><path d="m538.565 779.002c-3.408-.422-7.311 2.328-10.171 3.879-.317.174-.13.576.166.613 3.386.428 8.543-.537 10.416-3.775.201-.344-.063-.674-.411-.717z" fill="#68182b"/><path d="m193.539 373.059c-63.333 26.137-104.425 106.021-99.998 172.619.041.625 1.067.855 1.164.156 4.466-32.348 11.885-64.41 26.608-93.724 16.604-33.057 41.765-58.277 72.567-78.24.402-.26.145-1.012-.341-.811z" fill="#68182b"/></g></g></svg>