<svg id="Fruit" height="512" viewBox="0 0 992.13 992.13" width="512" xmlns="http://www.w3.org/2000/svg"><g><path d="m802.221 147.207c-7.399 0-14.677 2.193-21.046 6.342-22.893 14.904-17.341 43.838-14.673 57.744.448 2.334.911 4.75 1.052 6.016 1.109 10.119-18.844 23.43-27.364 29.113-10.62 7.084-21.739 13.512-33.512 20.316-9.163 5.295-18.423 10.646-27.54 16.381.467-2.414.999-4.756 1.629-7.008 1.731-6.189 3.555-12.279 5.361-18.334 6.645-22.223 13.513-45.201 15.477-70.867.531-6.939.239-13.527-.02-19.336-.387-8.727-.693-15.617 1.563-20.619.552-1.219 1.184-2.404 1.803-3.59 3.404-6.537 8.551-16.416 7.211-29.463-1.997-19.492-17.162-32.588-37.738-32.588-13.223 0-25.375 5.158-28.783 6.74-35.404 16.42-32.053 56.201-30.443 75.318 1.983 23.52-6.896 43.428-28.787 64.547-9.133 8.809-19.873 16.127-30.496 22.229-15.457-36.088-40.264-67.91-59.408-92.467l-1.521-1.953c-25.113-32.227-56.369-72.334-96.358-92.965-.478-.248-.96-.477-1.452-.689-10.663-4.623-24.834-9.928-39.896-9.928-13.485 0-25.758 4.375-35.492 12.652-12.486 10.621-19.041 24.861-18.461 40.096.793 20.904 16.811 32.426 25.417 38.617l1.304.941c35.067 25.977 63.122 51.236 85.765 77.219 13.044 14.973 22.12 33.049 29.137 52.258-2.097-.502-4.171-.986-6.218-1.463-11.074-2.584-21.535-5.021-29.34-8.82-12.42-6.041-22.24-26.869-30.133-43.607-1.262-2.674-2.484-5.271-3.686-7.748-7.063-14.557-22.467-31.559-42.639-31.559-4.283 0-8.492.775-12.516 2.307-34.914 13.277-27.941 53.85-23.301 74.719-2.801-.684-5.592-1.348-8.369-2.006-21.467-5.1-41.744-9.912-56.301-22.33-5.43-4.633-9.68-12.02-12.775-17.934-.639-1.219-1.432-3.531-2.201-5.77-2.314-6.729-5.482-15.943-13.223-23.863-6.225-6.369-18.991-17.051-34.564-17.051-11.264 0-21.389 5.561-27.779 15.258-16.049 24.357-24.107 65.58 28.646 123.654 20.435 22.488 47.021 32.387 70.479 41.123 12.512 4.658 24.104 8.973 33.938 14.689-23.014 17.145-40.314 42.736-45.484 69.043-17.475 16.15-29.401 39.451-32.536 64.262-2.741 21.688 1.282 42.379 11.384 59.575-3.162 13.043-4.318 28.051-3.523 45.473 1.966 43.09 17.473 67.605 34.85 81.541-1.59 7.096-2.283 14.613-2.064 22.504.996 36.064 22.963 70.307 54.227 87.125 2.945 22.096 13.811 44.576 30.729 62.656 19.955 21.322 45.706 33.555 70.65 33.555 4.242 0 8.436-.342 12.564-1.021 19.402 26.07 47.592 41.143 78.35 41.143 8.906 0 17.877-1.27 26.799-3.787 13.788 8.055 29.721 12.908 46.789 14.176 1.916.139 3.82.213 5.705.213h.002c39.271 0 69.225-29.479 83.588-60.621 12.727-4.563 24.352-12.424 34.002-23.021 40.596-8.988 67.301-46.818 72.373-83.709 9.473-13.072 15.769-28.566 18.299-44.762 25.518-9.539 46.391-31.145 56.751-59.871 9.598-26.615 7.827-54.326-4.126-76.52 14.721-21.277 21.668-46.172 18.9-69.49-2.713-22.869-14.623-42.977-33.81-57.385 2.164-27.607-10.792-56.584-34.48-73.348-.534-2.533-1.171-5.039-1.905-7.52 35.352-26.82 64.432-67.879 81.324-115.539 10.828-30.551 10.65-56.789-.541-80.211-2.001-4.175-20.389-40.782-51.564-40.782z" fill="#fff"/><g><path d="m831.808 260.218c7.354-20.746 10.061-41.762.422-61.936-5.742-12.021-22.691-34.703-38.025-24.721-11.879 7.734-4.102 30.313-2.912 41.139 2.584 23.523-20.859 40.254-37.85 51.588-38.093 25.412-82.197 42.813-111.621 79.107-.469-.313-.939-.621-1.41-.926 13.766-22.492 10.412-49.98 17.356-74.795 7.956-28.43 17.749-54.869 20.024-84.588 1.248-16.314-3.355-32.578 3.59-47.961 3.08-6.824 7.82-13.01 7.021-20.789-1.707-16.658-23.615-10.838-32.715-6.617-19.978 9.266-18.262 33.016-16.693 51.646 2.877 34.137-11.9 60.488-36.004 83.74-17.283 16.672-38.871 28.652-60.61 38.781-10.716-41.332-38.956-78.486-64.712-111.523-24.373-31.264-53.918-69.766-89.995-88.379-15.435-6.691-35.761-13.459-50.418-.994-6.397 5.441-10.394 12.463-10.069 20.996.379 9.951 9.902 16.057 17.073 21.273 32.261 23.896 63.134 50.4 89.556 80.723 26.734 30.684 38.396 70.387 48.107 109.232-21.616-18.76-57.785-17.834-82.985-30.094-22.542-10.967-34.598-41.252-44.858-62.41-3.805-7.846-14.468-21.422-25.174-17.352-19.704 7.492-9.687 40.969-6.552 55.758 2.392 11.285 5.144 22.479 9.046 33.275-36.574-18.334-82.298-15.373-114.452-42.803-7.993-6.816-13.628-15.834-18.44-25.035-4.014-7.672-5.046-17.568-11.34-24.008-5.704-5.836-18.511-15.682-25.323-5.346-21.579 32.75 4.182 70.014 26.382 94.453 35.415 38.979 97.773 32.729 127.474 77.461-32.437 9.654-61.774 44.131-63.815 75.91-32.283 23.383-43.543 75.719-17.338 107.301-5.709 14.789-6.629 32.139-5.885 48.465 1.416 31.039 11.211 60.574 40.367 72.41-5.218 8.809-7.912 19.533-7.566 32.063.867 31.398 23.816 62.426 53.559 71.789-3.258 49.029 53.057 106.094 101.295 83.055 18.051 35.207 55.424 56.846 98.063 39.008 12.006 9.508 27.256 15.51 45.088 16.834 33.582 2.498 60.308-27.332 69.752-56.566 16.098-2.574 29.543-12.127 39.055-25.188 34.945-3.197 60.272-37.082 62.004-70.83 12.62-14.67 19.418-34.748 18.705-54.406 52.607-6.107 82.213-79.922 45.314-118.514 31.285-32.076 38.452-83.314-4.369-110.26-2.389-1.502-4.84-2.82-7.325-4.014 8.948-23.535-1.425-51.607-21.946-65.736-5.096-3.506-7.449-5.076-8.689-12.025-1.453-8.123-4.267-15.98-8.533-23.492 41.758-24.791 72.44-69.744 88.371-114.699z" fill="#68182b"/><path d="m746.737 282.896c22.836-13.607 50.459-31.135 54.768-59.676 1.952-12.912-4.305-25.313-2.314-38.264 1.881-12.24 20.916 13.576 21.179 13.822 4.079 6.033 7.004 13.145 7.899 20.385 1.34 10.867-2.06 22.67-4.958 33.035-12.407 44.4-45.532 90.162-85.676 113.906-2.01-2.666-4.174-5.291-6.595-7.848-17.28-18.238-46.709-18.746-69.277-9.494-5.072 2.076-13.529 4.297-4.547-5.246 24.713-26.227 58.951-42.399 89.521-60.62z" fill="#b1d045"/><path d="m619.813 677.422c10.158-16.516 15.009-37.41 12.855-56.33 23.932 8.494 45.865.863 61.037-15.514 18.283 10.289 23.254 24.967 22.24 46.5-.766 16.27-7.115 32.352-17.115 45.088-5.962 7.59-13.385 12.881-22.391 16.166-15.533 5.668-43.108 2.809-56.626-35.91z" fill="#ff5671"/><path d="m603.791 777.447c-18.282 6.666-40.271-4.41-50.212-19.553-10.73-16.348-12.416-38.477-10.129-57.543 6.104 3.113 12.899 5.377 20.473 6.527 19.713 2.996 36.375-5.416 48.432-19.289 6.42 15.422 15.744 26.391 30.438 32.648-3.497 23.87-15.053 48.478-39.002 57.21z" fill="#ff5671"/><path d="m568.868 868.584c-20.348 12.01-50.87 2.654-64.201-15.723-10.441-14.391-14.227-28.232-11.924-59.08 4.089 1.346 8.324 2.18 12.584 2.395 20.954 1.045 35.088-7.625 46.99-22.975 8.327 8.883 19.572 14.828 34.314 15.779 7.66.494 14.631-.42 20.943-2.447.536 32.182-9.495 64.811-38.706 82.051z" fill="#ff5671"/><path d="m304.265 464.078c3.531 16.326 14.185 29.65 34.141 35.221-4.23 5.879-6.967 13.107-7.488 21.865-.689 11.549.43 24.557 3.576 37.141 2.232 8.908 1.494 8.959-6.242 12.797-7.293 3.615-12.895 8.465-17.021 14.258-26.598 1.176-38.998-16.482-41.432-38.916-1.882-17.337 4.005-65.312 34.466-82.366z" fill="#ff5671"/><path d="m398.151 374.437c-.387 19.418 6.241 40.914 15.883 58.016-2.948 1.725-5.787 3.686-8.451 5.965-8.974 7.676-13.281 18.074-14.379 29.525-1.015 10.584-.978 10.443-9.771 11.006-12.553.805-24.987 4.496-34.402 11.643-74.135-11.491-12.507-143.884 51.12-116.155z" fill="#ff5671"/><path d="m504.099 390.841c-9.626 7.125-15.484 17.494-18.483 29.506-2.075 8.314-2.937 9.434-11.581 6.932-12.938-3.752-26.873-4.824-39.925-2.271-8.038 1.572-11.153 2.6-15.188-6.145-15.51-33.619-18.781-80.355 27.402-84.875 12.897-1.264 26.377 1.67 37.933 7.348 18.256 8.972 19.838 31.031 19.842 49.505z" fill="#ff5671"/><path d="m661.747 404.994c-19.557-8.621-44.785-7.975-63.076 1.389-1.059-1.648-2.188-3.242-3.426-4.742-13.264-16.068-38.248-21.463-57.967-20.949-3.926.104-7.591.471-11.016 1.07-6.225 1.09-12.143 1.742-9.646-7.246 5.191-18.701 22.282-33.639 40.691-39.627 19.799-6.436 47.598 2.604 65.502 11.113 15.59 7.406 42.221 30.775 46.666 52.732 1.821 8.976-3.587 8.084-7.728 6.26z" fill="#ff5671"/><path d="m703.065 562.387c-5.944 36.754-36.877 63.83-72.932 46.283-1.381-4.518-3.248-8.811-5.629-12.775 12.674-18.666 15.67-46.732 13.415-66.348-1.362-11.84-4.831-21.287-10.116-28.732 18.574-6.719 38.996-2.645 56.467 5.98 22.327 11.019 22.344 33.66 18.795 55.592z" fill="#ff5671"/><path d="m581.493 695.822c-57.127 16.625-93.558-86.795-44.943-111.279 11.288 19.617 29.504 33.184 56.266 30.781 9.941-.893 17.957-4.857 24.34-10.77 4.607 9.609 7.115 21.813 4.356 38.451-3.946 23.78-18.644 46.597-40.019 52.817z" fill="#ff5671"/><path d="m465.453 750.064c-7.454-18.357-22.335-68.65 6.802-96.18 11.614 2.84 24.104 2.559 36.02-.893 4.34 16.904 12.786 31.354 25.418 41.168-3.308 22.49-.611 50.623 11.967 70.408-25.022 34.115-65.259 22.298-80.207-14.503z" fill="#ff5671"/><path d="m401.624 717.557c-14.092-7.891-19.631-23.377-21.117-44.193-2.172-30.449 7.5-67.689 39.947-75.24 4.074 10.951 9.377 21.225 14.848 29.766 6.505 10.152 15.524 17.514 25.764 22.145-16.248 18.027-18.863 44.643-14.695 70.199-15.127 7.125-29.616 5.795-44.747-2.677z" fill="#ff5671"/><path d="m341.286 533.971c-3.222-33.443 22.793-46.399 51.115-44.469 3.669 19.737 13.527 39.608 23.395 52.481-4.494 14.279-3.089 30.488 1.327 45.998-11.722 2.699-21.044 8.807-28.216 17.039-27.783-4.18-43.876-32.125-47.621-71.049z" fill="#ff5671"/><path d="m417.909 442.066c17.994-12.686 46.16-9.191 65.18-.229-.139 21.578 5.815 45.018 13.984 63.514-25.057-4.762-52.771-.793-69.4 16.469-6.248 6.49-7.285 9.67-12.539.162-14.102-25.531-21.94-62.492 2.775-79.916z" fill="#ff5671"/><path d="m540.789 391.132c15.952-.416 33.192 5.139 45.058 15.922 14.112 12.816 17.643 37.504 11.41 74.152-5.438-1.379-11.345-2.264-17.705-2.688-23.383-1.559-43.199 8.559-52.348 27.045-3.443 6.949-2.869 8.74-9.441 5.982-2.385-1.004-4.85-1.92-7.371-2.752-21.379-40.469-33.92-115.989 30.397-117.661z" fill="#ff5671"/><path d="m624.907 517.537c12.963 46.059-6.617 72.543-18.586 81.656-33.08 25.182-67.393-11.264-73.172-60.693-1.426-12.252-.186-29.592 15.184-40.594 5.735-4.106 12.583-6.905 19.807-8.36 24.92-5.025 51.254 8.393 56.767 27.991z" fill="#ff5671"/><path d="m506.138 642.625c-29.155 8.754-53.271-4.41-67.855-30.217-12.084-21.383-20.613-54.061-8.309-76.91 16.143-29.975 66.211-24.48 91.992-10.086-.008.115-.023.223-.031.336-.084.408-.135.84-.123 1.313.398 15.99 3.566 33.166 10.037 48.102-26.096 13.056-30.086 38.942-25.711 67.462z" fill="#ff5671"/><path d="m677.872 492.191c-18.416-6.922-39.619-7.207-57.563.369-3.794-3.238-8.123-5.893-12.985-7.979 3.678-20.928 4.736-48.137-3.793-68.85 12.807-6.598 27.957-7.635 42.08-4.361 21.475 4.982 33.162 16.191 36.355 35.826 2.496 15.372.09 33.136-4.094 44.995z" fill="#ff5671"/><path d="m314.652 642.461c-8.021-28.32-2.063-56.209 26.473-65.031 8.231 17.959 21.603 32.586 40.989 37.004-12.282 20.615-15.016 48.938-10.822 71.916.971 5.322-1.021 6.275-9.038 5.465-25.858-2.594-40.136-22.989-47.602-49.354z" fill="#ff5671"/><path d="m336.31 693.563c11.127 6.754 24.628 9.846 39.938 8.439 6.246 13.488 16.808 23.662 29.451 29.029-5.885 14.939-9.117 32.012-8.51 48.691-34.305 4.501-80.747-37.718-60.879-86.159z" fill="#ff5671"/><path d="m415.2 811.635c-9.623-16.578-9.629-52.697.514-77.477 10.391 2.168 21.652 1.305 32.779-3.291 3.33 14.059 8.492 27.361 14.297 38.201 4.436 8.291 11.535 15.242 19.843 20.076-.909 9.213-1.162 19.697-.14 30.156.848 8.701.436 11.967-9.697 14.693-21.514 5.778-45.389-1.331-57.596-22.358z" fill="#ff5671"/><path d="m727.024 642.65c.141-20.961-7.806-34.842-26.646-45.447 7.459-10.947 12.417-24.402 13.929-38.961 1.706-16.445 1.28-29.775-4.581-40.898 41.02-6.379 74.563 29.012 67.668 70.195-3.832 22.881-21.01 47.883-41.91 60.992-6.755 4.239-8.516 2.645-8.46-5.881z" fill="#ff5671"/><path d="m693.884 500.4c-1.348-.918-2.777-1.82-4.297-2.699-.697-.404-1.422-.77-2.133-1.153 8.305-21.426 9.266-55.156-4.884-75.301 29.733-15.98 60.644 19.471 63.642 48.326-17.502 1.754-33.417 10.717-42.527 26.65-3.736 6.537-5.028 7.427-9.801 4.177z" fill="#ff5671"/><path d="m732.458 422.072c-14.43-13.586-33.438-20.484-52.043-11.676 3.435-18.654-5.705-35.746-19.589-49.619 18.853-9.768 42.347-10.221 59.495 2.52 17.113 12.715 24.83 33.184 21.882 56.963-1.259 10.144-3.942 7.277-9.745 1.812z" fill="#ff5671"/><path d="m601.491 260.308c31.232-24.482 51.305-58.904 48.036-98.941-.979-12.002-3.583-27.715 4.437-37.979 4.342-3.389 9.123-5.959 14.344-7.705 16.533-6.41 4.506 15.088 3.98 16.129-9.502 18.762-4.016 40.045-5.568 60.322-1.971 25.754-11.31 50.369-19.109 74.742-7.576 23.68-3.162 50.527-16.238 72.176-6.38-3.523-12.732-6.439-18.617-8.627-25.177-9.363-53.992-11.256-77.203 3.277-6.848 4.287-12.814 9.656-17.632 15.795-6.917 8.82-6.266 8.869-11.046-.059-2.209-4.121-5.033-7.91-8.644-11.223 7.348-24.699 30.185-36.219 52.114-46.434 18.259-8.504 35.306-19.057 51.146-31.473z" fill="#b1d045"/><path d="m349.575 116.169c-5.139-3.74-11.678-7.463-11.947-14.563-.242-6.354 6.758-11.57 11.856-13.557 10.702-4.174 23.009.752 32.874 5.027 32.364 16.699 58.469 50.65 81.055 78.215 27.646 33.742 58.592 73.887 69.264 117.068-10.845 5.105-21.08 12.008-29.217 20.676-8.127 8.652-8.909 13.014-12.511-.928-9.497-36.754-21.212-72.531-44.587-103.281-26.205-34.473-62.205-63.043-96.787-88.657z" fill="#b1d045"/><path d="m342.493 223.572c17.965 24.703 23.453 53.645 51.129 70.645 25.422 15.617 65.84 9.459 85.549 33.287-12.193-4.18-26.047-5.289-37.805-3.514-26.37 3.992-38.757 19.904-42.193 39.652-4.555-1.617-9.072-2.637-13.52-3.07-1.746-10.35-6.395-17.934-12.874-26.104-13.271-16.734-26.597-27.795-33.524-49.117-3.338-10.277-5.498-21.148-7.736-31.703-1.518-7.158-2.57-14.385-3.176-21.678-.504-6.051-.471-28.5 14.15-8.398z" fill="#b1d045"/><path d="m326.163 365.863c-21.465-34.674-54.627-39.891-89.568-55.199-36.195-15.857-86.83-60.697-67.719-105.018 4.645-10.77 16.658 17.229 17.696 19.881 2.861 7.303 6.854 13.941 11.274 20.377 9.077 13.213 22.297 22.496 36.568 29.279 33.527 15.941 73.312 13.904 104.314 35.871 8.986 15.857 25.986 25.91 33.546 42.162 3.018 6.48 1.171 7.289-4.013 8.453-6.541 1.467-12.819 4.072-18.725 7.566-7.444-2.572-15.166-3.254-22.886-2.375-.124-.327-.28-.661-.487-.997z" fill="#b1d045"/><path d="m338.645 377.019c-22.073 18.645-36.589 49.676-35.7 76.176-7.301 3.496-13.896 8.924-19.627 15.678-4.434 5.217-8.727 7.49-13.063 2.137-28.225-34.815 26.262-100.223 68.39-93.991z" fill="#ff5671"/><path d="m252.696 457.833c2.09 10.832 8.058 20.816 18.957 28.764-5.736 11.235-9.704 23.918-11.514 36.596-5.828 2.992-10.647 6.727-14.613 11.043-4.963 5.402-6.44 8.723-10.691-1.395-10.343-24.63-1.822-57.129 17.861-75.008z" fill="#ff5671"/><path d="m259.062 536.41c-.617 30.941 12.869 58.459 46.557 59.588-5.391 14.137-5.021 31.537-1.121 49.264.203.928.475 1.807.701 2.717-8.01 2.063-15.075 5.184-21.073 9.291-7.706 5.27-9.057 8.301-18.042 2.217-34.747-23.536-40.085-97.032-7.022-123.077z" fill="#ff5671"/><path d="m273.933 716.781c-8.852-29.648 7.529-51.502 34.361-58.684 4.4 11.75 10.994 21.617 19.414 29.063-8.268 18.221-6.957 39.104.837 57.332-3.367 3.785-6.067 7.826-8.149 12.053-4.133 8.387-4.947 10.576-13.818 5.488-16.494-9.453-27.013-26.377-32.645-45.252z" fill="#ff5671"/><path d="m333.782 754.787c13.543 22.572 37.428 38.531 64.346 35.352 1.16 8.373 3.381 16.498 6.83 24.055-.072.387-.111.799-.096 1.246.267 8.762 1.635 17.354 3.957 25.553 2.614 9.256 2.443 11.041-7.019 13.004-46.262 9.593-96.328-60.026-68.018-99.21z" fill="#ff5671"/><path d="m417.43 831.979c17.853 16.498 46.22 18.135 68.017 8.607 1.086 16.619 6.141 31.355 14.522 43.307 3.954 5.641 1.16 9.211-4.503 10.305-39.215 7.57-70.002-24.477-78.036-62.219z" fill="#ff5671"/><path d="m569.782 904.512c-30.242 7.363-55.3-12.383-66.975-37.869 16.922 15.443 40.881 20.973 63.01 14.83 14.451-4.006 25.437-13.309 33.531-25.223 6.438 2.248 12.648 3.457 18.582 3.715-8.113 22.211-24.365 38.754-48.148 44.547z" fill="#ff5671"/><path d="m609.746 835.789c6.642-17.777 9.018-37.566 8.239-53.869-.002-.045-.014-.078-.018-.123 15.034-8.842 25.253-24.781 30.981-42.588 47.255 32.344 20.601 112.18-31.331 109.916-11.013-.477-12.014-2.25-7.871-13.336z" fill="#ff5671"/><path d="m679.694 811.533c2.699-8.4 4.081-17.279 3.955-26.123 13.213-.121 24.83-4.201 34.465-10.963-4.256 18.127-16.008 35.35-32.303 43.885-13.357 7-8.422.389-6.117-6.799z" fill="#ff5671"/><path d="m680.86 766.275c-4.284-14.813-13.639-28.289-29.066-37.676.362-1.67.725-3.338 1.014-5.014 1.636.408 3.322.773 5.07 1.092 18.025 3.293 33.797-4.756 45.934-17.246 9.725-10.006 15.631-22.572 19.127-35.838 16.852 17.986 19.18 44.893 10.479 66.746-5.864 14.719-17.382 30.834-38.634 35.324-9.662 2.042-11.676.392-13.924-7.388z" fill="#ff5671"/><path d="m745.593 689.348c-3.092-9.6-8.326-18.543-15.936-26.047 24.293-10.412 43.594-32.869 53.09-58.141 2.773-7.373 4.477-8.52 9.652-.871 20.112 29.729 1.439 77.24-31.303 90.803-9.706 4.023-13.111 1.67-15.503-5.744z" fill="#ff5671"/><path d="m789.228 572.059c.391-41.346-40.592-69.361-78.885-65.32 12.1-29.85 46.623-32.811 74.269-17.456 34.011 18.891 29.425 56.499 10.483 83.479-4.037 5.748-5.938 6.422-5.867-.703z" fill="#ff5671"/><path d="m772.837 472.404c-5.334-1.658-10.736-2.672-16.109-3.008-.889-9.059-4.031-18.502-8.835-27.25 2.744-8.158 4.433-16.219 5.021-24.119 17.411 11 27.75 34.689 19.923 54.377z" fill="#ff5671"/><path d="m503.46 309.037c5.138-5.477 11.168-10.162 17.607-14.219-15.738-6.135-25.414-18.998-33.533-35.271-10.321-20.686-18.998-41.248-32.73-60.098-14.694-20.172-32.999-37.486-52.264-53.221-9.578-7.826-20.013-14.682-30.742-20.805-7.997-4.563-16.358-7.867-24.792-11.088.872.619 1.738 1.229 2.569 1.834 34.582 25.613 70.582 54.184 96.787 88.658 23.375 30.75 35.09 66.527 44.587 103.281 3.602 13.942 4.384 9.581 12.511.929z" fill="#abab38"/><path d="m442.115 318.298c-11.054-2.584-22.789-2.104-34.054-2.24-13.754-.162-26.281-3.723-37.993-10.939-19.541-12.045-32.177-33.186-39.134-54.732.211 1.084.354 2.18.584 3.262 2.238 10.555 4.398 21.426 7.736 31.703 6.928 21.322 20.254 32.383 33.524 49.117 6.479 8.17 11.128 15.754 12.874 26.104 4.447.434 8.965 1.453 13.52 3.07 3.437-19.748 15.823-35.66 42.193-39.652 4.486-.678 9.279-.93 14.168-.756-4.315-2.185-8.849-3.868-13.418-4.937z" fill="#abab38"/><path d="m647.61 266.876c7.8-24.373 17.139-48.988 19.109-74.742 1.246-16.281-2.029-33.207 1.543-48.957-7.048 11.723-8.848 26.334-10.539 40.408-3.301 27.508-6.146 56.686-20.99 80.799-18.467 29.996-51.139 35.861-81.141 48.283-16.127 6.676-27.82 18.346-34.75 33.424 4.246-4.717 9.17-8.92 14.709-12.389 23.211-14.533 52.026-12.641 77.203-3.277 5.885 2.188 12.237 5.104 18.617 8.627 13.077-21.648 8.663-48.496 16.239-72.176z" fill="#abab38"/><path d="m353.96 348.691c-14.041-18.395-35.554-29.5-57.646-34.756-14.357-3.418-29.245-4.076-43.737-6.783-15.328-2.859-30.249-7.641-43.985-15.064-4.972-2.686-9.694-5.996-14.155-9.738 13.149 12.449 28.656 22.4 42.158 28.314 34.941 15.309 68.104 20.525 89.568 55.199.207.336.363.67.489.998 7.72-.879 15.441-.197 22.886 2.375 4.252-2.514 8.701-4.549 13.299-6.051-2.483-5.199-5.525-10.107-8.877-14.494z" fill="#abab38"/><path d="m828.269 219.164c-.468-3.777-1.51-7.512-2.959-11.084-.049 16.924-7.313 35.939-13.685 48.414-11.833 23.168-33.409 38.174-56.249 49.188-24.402 11.77-52.615 21.094-73.425 37.811 17.933-2.268 36.655 1.641 49.089 14.766 2.421 2.557 4.585 5.182 6.595 7.848 40.144-23.744 73.269-69.506 85.676-113.906 2.898-10.368 6.297-22.17 4.958-33.037z" fill="#abab38"/><path d="m359.997 99.332c-.43-.031-.576.598-.215.797 11.234 6.203 21.848 12.203 31.766 20.475 9.221 7.697 17.045 16.635 26.918 23.576.459.322 1.008-.297.743-.744-11.624-19.517-35.341-42.417-59.212-44.104z" fill="#d7e338"/><path d="m420.31 137.914c-.288-.227-.9-.031-.717.414 1.035 2.494 2.223 4.922 3.218 7.43.963 2.428 1.96 4.488 4.108 6.027.281.201.721-.004.797-.324 1.222-5.126-3.637-10.6-7.406-13.547z" fill="#d7e338"/><g fill="#df3f58"><path d="m427.673 521.82c16.629-17.262 44.344-21.23 69.4-16.469-6.215-14.069-11.127-31-13.07-47.795-4.713 16.445-14.9 31.467-29.918 39.961-10.154 5.744-22.385 5.639-33.396 2.963-8.012-1.945-13.727-6.395-17.707-12.424 1.975 11.821 6.545 23.776 12.152 33.926 5.254 9.508 6.291 6.329 12.539-.162z"/><path d="m378.729 754.941c-15.605 5.02-29.864-.197-40.6-11.016 11.918 23.436 37.809 38.584 59.059 35.797-.525-14.404 1.825-29.096 6.264-42.457-6.588 7.799-13.527 14.073-24.723 17.676z"/><path d="m362.254 691.814c8.017.811 10.009-.143 9.038-5.465-3.016-16.516-2.373-35.76 2.744-52.951-5.399 7.211-11.568 13.715-19.549 18.826-10.246 6.559-27.328 7.684-36.809-.475 8.073 21.751 21.848 37.786 44.576 40.065z"/><path d="m722.688 506.541c34.252 2.332 66.889 28.602 66.539 65.518-.07 7.125 1.83 6.451 5.867.703 2.742-3.908 5.139-8.051 7.206-12.316-.314-13.955-7.199-28.865-15.022-38.383-16.291-19.815-41.578-22.942-64.59-15.522z"/><path d="m417.731 694.443c-11.818 2.979-26.869 1.172-35.476-7.662 2.761 14.066 8.507 24.695 19.368 30.775 15.131 8.473 29.62 9.803 44.746 2.676-2.474-15.168-2.525-30.695 1.211-44.592-8.075 8.891-17.476 15.688-29.849 18.803z"/><path d="m581.493 695.822c21.102-6.141 35.674-28.457 39.842-51.906-11.373 19.574-34.078 32.346-57.221 30.689-23.523-1.682-42.297-17.91-49.656-38.922 4.15 34.579 31.602 70.452 67.035 60.139z"/><path d="m463.598 615.135c-14.003-3.678-28.073-15.141-36.038-28.813 2.621 9.484 6.438 18.5 10.723 26.086 14.584 25.807 38.7 38.971 67.855 30.217-2.033-13.242-2.217-25.896.734-36.984-11.58 9.828-25.998 14.033-43.274 9.494z"/><path d="m639.271 470.66c-12.892.238-23.425-6.656-29.272-17.477.076 10.963-.996 21.838-2.676 31.398 4.862 2.086 9.191 4.74 12.985 7.979 17.944-7.576 39.147-7.291 57.563-.369 4.184-11.859 6.59-29.623 4.094-44.994-.604-3.709-1.613-7.023-2.83-10.148-.256 8.166-2.65 15.559-9.257 22.799-7.359 8.068-20.207 10.62-30.607 10.812z"/><path d="m598.671 406.382c18.291-9.363 43.52-10.01 63.076-1.389 4.141 1.824 9.549 2.717 7.729-6.26-1.848-9.123-7.545-18.471-14.666-26.834-1.654 6.027-6.438 11.129-12.9 13.84-8.797 3.689-19.561 2.568-28.642.889-14.308-2.645-25.732-13.268-40.563-14.434-13.728-1.078-35.435.176-47.725 9.773.428-.068.852-.131 1.283-.207 3.425-.6 7.09-.967 11.016-1.07 19.719-.514 44.703 4.881 57.967 20.949 1.237 1.501 2.366 3.095 3.425 4.743z"/><path d="m630.134 608.67c29.344 14.279 55.289-.996 67.139-26.988-15.389 9.936-32.598 13.445-48.744-.107-6.459-5.422-9.73-11.955-11.648-18.998-2.029 11.973-5.947 23.854-12.375 33.318 2.38 3.964 4.247 8.257 5.628 12.775z"/><path d="m495.466 894.197c5.663-1.094 8.457-4.664 4.503-10.305-3.945-5.625-7.121-11.885-9.526-18.648-15.053 14.098-36.08 16.168-54.061 6.225 14.398 17.176 35.154 27.349 59.084 22.728z"/><path d="m328.545 744.492c-4.36-10.201-6.597-21.229-6.356-32.162-4.432 6.58-10.139 12.068-17.641 16.031-11.716 6.191-20.643 2.363-28.418-5.037 5.998 16.191 15.888 30.365 30.447 38.709 8.871 5.088 9.686 2.898 13.818-5.488 2.083-4.227 4.783-8.268 8.15-12.053z"/><path d="m245.526 534.236c3.966-4.316 8.785-8.051 14.613-11.043.869-6.092 2.264-12.176 4.086-18.109-11.336 8.631-26.999 10.586-33.48-1.984-1.004 10.229.225 20.535 4.09 29.742 4.251 10.117 5.728 6.797 10.691 1.394z"/><path d="m606.321 599.193c10.035-7.641 25.348-27.551 22.414-60.914-4.011 19.691-18.729 36.645-39.322 42.164-15.311 4.105-32.127-.893-43.648-11.326-4.055-3.67-6.981-8.051-9.174-12.807 10.887 39.76 40.781 64.922 69.73 42.883z"/><path d="m562.642 896.971c-15.961 1.648-32.402-.807-45.508-9.088 13.249 13.811 31.699 21.729 52.648 16.629 15.129-3.684 27.196-11.729 36.074-22.805-12.726 8.389-26.904 13.584-43.214 15.264z"/><path d="m270.255 471.009c4.336 5.354 8.629 3.08 13.063-2.137 5.73-6.754 12.326-12.182 19.627-15.678-.403-12.049 2.404-25.027 7.631-37.359-4.26 4.197-8.01 8.979-11.918 13.48-4.838 5.572-10.113 10.545-16.578 14.186-8.646 4.867-15.305 1.656-18.631-4.4-2.273 11.512-.607 22.768 6.806 31.908z"/><path d="m795.832 657.527c-18.276 14.123-42.229 19.613-58.897 2.18-2.373 1.307-4.792 2.529-7.277 3.594 7.609 7.504 12.844 16.447 15.936 26.047 2.393 7.414 5.797 9.768 15.504 5.744 15.799-6.545 28.264-21.022 34.734-37.565z"/><path d="m347.03 490.591c9.415-7.146 21.85-10.838 34.402-11.643 8.794-.563 8.757-.422 9.771-11.006 1.098-11.451 5.405-21.85 14.379-29.525 2.664-2.279 5.503-4.24 8.451-5.965-2.753-4.883-5.219-10.145-7.387-15.592-15.039 8.9-25.488 25.043-37.285 37.422-12.958 13.6-28.621 21.014-44.768 7.043-6.586-5.701-9.529-13.355-10.453-21.451-3.955 24.116 4.462 46.311 32.89 50.717z"/><path d="m682.821 797.82c-.66 4.654-1.693 9.254-3.127 13.713-2.306 7.188-7.24 13.799 6.117 6.799 8.891-4.658 16.361-11.947 22.067-20.514-8.976 4.641-18.371 6.022-25.057.002z"/><path d="m401.801 853.996c9.462-1.963 9.633-3.748 7.019-13.004-2.322-8.199-3.69-16.791-3.957-25.553-.016-.447.023-.859.096-1.246-1.804-3.953-3.256-8.068-4.412-12.287-4.539 14.316-14.371 24.742-31.279 26.732-14.469 1.703-26.887-6.764-36.137-17.293 13.19 26.702 41.571 48.27 68.67 42.651z"/><path d="m670.526 806.969c-4.589 6.113-10.387 11.006-18.621 13.172-13.76 3.619-27.246-3.342-34.973-14.215-1.267 9.963-3.578 20.205-7.187 29.863-4.144 11.086-3.142 12.859 7.872 13.336 26.031 1.137 45.704-18.355 52.909-42.156z"/><path d="m712.632 739.916c-12.952 9.598-29.634 9.945-43.599 3.709 5.552 6.859 9.481 14.539 11.827 22.65 2.248 7.779 4.262 9.43 13.924 7.389 21.252-4.49 32.77-20.605 38.634-35.324 4.821-12.113 6.239-25.775 3.69-38.613-2.207 15.785-12.439 31.273-24.476 40.189z"/><path d="m693.31 456.425c.805 14.271-1.5 28.887-5.855 40.123.711.383 1.436.749 2.133 1.153 1.52.879 2.949 1.781 4.297 2.699 4.773 3.25 6.065 2.359 9.801-4.176 4.383-7.668 10.371-13.68 17.326-18.09-7.496-.406-14.629-3.412-21.031-9.879-3.224-3.257-5.127-7.439-6.671-11.83z"/><path d="m752.567 452.48c2.121 5.619 3.613 11.334 4.16 16.916 5.373.336 10.775 1.35 16.109 3.008 2.781-6.994 3.232-14.49 1.926-21.746-6.796 4.121-15.552 5.244-22.195 1.822z"/><path d="m517.763 511.547c6.572 2.758 5.998.967 9.441-5.982 9.148-18.487 28.965-28.604 52.348-27.045 6.36.424 12.268 1.309 17.705 2.688 4.946-29.084 3.719-50.605-4.045-64.67-2.287 25.371-25.895 45.797-48.371 54.734-14.365 5.711-32.23 6.475-44.008-4.867-3.1-2.984-5.353-6.631-6.984-10.59 2.146 18.803 8.746 38.221 16.543 52.981 2.521.831 4.986 1.747 7.371 2.751z"/><path d="m727.024 642.65c-.057 8.525 1.705 10.119 8.459 5.881 20.9-13.109 38.078-38.111 41.91-60.992.129-.777.218-1.549.318-2.322-4.545 9.23-11.721 17.111-20.93 22.045-20.02 10.721-43.074-3.381-49.193-23.197-2.03 4.676-4.447 9.082-7.211 13.139 18.842 10.605 26.788 24.485 26.647 45.446z"/><path d="m677.364 384.427c3.394 8.158 4.725 16.875 3.051 25.969 18.604-8.809 37.613-1.91 52.043 11.676 5.803 5.465 8.486 8.332 9.745-1.813 1.162-9.373.642-18.219-1.432-26.291-5.347 5.291-13.048 8.588-22.106 8.971-16.124.682-30.254-7.51-41.301-18.512z"/><path d="m676.44 713.332c9.006-3.285 16.429-8.576 22.391-16.166 5.084-6.475 9.211-13.822 12.154-21.611-2.311 2.438-5.086 4.58-7.461 6.523-8.621 7.053-18.57 11.801-29.365 14.406-21.736 5.24-44.16-4.986-50.771-25.486-1.107 2.201-2.297 4.348-3.574 6.424 13.517 38.719 41.092 41.578 56.626 35.91z"/><path d="m481.052 752.305c-13.152-6.615-19.686-17.92-23.873-30.525 2.225 11.742 5.693 21.93 8.274 28.285 14.948 36.801 55.185 48.617 80.206 14.504-4.311-6.781-7.384-14.58-9.529-22.76-13.14 14.99-37.18 19.5-55.078 10.496z"/><path d="m472.796 833.994c10.133-2.727 10.545-5.992 9.697-14.693-.725-7.414-.786-14.818-.451-21.797-10.591 13.086-25.971 19.422-44.393 13.576-14.726-4.674-24.91-16.287-29.518-30.078.463 12.24 2.83 23.334 7.068 30.633 12.208 21.027 36.083 28.136 57.597 22.359z"/><path d="m549.001 854.326c-14.918 1.209-30.314-3.379-41.811-12.926-8.347-6.938-12.037-16.023-14.932-25.605.801 16.492 4.854 26.654 12.408 37.066 13.331 18.377 43.854 27.732 64.201 15.723 17.477-10.316 28.047-26.156 33.637-44.092-2.159 3.928-4.833 7.676-8.488 11.145-11.699 11.093-29.162 17.406-45.015 18.689z"/><path d="m434.109 425.007c13.052-2.553 26.987-1.48 39.925 2.271 8.645 2.502 9.506 1.383 11.581-6.932 2.999-12.012 8.857-22.381 18.483-29.506-.002-10.096-.498-21.246-3.904-30.762-2.186 20.066-12.477 37.648-35.1 44.807-13.039 4.127-28.443 1.768-40.33-4.5-7.479-3.945-12.525-9.9-15.822-16.863 1.145 11.893 4.895 24.318 9.979 35.34 4.035 8.745 7.15 7.718 15.188 6.145z"/><path d="m400.706 553c-2.293 10.277-7.701 19.281-16.986 24.543-12.185 6.906-24.971 2.049-33.776-6.885 8.019 19.041 21.044 31.664 38.964 34.361 7.172-8.232 16.494-14.34 28.216-17.039-4.416-15.51-5.821-31.719-1.327-45.998-4.641-6.051-9.254-13.686-13.246-22.092.136 1.244.281 2.484.342 3.752.461 9.848-.037 19.715-2.187 29.358z"/><path d="m266.083 659.486c8.985 6.084 10.336 3.053 18.042-2.217 5.998-4.107 13.063-7.229 21.073-9.291-.227-.91-.498-1.789-.701-2.717-2.965-13.469-3.871-26.736-1.779-38.539-4.856 6.473-10.557 12.26-17.346 17.172-10.83 7.836-27.79 14.184-40.467 8.289 4.908 11.381 12.008 21.092 21.178 27.303z"/><path d="m639.067 736.48c-13.682 15.986-31.603 26.518-54.326 24.576-19.016-1.623-34.842-13.492-40.931-29.992 1.53 9.627 4.571 18.912 9.769 26.83 9.941 15.143 31.93 26.219 50.212 19.553 18.485-6.74 29.564-22.947 35.276-40.967z"/><path d="m269.798 546.443c2.434 22.434 14.834 40.092 41.432 38.916 4.127-5.793 9.729-10.643 17.021-14.258 7.736-3.838 8.475-3.889 6.242-12.797-2.505-10.023-3.674-20.279-3.719-29.891-1.826 2.621-3.627 5.275-5.719 7.703-5.975 6.939-12.893 13.01-20.996 17.324-18.766 9.994-30.945-4.129-34.336-20.234-.349 5.269-.292 9.851.075 13.237z"/></g><path d="m338.429 428.349c7.092-9.555 16.078-17.432 22.834-27.166 1.652-2.377-1.053-5.191-3.529-4.592-14.146 3.424-21.426 16.213-24.238 29.68-.652 3.119 3.128 4.508 4.933 2.078z" fill="#ff9780"/><path d="m376.853 383.599c-2.428-.379-3.832.17-5.697 1.744-1.539 1.297-2.625 2.803-3.828 4.391-1.568 2.07 1.008 4.873 3.232 4.207 3.365-1.006 7.488-3.246 8.225-6.941.267-1.342-.368-3.157-1.932-3.401z" fill="#ff9780"/><path d="m444.222 796.92c2.386-.205 4.13-3.904 1.378-5.09-8.653-3.729-17.235-10.287-20.571-19.412-.967-2.641-5.541-2.477-5.237.707 1.209 12.658 10.777 24.975 24.43 23.795z" fill="#ff9780"/><path d="m424.425 361.082c-.934 1.92.602 4.568 2.936 3.82 4.836-1.551 9.172-3.914 13.873-5.793 4.738-1.895 10.023-1.719 14.33-4.66 1.43-.979 2.226-3.428.607-4.705-9.777-7.702-26.965 1.509-31.746 11.338z" fill="#ff9780"/><path d="m293.983 492.296c-10.658 10.151-13.617 26.307-9.283 40.118.926 2.949 4.951 2.885 5.904 0 3.992-12.109 4.52-25.018 8.328-37.237.915-2.922-2.87-4.859-4.949-2.881z" fill="#ff9780"/><path d="m562.327 510.689c-1.576 1.883-.549 4.547 1.954 4.719 6.658.461 13.224-.135 19.858.893 6.74 1.047 12.6 4.518 19.461 5.219 2.168.223 3.627-2.24 3.141-4.123-4.303-16.684-34.406-18.676-44.414-6.708z" fill="#ff9780"/><path d="m530.513 603.232c-11.553 4.354-12.611 23.865-4.225 31.658 1.613 1.502 4.652 1.008 5.168-1.363.937-4.285.49-8.33.291-12.65-.223-4.813 1.129-9.479 2.328-14.082.514-1.975-1.418-4.371-3.562-3.563z" fill="#ff9780"/><path d="m469.431 357.095c2.104-.041 4.434-1.521 4.434-3.828s-2.33-3.787-4.434-3.828c-2.061-.043-3.684.643-5.508 1.498-1.766.826-1.766 3.834 0 4.66 1.824.856 3.447 1.541 5.508 1.498z" fill="#ff9780"/><path d="m456.603 866.281c3.365-1.707 2.648-6.168 0-8.039-2.791-1.967-6.152-2.443-9.369-3.473-3.166-1.008-6.051-2.863-9.255-3.727-2.12-.576-4.239 1.439-3.602 3.604 2.516 8.524 13.788 15.92 22.226 11.635z" fill="#ff9780"/><path d="m357.675 804.262c-2.038-1.303-3.791-2.51-5.502-4.248-3.629-3.688-6.753-8.455-9.391-12.889-1.371-2.303-5.604-1.506-5.335 1.445.658 7.229 2.481 13.25 7.232 18.938 2.073 2.479 4.757 4.488 7.481 6.189 3.315 2.066 7.098 1.395 10.693.867 2.846-.416 2.413-4.043.699-5.352-2.057-1.573-3.661-3.538-5.877-4.95z" fill="#ff9780"/><path d="m293.868 676.828c-16.607 4.51-15.287 29.258-11.146 41.611.83 2.473 5.192 3.098 5.648 0 1.015-6.879 2.335-13.787 3.895-20.564 1.402-6.1 5.068-11.93 5.436-18.129.116-1.988-2.02-3.412-3.833-2.918z" fill="#ff9780"/><path d="m651.255 766.807c-.313 4.863-.041 9.734-.193 14.604-.15 4.76-1.525 8.773-.438 13.557.452 1.986 2.672 2.504 4.303 1.752 11.682-5.408 7.833-23.156 1.727-31.375-1.711-2.298-5.206-1.56-5.399 1.462z" fill="#ff9780"/><path d="m722.95 697.691c-3.045 2.24-4.371 5.703-6.043 8.973-.967 1.893-1.994 3.77-2.822 5.729-.814 1.922-1.039 3.916-1.611 5.908-.738 2.568 2.039 4.289 4.207 3.234 4.637-2.258 7.059-4.92 9.157-9.65 1.782-4.021 3.077-9.082.938-13.191-.65-1.251-2.638-1.878-3.826-1.003z" fill="#ff9780"/><path d="m561.563 724.82c6.307 3.242 11.584 5.662 18.844 5.83 6.392.143 12.953-2.18 15.035-8.631.687-2.133-1.115-3.855-3.078-4.043-9.488-.898-19.15 3.408-28.797 2.09-2.677-.365-4.865 3.282-2.004 4.754z" fill="#ff9780"/><path d="m788.087 626.947c-.66-1.373-2.935-2.061-4.188-1.1-2.694 2.066-4.482 5.121-6.197 8.014-1.965 3.32-5.068 5.979-5.741 9.965-.35 2.066.835 3.697 2.952 3.875 9.104.766 16.9-13.017 13.174-20.754z" fill="#ff9780"/><path d="m258.084 574.48c.387-2.549-2.622-5.066-4.731-2.754-9.665 10.596-9.08 30.1.611 40.605 1.4 1.52 4.605.906 4.949-1.307 1.895-12.149-2.705-24.221-.829-36.544z" fill="#ff9780"/><path d="m643.992 422.816c-6.919-2.402-13.509-.945-20.073 1.475-2.963 1.094-2.487 5.297.744 5.494 4.416.27 9.386 1.811 13.615 3.072 4.637 1.379 8.084 4.402 13.063 4.311 1.266-.021 2.857-.934 3.047-2.32.976-7.106-4.44-9.964-10.396-12.032z" fill="#ff9780"/><path d="m739.784 488.246c-2.635.654-2.59 4.588 0 5.266 7.787 2.045 17.326 4.178 25.35 2.904 1.991-.316 2.857-3.475 1.248-4.73-7.141-5.567-18.164-5.536-26.598-3.44z" fill="#ff9780"/><path d="m554.44 794.879c-1.419 1.305-3.115 3.746-1.787 5.686 2.352 3.428 8.875 2.672 10.748-.834.887-1.66.6-3.408-.619-4.799-2.131-2.43-6.056-2.149-8.342-.053z" fill="#ff9780"/><path d="m517.266 809.887c10.327 4.879 25.247 5.883 32.136-5.01 1.27-2.01-.391-4.648-2.672-4.654-9.549-.027-18.488 4.209-28.086 4.574-2.52.096-3.983 3.861-1.378 5.09z" fill="#ff9780"/><path d="m748.647 556.504c3.57 5.414 5.076 11.623 9.17 16.766 1.342 1.686 4.262 1.049 5.221-.672 7.691-13.789-9.99-37.305-25.379-34.564-1.649.291-2.721 2.736-1.67 4.109 3.924 5.123 9.042 8.875 12.658 14.361z" fill="#ff9780"/><path d="m675.989 516.918c-5.445-3.789-12.183-5.324-18.236-2.305-1.773.883-1.61 3.561 0 4.488 3.861 2.227 7.965 3.961 11.77 6.293 4.285 2.625 6.486 7.543 11.151 9.582 1.939.848 3.782.168 4.544-1.85 2.631-6.966-4.162-12.683-9.229-16.208z" fill="#ff9780"/><path d="m691.395 635.066c1.329-2.605-.825-5.484-3.715-4.832-5.589 1.262-10.728 3.078-16.245 4.631-6.159 1.732-12.535 2.068-18.713 3.629-1.837.465-2.845 3.264-1.205 4.566 11.257 8.942 33.349 4.829 39.878-7.994z" fill="#ff9780"/><path d="m612.485 715.766c.566-3.121-1.285-5.486-4.414-5.793-2.771-.271-5.643 1.943-7.125 4.113-1.298 1.9-.322 4.527 1.482 5.654 3.479 2.17 9.284.291 10.057-3.974z" fill="#ff9780"/><path d="m716.065 440.076c-4.105-3.699-8.767-5.236-14.188-4.457-2.154.311-2.396 3.176-1.189 4.512 2.684 2.971 5.372 5.779 8.262 8.572 3.039 2.936 5.246 6.229 9.793 6.688.978.1 2.299-.646 2.699-1.549 2.458-5.522-1.441-10.221-5.377-13.766z" fill="#ff9780"/><path d="m709.154 370.794c-6.427-2.576-11.306-2.18-17.815-.502-2.499.643-2.725 4.771 0 5.266 10.045 1.824 18.227 8.891 28.029 11.424 2.611.676 4.428-2.035 3.311-4.303-3.026-6.129-7.212-9.355-13.525-11.885z" fill="#ff9780"/><path d="m565.087 415.859c-.787.855-1.219 2.402-.441 3.43 2.021 2.674 4.217 5.564 7.954 5.527 2.997-.031 5.706-3.096 4.669-6.129-1.652-4.834-8.54-6.773-12.182-2.828z" fill="#ff9780"/><path d="m480.236 717.086c2.505-13.971-1.485-28.709-.251-42.957.256-2.938-3.756-3.498-5.15-1.395-8.298 12.502-8.635 32.436-.313 45.098 1.352 2.061 5.2 2.113 5.714-.746z" fill="#ff9780"/><path d="m478.944 539.84c2.703-.859 4.961-2.98 7.56-4.162 1.989-.904 2.063-4.465 0-5.344-2.964-1.262-6.063-3.299-9.321-3.516-4.767-.316-9.551 1.039-14.066 2.445-7.656 2.385-15.867 7.699-16.338 16.381-.1 1.834 2.063 3.686 3.875 2.951 5.916-2.398 11.676-4.875 17.869-6.535 3.447-.923 7.017-1.14 10.421-2.22z" fill="#ff9780"/><path d="m331.325 632.816c1.406-4.939 1.473-9.955 1.818-15.049.433-6.4 1.857-13.068 3-19.379.625-3.443-3.369-4.934-5.412-2.283-7.619 9.877-12.443 26.094-5 37.441 1.434 2.186 4.844 1.911 5.594-.73z" fill="#ff9780"/><path d="m413.694 620.809c1.232-2.168-.783-4.889-3.234-4.205-16.857 4.713-20.711 31.75-15.465 45.684 1.004 2.664 4.922 3.033 5.775 0 1.846-6.566 2.68-13.109 3.859-19.811 1.415-8.039 5.103-14.69 9.065-21.668z" fill="#ff9780"/><path d="m551.644 353.992c7.457-.643 14.763-1.865 22.271-1.984 8.384-.131 15.839 3.637 24.068 4.287 2.228.176 3.86-2.727 2.614-4.555-9.998-14.658-37.414-11.877-50.383-3.023-2.117 1.447-1.605 5.534 1.43 5.275z" fill="#ff9780"/><path d="m365.587 501.961c-16.443 1.627-14.311 31.594-6.965 40.814 1.41 1.773 4.297.637 4.842-1.277 1.742-6.123 1.387-12.188 1.367-18.488-.018-6.143 1.533-11.602 3.61-17.299.623-1.709-1.016-3.934-2.854-3.75z" fill="#ff9780"/><path d="m440.71 445.693c-2.945-.396-4.828-.828-7.871-.193-2.911.604-5.793 2.635-8.072 4.436-4.912 3.885-8.201 8.201-9.922 14.225-.817 2.85 2.643 4.467 4.675 2.721 3.653-3.141 7.51-6.262 11.84-8.402 1.907-.941 3.871-1.826 5.817-2.691 2.518-1.117 3.721-3.168 5.697-4.869 2.283-1.967.171-4.915-2.164-5.227z" fill="#ff9780"/><path d="m517.978 410.875c-1.816 1.893-.473 4.885 2.071 5 9.181.414 18.037-.486 27.062 1.824 4.783 1.225 11.762 1.404 12.121-4.979.449-7.906-12.432-8.855-17.598-9.467-8.485-1.005-17.697 1.414-23.656 7.622z" fill="#ff9780"/></g></g></svg>