<svg id="Fruit" height="512" viewBox="0 0 992.13 992.13" width="512" xmlns="http://www.w3.org/2000/svg"><g><path d="m262.217 226.679c-.182-1.419-.307-4.289-.426-7.063-.729-16.735-1.828-42.023-22.129-53.917-5.15-3.018-10.934-4.612-16.717-4.612-24.615 0-37.26 26.574-41.412 35.305-12.297 25.84-7.811 54.511-1.797 79.156 10.125 41.472 47.518 66.491 81.094 82.496-.334 5.188-.121 10.392.631 15.539-29.885 11.303-53.934 35.54-62.629 65.295-5.758 19.706-2.734 39.565 8.211 56.743-19.729 34.459-15.59 78.547 11.336 111.039-.416 14.299 3.057 28.217 10.15 40.655-11.43 36.987-1.361 76.151 25.428 100.572-3.688 25.015 2.609 52.636 17.695 74.435 16.998 24.552 43.043 38.634 71.457 38.634h.117c11.787 18.583 31.213 32.636 54.014 38.695 4.123 4.79 8.719 9.135 13.738 12.981 15.16 11.617 33.148 17.758 52.018 17.758 16.6 0 33.125-4.816 47.786-13.926 4.988-3.1 9.523-6.703 13.578-10.785 2.598.184 5.209.273 7.824.273 31.219 0 62.416-13.236 83.455-35.408 14.871-15.674 24.037-34.979 26.648-55.636 31.277-15.47 52.877-44.099 58.258-77.63 13.596-12.357 24.223-28.041 31.027-45.902 4.887-12.826 6.641-26.117 5.219-39.061 16.563-23.203 20.48-52.18 10.719-78.119 12.852-23.721 13.676-50.766 2.377-74.633 16.467-24.912 18.57-55.545 4.861-83.631-7.072-14.48-17.965-26.129-32.006-34.369.092-3.201-.002-6.379-.283-9.53 40.172-27.248 71.736-62.255 87.143-96.843 9.4-21.112 11.402-48.267 5.35-72.639-3.666-14.763-19.705-47.454-45.881-54.285-3.512-.917-7.029-1.382-10.457-1.382-14.127 0-26.504 7.936-33.105 21.228-6.949 13.994-5.168 27.279-3.988 36.071.912 6.802 1.035 9.057.09 10.894-4.635 9.005-24.67 17.354-39.299 23.449-1.633.681-3.25 1.355-4.842 2.026 1.682-16.476.041-32.249-1.461-46.664-1.693-16.267-3.295-31.648.074-45.358l.209-.601c4.225-11.922 12.086-34.11.543-51.529-5.988-9.04-15.744-14.407-27.465-15.112-.881-.051-1.768-.078-2.66-.078-15.158 0-31.652 7.956-42.02 20.267-9.199 10.92-13.164 24.066-16.049 36.675-.105.43-.203.862-.291 1.306-.107.504-.197 1.006-.275 1.506-2.314 13.232-2.33 25.619-2.344 37.603l-.004 1.829c-.016 10.023-5.377 20.535-16.381 32.131-8.949 9.425-20.842 17.461-34.154 23.271-16.07-43.764-41.989-87.34-78.827-132.613-12.395-14.962-29.896-23.896-46.813-23.896-12.342 0-23.674 4.606-32.77 13.319-1.262 1.209-2.498 2.503-3.684 3.881-4.92-13.041-12.965-24.401-26.201-30.554-5.99-2.783-12.197-4.194-18.447-4.194-6.504 0-12.787 1.52-18.684 4.517-10.328 5.253-17.787 15.717-19.465 27.31-1.494 10.338 1.842 18.182 3.836 22.869.168.391.342.782.508 1.179.369 2.141.258 5.081-.344 9.336-.225 1.586-.473 3.215-.729 4.89-3.375 22.114-8.475 55.533 17.943 103.32 5.57 10.077 9.121 18.938 11.4 28.629-13.297-2.205-26.668-5.443-38.795-11.034-13.091-6.037-20.46-14.81-21.903-26.078z" fill="#fff"/><g><path d="m347.561 291.08c-25.131-2.813-50.092-5.873-73.439-16.634-18.803-8.67-32.898-23.692-35.594-44.729-1.396-10.894.727-36.579-10.934-43.41-11.328-6.634-21.086 13.179-24.496 20.347-9.238 19.412-5.02 43.315-.16 63.229 9.355 38.327 51.578 60.188 85.229 74.166-6.199 15.674-4.248 32.569 4.629 46.761-31.615 2.392-61.928 23.591-71.039 54.768-5.742 19.654 2.102 36.737 15.467 49.07-28.223 30.453-23.543 75.266 6.01 103.734-2.809 14.84.143 30.377 10.49 43.751.51.66 1.035 1.304 1.572 1.936-15.121 32.845-6.939 75.003 25.635 94.194-16.424 43.658 17.086 109.69 76.525 97.283 7.105 22.133 28.219 38.617 53.316 42.584 3.982 5.801 8.895 11.071 14.732 15.545 21.654 16.594 49.771 16.735 72.672 2.504 6.863-4.265 12.167-9.732 16.099-15.961 50.697 10.707 107.711-26.125 104.799-81.607 31.541-10.132 56.877-37.439 58.787-73.543 13.664-10.201 24.705-24.635 31.395-42.195 5.008-13.139 5.234-25.742 2.01-37.082 19.447-20.379 23.586-49.278 8.93-73.349 17.195-22.046 18.627-50.968 1.236-73.942-.238-.315-.482-.622-.725-.931 19.461-19.105 24.77-46.188 12.58-71.158-7.672-15.715-21.168-25.461-36.693-30.503 2.801-10.482 2.941-20.047 1.02-28.602-1.068-4.751-.775-7.063 6.021-11.451 33.832-21.861 68.164-54.486 84.152-90.382 7.662-17.204 8.471-39.117 3.988-57.167-2.943-11.852-15.559-33.493-28.738-36.933-7.23-1.888-12.803.648-16.137 7.362-7.641 15.384 4.705 30.253-4.055 47.269-11.809 22.947-50.133 32.269-71.402 43.584-20.523 10.918-35.947 27.668-45.848 48.56-5.389-.14-10.738.202-15.914 1.045 18.219-18.648 33.059-38.674 40.781-64.436 11.367-37.916-7.055-75.836 2.74-113.157 3.334-9.582 13.529-35.345-5.266-36.474-8.992-.541-19.328 5.023-24.98 11.735-6.266 7.438-8.98 17.593-11.1 26.904-.041.152-.078.307-.107.469-.043.187-.072.373-.098.555-2.119 11.91-2.02 23.559-2.041 35.645-.033 19.14-10.258 35.166-22.945 48.534-17.314 18.239-41.615 31.062-66.727 36.988-15.757-55.013-46.075-103.428-81.964-147.539-10.789-13.022-30.584-22.059-44.672-8.565-16.059 15.382-2.26 38.101 7.844 51.981 14.273 19.551 28.938 39.125 37.293 61.906-9.348-3.733-19.229-6.15-29.205-8.604-35.943-8.839-49.617-37.916-52.309-72.365-1.283-30.733-7.748-49.441-20.088-55.178-5.094-2.366-10.717-2.859-16.244-.049-3.49 1.775-6.102 5.627-6.654 9.439-.744 5.151 2.107 9.207 3.666 13.887 1.65 6.426 1.264 12.934.344 19.43-2.977 21.024-9.951 49.13 14.471 93.31 7.605 13.763 12.525 26.621 15.262 42.087 1.23 6.946 2.596 13.508 4.689 19.829 2.02 6.11 1.391 6.25-4.81 5.555z" fill="#68182b"/><path d="m284.967 331.303c-40.381-17.905-72.152-42.904-76.436-90.662-1.061-11.85 1.178-23.455 6.283-34.182 7.031-14.779 10.457-8.333 11.814 1.277.715 5.056.451 12.264.723 14.956 1.369 13.611 3.592 25.167 11.34 36.7 20.982 31.239 63.73 37.447 100.42 41.379-12.68 4.252-24.752 11.595-34.832 20.672-2.307 2.074-4.398 4.227-6.285 6.442-5.154 6.043-5.369 6.817-13.027 3.418z" fill="#b1d045"/><path d="m231.91 448.376c5.186-29.815 41.734-47.877 69.082-47.228 2.602 2.644 5.498 5.12 8.676 7.395-18.213 19.479-26.055 45.547-9.211 69.924-8.883 4.171-17.096 9.929-23.984 16.931-5.021 5.107-6.594 6.521-12.859 3.927-20.87-8.643-36.034-26.022-31.704-50.949z" fill="#808080"/><path d="m586.841 396.223c18.209-6.868 37.027-3.571 52.217 9.236 19.004 16.021 19.033 39.705 10.139 60.207-3.305 7.623-6.279 7.81-15.332 10.716-1.617-6.633-4.416-13.304-8.568-19.872-7.512-11.875-20.313-20.773-34.264-24.716 1.341-12.212-.149-24.482-4.192-35.571z" fill="#808080"/><path d="m610.784 455.358c19.998 18.656 15.768 46.133 3.26 67.344-10.59 17.961-28.754 27.724-48.627 28.754-7.115.369-9.039-1.555-8.582-7.999.908-12.646-2.018-25.654-9.633-37.714-6.66-10.548-15.414-17.521-25.166-21.479 12.697-38.117 55.621-59.804 88.748-28.906z" fill="#808080"/><path d="m343.902 573.89c.076 2.075.244 4.074.494 6.008-32.354 9.428-76.461-1.387-77.285-42.42-.369-18.34 13.723-33.993 29.295-44.186 14.84-9.71 47.664-20.448 70.619.566-.395 4.908-.344 9.776.188 14.507l.006.05c-17.354 16.315-24.178 42.061-23.317 65.475z" fill="#808080"/><path d="m441.084 511.667c-14.785 22.592-19.75 52.523-4.902 74.971 4.072 6.15 6.705 7.172-.125 12.441-26.396 20.38-68.547 19.885-80.428-17.686-15.52-49.079 41.486-101.568 85.455-69.726z" fill="#808080"/><path d="m511.206 593.468c-.414.156-.807.359-1.166.613-15.95 8.074-37.817 6.4-52.956-1.597-32.785-17.315-18.887-64.718 1.309-85.815 26.387-22.578 62.802-22.395 82.415 8.664 17.773 28.143-2.881 61.309-27.379 76.828-.725.459-1.467.895-2.223 1.307z" fill="#808080"/><path d="m525.253 641.249c5.689 5.482 7.361 5.707.627 13.01-11.629 12.596-25.985 19.179-44.872 19.695-35.828.98-48.559-35.629-40.248-65.4 3.328-2.324 6.428-4.928 9.229-7.795 16.295 10.902 39.674 11.525 58.481 4.951 1.623 14.723 7.765 26.846 16.783 35.539z" fill="#808080"/><path d="m467.746 488.162c-5.809 2.867-10.398 5.893-13.994 8.835-6.547 5.359-6.045 5.973-13.529 1.9-16.771-9.137-35.402-10.184-53.43-2.826-5.877 2.4-9.822 3.04-9.047-3.939 2.939-26.466 19.998-50.965 46.363-58.816 31.777-9.464 60.467 18.232 61.557 48.527-6.135 1.343-12.182 3.487-17.92 6.319z" fill="#808080"/><path d="m363.102 612.468c15.293 10.83 37.311 12.299 56.998 6.129 8.809-2.758 7.713-1.391 7.504 6.727-.469 18.089 5.57 35.258 18.471 46.48-14.477 23.744-45.857 35.732-72.627 28.311-13.938-3.865-26.143-13.09-33.648-25.348-14.517-23.693 4.626-48.09 23.302-62.299z" fill="#808080"/><path d="m411.143 709.833c17.828-5.078 33.963-16.299 43.607-31.99 4.83 2.648 10.314 4.635 16.465 5.816 3.219.616 6.395.975 9.52 1.096 4.744 23.486 18.387 43.303 37.011 54.805-7.055 36.662-45.499 54.168-79.446 37.723-19.623-9.505-31.859-32.181-34.441-54.063-.914-7.739.954-11.58 7.284-13.387z" fill="#808080"/><path d="m491.398 684.236c20.251-2.769 37.71-15.489 49.851-32.403 14.783 6.326 32.893 6.314 50.867-1.793.461-.208.918-.422 1.373-.641 24.006 33.926 15.051 79.995-29.129 89.943-35.912 8.087-65.282-22.816-72.962-55.106z" fill="#808080"/><path d="m593.446 637.725c-33.232 19.878-72.682 2.804-74.783-36.544 1.002-.555 1.98-1.131 2.932-1.734 14.746-9.34 25.76-22.891 31.332-38.021 19.441 1.701 38.443-4.674 53.316-15.934 29.119 26.325 20.379 72.392-12.797 92.233z" fill="#808080"/><path d="m580.722 429.825c-5.189-.516-10.398-.316-15.426.702-27.398 5.543-45.383 25.198-53.408 50.747-5.126-.99-10.407-1.275-15.708-.93-.883-20.786-11.664-38.453-27.645-48.83 5.041-32.619 25.168-65.382 61.3-67.357 34.654-1.895 53.807 35.638 50.887 65.668z" fill="#808080"/><path d="m553.905 359.188c-5.43-2.516-11.393-4.295-17.859-5.177-14.262-1.948-26.971 1.534-37.8 8.415-.059-.13-.119-.262-.18-.389 9.473-39.711 50.196-64.946 82.825-42.476 6.615 4.557 4.592 8.043.383 11.244-7.221 5.494-12.91 12.835-16.227 22.141-3.142 8.804-3.028 10.008-11.142 6.242z" fill="#808080"/><path d="m494.953 340.352c-3.889 7.428-4.131 8.721-10.252 2.822-11.389-10.984-26.754-16.995-44.502-16.857-16.904.131-31.836 7.469-43.779 18.506.389-14.078 11.646-29.459 21.305-36.418 27.344-19.697 72.629-14.458 86.705 17.733-3.6 4.316-6.791 9.08-9.477 14.214z" fill="#808080"/><path d="m429.883 338.47c25.41-7.674 50.1 7.382 59.762 30.449-13.914 12.284-23.813 30.315-28.752 48.207-2.498 9.026-3.723 7.864-12.703 5.912-6.559-1.428-13.51-1.827-20.672-1.037-.883.099-1.76.218-2.631.354-7.359-19.316-23.621-33.263-42.521-38.604 8.519-21.783 24.632-38.368 47.517-45.281z" fill="#808080"/><path d="m414.688 424.971c-23.645 8.481-40.211 32.045-45.824 56.905-17.166-12.23-38.703-13.619-58.344-7.358-43.668-55.947 77.072-121.785 104.168-49.547z" fill="#808080"/><path d="m240.695 579.106c-16.414-24.1-16.611-55.19 4.807-77.879 5.943 4.077 12.498 7.361 19.174 9.724-3.5 6.181-6.072 12.901-7.459 20.03-2.256 11.605.361 22.324 5.865 31.611-4.479 4.344-8.324 9.158-11.453 14.285-4.014 6.579-5.774 9.792-10.934 2.229z" fill="#808080"/><path d="m269.346 571.231c3.766 4.35 8.152 8.255 12.867 11.637 19.715 14.135 42.58 14.355 64.535 7.406 1.963 5.847 4.852 10.836 8.445 15.017-13.537 10.462-24.209 22.749-28.408 38.499-1.828 6.848-3.275 10.09-10.809 11.114-17.795 2.427-34.627-2.363-49.201-14.473-22.587-18.771-15.716-50.287 2.571-69.2z" fill="#808080"/><path d="m277.322 722.554c-19.236-17.503-23.65-46.617-13.955-70.708 17.014 13.424 40.967 16.823 61.744 12.054 1.189 10.201 6.375 19.136 13.348 26.528-5.248 3.681-9.832 8.028-13.684 12.866-13.152 2.346-23.383 7.738-30.961 15.076-7.171 6.943-9.169 10.848-16.492 4.184z" fill="#808080"/><path d="m355 815.76c-.541 8.659-1.227 10.484-10.24 10.76-58.482 1.814-80.557-89.138-28.146-109.975-7.721 16.763-8.137 36.595.793 54.489 8.738 17.504 22.727 28.426 39.076 34.854-.795 3.345-1.282 6.64-1.483 9.872z" fill="#808080"/><path d="m392.496 861.339c-18.793-10.07-30.648-29.771-25.941-52.113 8.559 2.348 17.561 3.686 26.645 4.268 8.342.539 7.434 1.934 6.074 9.233-1.867 10.038-1.639 20.519.672 30.568 2.523 10.999.64 12.385-7.45 8.044z" fill="#808080"/><path d="m395.33 803.114c-22.502-1.084-44.299-6.719-60.352-23.945-22.813-24.482-15.615-64.127 11.504-81.447 2.455 1.93 5.004 3.703 7.582 5.311 9.678 6.039 20.623 9.162 31.762 9.738 7.406.387 6.609 1.174 7.207 8.664 1.803 22.57 13.336 46.311 31.539 59.859-5.424 4.013-10.014 8.752-13.773 13.997-5.289 7.378-6.035 8.274-15.469 7.823z" fill="#808080"/><path d="m425.064 878.663c-2.039-2.182-3.889-4.488-5.557-6.893-.307-.848-.805-1.633-1.488-2.258-15.012-23.855-12.496-56.267 7.779-75.506 6.123-5.813 11.504-3.264 12.83.435 10.551 29.454 36.826 40.779 63.83 38.743 8.679-.658 9.587-.381 10.042 6.443 3.108 46.925-51.541 77.472-87.436 39.036z" fill="#808080"/><path d="m449.107 792.185c35.045 7.671 70.38-11.481 78.351-47.583 12.102 5.159 25.76 7.05 40.129 4.667 12.35 67.521-94.306 103.611-118.48 42.916z" fill="#808080"/><path d="m608.108 810.157c-4.66 37.496-40.961 62.416-77.73 61.416-8.818-.243-10.35-1.828-8.543-10.324 2.189-10.289 1.977-21.287-.109-31.744 17.428-5.357 33.625-16 44.328-30.57 11.068 3.498 22.461 4.604 33.549 3.621 8.873-.782 9.425.241 8.505 7.601z" fill="#808080"/><path d="m583.536 791.825c-8.883-.955-10.768-2.534-7.775-11.484 3.379-10.111 4.346-21.369 2.07-33.514 7.674-2.451 14.115-6.076 19.4-10.574 24.199 9.127 48.807 6.824 69.322-4.029-6.298 39.316-45.015 63.672-83.017 59.601z" fill="#808080"/><path d="m695.302 688.937c-5.771 12.113-14.414 21.967-24.727 29.135-.682.275-1.305.686-1.816 1.227-15.047 9.819-33.383 14.072-51.484 11.498-7.816-1.109-10.252-4.336-6.428-12.711 10.205-22.35 6.086-51.902-8.342-73.836 13.609-9.176 23.355-22.663 28.268-37.481 46.861-8.252 85.992 37.125 64.529 82.168z" fill="#808080"/><path d="m706.868 634.759c-13.104-25.232-43.867-41.621-73.4-38.885 2.205-13.313.566-27.088-5.553-39.352 25.609-12.65 58.871-5.141 78.436 14.794 17.808 18.144 15.005 45.045.517 63.443z" fill="#808080"/><path d="m719.435 553.187c-3.982 9.592-6.48 9.096-11.4 4.836-22.566-19.549-59.494-23.678-85.641-10.492-2.346-3.164-5.051-6.172-8.131-8.98 13.877-13.704 22.383-32.156 21.199-51.618 25.91-8.74 54.93-4.856 74.896 14.762 14.315 14.066 16.205 34.345 9.077 51.492z" fill="#808080"/><path d="m722.017 428.043c11.883 16.9 9.078 37.636-1.658 53.466-5.455 8.037-7.043 7.533-13.799 2.999-13.986-9.394-31.479-13.269-48.643-12.451 10.922-23.126 10.449-47.493-6.25-68.513 26.412-4.838 53.982 1.225 70.35 24.499z" fill="#808080"/><path d="m641.952 310.79c18.662-27.252 48.328-38.154 78.236-53.08 25.123-12.537 42.957-33.187 36.215-62.35-.824-3.548-1.238-6.607-.598-10.269 2.105-12.033 20.611 15.082 21.586 16.606 12.885 20.187 6.299 50.804-4.582 70.165-15.787 28.083-44.023 54.536-71.934 73.182-7.965 5.321-9.805 5.222-15.199-.981-9.666-11.122-23.688-18.903-38.855-22.879-6.371-1.675-9.533-3.59-4.869-10.394z" fill="#b1d045"/><path d="m687.989 383.984c-.76 8.658-3.521 8.701-10.697 8.053-11.621-1.049-23.496-.035-34.316 2.615-16.836-13.648-40.307-15.374-60.395-7.94-2.795-5.189-6.219-9.984-10.238-14.226.197-20.142 11.053-32.993 26.043-39.401.295-.09.582-.209.857-.357 35.383-14.398 92.664 6.285 88.746 51.256z" fill="#808080"/><path d="m590.606 239.825c9.867-8.797 19.299-20.627 23.99-33.047 7.453-19.73 3.582-39.436 7.311-59.74 3.201-14.16 7.324-26.914 22.672-31.146 5.455-1.505 5.1 5.367 2.529 11.747-5.184 12.871-6.475 23.363-6.813 28.964-1.668 27.652 7.096 55.458 2.695 83.417-4.5 28.596-20.525 50.881-39.906 70.866-5.639 5.813-7.473 6.444-13.879 1.536-22.635-17.35-49.811-14.431-70.633.515-5.385 3.865-8.07 4.315-10.609-5.151-1.794-6.718-4.106-13.199-6.89-19.428-2.766-6.187-1.531-8.38 6.014-9.382 30.949-4.109 60.182-18.337 83.519-39.151z" fill="#b1d045"/><path d="m410.242 156.521c-7.436-10.213-17.85-23.087-11.549-36.239 7.113-14.847 25.084-2.561 31.834 5.584 34.561 42.478 63.729 89.22 79.038 142.141-3.864.615-7.731 1.063-11.569 1.335-6.504.463-6.408 1.066-11.141-5.376-8.084-11.017-17.852-20.88-28.973-29.404-4.83-3.7-6.314-5.017-8.412-11.188-8.404-24.75-23.882-45.832-39.228-66.853z" fill="#b1d045"/><path d="m348.609 231.075c-5.707-12.829-13.523-23.972-18.166-37.445-5.238-15.199-5.805-31.424-4.498-47.275 3.072-25.35 3.391-34.711-.307-42.853-1.072-2.361-1.842-4.832-.494-6.307 2.98-3.26 8.604.2 11.102 2.345 11.314 11.309 9.564 28.041 10.133 42.792 0 .142.004.288.016.438.006.162.021.318.039.471 2.949 36.499 16.865 67.297 53.004 80.085 25.379 8.98 45.684 12.146 66.068 31.467 9.684 9.18 17.539 20.228 23.457 32.224 4.588 9.299 2.029 8.252-4.127 5.625-17.961-7.668-40.086-6.148-61.068 1.086-8.217 2.833-16.74 9.036-23.648 16.974-7.357-6.391-15.461-10.381-23.9-12.383-5.803-1.378-8.146-2.557-11.385-9.777-8.108-18.093-8.062-39.12-16.226-57.467z" fill="#b1d045"/><path d="m393.809 319.188c-6.984 11.105-10.461 24.058-6.705 35.707-4.193 5.282-7.834 11.025-10.85 16.982-5.207 10.267-4.16 8.829-15.471 9.627-8.203.578-16.465 2.808-24.348 6.909-6.781 3.527-13.213 7.831-18.988 12.73-63.513-41.441 27.08-126.039 76.362-81.955z" fill="#808080"/><path d="m579.614 306.42c3.262 1.642 6.473 3.612 9.592 6.002 6.406 4.908 8.24 4.277 13.879-1.536 19.381-19.985 35.406-42.271 39.906-70.866 4.4-27.96-4.363-55.766-2.695-83.417.219-3.618.854-9.299 2.66-16.322-1.541 2.973-2.914 6.033-4.117 9.1-8 20.393-6.41 41.9-8.047 63.309-2.916 38.119-23.805 69.101-51.178 93.73z" fill="#abab38"/><path d="m775.224 198.575c2.551 60.746-43.639 109.489-98.703 136.931 3.34 2.592 6.436 5.426 9.156 8.557 5.395 6.204 7.234 6.303 15.199.981 27.91-18.646 56.146-45.099 71.934-73.182 10.881-19.36 17.467-49.978 4.582-70.165-.184-.286-.979-1.468-2.168-3.122z" fill="#abab38"/><path d="m208.531 240.641c4.283 47.758 36.055 72.757 76.436 90.662 7.658 3.398 7.873 2.625 13.027-3.417 1.887-2.215 3.979-4.369 6.285-6.442 2.566-2.312 5.268-4.509 8.07-6.574-8.74.757-17.539.415-26.615-1.601-17.49-3.886-32.617-14.68-45.402-26.79-19.391-18.362-29.986-48.517-27.314-75.914-3.823 9.559-5.414 19.724-4.487 30.076z" fill="#abab38"/><path d="m348.609 231.075c8.164 18.348 8.117 39.374 16.225 57.471 3.238 7.22 5.582 8.398 11.385 9.777 8.439 2.001 16.543 5.992 23.9 12.383 6.908-7.938 15.432-14.142 23.648-16.974 19.854-6.845 40.684-8.47 58.088-2.141-7-5.702-16.367-9.662-22.832-11.636-11.523-3.52-24.01-2.521-35.635-.206-16.145 3.217-33.209 13.407-44.785-4.367-5.721-8.788-6.721-20.236-9.354-30.155-3.529-13.279-11.355-25.177-18.531-36.698-6.895-11.066-13.227-21.89-15.734-34.857-2.303-11.906-.887-24.311-1.133-36.34-.191-9.361-1.41-19.432-6.188-27.333 1.344 7.261.592 17.282-1.719 36.356-1.307 15.851-.74 32.076 4.498 47.275 4.644 13.473 12.46 24.616 18.167 37.445z" fill="#abab38"/><path d="m397.379 124.01c-2.996 11.838 6.133 23.264 12.863 32.51 15.346 21.022 30.824 42.104 39.229 66.853 2.098 6.171 3.582 7.487 8.412 11.188 5.59 4.283 10.832 8.907 15.695 13.843-.418-7.96-3.799-16.153-6.486-23.248-5.102-13.475-13.174-26.22-21.73-37.729-9.012-12.118-19.414-23.166-29.297-34.561-8.229-9.491-15.305-18.178-18.686-28.856z" fill="#abab38"/><path d="m697.067 278.907c-18.875 6.471-41.438 25.794-33.215 36.379 5.689 7.333 15.373.239 19.617-4.782 4.115-4.871 7.666-10.192 11.617-15.201 2.479-3.145 5.441-6.27 7.703-9.709 6.548-9.933 3.259-9.771-5.722-6.687z" fill="#d7e338"/><path d="m598.964 246.572c-13.938 14.915-33.352 24.28-52.949 29.753-4.246 1.187-8.902 2.191-13.426 3.554-16.973 5.122-15.869 17.281.516 17.055 28.096-.381 58.838-27.547 69.982-49.289 1.254-2.445.271-5.775-4.123-1.073z" fill="#d7e338"/><path d="m447.078 253.117c-6.838-5.725-16.563-8.993-24.518-10.394-9.35-1.648-26.236-1.814-31.752 7.964-6.199 10.995.836 19.693 12.52 19.613 6.943-.049 14.41-3.315 21.113-4.879 7.107-1.654 13.73-1.668 20.543-1.666 7.356 0 9.518-4.418 2.094-10.638z" fill="#d7e338"/><path d="m593.364 623.317c-17.254 10.631-50.209 15.718-67.627 1.512 13.152 21.594 42.227 28.138 67.709 12.896 21.729-12.995 32.879-37.229 29.871-59.81-3.562 18.643-12.627 34.727-29.953 45.402z" fill="#515151"/><path d="m563.009 784.073c-3.137 4.051-6.674 7.742-11.412 10.957-10.756 7.295-22.813 13.217-35.311 16.764-13.454 3.818-28.296 3.096-41.782-.053-5.814-1.358-12.953-3.613-18.494-7.43 26.051 33.972 88.104 18.69 106.999-20.238z" fill="#515151"/><path d="m496.18 480.344c5.301-.346 10.582-.06 15.708.93 8.025-25.549 26.01-45.204 53.408-50.747 5.027-1.018 10.236-1.218 15.426-.702.221-2.283.273-4.618.242-6.969-15.623-5.562-30.188 2.452-44.85 10.237-12.076 6.412-24.379 14.635-38.655 11.155-15.395-3.754-20.893-21.259-22.832-35.324-2.859 7.275-4.908 14.929-6.092 22.589 15.981 10.378 26.762 28.045 27.645 48.831z" fill="#515151"/><path d="m463.836 769.007c-14.664 3.697-33.912-.832-47.156-11.047 5.609 8.229 12.875 15.088 21.619 19.322 33.947 16.445 72.392-1.061 79.446-37.723-3.627-2.24-7-4.881-10.22-7.717-9.068 18.564-21.955 31.688-43.689 37.165z" fill="#515151"/><path d="m591.099 415.18c.539 5.473.545 11.048-.066 16.614 13.951 3.943 26.752 12.842 34.264 24.716 3.771 5.967 6.375 12.017 8.041 18.05 11.165-27.339-15.122-55.875-42.239-59.38z" fill="#515151"/><path d="m436.182 586.638c-3.545-5.359-5.93-11.152-7.354-17.164-8.805 14.727-22.338 24.027-41.352 23.434-15.639-.486-27.635-9.416-34.07-22.199.395 3.559 1.098 7.129 2.223 10.686 11.881 37.57 54.031 38.065 80.428 17.686 6.83-5.271 4.197-6.293.125-12.443z" fill="#515151"/><path d="m373.447 700.114c26.77 7.422 58.15-4.566 72.627-28.311-5.008-4.355-8.953-9.626-11.914-15.482-8.453 15.625-24.428 25.762-41.594 30.557-13.02 3.637-26.592 2.049-38.643-3.818-8.262-4.023-14.252-9.721-17.938-16.852.832 2.85 2.064 5.709 3.813 8.559 7.507 12.257 19.712 21.482 33.649 25.347z" fill="#515151"/><path d="m678.646 533.931c-17.627-1.258-35.449-9.046-46.84-22.611-3.629 10.139-9.676 19.463-17.543 27.23 3.08 2.809 5.785 5.816 8.131 8.98 26.146-13.186 63.074-9.057 85.641 10.492 4.92 4.26 7.418 4.756 11.4-4.836 4.174-10.043 5.225-21.152 2.531-31.465-11.963 9.357-28.666 13.257-43.32 12.21z" fill="#515151"/><path d="m386.793 496.071c18.027-7.358 36.658-6.311 53.43 2.826 7.484 4.072 6.982 3.459 13.529-1.9 3.596-2.942 8.186-5.968 13.994-8.835 5.738-2.833 11.785-4.976 17.92-6.319-.26-7.23-2.131-14.294-5.199-20.757-11.926-4.176-27.365 1.302-38.184 5.595-11.828 4.696-49.277 28.271-62.656 15.205-.855 3.361-1.496 6.784-1.881 10.246-.775 6.979 3.17 6.34 9.047 3.939z" fill="#515151"/><path d="m525.253 641.249c-2.656-2.563-5.029-5.457-7.148-8.597-6.621 18.128-22.065 31.788-43.019 31.101-15.779-.518-28.789-10.197-35.211-23.543 4.289 19.012 17.768 34.383 41.133 33.744 18.887-.517 33.243-7.1 44.872-19.695 6.734-7.303 5.062-7.528-.627-13.01z" fill="#515151"/><path d="m540.808 515.333c-.348-.553-.74-1.023-1.1-1.556 2.711 22.165-8.963 42.64-27.477 56.634-19.868 15.016-61.054 17.578-74.401-6.67 1.391 11.796 7.117 22.334 19.254 28.743 15.139 7.997 37.006 9.671 52.956 1.597.359-.254.752-.457 1.166-.613.756-.412 1.498-.848 2.223-1.307 24.498-15.519 45.152-48.685 27.379-76.828z" fill="#515151"/><path d="m317.447 401.143c5.775-4.9 12.207-9.203 18.988-12.73 7.883-4.102 16.145-6.332 24.348-6.909 11.311-.798 10.264.64 15.471-9.627 3.016-5.957 6.656-11.7 10.85-16.982-1.617-5.017-1.828-10.274-1.061-15.522-8.77 15.034-22.545 25.586-39.338 31.864-14.408 5.387-36.488 6.751-50.863-1.742 1.174 11.416 7.687 22.568 21.605 31.648z" fill="#515151"/><path d="m572.343 372.485c4.02 4.242 7.443 9.037 10.238 14.226 20.088-7.434 43.559-5.708 60.395 7.94 10.82-2.649 22.695-3.664 34.316-2.615 7.176.648 9.938.605 10.697-8.053.172-1.983.184-3.902.127-5.79-11.453-6-25.725-6.478-38.58-5.931-14.701.625-28.969 2.752-43.656.453-11.574-1.81-22.213-6.85-31.574-13.676-1.223 4.059-1.916 8.533-1.963 13.446z" fill="#515151"/><path d="m498.066 362.036c.061.127.121.259.18.389 10.829-6.881 23.538-10.363 37.8-8.415 6.467.882 12.43 2.662 17.859 5.177 8.113 3.766 8 2.563 11.143-6.243 2.002-5.618 4.955-10.433 8.5-14.646-9.764 4.332-19.99 7.006-31.027 8.283-11.461 1.329-26.07 1.69-36.144-5.044-3.688 6.187-6.545 13.09-8.311 20.499z" fill="#515151"/><path d="m424.887 422.354c.871-.136 1.748-.255 2.631-.354 7.162-.79 14.113-.391 20.672 1.037 8.98 1.952 10.205 3.114 12.703-5.912 2.996-10.856 7.846-21.744 14.283-31.389-4.982 3.735-10.33 6.823-16.654 8.569-10.664 2.943-22.117-1.808-31.895-5.642-14.766-5.789-25.947-7.158-39.789-3.369 16.953 6.165 31.283 19.296 38.049 37.06z" fill="#515151"/><path d="m293.814 718.37c7.578-7.338 17.809-12.73 30.961-15.076 3.852-4.838 8.436-9.186 13.684-12.866-4.107-4.354-7.568-9.261-9.982-14.629-3.549 14.769-12.176 25.617-28.094 31.422-10.922 3.982-26.381 3.75-36.412-3.222 3.125 6.933 7.551 13.275 13.352 18.555 7.322 6.664 9.32 2.759 16.491-4.184z" fill="#515151"/><path d="m251.629 576.878c3.129-5.127 6.975-9.941 11.453-14.285-2.498-4.215-4.361-8.738-5.482-13.49-2.912 3.73-6.84 6.215-12.691 6.59-5.98.382-11.4-1.834-15.508-5.588 1.338 10.106 5.191 20.037 11.295 29.002 5.159 7.562 6.919 4.349 10.933-2.229z" fill="#515151"/><path d="m511.419 854.815c-3.387 6.775-8.046 12.794-14.999 17.951-12.766 9.463-29.541 11.658-44.852 9.119-27.107-4.492-41.18-28.875-42.607-53.93-1.83 14.114 1.166 29.015 9.059 41.557.684.625 1.182 1.41 1.488 2.258 1.668 2.404 3.518 4.711 5.557 6.893 31.837 34.094 78.398 13.895 86.354-23.848z" fill="#515151"/><path d="m701.31 664.396c-6.971 13.174-18.41 22.793-34.047 28.583-15.785 5.846-39.875 5.513-51.033-8.458.908 11.747-.742 23.402-5.383 33.564-3.824 8.375-1.389 11.602 6.428 12.711 18.102 2.574 36.438-1.679 51.484-11.498.512-.541 1.135-.951 1.816-1.227 10.313-7.168 18.955-17.021 24.727-29.135 3.947-8.283 5.828-16.572 6.008-24.54z" fill="#515151"/><path d="m599.694 834.741c-6.469 5.885-13.637 10.904-21.953 14.773-15.346 7.137-43.053 9.096-54.436-5.451.145 5.805-.281 11.6-1.471 17.186-1.807 8.496-.275 10.081 8.543 10.324 27.958.759 55.604-13.49 69.317-36.832z" fill="#515151"/><path d="m621.05 777.089c-10.146 1.34-32.631.969-42.682-7.795-.557 3.813-1.424 7.506-2.607 11.047-2.992 8.95-1.107 10.529 7.775 11.484 23.576 2.525 47.41-5.906 63.623-22.045-8.226 3.614-16.984 6.104-26.109 7.309z" fill="#515151"/><path d="m715.331 584.806c-6.363 5.922-13.947 10.371-22.469 13.508-8.449 3.108-16.613 3.271-24.916 2.709 16.637 6.523 31.008 18.496 38.922 33.736 11.207-14.231 15.371-33.537 8.463-49.953z" fill="#515151"/><path d="m310.52 474.518c19.641-6.261 41.178-4.873 58.344 7.358 2.842-12.592 8.508-24.844 16.467-34.978-12.23 2.742-24.045 8.151-36.141 11.091-13.889 3.375-40.115 3.883-48.023-10.813-.462 8.953 2.276 18.278 9.353 27.342z" fill="#515151"/><path d="m621.228 470.207c-2.842 33.698-41.637 54.406-71.773 39.43 5.918 10.94 8.191 22.523 7.381 33.82-.457 6.444 1.467 8.368 8.582 7.999 19.873-1.03 38.037-10.793 48.627-28.754 9.487-16.092 14.184-35.778 7.183-52.495z" fill="#515151"/><path d="m266.775 640.432c14.574 12.109 31.406 16.899 49.201 14.473 7.533-1.024 8.98-4.267 10.809-11.114 1.732-6.497 4.613-12.378 8.297-17.813-8.939 6.15-18.771 10.854-29.932 13.773-16.242 4.25-34.979-.146-48.012-10.924 2.28 4.197 5.446 8.122 9.637 11.605z" fill="#515151"/><path d="m584.466 716.114c-11.451 5.775-24.281 7.984-36.996 8.186-18.723.296-35.113-5.957-47.343-18.262 13.005 22.727 36.669 39.51 64.233 33.305 22.113-4.98 35.4-19.012 40.145-36.041-5.734 5.523-13.559 9.547-20.039 12.812z" fill="#515151"/><path d="m344.396 579.897c-.25-1.934-.418-3.933-.494-6.008-.371-10.077.693-20.584 3.395-30.587-10.385 9.521-22.043 15.646-37.508 16.978-18.127 1.564-36.309-8.371-42.619-24.787-.025.66-.07 1.316-.059 1.984.825 41.034 44.932 51.848 77.285 42.42z" fill="#515151"/><path d="m395.33 803.114c9.434.451 10.18-.445 15.469-7.823 3.76-5.245 8.35-9.984 13.773-13.997-4.779-3.559-9.068-7.848-12.871-12.605-5.754 7.016-11.904 12.313-21.699 15.578-10.205 3.399-21.035 3.942-31.527 1.809-15.873-3.227-27.654-13.879-35.066-27.328 2.121 7.357 5.918 14.355 11.57 20.422 16.052 17.226 37.849 22.86 60.351 23.944z" fill="#515151"/><path d="m232.596 467.471c3.957 14.847 15.986 25.627 31.018 31.854 6.266 2.594 7.838 1.181 12.859-3.927 6.889-7.002 15.102-12.759 23.984-16.931-4.818-6.971-7.555-14.078-8.67-21.131-7.568 9.68-15.947 16.242-29.547 19.189-12.484 2.708-22.449-1.282-29.644-9.054z" fill="#515151"/><path d="m451.828 317.154c-16.578.3-35.137 7.396-46.254 20.395 10.113-6.868 21.799-11.13 34.625-11.231 17.748-.138 33.113 5.873 44.502 16.857 6.121 5.899 6.363 4.605 10.252-2.822.531-1.014 1.168-1.946 1.738-2.931-6.843-15.142-30.269-20.534-44.863-20.268z" fill="#515151"/><path d="m355 815.76c.023-.374.09-.757.121-1.134-17.93 5.479-35.709.453-50.854-12.311-7.379-6.219-12.234-14.339-15.377-23.28 5.99 25.517 26.246 48.403 55.869 47.484 9.014-.275 9.7-2.1 10.241-10.759z" fill="#515151"/><path d="m392.496 861.339c8.09 4.341 9.973 2.955 7.449-8.044-1.43-6.218-1.965-12.599-1.797-18.94-1.195 1.131-2.467 2.207-3.877 3.184-9.74 6.754-20.076 1.264-27.047-6.488 3.641 12.918 12.946 23.682 25.272 30.288z" fill="#515151"/><path d="m728.116 464.602c-22.139 9.217-50.123-2.147-62.822-22.966-.055 10.124-2.641 20.39-7.377 30.422 17.164-.818 34.656 3.057 48.643 12.451 6.756 4.534 8.344 5.038 13.799-2.999 3.533-5.208 6.181-10.951 7.757-16.908z" fill="#515151"/><path d="m322.115 335.827c4.59-.07 9.461-3.32 13.457-5.34 4.785-2.417 8.479-4.398 11.76-8.777.584-.781-.24-1.646-.994-1.734-6.25-.728-10.869.934-16.309 3.89-3.918 2.131-8.988 6.407-8.572 11.303.029.353.277.664.658.658z" fill="#a0a0a0"/><path d="m254.924 429.3c-8.82-.898-17.629 13.261-11.814 20.331.213.259.68.37.994.261 3.633-1.265 5.766-3.943 7.586-7.236 1.842-3.328 4.482-7.092 5.098-10.91.214-1.323-.524-2.308-1.864-2.446z" fill="#a0a0a0"/><path d="m315.348 437.895c7.428-3.059 9.607-12.148 15.186-17.427 1.188-1.123-.092-2.672-1.439-2.474-5.121.749-8.857 2.384-12.133 6.642-2.969 3.865-5.148 8.183-2.691 12.821.178.343.7.594 1.077.438z" fill="#a0a0a0"/><path d="m433.354 354.777c6.307-1.494 10.451-3.363 15.512-7.302.508-.397.334-1.329-.207-1.603-6.99-3.548-12.672-3.618-20.086-.761-5.186 1.997-12.578 6.761-13.68 12.613-.117.625.271 1.246.953 1.25 5.543.026 12.049-2.903 17.508-4.197z" fill="#a0a0a0"/><path d="m439.148 308.932c3.449.638 7.117-.453 10.574-.603 4.568-.198 8.318.228 12.672-1.537.488-.198.859-.899.35-1.321-3.939-3.244-8.025-3.808-13.021-3.53-3.998.224-10.17 1.228-11.15 5.978-.085.408.113.927.575 1.013z" fill="#a0a0a0"/><path d="m548.265 326.688c2.813-.615 5.766-.983 8.486-1.905 1.975-.668 2.984-2.024 4.68-2.984.725-.409.697-1.277.238-1.859-1.799-2.292-3.076-3.711-6.129-4.11-3.336-.436-6.686.654-9.738 1.931-1.295.543-11.146 6.109-8.232 8.724 2.583 2.315 7.704.854 10.695.203z" fill="#a0a0a0"/><path d="m627.278 339.798c.572-.401.564-1.133 0-1.534-4.799-3.413-9.262-3.927-15.045-3.001-4.955.792-10.666 2.678-11.889 8.094-.127.563.26 1.121.857 1.125 4.543.031 9.014-.77 13.57-.985 4.849-.23 8.486-.88 12.507-3.699z" fill="#a0a0a0"/><path d="m532.595 373.901c-4.869-3.396-9.256-3.254-14.83-1.576-3.854 1.162-8.703 4.863-8.879 9.182-.016.399.33.66.691.691 3.686.313 8.121-1.333 11.678-2.267 2.15-.566 4.367-.87 6.529-1.413 1.619-.405 3.379-1.872 4.811-2.742.734-.448.662-1.412 0-1.875z" fill="#a0a0a0"/><path d="m561.636 455.654c2.652 1.422 6.209.916 9.113.924 4.264.01 7.369.843 11.008-1.785.383-.278.699-.768.516-1.265-1.609-4.297-5.57-5.677-10-4.958-3.887.634-9.748 2.082-10.861 6.527-.056.209.026.452.224.557z" fill="#a0a0a0"/><path d="m614.866 406.635c1.104 2.871 5.523 4.021 7.943 5.533 3.24 2.026 6.008 5.702 10.088 5.278 1.041-.109 1.637-.59 2.029-1.547 2.295-5.562-4.701-9.474-9.1-10.887-1.13-.364-12.313-1.907-10.96 1.623z" fill="#a0a0a0"/><path d="m699.872 414.822c-4.646-2.131-10.137-3.692-14.699-.798-.379.241-.342.72 0 .967 3.443 2.501 7.354 3.952 10.951 6.243 3.592 2.29 6.523 5.899 11.098 5.375.545-.062 1.02-.327 1.174-.895 1.49-5.491-4.231-8.922-8.524-10.892z" fill="#a0a0a0"/><path d="m441.83 440.548c.219-.319.104-.73-.127-.998-3.107-3.575-9.865-2.407-13.863-1.277-5.625 1.59-9.539 4.194-12.031 9.503-.25.526.033 1.354.738 1.288 4.836-.446 8.813-1.456 13.471-2.888 3.744-1.15 9.464-2.183 11.812-5.628z" fill="#a0a0a0"/><path d="m402.855 512.937c-6.938-1.91-16.377 3.488-18.377 10.541-.408 1.438 1.084 3.309 2.656 2.658 2.918-1.214 5.461-3.102 8.131-4.772 3.096-1.936 5.635-3.602 8.172-6.227.684-.71.387-1.936-.582-2.2z" fill="#a0a0a0"/><path d="m332.854 491.566c.354-.465.066-1.167-.379-1.44-6.313-3.892-16.381.86-19.672 7.027-.955 1.789.66 4.708 2.914 3.791 3.096-1.258 6.057-2.839 9.188-3.995 3.408-1.257 5.738-2.48 7.949-5.383z" fill="#a0a0a0"/><path d="m487.525 506.052c2.66-.667 5.422-1.074 8.018-1.957 2.369-.802 3.301-2.607 4.947-4.24.398-.394.42-1.102 0-1.49-1.873-1.738-3.389-3.614-6.223-3.696-3.051-.087-6.482.635-9.225 2.028-1.705.866-10.959 6.645-7.342 9.715 2.519 2.134 7.064.331 9.825-.36z" fill="#a0a0a0"/><path d="m685.995 492.782c-4.35-1.785-12.938-3.836-16.428.622-.227.29-.236.596 0 .884 2.848 3.463 9.26 4.363 13.219 6.108 4.094 1.803 8.051 5.582 12.787 3.975.334-.112.697-.38.758-.758 1.022-6.134-5.676-8.918-10.336-10.831z" fill="#a0a0a0"/><path d="m664.847 562.225c-.314.212-.322.64 0 .852 4.416 2.919 10.096 4.336 14.947 6.485 4.268 1.891 7.869 3.729 12.619 2.561.555-.135.939-.783.76-1.334-3.067-9.349-20.379-13.936-28.326-8.564z" fill="#a0a0a0"/><path d="m532.415 619.218c5.199 7.906 22.48 9.006 29.139 2.781.482-.452.348-1.279-.207-1.602-4.057-2.365-8.252-2.189-12.832-2.057-5.205.147-10.467-1.128-15.625-.283-.494.082-.733.764-.475 1.161z" fill="#a0a0a0"/><path d="m502.645 639.983c-4.268 1.326-7.416 3.213-11.148 5.712-3.686 2.466-7.641 4.94-10.248 8.581-.281.394.031.875.414 1.018 8.74 3.266 22.051-4.921 22.232-14.358.013-.628-.641-1.142-1.25-.953z" fill="#a0a0a0"/><path d="m677.675 625.171c-5.348-4.098-13.998-6.285-20.609-5.355-1.119.156-.951 1.594-.277 2.105 4.563 3.449 9.295 6.637 13.498 10.545 4.117 3.823 7.26 7.914 12.678 9.867.652.234 1.266-.17 1.635-.667 4.833-6.5-2.113-12.807-6.925-16.495z" fill="#a0a0a0"/><path d="m579.028 666.794c.287-.561.148-1.247-.414-1.578-4.801-2.82-10.021-1.045-15.273-.732-6.41.381-13.279-1.226-19.492.551-.289.083-.482.457-.295.725 6.058 8.692 30.008 11.573 35.474 1.034z" fill="#a0a0a0"/><path d="m483.594 729.464c-1.156-7.334-5.525-12.551-8.262-19.295-1.955-4.82-4.266-11.986-8.889-14.801-.385-.232-.844-.067-1.082.285-3.607 5.422-1.055 14.789 1.377 20.25 3.32 7.45 7.221 13.807 15.809 14.936.767.1 1.142-.766 1.047-1.375z" fill="#a0a0a0"/><path d="m345.867 640.204c-4.633 5.482-6.541 12.77-2.08 18.748.348.465.994.648 1.447.188 4.559-4.65 6.877-9.943 10.123-15.557.943-1.633 8.221-9.861 5.389-11.697-4.689-3.041-12.266 5.224-14.879 8.318z" fill="#a0a0a0"/><path d="m268.238 622.575c3.236-8.102.461-16.098.439-24.467-.002-.527-.691-.854-1.068-.443-6.633 7.26-9.205 18.092-.912 25.318.561.485 1.278.25 1.541-.408z" fill="#a0a0a0"/><path d="m274.346 681.919c-.209-1.245-.898-2.861-2.168-3.32-2.984-1.074-4.438 3.813-4.85 5.556-.652 2.752-.172 5.78.234 8.524.619 4.18 3.514 11.299 8.908 9.93 5.092-1.291.771-9.745-.064-12.369-.875-2.754-1.584-5.469-2.06-8.321z" fill="#a0a0a0"/><path d="m301.572 775.425c-.049.01-.096.021-.143.033-.752.17-1.316.82-1.535 1.532-2.813 9.209 3.936 27.772 15.92 25.358.586-.117 1.027-.753 1.014-1.333-.145-6.063-5.004-10.233-7.805-15.253-1.261-2.263-3.791-11.169-7.451-10.337z" fill="#a0a0a0"/><path d="m335.104 731.606c-6.018-.476-7.582 9.072-7.891 13.359-.48 6.697 1.531 14.047 7.596 17.49.607.346 1.398.148 1.756-.461 3.543-6.022 1.408-12.325.904-18.877-.147-1.919.947-11.25-2.365-11.511z" fill="#a0a0a0"/><path d="m453.791 828.173c-7.637-4.946-11.578-12.357-17.869-18.446-.594-.575-1.58-.308-1.814.479-2.75 9.209 5.01 19.529 11.625 25.084 6.301 5.295 17.201 12.377 24.615 5.836.387-.342.398-.93.176-1.357-3.381-6.465-10.866-7.792-16.733-11.596z" fill="#a0a0a0"/><path d="m480.271 838.966c-1.334-.142-2.531-.067-3.814.338-2.021.642-3.078 3.438-1.318 4.998 1.828 1.623 3.68 1.987 6.053 1.465 1.492-.329 2.541-1.859 2.541-3.338-.001-2.039-1.588-3.261-3.462-3.463z" fill="#a0a0a0"/><path d="m553.37 773.193c-3.057 2.954-5.807 5.989-9.195 8.599-3.656 2.813-7.982 5.216-10.135 9.502-.941 1.883.258 3.617 2.219 3.863 9.652 1.214 22.486-11.66 18.982-21.471-.281-.785-1.234-1.108-1.871-.493z" fill="#a0a0a0"/><path d="m636.614 761.64c-4.939-.822-8.412-.381-13.289.885-4.219 1.094-9.377 1.271-13.076 3.699-.363.237-.59.775-.307 1.172 2.842 3.996 8.504 4.383 13.023 4.34 6.385-.059 11.734-2.516 14.338-8.402.27-.612.116-1.562-.689-1.694z" fill="#a0a0a0"/><path d="m587.716 826.163c-2.914 1.289-5.334 4.178-7.746 6.233-1.285 1.095-2.701 2.042-3.994 3.13-1.455 1.223-1.635 3.383-2.703 4.779-.545.711.012 1.971.867 2.127.719.131 1.223.578 1.92.77 1.01.277 2.107.049 3.137.1 2.441.126 5.068-2.229 6.676-3.809 3.066-3.021 5.844-7.539 5.184-11.97-.238-1.594-2.154-1.883-3.341-1.36z" fill="#a0a0a0"/><path d="m538.397 674.433c1.078-2.542-.648-5.076-3.494-4.547-1.762.326-3.148 1.688-4.309 2.979-.9.999-1.107 2.258-.779 2.955 1.563 3.316 7.465 1.245 8.582-1.387z" fill="#a0a0a0"/><path d="m592.765 451.756c-1.887-.634-4.15-.714-5.813.543-1.584 1.197-1.898 3.025-.594 4.589 1.102 1.316 2.676 2.059 4.283 2.561 1.277.399 2.988 0 3.883-1.024.727-.833 1.26-1.664 1.17-2.822-.146-1.87-1.131-3.244-2.929-3.847z" fill="#a0a0a0"/><g fill="#68182b"><path d="m311.428 343.439c4.074-3.411 7.584-7.313 11.891-10.48 3.691-2.715 7.553-5.011 11.035-8.021.338-.29-.023-.818-.416-.716-8.945 2.343-20.217 9.585-22.977 18.945-.084.289.266.443.467.272z"/><path d="m398.164 372.601c5.176-4.233 9.215-9.262 14.895-12.994 4.83-3.17 9.906-5.638 14.404-9.31.453-.37-.043-1.016-.529-.909-10.574 2.331-27.486 10.867-29.295 22.91-.047.315.271.511.525.303z"/><path d="m445.686 303.952c-8.656-.755-24.531 5.134-27.383 14.269-.09.294.268.588.533.409 4.084-2.758 7.623-5.545 12.143-7.64 4.912-2.274 10.271-3.174 15.049-5.782.63-.345.285-1.2-.342-1.256z"/><path d="m548.657 319.659c-9.424-1.868-23.086 3.906-25.738 14.008-.08.306.254.572.533.409 3.682-2.166 6.928-5.025 10.592-7.241 4.322-2.61 9.826-4.723 14.613-6.35.373-.127.444-.737 0-.826z"/><path d="m587.466 349.452c-.104.333.305.669.605.465 6.922-4.708 14.178-7.343 22.043-10.044.445-.152.529-.872 0-.983-8.099-1.698-19.922 1.709-22.648 10.562z"/><path d="m518.354 373.576c-9.301-.43-21.646 6.317-23.585 16.244-.061.323.299.73.631.483 3.537-2.651 6.549-5.809 10.311-8.211 4.14-2.645 8.587-5.184 12.925-7.473.519-.274.248-1.019-.282-1.043z"/><path d="m626.538 407.947c-4.973-7.722-17.563-9.997-25.568-6.125-.344.165-.279.779.109.841 4.232.67 8.531 1.024 12.711 1.968 4.137.938 8.188 2.67 12.209 4.018.395.131.76-.356.539-.702z"/><path d="m672.015 411.008c8.664 2.219 16.863 4.239 25.145 7.756.477.204.91-.306.557-.722-5.654-6.677-17.162-10.287-25.701-7.763-.353.104-.372.635-.001.729z"/><path d="m575.577 450.154c-6.633-.601-12.334.541-18.408 3.26-4.715 2.11-10.961 5.729-12.148 11.192-.072.323.256.594.555.428 5.129-2.833 9.17-6.29 14.84-8.314 5.143-1.837 10.238-3.48 15.297-5.564.532-.218.458-.948-.136-1.002z"/><path d="m430.941 439.24c-12.1-.444-28.709 8.758-32.98 20.46-.127.345.34.553.578.337 5.01-4.591 10.045-8.872 15.988-12.233 5.311-3.003 11.188-4.924 16.688-7.553.515-.246.23-.993-.274-1.011z"/><path d="m344.121 407.087c-10.408 2.88-24.258 9.555-27.318 21.001-.105.397.396.693.688.399 4.361-4.35 8.744-8.409 13.945-11.762 4.533-2.92 8.906-5.543 13.086-8.952.332-.268-.026-.788-.401-.686z"/><path d="m348.584 403.63c-.359.23-1.865 1.896-.992 2.355 1.68.883 4.988-.545 5.855-2.104.104-.185.1-.473-.08-.617-1.469-1.198-3.314-.585-4.783.366z"/><path d="m245.443 438.587c7.023-8.828 17.951-14.326 28.1-18.782.426-.187.186-.823-.223-.829-10.955-.14-27.111 6.944-28.383 19.401-.025.248.35.408.506.21z"/><path d="m323.168 490.959c-12.84 1.454-30.074 9.805-35.432 22.353-.131.306.168.763.52.519 5.662-3.973 10.828-8.448 16.82-11.975 6.035-3.549 12.383-6.334 18.307-10.099.33-.209.234-.849-.215-.798z"/><path d="m372.561 534.812c6.305-7.065 13.816-11.191 21.559-16.427.596-.403.43-1.487-.391-1.442-8.775.478-20.604 8.301-21.758 17.625-.037.301.4.453.59.244z"/><path d="m483.949 500.806c-6.688.838-11.836 3.268-17.123 7.406-3.604 2.819-8.162 7.479-8.514 12.313-.021.307.418.491.617.254 6.85-8.078 16.221-13.801 25.227-19.205.324-.196.221-.821-.207-.768z"/><path d="m682.903 493.755c-9.566-6.668-27.576-5.247-37.283.508-.268.158-.172.64.166.613 5.697-.44 11.295-1.405 17.027-1.479 6.682-.084 13.184 1.74 19.834 1.308.52-.033.678-.658.256-.95z"/><path d="m685.923 495.368c-.137.136-.113.325 0 .465.639.787 4.84 3.332 5.266 1.168.46-2.349-4.018-2.88-5.266-1.633z"/><path d="m676.233 561.157c-8.564-6.126-23.418-7.322-32.379-1.262-.275.186-.186.646.176.645 5.588-.021 11.016-.907 16.633-.517 5.193.364 10.104 1.798 15.313 2.084.552.031.636-.678.257-.95z"/><path d="m640.257 616.248c-.348.208-.164.667.191.706 5.932.652 11.543.934 17.357 2.57 5.16 1.455 9.787 4.254 14.889 5.892.434.138.895-.407.613-.798-5.89-8.218-23.931-13.783-33.05-8.37z"/><path d="m614.849 585.579c.111.414.662.37.793 0 3.018-8.506-2.721-21.756-10.418-26.357-.24-.145-.529.09-.461.352.984 3.778 3.449 7.107 5.252 10.541 2.525 4.816 3.406 10.277 4.834 15.464z"/><path d="m264.252 615.421c.912-4.459 1.086-8.771 1.469-13.298.461-5.411 3.385-9.737 4.676-14.833.041-.166-.121-.376-.305-.305-9.861 3.889-11.32 20.572-6.623 28.539.179.303.705.272.783-.103z"/><path d="m270.588 666.446c-.1-.414-.596-.391-.811-.107-5.396 7.138-3.24 20.939 1.43 27.814.23.34.748.211.768-.208.219-5.005-.652-9.772-.984-14.744-.28-4.223.589-8.627-.403-12.755z"/><path d="m346.08 645.85c.018.628.795.802 1.135.307 2.479-3.624 4.828-7.481 7.547-10.927 2.818-3.568 6.262-6.599 9.033-10.188.221-.286.023-.673-.352-.605-9.478 1.752-17.66 11.904-17.363 21.413z"/><path d="m344.805 711.388c-10.436 3.324-16.838 19.836-14.58 29.781.16.711 1.123.606 1.334 0 1.85-5.33 3.135-10.797 5.518-15.938 2.205-4.752 6.066-8.479 8.268-13.143.165-.351-.109-.837-.54-.7z"/><path d="m329.768 745.831c-1.027.955-1.219 2.175-1.338 3.537-.131 1.447.434 2.266 1.42 3.188.217.201.604.186.75-.096 1.018-1.945 1.281-4.514.1-6.507-.202-.337-.651-.38-.932-.122z"/><path d="m298.857 777.688c-1.639-6.468-1.391-12.918-1.607-19.5-.012-.375-.592-.607-.768-.209-4.744 10.953-2.498 28.889 6.584 37.16.492.445 1.143-.003 1.045-.609-.925-5.81-3.806-11.127-5.254-16.842z"/><path d="m425.377 752.029c.426.181 1.063-.119.871-.671-1.795-5.136-5.256-9.404-7.221-14.525-2.004-5.227-1.828-10.573-2.912-15.932-.053-.26-.385-.246-.51-.068-5.63 7.94 1.188 27.547 9.772 31.196z"/><path d="m594.001 677.489c.826 6.221.883 12.652 1.395 18.912.039.485.762.807 1.012.273 4.793-10.182 3.068-30.1-6.957-37.096-.256-.178-.635.118-.533.41 2.097 5.95 4.241 11.159 5.083 17.501z"/><path d="m495 661.335c-.336.172-.156.658.184.674 6.467.305 16.3-2.717 19.499-8.824.268-.51-.168-1.014-.707-.917-3.42.616-6.076 2.694-9.077 4.331-3.21 1.754-6.641 3.074-9.899 4.736z"/><path d="m630.474 770.614c7.586-1.428 17.793-6.889 18.4-15.586.018-.271-.307-.331-.477-.197-3.275 2.538-6.293 5.286-9.785 7.551-3.303 2.139-6.389 4.237-8.715 7.483-.285.4.184.823.577.749z"/><path d="m597.349 812.05c-2.375 3.959-3.551 8.658-5.684 12.793-2.084 4.055-3.838 7.66-4.727 12.174-.104.539.568 1.055.992.578 5.34-6.029 13.725-16.816 10.141-25.451-.125-.303-.531-.415-.722-.094z"/><path d="m502.145 846.061c-1.973 3.515-3.268 7.27-4.621 11.05-1.693 4.727-4.361 9.069-6.457 13.615-.113.244.135.59.404.405 7.848-5.412 12.426-15.322 11.563-24.829-.042-.448-.641-.686-.889-.241z"/><path d="m559.761 759.851c-.07-.268-.508-.365-.631-.083-1.773 4.025-2.455 8.401-3.652 12.62-1.492 5.259-3.746 10.379-5.592 15.525-.15.418.426.699.715.415 6.941-6.792 11.666-18.776 9.16-28.477z"/><path d="m614.976 589.524c-.178.329-.605.677-.836.975-.371.484-.541 1.37-.715 1.936-.457 1.473-.471 2.006.002 3.328.082.225.287.358.525.301.133-.012.264-.025.395-.035.48.058 1.004-.311 1.23-.705.57-.984.75-1.967.859-3.086.117-1.217-.453-1.742-.922-2.713-.101-.211-.433-.196-.538-.001z"/><path d="m685.714 562.498c-1.584-.699-3.348-.93-4.77.167-.295.227-.422.639-.121.932 2.07 2.004 5.451 3.369 8.316 3.201.369-.023.549-.371.398-.693-.888-1.913-1.907-2.762-3.823-3.607z"/><path d="m487.371 499.907c-.15.256-.029.703.305.748 1.775.241 4.695-.11 5.758-1.688.109-.165.047-.36-.066-.498-1.55-1.923-4.956-.343-5.997 1.438z"/></g></g></g></svg>