<svg id="Fruit" height="512" viewBox="0 0 992.13 992.13" width="512" xmlns="http://www.w3.org/2000/svg"><g><path d="m481.209 201.307c-47.682 9.912-87.262 42.848-122.932 76.962-38.332 36.659-79.322 70.585-129 106.767-39.234 28.575-79.885 61.048-111.408 104.78-33.746 46.818-55.145 106.499-60.252 168.047-4.445 53.547 8.16 105.83 35.494 147.227 29.807 45.135 75.525 73.953 128.736 81.139 12.51 1.688 25.498 2.546 38.607 2.546h.01c72.768 0 148.711-25.671 208.361-70.428l.01-.009c42.772 46.551 105.51 68.125 151.485 78.063 25.463 5.505 51.125 8.296 76.271 8.296 52.482 0 100.732-12.406 139.521-35.867 2.162-1.307 4.127-2.863 5.855-4.628 35.637-23.688 62.586-58.854 78.074-101.95 35.984-100.145 7.438-221.131-72.732-308.226-12.078-13.124-25.104-24.612-38.416-35.261 3.195-3.723 5.871-8.03 7.869-12.814 14.119-33.765 7.592-73.302.365-107.712-7.406-35.25-24.828-68.258-53.262-100.912-28.738-33.006-70.117-48.988-102.949-59.224-24.621-7.675-47.629-11.568-68.381-11.568-5.449 0-10.777.27-15.969.805-1.412-6.375-3.9-13.77-8.273-20.619-7.59-11.896-21.768-19.286-37.004-19.286-12.152 0-23.047 4.739-30.676 13.342-7.875 8.88-11.459 19.699-13.081 27.211-2.385 11.066-1.832 22.014-1.342 31.671.217 4.315.426 8.393.332 11.897-.244 9.536-.816 18.992-1.428 28.98-1.252.235-2.547.492-3.885.771z" fill="#fff"/><g><path d="m508.292 212.797c-.58 10.115.279 8.958-9.055 9.801-5.053.452-10.323 1.5-13.168 2.092-43.121 8.965-80.316 41.222-111.283 70.84-41.693 39.873-84.816 74.85-131.445 108.81-39.525 28.787-77.305 59.498-106.096 99.441-32.23 44.715-51.295 101.449-55.826 156.059-7.914 95.348 44.369 189.316 143.627 202.721 77.658 10.486 165.143-15.064 229.445-63.316 15.199-11.406 17.168-14.325 27.432-2.17 35.424 41.93 90.913 64.627 143.446 75.982 65.418 14.145 140.031 10.635 198.396-24.668.979-.591 1.639-1.342 2.037-2.162 32.414-20.576 57.428-52.15 71.768-92.051 35.523-98.861.941-209.264-67.828-283.977-31.543-34.267-70.953-57.228-106.471-86.531-36.281-29.933-64.258-66.815-110.178-81.967-1.563-7.236-3.914-14.418-7.219-21.521-9.432-20.265-27.252-35.503-47.994-45.203-.02-3.995-.059-7.989-.113-11.983 19.443 21.384 43.557 41.661 68.793 54.342 28.74 14.444 57.734 18.089 81.479 41.404 14.924 14.656 25.975 30.774 35.504 49.297 6.213 12.074 11.467 24.737 20.162 35.302 10.088 12.253 25.549 6.502 31.027-6.601 11.797-28.212 5.107-64.63-.975-93.59-7.193-34.241-25.152-64.016-47.898-90.137-23.738-27.264-58.281-41.582-92.049-52.107-30.789-9.6-67.131-15.464-98.418-4.747-.297-5.156-.613-10.313-.959-15.471-.439-6.553-2.266-14.849-6.27-21.12-5.539-8.683-21.807-11.819-29.68-2.941-3.863 4.354-6.309 10.404-7.6 16.396-2.654 12.305-.154 26.597-.482 39.15-.349 13.552-1.336 27.085-2.109 40.626z" fill="#68182b"/><path d="m633.544 863.976c-51.557-9.459-107.883-31.809-142.889-72.816-9.475-11.102-9.971-13.506.273-24.447.652-.697 1.299-1.4 1.939-2.11 3.928-4.336 7.641-8.874 11.167-13.582 38.768 63.595 111.973 106.981 185.873 118.897-19.006-.442-37.967-2.567-56.363-5.942z" fill="#b1d045"/><path d="m614.972 313.503c39.654 14.873 65.908 47.529 97.506 74.786 26.893 23.198 57.619 41.265 84.424 64.658 78.244 68.288 117.908 167.712 97.938 271.124-16.287 84.34-79.619 135.867-164.68 138.514-77.256 2.402-162.658-40.633-208.602-104.268-10.545-14.604-8.219-19.337 1.41-37.266 14.408-26.839 24.742-56.492 33.324-84.793 12.605 59.441 49.912 110.982 108.924 133.195 67.502 25.409 149.68-11.066 167.152-83.076 17.162-70.732-23.9-135.096-82.004-171.855-49.125-31.083-121.84-57.109-170.406-15.906 2.525-19.295 5.564-38.527 10.17-57.568 9.867-40.779 29.295-84.882 24.844-127.545z" fill="#fbf199"/><path d="m567.696 589.831c3.262-17.7 5.543-35.521 7.676-53.361 2.168-18.188 5.26-26.387 18.887-35.439 43.561-28.914 102.41-4.899 145.381 19.355 52.58 29.676 89.004 81.986 85.385 143.58-4.516 76.789-81.547 116.066-150.68 97.373-57.428-15.525-94.453-68.588-107.193-124.437-5.409-23.694-3.78-23.638.544-47.071z" fill="#aa8053"/><path d="m659.786 278.265c-11.104-3.708-22.305-7.205-32.537-12.348-25.91-13.021-51.191-37.052-69.791-59.246-.176-7.234-.404-14.467-.684-21.694 23.496.806 46.355 6.902 67.92 16.455 10.221 4.531 19.076 11.784 25.418 24.328 5.031 9.947 6.896 21.367 10.123 31.96 1.092 3.577 2.779 8.724 5.084 14.033 3.869 8.933 3.901 9.663-5.533 6.512z" fill="#b1d045"/><path d="m715.644 310.755c-6.223-5.945-12.855-11.38-19.639-16.119-10.166-7.103-19.184-11.489-25.527-24.749-4.752-9.923-7.285-20.89-10.256-31.432-1.223-4.33-2.848-8.876-4.9-13.315-4.453-9.639-7.455-12.467 6.564-3.217 14.699 9.694 28.461 20.695 41.02 32.251 15.135 13.932 20.307 27.738 22.549 53.692 1.142 13.605-2.815 9.568-9.811 2.889z" fill="#b1d045"/><path d="m768.651 392.565c-3.893-5.362-7.129-12.138-8.438-14.653-5.574-10.719-18.768-35.304-19.789-36.964-12.902-20.902-6.18-35.068-14.518-62.574 25.865 31.017 46.252 70.093 50.141 109.522 1.048 10.569-1.732 12.48-7.396 4.669z" fill="#b1d045"/><path d="m788.337 384.811c-3.9 11.003-5.154 9.267-6.336-.586-2.504-20.874-9.395-41.382-19.092-60.661-6.068-12.059-6.785-15.006 7.143-8.378 20.654 9.834 28.219 41.633 18.285 69.625z" fill="#b1d045"/><path d="m768.009 262.979c5.992 11.89 10.754 24.406 14.236 37.301.516 1.909 1.035 3.898 1.551 5.957 3.26 13.01 1.795 11.453-5.283 7.191-3.848-2.313-8.031-4.127-12.137-5.813-17.293-7.11-16.539-8.235-29.08-24.619-8.299-10.843-17.268-20.926-26.492-30.023-5.875-5.794-12.092-11.438-18.604-16.863 7.176 1.496 14.814 1.683 22.227 1.489 9.408-.246 18.783-.757 28.105.885 17.285 3.041 18.998 11.62 25.477 24.495z" fill="#b1d045"/><path d="m695.354 188.091c13.938 7.104 26.922 15.862 37.945 26.812 3.131 3.108 6.137 6.327 9.014 9.646 8.141 9.367 6.863 9.215-1.887 7.902-3.428-.516-6.828-.781-10.014-.878-37.766-1.138-40.754 1.43-58.287-10.782-17.078-11.897-35.625-22.062-54.998-29.434-5.982-2.276-12.801-4.78-.436-7.569 3.336-.751 6.539-1.522 9.529-2.201 33.101-7.533 43.951-6.336 69.134 6.504z" fill="#b1d045"/><path d="m637.661 167.397c12.234 3.023 6.336 4.622-1.273 6.15-9.1 1.822-18.1 4.196-27.113 6.352-17.896 4.283-40.145-.195-52.754-1.156-.164-3.881-.346-7.763-.541-11.642 26.044-9.643 55.101-6.274 81.681.296z" fill="#b1d045"/><path d="m520.933 172.17c.309-7.679-2.867-28.372.885-41.11 3.945-13.391 15.701-9.588 18.615-1.73 4.275 11.52 6.098 32.762 6.813 53.619.307 8.878.764 35.468.232 47.711-9.5-3.471-19.395-5.849-29.217-7.087.73-17.143 1.99-34.259 2.672-51.403z" fill="#aa8053"/><path d="m564.177 250.591c28.309 15.016 39.176 43.132 40.658 73.912 1.459 30.34-9.658 59.872-18.016 88.521-7.441 25.509-13.078 51.214-16.389 77.582-7.807 62.144-14.582 120.651-36.994 179.7-19.432 51.188-46.153 92.834-91.667 124.132-80.535 55.376-219.912 95.167-300.139 18.563-45.094-43.06-55.689-114.256-47.484-173.235 8.414-60.464 37.617-119.058 79.27-163.306 43.297-45.991 99.285-78.194 148.23-117.564 27-21.718 50.523-47.114 76.092-70.407 20.635-18.801 45.885-38.418 73.295-48.583 20.536-7.616 63.667-4.95 93.144 10.685z" fill="#b1d045"/><g fill="#abab38"><path d="m616.692 183.787c-12.365 2.789-5.547 5.293.436 7.569 19.373 7.372 37.92 17.536 54.998 29.434 17.533 12.212 20.521 9.645 58.287 10.782.977.028 2.004.109 3.016.173-11.686-4.149-24.971-4.555-36.879-7.403-11.691-2.797-22.553-9.544-31.498-17.385-9.426-8.261-15.381-21.726-7.014-30.005-8.57-.024-18.338 1.567-31.816 4.634-2.991.679-6.194 1.45-9.53 2.201z"/><path d="m637.946 270.601c-10.799-6.508-20.73-14.244-30.131-23.931-16.715-17.229-28.729-37.924-36.557-60.479-4.801-.603-9.625-1.049-14.484-1.215.279 7.228.508 14.46.684 21.694 18.6 22.194 43.881 46.226 69.791 59.246 3.461 1.741 7.057 3.249 10.697 4.685z"/><path d="m743.987 275.02c-5.24-7.881-21.643-26.558-19.059-37.65-3.496.039-6.998.138-10.502.229-7.412.193-15.051.007-22.227-1.489 6.512 5.425 12.729 11.069 18.604 16.863 9.225 9.098 18.193 19.181 26.492 30.023 12.541 16.384 11.787 17.509 29.08 24.619 3.863 1.588 7.775 3.32 11.432 5.443-4.182-3.475-8.373-6.938-12.33-10.685-8.435-7.977-15.095-17.731-21.49-27.353z"/><path d="m760.214 377.912c1.309 2.516 4.545 9.291 8.438 14.653 1.541 2.123 2.846 3.466 3.941 4.174-5.146-7.253-7.111-17.427-9.703-25.424-4.084-12.609-8.877-24.959-13.652-37.319-4.291-11.114-8.553-22.24-12.867-33.344-2.248-5.786-4.955-11.455-8.836-16.274 5.781 23.663.965 37.249 12.891 56.57 1.02 1.66 14.214 26.245 19.788 36.964z"/><path d="m784.935 365.519c-1.66-8.11-4.555-15.853-7.73-23.472-3.939-9.441-9.533-19.262-17.682-25.768.705 1.861 1.881 4.291 3.387 7.284 9.697 19.279 16.588 39.787 19.092 60.661 1.182 9.853 2.436 11.589 6.336.586.414-1.17.754-2.353 1.107-3.534-2.311-4.786-3.38-10.232-4.51-15.757z"/><path d="m684.985 276.234c-13.76-15.774-15.775-41.003-31.484-54.885.545 1.11 1.162 2.365 1.82 3.79 2.053 4.439 3.678 8.985 4.9 13.315 2.971 10.542 5.504 21.509 10.256 31.432 6.344 13.26 15.361 17.646 25.527 24.749 6.783 4.739 13.416 10.174 19.639 16.119 2.023 1.933 3.785 3.624 5.25 4.751-2.428-5.364-5.418-10.412-9.404-15.162-7.709-9.192-18.597-15.041-26.504-24.109z"/><path d="m492.868 764.602c-.641.71-1.287 1.413-1.939 2.11-10.244 10.941-9.748 13.346-.273 24.447 32.643 38.238 83.821 60.244 132.385 70.709-6.482-3.18-12.926-6.514-19.328-10.016-35.174-19.224-69.758-46.027-87.119-82.639-4.471-5.881-8.727-11.908-12.559-18.194-3.526 4.709-7.24 9.247-11.167 13.583z"/><path d="m609.274 179.899c8.051-1.925 16.1-3.974 24.211-5.699-11.594.058-23.178-.319-34.754-1.253-11.607-.936-27.539-1.251-38.414-7.309-1.453.455-2.902.932-4.338 1.463.195 3.879.377 7.761.541 11.642 12.61.961 34.858 5.44 52.754 1.156z"/><path d="m604.835 324.503c-.682-14.135-3.383-27.685-8.813-39.679 1.178 7 1.699 13.952 2.031 19.827 1.674 29.495-5.844 57.301-17.232 84.341-9.574 22.729-20.793 44.597-31.707 66.497-39.803 79.893-33.92 84.279-59.711 172.199-29.158 99.391-44.434 166.063-163.963 203.313-48.563 15.136-160.08 31.595-216.17-64.79 7.811 17.486 18.43 33.485 32.361 46.789 80.227 76.604 219.604 36.813 300.139-18.563 45.514-31.298 72.235-72.943 91.667-124.132 22.412-59.049 29.188-117.557 36.994-179.7 3.311-26.368 8.947-52.073 16.389-77.582 8.357-28.648 19.474-58.18 18.015-88.52z"/></g><path d="m428.178 536.657c4.719-20.076 7.988-40.311 14.582-59.926 6.508-19.355 14.537-38.113 23.123-56.63 9.824-21.192 20.795-42.046 26.531-64.833 11.606-46.075-25.186-74.831-67.807-45.787-10.002 6.814-20.084 16.061-30.018 27.438-45.811 52.479-76.383 80.383-99.262 97.602-41.121 30.947-83.525 57.719-115.785 98.689-28.906 36.712-47.955 82.291-41.355 129.609 4.695 33.658 25.947 58.547 60.115 63.258 32.209 4.441 65.924-6.547 94.701-20.138 78.956-37.29 122.078-113.547 135.175-169.282z" fill="#d7e338"/><path d="m730.159 862.585c85.061-2.646 148.393-54.174 164.68-138.514.615-3.182 1.17-6.359 1.672-9.533-5.143 18.082-12.563 35.5-22.281 51.61-30.688 50.878-85.693 76.991-143.832 79.817-55.777 2.709-124.266-15.707-159.311-62.18-20.264-26.867-19.123-62.42-13.934-94.014 1.635-9.943 3.59-19.854 5.697-29.742-2.625-7.748-4.842-15.678-6.559-23.771-8.582 28.301-18.916 57.954-33.324 84.793-9.629 17.929-11.955 22.662-1.41 37.266 45.944 63.635 131.346 106.67 208.602 104.268z" fill="#f3af79"/><path d="m579.958 498.616c6.291-5.341 12.998-9.528 19.998-12.746 3.195-17.07 6.4-34.145 9.789-51.207 6.393-32.175 16.771-70.955 5.758-103.477-1.283 37.056-16.865 74.693-25.375 109.861-4.606 19.042-7.645 38.274-10.17 57.569z" fill="#f3af79"/><path d="m853.749 555.638c-4.291-10.504-9.252-21.007-14.859-31.275-13.961-25.555-14.275-13.781-2.141 11.178 60.641 124.68 35.613 288.879-172.746 273.551-30.469-2.237-29.621 3.328-2.033 10.102 82.289 20.195 177.49-4.258 210.221-100.402 17.527-51.494 1.542-114.176-18.442-163.154z" fill="#fff7cf"/><path d="m547.478 230.659c.531-12.243.074-38.833-.232-47.711-.715-20.857-2.537-42.1-6.813-53.619-.391-1.053-.949-2.025-1.617-2.899 4.637 15.211 3.957 32.049 3.4 47.715-.393 11.052-1.939 21.938-5.016 32.557-2.039 7.041-5.652 12.815-9.779 18.394 6.769 1.336 13.508 3.171 20.057 5.563z" fill="#865725"/><path d="m674.345 761.339c69.133 18.693 146.164-20.584 150.68-97.373.049-.834.012-1.646.047-2.477-1.418 2.863-2.912 5.682-4.543 8.412-22.607 37.84-68.621 49.857-110.197 47.763-45.156-2.274-83.844-26.437-110.271-62.446-15.467-21.08-27.184-50.105-30.125-78.467-.695 4.367-1.436 8.728-2.238 13.08-4.324 23.433-5.953 23.377-.545 47.071 12.739 55.849 49.764 108.911 107.192 124.437z" fill="#865725"/><path d="m797.104 613.093c-17.088-42.186-59.223-72.287-101.441-89.543-37.449-15.306-57.043 1.742-56.057 30.104.711 20.342 4.598 40.619 11.25 59.837 12.736 36.794 39.393 68.897 79.697 74.414 18.992 2.603 39.963-.999 55.207-13.021 19.261-15.189 19.86-40.774 11.344-61.791z" fill="#d4ba89"/><path d="m185.059 487.597c-26.373 23.232-45.975 57.102-59.041 88.859-14.625 35.551-24.205 74.032-18.084 112.521.105.667 1.113.471 1.133-.152 1.193-38.834 9.01-77.162 24.221-112.955 13.582-31.961 32.74-59.09 53.383-86.437 3.636-4.819 2.863-5.782-1.612-1.836z" fill="#68182b"/><path d="m195.231 475.857c-.959 1.043-1.852 2.135-2.73 3.25-2.271 2.878-1.084 4.364 1.713 2.22 1.029-.79 2.051-1.601 3.01-2.475 5.157-4.679 2.704-8.094-1.993-2.995z" fill="#68182b"/><path d="m810.044 554.819c-.234-.172-.582.172-.406.406 13.656 18.01 24.744 35.85 31.158 57.765 7.135 24.364 6.979 51.858 3.041 76.761-.094.598.732.854.922.256 14.279-45.291 6.072-105.267-34.715-135.188z" fill="#68182b"/><path d="m755.681 779.194c-13.297 2.906-26.777 5.66-40.395 6.293-13.338.619-26.264-1.945-39.494-2.459-.225-.009-.318.324-.115.43 23.672 12.229 57.68 9.351 80.445-3.211.594-.328.178-1.189-.441-1.053z" fill="#68182b"/><path d="m771.638 770.038c-1.086.533-2.148.611-3.127 1.367-1.146.891-2.361 1.71-3.623 2.428-1.289.732-3.883 1.574-4.41 3.032-.035.097.008.2.072.271 1.244 1.434 4.639.329 6.057-.358 1.168-.564 2.264-1.193 3.287-1.99 1.529-1.193 1.813-2.17 2.668-3.826.32-.619-.313-1.225-.924-.924z" fill="#68182b"/></g></g></svg>