<svg id="Fruit" height="512" viewBox="0 0 992.13 992.13" width="512" xmlns="http://www.w3.org/2000/svg"><g><path d="m785.781 345.697c-2.275-1.086-4.648-1.87-7.078-2.347-5.416-1.516-11.117-2.283-16.975-2.283-15.506 0-32.475 5.472-49.383 16.018-11.107 7.167-20.244 11.938-28.729 11.938-1.674 0-3.318-.175-5.033-.535-3.277-.689-8.938-4.474-13.932-7.814-4.891-3.271-9.951-6.654-15.705-9.45-1.932-.938-3.908-1.795-5.924-2.569-5.414-16.357-15.025-29.99-22.574-39.642-15.793-20.197-35.17-39.049-58.918-57.288 1.25-8.851.033-17.891-3.678-26.195-5.83-13.047-17.281-22.602-31.416-26.214-7.258-1.854-14.559-2.793-21.693-2.793-9.685 0-18.999 1.709-27.735 5.091-16.033-6.983-32.213-12.868-48.307-17.566-15.502-21.024-40.385-36.461-74.135-45.96-25.24-7.103-52.092-10.704-79.808-10.704-63.667 0-125.356 19.648-169.252 53.908-25.747 20.099-36.349 38.917-32.413 57.533 2.228 10.527 10.02 24.369 34.499 30.517 8.101 2.034 15.774 3.102 23.198 4.108-66.775 88.227-79.434 215.835-29.733 330.362 35.322 81.385 128.327 167.883 231.12 167.883 16.359 0 32.431-2.195 48.004-6.543 16.305 25.26 43.994 49.264 78.986 67.975 39.252 20.98 82.93 31.621 129.823 31.621h.006c98.309 0 197.879-48.406 259.84-126.322 43.846-55.133 67.344-128.848 64.469-202.242-3.244-82.808-50.922-154.019-127.524-190.487z" fill="#fff"/><g><path d="m775.502 367.254c-.703-.335-1.396-.508-2.063-.554-15.375-4.891-33.08 1.058-48.148 10.454-15.816 10.205-32.123 18.811-51.623 14.705-12.498-2.629-23.775-13.623-35.158-19.154-5.051-2.454-10.24-3.959-15.504-4.753-1.885-16.377-11.432-31.521-21.369-44.227-19.488-24.92-43.338-45.533-69.092-63.669 1.127-1.1 2.084-2.25 2.625-3.289 7.063-13.563 1.018-30.309-14.641-34.31-12.217-3.121-24.987-2.898-36.717 2.174-2.395 1.037-4.737 2.062-7.041 3.069-20.372-9.485-41.336-17.276-63.076-23.044-13.646-23.61-40.213-36.435-65.596-43.579-73.936-20.808-166.529-8.857-227.894 39.039-17.573 13.718-40.255 37.659-6.794 46.062 16.193 4.066 32.654 3.871 48.732 9.199 4.146 1.372 8.229 2.939 12.266 4.634-88.26 85.918-99.025 224.646-51.441 334.29 41.743 96.184 160.733 186.668 268.855 141.58 11.309 29.477 42.928 57.105 78.605 76.182 117.94 63.045 275.252 17.707 359.717-88.504 41.047-51.613 61.865-120.873 59.295-186.441-2.96-75.563-46.18-137.607-113.938-169.864z" fill="#68182b"/><path d="m807.277 470.432c-1.398-21.246-4.002-43.766-12.256-63.636-13.105-31.553-35.021-38.878-64.414-20.551-24.662 15.911-50.361 24.44-76.838 7.578-14.748-9.392-29.211-18.134-47.482-15.91-15.707 1.911-31.904 6.154-46.283 12.926-81.807 38.514-149.946 125.86-165.688 214.907-7.084 40.066-6.576 86.518 7.34 125.164 9.285 25.787 21.614 35.719 49.56 33.24 21.173-1.879 30.827 4.684 46.835 17.221 21.902 17.154 48.852 6.275 72.111-2.795 22.457-8.754 44.439-18.914 65.301-31.021 49.049-28.471 94.77-65.496 127.008-112.672 33.222-48.615 48.685-105.572 44.806-164.451zm-129.392 173.427c-24.459 26.588-53.889 48.771-87.133 63.102-11.816 6.529-24.826 10.695-39.082 13.686-23.619 4.957-45.563 7.625-63.042 25.898-.463.484-1.263-.016-1.101-.641 1.615-6.182 5.052-10.961 9.557-14.725.008-.012.012-.023.02-.031 4.123-4.332 7.084-8.354 9.232-13.521-11.034-7.75-13.905-23.826-15.167-45.76-.948-16.516-1.236-33.082-.227-49.588 4.324-70.658 30.125-139.668 97.088-172.616 15.797-7.771 32.361-13.944 49.463-18.179 17.189-4.256 38.73-11.671 56.459-10.365 32.619 2.404 48.813 30.481 51.42 61.75 4.782 57.309-30.073 120.319-67.487 160.99z" fill="#fac135"/><path d="m501.395 664.748c-2.666-63.115 5.15-130.35 51.037-176.986 20.492-20.826 47.475-33.818 75.002-42.515 15.34-4.846 31.135-7.667 46.914-10.618 29.061-5.438 44.096-.045 55.043 27.58 18.504 46.698-9.455 104.145-34.594 142.772-19.488 29.947-45.5 55.328-75.383 74.783-49.094 31.965-115.019 55.664-118.019-15.016z" fill="#aa8053"/><path d="m463.73 233.308c-13.027 5.399-25.695 9.748-40.891 11.63 1.01-8.855-.158-18.184-3.488-27.771 15.152 4.416 29.925 9.807 44.379 16.141z" fill="#ff8e5b"/><path d="m420.437 255.753c11.812-1.117 22.824-2.868 33.644-6.299-.478 2.489-.586 5.149-.347 7.928.605 7.094 5.781 16.417 13.54 17.196.243.024.417-.311.27-.471-4.745-5.107-7.839-10.41-7.896-18.568-.054-7.846 3.183-8.927 10.563-12.605 16.198-8.069 32.279-16.853 50.771-8.917 7.121 4.579 8.602 10.032 4.441 16.357-3.133 4.768-6.896 10.739-16.1 8.692-7.246-1.617-9.314-7.843-13.124-13.107-.127-.177-.416-.17-.479.064-1.963 7.022 4.502 15.217 10.881 17.517.074.027.148.052.225.079-2.592 2.407-4.688 4.959-6.887 8.037-6.797 9.507-15.086 12.08-24.438 17.681-3.105 1.862-5.814 4.12-8.322 6.547-4.301 4.165-6.922 7.129-13.333 6.743-3.774-.229-7.582-1.738-11.472-5.085-7.652-6.582-10.449-15.069-12.611-25.222-.752-3.536-1.328-3.723-1.625-.165-1.426 17.433 12.98 35.795 27.65 35.869-2.9 2.927-5.98 5.57-9.598 7.524-10.139 5.479-10.726 2.368-28.947-1.541-10.447-2.238-17.018-11.192-20.63-20.716-1.629-4.293-.728-6.49 2.847-9.04 7.292-5.209 16.102-13.995 20.977-28.498z" fill="#aa8053"/><path d="m317.861 271.262c6.369-8.758 10.408-18.837 15.783-28.187 12.092-21.039 34.837-18.004 44.877-15.199 8.676 2.427 17.174 5.299 25.405 8.705 8.118 3.355 8.231 10.262 4.877 18.399-6.346 15.38-20.288 24.416-30.042 28.806-26.041 11.718-56.457 13.01-85.715 8.662 10.137-4.572 19.416-13.759 24.815-21.186z" fill="#b1d045"/><path d="m282.685 290.669c-16.457-3.199-32.328-8.042-46.588-13.646-7.188-2.826-14.227-5.994-21.211-9.289 8.895-2.521 16.699-10.791 22.256-17.7 6.752-8.394 12.029-16.858 18.746-23.786 10.564-10.896 16.227-11.262 30.383-10.776 21.605.74 43.821 2.475 65.461 6.341-10.68 3.089-19.295 12.208-25.133 23.342-10.416 19.868-21.764 40.969-43.914 45.514z" fill="#b1d045"/><path d="m381.498 186.458c14.486 9.318 24.66 22.806 28.719 37.235 2.463 8.758 1.309 9.135-6.403 6.082-4.18-1.658-8.423-3.182-12.716-4.589-5.619-1.841-12.525-4.573-19.134-13.51-6.003-8.111-9.96-17.659-14.772-26.478-2.4-4.397-5.746-9.326-9.779-13.662 12.091 3.459 23.725 8.26 34.085 14.922z" fill="#b1d045"/><path d="m307.396 164.362c6.311.597 12.738 1.403 19.168 2.498 13.438 2.287 18.313 5.755 23.477 13.728 3.598 5.55 6.405 11.732 9.295 17.498 3.99 7.963 8.537 15.962 14.535 22.141-21.718-5.451-44.363-8.331-66.804-9.875-7.814-.537-15.661-1.201-21.242-4.788-9.203-5.914-15.129-16.291-21.222-25.038-4.4-6.319-10.746-12.753-17.967-16.449 20.657-1.817 41.287-1.551 60.76.285z" fill="#b1d045"/><path d="m223.843 166.957c11.444-1.909 22.891-.624 31.958 8.795 6.798 7.062 11.245 16.404 17.293 24.118 2.976 3.797 6.294 6.872 9.888 9.275-6.508-.22-12.961-.362-19.334-.459-12.582-.193-25.139.058-37.672.658-5.815.278-13.574 1.045-22.076-3.628-7.51-4.128-12.902-11.667-19.569-16.958-3.612-2.867-8.337-5.636-13.204-7.08 16.749-6.911 34.58-11.702 52.716-14.721z" fill="#b1d045"/><path d="m116.462 216.712c10.305-9.966 21.883-18.327 34.35-25.264 9.424-5.241 15.952-7.242 22.936-4.002 8.236 3.824 14.807 11.467 23.007 18.605 2.108 1.835 4.474 3.427 7 4.704-10.54.825-21.071 1.859-31.595 3.048-20.402 2.306-42.68 4.917-62.385 11.918.865-2.45 2.968-5.411 6.687-9.009z" fill="#b1d045"/><path d="m149.666 240.891c-2.292-.526-4.6-1.005-6.918-1.438-8.518-1.59-26.648-1.625-31.955-7.477 22.914-8.559 49.892-10.666 73.629-13.199.524-.056 1.049-.111 1.573-.165-.185.12-.372.239-.56.362-7.082 4.667-11.852 12.089-17.813 17.731-5.506 5.202-10.271 5.949-17.956 4.186z" fill="#b1d045"/><path d="m173.491 248.43c-3.276-1.356-6.591-2.578-9.939-3.68 4.812-2.297 9.071-6.868 12.381-10.577 4.918-5.511 9.771-10.427 16.237-14.152 1.818-1.047 3.795-1.87 5.852-2.553 20.437-1.752 40.907-2.551 61.432-2.489-6.42 4.173-11.727 11.208-15.869 17.097-5.231 7.44-9.828 15.382-15.824 22.25-8.248 9.45-20.333 9.843-26.524 6.846-9.163-4.436-18.342-8.85-27.746-12.742z" fill="#b1d045"/><path d="m374.341 730.855c-39.055 10.998-82.771 2.902-119.313-12.85-56.983-24.566-97.647-73.605-122.966-129.021-48.133-105.354-33.348-243.1 52.731-324.339 7.895 3.705 15.672 7.687 23.476 11.432 32.336 15.514 66.53 27.024 102.578 29.139 22.742 1.333 51.701-2.898 74.289-13.019 3.881 13.458 12.436 26.37 26.357 30.986 24.052 7.977 53.215 11.77 61.047 39.547 1.84 6.524 5.576 6.083 3.73-.469-4.496-15.946-14.432-27.781-27.785-36.534 14.922-7.419 22.338-23.799 39.383-30.965 8.34-3.507 13.422-7.267 18.821-14.316 5.139-6.71 9.393-10.634 16.271-14.271 21.922 15.117 42.182 32.012 60.201 51.67 11.996 13.088 26.391 30.823 29.168 49.404-10.934.125-21.994 2.6-32.602 5.43-33.836 9.026-63.318 29.873-89.422 52.549-66.787 58.01-112.304 143.207-110.506 232.725.35 17.469 1.514 36.904 5.476 55.445 2.662 12.432-.112 14.409-10.934 17.457z" fill="#ff8e5b"/><path d="m819.111 720.625c-74.371 93.52-212.305 133.617-321.992 91.729-18.583-7.096-36.106-15.006-52.712-27.496-9.612-7.23-13.036-11.039 2.331-11.084 8.244-.023 16.793-.012 23.877 1.365 10.756 2.09 20.713 15.191 30.317 20.896 31.434 18.662 80.031-9.566 108.656-23.049 45.344-21.355 87.012-50.453 122.605-85.707 60.568-59.988 90.857-137.283 85.252-222.389-1.549-23.499-5.5-49.239-16.58-70.683 48.17 33.934 75.799 85.608 78.227 147.511 2.488 63.567-20.571 129.346-59.981 178.907z" fill="#ff8e5b"/><path d="m212.865 248.354c-10.194 4.097-21.615 1.448-31.758-1.138-4.73-1.206-9.782-2.275-14.51-1.339 2.309.816 4.621 1.613 6.894 2.553 9.404 3.892 18.583 8.306 27.744 12.743 6.191 2.997 18.276 2.604 26.524-6.846 5.996-6.868 10.593-14.81 15.824-22.25 3.176-4.515 7.041-9.69 11.562-13.747-5.031.99-10.044 2.551-14.042 5.64-10.043 7.761-16.051 19.486-28.238 24.384z" fill="#abab38"/><path d="m149.666 240.891c7.686 1.763 12.45 1.016 17.957-4.186 2.853-2.699 5.434-5.805 8.125-8.822-4.094 2.363-8.535 4.171-12.98 5.461-14.6 4.231-30.166-.105-44.703 2.411 7.711 2.213 18.621 2.567 24.684 3.699 2.317.432 4.625.911 6.917 1.437z" fill="#abab38"/><path d="m383.449 265.813c-9.178 7.96-20.635 13.185-31.915 17.348-15.069 5.56-30.749 8.804-46.618 10.714 25.502 2.374 51.313.052 73.846-10.089 9.754-4.39 23.696-13.426 30.042-28.806 3.354-8.137 3.241-15.044-4.877-18.399-1.647-.683-3.351-1.251-5.019-1.891 4.972 11.2-7.725 24.414-15.459 31.123z" fill="#abab38"/><path d="m357.191 185.199c4.813 8.818 8.77 18.367 14.772 26.478 6.608 8.937 13.515 11.669 19.134 13.51 4.293 1.407 8.536 2.931 12.716 4.589 7.712 3.053 8.866 2.676 6.403-6.082-.479-1.708-1.059-3.398-1.707-5.073-14.506 2.086-27.771-4.636-37.65-18.473-5.225-7.317-9.26-17.76-17.846-21.654 1.596 2.275 3.002 4.554 4.178 6.705z" fill="#abab38"/><path d="m184.331 188.758c6.667 5.291 12.06 12.829 19.569 16.958 8.502 4.673 16.261 3.906 22.076 3.628 12.533-.601 25.09-.852 37.672-.658 6.373.097 12.826.239 19.334.459-3.594-2.403-6.912-5.478-9.888-9.275-.513-.654-.965-1.37-1.458-2.044-15.514 8.454-31.713 6.876-49.622 1.631-15.384-4.509-29.772-16.13-46.136-15.906 3.115 1.459 6.041 3.294 8.453 5.207z" fill="#abab38"/><path d="m305.273 251.655c-11.486 10.813-23.7 18.186-39.367 21.174-15.035 2.867-30.217.327-45.087-2.378 5.044 2.302 10.116 4.542 15.278 6.572 14.26 5.604 30.131 10.447 46.588 13.646 22.15-4.546 33.498-25.646 43.914-45.514 5.435-10.367 13.301-18.918 22.977-22.55-18.055 2.31-31.467 16.968-44.303 29.05z" fill="#abab38"/><path d="m115.093 224c18.342-5.7 38.472-8.094 57.066-10.196 10.523-1.189 21.055-2.223 31.595-3.048-2.526-1.277-4.892-2.869-7-4.704-2.952-2.569-5.689-5.198-8.372-7.697-21.548 14.374-55.405 6.169-73.289 25.645z" fill="#abab38"/><path d="m323.664 207.76c-11.446-2.162-22.559-6.249-32.653-12.029-12.472-7.142-24.847-27.144-40.235-29.153 5.491 3.746 10.295 8.871 13.828 13.948 6.093 8.747 12.019 19.124 21.222 25.038 5.581 3.587 13.428 4.251 21.242 4.788 22.44 1.545 45.086 4.425 66.804 9.875-4.192-4.317-7.648-9.544-10.728-15.005-9.381 7.921-29.75 4.377-39.48 2.538z" fill="#abab38"/><path d="m347.35 201.344c.469.202.995-.027 1.017-.582.279-7.341-5.055-12.327-10.573-16.497-5.319-4.02-13.074-9.295-20.101-8.059-.236.043-.322.343-.216.533 3.005 5.327 9.884 8.46 14.596 12.12 5.329 4.138 8.96 9.785 15.277 12.485z" fill="#d7e338"/><path d="m392.119 203.377c-1.18-2.417-3.786-4.488-5.757-6.229-2.78-2.456-7.632-6.274-11.613-4.834-.239.086-.313.309-.216.533 1.426 3.295 5.355 5.807 7.902 8.226 1.617 1.535 3.117 3.217 4.577 4.898 1.562 1.792 3.356 2.302 5.325 3.417.375.212.955-.051.916-.527-.171-2.084-.191-3.559-1.134-5.484z" fill="#d7e338"/><path d="m259.533 191.329c-4.604-13.528-26.948-21.207-39.74-16.075-.318.13-.461.591-.104.784 6.723 3.624 14.813 4.143 21.84 7.512 5.943 2.849 10.914 6.504 17.175 8.608.473.16.991-.354.829-.829z" fill="#d7e338"/><path d="m161.688 193.643c-3.911.36-9.094 1.469-11.245 5.097-.167.278-.002.601.283.702 3.395 1.174 7.463-.025 10.962-.329 3.949-.342 7.475-.434 11.379-1.209.385-.078.545-.654.241-.909-3.686-3.072-6.836-3.794-11.62-3.352z" fill="#d7e338"/><path d="m222.288 228.918c-2.228 1.057-4.315 1.384-6.381 2.705-2.324 1.483-4.425 3.199-6.845 4.556-4.147 2.322-9.168 2.034-13.211 4.271-.254.142-.238.444-.082.646 3.24 4.178 9.979 3.038 14.318 1.533 3.034-1.051 6.013-2.728 8.452-4.813 2.938-2.509 3.374-4.708 4.593-8.246.18-.523-.429-.85-.844-.652z" fill="#d7e338"/><path d="m299.273 243.561c-6.525 3.565-12.916 7.521-19.556 10.91-9.721 4.961-20.853 5.237-30.386 10.04-.146.074-.153.327 0 .399 15.679 7.245 44.618-4.686 51.005-20.53.255-.63-.559-1.094-1.063-.819z" fill="#d7e338"/><path d="m306.875 237.53c-2.679-.494-4.388 1.489-5.286 3.886-.078.208.084.396.264.465 1.425.551 2.529.277 3.818-.517 1.465-.901 1.773-1.958 1.515-3.523-.022-.14-.173-.286-.311-.311z" fill="#d7e338"/><path d="m385.782 246.68c-15.04 12.837-32.454 19.065-49.272 28.81-.545.314-.318 1.209.326 1.195 11.512-.263 21.021-4.377 30.943-10.05 7.256-4.146 17.222-10.84 18.416-19.714.033-.243-.211-.412-.413-.241z" fill="#d7e338"/><path d="m331.626 276.711c-1.279-.526-3.172-.066-4.035 1.037-.317.405-.461 1.053 0 1.44 1.438 1.208 3.791 1.004 4.777-.652.452-.753-.017-1.527-.742-1.825z" fill="#d7e338"/><path d="m308.937 173.121c-.202.086-.139.354 0 .457 1.402 1.029 2.715 2.205 4.517 2.285 1.224.056 1.542-1.384.903-2.184-1.379-1.724-3.61-1.325-5.42-.558z" fill="#d7e338"/><path d="m807.277 470.432c-1.398-21.246-4.002-43.766-12.256-63.636-13.105-31.553-35.021-38.878-64.414-20.551-6.117 3.947-12.301 7.436-18.541 10.2 4.766-.522 9.645-2.217 13.605-3.625 11.852-4.214 21.9-10.441 35.074-8.647 23.824 3.244 33.463 32.661 36.814 52.74 4.381 26.247 1.758 53.931-2.861 79.926-9.305 52.375-30.754 102.904-66.105 142.918-27.641 31.283-61.191 56.492-97.385 77.049-21.602 12.27-44.229 22.688-67.162 32.197-21.369 8.861-42.266 17.299-63.533 3.695-9.842-6.297-17.327-17.434-28.338-21.84-9.202-3.682-19.063-2.18-28.684-1.613-15.451.914-27.456-5.514-34.408-19.277-12.07-23.895-13.463-55.227-13.706-81.393-.214-23.182 2.24-46.316 5.18-69.32-2.567 8.783-4.673 17.627-6.241 26.49-7.084 40.066-6.576 86.518 7.34 125.164 9.285 25.787 21.614 35.719 49.56 33.24 21.173-1.879 30.827 4.684 46.835 17.221 21.902 17.154 48.852 6.275 72.111-2.795 22.457-8.754 44.439-18.914 65.301-31.021 49.049-28.471 94.77-65.496 127.008-112.672 33.222-48.614 48.685-105.571 44.806-164.45z" fill="#ee9e2b"/><path d="m651.674 421.444c-34.949 5.832-70.379 17.926-98.699 39.565-35.457 27.092-58.345 70.51-68.163 113.352-6.074 26.506-6.451 53.996-4.295 80.986.986 12.381 2.453 24.74 4.868 36.928 2.456 12.393 11.36 27.975 9.542 40.961.701-.703 1.389-1.416 2.157-2.057.008-.012.012-.023.02-.031 4.123-4.332 7.084-8.354 9.232-13.521-11.034-7.75-13.905-23.826-15.167-45.76-.948-16.516-1.236-33.082-.227-49.588 4.324-70.658 30.125-139.668 97.088-172.616 15.797-7.771 32.361-13.944 49.463-18.179 17.189-4.256 38.73-11.671 56.459-10.365 5.908.436 11.262 1.736 16.111 3.723-15.999-9.587-42.307-6.082-58.389-3.398z" fill="#ee9e2b"/><path d="m629.813 393.684c-18.84-4.707-41.139.617-58.064 7.174-25.178 9.758-47.23 26.549-67.145 44.463-20.901 18.802-39.265 40.548-54.893 63.89-9.107 13.6-18.527 29.281-24.287 45.643-6.37 18.109-2.176 19.865 8.106 4.258 52.958-80.379 113.365-134.56 199.628-153.385 12.283-2.68 12.973-7.965-3.345-12.043z" fill="#fbe134"/><path d="m745.49 467.153c-3.164-9.178-7.502-18.558-14.215-25.461 8.215 11.165 12.814 25.776 14.098 41.176 4.781 57.309-30.074 120.319-67.488 160.991-24.459 26.588-53.889 48.771-87.133 63.102-11.816 6.529-24.826 10.695-39.082 13.686-18.762 3.938-36.461 6.459-51.711 16.48 13.451-3.195 27.637-4.414 40.711-6.125 22.375-2.928 44.209-7.336 65.234-15.697 38.313-15.23 71.369-42.801 96.457-75.172 25.164-32.475 40.24-70.566 46.549-111.016 3.186-20.429 3.387-42.231-3.42-61.964z" fill="#fbe134"/><path d="m446.191 315.548c3.617-1.954 6.697-4.597 9.598-7.524-9.354-.047-18.578-7.539-23.682-17.474-.119 1.942-.621 3.954-1.762 6.169-2.953 5.743-9.309 8.837-15.451 9.144-4.26.211-8.658-1.031-12.957-2.479 3.728 5.171 8.752 9.219 15.307 10.625 18.221 3.907 18.808 7.019 28.947 1.539z" fill="#865725"/><path d="m501.814 254.268c1.84 2.229 4.09 4.036 7.508 4.799 9.203 2.047 12.967-3.925 16.1-8.692 2.887-4.388 2.992-8.345.451-11.892-.686 3.295-2.357 6.354-5.146 9.147-4.61 4.618-12.331 8.172-18.913 6.638z" fill="#865725"/><path d="m718.469 443.435c5.277 9.999 7.412 22.042 7.971 33.134 1.16 23.033-6.764 46.404-15.947 67.17-17.588 39.756-45.66 76.367-77.713 105.498-15.863 14.42-33.43 28.584-52.488 38.518-18.297 9.537-47.91 15.24-65.041.695-6.898-5.859-11.182-14.342-13.846-23.557 3.088 70.494 68.951 46.813 118.01 14.871 29.883-19.455 55.895-44.836 75.383-74.783 25.139-38.627 53.098-96.074 34.594-142.772-3.204-8.082-6.773-14.212-10.923-18.774z" fill="#865725"/><path d="m432.816 283.345c2.014 5.41 4.871 10.163 9.559 14.197 3.89 3.347 7.697 4.856 11.472 5.085 6.411.387 9.032-2.578 13.333-6.743 2.508-2.427 5.217-4.686 8.322-6.547 9.352-5.601 17.641-8.174 24.438-17.681 2.199-3.078 4.295-5.63 6.887-8.037-.076-.027-.15-.052-.225-.079-3.434-1.238-6.844-4.2-9-7.75-2.362 14.623-17.155 19.019-29.065 26.117-9.321 5.558-27.901 12.037-35.721 1.438z" fill="#865725"/><path d="m620.158 494.984c-.385-.041-.588.514-.314.759 2.328 2.069 4.43 4.303 6.854 6.31 2.119 1.752 4.299 3.215 7.082 2.123.443-.174.787-.514.781-1.023-.084-6.431-9.622-7.661-14.403-8.169z" fill="#865725"/><path d="m682.826 528.604c-.445.572-.057 1.412.719 1.238 4.572-1.021 10.135-.859 13.648-4.42.318-.322.264-.898-.145-1.123-5.097-2.819-10.966.113-14.222 4.305z" fill="#865725"/><path d="m590.074 643.926c-1.859 4.316-4.533 8.764-2.428 13.521.279.631 1.23.666 1.668.217 3.539-3.633 3.725-9.084 2.023-13.572-.183-.487-.999-.778-1.263-.166z" fill="#865725"/><path d="m547.014 565.594c-2.695-.605-7.721-.857-9.611 1.539-.32.406-.32.816 0 1.223 1.676 2.131 5.283 1.924 7.777 2.072 2.559.15 6.947 1.201 9.18-.236.152-.098.227-.268.182-.445-.724-2.886-5.069-3.599-7.528-4.153z" fill="#865725"/><path d="m523.137 622.277c-.08.488.223 1.174.834 1.096 2.92-.373 5.211-1.885 7.627-3.486 2.82-1.869 5.959-3.576 8.203-6.121.332-.377.086-.871-.385-.928-5.652-.656-15.25 3.119-16.279 9.439z" fill="#865725"/><path d="m577.152 502.973c1.678-1.938 2.643-4.167 3.473-6.567.877-2.534 2.047-4.745 1.607-7.487-.053-.329-.398-.498-.691-.524-6.873-.623-7.527 10.102-5.553 14.429.192.418.869.487 1.164.149z" fill="#865725"/><path d="m679.672 456.92c-6.438 1.173-10.939 7.636-11.66 13.934-.049.432.547.759.891.512 4.84-3.479 9.52-8.002 11.529-13.687.17-.483-.336-.837-.76-.759z" fill="#865725"/><path d="m704.555 466.785c-.592.685-1.654 1.357-2.031 2.183-.486 1.059-.965 2.125-1.338 3.229-.727 2.146-1.781 4.815-2.988 6.732-.365.58.365 1.322.947.946 1.182-.765 2.463-1.146 3.588-2.041 1.135-.903 2.094-1.828 2.967-2.986 1.963-2.608 2.041-5.342.096-7.903-.286-.374-.876-.582-1.241-.16z" fill="#865725"/><path d="m638.137 595.58c-.32-.422-1.059-.199-.9.381.623 2.313.551 4.965.967 7.346.383 2.182.625 4.645 2.629 5.883.957.592 1.965.121 2.578-.676 1.475-1.916.371-4.506-.414-6.527-1.069-2.749-3.147-4.169-4.86-6.407z" fill="#865725"/><path d="m582.029 541.682c-6.266 1.922-11.984 8.906-10.162 15.682.113.422.645.543.949.25 4.229-4.045 8.531-9.24 10.215-14.93.172-.586-.412-1.182-1.002-1.002z" fill="#865725"/><path d="m555.307 506.283c-2.227.063-5.867 1.053-6.313 3.625-.359 2.088 3.322 2.08 4.549 2.154 2.92.176 5.934-.834 8.523-1.926.455-.191.721-.756.307-1.156-2.01-1.931-4.178-2.783-7.066-2.697z" fill="#865725"/><path d="m682.475 483.796c-2.174 10.205-8.449 19.063-16.045 26.659-6.176 6.18-13.23 11.521-19.666 16.07-16.896 11.938-35.426 25.865-50.137 40.475-26.404 26.223-41.49 59.934-45.402 83.92-1.736 10.654-.826 12.039 9.619 3.549 42.221-34.316 92.695-108.604 109.541-143.58 1.561-3.24 12.449-19.848 12.438-27.045-.001-.196-.305-.247-.348-.048z" fill="#d4ba89"/><path d="m665.652 581.207c.139-.27.188-.445.201-.748.023-.475-.287-1.08-.734-1.283-3.693-1.662-8.26-2.945-11.969-.813-.373.217-.162.689.199.736 3.66.475 7.014 2.264 10.627 2.791.639.092 1.348-.044 1.676-.683z" fill="#d4ba89"/><path d="m549.615 522.701c2.811 2.877 6.533 3.189 10.129 4.57.463.18.742-.391.576-.748-1.848-3.982-6.322-5.732-10.473-4.703-.39.098-.501.604-.232.881z" fill="#d4ba89"/><path d="m533.582 545.604c-2.598 2.6 5.139 4.193 6.293 4.805.332.174.77-.113.65-.502-.64-2.155-4.359-6.886-6.943-4.303z" fill="#d4ba89"/><path d="m698.904 506.826c.178-.322.066-.678-.227-.877-2.127-1.436-4.686-.486-6.945.104-2.283.596-4.152 1.867-5.563 3.729-.164.219.059.559.313.545 2.375-.139 4.684-.326 7.021-.814 2.087-.437 4.276-.632 5.401-2.687z" fill="#d4ba89"/><path d="m623.674 522.959c.092-.389-.24-.715-.627-.629-4.268.955-8.691 5.785-8.271 10.385.039.438.502.639.844.35 1.627-1.395 3.113-3.053 4.6-4.596 1.635-1.699 2.907-3.149 3.454-5.51z" fill="#d4ba89"/><path d="m538.42 684.814c.164 1.006 1.428 1.314 2.211.902 1.348-.711 2.117-2.004 2.775-3.338.676-1.365 1.566-2.725 1.703-4.27.025-.279-.273-.592-.561-.559-3.183.357-6.667 4.008-6.128 7.265z" fill="#d4ba89"/><path d="m653.623 480.589c-.59 2.012-.668 3.17-.225 5.294.475 2.255.729 4.598 1.055 6.876.053.373.553.341.721.095 1.441-2.112 2.053-4.192 2.363-6.726.334-2.738-.557-4.634-2.826-5.981-.416-.247-.953-.012-1.088.442z" fill="#d4ba89"/><path d="m678.199 547.465c1.752.221 3.029.424 4.619-.406.285-.146.352-.521.207-.787-1.869-3.436-7.443-2.461-10.102-.561-.293.207-.258.633.1.752 1.727.576 3.358.775 5.176 1.002z" fill="#d4ba89"/><path d="m690.486 450.025c-1.58.679-1.865 2.684-2.346 4.143-.578 1.759-1.352 3.462-1.227 5.354.027.452.445.658.84.483 2.633-1.162 8.186-6.829 4.928-9.696-.675-.594-1.394-.627-2.195-.284z" fill="#d4ba89"/><path d="m625.24 460.283c-.205 2.828 1.945 5.77 2.984 8.249.162.389.631.391.793 0 .813-1.946 1.6-3.301 1.719-5.488.096-1.745-.402-3.898-2.129-4.692-1.587-.73-3.24.144-3.367 1.931z" fill="#d4ba89"/><path d="m543.797 628.215c-1.391.902-2.779 1.988-3.795 3.303-1.174 1.518-1.246 3.217-1.453 5.051-.057.52.633.689.955.395 1.197-1.1 2.309-1.988 3.186-3.371.875-1.383 1.322-3.266 1.855-4.801.146-.421-.385-.817-.748-.577z" fill="#d4ba89"/><path d="m520.305 595.307c.246-.447-.154-.92-.631-.82-3.279.67-6.238 1.322-7.363 4.828-.094.295.107.693.424.748 3.716.664 5.896-1.719 7.57-4.756z" fill="#d4ba89"/><path d="m510.639 644.965c.939.551 2.264-.777 2.662-1.459 1.133-1.932.76-4.65 1.205-6.768.148-.703-.785-1.135-1.172-.494-.994 1.645-5.816 6.891-2.695 8.721z" fill="#d4ba89"/><path d="m260.035 301.623c22.512 10.836 44.173 19.794 69.664 17.999 12.6-.889 24.384-5.942 37.083-6.364 14.195-.471 23.96 12.07 34.162 19.967 18.513 14.327 43.245 5.786 63.44 14.261-12.453-14.376-34.193-18.099-52.891-24.301-13.922-4.616-22.477-17.527-26.357-30.986-22.588 10.12-51.547 14.351-74.289 13.019-26.82-1.574-52.612-8.36-77.378-18.116 8.559 5.355 17.472 10.144 26.566 14.521z" fill="#ff564d"/><path d="m291.539 670.533c-79.233 8.719-137.776-43.338-170.486-109.482 3.209 9.51 6.858 18.848 11.01 27.934 25.318 55.416 65.982 104.455 122.966 129.021 36.542 15.752 80.259 23.848 119.313 12.85 10.821-3.049 13.596-5.025 10.935-17.457-3.962-18.541-5.126-37.977-5.476-55.445-.197-9.832.208-19.605 1.119-29.305-25.389 21.929-55.215 38.126-89.381 41.884z" fill="#ff564d"/><path d="m819.111 720.625c16.057-20.189 29.338-43.098 39.346-67.426-54.58 71.086-139.246 122.531-228.844 125.834-9.777.361-19.307-.383-28.688-1.861-29.035 14.234-71.545 35.754-99.994 18.863-9.604-5.705-19.561-18.807-30.317-20.896-7.084-1.377-15.633-1.389-23.877-1.365-15.367.045-11.943 3.854-2.331 11.084 16.606 12.49 34.129 20.4 52.712 27.496 109.689 41.888 247.622 1.791 321.993-91.729z" fill="#ff564d"/><path d="m344.126 398.071c-20.441-27.933-52.578-9.925-78.772-7.257-21.069 2.149-30.167-13.713-40.483-30.319-18.781-30.235-48.708-21.236-62.652 26.646-22.735 78.053-16.189 170.071 33.285 219.627 57.654 57.752 136.859-34.996 159.252-136.613 5.275-23.949 3.958-52.148-10.63-72.084z" fill="#fbc471"/><path d="m836.07 502.326c.234 20.947-3.176 98.621-46.949 160.617-11.67 16.527-2.146 26.328 24.115-1.107 39.318-41.08 49.922-67.213 49.111-116.926-.273-16.859-4.016-32.008-10.59-46.281-13.773-29.896-15.886-14.099-15.687 3.697z" fill="#fbc471"/><path d="m404.169 361.733c-11.094-2.119-23.302-2.1-33.381 4.959-12.23 8.567-14.678 27.585-2.957 43.981 11.656 16.301 35.914 26.981 56.335 1.816 3.702-4.564 6.642-9.546 8.31-14.286 8.253-23.45-14.811-33.895-28.307-36.47z" fill="#fbc471"/><g fill="#68182b"><path d="m189.711 290.559c-37.548 35.12-54.678 92.593-61.466 141.872-6.991 50.755-1.367 102.345 20.818 148.703.387.805 1.753.23 1.444-.609-17.712-48.268-21.294-101.612-14.386-152.304 6.943-50.974 27.723-93.789 55.242-136.386.674-1.038-.802-2.073-1.652-1.276z"/><path d="m545.178 669.41c34.785-20.619 61.385-53.885 84.016-86.76 12.436-18.066 23.754-36.975 34.834-55.893 9.398-16.051 18.375-32.78 24.385-50.459 3.352-9.841.957-9.419-3.732-.51-8.65 16.431-17.086 26.262-21.42 30.784-13.539 14.131-29.514 25.166-46.082 37.453-26.166 19.41-50.109 47.393-61.031 78.889-3.154 9.105-1.096 9.291 3.9.875 9.697-16.336 18.311-32.936 30.91-47.682 10.824-12.672 23.824-23.084 37.383-32.664 9.566-6.76 18.652-13.389 26.775-20.754 6.5-5.893 6.828-4.25 2.191 3.764-9.385 16.232-19.314 32.182-29.828 47.91-23.371 34.953-51.137 65.1-83.586 91.357-8.641 6.991-8.024 9.202 1.285 3.69z"/><path d="m486.859 270.153c.244-.047.339-.354.226-.555-1.298-2.306-3.593-3.357-5.489-5.081-1.745-1.586-2.744-3.927-4.66-5.309-.205-.148-.458.016-.532.216-1.006 2.711 1.194 5.488 2.945 7.343 1.959 2.08 4.521 3.979 7.51 3.386z"/><path d="m433.31 306.88c.348.006.65-.434.426-.743-1.576-2.162-3.557-3.472-5.427-5.371-2.063-2.096-3.754-4.924-5.29-7.424-.156-.255-.488-.121-.521.142-.399 3.246.56 5.737 2.644 8.333 2.166 2.698 4.602 4.997 8.168 5.063z"/><path d="m710.33 681.086c37.27-32.09 65.365-77.209 76.4-125.229.053-.232-.264-.307-.35-.096-8.984 22.207-18.951 43.832-31.416 64.322-13.082 21.5-29.043 41.201-45.24 60.396-.355.423.186.968.606.607z"/><path d="m482.8 639.418c-1.146-21.199-.139-42.42 4.66-63.207 5.094-22.059 15.655-41.432 23.391-62.467.078-.209-.244-.404-.385-.223-27.049 34.184-37.499 83.883-30.345 126.936 1.646 9.873 3.232 9.141 2.679-1.039z"/><path d="m514.389 509.195c1.652-1.211 2.789-3.209 3.916-4.885 1.477-2.197 2.539-4.104 3.236-6.671.092-.342-.277-.611-.58-.446-2.512 1.369-4.02 3.02-5.449 5.482-1.055 1.82-2.158 4.078-1.848 6.225.043.299.486.469.725.295z"/><path d="m156.884 591.533c-1.066-1.531-2.324-2.5-3.513-3.893-.389-.457-1.112-.072-1.123.465-.078 4.287.87 6.92 3.061 10.705 2.259 3.9 4.546 7.994 8.783 9.988.509.236 1.22-.037 1.188-.684-.195-4.18-2.551-7.322-4.751-10.715-1.254-1.932-2.328-3.975-3.645-5.866z"/><path d="m574.836 532.479c3.059-2.271 5.404-5.611 7.932-8.443 2.871-3.215 5.279-6.949 8.332-9.922.459-.443-.016-1.139-.592-1.016-5.057 1.08-8.232 3.234-11.422 7.256-2.48 3.127-4.82 7.564-5.189 11.586-.042.447.572.814.939.539z"/><path d="m597.172 520.314c1.859-1.32 3.641-2.734 5.551-3.996 1.123-.738 2.277-1.416 3.375-2.195 1.375-.977 2.361-2.52 3.754-3.566.311-.234.268-.877-.225-.828-3.479.336-6.057.512-8.834 2.816-2.225 1.85-4.084 4.523-4.166 7.457-.008.26.32.473.545.312z"/><path d="m695.461 562.078c4.197-1.186 5.523-5.539 7.014-9.229 1.533-3.797 3.086-9.641 1.002-13.463-.162-.293-.627-.371-.855-.111-2.467 2.85-3.328 7.354-4.674 10.838-1.441 3.725-4.297 7.352-3.314 11.492.083.358.485.571.827.473z"/><path d="m703.301 560.732c-1.631.865-3.064 2.295-4.502 3.447-1.807 1.443-2.641 2.674-3.32 4.83-.078.248.09.604.367.646 2.613.398 4.334-.279 6.16-2.27 1.379-1.504 2.732-3.852 2.508-5.959-.065-.608-.633-1.002-1.213-.694z"/><path d="m622.475 640.002c-3.334-.564-5.178 2.359-7.387 4.432-3.064 2.875-6.064 5.393-9.807 7.336-.193.102-.16.443.064.482 3.791.68 7.66-.748 10.928-2.594 2.936-1.658 7.988-5.246 6.754-9.104-.08-.245-.281-.507-.552-.552z"/><path d="m632.523 638.188c-2.08 1.068-3.207 2.791-4.561 4.633-.635.869-1.219 1.771-1.787 2.686-.484.779-.289 1.422-.607 2.223-.057.146.117.32.264.264.803-.318 1.42-.164 2.201-.633 1.041-.619 1.949-1.479 2.814-2.311 1.779-1.715 3.195-4.029 2.475-6.535-.101-.351-.486-.488-.799-.327z"/><path d="m538.527 597.918c.332.078.604-.059.797-.326 2.086-2.902-.041-7.271-.234-10.504-.23-3.867.715-7.941.004-11.725-.059-.324-.451-.342-.66-.176-3.387 2.725-4.123 7.795-4.287 11.9-.141 3.503.238 9.851 4.38 10.831z"/><path d="m536.779 606.98c.207-.035.402-.252.447-.449.613-2.648-1.896-5.203-2.801-7.551-.268-.691-1.475-5.377-2.828-4.906-2.396.838-.996 5.768-.391 7.367.896 2.37 2.458 6.061 5.573 5.539z"/><path d="m697.074 498.073c2.934 1.584 6.963.972 9.959-.156 1.41-.528 3.195-1.31 4.24-2.438 1.328-1.436 1.381-2.411 1.387-4.264.002-.376-.336-.552-.666-.508-1.025.138-1.998-.167-2.975.397-1.309.755-2.537 1.635-3.852 2.39-2.568 1.477-5.578 2.001-8.094 3.501-.391.234-.421.853.001 1.078z"/><path d="m712.895 498.443c.635-.133 1.117.048 1.736.102.756.067 1.672-.502 2.313-.819 1.422-.705 2.898-2.207 3.201-3.785.295-1.539-1.096-2.497-2.471-1.898-1.225.533-2.051 1.693-2.842 2.732-.461.603-.908 1.213-1.293 1.865-.354.599-.115 1-.809 1.413-.216.128-.07.44.165.39z"/><path d="m640.119 475.371c.971-.955 2.314-1.683 3.365-2.569 1.223-1.032 2.406-2.123 3.623-3.167 1.287-1.109 2.549-2.199 3.938-3.184 1.316-.932 2.701-1.578 3.064-3.279.154-.728-.082-1.567-.789-1.933-3.314-1.726-6.924 2.236-9.041 4.402-1.23 1.255-2.264 2.902-3.037 4.466-.789 1.598-1.166 3.229-1.838 4.85-.172.414.434.691.715.414z"/><path d="m648.379 458.006c1.945-.447 3.773-1.031 5.684-1.64 1.77-.563 3.436-.794 4.977-1.907.213-.152.375-.475.189-.72-3.129-4.161-9.512.302-11.426 3.517-.239.4.15.849.576.75z"/><path d="m656.998 595.262c-.613-.348-1.16.322-.898.9 1.51 3.359 1.951 7.096 2.018 10.746.033 1.799-2.076 7.631 1.637 7.348.764-.061 1.633-.385 1.984-1.141 2.609-5.584.798-14.736-4.741-17.853z"/><path d="m659.475 589.166c-.256.021-.436.277-.297.52.645 1.139 1.492 2.096 2.23 3.178.879 1.287.92 2.863 1.936 4.088.586.703 1.875.488 2.277-.293 1.877-3.647-2.59-7.809-6.146-7.493z"/><path d="m571.748 674.479c-.285-.504-.393-.521-.869-.869-.729-.533-1.703-.342-2.445 0-2.035.936-3.879 2.32-5.91 3.307-2.215 1.078-4.773 1.211-7.076 2.037-.354.125-.457.605-.107.813 4.588 2.715 12.6 2.029 16.031-2.35.687-.882.968-1.901.376-2.938z"/><path d="m579.094 674.586c-.795.383-1.586.609-2.324 1.1-.9.6-1.498 1.611-2.146 2.451-.527.68-1.002 1.402-1.555 2.064-.566.68-1.014 1.811-1.68 2.363-.365.303.025.891.449.77.949-.273 1.791-.162 2.752-.521 1.033-.389 2.098-1.055 2.926-1.781 2.016-1.768 2.639-3.23 2.594-5.863-.008-.542-.559-.804-1.016-.583z"/><path d="m555.879 550.152c2.264 1.426 4.27-2.094 2.078-3.555-5.518-3.674-6.266-9.783-9.76-14.867-.209-.303-.631-.246-.754.1-2.316 6.477 3.094 14.965 8.436 18.322z"/><path d="m550.779 551.756c1.025 3.234 5.107 5.055 8.305 4.936 1.609-.057 2.498-2.418.873-3.215-2.525-1.236-5.717-1.783-8.447-2.451-.424-.104-.869.283-.731.73z"/><path d="m597.691 483.07c2.604-.319 5.271-.611 7.898-.568 2.764.045 5.34 1.121 8.063 1.271 2.141.12 2.617-2.748 1.027-3.791-4.809-3.159-13.488-1.582-17.186 2.61-.141.161-.065.511.198.478z"/><path d="m618.176 477.434c1.061.393 2.096 1.037 3.18 1.335.854.234 1.664-.101 2.482-.273.373-.079.496-.461.449-.79-.359-2.542-2.047-3.291-4.408-3.853-1.959-.467-4.641-.3-6.248 1.006-.119.097-.113.321 0 .419 1.25 1.078 3.019 1.593 4.545 2.156z"/><path d="m648.623 623.918c-2.408-.572-4.842-.824-7.254-1.484-2.422-.662-4.678-2.088-7.17-2.408-.238-.031-.438.266-.363.479 1.727 4.992 9.623 9.719 14.787 8.203 2.289-.671 2.455-4.208 0-4.79z"/><path d="m657.633 628.508c-2.246-.242-4.207 1.609-6.086 2.625-.299.162-3.289 1.146-2.803 2.025.879 1.574 4.023 1.277 5.504.965 2.324-.49 4.609-1.594 4.82-4.182.067-.837-.709-1.355-1.435-1.433z"/><path d="m657.773 562.318c-.406.186-.365.826 0 1.023 2.623 1.416 5.297 2.16 7.789 3.934 1.971 1.4 3.521 4.064 5.754 4.869 1.006.361 2.482-.402 2.645-1.502.926-6.261-11.531-10.439-16.188-8.324z"/><path d="m678.65 563c-1.922-1.598-4.113-2.121-6.537-1.869-.223.023-.438.328-.209.506 1.191.938 6.703 8.945 8.459 6.416 1.385-1.996-.15-3.75-1.713-5.053z"/><path d="m531.59 653.377c1.094.748 2.293-.279 2.402-1.379.217-2.209-1.238-5.115-1.807-7.291-.389-1.49-.672-3.002-1.049-4.492-.305-1.197-1.088-2.568-1.279-3.738-.043-.266-.5-.271-.539 0-.166 1.15-.789 2.049-.904 3.238-.18 1.85-.109 3.648.049 5.496.23 2.685.773 6.555 3.127 8.166z"/><path d="m528.697 659.326c2.262-.463.354-3.213-.455-4-1.008-.979-1.719-2.271-2.354-3.51-.533-1.043-1.041-1.844-1.678-2.77-.119-.172-.367-.186-.482 0-.594.951-.834 1.293-.959 2.467-.139 1.277.281 2.641.764 3.799.846 2.02 2.76 4.506 5.164 4.014z"/></g></g></g></svg>