<svg id="Fruit" height="512" viewBox="0 0 992.13 992.13" width="512" xmlns="http://www.w3.org/2000/svg"><g><path d="m871.156 587.833c-8.797-70.324-11.93-142.799-14.958-212.888l-.917-21.108c-1.939-44.646-3.772-86.815-43.741-125.307-15.289-14.722-32.902-22.503-50.938-22.503-10.111 0-20.16 2.414-29.877 7.185-10.453 5.136-20.932 12.948-32.028 23.879-.124.121-.245.243-.364.366-29.353 30.184-61.188 60.694-96.928 92.878-49.773-41.64-96.389-90.816-139.632-138.209-9.938-10.894-19.168-22.47-28.938-34.726-17.443-21.879-35.48-44.506-58.243-63.521-11.764-9.828-24.796-14.812-38.738-14.812-23.616 0-46.982 14.425-69.448 42.875-16.966 21.479-23.849 47.78-29.921 70.985-.981 3.752-1.952 7.46-2.951 11.091-15.74 57.099-34.775 124.462-56.607 191.173-20.981 64.112-40.368 116.676-61.007 165.419-2.022 4.774-5.237 11.007-8.642 17.604-15.719 30.455-39.473 76.479-12.416 111.6 11.784 15.3 30.264 20.37 43.758 24.07 2.061.565 4.05 1.108 5.911 1.673 22.973 6.965 47.569 12.576 75.194 17.152 38.541 6.389 80.266 9.627 124.016 9.627 8.886 0 18-.132 27.185-.395 5.883 5.965 12.264 12.246 19.553 19.261 56.836 54.69 134.681 99.645 219.199 126.585 53.135 16.938 111.332 21.1 166.306 23.074 4.587.164 9.536.524 14.697.895 8.551.611 18.239 1.305 27.98 1.305h.111c13.071 0 52.341-.089 74.252-31.066 15.272-21.592 19.713-44.119 14.396-73.047-5.723-31.117-10.81-59.459-15.549-86.648-6.417-36.805-14.57-85.349-20.715-134.467z" fill="#fff"/><g><path d="m847.459 590.798c-9.677-77.348-12.507-155.3-15.915-233.112-1.938-44.245-2.761-79.394-36.568-111.951-16.466-15.855-35.014-20.27-53.717-11.089-8.632 4.241-17.2 10.986-25.805 19.461-36.291 37.321-74.319 73.023-113.336 107.615-57.019-45.206-109.06-99.875-157.988-153.498-28.717-31.474-51.936-68.519-84.851-96.016-27.428-22.915-55.62 1.094-74.135 24.539-16.334 20.679-21.781 48.92-28.589 73.62-17.774 64.475-36.127 128.677-56.933 192.253-18.482 56.48-38.534 112.567-61.712 167.303-11.522 27.216-46.536 76.232-24.13 105.318 8.306 10.782 25.566 13.785 37.68 17.461 23.684 7.182 47.762 12.404 72.168 16.447 51.17 8.481 103.367 10.571 155.135 8.64.617-.022 1.179-.132 1.683-.311 8.729 9.11 17.673 17.935 26.592 26.517 57.858 55.673 133.76 96.771 209.892 121.039 50.656 16.146 107.062 20.063 159.911 21.961 30.504 1.097 76.242 10.108 96.685-18.792 12.307-17.397 14.194-34.321 10.406-54.935-5.321-28.934-10.536-57.887-15.588-86.867-7.857-45.054-15.208-90.214-20.885-135.603z" fill="#68182b"/><path d="m314.428 625.263c2.626 7.206 6.325 14.418 10.488 21.483 5.303 8.999 11.165 17.721 17.438 26.193-35.252-.634-70.242-4.678-104.986-10.767-11.877-2.081-25.394-3.809-38.37-6.705-17.19-3.832-21.926-11.258-14.597-30.016 3.354-8.594 6.533-17.271 9.61-25.988 39.15 15.973 78.161 24.112 120.417 25.8z" fill="#fbf199"/><path d="m144.729 580.542c48.435-111.378 84.265-228.812 116.118-345.841 8.428-30.966 12.602-68.828 34.339-93.793 34.604-39.742 28.503-20.822 22.52 4.462-18.206 76.96-42.107 152.997-62.831 229.177-14.442 53.087-31.593 105.482-49.124 157.615-2.792 8.3-5.544 16.659-8.313 25.037-9.769 29.556-5.468 30.072-32.549 38.563-10.616 3.334-21.343 6.21-32.138 9.086 4.27-8.456 8.644-16.64 11.978-24.306z" fill="#ff5671"/><path d="m117.4 655.364c-.627-12.487 3.651-25.404 9.32-38 18.846-5.066 37.519-9.754 55.809-16.467-5.53 15.348-11.461 30.522-18.14 45.267-14.783 6.065-29.721 11.858-44.712 17.399-1.326-2.48-2.126-5.203-2.277-8.199z" fill="#fbf199"/><path d="m185.418 690.977c-14.415-3.28-43.192-7.339-58.288-18.983 8.473-3.164 16.923-6.41 25.338-9.738 22.094-8.748 20.047-2.005 45.229 3.316 10.497 2.215 21.152 3.801 30.957 5.676 40.121 7.664 81.012 12.199 121.87 12.309 6.556 8.213 13.461 16.188 20.578 23.955-62.319 1.813-124.8-2.673-185.684-16.535z" fill="#b1d045"/><path d="m432.959 753.816c-27.164-22.731-54.198-49.274-76.277-78.261-.241-.448-.55-.861-.922-1.218-11.511-15.243-21.642-31.156-29.686-47.54-16.878-34.371 12.376-53.345 40.313-67.615 8.826 84.783 73.696 146.137 147.718 182.01 84.281 40.85 186.172 53.08 277.313 30.416.955 8.428 1.958 16.848 3.014 25.258 3.326 26.475-3.071 25.805-30.812 28.119-37.891 3.163-75.644 5.565-113.942 3.486-77.012-4.182-152.015-26.942-214.021-73.629-.921-.693-1.839-1.005-2.698-1.026z" fill="#fbf199"/><path d="m800.459 876.906c-28.114-.067-56.186-1.765-84.149-4.591-68.498-6.924-136.587-27.357-197.775-60.252 38.095 14.332 78.487 22.607 119.801 26.149 54.912 4.708 109.103-1.341 163.712-6.015 16.857 13.792 34.286 27.148 51.896 40.004-15.009 8.234-37.451 4.744-53.485 4.705z" fill="#b1d045"/><path d="m872.903 844.633c-1.926 7.306-5.278 14.267-10.61 20.687-11.109-8.067-22.153-16.338-33.026-24.799-16.652-12.961-20.939-17.483-23.766-39.33-1.099-8.504-2.14-17.02-3.131-25.539 19.403 11.852 38.691 24.027 57.163 37.299 15.145 10.884 16.898 18.273 13.37 31.682z" fill="#fbf199"/><path d="m855.874 797.626c-11.315-7.818-22.867-15.307-34.526-22.606-15.945-9.986-20.886-15.188-23.313-39.843-7.461-75.659-11.605-151.75-16.439-227.492-3.315-51.967-4.189-104.077-6.913-156.077-1.9-36.289 2.767-74.262-4.77-110.071 4.864 1.596 9.849 4.561 14.99 9.176 22.053 19.796 32.819 42.315 34.917 71.621 3.293 45.973 3.529 92.315 6.015 138.364 4.096 75.913 12.876 151.019 25.154 226.032 4.17 25.467 8.635 50.885 13.164 76.292 1.338 7.503 3.197 15.349 5.003 23.329 4.698 20.713 10.008 27.375-13.282 11.275z" fill="#ff5671"/><path d="m339.017 432.495c3.564-3.318 7.304-6.972 12.008-8.586 2.733-.94 3.3 2.956 3.808 4.81 2.876 10.513 2.096 24.444-2.559 34.225-4.904 10.302-21.534 17.217-26.909 3.419-4.714-12.101 5.687-25.899 13.652-33.868z" fill="#808080"/><path d="m434.273 362.594c10.28.236 22.563 5.987 30.258 12.383 8.662 7.195 12.416 24.111-1.028 28.215-13.909 4.248-25.65-14.783-30.248-24.799-.041-.09-.084-.179-.129-.265-2.477-5.559-7.249-15.73 1.147-15.534z" fill="#808080"/><path d="m541.74 611.306c10.252-2.342 24.021.408 33.128 5.094 9.976 5.137 16.585 20.314 4.872 27.229-12.361 7.294-28.174-8.002-35.146-16.616-3.728-4.78-11.4-13.756-2.854-15.707z" fill="#808080"/><path d="m598.286 457.752c3.343-11.385 18.511-17.025 28.696-19.517 6.444-1.335 18.176-4.935 15.318 5.055-2.968 10.377-10.725 21.523-19.494 27.605-11.001 7.636-29.144 2.616-24.52-13.143z" fill="#808080"/><path d="m559.951 338.828c-56.897-52.697-110.814-107.766-160.128-167.563-11.613-14.084-23.539-30.174-37.446-43.005-20.069-18.51-26.487-14.396-33.8 17.007-18.515 79.471-42.883 158.202-64.8 236.619-15.382 55.027-32.987 109.463-51.414 163.537-1.941 5.695-3.862 11.414-5.784 17.145-7.337 21.902 5.007 33.134 25.914 39.156 25.551 7.363 51.483 11.561 78.895 12.875-3.101-15.621.314-30.844 16.515-44.068 23.194-18.93 52.571-30.525 77.134-48.151 33.982-24.39 66.737-50.495 99.001-77.101 30.364-25.037 60.515-50.477 90.129-76.532-11.808-9.496-23.104-19.626-34.216-29.919zm-202.183 134.752c-10.079 11.326-30.65 17.252-39.965 1.158-9.935-17.165 1.035-36.795 13.432-49.351.105-.115.217-.228.336-.339.106-.107.216-.208.327-.303 8.651-7.967 24.601-19.103 31.608-3.165 6.391 14.533 5.068 39.86-5.738 52zm33.145-176.208c-5.813 13.859-25.496 22.821-37.418 10.204-12.987-13.742-10.1-33.479-3.343-49.531.054-.144.113-.288.181-.432.063-.146.13-.282.198-.416 4.967-10.334 17.136-27.354 28.7-13.287 11.58 14.081 19 36.017 11.682 53.462zm75.389 115.977c-19.85 3.434-34.581-13.173-42.139-29.641-.108-.236-.197-.471-.271-.705-.095-.175-.181-.358-.261-.552-4.196-10.122-9.188-29.371 7.664-30.342 15.61-.901 39.281 8.653 46.888 22.858 6.949 12.98 6.691 35.169-11.881 38.382z" fill="#ff5671"/><path d="m359.425 262.929c2.099-4.46 4.332-10.123 8.413-13.195 2.569-1.934 5.367 3.498 6.397 5.115 6.318 9.908 11.102 23.196 8.367 34.915-2.979 12.767-17.591 18.113-25.062 5.915-5.765-9.412-2.097-23.42 1.885-32.75z" fill="#808080"/><path d="m787.317 732.479c-6.72-69.29-10.77-138.916-15.2-208.286-3.322-52.014-4.566-104.108-7.132-156.157-1.471-29.846 1.055-61.916-1.067-92.713-2.082-30.167-2.757-51.456-41.018-13.771-92.657 95.293-195.499 184.548-302.878 262.92-5.556 4.054-11.146 8.213-16.823 12.277-24.26 17.367-27.757 24.266-21.621 47.689 18.602 71.023 80.598 122.969 147.303 152.01 72.692 31.646 155.62 43.857 234.105 30.37 26.366-4.531 27.219-4.546 24.331-34.339zm-200.373-80.873c-18.215 10.75-38.444-3.046-49.912-17.291-.148-.183-.277-.367-.399-.555-.146-.158-.287-.327-.423-.51-6.764-9.072-16.343-27.746 1.22-31.756 15.122-3.453 38.969-.938 49.934 11.209 9.556 10.583 14.666 30.001-.42 38.903zm66.674-211.461c-2.201 16.672-15.008 35.555-30.455 42.33-14.3 6.271-36.63-.181-36.373-18.732.275-19.957 19.647-31.206 36.933-35.549.147-.043.3-.082.458-.115.146-.034.29-.063.435-.088 9.823-1.971 31.157-4.175 29.002 12.154zm70.967 157.581c-5.947 13.947-25.405 24.311-37.866 10.965-12.907-13.82-9.947-33.521-3.09-49.547.056-.143.115-.285.183-.429.064-.146.132-.286.204-.419 5.017-10.277 17.293-27.297 28.771-13.165 11.032 13.582 18.999 35.713 11.798 52.595z" fill="#ff5671"/><path d="m692.908 564.03c2.129-4.461 4.389-10.077 8.501-13.136 2.555-1.901 5.348 3.598 6.354 5.194 6.268 9.955 10.941 23.264 8.14 34.97-3.051 12.739-17.712 17.942-25.107 5.708-5.709-9.443-1.924-23.439 2.112-32.736z" fill="#808080"/><path d="m674.256 866.323c13.964 2.551 27.999 4.57 42.054 5.992 27.964 2.826 56.035 4.523 84.149 4.591 16.034.039 38.476 3.528 53.483-4.704-10.709-7.818-21.292-15.877-31.778-24.053-31.993 12.611-66.021 19.455-100.911 20.035-15.499.26-31.314-.347-46.997-1.861z" fill="#abab38"/><path d="m185.418 690.977c60.884 13.862 123.365 18.349 185.685 16.534-7.117-7.768-14.022-15.742-20.578-23.955-23.076-.063-46.159-1.578-69.113-4.231-5.323 1.121-10.671 2.155-16.048 3.057-22.565 3.78-45.479 5.214-68.293 6.591-6.145.369-12.266.576-18.36.586 2.451.499 4.724.967 6.707 1.418z" fill="#abab38"/><path d="m170.021 633.183c-5.877 4.902-13.257 8.452-19.848 11.161-7.049 2.897-14.618 4.97-22.237 5.401-4.771.268-8.024-1.008-10.188-3.272-.35 2.98-.495 5.948-.348 8.892.15 2.996.95 5.719 2.277 8.199 14.991-5.541 29.929-11.334 44.712-17.399 1.944-4.289 3.808-8.625 5.632-12.982z" fill="#f3af79"/><path d="m342.354 672.939c-4.694-6.337-9.059-12.866-13.229-19.493-13.934 9.926-71.434.811-77.376-.161-14.847-2.427-29.938-5.335-44.325-9.778-12.201-3.769-19.084-10.386-21.931-20.936-.368.958-.721 1.925-1.093 2.881-7.329 18.758-2.594 26.184 14.597 30.016 12.977 2.896 26.493 4.624 38.37 6.705 34.745 6.089 69.736 10.133 104.987 10.766z" fill="#f3af79"/><path d="m356.682 675.556c22.079 28.986 49.113 55.529 76.277 78.261.859.021 1.777.333 2.698 1.026 62.007 46.687 137.01 69.447 214.021 73.629 38.299 2.079 76.052-.323 113.942-3.486 26.691-2.227 33.595-1.764 31.118-25.301-5.723 10.42-19.459 14.941-31.247 17.6-17.791 4.008-36.41 4.434-54.575 4.599-21.231.191-42.488.739-63.691-.56-33.261-2.038-66.086-8.66-97.841-18.636-56.926-17.888-104.869-49.476-147.069-91.271-31.743-31.439-74.696-77.436-70.801-126.07-8.762 10.842-11.907 24.208-3.44 41.451 8.044 16.384 18.175 32.297 29.686 47.54.372.356.68.769.922 1.218z" fill="#f3af79"/><path d="m829.267 840.521c10.873 8.461 21.917 16.731 33.026 24.799 3.888-4.682 6.7-9.655 8.697-14.836-3.38.525-6.907.471-10.68-.525-12.178-3.213-24.548-14.361-33.895-22.196-6.586-5.522-13.238-10.903-18.897-17.403-.253-.291-.461-.602-.693-.901 2.967 14.995 8.142 19.932 22.442 31.062z" fill="#f3af79"/><g fill="#515151"><path d="m711.628 588.724c-10.19.576-17.636-9.594-21.106-17.879-.03-.074-.041-.152-.071-.229-2.746 8.549-4.135 18.736.345 26.15 7.396 12.234 22.057 7.031 25.107-5.708.245-1.022.364-2.071.498-3.114-1.549.387-3.13.688-4.773.78z"/><path d="m352.273 462.943c2.427-5.099 3.774-11.323 4.126-17.604-7.612 7.335-20.729 11.798-31.621 9.723-.868 3.783-.848 7.621.586 11.301 5.375 13.797 22.005 6.882 26.909-3.42z"/><path d="m542.679 624.56c.681.887 1.345 1.723 1.915 2.452 6.973 8.614 22.785 23.91 35.146 16.616 7.522-4.439 7.467-12.279 3.839-18.688-12.866 6.856-27.731 6.967-40.9-.38z"/><path d="m382.603 289.764c.377-1.613.582-3.259.689-4.916-6.444 1.46-13.103.203-19.597-5.104-3.085-2.522-5.377-5.589-7.086-8.96-2.415 8.287-3.371 17.87.932 24.895 7.471 12.198 22.083 6.851 25.062-5.915z"/><path d="m633.68 460.078c-8.133 2.456-24.766.695-33.797-5.991-.663 1.153-1.216 2.367-1.597 3.665-4.624 15.759 13.519 20.779 24.521 13.144 3.956-2.744 7.676-6.547 10.873-10.818z"/><path d="m436.33 384.348c5.733 10.044 15.711 22.345 27.173 18.844 8.527-2.604 10.122-10.358 7.947-17.521-5.078 2.014-10.521 3.213-16.139 3.466-7.322.331-13.682-1.459-18.981-4.789z"/></g><path d="m164.89 595.763c27.081-8.491 22.78-9.008 32.549-38.563 2.769-8.378 5.521-16.737 8.313-25.037 17.531-52.133 34.682-104.528 49.124-157.615 15.694-57.693 33.201-115.305 48.688-173.298-1.432 3.739-2.871 7.475-4.254 11.234-8.164 22.207-15.923 44.566-24.013 66.804-15.89 43.678-31.175 87.336-44.253 131.947-12.18 41.546-24.264 83.164-40.603 123.31-8.672 21.308-18.483 42.807-31.273 61.99-.264.393-.552.766-.816 1.156 2.176-.649 4.368-1.248 6.538-1.928z" fill="#df3f58"/><path d="m781.595 507.685c4.834 75.742 8.979 151.833 16.439 227.492 2.428 24.654 7.368 29.856 23.313 39.843 9.958 6.234 19.805 12.652 29.525 19.251-14.008-26.307-25.204-53.668-33.103-83.113-11.572-43.137-16.65-87.777-21.127-132.107-7.067-70.004-16.264-139.852-21.174-210.02 2.101 46.212 3.181 92.488 6.127 138.654z" fill="#df3f58"/><path d="m731.481 710.415c-45.658 39.668-113.204 32.805-166.359 15.293-23.457-7.728-47.242-17.451-67.832-31.253-18.901-12.669-35.435-28.954-49.801-46.517-25.976-31.756-48.213-76.674-35.427-117.656-2.952 2.164-5.873 4.325-8.863 6.467-24.26 17.367-27.757 24.266-21.621 47.689 18.602 71.023 80.598 122.969 147.303 152.01 72.692 31.646 155.62 43.857 234.105 30.37 26.365-4.531 27.219-4.546 24.331-34.339-3.589-37.004-6.407-74.104-8.938-111.209-.681 6.396-1.843 12.787-3.793 19.174-8.122 26.594-21.959 51.598-43.105 69.971z" fill="#df3f58"/><path d="m287.833 303.047c4.988-19.021 9.997-38.121 14.709-57.303-12.683 45.539-26.119 90.895-38.765 136.142-15.382 55.027-32.987 109.463-51.414 163.537-1.941 5.695-3.862 11.414-5.784 17.145-7.337 21.902 5.007 33.134 25.914 39.156 25.551 7.363 51.483 11.561 78.895 12.875-1.883-9.487-1.34-18.824 2.99-27.66-19.15-.766-37.702-5.584-52.06-17.111-17.356-13.937-19.701-35.553-19.612-56.33.103-24.946 5.054-49.72 10.636-73.935 10.542-45.712 22.588-91.142 34.491-136.516z" fill="#df3f58"/><path d="m513.464 455.45c27.229-21.624 53.561-44.292 81.054-65.606 28.771-22.303 56.786-45.53 85.986-67.28 12.408-9.242 25.02-18.124 38.957-24.926 14.791-7.214 29.304-8.072 45.113-8.006-.138-4.789-.329-9.567-.656-14.309-2.082-30.167-2.757-51.456-41.018-13.771-83.126 85.489-174.46 166.093-269.902 238.363 21.499-12.644 41.308-29.252 60.466-44.465z" fill="#ff9780"/><path d="m413.944 202.822c27.226 36.585 58.294 70.028 85.796 106.379 13.057 17.258 24.208 36.003 36.638 53.703 5.634 8.022 9.925 17.013 10.071 26.948.154 10.533-6.796 20.246-12.948 28.153-2.627 3.375-5.505 6.59-8.479 9.741 23.25-19.396 46.383-38.975 69.145-59.001-11.807-9.495-23.104-19.625-34.215-29.918-56.897-52.697-110.814-107.766-160.128-167.563-11.613-14.084-23.539-30.174-37.446-43.005-1.099-1.014-2.142-1.929-3.159-2.808 17.77 26.12 35.857 52.018 54.725 77.371z" fill="#ff9780"/><path d="m163.592 539.337c24.107-52.685 42.468-108.606 61.825-163.172 17.754-50.05 34.229-100.522 47.633-151.92 8.002-30.691 16.433-62.104 29.306-91.359-2.177 2.363-4.542 5.005-7.169 8.022-21.737 24.965-25.911 62.827-34.339 93.793-30.251 111.146-64.114 222.646-108.932 328.987 4.032-8.091 7.954-16.22 11.676-24.351z" fill="#ff9780"/><path d="m850.988 686.729c-12.278-75.014-21.059-150.119-25.154-226.032-2.485-46.049-2.722-92.392-6.015-138.364-1.551-21.657-7.854-39.603-19.93-55.488 1.748 6.907 2.908 13.909 3.962 20.115 4.73 27.845 6.504 55.961 7.984 84.127 3.022 57.454 6.511 114.969 12.41 172.207 5.601 54.326 13.861 108.738 25.236 162.162 4.165 19.563 8.804 40.151 15.188 60.124-.16-.845-.37-1.724-.519-2.559-4.527-25.407-8.992-50.825-13.162-76.292z" fill="#ff9780"/></g></g></svg>