<?xml version="1.0" encoding="UTF-8" standalone="no"?>
<!-- Generator: Adobe Illustrator 26.5.0, SVG Export Plug-In . SVG Version: 6.00 Build 0)  -->

<svg
   version="1.1"
   id="Capa_1"
   x="0px"
   y="0px"
   viewBox="0 0 512 512"
   style="enable-background:new 0 0 512 512;"
   xml:space="preserve"
   width="512"
   height="512"
   sodipodi:docname="brazil.svg"
   inkscape:version="1.4 (1:1.4+202410161351+e7c3feb100)"
   xmlns:inkscape="http://www.inkscape.org/namespaces/inkscape"
   xmlns:sodipodi="http://sodipodi.sourceforge.net/DTD/sodipodi-0.dtd"
   xmlns="http://www.w3.org/2000/svg"
   xmlns:svg="http://www.w3.org/2000/svg"><defs
   id="defs118" /><sodipodi:namedview
   id="namedview118"
   pagecolor="#505050"
   bordercolor="#ffffff"
   borderopacity="1"
   inkscape:showpageshadow="0"
   inkscape:pageopacity="0"
   inkscape:pagecheckerboard="1"
   inkscape:deskcolor="#505050"
   inkscape:zoom="1.5683594"
   inkscape:cx="255.68119"
   inkscape:cy="256"
   inkscape:window-width="1920"
   inkscape:window-height="1011"
   inkscape:window-x="0"
   inkscape:window-y="32"
   inkscape:window-maximized="1"
   inkscape:current-layer="g116" />
<g
   id="g118">
	
	<g
   id="g117">
		
		
		<g
   id="g116">
			<g
   id="g8">
				<g
   id="g7">
					<path
   style="fill:#E17B48;"
   d="M226.006,283.633l-24.364,82.048c0,0-22.146,27.289-50.483,52.016       c-28.317,24.707-60.245,47.881-76.199,13.896c-5.788-12.323,0.887-36.647,11.98-63.169c0,0,11.443-1.153,13.631-5.424       c1.464-2.858-4.031-15.894-4.031-15.894c19.221-40.338,43.605-79.829,46.389-85.96c5.143-11.315,21.117-27.793,23.678-27.289       c2.582,0.524-7.725,26.26-7.725,26.26s23.174-27.813,24.203-25.736c1.028,2.057-16.478,30.375-16.478,30.375       s24.203-27.289,25.756-23.699c1.513,3.509-12.606,22.63-13.352,23.658c1.089-0.988,19.564-17.91,21.077-15.409       c1.553,2.582-14.421,25.232-14.421,25.232s0.525,13.392-5.667,25.231c-6.172,11.839-27.289,17.003-27.289,17.003l-7.2,30.899       c0,0,28.317-31.423,43.242-48.406C203.699,282.261,226.006,283.633,226.006,283.633z"
   id="path6" />
				</g>
			</g>
			<g
   id="g15">
				<g
   id="g10">
					<g
   id="g9">
						<path
   style="fill:#E17B48;"
   d="M338.448,388.673l-6.01,25.07l36.929,46.752l0.565,0.706l0.766,0.988l4.578,5.789        l24.142,30.556H236.574c-2.904-11.819-6.494-27.309-7.826-37.071c-2.077-15.167-7.765-40.157-9.237-46.53        c-0.242-0.988-0.363-1.533-0.363-1.533s-20.794-11.617-26.583-37.131c-0.363-1.533-0.645-3.106-0.887-4.74        c-0.464-3.308-0.383-7.019,0.141-10.992c0.081-0.585,0.182-1.17,0.262-1.775c0.444-2.682,1.049-5.486,1.835-8.35        c0-0.02,0.02-0.06,0.02-0.101c7.866-29.164,31.181-65.287,32.048-66.639c0.02-0.02,0.02-0.04,0.02-0.04l11.033-3.086        l3.832-1.069h0.02l2.279-0.645l-1.008-10.347l-2.077-21.581l39.148-22.771l1.17-0.686l7.805-4.538l1.513-0.888l1.876-1.089        l0.444-0.262l0.121-0.081l3.388-1.956l1.17-0.686c0,0-0.04,0.585-0.121,1.634c-0.141,2.42-0.343,7.422-0.081,13.533        c0,0,0,0.02,0,0.061c0.02,0.726,0.06,1.472,0.101,2.219c0,0.061,0.02,0.121,0.02,0.182c0.02,0.383,0.04,0.766,0.081,1.15        c0.02,0.081,0.02,0.161,0,0.262c0.02,0.222,0.04,0.444,0.061,0.666c0,0,0,0.02,0,0.04c0.141,2.158,0.363,4.417,0.665,6.696        c0,0.04,0,0.061,0.02,0.101c0.766,6.01,2.118,12.303,4.336,17.91c0.726,1.855,1.553,3.651,2.481,5.325        c0,0,0.242,0.02,0.686,0.04c5.708,0.323,45.643,3.167,62.827,17.809c10.77,9.177,43.283,49.475,68.655,81.644v67.445        l-87.534-85.577l-0.04,0.202l-8.068,33.561l-7.378,2.717L338.448,388.673z"
   id="path8" />
					</g>
				</g>
				<g
   id="g12">
					<g
   id="g11">
						<path
   style="fill:#FFFFFF;"
   d="M340.808,378.851l-2.36,9.822c-9.883-3.671-20.27-6.01-30.758-6.978        c0.444-3.207,0.04-6.212,1.331-9.177C319.792,372.76,330.784,374.777,340.808,378.851z"
   id="path10" />
					</g>
				</g>
				<g
   id="g14">
					<g
   id="g13">
						<path
   style="fill:#341114;"
   d="M280.139,246.199c-2.662,4.578-6.979,7.947-11.416,10.831        c-5.163,3.368-10.669,6.253-16.377,8.612c-3.086,1.251-6.736,2.682-10.185,2.844l-2.077-21.581l39.148-22.771        c1.392,1.997,2.44,4.236,3.046,6.575C283.608,235.893,282.822,241.581,280.139,246.199z"
   id="path12" />
					</g>
				</g>
			</g>
			<g
   id="g89">
				<g
   id="g26">
					<g
   id="g17">
						<g
   id="g16">
							<path
   style="fill:#39763b;fill-opacity:1"
   d="M229.075,140.114c-3.258-14.932-6.64-30.18-14.61-43.22         c-9.485-15.519-24.805-26.792-34.341-42.279c-8.005-13.001-11.535-28.702-9.865-43.879         c5.526,5.713,13.512,8.426,20.164,12.777c19.15,12.527,35.279,30.327,43.427,51.711         C241.997,96.609,240.265,120.153,229.075,140.114z"
   id="path15" />
						</g>
					</g>
					<g
   id="g19">
						<g
   id="g18">
							<path
   style="fill:#39763b;fill-opacity:1"
   d="M251.087,142.15c3.931-1.889,5.401-6.656,6.281-10.927         c3.063-14.868,3.939-30.087,5.915-45.138c1.976-15.051,5.146-30.209,12.376-43.556c7.23-13.347,19.004-24.808,33.635-28.855         c2.098,19.234-1.033,39.089-7.454,57.34c-5.361,15.238-13.502,29.319-21.596,43.298c-3.97,6.857-7.957,13.738-12.813,19.997         c-2.858,3.684-6.189,7.265-10.56,8.888C256.228,142.752,251.004,142.927,251.087,142.15z"
   id="path17" />
						</g>
					</g>
					<g
   id="g21">
						<g
   id="g20">
							<path
   style="fill:#39763b;fill-opacity:1"
   d="M274.066,149.47c3.065,0.152,5.685-2.096,7.774-4.343         c11.97-12.877,18.43-30.237,30.986-42.542c7.246-7.102,16.224-12.202,25.486-16.345c14.026-6.275,29.303-10.573,44.63-9.496         c-3.506,13.834-13.034,25.217-23.157,35.276c-19.848,19.724-44.162,36.245-71.735,41.005         C284.049,153.714,276.102,152.984,274.066,149.47z"
   id="path19" />
						</g>
					</g>
					<g
   id="g23">
						<g
   id="g22">
							<path
   style="fill:#39763b;fill-opacity:1"
   d="M221.822,147.603c-8.223-18.43-22.99-33.479-40.123-44.146         c-17.132-10.666-36.574-17.179-56.303-21.426c7.404,23.114,24.042,43.54,46.819,51.921         C189.632,140.361,206.12,137.71,221.822,147.603z"
   id="path21" />
						</g>
					</g>
					<g
   id="g25">
						<g
   id="g24">
							<path
   style="fill:#39763b;fill-opacity:1"
   d="M391.407,144.867c-2.555,7.89-8.084,14.627-14.823,19.462         c-6.739,4.835-14.642,7.864-22.723,9.729c-11.425,2.636-23.362,2.936-34.925,1.037c-4.474-0.735-31.606-7.143-29.087-12.283         c1.62-3.306,11.279-6.98,14.51-8.601c5.035-2.526,10.246-4.702,15.578-6.519c10.67-3.637,21.83-5.837,33.082-6.526         C365.903,140.375,378.919,141.572,391.407,144.867z"
   id="path23" />
						</g>
					</g>
				</g>
				<g
   id="g35">
					<g
   id="g28">
						<g
   id="g27">
							<path
   style="fill:#38af56;fill-opacity:1"
   d="M242.662,140.707c0.511-9.944-1.215-19.848-2.662-29.7         c-1.448-9.852-2.621-19.905-1.015-29.732c1.606-9.827,6.342-19.538,14.583-25.126c6.635,9.431,9.286,21.088,8.883,32.612         c-0.403,11.524-4.061,22.804-9.667,32.881C249.633,127.307,244.862,134.611,242.662,140.707z"
   id="path26" />
						</g>
					</g>
					<g
   id="g30">
						<g
   id="g29">
							<path
   style="fill:#38af56;fill-opacity:1"
   d="M222.394,148.838c-4.877-8.681-11.624-16.134-18.108-23.691         c-6.484-7.557-12.843-15.431-16.733-24.597c-3.889-9.167-5.069-19.906-1.085-29.031         c10.646,4.432,19.111,12.873,24.923,22.832c5.813,9.959,8.741,21.45,9.382,32.963         C221.134,133.786,221,142.509,222.394,148.838z"
   id="path28" />
						</g>
					</g>
					<g
   id="g32">
						<g
   id="g31">
							<path
   style="fill:#38af56;fill-opacity:1"
   d="M263.643,148.659c4.854-8.694,7.684-18.34,10.741-27.817         c3.056-9.477,6.448-19.013,12.232-27.118c5.784-8.105,14.325-14.722,24.188-16.091c1.783,11.393-0.993,23.021-6.448,33.18         c-5.456,10.159-13.723,18.659-23.206,25.221C275.821,139.721,268.312,144.164,263.643,148.659z"
   id="path30" />
						</g>
					</g>
					<g
   id="g34">
						<g
   id="g33">
							<path
   style="fill:#38af56;fill-opacity:1"
   d="M280.534,162.204c8.719-4.809,16.225-11.496,23.833-17.92         c7.608-6.424,15.532-12.721,24.729-16.538c9.197-3.817,19.945-4.912,29.039-0.855c-4.516,10.611-13.023,19.008-23.028,24.742         c-10.005,5.734-21.518,8.571-33.037,9.121C295.596,161.063,286.874,160.86,280.534,162.204z"
   id="path32" />
						</g>
					</g>
				</g>
				<g
   id="g37">
					<g
   id="g36">
						<path
   style="fill:#E17B48;"
   d="M305.23,186.398c0,10.75-3.167,20.754-8.632,29.185c-0.02,0.04-0.04,0.101-0.081,0.141        c-0.222,2.36-0.766,4.7-1.533,6.979c-2.985,8.854-9.318,16.841-12.323,21.278c-0.746,1.089-1.775,2.118-3.066,3.066        c-7.483,5.567-23.416,8.834-38.644,8.834c-11.315,0-22.226-1.815-29.023-5.809c-17.507-10.286-14.32-63.674-14.32-63.674        c0-7.967,1.714-15.51,4.82-22.307c8.471-18.596,27.228-31.504,48.991-31.504C281.128,132.587,305.23,156.669,305.23,186.398z"
   id="path35" />
					</g>
				</g>
				<g
   id="g39">
					<g
   id="g38">
						<path
   style="fill:#341114;"
   d="M306.218,186.479c0,6.898-1.271,13.493-3.63,19.584c-0.444,1.15-0.908,2.299-1.412,3.409        c-1.109,2.34-2.36,4.598-3.751,6.757c-0.161,2.783-0.262,11.033-0.706,18.435c0.141-2.219-0.343-7.241-0.625-10.266        c-0.02-0.323-0.202-0.605-0.323-0.907c-0.182-0.504-0.363-1.009-0.565-1.513c-0.666-1.654-1.432-3.287-2.44-4.639        c-1.251-1.674-2.763-2.965-4.8-3.449c-2.501-0.625-5.103,0.182-7.624,0.645c-2.562,0.464-5.466,0.484-7.321-1.331        c-2.582-2.521-1.493-6.837-0.242-10.246c0.766-2.138,1.331-5.082-0.605-6.313c-1.029-0.666-2.42-0.524-3.489-1.13        c-1.493-0.867-1.795-2.884-1.654-4.598v-0.061c0.081-0.686,0.181-1.372,0.323-2.037c0.383-1.896,0.968-3.772,1.432-5.667        c0.625-2.582,0.948-5.365,0.04-7.866c-0.706-1.936-2.319-3.651-4.256-4.175c-0.565-0.161-1.15-0.222-1.755-0.161        c-0.101,0-0.181,0.02-0.282,0.04c-1.513,0.242-2.884,1.17-4.377,1.654c-2.662,0.908-5.768,0.383-7.987-1.412        c-2.682-2.158-4.195-6.031-7.543-6.837c-1.109-0.262-2.219-0.141-3.308,0.182h-0.02c-0.887,0.242-1.775,0.625-2.662,1.029        h-0.02c-0.807,0.343-1.593,0.706-2.4,0.988c-4.921,1.714-10.77,0.323-14.401-3.449c-0.565-0.605-1.109-1.291-1.815-1.734        c-0.101-0.101-0.222-0.182-0.343-0.242c-0.323-0.202-0.665-0.323-1.028-0.403c-2.239-0.504-4.74,0.988-6.938,2.057        c-1.997,0.948-4.175,1.573-6.353,1.351c-0.303-0.02-0.605-0.081-0.887-0.141c-0.343-0.06-0.686-0.161-1.008-0.282        c3.227-7.099,7.947-13.392,13.735-18.495c1.089-0.928,2.198-1.835,3.348-2.682c0.02,0,0.02,0,0.04-0.02        c6.454-4.841,13.977-8.269,22.186-9.883c1.008-0.202,2.057-0.363,3.086-0.504c2.461-0.343,4.982-0.524,7.543-0.524        c5.91,0,11.597,0.928,16.922,2.683c0.645,0.181,1.251,0.403,1.876,0.645h0.02c8.289,3.025,15.651,7.987,21.48,14.34        c0.363,0.383,0.706,0.766,1.049,1.15c5.143,5.91,9.056,12.928,11.295,20.653c0.161,0.484,0.282,0.968,0.403,1.452        C305.593,176.999,306.218,181.678,306.218,186.479z"
   id="path37" />
					</g>
				</g>
				<g
   id="g41">
					<g
   id="g40">
						<path
   style="fill:#341114;"
   d="M305.633,195.514c-0.504,3.61-1.795,7.059-3.045,10.488c-0.262,0.746-0.524,1.492-0.787,2.239        c-0.222,0.645-0.444,1.291-0.625,1.956c-3.167,9.943-4.478,20.33-3.691,30.778c-5.163-6.414-7.967-14.683-7.745-22.912        l-1.553-3.086c-1.049-5.022-1.775-10.165-1.452-15.268c0.323-5.123,1.715-10.266,4.639-14.461        c1.13-1.613,2.682-3.167,4.457-3.893c0.464-0.182,0.948-0.323,1.452-0.383c0.423-0.04,0.867-0.04,1.331,0.02        c1.432,0.202,2.723,1.049,3.731,2.098C305.452,186.277,306.218,191.117,305.633,195.514z"
   id="path39" />
					</g>
				</g>
				<g
   id="g56">
					<g
   id="g43">
						<g
   id="g42">
							<circle
   style="fill:#341114;"
   cx="245.935"
   cy="203.35"
   r="4.4"
   id="circle41" />
						</g>
					</g>
					<g
   id="g55">
						<g
   id="g45">
							<g
   id="g44">
								<circle
   style="fill:#341114;"
   cx="210.08"
   cy="203.35"
   r="4.4"
   id="circle43" />
							</g>
						</g>
						<g
   id="g50">
							<g
   id="g47">
								<g
   id="g46">
									<path
   style="fill:#341114;"
   d="M226.369,219.803c-3.395,0-6.686-2.238-7.858-5.445c-0.955-2.615-0.515-5.414,0.041-7.807           c0.606-2.601,1.431-5.166,2.452-7.626c0.203-0.49,0.764-0.721,1.252-0.517c0.488,0.203,0.72,0.763,0.517,1.252           c-0.981,2.363-1.774,4.827-2.356,7.326c-0.492,2.118-0.891,4.572-0.108,6.714c0.951,2.605,3.846,4.438,6.619,4.16           c0.514-0.047,0.995,0.333,1.047,0.86c0.051,0.526-0.333,0.995-0.86,1.047C226.868,219.79,226.618,219.803,226.369,219.803z           "
   id="path45" />
								</g>
							</g>
							<g
   id="g49">
								<g
   id="g48">
									<path
   style="fill:#341114;"
   d="M226.981,227.329c-1.849,0-3.7-0.377-5.382-1.121c-0.484-0.214-0.702-0.779-0.488-1.262           c0.213-0.482,0.779-0.701,1.263-0.488c2.463,1.087,5.353,1.26,7.924,0.466c2.573-0.793,4.866-2.558,6.29-4.842           c0.281-0.448,0.873-0.587,1.319-0.306c0.449,0.28,0.586,0.87,0.306,1.319c-1.664,2.671-4.344,4.734-7.352,5.66           C229.61,227.138,228.297,227.329,226.981,227.329z"
   id="path47" />
								</g>
							</g>
						</g>
						<g
   id="g52">
							<g
   id="g51">
								<path
   style="fill:#341114;"
   d="M201.201,193.662c-0.183,0-0.368-0.052-0.532-0.161c-0.439-0.294-0.557-0.888-0.263-1.328          c1.484-2.218,3.942-3.789,6.577-4.201c2.637-0.415,5.458,0.328,7.55,1.984c0.415,0.328,0.484,0.931,0.156,1.345          c-0.328,0.415-0.929,0.486-1.345,0.156c-1.679-1.331-3.944-1.925-6.062-1.595c-2.116,0.333-4.091,1.595-5.283,3.376          C201.814,193.513,201.511,193.662,201.201,193.662z"
   id="path50" />
							</g>
						</g>
						<g
   id="g54">
							<g
   id="g53">
								<path
   style="fill:#341114;"
   d="M252.568,192.65c-0.216,0-0.433-0.073-0.613-0.222c-2.009-1.676-4.256-2.676-6.499-2.89          c-2.452-0.238-4.851,0.535-6.448,2.054c-0.383,0.363-0.991,0.348-1.354-0.034c-0.364-0.383-0.349-0.99,0.035-1.354          c1.995-1.894,4.973-2.845,7.948-2.572c2.63,0.251,5.238,1.401,7.545,3.325c0.406,0.339,0.461,0.942,0.122,1.349          C253.114,192.533,252.842,192.65,252.568,192.65z"
   id="path52" />
							</g>
						</g>
					</g>
				</g>
				<g
   id="g58">
					<g
   id="g57">
						<path
   style="fill:#E17B48;"
   d="M274.772,214.05c-0.069-3.401,0.46-6.893,2.133-9.855c1.673-2.962,4.615-5.326,7.993-5.729        c4.114-0.492,8.258,2.105,10.12,5.806c1.862,3.701,1.611,8.251-0.117,12.016c-1.246,2.716-3.267,5.126-5.899,6.54        c-2.632,1.414-5.891,1.753-8.652,0.609c-2.76-1.144-4.889-3.853-5.049-6.836L274.772,214.05z"
   id="path56" />
					</g>
				</g>
				<g
   id="g63">
					<g
   id="g60">
						<g
   id="g59">
							<path
   style="fill:#341114;"
   d="M282.314,219.193c-0.468,0-0.876-0.343-0.946-0.818c-0.669-4.568,0.487-9.34,3.169-13.093         c0.874-1.224,1.771-2.136,2.74-2.788c0.792-0.533,1.661-0.917,2.587-1.143c0.502-0.126,1.03,0.187,1.157,0.702         c0.126,0.513-0.188,1.031-0.702,1.157c-0.705,0.173-1.37,0.467-1.974,0.872c-0.775,0.522-1.512,1.278-2.25,2.312         c-2.398,3.355-3.43,7.621-2.832,11.703c0.077,0.523-0.286,1.009-0.809,1.086C282.406,219.19,282.36,219.193,282.314,219.193z         "
   id="path58" />
						</g>
					</g>
					<g
   id="g62">
						<g
   id="g61">
							<circle
   style="fill:#FFE7D6;"
   cx="289.948"
   cy="217.979"
   r="1.974"
   id="circle60" />
						</g>
					</g>
				</g>
				<g
   id="g79">
					<g
   id="g66">
						<g
   id="g65">
							<g
   id="g64">
								<path
   style="fill:#FFFFFF;"
   d="M302.588,206.002c-0.262,0.746-0.524,1.492-0.787,2.239          c-0.222,0.645-0.444,1.291-0.625,1.956v-0.726c0-0.827-0.02-1.654-0.061-2.481c-0.323-9.116-2.138-17.769-5.284-25.635          c-0.666-1.654-1.392-3.288-2.178-4.881c-0.222-0.444-0.444-0.908-0.686-1.351c-3.328-6.394-7.644-12.142-12.827-17.043          c-0.363-0.363-0.746-0.706-1.129-1.049c-2.34-2.118-4.861-4.054-7.523-5.809c-4.457-2.924-9.157-5.204-14.038-6.837          c-0.545-0.202-1.109-0.383-1.674-0.545c-7.18-2.198-14.703-3.005-22.347-2.44c-0.746,0.04-1.492,0.101-2.259,0.202h-0.02          c-4.457,0.464-8.935,1.412-13.392,2.804c-0.867,0.262-1.714,0.545-2.582,0.847c1.089-0.928,2.198-1.835,3.348-2.682          c0.02,0,0.02,0,0.04-0.02c0.887-0.242,1.755-0.484,2.642-0.706c3.872-0.988,7.745-1.634,11.577-1.936          c0.787-0.081,1.553-0.121,2.32-0.141c7.543-0.343,14.945,0.625,22.004,2.884c0.545,0.181,1.109,0.363,1.654,0.565          c4.699,1.654,9.238,3.913,13.554,6.737c2.844,1.855,5.486,3.933,7.967,6.192c0.383,0.343,0.766,0.706,1.15,1.069          c5.224,5.002,9.58,10.851,12.949,17.345c0.222,0.444,0.464,0.887,0.665,1.351c0.807,1.654,1.573,3.328,2.239,5.062          c2.803,6.978,4.558,14.562,5.163,22.529C302.507,204.328,302.567,205.155,302.588,206.002z"
   id="path63" />
							</g>
						</g>
					</g>
					<g
   id="g69">
						<g
   id="g68">
							<g
   id="g67">
								<path
   style="fill:#FFFFFF;"
   d="M243.835,132.163c-0.504,0.383-1.008,0.787-1.513,1.19c-2.501,2.017-4.901,4.155-7.221,6.414          c-0.565,0.524-1.109,1.089-1.674,1.634c-5.91,6.031-11.133,12.767-15.429,20.008c-1.896,3.167-3.61,6.454-5.123,9.802          c-0.121,0.282-0.403,0.444-0.686,0.444c-0.101,0-0.202-0.02-0.303-0.081c-0.383-0.161-0.565-0.605-0.383-0.988          c1.533-3.348,3.247-6.635,5.123-9.822c4.094-6.898,8.975-13.352,14.522-19.161h0.02c0.504-0.565,1.049-1.129,1.613-1.694          c2.057-2.077,4.195-4.054,6.414-5.93c0.504-0.464,1.029-0.887,1.553-1.311C241.758,132.466,242.807,132.305,243.835,132.163          z"
   id="path66" />
							</g>
						</g>
					</g>
					<g
   id="g72">
						<g
   id="g71">
							<g
   id="g70">
								<path
   style="fill:#FFFFFF;"
   d="M270.176,134.967c-0.363,0.202-0.706,0.403-1.049,0.625c-3.671,2.239-7.1,4.8-10.367,7.624          c-0.444,0.383-0.887,0.766-1.311,1.17c-6.676,5.97-12.606,12.969-18.132,20.189h-0.02c-2.239,2.945-4.417,5.91-6.555,8.874          c-0.141,0.202-0.383,0.323-0.605,0.323c-0.161,0-0.323-0.04-0.444-0.141c-0.343-0.242-0.424-0.726-0.182-1.069          c1.674-2.32,3.389-4.639,5.103-6.958h0.02c5.829-7.745,12.061-15.308,19.14-21.762c0.444-0.403,0.888-0.807,1.331-1.19          c3.187-2.803,6.555-5.405,10.145-7.684c0.343-0.222,0.706-0.424,1.049-0.645          C268.945,134.503,269.551,134.725,270.176,134.967z"
   id="path69" />
							</g>
						</g>
					</g>
					<g
   id="g75">
						<g
   id="g74">
							<g
   id="g73">
								<path
   style="fill:#FFFFFF;"
   d="M292.725,150.457c-0.303,0.161-0.585,0.303-0.887,0.464          c-3.59,1.916-7.059,4.014-10.407,6.293c-0.444,0.282-0.867,0.565-1.291,0.867c-5.567,3.873-10.77,8.229-15.571,13.029          c-3.751,3.711-7.241,7.684-10.427,11.9c-0.141,0.182-0.363,0.282-0.605,0.282c-0.141,0-0.303-0.04-0.444-0.141          c-0.343-0.262-0.403-0.726-0.141-1.069c2.945-3.893,6.152-7.604,9.58-11.093c5.042-5.143,10.569-9.822,16.478-13.957          c0.423-0.303,0.847-0.585,1.271-0.887c3.388-2.299,6.898-4.437,10.528-6.394c0.282-0.141,0.565-0.303,0.867-0.444          C292.039,149.69,292.382,150.074,292.725,150.457z"
   id="path72" />
							</g>
						</g>
					</g>
					<g
   id="g78">
						<g
   id="g77">
							<g
   id="g76">
								<path
   style="fill:#FFFFFF;"
   d="M304.423,172.562c-0.303,0.081-0.605,0.181-0.908,0.282          c-2.844,0.928-5.688,1.936-8.471,3.066c-0.464,0.182-0.928,0.363-1.392,0.565c-9.378,3.832-18.354,8.673-26.623,14.38v0.02          c-1.029,0.706-2.057,1.432-3.066,2.178c-0.121,0.101-0.282,0.141-0.444,0.141c-0.222,0-0.464-0.101-0.605-0.303          c-0.242-0.343-0.181-0.827,0.161-1.069c1.412-1.029,2.824-2.037,4.276-3.005c8.007-5.405,16.619-10.004,25.615-13.695          c0.464-0.202,0.928-0.383,1.412-0.565c2.864-1.15,5.768-2.199,8.713-3.146c0.303-0.121,0.605-0.222,0.928-0.303          C304.181,171.594,304.302,172.078,304.423,172.562z"
   id="path75" />
							</g>
						</g>
					</g>
				</g>
				<g
   id="g88">
					<g
   id="g81">
						<g
   id="g80">
							<path
   style="fill:#FFFFFF;"
   d="M218.111,167.771c0,2.749-2.229,4.978-4.978,4.978c-2.749,0-4.978-2.229-4.978-4.978         c0-2.749,2.229-4.978,4.978-4.978C215.883,162.793,218.111,165.022,218.111,167.771z"
   id="path79" />
						</g>
					</g>
					<g
   id="g83">
						<g
   id="g82">
							<path
   style="fill:#FFFFFF;"
   d="M238.366,170.174c0,2.749-2.229,4.978-4.978,4.978c-2.749,0-4.978-2.229-4.978-4.978         c0-2.749,2.229-4.978,4.978-4.978C236.138,165.196,238.366,167.425,238.366,170.174z"
   id="path81" />
						</g>
					</g>
					<g
   id="g85">
						<g
   id="g84">
							<circle
   style="fill:#FFFFFF;"
   cx="256.39"
   cy="180.301"
   r="4.978"
   id="circle83" />
						</g>
					</g>
					<g
   id="g87">
						<g
   id="g86">
							<path
   style="fill:#FFFFFF;"
   d="M271.238,190.171c0,2.749-2.229,4.978-4.978,4.978s-4.978-2.229-4.978-4.978         c0-2.749,2.229-4.978,4.978-4.978S271.238,187.422,271.238,190.171z"
   id="path85" />
						</g>
					</g>
				</g>
			</g>
			<g
   id="g100">
				<g
   id="g91">
					<g
   id="g90">
						<path
   style="fill:#38af56;fill-opacity:1"
   d="M375.277,467.978c-17.587,7.382-33.884,17.809-48.043,30.556h-24.909        c19.826-16.68,43.061-29.548,67.607-37.333l0.766,0.988L375.277,467.978z"
   id="path89" />
					</g>
				</g>
				<g
   id="g93">
					<g
   id="g92">
						<path
   style="fill:#FFFFFF;"
   d="M191.923,360.578l-1.863-0.772c1.69-4.072,3.126-7.621,4.427-10.835        c4.899-12.107,7.857-19.416,15.199-32.194c8.27-14.396,19.442-28.734,31.461-40.374l1.402,1.45        c-11.886,11.512-22.936,25.692-31.114,39.928c-7.273,12.659-10.211,19.918-15.078,31.945        C195.052,352.947,193.614,356.5,191.923,360.578z"
   id="path91" />
					</g>
				</g>
				<g
   id="g95">
					<g
   id="g94">
						<path
   style="fill:#38af56;fill-opacity:1"
   d="M189.954,358.555c19.162,1.487,37.849,8.633,53.114,20.311        c-1.66,8.342-5.726,14.617-10.281,21.799c-3.499,5.518-7.279,11.232-13.016,14.361c-10.884-4.144-20.571-11.283-26.263-21.443        C187.816,383.423,187.805,370.001,189.954,358.555z"
   id="path93" />
					</g>
				</g>
				<g
   id="g97">
					<g
   id="g96">
						<path
   style="fill:#38af56;fill-opacity:1"
   d="M305.67,341.535c-13.115-1.776-26.802,0.993-38.195,7.727        c-11.393,6.734-20.419,17.389-25.188,29.734c7.183,11.404,19.858,17.936,32.893,21.362c7.214,1.897,15.396,2.972,21.712-0.996        c4.093-2.571,6.753-6.906,8.689-11.335C311.775,373.854,311.889,355.698,305.67,341.535z"
   id="path95" />
					</g>
				</g>
				<g
   id="g99">
					<g
   id="g98">
						<path
   style="fill:#FFFFFF;"
   d="M306.928,342.592l-1.946-0.526c7.381-27.297,5.993-56.918-3.911-83.405l1.889-0.707        C313.011,284.833,314.42,314.892,306.928,342.592z"
   id="path97" />
					</g>
				</g>
			</g>
			<g
   id="g102">
				<g
   id="g101">
					<path
   style="fill:#FFFFFF;"
   d="M370.698,462.189c-24.142,7.886-46.631,20.25-66.195,36.345h-3.187       c20.008-16.841,43.162-29.81,68.05-38.039l0.565,0.706L370.698,462.189z"
   id="path100" />
				</g>
			</g>
			<g
   id="g104">
				<g
   id="g103">
					<path
   style="fill:#341114;"
   d="M256.582,484.137c-0.337,0-0.664-0.177-0.839-0.494c-3.352-6.059-5.621-12.598-6.741-19.43       c-0.086-0.522,0.268-1.014,0.79-1.101c0.521-0.075,1.013,0.27,1.099,0.79c1.085,6.618,3.281,12.948,6.528,18.816       c0.256,0.463,0.089,1.044-0.374,1.3C256.898,484.099,256.738,484.137,256.582,484.137z"
   id="path102" />
				</g>
			</g>
			<g
   id="g113">
				<g
   id="g106">
					<g
   id="g105">
						<path
   style="fill:#341114;"
   d="M158.028,293.463c-0.328,0-0.647-0.167-0.825-0.47c-0.269-0.456-0.118-1.043,0.337-1.312        c0.792-0.468,1.515-1.048,2.28-1.663c0.338-0.271,0.677-0.543,1.02-0.805c3.662-2.786,8.141-4.539,12.725-4.995        c-0.936-4.884-0.657-10.119,0.819-15.213c0.423-1.457,1.014-3.131,2.2-4.491c0.312-0.355,0.835-0.427,1.232-0.181        c2.972,1.871,4.751,4.55,5.968,6.675c0.861,1.503,1.75,3.058,2.196,4.835c0.129,0.512-0.183,1.032-0.696,1.161        c-0.506,0.127-1.032-0.183-1.161-0.696c-0.381-1.521-1.204-2.958-2.001-4.349c-1.465-2.559-2.875-4.256-4.6-5.514        c-0.625,0.961-1.005,2.083-1.298,3.093c-1.496,5.16-1.691,10.464-0.564,15.335c0.064,0.276,0.003,0.565-0.167,0.792        c-0.17,0.225-0.431,0.365-0.714,0.38c-4.586,0.244-9.123,1.91-12.778,4.692c-0.332,0.252-0.656,0.513-0.981,0.773        c-0.785,0.63-1.595,1.282-2.504,1.819C158.361,293.421,158.194,293.463,158.028,293.463z"
   id="path104" />
					</g>
				</g>
				<g
   id="g108">
					<g
   id="g107">
						<path
   style="fill:#341114;"
   d="M173.222,274.139c-0.167,0-0.336-0.043-0.49-0.135c-7.343-4.386-15.157-8.049-23.227-10.886        c-0.499-0.175-0.761-0.722-0.586-1.22c0.175-0.499,0.725-0.76,1.22-0.586c8.191,2.879,16.122,6.596,23.576,11.048        c0.454,0.272,0.602,0.86,0.331,1.314C173.866,273.973,173.548,274.139,173.222,274.139z"
   id="path106" />
					</g>
				</g>
				<g
   id="g110">
					<g
   id="g109">
						<path
   style="fill:#38af56;fill-opacity:1"
   d="M145.395,353.017c-1.371,9.802-3.363,18.586-6.267,29.215        c-17.426,1.936-38.614-3.361-52.187-13.808c2.924-7.019,6.172-14.179,9.601-21.319c2.098,2.441,4.457,4.639,7.261,6.353        c5.587,3.408,12.565,4.498,19.261,4.094C129.759,357.149,139.062,355.054,145.395,353.017z"
   id="path108" />
					</g>
				</g>
				<g
   id="g112">
					<g
   id="g111">
						<path
   style="fill:#341114;"
   d="M136.749,395.136c-0.064,0-0.129-0.006-0.194-0.02c-0.518-0.106-0.852-0.612-0.744-1.13        l15.963-77.408c0.106-0.518,0.614-0.852,1.131-0.745c0.518,0.106,0.852,0.613,0.745,1.131l-15.963,77.408        C137.592,394.825,137.194,395.136,136.749,395.136z"
   id="path110" />
					</g>
				</g>
			</g>
			<g
   id="g115">
				<g
   id="g114">
					<path
   style="fill:#341114;"
   d="M436.449,429.112v2.703l-87.574-86.525l-6.293-6.212c-0.383-0.383-0.383-0.988-0.02-1.351       c0.383-0.383,0.988-0.383,1.351-0.02L436.449,429.112z"
   id="path113" />
				</g>
			</g>
		</g>
	</g>
</g>















</svg>
