<?xml version="1.0" encoding="UTF-8" standalone="no"?>
<!-- Generator: Adobe Illustrator 24.2.1, SVG Export Plug-In . SVG Version: 6.00 Build 0)  -->

<svg
   version="1.1"
   id="Capa_1"
   x="0px"
   y="0px"
   viewBox="0 0 522.373 522.373"
   style="enable-background:new 0 0 522.373 522.373;"
   xml:space="preserve"
   width="512"
   height="512"
   sodipodi:docname="colombia.svg"
   inkscape:version="1.4 (1:1.4+202410161351+e7c3feb100)"
   xmlns:inkscape="http://www.inkscape.org/namespaces/inkscape"
   xmlns:sodipodi="http://sodipodi.sourceforge.net/DTD/sodipodi-0.dtd"
   xmlns="http://www.w3.org/2000/svg"
   xmlns:svg="http://www.w3.org/2000/svg"><defs
   id="defs67" /><sodipodi:namedview
   id="namedview67"
   pagecolor="#505050"
   bordercolor="#ffffff"
   borderopacity="1"
   inkscape:showpageshadow="0"
   inkscape:pageopacity="0"
   inkscape:pagecheckerboard="1"
   inkscape:deskcolor="#505050"
   inkscape:zoom="1.5683594"
   inkscape:cx="122.42092"
   inkscape:cy="247.71108"
   inkscape:window-width="1920"
   inkscape:window-height="1011"
   inkscape:window-x="0"
   inkscape:window-y="32"
   inkscape:window-maximized="1"
   inkscape:current-layer="g17" />
<g
   id="g67">
	
	<g
   id="g66">
		
		<g
   id="g48">
			<g
   id="g7">
				<g
   id="g6">
					
						<ellipse
   transform="matrix(0.3846 -0.9231 0.9231 0.3846 125.3107 383.7221)"
   style="fill:#bb9700;fill-opacity:1"
   cx="350.447"
   cy="97.878"
   rx="40.438"
   ry="34.924"
   id="ellipse2" />
					
						<ellipse
   transform="matrix(0.9764 -0.2158 0.2158 0.9764 -16.5638 39.1273)"
   style="fill:#ffe400;fill-opacity:1"
   cx="170.925"
   cy="95.427"
   rx="34.924"
   ry="40.438"
   id="ellipse3" />
					
						<ellipse
   transform="matrix(0.9517 -0.3071 0.3071 0.9517 -22.1675 63.4433)"
   style="fill:#bb9700;fill-opacity:1"
   cx="190.531"
   cy="102.167"
   rx="34.924"
   ry="40.438"
   id="ellipse4" />
					
						<ellipse
   transform="matrix(0.322 -0.9467 0.9467 0.322 91.8784 286.069)"
   style="fill:#ffe400;fill-opacity:1"
   cx="245.674"
   cy="78.884"
   rx="40.438"
   ry="34.924"
   id="ellipse5" />
					
						<ellipse
   transform="matrix(0.322 -0.9467 0.9467 0.322 119.9265 366.8997)"
   style="fill:#ffe400;fill-opacity:1"
   cx="316.135"
   cy="99.716"
   rx="40.438"
   ry="34.924"
   id="ellipse6" />
				</g>
				<path
   style="fill:#bb9700;fill-opacity:1"
   d="M311.997,86.541c6.858,21.254-2.463,43.286-20.819,49.209      c-18.356,5.923-38.796-6.506-45.654-27.76c-6.858-21.254,2.463-43.286,20.819-49.209      C284.699,52.858,305.139,65.287,311.997,86.541z"
   id="path6" />
			</g>
			<g
   id="g47">
				<g
   id="g10">
					<path
   style="fill:#FFD972;"
   d="M401.243,111.51c-6.393,3.375-13.389,8.587-15.913,15.968       c-5.158,14.952-21.482,64.446-75.201,71.003c-23.649,2.881-40.056,3.567-51.003,3.457c-10.974,0.11-27.381-0.576-51.03-3.457       c-49.823-6.091-67.464-49.082-73.884-67.217c-0.521-1.427-0.933-2.689-1.317-3.786c-0.933-2.716-2.469-5.13-4.362-7.271       c-3.21-3.704-7.517-6.557-11.55-8.697c-2.689-1.426-1.728-5.515,1.289-5.624l159.866-0.576l3.21,0.165l118.604,0.411       C402.971,105.995,403.931,110.083,401.243,111.51z"
   id="path7" />
					<g
   id="g9">
						<path
   style="fill:#FFE9DC;"
   d="M347.648,156.986c0.039,3.437,1.94,7.012,5.161,8.212c2.294,0.855,4.926,0.409,7.085-0.744        c2.159-1.153,3.906-2.949,5.448-4.85c4.226-5.211,14.19-21.122,1.523-22.403C357.397,136.244,347.546,148.137,347.648,156.986        z"
   id="path8" />
						<path
   style="fill:#FFE9DC;"
   d="M337.413,169.981c-1.034,1.345-1.656,3.053-1.48,4.74c0.251,2.403,2.165,4.47,4.478,5.167        c2.313,0.697,4.908,0.118,6.887-1.267c2.237-1.566,3.759-4.263,3.53-6.984c-0.228-2.721-2.426-5.264-5.145-5.518        C342.618,165.831,339.244,167.598,337.413,169.981z"
   id="path9" />
					</g>
					<path
   style="fill:#3E004D;"
   d="M361.955,118.835l-227.742,12.428c-0.521-1.427-0.933-2.689-1.317-3.786       c-0.933-2.716-2.469-5.13-4.362-7.271L361.955,118.835z"
   id="path10" />
				</g>
				<g
   id="g12">
					<path
   style="fill:#FFAB9F;"
   d="M419.176,205.127c0,0-12.698-19.477-18.724-32.39c-6.026-12.913-23.889-59.615-27.332-58.754       c-3.443,0.861,9.039,44.119,9.039,44.119s-21.307-41.106-25.826-38.524s15.495,47.132,15.495,47.132       s-29.915-39.6-33.358-36.372c-3.443,3.228,27.978,52.298,27.978,52.298s-26.902-15.496-29.485-12.698       c-2.582,2.798,38.631,56.171,38.631,56.171l49.814,95.921l-67.846,11.713l13.404,95.314c0,0,81.352-5.165,112.343-41.321       C514.242,351.65,419.176,205.127,419.176,205.127z"
   id="path11" />
					<path
   style="opacity:0.51;fill:#3E004D;"
   d="M419.176,205.127c0,0-12.698-19.477-18.724-32.39       c-6.026-12.913-23.889-59.615-27.332-58.754c-3.443,0.861,9.039,44.119,9.039,44.119s-21.307-41.106-25.826-38.524       s15.495,47.132,15.495,47.132s-29.915-39.6-33.358-36.372c-3.443,3.228,27.978,52.298,27.978,52.298       s-26.902-15.496-29.485-12.698c-2.582,2.798,38.631,56.171,38.631,56.171l49.814,95.921l-67.846,11.713l13.404,95.314       c0,0,81.352-5.165,112.343-41.321C514.242,351.65,419.176,205.127,419.176,205.127z"
   id="path12" />
				</g>
				<g
   id="g14">
					<path
   style="fill:#FFAB9F;"
   d="M194.491,358.887l-0.48,11.405l-1.922,45.999v0.025l-1.037,24.453l-1.77,42.079l-16.685,20.028       h-60.443c2.933-14.743,6.575-32.722,10.52-50.854c1.72-7.991,3.515-16.007,5.31-23.821       c2.605-11.304,7.409-21.014,13.251-29.283c0-0.025,0-0.025,0-0.025c9.786-13.782,22.531-23.594,33.102-30.017       c10.014-6.12,18.106-9.23,19.826-9.862C194.39,358.937,194.491,358.887,194.491,358.887z"
   id="path13" />
					<path
   style="opacity:0.51;fill:#3E004D;"
   d="M194.491,358.887l-0.48,11.405l-1.922,45.999v0.025l-1.037,24.453l-1.77,42.079       l-16.474,20.028h-60.654c2.933-14.743,6.575-32.722,10.52-50.854c1.72-7.991,3.515-16.007,5.31-23.821       c2.605-11.304,7.409-21.014,13.251-29.283c0-0.025,0-0.025,0-0.025c9.786-13.782,22.531-23.594,33.102-30.017       c10.014-6.12,18.106-9.23,19.826-9.862C194.39,358.937,194.491,358.887,194.491,358.887z"
   id="path14" />
				</g>
				<g
   id="g17"
   style="stroke-width:0.99985457;stroke-dasharray:none">
					<polygon
   style="fill:#FFE9DC;stroke-width:0.99985457;stroke-dasharray:none"
   points="403.748,502.876 172.668,502.876 172.491,484.289 172.111,443.702 191.052,440.769        208.576,438.063 277.688,427.366 278.952,427.164 331.45,419.046 368.75,413.255 394.644,409.26 395.808,421.171        396.263,425.874      "
   id="polygon14" />
					<g
   id="g16"
   style="stroke-width:0.99985457;stroke-dasharray:none">
						<path
   style="fill:#bb9700;stroke-width:0.99985457;stroke-dasharray:none;fill-opacity:1"
   d="M383.45,309.829c0,0,38.308-30.991,50.361-23.243c12.052,7.748-4.304,26.687-4.304,26.687        s24.104,2.152,24.104,16.356c0,14.204-26.256,25.826-26.256,25.826s17.648,12.052,5.596,26.687        c-12.052,14.635-33.143,9.47-33.143,9.47s11.191,25.395-8.178,31.421c-19.369,6.026-34.865-2.583-34.865-2.583        s-9.039,51.652-28.408,49.5c-19.369-2.152-27.117-12.483-27.117-12.483s-29.269,36.587-52.082,29.269        s-24.965-19.369-24.965-19.369s-47.347,29.7-62.413,11.191c-15.065-18.509-2.152-34.004-2.152-34.004        s-34.435,20.23-43.904,0.431c-9.469-19.8,12.052-31.852,12.052-31.852s-28.839,7.317-30.561-12.483        c-1.722-19.8,52.513-33.574,52.513-33.574l136.016,9.9L383.45,309.829z"
   id="path15" />
						<path
   style="fill:#ffe400;stroke-width:0.99985457;stroke-dasharray:none;fill-opacity:1"
   d="M334.811,332.642c0,0,49.069-43.043,53.374-37.448c4.305,5.596-2.582,21.091-2.582,21.091        s20.661-12.052,24.965-3.013c4.304,9.039-7.317,19.8-7.317,19.8s24.535,8.609,9.47,23.243        c-15.065,14.635-32.282,7.317-32.282,7.317s1.291,35.726-16.787,39.6s-27.117-2.583-27.117-2.583s-4.735,36.156-26.256,38.309        c-21.521,2.152-31.852-12.483-31.852-12.483s-22.813,29.269-54.234,19.369c-31.422-9.9-34.435-38.309-34.435-38.309        s-34.004,17.648-45.195,0c-11.191-17.648,8.178-28.408,8.178-28.408s-34.004,10.33-32.282-3.874        c1.722-14.204,75.978-17.658,75.978-17.658S271.538,376.116,334.811,332.642z"
   id="path16" />
					</g>
				</g>
				<g
   id="g46">
					<g
   id="g18">
						<path
   style="fill:#FFBA00;"
   d="M227.419,306.171c0,5.884-4.77,10.653-10.653,10.653c-5.884,0-10.653-4.77-10.653-10.653        c0-5.883,4.77-10.653,10.653-10.653C222.649,295.518,227.419,300.287,227.419,306.171z"
   id="path17" />
						<path
   style="fill:#ffe400;fill-opacity:1"
   d="M233.876,331.028c0,9.093-7.371,16.464-16.464,16.464c-9.093,0-16.464-7.371-16.464-16.464        c0-9.093,7.371-16.464,16.464-16.464C226.504,314.564,233.876,321.935,233.876,331.028z"
   id="path18" />
					</g>
					<g
   id="g21">
						<g
   id="g20">
							<path
   style="fill:#FFAB9F;"
   d="M348.794,331.348c0,0-24.959,66.279-82.641,64.56s-69.719-38.311-69.719-38.311l40.461-9.028         l-0.531-11.835l-0.759-16.564l0.126-0.025l73.461-21.52l0.86,35.732L348.794,331.348z"
   id="path19" />
							<path
   style="opacity:0.51;fill:#3E004D;"
   d="M348.794,331.348c0,0-24.959,66.279-82.641,64.56s-69.719-38.311-69.719-38.311         l40.461-9.028l-0.531-11.835l-0.759-16.564l0.126-0.025l73.461-21.52l0.86,35.732L348.794,331.348z"
   id="path20" />
						</g>
						<path
   style="fill:#3E004D;"
   d="M289.823,319.311c-9.888,16.184-45.442,17.373-53.459,17.423l-0.759-16.564l0.126-0.025        L289.823,319.311z"
   id="path21" />
					</g>
					<g
   id="g26">
						<path
   style="fill:#ffcb1d;fill-opacity:1"
   d="M272.931,226.1c0,0-45.847,69.516-58.415,66.937c-5.841-1.189-15.906-10.317-24.049-23.391        c0-0.025-0.025-0.025-0.025-0.025c-0.683-1.087-1.34-2.2-1.972-3.338c-1.618-2.807-3.11-5.766-4.451-8.825        c-0.784-1.821-1.543-3.692-2.225-5.589c-4.147-11.708-5.841-24.732-2.478-37.375c9.685-36.49,51.663-40.359,52.624-40.688        L272.931,226.1z"
   id="path22" />
						<g
   id="g25">
							<g
   id="g23">
								<path
   style="fill:#3E004D;"
   d="M217.5,184.375c-7.991,6.094-14.541,15.021-18.966,25.819          c-3.667,8.927-5.968,19.016-7.258,31.736c-0.936,9.205-1.189,18.46-0.835,27.69c-0.683-1.087-1.34-2.2-1.972-3.338          c-0.202-8.193,0.101-16.387,0.91-24.554c1.315-12.897,3.667-23.138,7.384-32.242c4.577-11.127,11.329-20.331,19.573-26.628          L217.5,184.375z"
   id="path23" />
							</g>
							<g
   id="g24">
								<path
   style="fill:#3E004D;"
   d="M215.856,179.773c-14.92,8.067-25.92,24.099-30.143,44.001          c-2.377,11.253-2.554,22.734-1.694,33.683c-0.784-1.821-1.543-3.692-2.225-5.589c-0.405-9.357,0.051-18.991,2.048-28.474          c4.35-20.458,15.704-36.971,31.104-45.291L215.856,179.773z"
   id="path24" />
							</g>
						</g>
					</g>
					<g
   id="g31">
						<path
   style="fill:#FFAB9F;"
   d="M195.153,265.456c0.86,13.58,2.832,29.359,7.232,40.713c3.06,7.915,7.283,13.706,13.124,15.097        c19.522,4.678,82.742,2.908,87.926-7.106c1.922-3.717,3.743-7.51,5.487-11.329c3.313,0.708,7.055,0.101,10.444-0.784        c4.274-1.138,8.573-2.579,12.239-5.058c5.639-3.793,9.66-10.191,9.913-16.968c0.253-6.802-3.566-13.757-9.736-16.589        c-2.63-1.189-5.26-1.441-7.814-1.062c0.025-0.101,0.051-0.228,0.051-0.329c1.189-6.651,1.467-13.453,1.087-20.23        c-0.379-6.524-0.835-13.023-2.453-19.396c-2.605-10.292-7.46-19.876-14.616-27.715c-12.29-13.478-29.966-21.292-48.199-21.292        c-11.278,0-21.874,2.858-31.129,7.915c-19.927,10.848-33.582,31.812-34.037,56.013        C194.647,237.336,194.167,249.955,195.153,265.456z"
   id="path26" />
						<path
   style="opacity:0.51;fill:#3E004D;"
   d="M195.153,265.456c0.86,13.58,2.832,29.359,7.232,40.713        c3.06,7.915,7.283,13.706,13.124,15.097c19.522,4.678,82.742,2.908,87.926-7.106c1.922-3.717,3.743-7.51,5.487-11.329        c3.313,0.708,7.055,0.101,10.444-0.784c4.274-1.138,8.573-2.579,12.239-5.058c5.639-3.793,9.66-10.191,9.913-16.968        c0.253-6.802-3.566-13.757-9.736-16.589c-2.63-1.189-5.26-1.441-7.814-1.062c0.025-0.101,0.051-0.228,0.051-0.329        c1.189-6.651,1.467-13.453,1.087-20.23c-0.379-6.524-0.835-13.023-2.453-19.396c-2.605-10.292-7.46-19.876-14.616-27.715        c-12.29-13.478-29.966-21.292-48.199-21.292c-11.278,0-21.874,2.858-31.129,7.915c-19.927,10.848-33.582,31.812-34.037,56.013        C194.647,237.336,194.167,249.955,195.153,265.456z"
   id="path27" />
						<path
   style="fill:#3E004D;"
   d="M219.554,206.617c4.241,5.114,10.629,8.388,17.257,8.844c4.809,0.331,9.866-0.719,14.321,1.124        c0.919,0.38,1.813,0.898,2.416,1.689c1.36,1.784,0.868,4.287,0.95,6.528c0.259,7.142,6.917,12.513,13.723,14.695        c6.805,2.182,14.143,2.204,20.995,4.236c6.851,2.033,13.687,7.04,14.411,14.15c0.152,1.489,0.035,3.049,0.626,4.425        c1.078,2.506,4.296,3.549,6.942,2.888c2.646-0.661,4.771-2.627,6.483-4.75c8.274-10.259,9.036-25.295,3.935-37.447        c-5.101-12.152-15.303-21.611-26.738-28.164c-13.178-7.551-28.115-11.581-43.172-13.016        c-9.082-0.866-31.901-4.293-36.999,6.264C211.941,193.803,215.929,202.245,219.554,206.617z"
   id="path28" />
						<path
   style="fill:#3E004D;"
   d="M312.67,291.402c-0.132,0-0.267-0.025-0.398-0.077c-0.561-0.22-0.837-0.852-0.617-1.413        c2.319-5.929,5.023-10.641,8.265-14.4c4.013-4.658,8.912-7.89,14.169-9.347c0.584-0.161,1.18,0.178,1.342,0.758        c0.16,0.58-0.179,1.18-0.759,1.341c-4.839,1.343-9.369,4.341-13.1,8.67c-3.079,3.571-5.66,8.075-7.888,13.772        C313.517,291.138,313.106,291.402,312.67,291.402z"
   id="path29" />
						<g
   style="opacity:0.56;"
   id="g30">
							
								<ellipse
   transform="matrix(0.9734 -0.2289 0.2289 0.9734 -57.1378 71.8563)"
   style="opacity:0.43;fill:#3E004D;"
   cx="281.148"
   cy="282.205"
   rx="21.306"
   ry="21.306"
   id="ellipse29" />
							<path
   style="opacity:0.43;fill:#3E004D;"
   d="M195.153,265.456c0.86,13.58,2.832,29.359,7.232,40.713         c7.409-3.338,12.593-10.798,12.593-19.446C214.978,275.47,206.229,266.24,195.153,265.456z"
   id="path30" />
						</g>
					</g>
					<path
   style="fill:#3E004D;"
   d="M291.011,244.838c3.35,4.046,5.762,8.864,6.993,13.971c1.465,6.073,1.067,13.03-2.943,17.821       c5.627-0.797,11.11-2.722,14.719-7.113c3.609-4.391,5.499-10.158,5.19-15.832c-0.221-4.059-1.754-8.333-5.159-10.554       c-2.557-1.668-5.749-1.938-8.795-2.14C298.315,242.545,294.124,244.985,291.011,244.838z"
   id="path31" />
					<g
   id="g33">
						<path
   style="fill:#3E004D;"
   d="M252.202,258.531c0,3.506,2.842,6.349,6.349,6.349c3.506,0,6.349-2.843,6.349-6.349        c0-3.506-2.842-6.349-6.349-6.349C255.044,252.182,252.202,255.025,252.202,258.531z"
   id="path32" />
						<path
   style="fill:#3E004D;"
   d="M206.145,260.145c0,3.506,2.843,6.349,6.349,6.349c3.506,0,6.349-2.843,6.349-6.349        s-2.842-6.349-6.349-6.349C208.988,253.796,206.145,256.639,206.145,260.145z"
   id="path33" />
					</g>
					<path
   style="fill:#3E004D;"
   d="M234.256,278.748c-0.096,0-0.195-0.005-0.296-0.015c-0.803-0.077-1.41-0.459-1.947-0.795       c-0.254-0.161-0.509-0.323-0.789-0.437c-0.606-0.249-1.373-0.254-2.186-0.262c-1.079-0.007-2.195-0.015-3.192-0.575       c-1.211-0.679-1.868-2.062-1.674-3.519c0.157-1.183,0.787-2.208,1.342-3.114c0.257-0.422,0.803-0.551,1.226-0.294       c0.42,0.259,0.551,0.808,0.293,1.227c-0.484,0.79-0.987,1.608-1.093,2.415c-0.074,0.556,0.085,1.338,0.779,1.729       c0.598,0.336,1.44,0.343,2.332,0.348c0.945,0.007,1.923,0.015,2.844,0.393c0.375,0.151,0.722,0.363,1.064,0.578       c0.424,0.267,0.789,0.494,1.173,0.533c0.522,0.02,1.011-0.244,1.741-0.731c0.58-0.388,1.24-0.83,2.05-1.01       c0.964-0.225,1.911-0.017,2.746,0.163c0.28,0.059,0.559,0.121,0.837,0.163c1.382,0.207,2.772-0.089,3.618-0.78       c0.685-0.561,1.061-1.581,0.504-2.321c-0.295-0.395-0.215-0.953,0.179-1.25c0.395-0.299,0.954-0.212,1.248,0.178       c1.073,1.432,0.721,3.529-0.801,4.774c-1.241,1.017-3.115,1.457-5.018,1.163c-0.314-0.049-0.627-0.116-0.941-0.183       c-0.715-0.153-1.394-0.301-1.979-0.168c-0.488,0.109-0.956,0.422-1.452,0.753C236.134,278.2,235.313,278.748,234.256,278.748z"
   id="path34" />
					<path
   style="fill:#3E004D;"
   d="M238.828,290.409c-3.286,0-6.578-1-9.289-2.86c-0.496-0.341-0.622-1.02-0.282-1.516       c0.341-0.494,1.02-0.622,1.516-0.282c2.868,1.968,6.497,2.825,9.935,2.349c3.447-0.474,6.701-2.279,8.929-4.954       c0.385-0.459,1.075-0.521,1.535-0.138c0.463,0.385,0.525,1.072,0.14,1.536c-2.571,3.084-6.327,5.169-10.305,5.714       C240.285,290.36,239.556,290.409,238.828,290.409z"
   id="path35" />
					<g
   id="g37">
						<path
   style="fill:#3E004D;"
   d="M201.592,246.556c0.727-3.092,3.503-5.417,6.617-6.238c3.123-0.786,6.677-0.093,8.808,2.262        c0.337,0.372,0.308,0.947-0.064,1.283c-0.166,0.15-0.372,0.228-0.579,0.234l-0.065,0.002        c-2.737,0.089-4.839,0.263-6.916,0.817c-2.085,0.519-4.009,1.383-6.449,2.628l-0.056,0.029        c-0.447,0.228-0.994,0.051-1.222-0.396C201.565,246.978,201.545,246.757,201.592,246.556z"
   id="path36" />
						<path
   style="fill:#3E004D;"
   d="M252.845,243.595c1.72-2.67,5.114-3.932,8.324-3.664c3.207,0.304,6.323,2.148,7.543,5.08        c0.193,0.463-0.027,0.995-0.49,1.188c-0.206,0.086-0.426,0.09-0.624,0.027l-0.061-0.02c-2.61-0.832-4.648-1.372-6.79-1.545        c-2.139-0.209-4.241-0.039-6.957,0.318l-0.063,0.008c-0.498,0.065-0.954-0.285-1.019-0.783        C252.679,243.984,252.733,243.769,252.845,243.595z"
   id="path37" />
					</g>
					<g
   id="g44">
						<path
   style="fill:#ffcb1d;fill-opacity:1"
   d="M344.546,279.457c-0.506,1.947-1.087,3.717-1.821,5.285c-0.303,0.733-0.657,1.416-1.037,2.048        c-3.11,5.386-6.954,8.8-10.494,11c-0.733,0.455-1.416,0.835-2.099,1.189c-4.678,2.402-8.37,2.681-8.37,2.681        c3.793-10.469,0.658-21.419-6.423-29.991s-16.816-14.465-26.198-20.433c-7.308-4.653-14.541-9.458-21.697-14.389        c-20.256-14.009-47.364-33.582-58.997-55.279c0,0,2.2-1.593,6.625-3.591c0.607-0.278,1.264-0.556,1.947-0.834        c2.63-1.113,5.867-2.251,9.711-3.338c0.784-0.202,1.593-0.43,2.428-0.632c3.54-0.885,7.561-1.669,12.062-2.251        c0.784-0.126,1.593-0.202,2.402-0.303c6.55-0.708,14.009-0.986,22.43-0.531c0,0,0,0,0.025,0        c1.163,0.076,2.352,0.152,3.54,0.253c1.012,0.076,2.023,0.152,3.06,0.253c38.867,3.768,53.509,5.715,62.84,28.55        c0.43,0.986,0.809,2.023,1.214,3.085c0.607,1.72,1.214,3.54,1.795,5.487c1.745,5.791,3.287,11.708,4.552,17.55        c0,0.025,0,0.025,0,0.025c0.329,1.543,0.658,3.06,0.936,4.577C346.746,249.137,347.631,267.522,344.546,279.457z"
   id="path38" />
						<g
   id="g43">
							<g
   id="g39">
								<path
   style="fill:#3E004D;"
   d="M331.194,297.791c-0.733,0.455-1.416,0.835-2.099,1.189c1.34-8.067,0.683-16.437-2.023-24.2          c-2.099-6.12-5.589-12.29-10.646-18.89c-13.605-17.803-32.217-30.952-50.298-42.534c-3.743-2.377-7.485-4.729-11.253-7.081          c-13.832-8.674-28.095-17.6-40.84-28.297c0.607-0.278,1.264-0.556,1.947-0.834c12.442,10.343,26.375,19.067,39.904,27.513          c3.768,2.352,7.51,4.704,11.253,7.106c18.233,11.658,37.021,24.934,50.803,42.964c5.184,6.777,8.75,13.124,10.924,19.421          C331.497,281.733,332.281,289.876,331.194,297.791z"
   id="path39" />
							</g>
							<g
   id="g40">
								<path
   style="fill:#3E004D;"
   d="M344.546,279.457c-0.506,1.947-1.087,3.717-1.821,5.285          c0.101-9.736-1.189-17.828-3.92-24.959c-3.009-7.814-7.89-14.844-12.745-21.242c-5.209-6.878-11.557-14.743-19.396-20.964          c-9.584-7.586-21.115-12.543-32.293-17.322c-3.287-1.416-6.575-2.832-9.812-4.299          c-13.403-6.094-26.451-13.529-38.867-22.152c0.784-0.202,1.593-0.43,2.428-0.632c11.885,8.168,24.403,15.223,37.224,21.039          c3.237,1.492,6.499,2.883,9.786,4.299c11.278,4.83,22.936,9.837,32.697,17.575c8.016,6.347,14.465,14.338,19.75,21.292          c4.931,6.55,9.913,13.681,12.998,21.722C342.877,265.119,344.166,271.795,344.546,279.457z"
   id="path40" />
							</g>
							<g
   id="g41">
								<path
   style="fill:#3E004D;"
   d="M342.978,229.868c-5.589-8.598-13.934-16.311-24.352-22.531          c-11.253-6.701-23.745-11.127-35.555-14.895l-3.313-1.062c-7.536-2.377-15.324-4.83-22.557-8.37          c-6.954-3.389-12.644-7.435-17.019-12.088c0.784-0.126,1.593-0.202,2.402-0.303c4.046,4.071,9.23,7.662,15.451,10.697          c7.106,3.464,14.819,5.892,22.279,8.244l3.338,1.062c11.911,3.818,24.529,8.269,35.934,15.072          c9.23,5.513,16.842,12.163,22.456,19.573c0,0.025,0,0.025,0,0.025C342.371,226.833,342.7,228.351,342.978,229.868z"
   id="path41" />
							</g>
							<g
   id="g42">
								<path
   style="fill:#3E004D;"
   d="M335.695,202.228c-8.244-5.791-17.777-9.761-29.309-13.782          c-1.846-0.632-3.692-1.264-5.538-1.897c-9.382-3.212-19.092-6.55-27.968-11.405c-3.009-1.618-5.589-3.313-7.839-5.058          c1.163,0.076,2.352,0.152,3.54,0.253c1.568,1.062,3.313,2.099,5.209,3.136c8.724,4.779,18.359,8.092,27.69,11.278          c1.846,0.632,3.692,1.264,5.538,1.897c10.646,3.717,19.598,7.409,27.463,12.492          C334.911,200.129,335.29,201.166,335.695,202.228z"
   id="path42" />
							</g>
						</g>
					</g>
					<g
   id="g45">
						<path
   style="fill:#ffe400;fill-opacity:1"
   d="M324.589,306.171c0,5.884-4.77,10.653-10.653,10.653c-5.883,0-10.653-4.77-10.653-10.653        c0-5.883,4.77-10.653,10.653-10.653C319.819,295.518,324.589,300.287,324.589,306.171z"
   id="path44" />
						<path
   style="fill:#ffe400;fill-opacity:1"
   d="M331.045,331.028c0,9.093-7.371,16.464-16.464,16.464c-9.093,0-16.464-7.371-16.464-16.464        c0-9.093,7.371-16.464,16.464-16.464C323.674,314.564,331.045,321.935,331.045,331.028z"
   id="path45" />
					</g>
				</g>
			</g>
		</g>
		
		
	</g>
</g>















</svg>
