<?xml version="1.0" encoding="UTF-8" standalone="no"?>
<!-- Generator: Adobe Illustrator 25.4.6, SVG Export Plug-In . SVG Version: 6.00 Build 0)  -->

<svg
   version="1.1"
   id="Capa_1"
   x="0px"
   y="0px"
   viewBox="0 0 511.454 511.454"
   style="enable-background:new 0 0 511.454 511.454;"
   xml:space="preserve"
   width="512"
   height="512"
   sodipodi:docname="cuba.svg"
   inkscape:version="1.4 (1:1.4+202410161351+e7c3feb100)"
   xmlns:inkscape="http://www.inkscape.org/namespaces/inkscape"
   xmlns:sodipodi="http://sodipodi.sourceforge.net/DTD/sodipodi-0.dtd"
   xmlns="http://www.w3.org/2000/svg"
   xmlns:svg="http://www.w3.org/2000/svg"><defs
   id="defs78" /><sodipodi:namedview
   id="namedview78"
   pagecolor="#505050"
   bordercolor="#ffffff"
   borderopacity="1"
   inkscape:showpageshadow="0"
   inkscape:pageopacity="0"
   inkscape:pagecheckerboard="1"
   inkscape:deskcolor="#505050"
   inkscape:zoom="0.55449878"
   inkscape:cx="106.4024"
   inkscape:cy="320.10891"
   inkscape:window-width="1920"
   inkscape:window-height="1011"
   inkscape:window-x="0"
   inkscape:window-y="32"
   inkscape:window-maximized="1"
   inkscape:current-layer="g77" />
<g
   id="g78">
	
	<g
   id="g77">
		
		
		
		<g
   id="g76">
			<g
   id="g34">
				<g
   id="g27">
					<g
   id="g24">
						
							<rect
   x="435.825"
   y="255.697"
   transform="matrix(0.9361 -0.3518 0.3518 0.9361 -74.9202 172.3361)"
   style="fill:#6C2175;"
   width="1.876"
   height="73.263"
   id="rect23" />
					</g>
					<g
   id="g25">
						
							<rect
   x="457.32"
   y="247.822"
   transform="matrix(0.9361 -0.3518 0.3518 0.9361 -70.7745 179.3866)"
   style="fill:#6C2175;"
   width="1.876"
   height="73.263"
   id="rect24" />
					</g>
					<g
   id="g26">
						
							<rect
   x="476.261"
   y="242.928"
   transform="matrix(0.9361 -0.3518 0.3518 0.9361 -67.8434 185.7448)"
   style="fill:#6C2175;"
   width="1.876"
   height="73.263"
   id="rect25" />
					</g>
				</g>
				<g
   id="g28">
					<path
   style="fill:#6C2175;"
   d="M421.866,267.216l-2.113-6.988c-0.371-1.228,0.247-2.538,1.432-3.032l3.255-1.356       c1.28-0.533,2.749,0.076,3.275,1.359l2.451,5.974L421.866,267.216z"
   id="path27" />
				</g>
				<g
   id="g29">
					<path
   style="fill:#6C2175;"
   d="M443.999,257.852l-2.113-6.988c-0.371-1.228,0.247-2.538,1.432-3.032l3.255-1.356       c1.28-0.533,2.749,0.076,3.275,1.359l2.451,5.974L443.999,257.852z"
   id="path28" />
				</g>
				<g
   id="g30">
					<path
   style="fill:#6C2175;"
   d="M462.089,252.531l-2.113-6.988c-0.371-1.228,0.247-2.538,1.432-3.032l3.255-1.356       c1.28-0.533,2.749,0.077,3.275,1.359l2.451,5.974L462.089,252.531z"
   id="path29" />
				</g>
				<g
   id="g31">
					<path
   style="fill:#6C2175;"
   d="M491.37,303.428l3.262,6.531c0.574,1.148,0.185,2.544-0.899,3.23l-2.979,1.886       c-1.171,0.742-2.723,0.389-3.458-0.787l-3.424-5.474L491.37,303.428z"
   id="path30" />
				</g>
				<g
   id="g32">
					<path
   style="fill:#6C2175;"
   d="M474.482,313.944l2.384,6.901c0.419,1.213-0.148,2.546-1.312,3.085l-3.199,1.482       c-1.258,0.583-2.75,0.031-3.326-1.23l-2.682-5.874L474.482,313.944z"
   id="path31" />
				</g>
				<g
   id="g33">
					<path
   style="fill:#6C2175;"
   d="M452.737,321.022l1.77,7.083c0.311,1.245-0.371,2.523-1.578,2.959l-3.317,1.196       c-1.304,0.47-2.742-0.21-3.205-1.517l-2.157-6.086L452.737,321.022z"
   id="path32" />
				</g>
			</g>
			<g
   id="g35">
				<path
   style="fill:#FFEFDB;"
   d="M326.084,238.165c0,0,45.237,5.8,71.414,48.577c26.177,42.776,16.6,165.36,8.3,174.936      c-8.3,9.577-30.646,15.961-30.646,15.961v12.769H155.524l13.408-218.99c0,0,41.344-27.994,100.025-27.454l53.046-4.151      L326.084,238.165z"
   id="path34" />
			</g>
			<g
   id="g36">
				<path
   style="fill:#6C2175;"
   d="M266.273,305.925l-1.223-1.422l0.711-0.611c8.693-7.471,20.079-13.139,33.839-16.847      c13.15-3.542,23.85-5.744,34.362-7.058c-5.101-4.782-10.981-9.192-17.918-13.439c-0.282-0.173-0.453-0.481-0.448-0.812      c0.004-0.331,0.183-0.635,0.47-0.8c15.513-8.928,33.847-12.689,51.619-10.592l0.931,0.11l-0.22,1.862l-0.932-0.11      c-16.85-1.988-34.221,1.411-49.088,9.581c7.117,4.468,13.123,9.131,18.323,14.225c0.258,0.253,0.348,0.632,0.23,0.974      s-0.421,0.586-0.779,0.627c-11.061,1.27-22.183,3.503-36.062,7.242c-13.487,3.634-24.625,9.172-33.104,16.459L266.273,305.925z"
   id="path35" />
			</g>
			<g
   id="g37">
				<path
   style="fill:#6C2175;"
   d="M234.627,433.289l-1.818-0.459l32.975-130.614c-0.082-27.432-29.31-38.48-29.605-38.588      c-0.39-0.143-0.64-0.526-0.612-0.941c0.026-0.415,0.323-0.762,0.729-0.854l20.762-4.701l-12.939-11.322l1.235-1.412      l14.325,12.536c0.266,0.232,0.379,0.594,0.292,0.936c-0.087,0.342-0.358,0.606-0.702,0.684l-19.774,4.477      c7.492,3.568,28.166,15.567,28.166,39.3c0,0.077-0.01,0.154-0.028,0.229L234.627,433.289z"
   id="path36" />
			</g>
			<g
   id="g38">
				<path
   style="fill:#FFEFDB;"
   d="M187.553,261.47c0,0-140.034,77.891-138.757,124.711c1.277,46.82,111.091,51.928,111.091,51.928      l4.256-71.081l0.426-6.385l8.938-19.579L187.553,261.47z"
   id="path37" />
			</g>
			<g
   id="g39">
				<path
   style="fill:#FFA361;"
   d="M295.515,379.021c-2.399-15.059-51.284-68.766-51.609-69.768      c-8.346-1.216-16.899-0.923-25.183,0.674c-4.604,0.889-9.116,2.188-13.492,3.874c-11.965,4.581-20.283,13.948-30.585,20.808      c-2.028,1.367-4.125,2.621-6.336,3.738c-1.185,0.593-2.37,1.117-3.578,1.573c-12.056,4.512-25.548,2.94-38.835,2.461      c-3.168-0.114-6.336-0.16-9.458-0.046c-18.893,0.661-37.695,7.817-51.324,20.921c-8.683,8.364-12.808,13.104-16.318,22.471      c-2.005,5.31-3.806,12.147-6.108,21.993l-2.416,9.093c-6.609,28.192-4.467,47.313,4.626,73.749H218.54      c0.091-0.068,0.182-0.114,0.296-0.16c1.573-0.866,2.175-5.682,3.816-6.435c11.274-5.323,43.503-18.46,56.117-24.787      C280.672,454.397,296.789,387.015,295.515,379.021z"
   id="path38" />
			</g>
			<g
   id="g40">
				<polygon
   style="fill:#6C2175;"
   points="76.036,432.15 95.19,425.34 114.344,473.011 98.595,481.098     "
   id="polygon39" />
			</g>
			<g
   id="g41">
				
					<ellipse
   transform="matrix(0.7071 -0.7071 0.7071 0.7071 -247.1698 233.9541)"
   style="fill:#43002F;"
   cx="158.823"
   cy="415.337"
   rx="36.818"
   ry="36.818"
   id="ellipse40" />
			</g>
			<g
   id="g42">
				<path
   style="fill:#6C2175;"
   d="M305.349,416.267c-0.752,5.903-2.097,11.691-4.239,17.275c-0.182,0.524-0.388,1.026-0.592,1.55      c-5.493,13.355-15.384,24.978-27.759,32.453c-2.074,1.253-4.194,2.37-6.381,3.373c-0.114,0.068-0.228,0.114-0.342,0.16      c-2.074,0.957-4.216,1.777-6.404,2.484c-12.079,3.897-24.158,7.999-35.325,14.039c-0.205,0.114-0.41,0.228-0.615,0.365      c-1.413,0.752-2.758,1.573-4.079,2.439c-0.091,0.046-0.16,0.091-0.251,0.16h-39.177c0.023-0.046,0.068-0.114,0.114-0.16      c4.034-5.105,8.318-9.959,13.629-13.72c18.096-12.876,43.94-10.21,62.104-22.973c10.415-7.339,17.116-19.098,20.147-31.451      c3.031-12.307,2.689-25.275,1.117-37.878c-0.023-0.251-0.068-0.501-0.114-0.752c-1.618-12.535-4.604-25.206-9.937-36.578      c-2.324-4.923-5.059-9.595-8.296-13.925c-1.618-2.165-3.373-4.239-5.265-6.199c-9.093-9.504-21.993-15.93-34.96-17.002      c10.757-2.074,21.97-1.96,32.59,0.82c4.376,1.139,8.41,2.644,12.147,4.467c10.689,5.173,18.848,12.945,25.001,22.403      c6.017,9.207,10.142,20.033,12.899,31.633c0.228,0.934,0.433,1.891,0.661,2.849c0.068,0.296,0.137,0.615,0.182,0.934      c0.205,0.889,0.387,1.778,0.57,2.666c0.296,1.436,0.593,2.894,0.843,4.353c0.319,1.732,0.615,3.464,0.866,5.219      c0.137,0.775,0.228,1.573,0.342,2.37C306.124,397.146,306.511,406.831,305.349,416.267z"
   id="path41" />
			</g>
			<g
   id="g43">
				<polygon
   style="fill:#43002F;"
   points="413.14,282.113 426.548,320.42 206.281,413.635 192.235,380.435     "
   id="polygon42" />
			</g>
			<g
   id="g49">
				<g
   id="g46">
					<g
   id="g44">
						<path
   style="fill:#FF6666;"
   d="M353.285,411.4c0,0-21.441-77.147-17.185-78.423c4.256-1.277,11.492,26.389,11.492,26.389        l3.831-2.128c0,0-7.661-47.246-3.405-48.948c4.256-1.703,9.364,27.666,9.364,27.666s-4.682-31.923,0.426-33.625        c5.108-1.703,14.897,42.989,14.897,42.989l2.979-1.702c0,0-9.364-44.266-3.831-45.118c5.533-0.851,13.62,39.159,13.62,39.159        l7.236-2.979l9.258,61.558L353.285,411.4z"
   id="path43" />
					</g>
					<g
   style="opacity:0.55;"
   id="g45">
						<path
   style="fill:#6C2175;"
   d="M353.126,410.443c0,0-21.282-76.189-17.025-77.466c4.256-1.277,11.492,26.389,11.492,26.389        l3.831-2.128c0,0-7.661-47.246-3.405-48.948c4.256-1.703,9.364,27.666,9.364,27.666s-4.682-31.923,0.426-33.625        c5.108-1.703,14.897,42.989,14.897,42.989l2.979-1.702c0,0-9.364-44.266-3.831-45.118c5.533-0.851,13.62,39.159,13.62,39.159        l7.236-2.979l9.151,61.93L353.126,410.443z"
   id="path44" />
					</g>
				</g>
				<g
   id="g47">
					<path
   style="fill:#6C2175;"
   d="M348.044,459.152l-5.215-45.624c-0.052-0.456,0.233-0.883,0.676-1.009l60.016-17.025       c0.261-0.072,0.545-0.031,0.773,0.12c0.228,0.151,0.378,0.394,0.413,0.665l4.373,34.555l-1.86,0.235l-4.236-33.473l-58.2,16.51       l5.124,44.833L348.044,459.152z"
   id="path46" />
				</g>
				<g
   id="g48">
					<path
   style="fill:#6C2175;"
   d="M368.026,479.434c-28.925,0.001-40.676-17.639-40.801-17.832l-0.508-0.787l1.573-1.017       l0.51,0.785c0.129,0.2,13.341,19.904,46.578,16.602l0.934-0.093l0.185,1.866l-0.933,0.093       C372.932,479.314,370.418,479.434,368.026,479.434z"
   id="path47" />
				</g>
			</g>
			<g
   id="g50">
				<path
   style="fill:#FFA361;"
   d="M478.669,256.871l-8.729,3.373l-18.164,6.997l-21.354,8.227l-17.275,6.655l13.401,38.288      l18.529-5.948l21.833-6.997l18.529-5.925l8.227-2.644c1.459-0.456,2.78-1.094,4.011-1.869v-35.872      C492.936,256.187,485.484,254.25,478.669,256.871z M426.844,284.994l6.29-2.302l21.514-7.84l18.278-6.7l10.757-3.92l2.233,7.361      l-10.392,3.487l-18.46,6.176h-0.023l-21.696,7.293h-0.023l-6.541,2.188L426.844,284.994z M481.541,291.148l-18.46,6.176      l-21.696,7.293l-5.242,1.755l-1.937-5.766l4.968-1.823l21.514-7.84l18.278-6.655l12.056-4.398l2.256,7.316L481.541,291.148z"
   id="path49" />
			</g>
			<g
   id="g70">
				<g
   id="g51">
					<path
   style="fill:#6C2175;"
   d="M359.51,146.974c0,0,1.703,4.682-3.405,7.874c-5.108,3.192-102.791,15.323-102.791,15.323       l-0.639-25.538C252.675,144.633,346.954,133.566,359.51,146.974z"
   id="path50" />
				</g>
				<g
   id="g59">
					<g
   id="g55">
						<g
   id="g52">
							<polygon
   style="fill:#FF6666;"
   points="324.029,188.922 326.084,238.165 271.829,285.518 262.784,246.998 268.637,244.657          269.196,217.958        "
   id="polygon51" />
						</g>
						<g
   style="opacity:0.55;"
   id="g53">
							<polygon
   style="fill:#6C2175;"
   points="326.085,238.172 271.616,285.518 262.784,246.892 268.53,244.657 269.194,217.951          324.04,188.928        "
   id="polygon52" />
						</g>
						<g
   id="g54">
							<path
   style="fill:#43002F;"
   d="M319.066,205.692c0,0-0.291,16.603-13.547,25.792c-10.6,7.367-29.722,6.826-36.913,6.337         l0.426-14.372L319.066,205.692z"
   id="path53" />
						</g>
					</g>
					<g
   id="g56">
						<path
   style="fill:#FF6666;"
   d="M347.178,173.573c-2.728-5.109-8.916-8.33-14.556-7.014c-0.551,0.129-1.074,0.347-1.604,0.545        c0.803-3.279-7.694-8.679-7.59-12.189c0.197-6.669,8.051-11.065,5.807-16.93c-6.85-17.899-23.933-30.843-44.286-31.445        c-27.021-0.8-49.575,20.457-50.375,47.479c-0.021,0.695,0.035,1.373,0.043,2.062c-1.369,14.087-2.261,59.347,8.234,67.166        c12.499,9.312,71.081,4.659,74.546-4.5c1.186-3.136,3.254-10.715,5.459-19.308c2.873,1.656,6.473,1.431,9.678,0.573        c5.594-1.498,10.789-4.905,13.797-9.854C349.339,185.208,349.905,178.681,347.178,173.573z"
   id="path55" />
					</g>
					<g
   style="opacity:0.55;"
   id="g57">
						<path
   style="fill:#6C2175;"
   d="M347.185,173.577c-2.726-5.109-8.934-8.345-14.553-7.01c-0.226,0.043-0.454,0.112-0.681,0.18        c-0.329,0.115-0.632,0.231-0.936,0.348c0.081-0.333-8.392-9.895-8.442-11.844c-0.045-1.758,5.757-15.537,7.092-16.038        c-6.523-18.53-23.901-32.056-44.716-32.672c-4.749-0.141-9.343,0.399-13.73,1.545c-20.546,5.296-35.974,23.652-36.633,45.923        c-0.021,0.7,0.034,1.377,0.038,2.078c-1.368,14.094-2.257,59.349,8.219,67.164c12.508,9.301,71.086,4.656,74.559-4.498        c1.169-3.143,3.244-10.711,5.45-19.302c2.879,1.636,6.488,1.418,9.69,0.562c5.574-1.511,10.778-4.91,13.776-9.849        C349.343,185.199,349.911,178.686,347.185,173.577z"
   id="path56" />
					</g>
					<g
   id="g58">
						<path
   style="fill:#43002F;"
   d="M331.016,167.094c0.304-0.116,0.607-0.232,0.936-0.348c-4.131,4.331-9.293,8.006-13.929,11.646        c-5.035-2.326-9.742-5.567-12.96-10.09c-3.219-4.498-4.771-10.373-3.313-15.709c-5.599-0.166-11.014-3.153-14.104-7.798        c-3.115-4.62-3.809-10.77-1.828-15.99c-5.154-0.828-9.886-4.07-12.505-8.576c-2.119-3.64-2.839-8.039-2.092-12.145        c4.387-1.146,8.981-1.686,13.73-1.545c27.02,0.8,48.268,23.344,47.468,50.363        C332.314,160.428,331.813,163.816,331.016,167.094z"
   id="path57" />
					</g>
				</g>
				<g
   id="g60">
					<path
   style="fill:#FFEFDB;"
   d="M201.599,153.997c0,0,20.005,0.426,58.312-3.831c38.307-4.256,91.299-11.918,100.663-3.192       c0,0-1.915-3.192-15.11-7.236c-13.195-4.044-9.364-42.351-15.749-45.33c-6.384-2.979-81.084-3.618-87.043,4.469       c-5.959,8.087-7.874,39.797-13.62,44.053C223.307,147.186,201.599,153.997,201.599,153.997z"
   id="path59" />
				</g>
				<g
   id="g68">
					<g
   id="g63">
						<g
   id="g61">
							<path
   style="fill:#43002F;"
   d="M250.208,179.646c0.044,2.669-2.083,4.869-4.753,4.914c-2.669,0.044-4.869-2.083-4.913-4.753         c-0.044-2.669,2.083-4.869,4.753-4.913C247.964,174.849,250.164,176.976,250.208,179.646z"
   id="path60" />
						</g>
						<g
   id="g62">
							
								<ellipse
   transform="matrix(0.6952 -0.7188 0.7188 0.6952 -41.3861 260.0151)"
   style="fill:#43002F;"
   cx="285.926"
   cy="178.811"
   rx="4.834"
   ry="4.834"
   id="ellipse61" />
						</g>
					</g>
					<g
   id="g64">
						<path
   style="fill:#43002F;"
   d="M261.211,195.36c-0.038,0-0.076-0.002-0.114-0.007c-3.111-0.406-5.185-3.068-5.625-5.488        c-0.475-2.601,0.482-5.201,1.369-7.176c0.212-0.473,0.435-0.944,0.657-1.416c0.777-1.647,1.513-3.202,1.833-4.847        c0.092-0.474,0.552-0.782,1.025-0.692c0.475,0.092,0.784,0.552,0.691,1.026c-0.361,1.86-1.178,3.589-1.968,5.26        c-0.218,0.461-0.436,0.922-0.644,1.385c-0.831,1.852-1.629,4.031-1.244,6.146c0.327,1.795,1.852,3.769,4.131,4.066        c0.479,0.062,0.816,0.502,0.754,0.981C262.02,195.04,261.644,195.36,261.211,195.36z"
   id="path63" />
					</g>
					<g
   id="g65">
						<path
   style="fill:#43002F;"
   d="M239.814,166.941c1.253,0.327,2.61,0.277,3.922,0.165c2.958-0.252,6.397-0.935,7.923-3.176        c0.921-1.353,0.939-3.229-0.645-4.278c-3.059-2.025-8.707-0.212-11.349,1.448C237.091,162.717,235.82,165.898,239.814,166.941        z"
   id="path64" />
					</g>
					<g
   id="g66">
						<path
   style="fill:#43002F;"
   d="M290.118,166.941c-1.253,0.327-2.61,0.277-3.922,0.165c-2.958-0.252-6.397-0.935-7.923-3.176        c-0.921-1.353-0.939-3.229,0.646-4.278c3.059-2.025,8.707-0.212,11.349,1.448        C292.841,162.717,294.112,165.898,290.118,166.941z"
   id="path65" />
					</g>
					<g
   id="g67">
						<path
   style="fill:#43002F;"
   d="M262.331,203.248c-2.17,0-4.211-0.687-5.92-2.019c-0.456-0.356-0.537-1.014-0.182-1.469        c0.354-0.456,1.011-0.539,1.469-0.182c1.866,1.456,4.262,1.923,6.747,1.314c2.249-0.55,4.612-1.947,7.023-4.151        c0.425-0.389,1.089-0.361,1.479,0.066c0.391,0.427,0.36,1.089-0.066,1.479c-2.673,2.444-5.344,4.005-7.938,4.639        C264.062,203.141,263.187,203.248,262.331,203.248z"
   id="path66" />
					</g>
				</g>
				<g
   id="g69">
					<path
   style="fill:#43002F;"
   d="M327.862,190.572c-0.078,0-0.158-0.011-0.238-0.033c-0.465-0.131-0.735-0.615-0.604-1.08       c1.448-5.12,3.422-10.113,5.864-14.841c0.824-1.595,1.834-3.407,3.388-4.716c1.581-1.333,3.563-2.018,5.312-2.623       c0.456-0.157,0.955,0.084,1.113,0.541c0.157,0.457-0.085,0.955-0.541,1.113c-1.684,0.582-3.424,1.184-4.757,2.307       c-1.307,1.102-2.179,2.67-2.96,4.182c-2.389,4.624-4.318,9.507-5.735,14.514C328.594,190.32,328.244,190.572,327.862,190.572z"
   id="path68" />
				</g>
			</g>
			<g
   id="g75">
				<g
   id="g73">
					<g
   id="g71">
						<path
   style="fill:#FF6666;"
   d="M149.033,367.453c0,0,54.269,3.405,54.694,8.725c0.426,5.32-27.454,6.385-27.454,6.385        s41.287,11.492,41.074,16.174c-0.213,4.682-40.861-0.851-40.861-0.851s41.5,12.343,40.648,18.302        c-0.851,5.959-37.669-3.831-37.669-3.831s35.966,9.364,34.689,13.833c-1.277,4.469-38.094-2.554-38.094-2.554        s27.028,11.492,25.538,14.472c-1.49,2.979-69.592-14.684-69.592-14.684l17.026-54.907V367.453z"
   id="path70" />
					</g>
					<g
   style="opacity:0.55;"
   id="g72">
						<path
   style="fill:#6C2175;"
   d="M149.033,367.453c0,0,54.269,3.405,54.694,8.725c0.426,5.32-27.454,6.385-27.454,6.385        s41.287,11.492,41.074,16.174c-0.213,4.682-40.861-0.851-40.861-0.851s41.5,12.343,40.648,18.302        c-0.851,5.959-37.669-3.831-37.669-3.831s35.966,9.364,34.689,13.833c-1.277,4.469-38.094-2.554-38.094-2.554        s27.028,11.492,25.538,14.472c-1.49,2.979-69.592-14.684-69.592-14.684l17.026-54.907V367.453z"
   id="path71" />
					</g>
				</g>
				<g
   id="g74">
					<path
   style="fill:#FFEFDB;"
   d="M120.728,338.51l35.328,26.39l-22.984,62.994c0,0-96.619-1.702-82.999-52.779       C63.693,324.038,120.728,338.51,120.728,338.51z"
   id="path73" />
				</g>
			</g>
		</g>
	</g>
</g>















</svg>
