<?xml version="1.0" encoding="UTF-8" standalone="no"?>
<!-- Generator: Adobe Illustrator 28.0.0, SVG Export Plug-In . SVG Version: 6.00 Build 0)  -->

<svg
   version="1.1"
   id="Capa_1"
   x="0px"
   y="0px"
   viewBox="0 0 512 512"
   style="enable-background:new 0 0 512 512;"
   xml:space="preserve"
   sodipodi:docname="indian-woman.svg"
   inkscape:version="1.4 (1:1.4+202410161351+e7c3feb100)"
   xmlns:inkscape="http://www.inkscape.org/namespaces/inkscape"
   xmlns:sodipodi="http://sodipodi.sourceforge.net/DTD/sodipodi-0.dtd"
   xmlns="http://www.w3.org/2000/svg"
   xmlns:svg="http://www.w3.org/2000/svg"><defs
   id="defs130" /><sodipodi:namedview
   id="namedview130"
   pagecolor="#505050"
   bordercolor="#ffffff"
   borderopacity="1"
   inkscape:showpageshadow="0"
   inkscape:pageopacity="0"
   inkscape:pagecheckerboard="1"
   inkscape:deskcolor="#505050"
   inkscape:zoom="1.5683594"
   inkscape:cx="161.95268"
   inkscape:cy="287.88045"
   inkscape:window-width="1920"
   inkscape:window-height="1011"
   inkscape:window-x="0"
   inkscape:window-y="0"
   inkscape:window-maximized="1"
   inkscape:current-layer="g103" />
<g
   id="g115">
	
	<g
   id="g114">
		
		<g
   id="g113">
			
			
			
			<g
   id="g103">
				<g
   id="g51">
					<g
   id="g50">
						<path
   style="fill:#D95A4C;"
   d="M446.383,412.391c-15.37,18.7-33.444,35.089-53.625,48.573        c-0.429,0.289-1.344-5.515-1.777-5.23c-0.548,0.361-0.614,6.81-1.168,7.165c-1.328,0.866-2.666,1.723-4.023,2.56        c-14.821,9.201-34.945-14.21-51.652-8.291l-5.897,13.924l-16.545,0.328l-27.699,24.24l-0.077,0.01l-3.176,0.433l-48.17-26.321        l-60.004-126.644l0.577-0.327l2.839-1.607l68.966-39.131l2.425-1.386l59.14-33.55c0,0,5.053,27.91,18.998,33.309        c5.274,2.04,16.005-21.106,22.097-18.132c14.013,6.843,29.353,16.265,42.124,28.843        C412.747,333.81,435.008,384.039,446.383,412.391z"
   id="path49" />
					</g>
				</g>
				<g
   id="g92">
					<g
   id="g53">
						<g
   id="g52">
							
								<ellipse
   transform="matrix(0.2298 -0.9732 0.9732 0.2298 -85.6112 337.3708)"
   style="fill:#412945;"
   cx="170.338"
   cy="222.773"
   rx="47.456"
   ry="47.456"
   id="ellipse51" />
						</g>
					</g>
					<g
   id="g55">
						<g
   id="g54">
							<path
   style="fill:#412945;"
   d="M262.585,67.939c0,0,49.777-12.638,70.066,11.778c20.289,24.416-4.814,67.745-4.814,67.745         l-39.547-3.439l-38.515-44.017L262.585,67.939z"
   id="path53" />
						</g>
					</g>
					<g
   id="g75">
						<g
   id="g57">
							<g
   id="g56">
								<path
   style="fill:#BF786F;"
   d="M328.575,202.336c-0.847,7.218-1.357,14.282-7.757,18.834          c-4.773,3.397-11,4.321-16.582,5.611c-9.018,2.079-18.209,3.455-27.4,4.446c0,0-12.074,1.305-12.074,4.708          c0,1.638,12.074,4.453,12.074,6.532v20.769l29.681,3.898l-26.139,61.902l-76.338-58.12l23.867-8.373l1.145-30.075          c-14.07-0.924-16.313-3.744-19.171-9.316c-2.088-4.081-3.792-9.942-5.197-16.602c-5.784,1.184-11.915,0.443-17.266-2.137          c-6.102-2.954-11.106-8.277-13.782-14.686c-3.186-7.593-2.627-17.448,3.291-23.001c3.628-3.407,8.777-4.668,13.656-4.023          c-0.751-4.273-1.155-8.671-1.155-13.175c0-40.248,31.48-72.873,70.304-72.873c9.624,0,19.21,2.05,27.977,5.996          c18.074,8.142,32.029,24.012,38.361,42.731c2.647,7.824,4.138,16.207,4.841,24.801          C332.328,167.622,330.509,185.947,328.575,202.336z"
   id="path55" />
							</g>
						</g>
						<g
   id="g58">
							<path
   style="fill:#412945;"
   d="M276.836,231.228c0,0,0,4.841,0,11.241c-2.358,1.27-6.217,2.233-12.319,1.165         c-12.617-2.214-28.747-11.222-28.747-11.222L276.836,231.228z"
   id="path57" />
						</g>
						<g
   id="g74">
							<g
   id="g73">
								<g
   id="g72">
									<g
   id="g65">
										<g
   id="g61">
											<g
   id="g60">
												<g
   id="g59">
													<path
   style="fill:#412945;"
   d="M267.775,162.181c0.284,4.04-2.645,7.554-6.543,7.849               c-3.898,0.295-7.288-2.742-7.572-6.782c-0.284-4.04,2.645-7.554,6.542-7.849               C264.1,155.105,267.49,158.141,267.775,162.181z"
   id="path58" />
												</g>
											</g>
										</g>
										<g
   id="g64">
											<g
   id="g63">
												<g
   id="g62">
													<path
   style="fill:#412945;"
   d="M320.131,159.497c0.284,4.04-2.645,7.554-6.543,7.848               c-3.898,0.295-7.288-2.741-7.572-6.781c-0.284-4.04,2.645-7.554,6.542-7.849               C316.457,152.42,319.847,155.456,320.131,159.497z"
   id="path61" />
												</g>
											</g>
										</g>
									</g>
									<g
   id="g68">
										<g
   id="g67">
											<g
   id="g66">
												<path
   style="fill:#412945;"
   d="M249.81,145.627c-0.225-0.067-0.43-0.207-0.58-0.415              c-0.369-0.514-0.258-1.247,0.247-1.638c3.621-2.796,8.253-4.166,12.712-3.758c0.618,0.058,1.073,0.624,1.006,1.268              c-0.068,0.643-0.627,1.118-1.251,1.061c-3.902-0.357-7.959,0.841-11.128,3.289              C250.514,145.667,250.141,145.726,249.81,145.627z"
   id="path65" />
											</g>
										</g>
									</g>
									<g
   id="g71">
										<g
   id="g70">
											<g
   id="g69">
												<path
   style="fill:#412945;"
   d="M324.155,141.822c-0.183,0-0.368-0.046-0.541-0.144              c-3.601-2.038-7.967-2.705-11.983-1.829c-0.607,0.134-1.211-0.273-1.339-0.906c-0.129-0.634,0.263-1.255,0.874-1.389              c4.532-0.991,9.465-0.238,13.532,2.064c0.548,0.31,0.751,1.023,0.451,1.591              C324.943,141.601,324.555,141.821,324.155,141.822z"
   id="path68" />
											</g>
										</g>
									</g>
								</g>
							</g>
							<path
   style="fill:#412945;"
   d="M200.061,195.808c-1.704-4.683-3.981-10.031-7.959-14.199         c-4.281-4.486-9.878-6.617-14.96-5.707c-0.615,0.11-1.028,0.717-0.922,1.355c0.107,0.638,0.684,1.067,1.308,0.955         c4.284-0.769,9.259,1.164,12.964,5.047c0.75,0.786,1.422,1.631,2.054,2.503c-1.204,0.03-2.438,0.316-3.621,0.868         c-1.672,0.779-3.238,2.055-4.651,3.795c-0.403,0.496-0.341,1.235,0.136,1.652c0.212,0.185,0.471,0.275,0.728,0.275         c0.323,0,0.643-0.141,0.866-0.417c1.193-1.468,2.487-2.534,3.849-3.167c1.443-0.673,3.011-0.829,4.35-0.466         c1.585,2.735,2.765,5.646,3.743,8.333c0.17,0.47,0.601,0.759,1.058,0.759c0.133,0,0.268-0.025,0.4-0.076         C199.988,197.09,200.283,196.414,200.061,195.808z"
   id="path73" />
						</g>
					</g>
					<g
   id="g77">
						<g
   id="g76">
							<path
   style="fill:#412945;"
   d="M290.426,193.938c-6.468,0-8.782-10.468-8.877-10.914c-0.117-0.546,0.23-1.082,0.776-1.199         c0.535-0.12,1.081,0.23,1.199,0.775c0.557,2.591,2.885,9.316,6.901,9.316c0.001,0,0.001,0,0.002,0         c4.038-0.001,6.603-6.834,7.251-9.467c0.133-0.542,0.68-0.874,1.222-0.74c0.541,0.133,0.873,0.679,0.741,1.221         c-0.11,0.449-2.768,11.004-9.213,11.007C290.428,193.938,290.427,193.938,290.426,193.938z"
   id="path75" />
						</g>
					</g>
					<g
   id="g79">
						<g
   id="g78">
							<circle
   style="fill:#D95A4C;"
   cx="290.826"
   cy="132.288"
   r="6.577"
   id="circle77" />
						</g>
					</g>
					
					<g
   id="g91">
						<g
   id="g90">
							<path
   style="fill:#412945;"
   d="M190.59,162.707c0,0,12.159,2.207,15.77,16.65l5.416-19.602c0,0,12.359-0.061,27.081-18.054         c23.986-29.316,25.275-59.062,23.728-73.763c0,0-52.099-3.869-82.016,12.896c-29.918,16.764-37.139,43.587-30.95,61.899         c6.19,18.312,22.277,34.507,22.277,34.507S176.109,161.532,190.59,162.707z"
   id="path89" />
						</g>
					</g>
				</g>
				<g
   id="g102">
					<g
   id="g94">
						<g
   id="g93">
							<path
   style="fill:#412945;"
   d="M392.758,460.964c-0.972,0.654-1.954,1.299-2.945,1.934         c-0.577-12.79-1.713-33.088-3.647-48.909c-3.041-24.849-8.152-42.404-8.2-42.577c-0.241-0.799,0.221-1.646,1.03-1.877         c0.799-0.241,1.646,0.221,1.877,1.02c0.058,0.183,5.226,17.949,8.306,43.058C391.035,428.81,392.161,448.077,392.758,460.964         z"
   id="path92" />
						</g>
					</g>
					<g
   id="g96">
						<g
   id="g95">
							<path
   style="fill:#F7EDE5;"
   d="M354.656,385.944c-0.568,6.044-1.405,12.444-2.416,18.998         c-5.264,34.021-15.408,72.036-18.7,83.98c-0.106,0.395-0.212,0.76-0.298,1.097h-0.01c-4.215,1.405-8.488,2.685-12.8,3.84         l-0.029,0.01l-35.474,3.359l-1.453,0.135c0,0,0.164-0.577,0.443-1.694c0.009-0.029,0.019-0.058,0.029-0.096         c2.772-10.644,17.112-67.099,22.222-116.846c1.02-9.932,1.684-19.903,2.088-29.575c1.848-44.088-1.742-82.016-1.742-82.016         s18.882,4.331,41.095,15.177C351.24,305.525,357.688,353.694,354.656,385.944z"
   id="path94" />
						</g>
					</g>
					<g
   id="g98">
						<g
   id="g97">
							<path
   style="fill:#FFC569;"
   d="M385.79,465.458c-14.821,9.201-30.691,16.881-47.398,22.799l-0.019,0.01         c-1.703,0.606-3.407,1.193-5.129,1.751h-0.01c-4.215,1.405-8.488,2.685-12.8,3.84l-0.029,0.01         c-10.904,2.945-22.097,5.159-33.54,6.583h-0.01c-0.54,0.071-4.719-6.737-5.26-6.672c-0.558,0.067,2.521,7.008,1.959,7.066         c-9.047,1.01-18.238,1.53-27.554,1.53c-31.759,0-62.123-6.005-89.995-16.958c-0.866-0.327-15.803-26.922-16.65-27.269         c-0.548-0.221-16.999-53.008-17.528-53.24c-16.986-7.02-12.977,3.275-19.806,13.792c-1.896,2.92-6.161,32.725-10.083,29.577         c-9.489-7.613-18.401-15.909-26.659-24.821c-0.481-0.52,0.309-11.917-0.172-12.446c1.107-11.01,2.319-17.302,7.535-27.85         c0.221-0.462,0.452-0.914,0.693-1.347c0.616-1.126,1.29-2.31,2.011-3.561c1.828-3.128,4.013-6.621,6.583-10.481         c0,0,0-0.01,0.01-0.01c10.991-16.428,29.2-39.228,57.937-66.415c38.169-36.109,54.164-30.431,54.164-30.431         s0.009,0,0.019,0.01c0.01,0.01,0.029,0.019,0.038,0.029c1.184,0.76,20.114,13.06,43.279,29.729         c10.904,7.844,22.742,16.659,34.117,25.696c9.528,7.584,18.728,15.312,26.764,22.771         c5.649,5.236,10.731,10.327,14.936,15.129c9.711,11.077,19.729,25.629,29.046,40.662         C366.147,427.395,378.466,450.906,385.79,465.458z"
   id="path96" />
						</g>
					</g>
					<g
   id="g100">
						<g
   id="g99">
							<path
   style="fill:#D95A4C;"
   d="M161.222,479.307c0.78,1.78,1.519,1.347,2.221,2.964c-0.548-0.221-1.095,1.684-1.625,1.453         c-21.702-8.97-41.836-20.961-59.881-35.445c-2.945-23.743-4.937-54.309,1.521-69.457c0.164-0.385,0.337-0.76,0.51-1.126         c0,0,24.243,2.06,35.08,26.303C149.875,428.242,152.455,459.193,161.222,479.307z"
   id="path98" />
						</g>
					</g>
					<g
   id="g101">
						<path
   style="fill:#412945;"
   d="M284.93,497.227c-0.298-0.51-0.606-1.04-0.934-1.569c-0.01-0.029-0.029-0.058-0.048-0.087        c-8.575-14.436-21.413-36.032-33.732-56.753c-4.899-8.248-41.566-69.033-74.23-97.617        c-7.334-6.429-14.455-11.222-20.98-13.435c-21.26-7.218-48.64,21.972-63.067,39.998c-0.01,0-0.01,0.01-0.01,0.01        c-5.611,7.016-9.258,12.328-9.826,13.166c-0.01,0.01-0.01,0.019-0.019,0.029c-5.274,6.506-8.171,26.447-9.547,39.478        c0.433,0.481,0.866,0.962,1.299,1.444c0.481,0.529,0.963,1.049,1.444,1.569c1.232-12.53,4.042-34.358,9.191-40.623        c0.01-0.019,0.019-0.039,0.029-0.048c2.733-3.282,9.412-4.87,17.429-4.139c0.5,0.048,1.01,0.106,1.53,0.173        c10.221,1.299,23.675,6.717,30.143,18.18c5.37,9.528,10.192,27.38,14.85,44.636c4.177,15.504,8.488,31.442,13.368,42.086        c0.529,0.231,1.068,0.452,1.617,0.674c0.847,0.347,1.704,0.693,2.57,1.02c-5.341-10.134-10.057-27.611-14.629-44.569        c-4.927-18.238-9.576-35.474-15.139-45.329c-7.362-13.05-22.414-18.834-34.04-19.893c-5.081-0.462-9.662-0.058-13.31,1.107        c11.356-15.177,42.875-53.645,65.145-46.09c5.803,1.973,12.29,6.265,19.113,12.165c26.178,22.617,57.369,68.793,74.461,97.559        c12.03,20.24,24.561,41.316,33.136,55.733c0.991,1.674,1.935,3.262,2.81,4.745c1.107-0.116,2.204-0.25,3.301-0.395        C286.248,499.431,285.604,498.353,284.93,497.227z"
   id="path100" />
					</g>
				</g>
			</g>
			
		</g>
	</g>
</g>
<g
   id="g116">
</g>
<g
   id="g117">
</g>
<g
   id="g118">
</g>
<g
   id="g119">
</g>
<g
   id="g120">
</g>
<g
   id="g121">
</g>
<g
   id="g122">
</g>
<g
   id="g123">
</g>
<g
   id="g124">
</g>
<g
   id="g125">
</g>
<g
   id="g126">
</g>
<g
   id="g127">
</g>
<g
   id="g128">
</g>
<g
   id="g129">
</g>
<g
   id="g130">
</g>
</svg>
