<?xml version="1.0" encoding="UTF-8" standalone="no"?>
<!-- Generator: Adobe Illustrator 25.4.6, SVG Export Plug-In . SVG Version: 6.00 Build 0)  -->

<svg
   version="1.1"
   id="Capa_1"
   x="0px"
   y="0px"
   viewBox="0 0 512 512"
   style="enable-background:new 0 0 512 512;"
   xml:space="preserve"
   width="512"
   height="512"
   sodipodi:docname="korea.svg"
   inkscape:version="1.4 (1:1.4+202410161351+e7c3feb100)"
   xmlns:inkscape="http://www.inkscape.org/namespaces/inkscape"
   xmlns:sodipodi="http://sodipodi.sourceforge.net/DTD/sodipodi-0.dtd"
   xmlns="http://www.w3.org/2000/svg"
   xmlns:svg="http://www.w3.org/2000/svg"><defs
   id="defs107" /><sodipodi:namedview
   id="namedview107"
   pagecolor="#505050"
   bordercolor="#ffffff"
   borderopacity="1"
   inkscape:showpageshadow="0"
   inkscape:pageopacity="0"
   inkscape:pagecheckerboard="1"
   inkscape:deskcolor="#505050"
   inkscape:zoom="1.5683594"
   inkscape:cx="256.6376"
   inkscape:cy="256"
   inkscape:window-width="1247"
   inkscape:window-height="991"
   inkscape:window-x="26"
   inkscape:window-y="23"
   inkscape:window-maximized="0"
   inkscape:current-layer="g106" />
<g
   id="g107">
	
	<g
   id="g106">
		<g
   id="g59">
			<g
   id="g3">
				<g
   id="g2">
					<path
   style="fill:#7D6084;"
   d="M432.326,498.223H316.304l-24.823-17.697l-32.071,17.697H122.912       c1.386-38.29,4.158-89.422,9.681-146.358c9.053-93.363,64.126-122.882,89.27-131.566c0.541-0.173,1.061-0.346,1.559-0.52       c6.714-2.187,10.915-2.815,10.915-2.815l19.015-1.148l10.72-0.65l34.413,17.542l0.195,0.108l16.763-15.117       c0,0,4.829,2.599,12.496,7.732c0.087,0.043,0.173,0.108,0.26,0.173c26.118,17.521,84.268,64.083,95.616,137.327       C430.983,409.213,432.585,459.154,432.326,498.223z"
   id="path2" />
				</g>
			</g>
			<g
   id="g5">
				<g
   id="g4">
					<path
   style="fill:#FFEBE9;"
   d="M281.528,270.413c-35.951,2.209-47.191-53.45-47.191-53.45l10.655-15.355l60.12,0.606       l10.33,15.485C315.443,217.7,317.478,268.204,281.528,270.413z"
   id="path3" />
				</g>
			</g>
			<g
   id="g28">
				<g
   id="g7">
					<g
   id="g6">
						<polygon
   style="fill:#FFCBD0;"
   points="244.984,155.719 244.984,201.611 282.863,266.04 305.538,217.658 305.538,186.689               "
   id="polygon5" />
					</g>
				</g>
				<g
   id="g9">
					<g
   id="g8">
						<path
   d="M255.835,174.626c0.996,1.906,1.927,4.18,2.989,6.042c4.57,8.013,10.417,15.355,17.629,21.137        c7.212,5.783,15.788,9.941,24.905,11.392c1.364,0.238,2.772,0.368,4.18,0.411v-22.653c-1.256,0.108-2.512,0.151-3.747,0.173        c-8.36,0.108-16.784-0.888-24.732-3.53C269.111,184.935,261.682,180.625,255.835,174.626z"
   id="path7" />
					</g>
				</g>
				<g
   id="g11">
					<g
   id="g10">
						<path
   style="fill:#FFCBD0;"
   d="M224.355,139.977c3.201-2.361,7.59-2.674,11.406-1.555c0.058,0.017,0.119,0.048,0.177,0.066        c-0.119-0.678-0.225-1.339-0.314-1.977c-2.213-5.705-3.44-11.901-3.44-18.387c0-28.095,22.776-50.871,50.871-50.871        c28.095,0,50.871,22.776,50.871,50.871c0,0,6.175,69.118-35.849,76.859c-25.188,4.64-42.127-11.075-52.015-28.697        c-1.319,0.739-2.81,1.203-4.321,1.323c-2.692,0.215-5.385-0.452-7.91-1.41c-5.32-2.018-10.321-5.593-12.676-10.773        C218.798,150.247,219.775,143.355,224.355,139.977z"
   id="path9" />
					</g>
				</g>
				<g
   id="g13">
					<g
   id="g12">
						<path
   style="fill:none;"
   d="M333.887,119.141c0.065-0.39,0.108-0.758,0.13-1.148c0.39-5.263-2.447-10.482-6.324-14.164        c-4.158-3.963-9.399-6.497-14.467-9.161c-3.79-2.014-7.515-4.115-11.175-6.324c-0.13-0.087-0.26-0.152-0.39-0.238        c-0.022-0.022-0.065-0.043-0.087-0.065c-1.624-0.996-3.27-2.057-4.765-3.249c-2.317-1.776-4.331-3.877-5.631-6.475        c-0.281-0.606-0.541-1.234-0.996-1.733c-0.217-0.238-0.477-0.455-0.758-0.606"
   id="path11" />
					</g>
				</g>
				<g
   id="g25">
					<g
   id="g24">
						<g
   id="g15">
							<g
   id="g14">
								<path
   d="M311.439,138.767c0,2.341,1.898,4.239,4.239,4.239c2.341,0,4.239-1.898,4.239-4.239          c0-2.341-1.898-4.239-4.239-4.239C313.337,134.528,311.439,136.426,311.439,138.767z"
   id="path13" />
							</g>
						</g>
						<g
   id="g17">
							<g
   id="g16">
								<path
   d="M266.466,139.505c0,2.341,1.898,4.239,4.239,4.239s4.239-1.898,4.239-4.239s-1.898-4.239-4.239-4.239          S266.466,137.163,266.466,139.505z"
   id="path15" />
							</g>
						</g>
						<g
   id="g19">
							<g
   id="g18">
								<path
   d="M324.637,128.235c-1.847-0.203-3.137-0.527-4.267-0.795c-1.114-0.284-1.999-0.533-2.794-0.819          c-0.753-0.268-1.502-0.609-2.387-1.021c-0.906-0.414-1.884-0.921-3.611-1.396l-0.146-0.04          c-0.571-0.157-0.908-0.743-0.75-1.314c0.535-1.977,2.232-3.297,4.022-3.904c1.817-0.606,3.805-0.549,5.6,0.098          c1.755,0.631,3.231,1.781,4.23,3.186c0.985,1.423,1.574,3.076,1.387,5.01c-0.06,0.613-0.605,1.062-1.218,1.003          c-0.003,0-0.006-0.001-0.008-0.001L324.637,128.235z"
   id="path17" />
							</g>
						</g>
						<g
   id="g21">
							<g
   id="g20">
								<path
   d="M278.085,123.51l-4.037,0.95l-3.282,0.682c-1.063,0.212-2.127,0.383-3.297,0.558          c-1.183,0.171-2.427,0.351-4.122,0.531l-0.072,0.007c-0.549,0.058-1.041-0.34-1.099-0.889          c-0.009-0.083-0.006-0.171,0.005-0.25c0.271-1.848,1.338-3.351,2.662-4.476c1.338-1.122,2.977-1.865,4.689-2.165          c1.71-0.309,3.502-0.194,5.15,0.374c1.635,0.585,3.164,1.599,4.088,3.204c0.273,0.475,0.11,1.082-0.365,1.355          c-0.084,0.049-0.173,0.083-0.263,0.105L278.085,123.51z"
   id="path19" />
							</g>
						</g>
						<g
   id="g23">
							<g
   id="g22">
								<path
   d="M294.695,161.301c-0.216,0-0.431-0.086-0.592-0.256c-0.602-0.641-1.475-1.007-2.371-0.998          c-0.479,0.067-0.818-0.349-0.827-0.797c-0.008-0.448,0.349-0.818,0.797-0.827c1.333,0.018,2.673,0.54,3.585,1.51          c0.307,0.327,0.291,0.841-0.036,1.148C295.095,161.228,294.895,161.301,294.695,161.301z"
   id="path21" />
							</g>
						</g>
					</g>
				</g>
				<g
   id="g27">
					<g
   id="g26">
						<path
   d="M241.135,161.699c-0.403,0-0.753-0.3-0.805-0.711c-0.478-3.791-1.02-8.089-3.002-11.617        c-1.74-3.101-5.261-6.082-9.209-5.699c-0.437,0.03-0.843-0.288-0.884-0.734c-0.041-0.446,0.288-0.843,0.734-0.884        c4.68-0.43,8.781,2.964,10.777,6.521c2.136,3.806,2.7,8.271,3.197,12.21c0.056,0.445-0.259,0.851-0.704,0.907        C241.204,161.697,241.169,161.699,241.135,161.699z"
   id="path25" />
					</g>
				</g>
			</g>
			<g
   id="g30">
				<g
   id="g29">
					<path
   d="M298.54,162.497c-0.201,0-0.402-0.074-0.559-0.223c-0.325-0.309-0.338-0.823-0.03-1.148       c2.94-3.095,4.243-8.091,3.488-13.364c-0.701-4.879-2.868-9.445-4.964-13.861c-0.193-0.405-0.019-0.889,0.386-1.082       c0.404-0.19,0.889-0.018,1.082,0.386c2.148,4.525,4.368,9.203,5.103,14.327c0.839,5.847-0.59,11.209-3.917,14.714       C298.969,162.412,298.755,162.497,298.54,162.497z"
   id="path28" />
				</g>
			</g>
			<g
   id="g32">
				<g
   id="g31">
					<path
   d="M294.059,168.526c-3.206,0-6.439-1.303-8.578-3.685c-0.3-0.333-0.273-0.847,0.061-1.146       c0.333-0.301,0.847-0.275,1.146,0.061c2.768,3.081,7.674,4.055,11.408,2.258c0.407-0.198,0.89-0.024,1.084,0.38       c0.195,0.405,0.024,0.889-0.38,1.084C297.326,168.185,295.695,168.526,294.059,168.526z"
   id="path30" />
				</g>
			</g>
			<g
   id="g34">
				<g
   id="g33">
					<path
   d="M227.784,138.077c2.306-1.071,5.064-0.376,7.307,0.821c3.66,1.953,6.597,5.226,8.146,9.074       c5.426-6.086,8.324-14.984,6.973-23.025c-0.26-1.547-0.654-3.12-0.372-4.663c0.3-1.644,1.335-3.053,2.435-4.311       c2.59-2.961,5.735-5.487,7.761-8.859c3.007-5.007,3.12-11.474,0.875-16.865c-2.245-5.391-6.66-9.72-11.806-12.482       C233.256,93.304,223.938,116.219,227.784,138.077z"
   id="path32" />
				</g>
			</g>
			<g
   id="g36">
				<g
   id="g35">
					<path
   d="M227.063,119.177c0,0,35.388-5.806,64.142-6.359c28.753-0.553,42.853,1.659,42.853,1.659l-0.829-12.165       c0,0,42.3-0.829,42.577-21.288c0.276-20.459-54.465-22.118-54.465-22.118s-9.124-50.318-43.406-47       c-34.283,3.318-39.259,52.253-39.259,52.253s-57.783-7.188-58.612,17.418c-0.896,26.578,48.383,19.353,48.383,19.353       L227.063,119.177z"
   id="path34" />
				</g>
			</g>
			<g
   id="g58">
				<g
   id="g55">
					<g
   id="g38">
						<g
   id="g37">
							<path
   style="fill:#FFB96B;"
   d="M319.124,431.498c-25.425,14.748-32.074,18.43-32.074,18.43s0.606,2.231,1.949,5.912         l-7.45,0.455c1.819-3.747,2.924-5.999,2.924-5.999s-32.442-6.627-59.34-17.326c-3.942-1.559-7.688-3.227-11.197-4.938         l-0.238-3.162l-2.945-109.13c39.806-2.945,129.011-0.736,129.011-0.736l2.902,97.717         C334.349,420.583,326.076,427.448,319.124,431.498z"
   id="path36" />
						</g>
					</g>
					<g
   id="g44">
						<g
   id="g40">
							<g
   id="g39">
								<path
   style="fill:#FFCBD0;"
   d="M315.767,498.223H260.78l14.077-26.703l0.866-1.624c0.065-0.086,0.108-0.173,0.152-0.26          l7.082-13.427l0.78-1.494l4.331,0.931l0.931,0.195c0,0,0.628,3.14,2.274,7.71c0,0,0,0,0,0.022          c1.841,5.089,4.96,11.933,9.897,18.105c0.087,0.108,0.173,0.217,0.26,0.325          C305.394,486.875,310.786,492.852,315.767,498.223z"
   id="path38" />
							</g>
						</g>
						<g
   id="g43">
							<g
   id="g42">
								<g
   id="g41">
									<path
   d="M299.655,498.223h-2.62c-2.296-1.841-4.375-3.638-6.107-5.306c-8.056-7.732-14.489-18.647-16.026-21.332           c-0.022-0.022-0.022-0.043-0.043-0.065c-0.195-0.346-0.303-0.541-0.303-0.563c-0.217-0.39-0.065-0.888,0.325-1.104           c0.282-0.152,0.606-0.13,0.845,0.043c0.108,0.065,0.195,0.173,0.26,0.282c0.065,0.13,7.039,12.908,16.07,21.549           C294.327,493.913,296.904,496.123,299.655,498.223z"
   id="path40" />
								</g>
							</g>
						</g>
					</g>
					<g
   id="g46">
						<g
   id="g45">
							<path
   d="M201.894,421.243c-0.389,0-0.733-0.28-0.799-0.678l-14.726-88.101c-0.074-0.443,0.224-0.861,0.666-0.935         c0.443-0.076,0.862,0.225,0.935,0.666l14.726,88.101c0.075,0.442-0.223,0.861-0.666,0.935         C201.983,421.24,201.938,421.243,201.894,421.243z"
   id="path44" />
						</g>
					</g>
					<g
   id="g48">
						<g
   id="g47">
							<path
   d="M285.209,450.664c0,0-1.018,2.079-2.729,5.566c-0.065,0.13-0.13,0.26-0.195,0.411         c-1.754,3.595-3.963,8.078-6.411,12.994c-0.043,0.087-0.087,0.173-0.152,0.26c-0.26,0.563-0.541,1.126-0.823,1.689         c-4.18,8.381-8.966,17.889-13.514,26.638h-1.819c7.71-14.857,16.243-32.096,21.246-42.275         c1.126-2.339,1.992-4.072,2.469-5.068c-5.739-1.234-34.456-7.623-58.452-17.152c-3.79-1.494-7.558-3.162-11.24-4.96         c-20.314-9.811-33.113-20.877-33.243-20.986c-0.325-0.281-0.368-0.801-0.065-1.148c0.281-0.325,0.801-0.368,1.148-0.065         c0.087,0.087,7.342,6.367,19.6,13.622c0.455,0.26,0.931,0.541,1.408,0.823c3.443,1.993,7.277,4.072,11.435,6.086         c0.13,0.065,0.282,0.13,0.411,0.195c3.66,1.776,7.407,3.444,11.154,4.916c26.53,10.547,58.885,17.217,59.189,17.282         c0.26,0.065,0.455,0.216,0.585,0.433C285.318,450.166,285.318,450.426,285.209,450.664z"
   id="path46" />
						</g>
					</g>
					<g
   id="g50">
						<g
   id="g49">
							<path
   d="M387.95,364.556c-0.065,0.065-6.714,8.294-16.221,18.971c-6.605,7.428-12.843,14.164-18.647,20.076l-0.022,0.022         c-0.152,0.173-0.303,0.325-0.477,0.498c-0.022,0-0.022,0-0.022,0c-1.364,1.408-2.707,2.75-4.028,4.05         c-1.754,1.754-3.53,3.465-5.306,5.133c-9.312,8.793-17.282,15.16-23.693,18.885c-21.246,12.323-29.454,16.958-31.533,18.127         c0.281,0.888,0.845,2.729,1.754,5.241c2.794,7.645,10.807,26.508,26.768,42.664h-2.231         c-5.219-5.414-9.551-11.11-13.124-16.546c-4.396-6.714-7.645-13.059-9.897-18.105c0-0.022,0-0.022,0-0.022         c-1.343-3.01-2.339-5.544-3.032-7.428c-0.022-0.087-0.065-0.152-0.087-0.238s-0.065-0.152-0.087-0.238         c-1.213-3.4-1.776-5.414-1.798-5.501c-0.108-0.368,0.065-0.736,0.39-0.931c0.065-0.043,6.93-3.855,32.052-18.408         c6.302-3.682,14.185-9.962,23.389-18.668c0.173-0.173,0.368-0.346,0.541-0.498c1.408-1.343,2.815-2.707,4.201-4.093         c0.173-0.173,0.368-0.368,0.541-0.541c1.473-1.451,2.989-2.967,4.505-4.548l0.043-0.043c0.888-0.866,1.754-1.754,2.621-2.664         l0.022-0.022c0.368-0.39,0.736-0.758,1.104-1.148c4.7-4.895,9.659-10.309,14.835-16.134         c9.464-10.634,16.113-18.841,16.178-18.928c0.282-0.346,0.801-0.39,1.148-0.108         C388.188,363.69,388.232,364.188,387.95,364.556z"
   id="path48" />
						</g>
					</g>
					<g
   id="g52">
						<g
   id="g51">
							<path
   d="M352.212,404.202c-0.168,0-0.337-0.052-0.483-0.161c-0.359-0.267-0.435-0.776-0.167-1.136l2.276-3.064l3.185-20.64         l8.491-53.259c0.071-0.442,0.486-0.743,0.93-0.674c0.443,0.07,0.744,0.486,0.674,0.93l-8.489,53.254l-3.215,20.834         c-0.02,0.131-0.072,0.255-0.151,0.361l-2.396,3.225C352.706,404.089,352.461,404.202,352.212,404.202z"
   id="path50" />
						</g>
					</g>
					<g
   id="g54">
						<g
   id="g53">
							<path
   d="M357.825,379.326l-3.487,21.83c-2.101,2.166-4.223,4.31-6.367,6.432c-38.896-1.473-106.791-2.447-147.246,5.891         l-4.635-27.829c13.471-4.223,41.235-11.023,84.332-12.756C315.161,371.486,341.258,375.428,357.825,379.326z"
   id="path52" />
						</g>
					</g>
				</g>
				<g
   id="g57">
					<g
   id="g56">
						<path
   d="M278.177,284.497c-45.594,0-56.328-64.181-56.432-64.832c-0.071-0.443,0.23-0.86,0.674-0.93        c0.447-0.072,0.86,0.231,0.929,0.674c0.104,0.643,10.688,64.229,55.586,63.458c44.775-0.716,47.836-56.171,47.861-56.731        c0.021-0.448,0.405-0.799,0.848-0.774c0.448,0.02,0.794,0.4,0.774,0.848c-0.026,0.575-3.15,57.54-49.458,58.282        C278.701,284.494,278.435,284.497,278.177,284.497z"
   id="path55" />
					</g>
				</g>
			</g>
		</g>
		
		
		
		
	</g>
</g>















</svg>
