<?xml version="1.0" encoding="UTF-8" standalone="no"?>
<!-- Generator: Adobe Illustrator 26.3.1, SVG Export Plug-In . SVG Version: 6.00 Build 0)  -->

<svg
   version="1.1"
   id="Capa_1"
   x="0px"
   y="0px"
   viewBox="0 0 512 512"
   style="enable-background:new 0 0 512 512;"
   xml:space="preserve"
   width="512"
   height="512"
   sodipodi:docname="mexico2.svg"
   inkscape:version="1.4 (1:1.4+202410161351+e7c3feb100)"
   xmlns:inkscape="http://www.inkscape.org/namespaces/inkscape"
   xmlns:sodipodi="http://sodipodi.sourceforge.net/DTD/sodipodi-0.dtd"
   xmlns="http://www.w3.org/2000/svg"
   xmlns:svg="http://www.w3.org/2000/svg"><defs
   id="defs103" /><sodipodi:namedview
   id="namedview103"
   pagecolor="#505050"
   bordercolor="#ffffff"
   borderopacity="1"
   inkscape:showpageshadow="0"
   inkscape:pageopacity="0"
   inkscape:pagecheckerboard="1"
   inkscape:deskcolor="#505050"
   inkscape:zoom="1.5683594"
   inkscape:cx="255.68119"
   inkscape:cy="256"
   inkscape:window-width="1920"
   inkscape:window-height="1011"
   inkscape:window-x="0"
   inkscape:window-y="32"
   inkscape:window-maximized="1"
   inkscape:current-layer="g44" />
<g
   id="g103">
	
	<g
   id="g102">
		<g
   id="g98"
   transform="rotate(-4.7391628,219.72326,169.97451)">
			<g
   id="g56"
   transform="rotate(-22.215116,256.43606,255.19587)">
				<path
   style="fill:#270603"
   d="m 313.32,292.911 c 1.001,-1.001 33.369,-7.341 33.369,-7.341 l 15.35,51.721 c 0,0 -44.047,25.694 -71.743,16.017 -27.696,-9.677 23.024,-60.397 23.024,-60.397 z"
   id="path2" />
				<path
   style="fill:#270603"
   d="m 193.372,185.957 c 0,0 -17.715,3.142 -33.075,1.745 -15.359,-1.396 -48.521,-13.265 -65.626,2.094 -17.104,15.36 -90.933,118.162 -79.065,146.437 11.869,28.275 21.643,35.78 62.833,38.224 41.191,2.444 221.837,-0.349 221.837,-0.349 0,0 7.68,-98.788 -3.84,-117.638 -11.519,-18.85 -55.773,-42.576 -55.773,-42.576 z"
   id="path3" />
				<path
   style="fill:#fbead9"
   d="m 230.112,289.536 c -0.047,0 -0.095,-0.006 -0.143,-0.021 -0.273,-0.079 -0.431,-0.364 -0.352,-0.638 4.25,-14.713 26.738,-31.467 30.436,-34.143 l -14.609,-15.629 c -0.104,-0.111 -0.153,-0.263 -0.135,-0.414 0.018,-0.151 0.103,-0.286 0.23,-0.369 l 16.057,-10.472 c 0.239,-0.155 0.557,-0.088 0.712,0.15 0.156,0.238 0.088,0.557 -0.15,0.712 l -15.543,10.137 14.591,15.61 c 0.102,0.108 0.151,0.256 0.136,0.404 -0.015,0.148 -0.093,0.282 -0.215,0.368 -0.26,0.184 -26.085,18.578 -30.521,33.932 -0.064,0.227 -0.27,0.373 -0.494,0.373 z"
   id="path4" />
				<path
   style="fill:#fbead9"
   d="m 208.818,293.725 c -0.239,0 -0.453,-0.167 -0.504,-0.41 -0.035,-0.167 -3.605,-16.883 -14.595,-34.742 -10.983,-17.848 -36.244,-34.581 -36.498,-34.748 -0.155,-0.102 -0.244,-0.281 -0.23,-0.466 0.013,-0.186 0.125,-0.35 0.294,-0.43 l 24.543,-11.59 -19.141,-23.926 c -0.178,-0.222 -0.142,-0.546 0.081,-0.724 0.223,-0.178 0.545,-0.142 0.724,0.081 l 19.548,24.435 c 0.098,0.123 0.135,0.284 0.1,0.438 -0.036,0.153 -0.14,0.282 -0.282,0.35 l -24.315,11.482 c 4.323,2.954 26.033,18.275 36.053,34.558 11.089,18.02 14.692,34.904 14.727,35.072 0.058,0.278 -0.121,0.551 -0.399,0.609 -0.035,0.008 -0.071,0.011 -0.106,0.011 z"
   id="path5" />
				<polygon
   style="fill:#ffffff"
   points="244.424,217.635 240.664,212.585 200.441,180.197 193.372,184.648 223.218,291.465 "
   id="polygon5" />
				<g
   id="g20">
					
						<ellipse
   transform="matrix(0.4147,-0.91,0.91,0.4147,41.8898,302.4231)"
   style="fill:#ffa12e;fill-opacity:1"
   cx="256.022"
   cy="118.65"
   rx="53.070999"
   ry="145.04401"
   id="ellipse5" />
					<g
   id="g17">
						<g
   id="g6">
							<polygon
   style="fill:#ff9583"
   points="240.664,212.585 243.612,206.061 248.975,194.227 211.15,162.818 207.64,159.891 200.441,180.197 227.931,217.374 "
   id="polygon6" />
							<path
   style="fill:#270603"
   d="m 207.906,175.389 c 0.629,13.445 10.107,26.051 22.847,30.43 3.358,1.155 7.018,1.766 10.502,1.017 0.878,-0.203 1.671,-0.442 2.356,-0.775 l 5.364,-11.834 -37.826,-31.409 c -2.594,3.426 -3.439,8.177 -3.243,12.571 z"
   id="path6" />
						</g>
						<g
   id="g14">
							<path
   style="fill:#ff9583"
   d="m 302.623,151.614 c 0,0 -0.021,0.041 -0.041,0.123 -16.509,41.139 -75.982,34.761 -87.816,-3.445 -1.066,-3.384 -1.743,-7.034 -1.989,-10.931 v -0.02 c -0.02,-0.246 -0.041,-0.513 -0.061,-0.759 -0.041,-0.41 -0.082,-0.8 -0.062,-1.21 v -0.246 c 0,0 0,0 -0.021,0 -0.225,-6.522 0.923,-13.187 3.589,-19.585 4.799,-11.607 14.417,-21.021 26.127,-25.553 0.021,-0.021 0.041,-0.021 0.082,0 6.275,-2.523 13.125,-3.568 19.893,-3.138 3.63,0.205 7.26,0.861 10.726,1.948 26.271,7.772 40.339,37.55 29.573,62.816 z"
   id="path7" />
							<path
   style="fill:#ff9583"
   d="m 302.628,151.607 c 0,0 -15.926,45.41 -35.946,51.489 -20.019,6.079 -61.08,-17.531 -59.77,-35.224 1.31,-17.694 10.614,-47.249 10.614,-47.249 z"
   id="path8" />
							<g
   id="g12">
								<g
   id="g11">
									<g
   id="g10">
										<path
   style="fill:#270603"
   d="m 250.008,151.16 c -1.091,2.613 -4.095,3.847 -6.709,2.756 -2.613,-1.092 -3.847,-4.095 -2.756,-6.709 1.092,-2.614 4.095,-3.847 6.709,-2.756 2.614,1.092 3.847,4.096 2.756,6.709 z"
   id="path9" />
										<path
   style="fill:#270603"
   d="m 288.009,165.892 c -1.091,2.614 -4.095,3.847 -6.708,2.756 -2.613,-1.092 -3.848,-4.095 -2.756,-6.709 1.092,-2.613 4.095,-3.847 6.709,-2.756 2.612,1.092 3.846,4.095 2.755,6.709 z"
   id="path10" />
									</g>
								</g>
							</g>
							<g
   id="g13">
								<path
   style="fill:#ff9583"
   d="m 208.453,161.921 c 0.426,0.055 0.835,0.104 1.242,0.11 l 5.258,-14.252 1.746,-4.767 c 0,0 -0.615,-1.462 -1.774,-3.336 -0.427,-0.689 -0.917,-1.425 -1.483,-2.172 -0.148,-0.184 -0.288,-0.386 -0.436,-0.57 0,0 0,0 -0.017,-0.007 -0.213,-0.273 -0.443,-0.553 -0.698,-0.823 -0.01,-0.025 -0.02,-0.049 -0.038,-0.057 -3.437,-3.806 -8.657,-6.619 -14.986,-0.518 -11.081,10.676 1.641,24.98 11.186,26.392 z"
   id="path12" />
								<path
   style="fill:#270603"
   d="m 207.493,154.351 c -0.082,0 -0.164,-0.023 -0.235,-0.071 -0.165,-0.109 -0.232,-0.318 -0.163,-0.503 0.53,-1.409 0.39,-3.164 -0.385,-4.815 -0.803,-1.712 -2.178,-3.044 -3.678,-3.564 -0.222,-0.077 -0.339,-0.319 -0.262,-0.541 0.077,-0.221 0.319,-0.338 0.541,-0.262 1.712,0.594 3.27,2.091 4.168,4.006 0.603,1.285 0.86,2.635 0.76,3.883 1.622,-2.044 2.564,-4.706 2.625,-7.516 0.024,-1.079 -0.082,-2.018 -0.321,-2.869 -0.558,-1.98 -1.985,-3.718 -3.819,-4.65 -1.834,-0.932 -4.08,-1.061 -6.008,-0.343 -0.22,0.081 -0.464,-0.03 -0.546,-0.25 -0.082,-0.22 0.03,-0.464 0.25,-0.546 2.145,-0.798 4.646,-0.657 6.688,0.382 2.042,1.037 3.631,2.973 4.251,5.177 0.263,0.934 0.378,1.954 0.353,3.118 -0.079,3.589 -1.511,6.96 -3.929,9.248 -0.079,0.076 -0.185,0.116 -0.29,0.116 z"
   id="path13" />
							</g>
						</g>
						<path
   style="fill:#270603"
   d="m 260.344,177.953 c -0.957,0 -1.915,-0.199 -2.797,-0.602 -2.044,-0.933 -3.529,-2.892 -3.874,-5.113 -0.044,-0.281 0.148,-0.544 0.43,-0.588 0.282,-0.049 0.544,0.149 0.588,0.43 0.288,1.854 1.577,3.555 3.284,4.334 1.707,0.781 3.837,0.64 5.426,-0.358 0.241,-0.151 0.559,-0.078 0.71,0.163 0.151,0.241 0.078,0.559 -0.163,0.71 -1.083,0.678 -2.343,1.024 -3.604,1.024 z"
   id="path14" />
						<g
   id="g16">
							<path
   style="fill:#270603"
   d="m 256.362,137.387 c 0.385,1.607 -0.36,3.524 -1.898,4.13 -1.237,0.487 -2.627,0.076 -3.891,-0.337 -0.994,-0.325 -1.988,-0.65 -2.982,-0.975 -1.063,-0.347 -2.189,-0.738 -2.88,-1.617 -2.089,-2.661 0.273,-6.789 3.39,-6.648 2.936,0.132 7.539,2.436 8.261,5.447 z"
   id="path15" />
							<path
   style="fill:#270603"
   d="m 294.602,153.866 c 0.38,1.586 -0.355,3.478 -1.873,4.076 -1.221,0.481 -2.592,0.075 -3.84,-0.333 -0.981,-0.321 -1.962,-0.641 -2.943,-0.962 -1.049,-0.343 -2.161,-0.728 -2.842,-1.596 -2.062,-2.627 0.269,-6.7 3.346,-6.561 2.897,0.131 7.44,2.405 8.152,5.376 z"
   id="path16" />
						</g>
					</g>
					<path
   style="fill:#270603"
   d="m 264.147,170.089 c -2.779,0 -5.692,-0.989 -5.884,-1.055 -0.269,-0.093 -0.412,-0.386 -0.319,-0.655 0.093,-0.269 0.386,-0.411 0.655,-0.319 1.912,0.659 7.254,1.923 8.997,-0.11 1.799,-2.099 4.567,-12.506 5.78,-17.715 0.064,-0.277 0.344,-0.45 0.618,-0.385 0.277,0.064 0.449,0.341 0.385,0.618 -0.146,0.625 -3.59,15.34 -6.001,18.152 -0.956,1.115 -2.57,1.469 -4.231,1.469 z"
   id="path17" />
					<path
   style="fill:#270603"
   d="m 262.611,99.872 c -2.194,6.234 -6.788,11.608 -12.612,14.725 -3.035,1.641 -6.481,2.748 -8.88,5.229 -1.702,1.743 -2.728,3.999 -4.204,5.947 -0.39,0.513 -0.82,0.985 -1.271,1.456 -1.251,1.313 -2.707,2.461 -4.184,3.548 -2.748,2.03 -5.681,3.876 -8.921,4.963 -2.461,0.82 -6.583,11.355 -8.942,9.571 -0.041,-0.021 -0.82,-9.797 -0.943,-9.94 v -0.246 c 0,0 0,0 -0.021,0 -0.225,-6.522 0.923,-13.187 3.589,-19.585 4.799,-11.607 14.417,-21.021 26.127,-25.553 0.021,-0.021 0.041,-0.021 0.082,0 6.275,-2.523 13.125,-3.568 19.893,-3.138 2.113,3.917 1.764,8.818 0.287,13.023 z"
   id="path18" />
					<path
   style="fill:#ffa12e;fill-opacity:1"
   d="m 212.091,127.051 c -2.629,-0.598 -2.776,-3.887 -2.484,-6.567 0.292,-2.68 2.187,-4.988 4.499,-6.375 2.312,-1.387 5.008,-1.978 7.673,-2.385 14.082,-2.152 28.495,0.282 42.2,4.167 11.722,3.323 23.426,7.88 32.505,16.006 2.766,2.475 5.299,5.324 6.753,8.739 1.454,3.415 1.714,7.473 0.037,10.784 0.834,1.088 1.736,1.004 3.081,0.736 1.344,-0.269 2.534,-1.023 3.687,-1.764 2.476,-1.591 4.975,-3.216 6.963,-5.386 5.151,-5.624 6.044,-14.11 4.421,-21.561 -2.336,-10.725 -9.259,-20.092 -17.921,-26.835 -8.661,-6.743 -18.985,-11.056 -29.513,-14.16 -10.549,-3.11 -21.799,-5.077 -32.523,-2.634 -16.237,3.7 -29.415,18.24 -31.505,34.762 -0.279,2.205 -0.378,4.428 -0.476,6.648"
   id="path19" />
					<path
   style="fill:#270603"
   d="m 308.829,154.531 c -0.013,0 -0.027,-0.001 -0.041,-0.002 -0.283,-0.022 -0.495,-0.27 -0.473,-0.553 0.015,-0.19 1.015,-19.211 -36.856,-34.564 -38.033,-15.419 -59.3,-4.071 -59.51,-3.954 -0.25,0.138 -0.562,0.048 -0.7,-0.201 -0.138,-0.249 -0.048,-0.562 0.2,-0.7 0.213,-0.12 21.868,-11.72 60.396,3.9 38.654,15.67 37.562,34.794 37.497,35.601 -0.022,0.27 -0.247,0.473 -0.513,0.473 z"
   id="path20" />
				</g>
				<g
   id="g22">
					<path
   style="fill:#ff4e1b"
   d="m 228.192,216.588 c 0,0 -18.85,-14.137 -39.009,-4.974 l 8.116,38.485 z"
   id="path21" />
					<path
   style="fill:#ff4e1b"
   d="m 227.341,217.092 c 0,0 23.073,-4.776 37.42,12.091 l -23.716,31.378 z"
   id="path22" />
				</g>
				<g
   id="g44">
					<path
   style="fill:#270603"
   d="m 349.755,353.344 c -5.9,23.778 -26.859,44.33 -51.333,45.437 -5.721,0.259 -11.576,-0.477 -17.098,1.043 -8.534,2.348 -14.719,9.605 -19.851,16.816 -7.635,10.729 -14.282,22.311 -23.666,31.549 -14.973,14.741 -36.633,22.408 -57.545,20.37 -33.671,-3.281 -61.348,-30.473 -74.3,-61.725 -13.771,-33.228 -13.168,-73.039 5.308,-103.9 5.781,-9.655 13.388,-18.506 23.245,-23.936 17.278,-9.517 38.646,-7.199 57.62,-1.806 9.072,2.578 18.498,5.827 27.717,3.84 10.989,-2.368 18.971,-11.529 28.244,-17.885 14,-9.595 32.137,-12.913 48.627,-8.894 39.302,9.579 62.318,61.67 53.032,99.091 z"
   id="path23" />
					<path
   style="fill:#fbead9"
   d="m 347.937,335.788 c -5.9,23.778 -26.859,44.33 -51.333,45.437 -5.721,0.259 -11.576,-0.477 -17.098,1.043 -8.534,2.348 -14.719,9.605 -19.851,16.816 -7.635,10.729 -14.282,22.311 -23.666,31.549 -14.973,14.741 -36.633,22.408 -57.545,20.37 -33.671,-3.281 -61.348,-30.473 -74.3,-61.725 -13.771,-33.228 -13.168,-73.04 5.308,-103.9 5.781,-9.655 13.388,-18.507 23.245,-23.936 17.278,-9.517 38.646,-7.199 57.62,-1.807 9.072,2.578 18.498,5.828 27.717,3.84 10.989,-2.368 18.971,-11.529 28.244,-17.885 14,-9.596 32.137,-12.913 48.627,-8.894 39.302,9.579 62.317,61.67 53.032,99.092 z"
   id="path24" />
					<path
   style="fill:#ffa12e;fill-opacity:1"
   d="m 341.641,335.561 c -5.62,22.649 -25.585,42.226 -48.897,43.281 -5.45,0.246 -11.027,-0.454 -16.286,0.993 -8.129,2.236 -14.021,9.149 -18.909,16.018 -7.273,10.219 -13.605,21.252 -22.543,30.052 -14.263,14.041 -34.894,21.344 -54.814,19.403 -32.072,-3.125 -58.436,-29.026 -70.774,-58.795 -13.117,-31.651 -12.543,-69.573 5.056,-98.968 5.506,-9.197 12.753,-17.628 22.141,-22.8 16.458,-9.065 36.812,-6.857 54.885,-1.721 8.642,2.456 17.62,5.551 26.402,3.658 10.468,-2.256 18.071,-10.982 26.903,-17.036 13.335,-9.14 30.612,-12.3 46.319,-8.472 37.439,9.123 59.362,58.742 50.517,94.387 z"
   id="path25"
   sodipodi:nodetypes="cccccscccccccc" />
					<g
   id="g35">
						<polygon
   style="fill:#ff4e1b"
   points="328.132,277.448 338.499,312.039 440.518,271.812 435.713,252.912 "
   id="polygon25" />
						<g
   id="g26">
							
								<circle
   transform="matrix(0.0302,-0.9995,0.9995,0.0302,-57.4906,566.0998)"
   style="fill:#ff4e1b"
   cx="262.99899"
   cy="312.67801"
   id="ellipse25"
   r="39.400002" />
							<path
   style="fill:#270603"
   d="m 238.17,296.544 c -8.911,13.713 -5.018,32.053 8.695,40.964 13.713,8.911 32.053,5.018 40.964,-8.695 8.911,-13.713 5.018,-32.053 -8.695,-40.964 -13.713,-8.911 -32.054,-5.018 -40.964,8.695 z"
   id="path26" />
						</g>
						<polygon
   style="fill:#270603"
   points="179.216,386.162 194.501,377.933 164.77,309.231 150.201,313.58 "
   id="polygon26" />
						<path
   style="fill:#ffa12e;fill-opacity:1"
   d="m 433.604,250.51 7.925,24.568 49.088,-8.487 c 5.443,-0.946 8.941,-6.273 7.674,-11.635 l -3.521,-14.722 c -1.307,-5.522 -7.095,-8.682 -12.446,-6.804 z m 14.413,15.494 38.446,-7.566 1.008,3.738 -38.33,8.944 z m -2.493,-9.938 -1.615,-4.979 37.49,-11.336 1.379,3.625 z"
   id="path27"
   sodipodi:nodetypes="ccccccccccccccccc" />
						<g
   id="g34">
							<path
   style="fill:#270603"
   d="m 182.784,363.197 c -0.297,0 -0.575,-0.186 -0.679,-0.481 -0.131,-0.375 0.066,-0.785 0.441,-0.917 L 443.46,270.436 c 0.376,-0.131 0.785,0.067 0.917,0.441 0.131,0.375 -0.066,0.785 -0.441,0.917 l -260.914,91.363 c -0.079,0.027 -0.159,0.04 -0.238,0.04 z"
   id="path28" />
							<path
   style="fill:#270603"
   d="m 180.481,357.833 c -0.297,0 -0.574,-0.185 -0.678,-0.481 -0.131,-0.375 0.065,-0.785 0.44,-0.917 l 263.596,-92.514 c 0.376,-0.133 0.785,0.065 0.917,0.44 0.131,0.375 -0.065,0.785 -0.44,0.917 L 180.72,357.792 c -0.079,0.028 -0.159,0.041 -0.239,0.041 z"
   id="path29" />
							<path
   style="fill:#270603"
   d="m 180.105,353.35 c -0.297,0 -0.574,-0.185 -0.678,-0.481 -0.131,-0.375 0.065,-0.785 0.44,-0.917 l 263.595,-92.514 c 0.376,-0.131 0.785,0.065 0.917,0.44 0.131,0.375 -0.065,0.785 -0.44,0.917 l -263.595,92.514 c -0.079,0.027 -0.159,0.041 -0.239,0.041 z"
   id="path30" />
							<path
   style="fill:#270603"
   d="m 179.729,348.866 c -0.297,0 -0.574,-0.185 -0.678,-0.481 -0.131,-0.375 0.065,-0.785 0.44,-0.917 l 263.595,-92.514 c 0.377,-0.132 0.785,0.065 0.917,0.44 0.131,0.375 -0.065,0.785 -0.44,0.917 l -263.595,92.514 c -0.08,0.028 -0.16,0.041 -0.239,0.041 z"
   id="path31" />
							<path
   style="fill:#270603"
   d="m 171.629,342.021 c -0.304,0 -0.586,-0.194 -0.685,-0.499 -0.121,-0.378 0.086,-0.783 0.464,-0.905 L 442.455,253.44 c 0.38,-0.121 0.784,0.087 0.905,0.464 0.122,0.378 -0.086,0.783 -0.464,0.905 L 171.85,341.987 c -0.074,0.023 -0.148,0.034 -0.221,0.034 z"
   id="path32" />
							<path
   style="fill:#270603"
   d="m 167.485,334.034 c -0.309,0 -0.595,-0.202 -0.688,-0.513 -0.114,-0.38 0.102,-0.781 0.482,-0.895 l 271.037,-81.099 c 0.379,-0.116 0.781,0.102 0.895,0.482 0.114,0.38 -0.102,0.781 -0.482,0.895 l -271.037,81.099 c -0.069,0.021 -0.138,0.031 -0.207,0.031 z"
   id="path33" />
							<path
   style="fill:#270603"
   d="m 166.301,324.062 c -0.32,0 -0.611,-0.215 -0.695,-0.539 -0.1,-0.384 0.131,-0.777 0.515,-0.876 l 269.204,-69.831 c 0.383,-0.101 0.777,0.131 0.876,0.515 0.099,0.384 -0.131,0.777 -0.515,0.876 l -269.204,69.831 c -0.061,0.016 -0.122,0.024 -0.181,0.024 z"
   id="path34" />
						</g>
					</g>
					<path
   style="fill:#270603"
   d="m 483.618,282.71 c -0.29,0 -0.557,-0.192 -0.639,-0.485 l -15.24,-54.306 c -0.099,-0.354 0.107,-0.72 0.46,-0.819 0.355,-0.098 0.721,0.107 0.819,0.46 l 15.24,54.306 c 0.099,0.354 -0.107,0.72 -0.46,0.819 -0.06,0.017 -0.121,0.025 -0.18,0.025 z"
   id="path35" />
					<path
   style="fill:#270603"
   d="m 470.711,284.404 c -0.29,0 -0.557,-0.192 -0.639,-0.485 l -15.24,-54.306 c -0.099,-0.354 0.107,-0.72 0.46,-0.819 0.355,-0.099 0.721,0.107 0.819,0.46 l 15.24,54.306 c 0.099,0.354 -0.107,0.72 -0.46,0.819 -0.06,0.017 -0.12,0.025 -0.18,0.025 z"
   id="path36" />
					<path
   style="fill:#270603"
   d="m 460.1,285.367 c -0.29,0 -0.557,-0.192 -0.639,-0.485 l -15.24,-54.306 c -0.099,-0.354 0.107,-0.72 0.46,-0.819 0.355,-0.099 0.721,0.107 0.819,0.46 l 15.24,54.306 c 0.099,0.354 -0.107,0.72 -0.46,0.819 -0.06,0.017 -0.121,0.025 -0.18,0.025 z"
   id="path37" />
					<g
   id="g40">
						<path
   style="fill:#270603"
   d="m 488.232,277.918 -9.342,2.185 c 0,0 0.416,5.698 5.081,5.389 4.665,-0.309 4.261,-7.574 4.261,-7.574 z"
   id="path38" />
						<path
   style="fill:#270603"
   d="m 475.151,279.273 -9.342,2.185 c 0,0 0.416,5.698 5.081,5.389 4.665,-0.31 4.261,-7.574 4.261,-7.574 z"
   id="path39" />
						<path
   style="fill:#270603"
   d="m 463.102,280.52 -9.342,2.185 c 0,0 0.416,5.698 5.081,5.389 4.666,-0.309 4.261,-7.574 4.261,-7.574 z"
   id="path40" />
					</g>
					<g
   id="g43">
						<path
   style="fill:#270603"
   d="m 440.117,236.393 9.047,-3.194 c 0,0 -1.037,-5.618 -5.64,-4.801 -4.604,0.818 -3.407,7.995 -3.407,7.995 z"
   id="path41" />
						<path
   style="fill:#270603"
   d="m 452.971,233.616 9.047,-3.194 c 0,0 -1.037,-5.618 -5.64,-4.801 -4.603,0.818 -3.407,7.995 -3.407,7.995 z"
   id="path42" />
						<path
   style="fill:#270603"
   d="m 464.811,231.058 9.047,-3.194 c 0,0 -1.037,-5.618 -5.64,-4.801 -4.603,0.818 -3.407,7.995 -3.407,7.995 z"
   id="path43" />
					</g>
				</g>
				<g
   id="g46">
					<path
   style="fill:#ff9583"
   d="m 201.122,301.593 c 0,0 48.712,-4.823 65.441,-1.796 16.729,3.026 21.463,6.17 22.404,9.909 0.941,3.739 0.029,9.183 0.029,9.183 0,0 4.389,3.198 3.477,8.641 -0.912,5.443 -4.272,8.798 -4.272,8.798 0,0 3.679,5.429 2.152,9.203 -1.528,3.773 -10.73,5.925 -10.73,5.925 0,0 2.266,3.178 -1.439,6.586 -3.705,3.409 -86.382,-8.98 -86.382,-8.98 l 10.138,-49.01"
   id="path44" />
					<path
   style="fill:#270603"
   d="m 288.201,336.843 c -0.005,0 -0.011,0 -0.016,0 l -10.298,-0.327 c -0.285,-0.009 -0.508,-0.247 -0.499,-0.531 0.009,-0.285 0.258,-0.528 0.531,-0.499 l 10.059,0.319 c 0.63,-0.728 3.083,-3.797 3.99,-8.376 0.936,-4.721 -2.561,-7.59 -3.18,-8.056 l -11.343,-2.066 c -0.28,-0.051 -0.465,-0.319 -0.415,-0.599 0.051,-0.28 0.317,-0.462 0.599,-0.415 l 11.458,2.087 c 0.072,0.013 0.141,0.042 0.202,0.084 0.048,0.034 4.825,3.429 3.688,9.164 -1.101,5.554 -4.271,8.914 -4.405,9.055 -0.097,0.103 -0.231,0.16 -0.371,0.16 z"
   id="path45" />
					<path
   style="fill:#270603"
   d="m 279.659,351.969 -6.411,-0.058 c -0.284,-0.003 -0.513,-0.235 -0.51,-0.52 0.003,-0.283 0.233,-0.51 0.515,-0.51 0.001,0 0.003,0 0.005,0 l 6.37,0.06 c 0.057,-0.006 9.831,-0.762 10.212,-5.452 0.402,-4.944 -2.048,-8.844 -2.072,-8.883 -0.153,-0.24 -0.083,-0.558 0.156,-0.711 0.238,-0.153 0.557,-0.084 0.711,0.156 0.109,0.169 2.663,4.22 2.231,9.521 -0.452,5.567 -10.768,6.366 -11.207,6.397 z"
   id="path46" />
				</g>
				<g
   id="g50">
					<path
   style="fill:#270603"
   d="m 104.446,274.883 101.755,8.203 -18.85,89.014 c 0,0 -128.808,10.472 -144.517,-10.472 -15.708,-20.944 61.612,-86.745 61.612,-86.745 z"
   id="path47" />
					<g
   id="g49">
						<path
   style="fill:#fbead9"
   d="m 99.219,375.64 c -5.695,0 -10.146,-0.121 -12.636,-0.41 -0.282,-0.033 -0.485,-0.289 -0.452,-0.571 0.033,-0.282 0.281,-0.485 0.571,-0.452 14.273,1.661 93.858,-2.281 100.225,-2.601 L 205.055,284.072 89.739,273.826 c -0.284,-0.025 -0.493,-0.275 -0.468,-0.559 0.025,-0.284 0.283,-0.483 0.559,-0.468 l 115.893,10.298 c 0.146,0.013 0.28,0.088 0.368,0.206 0.087,0.118 0.121,0.268 0.091,0.412 l -18.327,88.49 c -0.048,0.229 -0.244,0.398 -0.478,0.41 -0.714,0.036 -59.813,3.025 -88.158,3.025 z"
   id="path48" />
						<path
   style="fill:#fbead9"
   d="m 116.576,275.661 c -0.126,0 -0.249,-0.046 -0.343,-0.131 l -13.265,-11.869 c -0.212,-0.189 -0.23,-0.515 -0.041,-0.727 0.19,-0.212 0.516,-0.229 0.727,-0.041 l 12.796,11.449 16.088,-27.384 c 0.144,-0.246 0.46,-0.327 0.705,-0.183 0.246,0.144 0.328,0.459 0.183,0.705 l -16.407,27.926 c -0.078,0.133 -0.212,0.224 -0.364,0.248 -0.027,0.005 -0.053,0.007 -0.079,0.007 z"
   id="path49" />
					</g>
				</g>
				<g
   id="g55">
					<path
   style="fill:#ff9583"
   d="m 352.681,306.387 27.882,-10.996 c 0,0 -5.94,-9.006 -3.938,-12.009 2.002,-3.003 10.761,2.753 10.761,2.753 0,0 -2.252,-6.757 0.751,-8.259 3.003,-1.502 8.509,1.752 8.509,1.752 0,0 -2.753,-4.255 0.25,-6.006 3.003,-1.752 13.264,1.502 13.765,1.752 0.5,0.25 -3.254,-4.505 3.504,-6.257 6.757,-1.752 20.146,7.758 20.146,7.758 0,0 7.133,8.759 -5.631,10.511 0,0 0.5,6.006 -5.256,8.759 -5.756,2.753 -10.011,1.001 -10.011,1.001 0,0 1.251,6.006 -5.506,8.259 0,0 -2.753,8.009 -8.759,10.261 -6.006,2.252 -18.77,6.006 -24.776,7.508 -6.006,1.502 -15.146,4.811 -15.146,4.811 z"
   id="path50" />
					<path
   style="fill:#270603"
   d="m 428.526,287.894 -0.156,-0.127 c -0.116,-0.095 -11.651,-9.49 -17.888,-11.936 l -0.153,-0.095 c -0.05,-0.046 -1.233,-1.156 -1.042,-2.784 0.167,-1.417 1.307,-2.725 3.387,-3.886 5.662,-3.159 19.143,4.253 22.392,8.252 1.917,2.36 2.539,4.697 1.75,6.579 -0.931,2.221 -3.653,3.56 -8.09,3.979 z m -17.588,-12.937 c 6.066,2.425 16.434,10.738 17.895,11.923 3.877,-0.397 6.323,-1.559 7.08,-3.363 0.634,-1.511 0.048,-3.545 -1.606,-5.582 -3.018,-3.714 -15.979,-10.901 -21.154,-8.015 -1.759,0.982 -2.759,2.066 -2.89,3.135 -0.118,0.957 0.484,1.695 0.675,1.902 z"
   id="path51" />
					<path
   style="fill:#270603"
   d="m 418.054,298.574 c -2.701,0 -4.811,-0.965 -4.848,-0.982 l -0.16,-0.075 -0.075,-0.159 c -2.18,-4.603 -15.377,-15.489 -15.51,-15.598 -1.532,-1.114 -3.954,-4.093 -1.982,-7.269 2.39,-3.849 14.021,-0.028 15.34,0.42 l -0.315,0.928 c -3.379,-1.148 -12.514,-3.535 -14.191,-0.832 -1.982,3.194 1.596,5.866 1.75,5.978 0.566,0.464 13.224,10.908 15.712,15.784 0.948,0.388 6.135,2.258 10.07,-1.358 4.388,-4.033 4.348,-7.97 4.347,-8.01 l 0.979,-0.028 c 0.005,0.178 0.078,4.403 -4.663,8.759 -2.066,1.897 -4.427,2.442 -6.454,2.442 z"
   id="path52" />
					<path
   style="fill:#270603"
   d="m 401.16,302.979 -14.345,-16.14 c -0.113,-0.249 -2.741,-6.113 0.366,-8.949 3.114,-2.843 8.61,0.428 8.843,0.568 l -0.507,0.839 c -0.052,-0.031 -5.104,-3.032 -7.675,-0.683 -2.427,2.215 -0.43,7.133 -0.163,7.754 l 14.213,15.959 z"
   id="path53" />
					<path
   style="fill:#270603"
   d="m 406.822,305.922 c -0.931,0 -1.585,-0.147 -1.654,-0.164 l 0.224,-0.954 c 0.161,0.037 3.983,0.882 6.257,-2.074 2.28,-2.964 1.354,-5.294 1.313,-5.392 l 0.902,-0.383 c 0.05,0.118 1.208,2.932 -1.438,6.373 -1.673,2.174 -4.033,2.594 -5.604,2.594 z"
   id="path54" />
					<path
   style="fill:#270603"
   d="m 385.021,306.579 c -0.002,-0.025 -0.272,-2.624 -2.092,-6.991 -0.616,-1.479 -1.694,-3.202 -2.835,-5.026 -2.351,-3.758 -4.782,-7.644 -4.071,-10.666 0.19,-0.81 0.666,-1.384 1.376,-1.662 2.862,-1.117 8.951,2.907 9.636,3.37 l -0.549,0.812 c -1.744,-1.178 -6.717,-4.063 -8.73,-3.27 -0.413,0.162 -0.661,0.471 -0.779,0.973 -0.618,2.625 1.808,6.501 3.948,9.921 1.164,1.86 2.263,3.617 2.91,5.169 1.884,4.521 2.152,7.164 2.163,7.274 z"
   id="path55" />
				</g>
			</g>
			
			
			
			
		</g>
		<g
   id="g101"
   transform="translate(-89.265255,59.297634)">
			
			
		</g>
	</g>
</g>















</svg>
