<?xml version="1.0" encoding="UTF-8" standalone="no"?>
<!-- Generator: Adobe Illustrator 26.3.1, SVG Export Plug-In . SVG Version: 6.00 Build 0)  -->

<svg
   version="1.1"
   id="Capa_1"
   x="0px"
   y="0px"
   viewBox="0 0 512 512"
   style="enable-background:new 0 0 512 512;"
   xml:space="preserve"
   width="512"
   height="512"
   sodipodi:docname="mexico.svg"
   inkscape:version="1.4 (1:1.4+202410161351+e7c3feb100)"
   xmlns:inkscape="http://www.inkscape.org/namespaces/inkscape"
   xmlns:sodipodi="http://sodipodi.sourceforge.net/DTD/sodipodi-0.dtd"
   xmlns="http://www.w3.org/2000/svg"
   xmlns:svg="http://www.w3.org/2000/svg"><defs
   id="defs99" /><sodipodi:namedview
   id="namedview99"
   pagecolor="#505050"
   bordercolor="#ffffff"
   borderopacity="1"
   inkscape:showpageshadow="0"
   inkscape:pageopacity="0"
   inkscape:pagecheckerboard="1"
   inkscape:deskcolor="#505050"
   inkscape:zoom="1.5683594"
   inkscape:cx="255.6812"
   inkscape:cy="256"
   inkscape:window-width="1920"
   inkscape:window-height="1011"
   inkscape:window-x="0"
   inkscape:window-y="32"
   inkscape:window-maximized="1"
   inkscape:current-layer="g98" />
<g
   id="g99">
	
	<g
   id="g98">
		<g
   id="g42">
			<path
   style="fill:#FF9583;"
   d="M412.848,491.646c-0.1-0.151-0.201-0.301-0.276-0.477h-66.904l-4.641-34.819l-2.132-15.98     l-10.661-80.099l-0.351-2.509l-0.226-1.731l47.989-33.69l1.079-0.753l11.138-7.827l2.784,19.818l22.126,157.589L412.848,491.646z     "
   id="path2" />
			<g
   id="g22">
				<g
   id="g3">
					<path
   style="fill:#FBEAD9;"
   d="M379.584,342.31l-0.702,0.276c0,0,0.803,5.017,1.606,12.593v0.025       c1.204,11.013,2.433,27.444,1.279,41.492c-0.15,1.907,0.133,7.285-0.319,9.291c-3.336,15.127-14.708,28.839-21.556,38.648       c-0.025,0.05-0.075,0.1-0.125,0.15c-3.437,4.917-5.87,7.952-5.87,7.952c-0.201,0.075-0.376,0.125-0.577,0.175       c-76.788,25.236-180.041-15.553-180.041-15.553l-16.507-74.982l-0.125-0.577l-0.552-0.176l-22.516-8.159l-53.801-39.07       c0,0-7.166-62.347,21.777-86.466c30.744-25.62,90.865-14.262,102.43-4.227l2.81,2.559c0.978,0.928,1.505,1.455,1.505,1.455       l78.218,11.013l4.44,0.602l0.828,0.125l11.489,0.201l3.035,0.05l42.902,0.819c14.401,2.269,34.574,13.387,43.126,25.193       c31.826,43.93-5.978,71.735-5.978,71.735L379.584,342.31z"
   id="path3" />
				</g>
				<g
   id="g5">
					<g
   id="g4">
						<path
   style="fill:#FF4E1B;"
   d="M319.077,273.499c-1.53,2.132-3.888,3.487-5.745,4.39c-6.748,3.336-14.876,5.017-24.208,5.017        c-2.383,0-4.842-0.1-7.375-0.326c-17.987-1.555-34.719-7.701-48.366-17.811c-14.173-10.461-24.584-25.011-29.401-41.066        l2.81,2.559c5.067,14.449,14.776,27.444,27.695,37.002c13.396,9.884,29.777,15.929,47.412,17.46        c12.141,1.029,22.427-0.477,30.605-4.516c1.656-0.828,3.763-2.007,5.042-3.813c2.609-3.587,1.455-8.655-0.677-11.866        c-2.483-3.713-6.547-6.347-10.11-8.68l-20.244-13.12l4.44,0.602l16.833,10.937c3.713,2.433,7.927,5.168,10.636,9.206        C320.934,263.214,322.188,269.185,319.077,273.499z"
   id="path4" />
					</g>
				</g>
				<g
   id="g6">
					<path
   style="fill:#270603;"
   d="M156.646,362.404c-0.224,0-0.441-0.126-0.544-0.344c-0.142-0.3-0.014-0.659,0.287-0.801       c0.228-0.108,22.903-11.316,32.325-53.397c9.461-42.258-10.031-99.018-10.229-99.587c-0.109-0.315,0.056-0.658,0.37-0.767       c0.316-0.109,0.656,0.057,0.767,0.37c0.199,0.572,19.802,57.658,10.266,100.246c-9.56,42.706-32.751,54.112-32.984,54.223       C156.82,362.385,156.733,362.404,156.646,362.404z"
   id="path5" />
				</g>
				<g
   id="g7">
					<path
   style="fill:#270603;"
   d="M353.896,453.34c-0.146,0-0.292-0.051-0.407-0.158c-0.245-0.224-0.261-0.605-0.037-0.85       c0.141-0.153,14.132-15.488,21.688-31.234c7.781-16.208,7.545-30.183,5.066-60.537c-2.528-30.984-7.623-55.616-7.674-55.863       c-0.067-0.325,0.141-0.643,0.467-0.712c0.315-0.066,0.644,0.141,0.712,0.467c0.051,0.245,5.16,24.948,7.696,56.01       c2.496,30.586,2.728,44.681-5.181,61.157c-7.636,15.909-21.744,31.371-21.886,31.525       C354.221,453.275,354.059,453.34,353.896,453.34z"
   id="path6" />
				</g>
				<g
   id="g8">
					<path
   style="fill:#FF4E1B;"
   d="M337.642,360.468c-31.748,0-63.303-6.034-93.227-12.373       c-22.885-4.847-43.23-9.849-60.463-22.022l1.448-2.048c16.841,11.896,36.927,16.828,59.535,21.616       c35.592,7.54,73.498,14.652,111.126,11.592c6.652-0.539,15.348-1.529,23.601-4.408l0.826,2.369       c-8.522,2.973-17.422,3.988-24.224,4.541C350.056,360.238,343.845,360.468,337.642,360.468z"
   id="path7" />
				</g>
				<g
   id="g9">
					<path
   style="fill:#270603;"
   d="M356.179,285.415c-0.1,0.075-0.201,0.1-0.301,0.1c-0.201,0-0.401-0.1-0.527-0.301       c-12.141-20.119-30.555-36.199-52.078-45.556l3.035,0.05c20.671,9.583,38.281,25.337,50.097,44.879       C356.556,284.888,356.48,285.24,356.179,285.415z"
   id="path8" />
				</g>
				<g
   id="g21">
					<g
   id="g12">
						<g
   id="g10">
							<path
   style="fill:#FF4E1B;"
   d="M360.021,300.513l-0.015,0.023l0.024,0.014c6.154,3.544,6.692,12.92,0.81,14.125l-0.028,0.006         l0,0c3.942,6.519-0.627,13.139-6.879,9.968l-0.005-0.003l0,0.006c0.218,7.007-7.715,8.334-11.945,1.998l0,0l-0.017,0.023         c-3.588,4.814-11.849,0.348-12.446-6.729l-0.002-0.027l-0.027,0.004c-6.021,0.785-11.46-7.771-8.194-12.89l0.015-0.023         l-0.024-0.014c-6.154-3.544-6.692-12.92-0.81-14.125l0.028-0.006l0,0c-3.942-6.519,0.627-13.139,6.879-9.968l0.005,0.003         l0-0.006c-0.218-7.007,7.715-8.334,11.945-1.999l0,0l0.017-0.023c3.588-4.814,11.849-0.348,12.446,6.729l0.002,0.027         l0.027-0.003C357.848,286.839,363.287,295.394,360.021,300.513z"
   id="path9" />
						</g>
						<g
   id="g11">
							<path
   style="fill:#FFC74B;"
   d="M345.96,301.317c2.159,3.397,1.796,7.494-0.811,9.151c-2.607,1.657-6.471,0.247-8.63-3.149         c-2.159-3.397-1.796-7.494,0.811-9.151C339.937,296.51,343.801,297.92,345.96,301.317z"
   id="path10" />
						</g>
					</g>
					<g
   id="g15">
						<g
   id="g13">
							<path
   style="fill:#FF4E1B;"
   d="M244.131,301.802l-0.032,0.012l0.017,0.024c4.289,6.292-1.672,14.494-8.981,12.355         l-0.035-0.01l0,0c-0.222,7.616-9.872,10.752-14.529,4.722l-0.004-0.005l-0.004,0.005c-4.657,6.03-14.307,2.895-14.529-4.721         v-0.001l-0.035,0.01c-7.309,2.138-13.27-6.063-8.98-12.355l0.016-0.024l-0.032-0.012c-7.168-2.568-7.168-12.706,0-15.274         l0.032-0.012l-0.017-0.024c-4.289-6.292,1.672-14.494,8.981-12.355l0.035,0.01l0,0c0.222-7.616,9.872-10.752,14.529-4.722         l0.004,0.005l0.004-0.005c4.657-6.03,14.307-2.895,14.529,4.721v0.001l0.035-0.01c7.309-2.138,13.27,6.063,8.98,12.355         l-0.016,0.024l0.032,0.012C251.299,289.096,251.299,299.234,244.131,301.802z"
   id="path12" />
						</g>
						<g
   id="g14">
							<circle
   style="fill:#FFC74B;"
   cx="220.823"
   cy="294.937"
   r="7.287"
   id="circle13" />
						</g>
					</g>
					<g
   id="g18">
						<g
   id="g16">
							<path
   style="fill:#FF4E1B;"
   d="M313.304,331.264l-0.032,0.012l0.017,0.024c4.29,6.292-1.672,14.494-8.981,12.355l-0.035-0.01         l0,0c-0.222,7.616-9.872,10.752-14.529,4.722l-0.004-0.005l-0.004,0.005c-4.657,6.03-14.307,2.895-14.529-4.721v-0.001         l-0.035,0.01c-7.309,2.138-13.27-6.063-8.98-12.355l0.016-0.024l-0.032-0.012c-7.168-2.568-7.168-12.706,0-15.274         l0.032-0.012l-0.017-0.024c-4.29-6.292,1.672-14.494,8.981-12.355l0.035,0.01l0,0c0.222-7.616,9.872-10.752,14.529-4.722         l0.004,0.005l0.004-0.005c4.657-6.03,14.307-2.895,14.529,4.722v0.001l0.035-0.01c7.309-2.138,13.27,6.063,8.98,12.355         l-0.016,0.024l0.032,0.012C320.472,318.559,320.472,328.696,313.304,331.264z"
   id="path15" />
						</g>
						<g
   id="g17">
							
								<ellipse
   transform="matrix(0.2298 -0.9732 0.9732 0.2298 -92.3525 532.1058)"
   style="fill:#FFC74B;"
   cx="289.996"
   cy="324.399"
   rx="7.287"
   ry="7.287"
   id="ellipse16" />
						</g>
					</g>
					<g
   id="g19">
						<path
   style="fill:#5F68C0;"
   d="M245.104,327.089c-1.166-3.579-1.429-7.59,0.059-11.047c0.889-2.065,2.889-4.056,5.083-3.566        c1.758,0.392,2.811,2.204,3.321,3.932c1.084,3.671,0.683,7.616-0.084,11.367c-0.591,2.891-0.877,7.844-2.559,10.15        C248.447,334.858,246.333,330.863,245.104,327.089z"
   id="path18" />
					</g>
					<g
   id="g20">
						<path
   style="fill:#5F68C0;"
   d="M329.133,338.754c2.882-2.422,6.502-4.169,10.265-4.084c2.248,0.051,4.843,1.159,5.211,3.377        c0.295,1.777-0.991,3.432-2.401,4.552c-2.998,2.38-6.806,3.487-10.57,4.181c-2.902,0.535-7.602,2.125-10.369,1.43        C323.183,344.764,326.094,341.308,329.133,338.754z"
   id="path19" />
					</g>
				</g>
			</g>
			<g
   id="g37">
				<path
   style="fill:#270603;"
   d="M178.492,143.412c-54.99,13.828-12.28,84.935,32.001,58.16      c29.675-15.451,9.087-66.975-23.153-58.795L178.492,143.412z"
   id="path22" />
				<path
   style="fill:#270603;"
   d="M276.473,44.071c12.664-0.971,25.481,0.079,37.818,3.099c4.179,1.023,8.498,2.385,11.497,5.47      c3.054,3.142,4.306,7.926,3.183,12.161c-0.43,1.621-1.185,3.194-1.178,4.871c0.016,4.066,4.186,6.622,6.808,9.729      c3.822,4.528,4.531,10.981,3.701,16.848c-1.777,12.553-9.893,23.727-20.486,30.694c-3.519,2.315-7.363,4.232-11.494,5.055      c-8.939,1.782-18.343-1.849-25.196-7.859c-6.853-6.01-11.479-14.155-15.164-22.492c-3.925-8.88-6.965-18.372-6.833-28.08      c0.131-9.708,3.802-19.707,11.348-25.815L276.473,44.071z"
   id="path23" />
				<g
   id="g34">
					<g
   id="g25">
						<path
   style="fill:#FF9583;"
   d="M206.901,176.982l1.401,50.736c0,0,25.62,47.823,79.848,47.823        c54.228,0,1.708-30.317,1.708-30.317l-9.093-30.539l-0.21-18.408l-67.393-17.641L206.901,176.982z"
   id="path24" />
						<path
   style="fill:#270603;"
   d="M216.536,196.719c8.869,16.883,28.595,27.383,47.577,25.366        c5.004-0.531,10.068-1.94,14.092-4.992c1.005-0.787,1.88-1.569,2.559-2.408l-0.21-18.408l-67.393-17.641        C211.885,184.59,213.649,191.197,216.536,196.719z"
   id="path25" />
					</g>
					<g
   id="g33">
						<path
   style="fill:#FF9583;"
   d="M323.874,109.404c0,0-0.002,0.065,0.021,0.183c3.474,62.712-76.701,90.185-114.801,48.232        c-3.398-3.705-6.456-7.985-9.108-12.84l-0.012-0.026c-0.174-0.304-0.36-0.634-0.534-0.937        c-0.299-0.502-0.585-0.978-0.805-1.517l-0.148-0.316c0,0,0,0-0.026,0.012c-4.2-8.237-6.722-17.482-7.136-27.295        c-0.799-17.779,5.904-35.631,18.22-48.47c0.014-0.039,0.04-0.051,0.105-0.049c6.544-7.001,14.71-12.451,23.656-15.956        c4.783-1.913,9.836-3.247,14.938-3.93C286.631,40.72,322.547,70.512,323.874,109.404z"
   id="path26" />
						<path
   style="fill:#FF9583;"
   d="M323.877,109.392c0,0,6.783,67.845-15.273,87.653c-22.056,19.808-88.924,14.118-97.852-9.381        c-8.928-23.5-14.705-67.02-14.705-67.02L323.877,109.392z"
   id="path27" />
						<g
   id="g31">
							<g
   id="g30">
								<g
   id="g29">
									<path
   style="fill:#270603;"
   d="M256.057,140.37c0.166,4.01-2.95,7.395-6.96,7.56c-4.01,0.166-7.394-2.951-7.56-6.96           c-0.166-4.01,2.95-7.394,6.96-7.56C252.506,133.245,255.891,136.361,256.057,140.37z"
   id="path28" />
									<path
   style="fill:#270603;"
   d="M313.675,136.497c0.166,4.01-2.951,7.394-6.96,7.56c-4.01,0.166-7.395-2.95-7.56-6.96           c-0.166-4.01,2.951-7.395,6.96-7.56C310.124,129.371,313.509,132.487,313.675,136.497z"
   id="path29" />
								</g>
							</g>
						</g>
						<g
   id="g32">
							<path
   style="fill:#FF9583;"
   d="M209.162,179.102c0.581-0.184,1.134-0.368,1.66-0.603l-1.796-21.449l-0.617-7.167         c0,0-1.666-1.509-4.277-3.219c-0.962-0.629-2.031-1.28-3.207-1.899c-0.3-0.148-0.602-0.323-0.902-0.471c0,0,0,0-0.027,0.001         c-0.437-0.223-0.901-0.444-1.39-0.638c-0.028-0.026-0.055-0.051-0.082-0.05c-6.694-2.825-15.083-3.307-19.549,8.321         C171.154,172.277,196.062,183.012,209.162,179.102z"
   id="path31" />
							<path
   style="fill:#270603;"
   d="M203.136,170.015c-0.03,0-0.06-0.002-0.09-0.006c-0.277-0.042-0.488-0.27-0.51-0.549         c-0.164-2.126-1.396-4.294-3.38-5.95c-2.058-1.717-4.624-2.602-6.859-2.372c-0.329,0.025-0.626-0.206-0.661-0.537         s0.206-0.626,0.537-0.661c2.553-0.266,5.453,0.725,7.754,2.645c1.543,1.288,2.684,2.867,3.303,4.529         c0.857-3.597,0.469-7.579-1.137-11.222c-0.617-1.4-1.315-2.542-2.133-3.491c-1.902-2.208-4.777-3.583-7.69-3.68         c-2.917-0.1-5.873,1.085-7.918,3.162c-0.233,0.237-0.615,0.238-0.851,0.006c-0.237-0.233-0.24-0.614-0.006-0.851         c2.277-2.312,5.574-3.623,8.815-3.521c3.243,0.108,6.444,1.64,8.562,4.097c0.897,1.041,1.657,2.281,2.323,3.792         c2.052,4.655,2.234,9.84,0.501,14.228C203.603,169.866,203.379,170.015,203.136,170.015z"
   id="path32" />
						</g>
					</g>
					<path
   style="fill:#FBEAD9;"
   d="M269.782,163.65c2.2,3.279,6.107,5.34,10.056,5.306c3.949-0.034,7.819-2.163,9.962-5.48       L269.782,163.65z"
   id="path33" />
				</g>
				<path
   style="fill:#270603;"
   d="M280.815,157.138c-0.291,0-0.546-0.211-0.593-0.507c-0.052-0.328,0.171-0.637,0.5-0.689      c2.99-0.477,4.818-3.825,4.65-6.653c-0.204-3.426-2.516-6.209-4.419-7.941c-0.246-0.224-0.264-0.604-0.041-0.85      c0.225-0.247,0.604-0.264,0.85-0.041c2.069,1.883,4.583,4.931,4.811,8.761c0.199,3.339-1.909,7.314-5.662,7.913      C280.879,157.135,280.847,157.138,280.815,157.138z"
   id="path34" />
				<path
   style="fill:#270603;"
   d="M238.313,122.591c0.563-4.819,6.718-7.368,10.854-5.247c1.381,0.658,2.575,1.727,3.158,3.115      c0.222,0.485-0.267,1.043-0.773,0.896c-3.24-0.855-6.1-0.994-9.15,0.254c-0.972,0.388-1.961,0.91-3.085,1.608      C238.875,123.511,238.246,123.113,238.313,122.591L238.313,122.591z"
   id="path35" />
				<path
   style="fill:#270603;"
   d="M300.125,120.623c1.307-5.436,10.031-6.345,12.43-1.295c0.222,0.46-0.183,1.018-0.686,0.957      c-1.161-0.117-2.129-0.202-3.024-0.221c-2.819-0.085-5.04,0.441-7.803,1.339C300.551,121.607,299.998,121.138,300.125,120.623      L300.125,120.623z"
   id="path36" />
				<path
   style="fill:#270603;"
   d="M198.366,143.743c3.699,1.278,6.823,4.135,8.426,7.704c11.037-3.483,20.398-13.674,21.547-25.19      c0.378-3.786,0.142-7.967,2.506-10.949c2.352-2.965,6.478-3.71,9.73-5.645c3.293-1.959,5.741-5.287,6.631-9.013      c1.006-4.213,0.075-8.691,0.965-12.93c0.71-3.38,2.602-6.498,5.273-8.688c3.524-2.89,8.127-4.059,12.084-6.319      c9.876-5.64,14.745-18.74,10.951-29.461c-21.282-0.797-42.766,2.058-63.194,8.081c-6.998,2.063-13.945,4.546-20.127,8.419      c-6.182,3.873-11.599,9.247-14.534,15.926c-2.823,6.424-3.21,13.632-3.166,20.649c0.104,16.637,2.404,33.26,6.821,49.3      C186.957,143.109,193.344,142.008,198.366,143.743z"
   id="path37" />
			</g>
			<g
   id="g38">
				<path
   style="fill:#FFC74B;"
   d="M241.147,66.941l-0.048,0.017l0.025,0.036c6.348,9.312-2.474,21.449-13.291,18.285l-0.052-0.015      l0,0c-0.329,11.271-14.61,15.912-21.502,6.988l-0.005-0.007l-0.006,0.008c-6.892,8.924-21.173,4.284-21.502-6.988v-0.001      l-0.052,0.015c-10.817,3.165-19.639-8.973-13.29-18.285l0.024-0.035l-0.048-0.017c-10.609-3.801-10.609-18.804,0-22.604      l0.048-0.017l-0.025-0.036c-6.348-9.312,2.475-21.449,13.291-18.285l0.052,0.015l0,0c0.329-11.271,14.609-15.912,21.502-6.988      l0.006,0.007l0.006-0.008c6.892-8.924,21.173-4.284,21.502,6.987v0.001l0.052-0.015c10.817-3.165,19.639,8.973,13.29,18.285      l-0.024,0.035l0.048,0.017C251.756,48.138,251.756,63.141,241.147,66.941z"
   id="path38" />
				
					<ellipse
   transform="matrix(0.2298 -0.9732 0.9732 0.2298 103.9129 244.8617)"
   style="fill:#FBEAD9;"
   cx="206.654"
   cy="56.781"
   rx="10.785"
   ry="10.785"
   id="ellipse38" />
			</g>
			<g
   id="g39">
				<path
   style="fill:#FF4E1B;"
   d="M211.684,110.494l-0.048,0.017l0.025,0.036c6.348,9.312-2.474,21.449-13.291,18.285l-0.052-0.015      l0,0c-0.329,11.271-14.61,15.912-21.502,6.988l-0.005-0.007l-0.006,0.008c-6.892,8.924-21.173,4.284-21.502-6.987v-0.001      l-0.052,0.015c-10.817,3.165-19.639-8.973-13.29-18.285l0.024-0.035l-0.048-0.017c-10.609-3.8-10.609-18.804,0-22.604      l0.048-0.017l-0.025-0.036c-6.348-9.312,2.474-21.449,13.291-18.285l0.052,0.015l0,0c0.329-11.271,14.609-15.912,21.502-6.988      l0.006,0.007l0.006-0.008c6.892-8.924,21.173-4.284,21.502,6.987v0.001l0.052-0.015c10.816-3.165,19.639,8.973,13.29,18.285      l-0.024,0.035l0.048,0.017C222.293,91.691,222.293,106.694,211.684,110.494z"
   id="path39" />
				
					<ellipse
   transform="matrix(0.2298 -0.9732 0.9732 0.2298 38.8311 249.7342)"
   style="fill:#FFC74B;"
   cx="177.192"
   cy="100.335"
   rx="10.785"
   ry="10.785"
   id="ellipse39" />
			</g>
			<path
   style="fill:#FF4E1B;"
   d="M412.572,491.17H110.864c21.724-30.304,44.327-49.62,54.236-57.371     c3.311-2.584,5.193-3.888,5.193-3.888l1.355,0.075l167.248,10.385l23.004,1.43h0.175l0.803,0.05     c0.151,0.1,0.326,0.201,0.477,0.301C388.615,457.856,403.742,476.444,412.572,491.17z"
   id="path40" />
			<path
   style="fill:#FF9583;"
   d="M173.278,327.058v0.176l-1.555,19.793v0.025l-0.176,2.132l-3.387,43.349     c-0.376,5.544-0.753,10.987-1.154,16.331c-0.627,8.579-1.254,16.908-1.906,24.935c-1.731,21.624-3.487,41.091-5.042,57.371     h-87.55l17.886-169.079l1.555-14.625v-0.125c0,0,0.226-0.025,0.677-0.075c0.025-0.025,0.05-0.025,0.075,0     c3.136-0.376,15.679-1.58,30.755-0.05c0.1,0,0.176,0,0.251,0.025c8.63,0.878,18.062,2.684,27.018,6.021     c0.025,0,0.05,0,0.075,0.025c7.952,2.985,15.503,7.2,21.774,13.095c0.025,0.025,0.075,0.075,0.1,0.125     C172.876,326.656,173.077,326.882,173.278,327.058z"
   id="path41" />
			<path
   style="fill:#270603;"
   d="M178.01,335.676c-0.241,0-0.47-0.14-0.574-0.374c-7.992-18.072-26.604-21.973-43.025-25.415     c-12.037-2.523-40.224-8.431-54.603,4.63c-0.256,0.232-0.653,0.214-0.886-0.042c-0.233-0.257-0.214-0.653,0.042-0.886     c13.089-11.888,35.504-9.163,55.703-4.929c15.889,3.33,35.663,7.475,43.916,26.135c0.14,0.316-0.003,0.687-0.32,0.827     C178.181,335.658,178.094,335.676,178.01,335.676z"
   id="path42" />
		</g>
		<path
   style="fill:#FFFFFF;"
   d="M388.51,495.489c-0.101-0.15-0.201-0.301-0.276-0.477h0.201L388.51,495.489z"
   id="path43" />
		
		
		<g
   id="g89">
			<path
   style="fill:#FFB2D6;"
   d="M369.158,125.243c0,0-13.847-34.856-5.73-36.049c8.117-1.194,8.117,19.576,8.117,19.576     s5.252-22.441,11.459-18.383C389.212,94.446,369.158,125.243,369.158,125.243z"
   id="path84" />
			<path
   style="fill:#FFB2D6;"
   d="M368.824,126.125c0,0,25.116-27.854,29.782-21.105c4.666,6.749-13.956,15.949-13.956,15.949     s22.446-5.232,21.557,2.131C405.319,130.463,368.824,126.125,368.824,126.125z"
   id="path85" />
			<path
   style="fill:#FFB2D6;"
   d="M368.756,126.588c0,0-36.344,9.26-36.487,1.057c-0.142-8.203,20.456-5.538,20.456-5.538     s-21.582-8.088-16.76-13.723C340.787,102.748,368.756,126.588,368.756,126.588z"
   id="path86" />
			<path
   style="fill:#FFB2D6;"
   d="M369.324,127.967c0,0,35.823,11.108,31.656,18.175c-4.168,7.067-20.333-5.974-20.333-5.974     s14.169,18.178,7.113,20.461C380.703,162.912,369.324,127.967,369.324,127.967z"
   id="path87" />
			<path
   style="fill:#FFB2D6;"
   d="M368.304,126.201c0,0,0.444,37.503-7.563,35.71c-8.006-1.793-0.567-21.185-0.567-21.185     s-12.942,19.071-17.283,13.059C338.55,147.772,368.304,126.201,368.304,126.201z"
   id="path88" />
			<path
   style="fill:#FFFFFF;"
   d="M374.649,126.795c0,3.098-2.512,5.61-5.611,5.61c-3.099,0-5.61-2.512-5.61-5.61     c0-3.099,2.512-5.61,5.61-5.61C372.138,121.184,374.649,123.696,374.649,126.795z"
   id="path89" />
		</g>
		<g
   id="g95">
			<path
   style="fill:#FFB2D6;"
   d="M91.185,424.993c0,0-13.847-34.856-5.73-36.049c8.117-1.194,8.117,19.577,8.117,19.577     s5.252-22.441,11.459-18.383C111.239,394.196,91.185,424.993,91.185,424.993z"
   id="path90" />
			<path
   style="fill:#FFB2D6;"
   d="M90.851,425.875c0,0,25.116-27.854,29.782-21.105c4.666,6.749-13.956,15.949-13.956,15.949     s22.446-5.232,21.557,2.131C127.345,430.213,90.851,425.875,90.851,425.875z"
   id="path91" />
			<path
   style="fill:#FFB2D6;"
   d="M90.783,426.338c0,0-36.344,9.26-36.487,1.057c-0.142-8.203,20.456-5.538,20.456-5.538     s-21.582-8.088-16.76-13.723C62.813,402.498,90.783,426.338,90.783,426.338z"
   id="path92" />
			<path
   style="fill:#FFB2D6;"
   d="M91.351,427.717c0,0,35.823,11.108,31.656,18.175c-4.168,7.067-20.333-5.974-20.333-5.974     s14.169,18.178,7.113,20.461C102.73,462.662,91.351,427.717,91.351,427.717z"
   id="path93" />
			<path
   style="fill:#FFB2D6;"
   d="M90.331,425.951c0,0,0.444,37.503-7.563,35.71c-8.006-1.793-0.567-21.185-0.567-21.185     s-12.942,19.071-17.283,13.059C60.577,447.522,90.331,425.951,90.331,425.951z"
   id="path94" />
			<path
   style="fill:#FFFFFF;"
   d="M96.676,426.545c0,3.098-2.512,5.61-5.611,5.61c-3.099,0-5.61-2.512-5.61-5.61     c0-3.099,2.512-5.61,5.61-5.61C94.164,420.934,96.676,423.446,96.676,426.545z"
   id="path95" />
		</g>
		<g
   id="g96">
			<path
   style="fill:#FFC74B;"
   d="M107.098,143.196c-3.455-10.728-8.964-18.301-18.063-22.624c-1.348-0.64-1.266-2.583,0.138-3.088     c4.914-1.768,9.32-4.989,12.753-8.958c3.16-3.653,5.544-7.906,7.317-12.411c0.605-1.537,2.798-1.382,3.197,0.221     c1.017,4.075,2.486,7.877,4.762,11.724c2.702,4.566,6.498,8.587,11.101,11.164c1.207,0.676,1.146,2.427-0.116,2.993     c-8.661,3.887-14.002,12.73-17.967,21.195C109.569,144.799,107.569,144.657,107.098,143.196z"
   id="path96" />
		</g>
		<g
   id="g97">
			<path
   style="fill:#FFC74B;"
   d="M408.129,439.103c-3.455-10.728-8.964-18.301-18.063-22.624c-1.348-0.64-1.266-2.583,0.138-3.088     c4.914-1.768,9.32-4.989,12.753-8.958c3.16-3.653,5.544-7.906,7.317-12.411c0.605-1.537,2.797-1.382,3.197,0.22     c1.017,4.076,2.486,7.878,4.762,11.724c2.702,4.566,6.497,8.587,11.101,11.164c1.207,0.676,1.146,2.427-0.116,2.993     c-8.661,3.887-14.002,12.73-17.967,21.195C410.6,440.706,408.6,440.564,408.129,439.103z"
   id="path97" />
		</g>
	</g>
</g>















</svg>
