<?xml version="1.0" encoding="UTF-8" standalone="no"?>
<!-- Generator: Adobe Illustrator 25.4.1, SVG Export Plug-In . SVG Version: 6.00 Build 0)  -->

<svg
   version="1.1"
   id="Capa_1"
   x="0px"
   y="0px"
   viewBox="0 0 512 512"
   style="enable-background:new 0 0 512 512;"
   xml:space="preserve"
   width="512"
   height="512"
   sodipodi:docname="spain.svg"
   inkscape:version="1.4 (1:1.4+202410161351+e7c3feb100)"
   xmlns:inkscape="http://www.inkscape.org/namespaces/inkscape"
   xmlns:sodipodi="http://sodipodi.sourceforge.net/DTD/sodipodi-0.dtd"
   xmlns="http://www.w3.org/2000/svg"
   xmlns:svg="http://www.w3.org/2000/svg"><defs
   id="defs65" /><sodipodi:namedview
   id="namedview65"
   pagecolor="#505050"
   bordercolor="#ffffff"
   borderopacity="1"
   inkscape:showpageshadow="0"
   inkscape:pageopacity="0"
   inkscape:pagecheckerboard="1"
   inkscape:deskcolor="#505050"
   inkscape:zoom="1.5683594"
   inkscape:cx="255.6812"
   inkscape:cy="256"
   inkscape:window-width="1920"
   inkscape:window-height="1011"
   inkscape:window-x="0"
   inkscape:window-y="32"
   inkscape:window-maximized="1"
   inkscape:current-layer="g64" />
<g
   id="g65">
	
	<g
   id="g64">
		
		<g
   id="g44">
			<g
   id="g4">
				<path
   style="fill:#FF9F8B;"
   d="M274.988,232.776c0,0,1.537-31.149-0.686-50.107c-2.223-18.958-8.457-40.045-8.457-40.045      s-79.384-25.204-96.151-34.139l7.82-29.258c0,0,113.948,20.174,124.675,35.514s21.238,113.857,21.238,113.857L274.988,232.776z"
   id="path3" />
				<path
   style="fill:#FF9F8B;"
   d="M163.302,69.401c-0.353-0.463-0.64-0.949-0.905-1.457c-3.201-6.225-8.631-33.839-11.633-34.589      c-2.958-0.751-4.658,5.739-4.658,5.739l-12.692,1.104c0,0,10.309-23.663,7.593-25.495c-2.715-1.876-14.635,17.703-14.635,17.703      s-2.936-19.359-5.783-19.16c-2.847,0.199-3.686,32.338-3.686,32.338S98.582,28.454,96.882,31.346      c-1.678,2.936,22.096,32.448,22.096,32.448s0.441,2.274,0.64,5.298c0.177,2.803,8.874,12.14,17.372,18.851      c0.574,0.441,1.126,0.883,1.7,1.302c8.984,6.777,30.992,19.226,30.992,19.226l7.836-29.247      C176.678,78.65,167.275,74.853,163.302,69.401z M135.423,59.711c0,0,0.794-9.757,3.068-9.977c2.274-0.243,8.3-0.419,8.3-0.419      l1.92,17.593L135.423,59.711z"
   id="path4" />
			</g>
			<g
   id="g43">
				<path
   style="fill:#561216;"
   d="M116.852,180.547c6.855-13.89,17.971-25.852,31.902-32.624      c13.931-6.772,30.681-8.055,45.088-2.364c6.373,2.517,12.439,6.561,15.761,12.554c3.255,5.871,4.191,13.806,10.136,16.926      c5.54,2.908,12.196-0.136,18.449-0.365c5.331-0.195,10.709,1.832,14.585,5.498c3.876,3.666,6.199,8.924,6.3,14.258      c0.087,4.609,2.036,8.962,6.136,11.069c4.1,2.107,9.012,2.023,13.511,1.019c4.499-1.004,8.759-2.859,13.174-4.185      c11.73-3.523,25.053-3.05,35.52,3.31c8.877,5.393,15.063,14.667,17.701,24.714c2.638,10.046,1.911,20.792-0.983,30.767      c-17.588,13.693-36.854,24.948-56.693,35.108c-24.48,12.536-48.959,25.071-73.439,37.607      c-9.538,4.884-19.619,10.28-24.802,19.659c-5.053,9.145-4.593,20.701-10.283,29.464c-5.613,8.644-17.165,12.923-27.054,10.021      c-9.89-2.902-17.298-12.744-17.35-23.051c-0.021-4.066,0.678-8.924-2.491-11.471c-2.171-1.745-5.245-1.54-8-1.953      c-9.015-1.349-15.255-9.749-18.866-18.118c-4.324-10.019-6.329-21.654-2.352-31.815c2.876-7.348,8.564-13.212,12.432-20.09      c3.868-6.878,5.608-16.14,0.612-22.248c-2.542-3.107-6.366-4.816-9.582-7.219c-10.642-7.955-13.385-24.655-5.847-35.596      c3.064-4.447,7.524-7.97,9.682-12.92C113.883,199.818,112.659,189.042,116.852,180.547z"
   id="path5" />
				<path
   style="fill:#CF121F;"
   d="M368.653,421.211l10.176,77.545H175.221c3.819-13.531,9.536-29.755,19.535-44.898      c15.407-23.288,18.034-43.949,18.034-43.949s-14.922-12.493-30.108-27.393c-0.751-0.751-1.523-1.501-2.274-2.23      c-6.666-6.666-13.288-13.708-18.542-20.242c-6.203-7.682-10.573-14.701-11.059-19.646c-0.751-7.615,5.872-18.763,14.127-29.402      c10.882-14.061,24.634-27.283,27.945-30.396c0.486-0.463,0.751-0.706,0.751-0.706l6.556-4.9l9.845-7.351l0.353-0.265l4.15-3.113      l15.871-11.854l0.419-0.309c0,0,19.911-3.002,23.663-11.655c2.009-4.569,6.953-20.352,12.295-34.258      c2.693-7.063,5.496-13.641,8.035-18.056c1.942-3.311,3.73-5.386,5.232-5.541c7.505-0.751,9.381,15.032,10.507,19.535      c0.993,3.863,13.068-24.766,25.274-31.19c1.987-1.037,3.973-1.501,5.916-1.126c11.677,2.207,5.849,25.628,4.348,35.075      c-0.265,1.788-0.397,3.09-0.221,3.62c0.331,0.993,1.81,0.199,4.017-1.214c5.276-3.355,14.723-10.242,22.67-4.415      c7.792,5.695,8.035,10.684,4.746,17.681c-0.177,0.353-0.353,0.728-0.552,1.104c-1.435,2.87-3.421,6.07-5.695,9.779      c-1.258,2.053-2.781,4.68-4.481,7.682c-0.287,0.486-0.574,0.993-0.839,1.501c-0.066,0.11-0.132,0.199-0.177,0.309      c-5.496,9.713-12.339,22.471-17.151,31.521c-3.488,6.6-5.916,11.214-5.916,11.214l0.066,0.375l0.022,0.243l13.068,86.551      L368.653,421.211z"
   id="path6" />
				<path
   style="fill:#CF121F;"
   d="M151.083,287.517c-3.769-4.024-7.911-7.894-12.991-10.037c-5.08-2.143-11.299-2.285-15.824,0.865      c-6.428,4.476-7.341,13.585-6.631,21.386c0.427,4.689,1.036,10-2.045,13.561c-1.48,1.709-3.591,2.706-5.501,3.915      c-5.738,3.631-9.955,9.589-11.473,16.207c-1.518,6.618-0.319,13.818,3.263,19.587c1.55,2.496,3.625,4.799,6.351,5.895      c3.571,1.435,7.718,0.61,11.339,1.912c4.636,1.667,7.406,6.424,8.98,11.092c1.574,4.668,2.388,9.672,4.953,13.877      c3.313,5.431,9.297,8.899,15.546,10.089c6.249,1.189,12.744,0.291,18.837-1.54c5.546-1.666,11.053-4.245,14.724-8.723      c2.543-3.102,4.05-6.937,5.006-10.833c2.386-9.732,1.466-20.245-2.577-29.414c-3.085-6.999-7.865-13.111-11.416-19.886      c-5.715-10.906-8.953-24.354-19.54-30.64L151.083,287.517z"
   id="path7" />
				<g
   id="g17">
					<g
   id="g8">
						<path
   style="fill:#FF9F8B;"
   d="M207.156,226.927c0,0,19.162,22.543,26.676,28.555c7.514,6.012,40.578,42.832,23.295,58.613        c-17.283,15.78-34.942,3.006-46.589-10.52c-11.647-13.526-31.936-43.208-31.936-43.208L207.156,226.927z"
   id="path8" />
						<polygon
   style="fill:#120318;"
   points="197.387,270.886 217.864,253.603 207.72,286.103       "
   id="polygon8" />
					</g>
					<g
   id="g16">
						<g
   id="g13">
							<path
   style="fill:#FF9F8B;"
   d="M204.457,219.543c2.67-5.759,4.202-12.152,4.202-18.917c0-24.901-20.186-45.087-45.087-45.087         c-24.9,0-45.087,20.186-45.087,45.087c0,11.639,2.716,22.81,9.957,30.809c5.824,8.078,7.946,9.57,10.821,14.142         c-3.148,5.984-8.683,17.097-7.251,18.733c1.356,1.55,10.434-2.892,15.977-5.821c6.849,9.078,18.026,25.734,23.755,25.828         c7.841,0.128,38.887-32.406,40.296-38.887C212.713,242.339,208.767,230.784,204.457,219.543z"
   id="path9" />
							<g
   id="g12">
								<path
   style="fill:#120318;"
   d="M153.742,233.981c1.289,1.992,1.09,4.413-0.445,5.406c-1.535,0.993-3.825,0.184-5.114-1.809          c-1.29-1.993-1.09-4.413,0.445-5.407C150.163,231.178,152.453,231.988,153.742,233.981z"
   id="path10" />
								<path
   style="fill:#120318;"
   d="M150.918,263.525c-0.23,0-0.445-0.145-0.523-0.373c-0.098-0.288,0.056-0.604,0.344-0.702          c4.291-1.462,6.936-6.811,7.014-11.137c0.007-0.302,0.253-0.543,0.552-0.543c0.002,0,0.007,0,0.009,0          c0.306,0.007,0.548,0.257,0.543,0.561c-0.085,4.644-2.833,10.484-7.761,12.166          C151.037,263.516,150.976,263.525,150.918,263.525z"
   id="path11" />
								<path
   style="fill:#561216;"
   d="M140.747,228.367c-0.566-2.199,0.675-4.484,2.546-5.735c1.887-1.226,4.476-1.467,6.274-0.08          c0.278,0.214,0.329,0.613,0.115,0.89c-0.056,0.073-0.125,0.13-0.201,0.171l-0.061,0.032l-2.225,1.186          c-0.629,0.375-1.214,0.691-1.744,1.073c-0.559,0.337-1.081,0.749-1.673,1.18l-1.967,1.577l-0.051,0.041          c-0.274,0.219-0.673,0.176-0.892-0.098C140.809,228.534,140.769,228.45,140.747,228.367z"
   id="path12" />
							</g>
						</g>
						<path
   style="fill:#561216;"
   d="M114.682,187.945c0,0,3.992-11.366,10.943-7.608c6.951,3.757,4.321,28.555,18.035,31.936        c13.714,3.382,21.04-1.503,25.361-5.072c4.321-3.569,9.957-7.139,14.841-3.194c4.884,3.945,9.581,15.968,2.818,23.67        c0,0,9.017-4.884,9.205-12.023c0.188-7.139-1.503-18.223,5.636-18.223c7.139,0,9.205,1.691,9.205,1.691        s5.448-28.367-10.145-39.826c-15.592-11.46-37.196-15.592-49.595-10.145C138.587,154.6,119.472,163.007,114.682,187.945z"
   id="path13" />
						<g
   id="g15">
							<path
   style="fill:#FF9F8B;"
   d="M194.002,215.49c-1.32-4.467-2.066-9.812-0.398-14.224c1.905-5.039,7.422-7.398,12.208-5.109         c4.398,2.104,7.157,7.55,7.942,12.39c0.941,5.802-0.805,12.306-4.863,16.313c-2.009,1.984-4.856,3.122-7.518,2.296         c-1.969-0.61-3.631-2.216-4.845-4.084C195.314,221.204,194.646,217.667,194.002,215.49z"
   id="path14" />
							<path
   style="fill:#120318;"
   d="M201.511,222.94c-0.188,0-0.373-0.098-0.476-0.273c-2.035-3.47-3.533-7.222-4.452-11.151         c-0.816-3.493-0.941-6.296-0.389-8.828c0.702-3.226,2.641-5.91,5.185-7.175c0.273-0.139,0.606-0.025,0.74,0.248         c0.136,0.273,0.025,0.604-0.248,0.74c-2.247,1.118-3.967,3.519-4.599,6.424c-0.514,2.361-0.391,5.013,0.385,8.34         c0.894,3.819,2.352,7.468,4.331,10.842c0.154,0.264,0.065,0.601-0.197,0.756C201.703,222.915,201.607,222.94,201.511,222.94z         "
   id="path15" />
						</g>
					</g>
				</g>
				<g
   id="g29">
					<g
   id="g22">
						<g
   id="g19">
							<g
   id="g18">
								<path
   style="fill:#FFEFD1;"
   d="M213.651,188.972l-0.656,1.774l1.24,1.424c2.122,2.438,1.618,6.185-1.072,7.975l-1.574,1.048          l0.167,1.874c0.287,3.222-2.325,5.961-5.557,5.828l-1.882-0.078l-0.968,1.617c-1.661,2.775-5.385,3.456-7.921,1.448          l-1.476-1.168l-1.739,0.741c-2.974,1.266-6.382-0.369-7.256-3.48l-0.51-1.818l-1.843-0.424          c-3.148-0.725-4.943-4.05-3.822-7.079l0.657-1.774l-1.24-1.425c-2.122-2.438-1.618-6.185,1.072-7.976l1.574-1.048          l-0.167-1.874c-0.287-3.222,2.325-5.961,5.557-5.828l1.883,0.078l0.968-1.617c1.661-2.775,5.385-3.456,7.921-1.448          l1.475,1.168l1.74-0.741c2.973-1.266,6.382,0.369,7.256,3.48l0.511,1.818l1.843,0.424          C212.977,182.617,214.772,185.942,213.651,188.972z"
   id="path17" />
							</g>
						</g>
						<g
   id="g21">
							<g
   id="g20">
								<path
   style="fill:#120318;"
   d="M186.179,187.733c-1.089,0-2.206-0.381-3.098-0.793c-0.127-0.059-0.182-0.209-0.123-0.335          c0.059-0.128,0.21-0.184,0.336-0.124c1.34,0.62,3.226,1.174,4.581,0.278c0.847-0.558,1.22-1.612,1.581-2.631          c0.064-0.183,0.128-0.363,0.194-0.54c0.621-1.665,1.682-2.655,2.84-2.655c0.008,0,0.016,0,0.023,0          c0.855,0.01,1.536,0.522,2.195,1.019c0.175,0.131,0.348,0.261,0.523,0.381c0.953,0.652,2.115,1.02,3.272,1.038          c0.63,0.01,1.078-0.092,1.429-0.308c0.324-0.198,0.58-0.514,0.789-0.799c1.339-1.831,1.976-4.178,1.747-6.435          c-0.015-0.14,0.087-0.264,0.226-0.278c0.129-0.025,0.262,0.088,0.277,0.225c0.242,2.381-0.43,4.855-1.842,6.787          c-0.237,0.323-0.534,0.687-0.933,0.931c-0.436,0.265-0.989,0.386-1.7,0.382c-1.256-0.018-2.516-0.418-3.551-1.126          c-0.181-0.124-0.361-0.258-0.541-0.395c-0.621-0.468-1.207-0.909-1.896-0.917c-0.006,0-0.013,0-0.019,0          c-1.388,0-2.16,1.777-2.364,2.324c-0.065,0.175-0.128,0.353-0.192,0.532c-0.388,1.099-0.79,2.234-1.779,2.887          C187.551,187.579,186.871,187.733,186.179,187.733z"
   id="path19" />
							</g>
						</g>
						<path
   style="fill:#120318;"
   d="M213.994,187.318c-0.935-1.235-2.691-1.235-3.913-0.859c-1.567,0.481-2.907,1.549-3.677,2.931        c-0.14,0.252-0.253,0.517-0.353,0.785c-0.385,0.053-1.037-0.177-1.278-0.473c-0.301-0.37-0.416-0.865-0.483-1.255        l-0.033-0.203c-0.079-0.491-0.167-1.048-0.532-1.464c-0.696-0.789-1.944-0.604-2.798-0.202        c-0.199,0.094-0.395,0.197-0.592,0.301c-0.598,0.315-1.163,0.613-1.774,0.613c-0.006,0-0.011,0-0.017,0        c-0.822-0.008-1.648-0.638-2.01-1.53c-0.306-0.757-0.329-1.689-0.068-2.771c0.033-0.136-0.051-0.272-0.187-0.305        c-0.141-0.04-0.273,0.049-0.305,0.187c-0.286,1.185-0.255,2.222,0.092,3.079c0.035,0.088,0.08,0.169,0.122,0.252        c-0.006,0.025-0.025,0.044-0.023,0.071c0.052,0.606-0.011,1.648-0.203,2.274c-0.15,0.488-0.525,1.068-1.127,1.234        c-0.368,0.103-0.804,0.045-1.226-0.007c-0.671-0.081-1.36-0.17-1.895,0.315c-0.502,0.456-0.522,1.116-0.542,1.754        c-0.007,0.227-0.013,0.453-0.044,0.668c-0.134,0.931-0.86,1.757-1.806,2.054c-0.901,0.286-1.964,0.088-2.773-0.517        c-0.033-0.024-0.073-0.021-0.112-0.028l0.021-0.135c0.358-2.315,0.109-4.209-0.738-5.626c-0.965-1.615-3.19-2.822-5.107-1.959        c-0.127,0.058-0.184,0.207-0.127,0.335c0.058,0.128,0.208,0.183,0.335,0.126c1.66-0.749,3.611,0.329,4.464,1.756        c0.786,1.315,1.012,3.096,0.672,5.291l-0.032,0.203c-0.086,0.539-0.175,1.094-0.083,1.656        c0.126,0.766,0.607,1.371,1.227,1.541c0.566,0.151,1.122-0.063,1.613-0.253l0.188-0.073c2.381-0.891,5.235-0.44,7.451,1.181        c2.021,1.478,3.478,3.891,3.997,6.622c0.46,2.421,0.216,5.139-0.706,7.862c-0.045,0.132,0.026,0.276,0.159,0.32        c0.027,0.01,0.054,0.014,0.081,0.014c0.106,0,0.204-0.066,0.24-0.172c0.949-2.806,1.199-5.613,0.724-8.117        c-0.299-1.573-0.906-3.04-1.739-4.307c0.026-0.044,0.05-0.092,0.045-0.147c-0.076-0.766,0.225-1.562,0.825-2.182        c0.599-0.621,1.385-0.968,2.153-0.899c0.455,0.029,0.893,0.165,1.358,0.311c0.322,0.099,0.654,0.204,0.996,0.27        c0.819,0.16,1.958,0.041,2.466-0.814c0.491-0.829,0.104-1.773-0.237-2.608c-0.073-0.177-0.145-0.353-0.208-0.525        c-0.495-1.357-0.357-2.949,0.372-4.256c0.706-1.269,1.939-2.252,3.382-2.694c1.147-0.35,2.634-0.28,3.36,0.68        c0.084,0.112,0.244,0.132,0.355,0.05C214.056,187.587,214.077,187.429,213.994,187.318z M202.132,196.754        c-0.919-0.059-1.845,0.324-2.549,1.053c-0.565,0.583-0.89,1.305-0.955,2.04c-0.585-0.765-1.257-1.441-2.008-1.991        c-2.352-1.72-5.39-2.195-7.927-1.244l-0.194,0.073c-0.439,0.171-0.894,0.344-1.297,0.237c-0.487-0.134-0.783-0.666-0.86-1.134        c-0.057-0.345-0.031-0.696,0.018-1.06c0.629,0.434,1.377,0.672,2.113,0.672c0.341,0,0.679-0.049,1-0.15        c0.8-0.253,1.463-0.828,1.841-1.539c0.083-0.01,0.161-0.044,0.201-0.124c0.584-1.195,2.095-1.593,3.247-1.46        c1.253,0.146,2.365,1.145,2.645,2.377c0.069,0.312,0.215,0.959,0.77,0.984c0.443,0.024,0.681-0.411,0.834-0.696l0.03-0.057        c0.252-0.462,0.71-0.803,1.289-0.961c0.707-0.191,1.49-0.091,2.094,0.275c0.981,0.591,1.65,1.784,1.82,3.211        c-0.21-0.054-0.419-0.105-0.636-0.173C203.136,196.939,202.648,196.786,202.132,196.754z M206.214,194.609        c0.311,0.76,0.633,1.547,0.27,2.158c-0.314,0.531-1.052,0.673-1.715,0.595c-0.154-1.654-0.929-3.052-2.083-3.749        c-0.718-0.433-1.648-0.555-2.488-0.328c-0.713,0.194-1.282,0.623-1.601,1.207l-0.032,0.06        c-0.103,0.191-0.23,0.429-0.361,0.429c-0.001,0-0.003,0-0.005,0c-0.168-0.007-0.262-0.43-0.298-0.59        c-0.325-1.434-1.62-2.598-3.079-2.768c-1.043-0.117-2.335,0.159-3.18,0.966c0.016-0.175,0.03-0.35,0.036-0.531        c0.017-0.557,0.034-1.083,0.377-1.395c0.362-0.327,0.885-0.26,1.491-0.185c0.472,0.058,0.96,0.121,1.424-0.007        c0.669-0.185,1.234-0.789,1.476-1.575c0.15-0.489,0.225-1.179,0.238-1.78c0.502,0.541,1.167,0.875,1.856,0.881        c0.007,0,0.014,0,0.022,0c0.737,0,1.384-0.341,2.01-0.672c0.19-0.099,0.379-0.199,0.57-0.289        c0.697-0.327,1.693-0.501,2.203,0.078c0.269,0.305,0.339,0.744,0.412,1.208l0.034,0.209c0.077,0.451,0.215,1.028,0.589,1.489        c0.311,0.381,0.966,0.654,1.504,0.672c-0.301,1.117-0.273,2.31,0.116,3.373C206.064,194.245,206.139,194.426,206.214,194.609z        "
   id="path21" />
					</g>
					<g
   id="g25">
						<g
   id="g24">
							<g
   id="g23">
								<path
   style="fill:#CF121F;"
   d="M220.723,156.034l-0.957,2.586l1.808,2.077c3.093,3.554,2.359,9.016-1.563,11.627          l-2.294,1.528l0.243,2.732c0.419,4.697-3.39,8.691-8.102,8.496l-2.744-0.114l-1.412,2.357          c-2.422,4.046-7.85,5.039-11.547,2.111l-2.151-1.703l-2.536,1.08c-4.335,1.846-9.305-0.538-10.578-5.074l-0.744-2.65          l-2.687-0.619c-4.589-1.056-7.206-5.904-5.572-10.32l0.957-2.587l-1.808-2.077c-3.093-3.554-2.359-9.016,1.563-11.627          l2.294-1.528l-0.243-2.732c-0.419-4.697,3.39-8.691,8.102-8.496l2.744,0.114l1.411-2.357          c2.422-4.046,7.85-5.039,11.548-2.112l2.151,1.703l2.536-1.08c4.334-1.846,9.304,0.538,10.578,5.074l0.744,2.65l2.687,0.618          C219.741,146.77,222.358,151.618,220.723,156.034z"
   id="path22" />
							</g>
						</g>
						<path
   style="fill:#120318;"
   d="M221.222,153.623c-1.363-1.8-3.923-1.8-5.704-1.252c-2.285,0.701-4.239,2.259-5.36,4.272        c-0.207,0.372-0.373,0.761-0.52,1.157c-0.563,0.07-1.511-0.274-1.859-0.702c-0.439-0.539-0.607-1.26-0.705-1.83l-0.048-0.296        c-0.114-0.716-0.244-1.527-0.775-2.135c-1.015-1.15-2.834-0.88-4.079-0.294c-0.29,0.136-0.576,0.286-0.863,0.439        c-0.872,0.459-1.695,0.894-2.586,0.894c-0.009,0-0.017,0-0.025,0c-1.198-0.012-2.403-0.93-2.93-2.23        c-0.404-1.001-0.452-2.222-0.177-3.615c0.977,0.35,2.006,0.56,3.039,0.575c1.036,0.006,1.842-0.17,2.478-0.557        c0.581-0.354,1.014-0.886,1.36-1.357c2.059-2.816,3.038-6.423,2.685-9.894c-0.021-0.2-0.216-0.365-0.404-0.329        c-0.204,0.02-0.351,0.2-0.33,0.405c0.334,3.29-0.595,6.711-2.547,9.381c-0.303,0.415-0.677,0.876-1.149,1.164        c-0.512,0.315-1.165,0.463-2.083,0.449c-1.686-0.026-3.38-0.563-4.77-1.513c-0.255-0.174-0.508-0.365-0.763-0.555        c-0.959-0.724-1.953-1.471-3.199-1.485c-0.011,0-0.023,0-0.034,0c-1.688,0-3.234,1.443-4.14,3.87        c-0.096,0.259-0.19,0.521-0.283,0.788c-0.526,1.485-1.069,3.022-2.305,3.836c-1.694,1.12-3.954,0.684-5.796-0.032        c-1.461-0.795-3.199-1.059-4.792-0.342c-0.185,0.084-0.268,0.302-0.184,0.489c0.085,0.187,0.303,0.266,0.489,0.185        c1.045-0.472,2.168-0.445,3.208-0.097c0.026,0.023,0.052,0.047,0.085,0.063c0.29,0.134,0.601,0.264,0.919,0.387        c0.949,0.535,1.767,1.323,2.295,2.206c1.145,1.918,1.475,4.513,0.98,7.713l-0.047,0.297c-0.125,0.786-0.256,1.595-0.121,2.415        c0.183,1.116,0.885,1.998,1.789,2.247c0.824,0.22,1.635-0.093,2.351-0.369l0.274-0.106c3.471-1.298,7.631-0.641,10.863,1.722        c2.947,2.154,5.071,5.673,5.827,9.653c0.67,3.529,0.315,7.491-1.029,11.461c-0.065,0.193,0.038,0.403,0.232,0.467        c0.039,0.014,0.079,0.02,0.118,0.02c0.154,0,0.298-0.096,0.35-0.25c1.384-4.09,1.748-8.182,1.055-11.834        c-0.435-2.289-1.318-4.423-2.528-6.267c0.041-0.066,0.066-0.142,0.058-0.225c-0.11-1.116,0.328-2.277,1.204-3.181        c0.874-0.906,2.019-1.411,3.138-1.311c0.664,0.042,1.302,0.241,1.979,0.453c0.469,0.144,0.954,0.297,1.452,0.393        c1.194,0.233,2.854,0.06,3.595-1.186c0.716-1.208,0.152-2.585-0.346-3.802c-0.106-0.259-0.211-0.515-0.303-0.766        c-0.722-1.978-0.52-4.298,0.542-6.204c1.029-1.85,2.827-3.283,4.931-3.928c1.672-0.511,3.84-0.409,4.899,0.992        c0.122,0.162,0.356,0.192,0.517,0.072C221.314,154.015,221.344,153.785,221.222,153.623z M180.005,155.288        c-0.266-0.446-0.599-0.87-0.981-1.256c0.546,0.113,1.098,0.196,1.65,0.196c1.009,0,2.001-0.225,2.88-0.804        c1.442-0.952,2.027-2.607,2.593-4.208c0.093-0.261,0.184-0.521,0.279-0.776c0.298-0.798,1.424-3.389,3.447-3.389        c0.009,0,0.019,0,0.028,0c1.004,0.012,1.859,0.655,2.763,1.337c0.264,0.199,0.525,0.395,0.79,0.575        c0.451,0.309,0.938,0.563,1.439,0.789c-0.335,1.591-0.282,2.999,0.192,4.169c0.047,0.116,0.106,0.222,0.161,0.332        c-0.013,0.044-0.02,0.09-0.016,0.139c0.075,0.884-0.017,2.403-0.297,3.315c-0.218,0.711-0.764,1.557-1.642,1.799        c-0.536,0.151-1.172,0.066-1.787-0.01c-0.978-0.118-1.983-0.248-2.762,0.459c-0.732,0.665-0.761,1.627-0.79,2.557        c-0.01,0.331-0.019,0.661-0.065,0.974c-0.196,1.357-1.254,2.561-2.633,2.994c-1.314,0.417-2.864,0.128-4.042-0.754        c-0.048-0.035-0.107-0.031-0.163-0.04l0.031-0.196C181.603,160.116,181.24,157.354,180.005,155.288z M206.082,167.863        c-0.688-0.214-1.4-0.437-2.151-0.485c-1.34-0.086-2.69,0.473-3.717,1.535c-0.82,0.847-1.305,1.894-1.403,2.961        c-0.85-1.109-1.826-2.09-2.916-2.888c-3.429-2.507-7.858-3.201-11.556-1.814l-0.283,0.106        c-0.64,0.249-1.303,0.501-1.891,0.345c-0.71-0.194-1.142-0.97-1.253-1.654c-0.083-0.504-0.045-1.015,0.027-1.545        c0.917,0.633,2.008,0.98,3.08,0.98c0.497,0,0.99-0.072,1.458-0.218c1.16-0.366,2.121-1.198,2.675-2.226        c0.125-0.011,0.243-0.079,0.302-0.199c0.852-1.742,3.053-2.323,4.734-2.128c1.828,0.212,3.449,1.669,3.856,3.465        c0.101,0.455,0.314,1.399,1.122,1.435c0.646,0.034,0.993-0.599,1.216-1.014l0.044-0.084c0.368-0.673,1.035-1.17,1.879-1.401        c1.03-0.279,2.172-0.132,3.053,0.401c1.434,0.863,2.41,2.609,2.655,4.695C206.706,168.051,206.399,167.962,206.082,167.863z         M209.881,164.252c0.454,1.108,0.923,2.255,0.394,3.146c-0.457,0.773-1.533,0.995-2.498,0.885        c-0.221-2.418-1.352-4.464-3.039-5.482c-1.047-0.631-2.403-0.81-3.627-0.479c-1.04,0.283-1.869,0.908-2.333,1.76l-0.046,0.088        c-0.15,0.279-0.336,0.625-0.526,0.625c-0.002,0-0.004,0-0.007,0c-0.245-0.01-0.383-0.627-0.435-0.86        c-0.473-2.09-2.361-3.787-4.489-4.036c-1.516-0.17-3.395,0.229-4.626,1.4c0.022-0.251,0.035-0.506,0.043-0.764        c0.025-0.811,0.049-1.579,0.549-2.034c0.527-0.477,1.29-0.379,2.173-0.271c0.688,0.084,1.4,0.176,2.075-0.01        c0.975-0.271,1.8-1.15,2.151-2.297c0.218-0.711,0.33-1.717,0.35-2.591c0.731,0.786,1.7,1.272,2.702,1.281        c0.01,0,0.021,0,0.032,0c1.074,0,2.018-0.497,2.931-0.98c0.277-0.144,0.552-0.291,0.831-0.421        c1.017-0.477,2.469-0.731,3.211,0.115c0.392,0.445,0.494,1.084,0.601,1.762l0.05,0.305c0.112,0.657,0.313,1.499,0.859,2.17        c0.453,0.556,1.408,0.953,2.193,0.98c-0.439,1.629-0.397,3.367,0.169,4.918C209.662,163.721,209.771,163.985,209.881,164.252z        "
   id="path24" />
					</g>
					<g
   id="g28">
						<g
   id="g27">
							<g
   id="g26">
								<path
   style="fill:#FFEFD1;"
   d="M245.506,168.867l-0.604,1.631l1.14,1.309c1.95,2.241,1.487,5.685-0.985,7.331l-1.447,0.963          l0.153,1.723c0.264,2.962-2.137,5.479-5.108,5.357l-1.73-0.072l-0.89,1.486c-1.527,2.551-4.95,3.177-7.281,1.331          l-1.356-1.074l-1.599,0.681c-2.733,1.164-5.867-0.339-6.67-3.199l-0.469-1.671l-1.694-0.39          c-2.893-0.666-4.544-3.723-3.513-6.507l0.604-1.631l-1.14-1.309c-1.95-2.241-1.487-5.685,0.986-7.331l1.447-0.963          l-0.153-1.723c-0.264-2.962,2.137-5.48,5.108-5.357l1.73,0.072l0.89-1.486c1.527-2.551,4.95-3.177,7.281-1.331l1.356,1.074          l1.599-0.681c2.733-1.164,5.866,0.339,6.67,3.199l0.469,1.671l1.694,0.39C244.887,163.026,246.537,166.082,245.506,168.867z          "
   id="path25" />
							</g>
						</g>
						<path
   style="fill:#120318;"
   d="M245.821,167.346c-0.859-1.135-2.473-1.135-3.597-0.79c-1.44,0.442-2.673,1.424-3.38,2.694        c-0.129,0.232-0.233,0.475-0.325,0.722c-0.354,0.049-0.953-0.163-1.175-0.435c-0.277-0.34-0.383-0.795-0.444-1.154        l-0.03-0.187c-0.072-0.451-0.154-0.963-0.489-1.346c-0.64-0.725-1.787-0.555-2.572-0.186        c-0.183,0.086-0.363,0.181-0.544,0.277c-0.55,0.289-1.069,0.563-1.631,0.563c-0.006,0-0.01,0-0.016,0        c-0.756-0.008-1.515-0.586-1.847-1.406c-0.255-0.631-0.285-1.401-0.112-2.279c0.616,0.221,1.265,0.353,1.916,0.362        c0.653,0.004,1.162-0.107,1.562-0.351c0.366-0.224,0.639-0.558,0.857-0.855c1.298-1.775,1.916-4.05,1.693-6.238        c-0.013-0.126-0.136-0.23-0.255-0.207c-0.128,0.013-0.221,0.126-0.208,0.255c0.21,2.075-0.375,4.232-1.606,5.915        c-0.191,0.262-0.427,0.552-0.725,0.734c-0.323,0.199-0.734,0.292-1.314,0.283c-1.063-0.017-2.131-0.355-3.007-0.954        c-0.161-0.11-0.32-0.23-0.481-0.35c-0.605-0.456-1.231-0.927-2.017-0.936c-0.007,0-0.014,0-0.021,0        c-1.065,0-2.039,0.91-2.611,2.44c-0.061,0.163-0.12,0.328-0.179,0.497c-0.332,0.936-0.674,1.906-1.453,2.419        c-1.095,0.724-2.565,0.418-3.742-0.053c-0.904-0.467-1.959-0.622-2.934-0.183c-0.117,0.053-0.169,0.191-0.116,0.308        c0.054,0.118,0.191,0.168,0.308,0.116c0.674-0.304,1.397-0.268,2.065-0.034c0.005,0.003,0.006,0.01,0.011,0.012        c0.154,0.071,0.322,0.139,0.49,0.207c0.635,0.337,1.188,0.846,1.537,1.429c0.722,1.209,0.93,2.846,0.618,4.863l-0.03,0.187        c-0.079,0.495-0.161,1.006-0.077,1.523c0.116,0.704,0.558,1.26,1.128,1.417c0.52,0.139,1.031-0.058,1.482-0.233l0.173-0.067        c2.188-0.819,4.812-0.404,6.849,1.086c1.858,1.359,3.197,3.577,3.674,6.087c0.423,2.225,0.198,4.723-0.649,7.226        c-0.041,0.121,0.024,0.254,0.146,0.295c0.025,0.009,0.05,0.013,0.075,0.013c0.097,0,0.188-0.06,0.22-0.158        c0.873-2.579,1.102-5.159,0.665-7.461c-0.275-1.446-0.833-2.794-1.599-3.958c0.024-0.041,0.046-0.085,0.041-0.135        c-0.069-0.704,0.207-1.436,0.759-2.005c0.551-0.571,1.273-0.889,1.979-0.826c0.418,0.026,0.821,0.152,1.248,0.285        c0.296,0.091,0.601,0.187,0.915,0.248c0.753,0.146,1.799,0.038,2.267-0.748c0.452-0.762,0.096-1.63-0.218-2.397        c-0.067-0.163-0.133-0.325-0.191-0.483c-0.455-1.247-0.328-2.71,0.342-3.912c0.649-1.166,1.782-2.07,3.109-2.476        c1.054-0.322,2.421-0.258,3.089,0.625c0.077,0.102,0.224,0.121,0.326,0.046C245.878,167.594,245.898,167.449,245.821,167.346z         M219.832,168.397c-0.171-0.286-0.395-0.55-0.641-0.797c0.351,0.074,0.707,0.129,1.062,0.129c0.636,0,1.262-0.141,1.816-0.507        c0.909-0.6,1.278-1.644,1.635-2.653c0.059-0.165,0.116-0.329,0.176-0.489c0.188-0.503,0.898-2.137,2.173-2.137        c0.006,0,0.012,0,0.018,0c0.633,0.008,1.172,0.413,1.742,0.843c0.166,0.125,0.331,0.249,0.498,0.362        c0.285,0.195,0.592,0.355,0.907,0.497c-0.211,1.003-0.178,1.891,0.121,2.629c0.032,0.081,0.073,0.155,0.112,0.232        c-0.005,0.023-0.023,0.041-0.021,0.065c0.047,0.557-0.011,1.515-0.187,2.09c-0.138,0.449-0.482,0.982-1.036,1.135        c-0.338,0.095-0.739,0.042-1.126-0.006c-0.617-0.074-1.25-0.157-1.742,0.29c-0.461,0.42-0.479,1.026-0.498,1.612        c-0.006,0.208-0.012,0.417-0.041,0.614c-0.123,0.855-0.79,1.615-1.66,1.888c-0.828,0.263-1.806,0.081-2.549-0.475        c-0.03-0.022-0.067-0.02-0.102-0.025l0.02-0.124C220.84,171.441,220.611,169.699,219.832,168.397z M234.918,176.02        c-0.845-0.054-1.697,0.298-2.343,0.968c-0.519,0.536-0.818,1.2-0.878,1.875c-0.538-0.703-1.156-1.325-1.846-1.83        c-2.162-1.581-4.954-2.018-7.286-1.144l-0.178,0.067c-0.404,0.157-0.821,0.316-1.192,0.218        c-0.448-0.123-0.72-0.612-0.79-1.042c-0.052-0.315-0.022-0.639,0.022-0.971c0.577,0.397,1.262,0.614,1.937,0.614        c0.313,0,0.624-0.045,0.919-0.138c0.735-0.232,1.345-0.761,1.693-1.415c0.076-0.009,0.148-0.041,0.184-0.114        c0.537-1.098,1.925-1.464,2.985-1.342c1.152,0.134,2.175,1.052,2.431,2.185c0.064,0.287,0.198,0.882,0.707,0.905        c0.408,0.022,0.626-0.378,0.767-0.639l0.028-0.053c0.232-0.425,0.653-0.738,1.185-0.883c0.649-0.176,1.37-0.084,1.925,0.253        c0.9,0.542,1.505,1.64,1.663,2.949c-0.19-0.049-0.379-0.095-0.576-0.156C235.841,176.19,235.392,176.05,234.918,176.02z         M238.67,174.048c0.286,0.699,0.582,1.422,0.248,1.984c-0.289,0.488-0.967,0.618-1.576,0.547        c-0.142-1.52-0.854-2.806-1.915-3.446c-0.66-0.398-1.515-0.511-2.287-0.302c-0.656,0.178-1.178,0.572-1.471,1.109        l-0.029,0.056c-0.095,0.176-0.212,0.394-0.332,0.394c-0.001,0-0.003,0-0.004,0c-0.154-0.006-0.241-0.396-0.274-0.542        c-0.298-1.318-1.489-2.388-2.831-2.545c-0.958-0.107-2.146,0.146-2.923,0.888c0.015-0.161,0.028-0.322,0.033-0.488        c0.016-0.512,0.031-0.996,0.346-1.282c0.332-0.301,0.813-0.239,1.37-0.171c0.433,0.053,0.883,0.111,1.308-0.006        c0.615-0.171,1.135-0.725,1.356-1.448c0.138-0.449,0.207-1.083,0.219-1.636c0.461,0.497,1.073,0.804,1.706,0.81        c0.006,0,0.013,0,0.02,0c0.677,0,1.273-0.313,1.848-0.618c0.174-0.091,0.348-0.183,0.524-0.266        c0.641-0.3,1.557-0.461,2.025,0.072c0.247,0.281,0.311,0.684,0.379,1.111l0.031,0.192c0.071,0.415,0.197,0.945,0.542,1.369        c0.286,0.35,0.888,0.601,1.383,0.618c-0.277,1.027-0.251,2.123,0.106,3.101C238.532,173.714,238.601,173.88,238.67,174.048z"
   id="path27" />
					</g>
				</g>
				<path
   style="fill:#CF121F;"
   d="M431.856,329.627c-7.041,12.582-8.785,28.056-4.702,41.874c1.324,4.437,3.223,9.094,1.898,13.509      c-1.28,4.282-5.209,7.152-8.918,9.602c-8.874,5.871-18.697,12.405-21.235,22.736c-3.377,13.884,7.902,26.488,16.577,37.878      c6.666,8.763,12.163,18.387,16.379,28.563l-53.027,14.966H175.685c0.353-1.678,0.75-3.355,1.148-5.033l4.371-8.035      c11.015-3.532,20.573-10.331,29.049-18.343c3.112-2.936,6.07-6.004,8.896-9.139c29.292-32.382,48.981-72.247,65.426-112.686      c8.013-19.69,15.473-39.865,27.438-57.458c0.861-1.258,1.744-2.516,2.649-3.752v-0.022c0.596-0.817,1.192-1.611,1.81-2.428      c0.044-0.066,0.088-0.11,0.132-0.177v-0.022c0.773-1.038,1.567-2.053,2.362-3.09c2.229-2.87,4.481-5.717,6.71-8.565      c4.062-5.231,8.013-10.529,11.368-16.246c2.583-4.37,4.812-8.962,7.13-13.509c0.022-0.066,0.066-0.155,0.11-0.221      c0.64-1.28,1.302-2.538,1.987-3.797c1.523-2.825,3.112-5.607,4.944-8.255c0-0.022,0.022-0.022,0.022-0.044      c0.729-1.082,1.501-2.119,2.318-3.156c1.17-1.479,2.406-2.892,3.752-4.216c11.787-12.118,28.872-18.476,45.737-21.367      c7.571-1.302,16.423-1.589,21.765,3.951c0.706,0.729,1.302,1.523,1.832,2.362c5.232,8.587-8.161,21.765-2.532,30.704      c1.898,3.002,4.68,5.143,7.748,6.997l8.381,28.42L431.856,329.627z"
   id="path29" />
				<path
   style="fill:#120318;"
   d="M190.258,478.907c-0.237,0-0.456-0.154-0.528-0.394c-0.089-0.293,0.076-0.599,0.369-0.686      c14.733-4.425,26.344-15.994,34.816-25.577c32.976-37.309,54.132-83.649,74.593-128.462      c10.305-22.572,20.962-45.911,33.02-67.888c6.652-12.126,14.23-24.801,24.537-35.355c0.215-0.221,0.561-0.221,0.78-0.011      c0.219,0.215,0.224,0.563,0.011,0.78c-10.218,10.462-17.747,23.062-24.363,35.118c-12.038,21.941-22.686,45.26-32.982,67.814      c-20.495,44.887-41.685,91.303-74.77,128.732c-8.568,9.695-20.327,21.4-35.326,25.903      C190.363,478.898,190.309,478.907,190.258,478.907z"
   id="path30" />
				<path
   style="fill:#120318;"
   d="M182.309,382.636c-0.069,0-0.141-0.013-0.21-0.042c-0.282-0.116-0.416-0.438-0.3-0.72      c0.76-1.842,2.773-2.448,4.548-2.983c0.391-0.116,0.778-0.233,1.145-0.36c3.658-1.263,6.428-4.695,6.893-8.539      c0.322-2.665-0.709-5.905-3.305-6.94c-0.391-0.157-0.816-0.262-1.263-0.376c-0.845-0.212-1.719-0.432-2.448-1.022      c-1.418-1.147-1.574-3.061-1.71-4.749l-0.038-0.449c-0.143-1.657-0.483-2.882-1.071-3.864c-0.704-1.178-1.849-1.974-2.985-2.079      c-0.302-0.029-0.525-0.297-0.499-0.601c0.029-0.302,0.279-0.505,0.601-0.499c1.5,0.139,2.934,1.116,3.83,2.612      c0.677,1.131,1.064,2.509,1.223,4.336l0.038,0.456c0.125,1.538,0.255,3.13,1.304,3.98c0.541,0.438,1.261,0.619,2.024,0.812      c0.465,0.116,0.944,0.235,1.406,0.42c3.11,1.241,4.362,5.013,3.989,8.099c-0.514,4.253-3.58,8.049-7.627,9.447      c-0.382,0.132-0.785,0.253-1.19,0.376c-1.69,0.508-3.285,0.988-3.846,2.345C182.731,382.506,182.526,382.636,182.309,382.636z"
   id="path31" />
				<path
   style="fill:#FFEFD1;"
   d="M440.856,329.627c-7.041,12.582-8.785,28.056-4.702,41.874c1.324,4.437,3.223,9.094,1.898,13.509      c-1.28,4.282-5.209,7.152-8.918,9.602c-8.874,5.871-18.697,12.405-21.235,22.736c-3.377,13.884,7.902,26.488,16.577,37.878      c6.666,8.763,12.163,18.387,16.379,28.563v14.966h-62.027c0.199-0.353,0.398-0.684,0.596-1.037      c5.563-9.315,14.127-18.917,11.346-29.402c-2.318-8.675-11.478-13.399-17.151-20.374c-5.96-7.328-7.726-17.725-4.967-26.731      c0.618-2.009,1.457-3.973,2.539-5.783c4.834-8.189,13.31-13.377,20.727-19.336c7.417-5.96,14.48-14.017,14.282-23.53      c-0.221-11.037-9.845-19.292-14.48-29.292c-6.909-14.878-1.104-34.479,12.781-43.198c6.71-4.216,14.701-5.982,21.743-9.624      c7.041-3.642,13.575-10.331,13.156-18.255c-0.728-13.796-20.771-19.91-22.383-33.64c-0.905-7.836,4.613-14.723,7.858-21.897      c1.523-3.333,2.207-7.461,1.766-11.147c5.232,8.587,0.839,21.765,6.468,30.704c1.898,3.002,4.68,5.143,7.748,6.997V329.627z"
   id="path32" />
				<g
   id="g41">
					<path
   style="fill:#FF9F8B;"
   d="M181.492,345.626l1.242-18.382c0,0,28.931-11.272,63.497-20.289       c34.566-9.017,71.011-23.67,71.011-23.67l-12.774-31.936c0,0-116.85,18.411-135.26,25.173       c-18.41,6.763-36.445,17.283-36.069,35.694c0.376,18.41,8.641,39.826,10.52,41.329c1.879,1.503,10.52,7.89,16.908,6.763       c2.823-0.498,7.113-1.583,11.022-2.639C177.123,356.174,181.106,351.345,181.492,345.626z"
   id="path33" />
					<path
   style="fill:#FF9F8B;"
   d="M300.241,251.912c0,0,36.633-14.371,42.832-12.117c6.199,2.254,39.169,23.389,38.042,27.052       c-1.127,3.663-19.35-4.039-19.35-4.039s2.442,4.884-2.63,9.111c0,0,0.845,5.354-3.1,7.327       c-3.945,1.973-3.945,1.973-3.945,1.973s1.409,3.663-2.536,5.636c-3.945,1.973-32.312-3.569-32.312-3.569L300.241,251.912z"
   id="path34" />
					<g
   id="g40">
						<path
   style="fill:#120318;"
   d="M177.126,327.922c-8.579,0-18.816-2.907-19.341-3.059c-0.293-0.083-0.463-0.389-0.378-0.682        c0.083-0.291,0.38-0.472,0.682-0.378c0.154,0.042,15.64,4.441,24.242,2.527c4.693-1.042,13.199-3.761,23.965-7.202        c12.161-3.888,27.296-8.725,42.233-12.799c27.549-7.515,68.105-23.397,68.512-23.558c0.275-0.103,0.604,0.031,0.716,0.313        c0.112,0.284-0.029,0.604-0.313,0.715c-0.407,0.159-41.016,16.065-68.623,23.594c-14.912,4.067-30.035,8.901-42.188,12.785        c-10.793,3.45-19.319,6.176-24.059,7.229C180.929,327.772,179.071,327.922,177.126,327.922z"
   id="path35" />
						<g
   id="g39">
							<path
   style="fill:#120318;"
   d="M142.437,353.627c-0.21,0-0.414-0.123-0.505-0.329c-0.787-1.773-19.122-43.652-2.417-60.073         c15.965-15.694,34.946-20.148,47.831-22.134c10.856-1.67,68.534-12.566,69.115-12.678l45.376-7.891         c1.337-0.483,34.91-12.358,39.31-11.936c4.555,0.396,15.515,7.316,23.363,12.488c0.749,0.494,18.344,12.146,17.13,15.94         c-0.841,2.632-4.385,1.681-8.494,0.588l-1.187-0.315c-4.322-1.127-24.238-10.531-25.083-10.932         c-0.277-0.13-0.394-0.458-0.264-0.733c0.13-0.279,0.463-0.389,0.733-0.264c0.208,0.096,20.669,9.76,24.891,10.86l1.196,0.318         c3.412,0.912,6.639,1.773,7.157,0.143c0.47-1.469-6.122-7.721-16.687-14.683c-4.463-2.94-18.046-11.891-22.849-12.309         c-0.06-0.004-0.125-0.009-0.197-0.009c-3.964,0-26.941,7.741-38.742,11.909l-45.457,7.913         c-0.572,0.11-58.271,11.01-69.142,12.682c-12.738,1.961-31.491,6.359-47.228,21.83c-16.161,15.886,2.464,58.412,2.654,58.839         c0.123,0.277-0.002,0.604-0.282,0.729C142.589,353.611,142.513,353.627,142.437,353.627z"
   id="path36" />
							<path
   style="fill:#120318;"
   d="M347.478,287.557c-6.326,0-25.573-3.036-29.852-3.725c-0.302-0.049-0.505-0.333-0.458-0.633         c0.049-0.3,0.338-0.503,0.633-0.458c11.191,1.8,29.494,4.371,31.03,3.624c3.325-1.746,2.746-4.906,2.719-5.038         c-0.051-0.259,0.089-0.521,0.333-0.622c0.025-0.009,2.515-1.037,5.427-3.128c2.632-1.892,1.324-5.427,1.31-5.462         c-0.076-0.203-0.027-0.434,0.125-0.586c0.016-0.016,1.552-1.57,2.714-3.895c1.076-2.149-0.168-4.543-0.181-4.568         c-0.143-0.268-0.04-0.604,0.228-0.747c0.268-0.139,0.599-0.04,0.747,0.228c0.063,0.116,1.527,2.913,0.195,5.579         c-0.979,1.956-2.178,3.376-2.681,3.929c0.494,1.621,0.657,4.644-1.813,6.417c-2.375,1.706-4.441,2.714-5.27,3.09         c0.074,1.125-0.076,4.067-3.341,5.782C349.059,287.492,348.408,287.557,347.478,287.557z"
   id="path37" />
							<path
   style="fill:#120318;"
   d="M359.136,272.471c-0.072,0-0.145-0.013-0.215-0.045l-17.378-7.325         c-0.279-0.118-0.411-0.44-0.293-0.722c0.116-0.279,0.443-0.418,0.722-0.293l17.378,7.325c0.279,0.118,0.411,0.44,0.293,0.722         C359.557,272.343,359.351,272.471,359.136,272.471z"
   id="path38" />
							<path
   style="fill:#120318;"
   d="M351.903,281.207c-0.056,0-0.114-0.009-0.172-0.027l-14.936-4.883         c-0.288-0.096-0.447-0.407-0.353-0.698c0.094-0.288,0.396-0.449,0.698-0.353l14.936,4.883         c0.288,0.096,0.447,0.407,0.353,0.698C352.353,281.059,352.136,281.207,351.903,281.207z"
   id="path39" />
						</g>
					</g>
				</g>
				<g
   id="g42">
					<path
   style="fill:#FFEFD1;"
   d="M216.268,222.747c0,2.568-2.082,4.65-4.65,4.65c-2.568,0-4.65-2.081-4.65-4.65       c0-2.568,2.082-4.65,4.65-4.65C214.186,218.097,216.268,220.179,216.268,222.747z"
   id="path41" />
					<path
   style="fill:#FFEFD1;"
   d="M220.603,240.451c3.614,4.539,8.68,8.109,14.402,9.068c1.598,0.267,3.303,0.318,4.775-0.361       c1.472-0.679,2.625-2.25,2.387-3.854c-0.155-1.043-0.841-1.919-1.521-2.725c-6.352-7.54-14.303-13.726-23.174-18.03       c-1.187-0.576-3.855-1.511-4.504,0.149c-0.384,0.982,1.392,4.245,1.756,5.177C216.197,233.642,218.076,237.277,220.603,240.451       z"
   id="path42" />
				</g>
			</g>
		</g>
		<path
   style="fill:#120318;"
   d="M182.921,453.126c-1.766-5.118-5.089-9.769-9.357-13.094c-3.443-2.683-7.146-4.206-10.708-4.407    c-4.351-0.235-8.434,1.556-10.71,4.7c-2.392,3.306-2.813,7.797-1.326,13.656c-3.175-6.771-7.263-13.73-12.311-20.949    c-5.335-7.627-11.269-14.974-17.009-22.082c-4.883-6.05-9.937-12.304-14.578-18.686c-3.799-5.223-6.701-9.735-8.53-14.782    c-1.496-4.128-1.668-7.587-0.51-10.279c0.525-1.225,1.304-2.133,2.191-2.558c2.194-1.047,4.997,0.677,6.473,1.802    c6.605,5.022,11.126,12.604,12.405,20.803c0.177,1.129,0.293,2.314-0.047,3.329c-0.259,0.778-0.955,1.588-1.782,1.628    c-0.534,0.069-1.221-0.306-1.78-0.637c-4.982-2.954-8.347-8.604-8.575-14.39c-0.022-0.608-0.588-1.073-1.145-1.06    c-0.61,0.025-1.084,0.537-1.06,1.145c0.257,6.518,4.045,12.879,9.653,16.206c0.841,0.499,1.818,0.97,3.016,0.941    c1.91-0.092,3.269-1.641,3.765-3.133c0.49-1.462,0.353-2.965,0.136-4.369c-1.368-8.758-6.196-16.857-13.25-22.221    c-3.28-2.498-6.308-3.211-8.763-2.035c-1.755,0.836-2.746,2.462-3.267,3.676c-1.388,3.224-1.232,7.229,0.463,11.902    c2.028,5.603,5.438,10.679,8.821,15.328c4.675,6.426,9.744,12.705,14.646,18.775c5.717,7.079,11.627,14.397,16.915,21.961    c11.634,16.633,18.118,31.824,19.826,46.436c0.065,0.563,0.541,0.977,1.093,0.977c0.042,0,0.087-0.002,0.13-0.009    c0.606-0.069,1.04-0.619,0.968-1.223c-0.316-2.704-0.796-5.427-1.431-8.171c0.153-0.225,0.229-0.504,0.183-0.795    c-1.002-6.287-2.334-10.695-3.625-14.958l-0.501-1.661c-1.773-5.932-1.579-10.274,0.593-13.275    c1.809-2.498,5.288-3.987,8.796-3.788c3.931,0.221,7.325,2.267,9.478,3.942c3.935,3.068,6.999,7.356,8.624,12.074    c1.015,2.947,1.228,5.512,0.628,7.625c-0.709,2.5-2.719,4.385-4.883,4.581c-2.287,0.228-4.293-1.295-5.322-2.207    c-3.296-2.913-5.239-8.291-2.636-11.897c0.358-0.494,0.246-1.185-0.248-1.541c-0.49-0.356-1.185-0.248-1.541,0.248    c-3.327,4.608-1.053,11.294,2.963,14.844c1.585,1.402,4.09,2.99,6.985,2.752c3.054-0.282,5.851-2.822,6.806-6.178    C184.31,459.519,184.086,456.507,182.921,453.126z"
   id="path44" />
		<path
   style="fill:#120318;"
   d="M405.74,174.809c-12.986-6.913-24.77-18.487-36.023-35.379    c-5.114-7.676-9.773-15.842-14.279-23.737c-3.873-6.781-7.875-13.796-12.159-20.495c-3.094-4.841-6.578-9.865-11.061-13.8    c-3.736-3.278-7.479-4.935-10.914-4.767c-1.324,0.042-3.197,0.374-4.617,1.704c-1.979,1.849-2.426,4.928-1.297,8.901    c2.428,8.523,8.21,15.971,15.866,20.432c1.23,0.718,2.578,1.389,4.114,1.467c1.588,0.063,3.515-0.619,4.297-2.366    c0.474-1.06,0.376-2.187,0.217-3.151c-1.055-6.435-5.597-12.282-11.571-14.894c-0.561-0.244-1.21,0.009-1.453,0.568    c-0.244,0.559,0.009,1.21,0.568,1.453c5.306,2.321,9.342,7.513,10.279,13.23c0.105,0.639,0.181,1.366-0.054,1.892    c-0.338,0.754-1.337,1.082-2.169,1.062c-1.069-0.054-2.129-0.593-3.115-1.167c-7.168-4.179-12.584-11.153-14.856-19.131    c-0.507-1.784-1.096-5.026,0.68-6.686c0.718-0.673,1.849-1.067,3.182-1.111c2.909-0.072,6.086,1.324,9.384,4.221    c4.04,3.546,7.184,7.893,10.659,13.331c4.255,6.652,8.244,13.642,12.101,20.399c4.526,7.929,9.203,16.128,14.359,23.869    c4.866,7.304,9.839,13.626,14.969,19.037c-4.895-3.49-9.209-4.693-13.147-3.681c-3.754,0.973-6.925,4.139-8.275,8.26    c-1.111,3.396-1.042,7.401,0.204,11.582c1.541,5.185,4.662,9.972,8.785,13.481c2.721,2.317,5.442,3.622,8.092,3.879    c0.293,0.029,0.588,0.042,0.879,0.042c3.153,0,6.093-1.621,7.35-4.13c1.306-2.6,0.711-5.518-0.016-7.508    c-1.842-5.033-7.249-9.586-12.745-8.166c-0.59,0.152-0.946,0.754-0.794,1.344c0.15,0.588,0.747,0.955,1.344,0.794    c4.32-1.111,8.608,2.659,10.12,6.788c0.474,1.292,1.12,3.763,0.119,5.76c-0.973,1.943-3.448,3.135-6.044,2.88    c-2.191-0.215-4.503-1.346-6.873-3.365c-3.803-3.233-6.679-7.649-8.101-12.43c-0.778-2.614-1.449-6.518-0.221-10.263    c1.102-3.363,3.745-6.037,6.732-6.811c3.58-0.935,7.696,0.467,12.577,4.282l1.366,1.071c3.499,2.755,7.119,5.603,12.611,8.828    c0.254,0.148,0.539,0.178,0.803,0.118c2.325,1.592,4.686,3.031,7.09,4.311c0.166,0.087,0.342,0.13,0.519,0.13    c0.393,0,0.776-0.213,0.975-0.586C406.483,175.764,406.279,175.095,405.74,174.809z"
   id="path45" />
		<g
   id="g49">
			<g
   id="g47">
				<path
   style="fill:#CF121F;"
   d="M267.004,101.523c-2.305-1.624-3.995-3.897-4.427-6.912c-0.321-2.245,0.325-4.506,0.423-6.772      c0.102-2.33-0.388-4.684-1.412-6.78c-0.719-1.474-1.705-2.843-2.1-4.435c-0.395-1.592,0.011-3.56,1.465-4.319      c1.564-0.816,3.831-0.018,5.003-1.335c0.638-0.717,0.65-1.771,0.87-2.705c0.443-1.878,1.921-3.477,3.758-4.068      c1.837-0.59,3.97-0.151,5.424,1.117c1.139,0.993,2.394,2.577,3.77,1.954c0.401-0.181,0.697-0.53,0.992-0.857      c1.548-1.719,3.625-3.194,5.938-3.168c2.432,0.027,4.631,1.796,5.615,4.021c0.984,2.225,0.898,4.806,0.246,7.15      c-0.192,0.691-0.434,1.387-0.405,2.104c0.029,0.717,0.406,1.478,1.085,1.708c1.354,0.457,2.634-1.381,4.028-1.065      c1.094,0.248,1.491,1.633,2.433,2.241c0.715,0.462,1.63,0.41,2.479,0.458c2.346,0.133,4.833,1.425,5.485,3.682      c0.383,1.326,0.079,2.753-0.375,4.057c-3.662,10.506-16.227,15.862-26.5,17.058      C276.513,105.155,270.887,104.259,267.004,101.523z"
   id="path46" />
				<path
   style="fill:#120318;"
   d="M300.268,79.392c-2.893-0.197-5.789,1.366-7.224,3.882c-0.235,0.414-0.429,0.847-0.619,1.27      c-0.207,0.456-0.42,0.883-0.66,1.29c0.022-0.966-0.28-1.942-0.869-2.705c-0.594-0.77-1.467-1.314-2.413-1.535      c0.823-0.713,1.342-1.49,1.519-2.32c0.239-1.096-0.21-2.256-1.071-2.761c-0.058-0.034-0.121-0.067-0.183-0.098      c-0.107-0.054-0.206-0.105-0.282-0.172c-0.239-0.208-0.268-0.575-0.3-0.997c-0.018-0.23-0.036-0.467-0.092-0.695      c-0.208-0.856-1-1.57-1.97-1.773c-0.767-0.166-1.661-0.027-2.567,0.391c-0.814,0.374-1.387,0.868-1.73,1.462      c-0.013-0.021-0.02-0.044-0.034-0.065c-0.579-0.872-1.617-1.44-2.779-1.516c-1.039-0.079-1.996,0.272-2.682,0.897      c-0.472-1.12-1.265-2.302-2.611-2.791c-1.348-0.492-2.735-0.114-4.081,0.255c-0.749,0.204-1.521,0.416-2.27,0.467      c-0.749,0.043-1.487-0.049-2.27-0.159c-0.405-0.056-0.809-0.112-1.216-0.145c-1.55-0.134-2.764,0.168-3.586,0.879      c-0.127,0.112-0.143,0.306-0.031,0.434c0.112,0.125,0.304,0.139,0.434,0.031c0.695-0.604,1.744-0.847,3.135-0.731      c0.393,0.034,0.789,0.087,1.183,0.143c0.778,0.107,1.588,0.221,2.397,0.161c0.807-0.056,1.61-0.275,2.386-0.488      c1.31-0.358,2.547-0.693,3.709-0.271c1.742,0.635,2.448,2.708,2.717,3.886c0.55,2.442,0.414,5.015,0.284,7.504      c-0.085,1.579-0.17,3.211-0.085,4.812c0.067,1.254,0.255,2.866,1.116,4.199c0.362,0.559,0.823,1.04,1.268,1.502      c0.313,0.326,0.635,0.662,0.912,1.015c2.01,2.562,1.878,6.218,1.572,9.744c-0.016,0.17,0.109,0.318,0.279,0.333      c0.009,0,0.018,0,0.027,0c0.159,0,0.293-0.118,0.306-0.279c0.318-3.649,0.447-7.439-1.702-10.178      c-0.295-0.378-0.628-0.724-0.953-1.06c-0.445-0.463-0.865-0.901-1.194-1.413c-0.09-0.138-0.169-0.282-0.243-0.427      c0.014-0.025,0.038-0.042,0.044-0.072c0.391-1.775,1.988-3.2,3.794-3.387c1.035-0.112,2.086,0.152,3.188,0.438      c1.024,0.264,2.086,0.537,3.175,0.476c1.57-0.089,3.061-0.903,3.989-2.176c0.42-0.577,0.713-1.228,0.997-1.854      c0.186-0.409,0.376-0.83,0.595-1.219c1.321-2.312,3.98-3.723,6.65-3.573c0.15,0.016,0.315-0.116,0.326-0.286      C300.566,79.549,300.438,79.403,300.268,79.392z M282.26,75.057c0.264-0.537,0.78-0.984,1.534-1.33      c0.546-0.253,1.359-0.521,2.185-0.347c0.742,0.154,1.344,0.682,1.496,1.312c0.045,0.183,0.06,0.385,0.078,0.599      c0.036,0.488,0.08,1.042,0.508,1.413c0.132,0.116,0.277,0.19,0.407,0.257c0.052,0.027,0.103,0.054,0.152,0.083      c0.722,0.423,0.939,1.375,0.783,2.099c-0.156,0.722-0.648,1.445-1.427,2.086c-0.085,0.069-0.104,0.172-0.091,0.273      c-0.113-0.01-0.227-0.021-0.341-0.021c-0.027,0-0.054,0-0.081,0.002c-1.438,0.027-2.692,0.758-3.906,1.465      c-0.391,0.226-0.774,0.436-1.127,0.367c-0.418-0.069-0.698-0.499-0.783-0.87c-0.105-0.476-0.002-0.999,0.103-1.453l0.161-0.68      c0.405-1.672,0.856-3.54,0.195-5.119C282.169,75.166,282.227,75.123,282.26,75.057z M287.962,88.213      c-1.015,0.04-1.961-0.195-2.987-0.458c-1.1-0.286-2.236-0.584-3.405-0.456c-1.832,0.193-3.468,1.501-4.124,3.21      c-0.287-0.891-0.383-1.821-0.426-2.606c-0.083-1.57,0.002-3.186,0.085-4.747c0.134-2.531,0.273-5.149-0.297-7.672      c-0.062-0.271-0.152-0.592-0.263-0.926c0.564-0.62,1.471-0.947,2.41-0.896c0.97,0.065,1.833,0.53,2.305,1.243      c0.975,1.471,0.508,3.399,0.056,5.263l-0.163,0.686c-0.121,0.519-0.237,1.122-0.103,1.726c0.132,0.586,0.579,1.228,1.281,1.344      c0.624,0.092,1.165-0.228,1.536-0.443c1.147-0.669,2.332-1.357,3.611-1.384c1.154-0.036,2.247,0.516,2.931,1.406      c0.686,0.89,0.921,2.113,0.615,3.193c-0.011,0.04,0.009,0.075,0.013,0.114C290.223,87.63,289.119,88.146,287.962,88.213z"
   id="path47" />
			</g>
			<path
   style="fill:#104C5A;"
   d="M261.807,110.177c-2.012-2.628-5.608-3.353-8.391-5.145c-3.044-1.961-5.121-5.351-5.486-8.953     c-0.231-2.282,0.189-4.574,0.607-6.83c4.42,0.49,8.299,3.627,10.467,7.51C261.17,100.643,262.066,105.737,261.807,110.177z"
   id="path48" />
			<path
   style="fill:#104C5A;"
   d="M294.662,108.453c-3.374-2.608-8.04-2.93-12.226-2.112c-4.177,0.817-8.275,2.768-10.895,6.123     c1.842-0.528,3.98-0.207,5.826,0.305c1.846,0.513,3.624,1.26,5.489,1.699c1.432,0.337,2.908,0.489,4.379,0.451     c1.02-0.026,2.078-0.157,2.938-0.706C291.819,113.163,293.12,109.651,294.662,108.453z"
   id="path49" />
		</g>
		<g
   id="g53">
			<g
   id="g51">
				<path
   style="fill:#CF121F;"
   d="M110.533,468.408c-2.394,1.49-5.146,2.161-8.091,1.384c-2.193-0.579-4.024-2.055-6.072-3.028      c-2.106-1.001-4.465-1.467-6.794-1.341c-1.638,0.088-3.283,0.462-4.903,0.206c-1.62-0.256-3.275-1.397-3.407-3.032      c-0.142-1.758,1.476-3.535,0.72-5.128c-0.411-0.867-1.378-1.288-2.153-1.855c-1.557-1.14-2.454-3.124-2.282-5.046      c0.172-1.922,1.407-3.715,3.142-4.56c1.358-0.662,3.306-1.2,3.269-2.711c-0.011-0.44-0.217-0.849-0.403-1.248      c-0.98-2.096-1.529-4.583-0.604-6.704c0.972-2.23,3.458-3.565,5.89-3.605c2.432-0.04,4.776,1.045,6.681,2.559      c0.562,0.446,1.108,0.94,1.78,1.193c0.672,0.253,1.52,0.202,1.996-0.334c0.949-1.069-0.246-2.964,0.589-4.125      c0.655-0.91,2.084-0.737,3.012-1.368c0.704-0.479,1.012-1.341,1.387-2.105c1.036-2.109,3.195-3.896,5.528-3.617      c1.371,0.164,2.567,1,3.59,1.926c8.249,7.466,8.287,21.124,5.385,31.052C117.583,461.066,114.566,465.899,110.533,468.408z"
   id="path50" />
				<path
   style="fill:#120318;"
   d="M119.025,455.841c-3.238-1.713-6.67-3.3-10.035-2.399c-0.463,0.125-0.912,0.297-1.346,0.465      c-0.599,0.228-1.167,0.447-1.769,0.552c-0.165,0.028-0.33,0.045-0.496,0.056c-0.017-0.022-0.019-0.052-0.043-0.069      c-1.48-1.053-2.169-3.079-1.641-4.814c0.309-1.015,0.957-1.865,1.646-2.764c0.644-0.841,1.31-1.713,1.677-2.741      c0.53-1.48,0.362-3.171-0.449-4.521c-0.369-0.613-0.852-1.136-1.319-1.643c-0.304-0.327-0.619-0.666-0.89-1.02      c-1.617-2.117-1.896-5.136-0.698-7.515c0.076-0.152,0.016-0.338-0.136-0.414c-0.15-0.076-0.338-0.016-0.414,0.136      c-1.301,2.585-0.997,5.865,0.76,8.166c0.288,0.376,0.613,0.727,0.926,1.064c0.339,0.367,0.649,0.729,0.93,1.109      c-0.88-0.396-1.895-0.496-2.828-0.25c-0.939,0.245-1.779,0.838-2.352,1.623c-0.332-1.023-0.86-1.82-1.545-2.301      c-0.923-0.655-2.167-0.689-2.96-0.089c-0.052,0.038-0.101,0.078-0.15,0.121c-0.096,0.08-0.188,0.154-0.28,0.199      c-0.291,0.141-0.635,0.022-1.037-0.112c-0.219-0.072-0.445-0.148-0.677-0.186c-0.868-0.15-1.831,0.308-2.397,1.122      c-0.454,0.651-0.675,1.521-0.642,2.52c0.029,0.893,0.261,1.612,0.672,2.16c-0.024,0.004-0.047,0.002-0.071,0.006      c-1.029,0.192-1.954,0.926-2.477,1.965c-0.465,0.921-0.525,1.945-0.22,2.823c-1.214-0.002-2.612,0.269-3.59,1.316      c-0.977,1.053-1.169,2.479-1.355,3.861c-0.103,0.767-0.21,1.563-0.452,2.27c-0.244,0.709-0.626,1.351-1.031,2.03      c-0.21,0.351-0.418,0.7-0.608,1.06c-0.724,1.384-0.923,2.609-0.59,3.645c0.042,0.13,0.163,0.215,0.293,0.215      c0.031,0,0.063-0.007,0.094-0.016c0.161-0.051,0.25-0.226,0.199-0.387c-0.282-0.872-0.096-1.938,0.55-3.171      c0.183-0.349,0.387-0.691,0.59-1.031c0.402-0.677,0.821-1.375,1.084-2.144c0.261-0.767,0.373-1.592,0.481-2.39      c0.179-1.344,0.351-2.614,1.196-3.522c1.266-1.357,3.448-1.201,4.637-0.988c2.462,0.445,4.778,1.572,7.019,2.663      c1.422,0.691,2.891,1.406,4.4,1.952c1.178,0.429,2.735,0.883,4.302,0.608c0.657-0.114,1.279-0.353,1.88-0.584      c0.42-0.159,0.854-0.326,1.288-0.443c3.141-0.856,6.459,0.693,9.588,2.35c0.145,0.072,0.335,0.022,0.416-0.13      C119.233,456.107,119.175,455.921,119.025,455.841z M92.102,444.046c-0.487-0.563-0.61-1.359-0.63-1.93      c-0.018-0.604,0.058-1.465,0.534-2.149c0.431-0.624,1.154-0.979,1.793-0.865c0.183,0.029,0.378,0.094,0.581,0.161      c0.465,0.154,0.995,0.331,1.5,0.083c0.159-0.078,0.289-0.186,0.403-0.282l0.127-0.103c0.666-0.496,1.63-0.329,2.238,0.103      c0.765,0.537,1.165,1.451,1.364,2.124c0.031,0.105,0.117,0.162,0.213,0.191c-0.065,0.124-0.128,0.249-0.18,0.38      c-0.534,1.337-0.34,2.842-0.17,4.17c0.056,0.447,0.094,0.877-0.098,1.178c-0.23,0.362-0.74,0.452-1.107,0.382      c-0.479-0.087-0.921-0.387-1.299-0.662l-0.563-0.414c-1.385-1.024-2.923-2.176-4.643-2.174      C92.164,444.172,92.15,444.102,92.102,444.046z M97.548,451.95c-2.278-1.109-4.633-2.256-7.18-2.714      c-0.273-0.049-0.602-0.092-0.953-0.119c-0.353-0.764-0.315-1.718,0.114-2.571c0.438-0.87,1.201-1.482,2.042-1.639      c1.717-0.309,3.327,0.859,4.872,2.001l0.566,0.416c0.434,0.315,0.946,0.66,1.55,0.769c0.588,0.109,1.353-0.052,1.737-0.657      c0.302-0.476,0.259-1.044,0.188-1.585c-0.168-1.315-0.342-2.674,0.134-3.864c0.418-1.044,1.351-1.869,2.437-2.153      c1.089-0.284,2.307-0.027,3.182,0.677c0.032,0.026,0.071,0.021,0.108,0.032c0.44,1.068,0.485,2.285,0.095,3.377      c-0.335,0.937-0.943,1.733-1.59,2.573c-0.691,0.903-1.404,1.836-1.746,2.958c-0.534,1.759,0.031,3.773,1.345,5.046      c-0.932-0.084-1.823-0.354-2.56-0.621C100.41,453.341,98.955,452.634,97.548,451.95z"
   id="path51" />
			</g>
			<path
   style="fill:#104C5A;"
   d="M116.478,476.567c-3.204,0.829-5.273,3.859-8.007,5.723c-2.991,2.039-6.923,2.632-10.383,1.565     c-2.192-0.676-4.139-1.956-6.054-3.22c2.174-3.88,6.573-6.231,10.994-6.714C107.45,473.438,112.49,474.599,116.478,476.567z"
   id="path52" />
			<path
   style="fill:#104C5A;"
   d="M127.691,445.636c-3.716,2.091-5.831,6.263-6.708,10.437c-0.875,4.165-0.674,8.7,1.394,12.42     c0.231-1.902,1.36-3.746,2.551-5.246c1.191-1.501,2.572-2.847,3.703-4.394c0.868-1.188,1.584-2.488,2.122-3.857     c0.373-0.949,0.664-1.975,0.494-2.981C130.921,450.09,128.194,447.523,127.691,445.636z"
   id="path53" />
		</g>
		<g
   id="g63">
			<path
   style="fill:#FFEFD1;"
   d="M396.181,127.444l5.773,1.901l-5.406,2.4c-3.618,1.606-6.388,4.667-7.626,8.427l-1.901,5.773     l-2.4-5.406c-1.606-3.618-4.667-6.388-8.427-7.626l-5.773-1.901l5.406-2.4c3.618-1.606,6.388-4.667,7.626-8.427l1.901-5.773     l2.4,5.406C389.36,123.436,392.421,126.206,396.181,127.444z"
   id="path54" />
			<path
   style="fill:#FFEFD1;"
   d="M147.101,111.202l4.574,1.506l-4.284,1.902c-2.867,1.273-5.061,3.698-6.042,6.677l-1.506,4.574     l-1.902-4.284c-1.273-2.867-3.698-5.061-6.677-6.043l-4.574-1.506l4.284-1.902c2.867-1.273,5.062-3.698,6.043-6.677l1.506-4.574     l1.902,4.284C141.696,108.026,144.122,110.221,147.101,111.202z"
   id="path55" />
			<path
   style="fill:#FFEFD1;"
   d="M107.932,195.457l4.574,1.506l-4.284,1.902c-2.867,1.273-5.062,3.698-6.043,6.677l-1.506,4.574     l-1.902-4.284c-1.273-2.867-3.698-5.061-6.677-6.043l-4.574-1.506l4.284-1.902c2.867-1.273,5.061-3.698,6.042-6.677l1.506-4.574     l1.902,4.284C102.527,192.282,104.953,194.477,107.932,195.457z"
   id="path56" />
			<path
   style="fill:#FFEFD1;"
   d="M358.726,201.093l4.574,1.506l-4.284,1.902c-2.867,1.273-5.061,3.698-6.042,6.677l-1.506,4.574     l-1.902-4.284c-1.273-2.867-3.698-5.062-6.677-6.043l-4.574-1.506l4.284-1.902c2.867-1.273,5.062-3.698,6.043-6.677l1.506-4.574     l1.902,4.284C353.322,197.917,355.747,200.112,358.726,201.093z"
   id="path57" />
			<path
   style="fill:#FFEFD1;"
   d="M190.497,413.282l4.574,1.506l-4.284,1.902c-2.867,1.273-5.061,3.698-6.043,6.677l-1.506,4.574     l-1.902-4.284c-1.273-2.867-3.698-5.061-6.677-6.042l-4.574-1.506l4.284-1.902c2.867-1.273,5.062-3.698,6.043-6.677l1.506-4.574     l1.902,4.284C185.092,410.106,187.518,412.301,190.497,413.282z"
   id="path58" />
			<path
   style="fill:#FFEFD1;"
   d="M432.92,424.584l3.319,1.093l-3.109,1.38c-2.08,0.924-3.673,2.684-4.385,4.846l-1.093,3.32     l-1.38-3.109c-0.924-2.08-2.684-3.673-4.846-4.385l-3.32-1.093l3.109-1.38c2.08-0.924,3.673-2.684,4.385-4.846l1.093-3.319     l1.38,3.109C428.998,422.28,430.758,423.872,432.92,424.584z"
   id="path59" />
			<path
   style="fill:#FFEFD1;"
   d="M334.856,128.14l3.32,1.093l-3.109,1.38c-2.08,0.924-3.673,2.684-4.385,4.846l-1.093,3.32     l-1.38-3.109c-0.924-2.08-2.684-3.673-4.846-4.385l-3.319-1.093l3.109-1.38c2.08-0.924,3.673-2.684,4.385-4.846l1.093-3.32     l1.38,3.109C330.934,125.835,332.695,127.428,334.856,128.14z"
   id="path60" />
			<path
   style="fill:#FFEFD1;"
   d="M224.676,63.046l3.32,1.093l-3.109,1.38c-2.08,0.924-3.673,2.684-4.385,4.846l-1.093,3.32     l-1.38-3.109c-0.924-2.081-2.684-3.673-4.846-4.385l-3.319-1.093l3.109-1.38c2.08-0.924,3.673-2.684,4.385-4.846l1.093-3.32     l1.38,3.109C220.754,60.741,222.514,62.334,224.676,63.046z"
   id="path61" />
			<path
   style="fill:#FFEFD1;"
   d="M95.616,285.661l3.32,1.093l-3.109,1.38c-2.08,0.924-3.673,2.684-4.385,4.846l-1.093,3.32     l-1.38-3.109c-0.924-2.081-2.684-3.673-4.846-4.385l-3.32-1.093l3.109-1.38c2.081-0.924,3.673-2.684,4.385-4.846l1.093-3.32     l1.38,3.109C91.693,283.357,93.454,284.949,95.616,285.661z"
   id="path62" />
			<path
   style="fill:#FFEFD1;"
   d="M95.616,402.323l3.32,1.093l-3.109,1.38c-2.08,0.924-3.673,2.684-4.385,4.846l-1.093,3.32     l-1.38-3.109c-0.924-2.08-2.684-3.673-4.846-4.385l-3.32-1.093l3.109-1.38c2.081-0.924,3.673-2.684,4.385-4.846l1.093-3.32     l1.38,3.109C91.693,400.018,93.454,401.611,95.616,402.323z"
   id="path63" />
		</g>
	</g>
</g>















</svg>
