<?xml version="1.0" encoding="UTF-8" standalone="no"?>
<svg
   version="1.1"
   width="512"
   height="512"
   x="0"
   y="0"
   viewBox="0 0 512 512"
   xml:space="preserve"
   class=""
   id="svg37"
   xmlns="http://www.w3.org/2000/svg"
   xmlns:svg="http://www.w3.org/2000/svg"><defs
     id="defs37" /><g
     id="g37"><path
       d="m 35.311,512 c -6.977,0 -12.634,-5.657 -12.634,-12.634 v -233.65 c 0,-47.587 14.436,-93.236 41.747,-132.012 C 89.848,97.608 124.572,69.913 165.144,53.295 174.857,22.032 204.233,0 237.493,0 c 28.482,0 54.104,15.714 67.098,40.586 50.331,9.963 96.213,36.821 129.788,76.121 35.431,41.472 54.944,94.39 54.944,149.009 v 233.649 c 0,6.977 -5.657,12.634 -12.634,12.634 H 35.311 Z"
       style="fill:#ffffff;fill-opacity:0"
       fill="#ffffff"
       data-original="#ffffff"
       class=""
       id="path1" /><path
       d="m 476.957,268.045 v 233.65 H 444.552 L 274.858,446.892 119.52,501.695 H 35.579 v -233.65 c 0,-92.862 58.37,-172.099 140.43,-203.011 23.773,-8.97 49.547,-13.877 76.458,-13.877 h 7.602 c 12.297,0 24.363,1.032 36.092,3.011 102.611,17.162 180.796,106.402 180.796,213.877 z"
       style="fill:#64c1b9;fill-opacity:0"
       fill="#64c1b9"
       data-original="#64c1b9"
       class=""
       id="path2" /><path
       d="m 176.102,212.281 -0.082,-0.551 a 3943.517,3943.517 0 0 0 36.384,-5.655 l 0.088,0.549 a 4015.535,4015.535 0 0 1 -36.39,5.657 z"
       fill="#5e5695"
       data-original="#5e5695"
       id="path5" /><path
       d="m 329,259.215 c -1.403,2.138 -4.253,2.427 -6.591,3.407 -22.647,9.62 -48.067,55.156 -72.518,52.35 1.826,-4.298 2.038,-45.024 1.504,-49.633 a 94.947,94.947 0 0 0 -0.757,-5.545 123.326,123.326 0 0 0 -6.547,-24.718 c 2.361,-3.83 5.879,-10.221 8.707,-13.717 6.48,-7.972 13.205,-15.833 20.42,-23.159 7.972,-8.106 16.545,-15.543 26.032,-21.779 0.312,15.054 2.049,30.174 6.658,44.515 4.587,14.34 12.181,27.901 23.092,38.279 z"
       fill="#ffcbd0"
       data-original="#ffcbd0"
       class=""
       id="path6" /><path
       d="m 294.128,235.788 c -1.024,6.369 -3.095,12.715 -7.081,17.77 -5.612,7.104 -14.92,11.045 -23.916,10.31 -4.654,-0.379 -8.863,-1.826 -12.493,-4.075 a 123.326,123.326 0 0 0 -6.547,-24.718 c 2.361,-3.83 5.879,-10.221 8.707,-13.717 6.48,-7.972 13.205,-15.833 20.42,-23.159 2.717,1.024 5.3,2.472 7.616,4.164 5.723,4.142 10.511,9.843 12.604,16.612 1.67,5.412 1.558,11.224 0.69,16.813 z"
       fill="#070528"
       data-original="#070528"
       id="path7" /><circle
       cx="237.76199"
       cy="78.072998"
       r="63.110001"
       style="fill:#171717;fill-opacity:1"
       transform="rotate(-45.001,237.762,78.076)"
       fill="#070528"
       data-original="#070528"
       id="circle7" /><path
       d="m 214.206,220.668 c -4.81,1.047 -9.709,2.093 -14.63,2.004 -8.351,-0.134 -16.612,-3.652 -22.491,-9.575 -0.356,-0.356 -0.69,-0.713 -1.024,-1.091 -4.32,-4.788 -7.148,-10.889 -8.039,-17.258 -0.022,-0.178 -0.045,-0.356 -0.067,-0.557 a 28.439,28.439 0 0 1 -0.245,-3.652 c -0.022,-1.96 0.134,-3.919 -0.223,-5.834 -0.312,-1.692 -1.002,-3.296 -1.737,-4.855 -0.713,-1.47 -1.448,-2.917 -2.182,-4.387 -0.111,-0.2 -0.201,-0.423 -0.312,-0.624 -1.002,-2.027 -1.982,-4.075 -2.806,-6.191 a 44.44,44.44 0 0 1 -2.917,-15.321 v -0.646 c 0.022,-6.391 1.425,-12.782 4.142,-18.572 0.846,-1.781 1.804,-3.518 2.917,-5.166 0.089,-0.178 0.2,-0.334 0.312,-0.49 4.498,-6.703 10.845,-12.136 18.171,-15.521 l 0.535,-0.267 a 48.296,48.296 0 0 1 3.897,-1.514 60.334,60.334 0 0 1 7.482,7.059 c 0.245,0.245 0.468,0.512 0.69,0.757 8.573,9.798 14.697,22.513 17.035,34.917 1.781,9.531 1.514,19.307 1.269,29.038 a 135.279,135.279 0 0 0 -0.089,3.095 c -0.045,1.269 -0.067,2.539 -0.089,3.808 -0.155,10.289 -0.556,20.599 0.401,30.843 z"
       style="fill:#171717;fill-opacity:1"
       fill="#070528"
       data-original="#070528"
       id="path8" /><path
       d="m 200.378,165.442 -0.29,0.468 c -9.976,-6.168 -17.548,-15.499 -24.852,-24.495 -3.407,-4.186 -6.881,-8.484 -10.644,-12.47 0.089,-0.178 0.2,-0.334 0.312,-0.49 3.808,4.053 7.304,8.373 10.756,12.604 7.281,8.973 14.808,18.259 24.718,24.383 z m 4.81,12.693 -0.134,0.534 c -3.407,-0.868 -6.502,-2.583 -9.509,-4.231 l -38.012,-21.111 v -0.646 l 38.302,21.266 c 2.962,1.649 6.012,3.342 9.353,4.188 z m -4.187,5.634 -0.134,0.535 a 1032.833,1032.833 0 0 0 -37.3,-8.841 c -0.111,-0.2 -0.201,-0.423 -0.312,-0.624 a 1045.859,1045.859 0 0 1 37.746,8.93 z m 5.901,8.618 c -3.964,1.381 -8.262,1.292 -12.404,1.225 l -0.913,-0.022 a 204.407,204.407 0 0 0 -25.564,1.158 c -0.022,-0.178 -0.045,-0.356 -0.067,-0.557 a 205.485,205.485 0 0 1 25.631,-1.158 l 0.913,0.022 c 4.12,0.067 8.351,0.156 12.225,-1.202 z"
       style="fill:#767676;fill-opacity:1"
       fill="#5e5695"
       data-original="#5e5695"
       id="path9" /><path
       d="m 300.303,172.833 c 0,-29.726 -24.098,-53.823 -53.823,-53.823 -29.726,0 -53.824,24.098 -53.824,53.823 0,10.558 1.76,18.317 7.012,26.628 l 0.947,2.179 c 0,0 10.992,52.686 67.09,54.202 0,0 14.404,-2.274 25.016,-31.081 10.614,-28.807 7.582,-51.928 7.582,-51.928 z"
       fill="#ffcbd0"
       data-original="#ffcbd0"
       class=""
       id="path10" /><path
       d="m 258.947,202.437 c 4.366,-0.184 8.759,-1.168 12.54,-3.359 3.781,-2.191 6.909,-5.664 8.203,-9.838 -0.244,3.916 -1.328,7.226 -3.91,10.181 -2.581,2.955 -6.354,4.916 -10.276,5.033 -2.069,0.061 -5.013,-0.638 -6.557,-2.017 z m -36.18,-16.087 c -3.304,-2.366 -7.386,-3.897 -11.417,-3.381 -4.031,0.516 -7.877,3.412 -8.725,7.387 5.727,-3.911 13.396,-5.621 20.142,-4.006 z m 31.833,-4.271 c 1.856,-3.615 4.786,-6.843 8.607,-8.229 3.821,-1.385 8.566,-0.569 11.138,2.578 -6.884,-0.859 -14.486,1.129 -19.745,5.651 z m -21.179,26.502 c -4.047,1.65 -8.451,2.583 -12.801,2.164 -4.35,-0.419 -8.639,-2.275 -11.552,-5.533 1.851,3.46 4.215,6.018 7.792,7.631 3.577,1.613 7.823,1.826 11.438,0.3 1.906,-0.805 4.293,-2.665 5.123,-4.562 z m 21.963,13.762 c -1.92,2.89 -5.777,4.335 -9.124,3.419 -1.078,-0.295 -2.152,-0.863 -2.697,-1.839 0.119,0.617 0.408,1.015 0.745,1.546 0.786,1.237 1.618,2.476 2.753,3.403 1.135,0.927 2.632,1.513 4.073,1.245 1.634,-0.304 2.916,-1.656 3.585,-3.178 0.668,-1.522 0.515,-2.941 0.665,-4.596 z"
       fill="#070528"
       data-original="#070528"
       id="path11" /><path
       d="m 265.1,232.2 c -5.449,2.227 -8.882,0.346 -12.233,1.791 -1.626,0.701 -2.936,1.967 -4.46,2.869 a 11.18,11.18 0 0 1 -4.412,1.482 c 1.719,0.706 3.397,1.003 5.199,1.46 2.151,0.546 4.403,0.911 6.587,0.513 2.38,-0.435 4.724,-1.53 6.286,-3.377 1.043,-1.232 2.473,-3.509 3.033,-4.738 z"
       fill="#ff706b"
       data-original="#ff3d37"
       class=""
       opacity="1"
       id="path12" /><path
       d="m 350.712,173.058 v 0.022 c -0.089,0.356 -0.156,0.69 -0.245,1.047 -1.781,7.326 -5.701,14.319 -11.78,18.817 -3.029,2.249 -6.502,3.808 -9.999,5.233 -8.796,3.607 -18.06,6.436 -27.568,6.792 -2.383,-6.703 -3.095,-13.673 -3.941,-20.665 0,-0.178 -0.022,-0.356 -0.067,-0.535 -0.356,-3.184 -0.779,-6.391 -1.381,-9.598 a 54.774,54.774 0 0 0 -0.69,-3.207 c -0.022,-0.178 -0.067,-0.356 -0.111,-0.535 -1.024,-4.32 -2.472,-8.596 -4.543,-12.47 a 2.269,2.269 0 0 0 -0.267,-0.512 c -1.96,-3.63 -4.498,-6.881 -7.705,-9.442 -0.134,-0.156 -0.289,-0.267 -0.445,-0.379 l -0.802,-0.601 a 26.314,26.314 0 0 0 -4.543,-2.605 c -0.2,-0.089 -0.379,-0.178 -0.579,-0.267 a 36.982,36.982 0 0 0 -3.407,-1.292 c -0.2,-0.067 -0.379,-0.111 -0.557,-0.156 -2.672,-0.824 -5.478,-1.403 -8.262,-1.781 -0.178,-0.022 -0.356,-0.067 -0.534,-0.089 -0.067,0 -0.156,-0.022 -0.223,-0.022 -2.316,1.826 -4.431,3.518 -6.413,5.099 v 0.022 c -0.223,0.156 -0.423,0.334 -0.623,0.49 -5.144,4.097 -9.308,7.371 -13.25,9.887 -0.2,0.134 -0.401,0.245 -0.601,0.379 -3.986,2.472 -7.772,4.12 -12.159,5.033 a 4.407,4.407 0 0 1 -0.534,0.111 4.407,4.407 0 0 1 -0.534,0.111 c -2.85,0.49 -6.369,0.445 -9.62,0.223 -0.223,0 -0.401,-0.022 -0.601,-0.044 h -0.022 a 58.96,58.96 0 0 1 -3.162,-0.29 c -2.516,-0.267 -5.077,-0.557 -7.549,-1.136 -0.245,-0.067 -0.49,-0.111 -0.735,-0.2 a 20.659,20.659 0 0 1 -3.251,-1.091 c -2.405,-1.024 -4.543,-2.494 -6.436,-4.275 -0.423,-0.356 -0.824,-0.779 -1.202,-1.18 -0.022,0 -0.022,0 -0.022,-0.022 -2.739,-2.85 -4.921,-6.258 -6.725,-9.754 -5.077,-9.976 -7.571,-21.244 -7.171,-32.423 0.067,-1.492 0.178,-3.006 0.423,-4.498 0,-0.022 0,-0.067 0.022,-0.089 -0.022,-0.022 -0.022,-0.022 0,-0.044 V 107.1 c -0.022,-0.022 -0.022,-0.022 0,-0.045 -0.022,-0.022 -0.022,-0.022 0,-0.045 v -0.022 c 0.022,-0.2 0.067,-0.423 0.089,-0.623 0.49,-2.717 1.381,-5.344 2.962,-7.594 2.115,-3.029 4.699,-5.545 7.638,-7.616 0.178,-0.134 0.379,-0.267 0.579,-0.401 3.63,-2.45 7.772,-4.276 12.181,-5.612 0.178,-0.067 0.356,-0.134 0.557,-0.178 4.654,-1.358 9.575,-2.227 14.541,-2.784 0.178,-0.022 0.356,-0.044 0.557,-0.067 4.431,-0.49 8.863,-0.713 13.116,-0.868 a 53.726,53.726 0 0 1 3.808,-0.022 c 0.2,0 0.401,0 0.579,0.022 3.607,0.089 7.193,0.557 10.644,1.648 0.245,0.089 0.49,0.156 0.735,0.267 0.2,0.045 0.423,0.134 0.624,0.223 4.298,1.626 8.239,4.365 10.756,8.195 0.245,-0.178 0.49,-0.334 0.735,-0.512 0.156,-0.111 0.312,-0.223 0.49,-0.334 7.749,-5.189 17.147,-8.061 26.522,-8.395 0.178,-0.022 0.356,-0.022 0.557,-0.022 2.071,-0.067 4.12,0 6.168,0.2 5.656,0.535 11.179,2.071 16.301,4.454 0.178,0.089 0.334,0.156 0.49,0.245 5.612,2.672 10.733,6.347 14.987,10.867 0.178,0.178 0.334,0.356 0.49,0.557 0.156,0.134 0.289,0.289 0.379,0.445 3.541,3.897 6.413,8.306 8.863,12.938 0.111,0.178 0.223,0.356 0.312,0.535 a 108.527,108.527 0 0 1 3.207,6.703 123.33,123.33 0 0 1 4.699,12.337 c 0.067,0.223 0.156,0.423 0.2,0.646 a 111.177,111.177 0 0 1 4.053,17.169 c 0.044,0.245 0.089,0.49 0.111,0.735 0.089,0.49 0.156,0.98 0.223,1.47 0.953,7.123 1.175,14.405 -0.339,21.442 z"
       style="fill:#171717;fill-opacity:1"
       fill="#070528"
       data-original="#070528"
       id="path13" /><path
       d="m 350.712,173.08 c -0.089,0.356 -0.156,0.69 -0.245,1.047 -13.272,13.45 -31.243,22.38 -50.126,24.117 l -0.044,-0.557 c 19.061,-1.759 37.165,-10.867 50.415,-24.607 z"
       style="fill:#767676;fill-opacity:1"
       fill="#5e5695"
       data-original="#5e5695"
       id="path14" /><path
       d="m 304.851,188.424 c 0.298,3.502 0.593,7.058 -0.081,10.508 -0.674,3.45 -2.456,6.84 -5.463,8.661 0.843,-0.511 -3.224,-11.322 -2.896,-12.944 0.626,-3.099 5.935,-4.78 8.44,-6.225 z"
       fill="#ffcbd0"
       data-original="#ffcbd0"
       class=""
       id="path15" /><path
       d="m 313.524,87.213 c -7.794,20.643 -18.371,42.844 -36.899,57.208 -0.2,-0.089 -0.379,-0.178 -0.579,-0.267 18.594,-14.274 29.172,-36.52 36.988,-57.185 0.178,0.088 0.334,0.155 0.49,0.244 z m 15.855,11.869 c -10.355,17.436 -25.631,36.676 -46.964,48.924 -0.134,-0.156 -0.289,-0.267 -0.445,-0.379 21.378,-12.225 36.698,-31.532 47.031,-48.991 0.155,0.134 0.289,0.29 0.378,0.446 z m 9.174,13.472 c -11.646,18.973 -28.548,34.895 -48.167,45.405 a 2.269,2.269 0 0 0 -0.267,-0.512 c 19.618,-10.488 36.52,-26.433 48.122,-45.428 0.112,0.179 0.223,0.357 0.312,0.535 z m 8.106,19.686 a 122.949,122.949 0 0 1 -34.561,30.998 c -6.035,3.63 -11.691,6.191 -17.058,7.727 -0.022,-0.178 -0.067,-0.356 -0.111,-0.535 5.3,-1.536 10.889,-4.075 16.88,-7.683 13.428,-8.039 25.23,-18.683 34.65,-31.154 0.067,0.224 0.156,0.424 0.2,0.647 z m 4.164,17.904 c -7.705,9.843 -15.365,17.191 -23.694,22.825 -9.509,6.436 -19.841,10.31 -29.951,11.335 0,-0.178 -0.022,-0.356 -0.067,-0.535 9.999,-1.024 20.287,-4.899 29.706,-11.245 8.395,-5.678 16.122,-13.138 23.894,-23.115 0.046,0.245 0.09,0.49 0.112,0.735 z m -153.251,4.988 c -0.423,-0.356 -0.824,-0.779 -1.202,-1.18 -0.022,0 -0.022,0 -0.022,-0.022 -6.903,-14.252 -13.717,-30.04 -13.472,-46.675 0,-0.022 0,-0.067 0.022,-0.089 -0.022,-0.022 -0.022,-0.022 0,-0.044 V 107.1 c -0.022,-0.022 -0.022,-0.022 0,-0.045 -0.022,-0.022 -0.022,-0.022 0,-0.045 v -0.022 c -0.022,-0.2 0,-0.423 0,-0.623 h 0.089 l 0.468,0.022 c -0.536,17.391 6.857,33.914 14.117,48.745 z m 66.249,-14.208 c -0.178,-0.022 -0.356,-0.067 -0.534,-0.089 4.899,-16.011 4.766,-33.737 -0.289,-49.77 0.156,-0.111 0.312,-0.223 0.49,-0.334 5.12,16.145 5.298,34.027 0.333,50.193 z m 26.744,-58.61 c -1.069,10.221 -2.449,20.598 -5.01,30.641 -2.962,11.646 -7.282,21.667 -12.916,29.907 -0.2,-0.067 -0.379,-0.111 -0.557,-0.156 5.634,-8.217 9.976,-18.238 12.938,-29.884 2.539,-9.976 3.897,-20.287 4.988,-30.486 0.178,-0.022 0.357,-0.022 0.557,-0.022 z m -82.572,78.385 c -0.245,-0.067 -0.49,-0.111 -0.735,-0.2 -9.731,-20.866 -14.497,-45.183 -13.673,-69.344 0.178,-0.134 0.379,-0.267 0.579,-0.401 -0.912,24.384 3.92,48.946 13.829,69.945 z m 11.335,1.47 c -0.223,0 -0.401,-0.022 -0.601,-0.044 h -0.022 c -7.749,-24.473 -11.98,-50.772 -12.359,-76.982 0.178,-0.067 0.356,-0.134 0.557,-0.178 0.356,26.298 4.609,52.664 12.425,77.204 z m 10.689,-0.446 a 4.407,4.407 0 0 1 -0.534,0.111 636.696,636.696 0 0 0 -8.039,-79.654 c 0.178,-0.022 0.356,-0.044 0.557,-0.067 a 632.267,632.267 0 0 1 8.016,79.61 z m 12.76,-5.411 c -0.2,0.134 -0.401,0.245 -0.601,0.379 a 246.018,246.018 0 0 0 -3.251,-75.468 c 0.2,0 0.401,0 0.579,0.022 a 246.979,246.979 0 0 1 3.273,75.067 z m 13.873,-10.399 v 0.022 c -0.223,0.156 -0.423,0.334 -0.623,0.49 2.583,-20.643 -0.713,-42.266 -5.144,-63.265 0.2,0.045 0.423,0.134 0.624,0.223 4.364,20.776 7.593,42.11 5.143,62.53 z"
       style="fill:#767676;fill-opacity:1"
       fill="#5e5695"
       data-original="#5e5695"
       id="path16" /><path
       d="m 251.407,308.528 72.775,-54.581 9.855,7.581 -82.251,63.678 z"
       fill="#ffffff"
       data-original="#ffffff"
       class=""
       id="path17" /><path
       d="M 444.845,501.695 H 153.73 c 0,-0.4 0,-0.8 -0.021,-1.2 v -0.042 c -0.021,-2.758 -0.063,-5.664 -0.084,-8.654 a 1464.37,1464.37 0 0 1 -0.063,-13.877 c -0.042,-9.813 0,-20.341 0.147,-31.08 0.042,-3.411 0.105,-6.844 0.168,-10.276 0,-0.379 0.021,-0.758 0.021,-1.116 v -0.653 c 0.084,-3.011 0.147,-6.001 0.232,-8.991 0,-0.379 0.021,-0.737 0.021,-1.095 0.021,-0.295 0.021,-0.569 0.042,-0.863 v -0.021 l 0.063,-2.042 v -0.021 c 0.084,-3.201 0.21,-6.38 0.316,-9.539 0.021,-0.379 0.042,-0.758 0.042,-1.158 0.126,-2.906 0.253,-5.812 0.4,-8.676 v -0.084 l 0.063,-1.011 c 0.147,-2.948 0.316,-5.854 0.484,-8.717 v -0.042 c 0.105,-1.558 0.211,-3.116 0.316,-4.633 v -0.021 c 0.568,-8.402 1.284,-16.277 2.169,-23.331 1.579,-12.676 3.664,-22.7 6.422,-28.238 0.211,-0.421 0.421,-0.821 0.653,-1.2 0.084,-0.147 0.168,-0.295 0.253,-0.421 12.761,-20.173 38.092,-42.599 59.634,-54.938 0.442,-0.274 0.863,-0.505 1.306,-0.758 9.813,-5.496 18.762,-8.802 25.268,-8.76 h 0.211 v 54.98 c 0,0 0.021,-0.021 0.084,-0.063 l 0.274,-0.232 c 1.769,-1.579 10.044,-8.823 21.057,-18.13 0.274,-0.253 0.569,-0.484 0.863,-0.716 a 1373.422,1373.422 0 0 1 19.457,-16.151 c 13.94,-11.287 28.617,-22.594 39.293,-29.333 4.759,-3.011 8.718,-5.117 11.455,-5.896 0,0 7.117,-1.221 14.951,1.727 0.442,0.169 0.884,0.337 1.327,0.548 4.148,1.79 8.381,4.822 11.771,9.855 10.234,15.182 10.234,31.859 10.234,31.859 0,0 37.903,41.693 54.201,107.265 15.076,60.622 9.074,91.428 8.085,95.745 z"
       fill="#ff706b"
       data-original="#ff3d37"
       class=""
       opacity="1"
       id="path18" /><path
       d="m 190.222,501.695 h -54.643 l 16.003,-8.76 2.043,-1.137 29.754,-16.298 0.168,0.61 z"
       fill="#ff706b"
       data-original="#ff3d37"
       class=""
       opacity="1"
       id="path19" /><path
       d="m 183.379,475.5 c 0,0 -7.854,8.17 -20.446,18.088 l -0.316,0.232 a 223.527,223.527 0 0 1 -8.907,6.675 c -0.548,0.4 -1.116,0.8 -1.706,1.2 h -32.365 l 27.353,-22.257 1.327,-1.095 5.243,-0.421 z"
       fill="#070528"
       data-original="#070528"
       id="path20" /><path
       d="m 316.165,501.695 h -36.618 c -9.476,-3.685 -18.13,-8.107 -20.741,-8.865 -3.98,-1.137 -22.173,-20.741 -19.057,-23.31 3.138,-2.548 20.762,10.802 20.762,10.802 l 5.391,-4.254 c 0,0 -47.463,-18.762 -45.757,-23.31 1.621,-4.338 43.399,9.097 47.442,10.402 -4.085,-1.579 -47.105,-18.067 -45.736,-23.773 0.042,-0.147 0.105,-0.295 0.211,-0.421 0.99,-1.284 4.99,-1.221 10.339,-0.442 h 0.084 c 4.127,0.611 9.012,1.642 13.919,2.822 2.78,0.632 5.559,1.327 8.212,2.022 a 525.125,525.125 0 0 1 17.056,4.78 c -1.074,-0.442 -6.359,-2.506 -12.887,-5.285 h -0.021 a 424.305,424.305 0 0 1 -11.329,-5.012 49.995,49.995 0 0 1 -1.095,-0.526 23.066,23.066 0 0 0 -1.074,-0.484 h -0.042 c -9.686,-4.633 -17.941,-9.391 -16.551,-11.666 1.074,-1.769 7.981,-0.653 16.803,1.706 9.918,2.632 22.236,6.822 31.417,10.234 0.379,0.126 0.758,0.274 1.137,0.421 2.253,0.842 4.296,1.621 6.022,2.316 2.653,1.074 4.59,1.895 5.454,2.379 5.686,3.138 11.371,11.371 15.351,18.193 3.011,5.159 7.749,8.844 9.876,10.339 0.695,0.505 1.116,0.758 1.116,0.758 z"
       fill="#ffcbd0"
       data-original="#ffcbd0"
       class=""
       id="path21" /><path
       d="m 298.928,371.647 -1.04,-0.397 c 16.57,-43.308 83.769,-72.795 84.445,-73.088 l 0.442,1.022 c -0.673,0.291 -67.446,29.595 -83.847,72.463 z m -42.599,-32.089 -0.837,-0.734 c 29.756,-33.982 65.08,-61.941 104.992,-83.097 l 0.522,0.983 c -39.793,21.093 -75.011,48.967 -104.677,82.848 z m 158.762,134.784 -99.432,-10.171 0.19,7.349 0.821,30.175 h -1.116 l -0.821,-30.933 -0.211,-7.833 0.611,0.063 43.272,4.422 1.327,0.147 h 0.021 l 55.464,5.665 z"
       fill="#070528"
       data-original="#070528"
       id="path22" /><path
       d="m 359.031,468.394 -0.864,-0.703 a 222.725,222.725 0 0 1 29.205,-29.659 l 0.718,0.851 a 221.53,221.53 0 0 0 -29.059,29.511 z M 169.177,440.791 c -4.912,0 -4.999,-0.266 -5.098,-0.561 -0.606,-1.373 -27.007,-44.411 -40.881,-66.974 a 0.557,0.557 0 0 1 0.948,-0.584 c 6.56,10.667 38.453,62.556 40.851,66.929 3.7,0.589 54.492,-1.541 88.279,-3.136 0.346,-0.002 0.569,0.223 0.583,0.53 a 0.558,0.558 0 0 1 -0.53,0.583 c -0.221,0.01 -22.334,1.053 -44.21,1.942 -23.365,0.951 -34.556,1.271 -39.942,1.271 z"
       fill="#070528"
       data-original="#070528"
       id="path23" /><path
       d="m 164.607,440.61 a 0.56,0.56 0 0 1 -0.548,-0.458 l -14.404,-80.735 a 0.557,0.557 0 0 1 0.45,-0.646 0.564,0.564 0 0 1 0.646,0.45 l 14.298,80.138 85.834,-22.964 a 0.558,0.558 0 0 1 0.288,1.076 l -86.421,23.121 a 0.566,0.566 0 0 1 -0.143,0.018 z"
       fill="#070528"
       data-original="#070528"
       id="path24" /><path
       d="m 164.916,440.658 a 0.558,0.558 0 0 1 -0.549,-0.651 l 14.617,-84.738 a 0.564,0.564 0 0 1 0.644,-0.454 c 0.303,0.052 0.506,0.34 0.454,0.644 l -14.407,83.517 75.963,-47.151 a 0.557,0.557 0 0 1 0.588,0.946 l -77.016,47.805 a 0.572,0.572 0 0 1 -0.294,0.082 z"
       fill="#070528"
       data-original="#070528"
       id="path25" /><path
       d="m 165.555,440.09 a 0.556,0.556 0 0 1 -0.464,-0.864 l 49.464,-74.907 a 0.558,0.558 0 0 1 0.929,0.613 l -49.464,74.907 a 0.556,0.556 0 0 1 -0.465,0.251 z"
       fill="#070528"
       data-original="#070528"
       id="path26" /><path
       d="M 117.417,380.688 46.916,304.88 c 0,0 53.065,-84.904 179.664,-51.549 126.599,33.355 121.292,178.906 121.292,178.906 L 246.29,444.366 c 0,0 3.79,-53.823 -36.388,-75.049 -40.178,-21.226 -92.485,11.371 -92.485,11.371 z"
       fill="#ff0000"
       data-original="#ffb569"
       class=""
       opacity="1"
       id="path27" /><path
       d="m 278.117,440.829 -1.113,-0.033 c 0.019,-0.626 1.173,-62.946 -58.454,-94.251 -59.611,-31.297 -117.449,15.382 -118.026,15.858 l -0.707,-0.86 c 0.583,-0.481 58.973,-47.63 119.251,-15.983 60.257,31.635 59.069,94.637 59.049,95.269 z"
       fill="#070528"
       data-original="#070528"
       id="path28" /><path
       d="m 331.586,433.641 c -0.015,-0.29 -1.761,-29.412 -14.756,-62.446 -11.977,-30.446 -36.241,-70.546 -83.814,-88.679 -45.09,-17.187 -90.24,-7.231 -120.179,4.143 -32.477,12.34 -54.561,28.969 -54.781,29.135 l -0.674,-0.886 c 0.221,-0.168 22.41,-16.88 55.029,-29.278 30.127,-11.453 75.574,-21.468 121.001,-4.155 47.965,18.282 72.407,58.676 84.466,89.344 13.053,33.197 14.804,62.469 14.82,62.761 z"
       fill="#070528"
       data-original="#070528"
       id="path29" /><path
       d="m 153.615,500.511 14.946,-11.09 14.95,-12.363 c 0,0 0.995,-22.979 -1.848,-31.507 -2.843,-8.528 -13.266,-24.78 -13.266,-24.78 0,0 1.895,-1.185 2.464,-4.596 0,0 5.875,-1.706 6.254,-6.633 0.379,-4.928 -29.72,-8.839 -32.408,-7.77 -4.169,1.658 -3.222,8.528 -3.222,8.528 0,0 -8.907,-0.189 -10.613,4.738 -1.706,4.927 0.19,7.391 0.19,7.391 0,0 -7.012,5.496 -5.307,10.044 l 1.706,4.548 c 0,0 -4.927,1.895 -4.549,7.581 0.379,5.686 1.327,17.625 3.411,19.141 2.085,1.516 13.077,5.686 17.436,10.044 4.36,4.361 9.856,26.724 9.856,26.724 z"
       fill="#ffcbd0"
       data-original="#ffcbd0"
       class=""
       id="path30" /><path
       d="m 168.611,420.771 15.517,25.538 c 0,0 -5.686,7.202 -19.9,3.98 -14.214,-3.222 -15.256,-7.296 -15.256,-7.296 0,0 2.322,-3.743 0.237,-7.723 0,0 14.64,0.332 11.442,-9.452 0,-10e-4 5.117,-0.499 7.96,-5.047 z m 2.251,-4.039 a 0.558,0.558 0 0 1 -0.135,-1.097 c 3.935,-0.984 5.7,-3.39 6.017,-5.152 0.212,-1.178 -0.147,-2.183 -0.985,-2.756 -2.572,-1.76 -22.391,-6.867 -29.292,-5.597 -1.788,0.328 -3.086,1.12 -3.857,2.352 -1.481,2.366 -0.597,5.637 -0.588,5.669 a 0.559,0.559 0 0 1 -0.388,0.685 0.558,0.558 0 0 1 -0.685,-0.385 c -0.043,-0.152 -1.026,-3.765 0.712,-6.553 0.944,-1.512 2.492,-2.475 4.603,-2.863 7.31,-1.346 27.411,3.92 30.123,5.774 1.197,0.819 1.74,2.267 1.452,3.872 -0.375,2.088 -2.393,4.923 -6.844,6.034 a 0.551,0.551 0 0 1 -0.133,0.017 z"
       fill="#070528"
       data-original="#070528"
       id="path31" /><path
       d="m 161.007,426.398 a 0.556,0.556 0 0 1 -0.165,-1.089 c 7.703,-2.388 8.874,-7.189 9.052,-8.63 l -18.425,-5.37 c -0.058,-0.003 -13.309,-1.898 -18.185,1.622 -4.661,3.366 -1.848,9.006 -1.725,9.244 a 0.55659253,0.55659253 0 0 1 -0.99,0.509 c -0.035,-0.067 -3.379,-6.725 2.063,-10.656 5.24,-3.786 18.51,-1.887 19.075,-1.805 l 18.932,5.513 c 0.238,0.07 0.4,0.287 0.4,0.535 0,0.288 -0.112,7.078 -9.867,10.102 a 0.595,0.595 0 0 1 -0.165,0.025 z"
       fill="#070528"
       data-original="#070528"
       id="path32" /><path
       d="m 127.461,437.578 a 0.556,0.556 0 0 1 -0.45,-0.228 c -0.143,-0.197 -3.489,-4.896 -0.511,-10.355 2.979,-5.467 6.977,-5.229 7.163,-5.216 l 27.327,3.89 a 0.557,0.557 0 0 1 0.458,0.4 c 0.05,0.178 1.193,4.377 -1.357,7.493 -1.979,2.419 -5.571,3.448 -10.686,3.068 a 0.556,0.556 0 0 1 -0.514,-0.596 0.568,0.568 0 0 1 0.596,-0.514 c 4.733,0.354 8.006,-0.542 9.742,-2.663 1.798,-2.198 1.422,-5.143 1.226,-6.139 l -26.911,-3.832 c -0.101,0 -3.452,-0.15 -6.066,4.642 -2.633,4.827 0.309,8.992 0.435,9.167 a 0.558,0.558 0 0 1 -0.452,0.883 z"
       fill="#070528"
       data-original="#070528"
       id="path33" /><path
       d="m 125.566,463.353 a 0.558,0.558 0 0 1 -0.536,-0.405 c -0.256,-0.9 -6.202,-22.081 0.749,-25.756 6.708,-3.544 23.036,-1.751 23.728,-1.671 a 0.56,0.56 0 0 1 0.437,0.307 c 0.062,0.125 1.494,3.091 0.488,5.673 -0.509,1.307 -1.538,2.269 -3.061,2.861 -5.096,1.981 -10.916,3.327 -10.975,3.341 a 0.55708998,0.55708998 0 1 1 -0.249,-1.086 c 0.058,-0.013 5.802,-1.342 10.821,-3.293 1.217,-0.473 2.033,-1.222 2.424,-2.223 0.673,-1.72 -0.031,-3.776 -0.329,-4.507 -2.335,-0.235 -16.853,-1.543 -22.765,1.582 -5.112,2.702 -1.876,18.577 -0.198,24.466 a 0.557,0.557 0 0 1 -0.534,0.711 z"
       fill="#070528"
       data-original="#070528"
       id="path34" /></g></svg>
