<?xml version="1.0" encoding="UTF-8" standalone="no"?>
<!-- Generator: Adobe Illustrator 27.1.1, SVG Export Plug-In . SVG Version: 6.00 Build 0)  -->

<svg
   version="1.1"
   id="Capa_1"
   x="0px"
   y="0px"
   viewBox="0 0 512 512"
   style="enable-background:new 0 0 512 512;"
   xml:space="preserve"
   width="512"
   height="512"
   sodipodi:docname="thailand.svg"
   inkscape:version="1.4 (1:1.4+202410161351+e7c3feb100)"
   xmlns:inkscape="http://www.inkscape.org/namespaces/inkscape"
   xmlns:sodipodi="http://sodipodi.sourceforge.net/DTD/sodipodi-0.dtd"
   xmlns="http://www.w3.org/2000/svg"
   xmlns:svg="http://www.w3.org/2000/svg"><defs
   id="defs132" /><sodipodi:namedview
   id="namedview132"
   pagecolor="#505050"
   bordercolor="#ffffff"
   borderopacity="1"
   inkscape:showpageshadow="0"
   inkscape:pageopacity="0"
   inkscape:pagecheckerboard="1"
   inkscape:deskcolor="#505050"
   inkscape:zoom="1.5683594"
   inkscape:cx="255.6812"
   inkscape:cy="256"
   inkscape:window-width="1920"
   inkscape:window-height="1011"
   inkscape:window-x="0"
   inkscape:window-y="32"
   inkscape:window-maximized="1"
   inkscape:current-layer="g131" />
<g
   id="g132">
	
	<g
   id="g131">
		
		<g
   id="g130">
			<g
   id="g9">
				<g
   id="g4">
					<g
   id="g2">
						
							<ellipse
   transform="matrix(0.1454 -0.9894 0.9894 0.1454 3.1059 441.4482)"
   style="fill:#FF4646;"
   cx="257.091"
   cy="218.926"
   rx="184.59"
   ry="244.209"
   id="ellipse2" />
					</g>
					<g
   style="opacity:0.31;"
   id="g3">
						
							<ellipse
   transform="matrix(0.1454 -0.9894 0.9894 0.1454 -1.3287 443.9576)"
   style="fill:#2B0000;"
   cx="256.326"
   cy="222.748"
   rx="62.68"
   ry="82.925"
   id="ellipse3" />
					</g>
				</g>
				<g
   id="g8">
					<g
   id="g5">
						<path
   style="fill:#2B0000;"
   d="M285.373,280.05c-0.405,0-0.796-0.22-0.996-0.604l-18.345-35.16        c-0.214-0.409-0.155-0.906,0.147-1.255c0.304-0.346,0.792-0.472,1.222-0.323l51.976,18.345        c0.585,0.206,0.891,0.848,0.686,1.432c-0.208,0.585-0.848,0.887-1.432,0.686l-49.29-17.397l17.027,32.634        c0.287,0.549,0.073,1.228-0.476,1.514C285.725,280.009,285.548,280.05,285.373,280.05z"
   id="path4" />
					</g>
					<g
   id="g6">
						<path
   style="fill:#2B0000;"
   d="M267.027,244.89c-0.349,0-0.688-0.165-0.904-0.457c-0.293-0.398-0.292-0.94,0.003-1.336        l46.625-62.676c0.369-0.496,1.072-0.602,1.571-0.231c0.497,0.37,0.601,1.074,0.231,1.571l-44.435,59.73l68.385-24.006        c0.586-0.206,1.227,0.103,1.431,0.687c0.206,0.585-0.102,1.226-0.687,1.431l-71.849,25.223        C267.277,244.869,267.152,244.89,267.027,244.89z"
   id="path5" />
					</g>
					<g
   id="g7">
						<path
   style="fill:#2B0000;"
   d="M267.026,244.89c-0.461,0-0.881-0.285-1.047-0.723l-30.574-80.256        c-0.221-0.579,0.069-1.228,0.649-1.448c0.577-0.223,1.228,0.069,1.448,0.649l29.173,76.579l14.538-74.865        c0.117-0.609,0.704-1.004,1.316-0.888c0.609,0.118,1.007,0.708,0.888,1.316l-15.287,78.727        c-0.095,0.492-0.507,0.862-1.006,0.905C267.091,244.888,267.058,244.89,267.026,244.89z"
   id="path6" />
					</g>
				</g>
			</g>
			<g
   id="g19">
				<g
   id="g10">
					<path
   style="fill:#2B0000;"
   d="M196.612,157.874c0,0,4.586-33.536,36.689-30.096c32.103,3.44,24.937,47.007,24.937,47.007       L196.612,157.874z"
   id="path9" />
				</g>
				<g
   id="g18">
					<g
   id="g11">
						<path
   style="fill:#FFBE5B;"
   d="M190.879,158.447c0,0,5.159-14.331,11.465-16.911l58.473,15.191c0,0,1.72,12.038-0.287,19.491        L190.879,158.447z"
   id="path10" />
					</g>
					<g
   id="g12">
						
							<rect
   x="198.114"
   y="136.042"
   transform="matrix(0.4183 -0.9083 0.9083 0.4183 -2.9612 269.7069)"
   style="fill:#FFBE5B;"
   width="21.931"
   height="2.245"
   id="rect11" />
					</g>
					<g
   id="g13">
						
							<rect
   x="209.532"
   y="139.41"
   transform="matrix(0.3876 -0.9218 0.9218 0.3876 4.1938 287.379)"
   style="fill:#FFBE5B;"
   width="17.727"
   height="2.246"
   id="rect12" />
					</g>
					<g
   id="g14">
						
							<rect
   x="221.989"
   y="142.133"
   transform="matrix(0.3949 -0.9187 0.9187 0.3949 7.4297 297.7926)"
   style="fill:#FFBE5B;"
   width="15.6"
   height="2.246"
   id="rect13" />
					</g>
					<g
   id="g15">
						
							<rect
   x="233.463"
   y="145.358"
   transform="matrix(0.3615 -0.9324 0.9324 0.3615 17.0479 317.8559)"
   style="fill:#FFBE5B;"
   width="14.292"
   height="2.245"
   id="rect14" />
					</g>
					<g
   id="g16">
						
							<rect
   x="243.361"
   y="148.153"
   transform="matrix(0.2718 -0.9623 0.9623 0.2718 38.5382 349.4834)"
   style="fill:#FFBE5B;"
   width="13.701"
   height="2.245"
   id="rect15" />
					</g>
					<g
   id="g17">
						
							<rect
   x="250.32"
   y="150.301"
   transform="matrix(0.2231 -0.9748 0.9748 0.2231 52.3378 368.5216)"
   style="fill:#FFBE5B;"
   width="14.115"
   height="2.246"
   id="rect16" />
					</g>
				</g>
			</g>
			<g
   id="g20">
				<path
   style="fill:#FF9F8F;"
   d="M342.216,494.658H58.166c0,0,29.817-124.388,50.159-145.022      c20.365-20.634,82.559-39.854,82.559-39.854v-43.85l42.189-19.309l8.532-3.907v63.631c0,0,57.906,16.907,77.395,32.961      C338.488,355.361,342.216,494.658,342.216,494.658z"
   id="path19" />
			</g>
			<g
   id="g21">
				<path
   style="fill:#2B0000;"
   d="M231.254,265.123c-1.594,5.568-3.682,11.047-7.05,15.739c-3.368,4.715-8.128,8.577-13.696,10.081      c-6.87,1.841-14.594-0.427-19.624-5.411v-19.601l42.189-19.309C234.128,252.729,232.961,259.129,231.254,265.123z"
   id="path20" />
			</g>
			<g
   id="g38">
				<g
   id="g22">
					<path
   style="fill:#FF9F8F;"
   d="M255.982,215.054c-1.215-0.475-2.485-0.679-3.768-0.643c0.419-2.513,0.672-5.081,0.672-7.714       c0-26.806-21.73-48.536-48.536-48.536c-25.609,0-46.535,19.847-48.357,44.992l-0.083,0.01c0,0,0.004,0.447,0.021,1.223       c-0.036,0.771-0.117,1.531-0.117,2.312c0,2.253,0.207,4.452,0.504,6.623c0.723,11.604,2.715,30.178,8.191,39.429       c8.312,14.045,26.657,24.937,33.822,25.224c7.025,0.281,36.346-15.965,44.249-32.267c0.385,0.218,0.786,0.413,1.205,0.576       c6.414,2.505,14.344-2.454,17.712-11.078C264.866,226.58,262.397,217.559,255.982,215.054z"
   id="path21" />
				</g>
				<g
   id="g34">
					<g
   id="g30">
						<g
   id="g23">
							<path
   style="fill:#2B0000;"
   d="M180.162,216.06c0,2.955-1.9,5.35-4.243,5.35s-4.243-2.395-4.243-5.35         c0-2.955,1.9-5.35,4.243-5.35S180.162,213.105,180.162,216.06z"
   id="path22" />
						</g>
						<g
   id="g24">
							<path
   style="fill:#2B0000;"
   d="M221.819,216.06c0,2.955-1.9,5.35-4.243,5.35s-4.243-2.395-4.243-5.35         c0-2.955,1.9-5.35,4.243-5.35S221.819,213.105,221.819,216.06z"
   id="path23" />
						</g>
						<g
   id="g27">
							<g
   id="g25">
								<path
   style="fill:#2B0000;"
   d="M193.343,235.803c-0.231,0-0.461-0.087-0.64-0.26l-3.382-3.29          c-2.039-1.983-2.314-5.088-0.653-7.383l1.463-2.022l0.821-8.784c0.046-0.505,0.489-0.895,0.998-0.828          c0.504,0.047,0.876,0.494,0.828,0.998l-0.844,9.034c-0.016,0.163-0.074,0.32-0.17,0.453l-1.609,2.225          c-1.123,1.55-0.935,3.65,0.446,4.992l3.382,3.29c0.363,0.353,0.371,0.934,0.018,1.297          C193.82,235.71,193.582,235.803,193.343,235.803z"
   id="path24" />
							</g>
							<g
   id="g26">
								<path
   style="fill:#2B0000;"
   d="M195.517,243.731c-4.147,0-6.4-3.03-6.504-3.174c-0.297-0.409-0.205-0.978,0.201-1.277          c0.408-0.297,0.981-0.209,1.281,0.196c0.091,0.124,2.287,3.013,6.277,2.308c3.949-0.698,4.947-5.784,4.957-5.835          c0.094-0.496,0.588-0.823,1.068-0.733c0.498,0.092,0.826,0.568,0.735,1.066c-0.047,0.26-1.229,6.387-6.441,7.308          C196.539,243.687,196.014,243.731,195.517,243.731z"
   id="path25" />
							</g>
						</g>
						<g
   id="g28">
							<path
   style="fill:#2B0000;"
   d="M168.235,203.601c-0.096,0-0.194-0.016-0.29-0.047c-0.48-0.16-0.74-0.68-0.58-1.161         c0.028-0.083,2.888-8.273,13.003-4.977c0.481,0.157,0.745,0.675,0.587,1.158c-0.157,0.482-0.669,0.742-1.158,0.587         c-8.405-2.748-10.604,3.543-10.692,3.813C168.977,203.358,168.619,203.601,168.235,203.601z"
   id="path27" />
						</g>
						<g
   id="g29">
							<path
   style="fill:#2B0000;"
   d="M225.549,202.731c-0.342,0-0.67-0.192-0.828-0.521c-1.13-2.357-2.707-3.859-4.687-4.463         c-3.708-1.129-7.729,1.193-7.768,1.216c-0.44,0.258-1,0.111-1.256-0.324c-0.257-0.435-0.113-0.997,0.322-1.255         c0.19-0.114,4.731-2.764,9.224-1.396c2.497,0.757,4.454,2.584,5.82,5.428c0.219,0.456,0.026,1.005-0.431,1.224         C225.817,202.701,225.681,202.731,225.549,202.731z"
   id="path28" />
						</g>
					</g>
					<g
   id="g33">
						<g
   id="g31">
							<path
   style="fill:#2B0000;"
   d="M244.864,240.471c-0.053,0-0.108-0.005-0.163-0.015c-0.498-0.089-0.831-0.565-0.741-1.064         c0.828-4.648,2.236-8.393,4.302-11.448c2.545-3.762,6.079-6.349,9.95-7.281c0.487-0.128,0.988,0.182,1.106,0.676         c0.12,0.493-0.184,0.988-0.676,1.106c-3.376,0.814-6.606,3.193-8.859,6.526c-1.92,2.838-3.234,6.352-4.017,10.744         C245.687,240.159,245.3,240.471,244.864,240.471z"
   id="path30" />
						</g>
						<g
   id="g32">
							<path
   style="fill:#2B0000;"
   d="M256.401,238.201c-0.448,0-0.839-0.327-0.906-0.783c-0.362-2.44-0.957-4.082-1.934-5.325         c-1.16-1.475-3.003-2.237-4.491-1.852c-0.479,0.131-0.991-0.165-1.119-0.655c-0.128-0.491,0.166-0.991,0.655-1.119         c2.203-0.582,4.775,0.427,6.397,2.493c1.534,1.953,2.05,4.467,2.305,6.189c0.074,0.501-0.272,0.968-0.773,1.041         C256.491,238.198,256.446,238.201,256.401,238.201z"
   id="path31" />
						</g>
					</g>
				</g>
				<g
   id="g37">
					<g
   id="g35">
						<path
   style="fill:#2B0000;"
   d="M172.439,166.951c0,0,12.421,8.408,30.383,7.643c17.962-0.764,26.943-5.159,26.943-5.159        s-4.204,10.319,2.293,23.504c6.497,13.185,11.083,20.255,11.083,20.255s-1.529,4.968,2.866,13.758l6.207-12.542        c0,0,5.067-0.643,8.889,5.089c0,0,9.363-35.542,2.866-42.803c-6.497-7.261-22.93-13.949-22.93-13.949        S186.58,143.638,172.439,166.951z"
   id="path34" />
					</g>
					<g
   id="g36">
						<path
   style="fill:#2B0000;"
   d="M176.834,165.613c0,0,2.293,12.038-10.319,29.81c-7.625,10.745-10.892,19.491-10.892,19.491        S152.471,176.218,176.834,165.613z"
   id="path35" />
					</g>
				</g>
			</g>
			<g
   id="g42">
				<g
   id="g39">
					<circle
   style="fill:#FFBE5B;"
   cx="247.202"
   cy="244.866"
   r="4.729"
   id="circle38" />
				</g>
				<g
   id="g40">
					<polygon
   style="fill:#FFBE5B;"
   points="246.199,246.443 233.874,268.227 244.766,286.571 256.231,268.8      "
   id="polygon39" />
				</g>
				<g
   id="g41">
					<circle
   style="fill:#FFBE5B;"
   cx="245.052"
   cy="287.574"
   r="4.729"
   id="circle40" />
				</g>
			</g>
			<g
   id="g43">
				<path
   style="fill:#FFBE5B;"
   d="M216.58,397.097c-0.362,0-0.684-0.231-0.798-0.575l-29.045-86.753      c-0.148-0.441,0.09-0.919,0.531-1.065c0.445-0.151,0.919,0.09,1.065,0.531l28.218,84.285l27.506-88.09      c0.138-0.444,0.612-0.692,1.054-0.553c0.445,0.138,0.692,0.61,0.553,1.054l-28.281,90.575c-0.108,0.349-0.43,0.587-0.795,0.591      C216.585,397.097,216.583,397.097,216.58,397.097z"
   id="path42" />
			</g>
			<g
   id="g119">
				<g
   id="g44">
					<path
   style="fill:#B52D2D;"
   d="M296.277,473.687l-6.556,3.323l-1.37,0.696l-13.247,6.713l-1.37,0.696l-8.465,4.288       l-0.943,0.471l-2.65,1.347l-25.057,0.292l-0.898,0.022l-112.308,1.325l-6.309,0.09l-47.465,0.561c0,0-0.314-0.022-0.853-0.135       c-0.022,0-0.022,0-0.022,0c-0.584-0.09-1.459-0.269-2.492-0.561c-5.658-1.504-16.188-6.219-13.472-19.871       c0.067-0.359,0.157-0.741,0.224-1.1c0.157-0.786,0.314-1.572,0.494-2.38c0.674-3.323,1.437-6.803,2.29-10.418       c0.067-0.337,0.157-0.674,0.247-1.033c1.684-7.207,3.705-14.953,6.085-22.924c0.112-0.337,0.202-0.673,0.314-0.988       c0.157-0.539,0.314-1.1,0.494-1.639c0.067-0.269,0.157-0.561,0.247-0.831c2.739-8.846,5.905-17.917,9.61-26.921       c0.09-0.27,0.202-0.516,0.314-0.786c2.762-6.714,5.815-13.359,9.206-19.781v-0.022c0.112-0.247,0.247-0.494,0.382-0.741       c4.513-8.577,9.587-16.795,15.268-24.271c0.18-0.247,0.359-0.472,0.539-0.696c0.853-1.1,1.706-2.178,2.56-3.233       c0.314-0.382,0.606-0.741,0.921-1.1c3.907-4.67,8.083-9.004,12.551-12.91c0.359-0.314,0.719-0.629,1.1-0.943       c0.921-0.763,1.841-1.527,2.784-2.268c0.651-0.516,1.28-1.01,1.953-1.482c4.693-3.503,9.677-6.511,14.976-8.959       c0.853-0.404,1.706-0.786,2.559-1.145c4.356-1.819,8.914-3.256,13.696-4.266l135.278,77.395l1.392,11.092l0.359,2.784       l2.043,16.143l0.359,2.739l1.145,9.003l0.112,1.01l3.009,23.755l0.135,1.033L296.277,473.687z"
   id="path43" />
				</g>
				<g
   id="g112">
					<g
   id="g81">
						<g
   id="g46">
							<g
   id="g45">
								<path
   style="fill:#FFBE5B;"
   d="M130.885,351.066c-1.16-3.887-3.758-7.087-7.344-9.02c-1.203-0.666-2.448-1.138-3.715-1.439          h-0.021c-1.374-0.322-2.77-0.451-4.166-0.387c-0.365,0.322-0.73,0.644-1.095,0.945c0.58-0.064,1.203-0.107,1.782-0.107          c0.816,0,1.654,0.064,2.47,0.215c1.482,0.258,2.942,0.752,4.359,1.503c3.35,1.847,5.82,4.853,6.936,8.547          c0.387,1.353,0.601,2.727,0.601,4.123c0,2.362-0.58,4.703-1.761,6.829c-0.902,1.696-2.126,3.157-3.586,4.338          c-1.439,1.16-3.114,2.062-4.939,2.599c-3.672,1.095-7.559,0.687-10.931-1.117c-3.908-2.126-6.442-5.777-7.258-9.814          c-0.258-1.374-0.344-2.792-0.215-4.209c-0.322,0.365-0.623,0.73-0.923,1.117c-0.021,1.417,0.172,2.813,0.558,4.166          c0.172,0.73,0.408,1.46,0.709,2.147c0.021,0,0.021,0,0.021,0.043c0.644,1.482,1.503,2.856,2.642,4.102          c1.117,1.246,2.491,2.341,4.059,3.178c2.255,1.224,4.725,1.847,7.216,1.847h0.236c0.279-0.021,0.515-0.021,0.795-0.021          c1.138-0.086,2.233-0.301,3.35-0.623c2.062-0.623,3.93-1.632,5.498-2.985c0.709-0.58,1.331-1.224,1.911-1.933          c0-0.021,0.021-0.021,0.021-0.043c0.623-0.752,1.16-1.525,1.611-2.384c0.472-0.881,0.859-1.783,1.138-2.706          C131.744,357.122,131.765,354.03,130.885,351.066z"
   id="path44" />
							</g>
						</g>
						<g
   id="g48">
							<g
   id="g47">
								<path
   style="fill:#FFBE5B;"
   d="M149.847,356.263c-3.608-1.933-7.71-2.362-11.597-1.224c-2.964,0.88-5.519,2.62-7.409,4.939          c-0.623,0.752-1.16,1.568-1.632,2.427c-0.472,0.859-0.837,1.761-1.117,2.663c0,0.021-0.021,0.021-0.021,0.043          c-0.279,0.881-0.473,1.783-0.558,2.684c-0.365,2.706,0.043,5.433,1.117,7.881c0.644,1.525,1.568,2.964,2.684,4.23          c1.138,1.224,2.491,2.276,4.037,3.135c2.255,1.224,4.724,1.847,7.216,1.847h0.236c0.279-0.021,0.515-0.021,0.795-0.021          c1.138-0.086,2.255-0.301,3.35-0.623c2.534-0.752,4.768-2.126,6.55-3.952c0.301-0.3,0.58-0.623,0.859-0.966          c0-0.022,0.021-0.022,0.021-0.065c0.623-0.73,1.16-1.525,1.611-2.362c0.472-0.859,0.837-1.761,1.117-2.663          c0-0.021,0-0.021,0-0.021C159.275,367.387,156.354,359.763,149.847,356.263z M152.66,379.928          c-1.654,1.611-3.672,2.813-5.97,3.5c-3.651,1.095-7.559,0.687-10.931-1.138c-5.24-2.835-8.01-8.483-7.473-14.066          c0.193-1.847,0.73-3.694,1.654-5.412c1.847-3.393,4.875-5.841,8.547-6.936c1.353-0.408,2.749-0.601,4.123-0.601          c2.362,0,4.703,0.58,6.829,1.718c4.81,2.62,7.516,7.581,7.516,12.692c0,2.298-0.537,4.617-1.697,6.786          C154.55,377.759,153.691,378.919,152.66,379.928z"
   id="path46" />
							</g>
						</g>
						<g
   id="g50">
							<g
   id="g49">
								<path
   style="fill:#FFBE5B;"
   d="M176.132,370.458c-6.507-3.522-14.474-1.782-19.027,3.758c0,0,0,0,0,0.021          c-0.601,0.73-1.138,1.525-1.611,2.384c-0.472,0.859-0.837,1.761-1.117,2.641c0,0.043-0.021,0.043-0.021,0.065          c-0.107,0.387-0.215,0.773-0.301,1.181c-0.73,3.178-0.408,6.485,0.859,9.406c0.644,1.503,1.546,2.921,2.684,4.145          c1.138,1.267,2.47,2.341,4.059,3.178c2.255,1.224,4.703,1.847,7.216,1.847c1.46,0,2.921-0.215,4.359-0.644          c2.964-0.859,5.519-2.598,7.409-4.939c0.623-0.73,1.181-1.546,1.632-2.427c0.064-0.107,0.107-0.193,0.15-0.301          c0.408-0.752,0.73-1.546,0.988-2.341c0-0.021,0-0.021,0-0.021C185.56,381.582,182.639,373.98,176.132,370.458z           M172.997,397.624c-3.672,1.095-7.559,0.687-10.952-1.138c-5.734-3.092-8.504-9.556-7.194-15.634          c0.279-1.31,0.73-2.598,1.396-3.823c2.599-4.81,7.559-7.538,12.67-7.538c2.298,0,4.639,0.558,6.808,1.718          c4.81,2.599,7.516,7.559,7.516,12.692c0,2.233-0.515,4.51-1.611,6.636c-0.043,0.043-0.064,0.107-0.086,0.15          C179.697,394.059,176.669,396.507,172.997,397.624z"
   id="path48" />
							</g>
						</g>
						<g
   id="g52">
							<g
   id="g51">
								<path
   style="fill:#FFBE5B;"
   d="M205.038,408.512c-0.515,0.494-1.074,0.945-1.654,1.353c0.322,0.107,0.644,0.215,0.966,0.344          c0.558-0.408,1.095-0.859,1.589-1.374C205.639,408.727,205.338,408.619,205.038,408.512z M205.038,408.512          c-0.515,0.494-1.074,0.945-1.654,1.353c0.322,0.107,0.644,0.215,0.966,0.344c0.558-0.408,1.095-0.859,1.589-1.374          C205.639,408.727,205.338,408.619,205.038,408.512z M205.038,408.512c-0.515,0.494-1.074,0.945-1.654,1.353          c0.322,0.107,0.644,0.215,0.966,0.344c0.558-0.408,1.095-0.859,1.589-1.374          C205.639,408.727,205.338,408.619,205.038,408.512z M210.149,395.305v-0.021c-0.107-0.515-0.215-1.031-0.387-1.525v-0.021          c-0.043-0.215-0.107-0.408-0.193-0.623c-1.181-3.479-3.651-6.55-7.151-8.461c-6.507-3.5-14.474-1.782-19.005,3.758          c0,0,0,0,0,0.021c-0.558,0.666-1.074,1.396-1.503,2.19c-0.064,0.065-0.086,0.129-0.129,0.193          c-0.451,0.88-0.838,1.761-1.138,2.684c-0.902,2.878-0.923,5.949-0.043,8.912c0.172,0.601,0.387,1.16,0.623,1.718          c0,0,0.021,0,0.021,0.021c0.644,1.503,1.525,2.878,2.641,4.08c1.117,1.289,2.513,2.362,4.059,3.221          c0.021,0,0.021,0.021,0.043,0.021c1.117,0.601,2.276,1.031,3.458,1.331c0.43,0.107,0.881,0.215,1.31,0.279h0.021          c0.795,0.129,1.589,0.193,2.384,0.193c0.322,0,0.666-0.021,1.009-0.021h0.064c2.341-0.172,4.617-0.859,6.636-2.062          c0.515-0.301,1.009-0.623,1.482-0.988c0.558-0.408,1.095-0.859,1.589-1.374c0.365-0.344,0.709-0.73,1.031-1.138v-0.021          c0.623-0.709,1.138-1.525,1.611-2.384c0.473-0.838,0.816-1.74,1.117-2.641c0-0.021,0-0.021,0-0.021          c0.021-0.043,0.021-0.107,0.043-0.15c0.193-0.601,0.344-1.224,0.43-1.847c0.15-0.881,0.236-1.761,0.236-2.641          C210.406,397.087,210.321,396.185,210.149,395.305z M208.968,402.112c-0.279,0.945-0.644,1.89-1.138,2.77          c-0.752,1.396-1.697,2.599-2.792,3.629c-0.515,0.494-1.074,0.945-1.654,1.353c-3.629,2.513-8.332,3.286-12.67,1.868          c-0.472-0.172-0.966-0.344-1.439-0.58c-0.301-0.129-0.623-0.279-0.923-0.451c-0.387-0.215-0.773-0.43-1.138-0.687          c-2.792-1.825-4.832-4.596-5.798-7.838c-1.117-3.694-0.708-7.559,1.117-10.952c0.064-0.129,0.129-0.258,0.215-0.365          c2.641-4.574,7.473-7.173,12.477-7.173c2.276,0,4.617,0.558,6.808,1.74c2.964,1.611,5.24,4.188,6.507,7.302          c0.086,0.215,0.172,0.408,0.215,0.623v0.021c0.086,0.193,0.15,0.387,0.215,0.58c0.086,0.322,0.172,0.644,0.236,0.966          c0.215,0.945,0.344,1.933,0.344,2.899c0.022,0.086,0.022,0.193,0.022,0.279c0,0.73-0.065,1.46-0.172,2.169          C209.311,400.888,209.161,401.511,208.968,402.112z M205.038,408.512c-0.515,0.494-1.074,0.945-1.654,1.353          c0.322,0.107,0.644,0.215,0.966,0.344c0.558-0.408,1.095-0.859,1.589-1.374          C205.639,408.727,205.338,408.619,205.038,408.512z M205.038,408.512c-0.515,0.494-1.074,0.945-1.654,1.353          c0.322,0.107,0.644,0.215,0.966,0.344c0.558-0.408,1.095-0.859,1.589-1.374          C205.639,408.727,205.338,408.619,205.038,408.512z"
   id="path50" />
							</g>
						</g>
						<g
   id="g54">
							<g
   id="g53">
								<path
   style="fill:#FFBE5B;"
   d="M224.215,426.379c-3.157,0.623-6.528,0.193-9.578-1.46c-0.816-0.451-1.589-0.945-2.276-1.525          c-1.052-0.859-1.976-1.868-2.727-2.964c-1.825-2.684-2.706-5.927-2.512-9.17c0.064-0.623,0.129-1.246,0.258-1.847          c0.279-1.353,0.752-2.684,1.439-3.973c0.515-0.923,1.095-1.782,1.761-2.556c-0.279-0.129-0.537-0.258-0.773-0.387          c-0.043,0.043-0.064,0.086-0.107,0.129c0,0,0,0,0,0.021c-0.601,0.709-1.138,1.525-1.611,2.384          c-0.472,0.838-0.837,1.74-1.117,2.641v0.021c-0.15,0.451-0.258,0.923-0.365,1.396c-0.129,0.601-0.236,1.224-0.279,1.847          c-0.236,2.513,0.193,5.047,1.181,7.344c0.172,0.43,0.387,0.859,0.623,1.267c0,0,0,0.021,0.021,0.021          c0.215,0.107,0.429,0.236,0.623,0.344c0.58,0.816,1.031,1.675,1.417,2.599c0.451,0.494,0.945,0.966,1.482,1.396          c0.773,0.666,1.632,1.246,2.555,1.761c2.298,1.224,4.789,1.804,7.216,1.804c0.859,0,1.718-0.064,2.555-0.215          c0.408-0.064,0.816-0.15,1.224-0.258l0.193-0.923C225.009,426.185,224.623,426.293,224.215,426.379z M224.215,426.379          c-3.157,0.623-6.528,0.193-9.578-1.46c-0.816-0.451-1.589-0.945-2.276-1.525c-1.052-0.859-1.976-1.868-2.727-2.964          c-1.825-2.684-2.706-5.927-2.512-9.17c0.064-0.623,0.129-1.246,0.258-1.847c0.279-1.353,0.752-2.684,1.439-3.973          c0.515-0.923,1.095-1.782,1.761-2.556c-0.279-0.129-0.537-0.258-0.773-0.387c-0.043,0.043-0.064,0.086-0.107,0.129          c0,0,0,0,0,0.021c-0.601,0.709-1.138,1.525-1.611,2.384c-0.472,0.838-0.837,1.74-1.117,2.641v0.021          c-0.15,0.451-0.258,0.923-0.365,1.396c-0.129,0.601-0.236,1.224-0.279,1.847c-0.236,2.513,0.193,5.047,1.181,7.344          c0.172,0.43,0.387,0.859,0.623,1.267c0,0,0,0.021,0.021,0.021c0.215,0.107,0.429,0.236,0.623,0.344          c0.58,0.816,1.031,1.675,1.417,2.599c0.451,0.494,0.945,0.966,1.482,1.396c0.773,0.666,1.632,1.246,2.555,1.761          c2.298,1.224,4.789,1.804,7.216,1.804c0.859,0,1.718-0.064,2.555-0.215c0.408-0.064,0.816-0.15,1.224-0.258l0.193-0.923          C225.009,426.185,224.623,426.293,224.215,426.379z M224.215,426.379c-3.157,0.623-6.528,0.193-9.578-1.46          c-0.816-0.451-1.589-0.945-2.276-1.525c-1.052-0.859-1.976-1.868-2.727-2.964c-1.825-2.684-2.706-5.927-2.512-9.17          c0.064-0.623,0.129-1.246,0.258-1.847c0.279-1.353,0.752-2.684,1.439-3.973c0.515-0.923,1.095-1.782,1.761-2.556          c-0.279-0.129-0.537-0.258-0.773-0.387c-0.043,0.043-0.064,0.086-0.107,0.129c0,0,0,0,0,0.021          c-0.601,0.709-1.138,1.525-1.611,2.384c-0.472,0.838-0.837,1.74-1.117,2.641v0.021c-0.15,0.451-0.258,0.923-0.365,1.396          c-0.129,0.601-0.236,1.224-0.279,1.847c-0.236,2.513,0.193,5.047,1.181,7.344c0.172,0.43,0.387,0.859,0.623,1.267          c0,0,0,0.021,0.021,0.021c0.215,0.107,0.429,0.236,0.623,0.344c0.58,0.816,1.031,1.675,1.417,2.599          c0.451,0.494,0.945,0.966,1.482,1.396c0.773,0.666,1.632,1.246,2.555,1.761c2.298,1.224,4.789,1.804,7.216,1.804          c0.859,0,1.718-0.064,2.555-0.215c0.408-0.064,0.816-0.15,1.224-0.258l0.193-0.923          C225.009,426.185,224.623,426.293,224.215,426.379z M236.584,410.53c-0.365-3.2-1.74-6.271-3.973-8.654          c-0.172-0.172-0.322-0.344-0.472-0.494c-0.301-0.301-0.623-0.58-0.945-0.837c-0.322-0.258-0.644-0.515-0.988-0.752          c-0.473-0.343-0.966-0.644-1.482-0.923c-3.178-1.718-6.722-2.19-10.029-1.546c-0.236,0.022-0.472,0.086-0.709,0.129          c-0.644,0.15-1.267,0.344-1.89,0.58c-0.58,0.236-1.16,0.494-1.718,0.773h-0.021c-1.16,0.623-2.233,1.396-3.221,2.298          c-0.472,0.43-0.902,0.902-1.331,1.396c-0.043,0.043-0.064,0.086-0.107,0.129c0,0,0,0,0,0.021          c-0.601,0.709-1.138,1.525-1.611,2.384c-0.472,0.838-0.837,1.74-1.117,2.641v0.021c-0.15,0.451-0.258,0.923-0.365,1.396          c-0.129,0.601-0.236,1.224-0.279,1.847c-0.236,2.513,0.193,5.047,1.181,7.344c0.172,0.43,0.387,0.859,0.623,1.267          c0,0,0,0.021,0.021,0.021c0.515,1.052,1.224,2.04,2.04,2.942c0.451,0.494,0.945,0.966,1.482,1.396          c0.773,0.666,1.632,1.246,2.555,1.761c2.298,1.224,4.789,1.804,7.216,1.804c0.859,0,1.718-0.064,2.555-0.215          c0.408-0.064,0.816-0.15,1.224-0.258c0.429-0.107,0.837-0.215,1.224-0.365c0.945-0.322,1.868-0.73,2.727-1.224          c1.525-0.902,2.899-2.061,4.059-3.479c0-0.022,0.021-0.022,0.021-0.043c0.623-0.73,1.138-1.525,1.611-2.384          c0.473-0.859,0.838-1.74,1.117-2.641c0-0.021,0-0.021,0-0.021c0.387-1.203,0.601-2.448,0.666-3.672v-0.021          c0.043-0.58,0.043-1.16,0-1.74C236.649,411.11,236.627,410.831,236.584,410.53z M234.136,419.099          c-1.697,3.135-4.381,5.369-7.473,6.55c-0.408,0.172-0.816,0.322-1.245,0.43c-0.408,0.107-0.795,0.215-1.203,0.301          c-3.157,0.623-6.528,0.193-9.578-1.46c-0.816-0.451-1.589-0.945-2.276-1.525c-1.052-0.859-1.976-1.868-2.727-2.964          c-1.825-2.684-2.706-5.927-2.512-9.17c0.064-0.623,0.129-1.246,0.258-1.847c0.279-1.353,0.752-2.684,1.439-3.973          c0.515-0.923,1.095-1.782,1.761-2.556c0.43-0.494,0.88-0.945,1.353-1.374c1.16-1.009,2.47-1.825,3.865-2.427          c0.451-0.193,0.902-0.365,1.374-0.494c0.666-0.236,1.353-0.387,2.04-0.494c0.236-0.043,0.451-0.086,0.687-0.107          c0.537-0.064,1.074-0.086,1.611-0.086c2.298,0,4.617,0.537,6.807,1.718c0.601,0.322,1.16,0.666,1.675,1.074          c0.343,0.236,0.687,0.516,0.988,0.795c0.086,0.065,0.15,0.129,0.215,0.193c0.258,0.215,0.494,0.451,0.73,0.709          c1.89,2.019,3.135,4.488,3.651,7.151v0.022c0.064,0.322,0.107,0.623,0.15,0.945v0.022c0.064,0.601,0.107,1.16,0.107,1.761          v0.064C235.833,414.653,235.296,416.973,234.136,419.099z M224.215,426.379c-3.157,0.623-6.528,0.193-9.578-1.46          c-0.816-0.451-1.589-0.945-2.276-1.525c-1.052-0.859-1.976-1.868-2.727-2.964c-1.825-2.684-2.706-5.927-2.512-9.17          c0.064-0.623,0.129-1.246,0.258-1.847c0.279-1.353,0.752-2.684,1.439-3.973c0.515-0.923,1.095-1.782,1.761-2.556          c-0.279-0.129-0.537-0.258-0.773-0.387c-0.043,0.043-0.064,0.086-0.107,0.129c0,0,0,0,0,0.021          c-0.601,0.709-1.138,1.525-1.611,2.384c-0.472,0.838-0.837,1.74-1.117,2.641v0.021c-0.15,0.451-0.258,0.923-0.365,1.396          c-0.129,0.601-0.236,1.224-0.279,1.847c-0.236,2.513,0.193,5.047,1.181,7.344c0.172,0.43,0.387,0.859,0.623,1.267          c0,0,0,0.021,0.021,0.021c0.215,0.107,0.429,0.236,0.623,0.344c0.58,0.816,1.031,1.675,1.417,2.599          c0.451,0.494,0.945,0.966,1.482,1.396c0.773,0.666,1.632,1.246,2.555,1.761c2.298,1.224,4.789,1.804,7.216,1.804          c0.859,0,1.718-0.064,2.555-0.215c0.408-0.064,0.816-0.15,1.224-0.258l0.193-0.923          C225.009,426.185,224.623,426.293,224.215,426.379z M224.215,426.379c-3.157,0.623-6.528,0.193-9.578-1.46          c-0.816-0.451-1.589-0.945-2.276-1.525c-1.052-0.859-1.976-1.868-2.727-2.964c-1.825-2.684-2.706-5.927-2.512-9.17          c0.064-0.623,0.129-1.246,0.258-1.847c0.279-1.353,0.752-2.684,1.439-3.973c0.515-0.923,1.095-1.782,1.761-2.556          c-0.279-0.129-0.537-0.258-0.773-0.387c-0.043,0.043-0.064,0.086-0.107,0.129c0,0,0,0,0,0.021          c-0.601,0.709-1.138,1.525-1.611,2.384c-0.472,0.838-0.837,1.74-1.117,2.641v0.021c-0.15,0.451-0.258,0.923-0.365,1.396          c-0.129,0.601-0.236,1.224-0.279,1.847c-0.236,2.513,0.193,5.047,1.181,7.344c0.172,0.43,0.387,0.859,0.623,1.267          c0,0,0,0.021,0.021,0.021c0.215,0.107,0.429,0.236,0.623,0.344c0.58,0.816,1.031,1.675,1.417,2.599          c0.451,0.494,0.945,0.966,1.482,1.396c0.773,0.666,1.632,1.246,2.555,1.761c2.298,1.224,4.789,1.804,7.216,1.804          c0.859,0,1.718-0.064,2.555-0.215c0.408-0.064,0.816-0.15,1.224-0.258l0.193-0.923          C225.009,426.185,224.623,426.293,224.215,426.379z"
   id="path52" />
							</g>
						</g>
						<g
   id="g56">
							<g
   id="g55">
								<path
   style="fill:#FFBE5B;"
   d="M255.01,413.086c-4.961-2.684-10.781-2.319-15.29,0.473          c-0.193,0.107-0.365,0.236-0.558,0.344c-0.322,0.236-0.644,0.494-0.966,0.752c-0.795,0.644-1.546,1.374-2.212,2.19          c0,0,0,0,0,0.021c-0.601,0.709-1.138,1.525-1.611,2.384c-0.473,0.838-0.838,1.74-1.117,2.641          c0,0.021-0.021,0.021-0.021,0.043c-1.095,3.543-0.859,7.301,0.558,10.566c0.644,1.546,1.568,2.964,2.684,4.231          c1.16,1.224,2.491,2.298,4.059,3.135c1.138,0.623,2.341,1.074,3.543,1.396c1.16,0.279,2.319,0.43,3.479,0.43h0.172          c0.687,0,1.331-0.043,1.976-0.129c0.021,0,0.021,0,0.043,0c1.267-0.172,2.491-0.494,3.651-0.966          c0.709-0.258,1.396-0.601,2.062-0.988c2.255-1.331,4.23-3.264,5.583-5.712c0.043-0.064,0.086-0.107,0.107-0.172          c0.108-0.172,0.215-0.365,0.279-0.558c0.065-0.129,0.107-0.236,0.172-0.365c0.086-0.172,0.15-0.344,0.236-0.537          c0.172-0.387,0.301-0.795,0.43-1.203C264.459,424.253,261.538,416.608,255.01,413.086z M261.109,431.812          c-0.064,0.193-0.15,0.387-0.236,0.58c-0.129,0.322-0.279,0.623-0.451,0.923c-1.632,3.028-4.231,5.218-7.194,6.421          c-2.77,1.16-5.906,1.417-8.933,0.666c-1.138-0.279-2.276-0.709-3.372-1.289c-6.958-3.758-9.556-12.52-5.798-19.478          c0.945-1.761,2.19-3.221,3.672-4.381h0.021c0.322-0.258,0.623-0.494,0.966-0.73c0.193-0.129,0.365-0.236,0.558-0.344          c2.255-1.353,4.832-2.083,7.452-2.083c2.298,0,4.639,0.558,6.808,1.74c4.81,2.598,7.516,7.559,7.516,12.67          c0,1.375-0.193,2.77-0.58,4.123C261.409,431.039,261.281,431.425,261.109,431.812z"
   id="path54" />
							</g>
						</g>
						<g
   id="g58">
							<g
   id="g57">
								<path
   style="fill:#FFBE5B;"
   d="M289.327,436.193c-0.966-3.264-2.985-6.056-5.712-7.989c-0.515-0.387-1.074-0.73-1.632-1.031          c-0.515-0.279-1.052-0.537-1.611-0.752l-0.107-0.043c-3.135-1.224-6.593-1.396-9.878-0.408          c-3.114,0.902-5.798,2.77-7.71,5.326c-0.279,0.322-0.515,0.666-0.73,1.031c-0.129,0.15-0.215,0.322-0.301,0.494          c-0.086,0.107-0.15,0.215-0.215,0.344c-0.022,0.043-0.064,0.108-0.086,0.15c-0.107,0.193-0.215,0.387-0.301,0.58          c-2.019,4.123-1.997,8.74-0.279,12.67c0.644,1.546,1.546,2.964,2.684,4.252c1.138,1.224,2.491,2.276,4.037,3.135          c1.396,0.73,2.856,1.245,4.338,1.546c0.966,0.193,1.933,0.301,2.899,0.301h0.022c0.472-0.065,0.966-0.107,1.439-0.107h0.065          c0.945-0.086,1.911-0.279,2.856-0.558h0.021c3.114-0.945,5.798-2.792,7.688-5.369c0.408-0.515,0.794-1.052,1.117-1.654          c0.022,0,0.022,0,0.022-0.021c0.064-0.086,0.107-0.193,0.172-0.301c0.236-0.451,0.451-0.902,0.644-1.353          c0.344-0.816,0.601-1.632,0.794-2.448C290.164,441.454,290.078,438.77,289.327,436.193z M278.847,454.339          c-0.859,0.258-1.74,0.429-2.641,0.515c-0.022,0-0.022,0-0.043,0c-0.473,0.064-0.966,0.086-1.439,0.086h-0.021          c-2.362,0-4.682-0.58-6.808-1.761c-6.958-3.737-9.556-12.477-5.798-19.456c0.086-0.172,0.172-0.322,0.279-0.472          c0.086-0.172,0.193-0.344,0.301-0.494c0.215-0.365,0.472-0.709,0.73-1.031c1.825-2.341,4.316-4.08,7.237-4.939          c1.332-0.408,2.727-0.601,4.123-0.601c2.341,0,4.681,0.58,6.807,1.718c4.81,2.598,7.538,7.559,7.538,12.692          c0,1.804-0.344,3.651-1.074,5.412c-0.172,0.472-0.408,0.945-0.644,1.396c-0.043,0.086-0.107,0.193-0.15,0.279h-0.021          C285.397,450.903,282.433,453.244,278.847,454.339z"
   id="path56" />
							</g>
						</g>
						<g
   id="g60">
							<g
   id="g59">
								<path
   style="fill:#FFBE5B;"
   d="M283.421,456.68c-1.374-0.73-2.835-1.245-4.295-1.546h-0.021          c-0.966-0.193-1.933-0.279-2.899-0.279c-0.022,0-0.022,0-0.043,0c-0.473,0.064-0.966,0.086-1.439,0.086h-0.021          c-0.988,0.086-1.954,0.258-2.878,0.558c-2.964,0.88-5.648,2.641-7.624,5.218c-0.558,0.644-1.009,1.353-1.417,2.126          c-0.58,1.074-1.009,2.19-1.331,3.329c-0.666,2.47-0.666,5.004-0.086,7.409c0.945,4.08,3.586,7.753,7.559,9.9          c1.525,0.795,3.157,1.374,4.811,1.632c0.816,0.129,1.611,0.215,2.427,0.215c1.46,0,2.921-0.236,4.359-0.666          c3.909-1.16,7.108-3.758,9.041-7.345c0.043-0.107,0.107-0.193,0.15-0.301c0.558-1.095,0.966-2.212,1.245-3.35          C292.57,467.117,289.606,460.03,283.421,456.68z M288.833,476.909c-0.172,0.279-0.301,0.558-0.472,0.795          c-1.868,2.964-4.703,5.154-8.074,6.163c-1.697,0.515-3.457,0.687-5.176,0.558c-1.997-0.15-3.951-0.73-5.777-1.718          c-3.694-1.976-6.142-5.369-7.108-9.127c-0.816-3.372-0.472-7.044,1.289-10.329c1.847-3.371,4.875-5.841,8.569-6.936          c0.859-0.279,1.74-0.451,2.641-0.515h0.022c0.472-0.065,0.966-0.107,1.439-0.107h0.065c2.341,0.043,4.638,0.601,6.764,1.74          c5.906,3.221,8.676,9.986,7.087,16.235C289.821,474.783,289.391,475.857,288.833,476.909z"
   id="path58" />
							</g>
						</g>
						<g
   id="g62">
							<g
   id="g61">
								<path
   style="fill:#FFBE5B;"
   d="M295.318,466.022c-0.172-0.065-0.322-0.129-0.473-0.215          c-6.335-3.436-9.062-10.974-6.657-17.566v-0.021c0.215-0.58,0.472-1.138,0.752-1.697c0.043-0.065,0.065-0.129,0.108-0.193          c0.751-1.374,1.675-2.577,2.792-3.608c0.15-0.172,0.301-0.301,0.472-0.451l-0.129-1.009          c-0.15,0.129-0.322,0.258-0.472,0.387c-0.794,0.687-1.525,1.482-2.147,2.341c-0.494,0.601-0.923,1.246-1.289,1.954          c-0.021,0.043-0.064,0.107-0.086,0.15c-0.279,0.558-0.537,1.117-0.752,1.697c-0.258,0.644-0.451,1.31-0.623,1.976          c-1.482,6.528,1.46,13.486,7.624,16.815c0.344,0.172,0.666,0.322,1.009,0.494L295.318,466.022z"
   id="path60" />
							</g>
						</g>
						<g
   id="g64">
							<g
   id="g63">
								<path
   style="fill:#FFBE5B;"
   d="M105.909,425.176c-0.365-0.666-0.773-1.288-1.224-1.89c-1.267-1.761-2.964-3.264-5.004-4.359          c-6.271-3.393-13.851-1.933-18.447,3.092c-0.838,0.902-1.589,1.933-2.191,3.05c-0.515,0.945-0.902,1.911-1.181,2.899          c-1.138,3.758-0.73,7.731,0.945,11.124c0,0.022,0,0.022,0,0.022c0.494,0.966,1.074,1.89,1.761,2.727v0.022          c1.246,1.546,2.792,2.856,4.638,3.844c2.276,1.246,4.768,1.825,7.194,1.825c2.727,0,5.39-0.73,7.731-2.083          c1.482-0.859,2.813-1.954,3.93-3.307c0.666-0.795,1.267-1.632,1.761-2.577c0.429-0.794,0.795-1.611,1.052-2.427          C108.229,433.122,107.778,428.784,105.909,425.176z M85.594,444.955c-6.958-3.758-9.556-12.52-5.777-19.478          c2.577-4.81,7.538-7.538,12.649-7.538c2.298,0,4.66,0.558,6.807,1.718c4.811,2.62,7.538,7.581,7.538,12.692          c0,2.298-0.558,4.617-1.718,6.786C101.314,446.114,92.595,448.713,85.594,444.955z"
   id="path62" />
							</g>
						</g>
						<g
   id="g66">
							<g
   id="g65">
								<path
   style="fill:#FFBE5B;"
   d="M80.569,441.862v-0.022c-0.494-0.966-1.074-1.868-1.761-2.727c0,0,0,0,0-0.022          c-1.246-1.525-2.792-2.856-4.639-3.844c-0.043-0.021-0.086-0.043-0.129-0.064c-3.565-1.868-7.602-2.276-11.446-1.117          c-0.043,0.022-0.086,0.022-0.15,0.043c-0.107,0.301-0.193,0.644-0.301,0.988c0.215-0.107,0.451-0.172,0.666-0.236          c1.374-0.408,2.77-0.601,4.145-0.601c2.341,0,4.682,0.58,6.808,1.761c0,0,0.021,0,0.021,0.022          c4.789,2.577,7.516,7.538,7.516,12.627c0,2.319-0.537,4.66-1.718,6.807c-2.706,5.004-7.967,7.752-13.293,7.516          c-2.104-0.086-4.209-0.644-6.185-1.696c-1.568-0.859-2.942-1.954-4.037-3.286c-0.107,0.365-0.193,0.709-0.258,1.031          c1.117,1.203,2.427,2.212,3.887,2.985c1.16,0.666,2.384,1.117,3.608,1.418c0.924,0.236,1.825,0.365,2.749,0.408          c0.279,0.021,0.58,0.021,0.859,0.021c0.816,0,1.653-0.064,2.491-0.193c1.825-0.301,3.608-0.945,5.218-1.89          c1.826-1.074,3.436-2.513,4.725-4.316c0.344-0.515,0.687-1.031,0.988-1.589c0.086-0.15,0.15-0.322,0.215-0.472          C82.759,451.01,82.609,446.007,80.569,441.862z"
   id="path64" />
							</g>
						</g>
						<g
   id="g68">
							<g
   id="g67">
								<path
   style="fill:#FFBE5B;"
   d="M100.261,450.731c-6.872-3.715-15.376-1.589-19.714,4.682          c-0.322,0.472-0.644,0.966-0.923,1.482c-0.107,0.193-0.193,0.387-0.279,0.58c-1.696,3.436-1.997,7.323-0.923,10.995          c0.494,1.654,1.246,3.2,2.233,4.553c1.331,1.847,3.071,3.393,5.132,4.51c2.276,1.224,4.746,1.804,7.194,1.804          c2.727,0,5.369-0.708,7.71-2.083c1.783-1.031,3.372-2.427,4.639-4.145c0.387-0.558,0.773-1.138,1.095-1.74          c0.086-0.193,0.172-0.387,0.279-0.58C110.247,463.509,107.456,454.597,100.261,450.731z M105.652,470.939          c-0.408,0.773-0.881,1.482-1.417,2.147c-4.252,5.347-11.854,7.044-18.039,3.672c-1.761-0.945-3.264-2.212-4.467-3.737          c-1.095-1.396-1.933-3.028-2.469-4.789c-1.117-3.694-0.709-7.559,1.117-10.931c2.598-4.81,7.559-7.559,12.67-7.559          c2.298,0,4.639,0.58,6.786,1.74c3.393,1.825,5.863,4.853,6.958,8.525c0.408,1.374,0.623,2.749,0.623,4.145          C107.413,466.494,106.811,468.813,105.652,470.939z"
   id="path66" />
							</g>
						</g>
						<g
   id="g70">
							<g
   id="g69">
								<path
   style="fill:#FFBE5B;"
   d="M80.376,474.117c-0.107-0.365-0.236-0.73-0.387-1.095c-1.288-3.414-3.737-6.228-6.958-7.967          c-1.16-0.623-2.384-1.095-3.629-1.374c-1.052-0.258-2.104-0.408-3.178-0.451c-0.988-0.021-1.954,0.043-2.921,0.215          c-0.623,0.086-1.245,0.258-1.868,0.429c-3.221,0.966-5.991,2.921-7.924,5.583c-0.172,0.816-0.322,1.611-0.494,2.384          c0.021-0.064,0.086-0.15,0.129-0.215c1.825-3.372,4.853-5.841,8.526-6.936c1.374-0.408,2.77-0.623,4.123-0.623h0.193          c2.298,0.043,4.574,0.623,6.636,1.74c2.964,1.611,5.218,4.145,6.464,7.216c0.172,0.429,0.344,0.859,0.472,1.31          c0.408,1.374,0.601,2.77,0.601,4.145c0,2.341-0.58,4.682-1.718,6.807c-2.513,4.66-7.237,7.366-12.176,7.538          c1.031,0.279,1.911,0.472,2.491,0.558c0,0,0,0,0.021,0c1.654-0.344,3.243-0.945,4.703-1.782          c2.341-1.374,4.316-3.35,5.691-5.906C81.106,482.106,81.535,478.004,80.376,474.117z"
   id="path68" />
							</g>
						</g>
						<g
   id="g72">
							<g
   id="g71">
								<path
   style="fill:#FFBE5B;"
   d="M134.686,473.667c-0.043-0.172-0.107-0.322-0.172-0.473c-1.181-3.672-3.758-6.7-7.173-8.547          c-7.387-4.016-16.643-1.246-20.637,6.142c-0.107,0.193-0.193,0.387-0.279,0.58c-0.279,0.558-0.515,1.16-0.709,1.74          c-1.052,2.985-1.117,6.206-0.193,9.277c1.16,3.887,3.758,7.108,7.344,9.041c1.353,0.73,2.77,1.224,4.231,1.525          c0.988,0.193,1.976,0.301,2.964,0.301c1.138,0,2.255-0.15,3.35-0.387c4.166-0.923,7.903-3.565,10.093-7.602          C135.416,481.677,135.845,477.575,134.686,473.667z M132.753,484.876c-1.847,3.35-4.875,5.82-8.526,6.936          c-3.694,1.095-7.581,0.687-10.952-1.16c-3.372-1.804-5.841-4.832-6.958-8.525c-0.902-2.985-0.794-6.142,0.279-9.02          c0.236-0.644,0.515-1.289,0.859-1.911c2.599-4.81,7.559-7.538,12.67-7.538c2.298,0,4.639,0.558,6.808,1.718          c3.157,1.697,5.519,4.467,6.679,7.817c0.107,0.236,0.193,0.473,0.258,0.709          C134.986,477.596,134.578,481.483,132.753,484.876z"
   id="path70" />
							</g>
						</g>
						<g
   id="g74">
							<g
   id="g73">
								<path
   style="fill:#FFBE5B;"
   d="M133.118,442.571c-1.181-3.887-3.78-7.108-7.344-9.019          c-6.464-3.522-14.345-1.826-18.898,3.586c-0.644,0.751-1.246,1.632-1.739,2.556c-0.43,0.795-0.795,1.611-1.074,2.448          c-0.966,2.942-1.009,6.099-0.107,9.127c1.138,3.908,3.758,7.13,7.344,9.062c2.276,1.224,4.746,1.825,7.194,1.825          c2.727,0,5.369-0.73,7.71-2.105c2.126-1.224,4.016-3.006,5.369-5.24c0.107-0.215,0.236-0.408,0.344-0.644          c0.193-0.322,0.344-0.666,0.494-1.009C133.913,449.829,134.17,446.114,133.118,442.571z M131.185,453.738          c-3.78,7.001-12.498,9.599-19.499,5.82c-3.35-1.804-5.82-4.853-6.936-8.526c-1.095-3.672-0.687-7.559,1.138-10.931          c2.598-4.81,7.559-7.538,12.649-7.538c2.319,0,4.66,0.558,6.829,1.718c3.372,1.825,5.841,4.853,6.936,8.526          c0.408,1.374,0.601,2.77,0.601,4.145C132.903,449.293,132.324,451.612,131.185,453.738z"
   id="path72" />
							</g>
						</g>
						<g
   id="g76">
							<g
   id="g75">
								<path
   style="fill:#FFBE5B;"
   d="M160.048,456.616c-0.215-0.709-0.473-1.418-0.795-2.083          c-0.601-1.353-1.417-2.577-2.384-3.651c-1.16-1.331-2.556-2.448-4.145-3.307c-3.608-1.933-7.71-2.362-11.618-1.181          c-3.672,1.095-6.765,3.5-8.697,6.764c-0.129,0.193-0.215,0.365-0.322,0.558c-0.193,0.365-0.365,0.73-0.515,1.095          c-1.482,3.307-1.74,7.001-0.687,10.523c0.945,3.2,2.899,5.927,5.541,7.86c0.58,0.43,1.181,0.816,1.804,1.16          c2.298,1.267,4.768,1.847,7.215,1.847c2.706,0,5.369-0.709,7.688-2.083c0.451-0.258,0.88-0.537,1.289-0.859          c0.816-0.58,1.589-1.267,2.276-2.019c0.73-0.795,1.374-1.654,1.954-2.62c0.021-0.064,0.021-0.107,0.065-0.15          c0.064-0.086,0.107-0.172,0.15-0.258c0.043-0.086,0.086-0.193,0.129-0.279c0.516-0.988,0.924-2.019,1.203-3.071          C160.907,462.177,160.864,459.343,160.048,456.616z M158.136,467.804c-0.129,0.215-0.258,0.43-0.365,0.623          c-1.245,2.04-2.899,3.651-4.832,4.81c-4.231,2.577-9.664,2.899-14.302,0.387c-0.236-0.129-0.494-0.279-0.709-0.43          c-3.006-1.847-5.218-4.681-6.228-8.117c-1.095-3.672-0.687-7.559,1.117-10.952c2.598-4.789,7.581-7.516,12.67-7.516          c2.319,0,4.639,0.558,6.829,1.739c3.372,1.804,5.841,4.832,6.936,8.526c0.408,1.375,0.601,2.749,0.601,4.123          c0,2.169-0.494,4.295-1.46,6.271C158.308,467.439,158.222,467.632,158.136,467.804z"
   id="path74" />
							</g>
						</g>
						<g
   id="g78">
							<g
   id="g77">
								<path
   style="fill:#FFBE5B;"
   d="M186.505,473.344c-0.086-0.859-0.258-1.696-0.516-2.534          c-0.365-1.203-0.859-2.384-1.503-3.436c-0.215-0.279-0.43-0.58-0.58-0.902c-1.331-1.954-3.135-3.565-5.261-4.703          c-6.271-3.393-13.851-1.933-18.447,3.092c-0.687,0.709-1.288,1.525-1.804,2.405c-0.129,0.193-0.258,0.43-0.387,0.644          c-0.086,0.193-0.172,0.343-0.236,0.515c-0.473,0.923-0.816,1.847-1.074,2.813c-0.172,0.666-0.301,1.331-0.387,2.019          c-0.279,2.061-0.107,4.188,0.516,6.271c1.16,3.887,3.779,7.087,7.344,9.02c2.255,1.246,4.725,1.847,7.216,1.847          c1.46,0,2.921-0.215,4.381-0.666c3.887-1.138,7.108-3.758,9.041-7.323C186.333,479.594,186.913,476.437,186.505,473.344z           M184.057,481.999c-1.826,3.371-4.853,5.841-8.526,6.936c-3.694,1.095-7.581,0.687-10.952-1.117          c-3.372-1.825-5.841-4.875-6.936-8.547c-0.601-1.976-0.773-4.037-0.473-6.013c0.215-1.611,0.709-3.157,1.482-4.639          c0.021-0.064,0.021-0.107,0.065-0.15c0.021-0.064,0.043-0.107,0.064-0.15c0.065-0.129,0.129-0.258,0.215-0.387          c2.641-4.574,7.452-7.13,12.434-7.13c2.298,0,4.66,0.537,6.808,1.718c3.372,1.825,5.841,4.853,6.936,8.547          c0.215,0.752,0.387,1.503,0.494,2.276C186.054,476.308,185.517,479.315,184.057,481.999z"
   id="path76" />
							</g>
						</g>
						<g
   id="g80">
							<g
   id="g79">
								<path
   style="fill:#FFBE5B;"
   d="M80.977,412.549c0-0.021-0.021-0.043-0.021-0.064c-0.73-2.019-1.911-3.908-3.457-5.455          c-1.031-1.052-2.255-1.976-3.608-2.727c-0.258-0.129-0.494-0.258-0.773-0.387c-0.107,0.279-0.215,0.537-0.322,0.795          c0.236,0.086,0.451,0.236,0.687,0.344c3.586,1.933,6.035,5.197,7.001,8.848v0.022c0.365,1.224,0.537,2.491,0.537,3.78          c0,2.319-0.558,4.66-1.718,6.807c-0.88,1.589-1.997,2.964-3.307,4.08c-3.5,3.006-8.268,4.166-12.799,3.049          c-0.086,0.258-0.172,0.558-0.258,0.816c1.224,0.301,2.448,0.451,3.694,0.451c2.706,0,5.369-0.708,7.709-2.083          c0.43-0.236,0.838-0.494,1.224-0.794c0.838-0.58,1.611-1.289,2.298-2.062c0.816-0.902,1.568-1.933,2.169-3.049          c0.515-0.945,0.902-1.911,1.203-2.899C82.201,418.884,82.029,415.556,80.977,412.549z"
   id="path78" />
							</g>
						</g>
					</g>
					<g
   id="g96">
						<g
   id="g83">
							<g
   id="g82">
								<path
   style="fill:#FFBE5B;"
   d="M105.007,365.648c-0.644-1.482-1.525-2.878-2.642-4.102c0-0.043,0-0.043-0.021-0.043          c-0.387-0.429-0.795-0.837-1.224-1.203c-0.773-0.709-1.632-1.331-2.598-1.89c-0.193,0.236-0.365,0.451-0.537,0.709          c1.009,0.537,1.911,1.203,2.727,1.954c3.028,2.727,4.703,6.636,4.703,10.609c0,2.319-0.58,4.66-1.739,6.829          c-2.77,5.132-8.225,7.903-13.68,7.495c-1.976-0.129-3.93-0.687-5.777-1.675c-0.516-0.301-1.031-0.623-1.503-0.945          c-0.15,0.236-0.279,0.494-0.386,0.73v0.022c0.472,0.344,0.966,0.666,1.482,0.923c1.804,0.966,3.715,1.546,5.648,1.761          c0.086,0,0.15,0.022,0.236,0.022c0.429,0.043,0.88,0.064,1.31,0.064c0.795,0,1.589-0.064,2.341-0.172          c1.89-0.301,3.715-0.945,5.369-1.911c1.525-0.902,2.921-2.062,4.08-3.479c0-0.021,0.021-0.021,0.021-0.043          c0.644-0.73,1.16-1.546,1.632-2.384c0.472-0.859,0.816-1.761,1.117-2.663c-0.021-0.021-0.021-0.021,0-0.021          C106.682,372.691,106.425,368.955,105.007,365.648z"
   id="path81" />
							</g>
						</g>
						<g
   id="g85">
							<g
   id="g84">
								<path
   style="fill:#FFBE5B;"
   d="M131.915,381.539c-0.15-0.558-0.344-1.095-0.601-1.632c-0.644-1.568-1.546-2.985-2.684-4.23          c-1.138-1.267-2.513-2.362-4.08-3.178c-2.298-1.267-4.767-1.847-7.237-1.847c-0.279,0-0.515,0-0.795,0.021          c-4.188,0.215-8.225,2.191-10.952,5.562c-0.021,0-0.021,0,0,0.021c-0.623,0.73-1.138,1.525-1.611,2.384          c-0.473,0.859-0.838,1.761-1.138,2.663c0,0.022-0.021,0.022-0.021,0.043c-1.117,3.608-0.816,7.452,0.666,10.78          c0.558,1.267,1.31,2.47,2.234,3.565c1.203,1.417,2.684,2.641,4.402,3.586c1.847,0.988,3.801,1.568,5.755,1.761          c0.494,0.043,0.966,0.064,1.46,0.064c0.752,0,1.503-0.064,2.255-0.193c1.911-0.258,3.758-0.902,5.433-1.911          c1.546-0.88,2.942-2.062,4.102-3.479c0.623-0.73,1.16-1.525,1.632-2.384c0.473-0.88,0.859-1.782,1.138-2.706          C132.775,387.552,132.796,384.481,131.915,381.539z M110.505,398.547c-3.393-1.847-5.841-4.875-6.937-8.568          c-1.095-3.651-0.709-7.538,1.117-10.931c2.598-4.81,7.538-7.538,12.67-7.538c2.319,0,4.639,0.558,6.808,1.718          c3.372,1.847,5.841,4.875,6.936,8.547c0.408,1.353,0.601,2.749,0.601,4.123c0,2.362-0.58,4.682-1.739,6.829          C126.225,399.685,117.463,402.284,110.505,398.547z"
   id="path83" />
							</g>
						</g>
						<g
   id="g87">
							<g
   id="g86">
								<path
   style="fill:#FFBE5B;"
   d="M158.222,395.734c-0.193-0.558-0.386-1.117-0.623-1.675          c-0.644-1.525-1.546-2.921-2.684-4.145c-1.117-1.289-2.491-2.362-4.059-3.2c-2.319-1.267-4.789-1.847-7.259-1.847          c-0.279,0-0.515,0-0.795,0.021c-4.166,0.215-8.182,2.19-10.931,5.541c-0.623,0.751-1.16,1.546-1.632,2.427          c-0.473,0.859-0.859,1.761-1.138,2.663c-0.923,2.878-0.945,5.992-0.086,8.934c0.193,0.601,0.408,1.181,0.666,1.74          c0.58,1.374,1.374,2.642,2.362,3.78c1.181,1.417,2.642,2.599,4.338,3.522c1.825,0.966,3.737,1.546,5.669,1.718          c0.515,0.086,1.031,0.107,1.546,0.107c0.795,0,1.589-0.086,2.362-0.193c1.89-0.279,3.672-0.945,5.347-1.911          c1.546-0.902,2.942-2.062,4.102-3.479v-0.021c0.601-0.709,1.138-1.525,1.611-2.384c0.473-0.859,0.859-1.761,1.16-2.684          C159.06,401.768,159.081,398.698,158.222,395.734z M136.79,412.721c-3.393-1.804-5.841-4.853-6.936-8.526          c-1.095-3.672-0.687-7.559,1.117-10.931c2.62-4.81,7.559-7.538,12.67-7.538c2.319,0,4.66,0.558,6.807,1.718          c3.393,1.825,5.863,4.853,6.936,8.526c0.408,1.374,0.601,2.77,0.601,4.166c0,2.362-0.58,4.66-1.718,6.786          C152.489,413.902,143.748,416.5,136.79,412.721z"
   id="path85" />
							</g>
						</g>
						<g
   id="g89">
							<g
   id="g88">
								<path
   style="fill:#FFBE5B;"
   d="M183.885,408.232c-0.666-1.482-1.525-2.878-2.641-4.08c0-0.021-0.021-0.021-0.021-0.021          c-1.117-1.289-2.491-2.384-4.059-3.243c-6.507-3.5-14.474-1.761-18.984,3.758c-0.644,0.73-1.181,1.546-1.654,2.427          c-0.473,0.859-0.816,1.739-1.117,2.641v0.021c-1.138,3.608-0.88,7.409,0.601,10.738c0.558,1.31,1.331,2.534,2.298,3.651          c1.16,1.417,2.641,2.641,4.381,3.586c1.804,0.966,3.715,1.546,5.648,1.718c0.515,0.065,1.031,0.086,1.546,0.086          c0.795,0,1.589-0.064,2.362-0.172c1.868-0.301,3.694-0.945,5.347-1.911c1.546-0.902,2.942-2.062,4.102-3.5          c0.623-0.709,1.16-1.525,1.632-2.405c0.473-0.859,0.816-1.739,1.117-2.641c-0.021-0.021,0-0.021,0-0.043          C185.56,415.298,185.302,411.54,183.885,408.232z M163.097,426.937c-7.001-3.78-9.599-12.499-5.82-19.456          c2.599-4.81,7.538-7.559,12.649-7.559c2.319,0,4.66,0.58,6.807,1.739c4.81,2.598,7.559,7.538,7.559,12.67          c0,2.298-0.58,4.639-1.739,6.786C178.795,428.118,170.055,430.717,163.097,426.937z"
   id="path87" />
							</g>
						</g>
						<g
   id="g91">
							<g
   id="g90">
								<path
   style="fill:#FFBE5B;"
   d="M210.793,424.146c-0.064-0.258-0.15-0.516-0.236-0.773c-0.107-0.301-0.236-0.58-0.365-0.859          c-0.387-0.923-0.838-1.782-1.417-2.599c-0.365-0.58-0.795-1.117-1.267-1.632c-1.16-1.267-2.491-2.341-4.059-3.178          c-2.255-1.203-4.725-1.847-7.216-1.847h-0.064c-0.838,0-1.697,0.086-2.534,0.236h-0.021          c-0.279,0.043-0.516,0.107-0.795,0.172c-0.322,0.064-0.644,0.172-0.966,0.258c-0.279,0.086-0.558,0.172-0.838,0.279          c-2.577,0.924-4.853,2.513-6.571,4.639c0,0.022-0.021,0.022,0,0.043c-0.623,0.73-1.181,1.525-1.611,2.384          c-0.473,0.837-0.838,1.739-1.138,2.663c-0.923,2.899-0.966,5.97-0.086,8.934c0.172,0.58,0.386,1.181,0.666,1.739          c0.58,1.353,1.353,2.641,2.341,3.758c1.203,1.417,2.684,2.62,4.359,3.522c1.782,0.988,3.715,1.589,5.669,1.761          c0.515,0.065,1.031,0.086,1.546,0.086c0.773,0,1.568-0.064,2.341-0.172c0.687-0.107,1.353-0.279,2.04-0.472          c2.964-0.881,5.519-2.577,7.409-4.918c0.623-0.751,1.16-1.546,1.632-2.427c0.473-0.88,0.859-1.804,1.138-2.727          c0.043-0.129,0.064-0.215,0.107-0.344v-0.022C211.652,429.901,211.63,426.937,210.793,424.146z M208.839,435.334          c-1.804,3.372-4.832,5.841-8.525,6.936c-3.672,1.095-7.559,0.709-10.931-1.117s-5.841-4.853-6.936-8.526          c-1.095-3.694-0.709-7.581,1.117-10.974c1.804-3.307,4.789-5.777,8.418-6.893c0.021,0,0.021,0,0.021,0          c0.021-0.021,0.043-0.021,0.086-0.043c0.601-0.172,1.224-0.301,1.825-0.408c0.408-0.065,0.794-0.107,1.203-0.15h0.021          c0.365-0.022,0.73-0.043,1.095-0.043c2.362,0,4.682,0.58,6.808,1.761c1.482,0.795,2.792,1.826,3.887,3.071          c0.902,0.988,1.654,2.126,2.255,3.35v0.022c0.322,0.666,0.601,1.353,0.816,2.083c0.408,1.374,0.601,2.749,0.601,4.123          c0,1.203-0.15,2.384-0.429,3.543C209.848,433.186,209.419,434.282,208.839,435.334z"
   id="path89" />
							</g>
						</g>
						<g
   id="g93">
							<g
   id="g92">
								<path
   style="fill:#FFBE5B;"
   d="M237.1,438.362c-0.172-0.558-0.365-1.095-0.623-1.632c-0.644-1.568-1.546-2.985-2.684-4.231          c-1.117-1.267-2.491-2.341-4.037-3.178c-1.16-0.623-2.384-1.095-3.608-1.396c-0.365-0.107-0.73-0.172-1.095-0.236          c-0.365-0.064-0.751-0.107-1.117-0.15c-1.933-0.172-3.887,0.022-5.798,0.601c-2.835,0.816-5.283,2.448-7.173,4.617          c-0.064,0.086-0.15,0.172-0.215,0.258c-0.601,0.773-1.16,1.589-1.632,2.448c-0.472,0.88-0.859,1.782-1.138,2.706          c-0.902,2.878-0.945,5.949-0.086,8.891c0.215,0.644,0.43,1.246,0.73,1.868c0.558,1.31,1.331,2.534,2.233,3.608          c1.224,1.439,2.706,2.641,4.402,3.565c0.666,0.365,1.353,0.666,2.04,0.902c0.344,0.15,0.709,0.258,1.074,0.344          c0.365,0.129,0.73,0.215,1.095,0.279c0.494,0.107,0.966,0.193,1.46,0.236c0.515,0.065,1.031,0.086,1.546,0.086          c0.794,0,1.568-0.064,2.362-0.172c0.666-0.129,1.353-0.279,2.019-0.472c0.494-0.15,0.988-0.322,1.482-0.516          c3.178-1.31,5.798-3.629,7.473-6.679c0.021-0.043,0.064-0.107,0.086-0.15c0.107-0.215,0.236-0.429,0.322-0.623          C237.873,445.921,238.195,442.034,237.1,438.362z M235.146,449.55c-1.654,3.05-4.274,5.347-7.495,6.571          c-0.344,0.129-0.687,0.258-1.052,0.365c-2.298,0.687-4.681,0.773-6.958,0.322c-0.365-0.086-0.73-0.172-1.095-0.279          c-0.365-0.107-0.73-0.215-1.074-0.344c-0.623-0.236-1.224-0.494-1.804-0.816c-3.372-1.847-5.841-4.875-6.936-8.547          c-1.095-3.672-0.687-7.559,1.117-10.952c0.494-0.923,1.074-1.761,1.739-2.534c1.782-2.083,4.123-3.608,6.808-4.402          c1.353-0.408,2.749-0.601,4.123-0.601c0.408,0,0.816,0.021,1.224,0.064c0.387,0.021,0.752,0.064,1.138,0.129          c0.365,0.064,0.73,0.129,1.095,0.215c1.16,0.301,2.298,0.73,3.372,1.31c3.372,1.847,5.841,4.875,6.937,8.547          c0.408,1.375,0.601,2.727,0.601,4.123C236.885,445.083,236.305,447.424,235.146,449.55z"
   id="path91" />
							</g>
						</g>
						<g
   id="g95">
							<g
   id="g94">
								<path
   style="fill:#FFBE5B;"
   d="M264.051,452.449c-0.15-0.558-0.344-1.095-0.601-1.632c-0.644-1.589-1.568-3.028-2.684-4.252          c-1.16-1.267-2.491-2.341-4.059-3.157c-0.966-0.515-1.976-0.945-3.006-1.246c-1.289-0.365-2.62-0.58-3.952-0.601          c-0.021,0-0.021,0-0.043,0c-0.709,0-1.439,0.043-2.147,0.129c-0.816,0.107-1.611,0.279-2.427,0.515          c-0.494,0.15-0.966,0.322-1.417,0.515c-3.178,1.289-5.798,3.586-7.495,6.614c-0.043,0.064-0.086,0.15-0.129,0.215          c-0.107,0.172-0.215,0.365-0.279,0.558c-1.654,3.329-1.954,7.022-1.095,10.394c0.988,3.994,3.608,7.581,7.516,9.685          c1.782,0.966,3.715,1.546,5.669,1.74c0.515,0.086,1.031,0.107,1.546,0.107c0.258,0,0.537,0,0.816-0.043          c0.494-0.022,1.009-0.086,1.525-0.15c0.687-0.107,1.353-0.258,2.04-0.472c3.071-0.902,5.712-2.706,7.624-5.197          c0.537-0.666,1.009-1.374,1.417-2.148c0.58-1.052,1.009-2.169,1.331-3.307C264.91,458.011,264.867,455.155,264.051,452.449z           M253.571,470.574c-1.417,0.429-2.856,0.623-4.295,0.601c-2.298-0.043-4.574-0.601-6.636-1.74          c-3.479-1.89-5.884-5.004-6.936-8.526c-1.052-3.522-0.773-7.452,1.117-10.952c1.525-2.77,3.801-4.918,6.614-6.206          c0.601-0.301,1.246-0.537,1.911-0.73c1.374-0.408,2.77-0.601,4.145-0.601c1.482,0,2.964,0.236,4.381,0.709          c0.837,0.258,1.654,0.601,2.448,1.031c3.35,1.825,5.82,4.853,6.937,8.526c0.387,1.353,0.601,2.749,0.601,4.145          c0,2.319-0.58,4.66-1.74,6.807C260.293,466.988,257.265,469.457,253.571,470.574z"
   id="path93" />
							</g>
						</g>
					</g>
					<g
   id="g111">
						<g
   id="g98">
							<g
   id="g97">
								<path
   style="fill:#FFBE5B;"
   d="M105.695,395.691c-0.558-1.289-1.289-2.47-2.234-3.565c-1.181-1.439-2.684-2.706-4.424-3.651          c-1.825-0.966-3.758-1.546-5.691-1.74c-1.203-0.15-2.448-0.107-3.651,0.065c-0.086,0-0.15,0-0.236,0.021          c-4.531,0.709-8.698,3.457-11.038,7.817c-2.169,3.973-2.341,8.461-0.923,12.391c0.709,2.019,1.868,3.887,3.436,5.476          c0.021,0.022,0.021,0.022,0.043,0.043c1.009,1.052,2.233,1.976,3.586,2.706c2.298,1.246,4.768,1.825,7.216,1.825          c2.706,0,5.369-0.709,7.71-2.083c1.546-0.902,2.942-2.062,4.102-3.479v-0.021c0.601-0.73,1.138-1.525,1.611-2.384          c0.473-0.859,0.838-1.761,1.117-2.642c-0.021-0.022-0.021-0.022,0-0.043C107.456,402.821,107.176,398.998,105.695,395.691z           M84.971,414.503c-1.439-0.773-2.684-1.761-3.737-2.899c-4.037-4.381-5.068-11.017-2.083-16.579          c2.19-4.016,6.035-6.593,10.222-7.323c0.795-0.15,1.632-0.215,2.448-0.215c2.319,0,4.639,0.558,6.808,1.74          c4.81,2.598,7.538,7.538,7.538,12.649c0,2.319-0.558,4.66-1.718,6.829C100.669,415.663,91.929,418.283,84.971,414.503z"
   id="path96" />
							</g>
						</g>
						<g
   id="g100">
							<g
   id="g99">
								<path
   style="fill:#FFBE5B;"
   d="M132.689,411.711c-0.172-0.601-0.408-1.181-0.644-1.74c-0.601-1.374-1.396-2.663-2.362-3.78          c-1.203-1.417-2.684-2.598-4.359-3.5c-1.804-0.988-3.758-1.568-5.755-1.782c-1.224-0.107-2.491-0.086-3.715,0.129          c-0.709,0.086-1.417,0.236-2.126,0.451c-2.921,0.859-5.498,2.599-7.409,4.939c-0.021,0.021-0.021,0.021,0,0.043          c-0.623,0.73-1.16,1.525-1.611,2.362c-0.473,0.859-0.838,1.761-1.117,2.663v0.021c-1.267,3.973-0.795,8.225,1.095,11.768          c0.451,0.601,0.859,1.224,1.224,1.89c1.246,1.718,2.942,3.2,4.961,4.295c2.276,1.246,4.746,1.825,7.194,1.825          c2.706,0,5.369-0.709,7.709-2.083c1.546-0.902,2.942-2.083,4.102-3.522c0.601-0.73,1.16-1.546,1.632-2.384          c0.451-0.859,0.838-1.761,1.138-2.684C133.548,417.767,133.569,414.675,132.689,411.711z M111.257,428.72          c-3.372-1.825-5.82-4.853-6.936-8.547c-1.095-3.672-0.687-7.559,1.138-10.931c1.804-3.393,4.853-5.841,8.526-6.936          c1.374-0.408,2.749-0.601,4.123-0.601c2.362,0,4.703,0.58,6.808,1.718c3.393,1.825,5.863,4.853,6.937,8.547          c0.408,1.374,0.601,2.749,0.601,4.145c0,2.362-0.58,4.682-1.718,6.786C126.976,429.879,118.236,432.478,111.257,428.72z"
   id="path98" />
							</g>
						</g>
						<g
   id="g102">
							<g
   id="g101">
								<path
   style="fill:#FFBE5B;"
   d="M158.308,424.124c-0.58-1.289-1.353-2.534-2.298-3.651c-1.16-1.417-2.642-2.641-4.381-3.586          c-1.782-0.966-3.715-1.546-5.669-1.761c-1.288-0.129-2.598-0.107-3.908,0.086c-0.666,0.129-1.353,0.279-2.019,0.473          c-2.942,0.88-5.498,2.62-7.387,4.939c-0.623,0.752-1.181,1.546-1.632,2.427c-0.451,0.859-0.838,1.74-1.138,2.641          c-0.923,2.856-0.966,5.97-0.086,8.955c1.16,3.887,3.78,7.087,7.366,9.02c2.255,1.246,4.725,1.847,7.216,1.847          c1.46,0,2.942-0.215,4.36-0.623c2.964-0.88,5.54-2.62,7.409-4.939c0-0.043,0.043-0.043,0.043-0.064          c0.623-0.73,1.16-1.525,1.611-2.362c0.473-0.859,0.838-1.761,1.117-2.663c-0.021-0.021,0-0.021,0-0.043          C160.026,431.254,159.769,427.452,158.308,424.124z M148.494,444.053c-3.672,1.095-7.559,0.687-10.931-1.117          c-3.393-1.825-5.841-4.853-6.936-8.547c-1.117-3.672-0.709-7.559,1.117-10.931c1.825-3.393,4.853-5.863,8.525-6.936          c1.374-0.429,2.77-0.601,4.145-0.601c2.341,0,4.682,0.58,6.786,1.718c4.81,2.62,7.559,7.559,7.559,12.67          c0,2.319-0.558,4.638-1.739,6.807C155.216,440.509,152.166,442.957,148.494,444.053z"
   id="path100" />
							</g>
						</g>
						<g
   id="g104">
							<g
   id="g103">
								<path
   style="fill:#FFBE5B;"
   d="M185.281,440.144c-0.193-0.601-0.408-1.224-0.666-1.782          c-0.601-1.353-1.396-2.642-2.341-3.758c-1.203-1.417-2.663-2.62-4.338-3.5c-1.804-0.966-3.737-1.568-5.691-1.761          c-1.267-0.129-2.599-0.107-3.908,0.086c-0.666,0.107-1.353,0.279-2.019,0.473c-2.942,0.88-5.497,2.577-7.409,4.918          c0,0.022-0.021,0.022,0,0.043c-0.623,0.752-1.16,1.525-1.611,2.384c-0.472,0.859-0.837,1.761-1.117,2.641          c0,0.021-0.043,0.021-0.043,0.064c-1.138,3.651-0.816,7.559,0.73,10.931c0.601,1.31,1.396,2.534,2.384,3.651          c1.138,1.331,2.555,2.448,4.188,3.35c2.255,1.203,4.725,1.847,7.216,1.847c1.46,0,2.942-0.215,4.381-0.666          c2.964-0.859,5.519-2.577,7.409-4.918c0.623-0.73,1.16-1.546,1.632-2.427c0.472-0.859,0.859-1.783,1.138-2.706          C186.118,446.136,186.14,443.065,185.281,440.144z M174.78,458.269c-3.672,1.095-7.559,0.687-10.931-1.138          c-6.979-3.758-9.578-12.498-5.82-19.478c1.825-3.372,4.853-5.841,8.547-6.936c1.353-0.408,2.749-0.601,4.123-0.601          c2.362,0,4.703,0.58,6.808,1.74c4.81,2.577,7.538,7.538,7.538,12.649c0,2.298-0.558,4.638-1.718,6.829          C181.501,454.683,178.473,457.152,174.78,458.269z"
   id="path102" />
							</g>
						</g>
						<g
   id="g106">
							<g
   id="g105">
								<path
   style="fill:#FFBE5B;"
   d="M210.857,452.535c-0.558-1.289-1.288-2.513-2.233-3.608          c-1.203-1.439-2.684-2.684-4.402-3.629c-1.804-0.966-3.737-1.546-5.691-1.739c-1.267-0.129-2.598-0.107-3.887,0.086          c-0.687,0.108-1.353,0.279-2.04,0.473c-2.942,0.859-5.476,2.577-7.387,4.896c-0.601,0.752-1.16,1.568-1.632,2.448          c-0.472,0.881-0.859,1.761-1.138,2.684c-0.902,2.878-0.945,5.949-0.064,8.891c0.344,1.224,0.859,2.384,1.525,3.436          c0.15,0.322,0.365,0.623,0.58,0.902c1.331,1.954,3.114,3.565,5.261,4.724c1.031,0.558,2.126,0.988,3.221,1.267          c1.31,0.365,2.641,0.537,3.973,0.537c1.331,0,2.641-0.172,3.887-0.515c1.331-0.322,2.62-0.859,3.822-1.568          c1.546-0.902,2.942-2.061,4.102-3.479v-0.021c0.601-0.709,1.138-1.525,1.611-2.384c0.472-0.859,0.838-1.74,1.138-2.641          c0-0.021,0-0.021,0-0.021C212.64,459.686,212.339,455.864,210.857,452.535z M190.134,471.347          c-3.35-1.847-5.82-4.875-6.936-8.547c-1.095-3.672-0.687-7.538,1.138-10.931c1.804-3.372,4.832-5.841,8.525-6.936          c1.374-0.408,2.77-0.623,4.123-0.623c2.362,0,4.703,0.601,6.829,1.74c4.81,2.598,7.516,7.538,7.516,12.67          c0,2.298-0.558,4.638-1.718,6.807C205.854,472.507,197.135,475.105,190.134,471.347z"
   id="path104" />
							</g>
						</g>
						<g
   id="g108">
							<g
   id="g107">
								<path
   style="fill:#FFBE5B;"
   d="M237.851,468.556c-1.16-3.887-3.758-7.108-7.344-9.041c-1.804-0.966-3.737-1.546-5.67-1.739          c-1.31-0.15-2.641-0.107-3.908,0.086c-0.537,0.086-1.095,0.193-1.611,0.344c-0.43,0.107-0.838,0.236-1.224,0.387          c-0.43,0.15-0.859,0.344-1.267,0.537c-2.019,0.945-3.844,2.341-5.326,4.145c0,0,0,0,0,0.021          c-0.623,0.709-1.16,1.525-1.632,2.384c-0.472,0.838-0.816,1.74-1.117,2.642v0.021c-0.515,1.675-0.752,3.372-0.666,5.068          c0.107,3.329,1.31,6.571,3.436,9.17c0.279,0.365,0.601,0.709,0.923,1.031c0.301,0.301,0.623,0.601,0.945,0.88          c0.794,0.687,1.675,1.31,2.641,1.825c2.298,1.224,4.767,1.804,7.215,1.804c5.369,0,10.609-2.878,13.379-7.924          c0.064-0.15,0.129-0.279,0.215-0.451c0.021-0.043,0.043-0.086,0.064-0.129c0.966-1.933,1.503-3.994,1.568-6.099          C238.56,471.863,238.345,470.188,237.851,468.556z M235.897,479.723c-1.804,3.393-4.853,5.863-8.526,6.958          c-3.694,1.074-7.559,0.708-10.931-1.138c-1.052-0.558-1.997-1.246-2.835-2.019c-0.322-0.279-0.644-0.601-0.923-0.923          c-0.344-0.344-0.644-0.709-0.902-1.095c-1.761-2.362-2.77-5.197-2.856-8.096c-0.107-2.47,0.43-5.004,1.697-7.323          c1.375-2.577,3.458-4.596,5.97-5.906c0.408-0.215,0.859-0.43,1.289-0.601c0.408-0.172,0.816-0.322,1.245-0.451h0.021          c1.374-0.386,2.77-0.601,4.145-0.601c2.341,0,4.682,0.58,6.808,1.74c3.372,1.804,5.841,4.853,6.958,8.526          c0.472,1.546,0.666,3.135,0.58,4.724C237.551,475.664,236.949,477.79,235.897,479.723z"
   id="path106" />
							</g>
						</g>
						<g
   id="g110">
							<g
   id="g109">
								<path
   style="fill:#FFBE5B;"
   d="M265.167,484.06c-0.086-0.472-0.193-0.966-0.344-1.439c-1.181-3.887-3.78-7.087-7.344-9.02          c-0.022-0.022-0.043-0.022-0.065-0.043c-1.804-0.945-3.715-1.503-5.626-1.718c-0.58-0.064-1.181-0.086-1.783-0.064          c-0.709,0-1.417,0.064-2.105,0.15c-1.675,0.279-3.286,0.816-4.767,1.589c-2.534,1.353-4.725,3.414-6.228,6.099          c-0.021,0.043-0.043,0.086-0.064,0.129c-0.086,0.172-0.15,0.301-0.215,0.451c-1.847,3.651-2.04,7.71-0.902,11.339          c0.322,1.095,0.773,2.126,1.374,3.114c0.451,0.816,1.009,1.611,1.653,2.319h1.16c-0.687-0.709-1.31-1.482-1.826-2.319          c-0.601-0.966-1.095-2.019-1.46-3.135c-0.064-0.129-0.129-0.301-0.172-0.43c-1.095-3.651-0.687-7.559,1.138-10.931          c1.718-3.178,4.467-5.455,7.624-6.614c1.611-0.601,3.307-0.923,5.047-0.923c0.258,0,0.516,0,0.773,0.021          c1.46,0.086,2.921,0.387,4.338,0.923c0.58,0.215,1.138,0.473,1.697,0.773c3.372,1.825,5.841,4.853,6.936,8.547          c0.043,0.129,0.065,0.236,0.107,0.365c0.601,2.191,0.666,4.467,0.215,6.636c-0.301,1.374-0.773,2.684-1.439,3.951          c-0.15,0.279-0.301,0.558-0.472,0.816c-0.537,0.838-1.16,1.611-1.825,2.319h1.138c0.623-0.709,1.16-1.482,1.654-2.319          c0.086-0.129,0.15-0.258,0.236-0.408c0.838-1.525,1.374-3.178,1.654-4.832C265.554,487.647,265.533,485.843,265.167,484.06z          "
   id="path108" />
							</g>
						</g>
					</g>
				</g>
				<g
   id="g117">
					<g
   id="g114">
						<g
   id="g113">
							<path
   style="fill:#FFBE5B;"
   d="M288.643,413.379L135.359,327.52c0.853-0.404,1.706-0.786,2.559-1.145l150.366,84.22         L288.643,413.379z"
   id="path112" />
						</g>
					</g>
					<g
   id="g116">
						<g
   id="g115">
							<path
   style="fill:#FFBE5B;"
   d="M291.046,432.262L118.429,337.96c0.651-0.516,1.28-1.01,1.953-1.482l170.304,93.044         L291.046,432.262z"
   id="path114" />
						</g>
					</g>
				</g>
				<g
   id="g118">
					<path
   style="fill:#FFBE5B;"
   d="M298.926,494.648l-2.641-20.959l-5.326-0.022H290.1l-27.875-0.086h-0.859l-3.951-0.021h-5.283       l-6.915-0.021l-2.083-0.022h-5.497l-21.754-0.086h-2.298l-4.66-0.021h-0.837l-7.258-0.022l-7.86-0.021l-6.464-0.022h-0.838       l-28.497-0.086h-2.749l-1.482-0.022l-15.011-0.043h-4.316l-27.015-0.086h-1.267l-1.095-0.022l-22.506-0.064h-2.641       l-15.462-0.043l-10.823-0.043c-2.04,10.201-3.329,18.576-4.08,24.03h250.505L298.926,494.648z"
   id="path117" />
				</g>
			</g>
			<g
   id="g120">
				<polyline
   style="fill:none;"
   points="209.44,496.967 209.955,494.648 210.6,491.834 212.447,483.609 212.683,482.6       214.744,473.43 217.88,459.579 218.094,458.591 218.374,457.346 218.545,456.53 220.908,446.114 224.881,428.526       225.052,427.689 225.224,427.002 225.417,426.078 229.734,406.987 230.142,405.14 230.185,404.968 230.936,401.64       230.979,401.489 231.194,400.544 231.387,399.664 231.903,397.409 235.06,383.365 235.575,381.067 237.765,371.382       251.724,309.491 257.071,285.74 266.306,244.83 266.349,244.658 266.8,242.661 266.928,242.016 267.401,239.955     "
   id="polyline119" />
				<polygon
   style="fill:#2B0000;"
   points="268.496,240.191 267.895,242.875 267.465,244.808 267.444,244.808 267.1,246.354       258.21,285.804 252.798,309.834 238.775,371.961 236.584,381.646 236.069,383.944 232.912,397.967 232.397,400.222       232.139,401.382 232.053,401.79 231.924,402.391 231.151,405.741 231.087,406.042 230.7,407.782 226.663,425.649       226.448,426.637 226.148,427.925 225.976,428.741 221.767,447.381 219.641,456.809 219.469,457.625 219.319,458.205       219.125,459.128 215.883,473.43 213.606,483.524 213.391,484.49 211.738,491.813 211.115,494.648 210.578,496.967       208.28,496.967 208.817,494.648 209.44,491.856 211.523,482.579 211.781,481.505 213.585,473.43 216.591,460.18       216.827,459.128 217.3,457.002 217.472,456.186 220.027,444.869 223.742,428.397 223.936,427.538 224,427.259 224.215,426.379       228.746,406.214 229.176,404.281 229.197,404.217 229.82,401.489 229.992,400.695 230.206,399.793 230.357,399.106       230.872,396.829 234.029,382.806 234.544,380.508 236.735,370.802 250.651,309.147 255.933,285.675 265.554,243.026       266.306,239.697 267.401,239.955 268.324,240.148     "
   id="polygon119" />
			</g>
			<g
   id="g129">
				<g
   id="g127">
					<g
   id="g123">
						<g
   id="g121">
							<path
   style="fill:#FF9F8F;"
   d="M342.714,496.967h-60.023c-1.117-0.752-2.212-1.525-3.307-2.319         c-3.414-2.405-6.765-4.875-9.986-7.323c-1.439-1.095-2.856-2.191-4.231-3.264c-0.344-0.258-0.709-0.537-1.052-0.816         c-4.402-3.436-8.461-6.764-11.983-9.685c-0.365-0.322-0.752-0.623-1.095-0.923c-0.258-0.215-0.515-0.429-0.773-0.644         c-0.086-0.064-0.172-0.15-0.258-0.215c-0.236-0.215-0.494-0.408-0.73-0.601c-4.703-3.994-8.139-7.044-9.642-8.418         c-0.58-0.494-0.881-0.773-0.881-0.773l4.682-18.232l0.279-1.031l0.365-1.46l0.215-0.859l4.08-15.87v-0.021l0.107-0.365         l2.04,1.224l10.587,6.443l0.73,0.451l0.107,0.064l0.73,0.429l24.396,14.818l0.021,0.022l0.129,0.086h0.021l0.193,0.107         l0.494,0.322l0.258,0.129l5.283,3.221l33.844,20.552l14.904,22.635C342.22,494.648,342.477,495.528,342.714,496.967z"
   id="path120" />
						</g>
						<g
   id="g122">
							<path
   style="fill:#FF9F8F;"
   d="M238.746,461.989c0,0-9.745-2.866-12.325-7.452c-2.58-4.586-13.758-20.064-13.758-20.064         s-2.389-3.153-10.796-8.121c-5.808-3.432-13.958-4.85-12.612-8.217c0.956-2.389,11.847-0.287,11.847-0.287         s-15.392-6.477-13.233-9.889c2.102-3.321,10.749-0.287,10.749-0.287s-11.035-8.885-6.879-14.762         c5.451-7.706,32.676,7.166,37.548,11.465c4.873,4.299,21.211,20.924,21.211,20.924l4.013,21.211l-15.478,16.911         L238.746,461.989z"
   id="path121" />
						</g>
					</g>
					<g
   id="g124">
						<path
   style="fill:#2B0000;"
   d="M217.152,417.045c-0.202,0-0.406-0.067-0.576-0.203c-5.246-4.237-9.871-5.831-13.951-7.236        c-3.501-1.206-6.524-2.247-8.873-4.689c-5.097-5.302-3.53-10.444-3.46-10.661c0.146-0.459,0.619-0.73,1.093-0.611        c0.867,0.213,21.396,5.352,34.412,17.221c0.374,0.341,0.402,0.921,0.06,1.295c-0.342,0.376-0.924,0.402-1.295,0.06        c-11.127-10.144-28.484-15.386-32.68-16.545c-0.156,1.474-0.009,4.64,3.194,7.97c2.041,2.122,4.735,3.05,8.148,4.226        c4.014,1.383,9.009,3.103,14.507,7.542c0.393,0.319,0.455,0.897,0.137,1.291C217.686,416.929,217.421,417.045,217.152,417.045        z"
   id="path123" />
					</g>
					<g
   id="g125">
						<path
   style="fill:#2B0000;"
   d="M211.516,423.925c-0.235,0-0.47-0.09-0.649-0.268c-2.412-2.413-7.7-4.425-12.365-6.201        c-3.402-1.295-6.34-2.414-8.007-3.587c-4.359-3.066-3.542-6.043-3.505-6.168c-0.005-0.03,0.242-1.428,1.824-2.317        c2.151-1.215,5.62-0.823,10.304,1.158c0.467,0.197,0.686,0.735,0.489,1.202c-0.197,0.468-0.736,0.686-1.202,0.489        c-5.36-2.265-7.715-1.775-8.641-1.277c-0.844,0.451-0.984,1.129-0.989,1.158c-0.037,0.161-0.427,2.003,2.776,4.257        c1.48,1.04,4.455,2.174,7.605,3.372c4.837,1.841,10.319,3.928,13.01,6.618c0.357,0.359,0.357,0.939,0,1.298        C211.986,423.835,211.751,423.925,211.516,423.925z"
   id="path124" />
					</g>
					<g
   id="g126">
						<path
   style="fill:#2B0000;"
   d="M321.677,467.492c-0.156,0-0.315-0.04-0.459-0.124l-71.18-41.274        c-0.065-0.038-0.125-0.083-0.178-0.135l-15.764-15.287c-15.286-13.737-27.787-16.952-33.795-18.497        c-5.983-1.54-8.522,1.301-8.627,1.425c-0.33,0.38-0.906,0.429-1.29,0.103c-0.385-0.326-0.436-0.897-0.114-1.284        c0.132-0.158,3.321-3.865,10.488-2.021c6.149,1.581,18.943,4.871,34.589,18.932l15.709,15.233l71.082,41.22        c0.438,0.254,0.587,0.814,0.333,1.252C322.301,467.329,321.994,467.492,321.677,467.492z"
   id="path125" />
					</g>
				</g>
				<g
   id="g128">
					<path
   style="fill:#2B0000;"
   d="M293.778,451.059c-0.452,0-0.845-0.335-0.908-0.794l-9.172-67.645       c-0.068-0.502,0.284-0.965,0.785-1.033c0.5-0.067,0.965,0.284,1.033,0.785l9.172,67.645c0.068,0.502-0.284,0.965-0.785,1.033       C293.861,451.056,293.819,451.059,293.778,451.059z"
   id="path127" />
				</g>
			</g>
		</g>
	</g>
</g>















</svg>
