<?xml version="1.0" encoding="UTF-8" standalone="no"?>
<!-- Generator: Adobe Illustrator 27.1.1, SVG Export Plug-In . SVG Version: 6.00 Build 0)  -->

<svg
   version="1.1"
   id="Capa_1"
   x="0px"
   y="0px"
   viewBox="0 0 512 512"
   style="enable-background:new 0 0 512 512;"
   xml:space="preserve"
   width="512"
   height="512"
   sodipodi:docname="turkiye.svg"
   inkscape:version="1.4 (1:1.4+202410161351+e7c3feb100)"
   xmlns:inkscape="http://www.inkscape.org/namespaces/inkscape"
   xmlns:sodipodi="http://sodipodi.sourceforge.net/DTD/sodipodi-0.dtd"
   xmlns="http://www.w3.org/2000/svg"
   xmlns:svg="http://www.w3.org/2000/svg"><defs
   id="defs68" /><sodipodi:namedview
   id="namedview68"
   pagecolor="#505050"
   bordercolor="#ffffff"
   borderopacity="1"
   inkscape:showpageshadow="0"
   inkscape:pageopacity="0"
   inkscape:pagecheckerboard="1"
   inkscape:deskcolor="#505050"
   inkscape:zoom="1.5683594"
   inkscape:cx="255.6812"
   inkscape:cy="256"
   inkscape:window-width="1920"
   inkscape:window-height="1011"
   inkscape:window-x="0"
   inkscape:window-y="32"
   inkscape:window-maximized="1"
   inkscape:current-layer="g67" />
<g
   id="g68">
	
	<g
   id="g67">
		
		<g
   id="g63">
			<g
   id="g3">
				<path
   style="fill:#FF9F8F;"
   d="M485.322,351.588v21.657c-0.063-0.105-0.126-0.23-0.209-0.335      c-0.503-0.817-1.068-1.759-1.655-2.807c-0.126-0.21-0.23-0.419-0.356-0.629c-0.691-1.236-1.403-2.576-2.053-3.959      c-0.105-0.21-0.209-0.44-0.314-0.649c-0.084-0.168-0.147-0.314-0.23-0.482c-0.084-0.209-0.189-0.44-0.272-0.649      c-0.168-0.377-0.335-0.775-0.482-1.152c-1.99-4.922-2.828-9.74,0.377-11.415C481.51,350.457,483.291,350.709,485.322,351.588z"
   id="path3" />
			</g>
			<g
   id="g4">
				<path
   style="fill:#FFE1CD;"
   d="M453.025,445.612c-42.603,11.185-66.69-50.332-66.69-50.332l-2.074,70.334H139.39l4.671-244.18      c33.135-15.939,108.874-20.673,108.874-20.673l9.027-18.076l13.342-4.294l62.396,26.684l14.662,11.813l0.838,0.67l2.576,13.342      c0.23,0.063,0.482,0.126,0.712,0.209c20.757,6.011,55.924,33.198,78.901,58.731      C458.617,315.667,495.627,434.427,453.025,445.612z"
   id="path4" />
			</g>
			<g
   id="g5">
				<polygon
   style="fill:#2B0000;"
   points="261.968,182.696 270.574,196.681 278.32,177.102     "
   id="polygon4" />
			</g>
			<g
   id="g25">
				<g
   id="g8">
					<g
   id="g6">
						<polygon
   style="fill:#FF9F8F;"
   points="325.568,223.843 328.129,232.075 314.899,250.692 269.292,195.604 278.318,164.18         290.857,169.312 332.116,186.149 324.784,222.706       "
   id="polygon5" />
					</g>
					<g
   id="g7">
						<path
   style="fill:#2B0000;"
   d="M324.784,222.706l0.784,1.138c-2.857,0.152-5.764-0.278-8.52-1.112        c-9.657-2.882-17.57-10.365-22.247-19.315c-5.334-10.239-8.848-24.017-3.944-34.104l41.259,16.837L324.784,222.706z"
   id="path6" />
					</g>
				</g>
				<g
   id="g9">
					<path
   style="fill:#FF9F8F;"
   d="M378.583,121.699c0-31.074-25.19-56.264-56.264-56.264c-31.074,0-56.264,25.19-56.264,56.264       c0,16.383,7.008,31.126,18.183,41.409c0.143,7.55,1.237,15.579,3.978,23.461c6.885,19.795,38.298,27.54,38.298,27.54       c36.611-4.712,50.182-65.31,51.38-83.621C378.345,127.624,378.583,124.689,378.583,121.699z"
   id="path8" />
				</g>
				<g
   id="g10">
					<path
   style="fill:#FF9F8F;"
   d="M286.709,149.986c2.965,10.152-1.566,20.407-10.121,22.905       c-8.555,2.499-17.893-3.705-20.858-13.857c-2.965-10.152,1.566-20.407,10.121-22.905       C274.405,133.631,283.744,139.835,286.709,149.986z"
   id="path9" />
				</g>
				<g
   id="g11">
					<path
   style="fill:#2B0000;"
   d="M257.983,141.954c2.415-3.324,6.347-5.498,10.446-5.776c4.099-0.278,8.289,1.345,11.131,4.312       c1.064,1.111,1.938,2.387,2.806,3.656c1.226,1.792,2.452,3.584,3.679,5.376c3.395-3.23,6.505-6.666,8.617-10.848       c2.112-4.183,3.251-8.929,2.752-13.589c16.02-7.069,26.318-24.295,25.434-41.783c-0.324-6.399-2.32-13.102-7.226-17.222       c-7.271-6.104-19-2.851-28.44-1.851c-5.908,0.626-12.037,1.988-16.528,5.877c-3.204,2.775-5.3,6.612-6.917,10.53       C255.814,99.836,258.345,121.188,257.983,141.954z"
   id="path10" />
				</g>
				<g
   id="g12">
					<path
   style="fill:#2B0000;"
   d="M338.806,49.587c4.124-0.659,8.402-1.049,12.433,0.043c4.031,1.092,7.804,3.931,8.993,7.934       c5.681-1.364,11.799-1.801,17.262,0.273c5.462,2.074,10.073,7.106,10.302,12.945c0.165,4.195-1.838,8.135-3.788,11.853       c3.922,2.448,6.549,6.855,6.838,11.468c0.289,4.614-1.769,9.314-5.355,12.231c-2.812,2.288-6.384,3.452-9.957,4.069       c-8.047,1.391-17.276-0.243-22.391-6.609c-0.767-0.955-1.732-2.125-2.929-1.864c-0.537,0.117-0.962,0.512-1.379,0.871       c-6.268,5.407-15.998,5.14-23.352,1.339c-7.354-3.801-12.77-10.471-17.502-17.263c-5.107-7.329-19.212-20.066-6.089-25.831       C313.612,55.897,326.143,51.61,338.806,49.587z"
   id="path11" />
				</g>
				<g
   id="g15">
					<g
   id="g13">
						<path
   style="fill:#2B0000;"
   d="M279.098,166.642c-0.03,0-0.059-0.002-0.089-0.006c-0.522-0.047-0.904-0.509-0.856-1.031        c0.513-5.521-1.443-11.232-5.232-15.277c-1.875-2-4.006-3.387-6.166-4.011c-2.434-0.698-5.015-0.413-6.904,0.771        c-0.444,0.28-1.028,0.145-1.307-0.301c-0.277-0.444-0.143-1.029,0.301-1.307c2.338-1.467,5.493-1.837,8.436-0.984        c2.487,0.716,4.916,2.285,7.024,4.535c4.154,4.434,6.299,10.698,5.736,16.75C279.995,166.272,279.582,166.642,279.098,166.642        z"
   id="path12" />
					</g>
					<g
   id="g14">
						<path
   style="fill:#2B0000;"
   d="M263.098,158.92c-0.088,0-0.177-0.012-0.266-0.039c-0.503-0.147-0.791-0.673-0.644-1.176        c0.463-1.583,1.777-2.97,3.518-3.71c1.299-0.552,2.795-0.779,4.758-0.736c2.649,0.065,6.219,0.728,8.187,3.508        c0.302,0.428,0.2,1.021-0.227,1.321c-0.425,0.307-1.019,0.201-1.321-0.225c-1.592-2.252-4.872-2.665-6.685-2.71        c-1.656-0.022-2.929,0.147-3.969,0.587c-1.222,0.52-2.134,1.454-2.439,2.497C263.887,158.65,263.509,158.92,263.098,158.92z"
   id="path13" />
					</g>
				</g>
				<g
   id="g24">
					<g
   id="g18">
						<g
   id="g16">
							<path
   style="fill:#2B0000;"
   d="M333.618,148.398c-0.481,3.268-2.841,5.628-5.271,5.271c-2.43-0.357-4.011-3.297-3.53-6.565         c0.481-3.268,2.841-5.628,5.271-5.271C332.518,142.19,334.098,145.13,333.618,148.398z"
   id="path15" />
						</g>
						<g
   id="g17">
							<path
   style="fill:#2B0000;"
   d="M370.923,152.665c-0.481,3.269-2.841,5.628-5.271,5.271c-2.43-0.357-4.011-3.297-3.53-6.565         c0.481-3.268,2.84-5.628,5.271-5.271C369.823,146.457,371.403,149.397,370.923,152.665z"
   id="path16" />
						</g>
					</g>
					<g
   id="g21">
						<g
   id="g19">
							<path
   style="fill:#2B0000;"
   d="M347.817,172.025c-0.348,0-0.683-0.192-0.849-0.526c-0.234-0.468-0.044-1.037,0.425-1.272         l5.773-2.884l-1.751-7.01c-0.037-0.147-0.038-0.301-0.003-0.45l3.55-14.846c0.123-0.511,0.634-0.816,1.143-0.702         c0.509,0.123,0.823,0.634,0.702,1.143l-3.497,14.621l1.88,7.521c0.108,0.429-0.098,0.878-0.496,1.078l-6.454,3.226         C348.103,171.993,347.959,172.025,347.817,172.025z"
   id="path18" />
						</g>
						<g
   id="g20">
							<path
   style="fill:#2B0000;"
   d="M346.129,182.271c-1.362,0-2.72-0.254-3.97-0.773c-3.195-1.329-5.664-4.387-6.288-7.791         c-0.094-0.515,0.247-1.01,0.762-1.105c0.513-0.09,1.009,0.247,1.103,0.761c0.511,2.79,2.533,5.296,5.15,6.384         c2.618,1.086,5.821,0.755,8.158-0.847c0.433-0.297,1.024-0.186,1.317,0.245c0.297,0.432,0.186,1.021-0.246,1.317         C350.38,181.655,348.251,182.271,346.129,182.271z"
   id="path19" />
						</g>
					</g>
					<g
   id="g22">
						<path
   style="fill:#2B0000;"
   d="M321.916,133.242c-0.188,0-0.378-0.057-0.544-0.174c-0.428-0.301-0.532-0.892-0.231-1.319        c2.841-4.048,8.36-6.042,13.128-4.731c0.505,0.139,0.802,0.661,0.664,1.164c-0.139,0.507-0.665,0.798-1.165,0.665        c-4.02-1.104-8.679,0.577-11.074,3.991C322.508,133.101,322.214,133.242,321.916,133.242z"
   id="path21" />
					</g>
					<g
   id="g23">
						<path
   style="fill:#2B0000;"
   d="M376,138.153c-0.454,0-0.856-0.329-0.934-0.792c-0.222-1.315-1.402-2.559-3.007-3.168        c-1.596-0.607-3.408-0.634-5.159-0.663c-0.524-0.008-0.942-0.438-0.934-0.961c0.009-0.524,0.508-0.924,0.962-0.933        c1.827,0.027,3.896,0.059,5.804,0.785c2.255,0.855,3.866,2.626,4.202,4.625c0.087,0.515-0.261,1.004-0.777,1.092        C376.105,138.147,376.052,138.153,376,138.153z"
   id="path22" />
					</g>
				</g>
			</g>
			<g
   id="g26">
				<path
   style="fill:#FFE1CD;"
   d="M150.086,218.412c0,0-113.173,31.413-119.628,68.85c-6.455,37.438,71.432,89.936,71.432,89.936      l44.323-44.323l-34.425-51.207c0,0,23.667-14.631,44.323-17.643l-3.443-46.259L150.086,218.412z"
   id="path25" />
			</g>
			<g
   id="g29">
				<g
   id="g27">
					<path
   style="fill:#2B0000;"
   d="M259.601,264.76c-0.1,0-0.201-0.016-0.3-0.049c-0.353-0.119-0.604-0.432-0.643-0.8l-6.67-63.04       c-0.055-0.522,0.322-0.988,0.843-1.043c0.538-0.063,0.987,0.323,1.043,0.843l6.454,60.999       c5.124-5.31,22.523-22.508,31.008-21.608c6.626,0.755,15.327,5.198,20.253,7.985l-50.579-63.685       c-0.325-0.409-0.257-1.006,0.152-1.332c0.412-0.325,1.007-0.256,1.333,0.153l53.147,66.919c0.135,0.17,0.207,0.38,0.206,0.595       l-0.003,0.425c-0.002,0.346-0.192,0.661-0.495,0.826c-0.303,0.166-0.67,0.153-0.962-0.033c-0.14-0.09-14.127-8.933-23.266-9.97       c-7.374-0.847-24.751,15.965-30.826,22.508C260.114,264.651,259.86,264.76,259.601,264.76z"
   id="path26" />
				</g>
				<g
   id="g28">
					<path
   style="fill:#2B0000;"
   d="M356.488,231.111c-0.272-5.194-0.964-10.284-2.409-13.908c-0.105-0.251-0.293-0.44-0.524-0.524       c-0.23-0.105-0.503-0.105-0.733,0c-0.021,0-0.168,0.084-0.461,0.209c-2.534,1.152-14.85,7.079-25.658,17.196l-0.021,0.021       c-4.524,4.252-8.776,9.216-11.918,14.892c-0.188,0.293-0.377,0.607-0.524,0.922c-0.063,0.105-0.126,0.23-0.188,0.335       c-0.063,0.147-0.105,0.293-0.105,0.461c0,0.042,0,0.356,0.021,0.942c0.147,4.357,0.67,23.584,1.005,53.159       c0.168,14.117,0.272,30.601,0.272,48.928v5.006c0,2.011,0,4.001-0.021,5.991v5.467c0,0.209,0,0.419-0.021,0.628       c0,2.932-0.021,5.823-0.021,8.671v0.628c-0.021,1.382-0.021,2.744-0.042,4.105v0.628c-0.021,2.807-0.042,5.571-0.063,8.294       v0.628c0,1.173-0.021,2.346-0.042,3.498c0.021,0.209,0,0.419,0,0.628c-0.021,2.158-0.021,4.273-0.063,6.346v0.628       c0,1.215-0.021,2.409-0.042,3.582v0.628c-0.293,27.417-0.712,48.426-0.901,56.51h1.906c0.168-8.127,0.587-29.156,0.88-56.573       v-0.628c0.021-1.173,0.042-2.367,0.042-3.582v-0.628c0.042-2.074,0.042-4.189,0.063-6.325c0-0.21,0.021-0.419,0-0.628       c0.021-1.152,0.042-2.325,0.042-3.498v-0.628c0.021-2.702,0.042-5.467,0.063-8.252v-0.628c0.021-1.361,0.021-2.744,0.042-4.126       v-0.628c0-2.828,0.021-5.697,0.021-8.608c0.021-0.21,0.021-0.419,0.021-0.628v-5.467c0.021-1.969,0.021-3.959,0.021-5.948       v-5.09c0-17.845-0.105-33.931-0.251-47.797c-0.356-31.502-0.922-51.588-1.026-54.835v-0.21       c3.184-6.011,7.645-11.269,12.421-15.688c0.063,0.126,0.147,0.23,0.272,0.314l25.826,18.076       c0.272,0.209,0.628,0.23,0.943,0.084c0.293-0.126,0.503-0.419,0.544-0.754C355.922,252.266,357.032,241.458,356.488,231.111z        M352.655,218.837c-3.079,1.445-13.426,6.64-23.019,15.144l24.485,17.133C354.582,245.71,355.775,228.011,352.655,218.837z"
   id="path27" />
				</g>
			</g>
			<g
   id="g30">
				<path
   style="fill:#FFBE5B;"
   d="M113.359,280.698c51.813-37.612,138.013-12.193,191.054,17.92      c16.201,9.198,31.812,19.404,47.075,30.076c8.801,6.154,17.47,12.501,25.966,19.071c1.149,0.889,9.735,6.134,9.735,7.722      c0,0,0,53.707,0,53.719c0,3.041-10.449,10.98-12.402,12.873c-11.037,10.697-22.857,20.606-35.281,29.652      c-35.593,25.916-77.164,45.247-121.554,48.245c-43.258,2.921-92.698-8.312-121.108-43.459      c-13.01-16.093-20.604-36.162-23.473-56.656c-3.489-24.926-1.538-52.626,7.787-76.151      C88.792,304.452,99.919,290.455,113.359,280.698z"
   id="path29" />
			</g>
			<g
   id="g47">
				<g
   id="g31">
					<rect
   x="95.866"
   y="359.556"
   style="fill:#2B0000;"
   width="15.061"
   height="66.269"
   id="rect30" />
				</g>
				<g
   id="g32">
					<ellipse
   style="fill:#2B0000;"
   cx="164.071"
   cy="383.438"
   rx="21.301"
   ry="63.471"
   id="ellipse31" />
				</g>
				<g
   id="g43">
					<g
   id="g33">
						<path
   style="fill:#2B0000;"
   d="M485.49,373.539h-0.168v14.054l-8.629,16.652l-1.969,0.126l-2.199,0.126l-12.127,0.712        l-1.927,0.126l-10.934,0.649l-1.948,0.105l-10.473,0.628l-41.891,2.492l-6.074,0.356l-0.293,0.021l-0.922-1.11v-0.021        l-1.55-1.927l-0.482-0.628l-2.681-3.33l-0.503-0.608l-4.399-5.467l-0.503-0.607l-2.555-3.163l-0.482-0.628l-6.074-7.519        l-0.398-0.503l0.084-0.126l2.932-4.022l0.461-0.629l5.446-7.498l0.461-0.628l2.912-4.022l0.461-0.607l3.645-5.027l0.461-0.607        l1.445-2.011l0.44-0.607l2.115-2.911l0.021-0.021l63.108,4.922l0.775,0.063l1.361,0.105l1.32,0.105l1.487,0.126l0.964,0.063        l10.054,0.796l13.489,1.047l5.571,0.44v10.221C485.385,373.35,485.448,373.434,485.49,373.539z"
   id="path32" />
					</g>
					<g
   id="g34">
						<path
   style="fill:#FFE1CD;"
   d="M485.49,373.539h-0.168l-16.421-0.272l-5.404-0.084h-0.44l-1.759-0.021h-0.021l-9.195-0.147        l-1.047-0.021h-0.063l-0.859-0.021h-0.293l-0.838-0.021l-7.603-0.105l-0.586-0.021l-1.341-0.021l-52.259-0.817l-11.96-0.189        l-58.144-0.922l-1.885-0.042l-13.468-0.209l-1.362-0.021l-7.017-0.105h-0.021l-55.861-0.901l-7.038-0.105l-1.341-0.021        l-32.528-0.524l-9.174-0.126c-0.021-0.021-0.021,0-0.021,0l-2.597-0.042l-0.565-0.021l-40.822-0.649l-2.136-0.021        l-29.763-0.482h-0.147l0.021-0.628l0.733,0.021l29.177,0.461l2.157,0.021l40.55,0.649h0.754l1.801,0.042h0.021l9.802,0.147        l32.968,0.524l1.34,0.021l7.121,0.126l55.254,0.859l7.079,0.126l1.382,0.021l13.719,0.21l1.885,0.042l58.584,0.922        l11.499,0.188l52.217,0.817l1.32,0.021l0.607,0.021l7.415,0.105l0.817,0.021h0.461l0.775,0.021h0.042l1.131,0.021l8.986,0.126        h0.021l1.759,0.042h0.44l5.592,0.084l16.337,0.272h0.209v0.335C485.385,373.35,485.448,373.434,485.49,373.539z"
   id="path33" />
					</g>
					<g
   id="g35">
						<polygon
   style="fill:#FFE1CD;"
   points="483.102,369.476 485.322,369.539 485.322,370.167 483.458,370.104 468.147,369.685         461.612,369.497 461.089,369.476 459.434,369.434 451.558,369.203 450.385,369.182 449.61,369.161 449.485,369.161         448.123,369.12 447.39,369.099 441.149,368.91 440.562,368.91 439.284,368.868 387.193,367.402 378.606,367.151         317.111,365.412 315.225,365.37 299.202,364.909 297.694,364.868 289.819,364.658 241.666,363.297 233.769,363.066         232.324,363.025 192.863,361.914 184.066,361.663 144.207,360.532 141.4,360.469 119.261,359.841 117.334,359.778         116.099,359.757 115.303,359.715 114.863,359.715 110.925,359.61 109.04,359.547 105.333,359.443 105.333,358.815         115.407,359.108 115.826,359.108 116.643,359.129 117.879,359.171 119.869,359.233 141.421,359.841 144.291,359.904         183.982,361.035 192.298,361.265 232.722,362.417 234.167,362.459 242.189,362.668 289.316,364.009 297.338,364.239         298.825,364.281 315.225,364.742 317.111,364.784 379.067,366.543 387.193,366.774 439.284,368.24 440.562,368.282         441.149,368.282 447.097,368.449 447.809,368.47 449.191,368.512 449.548,368.533 450.302,368.554 451.496,368.575         459.099,368.806 460.732,368.847 461.277,368.868 468.021,369.057       "
   id="polygon34" />
					</g>
					<g
   id="g36">
						<polygon
   style="fill:#FFE1CD;"
   points="480.233,363.737 485.322,364.03 485.322,364.658 480.505,364.386 466.786,363.611         457.926,363.087 457.151,363.046 455.727,362.962 451.496,362.731 450.281,362.668 449.631,362.627 445.61,362.396         443.955,362.291 441.19,362.145 440.122,362.082 387.193,359.045 384.617,358.898 317.131,355.044 315.246,354.94         289.693,353.474 287.473,353.348 246.483,351.002 244.263,350.876 181.574,347.295 170.493,346.666 147.035,345.326         141.694,345.012 134.488,344.613 131.012,344.404 129.797,344.341 128.812,344.279 128.603,344.258 103.091,342.812         100.641,342.666 100.578,342.666 100.62,342.037 101.186,342.079 103.636,342.205 129.126,343.671 129.336,343.671         130.341,343.734 131.535,343.797 135.096,344.006 141.715,344.383 147.202,344.697 169.3,345.954 181.406,346.666         245.184,350.311 247.509,350.436 286.509,352.657 288.814,352.803 315.246,354.311 317.131,354.416 385.057,358.291         387.193,358.417 440.416,361.454 441.693,361.537 443.076,361.621 444.982,361.726 449.757,361.998 450.427,362.04         451.621,362.103 455.266,362.312 456.669,362.396 457.465,362.438 466.618,362.962       "
   id="polygon35" />
						<polygon
   style="fill:#FFE1CD;"
   points="480.735,364.868 485.322,365.056 485.322,365.685 481.049,365.517 467.1,364.952         458.868,364.616 458.198,364.595 456.711,364.533 451.349,364.302 450.155,364.26 449.464,364.239 446.867,364.135         445.359,364.072 444.563,364.03 441.358,363.904 440.73,363.883 439.62,363.82 387.193,361.684 382.711,361.516         317.131,358.836 315.246,358.752 294.259,357.914 292.479,357.83 281.964,357.411 250.567,356.133 240.053,355.694         238.293,355.631 182.83,353.369 181.427,353.306 145.589,351.84 141.568,351.672 127.975,351.128 125.126,351.002         123.911,350.96 122.99,350.918 122.696,350.918 99.719,349.975 99.761,349.347 123.241,350.311 123.513,350.311         124.456,350.353 125.671,350.395 128.582,350.52 141.589,351.044 145.715,351.211 180.359,352.636 182.705,352.719         238.943,355.023 240.744,355.086 251.698,355.547 280.875,356.72 291.85,357.181 293.694,357.244 315.246,358.123         317.131,358.207 383.172,360.909 387.193,361.056 439.745,363.213 440.834,363.255 441.484,363.276 444.018,363.381         444.898,363.422 446.427,363.485 449.506,363.611 450.176,363.632 451.391,363.674 456.313,363.883 457.779,363.946         458.47,363.967 466.953,364.323       "
   id="polygon36" />
					</g>
					<g
   id="g37">
						<path
   style="fill:#FFE1CD;"
   d="M485.322,378.838v0.628l-5.844,0.021l-3.184,0.021l-2.848,0.021c0,0,0,0-0.021,0h-3.372        l-3.582,0.021h-2.157l-10.892,0.042h-1.152c0,0,0,0.021-0.021,0l-0.586,0.021c-0.021,0-0.021,0-0.021,0h-0.168l-9.404,0.021        h-0.628l-1.32,0.021l-4.817,0.021l-5.32,0.021l-42.791,0.147l-17.866,0.084l-52.258,0.188l-1.885,0.021l-11.415,0.042h-1.278        l-6.472,0.021l-61.663,0.251l-6.493,0.021h-1.257l-26.559,0.105h-2.576l-12.127,0.063l-42.561,0.147l-1.78,0.021        l-26.957,0.105c-0.021,0-0.021,0-0.021,0h-3.1l-9.467,0.042v-0.628l9.467-0.042h2.472l27.627-0.105l1.759-0.021l42.561-0.147        l11.541-0.063h2.597l27.187-0.105h1.236l6.535-0.021l61.495-0.251l6.514-0.021h1.257l11.478-0.042l1.885-0.021l52.719-0.189        l17.405-0.084l42.749-0.147l5.006-0.021l5.09-0.021l1.341-0.021h0.607l9.048-0.021h0.314l0.817-0.021h1.11l10.745-0.042h2.157        l3.77-0.021h2.011l6.472-0.021L485.322,378.838z"
   id="path36" />
					</g>
					<g
   id="g38">
						<polygon
   style="fill:#FFE1CD;"
   points="483.94,383.258 485.322,383.258 485.322,383.886 482.537,383.886 481.845,383.907         471.058,383.97 468.294,383.97 466.304,383.991 454.637,384.054 452.689,384.074 442.678,384.137 440.709,384.137         437.567,384.158 430.446,384.2 387.193,384.452 366.709,384.577 317.027,384.871 315.142,384.871 303.873,384.933         302.595,384.954 296.144,384.975 234.272,385.352 227.779,385.394 226.522,385.394 203.964,385.52 202.749,385.541         201.681,385.541 185.344,385.625 142.783,385.876 140.919,385.897 119.492,386.022 110.925,386.064 101.039,386.127         101.018,385.499 110.925,385.436 118.8,385.394 140.919,385.268 142.783,385.247 185.365,384.996 201.22,384.912         202.288,384.912 203.545,384.891 226.501,384.766 227.758,384.766 234.251,384.724 296.165,384.347 302.616,384.326         303.894,384.305 315.142,384.242 317.027,384.242 366.395,383.949 387.193,383.823 430.383,383.572 437.274,383.53         440.625,383.509 442.573,383.509 452.522,383.446 454.47,383.425 466.032,383.362 468.001,383.341 471.226,383.341         481.175,383.279 481.887,383.279       "
   id="polygon37" />
					</g>
					<g
   id="g39">
						<polygon
   style="fill:#FFE1CD;"
   points="485.322,390.023 485.322,390.651 471.75,390.903 471.373,390.903 469.299,390.944         456.585,391.196 454.637,391.217 443.829,391.426 443.034,391.426 441.882,391.447 440.793,391.468 431.702,391.636         387.193,392.474 373.265,392.725 316.964,393.751 315.079,393.793 302.449,394.023 301.108,394.044 294.259,394.17         236.534,395.238 229.685,395.364 228.365,395.385 207.211,395.783 206.792,395.783 204.865,395.825 189.617,396.097         187.061,396.16 184.925,396.202 143.264,396.956 140.709,396.998 132.813,397.144 110.925,397.563 101.458,397.731         101.458,397.102 110.925,396.935 132.017,396.537 140.709,396.369 143.202,396.328 184.967,395.573 186.517,395.531         189.03,395.49 204.927,395.197 206.854,395.155 207.294,395.155 228.177,394.777 229.475,394.736 236.304,394.61         294.49,393.542 301.276,393.416 302.616,393.395 315.079,393.165 316.964,393.123 372.783,392.097 387.193,391.845         431.577,391.028 440.541,390.861 441.777,390.84 442.95,390.819 443.725,390.798 454.449,390.589 454.47,390.589         456.418,390.568 469.048,390.337 469.676,390.316 470.43,390.295 471.142,390.295 471.561,390.274 471.582,390.274       "
   id="polygon38" />
					</g>
					<g
   id="g40">
						<path
   style="fill:#FFE1CD;"
   d="M472.588,393.626l12.735-0.293v0.628l-12.462,0.293h-0.126l-0.733,0.021l-1.299,0.042        l-13.196,0.293l-1.948,0.042l-11.101,0.272l-0.859,0.021l-1.068,0.021h-0.293l-9.823,0.23l-45.221,1.047l-0.44,0.021h-0.44        l-9.991,0.23l-59.401,1.382l-1.885,0.042l-14.054,0.335l-1.403,0.042l-7.289,0.168l-53.473,1.236l-7.289,0.167l-1.382,0.042        l-24.946,0.565h-0.021l-1.131,0.042h-0.021l-1.173,0.021l-8.232,0.189l-2.89,0.063h-0.021l-7.184,0.168l-11.059,0.272        l-2.869,0.063c-0.021,0-0.021,0-0.021,0l-26.894,0.629l-3.079,0.063l-1.005,0.021l-28.674,0.67l-9.886,0.23l-0.021-0.628        l9.907-0.23l27.794-0.649l1.906-0.042l2.995-0.063l26.265-0.607l2.807-0.084l11.897-0.272l6.43-0.147l2.828-0.063l9.488-0.23        l1.361-0.021l0.859-0.021l24.318-0.566l1.361-0.042l7.205-0.168l54.206-1.257l7.205-0.168l1.382-0.021l13.803-0.335        l1.885-0.042l58.898-1.361l10.494-0.251h0.147l0.733-0.021l45.074-1.047l9.719-0.23h0.419l1.089-0.021l0.838-0.021        l11.059-0.251l1.948-0.063l13.091-0.293l1.508-0.042h0.607L472.588,393.626z"
   id="path39" />
					</g>
					<g
   id="g41">
						<path
   style="fill:#FFE1CD;"
   d="M474.745,398.673l10.577-0.377v0.649l-10.326,0.356h-0.251l-1.99,0.084h-0.398l-13.426,0.482        l-1.927,0.063l-11.394,0.398l-1.11,0.042h-0.167l-0.712,0.021l-9.97,0.356l-44.111,1.55l-2.346,0.084l-1.068,0.021        l-4.901,0.168l-64.365,2.262l-1.885,0.063l-17.992,0.628l-1.592,0.063l-8.86,0.314l-41.095,1.424l-8.818,0.314l-1.571,0.063        l-40.068,1.403l-1.571,0.042l-2.66,0.105l-2.849,0.105l-2.995,0.105l-1.424,0.042l-0.503,0.021h-0.272l-13.824,0.482        c0,0,0,0-0.021,0l-3.749,0.147l-9.363,0.314l-10.913,0.398l-4.398,0.147l-29.512,1.026l-9.446,0.335l-0.021-0.628l9.467-0.335        l29.512-1.026l4.315-0.147l9.425-0.335l9.97-0.356l3.54-0.126l13.824-0.482l2.074-0.063l2.241-0.084l6.305-0.23        c0,0,0,0,0.021,0l2.346-0.063l1.445-0.063l38.623-1.34l1.529-0.063l8.65-0.293l42.456-1.487l8.65-0.314l1.571-0.063        l17.552-0.607l1.885-0.063l63.862-2.241l5.425-0.189l1.047-0.042l2.032-0.063l44.278-1.55l9.949-0.356l0.649-0.021h0.293        l1.005-0.042l11.436-0.398l1.927-0.063l13.552-0.482h0.188l1.99-0.063h0.021L474.745,398.673z"
   id="path40" />
					</g>
					<g
   id="g42">
						<polygon
   style="fill:#FFE1CD;"
   points="476.295,402.464 485.322,402.108 485.322,402.758 476.567,403.072 476.546,403.072         476.232,403.093 474.242,403.156 472.504,403.219 459.978,403.7 458.051,403.763 446.93,404.182 444.94,404.266         434.572,404.643 391.571,406.256 387.193,406.423 386,406.465 384.387,406.528 316.817,409.041 314.932,409.104         293.4,409.921 291.599,409.984 280.456,410.403 251.971,411.471 240.828,411.89 239.047,411.953 182.725,414.047         145.673,415.43 140.353,415.639 110.925,416.728 101.039,417.105 101.018,416.477 110.925,416.1 140.353,415.011         145.548,414.822 182.83,413.419 238.398,411.345 240.158,411.283 250.798,410.884 281.587,409.733 292.228,409.335         294.008,409.272 314.932,408.476 316.817,408.413 383.905,405.9 386.021,405.837 387.193,405.795 391.257,405.627         434.425,404.014 444.73,403.638 446.72,403.554 457.884,403.135 459.811,403.072 472.483,402.59 473.991,402.548         476.002,402.464       "
   id="polygon41" />
					</g>
				</g>
				<g
   id="g46">
					<g
   id="g44">
						<path
   style="fill:#2B0000;"
   d="M190.098,282.217c-9.656,0-17.531,7.854-17.531,17.531c0,9.656,7.875,17.531,17.531,17.531        c9.677,0,17.531-7.875,17.531-17.531C207.63,290.072,199.775,282.217,190.098,282.217z M190.098,316.631        c-9.3,0-16.882-7.582-16.882-16.882c0-9.321,7.582-16.903,16.882-16.903c9.321,0,16.903,7.582,16.903,16.903        C207.001,309.048,199.419,316.631,190.098,316.631z"
   id="path43" />
					</g>
					<g
   id="g45">
						<path
   style="fill:#2B0000;"
   d="M206.624,465.615c-2.388-6.807-8.881-11.708-16.526-11.708        c-7.624,0-14.138,4.901-16.526,11.708c-0.649,1.822-1.005,3.791-1.005,5.823c0,9.656,7.875,17.531,17.531,17.531        c9.677,0,17.531-7.875,17.531-17.531C207.63,469.406,207.273,467.437,206.624,465.615z M190.098,488.34        c-9.3,0-16.882-7.582-16.882-16.903c0-2.053,0.377-4.022,1.026-5.823c2.388-6.472,8.588-11.08,15.856-11.08        c7.268,0,13.489,4.608,15.876,11.08c0.67,1.801,1.026,3.77,1.026,5.823C207.001,480.758,199.419,488.34,190.098,488.34z"
   id="path44" />
					</g>
				</g>
			</g>
			<g
   id="g48">
				<circle
   style="fill:#2B0000;"
   cx="265.195"
   cy="383.438"
   r="30.983"
   id="circle47" />
			</g>
			<g
   id="g49">
				<path
   style="fill:#2B0000;"
   d="M303.768,380.179c0-0.21-0.021-0.419-0.063-0.628c-0.293-3.1-0.964-6.095-1.969-8.923      c-0.084-0.209-0.147-0.419-0.23-0.628c-0.649-1.759-1.424-3.456-2.304-5.09c-0.126-0.209-0.251-0.419-0.377-0.628      c-1.299-2.283-2.807-4.419-4.566-6.367c-0.168-0.23-0.377-0.44-0.565-0.67c-1.257-1.34-2.576-2.618-4-3.77      c-0.293-0.251-0.587-0.482-0.88-0.67c-6.535-5.09-14.746-8.085-23.626-8.085c-7.31,0-14.159,2.032-20.003,5.592      c-0.314,0.168-0.607,0.356-0.922,0.566c-1.906,1.215-3.665,2.597-5.32,4.147c-0.23,0.189-0.44,0.398-0.649,0.607      c-2.115,2.032-3.98,4.315-5.572,6.786c-0.147,0.189-0.272,0.398-0.398,0.608c-1.152,1.843-2.157,3.791-2.995,5.823      c-0.084,0.21-0.168,0.419-0.23,0.628c-1.278,3.268-2.116,6.744-2.43,10.368c-0.042,0.21-0.063,0.419-0.063,0.628      c-0.084,0.984-0.126,1.969-0.126,2.974c0,0.44,0,0.88,0.021,1.32c0,0.209,0.021,0.419,0.021,0.628      c0.168,3.246,0.733,6.388,1.655,9.383c0.063,0.21,0.126,0.419,0.188,0.608c0.44,1.34,0.922,2.639,1.508,3.896      c0.084,0.209,0.188,0.419,0.272,0.628c1.215,2.555,2.702,4.964,4.419,7.184c0.168,0.209,0.314,0.419,0.482,0.607      c1.026,1.299,2.158,2.513,3.351,3.645c0.209,0.209,0.419,0.419,0.649,0.607c6.87,6.346,16.065,10.2,26.14,10.2      c11.122,0,21.155-4.713,28.213-12.232c0.209-0.21,0.419-0.419,0.607-0.649c1.068-1.194,2.074-2.43,2.974-3.749      c0.168-0.209,0.314-0.44,0.44-0.649c1.403-2.074,2.576-4.294,3.561-6.619c0.084-0.209,0.168-0.419,0.251-0.628      c0.461-1.173,0.859-2.367,1.215-3.603c0.063-0.209,0.126-0.419,0.168-0.628c0.733-2.723,1.152-5.551,1.257-8.462      c0.021-0.209,0.021-0.419,0.021-0.628c0.021-0.293,0.021-0.565,0.021-0.859C303.915,382.336,303.873,381.247,303.768,380.179z       M302.595,384.954c-0.105,2.911-0.565,5.76-1.32,8.462c-0.042,0.209-0.105,0.419-0.167,0.628      c-0.356,1.236-0.775,2.43-1.257,3.603c-0.105,0.23-0.189,0.44-0.272,0.649c-1.026,2.346-2.283,4.587-3.728,6.64      c-0.168,0.23-0.314,0.44-0.461,0.649c-0.984,1.32-2.032,2.576-3.163,3.749c-0.21,0.209-0.419,0.44-0.629,0.649      c-6.786,6.744-16.107,10.913-26.412,10.913c-9.3,0-17.804-3.393-24.359-9.007c-0.23-0.209-0.44-0.398-0.67-0.607      c-1.257-1.131-2.451-2.346-3.54-3.645c-0.167-0.189-0.335-0.398-0.524-0.607c-1.78-2.199-3.309-4.608-4.566-7.163      c-0.105-0.209-0.209-0.419-0.293-0.628c-0.586-1.257-1.11-2.534-1.55-3.875c-0.084-0.21-0.147-0.419-0.209-0.628      c-0.943-2.974-1.529-6.095-1.697-9.342c0-0.21-0.021-0.419-0.021-0.628c-0.021-0.44-0.021-0.88-0.021-1.32      c0-1.005,0.042-1.99,0.126-2.974c0-0.209,0.021-0.419,0.042-0.628c0.356-3.624,1.215-7.1,2.535-10.347      c0.063-0.209,0.167-0.419,0.23-0.628c0.88-2.032,1.906-3.979,3.1-5.802c0.147-0.209,0.272-0.419,0.398-0.607      c1.697-2.493,3.686-4.755,5.886-6.765c0.23-0.21,0.461-0.398,0.691-0.607c1.78-1.529,3.707-2.911,5.739-4.084      c0.335-0.189,0.691-0.398,1.026-0.566c5.278-2.828,11.29-4.44,17.678-4.44c7.917,0,15.269,2.471,21.322,6.661      c0.335,0.23,0.649,0.461,0.964,0.691c1.571,1.173,3.037,2.451,4.377,3.833c0.231,0.21,0.44,0.419,0.628,0.649      c1.843,1.948,3.477,4.105,4.859,6.409c0.126,0.21,0.251,0.419,0.356,0.628c0.942,1.634,1.759,3.33,2.43,5.111      c0.084,0.209,0.168,0.419,0.251,0.628c1.026,2.828,1.739,5.844,2.074,8.944c0,0.209,0.021,0.419,0.042,0.628      c0.105,1.089,0.147,2.178,0.147,3.267c0,0.293,0,0.586-0.021,0.88C302.616,384.535,302.616,384.745,302.595,384.954z"
   id="path48" />
			</g>
			<g
   id="g50">
				<polygon
   style="fill:#FFE1CD;"
   points="106.624,268.329 143.523,328.896 97.049,381.179 62.302,344.494 75.641,290.705     "
   id="polygon49" />
			</g>
			<g
   id="g55">
				<g
   id="g51">
					<path
   style="fill:#FF9F8F;"
   d="M104.903,371.604c0,0,42.601,46.904,65.408,40.019c0,0,6.455,3.012,13.77-1.721       c0,0,9.037,3.012,13.77-5.164c0,0,9.467-4.733,9.467-9.897c0-5.164-9.037-14.631-9.037-14.631s0.43-11.188-5.594-18.504       c-6.024-7.315-51.638-31.413-51.638-31.413L104.903,371.604z"
   id="path50" />
				</g>
				<g
   id="g52">
					<path
   style="fill:#2B0000;"
   d="M176.082,413.6c-8.874,0-16.879-7.871-16.984-7.975c-0.37-0.37-0.37-0.97-0.001-1.34       c0.37-0.372,0.971-0.37,1.341-0.002c0.128,0.129,12.889,12.649,23.067,4.866c0.416-0.319,1.012-0.239,1.329,0.176       c0.318,0.417,0.239,1.012-0.177,1.329C181.864,412.79,178.928,413.6,176.082,413.6z"
   id="path51" />
				</g>
				<g
   id="g53">
					<path
   style="fill:#2B0000;"
   d="M189.265,411.348c-7.272,0-18.21-9.616-19.588-10.853c-0.389-0.35-0.421-0.949-0.072-1.34       c0.353-0.389,0.951-0.417,1.339-0.072c3.997,3.592,15.436,12.393,20.243,9.969c5.403-2.7,5.717-4.318,5.719-4.334       c-0.058-0.522,0.318-0.927,0.839-0.984c0.5-0.072,0.99,0.376,1.048,0.9c0.069,0.608-0.219,2.845-6.757,6.116       C191.205,411.164,190.269,411.348,189.265,411.348z"
   id="path52" />
				</g>
				<g
   id="g54">
					<path
   style="fill:#2B0000;"
   d="M199.253,404.782c-5.632,0-14.434-11.213-15.493-12.59c-0.319-0.415-0.241-1.01,0.174-1.329       c0.414-0.319,1.01-0.239,1.33,0.172c3.993,5.191,11.496,12.976,14.609,11.745c2.209-0.863,4.027-3.05,4.747-5.705       c1.022-3.776-0.194-8.104-3.423-12.189c-7.142-9.031-16.707-15.883-16.802-15.95c-0.426-0.305-0.527-0.896-0.223-1.323       c0.302-0.425,0.896-0.528,1.321-0.223c0.098,0.07,9.877,7.071,17.191,16.323c3.611,4.565,4.949,9.489,3.767,13.858       c-0.873,3.224-3.128,5.897-5.886,6.977C200.152,404.707,199.712,404.782,199.253,404.782z"
   id="path53" />
				</g>
			</g>
			<g
   id="g60">
				<g
   id="g56">
					<path
   style="fill:#FF9F8F;"
   d="M485.322,386.797v50.08c-3.582,1.78-7.75,3.163-12.609,4.001c0,0-6.849,2.849-14.096,2.409       c-3.645-0.23-7.394-1.319-10.431-4.022c-4.357-3.896-9.404-18.306-13.07-32.549c-0.189-0.691-0.377-1.382-0.545-2.074       c-0.042-0.21-0.105-0.419-0.147-0.628c-0.272-1.11-0.545-2.178-0.775-3.267c-0.063-0.21-0.105-0.419-0.147-0.628       c-0.398-1.676-0.754-3.309-1.089-4.922c-0.042-0.209-0.084-0.419-0.147-0.628c-0.189-0.985-0.398-1.969-0.566-2.932       c-0.042-0.209-0.084-0.398-0.126-0.607c-0.461-2.472-0.838-4.776-1.131-6.828c-0.021-0.209-0.042-0.419-0.063-0.628       c-0.189-1.424-0.335-2.744-0.398-3.875c-0.021-0.209-0.042-0.419-0.042-0.628c-0.126-2.325,0.021-3.854,0.503-4.336       c0.963-0.984,2.639,1.026,4.503,4.315c0.126,0.189,0.23,0.398,0.356,0.628c0.649,1.173,1.299,2.472,1.969,3.854       c0.105,0.21,0.209,0.419,0.293,0.628c1.026,2.178,2.053,4.503,2.974,6.703c0.084,0.21,0.167,0.398,0.251,0.607       c0.419,0.984,0.817,1.969,1.194,2.87c0.084,0.209,0.167,0.419,0.251,0.628c0.188,0.482,0.377,0.943,0.544,1.382       c0,0.021,0.021,0.042,0.021,0.063c0.524,1.361,0.984,2.493,1.299,3.33c0.084,0.23,0.168,0.44,0.231,0.628       c0.146,0.377,0.251,0.629,0.293,0.733c-0.021-0.126-0.063-0.377-0.126-0.733c-0.021-0.188-0.063-0.398-0.105-0.628       c-0.188-1.089-0.482-2.765-0.796-4.797c-0.042-0.209-0.063-0.419-0.105-0.628c-0.147-0.901-0.293-1.864-0.461-2.89       c-0.021-0.189-0.042-0.398-0.084-0.607c-0.314-2.074-0.628-4.357-0.943-6.682c-0.021-0.209-0.063-0.419-0.084-0.628       c-0.168-1.278-0.335-2.576-0.482-3.875c-0.021-0.21-0.042-0.419-0.063-0.628c-0.251-2.116-0.44-4.21-0.586-6.179       c-0.021-0.21-0.042-0.419-0.063-0.628c-0.063-1.152-0.126-2.262-0.168-3.288v-0.628c-0.042-1.738,0-3.247,0.168-4.399       c0.042-0.23,0.063-0.44,0.105-0.628c0.084-0.44,0.21-0.817,0.356-1.11c0.126-0.293,0.293-0.503,0.503-0.607       c0.021-0.021,0.021-0.042,0.042-0.042c0.419-0.209,0.859-0.146,1.34,0.126c0.272,0.147,0.566,0.377,0.88,0.67       c0.314,0.314,0.628,0.691,0.943,1.131c0.168,0.209,0.314,0.419,0.461,0.649c0.838,1.215,1.676,2.765,2.451,4.398       c0.126,0.21,0.23,0.44,0.314,0.649c0.503,1.068,1.005,2.157,1.445,3.226c0.084,0.209,0.188,0.419,0.251,0.628       c0.188,0.398,0.335,0.775,0.482,1.152l0.021,0.021c0.775,1.927,1.403,3.644,1.843,4.817c0.063,0.209,0.147,0.419,0.188,0.587       c0.021,0.021,0.021,0.042,0.021,0.042c0.105,0.251,0.168,0.461,0.23,0.628c-0.021-0.167-0.084-0.377-0.147-0.628       c-0.021-0.021-0.021-0.042-0.021-0.084c-0.042-0.168-0.105-0.335-0.147-0.545c-0.356-1.382-0.88-3.561-1.32-5.969       c-0.021-0.105-0.042-0.21-0.063-0.335v-0.021c-0.021-0.084-0.042-0.189-0.063-0.272c-0.168-1.047-0.335-2.115-0.461-3.184       c-0.021-0.21-0.063-0.419-0.084-0.628c-0.147-1.508-0.209-2.974-0.147-4.294c-0.021-0.209,0-0.419,0.021-0.628       c0.021-0.335,0.063-0.649,0.105-0.964c0.042-0.209,0.084-0.44,0.147-0.628c0.147-0.67,0.356-1.257,0.649-1.697       c0.398-0.607,0.943-1.005,1.634-1.11c0.691-0.105,1.55,0.419,2.534,1.445c0.461,0.461,0.943,1.047,1.424,1.717       c0.168,0.209,0.335,0.419,0.482,0.649c0.209,0.293,0.419,0.586,0.628,0.901c0.147,0.209,0.272,0.44,0.419,0.649       c0.817,1.257,1.676,2.702,2.534,4.252c0.126,0.21,0.251,0.419,0.356,0.628c0.544,0.985,1.089,2.011,1.655,3.079       c0.105,0.209,0.209,0.398,0.314,0.628c0.963,1.843,1.927,3.791,2.869,5.739c0.105,0.21,0.189,0.419,0.293,0.629       c0.607,1.257,1.194,2.534,1.78,3.791c0.105,0.209,0.188,0.419,0.293,0.628c0.209,0.482,0.44,0.943,0.649,1.424       c0.544,1.173,1.068,2.346,1.571,3.456c0.126,0.314,0.251,0.607,0.398,0.922c0,0.021,0,0.021,0,0.021       c0,0.021,0.021,0.042,0.021,0.063c0.084,0.168,0.147,0.293,0.21,0.44c0.084,0.21,0.188,0.419,0.272,0.608l0.314,0.754       l0.021,0.021c0.23,0.545,0.461,1.068,0.691,1.592c-0.251-0.775-0.503-1.571-0.691-2.367c-0.063-0.168-0.105-0.335-0.147-0.503       c-0.021-0.021-0.021-0.021-0.021-0.042c0-0.021,0-0.063-0.021-0.084c-0.419-1.76-0.691-3.519-0.691-5.09v-0.356       c0-0.021,0-0.021,0-0.042v-0.021c0.021-0.272,0.021-0.545,0.063-0.796c0.021-0.209,0.042-0.419,0.084-0.628       c0.251-1.508,0.88-2.765,2.011-3.561c0.126-0.105,0.272-0.168,0.398-0.251c0.021,0,0.021,0,0.021,0       c0.838-0.398,1.78-0.356,2.848-0.021c1.697,0.545,3.624,1.948,5.592,3.77c0.209,0.189,0.44,0.398,0.649,0.607       C483.458,384.787,484.401,385.771,485.322,386.797z"
   id="path55" />
				</g>
				<g
   id="g57">
					<path
   style="fill:#2B0000;"
   d="M449.37,415.155c-0.394,0-0.762-0.247-0.897-0.642l-4.949-14.416       c-2.28-11.356-6.982-37.685-2.122-39.491c0.738-0.278,1.542-0.211,2.323,0.176c4.471,2.236,8.673,16.083,9.137,17.656       c0.148,0.501-0.138,1.029-0.64,1.176c-0.503,0.151-1.03-0.137-1.178-0.64c-1.198-4.052-4.999-14.913-8.167-16.496       c-0.407-0.201-0.659-0.149-0.814-0.096c-2.097,0.781-0.591,17.826,3.288,37.223l4.916,14.296       c0.17,0.495-0.094,1.033-0.589,1.203C449.576,415.136,449.472,415.155,449.37,415.155z"
   id="path56" />
				</g>
				<g
   id="g58">
					<path
   style="fill:#2B0000;"
   d="M460.342,409.56c-0.416,0-0.799-0.278-0.913-0.699l-7.638-28.078       c-0.923-3.483-5.218-20.904,0.671-22.467c5.528-1.548,19.399,33.247,25.119,48.238c0.187,0.489-0.058,1.037-0.548,1.223       c-0.483,0.186-1.036-0.059-1.223-0.548c-8.65-22.67-19.835-47.078-22.858-47.078c-0.005,0-0.011,0-0.016,0       c-2.958,0.788-1.342,12.483,0.686,20.139l7.636,28.072c0.138,0.505-0.161,1.027-0.666,1.164       C460.508,409.548,460.425,409.56,460.342,409.56z"
   id="path57" />
				</g>
				<g
   id="g59">
					<path
   style="fill:#2B0000;"
   d="M485.322,384.745v2.848c-1.173-1.361-2.346-2.597-3.477-3.686c-0.23-0.23-0.44-0.44-0.67-0.628       c-2.807-2.576-5.341-4.042-6.954-3.477c-1.655,0.586-2.534,1.99-2.995,3.54c-0.063,0.209-0.105,0.419-0.168,0.628       c-0.063,0.335-0.126,0.607-0.167,0.943v0.042c0,0.084-0.021,0.147-0.021,0.21v0.021c-0.251,2.136,0.084,4.084,0.084,4.105       c0.042,0.168,0.021,0.335-0.042,0.482c0,0.021,0,0.021,0,0.021c-0.084,0.23-0.251,0.419-0.482,0.503       c-0.063,0.063-0.168,0.084-0.251,0.105c-0.168,0.021-0.356,0-0.503-0.084c-0.293-0.105-0.524-0.356-0.587-0.691       c-0.021-0.168-0.335-2.032-0.146-4.231c0-0.084,0-0.126,0.021-0.21v-0.021c0.042-0.398,0.084-0.796,0.168-1.194       c0.042-0.209,0.084-0.419,0.147-0.628c0.189-0.88,0.503-1.738,0.984-2.534c0.251-0.461,0.586-0.88,0.963-1.278       c0.21-0.23,0.461-0.44,0.733-0.628c0.461-0.356,1.005-0.649,1.613-0.88c1.445-0.524,3.1-0.126,4.859,0.859       c0.335,0.168,0.691,0.377,1.047,0.607c1.445,0.964,2.974,2.283,4.461,3.77c0.189,0.21,0.398,0.419,0.586,0.628       C484.799,384.158,485.071,384.452,485.322,384.745z"
   id="path58" />
				</g>
			</g>
			<g
   id="g61">
				<path
   style="fill:#2B0000;"
   d="M81.558,365.667c-0.23,0-0.461-0.082-0.643-0.25c-0.384-0.356-0.408-0.955-0.053-1.34      l50.67-54.867c0.355-0.387,0.955-0.409,1.34-0.055c0.384,0.356,0.408,0.955,0.053,1.34l-50.67,54.867      C82.067,365.565,81.813,365.667,81.558,365.667z"
   id="path60" />
			</g>
			<g
   id="g62">
				<path
   style="fill:#2B0000;"
   d="M97.049,382.125c-0.224,0-0.449-0.078-0.63-0.239c-0.392-0.348-0.426-0.947-0.079-1.338      l46.016-51.766l-33.539-57.176c-0.265-0.452-0.114-1.033,0.338-1.299c0.449-0.266,1.032-0.115,1.298,0.337l33.888,57.771      c0.208,0.356,0.164,0.804-0.109,1.111l-46.474,52.281C97.571,382.018,97.31,382.125,97.049,382.125z"
   id="path61" />
			</g>
		</g>
		<g
   id="g66">
			<path
   style="fill:#FFE1CD;"
   d="M215.637,80.88l-7.049,1.998c-1.061,0.301-1.89,1.13-2.191,2.191l-1.998,7.049     c-0.873,3.082-5.241,3.082-6.114,0l-1.998-7.049c-0.301-1.061-1.13-1.89-2.191-2.191l-7.049-1.998     c-3.081-0.873-3.081-5.241,0-6.114l7.049-1.998c1.061-0.301,1.89-1.13,2.191-2.191l1.998-7.049c0.873-3.082,5.241-3.082,6.114,0     l1.998,7.049c0.301,1.061,1.13,1.89,2.191,2.191l7.049,1.998C218.719,75.639,218.719,80.007,215.637,80.88z"
   id="path63" />
			<path
   style="fill:#FFE1CD;"
   d="M448.798,152.54l-7.049,1.997c-1.061,0.301-1.89,1.13-2.191,2.191l-1.998,7.049     c-0.873,3.082-5.241,3.082-6.114,0l-1.998-7.049c-0.301-1.061-1.13-1.89-2.191-2.191l-7.049-1.997     c-3.081-0.874-3.081-5.241,0-6.114l7.049-1.998c1.061-0.301,1.89-1.13,2.191-2.191l1.998-7.049c0.873-3.082,5.241-3.082,6.114,0     l1.998,7.049c0.301,1.061,1.13,1.89,2.191,2.191l7.049,1.998C451.88,147.299,451.88,151.667,448.798,152.54z"
   id="path64" />
			<path
   style="fill:#FFE1CD;"
   d="M462.703,266.205l-7.049,1.998c-1.061,0.301-1.89,1.13-2.191,2.191l-1.998,7.049     c-0.873,3.082-5.241,3.082-6.114,0l-1.998-7.049c-0.301-1.061-1.13-1.89-2.191-2.191l-7.049-1.998     c-3.081-0.873-3.081-5.241,0-6.114l7.049-1.998c1.061-0.301,1.89-1.13,2.191-2.191l1.998-7.049c0.873-3.082,5.241-3.082,6.114,0     l1.998,7.049c0.301,1.061,1.13,1.89,2.191,2.191l7.049,1.998C465.784,260.964,465.784,265.332,462.703,266.205z"
   id="path65" />
			<path
   style="fill:#FFE1CD;"
   d="M163.471,184.919l-7.049,1.997c-1.061,0.301-1.89,1.13-2.191,2.191l-1.998,7.049     c-0.873,3.082-5.241,3.082-6.114,0l-1.998-7.049c-0.301-1.061-1.13-1.89-2.191-2.191l-7.049-1.997     c-3.081-0.873-3.081-5.241,0-6.114l7.049-1.998c1.061-0.301,1.89-1.13,2.191-2.191l1.998-7.049c0.873-3.082,5.241-3.082,6.114,0     l1.998,7.049c0.301,1.061,1.13,1.89,2.191,2.191l7.049,1.998C166.552,179.678,166.552,184.046,163.471,184.919z"
   id="path66" />
		</g>
	</g>
</g>















</svg>
