<?xml version="1.0" encoding="UTF-8" standalone="no"?>
<!-- Generator: Adobe Illustrator 26.0.2, SVG Export Plug-In . SVG Version: 6.00 Build 0)  -->

<svg
   version="1.1"
   id="Capa_1"
   x="0px"
   y="0px"
   viewBox="0 0 512 512"
   style="enable-background:new 0 0 512 512;"
   xml:space="preserve"
   width="512"
   height="512"
   sodipodi:docname="usa.svg"
   inkscape:version="1.4 (1:1.4+202410161351+e7c3feb100)"
   xmlns:inkscape="http://www.inkscape.org/namespaces/inkscape"
   xmlns:sodipodi="http://sodipodi.sourceforge.net/DTD/sodipodi-0.dtd"
   xmlns="http://www.w3.org/2000/svg"
   xmlns:svg="http://www.w3.org/2000/svg"><defs
   id="defs129" /><sodipodi:namedview
   id="namedview129"
   pagecolor="#505050"
   bordercolor="#ffffff"
   borderopacity="1"
   inkscape:showpageshadow="0"
   inkscape:pageopacity="0"
   inkscape:pagecheckerboard="1"
   inkscape:deskcolor="#505050"
   inkscape:zoom="1.5683594"
   inkscape:cx="255.6812"
   inkscape:cy="256"
   inkscape:window-width="1920"
   inkscape:window-height="1011"
   inkscape:window-x="0"
   inkscape:window-y="32"
   inkscape:window-maximized="1"
   inkscape:current-layer="g127" />
<g
   id="g129">
	
	<g
   id="g128">
		
		<g
   id="g127">
			<g
   id="g80">
				<g
   id="g8">
					
					
				</g>
				<g
   id="g79">
					<g
   id="g9">
						<path
   style="fill:#A6DCE7;"
   d="M470.681,259.605v30.427c0,0-2.127,16.889-3.428,17.75c-4.748,3.143-11.537,7.222-19.646,10.94        c-0.519,0.248-1.015,0.474-1.534,0.699c-1.669,0.744-3.361,1.444-5.12,2.143c-3,1.173-6.112,2.278-9.338,3.225        c-10.42,3.09-21.946,4.804-33.584,3.338c-0.248-0.023-0.519-0.045-0.767-0.09c-0.361-0.045-0.722-0.09-1.083-0.158        c-7.466-1.015-14.323-2.075-20.525-3.09c-0.541-0.09-1.06-0.18-1.579-0.271c-0.541-0.09-1.06-0.18-1.579-0.271        c-10.128-1.714-18.337-3.316-24.45-4.601l-4.759,39.359c0.023,0,0,0.023,0,0.023l-0.767,6.315v0.045l-2.458,20.435H160.142        l-0.654-6.473c-2.301,3.248-4.488,6.293-6.36,8.841c-0.632,0.835-1.218,1.602-1.759,2.323c-2.346,3.09-3.97,4.962-4.331,4.849        c-0.09-0.023-0.361-0.18-0.812-0.429c-3.519-1.962-17.525-10.511-32.434-20.75h-0.023c-1.759-1.218-3.519-2.459-5.323-3.722        c-3.947-2.819-7.894-5.684-11.638-8.571c-6.112-4.646-11.684-9.293-15.992-13.533l-0.068-0.068        c-4.173-4.082-7.127-7.781-8.187-10.714c-4.488-12.563,16.352-51.764,34.058-85.642c0.384-0.745,0.767-1.511,1.173-2.255        c5.368-10.308,10.375-20.029,14.232-28.284c15.36-32.908,86.769-63.966,98.002-68.68h0.023        c0.947-0.429,1.466-0.632,1.466-0.632l-0.203,0.97l10.827,1.241l10.578,1.218l22.578,2.594l21.63,2.481l5.481,0.631        l0.203,0.068l2.007,0.767l49.012,18.382l0.023-0.158c0,0,0.338,0.181,0.925,0.496l1.353,0.519        c2.977,1.105,5.639,2.797,7.872,4.849c9.09,5.594,21.698,14.39,26.773,22.736c5.075,8.345,13.714,24.653,19.646,36.111        c0.158,0.293,0.293,0.541,0.451,0.812c0.18,0.361,0.361,0.699,0.519,1.038c0.88,1.692,1.692,3.248,2.391,4.601        c0.181,0.384,0.361,0.722,0.541,1.06c1.105,2.165,1.94,3.767,2.346,4.601c0.225,0.406,0.338,0.632,0.338,0.632l1.624-0.474        l0.023-0.023l18.022-5.368l4.105-1.218h0.023l18.067-5.391l0.045-0.023l4.015-1.195l2.977-0.88l10.105-3.023l2.955-0.88        l0.023,0.338l0.068,0.609l0.045,0.474L470.681,259.605z"
   id="path8" />
					</g>
					<g
   id="g10">
						<path
   style="fill:#350820;"
   d="M268.973,349.368c-0.011,0-0.024-0.001-0.037-0.001c-0.482-0.021-0.857-0.428-0.837-0.911        l7.15-169.598c0.022-0.481,0.374-0.832,0.912-0.838c0.482,0.021,0.857,0.428,0.837,0.911l-7.15,169.598        C269.827,348.999,269.44,349.368,268.973,349.368z"
   id="path9" />
					</g>
					<g
   id="g11">
						<path
   style="fill:#2984B4;"
   d="M368.957,497.651h-91.281l-12.428-48.989v-0.023l-3.225-12.766l-5.052-0.225l-8.661-0.361        l-5.548,40.148c0.023,0.023,0,0.045,0,0.045l-2.387,17.256l-106.846,1.277l13.442-98.084l0.068-0.564l0.97-1.511l1.646-2.549        l2.368-3.722l6.518-10.127l0.158-0.248l8.571-13.375l0.023-0.045l0.902-0.023l1.263-0.022l26.322-0.429l20.818-0.361        l2.255-0.045l9.09-0.158h0.767l2.233-0.045l9.879-0.158h0.045l2.233-0.045l1.466-0.022l8.345-0.158h0.023l2.21-0.023        l5.481-0.09l4.398-0.09h0.023l2.21-0.023h0.023l7.127-0.135l2.21-0.023h0.023l2.188-0.045l55.959-0.947l7.669-0.135        l0.067,4.489v0.09l0.429,25.51c0.023,0.023,0.023,0.023,0,0.023l0.09,5.639l19.826,61.462v0.023l1.376,4.218v0.023        l1.331,4.128l7.35,22.773L368.957,497.651z"
   id="path10" />
					</g>
					<g
   style="opacity:0.44;"
   id="g12">
						<path
   style="fill:#FF6151;"
   d="M287.285,24.01c-1.283,0.653-2.66,1.167-4.06,1.587c-11.457,3.547-24.362,1.867-34.699-4.224        c3.454,0,6.93,0.163,10.361-0.116c3.313-0.28,6.557-0.957,9.847-1.167C275.127,19.693,281.498,21.21,287.285,24.01z"
   id="path11" />
					</g>
					<g
   id="g44">
						<g
   id="g16">
							<g
   id="g13">
								<path
   style="fill:#FF6151;"
   d="M295.079,143.95l-1.283,8.961l-1.984,13.977c0,0-0.49,0.677-1.493,1.75          c-3.337,3.524-12.461,11.201-28.305,10.757c-20.534-0.607-30.382-22.938-30.382-22.938l7.164-31.875L295.079,143.95z"
   id="path12" />
							</g>
							<g
   style="opacity:0.69;"
   id="g14">
								<path
   style="fill:#FFCFBC;"
   d="M295.079,143.95l-5.444,8.048l2.178,14.89c0,0-0.49,0.677-1.493,1.75          c-3.337,3.524-12.461,11.201-28.305,10.757c-20.534-0.607-30.382-22.938-30.382-22.938l7.164-31.875L295.079,143.95z"
   id="path13" />
							</g>
							<g
   id="g15">
								<path
   style="fill:#350820;"
   d="M293.795,152.911l-1.984,13.977c0,0-0.49,0.677-1.493,1.75          c-1.657-0.117-3.314-0.443-4.947-0.84c-7.654-1.867-15.028-5.274-21.001-10.431c-5.974-5.134-11.061-11.994-12.764-19.695          c7.047,7.304,17.338,10.407,27.231,12.718C283.738,151.534,288.778,152.561,293.795,152.911z"
   id="path14" />
							</g>
						</g>
						<g
   id="g38">
							<g
   id="g31">
								<g
   id="g17">
									<path
   style="fill:#FF6151;"
   d="M321.303,85.556c0-26.488-21.472-47.96-47.96-47.96s-47.96,21.473-47.96,47.96           c0,13.307,5.425,25.342,14.177,34.03c0.978,6.742,2.083,14.003,3.101,19.888c2.681,15.49,58.478,16.486,67.323,11.32           c10.029-5.858,10.187-37.591,10.625-57.406C321.029,90.833,321.303,88.229,321.303,85.556z"
   id="path16" />
								</g>
								<g
   style="opacity:0.69;"
   id="g18">
									<path
   style="fill:#FFCFBC;"
   d="M321.303,85.556c0-26.488-21.472-47.96-47.96-47.96s-47.96,21.473-47.96,47.96           c0,13.307,5.425,25.342,14.177,34.03c0.978,6.742,2.083,14.003,3.101,19.888c2.681,15.49,58.478,16.486,67.323,11.32           c10.029-5.858,10.187-37.591,10.625-57.406C321.029,90.833,321.303,88.229,321.303,85.556z"
   id="path17" />
								</g>
								<g
   id="g19">
									<path
   style="fill:#FF6151;"
   d="M215.112,102.104c-5.14,7.193-2.93,17.029,3.956,22.223           c5.324,4.016,13.222,5.459,19.611,3.497c1.307-0.402,2.627-0.957,3.532-1.982c0.963-1.09,1.337-2.57,1.59-4.003           c0.974-5.528,1.33-14.513-2.423-19.284c-4.076-5.182-11.85-7.16-18.132-5.882           C219.836,97.366,217.043,99.403,215.112,102.104z"
   id="path18" />
								</g>
								<g
   style="opacity:0.69;"
   id="g20">
									<path
   style="fill:#FFCFBC;"
   d="M215.112,102.104c-5.14,7.193-2.93,17.029,3.956,22.223           c5.324,4.016,13.222,5.459,19.611,3.497c1.307-0.402,2.627-0.957,3.532-1.982c0.963-1.09,1.337-2.57,1.59-4.003           c0.974-5.528,1.33-14.513-2.423-19.284c-4.076-5.182-11.85-7.16-18.132-5.882           C219.836,97.366,217.043,99.403,215.112,102.104z"
   id="path19" />
								</g>
								<g
   id="g29">
									<g
   id="g21">
										<path
   style="fill:#350820;"
   d="M293.611,128.787c-0.597,0-1.196-0.051-1.789-0.152c-2.35-0.402-4.524-1.6-6.121-3.371            c-0.324-0.359-0.295-0.912,0.064-1.236c0.357-0.324,0.912-0.297,1.236,0.064c1.335,1.481,3.152,2.481,5.117,2.818            c1.967,0.335,4.011-0.002,5.762-0.954c0.43-0.233,0.958-0.074,1.187,0.351c0.231,0.424,0.073,0.956-0.35,1.186            C297.149,128.345,295.384,128.787,293.611,128.787z"
   id="path20" />
									</g>
									<g
   id="g28">
										<g
   id="g25">
											<g
   id="g22">
												<circle
   style="fill:#350820;"
   cx="272.648"
   cy="105.315"
   r="4.766"
   id="circle21" />
											</g>
											<g
   id="g23">
												<circle
   style="fill:#350820;"
   cx="308.394"
   cy="105.315"
   r="4.766"
   id="circle22" />
											</g>
											<g
   id="g24">
												<path
   style="fill:#350820;"
   d="M298.067,121.582c-0.112,0-0.227-0.022-0.335-0.067l-6.106-2.532              c-0.447-0.185-0.659-0.697-0.474-1.143c0.185-0.447,0.698-0.657,1.143-0.474l4.762,1.975l-1.797-18.807              c-0.046-0.481,0.306-0.909,0.786-0.955c0.517-0.027,0.91,0.308,0.954,0.788l1.936,20.257              c0.031,0.306-0.104,0.605-0.35,0.787C298.435,121.523,298.252,121.582,298.067,121.582z"
   id="path23" />
											</g>
										</g>
										<g
   id="g26">
											<path
   style="fill:#350820;"
   d="M265.819,86.917c-1.026,0.769-1.855,1.896-1.968,3.174             c-0.154,1.735,1.07,3.373,2.619,4.171c1.548,0.798,3.357,0.906,5.098,0.845c2.069-0.072,4.208-0.386,5.94-1.52             c1.731-1.134,2.944-3.265,2.47-5.28c-0.398-1.691-1.906-2.969-3.572-3.464C273.103,83.861,268.545,84.873,265.819,86.917             z"
   id="path25" />
										</g>
										<g
   id="g27">
											<path
   style="fill:#350820;"
   d="M316.627,86.619c1.026,0.769,1.855,1.897,1.968,3.174c0.154,1.735-1.07,3.372-2.619,4.171             c-1.548,0.798-3.357,0.906-5.098,0.845c-2.069-0.072-4.208-0.386-5.94-1.521c-1.732-1.134-2.944-3.265-2.47-5.279             c0.398-1.691,1.906-2.969,3.572-3.464C309.343,83.563,313.901,84.575,316.627,86.619z"
   id="path26" />
										</g>
									</g>
								</g>
								<g
   id="g30">
									<path
   style="fill:#350820;"
   d="M225.352,95.886c1.676-0.468,3.501-0.188,5.086,0.527c1.586,0.715,2.955,1.839,4.178,3.076           c2.928,2.96,5.118,6.644,6.322,10.629c1.657,0.177,3.443,0.354,5.1,0.531c0.287-4.485,0.63-9.526,3.506-12.979           c1.64-1.969,3.93-3.287,5.72-5.12c2.23-2.284,3.622-5.37,3.858-8.554c0.184-2.475-0.241-5.214,1.21-7.228           c1.423-1.975,4.127-2.475,6.559-2.576c4.862-0.202,9.728,0.553,14.587,0.299s9.968-1.716,13.103-5.438           c2.108-2.502,3.1-5.762,3.627-8.99c0.996-6.107,0.491-12.454-1.459-18.326c-6.879-5.28-15.791-7.727-24.452-8.151           c-8.823-0.432-17.837,0.345-26.054,3.588c-8.217,3.243-15.598,9.141-19.451,17.09c-2.1,4.333-3.102,9.118-3.715,13.893           C221.954,76.923,223.971,87.157,225.352,95.886z"
   id="path29" />
								</g>
							</g>
							<g
   id="g37">
								<g
   id="g33">
									<g
   id="g32">
										<path
   style="fill:#FFB349;"
   d="M359.902,61.555c0.21,3.057-1.82,5.787-3.944,7.98            c-8.68,8.937-20.721,14.118-32.925,16.054c-0.397,0.07-0.817,0.14-1.213,0.187c-9.451,1.354-19.088,0.887-28.515-0.467            c-9.171-1.307-18.551-2.753-27.862-2.1c-11.178,0.793-22.145,3.757-32.202,8.75c-8.051,4.014-18.434,9.637-20.511,19.205            c-1.05,4.783,5.344,13.254,10.967,16.194c-13.208,2.543-27.162,1.027-39.506-4.317c-4.667-2.007-9.194-4.643-12.601-8.424            c-5.133-5.693-8.074-11.597-6.044-19.298c1.96-7.397,7.094-13.417,13.324-17.664c5.087-3.477,10.804-5.881,16.544-8.051            c3.033-1.143,6.137-2.147,9.217-3.173c0.7-0.234,6.09-1.68,7.887-2.497c0.35-0.163,0.583-0.303,0.583-0.397            c0.187-6.09,0.817-12.181,1.914-18.178c0.747-4.084,1.75-8.237,4.107-11.644c1.844-2.66,4.434-4.76,7.187-6.464            c5.297-3.244,11.387-5.227,17.571-5.717c1.54-0.117,3.103-0.163,4.643-0.163c3.454,0,6.93,0.163,10.361-0.116            c3.313-0.28,6.557-0.957,9.847-1.167c6.394-0.397,12.764,1.12,18.551,3.92c2.917,1.4,5.693,3.15,8.237,5.134            c7.514,5.857,13.861,14.934,18.458,23.311c0.07,0.117,0.116,0.233,0.187,0.35c12.507-1.914,25.668-3.78,37.545,0.56            C355.562,54.765,359.622,57.472,359.902,61.555z"
   id="path31" />
									</g>
								</g>
								<g
   id="g34">
									<path
   style="fill:#350820;"
   d="M249.059,70.912c-5.126,0-10.463-0.152-16.13-0.39c-6.621-0.278-13.073-0.666-19.209-2.355           c-0.467-0.128-0.74-0.61-0.612-1.076c0.128-0.465,0.612-0.735,1.075-0.611c5.969,1.642,12.055,2.01,18.822,2.293           c15.846,0.666,29.106,0.665,42.291-1.507c15.467-2.544,28.443-7.868,38.568-15.823c0.377-0.296,0.929-0.233,1.227,0.148           c0.299,0.38,0.233,0.931-0.148,1.229c-10.359,8.139-23.604,13.58-39.366,16.173           C266.979,70.409,258.369,70.912,249.059,70.912z"
   id="path33" />
								</g>
								<g
   id="g35">
									<path
   style="fill:#FFB349;"
   d="M323.034,85.59c-0.397,0.07-0.817,0.14-1.213,0.187c-9.451,1.354-19.088,0.887-28.515-0.467           c-9.171-1.307-18.551-2.753-27.862-2.1c-11.178,0.793-22.145,3.757-32.202,8.75c-8.051,4.014-18.434,9.637-20.511,19.205           c-1.05,4.783,5.344,13.254,10.967,16.194c-13.208,2.543-27.162,1.027-39.506-4.317c-4.667-2.007-9.194-4.643-12.601-8.424           c-5.133-5.693-8.074-11.597-6.044-19.298c1.96-7.397,7.094-13.417,13.324-17.664c5.087-3.477,10.804-5.881,16.544-8.051           c3.033-1.143,6.137-2.147,9.217-3.173c0.7-0.234,6.09-1.68,7.887-2.497c4.223,0.653,8.33,1.19,12.881,1.307           c8.937,0.21,17.874,1.05,26.695,2.474c10.22,1.633,20.325,4.084,30.172,7.304C295.639,79.406,309.219,85.31,323.034,85.59z           "
   id="path34" />
								</g>
								<g
   style="opacity:0.44;"
   id="g36">
									<path
   style="fill:#FF6151;"
   d="M323.034,85.59c-0.397,0.07-0.817,0.14-1.213,0.187c-9.451,1.354-19.088,0.887-28.515-0.467           c-9.171-1.307-18.551-2.753-27.862-2.1c-11.178,0.793-22.145,3.757-32.202,8.75c-8.051,4.014-18.434,9.637-20.511,19.205           c-1.05,4.783,5.344,13.254,10.967,16.194c-13.208,2.543-27.162,1.027-39.506-4.317c-4.667-2.007-9.194-4.643-12.601-8.424           c-5.133-5.693-8.074-11.597-6.044-19.298c1.96-7.397,7.094-13.417,13.324-17.664c5.087-3.477,10.804-5.881,16.544-8.051           c3.033-1.143,6.137-2.147,9.217-3.173c0.7-0.234,6.09-1.68,7.887-2.497c4.223,0.653,8.33,1.19,12.881,1.307           c8.937,0.21,17.874,1.05,26.695,2.474c10.22,1.633,20.325,4.084,30.172,7.304C295.639,79.406,309.219,85.31,323.034,85.59z           "
   id="path35" />
								</g>
							</g>
						</g>
						<g
   id="g43">
							<g
   id="g39">
								<path
   style="fill:#FF6151;"
   d="M219.722,156.255c0,0-0.199-19.164,17.079-24.228l-0.252,2.266          c-0.387,3.483-0.154,7.014,0.829,10.378c2.21,7.564,8.14,19.318,23.751,20.719c23.236,2.085,32.669-10.327,32.669-10.327          s2.78,9.433-1.986,17.774c-4.766,8.341-34.257,19.065-49.748,7.745C226.574,169.263,219.722,156.255,219.722,156.255z"
   id="path38" />
							</g>
							<g
   id="g42">
								<g
   id="g40">
									<path
   style="fill:#FF6151;"
   d="M267.996,171.538c-12.351,4.176-19.995,17.207-21.59,30.147           c-1.596,12.94,1.731,25.932,5.191,38.502c14.318-8.4,23.808-23.715,26.189-40.143c0.582-4.014,0.715-8.161-0.342-12.076           C275.881,182.178,271.878,176.108,267.996,171.538z"
   id="path39" />
								</g>
								<g
   id="g41">
									<path
   style="fill:#FF6151;"
   d="M268.469,172.088c12.692-2.982,26.068,4.04,34.261,14.182           c8.193,10.142,12.235,22.929,15.941,35.429c-16.595,0.436-32.745-7.55-43.448-20.239c-2.615-3.1-4.92-6.551-6.092-10.433           C267.398,185.287,267.588,178.018,268.469,172.088z"
   id="path40" />
								</g>
							</g>
						</g>
					</g>
					<g
   id="g55">
						<g
   id="g53">
							<g
   id="g45">
								<path
   style="fill:#350820;"
   d="M345.319,376.395c-0.113,4.939-0.925,9.811-2.368,14.503v0.023          c-3.225,10.578-9.541,20.255-17.841,27.562c-11.638,10.24-27.246,13.263-41.524,18.067          c-7.398,2.504-13.894,6.067-18.337,12.089v0.023c-1.128,1.511-2.097,3.158-2.932,5.007          c-2.481,5.481-3.654,11.458-4.985,17.345c-2.053,9.157-4.782,18.631-9.518,26.637h-18.766l-57.584-26.017l-38.05,26.017          h-4.962c-3.383-2.932-6.541-6.135-9.451-9.586c-7.624-9.044-13.51-19.623-17.255-30.63          c-0.564-1.646-1.105-3.271-1.601-4.917c-2.459-7.804-4.331-15.45-5.368-23.074c-1.511-11.526-1.083-23.029,2.323-35.186          c2.368-8.458,6.293-16.262,11.165-23.502c0.067-0.09,0.135-0.203,0.18-0.293c6.315-9.293,14.187-17.683,22.397-25.442          c3.474-3.293,7.33-6.225,11.481-8.706c0.541-0.361,1.128-0.677,1.692-0.992c6.496-3.699,13.623-6.293,20.976-7.466h0.022          c0.271-0.045,0.564-0.09,0.857-0.113c0.361-0.09,0.744-0.135,1.128-0.158c0.18-0.045,0.384-0.068,0.564-0.09          c5.909-0.677,11.886-0.045,17.886,0.677c13.871,1.692,26.412,2.323,38.208-6.518c10.465-7.804,17.751-19.307,28.803-26.367          c5.481-3.496,11.706-5.774,18.157-6.721c0.586-0.09,1.173-0.158,1.782-0.225c5.255-0.586,10.623-0.248,15.743,1.083          c7.24,1.872,13.894,5.526,19.736,10.262c0.722,0.564,1.421,1.15,2.12,1.759c0.451,0.406,0.902,0.789,1.331,1.218          c0.293,0.248,0.587,0.541,0.88,0.835c0.744,0.699,1.489,1.444,2.211,2.188c0.496,0.519,0.992,1.038,1.443,1.579          c0.293,0.293,0.541,0.586,0.812,0.88c1.15,1.308,2.255,2.639,3.293,4.015c0.271,0.316,0.496,0.631,0.722,0.947          c1.06,1.353,2.052,2.752,3.022,4.173c0.225,0.316,0.429,0.632,0.654,0.97c0.947,1.421,1.872,2.887,2.752,4.376          c0.226,0.316,0.406,0.632,0.609,0.97c0.654,1.083,1.263,2.165,1.872,3.248c0.203,0.338,0.383,0.654,0.564,0.992          c0.18,0.293,0.338,0.586,0.474,0.88c0.519,0.88,0.992,1.759,1.466,2.661c4.669,8.774,8.842,18.022,11.188,27.63          c0,0.023,0,0.023,0,0.023C344.711,364.712,345.455,370.509,345.319,376.395z"
   id="path44" />
							</g>
							<g
   id="g46">
								<path
   style="fill:#FFB349;"
   d="M334.899,365.975c-0.158,6.834-1.669,13.578-4.285,19.848          c-3.519,8.503-9.045,16.172-15.924,22.239c-11.661,10.24-27.269,13.262-41.524,18.067          c-6.293,2.12-11.932,5.007-16.195,9.518c-2.03,2.143-3.744,4.647-5.075,7.601c-2.481,5.481-3.654,11.458-4.985,17.322          c-1.128,4.962-2.413,10.015-4.15,14.864c0.023,0.023,0,0.045,0,0.045c-2.977,8.458-7.195,16.352-13.714,22.172h-95.633          c-0.136-0.045-0.248-0.113-0.361-0.18c-1.173-0.609-2.301-1.241-3.428-1.895c-3.744-2.188-7.285-4.714-10.623-7.511          c-9.744-8.187-17.661-18.698-23.209-30.156c-1.714-3.564-3.203-7.218-4.466-10.894c-3.338-9.811-5.864-19.285-7.06-28.758          c-1.421-11.277-0.925-22.555,2.391-34.419c2.12-7.579,5.481-14.638,9.699-21.224c0.135-0.248,0.293-0.474,0.451-0.722          c6.496-10.037,14.864-19.036,23.615-27.292c4.827-4.556,10.353-8.436,16.352-11.39c0.564-0.316,1.15-0.586,1.759-0.857          c5.752-2.684,11.909-4.488,18.225-5.233c0.113-0.023,0.248-0.023,0.361-0.045c0.158-0.023,0.316-0.045,0.473-0.045          c0.406-0.045,0.812-0.09,1.241-0.09c5.368-0.429,10.759,0.158,16.172,0.812c13.894,1.669,26.412,2.301,38.231-6.518          c10.443-7.826,17.751-19.33,28.803-26.367c8.548-5.436,18.946-7.984,29.028-7.037c0.586,0.068,1.173,0.135,1.759,0.225          c1.646,0.203,3.293,0.519,4.895,0.947c10.105,2.594,19.059,8.706,26.276,16.24c1.353,1.421,2.662,2.909,3.88,4.443          c0.586,0.654,1.128,1.331,1.646,2.03c0.384,0.451,0.722,0.925,1.06,1.398c0.248,0.316,0.496,0.632,0.722,0.947          c1.015,1.376,1.985,2.797,2.932,4.24c0.225,0.316,0.429,0.654,0.632,0.992c0.947,1.444,1.849,2.91,2.729,4.376          c0.203,0.338,0.406,0.677,0.586,1.015c0.88,1.489,1.714,3,2.526,4.511h0.023c0.18,0.338,0.361,0.677,0.541,1.015          c0.135,0.248,0.271,0.496,0.406,0.744c0.677,1.286,1.353,2.571,1.985,3.857c0.203,0.338,0.361,0.699,0.519,1.037          c0.586,1.105,1.128,2.233,1.646,3.383c0.18,0.338,0.338,0.699,0.474,1.06c0.158,0.293,0.293,0.609,0.429,0.925          c4.263,9.496,7.443,19.465,8.052,29.727C334.899,362.614,334.944,364.283,334.899,365.975z"
   id="path45" />
							</g>
							<g
   id="g52">
								<g
   id="g47">
									<polygon
   style="fill:#350820;"
   points="145.051,393.375 181.99,442.626 197.877,433.888 161.733,385.828          "
   id="polygon46" />
								</g>
								<g
   id="g48">
									<circle
   style="fill:#350820;"
   cx="228.361"
   cy="371.828"
   r="33.662"
   id="circle47" />
								</g>
								<g
   id="g51">
									<g
   id="g49">
										<path
   style="fill:#350820;"
   d="M470.658,217.63c0.023,0.496,0.023,0.97,0.023,1.466v19.961l-1.827,1.15l-10.601,6.812            l-53.523,34.261l-29.547,18.901l-44.546,28.532l-3.902,2.504l-47.907,30.675l-16.826,10.781l-8.187,5.233l-0.632-1.06            l-0.586-0.992l-1.94-3.203l-0.586-0.992l-2.662-4.443l-0.586-0.992l-2.256-3.744l-0.384-0.677l-0.609-1.015l-2.661-4.421            l-0.609-1.015l-2.639-4.421l-0.609-1.015l-1.24-2.075l8.796-5.503l24.382-15.247l1.804-1.128l38.727-24.247l0.474-0.271            l51.448-32.186l26.863-16.826l11.909-7.443l40.125-25.104l25.893-16.195l0.18,0.248l0.654,0.97l2.932,4.24l0.451,0.677            l0.226,0.293l-0.203,0.135c0.09,1.985,0.158,3.992,0.158,6C470.658,216.706,470.681,217.157,470.658,217.63z"
   id="path48" />
									</g>
									<g
   style="opacity:0.32;"
   id="g50">
										<path
   style="fill:#FFC4E4;"
   d="M470.658,217.63c0.023,0.496,0.023,0.97,0.023,1.466v19.961l-1.827,1.15l-10.601,6.812            l-53.523,34.261l-29.547,18.901l-44.546,28.532l-3.902,2.504l-47.907,30.675l-16.826,10.781l-8.187,5.233l-0.632-1.06            l-0.586-0.992l-1.94-3.203l-0.586-0.992l-2.662-4.443l-0.586-0.992l-2.256-3.744l-0.384-0.677l-0.609-1.015l-2.661-4.421            l-0.609-1.015l-2.639-4.421l-0.609-1.015l-1.24-2.075l8.796-5.503l24.382-15.247l1.804-1.128l38.727-24.247l0.474-0.271            l51.448-32.186l26.863-16.826l11.909-7.443l40.125-25.104l25.893-16.195l0.18,0.248l0.654,0.97l2.932,4.24l0.451,0.677            l0.226,0.293l-0.203,0.135c0.09,1.985,0.158,3.992,0.158,6C470.658,216.706,470.681,217.157,470.658,217.63z"
   id="path49" />
									</g>
								</g>
							</g>
						</g>
						<g
   id="g54">
							<path
   style="fill:#350820;"
   d="M470.658,217.63c0.023,0.496,0.023,0.97,0.023,1.466v20.39l-1.782,1.195l-10.263,6.924         l-0.383-0.586l-0.338-0.496l-0.632-0.97l-1.579-2.391l-0.474-0.722l-0.632-0.97l-2.842-4.308l-0.654-0.97l-2.842-4.308         l-0.654-0.97l-2.819-4.308l-0.654-0.97l-2.842-4.308l-0.654-0.992l-0.293-0.451l-0.18-0.271l29.592-20.074         c0.067,0.699,0.135,1.421,0.18,2.143c0.068,0.451,0.09,0.88,0.113,1.331c0.158,1.962,0.293,3.924,0.383,5.887         c0.023,0.316,0.023,0.609,0.023,0.925l0.226,0.293l-0.203,0.135c0.09,1.985,0.158,3.992,0.158,6         C470.658,216.706,470.681,217.157,470.658,217.63z"
   id="path53" />
						</g>
					</g>
					<g
   id="g68">
						<g
   id="g57">
							<g
   id="g56">
								<path
   style="fill:#FFCFBC;"
   d="M469.936,201.684c0.068,0.451,0.09,0.88,0.113,1.331l-2.977,1.895l-25.78,16.42          l-40.103,25.51l-10.646,6.789l-29.164,18.563l-5.143,3.271l-1.015,0.654l-43.013,27.382l-0.902,0.564l-40.667,25.893          l-1.827,1.15l-20.908,13.307l-10.24,6.518l-15.45,9.834l-3.361,2.143l-9.856,6.293l-2.278,1.444l-11.458,7.285          l-12.405,7.894l-14.277,9.09l-1.376,0.88l-4.037,2.571l-0.677-0.97l3.519-2.233l1.872-1.195l12.789-8.142l14.367-9.157          l9.902-6.293l2.278-1.444l9.383-5.977l4.15-2.639l16.307-10.398l9.789-6.225l22.036-14.029l1.804-1.15l39.9-25.397          l0.744-0.451l50.027-31.848l28.036-17.864l11.278-7.15l39.968-25.465l25.78-16.398L469.936,201.684z"
   id="path55" />
							</g>
						</g>
						<g
   id="g59">
							<g
   id="g58">
								<path
   style="fill:#FFCFBC;"
   d="M470.681,210.119l-0.203,0.135l-25.69,16.352L404.121,252.5l-8.706,5.526l-31.464,20.029          l-1.308,0.835l-0.519,0.338l-45.448,28.916l-1.805,1.15l-44.569,28.352l-1.804,1.15l-15.631,9.969l-11.954,7.601          l-9.969,6.338l-1.218,0.767l-9.135,5.819h-0.023l-2.188,1.398l-1.421,0.925l-0.812,0.519l-19.082,12.135l-2.436,1.556          l-20.976,13.353l-1.263,0.79l-5.661,3.609l-0.654-0.97l5.593-3.564l0.79-0.496l19.984-12.721l4.218-2.684l17.751-11.3          l0.744-0.496h0.023l1.489-0.947l1.263-0.789c0,0,0-0.023,0.023,0l10.466-6.676l0.293-0.18l11.593-7.398l11.729-7.466          l16.533-10.511l1.805-1.15l43.869-27.923l1.624-1.038l44.839-28.532l1.601-1.015l0.203-0.158h0.023l32.118-20.435          l8.932-5.684l40.554-25.803l25.871-16.488l0.428-0.248c0.023,0.316,0.023,0.609,0.023,0.925L470.681,210.119z"
   id="path57" />
							</g>
						</g>
						<g
   id="g61">
							<g
   id="g60">
								<path
   style="fill:#FFCFBC;"
   d="M470.658,217.63l-22.397,14.255l-39.81,25.352l-0.023,0.023l-9.496,6.045l-1.985,1.263          c0,0-0.023,0-0.023,0.023l-3.113,1.962l-28.645,18.225l-44.479,28.329l-2.504,1.579l-48.2,30.697l-1.804,1.15l-11.39,7.263          l-12.608,8.007l-1.083,0.699l-15.495,9.857l-1.15,0.744l-1.06,0.677l-11.187,7.105l-2.346,1.488l-5.413,3.451l-6.451,4.128          l-19.758,12.563l-4.015,2.549h-0.023l-5.887,3.767l-0.654-0.993l5.842-3.722l3.496-2.21l20.367-12.969l4.872-3.113          l5.797-3.676l2.301-1.488l11.345-7.195l1.015-0.654l1.218-0.767l14.909-9.496h0.022l2.729-1.759l12.563-7.985l12.09-7.714          l1.827-1.15l47.546-30.269l2.368-1.511l44.681-28.442l30.449-19.397c0.023,0,0.023-0.023,0.023-0.023l3.248-2.03          c0.023-0.022,0.023-0.045,0.045-0.045l8.052-5.12l41.14-26.186l23.029-14.661          C470.658,216.706,470.681,217.157,470.658,217.63z"
   id="path59" />
							</g>
						</g>
						<g
   id="g63">
							<g
   id="g62">
								<path
   style="fill:#FFCFBC;"
   d="M451.103,236.193l19.578-12.45v1.376l-18.924,12.045l-21.179,13.488l-29.073,18.495          l-33.156,21.112l-43.982,27.991l-3.09,1.962l-61.62,39.223l-4.511,2.865l-7.736,4.917l-11.097,7.082l-0.857,0.541          l-1.196,0.745l-9.789,6.248l-2.458,1.556l-3.834,2.436l-11.075,7.06l-1.94,1.218l-1.286,0.812L186.87,405.74l-6.857,4.375          l-6.135,3.902l-0.654-0.947l6.09-3.879l6.338-4.037l17.435-11.097l12.947-8.233l4.06-2.571l2.436-1.556l10.128-6.451          l1.195-0.767l0.902-0.564l12.067-7.691l6.112-3.902l6.27-3.992l61.508-39.133l3-1.917l44.028-28.013l33.359-21.224          c0,0,0,0,0-0.023l25.375-16.15L451.103,236.193z"
   id="path61" />
							</g>
						</g>
						<g
   id="g65">
							<g
   id="g64">
								<path
   style="fill:#FFCFBC;"
   d="M454.599,241.471l16.082-10.217v1.353l-15.45,9.834l-2.504,1.601l-49.328,31.397          l-13.578,8.639l-1.647,1.037L371.89,295.49l-44.163,28.104l-3.541,2.255l-56.929,36.246l-5.774,3.676l-10.826,6.879          l-6.925,4.421l-0.541,0.338l-0.88,0.564l-5.684,3.609l-1.218,0.767l-1.985,1.263l-0.947,0.609l-1.24,0.789l-0.632,0.406          l-0.654,0.406l-11.886,7.556l-2.752,1.759l-6.473,4.128l-15.089,9.608l-9.924,6.316l-6.383,4.06l-0.654-0.947l6.338-4.038          l9.36-5.954l15.36-9.789l5.391-3.428l2.684-1.692l11.887-7.578l2.932-1.872l0.383-0.225l0.451-0.293l0.609-0.383          l0.293-0.181l1.646-1.06c0.023,0.023,0.023,0.023,0.023,0l6.879-4.376l1.037-0.677l0.541-0.338l7.466-4.759l11.165-7.105          l3.812-2.436l58.621-37.306l3.451-2.188l44.118-28.081l16.849-10.736l1.624-1.015l13.375-8.526l45.584-29.006          L454.599,241.471z"
   id="path63" />
							</g>
						</g>
						<g
   id="g67">
							<g
   id="g66">
								<polygon
   style="fill:#FFCFBC;"
   points="465.809,240.14 470.681,237.028 470.681,238.403 468.786,239.599 457.914,246.523           404.549,280.491 390.159,289.649 388.806,290.528 374.709,299.505 330.163,327.834 326.305,330.293 276.617,361.938           262.001,371.23 253.182,376.846 239.085,385.823 229.184,392.116 225.8,394.282 222.372,396.447 221.673,396.898           220.161,397.868 213.553,402.063 209.358,404.747 207.034,406.213 199.456,411.04 186.78,419.115 180.216,423.287           179.562,422.34 186.081,418.19 198.057,410.566 205.388,405.897 207.531,404.544 212.357,401.454 220.635,396.199           221.808,395.455 222.507,395.003 222.62,394.935 224.515,393.718 229.567,390.515 231.01,389.59 236.942,385.823           252.596,375.854 261.956,369.9 274.406,361.96 325.832,329.233 329.599,326.842 374.055,298.558 388.467,289.378           390.091,288.34 404.301,279.296 457.283,245.553         "
   id="polygon65" />
							</g>
						</g>
					</g>
					<g
   id="g75">
						<g
   id="g71">
							<g
   id="g69">
								<path
   style="fill:#FF6151;"
   d="M144.059,383.147c0,0,55.11,31.278,60.174,28.598c5.064-2.681,5.958-5.958,5.958-5.958          s7.745-0.894,9.83-4.17c2.085-3.277,1.787-7.447,1.787-7.447s7.447-0.298,8.639-5.66c1.192-5.362,1.192-5.362,1.192-5.362          s11.32-1.787,11.916-5.064c0.596-3.277-36.045-7.745-36.045-7.745s24.129-0.894,25.023-4.766          c0.894-3.873-58.386-16.98-58.386-16.98L144.059,383.147z"
   id="path68" />
							</g>
							<g
   style="opacity:0.6;"
   id="g70">
								<path
   style="fill:#FFCFBC;"
   d="M144.059,383.147c0,0,55.11,31.278,60.174,28.598c5.064-2.681,5.958-5.958,5.958-5.958          s7.745-0.894,9.83-4.17c2.085-3.277,1.787-7.447,1.787-7.447s7.447-0.298,8.639-5.66c1.192-5.362,1.192-5.362,1.192-5.362          s11.32-1.787,11.916-5.064c0.596-3.277-36.045-7.745-36.045-7.745s24.129-0.894,25.023-4.766          c0.894-3.873-58.386-16.98-58.386-16.98L144.059,383.147z"
   id="path69" />
							</g>
						</g>
						<g
   id="g72">
							<path
   style="fill:#350820;"
   d="M243.731,377.072c-0.293-0.225-0.654-0.451-1.128-0.654c-1.353-0.677-3.451-1.376-6.293-2.12         c-0.496-0.135-1.015-0.271-1.557-0.384c-2.053-0.519-4.443-1.015-7.15-1.556c-0.541-0.113-1.105-0.225-1.692-0.316         c-2.301-0.451-4.804-0.902-7.533-1.353c-0.564-0.09-1.128-0.18-1.714-0.293c-0.902-0.135-1.85-0.293-2.797-0.451         c-1.556-0.248-3.18-0.496-4.872-0.744c-0.586-0.09-1.173-0.181-1.782-0.271c-0.993-0.158-2.007-0.293-3.045-0.451         c-0.496-0.068-0.925,0.271-0.992,0.744c-0.09,0.474,0.248,0.925,0.722,0.992c0.338,0.045,0.699,0.09,1.037,0.158         c0.586,0.09,1.196,0.158,1.782,0.271c2.571,0.383,5.165,0.789,7.691,1.195c0.586,0.09,1.173,0.203,1.737,0.293         c2.594,0.428,5.143,0.88,7.533,1.331c0.586,0.09,1.15,0.203,1.714,0.316c2.639,0.496,5.097,0.992,7.263,1.466         c0.541,0.113,1.083,0.225,1.601,0.338c2.932,0.676,5.278,1.308,6.767,1.849c0.564,0.18,0.992,0.384,1.285,0.541         c0.158,0.09,0.271,0.18,0.361,0.248c-0.18,1.398-1.218,2.707-6.045,3.361c-0.744,0.09-1.557,0.18-2.481,0.225         c0,0.023,0,0.023-0.023,0c-0.97,0.09-2.075,0.135-3.293,0.158c-1.917,0.045-4.105-0.023-6.361-0.135         c-0.632-0.045-1.285-0.09-1.94-0.135c-2.864-0.226-5.774-0.519-8.323-0.812c-0.654-0.068-1.263-0.136-1.872-0.225         c-3.699-0.451-6.316-0.857-6.383-0.857c-0.474-0.09-0.925,0.248-0.992,0.722c-0.068,0.496,0.248,0.925,0.722,1.015         c0.045,0,1.759,0.271,4.353,0.609c0.564,0.068,1.173,0.135,1.827,0.225c2.391,0.293,5.255,0.609,8.233,0.88         c0.631,0.045,1.263,0.09,1.917,0.135c2.661,0.203,5.323,0.338,7.691,0.338h1.421c0.135,0,0.271-0.023,0.384-0.023         c0.338,0,0.677-0.023,0.992-0.045c0.316,0,0.632-0.022,0.925-0.045c7.646-0.406,10.781-2.007,11.007-5.481         C244.453,377.794,244.228,377.433,243.731,377.072z"
   id="path71" />
						</g>
						<g
   id="g73">
							<path
   style="fill:#350820;"
   d="M216.761,395.157c-7.029,0-10.857-0.687-11.048-0.724c-0.476-0.087-0.788-0.543-0.702-1.019         c0.088-0.477,0.551-0.793,1.02-0.702c0.057,0.01,5.718,1.025,15.74,0.582c9.297-0.403,9.011-9.715,8.993-10.11         c-0.02-0.483,0.355-0.891,0.837-0.912c0.564,0.03,0.892,0.356,0.912,0.837c0.004,0.115,0.357,11.455-10.667,11.934         C219.999,395.124,218.303,395.157,216.761,395.157z"
   id="path72" />
						</g>
						<g
   id="g74">
							<path
   style="fill:#350820;"
   d="M210.402,406.527c-2.665,0-5.39-0.646-7.907-1.39c-0.463-0.136-0.727-0.623-0.59-1.087         c0.137-0.464,0.61-0.727,1.088-0.591c4.231,1.25,9.066,2.22,12.844-0.065c2.963-1.793,4.868-5.26,5.097-9.274         c0.029-0.481,0.392-0.86,0.925-0.824c0.482,0.028,0.85,0.44,0.824,0.923c-0.262,4.59-2.482,8.58-5.938,10.673         C214.77,406.085,212.605,406.527,210.402,406.527z"
   id="path73" />
						</g>
					</g>
					<g
   id="g76">
						<path
   style="fill:#A6DCE7;"
   d="M132.739,284.943l47.662,61.564l-32.569,46.074c0,0-57.195-27.008-69.11-47.265        C66.806,325.059,132.739,284.943,132.739,284.943z"
   id="path75" />
					</g>
					<g
   id="g77">
						<path
   style="fill:#350820;"
   d="M148.03,393.853c-0.174,0-0.348-0.052-0.5-0.158c-0.396-0.276-0.493-0.821-0.218-1.218        l32.007-45.946l-41.315-53.906c-0.295-0.383-0.222-0.933,0.161-1.227c0.383-0.29,0.934-0.222,1.227,0.163l41.705,54.414        c0.233,0.302,0.242,0.719,0.024,1.032l-32.372,46.47C148.578,393.722,148.305,393.853,148.03,393.853z"
   id="path76" />
					</g>
					<g
   id="g78">
						<path
   style="fill:#350820;"
   d="M157.464,316.998c-0.101,0-0.202-0.017-0.302-0.054c-0.454-0.167-0.687-0.669-0.52-1.123        l22.341-60.77c0.168-0.455,0.676-0.681,1.123-0.52c0.454,0.167,0.687,0.67,0.52,1.123l-22.341,60.77        C158.155,316.779,157.82,316.998,157.464,316.998z"
   id="path77" />
					</g>
				</g>
			</g>
			
			<g
   id="g125">
				<polygon
   style="fill:#FFF2DC;"
   points="384.059,142.979 382.412,107.871 401.625,137.088 435.616,128.357 408.242,148.839       424.373,177.772 399.065,155.55 379.354,182.667 383.495,153.782 348.414,149.931     "
   id="polygon124" />
			</g>
			<g
   id="g126">
				<polygon
   style="fill:#FFF2DC;"
   points="106.732,443.542 127.596,469.277 100.146,452.519 98.838,451.729 95.793,457.909       84.064,481.818 83.207,452.654 57.923,454.256 57.923,451.075 81.899,441.918 74.275,407.612 84.267,418.257 94.778,429.445       98.206,433.099 130.189,418.686     "
   id="polygon125" />
			</g>
		</g>
	</g>
</g>















</svg>
